<svg xmlns="http://www.w3.org/2000/svg">
<defs>
<font id="Greta Sans Std Hea Ita">
<font-face  font-family="Greta Sans Std" units-per-em="1000" ascent="710" descent="-290" font-style="italic" font-weight="800" font-stretch="normal" slope="-9" cap-height="583" x-height="452" underline-position="-75" underline-thickness="50" />

<glyph glyph-name="NULL" d="" />
<glyph glyph-name="CR" unicode="&#xd;" horiz-adv-x="250" d="" />
<glyph glyph-name="space" unicode="&#x20;" horiz-adv-x="250" d="" />
<glyph glyph-name="exclam" unicode="&#x21;" horiz-adv-x="273" d="M78 342 L70 201 L185 201 L225 340 L267 583 L121 583 L78 342 Z M19 -2 L148 -16 L193 132 L48 133 L19 -2 Z " />
<glyph glyph-name="quotedbl" unicode="&#x22;" horiz-adv-x="413" d="M87 427 L194 427 L258 658 L127 658 L87 427 Z M272 427 L379 427 L443 658 L312 658 L272 427 Z " />
<glyph glyph-name="numbersign" unicode="&#x23;" horiz-adv-x="638" d="M93 356 L185 356 L134 222 L40 222 L9 126 L98 126 L50 0 L154 0 L202 126 L316 126 L268 0 L373 0 L421 126 L526 126 L557 222 L457 222 L508 356 L611 356 L642 452 L544 452 L594 583 L490 583 L440 452 L325 452 L375 583 L271 583 L221 452 L124 452 L93 356 Z M289 356 L403 356 L352 222 L238 222 L289 356 Z " />
<glyph glyph-name="dollar" unicode="&#x24;" horiz-adv-x="453" d="M10 26 C55 5 103 -7 154 -8 L143 -81 L200 -81 L212 -5 C316 7 404 60 404 177 C404 251 350 294 296 326 C241 359 187 381 187 414 C187 454 235 470 276 470 C330 470 400 451 425 433 L445 547 C419 564 370 579 313 582 L326 654 L268 654 L256 581 C154 570 64 509 64 389 C64 319 118 276 172 244 C227 210 281 188 281 156 C281 119 246 106 206 106 C133 106 67 123 31 145 L10 26 Z " />
<glyph glyph-name="percent" unicode="&#x25;" horiz-adv-x="690" d="M174 292 C253 292 329 350 329 475 C329 551 281 594 216 594 C137 594 60 534 60 409 C60 334 109 292 174 292 L174 292 Z M185 362 C159 362 147 387 147 420 C147 488 174 522 206 522 C231 522 243 498 243 465 C243 395 216 362 185 362 L185 362 Z M453 368 L598 563 L599 583 L505 583 L375 368 L453 368 Z M287 245 L122 20 L121 0 L216 0 L365 245 L287 245 Z M487 -9 C566 -9 642 50 642 175 C642 251 594 294 529 294 C451 294 373 232 373 110 C373 34 423 -9 487 -9 L487 -9 Z M497 61 C472 61 460 87 460 119 C460 183 486 222 519 222 C544 222 555 198 555 165 C555 95 528 61 497 61 L497 61 Z " />
<glyph glyph-name="ampersand" unicode="&#x26;" horiz-adv-x="716" d="M703 288 L711 390 L694 395 C626 369 567 360 500 360 C483 360 461 360 445 361 C483 389 501 426 501 462 C501 530 430 595 310 595 C178 595 78 516 78 425 C78 384 98 331 141 303 C90 282 25 235 25 149 C25 36 135 -8 270 -8 C402 -8 559 71 594 249 C635 254 673 266 703 288 L703 288 Z M337 285 C375 273 422 260 469 253 C450 155 364 105 294 105 C229 105 173 126 173 189 C173 241 225 270 266 285 L260 335 C227 355 212 386 212 415 C212 456 244 492 297 492 C351 492 379 460 379 424 C379 390 358 355 325 334 L337 285 Z " />
<glyph glyph-name="quotesingle" unicode="&#x27;" horiz-adv-x="228" d="M87 427 L194 427 L258 658 L127 658 L87 427 Z " />
<glyph glyph-name="parenleft" unicode="&#x28;" horiz-adv-x="289" d="M194 -192 C171 -143 129 -32 129 100 C129 326 228 540 340 651 L224 651 C116 534 20 315 20 96 C20 -31 57 -146 82 -192 L194 -192 Z " />
<glyph glyph-name="parenright" unicode="&#x29;" horiz-adv-x="290" d="M91 651 C114 606 156 489 156 365 C156 140 45 -75 -65 -192 L53 -192 C165 -70 264 161 264 355 C264 481 225 607 200 651 L91 651 Z " />
<glyph glyph-name="asterisk" unicode="&#x2a;" horiz-adv-x="355" d="M81 502 L170 464 L69 433 L95 353 L183 434 L147 319 L230 319 L227 434 L293 353 L348 433 L251 466 L359 501 L333 580 L235 500 L282 616 L199 616 L200 501 L137 580 L81 502 Z " />
<glyph glyph-name="plus" unicode="&#x2b;" horiz-adv-x="458" d="M31 253 L183 253 L154 87 L244 87 L273 253 L425 253 L441 341 L289 341 L318 505 L228 505 L199 341 L46 341 L31 253 Z " />
<glyph glyph-name="comma" unicode="&#x2c;" horiz-adv-x="249" d="M64 -167 C106 -109 135 -33 155 34 C160 50 166 80 171 97 L35 107 L24 52 C8 -12 -11 -68 -44 -125 L64 -167 Z " />
<glyph glyph-name="&amp;#x2d;" unicode="&#x2d;" horiz-adv-x="336" d="M42 197 L271 197 L289 290 L60 290 L42 197 Z " />
<glyph glyph-name="&amp;#xad;" unicode="&#xad;" horiz-adv-x="336" d="M42 197 L271 197 L289 290 L60 290 L42 197 Z " />
<glyph glyph-name="period" unicode="&#x2e;" horiz-adv-x="256" d="M9 -2 L139 -16 L183 132 L38 133 L9 -2 Z " />
<glyph glyph-name="slash" unicode="&#x2f;" horiz-adv-x="363" d="M-23 -85 L101 -85 L402 663 L284 663 L-23 -85 Z " />
<glyph glyph-name="zero" unicode="0" horiz-adv-x="573" d="M547 379 C547 493 490 595 346 595 C140 595 40 402 40 209 C40 90 98 -8 241 -8 C447 -8 547 185 547 379 L547 379 Z M263 108 C214 108 194 136 194 218 C194 337 235 478 322 478 C379 478 391 425 391 355 C391 255 366 108 263 108 L263 108 Z " />
<glyph glyph-name="one" unicode="1" horiz-adv-x="373" d="M260 0 L361 583 L261 583 L74 529 L50 410 L178 435 L103 0 L260 0 Z " />
<glyph glyph-name="two" unicode="2" horiz-adv-x="502" d="M439 117 L202 117 C340 214 482 357 482 460 C482 546 394 595 285 595 C215 595 160 584 94 549 L79 431 C124 453 185 467 233 467 C278 467 316 458 331 428 C295 341 172 215 13 85 L-1 0 L425 0 L439 117 Z " />
<glyph glyph-name="three" unicode="3" horiz-adv-x="486" d="M-1 17 C23 5 96 -8 164 -8 C267 -8 440 53 440 187 C440 240 390 293 334 318 L335 322 C393 346 467 414 467 478 C467 549 384 595 292 595 C224 595 159 585 89 548 L86 427 C118 448 179 464 231 464 C275 464 309 451 320 430 C296 394 241 339 178 314 L170 262 C225 238 262 207 288 162 C264 132 215 112 165 112 C121 112 76 121 36 136 L-1 17 Z " />
<glyph glyph-name="four" unicode="4" horiz-adv-x="528" d="M483 583 L347 583 L16 229 L7 128 L246 128 L224 0 L381 0 L403 128 L477 128 L497 245 L423 245 L483 583 Z M141 245 L297 420 L300 420 L268 245 L141 245 Z " />
<glyph glyph-name="five" unicode="5" horiz-adv-x="482" d="M16 17 C41 5 110 -8 170 -8 C274 -8 439 48 439 193 C439 304 348 348 275 366 C246 365 220 361 197 353 L222 467 L444 467 L464 583 L119 583 L52 264 L90 243 C124 255 165 267 214 275 C260 261 281 226 281 187 C281 144 242 108 185 108 C136 108 75 120 32 136 L16 17 Z " />
<glyph glyph-name="six" unicode="6" horiz-adv-x="522" d="M500 574 C464 588 409 595 364 595 C189 595 37 422 37 212 C37 62 135 -8 235 -8 C365 -8 485 119 485 212 C485 306 438 355 378 380 C331 380 264 363 204 334 C208 352 214 369 222 386 C247 440 286 480 347 480 C386 480 428 471 477 453 L500 574 Z M299 275 C323 257 339 225 339 194 C339 158 304 110 250 96 C205 108 189 165 189 215 L189 236 C230 258 263 267 299 275 L299 275 Z " />
<glyph glyph-name="seven" unicode="7" horiz-adv-x="455" d="M63 458 L331 458 L51 21 L57 0 L196 0 L490 525 L468 583 L80 583 L63 458 Z " />
<glyph glyph-name="eight" unicode="8" horiz-adv-x="523" d="M508 474 C508 538 429 595 323 595 C208 595 76 508 76 429 C76 382 116 330 165 283 C89 245 14 187 14 117 C14 49 78 -8 198 -8 C339 -8 474 65 474 155 C474 202 420 257 360 309 C437 350 508 417 508 474 L508 474 Z M327 132 C302 110 259 97 220 97 C185 97 144 110 123 138 C143 173 171 209 212 240 C261 196 309 158 327 132 L327 132 Z M201 451 C220 476 255 488 288 488 C328 488 372 474 389 446 C373 418 342 383 306 353 C256 393 212 428 201 451 L201 451 Z " />
<glyph glyph-name="nine" unicode="9" horiz-adv-x="521" d="M34 12 C70 -2 125 -9 170 -9 C345 -9 497 164 497 374 C497 524 399 594 299 594 C169 594 49 467 49 374 C49 280 96 231 156 206 C203 206 270 222 330 252 C325 234 319 216 312 200 C287 146 248 106 187 106 C148 106 106 115 57 133 L34 12 Z M235 311 C211 329 195 361 195 392 C195 428 230 476 284 490 C329 478 345 421 345 371 C345 364 345 357 344 350 C303 328 271 318 235 311 L235 311 Z " />
<glyph glyph-name="colon" unicode="&#x3a;" horiz-adv-x="260" d="M12 -2 L142 -16 L186 132 L41 133 L12 -2 Z M69 336 L199 322 L243 470 L98 471 L69 336 Z " />
<glyph glyph-name="semicolon" unicode="&#x3b;" horiz-adv-x="274" d="M71 -167 C113 -109 142 -33 162 34 C167 50 173 80 178 97 L42 107 L31 52 C15 -12 -4 -68 -37 -125 L71 -167 Z M85 336 L215 322 L259 470 L114 471 L85 336 Z " />
<glyph glyph-name="less" unicode="&#x3c;" horiz-adv-x="454" d="M364 58 L380 155 L142 296 L430 436 L447 531 L43 331 L30 258 L364 58 Z " />
<glyph glyph-name="equal" unicode="&#x3d;" horiz-adv-x="485" d="M38 159 L412 159 L428 245 L53 245 L38 159 Z M71 347 L446 347 L461 432 L87 432 L71 347 Z " />
<glyph glyph-name="greater" unicode="&#x3e;" horiz-adv-x="452" d="M424 258 L436 331 L103 531 L87 436 L325 296 L37 155 L20 58 L424 258 Z " />
<glyph glyph-name="question" unicode="&#x3f;" horiz-adv-x="356" d="M359 448 C359 534 257 582 117 600 L81 501 C135 489 188 474 226 446 C189 408 110 366 81 323 C73 312 68 302 68 292 C68 265 90 223 100 199 L199 208 L185 273 L281 347 C322 378 359 407 359 448 L359 448 Z M40 -2 L170 -16 L214 132 L70 133 L40 -2 Z " />
<glyph glyph-name="at" unicode="&#x40;" horiz-adv-x="840" d="M477 -9 C692 25 823 163 823 340 C823 532 683 656 503 656 C216 656 25 434 25 163 C25 -55 143 -211 366 -211 C473 -211 595 -174 667 -118 L674 -32 C596 -86 478 -124 392 -124 C210 -124 118 -33 118 171 C118 409 271 574 488 574 C652 574 733 466 733 328 C733 220 678 135 569 92 L561 99 L637 459 L535 459 L530 436 C498 450 464 458 444 458 C388 458 346 432 311 394 C251 332 221 207 221 69 C221 41 224 15 228 -6 L323 -6 L462 126 L435 5 L477 -9 Z M340 128 C340 139 339 152 340 163 C342 250 365 322 403 374 C410 375 416 376 422 376 C449 375 479 361 509 340 L485 233 L354 123 L340 128 Z " />
<glyph glyph-name="A" unicode="A" horiz-adv-x="577" d="M-46 0 L104 0 L168 127 L349 127 L361 0 L526 0 L444 583 L277 583 L-46 0 Z M319 426 L323 426 L338 251 L230 251 L319 426 Z " />
<glyph glyph-name="B" unicode="B" horiz-adv-x="552" d="M17 0 L266 0 C416 0 512 66 512 186 C512 261 455 302 412 309 L412 311 C478 330 532 378 532 449 C532 538 462 583 337 583 L119 583 L17 0 Z M244 242 C320 242 352 229 352 190 C352 136 305 120 235 120 L196 120 L217 242 L244 242 Z M278 463 C333 463 363 452 363 416 C363 371 327 348 255 348 L236 348 L256 463 L278 463 Z " />
<glyph glyph-name="C" unicode="C" horiz-adv-x="545" d="M287 -12 C361 -12 439 10 472 29 L496 166 C432 130 388 118 330 118 C245 118 202 164 202 255 C202 402 295 463 392 463 C441 463 493 454 532 423 L557 566 C520 583 470 595 408 595 C178 595 30 436 30 232 C30 75 137 -12 287 -12 L287 -12 Z " />
<glyph glyph-name="D" unicode="D" horiz-adv-x="621" d="M17 0 L232 0 C430 4 603 121 603 354 C603 517 482 583 328 583 L119 583 L17 0 Z M277 456 C380 456 430 421 430 334 C430 188 350 127 221 127 L197 127 L254 456 L277 456 Z " />
<glyph glyph-name="E" unicode="E" horiz-adv-x="486" d="M17 0 L410 0 L431 127 L197 127 L216 235 L401 235 L422 354 L237 354 L255 456 L484 456 L506 583 L119 583 L17 0 Z " />
<glyph glyph-name="F" unicode="F" horiz-adv-x="469" d="M17 0 L175 0 L211 207 L397 207 L419 327 L232 327 L254 456 L485 456 L507 583 L119 583 L17 0 Z " />
<glyph glyph-name="G" unicode="G" horiz-adv-x="581" d="M285 -12 C360 -12 436 1 496 28 L547 312 L389 312 L355 119 C346 118 338 118 331 118 C243 118 200 160 200 252 C200 398 299 462 397 463 C453 464 524 450 563 418 L589 562 C550 582 476 595 414 595 C184 595 28 433 28 227 C28 76 136 -12 285 -12 L285 -12 Z " />
<glyph glyph-name="H" unicode="H" horiz-adv-x="644" d="M380 0 L538 0 L640 583 L482 583 L443 362 L238 362 L277 583 L120 583 L17 0 L175 0 L216 235 L421 235 L380 0 Z " />
<glyph glyph-name="I" unicode="I" horiz-adv-x="282" d="M17 0 L175 0 L277 583 L119 583 L17 0 Z " />
<glyph glyph-name="J" unicode="J" horiz-adv-x="287" d="M41 -115 C149 -4 200 89 216 179 L287 583 L131 583 L59 175 C45 94 5 47 -69 -55 L41 -115 Z " />
<glyph glyph-name="K" unicode="K" horiz-adv-x="568" d="M17 0 L175 0 L224 283 L342 0 L523 0 L382 324 L620 583 L462 583 L229 312 L277 583 L119 583 L17 0 Z " />
<glyph glyph-name="L" unicode="L" horiz-adv-x="447" d="M17 0 L391 0 L413 127 L197 127 L277 583 L119 583 L17 0 Z " />
<glyph glyph-name="M" unicode="M" horiz-adv-x="788" d="M-15 0 L132 0 L223 325 L228 325 L274 0 L394 0 L561 321 L566 321 L544 0 L710 0 L751 583 L571 583 L407 273 L402 273 L351 583 L157 583 L-15 0 Z " />
<glyph glyph-name="N" unicode="N" horiz-adv-x="647" d="M17 0 L156 0 L212 318 L217 318 L411 0 L541 0 L643 583 L504 583 L449 271 L444 271 L247 583 L120 583 L17 0 Z " />
<glyph glyph-name="O" unicode="O" horiz-adv-x="638" d="M264 -12 C484 -12 625 188 625 379 C625 515 549 595 386 595 C162 595 26 401 26 204 C26 70 104 -12 264 -12 L264 -12 Z M294 111 C228 111 194 151 194 229 C194 335 240 472 356 472 C422 472 457 438 457 361 C457 257 411 111 294 111 L294 111 Z " />
<glyph glyph-name="P" unicode="P" horiz-adv-x="530" d="M17 0 L175 0 L205 172 L250 172 C429 172 534 276 534 405 C534 513 461 583 346 583 L119 583 L17 0 Z M264 463 C335 463 368 442 368 389 C368 313 309 292 229 292 L226 292 L256 463 L264 463 Z " />
<glyph glyph-name="Q" unicode="Q" horiz-adv-x="638" d="M264 -12 C275 -12 287 -11 298 -10 L372 -114 L553 -114 L561 -96 L428 30 C551 98 625 241 625 379 C625 515 549 595 386 595 C162 595 26 401 26 204 C26 70 104 -12 264 -12 L264 -12 Z M294 111 C228 111 194 151 194 229 C194 335 240 472 356 472 C422 472 457 438 457 361 C457 257 411 111 294 111 L294 111 Z " />
<glyph glyph-name="R" unicode="R" horiz-adv-x="552" d="M17 0 L175 0 L206 178 L250 178 C259 178 268 178 276 179 L335 0 L505 0 L412 215 C490 257 534 330 534 412 C534 517 461 583 337 583 L119 583 L17 0 Z M264 463 C335 463 368 444 368 394 C368 319 309 298 229 298 L227 298 L256 463 L264 463 Z " />
<glyph glyph-name="S" unicode="S" horiz-adv-x="482" d="M-1 25 C51 1 115 -12 174 -12 C314 -12 441 42 441 190 C441 277 378 318 318 346 C259 374 214 388 214 419 C214 455 261 472 312 472 C371 472 434 451 459 434 L484 556 C450 576 380 595 308 595 C176 595 60 523 60 386 C60 307 118 265 178 238 C238 211 292 198 292 164 C292 130 256 111 211 111 C149 111 70 127 25 152 L-1 25 Z " />
<glyph glyph-name="T" unicode="T" horiz-adv-x="538" d="M49 456 L225 456 L145 0 L303 0 L383 456 L560 456 L582 583 L71 583 L49 456 Z " />
<glyph glyph-name="U" unicode="U" horiz-adv-x="634" d="M270 -12 C432 -12 545 64 576 239 L637 583 L480 583 L421 249 C403 151 360 111 295 111 C236 111 207 137 207 198 C207 212 208 227 211 244 L271 583 L114 583 L49 213 C46 197 45 181 45 167 C45 46 142 -12 270 -12 L270 -12 Z " />
<glyph glyph-name="V" unicode="V" horiz-adv-x="594" d="M653 583 L486 583 L286 177 L282 177 L242 583 L62 583 L152 0 L328 0 L653 583 Z " />
<glyph glyph-name="W" unicode="W" horiz-adv-x="897" d="M948 583 L785 583 L629 212 L625 212 L597 583 L435 583 L255 211 L250 211 L251 583 L79 583 L90 0 L278 0 L442 341 L448 341 L478 0 L675 0 L948 583 Z " />
<glyph glyph-name="X" unicode="X" horiz-adv-x="571" d="M70 583 L189 282 L-46 0 L124 0 L264 181 L322 0 L517 0 L393 309 L630 583 L461 583 L319 412 L258 583 L70 583 Z " />
<glyph glyph-name="Y" unicode="Y" horiz-adv-x="569" d="M634 583 L466 583 L305 336 L302 336 L234 583 L51 583 L189 201 L154 0 L312 0 L347 196 L634 583 Z " />
<glyph glyph-name="Z" unicode="Z" horiz-adv-x="518" d="M444 0 L466 128 L228 128 L561 579 L560 583 L89 583 L66 456 L296 456 L-32 3 L-30 0 L444 0 Z " />
<glyph glyph-name="bracketleft" unicode="&#x5b;" horiz-adv-x="273" d="M-14 -181 L162 -181 L179 -88 L109 -88 L227 585 L297 585 L313 679 L137 679 L-14 -181 Z " />
<glyph glyph-name="backslash" unicode="&#x5c;" horiz-adv-x="602" d="M222 663 L105 663 L385 -85 L508 -85 L222 663 Z " />
<glyph glyph-name="bracketright" unicode="&#x5d;" horiz-adv-x="274" d="M285 679 L108 679 L92 585 L162 585 L44 -88 L-26 -88 L-42 -181 L134 -181 L285 679 Z " />
<glyph glyph-name="asciicircum" unicode="&#x5e;" horiz-adv-x="418" d="M5 233 L142 233 L266 459 L299 233 L438 233 L364 583 L218 583 L5 233 Z " />
<glyph glyph-name="underscore" unicode="&#x5f;" horiz-adv-x="657" d="M20 -172 L487 -172 L503 -80 L36 -80 L20 -172 Z " />
<glyph glyph-name="grave" unicode="&#x60;" horiz-adv-x="274" d="M333 529 L223 683 L89 683 L233 529 L333 529 Z " />
<glyph glyph-name="a" unicode="a" horiz-adv-x="498" d="M403 0 L483 459 L345 459 L340 434 C312 452 284 466 263 466 C186 466 118 424 82 377 C41 323 15 210 15 111 C15 71 20 33 29 0 L149 0 L283 112 L263 0 L403 0 Z M167 129 C164 157 162 183 164 207 C166 267 183 327 210 366 C221 365 233 365 246 362 C270 358 296 349 323 334 L301 215 L182 124 L167 129 Z " />
<glyph glyph-name="b" unicode="b" horiz-adv-x="491" d="M9 35 C58 13 135 -10 204 -10 C344 -10 469 137 469 297 C469 381 453 466 368 466 C323 466 261 427 211 389 L258 653 L118 653 L9 35 Z M289 341 L307 339 C316 320 324 293 324 259 C324 171 281 98 235 98 C210 98 185 103 162 111 L192 282 C224 306 257 326 289 341 L289 341 Z " />
<glyph glyph-name="c" unicode="c" horiz-adv-x="401" d="M322 185 C272 149 230 126 185 112 L171 117 C165 142 163 167 163 192 C163 252 180 312 209 350 C219 351 229 352 240 352 C281 352 325 341 367 321 L405 434 C370 455 318 466 270 466 C200 466 119 428 75 371 C37 321 16 232 16 141 C16 94 25 41 38 0 L158 -11 C247 21 321 77 367 119 L322 185 Z " />
<glyph glyph-name="d" unicode="d" horiz-adv-x="499" d="M404 0 L519 653 L378 653 L341 442 C312 457 284 466 263 466 C186 466 118 424 82 377 C41 323 15 210 15 111 C15 71 20 33 29 0 L149 0 L283 112 L263 0 L404 0 Z M167 129 C164 152 163 175 163 196 C165 261 182 328 210 369 C217 370 220 371 227 371 C255 369 288 358 322 338 L301 214 L182 124 L167 129 Z " />
<glyph glyph-name="e" unicode="e" horiz-adv-x="441" d="M394 117 L353 192 C305 159 236 124 187 108 L173 113 C169 134 166 154 165 173 C254 206 370 252 425 296 L438 400 C391 442 302 466 240 466 C170 466 117 429 77 376 C39 326 17 232 17 141 C17 94 25 40 38 0 L158 -11 C238 17 334 70 394 117 L394 117 Z M212 363 C218 364 226 364 233 363 C258 361 286 351 304 338 L304 315 C268 290 216 267 168 248 C174 292 189 331 212 363 L212 363 Z " />
<glyph glyph-name="f" unicode="f" horiz-adv-x="339" d="M31 354 L107 354 L48 12 C38 -51 25 -85 10 -107 C-35 -110 -71 -100 -105 -89 L-130 -194 C-102 -207 -48 -212 -13 -212 C96 -212 166 -109 187 10 L246 354 L346 354 L364 456 L264 456 L265 463 C271 500 279 523 299 549 C315 551 330 551 346 548 C367 546 390 540 412 531 L449 647 C429 653 408 656 386 658 C367 660 347 660 328 657 C230 650 151 599 130 482 L125 456 L48 456 L31 354 Z " />
<glyph glyph-name="g" unicode="g" horiz-adv-x="497" d="M142 -213 C197 -213 252 -197 297 -168 C352 -131 390 -71 401 -6 L482 459 L345 459 L342 441 C313 456 284 466 263 466 C186 466 118 424 82 377 C41 323 15 210 15 111 C15 71 20 33 29 0 L149 0 L284 113 L274 55 C262 -18 246 -76 230 -94 C213 -97 196 -98 180 -98 C159 -98 138 -96 118 -93 C74 -87 34 -74 0 -57 L-32 -183 C17 -203 85 -213 142 -213 L142 -213 Z M167 129 C164 149 163 169 163 188 C163 256 181 323 210 366 L228 366 C258 363 289 353 323 335 L302 216 L182 124 L167 129 Z " />
<glyph glyph-name="h" unicode="h" horiz-adv-x="509" d="M144 0 L189 260 C235 298 280 319 306 329 L321 324 C327 302 323 263 316 220 L278 0 L418 0 L467 286 C473 319 475 347 475 371 C475 434 455 466 408 466 C347 466 279 427 208 366 L258 653 L120 653 L5 0 L144 0 Z " />
<glyph glyph-name="i" unicode="i" horiz-adv-x="239" d="M144 0 L224 456 L86 456 L5 0 L144 0 Z M235 535 L275 675 L125 677 L107 568 L235 535 Z " />
<glyph glyph-name="j" unicode="j" horiz-adv-x="239" d="M4 -3 C-5 -55 -40 -96 -91 -161 L3 -227 C74 -161 129 -93 145 -1 L224 456 L86 456 L4 -3 Z M235 535 L275 675 L125 677 L108 568 L235 535 Z " />
<glyph glyph-name="k" unicode="k" horiz-adv-x="498" d="M144 0 L188 254 C238 299 283 329 316 341 L329 336 C322 285 295 247 253 205 L245 171 L288 0 L443 0 L381 194 C442 248 480 326 482 407 C482 421 480 440 478 454 L350 466 C315 453 261 420 210 378 L258 653 L120 653 L5 0 L144 0 Z " />
<glyph glyph-name="l" unicode="l" horiz-adv-x="242" d="M146 0 L259 653 L122 653 L6 0 L146 0 Z " />
<glyph glyph-name="m" unicode="m" horiz-adv-x="755" d="M145 0 L190 261 C232 298 269 319 294 328 L308 324 C314 302 310 263 303 220 L265 0 L405 0 L450 261 C491 298 528 319 553 328 L568 324 C574 302 570 263 563 220 L525 0 L665 0 L714 286 C719 315 721 341 721 364 C721 427 702 466 654 466 C591 466 530 426 461 362 C462 427 442 466 394 466 C334 466 274 429 209 370 L224 456 L86 456 L5 0 L145 0 Z " />
<glyph glyph-name="n" unicode="n" horiz-adv-x="509" d="M145 0 L190 260 C235 298 280 319 306 329 L322 324 C327 302 324 263 316 220 L278 0 L418 0 L467 286 C473 319 475 347 475 371 C475 434 455 466 408 466 C347 466 279 427 208 367 L224 456 L86 456 L5 0 L145 0 Z " />
<glyph glyph-name="o" unicode="o" horiz-adv-x="483" d="M227 88 C201 88 181 95 167 102 C161 120 157 140 157 162 C157 235 186 320 234 367 C264 367 291 360 307 353 C314 330 318 307 318 285 C317 208 281 140 227 88 L227 88 Z M157 -8 C236 -7 316 23 369 74 C427 131 461 214 462 299 C462 419 406 466 312 466 C224 465 134 429 80 362 C34 305 13 225 13 145 C13 46 64 -8 157 -8 L157 -8 Z " />
<glyph glyph-name="p" unicode="p" horiz-adv-x="513" d="M131 -207 L165 -5 C185 -8 204 -10 223 -10 C366 -10 491 135 491 297 C491 381 474 464 395 464 C358 464 300 447 239 425 L245 456 L107 456 L90 359 C53 341 23 325 7 314 L31 239 C44 246 57 254 72 261 L-10 -207 L131 -207 Z M311 349 L329 346 C338 327 346 296 346 262 C346 182 309 98 257 98 C235 98 211 102 185 110 L222 325 C250 334 279 342 311 349 L311 349 Z " />
<glyph glyph-name="q" unicode="q" horiz-adv-x="497" d="M366 -207 L482 459 L344 459 L341 442 C312 456 284 466 263 466 C186 466 118 424 82 377 C41 323 15 210 15 111 C15 71 20 33 29 0 L149 0 L282 112 L226 -207 L366 -207 Z M167 129 C164 151 163 172 163 192 C164 258 181 324 210 366 C217 366 225 366 233 365 C260 361 290 352 322 335 L300 214 L182 124 L167 129 Z " />
<glyph glyph-name="r" unicode="r" horiz-adv-x="373" d="M145 0 L189 253 C229 283 261 301 290 312 L346 285 L400 438 C385 454 363 466 333 466 C307 466 257 421 208 363 L224 456 L86 456 L5 0 L145 0 Z " />
<glyph glyph-name="s" unicode="s" horiz-adv-x="390" d="M380 440 C337 458 281 466 240 466 C111 466 42 388 42 312 C42 263 71 219 122 185 C149 166 193 140 210 117 C212 114 214 112 215 109 C201 98 180 93 156 93 C111 93 51 110 10 129 L-10 20 C24 3 88 -8 145 -8 C190 -8 241 3 281 27 C320 50 348 86 348 135 C348 198 297 232 244 265 C220 280 179 307 166 334 C164 340 164 345 165 352 C184 359 205 363 227 363 C273 362 321 346 358 327 L380 440 Z " />
<glyph glyph-name="t" unicode="t" horiz-adv-x="380" d="M29 354 L94 354 L35 25 L133 -8 C228 12 293 48 353 84 L315 180 C282 161 251 141 209 128 L199 135 L234 354 L368 354 L386 456 L250 456 L270 579 L135 579 L113 456 L46 456 L29 354 Z " />
<glyph glyph-name="u" unicode="u" horiz-adv-x="503" d="M349 456 L304 194 C260 157 215 135 190 127 L175 131 C172 154 176 194 183 236 L222 456 L82 456 L32 164 C28 139 26 115 26 95 C26 29 48 -9 96 -9 C162 -9 223 28 285 85 L270 0 L408 0 L489 456 L349 456 Z " />
<glyph glyph-name="v" unicode="v" horiz-adv-x="469" d="M358 456 L222 137 L212 137 C195 209 188 271 189 333 C190 372 194 411 199 456 L58 456 C52 423 49 387 48 351 C47 217 77 71 103 0 L274 0 L498 456 L358 456 Z " />
<glyph glyph-name="w" unicode="w" horiz-adv-x="727" d="M616 456 L492 149 L482 149 C470 212 464 269 464 326 C464 367 468 408 474 456 L333 456 C327 427 324 395 324 363 L218 149 L208 149 C196 212 190 269 190 326 C190 367 194 408 200 456 L59 456 C52 418 49 377 49 335 C50 206 80 69 103 0 L240 0 L340 192 C353 113 373 43 388 0 L532 0 L756 456 L616 456 Z " />
<glyph glyph-name="x" unicode="x" horiz-adv-x="465" d="M354 456 L254 329 L205 456 L46 456 L149 220 L-46 0 L102 0 L199 127 L245 0 L407 0 L306 234 L503 456 L354 456 Z " />
<glyph glyph-name="y" unicode="y" horiz-adv-x="472" d="M206 -207 L363 164 L500 456 L360 456 L224 137 L213 137 C197 206 190 265 190 324 C190 367 194 408 200 456 L60 456 C53 422 50 385 50 348 C49 215 78 71 103 0 L156 0 L59 -179 L68 -207 L206 -207 Z " />
<glyph glyph-name="z" unicode="z" horiz-adv-x="425" d="M44 347 L235 347 L-6 77 L-5 0 L356 0 L374 111 L177 111 L421 383 L421 456 L61 456 L44 347 Z " />
<glyph glyph-name="braceleft" unicode="&#x7b;" horiz-adv-x="297" d="M146 -180 L188 -178 L204 -90 L184 -90 C125 -90 112 -71 124 -25 L169 148 C172 160 173 172 173 183 C173 215 161 242 129 252 C181 271 203 305 208 362 L223 531 C227 578 251 592 304 592 L324 592 L340 682 L288 682 C204 683 133 649 123 546 L103 351 C100 314 80 298 36 298 L22 216 C67 216 78 191 69 156 L20 -34 C15 -52 13 -68 13 -82 C13 -158 74 -183 146 -180 L146 -180 Z " />
<glyph glyph-name="bar" unicode="&#x7c;" horiz-adv-x="235" d="M3 -92 L110 -92 L246 675 L139 675 L3 -92 Z " />
<glyph glyph-name="braceright" unicode="&#x7d;" horiz-adv-x="296" d="M148 681 L106 679 L90 591 L110 591 C169 591 182 572 170 526 L125 353 C122 341 121 329 121 318 C121 286 133 259 165 249 C113 230 91 196 86 139 L71 -30 C67 -77 43 -91 -10 -91 L-30 -91 L-46 -181 L6 -181 C90 -182 161 -148 171 -45 L191 150 C194 187 214 203 258 203 L272 285 C227 285 216 310 225 345 L274 535 C279 553 281 569 281 583 C281 659 220 684 148 681 L148 681 Z " />
<glyph glyph-name="asciitilde" unicode="&#x7e;" horiz-adv-x="472" d="M303 197 C362 197 408 234 435 264 L404 342 C377 320 339 315 324 315 C268 316 237 345 174 345 C119 345 68 306 42 271 L71 200 C99 221 134 229 156 229 C210 229 245 197 303 197 L303 197 Z " />
<glyph glyph-name="uni00A0" unicode="&#xa0;" horiz-adv-x="250" d="" />
<glyph glyph-name="exclamdown" unicode="&#xa1;" horiz-adv-x="262" d="M179 112 L187 253 L72 253 L32 114 L-10 -129 L136 -129 L179 112 Z M238 456 L109 470 L64 322 L209 321 L238 456 Z " />
<glyph glyph-name="cent" unicode="&#xa2;" horiz-adv-x="429" d="M331 185 C281 149 239 126 194 112 L180 117 C174 142 172 167 172 192 C172 252 189 312 218 350 C228 351 238 352 249 352 C290 352 334 341 376 321 L414 434 C386 450 349 461 310 464 L325 546 L267 546 L252 464 C189 456 122 421 84 371 C46 321 25 232 25 141 C25 94 34 41 47 0 L167 -11 L168 -10 L156 -81 L214 -81 L231 17 C291 48 341 87 376 119 L331 185 Z " />
<glyph glyph-name="sterling" unicode="&#xa3;" horiz-adv-x="464" d="M225 213 C225 217 226 221 226 226 L350 226 L362 324 L223 324 C221 347 221 368 222 385 C225 432 252 462 307 462 C353 462 392 450 427 424 L446 551 C414 571 374 584 314 584 C221 584 106 541 99 386 C97 368 97 346 97 324 L54 324 L43 226 L100 226 C100 213 99 201 99 192 C97 159 91 136 81 114 L23 114 L4 0 L385 0 L405 114 L200 114 C214 146 223 180 225 213 L225 213 Z " />
<glyph glyph-name="currency" unicode="&#xa4;" horiz-adv-x="477" d="M128 478 L68 429 L121 358 C94 328 78 278 78 235 C78 211 82 186 89 167 L10 99 L46 49 L125 116 C147 97 178 89 209 89 C241 89 273 99 302 115 L356 45 L410 99 L359 164 C390 200 407 254 407 301 C407 322 403 343 395 358 L470 426 L432 481 L356 412 C333 431 303 436 270 436 C241 436 206 426 177 410 L128 478 Z M253 340 C293 340 308 317 308 287 C308 226 277 186 226 186 C189 186 172 208 172 240 C172 293 202 340 253 340 L253 340 Z " />
<glyph glyph-name="yen" unicode="&#xa5;" horiz-adv-x="640" d="M533 175 L384 175 L414 218 L540 218 L557 317 L483 317 L661 573 L495 573 L340 308 L337 308 L268 573 L86 573 L174 317 L105 317 L88 218 L208 218 L223 175 L80 175 L63 76 L207 76 L194 0 L352 0 L365 76 L516 76 L533 175 Z " />
<glyph glyph-name="brokenbar" unicode="&#xa6;" horiz-adv-x="240" d="M4 -92 L113 -92 L168 217 L59 217 L4 -92 Z M85 367 L194 367 L249 675 L140 675 L85 367 Z " />
<glyph glyph-name="section" unicode="&#xa7;" horiz-adv-x="480" d="M149 -118 C308 -118 425 20 425 178 C425 246 399 296 345 353 L232 460 C257 475 285 483 313 483 C358 483 418 471 459 451 L479 566 C447 581 394 592 317 592 C168 592 55 474 55 322 C55 255 80 197 131 135 L240 16 C210 -1 176 -10 144 -10 C99 -10 49 5 9 26 L-11 -89 C18 -101 72 -118 149 -118 L149 -118 Z M165 334 C165 347 166 360 169 372 L235 306 C269 271 315 221 315 150 C315 130 312 113 306 97 L236 179 C203 216 165 265 165 334 L165 334 Z " />
<glyph glyph-name="dieresis" unicode="&#xa8;" horiz-adv-x="376" d="M85 568 L213 536 L254 674 L104 675 L85 568 Z M276 568 L404 536 L445 674 L295 675 L276 568 Z " />
<glyph glyph-name="copyright" unicode="&#xa9;" horiz-adv-x="688" d="M350 -14 C517 -14 653 110 653 289 C653 467 517 592 350 592 C183 592 47 467 47 289 C47 109 183 -14 350 -14 L350 -14 Z M350 30 C200 30 91 139 91 289 C91 439 200 548 350 548 C500 548 609 439 609 289 C609 139 500 30 350 30 L350 30 Z M359 120 C406 120 454 131 477 143 L477 231 C436 209 411 204 375 204 C324 204 288 231 288 291 C288 350 328 376 372 376 C407 376 442 370 477 349 L477 442 C450 452 414 461 367 461 C245 461 166 398 166 282 C166 164 256 120 359 120 L359 120 Z " />
<glyph glyph-name="ordfeminine" unicode="&#xaa;" horiz-adv-x="441" d="M385 386 L442 701 L337 701 L335 690 C314 699 293 706 279 706 C223 706 169 677 143 644 C113 608 94 530 94 462 C94 434 98 409 104 386 L196 386 L293 463 L279 386 L385 386 Z M84 274 L395 274 L398 342 L86 342 L84 274 Z M209 476 C207 487 207 499 207 511 C206 560 218 605 240 636 C265 636 291 630 321 615 L306 534 L220 473 L209 476 Z " />
<glyph glyph-name="guillemotleft" unicode="&#xab;" horiz-adv-x="472" d="M86 46 L210 46 L175 226 L273 405 L154 405 L29 226 L86 46 Z M269 46 L393 46 L358 226 L456 405 L337 405 L212 226 L269 46 Z " />
<glyph glyph-name="logicalnot" unicode="&#xac;" horiz-adv-x="464" d="M287 101 L378 101 L420 336 L64 336 L46 239 L311 239 L287 101 Z " />
<glyph glyph-name="registered" unicode="&#xae;" horiz-adv-x="467" d="M266 261 C372 261 460 336 460 454 C460 571 372 648 266 648 C160 648 72 568 72 454 C72 338 160 261 266 261 L266 261 Z M266 295 C170 295 108 363 108 454 C108 545 170 614 266 614 C363 614 424 545 424 454 C424 354 357 295 266 295 L266 295 Z M176 349 L252 349 L252 405 L273 405 L300 349 L381 349 L336 424 C358 439 370 463 370 488 C370 537 335 568 283 568 L176 568 L176 349 Z M291 488 C291 465 279 459 252 459 L252 514 C278 513 291 507 291 488 L291 488 Z " />
<glyph glyph-name="macron" unicode="&#xaf;" horiz-adv-x="386" d="M132 554 L406 554 L424 648 L150 648 L132 554 Z " />
<glyph glyph-name="degree" unicode="&#xb0;" horiz-adv-x="341" d="M180 319 C271 319 339 388 339 485 C339 548 303 592 231 592 C139 592 71 526 71 427 C71 363 108 319 180 319 L180 319 Z M195 403 C177 403 168 417 168 437 C168 486 190 506 214 506 C233 506 241 491 241 471 C241 418 218 403 195 403 L195 403 Z " />
<glyph glyph-name="plusminus" unicode="&#xb1;" horiz-adv-x="486" d="M57 285 L205 285 L180 140 L270 140 L295 285 L444 285 L459 374 L311 374 L339 532 L249 532 L221 374 L73 374 L57 285 Z M7 12 L397 12 L412 102 L22 102 L7 12 Z " />
<glyph glyph-name="twosuperior" unicode="&#xb2;" horiz-adv-x="292" d="M302 400 L311 473 L178 473 C259 529 334 587 334 645 C334 695 277 722 212 722 C173 722 140 716 100 696 L90 616 C116 636 148 649 176 649 C201 649 220 641 234 623 C213 574 148 529 54 456 L45 400 L302 400 Z " />
<glyph glyph-name="threesuperior" unicode="&#xb3;" horiz-adv-x="283" d="M44 410 C59 403 102 396 142 396 C202 396 310 421 310 504 C310 533 281 562 248 576 L248 579 C283 592 325 620 325 656 C325 696 270 722 216 722 C175 722 137 717 96 696 L94 624 C119 641 151 649 180 649 C206 649 217 641 226 630 C210 609 184 593 147 578 L142 544 C175 532 197 517 212 489 C201 474 178 469 151 469 C123 469 91 477 66 485 L44 410 Z " />
<glyph glyph-name="acute" unicode="&#xb4;" horiz-adv-x="274" d="M205 529 L349 683 L215 683 L105 529 L205 529 Z " />
<glyph glyph-name="mu" unicode="&#xb5;" horiz-adv-x="570" d="M-16 -207 L120 -207 L157 -2 C162 -2 166 -1 171 0 C215 15 260 47 304 87 C302 79 302 71 303 64 C305 8 352 -7 401 -7 C439 -7 467 0 497 10 L515 110 C502 109 490 108 482 108 C459 108 450 114 450 134 C450 142 452 152 454 165 L506 456 L366 456 L322 196 C279 159 231 136 207 127 L192 131 C189 154 193 194 200 236 L239 456 L98 456 L-16 -207 Z " />
<glyph glyph-name="paragraph" unicode="&#xb6;" horiz-adv-x="614" d="M184 -207 L300 -207 L419 468 L466 468 L347 -207 L462 -207 L601 583 L326 583 C166 583 44 487 44 332 C44 221 129 158 248 155 L184 -207 Z " />
<glyph glyph-name="periodcentered" unicode="&#xb7;" horiz-adv-x="258" d="M57 268 L185 236 L226 376 L76 377 L57 268 Z " />
<glyph glyph-name="cedilla" unicode="&#xb8;" horiz-adv-x="321" d="M80 -213 C158 -213 208 -170 208 -105 C208 -76 188 -45 143 -36 L177 18 L107 18 L64 -47 L62 -64 C97 -67 115 -84 115 -104 C115 -130 91 -142 65 -142 C50 -142 32 -136 18 -125 L-11 -189 C8 -204 46 -213 80 -213 L80 -213 Z " />
<glyph glyph-name="onesuperior" unicode="&#xb9;" horiz-adv-x="216" d="M202 400 L260 720 L192 720 L82 689 L68 613 L144 627 L102 400 L202 400 Z " />
<glyph glyph-name="ordmasculine" unicode="&#xba;" horiz-adv-x="439" d="M67 274 L389 274 L392 342 L70 342 L67 274 Z M261 446 C243 446 232 451 223 456 C218 468 215 483 215 498 C215 548 232 605 267 638 C288 637 303 633 314 628 C319 614 322 597 323 583 C323 529 301 482 261 446 L261 446 Z M211 380 C270 381 328 401 365 437 C407 475 431 533 432 591 C432 673 391 706 323 706 C258 705 193 680 154 634 C120 595 106 540 106 485 C106 417 143 380 211 380 L211 380 Z " />
<glyph glyph-name="guillemotright" unicode="&#xbb;" horiz-adv-x="473" d="M192 408 L68 408 L103 228 L5 49 L124 49 L249 228 L192 408 Z M376 408 L252 408 L287 228 L189 49 L308 49 L433 228 L376 408 Z " />
<glyph glyph-name="onequarter" unicode="&#xbc;" horiz-adv-x="682" d="M202 270 L260 590 L192 590 L82 559 L68 483 L144 497 L102 270 L202 270 Z M617 66 L629 139 L588 139 L621 317 L533 317 L340 130 L334 66 L474 66 L462 0 L564 0 L575 66 L617 66 Z M420 139 L503 220 L488 139 L420 139 Z M130 0 L605 552 L605 558 L525 558 L55 6 L55 0 L130 0 Z " />
<glyph glyph-name="onehalf" unicode="&#xbd;" horiz-adv-x="680" d="M203 270 L261 590 L193 590 L83 559 L69 483 L145 497 L103 270 L203 270 Z M603 0 L612 73 L479 73 C560 129 635 187 635 245 C635 295 578 322 513 322 C474 322 441 316 401 296 L391 216 C417 236 449 249 477 249 C502 249 521 241 535 223 C514 174 449 129 355 56 L346 0 L603 0 Z M114 0 L589 552 L589 558 L509 558 L39 6 L39 0 L114 0 Z " />
<glyph glyph-name="threequarters" unicode="&#xbe;" horiz-adv-x="680" d="M42 287 C57 280 100 273 140 273 C200 273 308 298 308 381 C308 410 279 439 246 453 L246 456 C281 469 323 497 323 533 C323 573 268 599 214 599 C173 599 135 594 94 573 L92 501 C117 518 149 526 178 526 C204 526 215 518 224 507 C208 486 182 470 145 455 L140 421 C173 409 195 394 210 366 C199 351 176 346 149 346 C121 346 89 354 64 362 L42 287 Z M149 0 L624 552 L624 558 L544 558 L74 6 L74 0 L149 0 Z M617 66 L629 139 L588 139 L621 317 L533 317 L340 130 L334 66 L474 66 L462 0 L564 0 L575 66 L617 66 Z M420 139 L503 220 L488 139 L420 139 Z " />
<glyph glyph-name="questiondown" unicode="&#xbf;" horiz-adv-x="354" d="M-14 6 C-14 -80 88 -128 228 -146 L264 -47 C210 -35 157 -20 119 8 C156 46 235 88 264 131 C272 142 277 152 277 162 C277 189 255 231 245 255 L146 246 L160 181 L64 107 C23 76 -14 47 -14 6 L-14 6 Z M305 456 L175 470 L131 322 L275 321 L305 456 Z " />
<glyph glyph-name="Agrave" unicode="&#xc0;" horiz-adv-x="577" d="M-46 0 L104 0 L168 127 L349 127 L361 0 L526 0 L444 583 L277 583 L-46 0 Z M441 632 L376 779 L224 779 L326 632 L441 632 Z M319 426 L323 426 L338 251 L230 251 L319 426 Z " />
<glyph glyph-name="Aacute" unicode="&#xc1;" horiz-adv-x="577" d="M-46 0 L104 0 L168 127 L349 127 L361 0 L526 0 L444 583 L277 583 L-46 0 Z M419 632 L571 779 L419 779 L304 632 L419 632 Z M319 426 L323 426 L338 251 L230 251 L319 426 Z " />
<glyph glyph-name="Acircumflex" unicode="&#xc2;" horiz-adv-x="577" d="M-46 0 L104 0 L168 127 L349 127 L361 0 L526 0 L444 583 L277 583 L-46 0 Z M340 792 L191 634 L324 634 L375 712 L380 712 L399 633 L542 633 L452 792 L340 792 Z M319 426 L323 426 L338 251 L230 251 L319 426 Z " />
<glyph glyph-name="Atilde" unicode="&#xc3;" horiz-adv-x="577" d="M-46 0 L104 0 L168 127 L349 127 L361 0 L526 0 L444 583 L277 583 L-46 0 Z M512 749 C495 734 475 724 454 724 C414 724 373 751 330 751 C282 751 235 710 213 687 L240 630 C261 649 281 657 301 657 C343 657 380 628 428 628 C478 628 518 666 538 685 L512 749 Z M319 426 L323 426 L338 251 L230 251 L319 426 Z " />
<glyph glyph-name="Adieresis" unicode="&#xc4;" horiz-adv-x="577" d="M-46 0 L104 0 L168 127 L349 127 L361 0 L526 0 L444 583 L277 583 L-46 0 Z M203 661 L331 629 L372 767 L222 768 L203 661 Z M394 661 L522 629 L563 767 L413 768 L394 661 Z M319 426 L323 426 L338 251 L230 251 L319 426 Z " />
<glyph glyph-name="Aring" unicode="&#xc5;" horiz-adv-x="577" d="M-46 0 L104 0 L168 127 L349 127 L361 0 L526 0 L444 583 L277 583 L-46 0 Z M402 806 C337 806 277 766 277 687 C277 632 322 604 369 604 C424 604 493 641 493 725 C493 778 449 806 402 806 L402 806 Z M319 426 L323 426 L338 251 L230 251 L319 426 Z M391 745 C414 745 422 733 422 717 C422 688 408 664 377 664 C355 664 348 676 348 692 C348 722 360 745 391 745 L391 745 Z " />
<glyph glyph-name="AE" unicode="&#xc6;" horiz-adv-x="767" d="M297 0 L689 0 L711 127 L476 127 L495 235 L680 235 L702 354 L516 354 L534 456 L764 456 L786 583 L327 583 L-54 0 L97 0 L173 119 L318 119 L297 0 Z M366 422 L371 422 L340 246 L254 246 L366 422 Z " />
<glyph glyph-name="Ccedilla" unicode="&#xc7;" horiz-adv-x="545" d="M223 -213 C301 -213 351 -170 351 -105 C351 -76 331 -45 286 -36 L301 -12 C370 -9 441 11 472 29 L496 166 C432 130 388 118 330 118 C245 118 202 164 202 255 C202 402 295 463 392 463 C441 463 493 454 532 423 L557 566 C520 583 470 595 408 595 C178 595 30 436 30 232 C30 94 112 11 233 -8 L207 -47 L205 -64 C240 -67 258 -84 258 -104 C258 -130 234 -142 208 -142 C193 -142 175 -136 161 -125 L132 -189 C151 -204 189 -213 223 -213 L223 -213 Z " />
<glyph glyph-name="Egrave" unicode="&#xc8;" horiz-adv-x="486" d="M17 0 L410 0 L431 127 L197 127 L216 235 L401 235 L422 354 L237 354 L255 456 L484 456 L506 583 L119 583 L17 0 Z M401 632 L336 779 L184 779 L286 632 L401 632 Z " />
<glyph glyph-name="Eacute" unicode="&#xc9;" horiz-adv-x="486" d="M17 0 L410 0 L431 127 L197 127 L216 235 L401 235 L422 354 L237 354 L255 456 L484 456 L506 583 L119 583 L17 0 Z M355 632 L507 779 L355 779 L240 632 L355 632 Z " />
<glyph glyph-name="Ecircumflex" unicode="&#xca;" horiz-adv-x="486" d="M17 0 L410 0 L431 127 L197 127 L216 235 L401 235 L422 354 L237 354 L255 456 L484 456 L506 583 L119 583 L17 0 Z M313 791 L164 633 L297 633 L348 711 L353 711 L372 632 L515 632 L425 791 L313 791 Z " />
<glyph glyph-name="Edieresis" unicode="&#xcb;" horiz-adv-x="486" d="M17 0 L410 0 L431 127 L197 127 L216 235 L401 235 L422 354 L237 354 L255 456 L484 456 L506 583 L119 583 L17 0 Z M362 662 L490 630 L531 768 L381 769 L362 662 Z M171 662 L299 630 L340 768 L190 769 L171 662 Z " />
<glyph glyph-name="Igrave" unicode="&#xcc;" horiz-adv-x="282" d="M265 632 L200 779 L48 779 L150 632 L265 632 Z M17 0 L175 0 L277 583 L119 583 L17 0 Z " />
<glyph glyph-name="Iacute" unicode="&#xcd;" horiz-adv-x="282" d="M17 0 L175 0 L277 583 L119 583 L17 0 Z M255 632 L407 779 L255 779 L140 632 L255 632 Z " />
<glyph glyph-name="Icircumflex" unicode="&#xce;" horiz-adv-x="282" d="M17 0 L175 0 L277 583 L119 583 L17 0 Z M187 791 L38 633 L171 633 L222 711 L227 711 L246 632 L389 632 L299 791 L187 791 Z " />
<glyph glyph-name="Idieresis" unicode="&#xcf;" horiz-adv-x="282" d="M17 0 L175 0 L277 583 L119 583 L17 0 Z M47 662 L175 630 L216 768 L66 769 L47 662 Z M238 662 L366 630 L407 768 L257 769 L238 662 Z " />
<glyph glyph-name="Eth" unicode="&#xd0;" horiz-adv-x="623" d="M14 254 L63 254 L19 0 L234 0 C432 4 605 121 605 354 C605 517 484 583 330 583 L121 583 L78 337 L30 337 L14 254 Z M313 254 L329 337 L236 337 L257 456 L279 456 C382 456 432 421 432 334 C432 188 352 127 223 127 L199 127 L221 254 L313 254 Z " />
<glyph glyph-name="Ntilde" unicode="&#xd1;" horiz-adv-x="647" d="M534 749 C517 734 497 724 476 724 C436 724 395 751 352 751 C304 751 257 710 235 687 L262 630 C283 649 303 657 323 657 C365 657 402 628 450 628 C500 628 540 666 560 685 L534 749 Z M17 0 L156 0 L212 318 L217 318 L411 0 L541 0 L643 583 L504 583 L449 271 L444 271 L247 583 L120 583 L17 0 Z " />
<glyph glyph-name="Ograve" unicode="&#xd2;" horiz-adv-x="638" d="M452 632 L387 779 L235 779 L337 632 L452 632 Z M264 -12 C484 -12 625 188 625 379 C625 515 549 595 386 595 C162 595 26 401 26 204 C26 70 104 -12 264 -12 L264 -12 Z M294 111 C228 111 194 151 194 229 C194 335 240 472 356 472 C422 472 457 438 457 361 C457 257 411 111 294 111 L294 111 Z " />
<glyph glyph-name="Oacute" unicode="&#xd3;" horiz-adv-x="638" d="M431 632 L583 779 L431 779 L316 632 L431 632 Z M264 -12 C484 -12 625 188 625 379 C625 515 549 595 386 595 C162 595 26 401 26 204 C26 70 104 -12 264 -12 L264 -12 Z M294 111 C228 111 194 151 194 229 C194 335 240 472 356 472 C422 472 457 438 457 361 C457 257 411 111 294 111 L294 111 Z " />
<glyph glyph-name="Ocircumflex" unicode="&#xd4;" horiz-adv-x="638" d="M264 -12 C484 -12 625 188 625 379 C625 515 549 595 386 595 C162 595 26 401 26 204 C26 70 104 -12 264 -12 L264 -12 Z M294 111 C228 111 194 151 194 229 C194 335 240 472 356 472 C422 472 457 438 457 361 C457 257 411 111 294 111 L294 111 Z M363 792 L214 634 L347 634 L398 712 L403 712 L422 633 L565 633 L475 792 L363 792 Z " />
<glyph glyph-name="Otilde" unicode="&#xd5;" horiz-adv-x="638" d="M540 748 C523 733 503 723 482 723 C442 723 401 750 358 750 C310 750 263 709 241 686 L268 629 C289 648 309 656 329 656 C371 656 408 627 456 627 C506 627 546 665 566 684 L540 748 Z M264 -12 C484 -12 625 188 625 379 C625 515 549 595 386 595 C162 595 26 401 26 204 C26 70 104 -12 264 -12 L264 -12 Z M294 111 C228 111 194 151 194 229 C194 335 240 472 356 472 C422 472 457 438 457 361 C457 257 411 111 294 111 L294 111 Z " />
<glyph glyph-name="Odieresis" unicode="&#xd6;" horiz-adv-x="638" d="M218 661 L346 629 L387 767 L237 768 L218 661 Z M409 661 L537 629 L578 767 L428 768 L409 661 Z M264 -12 C484 -12 625 188 625 379 C625 515 549 595 386 595 C162 595 26 401 26 204 C26 70 104 -12 264 -12 L264 -12 Z M294 111 C228 111 194 151 194 229 C194 335 240 472 356 472 C422 472 457 438 457 361 C457 257 411 111 294 111 L294 111 Z " />
<glyph glyph-name="multiply" unicode="&#xd7;" horiz-adv-x="426" d="M75 109 L210 232 L303 109 L373 173 L280 295 L416 418 L365 486 L229 363 L137 486 L67 423 L159 300 L24 178 L75 109 Z " />
<glyph glyph-name="Oslash" unicode="&#xd8;" horiz-adv-x="638" d="M264 -12 C484 -12 625 188 625 379 C625 436 611 483 584 519 L657 595 L570 595 L537 560 C499 583 449 595 386 595 C162 595 26 401 26 204 C26 148 39 101 66 66 L-4 -8 L77 -8 L110 26 C148 1 199 -12 264 -12 L264 -12 Z M294 111 C261 111 236 121 220 140 L455 385 C456 378 457 369 457 361 C457 257 411 111 294 111 L294 111 Z M194 229 C194 335 240 472 356 472 C387 472 412 464 429 447 L195 201 C194 210 194 219 194 229 L194 229 Z " />
<glyph glyph-name="Ugrave" unicode="&#xd9;" horiz-adv-x="634" d="M458 632 L393 779 L241 779 L343 632 L458 632 Z M270 -12 C432 -12 545 64 576 239 L637 583 L480 583 L421 249 C403 151 360 111 295 111 C236 111 207 137 207 198 C207 212 208 227 211 244 L271 583 L114 583 L49 213 C46 197 45 181 45 167 C45 46 142 -12 270 -12 L270 -12 Z " />
<glyph glyph-name="Uacute" unicode="&#xda;" horiz-adv-x="634" d="M414 632 L566 779 L414 779 L299 632 L414 632 Z M270 -12 C432 -12 545 64 576 239 L637 583 L480 583 L421 249 C403 151 360 111 295 111 C236 111 207 137 207 198 C207 212 208 227 211 244 L271 583 L114 583 L49 213 C46 197 45 181 45 167 C45 46 142 -12 270 -12 L270 -12 Z " />
<glyph glyph-name="Ucircumflex" unicode="&#xdb;" horiz-adv-x="634" d="M270 -12 C432 -12 545 64 576 239 L637 583 L480 583 L421 249 C403 151 360 111 295 111 C236 111 207 137 207 198 C207 212 208 227 211 244 L271 583 L114 583 L49 213 C46 197 45 181 45 167 C45 46 142 -12 270 -12 L270 -12 Z M362 791 L213 633 L346 633 L397 711 L402 711 L421 632 L564 632 L474 791 L362 791 Z " />
<glyph glyph-name="Udieresis" unicode="&#xdc;" horiz-adv-x="634" d="M218 661 L346 629 L387 767 L237 768 L218 661 Z M409 661 L537 629 L578 767 L428 768 L409 661 Z M270 -12 C432 -12 545 64 576 239 L637 583 L480 583 L421 249 C403 151 360 111 295 111 C236 111 207 137 207 198 C207 212 208 227 211 244 L271 583 L114 583 L49 213 C46 197 45 181 45 167 C45 46 142 -12 270 -12 L270 -12 Z " />
<glyph glyph-name="Yacute" unicode="&#xdd;" horiz-adv-x="569" d="M634 583 L466 583 L305 336 L302 336 L234 583 L51 583 L189 201 L154 0 L312 0 L347 196 L634 583 Z M389 632 L541 779 L389 779 L274 632 L389 632 Z " />
<glyph glyph-name="Thorn" unicode="&#xde;" horiz-adv-x="540" d="M17 0 L175 0 L190 86 L246 86 C426 86 531 190 531 319 C531 427 458 497 343 497 L262 497 L277 583 L119 583 L17 0 Z M260 377 C332 377 364 356 364 303 C364 227 306 206 226 206 L211 206 L241 377 L260 377 Z " />
<glyph glyph-name="germandbls" unicode="&#xdf;" horiz-adv-x="603" d="M31 367 L108 367 L48 12 C42 -22 37 -49 29 -70 C23 -87 16 -97 10 -105 C-36 -105 -72 -98 -106 -87 L-131 -194 C-103 -207 -49 -212 -14 -212 C95 -212 167 -103 186 10 L263 460 C269 498 277 522 297 548 C316 551 334 552 349 552 C418 552 434 525 434 488 C434 402 302 389 302 292 C302 242 319 219 370 185 C394 169 427 150 446 130 C452 124 457 118 458 112 C446 103 430 98 409 98 C349 98 285 114 255 130 L238 20 C273 3 329 -8 387 -8 C436 -8 475 5 514 30 C548 52 568 86 568 135 C568 193 537 223 493 253 C462 274 435 293 435 319 C435 379 568 377 568 524 C568 606 491 661 366 661 C311 661 257 649 214 619 C171 590 140 545 128 480 L124 456 L47 456 L31 367 Z " />
<glyph glyph-name="agrave" unicode="&#xe0;" horiz-adv-x="498" d="M403 0 L483 459 L345 459 L340 434 C312 452 284 466 263 466 C186 466 118 424 82 377 C41 323 15 210 15 111 C15 71 20 33 29 0 L149 0 L283 112 L263 0 L403 0 Z M167 129 C164 157 162 183 164 207 C166 267 183 327 210 366 C221 365 233 365 246 362 C270 358 296 349 323 334 L301 215 L182 124 L167 129 Z M370 528 L260 682 L126 682 L270 528 L370 528 Z " />
<glyph glyph-name="aacute" unicode="&#xe1;" horiz-adv-x="498" d="M403 0 L483 459 L345 459 L340 434 C312 452 284 466 263 466 C186 466 118 424 82 377 C41 323 15 210 15 111 C15 71 20 33 29 0 L149 0 L283 112 L263 0 L403 0 Z M167 129 C164 157 162 183 164 207 C166 267 183 327 210 366 C221 365 233 365 246 362 C270 358 296 349 323 334 L301 215 L182 124 L167 129 Z M334 529 L478 683 L344 683 L234 529 L334 529 Z " />
<glyph glyph-name="acircumflex" unicode="&#xe2;" horiz-adv-x="498" d="M403 0 L483 459 L345 459 L340 434 C312 452 284 466 263 466 C186 466 118 424 82 377 C41 323 15 210 15 111 C15 71 20 33 29 0 L149 0 L283 112 L263 0 L403 0 Z M281 691 L141 525 L266 525 L315 614 L317 614 L337 525 L466 525 L389 691 L281 691 Z M167 129 C164 157 162 183 164 207 C166 267 183 327 210 366 C221 365 233 365 246 362 C270 358 296 349 323 334 L301 215 L182 124 L167 129 Z " />
<glyph glyph-name="atilde" unicode="&#xe3;" horiz-adv-x="498" d="M403 0 L483 459 L345 459 L340 434 C312 452 284 466 263 466 C186 466 118 424 82 377 C41 323 15 210 15 111 C15 71 20 33 29 0 L149 0 L283 112 L263 0 L403 0 Z M445 667 C428 652 408 642 388 642 C348 642 308 670 264 670 C216 670 168 629 148 606 L173 535 C195 555 216 563 235 563 C277 563 313 533 362 533 C411 533 451 572 472 591 L445 667 Z M167 129 C164 157 162 183 164 207 C166 267 183 327 210 366 C221 365 233 365 246 362 C270 358 296 349 323 334 L301 215 L182 124 L167 129 Z " />
<glyph glyph-name="adieresis" unicode="&#xe4;" horiz-adv-x="498" d="M403 0 L483 459 L345 459 L340 434 C312 452 284 466 263 466 C186 466 118 424 82 377 C41 323 15 210 15 111 C15 71 20 33 29 0 L149 0 L283 112 L263 0 L403 0 Z M167 129 C164 157 162 183 164 207 C166 267 183 327 210 366 C221 365 233 365 246 362 C270 358 296 349 323 334 L301 215 L182 124 L167 129 Z M147 568 L275 536 L316 674 L166 675 L147 568 Z M338 568 L466 536 L507 674 L357 675 L338 568 Z " />
<glyph glyph-name="aring" unicode="&#xe5;" horiz-adv-x="498" d="M403 0 L483 459 L345 459 L340 434 C312 452 284 466 263 466 C186 466 118 424 82 377 C41 323 15 210 15 111 C15 71 20 33 29 0 L149 0 L283 112 L263 0 L403 0 Z M336 723 C269 723 207 682 207 599 C207 542 253 512 302 512 C359 512 431 551 431 639 C431 693 386 723 336 723 L336 723 Z M167 129 C164 157 162 183 164 207 C166 267 183 327 210 366 C221 365 233 365 246 362 C270 358 296 349 323 334 L301 215 L182 124 L167 129 Z M325 659 C348 659 357 647 357 630 C357 601 342 576 311 576 C289 576 280 588 280 604 C280 635 293 659 325 659 L325 659 Z " />
<glyph glyph-name="ae" unicode="&#xe6;" horiz-adv-x="723" d="M676 117 L635 192 C587 159 518 124 469 108 L455 113 C451 133 449 153 448 173 C536 205 653 252 707 296 L720 400 C673 442 584 466 522 466 C469 466 427 446 393 414 C352 441 294 466 263 466 C186 466 118 424 82 377 C41 323 15 210 15 111 C15 71 20 33 29 0 L149 0 L300 104 C303 67 310 30 321 0 L440 -11 C521 17 617 70 676 117 L676 117 Z M163 121 C161 141 160 161 160 180 C161 250 180 323 210 366 C217 366 225 367 231 366 C264 363 297 352 333 330 C316 291 305 241 301 190 L178 116 L163 121 Z M494 363 C501 364 509 363 518 362 C542 360 569 351 586 338 L587 315 C551 290 498 267 451 248 C457 291 471 331 494 363 L494 363 Z " />
<glyph glyph-name="ccedilla" unicode="&#xe7;" horiz-adv-x="402" d="M93 -212 C171 -212 221 -169 221 -104 C221 -75 201 -44 156 -35 L175 -4 C256 28 324 79 367 119 L322 185 C272 149 230 126 185 112 L171 117 C165 142 163 167 163 192 C163 252 180 312 209 350 C219 351 229 352 240 352 C281 352 325 341 367 321 L405 434 C370 455 318 466 270 466 C200 466 119 428 75 371 C37 321 16 232 16 141 C16 94 25 41 38 0 L103 -6 L77 -46 L75 -63 C110 -66 128 -83 128 -103 C128 -129 104 -141 78 -141 C63 -141 45 -135 31 -124 L2 -188 C21 -203 59 -212 93 -212 L93 -212 Z " />
<glyph glyph-name="egrave" unicode="&#xe8;" horiz-adv-x="441" d="M394 117 L353 192 C305 159 236 124 187 108 L173 113 C169 134 166 154 165 173 C254 206 370 252 425 296 L438 400 C391 442 302 466 240 466 C170 466 117 429 77 376 C39 326 17 232 17 141 C17 94 25 40 38 0 L158 -11 C238 17 334 70 394 117 L394 117 Z M343 529 L233 683 L99 683 L243 529 L343 529 Z M212 363 C218 364 226 364 233 363 C258 361 286 351 304 338 L304 315 C268 290 216 267 168 248 C174 292 189 331 212 363 L212 363 Z " />
<glyph glyph-name="eacute" unicode="&#xe9;" horiz-adv-x="441" d="M394 117 L353 192 C305 159 236 124 187 108 L173 113 C169 134 166 154 165 173 C254 206 370 252 425 296 L438 400 C391 442 302 466 240 466 C170 466 117 429 77 376 C39 326 17 232 17 141 C17 94 25 40 38 0 L158 -11 C238 17 334 70 394 117 L394 117 Z M302 529 L446 683 L312 683 L202 529 L302 529 Z M212 363 C218 364 226 364 233 363 C258 361 286 351 304 338 L304 315 C268 290 216 267 168 248 C174 292 189 331 212 363 L212 363 Z " />
<glyph glyph-name="ecircumflex" unicode="&#xea;" horiz-adv-x="441" d="M394 117 L353 192 C305 159 236 124 187 108 L173 113 C169 134 166 154 165 173 C254 206 370 252 425 296 L438 400 C391 442 302 466 240 466 C170 466 117 429 77 376 C39 326 17 232 17 141 C17 94 25 40 38 0 L158 -11 C238 17 334 70 394 117 L394 117 Z M262 691 L122 525 L247 525 L296 614 L298 614 L318 525 L447 525 L370 691 L262 691 Z M212 363 C218 364 226 364 233 363 C258 361 286 351 304 338 L304 315 C268 290 216 267 168 248 C174 292 189 331 212 363 L212 363 Z " />
<glyph glyph-name="edieresis" unicode="&#xeb;" horiz-adv-x="441" d="M394 117 L353 192 C305 159 236 124 187 108 L173 113 C169 134 166 154 165 173 C254 206 370 252 425 296 L438 400 C391 442 302 466 240 466 C170 466 117 429 77 376 C39 326 17 232 17 141 C17 94 25 40 38 0 L158 -11 C238 17 334 70 394 117 L394 117 Z M298 568 L426 536 L467 674 L317 675 L298 568 Z M107 568 L235 536 L276 674 L126 675 L107 568 Z M212 363 C218 364 226 364 233 363 C258 361 286 351 304 338 L304 315 C268 290 216 267 168 248 C174 292 189 331 212 363 L212 363 Z " />
<glyph glyph-name="igrave" unicode="&#xec;" horiz-adv-x="239" d="M145 0 L224 456 L86 456 L5 0 L145 0 Z M215 529 L105 683 L-29 683 L115 529 L215 529 Z " />
<glyph glyph-name="iacute" unicode="&#xed;" horiz-adv-x="239" d="M211 529 L355 683 L221 683 L111 529 L211 529 Z M145 0 L224 456 L86 456 L5 0 L145 0 Z " />
<glyph glyph-name="icircumflex" unicode="&#xee;" horiz-adv-x="239" d="M145 691 L5 525 L130 525 L179 614 L181 614 L201 525 L330 525 L253 691 L145 691 Z M145 0 L224 456 L86 456 L5 0 L145 0 Z " />
<glyph glyph-name="idieresis" unicode="&#xef;" horiz-adv-x="239" d="M2 568 L130 536 L171 674 L21 675 L2 568 Z M193 568 L321 536 L362 674 L212 675 L193 568 Z M145 0 L224 456 L86 456 L5 0 L145 0 Z " />
<glyph glyph-name="eth" unicode="&#xf0;" horiz-adv-x="486" d="M217 485 L250 514 C266 497 278 480 288 464 L276 464 C184 464 113 416 69 348 C31 293 13 223 13 154 C13 48 81 -8 174 -8 C265 -8 319 23 372 76 C436 141 466 233 466 326 C466 444 428 535 353 606 L388 637 L341 685 L302 648 L264 672 L181 575 L205 555 L175 527 L217 485 Z M321 304 C321 213 287 144 227 88 C202 88 181 95 168 102 C161 120 158 140 158 162 C158 235 187 320 235 367 C242 367 252 366 262 365 C281 362 302 358 319 354 C320 338 321 322 321 304 L321 304 Z " />
<glyph glyph-name="ntilde" unicode="&#xf1;" horiz-adv-x="509" d="M145 0 L190 260 C235 298 280 319 306 329 L322 324 C327 302 324 263 316 220 L278 0 L418 0 L467 286 C473 319 475 347 475 371 C475 434 455 466 408 466 C347 466 279 427 208 367 L224 456 L86 456 L5 0 L145 0 Z M446 667 C429 652 409 642 389 642 C349 642 309 670 265 670 C217 670 169 629 149 606 L174 535 C196 555 217 563 236 563 C278 563 314 533 363 533 C412 533 452 572 473 591 L446 667 Z " />
<glyph glyph-name="ograve" unicode="&#xf2;" horiz-adv-x="483" d="M227 88 C201 88 181 95 167 102 C161 120 157 140 157 162 C157 235 186 320 234 367 C264 367 291 360 307 353 C314 330 318 307 318 285 C317 208 281 140 227 88 L227 88 Z M157 -8 C236 -7 316 23 369 74 C427 131 461 214 462 299 C462 419 406 466 312 466 C224 465 134 429 80 362 C34 305 13 225 13 145 C13 46 64 -8 157 -8 L157 -8 Z M362 529 L252 683 L118 683 L262 529 L362 529 Z " />
<glyph glyph-name="oacute" unicode="&#xf3;" horiz-adv-x="483" d="M332 529 L476 683 L342 683 L232 529 L332 529 Z M227 88 C201 88 181 95 167 102 C161 120 157 140 157 162 C157 235 186 320 234 367 C264 367 291 360 307 353 C314 330 318 307 318 285 C317 208 281 140 227 88 L227 88 Z M157 -8 C236 -7 316 23 369 74 C427 131 461 214 462 299 C462 419 406 466 312 466 C224 465 134 429 80 362 C34 305 13 225 13 145 C13 46 64 -8 157 -8 L157 -8 Z " />
<glyph glyph-name="ocircumflex" unicode="&#xf4;" horiz-adv-x="483" d="M287 686 L147 520 L272 520 L321 609 L323 609 L343 520 L472 520 L395 686 L287 686 Z M227 88 C201 88 181 95 167 102 C161 120 157 140 157 162 C157 235 186 320 234 367 C264 367 291 360 307 353 C314 330 318 307 318 285 C317 208 281 140 227 88 L227 88 Z M157 -8 C236 -7 316 23 369 74 C427 131 461 214 462 299 C462 419 406 466 312 466 C224 465 134 429 80 362 C34 305 13 225 13 145 C13 46 64 -8 157 -8 L157 -8 Z " />
<glyph glyph-name="otilde" unicode="&#xf5;" horiz-adv-x="483" d="M227 88 C201 88 181 95 167 102 C161 120 157 140 157 162 C157 235 186 320 234 367 C264 367 291 360 307 353 C314 330 318 307 318 285 C317 208 281 140 227 88 L227 88 Z M157 -8 C236 -7 316 23 369 74 C427 131 461 214 462 299 C462 419 406 466 312 466 C224 465 134 429 80 362 C34 305 13 225 13 145 C13 46 64 -8 157 -8 L157 -8 Z M452 667 C435 652 415 642 395 642 C355 642 315 670 271 670 C223 670 175 629 155 606 L180 535 C202 555 223 563 242 563 C284 563 320 533 369 533 C418 533 458 572 479 591 L452 667 Z " />
<glyph glyph-name="odieresis" unicode="&#xf6;" horiz-adv-x="483" d="M140 568 L268 536 L309 674 L159 675 L140 568 Z M331 568 L459 536 L500 674 L350 675 L331 568 Z M227 88 C201 88 181 95 167 102 C161 120 157 140 157 162 C157 235 186 320 234 367 C264 367 291 360 307 353 C314 330 318 307 318 285 C317 208 281 140 227 88 L227 88 Z M157 -8 C236 -7 316 23 369 74 C427 131 461 214 462 299 C462 419 406 466 312 466 C224 465 134 429 80 362 C34 305 13 225 13 145 C13 46 64 -8 157 -8 L157 -8 Z " />
<glyph glyph-name="divide" unicode="&#xf7;" horiz-adv-x="440" d="M37 252 L401 252 L417 340 L53 340 L37 252 Z M177 415 L305 383 L346 523 L196 524 L177 415 Z M122 90 L250 58 L291 198 L141 199 L122 90 Z " />
<glyph glyph-name="oslash" unicode="&#xf8;" horiz-adv-x="483" d="M157 -8 C236 -7 316 23 369 74 C427 131 461 214 462 299 C462 343 454 377 440 402 L502 466 L432 466 L407 440 C383 458 350 466 312 466 C224 465 134 429 80 362 C34 305 13 225 13 145 C13 108 20 78 33 54 L-30 -12 L38 -12 L66 17 C89 0 120 -8 157 -8 L157 -8 Z M234 367 C264 367 291 360 307 353 L310 340 L158 182 C163 250 190 324 234 367 L234 367 Z M227 88 C201 88 181 95 167 102 C165 106 163 111 162 116 L317 276 C314 202 279 138 227 88 L227 88 Z " />
<glyph glyph-name="ugrave" unicode="&#xf9;" horiz-adv-x="503" d="M349 456 L304 194 C260 157 215 135 190 127 L175 131 C172 154 176 194 183 236 L222 456 L82 456 L32 164 C28 139 26 115 26 95 C26 29 48 -9 96 -9 C162 -9 223 28 285 85 L270 0 L408 0 L489 456 L349 456 Z M350 529 L240 683 L106 683 L250 529 L350 529 Z " />
<glyph glyph-name="uacute" unicode="&#xfa;" horiz-adv-x="503" d="M349 456 L304 194 C260 157 215 135 190 127 L175 131 C172 154 176 194 183 236 L222 456 L82 456 L32 164 C28 139 26 115 26 95 C26 29 48 -9 96 -9 C162 -9 223 28 285 85 L270 0 L408 0 L489 456 L349 456 Z M335 529 L479 683 L345 683 L235 529 L335 529 Z " />
<glyph glyph-name="ucircumflex" unicode="&#xfb;" horiz-adv-x="503" d="M349 456 L304 194 C260 157 215 135 190 127 L175 131 C172 154 176 194 183 236 L222 456 L82 456 L32 164 C28 139 26 115 26 95 C26 29 48 -9 96 -9 C162 -9 223 28 285 85 L270 0 L408 0 L489 456 L349 456 Z M266 691 L126 525 L251 525 L300 614 L302 614 L322 525 L451 525 L374 691 L266 691 Z " />
<glyph glyph-name="udieresis" unicode="&#xfc;" horiz-adv-x="503" d="M349 456 L304 194 C260 157 215 135 190 127 L175 131 C172 154 176 194 183 236 L222 456 L82 456 L32 164 C28 139 26 115 26 95 C26 29 48 -9 96 -9 C162 -9 223 28 285 85 L270 0 L408 0 L489 456 L349 456 Z M314 568 L442 536 L483 674 L333 675 L314 568 Z M123 568 L251 536 L292 674 L142 675 L123 568 Z " />
<glyph glyph-name="yacute" unicode="&#xfd;" horiz-adv-x="472" d="M206 -207 L363 164 L500 456 L360 456 L224 137 L213 137 C197 206 190 265 190 324 C190 367 194 408 200 456 L60 456 C53 422 50 385 50 348 C49 215 78 71 103 0 L156 0 L59 -179 L68 -207 L206 -207 Z M334 529 L478 683 L344 683 L234 529 L334 529 Z " />
<glyph glyph-name="thorn" unicode="&#xfe;" horiz-adv-x="492" d="M109 -207 L144 -5 C163 -8 183 -10 202 -10 C345 -10 470 135 470 297 C470 381 451 466 372 466 C328 466 274 452 220 433 L258 653 L121 653 L-31 -207 L109 -207 Z M290 341 L308 339 C317 319 325 293 325 259 C325 178 287 98 236 98 C214 98 190 102 164 110 L200 318 C228 326 258 334 290 341 L290 341 Z " />
<glyph glyph-name="ydieresis" unicode="&#xff;" horiz-adv-x="472" d="M125 569 L253 537 L294 675 L144 676 L125 569 Z M316 569 L444 537 L485 675 L335 676 L316 569 Z M206 -207 L363 164 L500 456 L360 456 L224 137 L213 137 C197 206 190 265 190 324 C190 367 194 408 200 456 L60 456 C53 422 50 385 50 348 C49 215 78 71 103 0 L156 0 L59 -179 L68 -207 L206 -207 Z " />
<glyph glyph-name="Amacron" unicode="&#x100;" horiz-adv-x="577" d="M-46 0 L104 0 L168 127 L349 127 L361 0 L526 0 L444 583 L277 583 L-46 0 Z M239 652 L513 652 L532 747 L258 747 L239 652 Z M319 426 L323 426 L338 251 L230 251 L319 426 Z " />
<glyph glyph-name="amacron" unicode="&#x101;" horiz-adv-x="498" d="M403 0 L483 459 L345 459 L340 434 C312 452 284 466 263 466 C186 466 118 424 82 377 C41 323 15 210 15 111 C15 71 20 33 29 0 L149 0 L283 112 L263 0 L403 0 Z M167 129 C164 157 162 183 164 207 C166 267 183 327 210 366 C221 365 233 365 246 362 C270 358 296 349 323 334 L301 215 L182 124 L167 129 Z M169 554 L443 554 L461 648 L187 648 L169 554 Z " />
<glyph glyph-name="Abreve" unicode="&#x102;" horiz-adv-x="577" d="M-46 0 L104 0 L168 127 L349 127 L361 0 L526 0 L444 583 L277 583 L-46 0 Z M387 718 C334 718 305 755 300 776 L226 713 C235 682 277 621 367 621 C454 621 513 674 540 712 L500 776 C485 755 435 718 387 718 L387 718 Z M319 426 L323 426 L338 251 L230 251 L319 426 Z " />
<glyph glyph-name="abreve" unicode="&#x103;" horiz-adv-x="498" d="M403 0 L483 459 L345 459 L340 434 C312 452 284 466 263 466 C186 466 118 424 82 377 C41 323 15 210 15 111 C15 71 20 33 29 0 L149 0 L283 112 L263 0 L403 0 Z M315 633 C260 633 232 672 227 690 L154 618 C162 587 210 526 302 526 C388 526 449 581 475 619 L427 691 C412 669 366 633 315 633 L315 633 Z M167 129 C164 157 162 183 164 207 C166 267 183 327 210 366 C221 365 233 365 246 362 C270 358 296 349 323 334 L301 215 L182 124 L167 129 Z " />
<glyph glyph-name="Aogonek" unicode="&#x104;" horiz-adv-x="577" d="M506 -188 L511 -117 C495 -125 466 -132 444 -132 C425 -132 408 -125 408 -101 C408 -71 440 -32 496 0 L526 0 L444 583 L277 583 L-46 0 L104 0 L168 127 L349 127 L361 0 L407 0 C357 -34 311 -81 311 -135 C311 -182 332 -212 406 -212 C442 -212 481 -203 506 -188 L506 -188 Z M319 426 L323 426 L338 251 L230 251 L319 426 Z " />
<glyph glyph-name="aogonek" unicode="&#x105;" horiz-adv-x="498" d="M361 -190 L366 -119 C350 -127 321 -134 299 -134 C280 -134 263 -127 263 -103 C263 -72 297 -32 355 0 L403 0 L483 459 L345 459 L340 434 C312 452 284 466 263 466 C186 466 118 424 82 377 C41 323 15 210 15 111 C15 71 20 33 29 0 L149 0 L283 112 L263 0 L265 0 C214 -34 166 -82 166 -137 C166 -184 187 -214 261 -214 C297 -214 336 -205 361 -190 L361 -190 Z M167 129 C164 157 162 183 164 207 C166 267 183 327 210 366 C221 365 233 365 246 362 C270 358 296 349 323 334 L301 215 L182 124 L167 129 Z " />
<glyph glyph-name="Cacute" unicode="&#x106;" horiz-adv-x="545" d="M287 -12 C361 -12 439 10 472 29 L496 166 C432 130 388 118 330 118 C245 118 202 164 202 255 C202 402 295 463 392 463 C441 463 493 454 532 423 L557 566 C520 583 470 595 408 595 C178 595 30 436 30 232 C30 75 137 -12 287 -12 L287 -12 Z M423 632 L575 779 L423 779 L308 632 L423 632 Z " />
<glyph glyph-name="cacute" unicode="&#x107;" horiz-adv-x="401" d="M312 529 L456 683 L322 683 L212 529 L312 529 Z M322 185 C272 149 230 126 185 112 L171 117 C165 142 163 167 163 192 C163 252 180 312 209 350 C219 351 229 352 240 352 C281 352 325 341 367 321 L405 434 C370 455 318 466 270 466 C200 466 119 428 75 371 C37 321 16 232 16 141 C16 94 25 41 38 0 L158 -11 C247 21 321 77 367 119 L322 185 Z " />
<glyph glyph-name="Ccircumflex" unicode="&#x108;" horiz-adv-x="545" d="M287 -12 C361 -12 439 10 472 29 L496 166 C432 130 388 118 330 118 C245 118 202 164 202 255 C202 402 295 463 392 463 C441 463 493 454 532 423 L557 566 C520 583 470 595 408 595 C178 595 30 436 30 232 C30 75 137 -12 287 -12 L287 -12 Z M370 791 L221 633 L354 633 L405 711 L410 711 L429 632 L572 632 L482 791 L370 791 Z " />
<glyph glyph-name="ccircumflex" unicode="&#x109;" horiz-adv-x="401" d="M256 691 L116 525 L241 525 L290 614 L292 614 L312 525 L441 525 L364 691 L256 691 Z M322 185 C272 149 230 126 185 112 L171 117 C165 142 163 167 163 192 C163 252 180 312 209 350 C219 351 229 352 240 352 C281 352 325 341 367 321 L405 434 C370 455 318 466 270 466 C200 466 119 428 75 371 C37 321 16 232 16 141 C16 94 25 41 38 0 L158 -11 C247 21 321 77 367 119 L322 185 Z " />
<glyph glyph-name="Cdotaccent" unicode="&#x10a;" horiz-adv-x="545" d="M329 662 L457 630 L498 768 L348 769 L329 662 Z M287 -12 C361 -12 439 10 472 29 L496 166 C432 130 388 118 330 118 C245 118 202 164 202 255 C202 402 295 463 392 463 C441 463 493 454 532 423 L557 566 C520 583 470 595 408 595 C178 595 30 436 30 232 C30 75 137 -12 287 -12 L287 -12 Z " />
<glyph glyph-name="cdotaccent" unicode="&#x10b;" horiz-adv-x="401" d="M322 185 C272 149 230 126 185 112 L171 117 C165 142 163 167 163 192 C163 252 180 312 209 350 C219 351 229 352 240 352 C281 352 325 341 367 321 L405 434 C370 455 318 466 270 466 C200 466 119 428 75 371 C37 321 16 232 16 141 C16 94 25 41 38 0 L158 -11 C247 21 321 77 367 119 L322 185 Z M205 571 L333 539 L374 679 L224 680 L205 571 Z " />
<glyph glyph-name="Ccaron" unicode="&#x10c;" horiz-adv-x="545" d="M287 -12 C361 -12 439 10 472 29 L496 166 C432 130 388 118 330 118 C245 118 202 164 202 255 C202 402 295 463 392 463 C441 463 493 454 532 423 L557 566 C520 583 470 595 408 595 C178 595 30 436 30 232 C30 75 137 -12 287 -12 L287 -12 Z M455 624 L604 782 L463 782 L414 710 L410 710 L389 782 L239 782 L329 624 L455 624 Z " />
<glyph glyph-name="ccaron" unicode="&#x10d;" horiz-adv-x="401" d="M333 527 L472 689 L349 689 L300 603 L297 603 L278 690 L148 690 L226 527 L333 527 Z M322 185 C272 149 230 126 185 112 L171 117 C165 142 163 167 163 192 C163 252 180 312 209 350 C219 351 229 352 240 352 C281 352 325 341 367 321 L405 434 C370 455 318 466 270 466 C200 466 119 428 75 371 C37 321 16 232 16 141 C16 94 25 41 38 0 L158 -11 C247 21 321 77 367 119 L322 185 Z " />
<glyph glyph-name="Dcaron" unicode="&#x10e;" horiz-adv-x="621" d="M17 0 L232 0 C430 4 603 121 603 354 C603 517 482 583 328 583 L119 583 L17 0 Z M277 456 C380 456 430 421 430 334 C430 188 350 127 221 127 L197 127 L254 456 L277 456 Z M406 622 L555 780 L414 780 L365 708 L361 708 L340 780 L190 780 L280 622 L406 622 Z " />
<glyph glyph-name="dcaron" unicode="&#x10f;" horiz-adv-x="525" d="M404 0 L519 653 L378 653 L341 442 C312 457 284 466 263 466 C186 466 118 424 82 377 C41 323 15 210 15 111 C15 71 20 33 29 0 L149 0 L283 112 L263 0 L404 0 Z M167 129 C164 152 163 175 163 196 C165 261 182 328 210 369 C217 370 220 371 227 371 C255 369 288 358 322 338 L301 214 L182 124 L167 129 Z M518 453 L589 453 L681 662 L564 662 L518 453 Z " />
<glyph glyph-name="Dcroat" unicode="&#x110;" horiz-adv-x="623" d="M13 254 L63 254 L19 0 L234 0 C432 4 605 121 605 354 C605 517 484 583 330 583 L121 583 L78 337 L29 337 L13 254 Z M312 254 L328 337 L236 337 L257 456 L279 456 C382 456 432 421 432 334 C432 188 352 127 223 127 L199 127 L221 254 L312 254 Z " />
<glyph glyph-name="dcroat" unicode="&#x111;" horiz-adv-x="499" d="M212 531 L356 531 L341 442 C312 457 284 466 263 466 C186 466 118 424 82 377 C41 323 15 210 15 111 C15 71 20 33 29 0 L149 0 L283 112 L263 0 L404 0 L497 531 L562 531 L576 606 L510 606 L519 653 L378 653 L369 606 L226 606 L212 531 Z M167 129 C164 152 163 175 163 196 C165 261 182 328 210 369 C217 370 220 371 227 371 C255 369 288 358 322 338 L301 214 L182 124 L167 129 Z " />
<glyph glyph-name="Emacron" unicode="&#x112;" horiz-adv-x="486" d="M17 0 L410 0 L431 127 L197 127 L216 235 L401 235 L422 354 L237 354 L255 456 L484 456 L506 583 L119 583 L17 0 Z M195 653 L469 653 L488 748 L214 748 L195 653 Z " />
<glyph glyph-name="emacron" unicode="&#x113;" horiz-adv-x="441" d="M394 117 L353 192 C305 159 236 124 187 108 L173 113 C169 134 166 154 165 173 C254 206 370 252 425 296 L438 400 C391 442 302 466 240 466 C170 466 117 429 77 376 C39 326 17 232 17 141 C17 94 25 40 38 0 L158 -11 C238 17 334 70 394 117 L394 117 Z M135 554 L409 554 L427 648 L153 648 L135 554 Z M212 363 C218 364 226 364 233 363 C258 361 286 351 304 338 L304 315 C268 290 216 267 168 248 C174 292 189 331 212 363 L212 363 Z " />
<glyph glyph-name="Ebreve" unicode="&#x114;" horiz-adv-x="486" d="M17 0 L410 0 L431 127 L197 127 L216 235 L401 235 L422 354 L237 354 L255 456 L484 456 L506 583 L119 583 L17 0 Z M337 718 C284 718 255 755 250 776 L176 713 C185 682 227 621 317 621 C404 621 463 674 490 712 L450 776 C435 755 385 718 337 718 L337 718 Z " />
<glyph glyph-name="ebreve" unicode="&#x115;" horiz-adv-x="441" d="M394 117 L353 192 C305 159 236 124 187 108 L173 113 C169 134 166 154 165 173 C254 206 370 252 425 296 L438 400 C391 442 302 466 240 466 C170 466 117 429 77 376 C39 326 17 232 17 141 C17 94 25 40 38 0 L158 -11 C238 17 334 70 394 117 L394 117 Z M288 633 C233 633 205 672 200 690 L127 618 C135 587 183 526 275 526 C361 526 422 581 448 619 L400 691 C385 669 339 633 288 633 L288 633 Z M212 363 C218 364 226 364 233 363 C258 361 286 351 304 338 L304 315 C268 290 216 267 168 248 C174 292 189 331 212 363 L212 363 Z " />
<glyph glyph-name="Edotaccent" unicode="&#x116;" horiz-adv-x="486" d="M17 0 L410 0 L431 127 L197 127 L216 235 L401 235 L422 354 L237 354 L255 456 L484 456 L506 583 L119 583 L17 0 Z M260 661 L388 629 L429 767 L279 768 L260 661 Z " />
<glyph glyph-name="edotaccent" unicode="&#x117;" horiz-adv-x="441" d="M394 117 L353 192 C305 159 236 124 187 108 L173 113 C169 134 166 154 165 173 C254 206 370 252 425 296 L438 400 C391 442 302 466 240 466 C170 466 117 429 77 376 C39 326 17 232 17 141 C17 94 25 40 38 0 L158 -11 C238 17 334 70 394 117 L394 117 Z M195 571 L323 539 L364 679 L214 680 L195 571 Z M212 363 C218 364 226 364 233 363 C258 361 286 351 304 338 L304 315 C268 290 216 267 168 248 C174 292 189 331 212 363 L212 363 Z " />
<glyph glyph-name="Eogonek" unicode="&#x118;" horiz-adv-x="486" d="M17 0 L295 0 C245 -34 199 -81 199 -135 C199 -182 220 -212 294 -212 C330 -212 369 -203 394 -188 L399 -117 C383 -125 354 -132 332 -132 C313 -132 296 -125 296 -101 C296 -71 328 -32 384 0 L410 0 L431 127 L197 127 L216 235 L401 235 L422 354 L237 354 L255 456 L484 456 L506 583 L119 583 L17 0 Z " />
<glyph glyph-name="eogonek" unicode="&#x119;" horiz-adv-x="441" d="M394 117 L353 192 C305 159 236 124 187 108 L173 113 C169 134 166 154 165 173 C254 206 370 252 425 296 L438 400 C391 442 302 466 240 466 C170 466 117 429 77 376 C39 326 17 232 17 141 C17 94 25 40 38 0 L94 -5 C50 -40 14 -82 14 -133 C14 -180 35 -212 109 -212 C144 -212 181 -203 206 -187 L211 -116 C195 -124 168 -131 147 -131 C127 -131 111 -123 111 -99 C111 -74 132 -39 174 -5 C251 24 338 73 394 117 L394 117 Z M212 363 C218 364 226 364 233 363 C258 361 286 351 304 338 L304 315 C268 290 216 267 168 248 C174 292 189 331 212 363 L212 363 Z " />
<glyph glyph-name="Ecaron" unicode="&#x11a;" horiz-adv-x="486" d="M17 0 L410 0 L431 127 L197 127 L216 235 L401 235 L422 354 L237 354 L255 456 L484 456 L506 583 L119 583 L17 0 Z M383 624 L532 782 L391 782 L342 710 L338 710 L317 782 L167 782 L257 624 L383 624 Z " />
<glyph glyph-name="ecaron" unicode="&#x11b;" horiz-adv-x="441" d="M394 117 L353 192 C305 159 236 124 187 108 L173 113 C169 134 166 154 165 173 C254 206 370 252 425 296 L438 400 C391 442 302 466 240 466 C170 466 117 429 77 376 C39 326 17 232 17 141 C17 94 25 40 38 0 L158 -11 C238 17 334 70 394 117 L394 117 Z M322 527 L461 689 L338 689 L289 603 L286 603 L267 690 L137 690 L215 527 L322 527 Z M212 363 C218 364 226 364 233 363 C258 361 286 351 304 338 L304 315 C268 290 216 267 168 248 C174 292 189 331 212 363 L212 363 Z " />
<glyph glyph-name="Gcircumflex" unicode="&#x11c;" horiz-adv-x="581" d="M285 -12 C360 -12 436 1 496 28 L547 312 L389 312 L355 119 C346 118 338 118 331 118 C243 118 200 160 200 252 C200 398 299 462 397 463 C453 464 524 450 563 418 L589 562 C550 582 476 595 414 595 C184 595 28 433 28 227 C28 76 136 -12 285 -12 L285 -12 Z M381 791 L232 633 L365 633 L416 711 L421 711 L440 632 L583 632 L493 791 L381 791 Z " />
<glyph glyph-name="gcircumflex" unicode="&#x11d;" horiz-adv-x="497" d="M142 -213 C197 -213 252 -197 297 -168 C352 -131 390 -71 401 -6 L482 459 L345 459 L342 441 C313 456 284 466 263 466 C186 466 118 424 82 377 C41 323 15 210 15 111 C15 71 20 33 29 0 L149 0 L284 113 L274 55 C262 -18 246 -76 230 -94 C213 -97 196 -98 180 -98 C159 -98 138 -96 118 -93 C74 -87 34 -74 0 -57 L-32 -183 C17 -203 85 -213 142 -213 L142 -213 Z M272 691 L132 525 L257 525 L306 614 L308 614 L328 525 L457 525 L380 691 L272 691 Z M167 129 C164 149 163 169 163 188 C163 256 181 323 210 366 L228 366 C258 363 289 353 323 335 L302 216 L182 124 L167 129 Z " />
<glyph glyph-name="Gbreve" unicode="&#x11e;" horiz-adv-x="581" d="M285 -12 C360 -12 436 1 496 28 L547 312 L389 312 L355 119 C346 118 338 118 331 118 C243 118 200 160 200 252 C200 398 299 462 397 463 C453 464 524 450 563 418 L589 562 C550 582 476 595 414 595 C184 595 28 433 28 227 C28 76 136 -12 285 -12 L285 -12 Z M419 717 C366 717 337 754 332 775 L258 712 C267 681 309 620 399 620 C486 620 545 673 572 711 L532 775 C517 754 467 717 419 717 L419 717 Z " />
<glyph glyph-name="gbreve" unicode="&#x11f;" horiz-adv-x="497" d="M142 -213 C197 -213 252 -197 297 -168 C352 -131 390 -71 401 -6 L482 459 L345 459 L342 441 C313 456 284 466 263 466 C186 466 118 424 82 377 C41 323 15 210 15 111 C15 71 20 33 29 0 L149 0 L284 113 L274 55 C262 -18 246 -76 230 -94 C213 -97 196 -98 180 -98 C159 -98 138 -96 118 -93 C74 -87 34 -74 0 -57 L-32 -183 C17 -203 85 -213 142 -213 L142 -213 Z M308 633 C253 633 225 672 220 690 L147 618 C155 587 203 526 295 526 C381 526 442 581 468 619 L420 691 C405 669 359 633 308 633 L308 633 Z M167 129 C164 149 163 169 163 188 C163 256 181 323 210 366 L228 366 C258 363 289 353 323 335 L302 216 L182 124 L167 129 Z " />
<glyph glyph-name="Gdotaccent" unicode="&#x120;" horiz-adv-x="581" d="M285 -12 C360 -12 436 1 496 28 L547 312 L389 312 L355 119 C346 118 338 118 331 118 C243 118 200 160 200 252 C200 398 299 462 397 463 C453 464 524 450 563 418 L589 562 C550 582 476 595 414 595 C184 595 28 433 28 227 C28 76 136 -12 285 -12 L285 -12 Z M335 662 L463 630 L504 768 L354 769 L335 662 Z " />
<glyph glyph-name="gdotaccent" unicode="&#x121;" horiz-adv-x="497" d="M142 -213 C197 -213 252 -197 297 -168 C352 -131 390 -71 401 -6 L482 459 L345 459 L342 441 C313 456 284 466 263 466 C186 466 118 424 82 377 C41 323 15 210 15 111 C15 71 20 33 29 0 L149 0 L284 113 L274 55 C262 -18 246 -76 230 -94 C213 -97 196 -98 180 -98 C159 -98 138 -96 118 -93 C74 -87 34 -74 0 -57 L-32 -183 C17 -203 85 -213 142 -213 L142 -213 Z M167 129 C164 149 163 169 163 188 C163 256 181 323 210 366 L228 366 C258 363 289 353 323 335 L302 216 L182 124 L167 129 Z M226 571 L354 539 L395 679 L245 680 L226 571 Z " />
<glyph glyph-name="Gcommaaccent" unicode="&#x122;" horiz-adv-x="581" d="M285 -12 C360 -12 436 1 496 28 L547 312 L389 312 L355 119 C346 118 338 118 331 118 C243 118 200 160 200 252 C200 398 299 462 397 463 C453 464 524 450 563 418 L589 562 C550 582 476 595 414 595 C184 595 28 433 28 227 C28 76 136 -12 285 -12 L285 -12 Z M173 -247 L270 -247 L340 -62 L222 -62 L173 -247 Z " />
<glyph glyph-name="gcommaaccent" unicode="&#x123;" horiz-adv-x="497" d="M142 -213 C197 -213 252 -197 297 -168 C352 -131 390 -71 401 -6 L482 459 L345 459 L342 441 C313 456 284 466 263 466 C186 466 118 424 82 377 C41 323 15 210 15 111 C15 71 20 33 29 0 L149 0 L284 113 L274 55 C262 -18 246 -76 230 -94 C213 -97 196 -98 180 -98 C159 -98 138 -96 118 -93 C74 -87 34 -74 0 -57 L-32 -183 C17 -203 85 -213 142 -213 L142 -213 Z M167 129 C164 149 163 169 163 188 C163 256 181 323 210 366 L228 366 C258 363 289 353 323 335 L302 216 L182 124 L167 129 Z M402 707 L305 707 L235 519 L353 519 L402 707 Z " />
<glyph glyph-name="Hcircumflex" unicode="&#x124;" horiz-adv-x="644" d="M380 0 L538 0 L640 583 L482 583 L443 362 L238 362 L277 583 L120 583 L17 0 L175 0 L216 235 L421 235 L380 0 Z M362 791 L213 633 L346 633 L397 711 L402 711 L421 632 L564 632 L474 791 L362 791 Z " />
<glyph glyph-name="hcircumflex" unicode="&#x125;" horiz-adv-x="509" d="M144 0 L189 260 C235 298 280 319 306 329 L321 324 C327 302 323 263 316 220 L278 0 L418 0 L467 286 C473 319 475 347 475 371 C475 434 455 466 408 466 C347 466 279 427 208 366 L258 653 L120 653 L5 0 L144 0 Z M170 838 L21 680 L154 680 L205 758 L210 758 L229 679 L372 679 L282 838 L170 838 Z " />
<glyph glyph-name="Hbar" unicode="&#x126;" horiz-adv-x="648" d="M49 436 L95 436 L18 0 L176 0 L217 235 L422 235 L381 0 L539 0 L615 436 L663 436 L679 516 L629 516 L641 583 L483 583 L471 516 L266 516 L278 583 L121 583 L109 516 L65 516 L49 436 Z M252 436 L457 436 L444 362 L239 362 L252 436 Z " />
<glyph glyph-name="hbar" unicode="&#x127;" horiz-adv-x="509" d="M34 509 L94 509 L5 0 L144 0 L189 260 C235 298 280 319 306 329 L321 324 C327 302 323 263 316 220 L278 0 L418 0 L467 286 C473 319 475 347 475 371 C475 434 455 466 408 466 C347 466 279 427 208 366 L233 509 L384 509 L398 585 L246 585 L258 653 L120 653 L108 585 L48 585 L34 509 Z " />
<glyph glyph-name="Itilde" unicode="&#x128;" horiz-adv-x="282" d="M17 0 L175 0 L277 583 L119 583 L17 0 Z M349 749 C332 734 312 724 291 724 C251 724 210 751 167 751 C119 751 72 710 50 687 L77 630 C98 649 118 657 138 657 C180 657 217 628 265 628 C315 628 355 666 375 685 L349 749 Z " />
<glyph glyph-name="itilde" unicode="&#x129;" horiz-adv-x="239" d="M145 0 L224 456 L86 456 L5 0 L145 0 Z M316 667 C299 652 279 642 259 642 C219 642 179 670 135 670 C87 670 39 629 19 606 L44 535 C66 555 87 563 106 563 C148 563 184 533 233 533 C282 533 322 572 343 591 L316 667 Z " />
<glyph glyph-name="Imacron" unicode="&#x12a;" horiz-adv-x="282" d="M17 0 L175 0 L277 583 L119 583 L17 0 Z M73 653 L347 653 L366 748 L92 748 L73 653 Z " />
<glyph glyph-name="imacron" unicode="&#x12b;" horiz-adv-x="239" d="M145 0 L224 456 L86 456 L5 0 L145 0 Z M33 554 L307 554 L325 648 L51 648 L33 554 Z " />
<glyph glyph-name="Ibreve" unicode="&#x12c;" horiz-adv-x="282" d="M17 0 L175 0 L277 583 L119 583 L17 0 Z M229 718 C176 718 147 755 142 776 L68 713 C77 682 119 621 209 621 C296 621 355 674 382 712 L342 776 C327 755 277 718 229 718 L229 718 Z " />
<glyph glyph-name="ibreve" unicode="&#x12d;" horiz-adv-x="239" d="M145 0 L224 456 L86 456 L5 0 L145 0 Z M185 633 C130 633 102 672 97 690 L24 618 C32 587 80 526 172 526 C258 526 319 581 345 619 L297 691 C282 669 236 633 185 633 L185 633 Z " />
<glyph glyph-name="Iogonek" unicode="&#x12e;" horiz-adv-x="282" d="M17 0 L61 0 C11 -34 -35 -81 -35 -135 C-35 -182 -14 -212 60 -212 C96 -212 135 -203 160 -188 L165 -117 C149 -125 120 -132 98 -132 C79 -132 62 -125 62 -101 C62 -71 94 -32 150 0 L175 0 L277 583 L119 583 L17 0 Z " />
<glyph glyph-name="iogonek" unicode="&#x12f;" horiz-adv-x="239" d="M145 0 L224 456 L86 456 L5 0 L38 0 C-11 -34 -58 -81 -58 -135 C-58 -182 -37 -212 37 -212 C73 -212 112 -203 137 -188 L142 -117 C126 -125 97 -132 75 -132 C56 -132 39 -125 39 -101 C39 -71 71 -32 127 0 L145 0 Z M107 571 L235 539 L276 679 L126 680 L107 571 Z " />
<glyph glyph-name="Idotaccent" unicode="&#x130;" horiz-adv-x="282" d="M138 662 L266 630 L307 768 L157 769 L138 662 Z M17 0 L175 0 L277 583 L119 583 L17 0 Z " />
<glyph glyph-name="dotlessi" unicode="&#x131;" horiz-adv-x="239" d="M145 0 L224 456 L86 456 L5 0 L145 0 Z " />
<glyph glyph-name="IJ" unicode="&#x132;" horiz-adv-x="569" d="M17 0 L175 0 L277 583 L119 583 L17 0 Z M322 -115 C430 -4 481 89 497 179 L568 583 L412 583 L340 175 C326 94 286 47 212 -55 L322 -115 Z " />
<glyph glyph-name="ij" unicode="&#x133;" horiz-adv-x="479" d="M144 0 L224 456 L86 456 L5 0 L144 0 Z M235 535 L275 675 L125 677 L107 568 L235 535 Z M243 -3 C234 -55 199 -96 148 -161 L242 -227 C313 -161 368 -93 384 -1 L463 456 L325 456 L243 -3 Z M474 535 L514 675 L364 677 L347 568 L474 535 Z " />
<glyph glyph-name="Jcircumflex" unicode="&#x134;" horiz-adv-x="287" d="M41 -115 C149 -4 200 89 216 179 L287 583 L131 583 L59 175 C45 94 5 47 -69 -55 L41 -115 Z M182 791 L33 633 L166 633 L217 711 L222 711 L241 632 L384 632 L294 791 L182 791 Z " />
<glyph glyph-name="jcircumflex" unicode="&#x135;" horiz-adv-x="239" d="M145 691 L5 525 L130 525 L179 614 L181 614 L201 525 L330 525 L253 691 L145 691 Z M5 -3 C-4 -55 -39 -96 -90 -161 L4 -227 C75 -161 129 -93 145 -1 L223 456 L85 456 L5 -3 Z " />
<glyph glyph-name="Kcommaaccent" unicode="&#x136;" horiz-adv-x="568" d="M17 0 L175 0 L224 283 L342 0 L523 0 L382 324 L620 583 L462 583 L229 312 L277 583 L119 583 L17 0 Z M139 -247 L236 -247 L306 -62 L188 -62 L139 -247 Z " />
<glyph glyph-name="kcommaaccent" unicode="&#x137;" horiz-adv-x="498" d="M144 0 L188 254 C238 299 283 329 316 341 L329 336 C322 285 295 247 253 205 L245 171 L288 0 L443 0 L381 194 C442 248 480 326 482 407 C482 421 480 440 478 454 L350 466 C315 453 261 420 210 378 L258 653 L120 653 L5 0 L144 0 Z M98 -247 L195 -247 L265 -62 L147 -62 L98 -247 Z " />
<glyph glyph-name="Lacute" unicode="&#x139;" horiz-adv-x="447" d="M17 0 L391 0 L413 127 L197 127 L277 583 L119 583 L17 0 Z M247 632 L399 779 L247 779 L132 632 L247 632 Z " />
<glyph glyph-name="lacute" unicode="&#x13a;" horiz-adv-x="242" d="M240 700 L392 847 L240 847 L125 700 L240 700 Z M146 0 L259 653 L122 653 L6 0 L146 0 Z " />
<glyph glyph-name="Lcommaaccent" unicode="&#x13b;" horiz-adv-x="447" d="M17 0 L391 0 L413 127 L197 127 L277 583 L119 583 L17 0 Z M98 -247 L195 -247 L265 -62 L147 -62 L98 -247 Z " />
<glyph glyph-name="lcommaaccent" unicode="&#x13c;" horiz-adv-x="242" d="M-45 -247 L52 -247 L122 -62 L4 -62 L-45 -247 Z M146 0 L259 653 L122 653 L6 0 L146 0 Z " />
<glyph glyph-name="Lcaron" unicode="&#x13d;" horiz-adv-x="448" d="M17 0 L391 0 L413 127 L197 127 L277 583 L119 583 L17 0 Z M313 431 L384 431 L476 640 L359 640 L313 431 Z " />
<glyph glyph-name="lcaron" unicode="&#x13e;" horiz-adv-x="267" d="M257 445 L328 445 L420 654 L303 654 L257 445 Z M146 0 L259 653 L122 653 L6 0 L146 0 Z " />
<glyph glyph-name="Ldot" unicode="&#x13f;" horiz-adv-x="475" d="M17 0 L391 0 L413 127 L197 127 L277 583 L119 583 L17 0 Z M303 282 L431 250 L472 390 L322 391 L303 282 Z " />
<glyph glyph-name="ldot" unicode="&#x140;" horiz-adv-x="355" d="M233 300 L361 268 L402 406 L252 407 L233 300 Z M146 0 L259 653 L122 653 L6 0 L146 0 Z " />
<glyph glyph-name="Lslash" unicode="&#x141;" horiz-adv-x="456" d="M-3 187 L64 220 L26 0 L400 0 L422 127 L206 127 L237 306 L339 357 L360 454 L254 401 L286 583 L128 583 L81 314 L18 283 L-3 187 Z " />
<glyph glyph-name="lslash" unicode="&#x142;" horiz-adv-x="271" d="M-5 231 L66 264 L19 0 L159 0 L217 336 L283 367 L304 472 L234 437 L272 653 L135 653 L83 361 L16 327 L-5 231 Z " />
<glyph glyph-name="Nacute" unicode="&#x143;" horiz-adv-x="647" d="M426 632 L578 779 L426 779 L311 632 L426 632 Z M17 0 L156 0 L212 318 L217 318 L411 0 L541 0 L643 583 L504 583 L449 271 L444 271 L247 583 L120 583 L17 0 Z " />
<glyph glyph-name="nacute" unicode="&#x144;" horiz-adv-x="509" d="M145 0 L190 260 C235 298 280 319 306 329 L322 324 C327 302 324 263 316 220 L278 0 L418 0 L467 286 C473 319 475 347 475 371 C475 434 455 466 408 466 C347 466 279 427 208 367 L224 456 L86 456 L5 0 L145 0 Z M336 529 L480 683 L346 683 L236 529 L336 529 Z " />
<glyph glyph-name="Ncommaaccent" unicode="&#x145;" horiz-adv-x="647" d="M177 -247 L274 -247 L344 -62 L226 -62 L177 -247 Z M17 0 L156 0 L212 318 L217 318 L411 0 L541 0 L643 583 L504 583 L449 271 L444 271 L247 583 L120 583 L17 0 Z " />
<glyph glyph-name="ncommaaccent" unicode="&#x146;" horiz-adv-x="509" d="M145 0 L190 260 C235 298 280 319 306 329 L322 324 C327 302 324 263 316 220 L278 0 L418 0 L467 286 C473 319 475 347 475 371 C475 434 455 466 408 466 C347 466 279 427 208 367 L224 456 L86 456 L5 0 L145 0 Z M102 -247 L199 -247 L269 -62 L151 -62 L102 -247 Z " />
<glyph glyph-name="Ncaron" unicode="&#x147;" horiz-adv-x="647" d="M440 624 L589 782 L448 782 L399 710 L395 710 L374 782 L224 782 L314 624 L440 624 Z M17 0 L156 0 L212 318 L217 318 L411 0 L541 0 L643 583 L504 583 L449 271 L444 271 L247 583 L120 583 L17 0 Z " />
<glyph glyph-name="ncaron" unicode="&#x148;" horiz-adv-x="509" d="M145 0 L190 260 C235 298 280 319 306 329 L322 324 C327 302 324 263 316 220 L278 0 L418 0 L467 286 C473 319 475 347 475 371 C475 434 455 466 408 466 C347 466 279 427 208 367 L224 456 L86 456 L5 0 L145 0 Z M351 527 L490 689 L367 689 L318 603 L315 603 L296 690 L166 690 L244 527 L351 527 Z " />
<glyph glyph-name="napostrophe" unicode="&#x149;" horiz-adv-x="509" d="M145 0 L190 260 C235 298 280 319 306 329 L322 324 C327 302 324 263 316 220 L278 0 L418 0 L467 286 C473 319 475 347 475 371 C475 434 455 466 408 466 C347 466 279 427 208 367 L224 456 L86 456 L5 0 L145 0 Z M97 501 C131 548 155 610 171 665 C175 678 180 702 184 716 L73 724 L65 679 C52 627 36 582 9 535 L97 501 Z " />
<glyph glyph-name="Eng" unicode="&#x14a;" horiz-adv-x="647" d="M17 0 L156 0 L212 318 L217 318 L390 7 L403 7 L402 -3 C393 -57 376 -93 286 -193 L387 -264 C493 -153 525 -92 540 -7 L643 583 L504 583 L447 251 L442 251 L247 583 L120 583 L17 0 Z " />
<glyph glyph-name="eng" unicode="&#x14b;" horiz-adv-x="509" d="M145 0 L190 260 C235 298 280 319 306 329 L322 324 C327 302 324 263 316 220 L277 -3 C268 -55 233 -96 182 -161 L276 -227 C347 -161 402 -93 418 -1 L467 286 C473 319 475 347 475 371 C475 434 455 466 408 466 C347 466 279 427 208 367 L224 456 L86 456 L5 0 L145 0 Z " />
<glyph glyph-name="Omacron" unicode="&#x14c;" horiz-adv-x="638" d="M255 653 L529 653 L548 748 L274 748 L255 653 Z M264 -12 C484 -12 625 188 625 379 C625 515 549 595 386 595 C162 595 26 401 26 204 C26 70 104 -12 264 -12 L264 -12 Z M294 111 C228 111 194 151 194 229 C194 335 240 472 356 472 C422 472 457 438 457 361 C457 257 411 111 294 111 L294 111 Z " />
<glyph glyph-name="omacron" unicode="&#x14d;" horiz-adv-x="483" d="M170 554 L444 554 L462 648 L188 648 L170 554 Z M227 88 C201 88 181 95 167 102 C161 120 157 140 157 162 C157 235 186 320 234 367 C264 367 291 360 307 353 C314 330 318 307 318 285 C317 208 281 140 227 88 L227 88 Z M157 -8 C236 -7 316 23 369 74 C427 131 461 214 462 299 C462 419 406 466 312 466 C224 465 134 429 80 362 C34 305 13 225 13 145 C13 46 64 -8 157 -8 L157 -8 Z " />
<glyph glyph-name="Obreve" unicode="&#x14e;" horiz-adv-x="638" d="M406 717 C353 717 324 754 319 775 L245 712 C254 681 296 620 386 620 C473 620 532 673 559 711 L519 775 C504 754 454 717 406 717 L406 717 Z M264 -12 C484 -12 625 188 625 379 C625 515 549 595 386 595 C162 595 26 401 26 204 C26 70 104 -12 264 -12 L264 -12 Z M294 111 C228 111 194 151 194 229 C194 335 240 472 356 472 C422 472 457 438 457 361 C457 257 411 111 294 111 L294 111 Z " />
<glyph glyph-name="obreve" unicode="&#x14f;" horiz-adv-x="483" d="M227 88 C201 88 181 95 167 102 C161 120 157 140 157 162 C157 235 186 320 234 367 C264 367 291 360 307 353 C314 330 318 307 318 285 C317 208 281 140 227 88 L227 88 Z M157 -8 C236 -7 316 23 369 74 C427 131 461 214 462 299 C462 419 406 466 312 466 C224 465 134 429 80 362 C34 305 13 225 13 145 C13 46 64 -8 157 -8 L157 -8 Z M312 633 C257 633 229 672 224 690 L151 618 C159 587 207 526 299 526 C385 526 446 581 472 619 L424 691 C409 669 363 633 312 633 L312 633 Z " />
<glyph glyph-name="Ohungarumlaut" unicode="&#x150;" horiz-adv-x="638" d="M264 -12 C484 -12 625 188 625 379 C625 515 549 595 386 595 C162 595 26 401 26 204 C26 70 104 -12 264 -12 L264 -12 Z M294 111 C228 111 194 151 194 229 C194 335 240 472 356 472 C422 472 457 438 457 361 C457 257 411 111 294 111 L294 111 Z M329 632 L471 780 L326 780 L221 632 L329 632 Z M493 632 L662 780 L517 780 L386 632 L493 632 Z " />
<glyph glyph-name="ohungarumlaut" unicode="&#x151;" horiz-adv-x="483" d="M258 529 L396 683 L263 683 L158 529 L258 529 Z M416 529 L574 683 L440 683 L316 529 L416 529 Z M227 88 C201 88 181 95 167 102 C161 120 157 140 157 162 C157 235 186 320 234 367 C264 367 291 360 307 353 C314 330 318 307 318 285 C317 208 281 140 227 88 L227 88 Z M157 -8 C236 -7 316 23 369 74 C427 131 461 214 462 299 C462 419 406 466 312 466 C224 465 134 429 80 362 C34 305 13 225 13 145 C13 46 64 -8 157 -8 L157 -8 Z " />
<glyph glyph-name="OE" unicode="&#x152;" horiz-adv-x="841" d="M372 0 L764 0 L786 127 L551 127 L570 235 L755 235 L777 354 L591 354 L609 456 L838 456 L861 583 L474 583 L471 569 C440 585 404 595 359 595 C180 595 29 436 29 223 C29 90 113 -12 237 -12 C293 -12 338 1 375 20 L372 0 Z M299 111 C233 111 199 153 199 231 C199 334 242 472 361 472 C400 472 425 461 448 438 L396 139 C368 123 334 111 299 111 L299 111 Z " />
<glyph glyph-name="oe" unicode="&#x153;" horiz-adv-x="736" d="M157 -8 C215 -7 273 9 321 38 C324 24 328 11 332 0 L452 -11 C532 17 628 70 688 117 L647 192 C599 159 530 124 481 108 L467 113 C463 134 460 154 459 173 C548 206 664 252 719 296 L732 400 C685 442 596 466 534 466 C490 466 453 451 422 428 C396 454 358 466 312 466 C224 465 134 429 80 362 C34 305 13 225 13 145 C13 46 64 -8 157 -8 L157 -8 Z M227 88 C201 88 181 95 167 102 C161 120 157 140 157 162 C157 235 186 320 234 367 C264 367 291 360 307 353 C314 330 318 307 318 285 C317 208 281 140 227 88 L227 88 Z M506 363 C512 364 520 364 527 363 C552 361 580 351 598 338 L598 315 C562 290 510 267 462 248 C468 292 483 331 506 363 L506 363 Z " />
<glyph glyph-name="Racute" unicode="&#x154;" horiz-adv-x="552" d="M17 0 L175 0 L206 178 L250 178 C259 178 268 178 276 179 L335 0 L505 0 L412 215 C490 257 534 330 534 412 C534 517 461 583 337 583 L119 583 L17 0 Z M375 632 L527 779 L375 779 L260 632 L375 632 Z M264 463 C335 463 368 444 368 394 C368 319 309 298 229 298 L227 298 L256 463 L264 463 Z " />
<glyph glyph-name="racute" unicode="&#x155;" horiz-adv-x="373" d="M145 0 L189 253 C229 283 261 301 290 312 L346 285 L400 438 C385 454 363 466 333 466 C307 466 257 421 208 363 L224 456 L86 456 L5 0 L145 0 Z M298 529 L442 683 L308 683 L198 529 L298 529 Z " />
<glyph glyph-name="Rcommaaccent" unicode="&#x156;" horiz-adv-x="552" d="M17 0 L175 0 L206 178 L250 178 C259 178 268 178 276 179 L335 0 L505 0 L412 215 C490 257 534 330 534 412 C534 517 461 583 337 583 L119 583 L17 0 Z M124 -247 L221 -247 L291 -62 L173 -62 L124 -247 Z M264 463 C335 463 368 444 368 394 C368 319 309 298 229 298 L227 298 L256 463 L264 463 Z " />
<glyph glyph-name="rcommaaccent" unicode="&#x157;" horiz-adv-x="373" d="M145 0 L189 253 C229 283 261 301 290 312 L346 285 L400 438 C385 454 363 466 333 466 C307 466 257 421 208 363 L224 456 L86 456 L5 0 L145 0 Z M-44 -247 L53 -247 L123 -62 L5 -62 L-44 -247 Z " />
<glyph glyph-name="Rcaron" unicode="&#x158;" horiz-adv-x="552" d="M17 0 L175 0 L206 178 L250 178 C259 178 268 178 276 179 L335 0 L505 0 L412 215 C490 257 534 330 534 412 C534 517 461 583 337 583 L119 583 L17 0 Z M391 624 L540 782 L399 782 L350 710 L346 710 L325 782 L175 782 L265 624 L391 624 Z M264 463 C335 463 368 444 368 394 C368 319 309 298 229 298 L227 298 L256 463 L264 463 Z " />
<glyph glyph-name="rcaron" unicode="&#x159;" horiz-adv-x="373" d="M145 0 L189 253 C229 283 261 301 290 312 L346 285 L400 438 C385 454 363 466 333 466 C307 466 257 421 208 363 L224 456 L86 456 L5 0 L145 0 Z M304 527 L443 689 L320 689 L271 603 L268 603 L249 690 L119 690 L197 527 L304 527 Z " />
<glyph glyph-name="Sacute" unicode="&#x15a;" horiz-adv-x="482" d="M-1 25 C51 1 115 -12 174 -12 C314 -12 441 42 441 190 C441 277 378 318 318 346 C259 374 214 388 214 419 C214 455 261 472 312 472 C371 472 434 451 459 434 L484 556 C450 576 380 595 308 595 C176 595 60 523 60 386 C60 307 118 265 178 238 C238 211 292 198 292 164 C292 130 256 111 211 111 C149 111 70 127 25 152 L-1 25 Z M354 632 L506 779 L354 779 L239 632 L354 632 Z " />
<glyph glyph-name="sacute" unicode="&#x15b;" horiz-adv-x="390" d="M279 529 L423 683 L289 683 L179 529 L279 529 Z M380 440 C337 458 281 466 240 466 C111 466 42 388 42 312 C42 263 71 219 122 185 C149 166 193 140 210 117 C212 114 214 112 215 109 C201 98 180 93 156 93 C111 93 51 110 10 129 L-10 20 C24 3 88 -8 145 -8 C190 -8 241 3 281 27 C320 50 348 86 348 135 C348 198 297 232 244 265 C220 280 179 307 166 334 C164 340 164 345 165 352 C184 359 205 363 227 363 C273 362 321 346 358 327 L380 440 Z " />
<glyph glyph-name="Scircumflex" unicode="&#x15c;" horiz-adv-x="482" d="M-1 25 C51 1 115 -12 174 -12 C314 -12 441 42 441 190 C441 277 378 318 318 346 C259 374 214 388 214 419 C214 455 261 472 312 472 C371 472 434 451 459 434 L484 556 C450 576 380 595 308 595 C176 595 60 523 60 386 C60 307 118 265 178 238 C238 211 292 198 292 164 C292 130 256 111 211 111 C149 111 70 127 25 152 L-1 25 Z M283 791 L134 633 L267 633 L318 711 L323 711 L342 632 L485 632 L395 791 L283 791 Z " />
<glyph glyph-name="scircumflex" unicode="&#x15d;" horiz-adv-x="390" d="M233 691 L93 525 L218 525 L267 614 L269 614 L289 525 L418 525 L341 691 L233 691 Z M380 440 C337 458 281 466 240 466 C111 466 42 388 42 312 C42 263 71 219 122 185 C149 166 193 140 210 117 C212 114 214 112 215 109 C201 98 180 93 156 93 C111 93 51 110 10 129 L-10 20 C24 3 88 -8 145 -8 C190 -8 241 3 281 27 C320 50 348 86 348 135 C348 198 297 232 244 265 C220 280 179 307 166 334 C164 340 164 345 165 352 C184 359 205 363 227 363 C273 362 321 346 358 327 L380 440 Z " />
<glyph glyph-name="Scedilla" unicode="&#x15e;" horiz-adv-x="483" d="M139 -212 C217 -212 267 -169 267 -104 C267 -75 247 -44 202 -35 L217 -10 C339 0 441 57 441 190 C441 277 378 318 318 346 C259 374 214 388 214 419 C214 455 261 472 312 472 C371 472 434 451 459 434 L484 556 C450 576 380 595 308 595 C176 595 60 523 60 386 C60 307 118 265 178 238 C238 211 292 198 292 164 C292 130 256 111 211 111 C149 111 70 127 25 152 L-1 25 C43 4 95 -7 146 -11 L123 -46 L121 -63 C156 -66 174 -83 174 -103 C174 -129 150 -141 124 -141 C109 -141 91 -135 77 -124 L48 -188 C67 -203 105 -212 139 -212 L139 -212 Z " />
<glyph glyph-name="scedilla" unicode="&#x15f;" horiz-adv-x="391" d="M97 -212 C175 -212 225 -169 225 -104 C225 -75 205 -44 160 -35 L178 -6 C213 -2 250 8 281 27 C320 50 348 86 348 135 C348 198 297 232 244 265 C220 280 179 307 166 334 C164 340 164 345 165 352 C184 359 205 363 227 363 C273 362 321 346 358 327 L380 440 C337 458 281 466 240 466 C111 466 42 388 42 312 C42 263 71 219 122 185 C149 166 193 140 210 117 C212 114 214 112 215 109 C201 98 180 93 156 93 C111 93 51 110 10 129 L-10 20 C16 6 61 -3 107 -6 L81 -46 L79 -63 C114 -66 132 -83 132 -103 C132 -129 108 -141 82 -141 C67 -141 49 -135 35 -124 L6 -188 C25 -203 63 -212 97 -212 L97 -212 Z " />
<glyph glyph-name="Scaron" unicode="&#x160;" horiz-adv-x="482" d="M-1 25 C51 1 115 -12 174 -12 C314 -12 441 42 441 190 C441 277 378 318 318 346 C259 374 214 388 214 419 C214 455 261 472 312 472 C371 472 434 451 459 434 L484 556 C450 576 380 595 308 595 C176 595 60 523 60 386 C60 307 118 265 178 238 C238 211 292 198 292 164 C292 130 256 111 211 111 C149 111 70 127 25 152 L-1 25 Z M364 624 L513 782 L372 782 L323 710 L319 710 L298 782 L148 782 L238 624 L364 624 Z " />
<glyph glyph-name="scaron" unicode="&#x161;" horiz-adv-x="390" d="M300 527 L439 689 L316 689 L267 603 L264 603 L245 690 L115 690 L193 527 L300 527 Z M380 440 C337 458 281 466 240 466 C111 466 42 388 42 312 C42 263 71 219 122 185 C149 166 193 140 210 117 C212 114 214 112 215 109 C201 98 180 93 156 93 C111 93 51 110 10 129 L-10 20 C24 3 88 -8 145 -8 C190 -8 241 3 281 27 C320 50 348 86 348 135 C348 198 297 232 244 265 C220 280 179 307 166 334 C164 340 164 345 165 352 C184 359 205 363 227 363 C273 362 321 346 358 327 L380 440 Z " />
<glyph glyph-name="Tcommaaccent" unicode="&#x162;" horiz-adv-x="538" d="M49 456 L225 456 L145 0 L303 0 L383 456 L560 456 L582 583 L71 583 L49 456 Z M107 -247 L204 -247 L274 -62 L156 -62 L107 -247 Z " />
<glyph glyph-name="tcommaaccent" unicode="&#x163;" horiz-adv-x="380" d="M29 354 L94 354 L35 25 L133 -8 C228 12 293 48 353 84 L315 180 C282 161 251 141 209 128 L199 135 L234 354 L368 354 L386 456 L250 456 L270 579 L135 579 L113 456 L46 456 L29 354 Z M60 -247 L157 -247 L227 -62 L109 -62 L60 -247 Z " />
<glyph glyph-name="Tcaron" unicode="&#x164;" horiz-adv-x="538" d="M49 456 L225 456 L145 0 L303 0 L383 456 L560 456 L582 583 L71 583 L49 456 Z M392 624 L541 782 L400 782 L351 710 L347 710 L326 782 L176 782 L266 624 L392 624 Z " />
<glyph glyph-name="tcaron" unicode="&#x165;" horiz-adv-x="380" d="M29 354 L94 354 L35 25 L133 -8 C228 12 293 48 353 84 L315 180 C282 161 251 141 209 128 L199 135 L234 354 L368 354 L386 456 L250 456 L270 579 L135 579 L113 456 L46 456 L29 354 Z M300 513 L371 513 L463 722 L346 722 L300 513 Z " />
<glyph glyph-name="Tbar" unicode="&#x166;" horiz-adv-x="538" d="M49 456 L225 456 L200 314 L105 314 L89 231 L185 231 L145 0 L303 0 L343 231 L445 231 L461 314 L358 314 L383 456 L560 456 L582 583 L71 583 L49 456 Z " />
<glyph glyph-name="tbar" unicode="&#x167;" horiz-adv-x="380" d="M29 354 L94 354 L85 305 L33 305 L22 239 L73 239 L35 25 L133 -8 C228 12 293 48 353 84 L315 180 C282 161 251 141 209 128 L199 135 L215 239 L305 239 L316 305 L226 305 L234 354 L368 354 L386 456 L250 456 L270 579 L135 579 L113 456 L46 456 L29 354 Z " />
<glyph glyph-name="Utilde" unicode="&#x168;" horiz-adv-x="634" d="M531 749 C514 734 494 724 473 724 C433 724 392 751 349 751 C301 751 254 710 232 687 L259 630 C280 649 300 657 320 657 C362 657 399 628 447 628 C497 628 537 666 557 685 L531 749 Z M270 -12 C432 -12 545 64 576 239 L637 583 L480 583 L421 249 C403 151 360 111 295 111 C236 111 207 137 207 198 C207 212 208 227 211 244 L271 583 L114 583 L49 213 C46 197 45 181 45 167 C45 46 142 -12 270 -12 L270 -12 Z " />
<glyph glyph-name="utilde" unicode="&#x169;" horiz-adv-x="503" d="M349 456 L304 194 C260 157 215 135 190 127 L175 131 C172 154 176 194 183 236 L222 456 L82 456 L32 164 C28 139 26 115 26 95 C26 29 48 -9 96 -9 C162 -9 223 28 285 85 L270 0 L408 0 L489 456 L349 456 Z M431 667 C414 652 394 642 374 642 C334 642 294 670 250 670 C202 670 154 629 134 606 L159 535 C181 555 202 563 221 563 C263 563 299 533 348 533 C397 533 437 572 458 591 L431 667 Z " />
<glyph glyph-name="Umacron" unicode="&#x16a;" horiz-adv-x="634" d="M250 653 L524 653 L543 748 L269 748 L250 653 Z M270 -12 C432 -12 545 64 576 239 L637 583 L480 583 L421 249 C403 151 360 111 295 111 C236 111 207 137 207 198 C207 212 208 227 211 244 L271 583 L114 583 L49 213 C46 197 45 181 45 167 C45 46 142 -12 270 -12 L270 -12 Z " />
<glyph glyph-name="umacron" unicode="&#x16b;" horiz-adv-x="503" d="M349 456 L304 194 C260 157 215 135 190 127 L175 131 C172 154 176 194 183 236 L222 456 L82 456 L32 164 C28 139 26 115 26 95 C26 29 48 -9 96 -9 C162 -9 223 28 285 85 L270 0 L408 0 L489 456 L349 456 Z M162 554 L436 554 L454 648 L180 648 L162 554 Z " />
<glyph glyph-name="Ubreve" unicode="&#x16c;" horiz-adv-x="634" d="M400 718 C347 718 318 755 313 776 L239 713 C248 682 290 621 380 621 C467 621 526 674 553 712 L513 776 C498 755 448 718 400 718 L400 718 Z M270 -12 C432 -12 545 64 576 239 L637 583 L480 583 L421 249 C403 151 360 111 295 111 C236 111 207 137 207 198 C207 212 208 227 211 244 L271 583 L114 583 L49 213 C46 197 45 181 45 167 C45 46 142 -12 270 -12 L270 -12 Z " />
<glyph glyph-name="ubreve" unicode="&#x16d;" horiz-adv-x="503" d="M349 456 L304 194 C260 157 215 135 190 127 L175 131 C172 154 176 194 183 236 L222 456 L82 456 L32 164 C28 139 26 115 26 95 C26 29 48 -9 96 -9 C162 -9 223 28 285 85 L270 0 L408 0 L489 456 L349 456 Z M310 633 C255 633 227 672 222 690 L149 618 C157 587 205 526 297 526 C383 526 444 581 470 619 L422 691 C407 669 361 633 310 633 L310 633 Z " />
<glyph glyph-name="Uring" unicode="&#x16e;" horiz-adv-x="634" d="M270 -12 C432 -12 545 64 576 239 L637 583 L480 583 L421 249 C403 151 360 111 295 111 C236 111 207 137 207 198 C207 212 208 227 211 244 L271 583 L114 583 L49 213 C46 197 45 181 45 167 C45 46 142 -12 270 -12 L270 -12 Z M396 742 C419 742 427 730 427 714 C427 685 413 661 382 661 C360 661 353 673 353 689 C353 719 365 742 396 742 L396 742 Z M407 803 C342 803 282 763 282 684 C282 629 327 601 374 601 C429 601 498 638 498 722 C498 775 454 803 407 803 L407 803 Z " />
<glyph glyph-name="uring" unicode="&#x16f;" horiz-adv-x="503" d="M349 456 L304 194 C260 157 215 135 190 127 L175 131 C172 154 176 194 183 236 L222 456 L82 456 L32 164 C28 139 26 115 26 95 C26 29 48 -9 96 -9 C162 -9 223 28 285 85 L270 0 L408 0 L489 456 L349 456 Z M326 723 C259 723 197 682 197 599 C197 542 243 512 292 512 C349 512 421 551 421 639 C421 693 376 723 326 723 L326 723 Z M315 659 C338 659 347 647 347 630 C347 601 332 576 301 576 C279 576 270 588 270 604 C270 635 283 659 315 659 L315 659 Z " />
<glyph glyph-name="Uhungarumlaut" unicode="&#x170;" horiz-adv-x="634" d="M270 -12 C432 -12 545 64 576 239 L637 583 L480 583 L421 249 C403 151 360 111 295 111 C236 111 207 137 207 198 C207 212 208 227 211 244 L271 583 L114 583 L49 213 C46 197 45 181 45 167 C45 46 142 -12 270 -12 L270 -12 Z M334 632 L476 780 L331 780 L226 632 L334 632 Z M498 632 L667 780 L522 780 L391 632 L498 632 Z " />
<glyph glyph-name="uhungarumlaut" unicode="&#x171;" horiz-adv-x="503" d="M349 456 L304 194 C260 157 215 135 190 127 L175 131 C172 154 176 194 183 236 L222 456 L82 456 L32 164 C28 139 26 115 26 95 C26 29 48 -9 96 -9 C162 -9 223 28 285 85 L270 0 L408 0 L489 456 L349 456 Z M405 529 L563 683 L429 683 L305 529 L405 529 Z M247 529 L385 683 L252 683 L147 529 L247 529 Z " />
<glyph glyph-name="Uogonek" unicode="&#x172;" horiz-adv-x="634" d="M367 -188 L372 -117 C356 -125 327 -132 305 -132 C286 -132 269 -125 269 -101 C269 -72 298 -36 348 -5 C468 16 550 94 576 239 L637 583 L480 583 L421 249 C403 151 360 111 295 111 C236 111 207 137 207 198 C207 212 208 227 211 244 L271 583 L114 583 L49 213 C46 197 45 182 45 167 C45 51 133 -6 252 -11 C209 -44 172 -86 172 -135 C172 -182 193 -212 267 -212 C303 -212 342 -203 367 -188 L367 -188 Z " />
<glyph glyph-name="uogonek" unicode="&#x173;" horiz-adv-x="503" d="M349 456 L304 194 C260 157 215 135 190 127 L175 131 C172 154 176 194 183 236 L222 456 L82 456 L32 164 C28 139 26 115 26 95 C26 29 48 -9 96 -9 C162 -9 223 28 285 85 L270 0 L286 0 C236 -34 190 -81 190 -135 C190 -182 211 -212 285 -212 C321 -212 360 -203 385 -188 L390 -117 C374 -125 345 -132 323 -132 C304 -132 287 -125 287 -101 C287 -71 319 -32 375 0 L408 0 L489 456 L349 456 Z " />
<glyph glyph-name="Wcircumflex" unicode="&#x174;" horiz-adv-x="897" d="M948 583 L785 583 L629 212 L625 212 L597 583 L435 583 L255 211 L250 211 L251 583 L79 583 L90 0 L278 0 L442 341 L448 341 L478 0 L675 0 L948 583 Z M493 791 L344 633 L477 633 L528 711 L533 711 L552 632 L695 632 L605 791 L493 791 Z " />
<glyph glyph-name="wcircumflex" unicode="&#x175;" horiz-adv-x="727" d="M616 456 L492 149 L482 149 C470 212 464 269 464 326 C464 367 468 408 474 456 L333 456 C327 427 324 395 324 363 L218 149 L208 149 C196 212 190 269 190 326 C190 367 194 408 200 456 L59 456 C52 418 49 377 49 335 C50 206 80 69 103 0 L240 0 L340 192 C353 113 373 43 388 0 L532 0 L756 456 L616 456 Z M386 691 L246 525 L371 525 L420 614 L422 614 L442 525 L571 525 L494 691 L386 691 Z " />
<glyph glyph-name="Ycircumflex" unicode="&#x176;" horiz-adv-x="569" d="M634 583 L466 583 L305 336 L302 336 L234 583 L51 583 L189 201 L154 0 L312 0 L347 196 L634 583 Z M322 791 L173 633 L306 633 L357 711 L362 711 L381 632 L524 632 L434 791 L322 791 Z " />
<glyph glyph-name="ycircumflex" unicode="&#x177;" horiz-adv-x="472" d="M269 691 L129 525 L254 525 L303 614 L305 614 L325 525 L454 525 L377 691 L269 691 Z M206 -207 L363 164 L500 456 L360 456 L224 137 L213 137 C197 206 190 265 190 324 C190 367 194 408 200 456 L60 456 C53 422 50 385 50 348 C49 215 78 71 103 0 L156 0 L59 -179 L68 -207 L206 -207 Z " />
<glyph glyph-name="Ydieresis" unicode="&#x178;" horiz-adv-x="569" d="M634 583 L466 583 L305 336 L302 336 L234 583 L51 583 L189 201 L154 0 L312 0 L347 196 L634 583 Z M181 660 L309 628 L350 766 L200 767 L181 660 Z M372 660 L500 628 L541 766 L391 767 L372 660 Z " />
<glyph glyph-name="Zacute" unicode="&#x179;" horiz-adv-x="518" d="M444 0 L466 128 L228 128 L561 579 L560 583 L89 583 L66 456 L296 456 L-32 3 L-30 0 L444 0 Z M362 632 L514 779 L362 779 L247 632 L362 632 Z " />
<glyph glyph-name="zacute" unicode="&#x17a;" horiz-adv-x="425" d="M285 529 L429 683 L295 683 L185 529 L285 529 Z M44 347 L235 347 L-6 77 L-5 0 L356 0 L374 111 L177 111 L421 383 L421 456 L61 456 L44 347 Z " />
<glyph glyph-name="Zdotaccent" unicode="&#x17b;" horiz-adv-x="518" d="M444 0 L466 128 L228 128 L561 579 L560 583 L89 583 L66 456 L296 456 L-32 3 L-30 0 L444 0 Z M262 661 L390 629 L431 767 L281 768 L262 661 Z " />
<glyph glyph-name="zdotaccent" unicode="&#x17c;" horiz-adv-x="425" d="M44 347 L235 347 L-6 77 L-5 0 L356 0 L374 111 L177 111 L421 383 L421 456 L61 456 L44 347 Z M188 571 L316 539 L357 679 L207 680 L188 571 Z " />
<glyph glyph-name="Zcaron" unicode="&#x17d;" horiz-adv-x="518" d="M444 0 L466 128 L228 128 L561 579 L560 583 L89 583 L66 456 L296 456 L-32 3 L-30 0 L444 0 Z M398 624 L547 782 L406 782 L357 710 L353 710 L332 782 L182 782 L272 624 L398 624 Z " />
<glyph glyph-name="zcaron" unicode="&#x17e;" horiz-adv-x="425" d="M310 527 L449 689 L326 689 L277 603 L274 603 L255 690 L125 690 L203 527 L310 527 Z M44 347 L235 347 L-6 77 L-5 0 L356 0 L374 111 L177 111 L421 383 L421 456 L61 456 L44 347 Z " />
<glyph glyph-name="uni018F" unicode="&#x18f;" horiz-adv-x="598" d="M106 561 L80 415 C137 444 203 464 259 464 C337 464 400 431 405 366 C405 362 405 356 404 351 L59 351 C36 294 24 240 24 193 C24 66 113 -12 244 -12 C449 -12 581 152 581 359 C581 528 450 595 299 595 C231 595 165 583 106 561 L106 561 Z M264 112 C210 112 186 147 186 191 C186 201 187 212 190 223 L388 223 C374 159 327 112 264 112 L264 112 Z " />
<glyph glyph-name="florin" unicode="&#x192;" horiz-adv-x="435" d="M120 74 C108 -2 85 -29 40 -29 C23 -29 7 -27 -13 -22 L-28 -133 C1 -140 29 -143 57 -143 C165 -143 239 -83 257 31 L284 219 L371 219 L382 324 L299 324 L304 361 C313 426 328 468 387 468 C404 468 421 466 441 461 L451 586 C427 590 404 593 380 593 C263 593 181 533 167 422 L153 324 L64 324 L53 219 L139 219 L120 74 Z " />
<glyph glyph-name="uni01C4" unicode="&#x1c4;" horiz-adv-x="1139" d="M17 0 L232 0 C430 4 603 121 603 354 C603 517 482 583 328 583 L119 583 L17 0 Z M1064 0 L1086 128 L848 128 L1181 579 L1180 583 L709 583 L686 456 L916 456 L588 3 L590 0 L1064 0 Z M277 456 C380 456 430 421 430 334 C430 188 350 127 221 127 L197 127 L254 456 L277 456 Z M1018 624 L1167 782 L1026 782 L977 710 L973 710 L952 782 L802 782 L892 624 L1018 624 Z " />
<glyph glyph-name="uni01C5" unicode="&#x1c5;" horiz-adv-x="1046" d="M17 0 L232 0 C430 4 603 121 603 354 C603 517 482 583 328 583 L119 583 L17 0 Z M664 347 L855 347 L614 77 L615 0 L976 0 L994 111 L797 111 L1041 383 L1041 456 L681 456 L664 347 Z M277 456 C380 456 430 421 430 334 C430 188 350 127 221 127 L197 127 L254 456 L277 456 Z M930 527 L1069 689 L946 689 L897 603 L894 603 L875 690 L745 690 L823 527 L930 527 Z " />
<glyph glyph-name="uni01C6" unicode="&#x1c6;" horiz-adv-x="925" d="M404 0 L519 653 L378 653 L341 442 C312 457 284 466 263 466 C186 466 118 424 82 377 C41 323 15 210 15 111 C15 71 20 33 29 0 L149 0 L283 112 L263 0 L404 0 Z M543 347 L734 347 L493 77 L494 0 L855 0 L873 111 L676 111 L920 383 L920 456 L560 456 L543 347 Z M808 527 L947 689 L824 689 L775 603 L772 603 L753 690 L623 690 L701 527 L808 527 Z M167 129 C164 152 163 175 163 196 C165 261 182 328 210 369 C217 370 220 371 227 371 C255 369 288 358 322 338 L301 214 L182 124 L167 129 Z " />
<glyph glyph-name="uni01C7" unicode="&#x1c7;" horiz-adv-x="734" d="M17 0 L391 0 L413 127 L197 127 L277 583 L119 583 L17 0 Z M487 -115 C595 -4 646 89 662 179 L733 583 L577 583 L505 175 C491 94 451 47 377 -55 L487 -115 Z " />
<glyph glyph-name="uni01C8" unicode="&#x1c8;" horiz-adv-x="686" d="M17 0 L391 0 L413 127 L197 127 L277 583 L119 583 L17 0 Z M450 -3 C441 -55 406 -96 355 -161 L449 -227 C520 -161 575 -93 591 -1 L670 456 L532 456 L450 -3 Z M681 535 L721 675 L571 677 L554 568 L681 535 Z " />
<glyph glyph-name="uni01C9" unicode="&#x1c9;" horiz-adv-x="481" d="M245 -3 C236 -55 201 -96 150 -161 L244 -227 C315 -161 370 -93 386 -1 L465 456 L327 456 L245 -3 Z M476 535 L516 675 L366 677 L349 568 L476 535 Z M146 0 L259 653 L122 653 L6 0 L146 0 Z " />
<glyph glyph-name="uni01CA" unicode="&#x1ca;" horiz-adv-x="934" d="M687 -115 C795 -4 846 89 862 179 L933 583 L777 583 L705 175 C691 94 651 47 577 -55 L687 -115 Z M17 0 L156 0 L212 318 L217 318 L411 0 L541 0 L643 583 L504 583 L449 271 L444 271 L247 583 L120 583 L17 0 Z " />
<glyph glyph-name="uni01CB" unicode="&#x1cb;" horiz-adv-x="886" d="M650 -3 C641 -55 606 -96 555 -161 L649 -227 C720 -161 775 -93 791 -1 L870 456 L732 456 L650 -3 Z M881 535 L921 675 L771 677 L754 568 L881 535 Z M17 0 L156 0 L212 318 L217 318 L411 0 L541 0 L643 583 L504 583 L449 271 L444 271 L247 583 L120 583 L17 0 Z " />
<glyph glyph-name="uni01CC" unicode="&#x1cc;" horiz-adv-x="748" d="M145 0 L190 260 C235 298 280 319 306 329 L322 324 C327 302 324 263 316 220 L278 0 L418 0 L467 286 C473 319 475 347 475 371 C475 434 455 466 408 466 C347 466 279 427 208 367 L224 456 L86 456 L5 0 L145 0 Z M512 -3 C503 -55 468 -96 417 -161 L511 -227 C582 -161 637 -93 653 -1 L732 456 L594 456 L512 -3 Z M743 535 L783 675 L633 677 L616 568 L743 535 Z " />
<glyph glyph-name="uni01D3" unicode="&#x1d3;" horiz-adv-x="634" d="M443 618 L592 776 L451 776 L402 704 L398 704 L377 776 L227 776 L317 618 L443 618 Z M270 -12 C432 -12 545 64 576 239 L637 583 L480 583 L421 249 C403 151 360 111 295 111 C236 111 207 137 207 198 C207 212 208 227 211 244 L271 583 L114 583 L49 213 C46 197 45 181 45 167 C45 46 142 -12 270 -12 L270 -12 Z " />
<glyph glyph-name="uni01D4" unicode="&#x1d4;" horiz-adv-x="503" d="M349 456 L304 194 C260 157 215 135 190 127 L175 131 C172 154 176 194 183 236 L222 456 L82 456 L32 164 C28 139 26 115 26 95 C26 29 48 -9 96 -9 C162 -9 223 28 285 85 L270 0 L408 0 L489 456 L349 456 Z M345 527 L484 689 L361 689 L312 603 L309 603 L290 690 L160 690 L238 527 L345 527 Z " />
<glyph glyph-name="uni01E2" unicode="&#x1e2;" horiz-adv-x="767" d="M297 0 L689 0 L711 127 L476 127 L495 235 L680 235 L702 354 L516 354 L534 456 L764 456 L786 583 L327 583 L-54 0 L97 0 L173 119 L318 119 L297 0 Z M433 652 L707 652 L726 747 L452 747 L433 652 Z M366 422 L371 422 L340 246 L254 246 L366 422 Z " />
<glyph glyph-name="uni01E3" unicode="&#x1e3;" horiz-adv-x="723" d="M676 117 L635 192 C587 159 518 124 469 108 L455 113 C451 133 449 153 448 173 C536 205 653 252 707 296 L720 400 C673 442 584 466 522 466 C469 466 427 446 393 414 C352 441 294 466 263 466 C186 466 118 424 82 377 C41 323 15 210 15 111 C15 71 20 33 29 0 L149 0 L300 104 C303 67 310 30 321 0 L440 -11 C521 17 617 70 676 117 L676 117 Z M163 121 C161 141 160 161 160 180 C161 250 180 323 210 366 C217 366 225 367 231 366 C264 363 297 352 333 330 C316 291 305 241 301 190 L178 116 L163 121 Z M300 554 L574 554 L592 648 L318 648 L300 554 Z M494 363 C501 364 509 363 518 362 C542 360 569 351 586 338 L587 315 C551 290 498 267 451 248 C457 291 471 331 494 363 L494 363 Z " />
<glyph glyph-name="uni01F1" unicode="&#x1f1;" horiz-adv-x="1129" d="M17 0 L232 0 C430 4 603 121 603 354 C603 517 482 583 328 583 L119 583 L17 0 Z M1054 0 L1076 128 L838 128 L1171 579 L1170 583 L699 583 L676 456 L906 456 L578 3 L580 0 L1054 0 Z M277 456 C380 456 430 421 430 334 C430 188 350 127 221 127 L197 127 L254 456 L277 456 Z " />
<glyph glyph-name="uni01F2" unicode="&#x1f2;" horiz-adv-x="1046" d="M17 0 L232 0 C430 4 603 121 603 354 C603 517 482 583 328 583 L119 583 L17 0 Z M664 347 L855 347 L614 77 L615 0 L976 0 L994 111 L797 111 L1041 383 L1041 456 L681 456 L664 347 Z M277 456 C380 456 430 421 430 334 C430 188 350 127 221 127 L197 127 L254 456 L277 456 Z " />
<glyph glyph-name="uni01F3" unicode="&#x1f3;" horiz-adv-x="925" d="M404 0 L519 653 L378 653 L341 442 C312 457 284 466 263 466 C186 466 118 424 82 377 C41 323 15 210 15 111 C15 71 20 33 29 0 L149 0 L283 112 L263 0 L404 0 Z M543 347 L734 347 L493 77 L494 0 L855 0 L873 111 L676 111 L920 383 L920 456 L560 456 L543 347 Z M167 129 C164 152 163 175 163 196 C165 261 182 328 210 369 C217 370 220 371 227 371 C255 369 288 358 322 338 L301 214 L182 124 L167 129 Z " />
<glyph glyph-name="AEacute" unicode="&#x1fc;" horiz-adv-x="767" d="M297 0 L689 0 L711 127 L476 127 L495 235 L680 235 L702 354 L516 354 L534 456 L764 456 L786 583 L327 583 L-54 0 L97 0 L173 119 L318 119 L297 0 Z M609 633 L761 780 L609 780 L494 633 L609 633 Z M366 422 L371 422 L340 246 L254 246 L366 422 Z " />
<glyph glyph-name="aeacute" unicode="&#x1fd;" horiz-adv-x="723" d="M676 117 L635 192 C587 159 518 124 469 108 L455 113 C451 133 449 153 448 173 C536 205 653 252 707 296 L720 400 C673 442 584 466 522 466 C469 466 427 446 393 414 C352 441 294 466 263 466 C186 466 118 424 82 377 C41 323 15 210 15 111 C15 71 20 33 29 0 L149 0 L300 104 C303 67 310 30 321 0 L440 -11 C521 17 617 70 676 117 L676 117 Z M163 121 C161 141 160 161 160 180 C161 250 180 323 210 366 C217 366 225 367 231 366 C264 363 297 352 333 330 C316 291 305 241 301 190 L178 116 L163 121 Z M455 529 L599 683 L465 683 L355 529 L455 529 Z M494 363 C501 364 509 363 518 362 C542 360 569 351 586 338 L587 315 C551 290 498 267 451 248 C457 291 471 331 494 363 L494 363 Z " />
<glyph glyph-name="Oslashacute" unicode="&#x1fe;" horiz-adv-x="638" d="M264 -12 C484 -12 625 188 625 379 C625 436 611 483 584 519 L657 595 L570 595 L537 560 C499 583 449 595 386 595 C162 595 26 401 26 204 C26 148 39 101 66 66 L-4 -8 L77 -8 L110 26 C148 1 199 -12 264 -12 L264 -12 Z M294 111 C261 111 236 121 220 140 L455 385 C456 378 457 369 457 361 C457 257 411 111 294 111 L294 111 Z M194 229 C194 335 240 472 356 472 C387 472 412 464 429 447 L195 201 C194 210 194 219 194 229 L194 229 Z M427 632 L579 779 L427 779 L312 632 L427 632 Z " />
<glyph glyph-name="oslashacute" unicode="&#x1ff;" horiz-adv-x="483" d="M157 -8 C236 -7 316 23 369 74 C427 131 461 214 462 299 C462 343 454 377 440 402 L502 466 L432 466 L407 440 C383 458 350 466 312 466 C224 465 134 429 80 362 C34 305 13 225 13 145 C13 108 20 78 33 54 L-30 -12 L38 -12 L66 17 C89 0 120 -8 157 -8 L157 -8 Z M352 529 L496 683 L362 683 L252 529 L352 529 Z M234 367 C264 367 291 360 307 353 L310 340 L158 182 C163 250 190 324 234 367 L234 367 Z M227 88 C201 88 181 95 167 102 C165 106 163 111 162 116 L317 276 C314 202 279 138 227 88 L227 88 Z " />
<glyph glyph-name="Scommaaccent" unicode="&#x218;" horiz-adv-x="482" d="M88 -247 L185 -247 L255 -62 L137 -62 L88 -247 Z M-1 25 C51 1 115 -12 174 -12 C314 -12 441 42 441 190 C441 277 378 318 318 346 C259 374 214 388 214 419 C214 455 261 472 312 472 C371 472 434 451 459 434 L484 556 C450 576 380 595 308 595 C176 595 60 523 60 386 C60 307 118 265 178 238 C238 211 292 198 292 164 C292 130 256 111 211 111 C149 111 70 127 25 152 L-1 25 Z " />
<glyph glyph-name="scommaaccent" unicode="&#x219;" horiz-adv-x="390" d="M56 -247 L153 -247 L223 -62 L105 -62 L56 -247 Z M380 440 C337 458 281 466 240 466 C111 466 42 388 42 312 C42 263 71 219 122 185 C149 166 193 140 210 117 C212 114 214 112 215 109 C201 98 180 93 156 93 C111 93 51 110 10 129 L-10 20 C24 3 88 -8 145 -8 C190 -8 241 3 281 27 C320 50 348 86 348 135 C348 198 297 232 244 265 C220 280 179 307 166 334 C164 340 164 345 165 352 C184 359 205 363 227 363 C273 362 321 346 358 327 L380 440 Z " />
<glyph glyph-name="uni021A" unicode="&#x21a;" horiz-adv-x="538" d="M49 456 L225 456 L145 0 L303 0 L383 456 L560 456 L582 583 L71 583 L49 456 Z M108 -247 L205 -247 L275 -62 L157 -62 L108 -247 Z " />
<glyph glyph-name="uni021B" unicode="&#x21b;" horiz-adv-x="380" d="M29 354 L94 354 L35 25 L133 -8 C228 12 293 48 353 84 L315 180 C282 161 251 141 209 128 L199 135 L234 354 L368 354 L386 456 L250 456 L270 579 L135 579 L113 456 L46 456 L29 354 Z M60 -247 L157 -247 L227 -62 L109 -62 L60 -247 Z " />
<glyph glyph-name="uni0232" unicode="&#x232;" horiz-adv-x="569" d="M634 583 L466 583 L305 336 L302 336 L234 583 L51 583 L189 201 L154 0 L312 0 L347 196 L634 583 Z M221 652 L495 652 L514 747 L240 747 L221 652 Z " />
<glyph glyph-name="uni0233" unicode="&#x233;" horiz-adv-x="472" d="M206 -207 L363 164 L500 456 L360 456 L224 137 L213 137 C197 206 190 265 190 324 C190 367 194 408 200 456 L60 456 C53 422 50 385 50 348 C49 215 78 71 103 0 L156 0 L59 -179 L68 -207 L206 -207 Z M151 554 L425 554 L443 648 L169 648 L151 554 Z " />
<glyph glyph-name="uni0237" unicode="&#x237;" horiz-adv-x="239" d="M5 -3 C-4 -55 -39 -96 -90 -161 L4 -227 C75 -161 129 -93 145 -1 L223 456 L85 456 L5 -3 Z " />
<glyph glyph-name="uni0259" unicode="&#x259;" horiz-adv-x="441" d="M37 339 L78 264 C126 297 195 332 244 348 L258 343 C261 322 264 301 265 282 C176 250 61 203 6 160 L-7 56 C40 14 129 -10 191 -10 C261 -10 314 27 354 80 C392 130 414 224 414 315 C414 362 406 416 393 456 L273 467 C193 439 97 386 37 339 L37 339 Z M219 93 C213 92 205 92 198 93 C173 95 145 105 127 118 L127 141 C162 166 214 188 262 208 C256 164 241 124 219 93 L219 93 Z " />
<glyph glyph-name="circumflex" unicode="&#x2c6;" horiz-adv-x="394" d="M244 691 L104 525 L229 525 L278 614 L280 614 L300 525 L429 525 L352 691 L244 691 Z " />
<glyph glyph-name="caron" unicode="&#x2c7;" horiz-adv-x="413" d="M328 527 L467 689 L344 689 L295 603 L292 603 L273 690 L143 690 L221 527 L328 527 Z " />
<glyph glyph-name="breve" unicode="&#x2d8;" horiz-adv-x="359" d="M289 633 C234 633 206 672 201 690 L128 618 C136 587 184 526 276 526 C362 526 423 581 449 619 L401 691 C386 669 340 633 289 633 L289 633 Z " />
<glyph glyph-name="dotaccent" unicode="&#x2d9;" horiz-adv-x="280" d="M157 571 L285 539 L326 679 L176 680 L157 571 Z " />
<glyph glyph-name="ring" unicode="&#x2da;" horiz-adv-x="316" d="M262 659 C285 659 294 647 294 630 C294 601 279 576 248 576 C226 576 217 588 217 604 C217 635 230 659 262 659 L262 659 Z M273 723 C206 723 144 682 144 599 C144 542 190 512 239 512 C296 512 368 551 368 639 C368 693 323 723 273 723 L273 723 Z " />
<glyph glyph-name="ogonek" unicode="&#x2db;" horiz-adv-x="384" d="M281 -188 L286 -117 C270 -125 241 -132 219 -132 C200 -132 183 -125 183 -101 C183 -68 222 -25 288 9 L255 41 C190 10 86 -54 86 -135 C86 -182 107 -212 181 -212 C217 -212 256 -203 281 -188 L281 -188 Z " />
<glyph glyph-name="tilde" unicode="&#x2dc;" horiz-adv-x="402" d="M427 667 C410 652 390 642 370 642 C330 642 290 670 246 670 C198 670 150 629 130 606 L155 535 C177 555 198 563 217 563 C259 563 295 533 344 533 C393 533 433 572 454 591 L427 667 Z " />
<glyph glyph-name="hungarumlaut" unicode="&#x2dd;" horiz-adv-x="430" d="M193 529 L331 683 L198 683 L93 529 L193 529 Z M351 529 L509 683 L375 683 L251 529 L351 529 Z " />
<glyph glyph-name="dotbelowcmb" unicode="&#x323;" d="M-318 -181 L-190 -214 L-149 -74 L-299 -72 L-318 -181 Z " />
<glyph glyph-name="uni0394" unicode="&#x394;" horiz-adv-x="588" d="M521 0 L540 110 L442 583 L277 583 L-2 108 L-20 0 L521 0 Z M320 420 L324 420 L374 127 L155 127 L320 420 Z " />
<glyph glyph-name="Sigma" unicode="&#x3a3;" horiz-adv-x="483" d="M0 0 L396 0 L418 129 L193 129 L331 296 L250 456 L468 456 L491 583 L104 583 L84 467 L169 295 L22 122 L0 0 Z " />
<glyph glyph-name="pi" unicode="&#x3c0;" horiz-adv-x="602" d="M508 334 L557 334 L578 456 L75 456 L54 334 L108 334 L50 0 L194 0 L253 334 L363 334 L318 77 C307 14 364 -7 423 -7 C461 -7 490 0 521 10 L538 110 C526 109 514 108 505 108 C482 108 474 114 474 132 C474 140 475 150 478 164 L508 334 Z " />
<glyph glyph-name="uni1E46" unicode="&#x1e46;" horiz-adv-x="647" d="M192 -181 L320 -214 L361 -74 L211 -72 L192 -181 Z M17 0 L156 0 L212 318 L217 318 L411 0 L541 0 L643 583 L504 583 L449 271 L444 271 L247 583 L120 583 L17 0 Z " />
<glyph glyph-name="uni1E47" unicode="&#x1e47;" horiz-adv-x="509" d="M145 0 L190 260 C235 298 280 319 306 329 L322 324 C327 302 324 263 316 220 L278 0 L418 0 L467 286 C473 319 475 347 475 371 C475 434 455 466 408 466 C347 466 279 427 208 367 L224 456 L86 456 L5 0 L145 0 Z M118 -181 L246 -214 L287 -74 L137 -72 L118 -181 Z " />
<glyph glyph-name="uni1E62" unicode="&#x1e62;" horiz-adv-x="482" d="M110 -181 L238 -214 L279 -74 L129 -72 L110 -181 Z M-1 25 C51 1 115 -12 174 -12 C314 -12 441 42 441 190 C441 277 378 318 318 346 C259 374 214 388 214 419 C214 455 261 472 312 472 C371 472 434 451 459 434 L484 556 C450 576 380 595 308 595 C176 595 60 523 60 386 C60 307 118 265 178 238 C238 211 292 198 292 164 C292 130 256 111 211 111 C149 111 70 127 25 152 L-1 25 Z " />
<glyph glyph-name="uni1E63" unicode="&#x1e63;" horiz-adv-x="390" d="M59 -181 L187 -214 L228 -74 L78 -72 L59 -181 Z M380 440 C337 458 281 466 240 466 C111 466 42 388 42 312 C42 263 71 219 122 185 C149 166 193 140 210 117 C212 114 214 112 215 109 C201 98 180 93 156 93 C111 93 51 110 10 129 L-10 20 C24 3 88 -8 145 -8 C190 -8 241 3 281 27 C320 50 348 86 348 135 C348 198 297 232 244 265 C220 280 179 307 166 334 C164 340 164 345 165 352 C184 359 205 363 227 363 C273 362 321 346 358 327 L380 440 Z " />
<glyph glyph-name="Wgrave" unicode="&#x1e80;" horiz-adv-x="897" d="M577 632 L512 779 L360 779 L462 632 L577 632 Z M948 583 L785 583 L629 212 L625 212 L597 583 L435 583 L255 211 L250 211 L251 583 L79 583 L90 0 L278 0 L442 341 L448 341 L478 0 L675 0 L948 583 Z " />
<glyph glyph-name="wgrave" unicode="&#x1e81;" horiz-adv-x="727" d="M616 456 L492 149 L482 149 C470 212 464 269 464 326 C464 367 468 408 474 456 L333 456 C327 427 324 395 324 363 L218 149 L208 149 C196 212 190 269 190 326 C190 367 194 408 200 456 L59 456 C52 418 49 377 49 335 C50 206 80 69 103 0 L240 0 L340 192 C353 113 373 43 388 0 L532 0 L756 456 L616 456 Z M457 529 L347 683 L213 683 L357 529 L457 529 Z " />
<glyph glyph-name="Wacute" unicode="&#x1e82;" horiz-adv-x="897" d="M568 627 L720 774 L568 774 L453 627 L568 627 Z M948 583 L785 583 L629 212 L625 212 L597 583 L435 583 L255 211 L250 211 L251 583 L79 583 L90 0 L278 0 L442 341 L448 341 L478 0 L675 0 L948 583 Z " />
<glyph glyph-name="wacute" unicode="&#x1e83;" horiz-adv-x="727" d="M616 456 L492 149 L482 149 C470 212 464 269 464 326 C464 367 468 408 474 456 L333 456 C327 427 324 395 324 363 L218 149 L208 149 C196 212 190 269 190 326 C190 367 194 408 200 456 L59 456 C52 418 49 377 49 335 C50 206 80 69 103 0 L240 0 L340 192 C353 113 373 43 388 0 L532 0 L756 456 L616 456 Z M452 529 L596 683 L462 683 L352 529 L452 529 Z " />
<glyph glyph-name="Wdieresis" unicode="&#x1e84;" horiz-adv-x="897" d="M341 665 L469 633 L510 771 L360 772 L341 665 Z M532 665 L660 633 L701 771 L551 772 L532 665 Z M948 583 L785 583 L629 212 L625 212 L597 583 L435 583 L255 211 L250 211 L251 583 L79 583 L90 0 L278 0 L442 341 L448 341 L478 0 L675 0 L948 583 Z " />
<glyph glyph-name="wdieresis" unicode="&#x1e85;" horiz-adv-x="727" d="M616 456 L492 149 L482 149 C470 212 464 269 464 326 C464 367 468 408 474 456 L333 456 C327 427 324 395 324 363 L218 149 L208 149 C196 212 190 269 190 326 C190 367 194 408 200 456 L59 456 C52 418 49 377 49 335 C50 206 80 69 103 0 L240 0 L340 192 C353 113 373 43 388 0 L532 0 L756 456 L616 456 Z M435 568 L563 536 L604 674 L454 675 L435 568 Z M244 568 L372 536 L413 674 L263 675 L244 568 Z " />
<glyph glyph-name="uni1EBC" unicode="&#x1ebc;" horiz-adv-x="486" d="M17 0 L410 0 L431 127 L197 127 L216 235 L401 235 L422 354 L237 354 L255 456 L484 456 L506 583 L119 583 L17 0 Z M481 749 C464 734 444 724 423 724 C383 724 342 751 299 751 C251 751 204 710 182 687 L209 630 C230 649 250 657 270 657 C312 657 349 628 397 628 C447 628 487 666 507 685 L481 749 Z " />
<glyph glyph-name="uni1EBD" unicode="&#x1ebd;" horiz-adv-x="441" d="M394 117 L353 192 C305 159 236 124 187 108 L173 113 C169 134 166 154 165 173 C254 206 370 252 425 296 L438 400 C391 442 302 466 240 466 C170 466 117 429 77 376 C39 326 17 232 17 141 C17 94 25 40 38 0 L158 -11 C238 17 334 70 394 117 L394 117 Z M422 667 C405 652 385 642 365 642 C325 642 285 670 241 670 C193 670 145 629 125 606 L150 535 C172 555 193 563 212 563 C254 563 290 533 339 533 C388 533 428 572 449 591 L422 667 Z M212 363 C218 364 226 364 233 363 C258 361 286 351 304 338 L304 315 C268 290 216 267 168 248 C174 292 189 331 212 363 L212 363 Z " />
<glyph glyph-name="Ygrave" unicode="&#x1ef2;" horiz-adv-x="569" d="M634 583 L466 583 L305 336 L302 336 L234 583 L51 583 L189 201 L154 0 L312 0 L347 196 L634 583 Z M440 632 L375 779 L223 779 L325 632 L440 632 Z " />
<glyph glyph-name="ygrave" unicode="&#x1ef3;" horiz-adv-x="472" d="M206 -207 L363 164 L500 456 L360 456 L224 137 L213 137 C197 206 190 265 190 324 C190 367 194 408 200 456 L60 456 C53 422 50 385 50 348 C49 215 78 71 103 0 L156 0 L59 -179 L68 -207 L206 -207 Z M350 529 L240 683 L106 683 L250 529 L350 529 Z " />
<glyph glyph-name="uni2004" unicode="&#x2004;" horiz-adv-x="333" d="" />
<glyph glyph-name="uni2007" unicode="&#x2007;" horiz-adv-x="500" d="" />
<glyph glyph-name="uni2009" unicode="&#x2009;" horiz-adv-x="160" d="" />
<glyph glyph-name="uni200A" unicode="&#x200a;" horiz-adv-x="80" d="" />
<glyph glyph-name="uni200B" unicode="&#x200b;" d="" />
<glyph glyph-name="uni2012" unicode="&#x2012;" horiz-adv-x="378" d="M388 204 L388 326 L-10 326 L-10 204 L388 204 Z " />
<glyph glyph-name="endash" unicode="&#x2013;" horiz-adv-x="427" d="M47 210 L365 210 L379 295 L61 295 L47 210 Z " />
<glyph glyph-name="emdash" unicode="&#x2014;" horiz-adv-x="823" d="M47 210 L761 210 L775 295 L61 295 L47 210 Z " />
<glyph glyph-name="quoteleft" unicode="&#x2018;" horiz-adv-x="237" d="M178 677 C141 625 115 557 97 496 C92 482 87 455 82 440 L205 431 L214 480 C229 538 246 588 276 639 L178 677 Z " />
<glyph glyph-name="quoteright" unicode="&#x2019;" horiz-adv-x="230" d="M177 441 C214 493 240 561 258 622 C263 636 268 663 273 678 L150 687 L141 638 C126 580 109 530 79 479 L177 441 Z " />
<glyph glyph-name="quotesinglbase" unicode="&#x201a;" horiz-adv-x="237" d="M61 -141 C99 -89 125 -20 143 41 C148 55 153 82 158 98 L35 107 C32 93 27 70 25 57 C10 -1 -7 -52 -37 -103 L61 -141 Z " />
<glyph glyph-name="quotedblleft" unicode="&#x201c;" horiz-adv-x="415" d="M178 677 C141 625 115 557 97 496 C92 482 87 455 82 440 L205 431 L214 480 C229 538 246 588 276 639 L178 677 Z M356 677 C319 625 293 557 275 496 C270 482 265 455 260 440 L383 431 L392 480 C407 538 424 588 454 639 L356 677 Z " />
<glyph glyph-name="quotedblright" unicode="&#x201d;" horiz-adv-x="411" d="M174 432 C211 484 237 552 255 613 C260 627 265 654 270 669 L147 678 L138 629 C123 571 106 521 76 470 L174 432 Z M355 432 C392 484 418 552 436 613 C441 627 446 654 451 669 L328 678 L319 629 C304 571 287 521 257 470 L355 432 Z " />
<glyph glyph-name="quotedblbase" unicode="&#x201e;" horiz-adv-x="417" d="M61 -141 C99 -89 125 -20 143 41 C148 55 153 82 158 98 L35 107 C32 93 27 70 25 57 C10 -1 -7 -52 -37 -103 L61 -141 Z M241 -141 C279 -89 305 -20 323 41 C328 55 333 82 338 98 L215 107 C212 93 207 70 205 57 C190 -1 173 -52 143 -103 L241 -141 Z " />
<glyph glyph-name="dagger" unicode="&#x2020;" horiz-adv-x="474" d="M45 357 L196 357 L133 0 L251 0 L314 357 L463 357 L483 465 L333 465 L366 653 L248 653 L215 465 L65 465 L45 357 Z " />
<glyph glyph-name="daggerdbl" unicode="&#x2021;" horiz-adv-x="501" d="M64 379 L214 379 L193 261 L43 261 L23 153 L174 153 L147 0 L265 0 L292 153 L441 153 L461 261 L311 261 L332 379 L482 379 L500 486 L350 486 L380 653 L262 653 L232 486 L82 486 L64 379 Z " />
<glyph glyph-name="bullet" unicode="&#x2022;" horiz-adv-x="396" d="M303 260 C308 274 311 288 311 302 C311 345 286 385 241 404 C229 408 217 410 205 410 C161 410 123 383 106 337 C100 323 98 308 98 294 C98 250 123 211 167 191 C179 187 191 186 202 186 C247 186 287 213 303 260 L303 260 Z " />
<glyph glyph-name="ellipsis" unicode="&#x2026;" horiz-adv-x="731" d="M9 -2 L139 -16 L183 132 L38 133 L9 -2 Z M246 -2 L376 -16 L420 132 L275 133 L246 -2 Z M484 -2 L614 -16 L658 132 L513 133 L484 -2 Z " />
<glyph glyph-name="perthousand" unicode="&#x2030;" horiz-adv-x="971" d="M769 -9 C848 -9 924 50 924 175 C924 251 876 294 811 294 C732 294 655 232 655 110 C655 34 705 -9 769 -9 L769 -9 Z M779 61 C753 61 742 87 742 119 C742 183 768 222 800 222 C825 222 837 198 837 165 C837 95 810 61 779 61 L779 61 Z M175 292 C254 292 330 350 330 475 C330 551 282 594 217 594 C138 594 61 534 61 409 C61 334 110 292 175 292 L175 292 Z M288 245 L123 20 L121 0 L216 0 L366 245 L288 245 Z M498 61 C472 61 461 87 461 119 C461 183 487 222 519 222 C544 222 556 198 556 165 C556 95 529 61 498 61 L498 61 Z M454 368 L599 563 L600 583 L506 583 L376 368 L454 368 Z M185 362 C160 362 148 387 148 420 C148 488 174 522 207 522 C231 522 243 498 243 465 C243 395 217 362 185 362 L185 362 Z M488 -9 C567 -9 643 50 643 175 C643 251 595 294 530 294 C451 294 374 232 374 110 C374 34 424 -9 488 -9 L488 -9 Z " />
<glyph glyph-name="guilsinglleft" unicode="&#x2039;" horiz-adv-x="288" d="M86 46 L210 46 L175 226 L273 405 L154 405 L29 226 L86 46 Z " />
<glyph glyph-name="guilsinglright" unicode="&#x203a;" horiz-adv-x="289" d="M192 408 L68 408 L103 228 L5 49 L124 49 L249 228 L192 408 Z " />
<glyph glyph-name="uni203D" unicode="&#x203d;" horiz-adv-x="369" d="M87 288 L138 176 L223 203 L206 295 L288 332 C334 353 372 381 377 422 C387 498 314 555 178 591 L129 500 C180 486 236 465 259 440 C238 425 210 412 183 396 L167 458 L57 407 L87 288 Z M56 -2 L185 -16 L230 132 L85 133 L56 -2 Z " />
<glyph glyph-name="fraction" unicode="&#x2044;" horiz-adv-x="188" d="M-105 0 L370 552 L370 558 L290 558 L-180 6 L-180 0 L-105 0 Z " />
<glyph glyph-name="zerosuperior" unicode="&#x2070;" horiz-adv-x="333" d="M373 604 C373 670 333 722 251 722 C137 722 81 645 69 552 C68 540 67 528 67 515 C67 448 109 396 190 396 C295 396 358 470 371 567 C372 579 373 591 373 604 L373 604 Z M205 465 C181 465 166 482 166 522 C166 531 167 542 168 551 C172 602 191 653 235 653 C260 653 273 641 273 592 C273 581 273 570 272 559 C268 513 252 465 205 465 L205 465 Z " />
<glyph glyph-name="i.superior" unicode="&#x2071;" horiz-adv-x="183" d="M168 400 L226 714 L120 714 L62 400 L168 400 Z M234 768 L263 864 L150 865 L137 790 L234 768 Z " />
<glyph glyph-name="foursuperior" unicode="&#x2074;" horiz-adv-x="307" d="M330 466 L342 539 L301 539 L334 717 L246 717 L53 530 L47 466 L187 466 L175 400 L277 400 L288 466 L330 466 Z M133 539 L216 620 L201 539 L133 539 Z " />
<glyph glyph-name="fivesuperior" unicode="&#x2075;" horiz-adv-x="282" d="M51 410 C66 403 109 396 145 396 C221 396 308 422 308 508 C308 573 269 596 214 606 C197 605 182 603 169 599 L180 642 L316 642 L328 715 L114 715 L80 547 L103 535 C123 542 146 547 175 552 C200 545 206 527 206 505 C206 481 187 469 154 469 C124 469 85 478 61 484 L51 410 Z " />
<glyph glyph-name="sixsuperior" unicode="&#x2076;" horiz-adv-x="304" d="M342 711 C319 718 285 722 261 722 C155 722 66 639 66 519 C66 434 130 396 189 396 C266 396 334 454 334 509 C334 562 305 597 269 611 C243 611 205 602 171 587 C174 599 179 610 185 618 C200 639 221 649 251 649 C274 649 300 644 329 636 L342 711 Z M216 550 C230 540 237 525 237 507 C237 487 228 466 198 457 C173 467 164 492 164 520 L164 530 C183 541 196 546 216 550 L216 550 Z " />
<glyph glyph-name="sevensuperior" unicode="&#x2077;" horiz-adv-x="256" d="M75 642 L212 642 L67 412 L72 400 L159 400 L331 683 L319 715 L83 715 L75 642 Z " />
<glyph glyph-name="eightsuperior" unicode="&#x2078;" horiz-adv-x="313" d="M356 649 C356 691 304 722 238 722 C157 722 90 675 90 628 C90 601 113 577 141 555 C97 536 55 508 55 470 C55 432 99 396 169 396 C253 396 337 434 337 488 C337 516 303 545 267 570 C313 589 356 616 356 649 L356 649 Z M240 478 C223 467 203 461 179 461 C160 461 143 468 128 481 C140 500 153 513 175 529 C203 510 230 492 240 478 L240 478 Z M183 635 C194 652 213 659 230 659 C248 659 264 654 275 637 C263 626 250 613 228 596 C206 611 188 624 183 635 L183 635 Z " />
<glyph glyph-name="ninesuperior" unicode="&#x2079;" horiz-adv-x="304" d="M66 392 C89 385 123 381 147 381 C253 381 342 464 342 584 C342 669 278 707 219 707 C142 707 74 649 74 594 C74 541 103 506 139 492 C165 492 203 500 237 515 C233 503 228 493 223 485 C208 464 187 454 157 454 C134 454 108 459 79 467 L66 392 Z M192 553 C178 563 171 578 171 596 C171 616 180 637 210 646 C235 636 244 611 244 583 L244 572 C224 561 211 557 192 553 L192 553 Z " />
<glyph glyph-name="plussuperior" unicode="&#x207a;" horiz-adv-x="321" d="M64 519 L170 519 L151 410 L224 410 L243 519 L351 519 L363 588 L255 588 L275 697 L202 697 L182 588 L76 588 L64 519 Z " />
<glyph glyph-name="minussuperior" unicode="&#x207b;" horiz-adv-x="346" d="M76 519 L362 519 L375 588 L88 588 L76 519 Z " />
<glyph glyph-name="equalsuperior" unicode="&#x207c;" horiz-adv-x="332" d="M65 455 L338 455 L349 520 L76 520 L65 455 Z M88 584 L360 584 L372 650 L99 650 L88 584 Z " />
<glyph glyph-name="parenleftsuperior" unicode="&#x207d;" horiz-adv-x="178" d="M193 312 C174 345 146 410 146 498 C146 684 237 805 286 862 L203 862 C153 806 62 674 62 499 C62 406 90 349 111 312 L193 312 Z " />
<glyph glyph-name="parenrightsuperior" unicode="&#x207e;" horiz-adv-x="176" d="M100 862 C119 829 147 764 147 676 C147 490 56 369 7 312 L90 312 C140 368 231 500 231 675 C231 768 203 825 183 862 L100 862 Z " />
<glyph glyph-name="n.superior" unicode="&#x207f;" horiz-adv-x="381" d="M169 400 L201 578 C234 604 266 618 285 624 L296 622 C300 606 297 580 292 551 L265 400 L370 400 L406 596 C409 616 411 634 411 649 C411 696 395 720 360 720 C316 720 266 693 215 651 L226 714 L121 714 L62 400 L169 400 Z " />
<glyph glyph-name="zeroinferior" unicode="&#x2080;" horiz-adv-x="334" d="M303 204 C303 270 263 322 181 322 C67 322 11 245 -1 152 C-2 140 -3 128 -3 115 C-3 48 39 -4 120 -4 C225 -4 288 70 301 167 C302 179 303 191 303 204 L303 204 Z M135 65 C111 65 96 82 96 122 C96 131 97 142 98 151 C102 202 121 253 165 253 C190 253 203 241 203 192 C203 181 203 170 202 159 C198 113 182 65 135 65 L135 65 Z " />
<glyph glyph-name="oneinferior" unicode="&#x2081;" horiz-adv-x="216" d="M131 0 L189 320 L121 320 L11 289 L-3 213 L73 227 L31 0 L131 0 Z " />
<glyph glyph-name="twoinferior" unicode="&#x2082;" horiz-adv-x="292" d="M232 0 L241 73 L108 73 C189 129 264 187 264 245 C264 295 207 322 142 322 C103 322 70 316 30 296 L20 216 C46 236 78 249 106 249 C131 249 150 241 164 223 C143 174 78 129 -16 56 L-25 0 L232 0 Z " />
<glyph glyph-name="threeinferior" unicode="&#x2083;" horiz-adv-x="284" d="M-26 10 C-11 3 32 -4 72 -4 C132 -4 240 21 240 104 C240 133 211 162 178 176 L178 179 C213 192 255 220 255 256 C255 296 200 322 146 322 C105 322 67 317 26 296 L24 224 C49 241 81 249 110 249 C136 249 147 241 156 230 C140 209 114 193 77 178 L72 144 C105 132 127 117 142 89 C131 74 108 69 81 69 C53 69 21 77 -4 85 L-26 10 Z " />
<glyph glyph-name="fourinferior" unicode="&#x2084;" horiz-adv-x="306" d="M259 66 L271 139 L230 139 L263 317 L175 317 L-18 130 L-24 66 L116 66 L104 0 L206 0 L217 66 L259 66 Z M62 139 L145 220 L130 139 L62 139 Z " />
<glyph glyph-name="fiveinferior" unicode="&#x2085;" horiz-adv-x="283" d="M-19 10 C-4 3 39 -4 75 -4 C151 -4 238 22 238 108 C238 173 199 196 144 206 C127 205 112 203 99 199 L110 242 L246 242 L258 315 L44 315 L10 147 L33 135 C53 142 76 147 105 152 C130 145 136 127 136 105 C136 81 117 69 84 69 C54 69 15 78 -9 84 L-19 10 Z " />
<glyph glyph-name="sixinferior" unicode="&#x2086;" horiz-adv-x="304" d="M272 311 C249 318 215 322 191 322 C85 322 -4 239 -4 119 C-4 34 60 -4 119 -4 C196 -4 264 54 264 109 C264 162 235 197 199 211 C173 211 135 202 101 187 C104 199 109 210 115 218 C130 239 151 249 181 249 C204 249 230 244 259 236 L272 311 Z M146 150 C160 140 167 125 167 107 C167 87 158 66 128 57 C103 67 94 92 94 120 L94 130 C113 141 126 146 146 150 L146 150 Z " />
<glyph glyph-name="seveninferior" unicode="&#x2087;" horiz-adv-x="256" d="M5 242 L142 242 L-3 12 L2 0 L89 0 L261 283 L249 315 L13 315 L5 242 Z " />
<glyph glyph-name="eightinferior" unicode="&#x2088;" horiz-adv-x="313" d="M286 249 C286 291 234 322 168 322 C87 322 20 275 20 228 C20 201 43 177 71 155 C27 136 -15 108 -15 70 C-15 32 29 -4 99 -4 C183 -4 267 34 267 88 C267 116 233 145 197 170 C243 189 286 216 286 249 L286 249 Z M170 78 C153 67 133 61 109 61 C90 61 73 68 58 81 C70 100 83 113 105 129 C133 110 160 92 170 78 L170 78 Z M113 235 C124 252 143 259 160 259 C178 259 194 254 205 237 C193 226 180 213 158 196 C136 211 118 224 113 235 L113 235 Z " />
<glyph glyph-name="nineinferior" unicode="&#x2089;" horiz-adv-x="304" d="M-2 6 C21 -1 55 -5 79 -5 C185 -5 274 78 274 198 C274 283 210 321 151 321 C74 321 6 263 6 208 C6 155 35 120 71 106 C97 106 135 114 169 129 C165 117 160 107 155 99 C140 78 119 68 89 68 C66 68 40 73 11 81 L-2 6 Z M124 167 C110 177 103 192 103 210 C103 230 112 251 142 260 C167 250 176 225 176 197 L176 186 C156 175 143 171 124 167 L124 167 Z " />
<glyph glyph-name="plus.inferior" unicode="&#x208a;" horiz-adv-x="321" d="M-7 119 L99 119 L80 10 L153 10 L172 119 L280 119 L292 188 L184 188 L204 297 L131 297 L111 188 L5 188 L-7 119 Z " />
<glyph glyph-name="minus.inferior" unicode="&#x208b;" horiz-adv-x="346" d="M6 119 L292 119 L305 188 L18 188 L6 119 Z " />
<glyph glyph-name="equal.inferior" unicode="&#x208c;" horiz-adv-x="333" d="M-5 55 L268 55 L279 120 L6 120 L-5 55 Z M18 184 L290 184 L302 250 L29 250 L18 184 Z " />
<glyph glyph-name="parenleft.inferior" unicode="&#x208d;" horiz-adv-x="177" d="M123 -88 C104 -55 76 10 76 98 C76 284 167 405 216 462 L133 462 C83 406 -8 274 -8 99 C-8 6 20 -51 41 -88 L123 -88 Z " />
<glyph glyph-name="parenright.inferior" unicode="&#x208e;" horiz-adv-x="176" d="M29 462 C48 429 76 364 76 276 C76 90 -15 -31 -64 -88 L19 -88 C69 -32 160 100 160 275 C160 368 132 425 112 462 L29 462 Z " />
<glyph glyph-name="a.inferior" unicode="&#x2090;" horiz-adv-x="374" d="M289 0 L346 315 L241 315 L239 304 C218 313 197 320 183 320 C127 320 73 291 47 259 C17 222 -2 144 -2 76 C-2 48 2 23 8 0 L100 0 L197 77 L183 0 L289 0 Z M113 90 C111 102 111 114 111 125 C110 174 122 219 144 250 C169 250 195 244 225 229 L210 149 L124 87 L113 90 Z " />
<glyph glyph-name="e.inferior" unicode="&#x2091;" horiz-adv-x="330" d="M280 80 L247 134 C212 111 162 87 127 76 L117 79 C114 92 112 105 111 118 C177 141 264 173 304 203 L314 274 C279 304 216 320 172 320 C143 320 116 313 94 301 C73 290 55 276 42 259 C15 224 -1 159 -1 97 C-1 65 4 28 14 0 L106 -7 C164 12 237 48 280 80 L280 80 Z M145 248 C165 250 194 243 212 231 L212 217 C185 199 147 184 113 171 C117 200 128 226 145 248 L145 248 Z " />
<glyph glyph-name="o.inferior" unicode="&#x2092;" horiz-adv-x="348" d="M149 60 C131 61 121 65 111 70 C107 83 103 97 103 112 C103 163 120 219 155 253 C177 251 191 247 203 243 C208 228 211 210 211 196 C211 143 189 97 149 60 L149 60 Z M99 -6 C158 -5 216 15 254 51 C295 90 319 147 320 206 C320 287 280 320 212 320 C147 319 81 294 42 249 C8 209 -6 154 -6 100 C-6 31 31 -6 99 -6 L99 -6 Z " />
<glyph glyph-name="x.inferior" unicode="&#x2093;" horiz-adv-x="338" d="M238 314 L170 228 L134 314 L19 314 L93 152 L-47 0 L68 0 L131 84 L163 0 L282 0 L209 160 L353 314 L238 314 Z " />
<glyph glyph-name="h.inferior" unicode="&#x2095;" horiz-adv-x="381" d="M99 0 L131 178 C163 204 196 218 215 224 L225 222 C230 206 226 180 222 151 L194 0 L300 0 L336 196 C339 216 341 234 341 249 C341 296 325 320 289 320 C245 320 196 293 145 252 L187 483 L83 483 L-8 0 L99 0 Z " />
<glyph glyph-name="k.inferior" unicode="&#x2096;" horiz-adv-x="373" d="M98 0 L130 174 C166 205 198 223 222 233 L231 230 C226 194 205 170 175 141 L170 117 L200 0 L318 0 L273 133 C317 170 345 224 346 280 C346 289 345 302 344 312 L247 320 C222 311 183 288 146 260 L187 483 L82 483 L-8 0 L98 0 Z " />
<glyph glyph-name="l.inferior" unicode="&#x2097;" horiz-adv-x="188" d="M99 0 L188 483 L87 483 L-4 0 L99 0 Z " />
<glyph glyph-name="m.inferior" unicode="&#x2098;" horiz-adv-x="566" d="M379 0 L485 0 L521 196 C524 214 526 230 526 244 C526 291 509 320 472 320 C426 320 382 292 332 248 C331 292 314 320 280 320 C236 320 192 294 145 253 L156 314 L51 314 L-8 0 L99 0 L131 178 C161 203 186 218 206 224 L216 222 C220 205 218 180 213 151 L186 0 L292 0 L323 177 C354 203 380 218 398 224 L409 222 C413 205 412 180 406 151 L379 0 Z " />
<glyph glyph-name="n.inferior" unicode="&#x2099;" horiz-adv-x="382" d="M99 0 L131 178 C164 204 196 218 215 224 L226 222 C230 206 227 180 222 151 L195 0 L300 0 L336 196 C339 216 341 234 341 249 C341 296 325 320 290 320 C246 320 196 293 145 251 L156 314 L51 314 L-8 0 L99 0 Z " />
<glyph glyph-name="p.inferior" unicode="&#x209a;" horiz-adv-x="385" d="M92 -142 L117 -4 C131 -6 144 -7 158 -7 C274 -7 356 93 356 204 C356 262 339 320 282 320 C250 320 211 311 171 298 L174 314 L69 314 L57 253 C32 241 12 229 0 222 L20 162 L43 174 L-15 -142 L92 -142 Z M222 233 L234 231 C241 218 246 201 246 178 C246 122 219 67 182 67 C166 67 149 70 131 75 L157 217 C177 223 199 228 222 233 L222 233 Z " />
<glyph glyph-name="s.inferior" unicode="&#x209b;" horiz-adv-x="292" d="M269 303 C238 314 195 320 165 320 C77 320 17 272 17 214 C17 180 41 150 78 126 C109 107 127 96 136 84 C139 82 140 80 141 77 C132 71 122 69 107 69 C63 69 14 80 -9 91 L-20 13 C5 2 54 -6 96 -6 C129 -6 166 0 196 15 C226 30 247 55 247 92 C247 136 207 158 167 182 C144 196 118 213 118 229 C118 232 119 235 120 239 C133 244 148 245 163 244 C193 243 227 236 253 224 L269 303 Z " />
<glyph glyph-name="t.inferior" unicode="&#x209c;" horiz-adv-x="289" d="M12 243 L55 243 L12 17 L88 -6 C157 9 204 33 248 58 L220 125 C196 112 174 99 143 89 L136 94 L161 243 L259 243 L271 314 L173 314 L187 398 L85 398 L69 314 L25 314 L12 243 Z " />
<glyph glyph-name="colonsign" unicode="&#x20a1;" horiz-adv-x="633" d="M167 -92 L255 -92 L300 -12 C372 -11 453 8 488 29 L512 166 C458 135 418 123 375 120 L680 655 L593 655 L540 563 L511 572 L559 655 L472 655 L431 583 C424 584 417 584 409 584 C189 584 45 436 45 229 C45 146 74 84 124 43 L47 -92 L134 -92 L189 6 C198 2 208 0 218 -2 L167 -92 Z M210 249 C210 383 282 436 354 448 L215 203 C211 217 210 232 210 249 L210 249 Z M263 136 L441 448 C451 446 461 444 471 441 L291 125 C280 127 271 131 263 136 L263 136 Z " />
<glyph glyph-name="cruzeiro" unicode="&#x20a2;" horiz-adv-x="572" d="M545 332 C533 346 514 357 490 357 C471 357 437 329 402 290 L412 349 L288 349 L250 135 C222 157 209 193 209 241 C209 387 290 459 388 459 C443 459 494 449 542 414 L566 552 C530 569 481 584 406 584 C189 584 40 432 40 233 C40 65 151 -12 290 -12 C362 -12 438 7 474 27 L496 157 C445 129 410 117 371 113 L385 193 C412 212 435 224 455 232 L501 209 L545 332 Z " />
<glyph glyph-name="franc" unicode="&#x20a3;" horiz-adv-x="660" d="M27 0 L185 0 L225 230 L326 230 L286 0 L426 0 L451 148 C487 176 507 193 536 204 L592 176 L646 331 C632 348 609 360 580 360 C554 360 514 317 470 260 L486 350 L247 350 L264 448 L499 448 L521 576 L128 576 L27 0 Z " />
<glyph glyph-name="lira" unicode="&#x20a4;" horiz-adv-x="470" d="M318 584 C224 584 109 541 103 386 C102 382 102 378 102 374 L70 374 L55 290 L102 290 L102 257 L50 257 L35 172 L100 172 C98 149 93 131 84 114 L30 114 L11 0 L392 0 L412 114 L205 114 C214 133 221 152 225 172 L342 172 L357 257 L230 257 C230 268 230 279 229 290 L362 290 L378 374 L225 374 C225 380 225 386 226 392 C229 439 252 466 307 466 C353 466 389 451 427 420 L450 551 C418 571 377 584 318 584 L318 584 Z " />
<glyph glyph-name="mill" unicode="&#x20a5;" horiz-adv-x="749" d="M404 0 L438 200 L479 286 C508 308 533 321 552 328 L567 324 C573 302 569 263 562 220 L524 0 L664 0 L713 286 C718 315 720 341 720 364 C720 427 701 466 653 466 C618 466 583 454 547 431 L615 574 L503 574 L441 443 C430 458 414 466 393 466 C333 466 273 429 208 370 L223 456 L85 456 L4 0 L144 0 L189 261 C231 298 268 319 293 328 L307 324 C313 302 309 263 302 220 L282 107 L175 -120 L287 -120 L343 0 L404 0 Z " />
<glyph glyph-name="naira" unicode="&#x20a6;" horiz-adv-x="724" d="M55 0 L194 0 L225 180 L341 180 L444 0 L575 0 L606 180 L671 180 L688 271 L622 271 L633 335 L692 335 L709 426 L649 426 L675 573 L535 573 L509 426 L378 426 L283 573 L155 573 L129 426 L72 426 L55 335 L113 335 L102 271 L50 271 L34 180 L86 180 L55 0 Z M479 272 L438 335 L493 335 L482 272 L479 272 Z M251 331 L255 331 L289 271 L240 271 L251 331 Z " />
<glyph glyph-name="pesetas" unicode="&#x20a7;" horiz-adv-x="1281" d="M24 0 L182 0 L212 172 L257 172 C436 172 541 276 541 405 C541 513 468 583 353 583 L126 583 L24 0 Z M548 354 L613 354 L554 25 L652 -8 C747 12 812 48 872 84 L834 180 C801 161 770 141 728 128 L718 135 L753 354 L887 354 L905 456 L769 456 L789 579 L654 579 L632 456 L565 456 L548 354 Z M1256 440 C1213 458 1157 466 1116 466 C987 466 918 388 918 312 C918 263 947 219 998 185 C1025 166 1069 140 1086 117 C1088 114 1090 112 1091 109 C1077 98 1056 93 1032 93 C987 93 927 110 886 129 L866 20 C900 3 964 -8 1021 -8 C1066 -8 1117 3 1157 27 C1196 50 1224 86 1224 135 C1224 198 1173 232 1120 265 C1096 280 1055 307 1042 334 C1040 340 1040 345 1041 352 C1060 359 1081 363 1103 363 C1149 362 1197 346 1234 327 L1256 440 Z M271 463 C342 463 375 442 375 389 C375 313 316 292 236 292 L233 292 L263 463 L271 463 Z " />
<glyph glyph-name="rupee" unicode="&#x20a8;" horiz-adv-x="902" d="M25 0 L183 0 L214 178 L257 178 C266 178 274 178 283 179 L290 163 C322 75 396 -8 616 -8 C661 -8 718 0 765 23 C810 45 845 80 845 135 C845 198 794 232 741 265 C709 285 672 309 671 333 C671 337 672 342 674 348 C692 354 713 357 734 356 C776 356 818 346 855 327 L876 440 C834 458 778 466 737 466 C617 466 538 397 538 312 C538 263 568 219 619 185 C661 156 686 141 699 125 C703 121 705 116 706 112 C691 97 653 92 616 92 C542 92 469 130 432 188 L417 214 C497 257 537 331 537 405 C537 507 470 575 364 575 L127 575 L25 0 Z M269 460 C342 460 371 439 371 393 C371 313 317 294 238 294 L235 294 L264 460 L269 460 Z " />
<glyph glyph-name="won" unicode="&#x20a9;" horiz-adv-x="963" d="M977 573 L816 573 L763 443 L640 443 L633 573 L471 573 L409 443 L289 443 L292 573 L121 573 L123 443 L71 443 L55 359 L124 359 L124 322 L50 322 L33 237 L125 237 L129 0 L315 0 L436 237 L484 237 L511 0 L707 0 L818 237 L917 237 L933 322 L858 322 L876 359 L938 359 L954 443 L915 443 L977 573 Z M644 359 L728 359 L713 322 L646 322 L644 359 Z M287 359 L370 359 L352 322 L287 322 L287 359 Z M284 187 L285 237 L312 237 L289 187 L284 187 Z M654 187 L651 237 L678 237 L658 187 L654 187 Z " />
<glyph glyph-name="sheqel" unicode="&#x20aa;" horiz-adv-x="677" d="M24 0 L99 0 L172 410 L291 410 C382 410 406 395 406 352 C406 332 401 305 395 271 L394 265 L470 265 L475 291 C486 351 493 400 493 439 C493 536 447 573 293 573 L125 573 L24 0 Z M180 0 L311 0 C541 0 587 98 624 308 L670 573 L595 573 L551 323 C530 204 515 164 357 164 L284 164 L309 309 L234 309 L180 0 Z " />
<glyph glyph-name="dong" unicode="&#x20ab;" horiz-adv-x="482" d="M204 566 L336 566 L324 499 C300 510 277 518 259 518 C191 518 133 483 101 444 C65 400 41 307 41 224 C41 192 45 160 53 133 L157 133 L273 226 L256 133 L376 133 L455 566 L495 566 L504 638 L469 638 L479 693 L360 693 L350 638 L213 638 L204 566 Z M9 0 L381 0 L398 98 L26 98 L9 0 Z M171 239 C169 253 168 266 168 280 C167 340 183 401 212 439 C243 442 273 431 307 411 L289 310 L184 235 L171 239 Z " />
<glyph glyph-name="Euro" unicode="&#x20ac;" horiz-adv-x="611" d="M46 317 L94 317 C90 300 88 283 86 265 L40 265 L25 189 L87 189 C104 49 211 -12 342 -12 C409 -12 482 5 525 27 L547 157 C482 123 437 112 380 112 C316 112 277 140 261 189 L413 189 L429 265 L254 265 C255 284 258 301 262 317 L435 317 L450 394 L299 394 C333 438 382 459 429 459 C484 459 536 449 583 414 L607 552 C571 569 522 584 447 584 C293 584 174 513 119 394 L61 394 L46 317 Z " />
<glyph glyph-name="uni20AD" unicode="&#x20ad;" horiz-adv-x="625" d="M364 0 L546 0 L439 239 L538 239 L557 344 L418 344 L643 573 L487 573 L279 344 L258 344 L298 573 L140 573 L100 344 L57 344 L38 239 L81 239 L40 0 L198 0 L239 239 L263 239 L364 0 Z " />
<glyph glyph-name="uni20AE" unicode="&#x20ae;" horiz-adv-x="566" d="M64 445 L236 445 L213 314 L122 277 L105 179 L196 216 L190 182 L99 145 L82 47 L173 84 L158 0 L316 0 L343 155 L421 187 L439 285 L360 252 L366 287 L444 319 L462 417 L383 384 L393 445 L569 445 L592 573 L87 573 L64 445 Z " />
<glyph glyph-name="uni20B1" unicode="&#x20b1;" horiz-adv-x="615" d="M67 378 L110 378 L105 353 L64 353 L53 298 L96 298 L44 0 L202 0 L230 160 L274 160 C404 160 492 220 532 298 L589 298 L599 353 L552 353 C554 361 555 369 556 378 L603 378 L613 433 L554 433 C541 515 475 572 380 572 L144 572 L119 433 L78 433 L67 378 Z M387 353 L263 353 L268 378 L390 378 L387 353 Z M287 451 C322 451 349 445 366 433 L277 433 L280 451 L287 451 Z M255 281 L251 281 L254 298 L346 298 C322 285 291 281 255 281 L255 281 Z " />
<glyph glyph-name="uni20B4" unicode="&#x20b4;" horiz-adv-x="577" d="M560 385 L529 385 C537 403 541 423 541 445 C541 560 462 595 342 595 C265 595 189 576 146 556 L133 436 C165 453 236 472 299 472 C347 472 385 460 385 431 C385 411 373 397 352 385 L61 385 L49 314 L180 314 C158 303 139 291 122 278 L43 278 L30 207 L64 207 C54 185 49 161 49 133 C49 11 137 -12 274 -12 C338 -12 403 1 467 25 L482 151 C427 126 338 111 273 111 C230 111 205 124 205 149 C205 173 219 191 247 207 L529 207 L541 278 L425 278 C444 289 462 300 477 314 L547 314 L560 385 Z " />
<glyph glyph-name="uni20B9" unicode="&#x20b9;" horiz-adv-x="537" d="M427 0 L327 211 C379 239 416 281 433 329 L481 329 L519 421 L441 421 C437 440 429 457 417 472 L523 472 L570 583 L103 583 L83 472 L184 472 C238 470 264 451 275 421 L76 421 L60 329 L267 329 C245 295 200 278 140 278 L51 278 L32 172 L183 172 L244 0 L427 0 Z " />
<glyph glyph-name="uni2113" unicode="&#x2113;" horiz-adv-x="480" d="M218 -8 C280 -8 332 13 373 47 L367 146 C346 132 315 117 285 117 C251 117 237 125 237 157 C237 168 238 181 241 198 L248 242 L315 274 C433 334 498 380 498 473 C498 553 425 595 344 595 C229 595 140 521 118 402 L92 256 C85 251 18 220 9 214 L21 146 C27 149 72 169 78 173 C78 173 71 129 71 114 C71 34 131 -8 218 -8 L218 -8 Z M264 327 L281 430 C286 459 301 475 317 475 C336 475 343 458 343 442 C343 401 324 373 286 343 C279 338 272 332 264 327 L264 327 Z " />
<glyph glyph-name="uni2116" unicode="&#x2116;" horiz-adv-x="1017" d="M621 141 L950 141 L963 218 L635 218 L621 141 Z M805 254 C932 254 1008 330 1008 455 C1008 535 957 583 866 583 C740 583 661 503 661 380 C661 307 715 254 805 254 L805 254 Z M820 343 C796 343 787 362 787 388 C787 440 807 490 847 490 C870 490 881 472 881 446 C881 395 860 343 820 343 L820 343 Z M24 0 L163 0 L222 340 L223 340 L432 0 L547 0 L649 583 L510 583 L455 271 L454 271 L253 583 L126 583 L24 0 Z " />
<glyph glyph-name="uni2117" unicode="&#x2117;" horiz-adv-x="688" d="M350 -14 C517 -14 653 110 653 289 C653 467 517 592 350 592 C183 592 47 467 47 289 C47 109 183 -14 350 -14 L350 -14 Z M350 30 C200 30 91 139 91 289 C91 439 200 548 350 548 C500 548 609 439 609 289 C609 139 500 30 350 30 L350 30 Z M221 112 L339 112 L339 202 L366 202 C477 202 532 262 532 331 C532 407 475 453 391 453 L221 453 L221 112 Z M408 330 C408 294 388 284 339 284 L339 371 C384 370 408 361 408 330 L408 330 Z " />
<glyph glyph-name="servicemark" unicode="&#x2120;" horiz-adv-x="744" d="M299 281 L391 281 L435 444 L439 444 L457 281 L534 281 L606 437 L610 437 L603 281 L704 281 L714 583 L610 583 L539 443 L535 443 L515 583 L390 583 L299 281 Z M63 292 C91 279 122 272 153 272 C229 272 302 302 302 381 C302 470 185 470 185 494 C186 507 206 513 229 513 C259 513 299 501 310 493 L323 567 C306 577 270 588 230 588 C157 588 90 552 90 478 C90 398 209 391 209 364 C209 353 198 348 178 348 C144 348 97 357 76 370 L63 292 Z " />
<glyph glyph-name="trademark" unicode="&#x2122;" horiz-adv-x="781" d="M335 281 L427 281 L472 444 L475 444 L493 281 L570 281 L642 437 L646 437 L639 281 L740 281 L750 583 L646 583 L575 443 L571 443 L551 583 L426 583 L335 281 Z M96 506 L183 506 L143 281 L243 281 L282 506 L371 506 L385 583 L110 583 L96 506 Z " />
<glyph glyph-name="Omega" unicode="&#x2126;" horiz-adv-x="680" d="M398 595 C193 595 59 465 59 297 C59 222 94 154 154 129 L153 127 L25 127 L4 0 L260 0 L282 123 C245 157 219 196 219 257 C219 359 272 471 376 471 C450 471 479 419 479 352 C479 259 429 167 359 123 L338 0 L588 0 L609 127 L471 127 L472 129 C574 168 652 259 652 380 C652 499 564 595 398 595 L398 595 Z " />
<glyph glyph-name="estimated" unicode="&#x212e;" horiz-adv-x="613" d="M320 -8 C404 -8 496 19 552 86 L515 134 C465 83 393 62 319 62 C249 62 205 101 205 166 L205 198 L570 198 L570 261 C569 392 467 465 307 465 C136 465 34 357 34 217 C34 38 180 -8 320 -8 L320 -8 Z M205 268 L205 285 C205 358 232 406 306 406 C370 406 392 361 392 285 L392 268 L205 268 Z " />
<glyph glyph-name="onethird" unicode="&#x2153;" horiz-adv-x="689" d="M202 270 L260 590 L192 590 L82 559 L68 483 L144 497 L102 270 L202 270 Z M364 10 C379 3 422 -4 462 -4 C522 -4 630 21 630 104 C630 133 601 162 568 176 L568 179 C603 192 645 220 645 256 C645 296 590 322 536 322 C495 322 457 317 416 296 L414 224 C439 241 471 249 500 249 C526 249 537 241 546 230 C530 209 504 193 467 178 L462 144 C495 132 517 117 532 89 C521 74 498 69 471 69 C443 69 411 77 386 85 L364 10 Z M114 0 L589 552 L589 558 L509 558 L39 6 L39 0 L114 0 Z " />
<glyph glyph-name="twothirds" unicode="&#x2154;" horiz-adv-x="732" d="M299 279 L308 352 L175 352 C256 408 331 466 331 524 C331 574 274 601 209 601 C170 601 137 595 97 575 L87 495 C113 515 145 528 173 528 C198 528 217 520 231 502 C210 453 145 408 51 335 L42 279 L299 279 Z M407 10 C422 3 465 -4 505 -4 C565 -4 673 21 673 104 C673 133 644 162 611 176 L611 179 C646 192 688 220 688 256 C688 296 633 322 579 322 C538 322 500 317 459 296 L457 224 C482 241 514 249 543 249 C569 249 580 241 589 230 C573 209 547 193 510 178 L505 144 C538 132 560 117 575 89 C564 74 541 69 514 69 C486 69 454 77 429 85 L407 10 Z M176 0 L651 552 L651 558 L571 558 L101 6 L101 0 L176 0 Z " />
<glyph glyph-name="uni215B" unicode="&#x215b;" horiz-adv-x="701" d="M659 249 C659 291 607 322 541 322 C460 322 393 275 393 228 C393 201 416 177 444 155 C400 136 358 108 358 70 C358 32 402 -4 472 -4 C556 -4 640 34 640 88 C640 116 606 145 570 170 C616 189 659 216 659 249 L659 249 Z M117 0 L592 552 L592 558 L512 558 L42 6 L42 0 L117 0 Z M202 270 L260 590 L192 590 L82 559 L68 483 L144 497 L102 270 L202 270 Z M543 78 C526 67 506 61 482 61 C463 61 446 68 431 81 C443 100 456 113 478 129 C506 110 533 92 543 78 L543 78 Z M486 235 C497 252 516 259 533 259 C551 259 567 254 578 237 C566 226 553 213 531 196 C509 211 491 224 486 235 L486 235 Z " />
<glyph glyph-name="arrowleft" unicode="&#x2190;" horiz-adv-x="568" d="M269 92 L200 204 L568 204 L568 326 L201 326 L269 440 L150 440 L30 265 L150 92 L269 92 Z " />
<glyph glyph-name="arrowup" unicode="&#x2191;" horiz-adv-x="540" d="M442 453 L269 573 L94 453 L94 334 L208 402 L208 35 L330 35 L330 403 L442 334 L442 453 Z " />
<glyph glyph-name="arrowright" unicode="&#x2192;" horiz-adv-x="567" d="M418 92 L538 265 L418 440 L299 440 L367 326 L0 326 L0 204 L368 204 L299 92 L418 92 Z " />
<glyph glyph-name="arrowdown" unicode="&#x2193;" horiz-adv-x="540" d="M94 154 L268 35 L442 155 L442 274 L329 206 L329 573 L206 573 L206 205 L94 274 L94 154 Z " />
<glyph glyph-name="uni2196" unicode="&#x2196;" horiz-adv-x="540" d="M282 534 L76 497 L36 288 L120 203 L153 332 L412 72 L499 159 L239 419 L366 449 L282 534 Z " />
<glyph glyph-name="uni2197" unicode="&#x2197;" horiz-adv-x="540" d="M495 286 L458 494 L249 532 L165 448 L294 416 L33 156 L120 70 L380 330 L411 202 L495 286 Z " />
<glyph glyph-name="uni2198" unicode="&#x2198;" horiz-adv-x="540" d="M251 75 L458 113 L497 321 L412 406 L381 277 L121 537 L34 451 L294 190 L166 160 L251 75 Z " />
<glyph glyph-name="uni2199" unicode="&#x2199;" horiz-adv-x="540" d="M41 321 L78 114 L287 75 L371 160 L243 192 L503 452 L416 538 L156 278 L125 406 L41 321 Z " />
<glyph glyph-name="partialdiff" unicode="&#x2202;" horiz-adv-x="504" d="M181 -8 C271 -8 326 23 378 76 C443 141 472 233 472 326 C472 484 402 600 267 679 L184 582 C238 540 273 503 295 464 L283 464 C228 464 180 447 141 420 C61 363 20 258 20 154 C20 48 87 -8 181 -8 L181 -8 Z M328 304 C328 213 293 144 234 88 C209 88 188 95 174 102 C168 120 164 140 164 162 C164 235 193 320 241 367 C246 367 260 366 267 365 C286 362 308 359 326 355 C327 339 328 322 328 304 L328 304 Z " />
<glyph glyph-name="Delta" unicode="&#x2206;" horiz-adv-x="610" d="M533 0 L552 110 L454 583 L289 583 L10 108 L-8 0 L533 0 Z M332 420 L336 420 L386 127 L167 127 L332 420 Z " />
<glyph glyph-name="product" unicode="&#x220f;" horiz-adv-x="713" d="M175 -207 L292 456 L492 456 L376 -207 L534 -207 L651 456 L717 456 L739 583 L92 583 L69 456 L134 456 L18 -207 L175 -207 Z " />
<glyph glyph-name="summation" unicode="&#x2211;" horiz-adv-x="470" d="M-44 -207 L355 -207 L378 -78 L145 -78 L345 198 L241 456 L460 456 L483 583 L96 583 L76 467 L188 197 L-23 -85 L-44 -207 Z " />
<glyph glyph-name="minus" unicode="&#x2212;" horiz-adv-x="505" d="M54 251 L449 251 L465 341 L70 341 L54 251 Z " />
<glyph glyph-name="radical" unicode="&#x221a;" horiz-adv-x="540" d="M48 450 L125 0 L282 0 L604 662 L460 662 L238 167 L234 167 L190 450 L48 450 Z " />
<glyph glyph-name="infinity" unicode="&#x221e;" horiz-adv-x="784" d="M252 504 C138 504 44 390 44 244 C44 154 88 80 177 80 C258 80 327 144 384 213 C418 146 466 80 545 80 C664 80 753 196 753 334 C753 426 704 504 620 504 C540 504 469 438 412 371 C379 438 333 504 252 504 L252 504 Z M194 173 C161 173 144 211 144 258 C144 331 185 411 236 411 C285 411 322 346 348 293 C303 240 243 173 194 173 L194 173 Z M562 173 C511 173 475 240 450 293 C493 346 553 411 604 411 C636 411 654 373 654 328 C654 252 611 173 562 173 L562 173 Z " />
<glyph glyph-name="integral" unicode="&#x222b;" horiz-adv-x="387" d="M87 0 C75 -69 52 -101 -4 -101 C-18 -101 -31 -99 -46 -96 L-66 -207 C-52 -211 -16 -213 7 -213 C109 -213 187 -156 207 -43 L292 436 C305 508 318 540 380 540 C393 540 405 539 420 536 L441 654 C427 658 390 660 367 660 C266 660 194 603 174 490 L87 0 Z " />
<glyph glyph-name="approxequal" unicode="&#x2248;" horiz-adv-x="486" d="M323 283 C382 283 428 320 455 350 L424 428 C397 406 359 401 344 401 C288 402 257 431 194 431 C139 431 88 392 62 357 L91 286 C119 307 154 315 176 315 C230 315 265 283 323 283 L323 283 Z M294 98 C353 98 399 135 426 165 L395 243 C368 221 330 216 315 216 C259 217 228 246 165 246 C110 246 59 207 33 172 L62 101 C90 122 125 130 147 130 C201 130 236 98 294 98 L294 98 Z " />
<glyph glyph-name="notequal" unicode="&#x2260;" horiz-adv-x="453" d="M65 347 L232 347 L162 245 L48 245 L32 159 L102 159 L12 28 L90 28 L181 159 L387 159 L403 245 L241 245 L312 347 L420 347 L436 432 L371 432 L464 566 L384 566 L291 432 L81 432 L65 347 Z " />
<glyph glyph-name="lessequal" unicode="&#x2264;" horiz-adv-x="487" d="M3 11 L400 11 L415 102 L19 102 L3 11 Z M402 124 L419 220 L173 330 L457 439 L474 533 L68 363 L56 293 L402 124 Z " />
<glyph glyph-name="greaterequal" unicode="&#x2265;" horiz-adv-x="486" d="M414 102 L17 102 L2 11 L398 11 L414 102 Z M446 293 L458 363 L111 533 L95 439 L341 330 L56 220 L39 124 L446 293 Z " />
<glyph glyph-name="uni2460" unicode="&#x2460;" horiz-adv-x="691" d="M345 0 C506 0 637 130 637 291 C637 452 506 583 345 583 C184 583 54 452 54 291 C54 130 184 0 345 0 L345 0 Z M345 36 C206 36 94 152 94 291 C94 430 206 547 345 547 C484 547 597 430 597 291 C597 152 484 36 345 36 L345 36 Z M412 140 L412 457 L340 457 L220 425 L220 353 L290 362 L290 140 L412 140 Z " />
<glyph glyph-name="uni2461" unicode="&#x2461;" horiz-adv-x="691" d="M345 0 C506 0 637 130 637 291 C637 452 506 583 345 583 C184 583 54 452 54 291 C54 130 184 0 345 0 L345 0 Z M345 36 C206 36 94 152 94 291 C94 430 206 547 345 547 C484 547 597 430 597 291 C597 152 484 36 345 36 L345 36 Z M220 141 L475 141 L475 226 L369 226 L369 230 C440 276 473 320 473 368 C473 436 409 462 342 462 C300 462 252 453 220 429 L220 352 C258 374 294 383 319 383 C346 383 362 371 362 349 C362 301 299 262 220 206 L220 141 Z " />
<glyph glyph-name="uni2462" unicode="&#x2462;" horiz-adv-x="691" d="M345 0 C506 0 637 130 637 291 C637 452 506 583 345 583 C184 583 54 452 54 291 C54 130 184 0 345 0 L345 0 Z M345 36 C206 36 94 152 94 291 C94 430 206 547 345 547 C484 547 597 430 597 291 C597 152 484 36 345 36 L345 36 Z M331 136 C411 136 475 170 475 238 C475 266 463 310 401 317 L401 320 C448 330 464 354 464 384 C464 437 405 462 339 462 C290 462 254 450 230 433 L230 357 C263 372 291 377 313 377 C340 377 356 369 356 352 C356 331 334 325 278 321 L278 269 C350 267 369 261 369 241 C369 226 356 214 316 214 C291 214 263 218 227 234 L227 154 C251 145 289 136 331 136 L331 136 Z " />
<glyph glyph-name="uni2463" unicode="&#x2463;" horiz-adv-x="691" d="M345 0 C506 0 637 130 637 291 C637 452 506 583 345 583 C184 583 54 452 54 291 C54 130 184 0 345 0 L345 0 Z M345 36 C206 36 94 152 94 291 C94 430 206 547 345 547 C484 547 597 430 597 291 C597 152 484 36 345 36 L345 36 Z M317 141 L435 141 L435 199 L478 199 L478 271 L435 271 L435 457 L324 457 L171 266 L171 199 L317 199 L317 141 Z M250 271 L317 360 L317 271 L250 271 Z " />
<glyph glyph-name="uni2464" unicode="&#x2464;" horiz-adv-x="691" d="M345 0 C506 0 637 130 637 291 C637 452 506 583 345 583 C184 583 54 452 54 291 C54 130 184 0 345 0 L345 0 Z M345 36 C206 36 94 152 94 291 C94 430 206 547 345 547 C484 547 597 430 597 291 C597 152 484 36 345 36 L345 36 Z M316 136 C380 136 467 157 467 242 C467 312 410 342 331 342 L309 342 L312 378 L463 378 L463 457 L239 457 L222 268 C239 271 265 273 289 273 C334 273 359 265 359 244 C359 224 341 213 309 213 C284 213 252 216 217 232 L217 154 C248 142 281 136 316 136 L316 136 Z " />
<glyph glyph-name="uni2465" unicode="&#x2465;" horiz-adv-x="691" d="M345 0 C506 0 637 130 637 291 C637 452 506 583 345 583 C184 583 54 452 54 291 C54 130 184 0 345 0 L345 0 Z M345 36 C206 36 94 152 94 291 C94 430 206 547 345 547 C484 547 597 430 597 291 C597 152 484 36 345 36 L345 36 Z M373 390 C398 390 426 383 457 369 L457 447 C428 458 388 462 363 462 C253 462 187 386 187 281 C187 189 237 136 330 136 C420 136 479 186 479 252 C479 312 435 348 366 348 C342 348 320 343 300 337 C310 374 331 390 373 390 L373 390 Z M331 286 C352 286 371 277 371 248 C371 223 356 208 332 208 C305 208 296 227 295 269 L295 279 C306 283 317 286 331 286 L331 286 Z " />
<glyph glyph-name="uni2466" unicode="&#x2466;" horiz-adv-x="691" d="M345 0 C506 0 637 130 637 291 C637 452 506 583 345 583 C184 583 54 452 54 291 C54 130 184 0 345 0 L345 0 Z M345 36 C206 36 94 152 94 291 C94 430 206 547 345 547 C484 547 597 430 597 291 C597 152 484 36 345 36 L345 36 Z M346 134 L471 400 L471 450 L221 450 L221 371 L367 371 L245 139 L247 134 L346 134 Z " />
<glyph glyph-name="uni2467" unicode="&#x2467;" horiz-adv-x="691" d="M345 0 C506 0 637 130 637 291 C637 452 506 583 345 583 C184 583 54 452 54 291 C54 130 184 0 345 0 L345 0 Z M345 36 C206 36 94 152 94 291 C94 430 206 547 345 547 C484 547 597 430 597 291 C597 152 484 36 345 36 L345 36 Z M491 225 C491 260 462 283 427 300 C462 319 485 346 485 374 C485 431 417 455 343 455 C266 455 198 418 198 362 C198 328 219 303 248 285 C217 268 194 241 194 213 C194 154 251 129 336 129 C414 129 491 168 491 225 L491 225 Z M387 359 C387 349 382 335 371 322 C335 336 304 346 304 363 C304 381 322 385 345 385 C371 385 387 376 387 359 L387 359 Z M293 230 C293 241 296 249 302 258 C342 240 380 230 380 214 C380 198 358 193 337 193 C310 193 293 207 293 230 L293 230 Z " />
<glyph glyph-name="uni2468" unicode="&#x2468;" horiz-adv-x="691" d="M345 0 C506 0 637 130 637 291 C637 452 506 583 345 583 C184 583 54 452 54 291 C54 130 184 0 345 0 L345 0 Z M345 36 C206 36 94 152 94 291 C94 430 206 547 345 547 C484 547 597 430 597 291 C597 152 484 36 345 36 L345 36 Z M310 202 C285 202 256 209 225 222 L225 145 C254 133 294 129 319 129 C431 129 496 205 496 311 C496 403 446 455 353 455 C263 455 205 406 205 340 C205 273 254 243 316 243 C339 243 363 248 382 254 C374 217 351 202 310 202 L310 202 Z M352 305 C331 305 313 314 313 344 C313 371 327 385 349 385 C376 385 387 364 389 319 L389 312 C377 308 365 305 352 305 L352 305 Z " />
<glyph glyph-name="uni2469" unicode="&#x2469;" horiz-adv-x="691" d="M345 0 C506 0 637 130 637 291 C637 452 506 583 345 583 C184 583 54 452 54 291 C54 130 184 0 345 0 L345 0 Z M345 36 C206 36 94 152 94 291 C94 430 206 547 345 547 C484 547 597 430 597 291 C597 152 484 36 345 36 L345 36 Z M291 148 L291 436 L232 436 L132 407 L132 342 L191 351 L191 148 L291 148 Z M434 145 C513 145 565 197 565 292 C565 383 530 439 440 439 C359 439 308 388 308 284 C308 192 354 145 434 145 L434 145 Z M438 212 C404 212 398 246 398 290 C398 341 410 371 437 371 C466 371 474 337 474 291 C474 246 469 212 438 212 L438 212 Z " />
<glyph glyph-name="uni24CA" unicode="&#x24ca;" horiz-adv-x="688" d="M350 -14 C517 -14 653 110 653 289 C653 467 517 592 350 592 C183 592 47 467 47 289 C47 109 183 -14 350 -14 L350 -14 Z M350 30 C200 30 91 139 91 289 C91 439 200 548 350 548 C500 548 609 439 609 289 C609 139 500 30 350 30 L350 30 Z M351 101 C447 101 522 147 522 249 L522 432 L409 432 L409 258 C409 205 388 185 353 185 C310 185 295 206 295 257 L295 432 L181 432 L181 235 C181 147 246 101 351 101 L351 101 Z " />
<glyph glyph-name="uni25B2" unicode="&#x25b2;" horiz-adv-x="561" d="M511 21 L243 449 L-25 21 L511 21 Z " />
<glyph glyph-name="uni25B6" unicode="&#x25b6;" horiz-adv-x="517" d="M77 -33 L505 235 L77 503 L77 -33 Z " />
<glyph glyph-name="uni25B8" unicode="&#x25b8;" horiz-adv-x="358" d="M342 218 L75 486 L75 -50 L342 218 Z " />
<glyph glyph-name="uni25BA" unicode="&#x25ba;" horiz-adv-x="817" d="M796 218 L74 486 L74 -50 L796 218 Z " />
<glyph glyph-name="uni25BC" unicode="&#x25bc;" horiz-adv-x="560" d="M42 448 L310 20 L578 448 L42 448 Z " />
<glyph glyph-name="uni25C0" unicode="&#x25c0;" horiz-adv-x="517" d="M433 -33 L433 503 L5 235 L433 -33 Z " />
<glyph glyph-name="uni25C2" unicode="&#x25c2;" horiz-adv-x="358" d="M271 -50 L271 486 L4 219 L271 -50 Z " />
<glyph glyph-name="uni25C4" unicode="&#x25c4;" horiz-adv-x="816" d="M729 -50 L729 486 L7 218 L729 -50 Z " />
<glyph glyph-name="lozenge" unicode="&#x25ca;" horiz-adv-x="521" d="M153 0 L284 0 L502 286 L387 583 L256 583 L31 286 L153 0 Z M239 108 L166 288 L300 468 L369 285 L239 108 Z " />
<glyph glyph-name="uni2610" unicode="&#x2610;" horiz-adv-x="780" d="M105 0 L688 0 L688 583 L105 583 L105 0 Z M206 94 L206 482 L587 482 L587 94 L206 94 Z " />
<glyph glyph-name="uni2611" unicode="&#x2611;" horiz-adv-x="781" d="M105 -4 L688 -4 L688 579 L105 579 L105 -4 Z M206 90 L206 478 L587 478 L587 90 L206 90 Z M299 117 L316 117 C416 227 499 355 561 451 L555 458 C531 455 477 439 467 424 C428 358 368 252 330 200 C316 246 317 295 316 326 L299 331 C288 328 248 294 241 283 C237 262 269 141 299 117 L299 117 Z " />
<glyph glyph-name="uni261A" unicode="&#x261a;" horiz-adv-x="973" d="M55 453 C38 391 92 386 92 386 L298 400 L353 365 C353 365 277 272 273 246 C273 246 289 200 326 186 C326 186 336 129 378 126 C378 126 387 88 433 74 L509 101 C509 101 585 88 729 140 L918 126 L918 365 L741 401 C741 401 691 443 628 459 L326 509 L55 453 Z " />
<glyph glyph-name="uni261B" unicode="&#x261b;" horiz-adv-x="908" d="M643 509 L341 459 C278 443 228 401 228 401 L51 365 L51 126 L240 140 C384 88 460 101 460 101 L536 74 C582 88 591 126 591 126 C633 129 643 186 643 186 C680 200 696 246 696 246 C692 272 616 365 616 365 L671 400 L877 386 C877 386 931 391 914 453 L643 509 Z " />
<glyph glyph-name="uni261C" unicode="&#x261c;" horiz-adv-x="973" d="M55 453 C38 391 92 386 92 386 L298 400 L353 365 C353 365 277 272 273 246 C273 246 289 200 326 186 C326 186 336 129 378 126 C378 126 387 88 433 74 L509 101 C509 101 585 88 729 140 L918 126 L918 365 L741 401 C741 401 691 443 628 459 L326 509 L55 453 Z M679 186 C607 157 504 154 504 154 L435 127 C411 129 407 157 407 157 L458 196 L522 215 L503 255 L439 231 L385 184 C371 186 367 208 367 208 L434 269 L484 291 L467 326 L415 300 L350 232 C339 231 328 249 328 249 L381 318 L433 369 L322 426 L136 418 C136 418 116 428 126 442 L325 467 L608 414 C653 398 701 360 701 360 L863 326 L863 178 L679 186 Z " />
<glyph glyph-name="uni261D" unicode="&#x261d;" horiz-adv-x="526" d="M64 473 L114 171 C130 108 172 58 172 58 L208 -119 L447 -119 L433 70 C485 214 472 290 472 290 L499 366 C485 412 447 421 447 421 C444 463 387 473 387 473 C373 510 327 526 327 526 C301 522 208 446 208 446 L173 501 L187 707 C187 707 182 761 120 744 L64 473 Z M395 -64 L247 -64 L213 98 C213 98 175 146 159 191 L106 474 L131 673 C145 683 155 663 155 663 L147 477 L204 366 L255 418 L324 471 C324 471 342 460 341 449 L273 384 L247 332 L282 315 L304 365 L365 432 C365 432 387 428 389 414 L342 360 L318 296 L358 277 L377 341 L416 392 C416 392 444 388 446 364 L419 295 C419 295 416 192 387 120 L395 -64 Z " />
<glyph glyph-name="uni261E" unicode="&#x261e;" horiz-adv-x="908" d="M643 509 L341 459 C278 443 228 401 228 401 L51 365 L51 126 L240 140 C384 88 460 101 460 101 L536 74 C582 88 591 126 591 126 C633 129 643 186 643 186 C680 200 696 246 696 246 C692 272 616 365 616 365 L671 400 L877 386 C877 386 931 391 914 453 L643 509 Z M106 178 L106 326 L268 360 C268 360 316 398 361 414 L644 467 L843 442 C853 428 833 418 833 418 L647 426 L536 369 L588 318 L641 249 C641 249 630 231 619 232 L554 300 L502 326 L485 291 L535 269 L602 208 C602 208 598 186 584 184 L530 231 L466 255 L447 215 L511 196 L562 157 C562 157 558 129 534 127 L465 154 C465 154 362 157 290 186 L106 178 Z " />
<glyph glyph-name="uni261F" unicode="&#x261f;" horiz-adv-x="525" d="M484 169 L434 471 C418 534 376 584 376 584 L340 761 L101 761 L115 572 C63 428 76 352 76 352 L49 276 C63 230 101 221 101 221 C104 179 161 169 161 169 C175 132 221 116 221 116 C247 120 340 196 340 196 L375 141 L361 -65 C361 -65 366 -119 428 -102 L484 169 Z M153 706 L301 706 L335 544 C335 544 373 496 389 451 L442 168 L417 -31 C403 -41 393 -21 393 -21 L401 165 L344 276 L293 224 L224 171 C224 171 206 182 207 193 L275 258 L301 310 L266 327 L244 277 L183 210 C183 210 161 214 159 228 L206 282 L230 346 L190 365 L171 301 L132 250 C132 250 104 254 102 278 L129 347 C129 347 132 450 161 522 L153 706 Z " />
<glyph glyph-name="uni267E" unicode="&#x267e;" horiz-adv-x="688" d="M350 -14 C517 -14 653 110 653 289 C653 467 517 592 350 592 C183 592 47 467 47 289 C47 109 183 -14 350 -14 L350 -14 Z M350 30 C200 30 91 139 91 289 C91 439 200 548 350 548 C500 548 609 439 609 289 C609 139 500 30 350 30 L350 30 Z M249 427 C193 427 154 370 154 293 C154 217 188 159 249 159 C293 159 326 200 351 241 C377 200 409 159 454 159 C515 159 549 219 549 293 C549 368 511 427 454 427 C410 427 376 386 351 346 C325 387 294 427 249 427 L249 427 Z M249 223 C228 223 215 256 215 293 C215 330 228 363 249 363 C275 363 301 325 322 293 C302 263 274 223 249 223 L249 223 Z M454 223 C428 223 401 263 382 293 C401 325 428 363 454 363 C475 363 488 330 488 293 C488 256 475 223 454 223 L454 223 Z " />
<glyph glyph-name="uni2713" unicode="&#x2713;" horiz-adv-x="373" d="M104 117 L121 117 C221 227 304 355 366 451 L360 458 C336 455 282 439 272 424 C233 358 173 252 135 200 C121 246 122 295 121 326 L104 331 C93 328 53 294 46 283 C42 262 74 141 104 117 L104 117 Z " />
<glyph glyph-name="uni2776" unicode="&#x2776;" horiz-adv-x="691" d="M345 0 C506 0 637 130 637 291 C637 452 506 583 345 583 C184 583 54 452 54 291 C54 130 184 0 345 0 L345 0 Z M290 140 L290 362 L220 353 L220 425 L340 457 L412 457 L412 140 L290 140 Z " />
<glyph glyph-name="uni2777" unicode="&#x2777;" horiz-adv-x="691" d="M345 0 C506 0 637 130 637 291 C637 452 506 583 345 583 C184 583 54 452 54 291 C54 130 184 0 345 0 L345 0 Z M220 206 C299 262 362 301 362 349 C362 371 346 383 319 383 C294 383 258 374 220 352 L220 429 C252 453 300 462 342 462 C409 462 473 436 473 368 C473 320 440 276 369 231 L369 226 L475 226 L475 141 L220 141 L220 206 Z " />
<glyph glyph-name="uni2778" unicode="&#x2778;" horiz-adv-x="691" d="M345 0 C506 0 637 130 637 291 C637 452 506 583 345 583 C184 583 54 452 54 291 C54 130 184 0 345 0 L345 0 Z M331 136 C289 136 251 145 227 154 L227 234 C263 218 291 214 316 214 C356 214 369 226 369 241 C369 261 350 267 278 269 L278 321 C334 325 356 331 356 352 C356 369 340 377 313 377 C291 377 263 372 230 357 L230 433 C254 450 290 462 339 462 C405 462 464 437 464 384 C464 354 448 330 401 320 L401 317 C463 310 475 266 475 238 C475 170 411 136 331 136 L331 136 Z " />
<glyph glyph-name="uni2779" unicode="&#x2779;" horiz-adv-x="691" d="M345 0 C506 0 637 130 637 291 C637 452 506 583 345 583 C184 583 54 452 54 291 C54 130 184 0 345 0 L345 0 Z M317 199 L171 199 L171 266 L324 457 L435 457 L435 271 L478 271 L478 199 L435 199 L435 141 L317 141 L317 199 Z M317 271 L317 360 L250 271 L317 271 Z " />
<glyph glyph-name="uni277A" unicode="&#x277a;" horiz-adv-x="691" d="M345 0 C506 0 637 130 637 291 C637 452 506 583 345 583 C184 583 54 452 54 291 C54 130 184 0 345 0 L345 0 Z M316 136 C281 136 248 142 217 154 L217 232 C252 216 284 213 309 213 C341 213 359 224 359 244 C359 265 334 273 289 273 C265 273 239 271 222 268 L239 457 L463 457 L463 378 L312 378 L309 342 L331 342 C410 342 467 312 467 242 C467 157 380 136 316 136 L316 136 Z " />
<glyph glyph-name="uni277B" unicode="&#x277b;" horiz-adv-x="691" d="M345 0 C506 0 637 130 637 291 C637 452 506 583 345 583 C184 583 54 452 54 291 C54 130 184 0 345 0 L345 0 Z M373 390 C331 390 310 374 300 337 C320 343 342 348 366 348 C435 348 479 312 479 252 C479 186 420 136 330 136 C237 136 187 189 187 281 C187 386 253 462 363 462 C388 462 428 458 457 447 L457 369 C426 383 398 390 373 390 L373 390 Z M331 286 C317 286 306 283 295 279 L295 272 C296 228 305 208 332 208 C356 208 371 223 371 248 C371 277 352 286 331 286 L331 286 Z " />
<glyph glyph-name="uni277C" unicode="&#x277c;" horiz-adv-x="691" d="M345 0 C506 0 637 130 637 291 C637 452 506 583 345 583 C184 583 54 452 54 291 C54 130 184 0 345 0 L345 0 Z M247 134 L245 139 L367 371 L221 371 L221 450 L471 450 L471 400 L346 134 L247 134 Z " />
<glyph glyph-name="uni277D" unicode="&#x277d;" horiz-adv-x="691" d="M345 0 C506 0 637 130 637 291 C637 452 506 583 345 583 C184 583 54 452 54 291 C54 130 184 0 345 0 L345 0 Z M491 225 C491 168 414 129 336 129 C251 129 194 154 194 213 C194 241 217 268 248 285 C219 303 198 328 198 362 C198 418 266 455 343 455 C417 455 485 431 485 374 C485 346 462 319 427 300 C462 283 491 260 491 225 L491 225 Z M387 359 C387 376 371 385 345 385 C322 385 304 381 304 363 C304 346 335 336 371 322 C382 335 387 349 387 359 L387 359 Z M293 230 C293 207 310 193 337 193 C358 193 380 198 380 214 C380 230 342 240 302 258 C296 249 293 241 293 230 L293 230 Z " />
<glyph glyph-name="uni277E" unicode="&#x277e;" horiz-adv-x="691" d="M345 0 C506 0 637 130 637 291 C637 452 506 583 345 583 C184 583 54 452 54 291 C54 130 184 0 345 0 L345 0 Z M310 202 C351 202 374 217 382 254 C363 248 339 243 316 243 C254 243 205 273 205 340 C205 406 263 455 353 455 C446 455 496 403 496 311 C496 205 431 129 319 129 C294 129 254 133 225 145 L225 222 C256 209 285 202 310 202 L310 202 Z M352 305 C365 305 377 308 389 312 L389 318 C388 364 377 385 349 385 C327 385 313 371 313 344 C313 314 331 305 352 305 L352 305 Z " />
<glyph glyph-name="uni277F" unicode="&#x277f;" horiz-adv-x="691" d="M345 0 C506 0 637 130 637 291 C637 452 506 583 345 583 C184 583 54 452 54 291 C54 130 184 0 345 0 L345 0 Z M191 148 L191 351 L132 342 L132 407 L232 436 L291 436 L291 148 L191 148 Z M434 145 C354 145 308 192 308 284 C308 388 359 439 440 439 C530 439 565 383 565 292 C565 197 513 145 434 145 L434 145 Z M438 212 C469 212 474 246 474 291 C474 337 466 371 437 371 C410 371 398 341 398 290 C398 246 404 212 438 212 L438 212 Z " />
<glyph glyph-name="uni2780" unicode="&#x2780;" horiz-adv-x="691" d="M345 0 C506 0 637 130 637 291 C637 452 506 583 345 583 C184 583 54 452 54 291 C54 130 184 0 345 0 L345 0 Z M345 36 C206 36 94 152 94 291 C94 430 206 547 345 547 C484 547 597 430 597 291 C597 152 484 36 345 36 L345 36 Z M410 146 L410 440 L345 440 L233 410 L233 344 L299 353 L299 146 L410 146 Z " />
<glyph glyph-name="uni2781" unicode="&#x2781;" horiz-adv-x="691" d="M345 0 C506 0 637 130 637 291 C637 452 506 583 345 583 C184 583 54 452 54 291 C54 130 184 0 345 0 L345 0 Z M345 36 C206 36 94 152 94 291 C94 430 206 547 345 547 C484 547 597 430 597 291 C597 152 484 36 345 36 L345 36 Z M229 145 L465 145 L465 223 L366 223 L366 227 C432 271 464 312 464 356 C464 419 405 444 342 444 C304 444 259 435 229 413 L229 343 C265 363 298 371 321 371 C347 371 362 360 362 339 C362 294 303 257 229 204 L229 145 Z " />
<glyph glyph-name="uni2782" unicode="&#x2782;" horiz-adv-x="691" d="M345 0 C506 0 637 130 637 291 C637 452 506 583 345 583 C184 583 54 452 54 291 C54 130 184 0 345 0 L345 0 Z M345 36 C206 36 94 152 94 291 C94 430 206 547 345 547 C484 547 597 430 597 291 C597 152 484 36 345 36 L345 36 Z M333 140 C406 140 466 171 466 235 C466 262 454 302 397 308 L397 311 C439 320 455 342 455 370 C455 420 401 443 340 443 C295 443 262 432 239 415 L239 346 C270 361 296 365 317 365 C342 365 356 357 356 341 C356 321 335 315 283 312 L283 264 C350 262 368 256 368 237 C368 222 356 211 319 211 C295 211 270 215 236 230 L236 157 C259 148 294 140 333 140 L333 140 Z " />
<glyph glyph-name="uni2783" unicode="&#x2783;" horiz-adv-x="691" d="M345 0 C506 0 637 130 637 291 C637 452 506 583 345 583 C184 583 54 452 54 291 C54 130 184 0 345 0 L345 0 Z M345 36 C206 36 94 152 94 291 C94 430 206 547 345 547 C484 547 597 430 597 291 C597 152 484 36 345 36 L345 36 Z M319 147 L426 147 L426 202 L466 202 L466 268 L426 268 L426 441 L325 441 L182 263 L182 202 L319 202 L319 147 Z M256 268 L319 351 L319 268 L256 268 Z " />
<glyph glyph-name="uni2784" unicode="&#x2784;" horiz-adv-x="691" d="M345 0 C506 0 637 130 637 291 C637 452 506 583 345 583 C184 583 54 452 54 291 C54 130 184 0 345 0 L345 0 Z M345 36 C206 36 94 152 94 291 C94 430 206 547 345 547 C484 547 597 430 597 291 C597 152 484 36 345 36 L345 36 Z M322 141 C381 141 461 161 461 239 C461 304 409 332 336 332 L315 332 L318 366 L458 366 L458 440 L251 440 L235 265 C251 267 275 269 296 269 C339 269 362 262 362 242 C362 222 346 212 316 212 C293 212 263 215 231 229 L231 158 C259 147 289 141 322 141 L322 141 Z " />
<glyph glyph-name="uni2785" unicode="&#x2785;" horiz-adv-x="691" d="M345 0 C506 0 637 130 637 291 C637 452 506 583 345 583 C184 583 54 452 54 291 C54 130 184 0 345 0 L345 0 Z M345 36 C206 36 94 152 94 291 C94 430 206 547 345 547 C484 547 597 430 597 291 C597 152 484 36 345 36 L345 36 Z M375 378 C398 378 424 371 452 358 L452 430 C425 440 388 443 366 443 C264 443 203 373 203 275 C203 190 249 141 335 141 C418 141 472 187 472 248 C472 305 431 338 368 338 C346 338 324 332 307 327 C315 362 335 378 375 378 L375 378 Z M335 280 C356 280 373 272 373 244 C373 221 359 206 337 206 C312 206 303 226 302 267 L302 274 C312 278 323 280 335 280 L335 280 Z " />
<glyph glyph-name="uni2786" unicode="&#x2786;" horiz-adv-x="691" d="M345 0 C506 0 637 130 637 291 C637 452 506 583 345 583 C184 583 54 452 54 291 C54 130 184 0 345 0 L345 0 Z M345 36 C206 36 94 152 94 291 C94 430 206 547 345 547 C484 547 597 430 597 291 C597 152 484 36 345 36 L345 36 Z M352 144 L469 392 L469 438 L237 438 L237 365 L374 365 L260 148 L261 144 L352 144 Z " />
<glyph glyph-name="uni2787" unicode="&#x2787;" horiz-adv-x="691" d="M345 0 C506 0 637 130 637 291 C637 452 506 583 345 583 C184 583 54 452 54 291 C54 130 184 0 345 0 L345 0 Z M345 36 C206 36 94 152 94 291 C94 430 206 547 345 547 C484 547 597 430 597 291 C597 152 484 36 345 36 L345 36 Z M482 230 C482 262 456 284 423 299 C455 317 477 341 477 369 C477 422 414 443 345 443 C275 443 212 409 212 357 C212 326 232 303 258 285 C230 270 208 245 208 219 C208 164 261 141 340 141 C411 141 482 177 482 230 L482 230 Z M387 355 C387 345 382 332 372 320 C338 332 309 342 309 358 C309 375 326 380 348 380 C372 380 387 370 387 355 L387 355 Z M299 234 C299 244 301 252 307 261 C345 245 380 235 380 219 C380 205 360 199 340 199 C315 199 299 213 299 234 L299 234 Z " />
<glyph glyph-name="uni2788" unicode="&#x2788;" horiz-adv-x="691" d="M345 0 C506 0 637 130 637 291 C637 452 506 583 345 583 C184 583 54 452 54 291 C54 130 184 0 345 0 L345 0 Z M345 36 C206 36 94 152 94 291 C94 430 206 547 345 547 C484 547 597 430 597 291 C597 152 484 36 345 36 L345 36 Z M313 207 C289 207 263 214 235 227 L235 156 C262 144 299 141 321 141 C424 141 485 211 485 309 C485 395 439 443 353 443 C269 443 216 398 216 337 C216 274 262 246 319 246 C341 246 363 252 381 257 C373 222 352 207 313 207 L313 207 Z M352 304 C331 304 315 313 315 341 C315 366 329 379 349 379 C375 379 385 359 386 318 L386 310 C376 306 365 304 352 304 L352 304 Z " />
<glyph glyph-name="uni278A" unicode="&#x278a;" horiz-adv-x="691" d="M345 0 C506 0 637 130 637 291 C637 452 506 583 345 583 C184 583 54 452 54 291 C54 130 184 0 345 0 L345 0 Z M294 147 L294 355 L229 346 L229 412 L340 441 L406 441 L406 147 L294 147 Z " />
<glyph glyph-name="uni278B" unicode="&#x278b;" horiz-adv-x="691" d="M345 0 C506 0 637 130 637 291 C637 452 506 583 345 583 C184 583 54 452 54 291 C54 130 184 0 345 0 L345 0 Z M229 202 C303 255 362 292 362 337 C362 358 347 369 321 369 C298 369 265 361 229 340 L229 411 C259 433 304 442 342 442 C405 442 464 417 464 354 C464 310 432 269 367 226 C367 225 366 221 366 221 L465 221 L465 143 L229 143 L229 202 Z " />
<glyph glyph-name="uni278C" unicode="&#x278c;" horiz-adv-x="691" d="M345 0 C506 0 637 130 637 291 C637 452 506 583 345 583 C184 583 54 452 54 291 C54 130 184 0 345 0 L345 0 Z M333 140 C294 140 259 148 236 157 L236 230 C270 215 295 211 319 211 C356 211 368 222 368 237 C368 256 350 262 283 264 L283 312 C335 315 356 321 356 341 C356 357 342 365 317 365 C296 365 270 361 239 346 L239 415 C262 432 295 443 340 443 C401 443 455 420 455 370 C455 342 439 320 397 311 L397 308 C454 302 466 262 466 235 C466 171 406 140 333 140 L333 140 Z " />
<glyph glyph-name="uni278D" unicode="&#x278d;" horiz-adv-x="691" d="M345 0 C506 0 637 130 637 291 C637 452 506 583 345 583 C184 583 54 452 54 291 C54 130 184 0 345 0 L345 0 Z M319 201 L182 201 L182 261 L325 440 L426 440 L426 267 L466 267 L466 201 L426 201 L426 146 L319 146 L319 201 Z M319 267 L319 350 L256 267 L319 267 Z " />
<glyph glyph-name="uni278E" unicode="&#x278e;" horiz-adv-x="691" d="M345 0 C506 0 637 130 637 291 C637 452 506 583 345 583 C184 583 54 452 54 291 C54 130 184 0 345 0 L345 0 Z M324 142 C290 142 261 148 232 159 L232 230 C264 216 294 212 318 212 C347 212 363 223 363 242 C363 262 341 270 298 270 C276 270 253 268 237 265 L253 441 L459 441 L459 367 L320 367 L316 332 C323 333 331 333 337 333 C410 333 463 305 463 240 C463 162 383 142 324 142 L324 142 Z " />
<glyph glyph-name="uni278F" unicode="&#x278f;" horiz-adv-x="691" d="M345 0 C506 0 637 130 637 291 C637 452 506 583 345 583 C184 583 54 452 54 291 C54 130 184 0 345 0 L345 0 Z M375 377 C335 377 315 361 307 326 C324 332 346 337 368 337 C431 337 472 304 472 247 C472 187 418 140 335 140 C249 140 203 189 203 274 C203 372 264 443 366 443 C388 443 425 439 452 429 L452 357 C424 370 398 377 375 377 L375 377 Z M335 280 C323 280 312 277 302 273 L302 268 C302 225 311 205 337 205 C359 205 373 220 373 244 C373 271 356 280 335 280 L335 280 Z " />
<glyph glyph-name="uni2790" unicode="&#x2790;" horiz-adv-x="691" d="M345 0 C506 0 637 130 637 291 C637 452 506 583 345 583 C184 583 54 452 54 291 C54 130 184 0 345 0 L345 0 Z M258 145 L257 149 L371 366 L234 366 L234 439 L466 439 L466 393 L349 145 L258 145 Z " />
<glyph glyph-name="uni2791" unicode="&#x2791;" horiz-adv-x="691" d="M345 0 C506 0 637 130 637 291 C637 452 506 583 345 583 C184 583 54 452 54 291 C54 130 184 0 345 0 L345 0 Z M480 230 C480 177 409 141 338 141 C258 141 206 164 206 219 C206 245 227 270 256 285 C230 303 210 326 210 357 C210 409 273 443 343 443 C412 443 474 422 474 369 C474 341 453 317 421 299 C454 284 480 262 480 230 L480 230 Z M385 355 C385 370 370 380 345 380 C324 380 307 375 307 358 C307 342 336 332 370 320 C380 332 385 345 385 355 L385 355 Z M297 234 C297 213 312 199 338 199 C358 199 378 205 378 219 C378 235 342 245 305 261 C299 252 297 244 297 234 L297 234 Z " />
<glyph glyph-name="uni2792" unicode="&#x2792;" horiz-adv-x="691" d="M345 0 C506 0 637 130 637 291 C637 452 506 583 345 583 C184 583 54 452 54 291 C54 130 184 0 345 0 L345 0 Z M314 207 C352 207 374 222 382 257 C364 252 341 246 319 246 C263 246 216 274 216 337 C216 398 270 443 353 443 C440 443 486 395 486 309 C486 211 425 141 322 141 C299 141 262 144 236 156 L236 227 C264 214 290 207 314 207 L314 207 Z M353 304 C365 304 377 306 387 310 L387 316 C386 359 375 379 350 379 C330 379 315 366 315 341 C315 313 332 304 353 304 L353 304 Z " />
<glyph glyph-name="uni301A" unicode="&#x301a;" horiz-adv-x="425" d="M-14 -181 L313 -181 L329 -88 L272 -88 L390 585 L448 585 L464 679 L137 679 L-14 -181 Z M227 585 L283 585 L165 -88 L109 -88 L227 585 Z " />
<glyph glyph-name="uni301B" unicode="&#x301b;" horiz-adv-x="426" d="M437 679 L110 679 L93 585 L151 585 L32 -88 L-25 -88 L-41 -181 L286 -181 L437 679 Z M314 585 L195 -88 L139 -88 L257 585 L314 585 Z " />
<glyph glyph-name="apple" unicode="&#xf8ff;" horiz-adv-x="1199" d="M369 318 L380 318 L380 328 L390 328 L390 338 L400 338 L400 347 L410 347 L410 388 L399 388 L399 348 L380 348 L380 388 L369 388 L369 347 L379 347 L379 329 L369 329 L369 318 Z M329 338 L350 338 L350 348 L330 348 L330 377 L350 377 L350 388 L330 388 L330 398 L319 398 L319 388 L309 388 L309 377 L319 377 L319 347 L329 347 L329 338 Z M569 338 L590 338 L590 348 L570 348 L570 377 L590 377 L590 388 L570 388 L570 398 L559 398 L559 388 L549 388 L549 377 L559 377 L559 347 L569 347 L569 338 Z M679 338 L710 338 L710 348 L680 348 L680 357 L710 357 L710 378 L700 378 L700 388 L679 388 L679 378 L669 378 L669 347 L679 347 L679 338 Z M859 338 L890 338 L890 348 L860 348 L860 357 L890 357 L890 378 L880 378 L880 388 L859 388 L859 378 L849 378 L849 347 L859 347 L859 338 Z M89 347 L100 347 L100 357 L110 357 L110 368 L100 368 L100 378 L89 378 L89 368 L79 368 L79 357 L89 357 L89 347 Z M159 347 L170 347 L170 357 L180 357 L180 368 L170 368 L170 378 L159 378 L159 368 L149 368 L149 357 L159 357 L159 347 Z M249 347 L260 347 L260 357 L270 357 L270 368 L260 368 L260 378 L249 378 L249 368 L239 368 L239 357 L249 357 L249 347 Z M499 338 L520 338 L520 347 L530 347 L530 378 L520 378 L520 388 L499 388 L499 378 L489 378 L489 347 L499 347 L499 338 Z M609 338 L620 338 L620 377 L639 377 L639 338 L650 338 L650 378 L640 378 L640 388 L620 388 L620 408 L609 408 L609 338 Z M939 347 L950 347 L950 357 L960 357 L960 368 L950 368 L950 378 L939 378 L939 368 L929 368 L929 357 L939 357 L939 347 Z M1029 347 L1040 347 L1040 357 L1050 357 L1050 368 L1040 368 L1040 378 L1029 378 L1029 368 L1019 368 L1019 357 L1029 357 L1029 347 Z M1099 347 L1110 347 L1110 357 L1120 357 L1120 368 L1110 368 L1110 378 L1099 378 L1099 368 L1089 368 L1089 357 L1099 357 L1099 347 Z M429 318 L440 318 L440 338 L460 338 L460 347 L470 347 L470 378 L460 378 L460 388 L429 388 L429 318 Z M759 318 L770 318 L770 388 L739 388 L739 378 L729 378 L729 347 L739 347 L739 338 L759 338 L759 318 Z M799 338 L830 338 L830 388 L819 388 L819 348 L800 348 L800 388 L789 388 L789 347 L799 347 L799 338 Z M219 328 L230 328 L230 338 L240 338 L240 348 L229 348 L229 338 L219 338 L219 328 Z M229 377 L240 377 L240 388 L230 388 L230 398 L219 398 L219 387 L229 387 L229 377 Z M279 328 L290 328 L290 338 L280 338 L280 348 L269 348 L269 338 L279 338 L279 328 Z M269 377 L280 377 L280 387 L290 387 L290 398 L279 398 L279 388 L269 388 L269 377 Z M909 328 L920 328 L920 338 L930 338 L930 348 L919 348 L919 338 L909 338 L909 328 Z M919 377 L930 377 L930 388 L920 388 L920 398 L909 398 L909 387 L919 387 L919 377 Z M969 328 L980 328 L980 338 L970 338 L970 348 L959 348 L959 338 L969 338 L969 328 Z M959 377 L970 377 L970 387 L980 387 L980 398 L969 398 L969 388 L959 388 L959 377 Z M139 338 L150 338 L150 348 L139 348 L139 338 Z M139 377 L150 377 L150 388 L139 388 L139 377 Z M179 338 L190 338 L190 348 L179 348 L179 338 Z M179 377 L190 377 L190 388 L179 388 L179 377 Z M440 348 L440 377 L459 377 L459 348 L440 348 Z M500 348 L500 377 L519 377 L519 348 L500 348 Z M680 368 L680 377 L699 377 L699 368 L680 368 Z M740 348 L740 377 L759 377 L759 348 L740 348 Z M860 368 L860 377 L879 377 L879 368 L860 368 Z M1009 338 L1020 338 L1020 348 L1009 348 L1009 338 Z M1009 377 L1020 377 L1020 388 L1009 388 L1009 377 Z M1049 338 L1060 338 L1060 348 L1049 348 L1049 338 Z M1049 377 L1060 377 L1060 388 L1049 388 L1049 377 Z " />
<glyph glyph-name="f_f" unicode="&#xfb00;" horiz-adv-x="603" d="M31 354 L107 354 L48 12 C38 -50 25 -82 10 -105 C-35 -105 -71 -98 -105 -87 L-130 -194 C-102 -207 -48 -212 -13 -212 C24 -212 58 -199 86 -177 C117 -191 184 -212 251 -212 C360 -212 432 -103 451 10 L509 354 L610 354 L628 456 L526 456 L527 460 C534 498 542 520 562 546 C578 548 595 548 615 545 C633 542 654 536 675 528 L712 647 C681 656 649 659 618 659 C573 659 532 651 497 633 C462 646 411 659 354 659 C299 659 249 647 209 618 C169 589 141 544 129 480 L125 456 L48 456 L31 354 Z M245 354 L371 354 L312 12 C302 -50 288 -84 273 -106 C228 -107 188 -97 155 -88 C170 -58 181 -24 187 10 L245 354 Z M393 480 L389 456 L262 456 L263 460 C270 498 279 522 299 548 C320 550 339 549 359 545 C374 542 391 537 407 531 C401 516 396 499 393 480 L393 480 Z " />
<glyph glyph-name="fi" unicode="&#xfb01;" horiz-adv-x="535" d="M31 354 L108 354 L48 12 C38 -50 25 -82 10 -105 C-35 -105 -71 -98 -105 -87 L-130 -194 C-102 -207 -48 -212 -13 -212 C96 -212 168 -103 187 10 L245 354 L365 354 L302 0 L442 0 L521 456 L263 456 L264 462 C270 499 281 524 305 548 L334 548 C345 548 357 548 371 547 C401 545 433 539 456 530 L490 649 C454 657 408 661 369 661 C312 661 258 651 215 623 C172 595 142 550 130 481 L125 456 L48 456 L31 354 Z " />
<glyph glyph-name="fl" unicode="&#xfb02;" horiz-adv-x="538" d="M442 0 L555 653 L459 653 C430 657 399 659 371 659 C314 659 259 649 216 621 C173 592 142 548 130 479 L126 456 L48 456 L31 354 L108 354 L48 12 C38 -50 25 -82 10 -105 C-35 -105 -71 -98 -105 -87 L-130 -194 C-102 -207 -48 -212 -13 -212 C96 -212 168 -103 187 10 L246 354 L332 354 L350 456 L263 456 L264 459 C270 497 281 522 305 545 C313 546 323 546 334 546 C348 546 363 546 380 544 L398 542 L302 0 L442 0 Z " />
<glyph glyph-name="f_f_i" unicode="&#xfb03;" horiz-adv-x="797" d="M703 0 L782 456 L526 456 L527 461 C534 498 544 523 569 547 C585 549 612 549 640 545 C669 543 699 537 720 529 L754 648 C718 656 671 660 632 660 C583 660 537 653 498 634 C463 647 412 660 356 660 C301 660 250 648 210 619 C170 590 142 545 130 480 L126 456 L48 456 L31 354 L108 354 L48 12 C38 -50 25 -82 10 -105 C-35 -105 -71 -98 -105 -87 L-130 -194 C-102 -207 -48 -212 -13 -212 C25 -212 58 -199 86 -177 C118 -194 177 -212 249 -212 C358 -212 430 -103 449 10 L508 354 L626 354 L563 0 L703 0 Z M246 354 L371 354 L311 12 C301 -50 287 -84 272 -106 C228 -107 187 -98 155 -89 C170 -58 181 -24 187 10 L246 354 Z M265 461 C271 498 280 523 300 549 C316 550 331 550 348 547 C368 545 387 540 407 533 C401 517 396 499 393 480 L389 456 L264 456 L265 461 Z " />
<glyph glyph-name="f_f_l" unicode="&#xfb04;" horiz-adv-x="801" d="M705 0 L818 653 L688 653 C665 657 641 659 619 659 C574 659 533 651 497 632 C462 645 411 659 355 659 C300 659 249 646 209 617 C169 589 141 544 129 479 L125 456 L48 456 L31 354 L107 354 L48 12 C38 -50 25 -82 10 -105 C-35 -105 -71 -98 -105 -87 L-130 -194 C-102 -207 -48 -212 -13 -212 C24 -212 58 -199 86 -177 C117 -191 184 -212 251 -212 C360 -212 432 -103 451 10 L510 354 L591 354 L608 456 L527 456 L528 459 C534 497 542 520 562 546 C578 548 596 547 616 544 C630 542 645 539 660 534 L565 0 L705 0 Z M246 354 L371 354 L312 12 C302 -50 288 -84 273 -106 C228 -107 188 -97 155 -88 C170 -58 181 -24 187 10 L246 354 Z M264 459 C270 497 279 521 299 547 C319 550 336 549 355 545 C372 542 389 537 407 531 C401 515 396 498 393 479 L389 456 L263 456 L264 459 Z " />
</font>
</defs>
</svg>
