<svg xmlns="http://www.w3.org/2000/svg">
<defs>
<font id="Greta Sans Cnd Std Blk Ita">
<font-face  font-family="Greta Sans Condensed Std" units-per-em="1000" ascent="710" descent="-290" font-style="italic" font-weight="900" font-stretch="condensed" cap-height="583" x-height="452" underline-position="-75" underline-thickness="50" />

<glyph glyph-name="NULL" d="" />
<glyph glyph-name="CR" unicode="&#xd;" horiz-adv-x="250" d="" />
<glyph glyph-name="space" unicode="&#x20;" horiz-adv-x="160" d="" />
<glyph glyph-name="exclam" unicode="&#x21;" horiz-adv-x="247" d="M51 350 L44 204 L185 204 L229 347 L270 583 L92 583 L51 350 Z M-5 3 L150 -13 L196 145 L25 145 L-5 3 Z " />
<glyph glyph-name="quotedbl" unicode="&#x22;" horiz-adv-x="342" d="M65 459 L186 459 L257 703 L108 703 L65 459 Z M221 459 L341 459 L412 703 L264 703 L221 459 Z " />
<glyph glyph-name="numbersign" unicode="&#x23;" horiz-adv-x="421" d="M45 345 L83 345 L52 208 L17 208 L-7 94 L27 94 L6 0 L132 0 L153 94 L193 94 L172 0 L298 0 L319 94 L357 94 L382 208 L344 208 L375 345 L410 345 L435 459 L400 459 L428 583 L302 583 L274 459 L234 459 L262 583 L136 583 L108 459 L70 459 L45 345 Z M209 345 L249 345 L218 208 L178 208 L209 345 Z " />
<glyph glyph-name="dollar" unicode="&#x24;" horiz-adv-x="398" d="M-5 8 C37 -8 87 -13 126 -13 L135 -13 L123 -86 L173 -86 L186 -8 C292 10 358 82 358 215 C358 276 328 310 298 336 C268 362 238 378 238 402 C238 426 262 443 295 443 C333 443 360 436 378 423 L404 570 C381 587 341 594 293 596 L306 669 L256 669 L242 594 C143 581 57 512 57 391 C57 322 87 285 118 258 C148 232 178 215 178 185 C178 164 163 144 130 144 C89 144 55 152 23 167 L-5 8 Z " />
<glyph glyph-name="percent" unicode="&#x25;" horiz-adv-x="576" d="M149 279 C239 279 304 347 304 483 C304 556 270 596 205 596 C117 596 46 526 46 390 C46 318 82 279 149 279 L149 279 Z M164 363 C157 363 154 369 154 382 C154 405 167 510 188 510 C194 510 197 505 197 494 C197 471 182 363 164 363 L164 363 Z M388 338 L550 562 L553 583 L424 583 L309 338 L388 338 Z M213 251 L45 21 L42 0 L172 0 L291 251 L213 251 Z M386 -13 C475 -13 542 54 542 191 C542 264 507 304 442 304 C353 304 283 235 283 97 C283 26 320 -13 386 -13 L386 -13 Z M401 71 C394 71 391 76 391 88 C391 143 411 218 426 218 C433 218 436 213 436 202 C436 166 420 71 401 71 L401 71 Z " />
<glyph glyph-name="ampersand" unicode="&#x26;" horiz-adv-x="513" d="M513 279 L517 397 L510 403 C487 382 449 368 416 367 C407 366 399 367 391 368 C421 397 442 438 442 475 C442 538 385 596 274 596 C101 596 56 499 56 405 C56 367 77 325 101 303 C73 286 6 242 6 136 C6 37 82 -10 196 -10 C342 -10 423 65 459 253 C478 260 496 269 513 279 L513 279 Z M252 280 C264 264 281 253 299 246 C284 160 256 125 221 125 C192 125 181 141 181 180 C181 238 209 266 227 283 L229 339 C222 350 219 368 219 387 C219 430 227 477 257 477 C275 477 282 458 282 434 C282 401 270 357 252 334 L252 280 Z " />
<glyph glyph-name="quotesingle" unicode="&#x27;" horiz-adv-x="187" d="M65 459 L186 459 L257 703 L108 703 L65 459 Z " />
<glyph glyph-name="parenleft" unicode="&#x28;" horiz-adv-x="241" d="M161 -207 C139 -147 123 -54 123 54 C123 114 128 179 140 245 C170 418 241 570 307 653 L186 653 C123 574 44 406 16 244 C5 181 -1 113 -1 49 C-1 -55 13 -151 38 -207 L161 -207 Z " />
<glyph glyph-name="parenright" unicode="&#x29;" horiz-adv-x="242" d="M76 653 C99 599 115 516 115 417 C115 364 111 306 100 245 C67 61 -16 -114 -82 -207 L41 -207 C113 -117 193 79 223 244 C232 298 236 353 236 405 C236 508 220 600 197 653 L76 653 Z " />
<glyph glyph-name="asterisk" unicode="&#x2a;" horiz-adv-x="334" d="M58 490 L151 457 L49 432 L82 341 L166 425 L127 312 L227 312 L217 426 L283 341 L348 432 L246 460 L357 489 L325 580 L225 497 L280 611 L179 611 L186 499 L126 580 L58 490 Z " />
<glyph glyph-name="plus" unicode="&#x2b;" horiz-adv-x="269" d="M19 258 L95 258 L75 147 L156 147 L176 258 L251 258 L266 344 L191 344 L211 455 L130 455 L110 344 L34 344 L19 258 Z " />
<glyph glyph-name="comma" unicode="&#x2c;" horiz-adv-x="223" d="M62 -167 C104 -109 135 -27 155 40 C160 56 166 91 171 108 L8 118 L-3 58 C-19 -6 -36 -61 -69 -118 L62 -167 Z " />
<glyph glyph-name="&amp;#x2d;" unicode="&#x2d;" horiz-adv-x="295" d="M19 190 L251 190 L271 295 L39 295 L19 190 Z " />
<glyph glyph-name="&amp;#xad;" unicode="&#xad;" horiz-adv-x="295" d="M19 190 L251 190 L271 295 L39 295 L19 190 Z " />
<glyph glyph-name="period" unicode="&#x2e;" horiz-adv-x="229" d="M-19 -4 L136 -20 L185 145 L14 145 L-19 -4 Z " />
<glyph glyph-name="slash" unicode="&#x2f;" horiz-adv-x="302" d="M-37 -82 L80 -82 L355 658 L240 658 L-37 -82 Z " />
<glyph glyph-name="zero" unicode="0" horiz-adv-x="443" d="M438 438 C438 544 391 596 277 596 C106 596 17 384 17 144 C17 39 63 -13 176 -13 C373 -13 438 232 438 438 L438 438 Z M199 130 C188 130 182 139 182 169 C182 271 228 452 256 452 C264 452 271 441 271 410 C271 311 227 130 199 130 L199 130 Z " />
<glyph glyph-name="one" unicode="1" horiz-adv-x="300" d="M217 0 L318 583 L184 583 L65 539 L38 394 L109 406 L40 0 L217 0 Z " />
<glyph glyph-name="two" unicode="2" horiz-adv-x="358" d="M314 138 L152 138 C241 230 367 375 367 469 C367 563 283 596 212 596 C171 596 116 585 82 568 L59 429 C71 434 93 437 117 437 C147 437 178 432 187 418 C163 336 105 264 2 135 L-19 0 L294 0 L314 138 Z " />
<glyph glyph-name="three" unicode="3" horiz-adv-x="337" d="M-16 17 C5 6 59 -8 104 -8 C236 -8 306 77 306 196 C306 246 267 303 234 326 L234 330 C282 350 347 416 347 483 C347 572 270 596 200 596 C158 596 113 588 76 578 L59 422 C73 428 92 432 109 432 C130 432 164 427 168 415 C155 382 117 340 92 313 L84 257 C107 234 130 204 135 161 C118 145 98 140 77 140 C56 140 35 145 16 152 L-16 17 Z " />
<glyph glyph-name="four" unicode="4" horiz-adv-x="398" d="M403 583 L172 583 L18 262 L-7 124 L147 124 L126 0 L301 0 L322 124 L349 124 L374 262 L347 262 L403 583 Z M121 262 L201 447 L205 447 L172 262 L121 262 Z " />
<glyph glyph-name="five" unicode="5" horiz-adv-x="365" d="M-6 17 C32 6 84 -6 135 -6 C235 -6 334 38 334 213 C334 321 264 355 237 371 C227 370 207 367 191 363 L206 448 L359 448 L382 583 L90 583 L31 264 L48 231 C72 241 110 253 133 257 C150 248 156 221 156 189 C156 140 133 134 102 134 C75 134 42 146 16 156 L-6 17 Z " />
<glyph glyph-name="six" unicode="6" horiz-adv-x="410" d="M410 576 C363 592 331 596 294 596 C77 596 20 355 20 172 C20 51 74 -8 171 -8 C339 -8 389 142 389 235 C389 320 338 368 302 381 C282 381 234 364 196 332 C199 346 203 358 207 370 C226 428 254 464 293 464 C319 464 341 459 383 445 L410 576 Z M208 260 C213 250 217 230 217 209 C217 178 213 128 189 114 C182 118 179 131 179 147 C179 176 180 204 182 231 C192 246 194 250 208 260 L208 260 Z " />
<glyph glyph-name="seven" unicode="7" horiz-adv-x="324" d="M47 436 L174 436 L21 27 L22 0 L179 0 L357 512 L354 583 L70 583 L47 436 Z " />
<glyph glyph-name="eight" unicode="8" horiz-adv-x="406" d="M422 477 C422 553 353 596 266 596 C133 596 56 485 56 394 C56 354 83 311 115 269 C50 235 -8 193 -8 109 C-8 41 56 -8 149 -8 C304 -8 367 78 367 176 C367 220 334 265 299 310 C361 339 422 391 422 477 L422 477 Z M207 457 C210 464 224 471 237 471 C252 471 255 469 263 459 C262 433 258 400 249 371 C227 401 210 430 207 457 L207 457 Z M206 132 C195 126 180 122 169 122 C159 122 151 125 144 133 C147 166 152 188 162 209 C183 181 200 155 206 132 L206 132 Z " />
<glyph glyph-name="nine" unicode="9" horiz-adv-x="410" d="M13 12 C60 -4 92 -8 129 -8 C346 -8 403 233 403 416 C403 537 349 596 252 596 C84 596 34 446 34 353 C34 268 85 220 121 207 C140 207 189 224 226 255 C223 242 220 229 216 218 C197 160 169 124 130 124 C104 124 82 129 40 143 L13 12 Z M215 328 C210 338 206 358 206 379 C206 410 210 460 234 474 C241 470 244 457 244 441 C244 412 242 383 240 356 C230 342 229 337 215 328 L215 328 Z " />
<glyph glyph-name="colon" unicode="&#x3a;" horiz-adv-x="240" d="M-12 -4 L143 -20 L192 145 L21 145 L-12 -4 Z M45 329 L200 313 L249 478 L78 478 L45 329 Z " />
<glyph glyph-name="semicolon" unicode="&#x3b;" horiz-adv-x="241" d="M71 -167 C113 -109 144 -27 164 40 C169 56 175 91 180 108 L17 118 L6 58 C-10 -6 -27 -61 -60 -118 L71 -167 Z M48 329 L203 313 L252 478 L81 478 L48 329 Z " />
<glyph glyph-name="less" unicode="&#x3c;" horiz-adv-x="301" d="M233 57 L251 164 L111 298 L298 427 L316 531 L31 334 L17 254 L233 57 Z " />
<glyph glyph-name="equal" unicode="&#x3d;" horiz-adv-x="314" d="M14 153 L263 153 L280 249 L31 249 L14 153 Z M47 339 L296 339 L313 435 L64 435 L47 339 Z " />
<glyph glyph-name="greater" unicode="&#x3e;" horiz-adv-x="298" d="M282 254 L296 334 L81 531 L63 427 L204 298 L16 164 L-2 57 L282 254 Z " />
<glyph glyph-name="question" unicode="&#x3f;" horiz-adv-x="294" d="M310 444 C310 539 251 583 103 602 L59 490 C107 478 125 475 161 452 C119 410 88 373 57 331 C51 323 50 315 50 307 C50 280 74 234 84 210 L205 218 L189 281 L242 339 C289 391 310 414 310 444 L310 444 Z M18 3 L173 -13 L222 145 L51 145 L18 3 Z " />
<glyph glyph-name="at" unicode="&#x40;" horiz-adv-x="750" d="M409 -9 C663 20 750 199 750 389 C750 565 618 642 461 642 C179 642 0 395 0 95 C0 -88 110 -214 283 -214 C395 -214 489 -177 570 -121 L586 -26 C499 -80 412 -116 322 -116 C180 -116 109 -39 109 105 C109 307 208 551 436 551 C583 551 644 488 644 385 C644 282 620 128 524 91 L515 98 L574 459 L445 459 L443 446 C428 454 412 458 397 458 C334 458 276 420 241 374 C201 321 172 200 172 103 C172 60 177 20 185 -8 L296 -8 L383 103 L366 5 L409 -9 Z M318 149 C317 163 316 178 316 192 C316 267 331 316 365 366 C372 368 380 367 388 367 C396 367 409 364 426 352 L404 224 L333 144 L318 149 Z " />
<glyph glyph-name="A" unicode="A" horiz-adv-x="427" d="M-44 0 L140 0 L161 92 L203 92 L192 0 L378 0 L401 583 L143 583 L-44 0 Z M243 440 L248 440 L223 244 L197 244 L243 440 Z " />
<glyph glyph-name="B" unicode="B" horiz-adv-x="464" d="M-10 0 L269 0 C371 0 441 82 441 190 C441 261 400 303 359 309 L359 311 C426 332 465 371 465 468 C465 530 426 583 350 583 L90 583 L-10 0 Z M227 231 C243 231 249 218 249 203 C249 163 235 143 215 143 L206 143 L221 231 L227 231 Z M261 440 C273 440 278 428 278 413 C278 374 265 354 244 354 L242 354 L257 440 L261 440 Z " />
<glyph glyph-name="C" unicode="C" horiz-adv-x="363" d="M176 -13 C218 -13 272 -5 301 12 L325 154 C299 144 283 145 270 145 C230 145 215 182 215 230 C215 350 254 436 320 436 C336 436 353 435 371 424 L398 573 C373 587 327 596 293 596 C96 596 14 400 14 179 C14 51 71 -13 176 -13 L176 -13 Z " />
<glyph glyph-name="D" unicode="D" horiz-adv-x="485" d="M-10 0 L236 0 C341 0 483 128 483 377 C483 525 399 583 338 583 L90 583 L-10 0 Z M257 430 C276 430 288 410 288 371 C288 284 268 153 208 153 L255 430 L257 430 Z " />
<glyph glyph-name="E" unicode="E" horiz-adv-x="375" d="M-10 0 L309 0 L334 153 L208 153 L219 221 L331 221 L357 364 L244 364 L255 430 L380 430 L407 583 L90 583 L-10 0 Z " />
<glyph glyph-name="F" unicode="F" horiz-adv-x="345" d="M-10 0 L182 0 L214 187 L307 187 L332 330 L238 330 L255 430 L362 430 L388 583 L90 583 L-10 0 Z " />
<glyph glyph-name="G" unicode="G" horiz-adv-x="456" d="M235 -13 C298 -13 337 -6 394 21 L446 319 L263 319 L231 143 C216 147 208 175 208 210 C208 334 244 427 362 427 C396 427 421 425 447 413 L474 569 C432 591 394 596 345 596 C98 596 12 398 12 195 C12 59 83 -13 235 -13 L235 -13 Z " />
<glyph glyph-name="H" unicode="H" horiz-adv-x="504" d="M235 0 L427 0 L527 583 L335 583 L299 374 L246 374 L282 583 L90 583 L-10 0 L182 0 L220 221 L273 221 L235 0 Z " />
<glyph glyph-name="I" unicode="I" horiz-adv-x="259" d="M-10 0 L182 0 L282 583 L90 583 L-10 0 Z " />
<glyph glyph-name="J" unicode="J" horiz-adv-x="260" d="M73 -119 C145 -19 200 89 216 179 L285 583 L93 583 L23 175 C9 92 -24 3 -77 -88 L73 -119 Z " />
<glyph glyph-name="K" unicode="K" horiz-adv-x="474" d="M-10 0 L182 0 L228 267 L225 0 L418 0 L418 332 L516 583 L334 583 L236 317 L282 583 L90 583 L-10 0 Z " />
<glyph glyph-name="L" unicode="L" horiz-adv-x="343" d="M-10 0 L291 0 L317 153 L208 153 L282 583 L90 583 L-10 0 Z " />
<glyph glyph-name="M" unicode="M" horiz-adv-x="634" d="M-22 0 L138 0 L198 309 L204 309 L173 0 L352 0 L430 307 L435 307 L389 0 L566 0 L647 583 L408 583 L334 286 L328 286 L356 583 L102 583 L-22 0 Z " />
<glyph glyph-name="N" unicode="N" horiz-adv-x="494" d="M-10 0 L165 0 L199 201 L201 201 L264 0 L417 0 L517 583 L332 583 L300 395 L298 395 L232 583 L90 583 L-10 0 Z " />
<glyph glyph-name="O" unicode="O" horiz-adv-x="479" d="M187 -13 C408 -13 480 224 480 397 C480 515 427 596 302 596 C82 596 11 352 11 182 C11 63 70 -13 187 -13 L187 -13 Z M218 135 C207 135 204 148 204 172 C204 221 238 448 272 448 C281 448 287 432 287 407 C287 352 248 135 218 135 L218 135 Z " />
<glyph glyph-name="P" unicode="P" horiz-adv-x="461" d="M-10 0 L182 0 L208 151 L221 151 C431 151 475 302 475 427 C475 513 435 583 307 583 L90 583 L-10 0 Z M278 395 C278 358 273 298 232 294 L257 440 C275 437 278 419 278 395 L278 395 Z " />
<glyph glyph-name="Q" unicode="Q" horiz-adv-x="479" d="M187 -13 C208 -13 227 -10 246 -6 L266 -117 L433 -117 L439 -99 L347 43 C444 123 480 276 480 397 C480 515 427 596 302 596 C82 596 11 352 11 182 C11 63 70 -13 187 -13 L187 -13 Z M218 135 C207 135 204 148 204 172 C204 221 238 448 272 448 C281 448 287 432 287 407 C287 352 248 135 218 135 L218 135 Z " />
<glyph glyph-name="R" unicode="R" horiz-adv-x="469" d="M-10 0 L182 0 L208 151 L222 151 L218 0 L414 0 L389 215 C436 255 474 316 474 410 C474 505 424 583 307 583 L90 583 L-10 0 Z M278 398 C278 362 273 298 232 294 L257 440 C274 437 278 422 278 398 L278 398 Z " />
<glyph glyph-name="S" unicode="S" horiz-adv-x="368" d="M-19 8 C23 -8 73 -13 112 -13 C253 -13 344 59 344 215 C344 276 314 310 284 336 C254 362 224 378 224 402 C224 426 248 443 281 443 C319 443 346 436 364 423 L390 570 C364 589 317 596 261 596 C149 596 43 525 43 391 C43 322 73 285 104 258 C134 232 164 215 164 185 C164 164 149 144 116 144 C75 144 41 152 9 167 L-19 8 Z " />
<glyph glyph-name="T" unicode="T" horiz-adv-x="365" d="M39 430 L122 430 L48 0 L241 0 L315 430 L389 430 L415 583 L65 583 L39 430 Z " />
<glyph glyph-name="U" unicode="U" horiz-adv-x="485" d="M199 -13 C341 -13 420 49 454 239 L513 583 L329 583 L268 226 C255 149 243 135 228 135 C215 135 209 143 209 166 C209 180 211 199 216 225 L277 583 L86 583 L23 212 C19 188 17 166 17 146 C17 28 90 -13 199 -13 L199 -13 Z " />
<glyph glyph-name="V" unicode="V" horiz-adv-x="424" d="M479 583 L294 583 L200 168 L197 168 L242 583 L57 583 L49 0 L279 0 L479 583 Z " />
<glyph glyph-name="W" unicode="W" horiz-adv-x="662" d="M713 583 L528 583 L448 229 L445 229 L483 583 L301 583 L210 229 L207 229 L255 583 L67 583 L27 0 L258 0 L340 314 L343 314 L311 0 L540 0 L713 583 Z " />
<glyph glyph-name="X" unicode="X" horiz-adv-x="439" d="M65 583 L100 293 L-32 0 L157 0 L206 168 L199 0 L387 0 L356 297 L485 583 L298 583 L247 411 L252 583 L65 583 Z " />
<glyph glyph-name="Y" unicode="Y" horiz-adv-x="401" d="M461 583 L293 583 L225 358 L223 358 L234 583 L51 583 L91 183 L60 0 L251 0 L280 169 L461 583 Z " />
<glyph glyph-name="Z" unicode="Z" horiz-adv-x="352" d="M292 0 L317 153 L224 153 L397 579 L397 583 L73 583 L47 430 L139 430 L28 153 L27 153 L27 152 L-32 3 L-31 0 L292 0 Z " />
<glyph glyph-name="bracketleft" unicode="&#x5b;" horiz-adv-x="232" d="M-47 -207 L130 -207 L149 -99 L104 -99 L217 544 L262 544 L282 653 L105 653 L-47 -207 Z " />
<glyph glyph-name="backslash" unicode="&#x5c;" horiz-adv-x="564" d="M207 658 L92 658 L367 -82 L484 -82 L207 658 Z " />
<glyph glyph-name="bracketright" unicode="&#x5d;" horiz-adv-x="233" d="M268 653 L91 653 L71 544 L116 544 L3 -99 L-42 -99 L-60 -207 L116 -207 L268 653 Z " />
<glyph glyph-name="asciicircum" unicode="&#x5e;" horiz-adv-x="396" d="M21 230 L181 230 L235 400 L224 230 L395 230 L393 583 L142 583 L21 230 Z " />
<glyph glyph-name="underscore" unicode="&#x5f;" horiz-adv-x="607" d="M-24 -185 L475 -185 L494 -80 L-5 -80 L-24 -185 Z " />
<glyph glyph-name="grave" unicode="&#x60;" horiz-adv-x="298" d="M327 522 L268 673 L100 673 L203 522 L327 522 Z " />
<glyph glyph-name="a" unicode="a" horiz-adv-x="433" d="M360 0 L439 459 L272 459 L268 438 C249 456 223 469 195 469 C118 469 74 428 54 380 C26 306 -2 146 -2 48 C-2 36 -1 12 -1 0 L150 0 L208 98 L191 0 L360 0 Z M178 151 C180 185 182 216 186 244 C193 286 200 322 211 355 C216 354 222 353 227 349 C234 344 241 336 248 323 L228 213 L184 146 L178 151 Z " />
<glyph glyph-name="b" unicode="b" horiz-adv-x="423" d="M-10 41 C13 20 93 -11 170 -11 C345 -11 418 188 418 347 C418 427 392 469 337 469 C299 469 250 420 217 379 L264 653 L96 653 L-10 41 Z M237 318 L244 314 C244 296 242 275 240 255 C233 187 215 116 198 116 C190 116 181 121 173 128 L198 269 C210 286 222 302 237 318 L237 318 Z " />
<glyph glyph-name="c" unicode="c" horiz-adv-x="345" d="M241 191 C219 160 203 145 183 131 L178 136 C179 160 181 184 183 207 C188 252 196 294 209 333 C216 334 224 335 232 335 C264 335 303 325 324 312 L355 444 C335 457 249 469 220 469 C131 469 87 455 53 372 C10 267 -1 135 -1 26 L-1 1 L167 -12 C229 12 299 73 324 119 L241 191 Z " />
<glyph glyph-name="d" unicode="d" horiz-adv-x="432" d="M360 0 L472 653 L305 653 L267 438 C249 456 223 469 195 469 C118 469 74 428 54 380 C26 306 -2 146 -2 48 C-2 36 -1 12 -1 0 L150 0 L208 97 L191 0 L360 0 Z M178 151 C180 185 182 216 186 244 C193 286 200 322 211 355 C216 354 222 353 227 349 C234 344 240 336 247 324 L228 211 L184 146 L178 151 Z " />
<glyph glyph-name="e" unicode="e" horiz-adv-x="403" d="M375 89 L354 204 C303 176 222 135 181 126 L175 131 L175 161 C237 187 349 246 393 287 L393 405 C353 455 311 469 240 469 C143 469 60 389 35 324 C9 257 -1 168 -1 86 C-1 56 0 27 2 0 L153 -12 C211 5 314 49 375 89 L375 89 Z M207 345 C210 345 215 346 219 345 C227 344 236 340 240 333 L240 291 C217 268 198 258 179 243 C183 278 191 310 207 345 L207 345 Z " />
<glyph glyph-name="f" unicode="f" horiz-adv-x="266" d="M30 336 L60 336 L4 11 C-4 -31 -9 -64 -17 -89 C-36 -88 -55 -81 -69 -71 L-92 -194 C-56 -205 -19 -211 8 -211 C109 -211 147 -133 170 9 L228 336 L268 336 L289 459 L249 459 C254 488 259 505 266 528 C274 529 286 528 298 526 C310 524 322 520 330 515 L362 645 C331 655 301 659 274 659 C263 659 252 658 241 657 C159 644 104 581 85 475 L82 459 L51 459 L30 336 Z " />
<glyph glyph-name="g" unicode="g" horiz-adv-x="432" d="M124 -213 C230 -213 274 -184 299 -149 C323 -114 347 -74 357 -13 L439 459 L272 459 L268 438 C249 456 223 469 195 469 C118 469 74 428 54 380 C26 306 -2 146 -2 48 C-2 36 -1 12 -1 0 L150 0 L209 99 C189 -19 179 -66 174 -78 C159 -79 146 -80 133 -80 C83 -80 42 -70 -2 -49 L-29 -183 C14 -201 68 -213 124 -213 L124 -213 Z M178 151 C180 185 182 216 186 244 C193 286 200 322 211 355 C216 354 222 353 227 349 C234 344 241 336 248 323 L228 212 L184 146 L178 151 Z " />
<glyph glyph-name="h" unicode="h" horiz-adv-x="432" d="M153 0 L197 255 C213 281 226 295 237 302 L242 298 C242 276 236 241 231 210 L195 0 L363 0 L414 303 C418 327 420 349 420 369 C420 432 397 469 347 469 C309 469 258 434 217 371 L265 653 L98 653 L-16 0 L153 0 Z " />
<glyph glyph-name="i" unicode="i" horiz-adv-x="225" d="M152 0 L232 459 L65 459 L-16 0 L152 0 Z M243 529 L277 684 L104 684 L84 567 L243 529 Z " />
<glyph glyph-name="j" unicode="j" horiz-adv-x="224" d="M-16 0 C-25 -52 -41 -86 -88 -151 L29 -221 C87 -157 136 -79 155 26 L232 459 L65 459 L-16 0 Z M243 529 L277 684 L104 684 L84 567 L243 529 Z " />
<glyph glyph-name="k" unicode="k" horiz-adv-x="432" d="M153 0 L195 245 C217 287 231 303 246 316 L249 311 C242 264 226 232 212 203 L204 163 L203 0 L377 0 L372 192 C399 240 425 332 434 411 C435 425 436 445 436 459 L282 469 C267 456 243 426 219 387 L265 653 L98 653 L-16 0 L153 0 Z " />
<glyph glyph-name="l" unicode="l" horiz-adv-x="225" d="M153 0 L265 653 L98 653 L-16 0 L153 0 Z " />
<glyph glyph-name="m" unicode="m" horiz-adv-x="638" d="M152 0 L196 255 C212 281 226 295 237 302 L242 298 C242 276 236 241 231 210 L195 0 L363 0 L407 263 C421 284 433 295 443 302 L448 298 C448 276 442 241 437 210 L401 0 L569 0 L620 303 C624 327 626 349 626 369 C626 432 603 469 553 469 C514 469 462 433 420 368 C420 432 397 469 347 469 C309 469 258 434 217 371 L232 459 L65 459 L-16 0 L152 0 Z " />
<glyph glyph-name="n" unicode="n" horiz-adv-x="432" d="M152 0 L196 255 C212 281 226 295 237 302 L242 298 C242 276 236 241 231 210 L195 0 L363 0 L414 303 C418 327 420 349 420 369 C420 432 397 469 347 469 C309 469 258 434 217 371 L232 459 L65 459 L-16 0 L152 0 Z " />
<glyph glyph-name="o" unicode="o" horiz-adv-x="416" d="M187 103 C177 103 172 109 167 116 C167 129 168 143 169 158 C176 224 193 302 214 353 C226 353 235 346 240 340 C240 321 238 302 236 285 C229 215 213 159 187 103 L187 103 Z M149 -8 C258 -8 323 38 352 88 C384 145 395 217 406 281 C418 394 353 469 264 469 C147 469 71 415 40 344 C15 286 8 237 -1 154 C-11 64 63 -8 149 -8 L149 -8 Z " />
<glyph glyph-name="p" unicode="p" horiz-adv-x="443" d="M132 -207 L168 0 C191 -7 218 -11 236 -11 C366 -11 435 173 435 342 C435 423 409 469 349 469 C328 469 289 457 245 441 L248 459 L81 459 L64 361 C40 349 20 338 6 329 L27 242 L44 250 L-35 -207 L132 -207 Z M253 318 L261 314 C261 296 259 275 257 255 C250 187 231 116 211 116 C204 116 197 118 189 123 L222 310 L253 318 Z " />
<glyph glyph-name="q" unicode="q" horiz-adv-x="432" d="M323 -207 L439 459 L272 459 L268 438 C249 456 223 469 195 469 C118 469 74 428 54 380 C26 306 -2 146 -2 48 C-2 36 -1 12 -1 0 L150 0 L208 98 L155 -207 L323 -207 Z M178 151 C180 185 182 216 186 244 C193 286 200 322 211 355 C216 354 222 353 227 349 C234 344 241 336 248 323 L228 212 L184 146 L178 151 Z " />
<glyph glyph-name="r" unicode="r" horiz-adv-x="324" d="M152 0 L192 233 C208 252 220 261 234 270 L306 245 L349 446 C336 462 324 469 295 469 C271 469 242 423 215 365 L232 459 L65 459 L-16 0 L152 0 Z " />
<glyph glyph-name="s" unicode="s" horiz-adv-x="304" d="M311 454 C285 464 240 469 204 469 C71 469 24 379 23 317 C23 299 28 277 36 254 C45 226 58 198 69 174 L95 114 C90 113 84 112 78 112 C54 112 25 119 1 128 L-21 7 C6 -1 46 -8 111 -8 C160 -8 205 4 235 31 C258 52 272 82 272 121 C272 169 253 207 234 243 C218 272 204 299 200 328 C199 334 199 337 200 342 C209 344 218 345 227 345 C248 345 268 340 288 333 L311 454 Z " />
<glyph glyph-name="t" unicode="t" horiz-adv-x="304" d="M28 336 L59 336 L5 34 L149 -8 C193 11 241 40 280 70 L274 179 C249 162 221 153 200 147 L198 154 L228 336 L294 336 L315 459 L248 459 L269 583 L103 583 L81 459 L49 459 L28 336 Z " />
<glyph glyph-name="u" unicode="u" horiz-adv-x="432" d="M271 459 L227 204 C211 178 196 164 186 157 L181 161 C181 183 187 218 192 249 L228 459 L60 459 L9 156 C5 132 3 110 3 90 C3 27 26 -10 76 -10 C114 -10 165 25 206 87 L191 0 L358 0 L439 459 L271 459 Z " />
<glyph glyph-name="v" unicode="v" horiz-adv-x="412" d="M272 459 L191 154 L186 154 C187 214 190 265 196 317 C201 361 208 406 216 459 L48 459 C34 379 24 304 24 229 C24 136 36 56 48 0 L309 0 L439 459 L272 459 Z " />
<glyph glyph-name="w" unicode="w" horiz-adv-x="647" d="M507 459 L426 154 L421 154 C422 214 425 265 431 317 C436 361 443 406 451 459 L283 459 C275 416 269 376 265 336 L191 154 L186 154 C187 214 190 265 196 317 C201 361 208 406 216 459 L48 459 C34 380 25 307 25 232 C25 138 36 56 48 0 L211 0 L270 124 C277 76 286 33 293 0 L544 0 L674 459 L507 459 Z " />
<glyph glyph-name="x" unicode="x" horiz-adv-x="426" d="M287 459 L237 335 L230 459 L52 459 L67 244 L-44 0 L127 0 L181 138 L186 0 L366 0 L350 225 L458 459 L287 459 Z " />
<glyph glyph-name="y" unicode="y" horiz-adv-x="412" d="M253 -207 L309 0 L439 459 L272 459 L191 154 L186 154 C187 214 190 265 196 317 C201 361 208 406 216 459 L48 459 C34 379 24 304 24 229 C24 136 36 56 48 0 L142 0 L87 -172 L88 -207 L253 -207 Z " />
<glyph glyph-name="z" unicode="z" horiz-adv-x="319" d="M41 328 L133 328 L-21 93 L-30 0 L256 0 L277 131 L172 131 L329 374 L338 459 L63 459 L41 328 Z " />
<glyph glyph-name="braceleft" unicode="&#x7b;" horiz-adv-x="262" d="M141 -180 L167 -178 L185 -75 L165 -75 C139 -75 130 -66 130 -49 C130 -40 132 -30 136 -17 L180 150 C182 160 184 171 184 181 C184 212 171 240 132 251 C193 272 213 308 218 359 L232 523 C235 563 246 577 280 577 L300 577 L319 682 L283 682 C194 683 118 647 108 543 L88 348 C86 316 67 305 23 305 L7 212 C51 212 63 189 55 159 L7 -31 C2 -49 0 -65 0 -79 C0 -157 64 -184 141 -180 L141 -180 Z " />
<glyph glyph-name="bar" unicode="&#x7c;" horiz-adv-x="202" d="M-26 -92 L105 -92 L241 675 L110 675 L-26 -92 Z " />
<glyph glyph-name="braceright" unicode="&#x7d;" horiz-adv-x="262" d="M120 682 L94 680 L76 577 L96 577 C122 577 131 568 131 551 C131 542 129 532 125 519 L81 352 C79 342 77 331 77 321 C77 290 90 262 129 251 C68 230 48 194 43 143 L29 -21 C26 -61 15 -75 -19 -75 L-39 -75 L-58 -180 L-22 -180 C67 -181 143 -145 153 -41 L173 154 C175 186 194 197 238 197 L254 290 C210 290 198 313 206 343 L254 533 C259 551 261 567 261 581 C261 659 197 686 120 682 L120 682 Z " />
<glyph glyph-name="asciitilde" unicode="&#x7e;" horiz-adv-x="433" d="M281 181 C348 181 394 225 420 254 L387 346 C359 322 312 321 301 321 C250 323 212 345 156 345 C95 345 41 300 13 260 L46 177 C78 203 119 207 136 207 C188 207 225 181 281 181 L281 181 Z " />
<glyph glyph-name="uni00A0" unicode="&#xa0;" horiz-adv-x="160" d="" />
<glyph glyph-name="exclamdown" unicode="&#xa1;" horiz-adv-x="240" d="M183 106 L190 252 L49 252 L5 109 L-36 -127 L142 -127 L183 106 Z M239 453 L84 469 L38 311 L209 311 L239 453 Z " />
<glyph glyph-name="cent" unicode="&#xa2;" horiz-adv-x="366" d="M245 191 C223 160 207 145 187 131 L182 136 C183 160 185 184 187 207 C192 252 200 294 213 333 C220 334 228 335 236 335 C268 335 307 325 328 312 L359 444 C348 451 316 458 286 463 L302 552 L260 552 L245 468 C236 468 229 469 224 469 C135 469 91 455 57 372 C14 267 3 135 3 26 L3 1 L161 -11 L148 -85 L190 -85 L205 4 C257 34 307 81 328 119 L245 191 Z " />
<glyph glyph-name="sterling" unicode="&#xa3;" horiz-adv-x="312" d="M209 178 C210 186 211 194 213 203 L254 203 L276 328 L232 328 C238 363 242 394 246 413 C251 440 264 453 283 453 C291 453 300 451 311 446 L333 572 C315 588 280 596 239 596 C178 596 91 550 70 430 L55 328 L42 328 L20 203 L40 203 L33 158 L28 135 L11 135 L-8 22 C-8 21 -8 21 -9 20 L-8 20 L-12 0 L245 0 L268 135 L199 135 C203 149 206 164 209 178 L209 178 Z " />
<glyph glyph-name="currency" unicode="&#xa4;" horiz-adv-x="426" d="M121 480 L48 424 L104 353 C77 322 62 272 62 228 C62 210 65 190 73 170 L-8 103 L36 45 L116 111 C138 96 152 89 182 89 C214 89 230 97 256 110 L313 40 L378 103 L325 166 C356 204 370 254 370 300 C370 320 367 338 360 353 L437 420 L390 484 L311 416 C291 429 274 435 249 435 C222 435 200 427 172 413 L121 480 Z M225 324 C243 324 249 313 249 293 C249 225 225 199 203 199 C187 199 180 208 180 230 C180 238 181 249 183 261 C190 302 201 324 225 324 L225 324 Z " />
<glyph glyph-name="yen" unicode="&#xa5;" horiz-adv-x="447" d="M373 169 L307 169 L320 200 L379 200 L399 317 L371 317 L488 583 L318 583 L243 324 L240 324 L259 583 L74 583 L98 317 L72 317 L52 200 L109 200 L112 169 L46 169 L26 52 L92 52 L83 0 L276 0 L285 52 L353 52 L373 169 Z " />
<glyph glyph-name="brokenbar" unicode="&#xa6;" horiz-adv-x="203" d="M-26 -92 L105 -92 L164 237 L33 237 L-26 -92 Z M52 346 L183 346 L242 675 L111 675 L52 346 Z " />
<glyph glyph-name="section" unicode="&#xa7;" horiz-adv-x="413" d="M98 -117 C267 -117 375 16 375 164 C375 225 351 297 291 356 L212 434 C238 451 271 461 306 461 C331 461 373 456 401 440 L425 573 C401 585 365 591 308 591 C143 591 32 452 32 308 C32 240 62 175 119 118 L192 45 C165 25 132 14 95 14 C69 14 36 16 1 30 L-21 -97 C7 -109 52 -117 98 -117 L98 -117 Z M149 312 C149 322 150 332 151 341 L170 323 C214 279 253 234 253 169 C253 157 252 147 250 136 L234 152 C207 179 149 233 149 312 L149 312 Z " />
<glyph glyph-name="dieresis" unicode="&#xa8;" horiz-adv-x="394" d="M110 565 L242 533 L271 662 L127 662 L110 565 Z M275 565 L407 533 L436 662 L292 662 L275 565 Z " />
<glyph glyph-name="copyright" unicode="&#xa9;" horiz-adv-x="436" d="M224 -14 C342 -14 415 105 415 289 C415 471 351 592 224 592 C107 592 33 471 33 289 C33 104 97 -14 224 -14 L224 -14 Z M224 36 C150 36 88 124 88 289 C88 452 146 542 224 542 C295 542 360 456 360 289 C360 133 308 36 224 36 L224 36 Z M237 116 C251 116 287 128 294 141 L294 236 C277 221 263 215 253 215 C228 215 222 254 222 290 C222 330 229 364 254 364 C264 364 277 359 294 346 L294 445 C285 456 253 464 241 464 C180 464 126 407 126 279 C126 156 184 116 237 116 L237 116 Z " />
<glyph glyph-name="ordfeminine" unicode="&#xaa;" horiz-adv-x="365" d="M341 381 L400 702 L271 702 L268 687 C254 699 235 709 214 709 C157 709 120 681 105 647 C84 595 68 508 64 438 C63 417 64 398 64 381 L181 381 L223 449 L211 381 L341 381 Z M45 266 L341 266 L355 342 L59 342 L45 266 Z M202 487 C203 510 205 532 208 552 C213 581 218 606 226 629 C235 628 244 622 253 608 L238 529 L206 483 L202 487 Z " />
<glyph glyph-name="guillemotleft" unicode="&#xab;" horiz-adv-x="464" d="M61 46 L219 46 L192 226 L273 405 L124 405 L11 226 L61 46 Z M251 46 L409 46 L382 226 L463 405 L314 405 L201 226 L251 46 Z " />
<glyph glyph-name="logicalnot" unicode="&#xac;" horiz-adv-x="380" d="M211 101 L319 101 L361 339 L40 339 L20 225 L233 225 L211 101 Z " />
<glyph glyph-name="registered" unicode="&#xae;" horiz-adv-x="289" d="M178 258 C248 258 297 331 297 454 C297 576 253 651 178 651 C110 651 59 572 59 454 C59 333 109 258 178 258 L178 258 Z M178 295 C124 295 100 363 100 454 C100 545 120 614 178 614 C234 614 255 545 255 454 C255 350 237 295 178 295 L178 295 Z M120 354 L175 354 L175 402 L178 402 L184 354 L241 354 L226 427 C235 443 238 463 238 483 C238 530 223 561 199 561 L120 561 L120 354 Z M182 483 C182 467 180 462 175 460 L175 503 C179 501 182 494 182 483 L182 483 Z " />
<glyph glyph-name="macron" unicode="&#xaf;" horiz-adv-x="355" d="M114 546 L373 546 L393 663 L134 663 L114 546 Z " />
<glyph glyph-name="degree" unicode="&#xb0;" horiz-adv-x="298" d="M155 313 C259 313 317 388 317 478 C317 540 284 592 210 592 C106 592 49 514 49 423 C49 360 82 313 155 313 L155 313 Z M175 413 C164 413 166 423 171 452 C176 479 178 490 190 490 C200 490 198 480 194 454 C188 425 186 413 175 413 L175 413 Z " />
<glyph glyph-name="plusminus" unicode="&#xb1;" horiz-adv-x="288" d="M33 281 L109 281 L90 173 L171 173 L190 281 L265 281 L281 373 L206 373 L226 483 L145 483 L125 373 L49 373 L33 281 Z M-16 0 L216 0 L233 102 L1 102 L-16 0 Z " />
<glyph glyph-name="twosuperior" unicode="&#xb2;" horiz-adv-x="227" d="M245 400 L256 476 L150 476 C203 527 287 587 287 656 C287 708 240 726 186 726 C161 726 115 720 95 711 L81 634 C88 637 101 638 115 638 C133 638 151 635 156 628 C142 582 108 546 47 475 L35 400 L245 400 Z " />
<glyph glyph-name="threesuperior" unicode="&#xb3;" horiz-adv-x="216" d="M35 410 C48 403 94 395 120 395 C198 395 251 436 251 502 C251 546 215 568 196 581 L196 583 C224 594 275 606 275 664 C275 713 212 726 170 726 C146 726 111 722 90 716 L80 630 C88 633 99 635 109 635 C122 635 142 633 144 626 C136 607 114 588 99 573 L94 542 C108 530 122 513 125 489 C115 480 103 478 91 478 C78 478 66 480 55 484 L35 410 Z " />
<glyph glyph-name="acute" unicode="&#xb4;" horiz-adv-x="298" d="M234 522 L337 673 L169 673 L110 522 L234 522 Z " />
<glyph glyph-name="mu" unicode="&#xb5;" horiz-adv-x="451" d="M-46 -207 L122 -207 L162 25 L173 35 C188 49 202 67 216 87 C214 78 214 70 214 62 C214 20 238 -8 296 -8 C323 -8 354 -3 390 9 L412 133 C409 132 407 131 405 131 C392 131 395 150 402 188 L449 459 L281 459 L237 204 C221 178 206 164 196 157 L191 161 C191 183 197 218 202 249 L238 459 L70 459 L-46 -207 Z " />
<glyph glyph-name="paragraph" unicode="&#xb6;" horiz-adv-x="551" d="M128 -207 L270 -207 L385 448 L401 448 L286 -207 L427 -207 L566 583 L271 583 C135 583 34 488 34 330 C34 222 105 150 191 150 L128 -207 Z " />
<glyph glyph-name="periodcentered" unicode="&#xb7;" horiz-adv-x="230" d="M29 264 L188 226 L222 381 L49 381 L29 264 Z " />
<glyph glyph-name="cedilla" unicode="&#xb8;" horiz-adv-x="362" d="M88 -214 C153 -214 229 -184 229 -114 C229 -76 203 -47 153 -40 L168 9 L91 9 L63 -66 L61 -78 C88 -82 104 -94 104 -109 C104 -123 93 -130 75 -130 C63 -130 41 -127 29 -118 L9 -198 C31 -209 52 -214 88 -214 L88 -214 Z " />
<glyph glyph-name="onesuperior" unicode="&#xb9;" horiz-adv-x="193" d="M195 400 L255 721 L140 721 L81 696 L64 616 L106 623 L66 400 L195 400 Z " />
<glyph glyph-name="ordmasculine" unicode="&#xba;" horiz-adv-x="359" d="M35 266 L331 266 L345 342 L49 342 L35 266 Z M215 453 C208 453 204 457 200 462 C200 471 201 481 202 492 C207 538 219 592 235 628 C244 628 250 623 254 619 C254 606 253 592 251 580 C246 531 234 492 215 453 L215 453 Z M182 375 C249 375 318 405 339 440 C363 479 375 522 382 589 C391 668 338 709 272 709 C185 709 125 668 102 619 C84 578 79 546 72 488 C65 425 118 375 182 375 L182 375 Z " />
<glyph glyph-name="guillemotright" unicode="&#xbb;" horiz-adv-x="465" d="M203 408 L45 408 L72 228 L-9 49 L140 49 L253 228 L203 408 Z M394 408 L236 408 L263 228 L182 49 L331 49 L444 228 L394 408 Z " />
<glyph glyph-name="onequarter" unicode="&#xbc;" horiz-adv-x="539" d="M186 262 L246 583 L131 583 L72 558 L55 478 L97 485 L57 262 L186 262 Z M486 69 L500 146 L484 146 L517 321 L357 321 L256 146 L241 69 L342 69 L330 0 L457 0 L470 69 L486 69 Z M327 146 L375 244 L357 146 L327 146 Z M132 0 L466 578 L466 583 L402 583 L60 5 L60 0 L132 0 Z " />
<glyph glyph-name="onehalf" unicode="&#xbd;" horiz-adv-x="560" d="M186 263 L246 584 L131 584 L72 559 L55 479 L97 486 L57 263 L186 263 Z M496 0 L507 76 L401 76 C454 127 538 187 538 256 C538 308 491 326 437 326 C412 326 366 320 346 311 L332 234 C339 237 352 238 366 238 C384 238 402 235 407 228 C393 182 359 146 298 75 L286 0 L496 0 Z M133 0 L467 578 L467 583 L403 583 L61 5 L61 0 L133 0 Z " />
<glyph glyph-name="threequarters" unicode="&#xbe;" horiz-adv-x="547" d="M23 281 C36 274 82 266 108 266 C186 266 239 307 239 373 C239 417 203 439 184 452 L184 454 C212 465 263 477 263 535 C263 584 200 597 158 597 C134 597 99 593 78 587 L68 501 C76 504 87 506 97 506 C110 506 130 504 132 497 C124 478 102 459 87 444 L82 413 C96 401 110 384 113 360 C103 351 91 349 79 349 C66 349 54 351 43 355 L23 281 Z M497 69 L511 146 L495 146 L528 321 L368 321 L267 146 L252 69 L353 69 L341 0 L468 0 L481 69 L497 69 Z M338 146 L386 244 L368 146 L338 146 Z M141 0 L475 578 L475 583 L411 583 L69 5 L69 0 L141 0 Z " />
<glyph glyph-name="questiondown" unicode="&#xbf;" horiz-adv-x="291" d="M-27 11 C-27 -84 32 -128 180 -147 L224 -35 C176 -23 158 -20 122 3 C164 45 195 82 226 124 C232 132 233 140 233 148 C233 175 209 221 199 245 L78 237 L94 174 L41 116 C-6 64 -27 41 -27 11 L-27 11 Z M265 452 L110 468 L61 310 L232 310 L265 452 Z " />
<glyph glyph-name="Agrave" unicode="&#xc0;" horiz-adv-x="427" d="M-44 0 L140 0 L161 92 L203 92 L192 0 L378 0 L401 583 L143 583 L-44 0 Z M342 630 L283 781 L115 781 L219 630 L342 630 Z M243 440 L248 440 L223 244 L197 244 L243 440 Z " />
<glyph glyph-name="Aacute" unicode="&#xc1;" horiz-adv-x="427" d="M-44 0 L140 0 L161 92 L203 92 L192 0 L378 0 L401 583 L143 583 L-44 0 Z M340 630 L444 781 L276 781 L217 630 L340 630 Z M243 440 L248 440 L223 244 L197 244 L243 440 Z " />
<glyph glyph-name="Acircumflex" unicode="&#xc2;" horiz-adv-x="427" d="M-44 0 L140 0 L161 92 L203 92 L192 0 L378 0 L401 583 L143 583 L-44 0 Z M240 781 L144 630 L274 630 L296 717 L306 717 L298 630 L428 630 L383 781 L240 781 Z M243 440 L248 440 L223 244 L197 244 L243 440 Z " />
<glyph glyph-name="Atilde" unicode="&#xc3;" horiz-adv-x="427" d="M-44 0 L140 0 L161 92 L203 92 L192 0 L378 0 L401 583 L143 583 L-44 0 Z M418 767 C398 753 363 739 347 739 C306 739 297 767 251 767 C207 767 161 736 139 710 L147 627 C168 643 192 657 214 657 C252 657 267 627 313 627 C362 627 398 654 416 678 L418 767 Z M243 440 L248 440 L223 244 L197 244 L243 440 Z " />
<glyph glyph-name="Adieresis" unicode="&#xc4;" horiz-adv-x="427" d="M-44 0 L140 0 L161 92 L203 92 L192 0 L378 0 L401 583 L143 583 L-44 0 Z M125 662 L257 630 L286 759 L142 759 L125 662 Z M290 662 L422 630 L451 759 L307 759 L290 662 Z M243 440 L248 440 L223 244 L197 244 L243 440 Z " />
<glyph glyph-name="Aring" unicode="&#xc5;" horiz-adv-x="427" d="M-44 0 L140 0 L161 92 L203 92 L192 0 L378 0 L401 583 L143 583 L-44 0 Z M301 816 C235 816 173 784 173 694 C173 637 209 606 264 606 C330 606 391 637 391 733 C391 789 354 816 301 816 L301 816 Z M243 440 L248 440 L223 244 L197 244 L243 440 Z M287 753 C299 753 304 745 304 732 C304 707 296 674 273 674 C262 674 257 685 257 700 C257 731 270 753 287 753 L287 753 Z " />
<glyph glyph-name="AE" unicode="&#xc6;" horiz-adv-x="576" d="M184 0 L509 0 L535 153 L403 153 L415 221 L531 221 L557 364 L440 364 L451 430 L582 430 L609 583 L150 583 L-43 0 L131 0 L155 92 L200 92 L184 0 Z M250 445 L262 445 L226 244 L196 244 L250 445 Z " />
<glyph glyph-name="Ccedilla" unicode="&#xc7;" horiz-adv-x="363" d="M133 -213 C198 -213 274 -183 274 -113 C274 -75 248 -46 198 -39 L206 -12 C241 -9 278 -1 301 12 L325 154 C299 144 283 145 270 145 C230 145 215 182 215 230 C215 350 254 436 320 436 C336 436 353 435 371 424 L398 573 C373 587 327 596 293 596 C96 596 14 400 14 179 C14 71 54 9 129 -8 L108 -65 L106 -77 C133 -81 149 -93 149 -108 C149 -122 138 -129 120 -129 C108 -129 86 -126 74 -117 L54 -197 C76 -208 97 -213 133 -213 L133 -213 Z " />
<glyph glyph-name="Egrave" unicode="&#xc8;" horiz-adv-x="375" d="M-10 0 L309 0 L334 153 L208 153 L219 221 L331 221 L357 364 L244 364 L255 430 L380 430 L407 583 L90 583 L-10 0 Z M335 630 L276 781 L108 781 L212 630 L335 630 Z " />
<glyph glyph-name="Eacute" unicode="&#xc9;" horiz-adv-x="375" d="M-10 0 L309 0 L334 153 L208 153 L219 221 L331 221 L357 364 L244 364 L255 430 L380 430 L407 583 L90 583 L-10 0 Z M318 630 L422 781 L254 781 L195 630 L318 630 Z " />
<glyph glyph-name="Ecircumflex" unicode="&#xca;" horiz-adv-x="375" d="M-10 0 L309 0 L334 153 L208 153 L219 221 L331 221 L357 364 L244 364 L255 430 L380 430 L407 583 L90 583 L-10 0 Z M211 780 L115 629 L245 629 L267 716 L277 716 L269 629 L399 629 L354 780 L211 780 Z " />
<glyph glyph-name="Edieresis" unicode="&#xcb;" horiz-adv-x="375" d="M-10 0 L309 0 L334 153 L208 153 L219 221 L331 221 L357 364 L244 364 L255 430 L380 430 L407 583 L90 583 L-10 0 Z M269 663 L401 631 L430 760 L286 760 L269 663 Z M104 663 L236 631 L265 760 L121 760 L104 663 Z " />
<glyph glyph-name="Igrave" unicode="&#xcc;" horiz-adv-x="259" d="M252 630 L193 781 L25 781 L129 630 L252 630 Z M-10 0 L182 0 L282 583 L90 583 L-10 0 Z " />
<glyph glyph-name="Iacute" unicode="&#xcd;" horiz-adv-x="259" d="M255 630 L359 781 L191 781 L132 630 L255 630 Z M-10 0 L182 0 L282 583 L90 583 L-10 0 Z " />
<glyph glyph-name="Icircumflex" unicode="&#xce;" horiz-adv-x="259" d="M142 780 L46 629 L176 629 L198 716 L208 716 L200 629 L330 629 L285 780 L142 780 Z M-10 0 L182 0 L282 583 L90 583 L-10 0 Z " />
<glyph glyph-name="Idieresis" unicode="&#xcf;" horiz-adv-x="259" d="M38 663 L170 631 L199 760 L55 760 L38 663 Z M203 663 L335 631 L364 760 L220 760 L203 663 Z M-10 0 L182 0 L282 583 L90 583 L-10 0 Z " />
<glyph glyph-name="Eth" unicode="&#xd0;" horiz-adv-x="487" d="M10 236 L32 236 L-8 0 L238 0 C343 0 485 128 485 377 C485 525 401 583 340 583 L92 583 L52 349 L30 349 L10 236 Z M254 236 L274 349 L244 349 L258 430 L259 430 C278 430 290 410 290 371 C290 284 270 153 210 153 L224 236 L254 236 Z " />
<glyph glyph-name="Ntilde" unicode="&#xd1;" horiz-adv-x="494" d="M459 767 C439 753 404 739 388 739 C347 739 338 767 292 767 C248 767 202 736 180 710 L188 627 C209 643 233 657 255 657 C293 657 308 627 354 627 C403 627 439 654 457 678 L459 767 Z M-10 0 L165 0 L199 201 L201 201 L264 0 L417 0 L517 583 L332 583 L300 395 L298 395 L232 583 L90 583 L-10 0 Z " />
<glyph glyph-name="Ograve" unicode="&#xd2;" horiz-adv-x="479" d="M369 630 L310 781 L142 781 L246 630 L369 630 Z M187 -13 C408 -13 480 224 480 397 C480 515 427 596 302 596 C82 596 11 352 11 182 C11 63 70 -13 187 -13 L187 -13 Z M218 135 C207 135 204 148 204 172 C204 221 238 448 272 448 C281 448 287 432 287 407 C287 352 248 135 218 135 L218 135 Z " />
<glyph glyph-name="Oacute" unicode="&#xd3;" horiz-adv-x="479" d="M358 630 L462 781 L294 781 L235 630 L358 630 Z M187 -13 C408 -13 480 224 480 397 C480 515 427 596 302 596 C82 596 11 352 11 182 C11 63 70 -13 187 -13 L187 -13 Z M218 135 C207 135 204 148 204 172 C204 221 238 448 272 448 C281 448 287 432 287 407 C287 352 248 135 218 135 L218 135 Z " />
<glyph glyph-name="Ocircumflex" unicode="&#xd4;" horiz-adv-x="479" d="M187 -13 C408 -13 480 224 480 397 C480 515 427 596 302 596 C82 596 11 352 11 182 C11 63 70 -13 187 -13 L187 -13 Z M218 135 C207 135 204 148 204 172 C204 221 238 448 272 448 C281 448 287 432 287 407 C287 352 248 135 218 135 L218 135 Z M259 781 L163 630 L293 630 L315 717 L325 717 L317 630 L447 630 L402 781 L259 781 Z " />
<glyph glyph-name="Otilde" unicode="&#xd5;" horiz-adv-x="479" d="M456 766 C436 752 401 738 385 738 C344 738 335 766 289 766 C245 766 199 735 177 709 L185 626 C206 642 230 656 252 656 C290 656 305 626 351 626 C400 626 436 653 454 677 L456 766 Z M187 -13 C408 -13 480 224 480 397 C480 515 427 596 302 596 C82 596 11 352 11 182 C11 63 70 -13 187 -13 L187 -13 Z M218 135 C207 135 204 148 204 172 C204 221 238 448 272 448 C281 448 287 432 287 407 C287 352 248 135 218 135 L218 135 Z " />
<glyph glyph-name="Odieresis" unicode="&#xd6;" horiz-adv-x="479" d="M143 662 L275 630 L304 759 L160 759 L143 662 Z M308 662 L440 630 L469 759 L325 759 L308 662 Z M187 -13 C408 -13 480 224 480 397 C480 515 427 596 302 596 C82 596 11 352 11 182 C11 63 70 -13 187 -13 L187 -13 Z M218 135 C207 135 204 148 204 172 C204 221 238 448 272 448 C281 448 287 432 287 407 C287 352 248 135 218 135 L218 135 Z " />
<glyph glyph-name="multiply" unicode="&#xd7;" horiz-adv-x="341" d="M55 127 L164 222 L241 127 L308 187 L232 281 L342 376 L298 436 L185 339 L107 436 L42 376 L117 281 L8 187 L55 127 Z " />
<glyph glyph-name="Oslash" unicode="&#xd8;" horiz-adv-x="479" d="M187 -13 C408 -13 480 224 480 397 C480 451 469 497 445 531 L490 596 L416 596 L400 573 C374 588 342 596 302 596 C82 596 11 352 11 182 C11 133 21 91 41 59 L-10 -13 L67 -13 L85 13 C112 -3 146 -13 187 -13 L187 -13 Z M218 135 C207 135 204 148 204 172 L204 185 L269 279 C255 207 235 135 218 135 L218 135 Z M272 448 C280 448 286 434 287 411 L223 321 C236 387 254 448 272 448 L272 448 Z " />
<glyph glyph-name="Ugrave" unicode="&#xd9;" horiz-adv-x="485" d="M373 630 L314 781 L146 781 L250 630 L373 630 Z M199 -13 C341 -13 420 49 454 239 L513 583 L329 583 L268 226 C255 149 243 135 228 135 C215 135 209 143 209 166 C209 180 211 199 216 225 L277 583 L86 583 L23 212 C19 188 17 166 17 146 C17 28 90 -13 199 -13 L199 -13 Z " />
<glyph glyph-name="Uacute" unicode="&#xda;" horiz-adv-x="485" d="M368 630 L472 781 L304 781 L245 630 L368 630 Z M199 -13 C341 -13 420 49 454 239 L513 583 L329 583 L268 226 C255 149 243 135 228 135 C215 135 209 143 209 166 C209 180 211 199 216 225 L277 583 L86 583 L23 212 C19 188 17 166 17 146 C17 28 90 -13 199 -13 L199 -13 Z " />
<glyph glyph-name="Ucircumflex" unicode="&#xdb;" horiz-adv-x="485" d="M199 -13 C341 -13 420 49 454 239 L513 583 L329 583 L268 226 C255 149 243 135 228 135 C215 135 209 143 209 166 C209 180 211 199 216 225 L277 583 L86 583 L23 212 C19 188 17 166 17 146 C17 28 90 -13 199 -13 L199 -13 Z M260 780 L164 629 L294 629 L316 716 L326 716 L318 629 L448 629 L403 780 L260 780 Z " />
<glyph glyph-name="Udieresis" unicode="&#xdc;" horiz-adv-x="485" d="M156 662 L288 630 L317 759 L173 759 L156 662 Z M321 662 L453 630 L482 759 L338 759 L321 662 Z M199 -13 C341 -13 420 49 454 239 L513 583 L329 583 L268 226 C255 149 243 135 228 135 C215 135 209 143 209 166 C209 180 211 199 216 225 L277 583 L86 583 L23 212 C19 188 17 166 17 146 C17 28 90 -13 199 -13 L199 -13 Z " />
<glyph glyph-name="Yacute" unicode="&#xdd;" horiz-adv-x="401" d="M461 583 L293 583 L225 358 L223 358 L234 583 L51 583 L91 183 L60 0 L251 0 L280 169 L461 583 Z M329 630 L433 781 L265 781 L206 630 L329 630 Z " />
<glyph glyph-name="Thorn" unicode="&#xde;" horiz-adv-x="472" d="M-11 0 L185 0 L199 79 L212 79 C427 79 472 235 472 359 C472 445 431 511 300 511 L274 511 L287 583 L91 583 L-11 0 Z M270 327 C270 290 257 227 224 222 L249 368 C262 366 270 357 270 327 L270 327 Z " />
<glyph glyph-name="germandbls" unicode="&#xdf;" horiz-adv-x="529" d="M30 336 L60 336 L4 11 L-6 -45 C-10 -62 -13 -77 -17 -89 C-36 -88 -55 -81 -69 -71 L-92 -194 C-56 -205 -19 -211 8 -211 C109 -211 147 -133 170 9 L248 448 C254 484 258 503 266 528 C274 529 286 528 298 526 C335 520 349 497 349 456 C349 410 259 385 259 293 C259 265 273 231 290 198 L310 160 C314 152 326 127 334 114 C328 109 297 110 291 110 C271 110 252 115 233 122 L213 7 C241 -1 287 -11 352 -11 C407 -11 442 4 470 34 C489 54 500 76 500 114 C500 162 480 197 460 233 C444 262 425 289 425 318 C425 405 521 421 521 510 C521 581 476 659 324 659 C298 659 275 657 254 654 C147 637 103 575 85 475 L82 459 L51 459 L30 336 Z " />
<glyph glyph-name="agrave" unicode="&#xe0;" horiz-adv-x="433" d="M360 0 L439 459 L272 459 L268 438 C249 456 223 469 195 469 C118 469 74 428 54 380 C26 306 -2 146 -2 48 C-2 36 -1 12 -1 0 L150 0 L208 98 L191 0 L360 0 Z M336 521 L277 672 L109 672 L212 521 L336 521 Z M178 151 C180 185 182 216 186 244 C193 286 200 322 211 355 C216 354 222 353 227 349 C234 344 241 336 248 323 L228 213 L184 146 L178 151 Z " />
<glyph glyph-name="aacute" unicode="&#xe1;" horiz-adv-x="433" d="M360 0 L439 459 L272 459 L268 438 C249 456 223 469 195 469 C118 469 74 428 54 380 C26 306 -2 146 -2 48 C-2 36 -1 12 -1 0 L150 0 L208 98 L191 0 L360 0 Z M329 522 L432 673 L264 673 L205 522 L329 522 Z M178 151 C180 185 182 216 186 244 C193 286 200 322 211 355 C216 354 222 353 227 349 C234 344 241 336 248 323 L228 213 L184 146 L178 151 Z " />
<glyph glyph-name="acircumflex" unicode="&#xe2;" horiz-adv-x="433" d="M360 0 L439 459 L272 459 L268 438 C249 456 223 469 195 469 C118 469 74 428 54 380 C26 306 -2 146 -2 48 C-2 36 -1 12 -1 0 L150 0 L208 98 L191 0 L360 0 Z M232 673 L136 522 L266 522 L288 609 L298 609 L291 522 L421 522 L375 673 L232 673 Z M178 151 C180 185 182 216 186 244 C193 286 200 322 211 355 C216 354 222 353 227 349 C234 344 241 336 248 323 L228 213 L184 146 L178 151 Z " />
<glyph glyph-name="atilde" unicode="&#xe3;" horiz-adv-x="433" d="M360 0 L439 459 L272 459 L268 438 C249 456 223 469 195 469 C118 469 74 428 54 380 C26 306 -2 146 -2 48 C-2 36 -1 12 -1 0 L150 0 L208 98 L191 0 L360 0 Z M422 680 C404 666 368 652 351 652 C310 652 301 680 255 680 C212 680 166 649 143 623 L152 540 C173 556 198 570 219 570 C258 570 272 540 319 540 C367 540 402 567 422 591 L422 680 Z M178 151 C180 185 182 216 186 244 C193 286 200 322 211 355 C216 354 222 353 227 349 C234 344 241 336 248 323 L228 213 L184 146 L178 151 Z " />
<glyph glyph-name="adieresis" unicode="&#xe4;" horiz-adv-x="433" d="M360 0 L439 459 L272 459 L268 438 C249 456 223 469 195 469 C118 469 74 428 54 380 C26 306 -2 146 -2 48 C-2 36 -1 12 -1 0 L150 0 L208 98 L191 0 L360 0 Z M115 565 L247 533 L276 662 L132 662 L115 565 Z M280 565 L412 533 L441 662 L297 662 L280 565 Z M178 151 C180 185 182 216 186 244 C193 286 200 322 211 355 C216 354 222 353 227 349 C234 344 241 336 248 323 L228 213 L184 146 L178 151 Z " />
<glyph glyph-name="aring" unicode="&#xe5;" horiz-adv-x="433" d="M360 0 L439 459 L272 459 L268 438 C249 456 223 469 195 469 C118 469 74 428 54 380 C26 306 -2 146 -2 48 C-2 36 -1 12 -1 0 L150 0 L208 98 L191 0 L360 0 Z M303 727 C237 727 175 694 175 605 C175 548 211 517 266 517 C332 517 393 547 393 643 C393 699 356 727 303 727 L303 727 Z M178 151 C180 185 182 216 186 244 C193 286 200 322 211 355 C216 354 222 353 227 349 C234 344 241 336 248 323 L228 213 L184 146 L178 151 Z M290 665 C303 665 308 656 308 643 C308 619 300 586 276 586 C266 586 260 597 260 613 C260 644 273 665 290 665 L290 665 Z " />
<glyph glyph-name="ae" unicode="&#xe6;" horiz-adv-x="621" d="M593 89 L572 204 C521 176 440 135 399 126 L393 131 L393 161 C455 187 567 246 611 287 L611 405 C571 455 529 469 458 469 C400 469 348 441 309 404 C288 434 234 469 195 469 C118 469 74 428 54 380 C26 306 -2 146 -2 48 C-2 36 -1 12 -1 0 L150 0 L217 113 L217 86 C217 56 218 27 220 0 L371 -12 C429 5 532 49 593 89 L593 89 Z M178 151 C180 185 182 216 186 244 C193 286 200 322 211 355 C216 354 222 353 227 349 C235 343 243 333 251 318 C238 285 230 246 224 206 L184 146 L178 151 Z M425 345 C428 345 433 346 437 345 C445 344 454 340 458 333 L458 291 C435 268 416 258 397 243 C401 278 409 310 425 345 L425 345 Z " />
<glyph glyph-name="ccedilla" unicode="&#xe7;" horiz-adv-x="345" d="M65 -214 C130 -214 206 -184 206 -114 C206 -76 180 -47 130 -40 L139 -10 L167 -12 C229 12 299 73 324 119 L241 191 C219 160 203 145 183 131 L178 136 C179 160 181 184 183 207 C188 252 196 294 209 333 C216 334 224 335 232 335 C264 335 303 325 324 312 L355 444 C335 457 249 469 220 469 C131 469 87 455 53 372 C10 267 -1 135 -1 26 L-1 1 L63 -4 L40 -66 L38 -78 C65 -82 81 -94 81 -109 C81 -123 70 -130 52 -130 C40 -130 18 -127 6 -118 L-14 -198 C8 -209 29 -214 65 -214 L65 -214 Z " />
<glyph glyph-name="egrave" unicode="&#xe8;" horiz-adv-x="403" d="M375 89 L354 204 C303 176 222 135 181 126 L175 131 L175 161 C237 187 349 246 393 287 L393 405 C353 455 311 469 240 469 C143 469 60 389 35 324 C9 257 -1 168 -1 86 C-1 56 0 27 2 0 L153 -12 C211 5 314 49 375 89 L375 89 Z M319 522 L260 673 L92 673 L195 522 L319 522 Z M207 345 C210 345 215 346 219 345 C227 344 236 340 240 333 L240 291 C217 268 198 258 179 243 C183 278 191 310 207 345 L207 345 Z " />
<glyph glyph-name="eacute" unicode="&#xe9;" horiz-adv-x="403" d="M375 89 L354 204 C303 176 222 135 181 126 L175 131 L175 161 C237 187 349 246 393 287 L393 405 C353 455 311 469 240 469 C143 469 60 389 35 324 C9 257 -1 168 -1 86 C-1 56 0 27 2 0 L153 -12 C211 5 314 49 375 89 L375 89 Z M307 522 L410 673 L242 673 L183 522 L307 522 Z M207 345 C210 345 215 346 219 345 C227 344 236 340 240 333 L240 291 C217 268 198 258 179 243 C183 278 191 310 207 345 L207 345 Z " />
<glyph glyph-name="ecircumflex" unicode="&#xea;" horiz-adv-x="403" d="M375 89 L354 204 C303 176 222 135 181 126 L175 131 L175 161 C237 187 349 246 393 287 L393 405 C353 455 311 469 240 469 C143 469 60 389 35 324 C9 257 -1 168 -1 86 C-1 56 0 27 2 0 L153 -12 C211 5 314 49 375 89 L375 89 Z M210 673 L114 522 L244 522 L266 609 L276 609 L269 522 L399 522 L353 673 L210 673 Z M207 345 C210 345 215 346 219 345 C227 344 236 340 240 333 L240 291 C217 268 198 258 179 243 C183 278 191 310 207 345 L207 345 Z " />
<glyph glyph-name="edieresis" unicode="&#xeb;" horiz-adv-x="403" d="M375 89 L354 204 C303 176 222 135 181 126 L175 131 L175 161 C237 187 349 246 393 287 L393 405 C353 455 311 469 240 469 C143 469 60 389 35 324 C9 257 -1 168 -1 86 C-1 56 0 27 2 0 L153 -12 C211 5 314 49 375 89 L375 89 Z M280 565 L412 533 L441 662 L297 662 L280 565 Z M115 565 L247 533 L276 662 L132 662 L115 565 Z M207 345 C210 345 215 346 219 345 C227 344 236 340 240 333 L240 291 C217 268 198 258 179 243 C183 278 191 310 207 345 L207 345 Z " />
<glyph glyph-name="igrave" unicode="&#xec;" horiz-adv-x="225" d="M152 0 L232 459 L65 459 L-16 0 L152 0 Z M227 522 L168 673 L0 673 L103 522 L227 522 Z " />
<glyph glyph-name="iacute" unicode="&#xed;" horiz-adv-x="225" d="M220 522 L323 673 L155 673 L96 522 L220 522 Z M152 0 L232 459 L65 459 L-16 0 L152 0 Z " />
<glyph glyph-name="icircumflex" unicode="&#xee;" horiz-adv-x="225" d="M124 673 L28 522 L158 522 L180 609 L190 609 L183 522 L313 522 L267 673 L124 673 Z M152 0 L232 459 L65 459 L-16 0 L152 0 Z " />
<glyph glyph-name="idieresis" unicode="&#xef;" horiz-adv-x="225" d="M15 565 L147 533 L176 662 L32 662 L15 565 Z M180 565 L312 533 L341 662 L197 662 L180 565 Z M152 0 L232 459 L65 459 L-16 0 L152 0 Z " />
<glyph glyph-name="eth" unicode="&#xf0;" horiz-adv-x="415" d="M160 468 L188 496 C195 486 201 476 207 465 C124 455 72 419 47 361 C22 303 6 220 -3 137 C-13 47 56 -8 142 -8 C233 -8 314 18 343 68 C375 125 404 240 404 308 C404 432 366 529 290 602 L321 634 L269 682 L235 646 C226 653 216 659 206 665 L121 560 L140 545 L112 515 L160 468 Z M236 285 C236 220 213 159 187 103 C177 103 172 109 167 116 C167 129 168 143 169 158 C176 224 193 302 214 353 C220 352 226 351 231 348 L234 346 C235 326 236 306 236 285 L236 285 Z " />
<glyph glyph-name="ntilde" unicode="&#xf1;" horiz-adv-x="432" d="M152 0 L196 255 C212 281 226 295 237 302 L242 298 C242 276 236 241 231 210 L195 0 L363 0 L414 303 C418 327 420 349 420 369 C420 432 397 469 347 469 C309 469 258 434 217 371 L232 459 L65 459 L-16 0 L152 0 Z M402 680 C384 666 348 652 331 652 C290 652 281 680 235 680 C192 680 146 649 123 623 L132 540 C153 556 178 570 199 570 C238 570 252 540 299 540 C347 540 382 567 402 591 L402 680 Z " />
<glyph glyph-name="ograve" unicode="&#xf2;" horiz-adv-x="416" d="M187 103 C177 103 172 109 167 116 C167 129 168 143 169 158 C176 224 193 302 214 353 C226 353 235 346 240 340 C240 321 238 302 236 285 C229 215 213 159 187 103 L187 103 Z M149 -8 C258 -8 323 38 352 88 C384 145 395 217 406 281 C418 394 353 469 264 469 C147 469 71 415 40 344 C15 286 8 237 -1 154 C-11 64 63 -8 149 -8 L149 -8 Z M332 522 L273 673 L105 673 L208 522 L332 522 Z " />
<glyph glyph-name="oacute" unicode="&#xf3;" horiz-adv-x="416" d="M327 522 L430 673 L262 673 L203 522 L327 522 Z M187 103 C177 103 172 109 167 116 C167 129 168 143 169 158 C176 224 193 302 214 353 C226 353 235 346 240 340 C240 321 238 302 236 285 C229 215 213 159 187 103 L187 103 Z M149 -8 C258 -8 323 38 352 88 C384 145 395 217 406 281 C418 394 353 469 264 469 C147 469 71 415 40 344 C15 286 8 237 -1 154 C-11 64 63 -8 149 -8 L149 -8 Z " />
<glyph glyph-name="ocircumflex" unicode="&#xf4;" horiz-adv-x="416" d="M211 668 L115 517 L245 517 L267 604 L277 604 L270 517 L400 517 L354 668 L211 668 Z M187 103 C177 103 172 109 167 116 C167 129 168 143 169 158 C176 224 193 302 214 353 C226 353 235 346 240 340 C240 321 238 302 236 285 C229 215 213 159 187 103 L187 103 Z M149 -8 C258 -8 323 38 352 88 C384 145 395 217 406 281 C418 394 353 469 264 469 C147 469 71 415 40 344 C15 286 8 237 -1 154 C-11 64 63 -8 149 -8 L149 -8 Z " />
<glyph glyph-name="otilde" unicode="&#xf5;" horiz-adv-x="416" d="M187 103 C177 103 172 109 167 116 C167 129 168 143 169 158 C176 224 193 302 214 353 C226 353 235 346 240 340 C240 321 238 302 236 285 C229 215 213 159 187 103 L187 103 Z M149 -8 C258 -8 323 38 352 88 C384 145 395 217 406 281 C418 394 353 469 264 469 C147 469 71 415 40 344 C15 286 8 237 -1 154 C-11 64 63 -8 149 -8 L149 -8 Z M421 680 C403 666 367 652 350 652 C309 652 300 680 254 680 C211 680 165 649 142 623 L151 540 C172 556 197 570 218 570 C257 570 271 540 318 540 C366 540 401 567 421 591 L421 680 Z " />
<glyph glyph-name="odieresis" unicode="&#xf6;" horiz-adv-x="416" d="M112 565 L244 533 L273 662 L129 662 L112 565 Z M277 565 L409 533 L438 662 L294 662 L277 565 Z M187 103 C177 103 172 109 167 116 C167 129 168 143 169 158 C176 224 193 302 214 353 C226 353 235 346 240 340 C240 321 238 302 236 285 C229 215 213 159 187 103 L187 103 Z M149 -8 C258 -8 323 38 352 88 C384 145 395 217 406 281 C418 394 353 469 264 469 C147 469 71 415 40 344 C15 286 8 237 -1 154 C-11 64 63 -8 149 -8 L149 -8 Z " />
<glyph glyph-name="divide" unicode="&#xf7;" horiz-adv-x="326" d="M15 235 L304 235 L324 347 L35 347 L15 235 Z M103 403 L262 365 L296 520 L123 520 L103 403 Z M46 78 L205 40 L239 195 L66 195 L46 78 Z " />
<glyph glyph-name="oslash" unicode="&#xf8;" horiz-adv-x="417" d="M151 -8 C260 -8 325 38 354 88 C386 145 397 217 408 281 C413 335 402 380 378 413 L422 470 L359 470 L342 447 C320 461 294 469 266 469 C149 469 73 415 42 344 C17 286 10 237 1 154 C-3 112 9 75 33 46 L-12 -13 L51 -13 L71 14 C95 0 122 -8 151 -8 L151 -8 Z M216 353 C228 353 237 346 242 340 C242 332 242 324 241 317 L184 243 C193 284 203 323 216 353 L216 353 Z M189 103 C179 103 174 109 169 116 C169 124 169 133 170 142 L228 217 C219 176 206 139 189 103 L189 103 Z " />
<glyph glyph-name="ugrave" unicode="&#xf9;" horiz-adv-x="432" d="M271 459 L227 204 C211 178 196 164 186 157 L181 161 C181 183 187 218 192 249 L228 459 L60 459 L9 156 C5 132 3 110 3 90 C3 27 26 -10 76 -10 C114 -10 165 25 206 87 L191 0 L358 0 L439 459 L271 459 Z M335 522 L276 673 L108 673 L211 522 L335 522 Z " />
<glyph glyph-name="uacute" unicode="&#xfa;" horiz-adv-x="432" d="M271 459 L227 204 C211 178 196 164 186 157 L181 161 C181 183 187 218 192 249 L228 459 L60 459 L9 156 C5 132 3 110 3 90 C3 27 26 -10 76 -10 C114 -10 165 25 206 87 L191 0 L358 0 L439 459 L271 459 Z M318 522 L421 673 L253 673 L194 522 L318 522 Z " />
<glyph glyph-name="ucircumflex" unicode="&#xfb;" horiz-adv-x="432" d="M271 459 L227 204 C211 178 196 164 186 157 L181 161 C181 183 187 218 192 249 L228 459 L60 459 L9 156 C5 132 3 110 3 90 C3 27 26 -10 76 -10 C114 -10 165 25 206 87 L191 0 L358 0 L439 459 L271 459 Z M208 673 L112 522 L242 522 L264 609 L274 609 L267 522 L397 522 L351 673 L208 673 Z " />
<glyph glyph-name="udieresis" unicode="&#xfc;" horiz-adv-x="432" d="M271 459 L227 204 C211 178 196 164 186 157 L181 161 C181 183 187 218 192 249 L228 459 L60 459 L9 156 C5 132 3 110 3 90 C3 27 26 -10 76 -10 C114 -10 165 25 206 87 L191 0 L358 0 L439 459 L271 459 Z M261 565 L393 533 L422 662 L278 662 L261 565 Z M96 565 L228 533 L257 662 L113 662 L96 565 Z " />
<glyph glyph-name="yacute" unicode="&#xfd;" horiz-adv-x="412" d="M309 522 L412 673 L244 673 L185 522 L309 522 Z M253 -207 L309 0 L439 459 L272 459 L191 154 L186 154 C187 214 190 265 196 317 C201 361 208 406 216 459 L48 459 C34 379 24 304 24 229 C24 136 36 56 48 0 L142 0 L87 -172 L88 -207 L253 -207 Z " />
<glyph glyph-name="thorn" unicode="&#xfe;" horiz-adv-x="426" d="M115 -207 L151 0 C174 -6 201 -11 219 -11 C349 -11 416 158 416 327 C416 407 411 469 332 469 C313 469 273 458 228 443 L264 653 L97 653 L-52 -207 L115 -207 Z M236 318 L244 314 C244 296 242 275 240 255 C233 187 215 116 198 116 C191 116 181 117 172 121 L205 310 L236 318 Z " />
<glyph glyph-name="ydieresis" unicode="&#xff;" horiz-adv-x="412" d="M105 566 L237 534 L266 663 L122 663 L105 566 Z M270 566 L402 534 L431 663 L287 663 L270 566 Z M253 -207 L309 0 L439 459 L272 459 L191 154 L186 154 C187 214 190 265 196 317 C201 361 208 406 216 459 L48 459 C34 379 24 304 24 229 C24 136 36 56 48 0 L142 0 L87 -172 L88 -207 L253 -207 Z " />
<glyph glyph-name="Amacron" unicode="&#x100;" horiz-adv-x="427" d="M-44 0 L140 0 L161 92 L203 92 L192 0 L378 0 L401 583 L143 583 L-44 0 Z M149 650 L407 650 L428 767 L170 767 L149 650 Z M243 440 L248 440 L223 244 L197 244 L243 440 Z " />
<glyph glyph-name="amacron" unicode="&#x101;" horiz-adv-x="433" d="M360 0 L439 459 L272 459 L268 438 C249 456 223 469 195 469 C118 469 74 428 54 380 C26 306 -2 146 -2 48 C-2 36 -1 12 -1 0 L150 0 L208 98 L191 0 L360 0 Z M152 546 L411 546 L431 663 L172 663 L152 546 Z M178 151 C180 185 182 216 186 244 C193 286 200 322 211 355 C216 354 222 353 227 349 C234 344 241 336 248 323 L228 213 L184 146 L178 151 Z " />
<glyph glyph-name="Abreve" unicode="&#x102;" horiz-adv-x="427" d="M-44 0 L140 0 L161 92 L203 92 L192 0 L378 0 L401 583 L143 583 L-44 0 Z M290 737 C262 737 236 753 220 788 L144 699 C160 665 201 621 271 621 C335 621 392 662 422 696 L385 788 C355 755 320 737 290 737 L290 737 Z M243 440 L248 440 L223 244 L197 244 L243 440 Z " />
<glyph glyph-name="abreve" unicode="&#x103;" horiz-adv-x="433" d="M360 0 L439 459 L272 459 L268 438 C249 456 223 469 195 469 C118 469 74 428 54 380 C26 306 -2 146 -2 48 C-2 36 -1 12 -1 0 L150 0 L208 98 L191 0 L360 0 Z M292 647 C264 647 237 663 223 698 L145 609 C161 575 202 531 272 531 C336 531 394 572 423 606 L388 698 C357 665 322 647 292 647 L292 647 Z M178 151 C180 185 182 216 186 244 C193 286 200 322 211 355 C216 354 222 353 227 349 C234 344 241 336 248 323 L228 213 L184 146 L178 151 Z " />
<glyph glyph-name="Aogonek" unicode="&#x104;" horiz-adv-x="427" d="M344 -196 L360 -105 C343 -112 323 -114 308 -114 C292 -114 274 -107 274 -86 C274 -58 297 -28 347 0 L378 0 L401 583 L143 583 L-44 0 L140 0 L161 92 L203 92 L192 0 L248 0 C199 -28 154 -72 154 -139 C154 -183 184 -214 260 -214 C296 -214 321 -207 344 -196 L344 -196 Z M243 440 L248 440 L223 244 L197 244 L243 440 Z " />
<glyph glyph-name="aogonek" unicode="&#x105;" horiz-adv-x="433" d="M324 -196 L340 -105 C323 -112 303 -114 288 -114 C272 -114 254 -107 254 -86 C254 -58 277 -28 327 0 L360 0 L439 459 L272 459 L268 438 C249 456 223 469 195 469 C118 469 74 428 54 380 C26 306 -2 146 -2 48 C-2 36 -1 12 -1 0 L150 0 L208 98 L191 0 L228 0 C179 -28 134 -72 134 -139 C134 -183 164 -214 240 -214 C276 -214 301 -207 324 -196 L324 -196 Z M178 151 C180 185 182 216 186 244 C193 286 200 322 211 355 C216 354 222 353 227 349 C234 344 241 336 248 323 L228 213 L184 146 L178 151 Z " />
<glyph glyph-name="Cacute" unicode="&#x106;" horiz-adv-x="363" d="M176 -13 C218 -13 272 -5 301 12 L325 154 C299 144 283 145 270 145 C230 145 215 182 215 230 C215 350 254 436 320 436 C336 436 353 435 371 424 L398 573 C373 587 327 596 293 596 C96 596 14 400 14 179 C14 51 71 -13 176 -13 L176 -13 Z M334 630 L438 781 L270 781 L211 630 L334 630 Z " />
<glyph glyph-name="cacute" unicode="&#x107;" horiz-adv-x="345" d="M241 191 C219 160 203 145 183 131 L178 136 C179 160 181 184 183 207 C188 252 196 294 209 333 C216 334 224 335 232 335 C264 335 303 325 324 312 L355 444 C335 457 249 469 220 469 C131 469 87 455 53 372 C10 267 -1 135 -1 26 L-1 1 L167 -12 C229 12 299 73 324 119 L241 191 Z M282 522 L385 673 L217 673 L158 522 L282 522 Z " />
<glyph glyph-name="Ccircumflex" unicode="&#x108;" horiz-adv-x="363" d="M176 -13 C218 -13 272 -5 301 12 L325 154 C299 144 283 145 270 145 C230 145 215 182 215 230 C215 350 254 436 320 436 C336 436 353 435 371 424 L398 573 C373 587 327 596 293 596 C96 596 14 400 14 179 C14 51 71 -13 176 -13 L176 -13 Z M237 780 L141 629 L271 629 L293 716 L303 716 L295 629 L425 629 L380 780 L237 780 Z " />
<glyph glyph-name="ccircumflex" unicode="&#x109;" horiz-adv-x="345" d="M241 191 C219 160 203 145 183 131 L178 136 C179 160 181 184 183 207 C188 252 196 294 209 333 C216 334 224 335 232 335 C264 335 303 325 324 312 L355 444 C335 457 249 469 220 469 C131 469 87 455 53 372 C10 267 -1 135 -1 26 L-1 1 L167 -12 C229 12 299 73 324 119 L241 191 Z M189 673 L93 522 L223 522 L245 609 L255 609 L248 522 L378 522 L332 673 L189 673 Z " />
<glyph glyph-name="Cdotaccent" unicode="&#x10a;" horiz-adv-x="363" d="M202 664 L361 626 L395 781 L222 781 L202 664 Z M176 -13 C218 -13 272 -5 301 12 L325 154 C299 144 283 145 270 145 C230 145 215 182 215 230 C215 350 254 436 320 436 C336 436 353 435 371 424 L398 573 C373 587 327 596 293 596 C96 596 14 400 14 179 C14 51 71 -13 176 -13 L176 -13 Z " />
<glyph glyph-name="cdotaccent" unicode="&#x10b;" horiz-adv-x="345" d="M241 191 C219 160 203 145 183 131 L178 136 C179 160 181 184 183 207 C188 252 196 294 209 333 C216 334 224 335 232 335 C264 335 303 325 324 312 L355 444 C335 457 249 469 220 469 C131 469 87 455 53 372 C10 267 -1 135 -1 26 L-1 1 L167 -12 C229 12 299 73 324 119 L241 191 Z M153 567 L312 529 L346 684 L173 684 L153 567 Z " />
<glyph glyph-name="Ccaron" unicode="&#x10c;" horiz-adv-x="363" d="M176 -13 C218 -13 272 -5 301 12 L325 154 C299 144 283 145 270 145 C230 145 215 182 215 230 C215 350 254 436 320 436 C336 436 353 435 371 424 L398 573 C373 587 327 596 293 596 C96 596 14 400 14 179 C14 51 71 -13 176 -13 L176 -13 Z M352 630 L449 781 L319 781 L297 694 L287 694 L295 781 L165 781 L209 630 L352 630 Z " />
<glyph glyph-name="ccaron" unicode="&#x10d;" horiz-adv-x="345" d="M241 191 C219 160 203 145 183 131 L178 136 C179 160 181 184 183 207 C188 252 196 294 209 333 C216 334 224 335 232 335 C264 335 303 325 324 312 L355 444 C335 457 249 469 220 469 C131 469 87 455 53 372 C10 267 -1 135 -1 26 L-1 1 L167 -12 C229 12 299 73 324 119 L241 191 Z M296 522 L394 673 L264 673 L241 586 L231 586 L239 673 L109 673 L153 522 L296 522 Z " />
<glyph glyph-name="Dcaron" unicode="&#x10e;" horiz-adv-x="485" d="M-10 0 L236 0 C341 0 483 128 483 377 C483 525 399 583 338 583 L90 583 L-10 0 Z M352 628 L449 779 L319 779 L297 692 L287 692 L295 779 L165 779 L209 628 L352 628 Z M257 430 C276 430 288 410 288 371 C288 284 268 153 208 153 L255 430 L257 430 Z " />
<glyph glyph-name="dcaron" unicode="&#x10f;" horiz-adv-x="452" d="M360 0 L472 653 L305 653 L267 438 C249 456 223 469 195 469 C118 469 74 428 54 380 C26 306 -2 146 -2 48 C-2 36 -1 12 -1 0 L150 0 L208 97 L191 0 L360 0 Z M470 463 L543 463 L641 653 L511 653 L470 463 Z M178 151 C180 185 182 216 186 244 C193 286 200 322 211 355 C216 354 222 353 227 349 C234 344 240 336 247 324 L228 211 L184 146 L178 151 Z " />
<glyph glyph-name="Dcroat" unicode="&#x110;" horiz-adv-x="486" d="M11 236 L31 236 L-9 0 L237 0 C342 0 484 128 484 377 C484 525 400 583 339 583 L91 583 L51 349 L31 349 L11 236 Z M255 236 L275 349 L243 349 L257 430 L258 430 C277 430 289 410 289 371 C289 284 269 153 209 153 L223 236 L255 236 Z " />
<glyph glyph-name="dcroat" unicode="&#x111;" horiz-adv-x="432" d="M189 514 L280 514 L267 438 C249 456 223 469 195 469 C118 469 74 428 54 380 C26 306 -2 146 -2 48 C-2 36 -1 12 -1 0 L150 0 L208 97 L191 0 L360 0 L448 514 L500 514 L517 608 L464 608 L472 653 L305 653 L297 608 L206 608 L189 514 Z M178 151 C180 185 182 216 186 244 C193 286 200 322 211 355 C216 354 222 353 227 349 C234 344 240 336 247 324 L228 211 L184 146 L178 151 Z " />
<glyph glyph-name="Emacron" unicode="&#x112;" horiz-adv-x="375" d="M-10 0 L309 0 L334 153 L208 153 L219 221 L331 221 L357 364 L244 364 L255 430 L380 430 L407 583 L90 583 L-10 0 Z M128 651 L386 651 L407 768 L149 768 L128 651 Z " />
<glyph glyph-name="emacron" unicode="&#x113;" horiz-adv-x="403" d="M375 89 L354 204 C303 176 222 135 181 126 L175 131 L175 161 C237 187 349 246 393 287 L393 405 C353 455 311 469 240 469 C143 469 60 389 35 324 C9 257 -1 168 -1 86 C-1 56 0 27 2 0 L153 -12 C211 5 314 49 375 89 L375 89 Z M129 546 L388 546 L408 663 L149 663 L129 546 Z M207 345 C210 345 215 346 219 345 C227 344 236 340 240 333 L240 291 C217 268 198 258 179 243 C183 278 191 310 207 345 L207 345 Z " />
<glyph glyph-name="Ebreve" unicode="&#x114;" horiz-adv-x="375" d="M-10 0 L309 0 L334 153 L208 153 L219 221 L331 221 L357 364 L244 364 L255 430 L380 430 L407 583 L90 583 L-10 0 Z M265 737 C237 737 211 753 195 788 L119 699 C135 665 176 621 246 621 C310 621 367 662 397 696 L360 788 C330 755 295 737 265 737 L265 737 Z " />
<glyph glyph-name="ebreve" unicode="&#x115;" horiz-adv-x="403" d="M375 89 L354 204 C303 176 222 135 181 126 L175 131 L175 161 C237 187 349 246 393 287 L393 405 C353 455 311 469 240 469 C143 469 60 389 35 324 C9 257 -1 168 -1 86 C-1 56 0 27 2 0 L153 -12 C211 5 314 49 375 89 L375 89 Z M274 647 C246 647 219 663 205 698 L127 609 C143 575 184 531 254 531 C318 531 376 572 405 606 L370 698 C339 665 304 647 274 647 L274 647 Z M207 345 C210 345 215 346 219 345 C227 344 236 340 240 333 L240 291 C217 268 198 258 179 243 C183 278 191 310 207 345 L207 345 Z " />
<glyph glyph-name="Edotaccent" unicode="&#x116;" horiz-adv-x="375" d="M-10 0 L309 0 L334 153 L208 153 L219 221 L331 221 L357 364 L244 364 L255 430 L380 430 L407 583 L90 583 L-10 0 Z M170 663 L329 625 L363 780 L190 780 L170 663 Z " />
<glyph glyph-name="edotaccent" unicode="&#x117;" horiz-adv-x="403" d="M375 89 L354 204 C303 176 222 135 181 126 L175 131 L175 161 C237 187 349 246 393 287 L393 405 C353 455 311 469 240 469 C143 469 60 389 35 324 C9 257 -1 168 -1 86 C-1 56 0 27 2 0 L153 -12 C211 5 314 49 375 89 L375 89 Z M171 567 L330 529 L364 684 L191 684 L171 567 Z M207 345 C210 345 215 346 219 345 C227 344 236 340 240 333 L240 291 C217 268 198 258 179 243 C183 278 191 310 207 345 L207 345 Z " />
<glyph glyph-name="Eogonek" unicode="&#x118;" horiz-adv-x="375" d="M-10 0 L174 0 C125 -28 80 -72 80 -139 C80 -183 110 -214 186 -214 C222 -214 247 -207 270 -196 L286 -105 C269 -112 249 -114 234 -114 C218 -114 200 -107 200 -86 C200 -58 223 -28 273 0 L309 0 L334 153 L208 153 L220 221 L331 221 L357 364 L244 364 L256 430 L380 430 L407 583 L90 583 L-10 0 Z " />
<glyph glyph-name="eogonek" unicode="&#x119;" horiz-adv-x="403" d="M375 89 L354 204 C303 176 222 135 181 126 L175 131 L175 161 C237 187 349 246 393 287 L393 405 C353 455 311 469 240 469 C143 469 60 389 35 324 C9 257 -1 168 -1 86 C-1 56 0 27 2 0 L74 -6 C29 -34 -10 -77 -10 -139 C-10 -183 20 -214 96 -214 C132 -214 157 -207 180 -196 L196 -105 C179 -112 159 -114 144 -114 C128 -114 110 -107 110 -86 C110 -60 130 -32 174 -5 C234 14 321 53 375 89 L375 89 Z M207 345 C210 345 215 346 219 345 C227 344 236 340 240 333 L240 291 C217 268 198 258 179 243 C183 278 191 310 207 345 L207 345 Z " />
<glyph glyph-name="Ecaron" unicode="&#x11a;" horiz-adv-x="375" d="M-10 0 L309 0 L334 153 L208 153 L219 221 L331 221 L357 364 L244 364 L255 430 L380 430 L407 583 L90 583 L-10 0 Z M325 630 L422 781 L292 781 L270 694 L260 694 L268 781 L138 781 L182 630 L325 630 Z " />
<glyph glyph-name="ecaron" unicode="&#x11b;" horiz-adv-x="403" d="M375 89 L354 204 C303 176 222 135 181 126 L175 131 L175 161 C237 187 349 246 393 287 L393 405 C353 455 311 469 240 469 C143 469 60 389 35 324 C9 257 -1 168 -1 86 C-1 56 0 27 2 0 L153 -12 C211 5 314 49 375 89 L375 89 Z M319 515 L417 666 L287 666 L264 579 L254 579 L262 666 L132 666 L176 515 L319 515 Z M207 345 C210 345 215 346 219 345 C227 344 236 340 240 333 L240 291 C217 268 198 258 179 243 C183 278 191 310 207 345 L207 345 Z " />
<glyph glyph-name="Gcircumflex" unicode="&#x11c;" horiz-adv-x="456" d="M235 -13 C298 -13 337 -6 394 21 L446 319 L263 319 L231 143 C216 147 208 175 208 210 C208 334 244 427 362 427 C396 427 421 425 447 413 L474 569 C432 591 394 596 345 596 C98 596 12 398 12 195 C12 59 83 -13 235 -13 L235 -13 Z M288 780 L192 629 L322 629 L344 716 L354 716 L346 629 L476 629 L431 780 L288 780 Z " />
<glyph glyph-name="gcircumflex" unicode="&#x11d;" horiz-adv-x="432" d="M124 -213 C230 -213 274 -184 299 -149 C323 -114 347 -74 357 -13 L439 459 L272 459 L268 438 C249 456 223 469 195 469 C118 469 74 428 54 380 C26 306 -2 146 -2 48 C-2 36 -1 12 -1 0 L150 0 L209 99 C189 -19 179 -66 174 -78 C159 -79 146 -80 133 -80 C83 -80 42 -70 -2 -49 L-29 -183 C14 -201 68 -213 124 -213 L124 -213 Z M236 673 L140 522 L270 522 L292 609 L302 609 L295 522 L425 522 L379 673 L236 673 Z M178 151 C180 185 182 216 186 244 C193 286 200 322 211 355 C216 354 222 353 227 349 C234 344 241 336 248 323 L228 212 L184 146 L178 151 Z " />
<glyph glyph-name="Gbreve" unicode="&#x11e;" horiz-adv-x="456" d="M235 -13 C298 -13 337 -6 394 21 L446 319 L263 319 L231 143 C216 147 208 175 208 210 C208 334 244 427 362 427 C396 427 421 425 447 413 L474 569 C432 591 394 596 345 596 C98 596 12 398 12 195 C12 59 83 -13 235 -13 L235 -13 Z M351 736 C323 736 297 752 281 787 L205 698 C221 664 262 620 332 620 C396 620 453 661 483 695 L446 787 C416 754 381 736 351 736 L351 736 Z " />
<glyph glyph-name="gbreve" unicode="&#x11f;" horiz-adv-x="432" d="M124 -213 C230 -213 274 -184 299 -149 C323 -114 347 -74 357 -13 L439 459 L272 459 L268 438 C249 456 223 469 195 469 C118 469 74 428 54 380 C26 306 -2 146 -2 48 C-2 36 -1 12 -1 0 L150 0 L209 99 C189 -19 179 -66 174 -78 C159 -79 146 -80 133 -80 C83 -80 42 -70 -2 -49 L-29 -183 C14 -201 68 -213 124 -213 L124 -213 Z M291 647 C263 647 236 663 222 698 L144 609 C160 575 201 531 271 531 C335 531 393 572 422 606 L387 698 C356 665 321 647 291 647 L291 647 Z M178 151 C180 185 182 216 186 244 C193 286 200 322 211 355 C216 354 222 353 227 349 C234 344 241 336 248 323 L228 212 L184 146 L178 151 Z " />
<glyph glyph-name="Gdotaccent" unicode="&#x120;" horiz-adv-x="456" d="M235 -13 C298 -13 337 -6 394 21 L446 319 L263 319 L231 143 C216 147 208 175 208 210 C208 334 244 427 362 427 C396 427 421 425 447 413 L474 569 C432 591 394 596 345 596 C98 596 12 398 12 195 C12 59 83 -13 235 -13 L235 -13 Z M254 664 L413 626 L447 781 L274 781 L254 664 Z " />
<glyph glyph-name="gdotaccent" unicode="&#x121;" horiz-adv-x="432" d="M124 -213 C230 -213 274 -184 299 -149 C323 -114 347 -74 357 -13 L439 459 L272 459 L268 438 C249 456 223 469 195 469 C118 469 74 428 54 380 C26 306 -2 146 -2 48 C-2 36 -1 12 -1 0 L150 0 L209 99 C189 -19 179 -66 174 -78 C159 -79 146 -80 133 -80 C83 -80 42 -70 -2 -49 L-29 -183 C14 -201 68 -213 124 -213 L124 -213 Z M197 567 L356 529 L390 684 L217 684 L197 567 Z M178 151 C180 185 182 216 186 244 C193 286 200 322 211 355 C216 354 222 353 227 349 C234 344 241 336 248 323 L228 212 L184 146 L178 151 Z " />
<glyph glyph-name="Gcommaaccent" unicode="&#x122;" horiz-adv-x="456" d="M235 -13 C298 -13 337 -6 394 21 L446 319 L263 319 L231 143 C216 147 208 175 208 210 C208 334 244 427 362 427 C396 427 421 425 447 413 L474 569 C432 591 394 596 345 596 C98 596 12 398 12 195 C12 59 83 -13 235 -13 L235 -13 Z M106 -255 L223 -255 L295 -62 L158 -62 L106 -255 Z " />
<glyph glyph-name="gcommaaccent" unicode="&#x123;" horiz-adv-x="432" d="M124 -213 C230 -213 274 -184 299 -149 C323 -114 347 -74 357 -13 L439 459 L272 459 L268 438 C249 456 223 469 195 469 C118 469 74 428 54 380 C26 306 -2 146 -2 48 C-2 36 -1 12 -1 0 L150 0 L209 99 C189 -19 179 -66 174 -78 C159 -79 146 -80 133 -80 C83 -80 42 -70 -2 -49 L-29 -183 C14 -201 68 -213 124 -213 L124 -213 Z M385 709 L268 709 L196 513 L333 513 L385 709 Z M178 151 C180 185 182 216 186 244 C193 286 200 322 211 355 C216 354 222 353 227 349 C234 344 241 336 248 323 L228 212 L184 146 L178 151 Z " />
<glyph glyph-name="Hcircumflex" unicode="&#x124;" horiz-adv-x="504" d="M235 0 L427 0 L527 583 L335 583 L299 374 L246 374 L282 583 L90 583 L-10 0 L182 0 L220 221 L273 221 L235 0 Z M266 780 L170 629 L300 629 L322 716 L332 716 L324 629 L454 629 L409 780 L266 780 Z " />
<glyph glyph-name="hcircumflex" unicode="&#x125;" horiz-adv-x="432" d="M153 0 L197 255 C213 281 226 295 237 302 L242 298 C242 276 236 241 231 210 L195 0 L363 0 L414 303 C418 327 420 349 420 369 C420 432 397 469 347 469 C309 469 258 434 217 371 L265 653 L98 653 L-16 0 L153 0 Z M152 829 L56 678 L186 678 L208 765 L218 765 L210 678 L340 678 L295 829 L152 829 Z " />
<glyph glyph-name="Hbar" unicode="&#x126;" horiz-adv-x="507" d="M41 426 L65 426 L-8 0 L184 0 L222 221 L275 221 L237 0 L429 0 L502 426 L529 426 L545 519 L518 519 L529 583 L337 583 L326 519 L273 519 L284 583 L92 583 L81 519 L57 519 L41 426 Z M257 426 L310 426 L301 374 L248 374 L257 426 Z " />
<glyph glyph-name="hbar" unicode="&#x127;" horiz-adv-x="432" d="M32 504 L72 504 L-16 0 L153 0 L197 255 C213 281 226 295 237 302 L242 298 C242 276 236 241 231 210 L195 0 L363 0 L414 303 C418 327 420 349 420 369 C420 432 397 469 347 469 C309 469 258 434 217 371 L239 504 L331 504 L348 597 L255 597 L265 653 L98 653 L88 597 L49 597 L32 504 Z " />
<glyph glyph-name="Itilde" unicode="&#x128;" horiz-adv-x="259" d="M339 767 C319 753 284 739 268 739 C227 739 218 767 172 767 C128 767 82 736 60 710 L68 627 C89 643 113 657 135 657 C173 657 188 627 234 627 C283 627 319 654 337 678 L339 767 Z M-10 0 L182 0 L282 583 L90 583 L-10 0 Z " />
<glyph glyph-name="itilde" unicode="&#x129;" horiz-adv-x="225" d="M152 0 L232 459 L65 459 L-16 0 L152 0 Z M315 680 C297 666 261 652 244 652 C203 652 194 680 148 680 C105 680 59 649 36 623 L45 540 C66 556 91 570 112 570 C151 570 165 540 212 540 C260 540 295 567 315 591 L315 680 Z " />
<glyph glyph-name="Imacron" unicode="&#x12a;" horiz-adv-x="259" d="M67 651 L325 651 L346 768 L88 768 L67 651 Z M-10 0 L182 0 L282 583 L90 583 L-10 0 Z " />
<glyph glyph-name="imacron" unicode="&#x12b;" horiz-adv-x="225" d="M152 0 L232 459 L65 459 L-16 0 L152 0 Z M36 546 L295 546 L315 663 L56 663 L36 546 Z " />
<glyph glyph-name="Ibreve" unicode="&#x12c;" horiz-adv-x="259" d="M211 737 C183 737 157 753 141 788 L65 699 C81 665 122 621 192 621 C256 621 313 662 343 696 L306 788 C276 755 241 737 211 737 L211 737 Z M-10 0 L182 0 L282 583 L90 583 L-10 0 Z " />
<glyph glyph-name="ibreve" unicode="&#x12d;" horiz-adv-x="225" d="M152 0 L232 459 L65 459 L-16 0 L152 0 Z M184 647 C156 647 129 663 115 698 L37 609 C53 575 94 531 164 531 C228 531 286 572 315 606 L280 698 C249 665 214 647 184 647 L184 647 Z " />
<glyph glyph-name="Iogonek" unicode="&#x12e;" horiz-adv-x="259" d="M-10 0 L33 0 C-16 -28 -61 -72 -61 -139 C-61 -183 -31 -214 45 -214 C81 -214 106 -207 129 -196 L145 -105 C128 -112 108 -114 93 -114 C77 -114 59 -107 59 -86 C59 -58 82 -28 132 0 L182 0 L282 583 L90 583 L-10 0 Z " />
<glyph glyph-name="iogonek" unicode="&#x12f;" horiz-adv-x="225" d="M152 0 L232 459 L65 459 L-16 0 L17 0 C-32 -28 -77 -72 -77 -139 C-77 -183 -47 -214 29 -214 C65 -214 90 -207 113 -196 L129 -105 C112 -112 92 -114 77 -114 C61 -114 43 -107 43 -86 C43 -58 66 -28 116 0 L152 0 Z M85 567 L244 529 L278 684 L105 684 L85 567 Z " />
<glyph glyph-name="Idotaccent" unicode="&#x130;" horiz-adv-x="259" d="M111 664 L270 626 L304 781 L131 781 L111 664 Z M-10 0 L182 0 L282 583 L90 583 L-10 0 Z " />
<glyph glyph-name="dotlessi" unicode="&#x131;" horiz-adv-x="225" d="M152 0 L232 459 L65 459 L-16 0 L152 0 Z " />
<glyph glyph-name="IJ" unicode="&#x132;" horiz-adv-x="519" d="M-10 0 L182 0 L282 583 L90 583 L-10 0 Z M332 -119 C404 -19 459 89 475 179 L544 583 L352 583 L282 175 C268 92 235 3 182 -88 L332 -119 Z " />
<glyph glyph-name="ij" unicode="&#x133;" horiz-adv-x="449" d="M152 0 L232 459 L65 459 L-16 0 L152 0 Z M243 529 L277 684 L104 684 L84 567 L243 529 Z M209 0 C200 -52 184 -86 137 -151 L254 -221 C312 -157 361 -79 380 26 L457 459 L290 459 L209 0 Z M468 529 L502 684 L329 684 L309 567 L468 529 Z " />
<glyph glyph-name="Jcircumflex" unicode="&#x134;" horiz-adv-x="260" d="M73 -119 C145 -19 200 89 216 179 L285 583 L93 583 L23 175 C9 92 -24 3 -77 -88 L73 -119 Z M149 780 L53 629 L183 629 L205 716 L215 716 L207 629 L337 629 L292 780 L149 780 Z " />
<glyph glyph-name="jcircumflex" unicode="&#x135;" horiz-adv-x="225" d="M106 673 L10 522 L140 522 L162 609 L172 609 L165 522 L295 522 L249 673 L106 673 Z M-16 0 C-25 -52 -41 -86 -88 -151 L49 -233 C103 -164 133 -105 152 0 L232 459 L65 459 L-16 0 Z " />
<glyph glyph-name="Kcommaaccent" unicode="&#x136;" horiz-adv-x="474" d="M-10 0 L182 0 L228 267 L225 0 L418 0 L418 332 L516 583 L334 583 L236 317 L282 583 L90 583 L-10 0 Z M75 -255 L192 -255 L264 -62 L127 -62 L75 -255 Z " />
<glyph glyph-name="kcommaaccent" unicode="&#x137;" horiz-adv-x="432" d="M153 0 L195 245 C217 287 231 303 246 316 L249 311 C242 264 226 232 212 203 L204 163 L203 0 L377 0 L372 192 C399 240 425 332 434 411 C435 425 436 445 436 459 L282 469 C267 456 243 426 219 387 L265 653 L98 653 L-16 0 L153 0 Z M54 -255 L171 -255 L243 -62 L106 -62 L54 -255 Z " />
<glyph glyph-name="Lacute" unicode="&#x139;" horiz-adv-x="343" d="M-10 0 L291 0 L317 153 L208 153 L282 583 L90 583 L-10 0 Z M243 630 L347 781 L179 781 L120 630 L243 630 Z " />
<glyph glyph-name="lacute" unicode="&#x13a;" horiz-adv-x="225" d="M247 707 L351 858 L183 858 L124 707 L247 707 Z M153 0 L265 653 L98 653 L-16 0 L153 0 Z " />
<glyph glyph-name="Lcommaaccent" unicode="&#x13b;" horiz-adv-x="343" d="M-10 0 L291 0 L317 153 L208 153 L282 583 L90 583 L-10 0 Z M24 -255 L141 -255 L213 -62 L76 -62 L24 -255 Z " />
<glyph glyph-name="lcommaaccent" unicode="&#x13c;" horiz-adv-x="225" d="M-66 -255 L51 -255 L123 -62 L-14 -62 L-66 -255 Z M153 0 L265 653 L98 653 L-16 0 L153 0 Z " />
<glyph glyph-name="Lcaron" unicode="&#x13d;" horiz-adv-x="354" d="M-10 0 L291 0 L317 153 L208 153 L282 583 L90 583 L-10 0 Z M286 463 L359 463 L457 653 L327 653 L286 463 Z " />
<glyph glyph-name="lcaron" unicode="&#x13e;" horiz-adv-x="245" d="M250 463 L323 463 L421 653 L291 653 L250 463 Z M153 0 L265 653 L98 653 L-16 0 L153 0 Z " />
<glyph glyph-name="Ldot" unicode="&#x13f;" horiz-adv-x="426" d="M-10 0 L291 0 L317 153 L208 153 L282 583 L90 583 L-10 0 Z M253 264 L412 226 L446 381 L273 381 L253 264 Z " />
<glyph glyph-name="ldot" unicode="&#x140;" horiz-adv-x="390" d="M153 0 L265 653 L98 653 L-16 0 L153 0 Z M221 254 L380 216 L414 371 L241 371 L221 254 Z " />
<glyph glyph-name="Lslash" unicode="&#x141;" horiz-adv-x="346" d="M-8 175 L27 192 L-6 0 L295 0 L321 153 L212 153 L236 294 L299 325 L317 447 L257 415 L286 583 L94 583 L46 302 L12 284 L-8 175 Z " />
<glyph glyph-name="lslash" unicode="&#x142;" horiz-adv-x="284" d="M1 194 L47 219 L9 0 L178 0 L233 321 L287 351 L308 470 L253 440 L290 653 L123 653 L68 338 L22 313 L1 194 Z " />
<glyph glyph-name="Nacute" unicode="&#x143;" horiz-adv-x="494" d="M364 630 L468 781 L300 781 L241 630 L364 630 Z M-10 0 L165 0 L199 201 L201 201 L264 0 L417 0 L517 583 L332 583 L300 395 L298 395 L232 583 L90 583 L-10 0 Z " />
<glyph glyph-name="nacute" unicode="&#x144;" horiz-adv-x="432" d="M152 0 L196 255 C212 281 226 295 237 302 L242 298 C242 276 236 241 231 210 L195 0 L363 0 L414 303 C418 327 420 349 420 369 C420 432 397 469 347 469 C309 469 258 434 217 371 L232 459 L65 459 L-16 0 L152 0 Z M324 522 L427 673 L259 673 L200 522 L324 522 Z " />
<glyph glyph-name="Ncommaaccent" unicode="&#x145;" horiz-adv-x="494" d="M92 -255 L209 -255 L281 -62 L144 -62 L92 -255 Z M-10 0 L165 0 L199 201 L201 201 L264 0 L417 0 L517 583 L332 583 L300 395 L298 395 L232 583 L90 583 L-10 0 Z " />
<glyph glyph-name="ncommaaccent" unicode="&#x146;" horiz-adv-x="432" d="M152 0 L196 255 C212 281 226 295 237 302 L242 298 C242 276 236 241 231 210 L195 0 L363 0 L414 303 C418 327 420 349 420 369 C420 432 397 469 347 469 C309 469 258 434 217 371 L232 459 L65 459 L-16 0 L152 0 Z M52 -255 L169 -255 L241 -62 L104 -62 L52 -255 Z " />
<glyph glyph-name="Ncaron" unicode="&#x147;" horiz-adv-x="494" d="M387 630 L484 781 L354 781 L332 694 L322 694 L330 781 L200 781 L244 630 L387 630 Z M-10 0 L165 0 L199 201 L201 201 L264 0 L417 0 L517 583 L332 583 L300 395 L298 395 L232 583 L90 583 L-10 0 Z " />
<glyph glyph-name="ncaron" unicode="&#x148;" horiz-adv-x="432" d="M152 0 L196 255 C212 281 226 295 237 302 L242 298 C242 276 236 241 231 210 L195 0 L363 0 L414 303 C418 327 420 349 420 369 C420 432 397 469 347 469 C309 469 258 434 217 371 L232 459 L65 459 L-16 0 L152 0 Z M334 522 L432 673 L302 673 L279 586 L269 586 L277 673 L147 673 L191 522 L334 522 Z " />
<glyph glyph-name="napostrophe" unicode="&#x149;" horiz-adv-x="432" d="M152 0 L196 255 C212 281 226 295 237 302 L242 298 C242 276 236 241 231 210 L195 0 L363 0 L414 303 C418 327 420 349 420 369 C420 432 397 469 347 469 C309 469 258 434 217 371 L232 459 L65 459 L-16 0 L152 0 Z M167 516 C202 563 227 630 243 684 C247 697 252 726 256 740 L124 748 C121 736 117 710 115 699 C102 647 88 602 61 556 L167 516 Z " />
<glyph glyph-name="Eng" unicode="&#x14a;" horiz-adv-x="502" d="M-11 0 L167 0 L202 201 L204 201 L264 0 L281 0 L275 -17 C256 -65 234 -100 196 -162 L312 -215 C386 -115 422 -7 438 83 L526 583 L338 583 L305 395 L303 395 L236 583 L91 583 L-11 0 Z " />
<glyph glyph-name="eng" unicode="&#x14b;" horiz-adv-x="432" d="M152 0 L196 255 C212 281 226 295 237 302 L242 298 C242 276 236 241 231 210 L195 0 C186 -52 170 -86 123 -151 L260 -233 C314 -164 345 -105 363 0 L414 303 C418 327 420 349 420 369 C420 432 397 469 347 469 C309 469 258 434 217 371 L232 459 L65 459 L-16 0 L152 0 Z " />
<glyph glyph-name="Omacron" unicode="&#x14c;" horiz-adv-x="479" d="M181 651 L439 651 L460 768 L202 768 L181 651 Z M187 -13 C408 -13 480 224 480 397 C480 515 427 596 302 596 C82 596 11 352 11 182 C11 63 70 -13 187 -13 L187 -13 Z M218 135 C207 135 204 148 204 172 C204 221 238 448 272 448 C281 448 287 432 287 407 C287 352 248 135 218 135 L218 135 Z " />
<glyph glyph-name="omacron" unicode="&#x14d;" horiz-adv-x="416" d="M131 546 L390 546 L410 663 L151 663 L131 546 Z M187 103 C177 103 172 109 167 116 C167 129 168 143 169 158 C176 224 193 302 214 353 C226 353 235 346 240 340 C240 321 238 302 236 285 C229 215 213 159 187 103 L187 103 Z M149 -8 C258 -8 323 38 352 88 C384 145 395 217 406 281 C418 394 353 469 264 469 C147 469 71 415 40 344 C15 286 8 237 -1 154 C-11 64 63 -8 149 -8 L149 -8 Z " />
<glyph glyph-name="Obreve" unicode="&#x14e;" horiz-adv-x="479" d="M320 736 C292 736 266 752 250 787 L174 698 C190 664 231 620 301 620 C365 620 422 661 452 695 L415 787 C385 754 350 736 320 736 L320 736 Z M187 -13 C408 -13 480 224 480 397 C480 515 427 596 302 596 C82 596 11 352 11 182 C11 63 70 -13 187 -13 L187 -13 Z M218 135 C207 135 204 148 204 172 C204 221 238 448 272 448 C281 448 287 432 287 407 C287 352 248 135 218 135 L218 135 Z " />
<glyph glyph-name="obreve" unicode="&#x14f;" horiz-adv-x="416" d="M187 103 C177 103 172 109 167 116 C167 129 168 143 169 158 C176 224 193 302 214 353 C226 353 235 346 240 340 C240 321 238 302 236 285 C229 215 213 159 187 103 L187 103 Z M149 -8 C258 -8 323 38 352 88 C384 145 395 217 406 281 C418 394 353 469 264 469 C147 469 71 415 40 344 C15 286 8 237 -1 154 C-11 64 63 -8 149 -8 L149 -8 Z M288 647 C260 647 233 663 219 698 L141 609 C157 575 198 531 268 531 C332 531 390 572 419 606 L384 698 C353 665 318 647 288 647 L288 647 Z " />
<glyph glyph-name="Ohungarumlaut" unicode="&#x150;" horiz-adv-x="479" d="M187 -13 C408 -13 480 224 480 397 C480 515 427 596 302 596 C82 596 11 352 11 182 C11 63 70 -13 187 -13 L187 -13 Z M218 135 C207 135 204 148 204 172 C204 221 238 448 272 448 C281 448 287 432 287 407 C287 352 248 135 218 135 L218 135 Z M280 630 L365 781 L197 781 L157 630 L280 630 Z M437 630 L560 781 L392 781 L313 630 L437 630 Z " />
<glyph glyph-name="ohungarumlaut" unicode="&#x151;" horiz-adv-x="416" d="M243 522 L327 673 L159 673 L119 522 L243 522 Z M399 522 L522 673 L354 673 L276 522 L399 522 Z M187 103 C177 103 172 109 167 116 C167 129 168 143 169 158 C176 224 193 302 214 353 C226 353 235 346 240 340 C240 321 238 302 236 285 C229 215 213 159 187 103 L187 103 Z M149 -8 C258 -8 323 38 352 88 C384 145 395 217 406 281 C418 394 353 469 264 469 C147 469 71 415 40 344 C15 286 8 237 -1 154 C-11 64 63 -8 149 -8 L149 -8 Z " />
<glyph glyph-name="OE" unicode="&#x152;" horiz-adv-x="612" d="M220 0 L545 0 L571 153 L443 153 L455 221 L568 221 L594 364 L480 364 L491 430 L618 430 L645 583 L322 583 L320 573 C303 587 282 596 254 596 C88 596 12 362 12 165 C12 64 38 -14 130 -14 C159 -14 193 -3 222 14 L220 0 Z M227 134 C218 134 214 146 214 171 C214 218 246 448 282 448 C288 448 293 442 295 428 L247 155 C240 140 234 134 227 134 L227 134 Z " />
<glyph glyph-name="oe" unicode="&#x153;" horiz-adv-x="625" d="M596 89 L575 204 C524 176 443 135 402 126 L396 131 L396 161 C458 187 570 246 614 287 L614 405 C574 455 532 469 461 469 C422 469 386 456 354 437 C330 458 299 469 264 469 C147 469 71 415 40 344 C15 286 8 237 -1 154 C-11 64 63 -8 149 -8 C176 -8 201 -5 223 0 L374 -12 C432 5 535 49 596 89 L596 89 Z M187 103 C177 103 172 109 167 116 C167 129 168 143 169 158 C176 224 193 302 214 353 C226 353 235 346 240 340 C240 321 238 302 236 285 C229 215 213 159 187 103 L187 103 Z M405 275 C410 298 417 321 428 345 C431 345 436 346 440 345 C448 344 457 340 461 333 L461 291 C438 268 419 258 400 243 L400 249 L405 275 Z " />
<glyph glyph-name="Racute" unicode="&#x154;" horiz-adv-x="469" d="M-10 0 L182 0 L208 151 L222 151 L218 0 L414 0 L389 215 C436 255 474 316 474 410 C474 505 424 583 307 583 L90 583 L-10 0 Z M341 630 L445 781 L277 781 L218 630 L341 630 Z M278 398 C278 362 273 298 232 294 L257 440 C274 437 278 422 278 398 L278 398 Z " />
<glyph glyph-name="racute" unicode="&#x155;" horiz-adv-x="324" d="M152 0 L192 233 C208 252 220 261 234 270 L306 245 L349 446 C336 462 324 469 295 469 C271 469 242 423 215 365 L232 459 L65 459 L-16 0 L152 0 Z M284 522 L387 673 L219 673 L160 522 L284 522 Z " />
<glyph glyph-name="Rcommaaccent" unicode="&#x156;" horiz-adv-x="469" d="M-10 0 L182 0 L208 151 L222 151 L218 0 L414 0 L389 215 C436 255 474 316 474 410 C474 505 424 583 307 583 L90 583 L-10 0 Z M77 -255 L194 -255 L266 -62 L129 -62 L77 -255 Z M278 398 C278 362 273 298 232 294 L257 440 C274 437 278 422 278 398 L278 398 Z " />
<glyph glyph-name="rcommaaccent" unicode="&#x157;" horiz-adv-x="324" d="M152 0 L192 233 C208 252 220 261 234 270 L306 245 L349 446 C336 462 324 469 295 469 C271 469 242 423 215 365 L232 459 L65 459 L-16 0 L152 0 Z M-62 -255 L55 -255 L127 -62 L-10 -62 L-62 -255 Z " />
<glyph glyph-name="Rcaron" unicode="&#x158;" horiz-adv-x="469" d="M-10 0 L182 0 L208 151 L222 151 L218 0 L414 0 L389 215 C436 255 474 316 474 410 C474 505 424 583 307 583 L90 583 L-10 0 Z M359 630 L456 781 L326 781 L304 694 L294 694 L302 781 L172 781 L216 630 L359 630 Z M278 398 C278 362 273 298 232 294 L257 440 C274 437 278 422 278 398 L278 398 Z " />
<glyph glyph-name="rcaron" unicode="&#x159;" horiz-adv-x="324" d="M152 0 L192 233 C208 252 220 261 234 270 L306 245 L349 446 C336 462 324 469 295 469 C271 469 242 423 215 365 L232 459 L65 459 L-16 0 L152 0 Z M303 522 L401 673 L271 673 L248 586 L238 586 L246 673 L116 673 L160 522 L303 522 Z " />
<glyph glyph-name="Sacute" unicode="&#x15a;" horiz-adv-x="368" d="M313 630 L417 781 L249 781 L190 630 L313 630 Z M-19 8 C23 -8 73 -13 112 -13 C253 -13 344 59 344 215 C344 276 314 310 284 336 C254 362 224 378 224 402 C224 426 248 443 281 443 C319 443 346 436 364 423 L390 570 C364 589 317 596 261 596 C149 596 43 525 43 391 C43 322 73 285 104 258 C134 232 164 215 164 185 C164 164 149 144 116 144 C75 144 41 152 9 167 L-19 8 Z " />
<glyph glyph-name="sacute" unicode="&#x15b;" horiz-adv-x="304" d="M311 454 C285 464 240 469 204 469 C71 469 24 379 23 317 C23 299 28 277 36 254 C45 226 58 198 69 174 L95 114 C90 113 84 112 78 112 C54 112 25 119 1 128 L-21 7 C6 -1 46 -8 111 -8 C160 -8 205 4 235 31 C258 52 272 82 272 121 C272 169 253 207 234 243 C218 272 204 299 200 328 C199 334 199 337 200 342 C209 344 218 345 227 345 C248 345 268 340 288 333 L311 454 Z M253 522 L356 673 L188 673 L129 522 L253 522 Z " />
<glyph glyph-name="Scircumflex" unicode="&#x15c;" horiz-adv-x="368" d="M214 780 L118 629 L248 629 L270 716 L280 716 L272 629 L402 629 L357 780 L214 780 Z M-19 8 C23 -8 73 -13 112 -13 C253 -13 344 59 344 215 C344 276 314 310 284 336 C254 362 224 378 224 402 C224 426 248 443 281 443 C319 443 346 436 364 423 L390 570 C364 589 317 596 261 596 C149 596 43 525 43 391 C43 322 73 285 104 258 C134 232 164 215 164 185 C164 164 149 144 116 144 C75 144 41 152 9 167 L-19 8 Z " />
<glyph glyph-name="scircumflex" unicode="&#x15d;" horiz-adv-x="304" d="M311 454 C285 464 240 469 204 469 C71 469 24 379 23 317 C23 299 28 277 36 254 C45 226 58 198 69 174 L95 114 C90 113 84 112 78 112 C54 112 25 119 1 128 L-21 7 C6 -1 46 -8 111 -8 C160 -8 205 4 235 31 C258 52 272 82 272 121 C272 169 253 207 234 243 C218 272 204 299 200 328 C199 334 199 337 200 342 C209 344 218 345 227 345 C248 345 268 340 288 333 L311 454 Z M157 673 L61 522 L191 522 L213 609 L223 609 L216 522 L346 522 L300 673 L157 673 Z " />
<glyph glyph-name="Scedilla" unicode="&#x15e;" horiz-adv-x="369" d="M-19 8 C12 -4 47 -9 79 -12 L59 -65 L57 -77 C84 -81 100 -93 100 -108 C100 -122 89 -129 71 -129 C59 -129 37 -126 25 -117 L5 -197 C27 -208 48 -213 84 -213 C149 -213 225 -183 225 -113 C225 -75 199 -46 149 -39 L158 -10 C272 4 344 76 344 215 C344 276 314 310 284 336 C254 362 224 378 224 402 C224 426 248 443 281 443 C319 443 346 436 364 423 L390 570 C364 589 317 596 261 596 C149 596 43 525 43 391 C43 322 73 285 104 258 C134 232 164 215 164 185 C164 164 149 144 116 144 C75 144 41 152 9 167 L-19 8 Z " />
<glyph glyph-name="scedilla" unicode="&#x15f;" horiz-adv-x="304" d="M73 -213 C138 -213 214 -183 214 -113 C214 -75 188 -46 138 -39 L148 -5 C182 0 213 11 235 31 C258 52 272 82 272 121 C272 169 253 207 234 243 C218 272 204 299 200 328 C199 334 199 337 200 342 C209 344 218 345 227 345 C248 345 268 340 288 333 L311 454 C285 464 240 469 204 469 C71 469 24 379 23 317 C23 299 28 277 36 254 C45 226 58 198 69 174 L95 114 C90 113 84 112 78 112 C54 112 25 119 1 128 L-21 7 C0 1 28 -4 69 -7 L48 -65 L46 -77 C73 -81 89 -93 89 -108 C89 -122 78 -129 60 -129 C48 -129 26 -126 14 -117 L-6 -197 C16 -208 37 -213 73 -213 L73 -213 Z " />
<glyph glyph-name="Scaron" unicode="&#x160;" horiz-adv-x="368" d="M328 630 L425 781 L295 781 L273 694 L263 694 L271 781 L141 781 L185 630 L328 630 Z M-19 8 C23 -8 73 -13 112 -13 C253 -13 344 59 344 215 C344 276 314 310 284 336 C254 362 224 378 224 402 C224 426 248 443 281 443 C319 443 346 436 364 423 L390 570 C364 589 317 596 261 596 C149 596 43 525 43 391 C43 322 73 285 104 258 C134 232 164 215 164 185 C164 164 149 144 116 144 C75 144 41 152 9 167 L-19 8 Z " />
<glyph glyph-name="scaron" unicode="&#x161;" horiz-adv-x="304" d="M311 454 C285 464 240 469 204 469 C71 469 24 379 23 317 C23 299 28 277 36 254 C45 226 58 198 69 174 L95 114 C90 113 84 112 78 112 C54 112 25 119 1 128 L-21 7 C6 -1 46 -8 111 -8 C160 -8 205 4 235 31 C258 52 272 82 272 121 C272 169 253 207 234 243 C218 272 204 299 200 328 C199 334 199 337 200 342 C209 344 218 345 227 345 C248 345 268 340 288 333 L311 454 Z M271 522 L369 673 L239 673 L216 586 L206 586 L214 673 L84 673 L128 522 L271 522 Z " />
<glyph glyph-name="Tcommaaccent" unicode="&#x162;" horiz-adv-x="365" d="M39 430 L122 430 L48 0 L241 0 L315 430 L389 430 L415 583 L65 583 L39 430 Z M22 -255 L139 -255 L211 -62 L74 -62 L22 -255 Z " />
<glyph glyph-name="tcommaaccent" unicode="&#x163;" horiz-adv-x="304" d="M28 336 L59 336 L5 34 L149 -8 C193 11 241 40 280 70 L274 179 C249 162 221 153 200 147 L198 154 L228 336 L294 336 L315 459 L248 459 L269 583 L103 583 L81 459 L49 459 L28 336 Z M23 -255 L140 -255 L212 -62 L75 -62 L23 -255 Z " />
<glyph glyph-name="Tcaron" unicode="&#x164;" horiz-adv-x="365" d="M39 430 L122 430 L48 0 L241 0 L315 430 L389 430 L415 583 L65 583 L39 430 Z M317 630 L414 781 L284 781 L262 694 L252 694 L260 781 L130 781 L174 630 L317 630 Z " />
<glyph glyph-name="tcaron" unicode="&#x165;" horiz-adv-x="304" d="M28 336 L59 336 L5 34 L149 -8 C193 11 241 40 280 70 L274 179 C249 162 221 153 200 147 L198 154 L228 336 L294 336 L315 459 L248 459 L269 583 L103 583 L81 459 L49 459 L28 336 Z M275 489 L348 489 L446 679 L316 679 L275 489 Z " />
<glyph glyph-name="Tbar" unicode="&#x166;" horiz-adv-x="367" d="M41 430 L124 430 L100 294 L64 294 L48 201 L84 201 L50 0 L243 0 L277 201 L315 201 L331 294 L293 294 L317 430 L391 430 L417 583 L67 583 L41 430 Z " />
<glyph glyph-name="tbar" unicode="&#x167;" horiz-adv-x="305" d="M28 336 L59 336 L52 295 L29 295 L14 212 L37 212 L5 34 L149 -8 C193 11 241 40 280 70 L274 179 C249 162 221 153 200 147 L198 154 L207 212 L266 212 L281 295 L221 295 L228 336 L294 336 L315 459 L248 459 L269 583 L103 583 L81 459 L49 459 L28 336 Z " />
<glyph glyph-name="Utilde" unicode="&#x168;" horiz-adv-x="485" d="M453 767 C433 753 398 739 382 739 C341 739 332 767 286 767 C242 767 196 736 174 710 L182 627 C203 643 227 657 249 657 C287 657 302 627 348 627 C397 627 433 654 451 678 L453 767 Z M199 -13 C341 -13 420 49 454 239 L513 583 L329 583 L268 226 C255 149 243 135 228 135 C215 135 209 143 209 166 C209 180 211 199 216 225 L277 583 L86 583 L23 212 C19 188 17 166 17 146 C17 28 90 -13 199 -13 L199 -13 Z " />
<glyph glyph-name="utilde" unicode="&#x169;" horiz-adv-x="432" d="M271 459 L227 204 C211 178 196 164 186 157 L181 161 C181 183 187 218 192 249 L228 459 L60 459 L9 156 C5 132 3 110 3 90 C3 27 26 -10 76 -10 C114 -10 165 25 206 87 L191 0 L358 0 L439 459 L271 459 Z M405 680 C387 666 351 652 334 652 C293 652 284 680 238 680 C195 680 149 649 126 623 L135 540 C156 556 181 570 202 570 C241 570 255 540 302 540 C350 540 385 567 405 591 L405 680 Z " />
<glyph glyph-name="Umacron" unicode="&#x16a;" horiz-adv-x="485" d="M179 651 L437 651 L458 768 L200 768 L179 651 Z M199 -13 C341 -13 420 49 454 239 L513 583 L329 583 L268 226 C255 149 243 135 228 135 C215 135 209 143 209 166 C209 180 211 199 216 225 L277 583 L86 583 L23 212 C19 188 17 166 17 146 C17 28 90 -13 199 -13 L199 -13 Z " />
<glyph glyph-name="umacron" unicode="&#x16b;" horiz-adv-x="432" d="M271 459 L227 204 C211 178 196 164 186 157 L181 161 C181 183 187 218 192 249 L228 459 L60 459 L9 156 C5 132 3 110 3 90 C3 27 26 -10 76 -10 C114 -10 165 25 206 87 L191 0 L358 0 L439 459 L271 459 Z M136 546 L395 546 L415 663 L156 663 L136 546 Z " />
<glyph glyph-name="Ubreve" unicode="&#x16c;" horiz-adv-x="485" d="M325 737 C297 737 271 753 255 788 L179 699 C195 665 236 621 306 621 C370 621 427 662 457 696 L420 788 C390 755 355 737 325 737 L325 737 Z M199 -13 C341 -13 420 49 454 239 L513 583 L329 583 L268 226 C255 149 243 135 228 135 C215 135 209 143 209 166 C209 180 211 199 216 225 L277 583 L86 583 L23 212 C19 188 17 166 17 146 C17 28 90 -13 199 -13 L199 -13 Z " />
<glyph glyph-name="ubreve" unicode="&#x16d;" horiz-adv-x="432" d="M271 459 L227 204 C211 178 196 164 186 157 L181 161 C181 183 187 218 192 249 L228 459 L60 459 L9 156 C5 132 3 110 3 90 C3 27 26 -10 76 -10 C114 -10 165 25 206 87 L191 0 L358 0 L439 459 L271 459 Z M276 647 C248 647 221 663 207 698 L129 609 C145 575 186 531 256 531 C320 531 378 572 407 606 L372 698 C341 665 306 647 276 647 L276 647 Z " />
<glyph glyph-name="Uring" unicode="&#x16e;" horiz-adv-x="485" d="M199 -13 C341 -13 420 49 454 239 L513 583 L329 583 L268 226 C255 149 243 135 228 135 C215 135 209 143 209 166 C209 180 211 199 216 225 L277 583 L86 583 L23 212 C19 188 17 166 17 146 C17 28 90 -13 199 -13 L199 -13 Z M327 761 C339 761 344 753 344 740 C344 715 336 682 313 682 C302 682 297 693 297 708 C297 739 310 761 327 761 L327 761 Z M341 824 C275 824 213 792 213 702 C213 645 249 614 304 614 C370 614 431 645 431 741 C431 797 394 824 341 824 L341 824 Z " />
<glyph glyph-name="uring" unicode="&#x16f;" horiz-adv-x="432" d="M271 459 L227 204 C211 178 196 164 186 157 L181 161 C181 183 187 218 192 249 L228 459 L60 459 L9 156 C5 132 3 110 3 90 C3 27 26 -10 76 -10 C114 -10 165 25 206 87 L191 0 L358 0 L439 459 L271 459 Z M300 727 C234 727 172 694 172 605 C172 548 208 517 263 517 C329 517 390 547 390 643 C390 699 353 727 300 727 L300 727 Z M287 665 C300 665 305 656 305 643 C305 619 297 586 273 586 C263 586 257 597 257 613 C257 644 270 665 287 665 L287 665 Z " />
<glyph glyph-name="Uhungarumlaut" unicode="&#x170;" horiz-adv-x="485" d="M199 -13 C341 -13 420 49 454 239 L513 583 L329 583 L268 226 C255 149 243 135 228 135 C215 135 209 143 209 166 C209 180 211 199 216 225 L277 583 L86 583 L23 212 C19 188 17 166 17 146 C17 28 90 -13 199 -13 L199 -13 Z M282 630 L367 781 L199 781 L159 630 L282 630 Z M439 630 L562 781 L394 781 L315 630 L439 630 Z " />
<glyph glyph-name="uhungarumlaut" unicode="&#x171;" horiz-adv-x="432" d="M271 459 L227 204 C211 178 196 164 186 157 L181 161 C181 183 187 218 192 249 L228 459 L60 459 L9 156 C5 132 3 110 3 90 C3 27 26 -10 76 -10 C114 -10 165 25 206 87 L191 0 L358 0 L439 459 L271 459 Z M235 522 L319 673 L151 673 L111 522 L235 522 Z M391 522 L514 673 L346 673 L268 522 L391 522 Z " />
<glyph glyph-name="Uogonek" unicode="&#x172;" horiz-adv-x="486" d="M286 -196 L302 -105 C285 -112 265 -114 250 -114 C234 -114 216 -107 216 -86 C216 -59 237 -30 283 -3 C373 20 427 90 454 239 L513 583 L329 583 L268 226 C255 149 243 135 228 135 C215 135 209 143 209 166 C209 180 211 199 216 225 L277 583 L86 583 L23 212 C19 188 17 167 17 147 C17 39 78 -5 171 -12 C130 -40 96 -81 96 -139 C96 -183 126 -214 202 -214 C238 -214 263 -207 286 -196 L286 -196 Z " />
<glyph glyph-name="uogonek" unicode="&#x173;" horiz-adv-x="432" d="M271 459 L227 204 C211 178 196 164 186 157 L181 161 C181 183 187 218 192 249 L228 459 L60 459 L9 156 C5 132 3 110 3 90 C3 27 26 -10 76 -10 C114 -10 165 25 206 87 L191 0 L224 0 C175 -28 130 -72 130 -139 C130 -183 160 -214 236 -214 C272 -214 297 -207 320 -196 L336 -105 C319 -112 299 -114 284 -114 C268 -114 250 -107 250 -86 C250 -58 273 -28 323 0 L358 0 L439 459 L271 459 Z " />
<glyph glyph-name="Wcircumflex" unicode="&#x174;" horiz-adv-x="662" d="M713 583 L528 583 L448 229 L445 229 L483 583 L301 583 L210 229 L207 229 L255 583 L67 583 L27 0 L258 0 L340 314 L343 314 L311 0 L540 0 L713 583 Z M360 781 L264 630 L394 630 L416 717 L426 717 L418 630 L548 630 L503 781 L360 781 Z " />
<glyph glyph-name="wcircumflex" unicode="&#x175;" horiz-adv-x="647" d="M507 459 L426 154 L421 154 C422 214 425 265 431 317 C436 361 443 406 451 459 L283 459 C275 416 269 376 265 336 L191 154 L186 154 C187 214 190 265 196 317 C201 361 208 406 216 459 L48 459 C34 380 25 307 25 232 C25 138 36 56 48 0 L211 0 L270 124 C277 76 286 33 293 0 L544 0 L674 459 L507 459 Z M327 673 L231 522 L361 522 L383 609 L393 609 L386 522 L516 522 L470 673 L327 673 Z " />
<glyph glyph-name="Ycircumflex" unicode="&#x176;" horiz-adv-x="401" d="M461 583 L293 583 L225 358 L223 358 L234 583 L51 583 L91 183 L60 0 L251 0 L280 169 L461 583 Z M219 780 L123 629 L253 629 L275 716 L285 716 L277 629 L407 629 L362 780 L219 780 Z " />
<glyph glyph-name="ycircumflex" unicode="&#x177;" horiz-adv-x="412" d="M206 673 L110 522 L240 522 L262 609 L272 609 L265 522 L395 522 L349 673 L206 673 Z M253 -207 L309 0 L439 459 L272 459 L191 154 L186 154 C187 214 190 265 196 317 C201 361 208 406 216 459 L48 459 C34 379 24 304 24 229 C24 136 36 56 48 0 L142 0 L87 -172 L88 -207 L253 -207 Z " />
<glyph glyph-name="Ydieresis" unicode="&#x178;" horiz-adv-x="401" d="M461 583 L293 583 L225 358 L223 358 L234 583 L51 583 L91 183 L60 0 L251 0 L280 169 L461 583 Z M110 663 L242 631 L271 760 L127 760 L110 663 Z M275 663 L407 631 L436 760 L292 760 L275 663 Z " />
<glyph glyph-name="Zacute" unicode="&#x179;" horiz-adv-x="352" d="M292 0 L317 153 L224 153 L397 579 L397 583 L73 583 L47 430 L139 430 L28 153 L27 153 L27 152 L-32 3 L-31 0 L292 0 Z M295 630 L399 781 L231 781 L172 630 L295 630 Z " />
<glyph glyph-name="zacute" unicode="&#x17a;" horiz-adv-x="319" d="M264 522 L367 673 L199 673 L140 522 L264 522 Z M41 328 L133 328 L-21 93 L-30 0 L256 0 L277 131 L172 131 L329 374 L338 459 L63 459 L41 328 Z " />
<glyph glyph-name="Zdotaccent" unicode="&#x17b;" horiz-adv-x="352" d="M292 0 L317 153 L224 153 L397 579 L397 583 L73 583 L47 430 L139 430 L28 153 L27 153 L27 152 L-32 3 L-31 0 L292 0 Z M154 663 L313 625 L347 780 L174 780 L154 663 Z " />
<glyph glyph-name="zdotaccent" unicode="&#x17c;" horiz-adv-x="319" d="M41 328 L133 328 L-21 93 L-30 0 L256 0 L277 131 L172 131 L329 374 L338 459 L63 459 L41 328 Z M132 567 L291 529 L325 684 L152 684 L132 567 Z " />
<glyph glyph-name="Zcaron" unicode="&#x17d;" horiz-adv-x="352" d="M292 0 L317 153 L224 153 L397 579 L397 583 L73 583 L47 430 L139 430 L28 153 L27 153 L28 152 L-32 3 L-31 0 L292 0 Z M308 630 L405 781 L275 781 L253 694 L243 694 L251 781 L121 781 L165 630 L308 630 Z " />
<glyph glyph-name="zcaron" unicode="&#x17e;" horiz-adv-x="319" d="M281 522 L379 673 L249 673 L226 586 L216 586 L224 673 L94 673 L138 522 L281 522 Z M41 328 L133 328 L-21 93 L-30 0 L256 0 L277 131 L172 131 L329 374 L338 459 L63 459 L41 328 Z " />
<glyph glyph-name="uni018F" unicode="&#x18f;" horiz-adv-x="479" d="M76 563 L49 412 C90 430 160 444 218 444 C253 444 278 430 278 387 C278 379 277 369 275 359 L41 359 C22 283 8 222 8 167 C8 55 61 -13 188 -13 C403 -13 481 228 481 386 C481 534 393 596 278 596 C213 596 148 582 76 563 L76 563 Z M215 134 C208 134 201 142 201 155 C201 168 205 196 209 216 L260 216 C250 164 240 134 215 134 L215 134 Z " />
<glyph glyph-name="florin" unicode="&#x192;" horiz-adv-x="294" d="M17 32 C12 8 2 -12 -16 -12 C-19 -12 -22 -11 -25 -8 L-51 -133 C-26 -139 -3 -142 18 -142 C122 -142 174 -71 195 31 L225 203 L256 203 L278 328 L248 328 L255 367 C267 427 273 443 292 443 C296 443 301 442 305 439 L333 586 C312 589 293 591 275 591 C156 591 103 523 85 422 L68 328 L51 328 L29 203 L47 203 L17 32 Z " />
<glyph glyph-name="uni01C4" unicode="&#x1c4;" horiz-adv-x="837" d="M-10 0 L236 0 C341 0 483 128 483 377 C483 525 399 583 338 583 L90 583 L-10 0 Z M777 0 L802 153 L709 153 L882 579 L882 583 L558 583 L532 430 L624 430 L513 153 L512 153 L512 152 L453 3 L454 0 L777 0 Z M793 630 L890 781 L760 781 L738 694 L728 694 L736 781 L606 781 L650 630 L793 630 Z M257 430 C276 430 288 410 288 371 C288 284 268 153 208 153 L255 430 L257 430 Z " />
<glyph glyph-name="uni01C5" unicode="&#x1c5;" horiz-adv-x="804" d="M-10 0 L236 0 C341 0 483 128 483 377 C483 525 399 583 338 583 L90 583 L-10 0 Z M526 328 L618 328 L464 93 L455 0 L741 0 L762 131 L657 131 L814 374 L823 459 L548 459 L526 328 Z M766 522 L864 673 L734 673 L711 586 L701 586 L709 673 L579 673 L623 522 L766 522 Z M257 430 C276 430 288 410 288 371 C288 284 268 153 208 153 L255 430 L257 430 Z " />
<glyph glyph-name="uni01C6" unicode="&#x1c6;" horiz-adv-x="751" d="M360 0 L472 653 L305 653 L267 438 C249 456 223 469 195 469 C118 469 74 428 54 380 C26 306 -2 146 -2 48 C-2 36 -1 12 -1 0 L150 0 L208 97 L191 0 L360 0 Z M473 328 L565 328 L411 93 L402 0 L688 0 L709 131 L604 131 L761 374 L770 459 L495 459 L473 328 Z M713 522 L811 673 L681 673 L658 586 L648 586 L656 673 L526 673 L570 522 L713 522 Z M178 151 C180 185 182 216 186 244 C193 286 200 322 211 355 C216 354 222 353 227 349 C234 344 240 336 247 324 L228 211 L184 146 L178 151 Z " />
<glyph glyph-name="uni01C7" unicode="&#x1c7;" horiz-adv-x="603" d="M416 -119 C488 -19 543 89 559 179 L628 583 L436 583 L366 175 C352 92 319 3 266 -88 L416 -119 Z M-10 0 L291 0 L317 153 L208 153 L282 583 L90 583 L-10 0 Z " />
<glyph glyph-name="uni01C8" unicode="&#x1c8;" horiz-adv-x="567" d="M-10 0 L291 0 L317 153 L208 153 L282 583 L90 583 L-10 0 Z M327 0 C318 -52 302 -86 255 -151 L372 -221 C430 -157 479 -79 498 26 L575 459 L408 459 L327 0 Z M586 529 L620 684 L447 684 L427 567 L586 529 Z " />
<glyph glyph-name="uni01C9" unicode="&#x1c9;" horiz-adv-x="449" d="M153 0 L265 653 L98 653 L-16 0 L153 0 Z M209 0 C200 -52 184 -86 137 -151 L254 -221 C312 -157 361 -79 380 26 L457 459 L290 459 L209 0 Z M468 529 L502 684 L329 684 L309 567 L468 529 Z " />
<glyph glyph-name="uni01CA" unicode="&#x1ca;" horiz-adv-x="754" d="M-10 0 L165 0 L199 201 L201 201 L264 0 L417 0 L517 583 L332 583 L300 395 L298 395 L232 583 L90 583 L-10 0 Z M567 -119 C639 -19 694 89 710 179 L779 583 L587 583 L517 175 C503 92 470 3 417 -88 L567 -119 Z " />
<glyph glyph-name="uni01CB" unicode="&#x1cb;" horiz-adv-x="718" d="M-10 0 L165 0 L199 201 L201 201 L264 0 L417 0 L517 583 L332 583 L300 395 L298 395 L232 583 L90 583 L-10 0 Z M478 0 C469 -52 453 -86 406 -151 L523 -221 C581 -157 630 -79 649 26 L726 459 L559 459 L478 0 Z M737 529 L771 684 L598 684 L578 567 L737 529 Z " />
<glyph glyph-name="uni01CC" unicode="&#x1cc;" horiz-adv-x="656" d="M152 0 L196 255 C212 281 226 295 237 302 L242 298 C242 276 236 241 231 210 L195 0 L363 0 L414 303 C418 327 420 349 420 369 C420 432 397 469 347 469 C309 469 258 434 217 371 L232 459 L65 459 L-16 0 L152 0 Z M416 0 C407 -52 391 -86 344 -151 L461 -221 C519 -157 568 -79 587 26 L664 459 L497 459 L416 0 Z M675 529 L709 684 L536 684 L516 567 L675 529 Z " />
<glyph glyph-name="uni01D3" unicode="&#x1d3;" horiz-adv-x="485" d="M377 631 L474 782 L344 782 L322 695 L312 695 L320 782 L190 782 L234 631 L377 631 Z M199 -13 C341 -13 420 49 454 239 L513 583 L329 583 L268 226 C255 149 243 135 228 135 C215 135 209 143 209 166 C209 180 211 199 216 225 L277 583 L86 583 L23 212 C19 188 17 166 17 146 C17 28 90 -13 199 -13 L199 -13 Z " />
<glyph glyph-name="uni01D4" unicode="&#x1d4;" horiz-adv-x="432" d="M271 459 L227 204 C211 178 196 164 186 157 L181 161 C181 183 187 218 192 249 L228 459 L60 459 L9 156 C5 132 3 110 3 90 C3 27 26 -10 76 -10 C114 -10 165 25 206 87 L191 0 L358 0 L439 459 L271 459 Z M327 522 L425 673 L295 673 L272 586 L262 586 L270 673 L140 673 L184 522 L327 522 Z " />
<glyph glyph-name="uni01E2" unicode="&#x1e2;" horiz-adv-x="576" d="M184 0 L509 0 L535 153 L403 153 L415 221 L531 221 L557 364 L440 364 L451 430 L582 430 L609 583 L150 583 L-43 0 L131 0 L155 92 L200 92 L184 0 Z M256 650 L514 650 L535 767 L277 767 L256 650 Z M250 445 L262 445 L226 244 L196 244 L250 445 Z " />
<glyph glyph-name="uni01E3" unicode="&#x1e3;" horiz-adv-x="621" d="M593 89 L572 204 C521 176 440 135 399 126 L393 131 L393 161 C455 187 567 246 611 287 L611 405 C571 455 529 469 458 469 C400 469 348 441 309 404 C288 434 234 469 195 469 C118 469 74 428 54 380 C26 306 -2 146 -2 48 C-2 36 -1 12 -1 0 L150 0 L217 113 L217 86 C217 56 218 27 220 0 L371 -12 C429 5 532 49 593 89 L593 89 Z M210 546 L469 546 L489 663 L230 663 L210 546 Z M178 151 C180 185 182 216 186 244 C193 286 200 322 211 355 C216 354 222 353 227 349 C235 343 243 333 251 318 C238 285 230 246 224 206 L184 146 L178 151 Z M425 345 C428 345 433 346 437 345 C445 344 454 340 458 333 L458 291 C435 268 416 258 397 243 C401 278 409 310 425 345 L425 345 Z " />
<glyph glyph-name="uni01F1" unicode="&#x1f1;" horiz-adv-x="829" d="M-10 0 L236 0 C341 0 483 128 483 377 C483 525 399 583 338 583 L90 583 L-10 0 Z M769 0 L794 153 L701 153 L874 579 L874 583 L550 583 L524 430 L616 430 L505 153 L504 153 L504 152 L445 3 L446 0 L769 0 Z M257 430 C276 430 288 410 288 371 C288 284 268 153 208 153 L255 430 L257 430 Z " />
<glyph glyph-name="uni01F2" unicode="&#x1f2;" horiz-adv-x="804" d="M-10 0 L236 0 C341 0 483 128 483 377 C483 525 399 583 338 583 L90 583 L-10 0 Z M526 328 L618 328 L464 93 L455 0 L741 0 L762 131 L657 131 L814 374 L823 459 L548 459 L526 328 Z M257 430 C276 430 288 410 288 371 C288 284 268 153 208 153 L255 430 L257 430 Z " />
<glyph glyph-name="uni01F3" unicode="&#x1f3;" horiz-adv-x="751" d="M360 0 L472 653 L305 653 L267 438 C249 456 223 469 195 469 C118 469 74 428 54 380 C26 306 -2 146 -2 48 C-2 36 -1 12 -1 0 L150 0 L208 97 L191 0 L360 0 Z M473 328 L565 328 L411 93 L402 0 L688 0 L709 131 L604 131 L761 374 L770 459 L495 459 L473 328 Z M178 151 C180 185 182 216 186 244 C193 286 200 322 211 355 C216 354 222 353 227 349 C234 344 240 336 247 324 L228 211 L184 146 L178 151 Z " />
<glyph glyph-name="AEacute" unicode="&#x1fc;" horiz-adv-x="576" d="M184 0 L509 0 L535 153 L403 153 L415 221 L531 221 L557 364 L440 364 L451 430 L582 430 L609 583 L150 583 L-43 0 L131 0 L155 92 L200 92 L184 0 Z M430 631 L534 782 L366 782 L307 631 L430 631 Z M250 445 L262 445 L226 244 L196 244 L250 445 Z " />
<glyph glyph-name="aeacute" unicode="&#x1fd;" horiz-adv-x="621" d="M593 89 L572 204 C521 176 440 135 399 126 L393 131 L393 161 C455 187 567 246 611 287 L611 405 C571 455 529 469 458 469 C400 469 348 441 309 404 C288 434 234 469 195 469 C118 469 74 428 54 380 C26 306 -2 146 -2 48 C-2 36 -1 12 -1 0 L150 0 L217 113 L217 86 C217 56 218 27 220 0 L371 -12 C429 5 532 49 593 89 L593 89 Z M401 522 L504 673 L336 673 L277 522 L401 522 Z M178 151 C180 185 182 216 186 244 C193 286 200 322 211 355 C216 354 222 353 227 349 C235 343 243 333 251 318 C238 285 230 246 224 206 L184 146 L178 151 Z M425 345 C428 345 433 346 437 345 C445 344 454 340 458 333 L458 291 C435 268 416 258 397 243 C401 278 409 310 425 345 L425 345 Z " />
<glyph glyph-name="Oslashacute" unicode="&#x1fe;" horiz-adv-x="479" d="M187 -13 C408 -13 480 224 480 397 C480 451 469 497 445 531 L490 596 L416 596 L400 573 C374 588 342 596 302 596 C82 596 11 352 11 182 C11 133 21 91 41 59 L-10 -13 L67 -13 L85 13 C112 -3 146 -13 187 -13 L187 -13 Z M357 630 L461 781 L293 781 L234 630 L357 630 Z M218 135 C207 135 204 148 204 172 L204 185 L269 279 C255 207 235 135 218 135 L218 135 Z M272 448 C280 448 286 434 287 411 L223 321 C236 387 254 448 272 448 L272 448 Z " />
<glyph glyph-name="oslashacute" unicode="&#x1ff;" horiz-adv-x="417" d="M151 -8 C260 -8 325 38 354 88 C386 145 397 217 408 281 C413 335 402 380 378 413 L422 470 L359 470 L342 447 C320 461 294 469 266 469 C149 469 73 415 42 344 C17 286 10 237 1 154 C-3 112 9 75 33 46 L-12 -13 L51 -13 L71 14 C95 0 122 -8 151 -8 L151 -8 Z M330 522 L433 673 L265 673 L206 522 L330 522 Z M216 353 C228 353 237 346 242 340 C242 332 242 324 241 317 L184 243 C193 284 203 323 216 353 L216 353 Z M189 103 C179 103 174 109 169 116 C169 124 169 133 170 142 L228 217 C219 176 206 139 189 103 L189 103 Z " />
<glyph glyph-name="Scommaaccent" unicode="&#x218;" horiz-adv-x="368" d="M10 -255 L127 -255 L199 -62 L62 -62 L10 -255 Z M-19 8 C23 -8 73 -13 112 -13 C253 -13 344 59 344 215 C344 276 314 310 284 336 C254 362 224 378 224 402 C224 426 248 443 281 443 C319 443 346 436 364 423 L390 570 C364 589 317 596 261 596 C149 596 43 525 43 391 C43 322 73 285 104 258 C134 232 164 215 164 185 C164 164 149 144 116 144 C75 144 41 152 9 167 L-19 8 Z " />
<glyph glyph-name="scommaaccent" unicode="&#x219;" horiz-adv-x="304" d="M311 454 C285 464 240 469 204 469 C71 469 24 379 23 317 C23 299 28 277 36 254 C45 226 58 198 69 174 L95 114 C90 113 84 112 78 112 C54 112 25 119 1 128 L-21 7 C6 -1 46 -8 111 -8 C160 -8 205 4 235 31 C258 52 272 82 272 121 C272 169 253 207 234 243 C218 272 204 299 200 328 C199 334 199 337 200 342 C209 344 218 345 227 345 C248 345 268 340 288 333 L311 454 Z M-1 -255 L116 -255 L188 -62 L51 -62 L-1 -255 Z " />
<glyph glyph-name="uni021A" unicode="&#x21a;" horiz-adv-x="365" d="M39 430 L122 430 L48 0 L241 0 L315 430 L389 430 L415 583 L65 583 L39 430 Z M22 -255 L139 -255 L211 -62 L74 -62 L22 -255 Z " />
<glyph glyph-name="uni021B" unicode="&#x21b;" horiz-adv-x="304" d="M28 336 L59 336 L5 34 L149 -8 C193 11 241 40 280 70 L274 179 C249 162 221 153 200 147 L198 154 L228 336 L294 336 L315 459 L248 459 L269 583 L103 583 L81 459 L49 459 L28 336 Z M23 -255 L140 -255 L212 -62 L75 -62 L23 -255 Z " />
<glyph glyph-name="uni0232" unicode="&#x232;" horiz-adv-x="401" d="M461 583 L293 583 L225 358 L223 358 L234 583 L51 583 L91 183 L60 0 L251 0 L280 169 L461 583 Z M136 650 L394 650 L415 767 L157 767 L136 650 Z " />
<glyph glyph-name="uni0233" unicode="&#x233;" horiz-adv-x="412" d="M130 546 L389 546 L409 663 L150 663 L130 546 Z M253 -207 L309 0 L439 459 L272 459 L191 154 L186 154 C187 214 190 265 196 317 C201 361 208 406 216 459 L48 459 C34 379 24 304 24 229 C24 136 36 56 48 0 L142 0 L87 -172 L88 -207 L253 -207 Z " />
<glyph glyph-name="uni0237" unicode="&#x237;" horiz-adv-x="225" d="M-16 0 C-25 -52 -41 -86 -88 -151 L49 -233 C103 -164 133 -105 152 0 L232 459 L65 459 L-16 0 Z " />
<glyph glyph-name="uni0259" unicode="&#x259;" horiz-adv-x="403" d="M20 374 L41 259 C92 287 173 328 214 337 L220 332 L220 302 C157 275 46 216 2 176 L2 58 C42 8 84 -6 155 -6 C252 -6 335 74 360 139 C386 206 396 295 396 377 C396 407 395 436 393 463 L242 475 C184 458 81 414 20 374 L20 374 Z M188 118 C185 118 180 117 176 118 C168 119 159 123 155 130 L155 172 C177 194 196 204 216 219 C212 184 203 153 188 118 L188 118 Z " />
<glyph glyph-name="circumflex" unicode="&#x2c6;" horiz-adv-x="381" d="M206 673 L110 522 L240 522 L262 609 L272 609 L265 522 L395 522 L349 673 L206 673 Z " />
<glyph glyph-name="caron" unicode="&#x2c7;" horiz-adv-x="432" d="M356 522 L454 673 L324 673 L301 586 L291 586 L299 673 L169 673 L213 522 L356 522 Z " />
<glyph glyph-name="breve" unicode="&#x2d8;" horiz-adv-x="375" d="M272 647 C244 647 217 663 203 698 L125 609 C141 575 182 531 252 531 C316 531 374 572 403 606 L368 698 C337 665 302 647 272 647 L272 647 Z " />
<glyph glyph-name="dotaccent" unicode="&#x2d9;" horiz-adv-x="269" d="M119 567 L278 529 L312 684 L139 684 L119 567 Z " />
<glyph glyph-name="ring" unicode="&#x2da;" horiz-adv-x="308" d="M239 665 C252 665 257 656 257 643 C257 619 249 586 225 586 C215 586 209 597 209 613 C209 644 222 665 239 665 L239 665 Z M252 727 C186 727 124 694 124 605 C124 548 160 517 215 517 C281 517 342 547 342 643 C342 699 305 727 252 727 L252 727 Z " />
<glyph glyph-name="ogonek" unicode="&#x2db;" horiz-adv-x="452" d="M319 -196 L335 -105 C318 -112 298 -114 283 -114 C267 -114 249 -107 249 -86 C249 -53 281 -17 353 15 L278 25 C214 2 129 -48 129 -139 C129 -183 159 -214 235 -214 C271 -214 296 -207 319 -196 L319 -196 Z " />
<glyph glyph-name="tilde" unicode="&#x2dc;" horiz-adv-x="380" d="M406 680 C388 666 352 652 335 652 C294 652 285 680 239 680 C196 680 150 649 127 623 L136 540 C157 556 182 570 203 570 C242 570 256 540 303 540 C351 540 386 567 406 591 L406 680 Z " />
<glyph glyph-name="hungarumlaut" unicode="&#x2dd;" horiz-adv-x="473" d="M234 522 L318 673 L150 673 L110 522 L234 522 Z M390 522 L513 673 L345 673 L267 522 L390 522 Z " />
<glyph glyph-name="dotbelowcmb" unicode="&#x323;" d="M-219 -186 L-60 -224 L-26 -69 L-199 -69 L-219 -186 Z " />
<glyph glyph-name="uni0394" unicode="&#x394;" horiz-adv-x="501" d="M440 0 L463 133 L421 583 L205 583 L-9 131 L-32 0 L440 0 Z M267 392 L272 392 L251 152 L192 152 L267 392 Z " />
<glyph glyph-name="Sigma" unicode="&#x3a3;" horiz-adv-x="299" d="M-15 0 L227 0 L253 153 L194 153 L250 298 L241 430 L300 430 L327 583 L87 583 L63 443 L72 300 L11 148 L-15 0 Z " />
<glyph glyph-name="pi" unicode="&#x3c0;" horiz-adv-x="483" d="M442 313 L466 313 L491 459 L63 459 L38 313 L59 313 L4 0 L171 0 L226 313 L276 313 L235 84 C225 28 245 -8 314 -8 C341 -8 372 -3 408 9 L430 133 C427 132 425 131 423 131 C410 131 413 150 420 188 L442 313 Z " />
<glyph glyph-name="uni1E46" unicode="&#x1e46;" horiz-adv-x="494" d="M85 -186 L244 -224 L278 -69 L105 -69 L85 -186 Z M-10 0 L165 0 L199 201 L201 201 L264 0 L417 0 L517 583 L332 583 L300 395 L298 395 L232 583 L90 583 L-10 0 Z " />
<glyph glyph-name="uni1E47" unicode="&#x1e47;" horiz-adv-x="432" d="M152 0 L196 255 C212 281 226 295 237 302 L242 298 C242 276 236 241 231 210 L195 0 L363 0 L414 303 C418 327 420 349 420 369 C420 432 397 469 347 469 C309 469 258 434 217 371 L232 459 L65 459 L-16 0 L152 0 Z M63 -186 L222 -224 L256 -69 L83 -69 L63 -186 Z " />
<glyph glyph-name="uni1E62" unicode="&#x1e62;" horiz-adv-x="368" d="M14 -186 L173 -224 L207 -69 L34 -69 L14 -186 Z M-19 8 C23 -8 73 -13 112 -13 C253 -13 344 59 344 215 C344 276 314 310 284 336 C254 362 224 378 224 402 C224 426 248 443 281 443 C319 443 346 436 364 423 L390 570 C364 589 317 596 261 596 C149 596 43 525 43 391 C43 322 73 285 104 258 C134 232 164 215 164 185 C164 164 149 144 116 144 C75 144 41 152 9 167 L-19 8 Z " />
<glyph glyph-name="uni1E63" unicode="&#x1e63;" horiz-adv-x="304" d="M311 454 C285 464 240 469 204 469 C71 469 24 379 23 317 C23 299 28 277 36 254 C45 226 58 198 69 174 L95 114 C90 113 84 112 78 112 C54 112 25 119 1 128 L-21 7 C6 -1 46 -8 111 -8 C160 -8 205 4 235 31 C258 52 272 82 272 121 C272 169 253 207 234 243 C218 272 204 299 200 328 C199 334 199 337 200 342 C209 344 218 345 227 345 C248 345 268 340 288 333 L311 454 Z M-2 -186 L157 -224 L191 -69 L18 -69 L-2 -186 Z " />
<glyph glyph-name="Wgrave" unicode="&#x1e80;" horiz-adv-x="662" d="M460 630 L401 781 L233 781 L337 630 L460 630 Z M713 583 L528 583 L448 229 L445 229 L483 583 L301 583 L210 229 L207 229 L255 583 L67 583 L27 0 L258 0 L340 314 L343 314 L311 0 L540 0 L713 583 Z " />
<glyph glyph-name="wgrave" unicode="&#x1e81;" horiz-adv-x="647" d="M507 459 L426 154 L421 154 C422 214 425 265 431 317 C436 361 443 406 451 459 L283 459 C275 416 269 376 265 336 L191 154 L186 154 C187 214 190 265 196 317 C201 361 208 406 216 459 L48 459 C34 380 25 307 25 232 C25 138 36 56 48 0 L211 0 L270 124 C277 76 286 33 293 0 L544 0 L674 459 L507 459 Z M433 522 L374 673 L206 673 L309 522 L433 522 Z " />
<glyph glyph-name="Wacute" unicode="&#x1e82;" horiz-adv-x="662" d="M469 630 L573 781 L405 781 L346 630 L469 630 Z M713 583 L528 583 L448 229 L445 229 L483 583 L301 583 L210 229 L207 229 L255 583 L67 583 L27 0 L258 0 L340 314 L343 314 L311 0 L540 0 L713 583 Z " />
<glyph glyph-name="wacute" unicode="&#x1e83;" horiz-adv-x="647" d="M507 459 L426 154 L421 154 C422 214 425 265 431 317 C436 361 443 406 451 459 L283 459 C275 416 269 376 265 336 L191 154 L186 154 C187 214 190 265 196 317 C201 361 208 406 216 459 L48 459 C34 380 25 307 25 232 C25 138 36 56 48 0 L211 0 L270 124 C277 76 286 33 293 0 L544 0 L674 459 L507 459 Z M435 522 L538 673 L370 673 L311 522 L435 522 Z " />
<glyph glyph-name="Wdieresis" unicode="&#x1e84;" horiz-adv-x="662" d="M251 663 L383 631 L412 760 L268 760 L251 663 Z M416 663 L548 631 L577 760 L433 760 L416 663 Z M713 583 L528 583 L448 229 L445 229 L483 583 L301 583 L210 229 L207 229 L255 583 L67 583 L27 0 L258 0 L340 314 L343 314 L311 0 L540 0 L713 583 Z " />
<glyph glyph-name="wdieresis" unicode="&#x1e85;" horiz-adv-x="647" d="M507 459 L426 154 L421 154 C422 214 425 265 431 317 C436 361 443 406 451 459 L283 459 C275 416 269 376 265 336 L191 154 L186 154 C187 214 190 265 196 317 C201 361 208 406 216 459 L48 459 C34 380 25 307 25 232 C25 138 36 56 48 0 L211 0 L270 124 C277 76 286 33 293 0 L544 0 L674 459 L507 459 Z M224 565 L356 533 L385 662 L241 662 L224 565 Z M389 565 L521 533 L550 662 L406 662 L389 565 Z " />
<glyph glyph-name="uni1EBC" unicode="&#x1ebc;" horiz-adv-x="375" d="M-10 0 L309 0 L334 153 L208 153 L219 221 L331 221 L357 364 L244 364 L255 430 L380 430 L407 583 L90 583 L-10 0 Z M401 767 C381 753 346 739 330 739 C289 739 280 767 234 767 C190 767 144 736 122 710 L130 627 C151 643 175 657 197 657 C235 657 250 627 296 627 C345 627 381 654 399 678 L401 767 Z " />
<glyph glyph-name="uni1EBD" unicode="&#x1ebd;" horiz-adv-x="403" d="M375 89 L354 204 C303 176 222 135 181 126 L175 131 L175 161 C237 187 349 246 393 287 L393 405 C353 455 311 469 240 469 C143 469 60 389 35 324 C9 257 -1 168 -1 86 C-1 56 0 27 2 0 L153 -12 C211 5 314 49 375 89 L375 89 Z M409 680 C391 666 355 652 338 652 C297 652 288 680 242 680 C199 680 153 649 130 623 L139 540 C160 556 185 570 206 570 C245 570 259 540 306 540 C354 540 389 567 409 591 L409 680 Z M207 345 C210 345 215 346 219 345 C227 344 236 340 240 333 L240 291 C217 268 198 258 179 243 C183 278 191 310 207 345 L207 345 Z " />
<glyph glyph-name="Ygrave" unicode="&#x1ef2;" horiz-adv-x="401" d="M461 583 L293 583 L225 358 L223 358 L234 583 L51 583 L91 183 L60 0 L251 0 L280 169 L461 583 Z M333 630 L274 781 L106 781 L210 630 L333 630 Z " />
<glyph glyph-name="ygrave" unicode="&#x1ef3;" horiz-adv-x="412" d="M316 522 L257 673 L89 673 L192 522 L316 522 Z M253 -207 L309 0 L439 459 L272 459 L191 154 L186 154 C187 214 190 265 196 317 C201 361 208 406 216 459 L48 459 C34 379 24 304 24 229 C24 136 36 56 48 0 L142 0 L87 -172 L88 -207 L253 -207 Z " />
<glyph glyph-name="uni2004" unicode="&#x2004;" horiz-adv-x="333" d="" />
<glyph glyph-name="uni2007" unicode="&#x2007;" horiz-adv-x="600" d="" />
<glyph glyph-name="uni2009" unicode="&#x2009;" horiz-adv-x="160" d="" />
<glyph glyph-name="uni200A" unicode="&#x200a;" horiz-adv-x="80" d="" />
<glyph glyph-name="uni200B" unicode="&#x200b;" d="" />
<glyph glyph-name="uni2012" unicode="&#x2012;" horiz-adv-x="378" d="M388 192 L388 338 L-10 338 L-10 192 L388 192 Z " />
<glyph glyph-name="endash" unicode="&#x2013;" horiz-adv-x="385" d="M22 205 L345 205 L362 301 L39 301 L22 205 Z " />
<glyph glyph-name="emdash" unicode="&#x2014;" horiz-adv-x="787" d="M22 205 L747 205 L764 301 L39 301 L22 205 Z " />
<glyph glyph-name="quoteleft" unicode="&#x2018;" horiz-adv-x="207" d="M152 677 C114 625 87 551 69 491 C64 477 59 445 54 430 L201 421 C204 434 208 462 211 475 C225 532 240 582 270 633 L152 677 Z " />
<glyph glyph-name="quoteright" unicode="&#x2019;" horiz-adv-x="201" d="M174 441 C212 493 239 567 257 627 C262 641 267 673 272 688 L125 697 C122 684 118 656 115 643 C101 586 86 536 56 485 L174 441 Z " />
<glyph glyph-name="quotesinglbase" unicode="&#x201a;" horiz-adv-x="208" d="M57 -141 C95 -89 123 -14 141 46 C146 61 151 92 156 108 L8 117 C6 103 1 75 -2 62 C-16 5 -32 -45 -61 -97 L57 -141 Z " />
<glyph glyph-name="quotedblleft" unicode="&#x201c;" horiz-adv-x="389" d="M152 677 C114 625 87 551 69 491 C64 477 59 445 54 430 L201 421 C204 434 208 462 211 475 C225 532 240 582 270 633 L152 677 Z M334 677 C296 625 269 551 251 491 C246 477 241 445 236 430 L383 421 C386 434 390 462 393 475 C407 532 422 582 452 633 L334 677 Z " />
<glyph glyph-name="quotedblright" unicode="&#x201d;" horiz-adv-x="386" d="M171 432 C209 484 236 558 254 618 C259 632 264 664 269 679 L122 688 C119 675 115 647 112 634 C98 577 83 527 53 476 L171 432 Z M356 432 C394 484 421 558 439 618 C444 632 449 664 454 679 L307 688 C304 675 300 647 297 634 C283 577 268 527 238 476 L356 432 Z " />
<glyph glyph-name="quotedblbase" unicode="&#x201e;" horiz-adv-x="393" d="M57 -141 C95 -89 123 -14 141 46 C146 61 151 92 156 108 L8 117 C6 103 1 75 -2 62 C-16 5 -32 -45 -61 -97 L57 -141 Z M242 -141 C280 -89 308 -14 326 46 C331 61 336 92 341 108 L193 117 C191 103 186 75 183 62 C169 5 153 -45 124 -97 L242 -141 Z " />
<glyph glyph-name="dagger" unicode="&#x2020;" horiz-adv-x="344" d="M33 343 L119 343 L59 0 L196 0 L256 343 L342 343 L365 471 L278 471 L310 653 L173 653 L141 471 L56 471 L33 343 Z " />
<glyph glyph-name="daggerdbl" unicode="&#x2021;" horiz-adv-x="356" d="M44 374 L130 374 L111 266 L25 266 L3 139 L89 139 L65 0 L202 0 L226 139 L312 139 L334 266 L248 266 L267 374 L353 374 L376 501 L289 501 L316 653 L179 653 L152 501 L67 501 L44 374 Z " />
<glyph glyph-name="bullet" unicode="&#x2022;" horiz-adv-x="369" d="M165 152 C249 152 342 223 342 325 C342 388 302 447 218 447 C135 447 43 375 43 279 C43 209 82 152 165 152 L165 152 Z " />
<glyph glyph-name="ellipsis" unicode="&#x2026;" horiz-adv-x="733" d="M-19 -4 L136 -20 L185 145 L14 145 L-19 -4 Z M233 -4 L388 -20 L437 145 L266 145 L233 -4 Z M485 -4 L640 -20 L689 145 L518 145 L485 -4 Z " />
<glyph glyph-name="perthousand" unicode="&#x2030;" horiz-adv-x="843" d="M149 279 C239 279 304 347 304 483 C304 556 270 596 205 596 C117 596 46 526 46 390 C46 318 82 279 149 279 L149 279 Z M164 363 C157 363 154 369 154 382 C154 405 167 510 188 510 C194 510 197 505 197 494 C197 471 182 363 164 363 L164 363 Z M309 338 L388 338 L550 562 L553 583 L424 583 L309 338 Z M291 251 L213 251 L45 21 L42 0 L172 0 L291 251 Z M386 -13 C475 -13 542 54 542 191 C542 264 507 304 442 304 C353 304 283 235 283 97 C283 26 320 -13 386 -13 L386 -13 Z M401 71 C394 71 391 76 391 88 C391 143 411 218 426 218 C433 218 436 213 436 202 C436 166 420 71 401 71 L401 71 Z M653 -13 C742 -13 809 54 809 191 C809 264 774 304 709 304 C620 304 550 235 550 97 C550 26 587 -13 653 -13 L653 -13 Z M668 71 C661 71 658 76 658 88 C658 143 678 218 693 218 C700 218 703 213 703 202 C703 166 687 71 668 71 L668 71 Z " />
<glyph glyph-name="guilsinglleft" unicode="&#x2039;" horiz-adv-x="274" d="M61 46 L219 46 L192 226 L273 405 L124 405 L11 226 L61 46 Z " />
<glyph glyph-name="guilsinglright" unicode="&#x203a;" horiz-adv-x="274" d="M203 408 L45 408 L72 228 L-9 49 L140 49 L253 228 L203 408 Z " />
<glyph glyph-name="uni203D" unicode="&#x203d;" horiz-adv-x="338" d="M108 243 L156 179 L238 231 L217 292 L284 336 C338 372 349 414 349 444 C349 521 317 578 142 602 L98 490 C164 488 223 471 258 441 C229 412 206 390 184 366 L142 453 L37 388 L108 243 Z M60 3 L215 -13 L261 145 L90 145 L60 3 Z " />
<glyph glyph-name="fraction" unicode="&#x2044;" horiz-adv-x="135" d="M-57 0 L277 578 L277 583 L213 583 L-129 5 L-129 0 L-57 0 Z " />
<glyph glyph-name="zerosuperior" unicode="&#x2070;" horiz-adv-x="296" d="M347 626 C347 689 299 727 229 727 C139 727 80 691 61 561 C58 536 55 514 55 495 C55 433 102 393 175 393 C280 393 335 458 344 582 C346 596 347 611 347 626 L347 626 Z M188 472 C180 472 176 478 176 499 C176 512 179 531 183 560 C195 639 205 647 215 647 C220 647 224 641 224 620 C224 607 222 588 218 562 C206 486 197 472 188 472 L188 472 Z " />
<glyph glyph-name="i.superior" unicode="&#x2071;" horiz-adv-x="171" d="M174 400 L233 721 L105 721 L45 400 L174 400 Z M241 770 L267 879 L134 879 L119 797 L241 770 Z " />
<glyph glyph-name="foursuperior" unicode="&#x2074;" horiz-adv-x="257" d="M284 469 L298 546 L282 546 L315 721 L155 721 L54 546 L39 469 L140 469 L128 400 L255 400 L268 469 L284 469 Z M125 546 L173 644 L155 546 L125 546 Z " />
<glyph glyph-name="fivesuperior" unicode="&#x2075;" horiz-adv-x="229" d="M42 410 C65 403 95 397 125 397 C205 397 267 421 267 518 C267 578 215 597 200 605 C193 605 182 603 173 601 L181 646 L282 646 L295 721 L99 721 L64 546 L73 532 C87 537 109 544 124 546 C133 541 137 522 137 505 C137 478 124 474 106 474 C89 474 70 481 55 486 L42 410 Z " />
<glyph glyph-name="sixsuperior" unicode="&#x2076;" horiz-adv-x="278" d="M324 714 C297 723 261 726 239 726 C111 726 56 614 56 518 C56 452 96 395 170 395 C268 395 323 452 323 531 C323 577 277 604 256 611 C244 611 210 601 185 583 C189 600 193 614 197 623 C206 644 219 652 241 652 C257 652 284 650 309 642 L324 714 Z M192 544 C195 539 197 527 197 516 C197 499 195 471 180 463 C176 465 175 473 175 482 C175 497 176 513 177 530 C182 537 184 539 192 544 L192 544 Z " />
<glyph glyph-name="sevensuperior" unicode="&#x2077;" horiz-adv-x="209" d="M70 639 L149 639 L47 415 L48 400 L165 400 L284 681 L282 721 L83 721 L70 639 Z " />
<glyph glyph-name="eightsuperior" unicode="&#x2078;" horiz-adv-x="280" d="M336 654 C336 701 284 726 215 726 C115 726 74 670 74 622 C76 597 98 572 123 549 C81 537 47 516 47 472 C47 432 92 395 170 395 C270 395 316 439 316 490 C316 518 285 545 254 572 C293 586 336 612 336 654 L336 654 Z M186 649 C187 653 194 657 202 657 C213 657 218 655 218 642 C218 630 217 617 214 606 C199 621 188 635 186 649 L186 649 Z M198 473 C191 470 183 467 176 467 C170 467 165 469 162 473 C163 489 164 501 166 512 C182 498 194 485 198 473 L198 473 Z " />
<glyph glyph-name="ninesuperior" unicode="&#x2079;" horiz-adv-x="277" d="M61 407 C88 398 124 395 146 395 C274 395 329 507 329 603 C329 669 289 726 215 726 C117 726 62 669 62 590 C62 544 108 517 129 510 C141 510 175 519 199 537 C196 521 192 507 188 498 C179 477 166 469 144 469 C128 469 101 471 76 479 L61 407 Z M193 577 C190 582 188 594 188 605 C188 622 190 650 205 658 C209 656 210 648 210 639 C210 624 209 607 207 591 C203 584 201 581 193 577 L193 577 Z " />
<glyph glyph-name="plussuperior" unicode="&#x207a;" horiz-adv-x="225" d="M58 520 L116 520 L102 440 L191 440 L205 520 L261 520 L278 621 L223 621 L237 701 L148 701 L134 621 L75 621 L58 520 Z " />
<glyph glyph-name="minussuperior" unicode="&#x207b;" horiz-adv-x="235" d="M63 520 L266 520 L283 621 L80 621 L63 520 Z " />
<glyph glyph-name="equalsuperior" unicode="&#x207c;" horiz-adv-x="235" d="M50 450 L253 450 L271 551 L68 551 L50 450 Z M77 600 L280 600 L298 701 L95 701 L77 600 Z " />
<glyph glyph-name="parenleftsuperior" unicode="&#x207d;" horiz-adv-x="157" d="M183 315 C163 355 147 409 147 484 C147 518 150 557 158 600 C181 731 227 810 276 873 L186 873 C138 814 85 718 63 595 C56 557 53 523 53 491 C53 418 69 360 90 315 L183 315 Z " />
<glyph glyph-name="parenrightsuperior" unicode="&#x207e;" horiz-adv-x="156" d="M94 873 C113 833 129 779 129 704 C129 670 126 631 118 588 C95 457 49 378 0 315 L91 315 C137 374 191 470 213 593 C220 630 222 664 222 695 C222 769 206 827 186 873 L94 873 Z " />
<glyph glyph-name="n.superior" unicode="&#x207f;" horiz-adv-x="329" d="M174 400 L207 578 C218 597 229 606 237 611 L241 609 C241 593 236 569 233 547 L206 400 L335 400 L373 612 C376 627 377 641 377 653 C377 701 357 728 318 728 C289 728 252 703 221 659 L233 721 L105 721 L45 400 L174 400 Z " />
<glyph glyph-name="zeroinferior" unicode="&#x2080;" horiz-adv-x="296" d="M277 226 C277 289 229 327 159 327 C69 327 10 291 -9 161 C-12 136 -15 114 -15 95 C-15 33 32 -7 105 -7 C210 -7 265 58 274 182 C276 196 277 211 277 226 L277 226 Z M118 72 C110 72 106 78 106 99 C106 112 109 131 113 160 C125 239 135 247 145 247 C150 247 154 241 154 220 C154 207 152 188 148 162 C136 86 127 72 118 72 L118 72 Z " />
<glyph glyph-name="oneinferior" unicode="&#x2081;" horiz-adv-x="193" d="M125 0 L185 321 L70 321 L11 296 L-6 216 L36 223 L-4 0 L125 0 Z " />
<glyph glyph-name="twoinferior" unicode="&#x2082;" horiz-adv-x="226" d="M174 0 L185 76 L79 76 C132 127 216 187 216 256 C216 308 169 326 115 326 C90 326 44 320 24 311 L10 234 C17 237 30 238 44 238 C62 238 80 235 85 228 C71 182 37 146 -24 75 L-36 0 L174 0 Z " />
<glyph glyph-name="threeinferior" unicode="&#x2083;" horiz-adv-x="216" d="M-36 10 C-23 3 23 -5 49 -5 C127 -5 180 36 180 102 C180 146 144 168 125 181 L125 183 C153 194 204 206 204 264 C204 313 141 326 99 326 C75 326 40 322 19 316 L9 230 C17 233 28 235 38 235 C51 235 71 233 73 226 C65 207 43 188 28 173 L23 142 C37 130 51 113 54 89 C44 80 32 78 20 78 C7 78 -5 80 -16 84 L-36 10 Z " />
<glyph glyph-name="fourinferior" unicode="&#x2084;" horiz-adv-x="258" d="M214 69 L228 146 L212 146 L245 321 L85 321 L-16 146 L-31 69 L70 69 L58 0 L185 0 L198 69 L214 69 Z M55 146 L103 244 L85 146 L55 146 Z " />
<glyph glyph-name="fiveinferior" unicode="&#x2085;" horiz-adv-x="230" d="M-28 10 C-5 3 25 -3 55 -3 C135 -3 197 21 197 118 C197 178 145 197 130 205 C123 205 112 203 103 201 L111 246 L212 246 L225 321 L29 321 L-6 146 L3 132 C17 137 39 144 54 146 C63 141 67 122 67 105 C67 78 54 74 36 74 C19 74 0 81 -15 86 L-28 10 Z " />
<glyph glyph-name="sixinferior" unicode="&#x2086;" horiz-adv-x="278" d="M254 314 C227 323 191 326 169 326 C41 326 -14 214 -14 118 C-14 52 26 -5 100 -5 C198 -5 253 52 253 131 C253 177 207 204 186 211 C174 211 140 201 115 183 C119 200 123 214 127 223 C136 244 149 252 171 252 C187 252 214 250 239 242 L254 314 Z M122 144 C125 139 127 127 127 116 C127 99 125 71 110 63 C106 65 105 73 105 82 C105 97 106 113 107 130 C112 137 114 139 122 144 L122 144 Z " />
<glyph glyph-name="seveninferior" unicode="&#x2087;" horiz-adv-x="209" d="M0 239 L79 239 L-23 15 L-22 0 L95 0 L214 281 L212 321 L13 321 L0 239 Z " />
<glyph glyph-name="eightinferior" unicode="&#x2088;" horiz-adv-x="281" d="M266 254 C266 301 214 326 145 326 C45 326 4 270 4 222 C6 197 28 172 53 149 C11 137 -23 116 -23 72 C-23 32 22 -5 100 -5 C200 -5 246 39 246 90 C246 118 215 145 184 172 C223 186 266 212 266 254 L266 254 Z M116 249 C117 253 124 257 132 257 C143 257 148 255 148 242 C148 230 147 217 144 206 C129 221 118 235 116 249 L116 249 Z M128 73 C121 70 113 67 106 67 C100 67 95 69 92 73 C93 89 94 101 96 112 C112 98 124 85 128 73 L128 73 Z " />
<glyph glyph-name="nineinferior" unicode="&#x2089;" horiz-adv-x="278" d="M-9 7 C18 -2 54 -5 76 -5 C204 -5 259 107 259 203 C259 269 219 326 145 326 C47 326 -8 269 -8 190 C-8 144 38 117 59 110 C71 110 105 119 129 137 C126 121 122 107 118 98 C109 77 96 69 74 69 C58 69 31 71 6 79 L-9 7 Z M123 177 C120 182 118 194 118 205 C118 222 120 250 135 258 C139 256 140 248 140 239 C140 224 139 207 137 191 C133 184 131 181 123 177 L123 177 Z " />
<glyph glyph-name="plus.inferior" unicode="&#x208a;" horiz-adv-x="225" d="M-12 120 L46 120 L32 40 L121 40 L135 120 L191 120 L208 221 L153 221 L167 301 L78 301 L64 221 L5 221 L-12 120 Z " />
<glyph glyph-name="minus.inferior" unicode="&#x208b;" horiz-adv-x="236" d="M-7 120 L196 120 L213 221 L10 221 L-7 120 Z " />
<glyph glyph-name="equal.inferior" unicode="&#x208c;" horiz-adv-x="236" d="M-20 50 L183 50 L201 151 L-2 151 L-20 50 Z M7 200 L210 200 L228 301 L25 301 L7 200 Z " />
<glyph glyph-name="parenleft.inferior" unicode="&#x208d;" horiz-adv-x="155" d="M112 -85 C92 -45 76 9 76 84 C76 118 79 157 87 200 C110 331 156 410 205 473 L115 473 C67 414 14 318 -8 195 C-15 157 -18 123 -18 91 C-18 18 -2 -40 19 -85 L112 -85 Z " />
<glyph glyph-name="parenright.inferior" unicode="&#x208e;" horiz-adv-x="155" d="M22 473 C41 433 57 379 57 304 C57 270 54 231 46 188 C23 57 -23 -22 -72 -85 L19 -85 C65 -26 119 70 141 193 C148 230 150 264 150 295 C150 369 134 427 114 473 L22 473 Z " />
<glyph glyph-name="a.inferior" unicode="&#x2090;" horiz-adv-x="331" d="M263 0 L322 321 L193 321 L190 306 C176 318 157 328 136 328 C79 328 42 300 27 266 C6 214 -10 127 -14 57 C-15 36 -14 17 -14 0 L103 0 L145 68 L133 0 L263 0 Z M124 106 C125 129 127 151 130 171 C135 200 140 225 148 248 C157 247 166 241 175 227 L160 148 L128 102 L124 106 Z " />
<glyph glyph-name="e.inferior" unicode="&#x2091;" horiz-adv-x="309" d="M275 62 L259 143 C222 123 159 94 128 88 L124 92 C124 99 125 106 125 113 C172 132 256 172 288 201 L302 275 C273 310 217 328 164 328 C127 328 65 323 57 314 C45 303 35 285 27 265 C12 230 -2 164 -10 99 C-13 67 -15 28 -14 0 L108 -8 C151 3 230 34 275 62 L275 62 Z M149 245 C157 246 167 242 172 232 L169 204 C154 189 143 182 131 173 C134 197 140 220 149 245 L149 245 Z " />
<glyph glyph-name="o.inferior" unicode="&#x2092;" horiz-adv-x="311" d="M126 72 C119 72 115 76 111 81 C111 90 112 100 113 111 C118 157 130 211 146 247 C155 247 161 242 165 238 C165 225 164 211 162 199 C157 150 145 111 126 72 L126 72 Z M93 -6 C160 -6 229 24 250 59 C274 98 286 141 293 208 C302 287 249 328 183 328 C96 328 36 287 13 238 C-5 197 -10 165 -17 107 C-24 44 29 -6 93 -6 L93 -6 Z " />
<glyph glyph-name="x.inferior" unicode="&#x2093;" horiz-adv-x="315" d="M200 321 L163 234 L158 321 L26 321 L37 170 L-45 0 L82 0 L122 97 L126 0 L259 0 L247 159 L327 321 L200 321 Z " />
<glyph glyph-name="h.inferior" unicode="&#x2095;" horiz-adv-x="330" d="M105 0 L137 180 C148 197 159 206 167 211 L171 209 C171 193 166 169 163 147 L136 0 L265 0 L303 212 C306 227 307 241 307 253 C307 301 287 328 248 328 C220 328 182 304 152 259 L188 457 L59 457 L-25 0 L105 0 Z " />
<glyph glyph-name="k.inferior" unicode="&#x2096;" horiz-adv-x="330" d="M105 0 L136 172 C152 200 163 211 174 221 L176 218 C171 185 159 162 148 142 L143 114 L142 0 L276 0 L272 134 C292 168 311 232 318 288 C318 297 319 311 319 321 L200 328 C189 319 172 299 154 272 L188 457 L59 457 L-25 0 L105 0 Z " />
<glyph glyph-name="l.inferior" unicode="&#x2097;" horiz-adv-x="180" d="M109 0 L192 457 L63 457 L-21 0 L109 0 Z " />
<glyph glyph-name="m.inferior" unicode="&#x2098;" horiz-adv-x="482" d="M288 0 L418 0 L455 212 C458 227 459 241 459 254 C459 301 440 328 401 328 C371 328 333 303 302 257 C302 301 285 328 248 328 C219 328 182 303 151 259 L163 321 L35 321 L-25 0 L104 0 L137 178 C148 197 159 206 167 211 L171 209 C171 193 166 169 163 147 L136 0 L260 0 L293 184 C303 199 312 206 319 211 L323 209 C323 193 319 169 315 147 L288 0 Z " />
<glyph glyph-name="n.inferior" unicode="&#x2099;" horiz-adv-x="330" d="M104 0 L137 178 C148 197 159 206 167 211 L171 209 C171 193 166 169 163 147 L136 0 L265 0 L303 212 C306 227 307 241 307 253 C307 301 287 328 248 328 C219 328 182 303 151 259 L163 321 L35 321 L-25 0 L104 0 Z " />
<glyph glyph-name="p.inferior" unicode="&#x209a;" horiz-adv-x="337" d="M93 -145 L119 0 C137 -5 157 -8 170 -8 C266 -8 308 97 321 215 C327 271 312 328 253 328 C239 328 210 321 176 310 L178 321 L50 321 L38 259 C16 249 0 240 -4 235 L10 169 C14 171 18 174 23 176 L-36 -145 L93 -145 Z M182 223 L188 220 C188 207 187 192 185 178 C180 131 167 81 154 81 C148 81 142 84 136 89 L159 217 L182 223 Z " />
<glyph glyph-name="s.inferior" unicode="&#x209b;" horiz-adv-x="226" d="M219 318 C199 325 166 328 139 328 C41 328 2 273 2 222 C2 209 5 194 11 178 C18 158 27 139 36 122 C42 108 47 95 55 80 C44 77 32 77 27 77 C13 77 -1 80 -15 85 L-31 5 C-11 -1 19 -6 67 -6 C107 -6 145 3 166 24 C180 38 190 58 190 85 C190 118 176 145 162 170 C150 190 139 209 137 230 C136 234 136 236 137 239 C148 241 158 243 169 243 C182 243 191 241 202 237 L219 318 Z " />
<glyph glyph-name="t.inferior" unicode="&#x209c;" horiz-adv-x="228" d="M5 235 L23 235 L-16 24 L90 -6 C123 8 164 28 192 49 L189 131 C170 119 149 110 133 103 L132 108 L154 235 L207 235 L223 321 L169 321 L184 409 L56 409 L39 321 L21 321 L5 235 Z " />
<glyph glyph-name="colonsign" unicode="&#x20a1;" horiz-adv-x="467" d="M223 -63 L289 -63 L518 630 L452 630 L433 574 C427 577 420 579 412 582 L428 630 L363 630 L351 594 C337 595 323 596 306 596 C117 596 21 413 21 182 C21 70 66 2 151 -11 L134 -63 L200 -63 L217 -11 C225 -10 233 -8 241 -6 L223 -63 Z M206 214 C206 317 227 407 297 430 L213 177 C208 187 206 199 206 214 L206 214 Z M283 144 L268 144 L362 429 C369 427 376 423 382 420 L291 144 C288 143 285 144 283 144 L283 144 Z " />
<glyph glyph-name="cruzeiro" unicode="&#x20a2;" horiz-adv-x="488" d="M488 382 C477 396 466 402 442 402 C422 402 397 363 374 315 L388 393 L244 393 L206 178 C194 193 188 215 188 245 C188 390 254 436 378 436 C388 436 463 432 477 418 L503 563 C492 582 408 596 373 596 C133 596 20 446 20 217 C20 84 80 -14 254 -14 C296 -14 393 6 408 28 L432 160 C413 150 370 146 344 144 L354 200 C368 215 378 223 389 231 L451 210 L488 382 Z " />
<glyph glyph-name="franc" unicode="&#x20a3;" horiz-adv-x="590" d="M-5 0 L176 0 L211 201 L276 201 L241 0 L409 0 L428 112 C444 130 456 140 470 149 L542 124 L585 325 C572 341 560 348 531 348 C507 348 478 302 451 244 L468 338 L235 338 L252 437 L486 437 L511 583 L97 583 L-5 0 Z " />
<glyph glyph-name="lira" unicode="&#x20a4;" horiz-adv-x="314" d="M240 596 C179 596 92 550 71 430 C68 414 65 396 63 378 L54 378 L37 283 L51 283 L48 262 L34 262 L17 167 L35 167 C35 164 34 161 34 158 L29 135 L12 135 L-7 22 C-7 21 -7 21 -8 20 L-7 20 L-11 0 L246 0 L269 135 L200 135 C203 145 206 156 208 167 L246 167 L263 262 L223 262 L227 283 L266 283 L283 378 L241 378 L247 413 C252 440 265 453 284 453 C292 453 301 451 312 446 L334 572 C316 588 281 596 240 596 L240 596 Z " />
<glyph glyph-name="mill" unicode="&#x20a5;" horiz-adv-x="635" d="M362 0 L398 216 L440 301 C440 301 441 301 442 302 L447 298 C447 276 441 241 436 210 L400 0 L568 0 L619 303 C623 327 625 349 625 369 C625 432 602 469 552 469 C542 469 531 466 519 462 L575 574 L474 574 L406 436 C394 457 374 469 346 469 C308 469 257 434 216 371 L231 459 L64 459 L-17 0 L151 0 L195 255 C211 281 225 295 236 302 L241 298 C241 276 235 241 230 210 L196 11 L131 -120 L232 -120 L291 0 L362 0 Z " />
<glyph glyph-name="naira" unicode="&#x20a6;" horiz-adv-x="553" d="M17 0 L193 0 L216 137 L264 137 L293 0 L448 0 L472 137 L507 137 L522 222 L487 222 L504 323 L539 323 L554 408 L519 408 L550 583 L363 583 L332 408 L291 408 L262 583 L119 583 L88 408 L51 408 L36 323 L73 323 L56 222 L19 222 L4 137 L41 137 L17 0 Z M237 254 L239 254 L246 222 L231 222 L237 254 Z M310 294 L305 323 L317 323 L312 294 L310 294 Z " />
<glyph glyph-name="pesetas" unicode="&#x20a7;" horiz-adv-x="1056" d="M-4 0 L188 0 L214 151 L227 151 C437 151 481 302 481 427 C481 513 441 583 313 583 L96 583 L-4 0 Z M473 336 L504 336 L450 34 L594 -8 C638 11 686 40 725 70 L719 179 C694 162 666 153 645 147 L643 154 L673 336 L739 336 L760 459 L693 459 L714 583 L548 583 L526 459 L494 459 L473 336 Z M1052 454 C1026 464 981 469 945 469 C812 469 765 379 764 317 C764 299 769 277 777 254 C786 226 799 198 810 174 L836 114 C831 113 825 112 819 112 C795 112 766 119 742 128 L720 7 C747 -1 787 -8 852 -8 C901 -8 946 4 976 31 C999 52 1013 82 1013 121 C1013 169 994 207 975 243 C959 272 945 299 941 328 C940 334 940 337 941 342 C950 344 959 345 968 345 C989 345 1009 340 1029 333 L1052 454 Z M284 395 C284 358 279 298 238 294 L263 440 C281 437 284 419 284 395 L284 395 Z " />
<glyph glyph-name="rupee" unicode="&#x20a8;" horiz-adv-x="778" d="M-3 0 L189 0 L215 151 L228 151 C232 151 238 151 244 152 L261 105 C288 29 319 -13 493 -13 C549 -13 610 -10 657 9 C703 27 736 61 736 121 C736 169 716 207 696 243 C680 272 665 299 661 328 C660 334 660 337 661 342 C675 345 689 347 704 347 C722 347 733 344 749 339 L770 454 C743 464 698 469 662 469 C529 469 484 390 484 317 C484 299 490 277 498 254 C508 226 521 198 532 174 C541 155 550 139 550 114 C550 103 516 98 498 98 C458 98 430 117 420 153 L402 220 C446 259 481 320 481 410 C481 505 431 583 314 583 L97 583 L-3 0 Z M285 398 C285 362 280 298 239 294 L264 440 C281 437 285 422 285 398 L285 398 Z " />
<glyph glyph-name="won" unicode="&#x20a9;" horiz-adv-x="728" d="M746 583 L559 583 L530 458 L499 458 L512 583 L328 583 L295 458 L264 458 L282 583 L91 583 L84 458 L55 458 L42 383 L81 383 L79 352 L37 352 L23 277 L75 277 L61 0 L273 0 L359 277 L365 277 L348 0 L560 0 L648 277 L713 277 L727 352 L672 352 L682 383 L732 383 L745 458 L706 458 L746 583 Z M249 352 L253 383 L275 383 L267 352 L249 352 Z M487 352 L491 383 L513 383 L506 352 L487 352 Z M473 217 L479 277 L489 277 L475 217 L473 217 Z M230 217 L238 277 L248 277 L232 217 L230 217 Z " />
<glyph glyph-name="sheqel" unicode="&#x20aa;" horiz-adv-x="519" d="M-6 0 L91 0 L157 376 L212 376 C262 376 284 367 284 320 C284 305 281 285 277 260 L276 253 L364 253 L369 281 C384 369 401 434 401 481 C401 553 362 583 225 583 L96 583 L-6 0 Z M111 0 L237 0 C430 0 457 98 496 320 L542 583 L444 583 L404 353 C382 229 378 212 289 212 L246 212 L265 321 L167 321 L111 0 Z " />
<glyph glyph-name="dong" unicode="&#x20ab;" horiz-adv-x="383" d="M203 555 L251 555 L238 485 C223 498 203 508 181 508 C117 508 81 476 65 438 C42 379 24 281 20 202 C19 192 19 182 19 173 C19 161 19 149 20 138 L144 138 L190 213 L177 138 L316 138 L388 555 L414 555 L433 662 L407 662 L414 703 L277 703 L270 662 L222 662 L203 555 Z M-16 0 L296 0 L315 110 L3 110 L-16 0 Z M167 257 C168 284 170 308 173 330 C179 364 185 392 194 418 C203 416 213 410 223 395 L206 303 L172 253 L167 257 Z " />
<glyph glyph-name="Euro" unicode="&#x20ac;" horiz-adv-x="364" d="M28 309 L47 309 C45 298 43 287 42 276 L22 276 L6 185 L38 185 C40 40 98 -13 173 -13 C212 -13 255 -5 294 21 L319 160 C300 149 284 145 273 145 C242 145 235 162 233 185 L277 185 L293 276 L237 276 L242 309 L299 309 L315 399 L272 399 C286 423 303 438 325 438 C336 438 350 433 365 422 L391 571 C356 593 320 596 286 596 C183 596 107 516 68 399 L44 399 L28 309 Z " />
<glyph glyph-name="uni20AD" unicode="&#x20ad;" horiz-adv-x="501" d="M-3 0 L182 0 L221 223 L227 223 L236 0 L431 0 L415 223 L469 223 L491 348 L424 348 L531 583 L347 583 L253 348 L243 348 L284 583 L99 583 L58 348 L43 348 L21 223 L36 223 L-3 0 Z " />
<glyph glyph-name="uni20AE" unicode="&#x20ae;" horiz-adv-x="394" d="M51 438 L134 438 L107 280 L74 264 L54 149 L87 165 L83 143 L50 127 L30 12 L63 28 L58 0 L245 0 L268 132 L307 152 L328 267 L288 247 L292 269 L331 289 L352 404 L312 384 L321 438 L408 438 L433 583 L76 583 L51 438 Z " />
<glyph glyph-name="uni20B1" unicode="&#x20b1;" horiz-adv-x="521" d="M53 388 L69 388 L65 365 L49 365 L41 320 L57 320 L1 0 L187 0 L217 173 L240 173 C382 173 450 240 479 320 L515 320 L523 365 L491 365 L495 388 L527 388 L535 433 L498 433 L498 440 C498 523 456 583 324 583 L103 583 L77 433 L61 433 L53 388 Z M304 365 L251 365 L255 388 L306 388 L304 365 Z M269 447 C280 447 293 444 300 433 L263 433 L265 447 L269 447 Z M246 309 L241 309 L243 320 L281 320 C273 313 261 309 246 309 L246 309 Z " />
<glyph glyph-name="uni20B4" unicode="&#x20b4;" horiz-adv-x="448" d="M445 410 L418 410 C419 417 420 424 420 431 C420 547 333 596 244 596 C196 596 126 576 105 556 L122 411 C136 426 183 448 221 448 C247 448 261 440 261 413 L261 410 L46 410 L35 305 L150 305 L123 282 L31 282 L19 177 L46 177 C41 162 38 146 38 129 C38 15 129 -14 220 -14 C258 -14 314 -1 349 24 L334 164 C328 152 269 133 224 133 C193 133 182 141 182 165 C182 169 183 173 185 177 L417 177 L429 282 L330 282 C340 289 349 297 357 305 L433 305 L445 410 Z " />
<glyph glyph-name="uni20B9" unicode="&#x20b9;" horiz-adv-x="445" d="M323 0 L297 214 C323 235 345 262 360 298 L409 298 L457 413 L367 413 C361 425 351 436 339 446 L435 446 L487 583 L86 583 L61 446 L149 446 C165 446 176 438 178 413 L56 413 L35 298 L154 298 C144 279 133 271 120 271 L30 271 L9 151 L125 151 L128 0 L323 0 Z " />
<glyph glyph-name="uni2113" unicode="&#x2113;" horiz-adv-x="365" d="M141 -7 C188 -7 242 3 298 44 L316 176 C266 155 234 146 215 146 C193 146 186 158 186 175 C186 185 189 197 191 210 L194 225 L196 240 C206 245 216 250 225 256 C301 301 373 367 389 457 C392 473 393 487 393 500 C393 570 351 596 264 596 C138 596 87 521 67 403 L39 246 L12 232 L-3 140 L22 151 C21 147 22 143 21 139 C14 43 65 -7 141 -7 L141 -7 Z M215 346 L230 431 C232 444 236 449 238 449 C243 449 242 433 236 402 C231 371 225 358 216 348 C216 347 216 347 215 346 L215 346 Z " />
<glyph glyph-name="uni2116" unicode="&#x2116;" horiz-adv-x="697" d="M477 142 L649 142 L664 228 L492 228 L477 142 Z M579 260 C684 260 713 420 713 496 C713 556 686 593 644 593 C545 593 513 425 513 353 C513 301 535 260 579 260 L579 260 Z M602 364 C599 364 596 369 596 377 C596 425 614 483 624 483 C628 483 632 477 632 467 C632 423 613 364 602 364 L602 364 Z M-5 0 L170 0 L204 201 L206 201 L269 0 L422 0 L522 583 L337 583 L305 395 L303 395 L237 583 L95 583 L-5 0 Z " />
<glyph glyph-name="uni2117" unicode="&#x2117;" horiz-adv-x="436" d="M224 -14 C342 -14 415 105 415 289 C415 471 351 592 224 592 C107 592 33 471 33 289 C33 104 97 -14 224 -14 L224 -14 Z M224 36 C150 36 88 124 88 289 C88 452 146 542 224 542 C295 542 360 456 360 289 C360 133 308 36 224 36 L224 36 Z M136 104 L231 104 L231 186 L238 186 C316 186 340 257 340 325 C340 405 309 459 245 459 L136 459 L136 104 Z M243 325 C243 298 240 288 231 285 L231 359 C239 356 243 345 243 325 L243 325 Z " />
<glyph glyph-name="servicemark" unicode="&#x2120;" horiz-adv-x="536" d="M215 272 L308 272 L335 402 L338 402 L326 272 L384 272 L417 402 L420 402 L401 272 L510 272 L554 583 L433 583 L400 458 L397 458 L409 583 L284 583 L215 272 Z M34 280 C54 267 78 261 110 261 C167 261 225 291 225 391 C225 468 161 470 161 486 C161 496 171 498 183 498 C195 498 214 494 231 486 L246 571 C230 583 203 588 181 588 C121 588 64 541 64 452 C64 373 129 384 129 359 C129 351 122 349 113 349 C89 349 55 366 50 370 L34 280 Z " />
<glyph glyph-name="trademark" unicode="&#x2122;" horiz-adv-x="530" d="M208 272 L301 272 L328 402 L331 402 L319 272 L377 272 L410 402 L413 402 L394 272 L503 272 L547 583 L426 583 L393 458 L390 458 L402 583 L277 583 L208 272 Z M83 491 L109 491 L71 272 L178 272 L216 491 L244 491 L261 583 L100 583 L83 491 Z " />
<glyph glyph-name="Omega" unicode="&#x2126;" horiz-adv-x="503" d="M310 596 C146 596 42 475 42 299 C42 224 69 175 87 154 L86 152 L8 152 L-18 0 L198 0 L224 148 C221 163 219 176 219 193 C219 217 223 250 233 306 C255 430 269 447 284 447 C292 447 299 441 299 411 C299 310 256 173 244 148 L218 0 L435 0 L461 152 L377 152 L378 154 C414 183 492 255 492 404 C492 523 425 596 310 596 L310 596 Z " />
<glyph glyph-name="estimated" unicode="&#x212e;" horiz-adv-x="611" d="M320 -8 C404 -8 505 17 564 82 L527 139 C473 89 390 71 316 71 C253 71 214 99 214 166 L214 189 L582 189 L582 261 C581 392 474 465 300 465 C117 465 13 357 13 217 C13 23 180 -8 320 -8 L320 -8 Z M214 271 L214 285 C214 354 229 397 299 397 C355 397 371 363 371 285 L371 271 L214 271 Z " />
<glyph glyph-name="onethird" unicode="&#x2153;" horiz-adv-x="551" d="M186 262 L246 583 L131 583 L72 558 L55 478 L97 485 L57 262 L186 262 Z M288 10 C301 3 347 -5 373 -5 C451 -5 504 36 504 102 C504 146 468 168 449 181 L449 183 C477 194 528 206 528 264 C528 313 465 326 423 326 C399 326 364 322 343 316 L333 230 C341 233 352 235 362 235 C375 235 395 233 397 226 C389 207 367 188 352 173 L347 142 C361 130 375 113 378 89 C368 80 356 78 344 78 C331 78 319 80 308 84 L288 10 Z M139 0 L473 578 L473 583 L409 583 L67 5 L67 0 L139 0 Z " />
<glyph glyph-name="twothirds" unicode="&#x2154;" horiz-adv-x="571" d="M233 269 L244 345 L138 345 C191 396 275 456 275 525 C275 577 228 595 174 595 C149 595 103 589 83 580 L69 503 C76 506 89 507 103 507 C121 507 139 504 144 497 C130 451 96 415 35 344 L23 269 L233 269 Z M310 10 C323 3 369 -5 395 -5 C473 -5 526 36 526 102 C526 146 490 168 471 181 L471 183 C499 194 550 206 550 264 C550 313 487 326 445 326 C421 326 386 322 365 316 L355 230 C363 233 374 235 384 235 C397 235 417 233 419 226 C411 207 389 188 374 173 L369 142 C383 130 397 113 400 89 C390 80 378 78 366 78 C353 78 341 80 330 84 L310 10 Z M166 0 L500 578 L500 583 L436 583 L94 5 L94 0 L166 0 Z " />
<glyph glyph-name="uni215B" unicode="&#x215b;" horiz-adv-x="589" d="M562 254 C562 301 510 326 441 326 C341 326 300 270 300 222 C302 197 324 172 349 149 C307 137 273 116 273 72 C273 32 318 -5 396 -5 C496 -5 542 39 542 90 C542 118 511 145 480 172 C519 186 562 212 562 254 L562 254 Z M186 262 L246 583 L131 583 L72 558 L55 478 L97 485 L57 262 L186 262 Z M135 0 L469 578 L469 583 L405 583 L63 5 L63 0 L135 0 Z M412 249 C413 253 420 257 428 257 C439 257 444 255 444 242 C444 230 443 217 440 206 C425 221 414 235 412 249 L412 249 Z M424 73 C417 70 409 67 402 67 C396 67 391 69 388 73 C389 89 390 101 392 112 C408 98 420 85 424 73 L424 73 Z " />
<glyph glyph-name="arrowleft" unicode="&#x2190;" horiz-adv-x="580" d="M275 92 L223 192 L580 192 L580 338 L224 338 L275 440 L141 440 L26 265 L140 92 L275 92 Z " />
<glyph glyph-name="arrowup" unicode="&#x2191;" horiz-adv-x="580" d="M461 462 L288 576 L113 461 L113 327 L215 378 L215 22 L361 22 L361 379 L461 327 L461 462 Z " />
<glyph glyph-name="arrowright" unicode="&#x2192;" horiz-adv-x="580" d="M440 92 L554 265 L439 440 L305 440 L356 338 L0 338 L0 192 L357 192 L305 92 L440 92 Z " />
<glyph glyph-name="arrowdown" unicode="&#x2193;" horiz-adv-x="580" d="M113 136 L286 22 L461 137 L461 271 L359 220 L359 576 L213 576 L213 219 L113 271 L113 136 Z " />
<glyph glyph-name="uni2196" unicode="&#x2196;" horiz-adv-x="580" d="M290 539 L88 498 L44 293 L139 198 L175 306 L427 54 L530 157 L278 410 L385 444 L290 539 Z " />
<glyph glyph-name="uni2197" unicode="&#x2197;" horiz-adv-x="580" d="M525 291 L484 494 L279 537 L184 442 L292 406 L40 154 L143 51 L396 303 L430 196 L525 291 Z " />
<glyph glyph-name="uni2198" unicode="&#x2198;" horiz-adv-x="580" d="M279 61 L482 102 L525 307 L430 402 L394 294 L142 546 L39 443 L291 190 L184 156 L279 61 Z " />
<glyph glyph-name="uni2199" unicode="&#x2199;" horiz-adv-x="580" d="M49 307 L90 104 L295 61 L390 156 L282 192 L534 444 L431 547 L178 295 L144 402 L49 307 Z " />
<glyph glyph-name="partialdiff" unicode="&#x2202;" horiz-adv-x="422" d="M145 -8 C236 -8 317 18 346 68 C378 125 407 240 407 308 C407 472 342 589 209 665 L124 560 C166 531 193 499 210 465 C127 455 75 419 50 361 C25 303 9 220 0 137 C-10 47 59 -8 145 -8 L145 -8 Z M239 285 C239 220 216 159 190 103 C180 103 175 109 170 116 C170 129 171 143 172 158 C179 224 196 302 217 353 C222 353 227 351 232 349 L237 346 C238 326 239 306 239 285 L239 285 Z " />
<glyph glyph-name="Delta" unicode="&#x2206;" horiz-adv-x="514" d="M450 0 L473 133 L431 583 L215 583 L1 131 L-22 0 L450 0 Z M277 392 L282 392 L261 152 L202 152 L277 392 Z " />
<glyph glyph-name="product" unicode="&#x220f;" horiz-adv-x="511" d="M147 -207 L259 430 L312 430 L200 -207 L387 -207 L499 430 L516 430 L543 583 L83 583 L56 430 L72 430 L-39 -207 L147 -207 Z " />
<glyph glyph-name="summation" unicode="&#x2211;" horiz-adv-x="302" d="M-54 -207 L197 -207 L224 -54 L162 -54 L242 188 L246 430 L306 430 L333 583 L84 583 L60 443 L58 190 L-29 -59 L-54 -207 Z " />
<glyph glyph-name="minus" unicode="&#x2212;" horiz-adv-x="238" d="M30 245 L203 245 L221 347 L48 347 L30 245 Z " />
<glyph glyph-name="radical" unicode="&#x221a;" horiz-adv-x="446" d="M41 459 L50 0 L256 0 L515 653 L332 653 L191 194 L187 194 L212 459 L41 459 Z " />
<glyph glyph-name="infinity" unicode="&#x221e;" horiz-adv-x="615" d="M206 503 C114 503 23 389 23 223 C23 135 60 80 132 80 C197 80 258 130 298 201 C313 137 360 80 421 80 C520 80 604 201 604 354 C604 444 564 503 495 503 C433 503 371 456 330 383 C313 463 270 503 206 503 L206 503 Z M169 184 C147 184 138 211 138 247 C138 314 169 399 207 399 C241 399 256 351 261 292 C240 243 203 184 169 184 L169 184 Z M420 184 C386 184 374 244 368 292 C391 345 424 399 458 399 C480 399 490 371 490 335 C490 266 457 184 420 184 L420 184 Z " />
<glyph glyph-name="integral" unicode="&#x222b;" horiz-adv-x="310" d="M37 18 C25 -50 19 -81 -17 -81 C-28 -81 -38 -80 -51 -78 L-74 -207 C-59 -211 -13 -213 11 -213 C124 -213 166 -156 186 -43 L275 465 C288 535 290 567 325 567 C334 567 343 566 355 565 L380 704 C364 708 357 710 332 710 C221 710 149 653 129 540 L37 18 Z " />
<glyph glyph-name="approxequal" unicode="&#x2248;" horiz-adv-x="448" d="M302 265 C369 265 415 309 441 338 L408 430 C380 406 333 405 322 405 C271 407 233 429 177 429 C116 429 62 384 34 344 L67 261 C99 287 140 291 157 291 C209 291 246 265 302 265 L302 265 Z M272 79 C339 79 385 123 411 152 L378 244 C350 220 303 219 292 219 C241 221 203 243 147 243 C86 243 32 198 4 158 L37 75 C69 101 110 105 127 105 C179 105 216 79 272 79 L272 79 Z " />
<glyph glyph-name="notequal" unicode="&#x2260;" horiz-adv-x="325" d="M44 339 L147 339 L101 249 L28 249 L11 153 L52 153 L-10 31 L81 31 L143 153 L279 153 L296 249 L191 249 L237 339 L312 339 L329 435 L286 435 L353 567 L263 567 L196 435 L61 435 L44 339 Z " />
<glyph glyph-name="lessequal" unicode="&#x2264;" horiz-adv-x="360" d="M-22 0 L297 0 L314 102 L-5 102 L-22 0 Z M290 117 L309 224 L144 326 L345 427 L363 531 L46 364 L32 284 L290 117 Z " />
<glyph glyph-name="greaterequal" unicode="&#x2265;" horiz-adv-x="361" d="M310 102 L-9 102 L-26 0 L293 0 L310 102 Z M339 284 L353 364 L94 531 L76 427 L241 326 L40 224 L21 117 L339 284 Z " />
<glyph glyph-name="uni2460" unicode="&#x2460;" horiz-adv-x="699" d="M355 0 C516 0 647 130 647 291 C647 452 516 583 355 583 C194 583 64 452 64 291 C64 130 194 0 355 0 L355 0 Z M355 36 C216 36 104 152 104 291 C104 430 216 547 355 547 C494 547 607 430 607 291 C607 152 494 36 355 36 L355 36 Z M437 141 L437 460 L348 460 L217 427 L217 341 L287 350 L287 141 L437 141 Z " />
<glyph glyph-name="uni2461" unicode="&#x2461;" horiz-adv-x="699" d="M355 0 C516 0 647 130 647 291 C647 452 516 583 355 583 C194 583 64 452 64 291 C64 130 194 0 355 0 L355 0 Z M355 36 C216 36 104 152 104 291 C104 430 216 547 355 547 C494 547 607 430 607 291 C607 152 494 36 355 36 L355 36 Z M224 142 L493 142 L493 244 L403 244 L402 250 C470 289 496 327 496 371 C496 441 426 468 353 468 C308 468 255 458 219 432 L219 343 C260 362 299 373 323 373 C351 373 361 363 361 344 C361 301 303 271 224 220 L224 142 Z " />
<glyph glyph-name="uni2462" unicode="&#x2462;" horiz-adv-x="699" d="M355 0 C516 0 647 130 647 291 C647 452 516 583 355 583 C194 583 64 452 64 291 C64 130 194 0 355 0 L355 0 Z M355 36 C216 36 104 152 104 291 C104 430 216 547 355 547 C494 547 607 430 607 291 C607 152 494 36 355 36 L355 36 Z M342 137 C427 137 494 173 494 242 C494 264 491 315 418 324 L418 327 C478 339 485 363 485 386 C485 444 418 468 347 468 C290 468 252 454 228 438 L228 350 C263 361 291 365 313 365 C341 365 354 359 354 345 C354 328 340 330 275 326 L275 267 C353 265 366 262 366 249 C366 239 359 230 313 230 C290 230 263 234 225 251 L225 157 C253 147 299 137 342 137 L342 137 Z " />
<glyph glyph-name="uni2463" unicode="&#x2463;" horiz-adv-x="699" d="M355 0 C516 0 647 130 647 291 C647 452 516 583 355 583 C194 583 64 452 64 291 C64 130 194 0 355 0 L355 0 Z M355 36 C216 36 104 152 104 291 C104 430 216 547 355 547 C494 547 607 430 607 291 C607 152 494 36 355 36 L355 36 Z M319 142 L463 142 L463 191 L506 191 L506 276 L463 276 L463 461 L327 461 L167 268 L167 191 L319 191 L319 142 Z M258 276 L319 357 L319 276 L258 276 Z " />
<glyph glyph-name="uni2464" unicode="&#x2464;" horiz-adv-x="699" d="M355 0 C516 0 647 130 647 291 C647 452 516 583 355 583 C194 583 64 452 64 291 C64 130 194 0 355 0 L355 0 Z M355 36 C216 36 104 152 104 291 C104 430 216 547 355 547 C494 547 607 430 607 291 C607 152 494 36 355 36 L355 36 Z M321 137 C390 137 486 153 486 245 C486 317 424 347 347 347 C338 347 328 347 318 346 L320 367 L484 367 L484 463 L235 463 L216 260 C235 263 266 266 295 266 C331 266 355 263 355 250 C355 235 341 229 310 229 C286 229 251 231 214 247 L214 157 C251 143 286 137 321 137 L321 137 Z " />
<glyph glyph-name="uni2465" unicode="&#x2465;" horiz-adv-x="699" d="M355 0 C516 0 647 130 647 291 C647 452 516 583 355 583 C194 583 64 452 64 291 C64 130 194 0 355 0 L355 0 Z M355 36 C216 36 104 152 104 291 C104 430 216 547 355 547 C494 547 607 430 607 291 C607 152 494 36 355 36 L355 36 Z M387 384 C415 384 449 374 481 360 L481 451 C449 464 400 468 374 468 C256 468 183 395 183 286 C183 187 240 137 340 137 C436 137 502 185 502 254 C502 313 459 353 384 353 C364 353 340 349 319 344 C329 373 349 384 387 384 L387 384 Z M339 282 C353 282 373 279 373 252 C373 232 359 221 341 221 C322 221 314 234 312 270 L312 279 C322 281 331 282 339 282 L339 282 Z " />
<glyph glyph-name="uni2466" unicode="&#x2466;" horiz-adv-x="699" d="M355 0 C516 0 647 130 647 291 C647 452 516 583 355 583 C194 583 64 452 64 291 C64 130 194 0 355 0 L355 0 Z M355 36 C216 36 104 152 104 291 C104 430 216 547 355 547 C494 547 607 430 607 291 C607 152 494 36 355 36 L355 36 Z M370 132 L491 394 L491 453 L221 453 L221 357 L367 357 L249 138 L251 132 L370 132 Z " />
<glyph glyph-name="uni2467" unicode="&#x2467;" horiz-adv-x="699" d="M355 0 C516 0 647 130 647 291 C647 452 516 583 355 583 C194 583 64 452 64 291 C64 130 194 0 355 0 L355 0 Z M355 36 C216 36 104 152 104 291 C104 430 216 547 355 547 C494 547 607 430 607 291 C607 152 494 36 355 36 L355 36 Z M517 226 C517 261 486 285 448 303 C487 322 512 348 512 375 C512 435 435 458 354 458 C270 458 191 422 191 360 C191 325 214 299 245 279 C214 263 190 239 190 211 C190 148 255 127 347 127 C431 127 517 166 517 226 L517 226 Z M396 357 C396 350 392 339 384 328 C348 341 319 350 319 360 C319 374 337 377 358 377 C379 377 396 371 396 357 L396 357 Z M308 233 C308 238 309 243 310 248 C349 232 383 222 383 212 C383 204 364 200 345 200 C319 200 308 215 308 233 L308 233 Z " />
<glyph glyph-name="uni2468" unicode="&#x2468;" horiz-adv-x="699" d="M355 0 C516 0 647 130 647 291 C647 452 516 583 355 583 C194 583 64 452 64 291 C64 130 194 0 355 0 L355 0 Z M355 36 C216 36 104 152 104 291 C104 430 216 547 355 547 C494 547 607 430 607 291 C607 152 494 36 355 36 L355 36 Z M318 212 C290 212 256 222 225 235 L225 145 C256 131 305 127 332 127 C451 127 523 201 523 309 C523 408 466 458 366 458 C270 458 204 411 204 342 C204 273 256 242 321 242 C341 242 366 246 387 251 C378 222 356 212 318 212 L318 212 Z M367 313 C353 313 334 317 334 344 C334 364 347 375 363 375 C382 375 392 361 394 320 L394 316 C384 314 375 313 367 313 L367 313 Z " />
<glyph glyph-name="uni2469" unicode="&#x2469;" horiz-adv-x="699" d="M355 0 C516 0 647 130 647 291 C647 452 516 583 355 583 C194 583 64 452 64 291 C64 130 194 0 355 0 L355 0 Z M355 36 C216 36 104 152 104 291 C104 430 216 547 355 547 C494 547 607 430 607 291 C607 152 494 36 355 36 L355 36 Z M308 152 L308 430 L238 430 L136 401 L136 326 L190 334 L190 152 L308 152 Z M446 149 C524 149 582 198 582 291 C582 387 543 434 452 434 C371 434 314 390 314 283 C314 191 366 149 446 149 L446 149 Z M450 227 C424 227 418 251 418 291 C418 343 433 357 450 357 C468 357 477 338 477 291 C477 250 471 227 450 227 L450 227 Z " />
<glyph glyph-name="uni24CA" unicode="&#x24ca;" horiz-adv-x="436" d="M224 -14 C342 -14 415 105 415 289 C415 471 351 592 224 592 C107 592 33 471 33 289 C33 104 97 -14 224 -14 L224 -14 Z M224 36 C150 36 88 124 88 289 C88 452 146 542 224 542 C295 542 360 456 360 289 C360 133 308 36 224 36 L224 36 Z M225 98 C286 98 318 143 318 241 L318 435 L238 435 L238 254 C238 204 234 192 226 192 C215 192 213 210 213 255 L213 435 L132 435 L132 226 C132 145 163 98 225 98 L225 98 Z " />
<glyph glyph-name="uni25B2" unicode="&#x25b2;" horiz-adv-x="595" d="M526 21 L258 449 L-10 21 L526 21 Z " />
<glyph glyph-name="uni25B6" unicode="&#x25b6;" horiz-adv-x="551" d="M94 -33 L522 235 L94 503 L94 -33 Z " />
<glyph glyph-name="uni25B8" unicode="&#x25b8;" horiz-adv-x="392" d="M360 218 L93 486 L93 -50 L360 218 Z " />
<glyph glyph-name="uni25BA" unicode="&#x25ba;" horiz-adv-x="850" d="M813 218 L91 486 L91 -50 L813 218 Z " />
<glyph glyph-name="uni25BC" unicode="&#x25bc;" horiz-adv-x="610" d="M68 448 L336 20 L604 448 L68 448 Z " />
<glyph glyph-name="uni25C0" unicode="&#x25c0;" horiz-adv-x="551" d="M450 -33 L450 503 L22 235 L450 -33 Z " />
<glyph glyph-name="uni25C2" unicode="&#x25c2;" horiz-adv-x="392" d="M287 -50 L287 486 L20 219 L287 -50 Z " />
<glyph glyph-name="uni25C4" unicode="&#x25c4;" horiz-adv-x="849" d="M745 -50 L745 486 L23 218 L745 -50 Z " />
<glyph glyph-name="lozenge" unicode="&#x25ca;" horiz-adv-x="383" d="M63 0 L236 0 L370 286 L339 583 L166 583 L20 286 L63 0 Z M172 126 L171 288 L226 447 L221 285 L172 126 Z " />
<glyph glyph-name="uni2610" unicode="&#x2610;" horiz-adv-x="782" d="M106 0 L689 0 L689 583 L106 583 L106 0 Z M228 112 L228 461 L567 461 L567 112 L228 112 Z " />
<glyph glyph-name="uni2611" unicode="&#x2611;" horiz-adv-x="783" d="M106 -4 L689 -4 L689 579 L106 579 L106 -4 Z M228 108 L228 457 L567 457 L567 108 L228 108 Z M312 133 L327 133 C415 232 488 348 542 434 L537 441 C516 438 456 424 448 410 C415 352 376 269 343 219 C339 239 338 258 338 276 C338 296 340 314 339 329 L324 334 C314 331 268 293 261 283 C258 264 286 155 312 133 L312 133 Z " />
<glyph glyph-name="uni261A" unicode="&#x261a;" horiz-adv-x="1009" d="M74 453 C57 391 111 386 111 386 L317 400 L372 365 C372 365 296 272 292 246 C292 246 308 200 345 186 C345 186 355 129 397 126 C397 126 406 88 452 74 L528 101 C528 101 604 88 748 140 L937 126 L937 365 L760 401 C760 401 710 443 647 459 L345 509 L74 453 Z " />
<glyph glyph-name="uni261B" unicode="&#x261b;" horiz-adv-x="944" d="M660 509 L358 459 C295 443 245 401 245 401 L68 365 L68 126 L257 140 C401 88 477 101 477 101 L553 74 C599 88 608 126 608 126 C650 129 660 186 660 186 C697 200 713 246 713 246 C709 272 633 365 633 365 L688 400 L894 386 C894 386 948 391 931 453 L660 509 Z " />
<glyph glyph-name="uni261C" unicode="&#x261c;" horiz-adv-x="1009" d="M74 453 C57 391 111 386 111 386 L317 400 L372 365 C372 365 296 272 292 246 C292 246 308 200 345 186 C345 186 355 129 397 126 C397 126 406 88 452 74 L528 101 C528 101 604 88 748 140 L937 126 L937 365 L760 401 C760 401 710 443 647 459 L345 509 L74 453 Z M698 186 C626 157 523 154 523 154 L454 127 C430 129 426 157 426 157 L477 196 L541 215 L522 255 L458 231 L404 184 C390 186 386 208 386 208 L453 269 L503 291 L486 326 L434 300 L369 232 C358 231 347 249 347 249 L400 318 L452 369 L341 426 L155 418 C155 418 135 428 145 442 L344 467 L627 414 C672 398 720 360 720 360 L882 326 L882 178 L698 186 Z " />
<glyph glyph-name="uni261D" unicode="&#x261d;" horiz-adv-x="558" d="M80 473 L130 171 C146 108 188 58 188 58 L224 -119 L463 -119 L449 70 C501 214 488 290 488 290 L515 366 C501 412 463 421 463 421 C460 463 403 473 403 473 C389 510 343 526 343 526 C317 522 224 446 224 446 L189 501 L203 707 C203 707 198 761 136 744 L80 473 Z M411 -64 L263 -64 L229 98 C229 98 191 146 175 191 L122 474 L147 673 C161 683 171 663 171 663 L163 477 L220 366 L271 418 L340 471 C340 471 358 460 357 449 L289 384 L263 332 L298 315 L320 365 L381 432 C381 432 403 428 405 414 L358 360 L334 296 L374 277 L393 341 L432 392 C432 392 460 388 462 364 L435 295 C435 295 432 192 403 120 L411 -64 Z " />
<glyph glyph-name="uni261E" unicode="&#x261e;" horiz-adv-x="944" d="M660 509 L358 459 C295 443 245 401 245 401 L68 365 L68 126 L257 140 C401 88 477 101 477 101 L553 74 C599 88 608 126 608 126 C650 129 660 186 660 186 C697 200 713 246 713 246 C709 272 633 365 633 365 L688 400 L894 386 C894 386 948 391 931 453 L660 509 Z M123 178 L123 326 L285 360 C285 360 333 398 378 414 L661 467 L860 442 C870 428 850 418 850 418 L664 426 L553 369 L605 318 L658 249 C658 249 647 231 636 232 L571 300 L519 326 L502 291 L552 269 L619 208 C619 208 615 186 601 184 L547 231 L483 255 L464 215 L528 196 L579 157 C579 157 575 129 551 127 L482 154 C482 154 379 157 307 186 L123 178 Z " />
<glyph glyph-name="uni261F" unicode="&#x261f;" horiz-adv-x="556" d="M500 169 L450 471 C434 534 392 584 392 584 L356 761 L117 761 L131 572 C79 428 92 352 92 352 L65 276 C79 230 117 221 117 221 C120 179 177 169 177 169 C191 132 237 116 237 116 C263 120 356 196 356 196 L391 141 L377 -65 C377 -65 382 -119 444 -102 L500 169 Z M169 706 L317 706 L351 544 C351 544 389 496 405 451 L458 168 L433 -31 C419 -41 409 -21 409 -21 L417 165 L360 276 L309 224 L240 171 C240 171 222 182 223 193 L291 258 L317 310 L282 327 L260 277 L199 210 C199 210 177 214 175 228 L222 282 L246 346 L206 365 L187 301 L148 250 C148 250 120 254 118 278 L145 347 C145 347 148 450 177 522 L169 706 Z " />
<glyph glyph-name="uni267E" unicode="&#x267e;" horiz-adv-x="436" d="M224 -14 C342 -14 415 105 415 289 C415 471 351 592 224 592 C107 592 33 471 33 289 C33 104 97 -14 224 -14 L224 -14 Z M224 36 C150 36 88 124 88 289 C88 452 146 542 224 542 C295 542 360 456 360 289 C360 133 308 36 224 36 L224 36 Z M172 413 C140 413 118 363 118 285 C118 209 138 157 172 157 C196 157 212 190 225 230 C240 191 257 157 281 157 C315 157 334 211 334 285 C334 360 312 413 281 413 C257 413 240 379 225 341 C212 379 195 413 172 413 L172 413 Z M178 220 C167 220 164 251 164 285 C164 319 167 350 178 350 C190 350 198 316 208 285 C198 256 190 220 178 220 L178 220 Z M275 220 C262 220 254 256 246 285 C254 316 262 350 275 350 C285 350 288 319 288 285 C288 251 285 220 275 220 L275 220 Z " />
<glyph glyph-name="uni2713" unicode="&#x2713;" horiz-adv-x="343" d="M99 133 L114 133 C202 232 275 348 329 434 L324 441 C303 438 243 424 235 410 C202 352 163 269 130 219 C126 239 125 258 125 276 C125 296 127 314 126 329 L111 334 C101 331 55 293 48 283 C45 264 73 155 99 133 L99 133 Z " />
<glyph glyph-name="uni2776" unicode="&#x2776;" horiz-adv-x="699" d="M355 0 C516 0 647 130 647 291 C647 452 516 583 355 583 C194 583 64 452 64 291 C64 130 194 0 355 0 L355 0 Z M287 141 L287 350 L217 341 L217 427 L348 460 L437 460 L437 141 L287 141 Z " />
<glyph glyph-name="uni2777" unicode="&#x2777;" horiz-adv-x="699" d="M355 0 C516 0 647 130 647 291 C647 452 516 583 355 583 C194 583 64 452 64 291 C64 130 194 0 355 0 L355 0 Z M224 220 C303 271 361 301 361 344 C361 363 351 373 323 373 C299 373 260 362 219 343 L219 432 C255 458 308 468 353 468 C426 468 496 441 496 371 C496 327 470 289 402 250 L403 244 L493 244 L493 142 L224 142 L224 220 Z " />
<glyph glyph-name="uni2778" unicode="&#x2778;" horiz-adv-x="699" d="M355 0 C516 0 647 130 647 291 C647 452 516 583 355 583 C194 583 64 452 64 291 C64 130 194 0 355 0 L355 0 Z M342 137 C299 137 253 147 225 157 L225 251 C263 234 290 230 313 230 C359 230 366 239 366 249 C366 262 353 265 275 267 L275 326 C340 330 354 328 354 345 C354 359 341 365 313 365 C291 365 263 361 228 350 L228 438 C252 454 290 468 347 468 C418 468 485 444 485 386 C485 363 478 339 418 327 L418 324 C491 315 494 264 494 242 C494 173 427 137 342 137 L342 137 Z " />
<glyph glyph-name="uni2779" unicode="&#x2779;" horiz-adv-x="699" d="M355 0 C516 0 647 130 647 291 C647 452 516 583 355 583 C194 583 64 452 64 291 C64 130 194 0 355 0 L355 0 Z M319 191 L167 191 L167 268 L327 461 L463 461 L463 276 L506 276 L506 191 L463 191 L463 142 L319 142 L319 191 Z M319 276 L319 357 L258 276 L319 276 Z " />
<glyph glyph-name="uni277A" unicode="&#x277a;" horiz-adv-x="699" d="M355 0 C516 0 647 130 647 291 C647 452 516 583 355 583 C194 583 64 452 64 291 C64 130 194 0 355 0 L355 0 Z M321 137 C286 137 251 143 214 157 L214 247 C251 231 286 229 310 229 C341 229 355 235 355 250 C355 263 331 266 295 266 C266 266 235 263 216 260 L235 463 L484 463 L484 367 L320 367 L318 346 C328 347 338 347 347 347 C424 347 486 317 486 245 C486 153 390 137 321 137 L321 137 Z " />
<glyph glyph-name="uni277B" unicode="&#x277b;" horiz-adv-x="699" d="M355 0 C516 0 647 130 647 291 C647 452 516 583 355 583 C194 583 64 452 64 291 C64 130 194 0 355 0 L355 0 Z M387 384 C349 384 329 373 319 344 C340 349 364 353 384 353 C459 353 502 313 502 254 C502 185 436 137 340 137 C240 137 183 187 183 286 C183 395 256 468 374 468 C400 468 449 464 481 451 L481 360 C449 374 415 384 387 384 L387 384 Z M339 282 C331 282 322 281 312 279 L312 274 C314 235 322 221 341 221 C359 221 373 232 373 252 C373 279 353 282 339 282 L339 282 Z " />
<glyph glyph-name="uni277C" unicode="&#x277c;" horiz-adv-x="699" d="M355 0 C516 0 647 130 647 291 C647 452 516 583 355 583 C194 583 64 452 64 291 C64 130 194 0 355 0 L355 0 Z M251 132 L249 138 L367 357 L221 357 L221 453 L491 453 L491 394 L370 132 L251 132 Z " />
<glyph glyph-name="uni277D" unicode="&#x277d;" horiz-adv-x="699" d="M355 0 C516 0 647 130 647 291 C647 452 516 583 355 583 C194 583 64 452 64 291 C64 130 194 0 355 0 L355 0 Z M517 226 C517 166 431 127 347 127 C255 127 190 148 190 211 C190 239 214 263 245 279 C214 299 191 325 191 360 C191 422 270 458 354 458 C435 458 512 435 512 375 C512 348 487 322 448 303 C486 285 517 261 517 226 L517 226 Z M396 357 C396 371 379 377 358 377 C337 377 319 374 319 360 C319 350 348 341 384 328 C392 339 396 350 396 357 L396 357 Z M308 233 C308 215 319 200 345 200 C364 200 383 204 383 212 C383 222 349 232 310 248 C309 243 308 238 308 233 L308 233 Z " />
<glyph glyph-name="uni277E" unicode="&#x277e;" horiz-adv-x="699" d="M355 0 C516 0 647 130 647 291 C647 452 516 583 355 583 C194 583 64 452 64 291 C64 130 194 0 355 0 L355 0 Z M318 212 C356 212 378 222 387 251 C366 246 341 242 321 242 C256 242 204 273 204 342 C204 411 270 458 366 458 C466 458 523 408 523 309 C523 201 451 127 332 127 C305 127 256 131 225 145 L225 235 C256 222 290 212 318 212 L318 212 Z M367 313 C375 313 384 314 394 316 L394 319 C393 361 383 375 363 375 C347 375 334 364 334 344 C334 317 353 313 367 313 L367 313 Z " />
<glyph glyph-name="uni277F" unicode="&#x277f;" horiz-adv-x="699" d="M355 0 C516 0 647 130 647 291 C647 452 516 583 355 583 C194 583 64 452 64 291 C64 130 194 0 355 0 L355 0 Z M190 152 L190 334 L136 326 L136 401 L238 430 L308 430 L308 152 L190 152 Z M446 149 C366 149 314 191 314 283 C314 390 371 434 452 434 C543 434 582 387 582 291 C582 198 524 149 446 149 L446 149 Z M450 227 C471 227 477 250 477 291 C477 338 468 357 450 357 C433 357 418 343 418 291 C418 251 424 227 450 227 L450 227 Z " />
<glyph glyph-name="uni2780" unicode="&#x2780;" horiz-adv-x="699" d="M355 0 C516 0 647 130 647 291 C647 452 516 583 355 583 C194 583 64 452 64 291 C64 130 194 0 355 0 L355 0 Z M355 36 C216 36 104 152 104 291 C104 430 216 547 355 547 C494 547 607 430 607 291 C607 152 494 36 355 36 L355 36 Z M433 149 L433 436 L353 436 L235 406 L235 329 L298 337 L298 149 L433 149 Z " />
<glyph glyph-name="uni2781" unicode="&#x2781;" horiz-adv-x="699" d="M355 0 C516 0 647 130 647 291 C647 452 516 583 355 583 C194 583 64 452 64 291 C64 130 194 0 355 0 L355 0 Z M355 36 C216 36 104 152 104 291 C104 430 216 547 355 547 C494 547 607 430 607 291 C607 152 494 36 355 36 L355 36 Z M237 148 L479 148 L479 240 L398 240 L398 245 C459 281 482 315 482 354 C482 417 419 442 353 442 C313 442 265 433 233 409 L233 329 C270 346 305 356 326 356 C352 356 361 347 361 330 C361 291 308 264 237 218 L237 148 Z " />
<glyph glyph-name="uni2782" unicode="&#x2782;" horiz-adv-x="699" d="M355 0 C516 0 647 130 647 291 C647 452 516 583 355 583 C194 583 64 452 64 291 C64 130 194 0 355 0 L355 0 Z M355 36 C216 36 104 152 104 291 C104 430 216 547 355 547 C494 547 607 430 607 291 C607 152 494 36 355 36 L355 36 Z M344 143 C420 143 481 175 481 237 C481 257 478 303 412 311 L412 314 C466 324 472 346 472 367 C472 419 412 440 348 440 C297 440 263 428 241 413 L241 334 C273 344 298 348 318 348 C343 348 355 342 355 330 C355 314 342 316 283 313 L283 260 C354 258 365 255 365 243 C365 234 359 226 318 226 C297 226 273 230 238 245 L238 161 C264 152 305 143 344 143 L344 143 Z " />
<glyph glyph-name="uni2783" unicode="&#x2783;" horiz-adv-x="699" d="M355 0 C516 0 647 130 647 291 C647 452 516 583 355 583 C194 583 64 452 64 291 C64 130 194 0 355 0 L355 0 Z M355 36 C216 36 104 152 104 291 C104 430 216 547 355 547 C494 547 607 430 607 291 C607 152 494 36 355 36 L355 36 Z M321 151 L450 151 L450 195 L489 195 L489 272 L450 272 L450 438 L328 438 L184 264 L184 195 L321 195 L321 151 Z M266 272 L321 344 L321 272 L266 272 Z " />
<glyph glyph-name="uni2784" unicode="&#x2784;" horiz-adv-x="699" d="M355 0 C516 0 647 130 647 291 C647 452 516 583 355 583 C194 583 64 452 64 291 C64 130 194 0 355 0 L355 0 Z M355 36 C216 36 104 152 104 291 C104 430 216 547 355 547 C494 547 607 430 607 291 C607 152 494 36 355 36 L355 36 Z M330 144 C392 144 478 159 478 241 C478 306 423 333 353 333 C345 333 336 333 327 332 L329 351 L477 351 L477 438 L252 438 L235 255 C252 258 280 260 306 260 C339 260 360 258 360 246 C360 232 348 227 320 227 C298 227 267 229 234 243 L234 162 C267 150 298 144 330 144 L330 144 Z " />
<glyph glyph-name="uni2785" unicode="&#x2785;" horiz-adv-x="699" d="M355 0 C516 0 647 130 647 291 C647 452 516 583 355 583 C194 583 64 452 64 291 C64 130 194 0 355 0 L355 0 Z M355 36 C216 36 104 152 104 291 C104 430 216 547 355 547 C494 547 607 430 607 291 C607 152 494 36 355 36 L355 36 Z M390 366 C415 366 445 357 474 344 L474 426 C445 438 401 441 378 441 C272 441 206 376 206 278 C206 189 257 144 347 144 C434 144 493 187 493 249 C493 302 454 338 387 338 C369 338 347 334 328 330 C337 356 355 366 390 366 L390 366 Z M346 274 C359 274 377 271 377 247 C377 229 364 219 348 219 C331 219 324 232 322 266 L322 271 C331 273 339 274 346 274 L346 274 Z " />
<glyph glyph-name="uni2786" unicode="&#x2786;" horiz-adv-x="699" d="M355 0 C516 0 647 130 647 291 C647 452 516 583 355 583 C194 583 64 452 64 291 C64 130 194 0 355 0 L355 0 Z M355 36 C216 36 104 152 104 291 C104 430 216 547 355 547 C494 547 607 430 607 291 C607 152 494 36 355 36 L355 36 Z M379 146 L487 382 L487 435 L244 435 L244 349 L376 349 L270 151 L271 146 L379 146 Z " />
<glyph glyph-name="uni2787" unicode="&#x2787;" horiz-adv-x="699" d="M355 0 C516 0 647 130 647 291 C647 452 516 583 355 583 C194 583 64 452 64 291 C64 130 194 0 355 0 L355 0 Z M355 36 C216 36 104 152 104 291 C104 430 216 547 355 547 C494 547 607 430 607 291 C607 152 494 36 355 36 L355 36 Z M505 233 C505 264 477 286 443 302 C478 319 500 342 500 367 C500 421 431 441 358 441 C282 441 211 409 211 353 C211 322 232 298 260 280 C232 266 210 244 210 219 C210 162 269 144 352 144 C427 144 505 179 505 233 L505 233 Z M396 351 C396 344 392 334 385 324 C353 336 326 344 326 353 C326 366 343 369 362 369 C380 369 396 363 396 351 L396 351 Z M317 239 C317 243 317 248 318 252 C353 238 384 229 384 220 C384 213 367 209 350 209 C326 209 317 223 317 239 L317 239 Z " />
<glyph glyph-name="uni2788" unicode="&#x2788;" horiz-adv-x="699" d="M355 0 C516 0 647 130 647 291 C647 452 516 583 355 583 C194 583 64 452 64 291 C64 130 194 0 355 0 L355 0 Z M355 36 C216 36 104 152 104 291 C104 430 216 547 355 547 C494 547 607 430 607 291 C607 152 494 36 355 36 L355 36 Z M323 220 C297 220 267 229 239 241 L239 160 C267 147 311 144 335 144 C442 144 507 210 507 307 C507 396 456 441 366 441 C279 441 220 399 220 337 C220 275 267 247 325 247 C343 247 366 251 385 255 C377 229 357 220 323 220 L323 220 Z M367 311 C354 311 337 315 337 339 C337 357 349 367 363 367 C380 367 389 354 391 319 L391 314 C382 312 374 311 367 311 L367 311 Z " />
<glyph glyph-name="uni278A" unicode="&#x278a;" horiz-adv-x="699" d="M355 0 C516 0 647 130 647 291 C647 452 516 583 355 583 C194 583 64 452 64 291 C64 130 194 0 355 0 L355 0 Z M297 151 L297 339 L234 331 L234 408 L352 438 L432 438 L432 151 L297 151 Z " />
<glyph glyph-name="uni278B" unicode="&#x278b;" horiz-adv-x="699" d="M355 0 C516 0 647 130 647 291 C647 452 516 583 355 583 C194 583 64 452 64 291 C64 130 194 0 355 0 L355 0 Z M237 215 C308 261 361 288 361 327 C361 344 352 353 326 353 C305 353 270 343 233 326 L233 406 C265 430 313 439 353 439 C419 439 482 414 482 351 C482 312 459 278 398 242 L398 237 L479 237 L479 145 L237 145 L237 215 Z " />
<glyph glyph-name="uni278C" unicode="&#x278c;" horiz-adv-x="699" d="M355 0 C516 0 647 130 647 291 C647 452 516 583 355 583 C194 583 64 452 64 291 C64 130 194 0 355 0 L355 0 Z M344 143 C305 143 264 152 238 161 L238 245 C273 230 297 226 318 226 C359 226 365 234 365 243 C365 255 354 258 283 260 L283 313 C342 316 355 314 355 330 C355 342 343 348 318 348 C298 348 273 344 241 334 L241 413 C263 428 297 440 348 440 C412 440 472 419 472 367 C472 346 466 324 412 314 L412 311 C478 303 481 257 481 237 C481 175 420 143 344 143 L344 143 Z " />
<glyph glyph-name="uni278D" unicode="&#x278d;" horiz-adv-x="699" d="M355 0 C516 0 647 130 647 291 C647 452 516 583 355 583 C194 583 64 452 64 291 C64 130 194 0 355 0 L355 0 Z M321 193 L184 193 L184 262 L328 436 L450 436 L450 270 L489 270 L489 193 L450 193 L450 149 L321 149 L321 193 Z M321 270 L321 342 L266 270 L321 270 Z " />
<glyph glyph-name="uni278E" unicode="&#x278e;" horiz-adv-x="699" d="M355 0 C516 0 647 130 647 291 C647 452 516 583 355 583 C194 583 64 452 64 291 C64 130 194 0 355 0 L355 0 Z M332 145 C300 145 269 151 236 163 L236 244 C269 230 300 228 322 228 C350 228 362 233 362 247 C362 259 341 261 308 261 C282 261 254 259 237 256 L254 439 L479 439 L479 352 L331 352 L329 333 C338 334 347 334 355 334 C425 334 480 307 480 242 C480 160 394 145 332 145 L332 145 Z " />
<glyph glyph-name="uni278F" unicode="&#x278f;" horiz-adv-x="699" d="M355 0 C516 0 647 130 647 291 C647 452 516 583 355 583 C194 583 64 452 64 291 C64 130 194 0 355 0 L355 0 Z M390 365 C355 365 337 355 328 329 C347 333 369 337 387 337 C454 337 493 301 493 248 C493 186 434 143 347 143 C257 143 206 188 206 277 C206 375 272 440 378 440 C401 440 445 437 474 425 L474 343 C445 356 415 365 390 365 L390 365 Z M346 273 C339 273 331 272 322 270 L322 268 C323 231 330 218 348 218 C364 218 377 228 377 246 C377 270 359 273 346 273 L346 273 Z " />
<glyph glyph-name="uni2790" unicode="&#x2790;" horiz-adv-x="699" d="M355 0 C516 0 647 130 647 291 C647 452 516 583 355 583 C194 583 64 452 64 291 C64 130 194 0 355 0 L355 0 Z M267 148 L266 153 L372 351 L240 351 L240 437 L483 437 L483 384 L375 148 L267 148 Z " />
<glyph glyph-name="uni2791" unicode="&#x2791;" horiz-adv-x="699" d="M355 0 C516 0 647 130 647 291 C647 452 516 583 355 583 C194 583 64 452 64 291 C64 130 194 0 355 0 L355 0 Z M502 233 C502 179 424 144 349 144 C266 144 207 162 207 219 C207 244 229 266 257 280 C229 298 208 322 208 353 C208 409 279 441 355 441 C428 441 497 421 497 367 C497 342 475 319 440 302 C474 286 502 264 502 233 L502 233 Z M393 351 C393 363 377 369 359 369 C340 369 323 366 323 353 C323 344 350 336 382 324 C389 334 393 344 393 351 L393 351 Z M314 239 C314 223 323 209 347 209 C364 209 381 213 381 220 C381 229 350 238 315 252 C314 248 314 243 314 239 L314 239 Z " />
<glyph glyph-name="uni2792" unicode="&#x2792;" horiz-adv-x="699" d="M355 0 C516 0 647 130 647 291 C647 452 516 583 355 583 C194 583 64 452 64 291 C64 130 194 0 355 0 L355 0 Z M324 220 C358 220 378 229 386 255 C367 251 344 247 326 247 C268 247 221 275 221 337 C221 399 280 441 367 441 C457 441 508 396 508 307 C508 210 443 144 336 144 C312 144 268 147 240 160 L240 241 C268 229 298 220 324 220 L324 220 Z M368 311 C375 311 383 312 392 314 L392 316 C390 354 381 367 364 367 C350 367 338 357 338 339 C338 315 355 311 368 311 L368 311 Z " />
<glyph glyph-name="uni301A" unicode="&#x301a;" horiz-adv-x="389" d="M-41 -181 L291 -181 L310 -73 L275 -73 L388 570 L423 570 L442 679 L110 679 L-41 -181 Z M223 570 L256 570 L143 -73 L110 -73 L223 570 Z " />
<glyph glyph-name="uni301B" unicode="&#x301b;" horiz-adv-x="388" d="M427 679 L95 679 L76 570 L111 570 L-2 -73 L-37 -73 L-55 -181 L276 -181 L427 679 Z M276 570 L163 -73 L130 -73 L243 570 L276 570 Z " />
<glyph glyph-name="apple" unicode="&#xf8ff;" horiz-adv-x="1241" d="M390 318 L401 318 L401 328 L411 328 L411 338 L421 338 L421 347 L431 347 L431 388 L420 388 L420 348 L401 348 L401 388 L390 388 L390 347 L400 347 L400 329 L390 329 L390 318 Z M350 338 L371 338 L371 348 L351 348 L351 377 L371 377 L371 388 L351 388 L351 398 L340 398 L340 388 L330 388 L330 377 L340 377 L340 347 L350 347 L350 338 Z M590 338 L611 338 L611 348 L591 348 L591 377 L611 377 L611 388 L591 388 L591 398 L580 398 L580 388 L570 388 L570 377 L580 377 L580 347 L590 347 L590 338 Z M700 338 L731 338 L731 348 L701 348 L701 357 L731 357 L731 378 L721 378 L721 388 L700 388 L700 378 L690 378 L690 347 L700 347 L700 338 Z M880 338 L911 338 L911 348 L881 348 L881 357 L911 357 L911 378 L901 378 L901 388 L880 388 L880 378 L870 378 L870 347 L880 347 L880 338 Z M110 347 L121 347 L121 357 L131 357 L131 368 L121 368 L121 378 L110 378 L110 368 L100 368 L100 357 L110 357 L110 347 Z M180 347 L191 347 L191 357 L201 357 L201 368 L191 368 L191 378 L180 378 L180 368 L170 368 L170 357 L180 357 L180 347 Z M270 347 L281 347 L281 357 L291 357 L291 368 L281 368 L281 378 L270 378 L270 368 L260 368 L260 357 L270 357 L270 347 Z M520 338 L541 338 L541 347 L551 347 L551 378 L541 378 L541 388 L520 388 L520 378 L510 378 L510 347 L520 347 L520 338 Z M630 338 L641 338 L641 377 L660 377 L660 338 L671 338 L671 378 L661 378 L661 388 L641 388 L641 408 L630 408 L630 338 Z M960 347 L971 347 L971 357 L981 357 L981 368 L971 368 L971 378 L960 378 L960 368 L950 368 L950 357 L960 357 L960 347 Z M1050 347 L1061 347 L1061 357 L1071 357 L1071 368 L1061 368 L1061 378 L1050 378 L1050 368 L1040 368 L1040 357 L1050 357 L1050 347 Z M1120 347 L1131 347 L1131 357 L1141 357 L1141 368 L1131 368 L1131 378 L1120 378 L1120 368 L1110 368 L1110 357 L1120 357 L1120 347 Z M450 318 L461 318 L461 338 L481 338 L481 347 L491 347 L491 378 L481 378 L481 388 L450 388 L450 318 Z M780 318 L791 318 L791 388 L760 388 L760 378 L750 378 L750 347 L760 347 L760 338 L780 338 L780 318 Z M820 338 L851 338 L851 388 L840 388 L840 348 L821 348 L821 388 L810 388 L810 347 L820 347 L820 338 Z M240 328 L251 328 L251 338 L261 338 L261 348 L250 348 L250 338 L240 338 L240 328 Z M250 377 L261 377 L261 388 L251 388 L251 398 L240 398 L240 387 L250 387 L250 377 Z M300 328 L311 328 L311 338 L301 338 L301 348 L290 348 L290 338 L300 338 L300 328 Z M290 377 L301 377 L301 387 L311 387 L311 398 L300 398 L300 388 L290 388 L290 377 Z M930 328 L941 328 L941 338 L951 338 L951 348 L940 348 L940 338 L930 338 L930 328 Z M940 377 L951 377 L951 388 L941 388 L941 398 L930 398 L930 387 L940 387 L940 377 Z M990 328 L1001 328 L1001 338 L991 338 L991 348 L980 348 L980 338 L990 338 L990 328 Z M980 377 L991 377 L991 387 L1001 387 L1001 398 L990 398 L990 388 L980 388 L980 377 Z M160 338 L171 338 L171 348 L160 348 L160 338 Z M160 377 L171 377 L171 388 L160 388 L160 377 Z M200 338 L211 338 L211 348 L200 348 L200 338 Z M200 377 L211 377 L211 388 L200 388 L200 377 Z M461 348 L461 377 L480 377 L480 348 L461 348 Z M521 348 L521 377 L540 377 L540 348 L521 348 Z M701 368 L701 377 L720 377 L720 368 L701 368 Z M761 348 L761 377 L780 377 L780 348 L761 348 Z M881 368 L881 377 L900 377 L900 368 L881 368 Z M1030 338 L1041 338 L1041 348 L1030 348 L1030 338 Z M1030 377 L1041 377 L1041 388 L1030 388 L1030 377 Z M1070 338 L1081 338 L1081 348 L1070 348 L1070 338 Z M1070 377 L1081 377 L1081 388 L1070 388 L1070 377 Z " />
<glyph glyph-name="f_f" unicode="&#xfb00;" horiz-adv-x="478" d="M30 336 L60 336 L4 11 C-4 -31 -9 -64 -17 -89 C-36 -88 -55 -81 -69 -71 L-92 -194 C-56 -205 -19 -211 8 -211 C41 -211 68 -202 89 -185 C123 -196 163 -211 220 -211 C321 -211 359 -133 382 9 L440 336 L480 336 L501 459 L461 459 C466 488 471 505 478 528 C486 529 498 528 510 526 C522 524 534 520 542 515 L574 645 C543 655 513 659 486 659 C475 659 464 658 453 657 C435 654 418 649 402 641 C370 653 332 659 283 659 C233 659 189 643 154 612 C120 581 96 535 85 475 L82 459 L51 459 L30 336 Z M195 -89 C179 -88 164 -83 151 -76 C158 -51 165 -23 170 9 L228 336 L272 336 L216 11 C208 -31 203 -64 195 -89 L195 -89 Z M297 475 L294 459 L249 459 C254 488 259 505 266 528 C272 529 295 528 310 527 C304 511 300 493 297 475 L297 475 Z " />
<glyph glyph-name="fi" unicode="&#xfb01;" horiz-adv-x="450" d="M30 336 L60 336 L4 11 C-4 -31 -9 -64 -17 -89 C-36 -88 -55 -81 -69 -71 L-92 -194 C-56 -205 -19 -211 8 -211 C109 -211 147 -133 170 9 L228 336 L269 336 L210 0 L378 0 L458 459 L249 459 C254 488 259 505 266 528 C274 529 306 528 318 526 C330 524 342 520 350 515 L382 645 C351 655 310 659 283 659 C233 659 189 643 154 612 C120 581 96 535 85 475 L82 459 L51 459 L30 336 Z " />
<glyph glyph-name="fl" unicode="&#xfb02;" horiz-adv-x="455" d="M383 0 L495 653 L349 653 C326 657 301 659 283 659 C233 659 189 643 154 612 C120 581 96 535 85 475 L82 459 L51 459 L30 336 L60 336 L4 11 C-4 -31 -9 -64 -17 -89 C-36 -88 -55 -81 -69 -71 L-92 -194 C-56 -205 -19 -211 8 -211 C109 -211 147 -133 170 9 L228 336 L257 336 L278 459 L249 459 C254 488 259 505 266 528 C272 528 291 528 306 527 L214 0 L383 0 Z " />
<glyph glyph-name="f_f_i" unicode="&#xfb03;" horiz-adv-x="663" d="M591 0 L671 459 L462 459 C467 488 472 505 479 528 C487 529 519 528 531 526 C543 524 555 520 563 515 L595 645 C564 655 523 659 496 659 C464 659 434 652 408 639 C374 653 334 659 283 659 C233 659 189 643 154 612 C120 581 96 535 85 475 L82 459 L51 459 L30 336 L60 336 L4 11 C-4 -31 -9 -64 -17 -89 C-36 -88 -55 -81 -69 -71 L-92 -194 C-56 -205 -19 -211 8 -211 C43 -211 71 -201 93 -182 C126 -197 164 -211 221 -211 C322 -211 360 -133 383 9 L441 336 L482 336 L423 0 L591 0 Z M217 11 C209 -31 204 -64 196 -89 C180 -88 164 -83 151 -76 C158 -51 165 -22 170 9 L228 336 L273 336 L217 11 Z M266 528 C273 529 297 528 312 527 C306 511 301 493 298 475 L295 459 L249 459 C254 488 259 505 266 528 L266 528 Z " />
<glyph glyph-name="f_f_l" unicode="&#xfb04;" horiz-adv-x="667" d="M595 0 L707 653 L561 653 C538 657 513 659 495 659 C463 659 433 652 407 639 C374 653 334 659 283 659 C238 659 198 646 165 621 C125 590 97 541 85 475 L82 459 L51 459 L30 336 L60 336 L4 11 C-4 -31 -9 -64 -17 -89 C-36 -88 -55 -81 -69 -71 L-92 -194 C-56 -205 -19 -211 8 -211 C43 -211 70 -201 92 -183 C126 -194 160 -211 220 -211 C321 -211 359 -133 382 9 L440 336 L469 336 L490 459 L461 459 C466 488 471 505 478 528 C484 528 503 528 518 527 L426 0 L595 0 Z M228 336 L272 336 L216 11 C208 -31 203 -64 195 -89 C179 -88 164 -83 151 -76 C158 -51 165 -23 170 9 L228 336 Z M266 528 C272 529 296 528 311 527 C305 511 300 493 297 475 L294 459 L249 459 C254 488 259 505 266 528 L266 528 Z " />
</font>
</defs>
</svg>
