<svg xmlns="http://www.w3.org/2000/svg">
<defs>
<font id="Greta Sans Std Med">
<font-face  font-family="Greta Sans Std" units-per-em="1000" ascent="710" descent="-290" font-style="normal" font-weight="500" font-stretch="normal" cap-height="583" x-height="451" underline-position="-75" underline-thickness="50" />

<glyph glyph-name="NULL" d="" />
<glyph glyph-name="CR" unicode="&#xd;" horiz-adv-x="250" d="" />
<glyph glyph-name="space" unicode="&#x20;" horiz-adv-x="250" d="" />
<glyph glyph-name="exclam" unicode="&#x21;" horiz-adv-x="256" d="M82 326 L93 194 L162 194 L171 327 L171 583 L82 583 L82 326 Z M129 -8 C166 -8 196 23 196 58 C196 94 167 126 129 126 C91 126 61 94 61 58 C61 23 91 -8 129 -8 L129 -8 Z " />
<glyph glyph-name="quotedbl" unicode="&#x22;" horiz-adv-x="380" d="M68 467 L145 467 L158 672 L68 672 L68 467 Z M230 467 L308 467 L322 672 L230 672 L230 467 Z " />
<glyph glyph-name="numbersign" unicode="&#x23;" horiz-adv-x="624" d="M76 371 L187 371 L153 211 L45 211 L35 150 L140 150 L108 0 L173 0 L204 150 L350 150 L319 0 L383 0 L415 150 L538 150 L548 211 L428 211 L462 371 L578 371 L589 432 L475 432 L507 583 L442 583 L410 432 L264 432 L296 583 L232 583 L200 432 L86 432 L76 371 Z M251 371 L397 371 L363 211 L217 211 L251 371 Z " />
<glyph glyph-name="dollar" unicode="&#x24;" horiz-adv-x="467" d="M260 -86 L260 -4 C354 8 429 63 429 163 C429 268 342 304 260 337 L260 514 C314 511 366 492 407 467 L407 557 C372 575 321 589 260 591 L260 667 L197 667 L197 588 C112 574 45 516 45 425 C45 329 122 290 197 262 L197 73 C142 78 86 97 50 118 L50 27 C96 7 147 -4 197 -6 L197 -86 L260 -86 Z M338 154 C338 112 306 84 260 75 L260 237 C305 217 338 195 338 154 L338 154 Z M136 443 C136 476 162 499 197 509 L197 363 C157 382 136 403 136 443 L136 443 Z " />
<glyph glyph-name="percent" unicode="&#x25;" horiz-adv-x="694" d="M163 289 C235 289 290 345 290 439 C290 542 235 592 163 592 C89 592 34 532 34 437 C34 338 89 289 163 289 L163 289 Z M167 340 C126 340 102 370 102 438 C102 514 120 539 160 539 C200 539 224 514 224 435 C224 365 201 340 167 340 L167 340 Z M358 371 L420 371 L548 563 L548 583 L476 583 L358 371 Z M532 -8 C605 -8 660 49 660 143 C660 245 605 296 532 296 C458 296 404 235 404 140 C404 42 458 -8 532 -8 L532 -8 Z M535 43 C495 43 471 74 471 142 C471 209 489 243 528 243 C569 243 592 218 592 138 C592 68 571 43 535 43 L535 43 Z M352 233 L289 233 L159 20 L159 0 L230 0 L352 233 Z " />
<glyph glyph-name="ampersand" unicode="&#x26;" horiz-adv-x="708" d="M644 349 L548 349 C531 286 501 221 458 170 C427 192 395 216 363 240 L304 285 C382 317 452 370 452 448 C452 520 391 592 282 592 C167 592 95 515 95 431 C95 391 116 351 149 313 C87 278 44 226 44 150 C44 57 124 -9 246 -9 C331 -9 402 19 459 63 C497 38 532 16 562 0 L682 0 L682 21 C635 48 581 83 524 123 C582 191 621 274 644 349 L644 349 Z M274 199 C312 168 352 137 392 109 C354 83 309 67 259 67 C176 67 135 115 135 170 C135 201 157 238 196 265 C220 243 246 221 274 199 L274 199 Z M187 436 C187 488 218 518 276 518 C329 518 359 485 359 441 C359 393 317 359 252 330 C213 366 187 402 187 436 L187 436 Z " />
<glyph glyph-name="quotesingle" unicode="&#x27;" horiz-adv-x="217" d="M68 467 L145 467 L158 672 L68 672 L68 467 Z " />
<glyph glyph-name="parenleft" unicode="&#x28;" horiz-adv-x="310" d="M288 -148 C255 -112 125 46 125 263 C125 476 251 612 285 644 L201 644 C167 615 44 468 44 262 C44 56 165 -110 201 -146 L288 -148 Z " />
<glyph glyph-name="parenright" unicode="&#x29;" horiz-adv-x="309" d="M23 645 C55 610 185 466 185 250 C185 36 58 -114 23 -147 L108 -147 C142 -117 265 45 265 251 C265 457 144 608 109 643 L23 645 Z " />
<glyph glyph-name="asterisk" unicode="&#x2a;" horiz-adv-x="385" d="M50 524 L158 477 L50 434 L81 377 L174 451 L161 333 L224 333 L209 451 L303 377 L336 435 L222 478 L336 524 L304 580 L208 506 L225 626 L161 626 L177 505 L82 580 L50 524 Z " />
<glyph glyph-name="plus" unicode="&#x2b;" horiz-adv-x="500" d="M40 263 L216 263 L216 87 L284 87 L284 263 L460 263 L460 329 L284 329 L284 505 L216 505 L216 329 L40 329 L40 263 Z " />
<glyph glyph-name="comma" unicode="&#x2c;" horiz-adv-x="254" d="M68 -187 C147 -129 195 -36 195 42 C195 83 165 113 123 113 C85 113 55 79 54 45 C80 30 88 9 88 -19 C88 -62 60 -116 24 -159 L68 -187 Z " />
<glyph glyph-name="&amp;#x2d;" unicode="&#x2d;" horiz-adv-x="360" d="M64 207 L296 207 L296 279 L64 279 L64 207 Z " />
<glyph glyph-name="&amp;#xad;" unicode="&#xad;" horiz-adv-x="360" d="M64 207 L296 207 L296 279 L64 279 L64 207 Z " />
<glyph glyph-name="period" unicode="&#x2e;" horiz-adv-x="248" d="M124 -8 C162 -8 191 23 191 58 C191 94 162 126 124 126 C86 126 56 94 56 58 C56 23 86 -8 124 -8 L124 -8 Z " />
<glyph glyph-name="slash" unicode="&#x2f;" horiz-adv-x="335" d="M32 -93 L106 -93 L304 674 L229 674 L32 -93 Z " />
<glyph glyph-name="zero" unicode="0" horiz-adv-x="528" d="M259 -8 C402 -8 476 112 476 299 C476 462 429 592 267 592 C121 592 52 470 52 283 C52 103 109 -8 259 -8 L259 -8 Z M265 67 C176 67 145 155 145 288 C145 411 171 516 260 516 C350 516 381 412 381 296 C381 166 356 67 265 67 L265 67 Z " />
<glyph glyph-name="one" unicode="1" horiz-adv-x="338" d="M258 0 L258 583 L208 583 L31 530 L31 459 L164 482 L164 0 L258 0 Z " />
<glyph glyph-name="two" unicode="2" horiz-adv-x="478" d="M43 0 L433 0 L433 80 L173 80 L172 82 C304 185 414 320 414 427 C414 539 327 592 227 592 C169 592 103 576 59 541 L59 461 C119 508 168 515 213 515 C269 515 322 478 322 418 C322 312 184 179 43 62 L43 0 Z " />
<glyph glyph-name="three" unicode="3" horiz-adv-x="452" d="M189 -8 C294 -8 405 53 405 172 C405 249 347 303 276 310 L276 314 C311 323 379 374 379 452 C379 534 320 592 210 592 C154 592 98 575 56 541 L56 459 C107 501 155 514 196 514 C257 514 290 479 290 431 C290 376 214 326 144 321 L144 262 C250 259 316 227 316 163 C316 111 266 67 205 67 C154 67 105 73 52 101 L52 19 C82 5 121 -8 189 -8 L189 -8 Z " />
<glyph glyph-name="four" unicode="4" horiz-adv-x="486" d="M366 0 L366 143 L451 143 L451 217 L366 217 L366 583 L280 583 L32 217 L32 143 L274 143 L274 0 L366 0 Z M110 217 L268 454 L274 454 L274 217 L110 217 Z " />
<glyph glyph-name="five" unicode="5" horiz-adv-x="448" d="M196 67 C148 67 99 78 49 102 L49 18 C83 6 130 -8 192 -8 C288 -8 400 58 400 180 C400 302 310 356 174 356 C165 356 157 356 149 355 L162 508 L389 508 L389 583 L95 583 L69 280 C94 283 121 285 144 285 C255 285 313 248 313 171 C313 110 260 67 196 67 L196 67 Z " />
<glyph glyph-name="six" unicode="6" horiz-adv-x="496" d="M420 490 L420 573 C381 586 340 592 305 592 C142 592 51 453 51 261 C51 95 112 -8 249 -8 C380 -8 455 90 455 199 C455 315 378 369 283 369 C224 369 180 350 147 332 C161 458 213 516 305 516 C339 516 372 514 420 490 L420 490 Z M258 298 C325 298 362 258 362 187 C362 109 320 66 255 66 C179 66 144 131 144 261 L144 267 C173 283 211 298 258 298 L258 298 Z " />
<glyph glyph-name="seven" unicode="7" horiz-adv-x="419" d="M160 0 L395 532 L395 583 L35 583 L35 508 L305 508 L73 4 L76 0 L160 0 Z " />
<glyph glyph-name="eight" unicode="8" horiz-adv-x="498" d="M448 162 C448 231 403 268 348 296 C399 330 436 385 436 447 C436 535 356 592 247 592 C142 592 66 514 66 434 C66 373 99 334 143 304 C88 272 49 211 49 156 C49 62 115 -8 240 -8 C356 -8 448 72 448 162 L448 162 Z M136 162 C136 209 158 245 193 276 C271 238 356 214 356 155 C356 92 300 64 248 64 C192 64 136 97 136 162 L136 162 Z M348 434 C348 399 327 356 288 323 C219 352 153 377 153 438 C153 488 196 518 246 518 C314 518 348 479 348 434 L348 434 Z " />
<glyph glyph-name="nine" unicode="9" horiz-adv-x="497" d="M77 94 L77 11 C116 -2 157 -8 192 -8 C355 -8 446 131 446 323 C446 489 385 592 248 592 C117 592 42 494 42 385 C42 269 119 215 214 215 C273 215 316 233 349 252 C336 125 284 68 192 68 C158 68 125 70 77 94 L77 94 Z M239 286 C172 286 135 326 135 397 C135 475 177 518 242 518 C318 518 353 453 353 323 L353 316 C323 301 286 286 239 286 L239 286 Z " />
<glyph glyph-name="colon" unicode="&#x3a;" horiz-adv-x="263" d="M131 -8 C169 -8 198 23 198 58 C198 94 169 126 131 126 C93 126 63 94 63 58 C63 23 93 -8 131 -8 L131 -8 Z M131 326 C169 326 198 357 198 392 C198 428 169 460 131 460 C93 460 63 428 63 392 C63 357 93 326 131 326 L131 326 Z " />
<glyph glyph-name="semicolon" unicode="&#x3b;" horiz-adv-x="276" d="M80 -187 C159 -129 207 -36 207 42 C207 83 177 113 135 113 C97 113 67 79 66 45 C92 30 100 9 100 -19 C100 -62 72 -116 36 -159 L80 -187 Z M139 326 C177 326 206 357 206 392 C206 428 177 460 139 460 C101 460 71 428 71 392 C71 357 101 326 139 326 L139 326 Z " />
<glyph glyph-name="less" unicode="&#x3c;" horiz-adv-x="493" d="M431 60 L431 138 L122 295 L122 297 L431 453 L432 531 L34 325 L34 265 L431 60 Z " />
<glyph glyph-name="equal" unicode="&#x3d;" horiz-adv-x="525" d="M64 166 L461 166 L461 236 L64 236 L64 166 Z M64 358 L461 358 L461 427 L64 427 L64 358 Z " />
<glyph glyph-name="greater" unicode="&#x3e;" horiz-adv-x="493" d="M459 265 L459 325 L61 531 L62 453 L368 297 L368 294 L62 138 L62 60 L459 265 Z " />
<glyph glyph-name="question" unicode="&#x3f;" horiz-adv-x="399" d="M128 194 L205 194 L205 267 C254 285 365 349 365 450 C365 548 289 592 188 592 C148 592 83 580 41 560 L41 483 C84 503 136 519 179 519 C230 519 269 499 269 445 C269 361 173 319 128 302 L128 194 Z M168 -8 C206 -8 235 23 235 58 C235 94 206 126 168 126 C130 126 100 94 100 58 C100 23 130 -8 168 -8 L168 -8 Z " />
<glyph glyph-name="at" unicode="&#x40;" horiz-adv-x="893" d="M475 5 L522 -9 C715 35 863 157 863 316 C863 507 708 644 503 644 C246 644 40 447 40 198 C40 -48 179 -199 426 -199 C541 -199 671 -162 744 -106 L744 -38 C664 -92 540 -133 448 -133 C237 -133 117 -14 117 202 C117 417 291 580 494 580 C683 580 790 468 790 301 C790 210 723 123 573 67 L563 74 L630 459 L554 459 L550 438 C519 450 486 458 466 458 C403 458 364 416 329 370 C289 317 267 200 267 103 C267 60 272 20 280 -8 L334 -8 L499 143 L475 5 Z M346 105 C345 119 344 134 344 148 C344 247 378 341 417 391 C422 392 428 393 436 393 C464 392 502 380 537 365 L513 223 L361 100 L346 105 Z " />
<glyph glyph-name="A" unicode="A" horiz-adv-x="542" d="M9 0 L101 0 L162 170 L364 170 L413 0 L518 0 L325 583 L233 583 L9 0 Z M215 318 L272 473 L277 473 L321 318 L341 248 L190 248 L215 318 Z " />
<glyph glyph-name="B" unicode="B" horiz-adv-x="537" d="M79 0 L271 0 C426 0 498 69 498 166 C498 273 415 303 366 309 L366 311 C422 331 459 374 459 439 C459 534 381 583 249 583 L79 583 L79 0 Z M220 261 C325 261 396 249 396 175 C396 103 339 77 257 77 L176 77 L176 261 L220 261 Z M233 506 C301 506 357 484 357 417 C357 362 316 336 227 336 L176 336 L176 506 L233 506 Z " />
<glyph glyph-name="C" unicode="C" horiz-adv-x="560" d="M339 -9 C418 -9 485 11 514 30 L514 113 C461 82 414 71 352 71 C227 71 148 147 148 302 C148 438 225 513 336 513 C400 513 453 503 514 467 L514 559 C481 572 437 592 340 592 C148 592 45 457 45 286 C45 99 150 -9 339 -9 L339 -9 Z " />
<glyph glyph-name="D" unicode="D" horiz-adv-x="634" d="M79 0 L254 0 C448 1 588 101 588 302 C588 518 436 583 249 583 L79 583 L79 0 Z M242 505 C392 505 485 450 485 291 C485 158 399 78 255 78 L176 78 L176 505 L242 505 Z " />
<glyph glyph-name="E" unicode="E" horiz-adv-x="488" d="M79 0 L448 0 L448 78 L176 78 L176 260 L395 260 L395 337 L176 337 L176 505 L441 505 L441 583 L79 583 L79 0 Z " />
<glyph glyph-name="F" unicode="F" horiz-adv-x="469" d="M79 0 L176 0 L176 234 L395 234 L395 311 L176 311 L176 505 L441 505 L441 583 L79 583 L79 0 Z " />
<glyph glyph-name="G" unicode="G" horiz-adv-x="599" d="M339 -9 C418 -9 479 11 540 45 L540 297 L443 297 L443 83 C415 75 385 71 352 71 C225 71 148 149 148 302 C148 438 235 513 346 513 C410 513 478 499 538 463 L538 555 C505 568 447 592 349 592 C157 592 45 457 45 286 C45 99 150 -9 339 -9 L339 -9 Z " />
<glyph glyph-name="H" unicode="H" horiz-adv-x="663" d="M487 0 L584 0 L584 583 L487 583 L487 338 L176 338 L176 583 L79 583 L79 0 L176 0 L176 260 L487 260 L487 0 Z " />
<glyph glyph-name="I" unicode="I" horiz-adv-x="255" d="M79 0 L176 0 L176 583 L79 583 L79 0 Z " />
<glyph glyph-name="J" unicode="J" horiz-adv-x="273" d="M67 -87 C153 4 200 89 200 179 L200 583 L102 583 L102 175 C102 97 50 34 -7 -43 L67 -87 Z " />
<glyph glyph-name="K" unicode="K" horiz-adv-x="546" d="M412 0 L528 0 L283 309 L535 583 L428 583 L189 309 L189 292 L412 0 Z M79 0 L176 0 L176 583 L79 583 L79 0 Z " />
<glyph glyph-name="L" unicode="L" horiz-adv-x="453" d="M79 0 L435 0 L435 78 L176 78 L176 583 L79 583 L79 0 Z " />
<glyph glyph-name="M" unicode="M" horiz-adv-x="773" d="M49 0 L142 0 L167 256 L184 433 L188 433 L249 259 L340 0 L421 0 L518 258 L581 426 L585 426 L601 256 L624 0 L724 0 L663 583 L550 583 L439 276 L393 151 L388 151 L346 271 L236 583 L111 583 L49 0 Z " />
<glyph glyph-name="N" unicode="N" horiz-adv-x="651" d="M79 0 L172 0 L172 426 L174 426 L484 0 L572 0 L572 583 L479 583 L479 168 L477 168 L166 583 L79 583 L79 0 Z " />
<glyph glyph-name="O" unicode="O" horiz-adv-x="648" d="M317 -9 C506 -9 603 145 603 310 C603 465 512 592 333 592 C152 592 45 457 45 279 C45 118 141 -9 317 -9 L317 -9 Z M321 70 C203 70 148 174 148 296 C148 424 209 514 326 514 C441 514 500 421 500 294 C500 177 448 70 321 70 L321 70 Z " />
<glyph glyph-name="P" unicode="P" horiz-adv-x="507" d="M79 0 L176 0 L176 212 L234 212 C396 212 475 296 475 401 C475 525 392 583 273 583 L79 583 L79 0 Z M235 506 C324 505 375 471 375 398 C375 308 311 291 222 289 L176 289 L176 506 L235 506 Z " />
<glyph glyph-name="Q" unicode="Q" horiz-adv-x="648" d="M317 -9 C339 -9 361 -6 381 -2 L502 -109 L640 -109 L641 -91 L454 24 C553 78 603 191 603 310 C603 465 512 592 333 592 C152 592 45 457 45 279 C45 118 141 -9 317 -9 L317 -9 Z M321 70 C203 70 148 174 148 296 C148 424 209 514 326 514 C441 514 500 421 500 294 C500 177 448 70 321 70 L321 70 Z " />
<glyph glyph-name="R" unicode="R" horiz-adv-x="536" d="M79 0 L176 0 L176 212 L234 212 C250 212 266 213 281 214 L407 0 L523 0 L371 238 C441 271 475 331 475 401 C475 525 392 583 273 583 L79 583 L79 0 Z M235 506 C324 505 375 471 375 398 C375 308 312 289 222 289 L176 289 L176 506 L235 506 Z " />
<glyph glyph-name="S" unicode="S" horiz-adv-x="477" d="M53 26 C107 3 164 -9 222 -9 C337 -9 435 49 435 163 C435 277 335 312 250 345 C180 371 142 391 142 441 C142 486 193 512 246 512 C306 512 368 493 413 464 L413 557 C374 577 315 592 243 592 C138 592 48 529 48 423 C48 326 123 287 199 259 C275 231 341 213 341 153 C341 103 293 72 230 72 C168 72 97 93 53 118 L53 26 Z " />
<glyph glyph-name="T" unicode="T" horiz-adv-x="547" d="M18 505 L223 505 L223 0 L320 0 L320 505 L528 505 L528 583 L18 583 L18 505 Z " />
<glyph glyph-name="U" unicode="U" horiz-adv-x="633" d="M319 -9 C433 -9 561 65 561 238 L561 583 L464 583 L464 237 C464 127 417 74 326 74 C238 74 170 115 170 225 L170 583 L73 583 L73 216 C73 51 196 -9 319 -9 L319 -9 Z " />
<glyph glyph-name="V" unicode="V" horiz-adv-x="572" d="M565 583 L463 583 L340 250 L290 114 L286 114 L239 254 L128 583 L22 583 L232 0 L325 0 L565 583 Z " />
<glyph glyph-name="W" unicode="W" horiz-adv-x="886" d="M873 583 L775 583 L682 278 L635 120 L630 120 L587 281 L505 583 L397 583 L304 278 L255 118 L250 118 L212 280 L138 583 L32 583 L189 0 L299 0 L390 291 L439 445 L445 445 L488 290 L567 0 L678 0 L873 583 Z " />
<glyph glyph-name="X" unicode="X" horiz-adv-x="550" d="M145 583 L30 583 L219 289 L6 0 L119 0 L264 222 L271 222 L403 0 L525 0 L329 303 L541 583 L428 583 L282 369 L276 369 L145 583 Z " />
<glyph glyph-name="Y" unicode="Y" horiz-adv-x="542" d="M533 583 L433 583 L337 403 L280 295 L276 295 L217 403 L118 583 L11 583 L221 218 L221 0 L319 0 L319 215 L533 583 Z " />
<glyph glyph-name="Z" unicode="Z" horiz-adv-x="507" d="M469 0 L469 78 L164 78 L485 580 L483 583 L41 583 L41 505 L335 505 L21 3 L23 0 L469 0 Z " />
<glyph glyph-name="bracketleft" unicode="&#x5b;" horiz-adv-x="264" d="M74 -181 L223 -181 L223 -116 L150 -116 L150 613 L223 613 L223 679 L74 679 L74 -181 Z " />
<glyph glyph-name="backslash" unicode="&#x5c;" horiz-adv-x="335" d="M106 674 L31 674 L229 -93 L303 -93 L106 674 Z " />
<glyph glyph-name="bracketright" unicode="&#x5d;" horiz-adv-x="265" d="M191 679 L41 679 L41 613 L115 613 L115 -116 L41 -116 L41 -181 L191 -181 L191 679 Z " />
<glyph glyph-name="asciicircum" unicode="&#x5e;" horiz-adv-x="447" d="M32 240 L116 240 L226 511 L230 511 L325 240 L411 240 L279 583 L180 583 L32 240 Z " />
<glyph glyph-name="underscore" unicode="&#x5f;" horiz-adv-x="631" d="M104 -154 L527 -154 L527 -83 L104 -83 L104 -154 Z " />
<glyph glyph-name="grave" unicode="&#x60;" horiz-adv-x="295" d="M239 529 L145 677 L52 677 L167 529 L239 529 Z " />
<glyph glyph-name="a" unicode="a" horiz-adv-x="460" d="M320 0 L410 0 L393 103 L393 322 C393 426 322 460 232 460 C176 460 99 447 62 431 L62 354 C102 368 168 382 216 382 C266 382 304 367 304 303 L304 254 L247 254 C117 254 36 209 36 117 C36 43 81 -8 165 -8 C227 -8 279 22 311 47 L320 0 Z M190 62 C147 62 126 85 126 127 C126 175 164 194 237 194 L304 194 L304 103 C268 80 227 62 190 62 L190 62 Z " />
<glyph glyph-name="b" unicode="b" horiz-adv-x="498" d="M230 -8 C357 -8 456 77 456 247 C456 379 396 460 289 460 C239 460 194 442 154 418 L154 653 L65 653 L65 16 C131 -1 178 -8 230 -8 L230 -8 Z M255 385 C329 385 362 335 362 233 C362 144 336 67 232 67 C208 67 179 70 154 74 L154 355 C184 370 220 385 255 385 L255 385 Z " />
<glyph glyph-name="c" unicode="c" horiz-adv-x="431" d="M252 -8 C307 -8 354 2 388 22 L388 95 C351 78 312 70 278 70 C190 70 135 118 135 226 C135 349 197 382 268 382 C307 382 347 375 388 350 L388 438 C354 455 310 460 264 460 C121 460 41 355 41 218 C41 78 111 -8 252 -8 L252 -8 Z " />
<glyph glyph-name="d" unicode="d" horiz-adv-x="509" d="M365 0 L456 0 L439 101 L439 653 L349 653 L349 453 C324 457 289 460 264 460 C144 460 41 365 41 205 C41 50 134 -8 215 -8 C273 -8 319 17 356 48 L365 0 Z M241 67 C171 67 135 118 135 220 C135 340 185 386 269 386 C294 386 324 381 349 374 L349 108 C306 82 278 67 241 67 L241 67 Z " />
<glyph glyph-name="e" unicode="e" horiz-adv-x="482" d="M258 -8 C331 -8 388 4 430 28 L430 99 C386 79 324 67 274 67 C190 67 139 110 133 206 L441 206 L441 243 C441 368 380 460 248 460 C119 460 41 357 41 217 C41 74 117 -8 258 -8 L258 -8 Z M245 385 C311 385 341 336 344 268 L135 268 C146 357 191 385 245 385 L245 385 Z " />
<glyph glyph-name="f" unicode="f" horiz-adv-x="306" d="M25 375 L92 375 L92 0 L182 0 L182 375 L283 375 L283 451 L182 451 L182 481 C182 555 213 584 264 584 C290 584 310 582 336 577 L336 655 C320 659 297 661 272 661 C163 661 92 601 92 487 L92 451 L25 451 L25 375 Z " />
<glyph glyph-name="g" unicode="g" horiz-adv-x="483" d="M231 166 C326 166 407 240 407 313 C407 342 400 366 389 387 L473 387 L473 455 L339 435 C310 451 273 460 230 460 C124 460 49 383 49 308 C49 243 83 202 137 181 L60 107 L60 46 L117 39 C68 11 24 -29 24 -80 C24 -161 97 -214 219 -214 C361 -214 455 -125 455 -31 C455 41 413 88 290 101 L148 116 L195 168 C206 166 218 166 231 166 L231 166 Z M256 24 C349 13 366 -8 366 -48 C366 -96 314 -145 232 -145 C147 -145 113 -106 113 -66 C113 -31 145 4 192 31 L256 24 Z M231 229 C179 229 140 258 140 315 C140 364 171 395 225 395 C281 395 316 364 316 312 C316 263 280 229 231 229 L231 229 Z " />
<glyph glyph-name="h" unicode="h" horiz-adv-x="519" d="M365 0 L455 0 L455 297 C455 414 408 460 320 460 C257 460 197 430 156 402 L156 653 L67 653 L67 0 L156 0 L156 335 C194 358 243 381 281 381 C348 381 365 349 365 277 L365 0 Z " />
<glyph glyph-name="i" unicode="i" horiz-adv-x="252" d="M25 375 L95 375 L95 0 L185 0 L185 451 L25 451 L25 375 Z M142 560 C177 560 204 584 204 619 C204 654 177 677 142 677 C107 677 80 654 80 619 C80 584 107 560 142 560 L142 560 Z " />
<glyph glyph-name="j" unicode="j" horiz-adv-x="252" d="M25 375 L95 375 L95 18 C95 -57 55 -132 25 -181 L88 -214 C151 -154 185 -52 185 32 L185 451 L25 451 L25 375 Z M142 560 C177 560 204 584 204 619 C204 654 177 677 142 677 C107 677 80 654 80 619 C80 584 107 560 142 560 L142 560 Z " />
<glyph glyph-name="k" unicode="k" horiz-adv-x="466" d="M335 0 L444 0 L275 256 L451 451 L346 451 L181 259 L181 238 L335 0 Z M67 0 L156 0 L156 653 L67 653 L67 0 Z " />
<glyph glyph-name="l" unicode="l" horiz-adv-x="232" d="M71 0 L161 0 L161 653 L71 653 L71 0 Z " />
<glyph glyph-name="m" unicode="m" horiz-adv-x="784" d="M630 0 L720 0 L720 297 C720 414 674 460 585 460 C518 460 462 427 422 397 C401 441 361 460 305 460 C243 460 189 431 150 403 L141 451 L51 451 L70 343 L70 0 L159 0 L159 340 C194 361 232 381 266 381 C334 381 350 349 350 277 L350 0 L440 0 L440 297 C440 312 439 327 437 340 C473 361 511 381 547 381 C614 381 630 349 630 277 L630 0 Z " />
<glyph glyph-name="n" unicode="n" horiz-adv-x="522" d="M70 0 L159 0 L159 335 C197 358 246 381 284 381 C351 381 368 349 368 277 L368 0 L458 0 L458 297 C458 414 411 460 323 460 C256 460 193 426 151 397 L141 451 L51 451 L70 343 L70 0 Z " />
<glyph glyph-name="o" unicode="o" horiz-adv-x="502" d="M248 -8 C378 -8 461 100 461 227 C461 387 391 460 254 460 C128 460 40 351 40 222 C40 63 120 -8 248 -8 L248 -8 Z M253 67 C161 67 134 136 134 227 C134 309 158 384 250 384 C351 384 367 306 367 224 C367 139 344 67 253 67 L253 67 Z " />
<glyph glyph-name="p" unicode="p" horiz-adv-x="503" d="M70 -207 L159 -207 L159 -1 C181 -5 208 -8 235 -8 C362 -8 461 77 461 247 C461 379 401 460 294 460 C239 460 191 439 148 412 L141 451 L51 451 L70 343 L70 -207 Z M260 385 C334 385 367 335 367 233 C367 144 341 67 237 67 C214 67 183 70 159 75 L159 355 C189 370 225 385 260 385 L260 385 Z " />
<glyph glyph-name="q" unicode="q" horiz-adv-x="505" d="M266 460 C144 460 41 363 41 208 C41 48 133 -8 219 -8 C271 -8 316 19 349 48 L349 -207 L439 -207 L439 440 C367 455 328 460 266 460 L266 460 Z M247 67 C171 67 135 112 135 225 C135 337 184 386 269 386 C297 386 325 382 349 376 L349 108 C314 87 279 67 247 67 L247 67 Z " />
<glyph glyph-name="r" unicode="r" horiz-adv-x="345" d="M70 0 L159 0 L159 323 C192 349 234 376 288 376 C301 376 314 375 328 371 L328 455 C312 459 298 460 282 460 C238 460 189 430 152 395 L141 451 L51 451 L70 343 L70 0 Z " />
<glyph glyph-name="s" unicode="s" horiz-adv-x="418" d="M199 -8 C291 -8 380 34 380 134 C380 232 298 253 227 269 C174 280 129 292 129 333 C129 364 166 385 211 385 C258 385 296 379 363 351 L363 432 C323 452 264 460 218 460 C125 460 43 411 43 323 C43 236 118 212 187 194 C245 180 298 168 298 127 C298 88 257 66 210 66 C158 66 112 77 47 101 L47 21 C89 5 138 -8 199 -8 L199 -8 Z " />
<glyph glyph-name="t" unicode="t" horiz-adv-x="371" d="M24 375 L101 375 L101 130 C100 34 161 -8 237 -8 C282 -8 323 -1 349 13 L349 83 C327 76 298 69 272 69 C224 69 191 82 190 143 L190 375 L340 375 L340 451 L190 451 L190 570 L101 570 L101 451 L24 451 L24 375 Z " />
<glyph glyph-name="u" unicode="u" horiz-adv-x="514" d="M443 451 L354 451 L354 115 C316 91 274 69 236 69 C171 69 154 100 154 170 L154 451 L64 451 L64 155 C64 38 111 -8 199 -8 C265 -8 321 25 361 55 L372 0 L462 0 L443 110 L443 451 Z " />
<glyph glyph-name="v" unicode="v" horiz-adv-x="469" d="M181 0 L281 0 L456 451 L359 451 L275 206 L239 99 L233 99 L200 205 L124 451 L21 451 L181 0 Z " />
<glyph glyph-name="w" unicode="w" horiz-adv-x="746" d="M728 451 L631 451 L567 235 L528 96 L523 96 L486 232 L426 451 L336 451 L263 225 L222 97 L217 97 L185 225 L128 451 L24 451 L164 0 L263 0 L338 231 L370 330 L376 330 L406 227 L472 0 L577 0 L728 451 Z " />
<glyph glyph-name="x" unicode="x" horiz-adv-x="488" d="M134 451 L25 451 L195 227 L11 0 L116 0 L238 168 L245 168 L358 0 L472 0 L300 233 L468 451 L370 451 L253 290 L246 290 L134 451 Z " />
<glyph glyph-name="y" unicode="y" horiz-adv-x="469" d="M207 -207 L287 15 L456 451 L360 451 L274 201 L239 99 L233 99 L202 197 L124 451 L21 451 L181 0 L197 0 L110 -204 L113 -207 L207 -207 Z " />
<glyph glyph-name="z" unicode="z" horiz-adv-x="436" d="M27 3 L28 0 L405 0 L405 76 L165 76 L400 449 L398 451 L37 451 L37 375 L259 375 L27 3 Z " />
<glyph glyph-name="braceleft" unicode="&#x7b;" horiz-adv-x="306" d="M244 -179 L268 -178 L267 -118 L245 -118 C169 -118 151 -98 158 -39 L174 143 C180 197 157 240 119 253 C158 268 183 300 175 367 L160 547 C152 608 176 620 245 620 L267 620 L268 681 C268 681 235 682 234 682 C145 683 76 652 86 551 L102 357 C107 310 88 283 38 283 L38 223 C89 223 107 195 102 150 L86 -39 C74 -150 154 -183 244 -179 L244 -179 Z " />
<glyph glyph-name="bar" unicode="&#x7c;" horiz-adv-x="234" d="M76 -92 L158 -92 L158 675 L76 675 L76 -92 Z " />
<glyph glyph-name="braceright" unicode="&#x7d;" horiz-adv-x="306" d="M62 679 L38 678 L39 618 L61 618 C137 618 155 598 148 539 L132 357 C126 303 149 260 187 247 C148 232 123 200 131 133 L146 -47 C154 -108 130 -120 61 -120 L39 -120 L38 -181 C38 -181 71 -182 72 -182 C161 -183 230 -152 220 -51 L204 143 C199 190 218 217 268 217 L268 277 C217 277 199 305 204 350 L220 539 C232 650 152 683 62 679 L62 679 Z " />
<glyph glyph-name="asciitilde" unicode="&#x7e;" horiz-adv-x="500" d="M331 228 C377 228 418 253 444 285 L407 335 C385 313 367 299 339 299 C270 299 246 344 166 344 C118 344 75 316 56 292 L88 243 C106 257 125 274 160 274 C222 274 264 228 331 228 L331 228 Z " />
<glyph glyph-name="uni00A0" unicode="&#xa0;" horiz-adv-x="250" d="" />
<glyph glyph-name="exclamdown" unicode="&#xa1;" horiz-adv-x="243" d="M76 -130 L165 -130 L165 126 L156 259 L87 259 L76 127 L76 -130 Z M123 461 C85 461 55 430 55 395 C55 359 85 327 123 327 C161 327 190 359 190 395 C190 430 160 461 123 461 L123 461 Z " />
<glyph glyph-name="cent" unicode="&#xa2;" horiz-adv-x="447" d="M240 -77 L303 -77 L303 -5 C338 -1 369 8 393 22 L393 95 C363 81 332 73 303 70 L303 380 C332 377 362 368 393 350 L393 438 C367 450 336 457 303 459 L303 537 L240 537 L240 458 C115 445 46 345 46 218 C46 84 110 0 240 -7 L240 -77 Z M240 74 C177 88 140 137 140 226 C140 329 184 369 240 379 L240 74 Z " />
<glyph glyph-name="sterling" unicode="&#xa3;" horiz-adv-x="502" d="M215 189 C215 207 213 227 210 247 L378 247 L378 319 L196 319 C188 358 180 394 180 422 C180 474 226 513 286 513 C345 513 387 498 432 461 L432 555 C398 577 348 592 284 592 C198 592 93 538 93 418 C93 387 98 353 104 319 L49 319 L49 247 L120 247 C126 217 131 190 131 169 C131 136 121 107 104 73 L50 73 L50 0 L459 0 L459 73 L192 73 C206 111 215 153 215 189 L215 189 Z " />
<glyph glyph-name="currency" unicode="&#xa4;" horiz-adv-x="516" d="M86 499 L49 464 L120 393 C100 369 89 330 89 291 C89 252 103 213 121 188 L49 119 L85 82 L156 151 C185 131 222 120 258 120 C295 120 333 133 362 150 L432 80 L466 117 L396 186 C418 211 429 252 429 291 C429 330 420 369 398 393 L468 463 L431 502 L362 432 C332 454 295 462 258 462 C222 462 183 447 155 430 L86 499 Z M154 291 C154 346 184 396 258 396 C334 396 361 338 361 291 C361 241 335 186 258 186 C186 186 154 243 154 291 L154 291 Z " />
<glyph glyph-name="yen" unicode="&#xa5;" horiz-adv-x="602" d="M534 187 L346 187 L346 210 L370 253 L533 253 L533 317 L407 317 L560 583 L460 583 L307 290 L303 290 L146 583 L38 583 L190 317 L69 317 L69 253 L226 253 L249 214 L249 187 L69 187 L69 122 L249 122 L249 0 L346 0 L346 122 L534 122 L534 187 Z " />
<glyph glyph-name="brokenbar" unicode="&#xa6;" horiz-adv-x="238" d="M78 -92 L161 -92 L161 202 L78 202 L78 -92 Z M78 386 L161 386 L161 675 L78 675 L78 386 Z " />
<glyph glyph-name="section" unicode="&#xa7;" horiz-adv-x="485" d="M217 -119 C324 -119 435 -42 435 93 C435 186 404 255 318 328 L149 466 C182 503 236 515 272 515 C326 515 384 498 431 472 L431 558 C400 573 345 592 267 592 C160 592 50 515 50 383 C50 292 82 221 167 146 L331 5 C301 -30 250 -40 215 -40 C161 -40 101 -21 53 3 L53 -86 C84 -98 139 -119 217 -119 L217 -119 Z M247 287 C338 212 357 158 357 84 L357 82 L236 188 C164 251 124 315 123 388 L247 287 Z " />
<glyph glyph-name="dieresis" unicode="&#xa8;" horiz-adv-x="382" d="M101 562 C132 562 155 584 155 615 C155 647 132 669 101 669 C69 669 47 648 47 615 C47 584 69 562 101 562 L101 562 Z M284 562 C315 562 338 584 338 615 C338 647 315 669 284 669 C253 669 229 648 229 615 C229 584 253 562 284 562 L284 562 Z " />
<glyph glyph-name="copyright" unicode="&#xa9;" horiz-adv-x="700" d="M350 -14 C517 -14 653 120 653 289 C653 458 517 592 350 592 C183 592 47 458 47 289 C47 120 183 -14 350 -14 L350 -14 Z M350 18 C200 18 79 139 79 289 C79 439 200 560 350 560 C500 560 621 439 621 289 C621 139 500 18 350 18 L350 18 Z M360 110 C411 110 456 122 474 133 L474 196 C439 177 409 170 368 170 C293 170 247 211 247 293 C247 364 290 411 358 411 C400 411 435 405 474 384 L474 452 C452 459 424 472 360 472 C236 472 168 391 168 288 C168 165 247 110 360 110 L360 110 Z " />
<glyph glyph-name="ordfeminine" unicode="&#xaa;" horiz-adv-x="400" d="M263 273 L335 273 L322 345 L322 496 C322 569 271 592 205 592 C164 592 110 583 82 572 L82 510 C112 520 159 529 193 529 C229 529 252 520 252 475 L252 449 L218 449 C124 449 64 419 64 355 C64 303 95 267 156 267 C201 267 235 289 257 306 L263 273 Z M64 173 L341 173 L341 227 L64 227 L64 173 Z M182 321 C152 321 137 333 137 362 C137 395 166 407 217 407 L252 407 L252 348 C229 333 209 321 182 321 L182 321 Z " />
<glyph glyph-name="guillemotleft" unicode="&#xab;" horiz-adv-x="435" d="M140 46 L218 46 L147 226 L218 405 L140 405 L45 226 L140 46 Z M303 46 L381 46 L310 226 L381 405 L303 405 L208 226 L303 46 Z " />
<glyph glyph-name="logicalnot" unicode="&#xac;" horiz-adv-x="499" d="M359 100 L431 100 L431 331 L62 331 L62 263 L359 263 L359 100 Z " />
<glyph glyph-name="registered" unicode="&#xae;" horiz-adv-x="473" d="M236 267 C342 267 424 346 424 454 C424 562 342 642 236 642 C130 642 48 561 48 454 C48 346 130 267 236 267 L236 267 Z M236 295 C144 295 78 363 78 454 C78 545 144 614 236 614 C328 614 394 545 394 454 C394 361 327 295 236 295 L236 295 Z M165 361 L208 361 L208 423 L227 423 C234 423 240 423 247 424 L283 361 L333 361 L285 436 C305 447 317 466 317 493 C317 535 287 557 240 557 L165 557 L165 361 Z M226 522 C257 522 273 516 273 492 C273 462 252 458 222 458 L208 458 L208 522 L226 522 Z " />
<glyph glyph-name="macron" unicode="&#xaf;" horiz-adv-x="360" d="M56 562 L310 562 L310 638 L56 638 L56 562 Z " />
<glyph glyph-name="degree" unicode="&#xb0;" horiz-adv-x="403" d="M199 305 C293 305 355 369 355 449 C355 532 299 592 206 592 C112 592 48 530 48 448 C48 365 106 305 199 305 L199 305 Z M203 362 C160 362 123 384 123 447 C123 502 159 536 201 536 C245 536 280 509 280 449 C280 385 247 362 203 362 L203 362 Z " />
<glyph glyph-name="plusminus" unicode="&#xb1;" horiz-adv-x="521" d="M64 299 L227 299 L227 143 L295 143 L295 299 L458 299 L458 366 L295 366 L295 524 L227 524 L227 366 L64 366 L64 299 Z M57 31 L462 31 L462 101 L57 101 L57 31 Z " />
<glyph glyph-name="twosuperior" unicode="&#xb2;" horiz-adv-x="275" d="M173 619 C173 562 103 505 23 439 L23 400 L250 400 L250 452 L116 452 L116 454 C192 513 241 568 241 625 C241 687 188 713 130 713 C96 713 56 704 31 684 L31 632 C65 659 95 663 121 663 C148 663 173 649 173 619 L173 619 Z " />
<glyph glyph-name="threesuperior" unicode="&#xb3;" horiz-adv-x="260" d="M108 396 C177 396 235 426 235 493 C235 533 206 562 165 566 L165 568 C186 574 221 597 221 640 C221 686 178 713 120 713 C88 713 55 703 31 684 L31 632 C60 656 89 662 111 662 C136 662 156 650 156 627 C156 597 119 576 80 573 L80 535 C140 533 171 520 171 487 C171 461 148 444 118 444 C89 444 60 447 28 463 L28 411 C45 402 68 396 108 396 L108 396 Z " />
<glyph glyph-name="acute" unicode="&#xb4;" horiz-adv-x="295" d="M148 529 L265 677 L173 677 L76 529 L148 529 Z " />
<glyph glyph-name="mu" unicode="&#xb5;" horiz-adv-x="564" d="M73 -207 L163 -207 L163 6 C180 -4 208 -8 227 -8 C278 -8 322 18 360 52 C373 9 412 -5 455 -5 C482 -5 509 0 532 12 L532 65 C512 63 493 63 481 63 C456 63 445 80 445 120 L445 451 L356 451 L356 115 C323 91 278 71 246 71 C194 71 163 91 163 163 L163 451 L73 451 L73 -207 Z " />
<glyph glyph-name="paragraph" unicode="&#xb6;" horiz-adv-x="606" d="M284 -207 L367 -207 L367 508 L445 508 L445 -207 L529 -207 L529 583 L288 583 C130 583 28 505 28 375 C28 234 139 170 284 166 L284 -207 Z " />
<glyph glyph-name="periodcentered" unicode="&#xb7;" horiz-adv-x="247" d="M124 257 C159 257 186 281 186 316 C186 351 159 374 124 374 C89 374 62 351 62 316 C62 281 89 257 124 257 L124 257 Z " />
<glyph glyph-name="cedilla" unicode="&#xb8;" horiz-adv-x="294" d="M149 -220 C224 -220 262 -179 262 -132 C262 -86 226 -53 180 -44 L202 14 L143 14 L109 -63 L109 -78 C164 -76 189 -101 189 -127 C189 -147 178 -163 139 -163 C118 -163 81 -152 67 -141 L63 -201 C81 -211 123 -220 149 -220 L149 -220 Z " />
<glyph glyph-name="onesuperior" unicode="&#xb9;" horiz-adv-x="197" d="M150 400 L150 712 L111 712 L11 682 L11 637 L82 648 L82 400 L150 400 Z " />
<glyph glyph-name="ordmasculine" unicode="&#xba;" horiz-adv-x="427" d="M212 266 C306 266 368 332 368 430 C368 542 316 592 217 592 C124 592 61 524 61 427 C61 316 118 266 212 266 L212 266 Z M62 173 L366 173 L366 227 L62 227 L62 173 Z M215 319 C158 319 139 367 139 430 C139 487 156 539 214 539 C276 539 292 484 292 428 C292 370 272 319 215 319 L215 319 Z " />
<glyph glyph-name="guillemotright" unicode="&#xbb;" horiz-adv-x="435" d="M130 408 L52 408 L123 228 L52 49 L130 49 L225 228 L130 408 Z M294 408 L216 408 L287 228 L216 49 L294 49 L389 228 L294 408 Z " />
<glyph glyph-name="onequarter" unicode="&#xbc;" horiz-adv-x="632" d="M173 253 L173 565 L134 565 L34 535 L34 490 L105 501 L105 253 L173 253 Z M486 0 L553 0 L553 76 L596 76 L596 123 L553 123 L553 312 L487 312 L350 122 L350 76 L486 76 L486 0 Z M407 123 L482 233 L486 233 L486 123 L407 123 Z M157 0 L506 543 L506 548 L444 548 L95 5 L95 0 L157 0 Z " />
<glyph glyph-name="onehalf" unicode="&#xbd;" horiz-adv-x="647" d="M173 253 L173 565 L134 565 L34 535 L34 490 L105 501 L105 253 L173 253 Z M530 219 C530 162 460 105 380 39 L380 0 L607 0 L607 52 L473 52 L473 54 C549 113 598 168 598 225 C598 287 545 313 487 313 C453 313 413 304 388 284 L388 232 C422 259 452 263 478 263 C505 263 530 249 530 219 L530 219 Z M156 0 L505 543 L505 548 L443 548 L94 5 L94 0 L156 0 Z " />
<glyph glyph-name="threequarters" unicode="&#xbe;" horiz-adv-x="643" d="M129 249 C198 249 256 279 256 346 C256 386 227 415 186 419 L186 421 C207 427 242 450 242 493 C242 539 199 566 141 566 C109 566 76 556 52 537 L52 485 C81 509 110 515 132 515 C157 515 177 503 177 480 C177 450 140 429 101 426 L101 388 C161 386 192 373 192 340 C192 314 169 297 139 297 C110 297 81 300 49 316 L49 264 C66 255 89 249 129 249 L129 249 Z M496 0 L563 0 L563 76 L606 76 L606 123 L563 123 L563 312 L497 312 L360 122 L360 76 L496 76 L496 0 Z M417 123 L492 233 L496 233 L496 123 L417 123 Z M179 0 L528 543 L528 548 L466 548 L117 5 L117 0 L179 0 Z " />
<glyph glyph-name="questiondown" unicode="&#xbf;" horiz-adv-x="392" d="M268 259 L191 259 L191 186 C142 168 31 104 31 3 C31 -95 107 -139 208 -139 C248 -139 313 -127 355 -107 L355 -30 C312 -50 260 -66 217 -66 C166 -66 127 -46 127 8 C127 92 223 134 268 151 L268 259 Z M228 461 C190 461 161 430 161 395 C161 359 190 327 228 327 C266 327 296 359 296 395 C296 430 266 461 228 461 L228 461 Z " />
<glyph glyph-name="Agrave" unicode="&#xc0;" horiz-adv-x="542" d="M9 0 L101 0 L162 170 L364 170 L413 0 L518 0 L325 583 L233 583 L9 0 Z M215 318 L272 473 L277 473 L321 318 L341 248 L190 248 L215 318 Z M316 633 L231 761 L139 761 L245 633 L316 633 Z " />
<glyph glyph-name="Aacute" unicode="&#xc1;" horiz-adv-x="542" d="M9 0 L101 0 L162 170 L364 170 L413 0 L518 0 L325 583 L233 583 L9 0 Z M215 318 L272 473 L277 473 L321 318 L341 248 L190 248 L215 318 Z M305 633 L411 761 L319 761 L234 633 L305 633 Z " />
<glyph glyph-name="Acircumflex" unicode="&#xc2;" horiz-adv-x="542" d="M9 0 L101 0 L162 170 L364 170 L413 0 L518 0 L325 583 L233 583 L9 0 Z M250 768 L130 632 L218 632 L280 709 L284 709 L344 632 L430 632 L322 768 L250 768 Z M215 318 L272 473 L277 473 L321 318 L341 248 L190 248 L215 318 Z " />
<glyph glyph-name="Atilde" unicode="&#xc3;" horiz-adv-x="542" d="M9 0 L101 0 L162 170 L364 170 L413 0 L518 0 L325 583 L233 583 L9 0 Z M400 733 C391 720 368 701 340 701 C306 701 275 735 234 735 C193 735 161 709 143 686 L168 635 C185 657 203 668 229 668 C263 668 294 633 334 633 C374 633 409 661 425 681 L400 733 Z M215 318 L272 473 L277 473 L321 318 L341 248 L190 248 L215 318 Z " />
<glyph glyph-name="Adieresis" unicode="&#xc4;" horiz-adv-x="542" d="M9 0 L101 0 L162 170 L364 170 L413 0 L518 0 L325 583 L233 583 L9 0 Z M215 318 L272 473 L277 473 L321 318 L341 248 L190 248 L215 318 Z M367 630 C398 630 421 651 421 682 C421 716 398 737 367 737 C336 737 312 716 312 682 C312 651 336 630 367 630 L367 630 Z M183 630 C214 630 238 651 238 683 C238 716 214 737 183 737 C152 737 130 716 130 683 C130 651 152 630 183 630 L183 630 Z " />
<glyph glyph-name="Aring" unicode="&#xc5;" horiz-adv-x="542" d="M9 0 L101 0 L162 170 L364 170 L413 0 L518 0 L325 583 L233 583 L9 0 Z M281 783 C235 783 185 753 185 697 C185 641 231 610 281 610 C331 610 378 643 378 697 C378 753 331 783 281 783 L281 783 Z M215 318 L272 473 L277 473 L321 318 L341 248 L190 248 L215 318 Z M281 656 C253 656 241 671 241 697 C241 719 253 737 281 737 C308 737 321 722 321 697 C321 671 308 656 281 656 L281 656 Z " />
<glyph glyph-name="AE" unicode="&#xc6;" horiz-adv-x="762" d="M352 0 L721 0 L721 78 L450 78 L450 260 L668 260 L668 337 L450 337 L450 505 L714 505 L714 583 L318 583 L1 0 L98 0 L187 170 L352 170 L352 0 Z M345 473 L352 473 L352 248 L227 248 L345 473 Z " />
<glyph glyph-name="Ccedilla" unicode="&#xc7;" horiz-adv-x="561" d="M307 -219 C382 -219 420 -178 420 -131 C420 -85 384 -52 338 -43 L351 -9 C425 -7 486 12 514 30 L514 113 C461 82 414 71 352 71 C227 71 148 147 148 302 C148 438 225 513 336 513 C400 513 453 503 514 467 L514 559 C481 572 437 592 340 592 C148 592 45 457 45 286 C45 115 132 10 291 -6 L267 -62 L267 -77 C322 -75 347 -100 347 -126 C347 -146 336 -162 297 -162 C276 -162 239 -151 225 -140 L221 -200 C239 -210 281 -219 307 -219 L307 -219 Z " />
<glyph glyph-name="Egrave" unicode="&#xc8;" horiz-adv-x="488" d="M79 0 L448 0 L448 78 L176 78 L176 260 L395 260 L395 337 L176 337 L176 505 L441 505 L441 583 L79 583 L79 0 Z M338 633 L253 761 L161 761 L267 633 L338 633 Z " />
<glyph glyph-name="Eacute" unicode="&#xc9;" horiz-adv-x="488" d="M79 0 L448 0 L448 78 L176 78 L176 260 L395 260 L395 337 L176 337 L176 505 L441 505 L441 583 L79 583 L79 0 Z M272 633 L378 761 L286 761 L201 633 L272 633 Z " />
<glyph glyph-name="Ecircumflex" unicode="&#xca;" horiz-adv-x="488" d="M79 0 L448 0 L448 78 L176 78 L176 260 L395 260 L395 337 L176 337 L176 505 L441 505 L441 583 L79 583 L79 0 Z M242 767 L122 631 L210 631 L272 708 L276 708 L336 631 L422 631 L314 767 L242 767 Z " />
<glyph glyph-name="Edieresis" unicode="&#xcb;" horiz-adv-x="488" d="M79 0 L448 0 L448 78 L176 78 L176 260 L395 260 L395 337 L176 337 L176 505 L441 505 L441 583 L79 583 L79 0 Z M356 631 C387 631 410 652 410 683 C410 717 387 738 356 738 C325 738 301 717 301 683 C301 652 325 631 356 631 L356 631 Z M172 631 C203 631 227 652 227 684 C227 717 203 738 172 738 C141 738 119 717 119 684 C119 652 141 631 172 631 L172 631 Z " />
<glyph glyph-name="Igrave" unicode="&#xcc;" horiz-adv-x="255" d="M173 633 L88 761 L-4 761 L102 633 L173 633 Z M79 0 L176 0 L176 583 L79 583 L79 0 Z " />
<glyph glyph-name="Iacute" unicode="&#xcd;" horiz-adv-x="255" d="M79 0 L176 0 L176 583 L79 583 L79 0 Z M155 633 L261 761 L169 761 L84 633 L155 633 Z " />
<glyph glyph-name="Icircumflex" unicode="&#xce;" horiz-adv-x="255" d="M79 0 L176 0 L176 583 L79 583 L79 0 Z M94 767 L-26 631 L62 631 L124 708 L128 708 L188 631 L274 631 L166 767 L94 767 Z " />
<glyph glyph-name="Idieresis" unicode="&#xcf;" horiz-adv-x="255" d="M79 0 L176 0 L176 583 L79 583 L79 0 Z M36 631 C67 631 91 652 91 684 C91 717 67 738 36 738 C5 738 -17 717 -17 684 C-17 652 5 631 36 631 L36 631 Z M220 631 C251 631 274 652 274 683 C274 717 251 738 220 738 C189 738 165 717 165 683 C165 652 189 631 220 631 L220 631 Z " />
<glyph glyph-name="Eth" unicode="&#xd0;" horiz-adv-x="638" d="M24 262 L83 262 L83 0 L258 0 C452 1 592 101 592 302 C592 518 440 583 253 583 L83 583 L83 332 L24 332 L24 262 Z M317 262 L317 332 L180 332 L180 505 L246 505 C396 505 489 450 489 291 C489 158 403 78 259 78 L180 78 L180 262 L317 262 Z " />
<glyph glyph-name="Ntilde" unicode="&#xd1;" horiz-adv-x="651" d="M454 733 C445 720 422 701 394 701 C360 701 329 735 288 735 C247 735 215 709 197 686 L222 635 C239 657 257 668 283 668 C317 668 348 633 388 633 C428 633 463 661 479 681 L454 733 Z M79 0 L172 0 L172 426 L174 426 L484 0 L572 0 L572 583 L479 583 L479 168 L477 168 L166 583 L79 583 L79 0 Z " />
<glyph glyph-name="Ograve" unicode="&#xd2;" horiz-adv-x="648" d="M359 633 L274 761 L182 761 L288 633 L359 633 Z M317 -9 C506 -9 603 145 603 310 C603 465 512 592 333 592 C152 592 45 457 45 279 C45 118 141 -9 317 -9 L317 -9 Z M321 70 C203 70 148 174 148 296 C148 424 209 514 326 514 C441 514 500 421 500 294 C500 177 448 70 321 70 L321 70 Z " />
<glyph glyph-name="Oacute" unicode="&#xd3;" horiz-adv-x="648" d="M340 633 L446 761 L354 761 L269 633 L340 633 Z M317 -9 C506 -9 603 145 603 310 C603 465 512 592 333 592 C152 592 45 457 45 279 C45 118 141 -9 317 -9 L317 -9 Z M321 70 C203 70 148 174 148 296 C148 424 209 514 326 514 C441 514 500 421 500 294 C500 177 448 70 321 70 L321 70 Z " />
<glyph glyph-name="Ocircumflex" unicode="&#xd4;" horiz-adv-x="648" d="M317 -9 C506 -9 603 145 603 310 C603 465 512 592 333 592 C152 592 45 457 45 279 C45 118 141 -9 317 -9 L317 -9 Z M321 70 C203 70 148 174 148 296 C148 424 209 514 326 514 C441 514 500 421 500 294 C500 177 448 70 321 70 L321 70 Z M297 768 L177 632 L265 632 L327 709 L331 709 L391 632 L477 632 L369 768 L297 768 Z " />
<glyph glyph-name="Otilde" unicode="&#xd5;" horiz-adv-x="648" d="M448 732 C439 719 416 700 388 700 C354 700 323 734 282 734 C241 734 209 708 191 685 L216 634 C233 656 251 667 277 667 C311 667 342 632 382 632 C422 632 457 660 473 680 L448 732 Z M317 -9 C506 -9 603 145 603 310 C603 465 512 592 333 592 C152 592 45 457 45 279 C45 118 141 -9 317 -9 L317 -9 Z M321 70 C203 70 148 174 148 296 C148 424 209 514 326 514 C441 514 500 421 500 294 C500 177 448 70 321 70 L321 70 Z " />
<glyph glyph-name="Odieresis" unicode="&#xd6;" horiz-adv-x="648" d="M231 630 C262 630 286 651 286 683 C286 716 262 737 231 737 C200 737 178 716 178 683 C178 651 200 630 231 630 L231 630 Z M415 630 C446 630 469 651 469 682 C469 716 446 737 415 737 C384 737 360 716 360 682 C360 651 384 630 415 630 L415 630 Z M317 -9 C506 -9 603 145 603 310 C603 465 512 592 333 592 C152 592 45 457 45 279 C45 118 141 -9 317 -9 L317 -9 Z M321 70 C203 70 148 174 148 296 C148 424 209 514 326 514 C441 514 500 421 500 294 C500 177 448 70 321 70 L321 70 Z " />
<glyph glyph-name="multiply" unicode="&#xd7;" horiz-adv-x="486" d="M96 102 L242 248 L389 102 L437 149 L290 296 L437 443 L389 490 L242 343 L96 490 L49 443 L195 296 L49 149 L96 102 Z " />
<glyph glyph-name="Oslash" unicode="&#xd8;" horiz-adv-x="648" d="M317 -9 C506 -9 603 145 603 310 C603 383 582 450 542 500 L620 592 L544 592 L500 541 C458 573 402 592 333 592 C152 592 45 457 45 279 C45 203 66 134 108 83 L29 -9 L106 -9 L150 42 C193 10 249 -9 317 -9 L317 -9 Z M148 296 C148 424 209 514 326 514 C373 514 411 498 439 470 L175 162 C157 200 148 246 148 296 L148 296 Z M321 70 C274 70 238 86 210 113 L474 421 C491 386 500 342 500 294 C500 177 448 70 321 70 L321 70 Z " />
<glyph glyph-name="Ugrave" unicode="&#xd9;" horiz-adv-x="633" d="M357 633 L272 761 L180 761 L286 633 L357 633 Z M319 -9 C433 -9 561 65 561 238 L561 583 L464 583 L464 237 C464 127 417 74 326 74 C238 74 170 115 170 225 L170 583 L73 583 L73 216 C73 51 196 -9 319 -9 L319 -9 Z " />
<glyph glyph-name="Uacute" unicode="&#xda;" horiz-adv-x="633" d="M346 633 L452 761 L360 761 L275 633 L346 633 Z M319 -9 C433 -9 561 65 561 238 L561 583 L464 583 L464 237 C464 127 417 74 326 74 C238 74 170 115 170 225 L170 583 L73 583 L73 216 C73 51 196 -9 319 -9 L319 -9 Z " />
<glyph glyph-name="Ucircumflex" unicode="&#xdb;" horiz-adv-x="633" d="M319 -9 C433 -9 561 65 561 238 L561 583 L464 583 L464 237 C464 127 417 74 326 74 C238 74 170 115 170 225 L170 583 L73 583 L73 216 C73 51 196 -9 319 -9 L319 -9 Z M295 767 L175 631 L263 631 L325 708 L329 708 L389 631 L475 631 L367 767 L295 767 Z " />
<glyph glyph-name="Udieresis" unicode="&#xdc;" horiz-adv-x="633" d="M234 630 C265 630 289 651 289 683 C289 716 265 737 234 737 C203 737 181 716 181 683 C181 651 203 630 234 630 L234 630 Z M418 630 C449 630 472 651 472 682 C472 716 449 737 418 737 C387 737 363 716 363 682 C363 651 387 630 418 630 L418 630 Z M319 -9 C433 -9 561 65 561 238 L561 583 L464 583 L464 237 C464 127 417 74 326 74 C238 74 170 115 170 225 L170 583 L73 583 L73 216 C73 51 196 -9 319 -9 L319 -9 Z " />
<glyph glyph-name="Yacute" unicode="&#xdd;" horiz-adv-x="542" d="M533 583 L433 583 L337 403 L280 295 L276 295 L217 403 L118 583 L11 583 L221 218 L221 0 L319 0 L319 215 L533 583 Z M298 633 L404 761 L312 761 L227 633 L298 633 Z " />
<glyph glyph-name="Thorn" unicode="&#xde;" horiz-adv-x="507" d="M79 0 L176 0 L176 111 L234 111 C396 111 475 195 475 300 C475 424 392 482 273 482 L176 482 L176 583 L79 583 L79 0 Z M235 405 C324 404 375 370 375 297 C375 207 311 190 222 188 L176 188 L176 405 L235 405 Z " />
<glyph glyph-name="germandbls" unicode="&#xdf;" horiz-adv-x="529" d="M266 661 C157 661 67 598 67 484 L67 0 L156 0 L156 477 C156 552 204 582 255 582 C312 582 350 555 350 510 C350 446 231 403 231 316 C231 249 276 216 322 199 C373 179 422 164 422 121 C422 86 383 66 341 66 C304 66 280 69 224 90 L224 11 C263 -3 293 -7 329 -7 C416 -7 503 31 503 128 C503 209 447 241 398 258 C348 277 315 286 315 328 C315 390 442 424 442 524 C442 614 372 661 266 661 L266 661 Z " />
<glyph glyph-name="agrave" unicode="&#xe0;" horiz-adv-x="460" d="M320 0 L410 0 L393 103 L393 322 C393 426 322 460 232 460 C176 460 99 447 62 431 L62 354 C102 368 168 382 216 382 C266 382 304 367 304 303 L304 254 L247 254 C117 254 36 209 36 117 C36 43 81 -8 165 -8 C227 -8 279 22 311 47 L320 0 Z M190 62 C147 62 126 85 126 127 C126 175 164 194 237 194 L304 194 L304 103 C268 80 227 62 190 62 L190 62 Z M288 528 L194 676 L101 676 L216 528 L288 528 Z " />
<glyph glyph-name="aacute" unicode="&#xe1;" horiz-adv-x="460" d="M320 0 L410 0 L393 103 L393 322 C393 426 322 460 232 460 C176 460 99 447 62 431 L62 354 C102 368 168 382 216 382 C266 382 304 367 304 303 L304 254 L247 254 C117 254 36 209 36 117 C36 43 81 -8 165 -8 C227 -8 279 22 311 47 L320 0 Z M190 62 C147 62 126 85 126 127 C126 175 164 194 237 194 L304 194 L304 103 C268 80 227 62 190 62 L190 62 Z M254 529 L371 677 L279 677 L182 529 L254 529 Z " />
<glyph glyph-name="acircumflex" unicode="&#xe2;" horiz-adv-x="460" d="M320 0 L410 0 L393 103 L393 322 C393 426 322 460 232 460 C176 460 99 447 62 431 L62 354 C102 368 168 382 216 382 C266 382 304 367 304 303 L304 254 L247 254 C117 254 36 209 36 117 C36 43 81 -8 165 -8 C227 -8 279 22 311 47 L320 0 Z M205 679 L93 528 L179 528 L234 620 L237 620 L289 528 L374 528 L275 679 L205 679 Z M190 62 C147 62 126 85 126 127 C126 175 164 194 237 194 L304 194 L304 103 C268 80 227 62 190 62 L190 62 Z " />
<glyph glyph-name="atilde" unicode="&#xe3;" horiz-adv-x="460" d="M320 0 L410 0 L393 103 L393 322 C393 426 322 460 232 460 C176 460 99 447 62 431 L62 354 C102 368 168 382 216 382 C266 382 304 367 304 303 L304 254 L247 254 C117 254 36 209 36 117 C36 43 81 -8 165 -8 C227 -8 279 22 311 47 L320 0 Z M190 62 C147 62 126 85 126 127 C126 175 164 194 237 194 L304 194 L304 103 C268 80 227 62 190 62 L190 62 Z M348 645 C338 632 316 613 287 613 C254 613 223 648 182 648 C141 648 109 622 90 598 L115 552 C133 574 151 585 176 585 C210 585 242 550 282 550 C322 550 356 577 373 598 L348 645 Z " />
<glyph glyph-name="adieresis" unicode="&#xe4;" horiz-adv-x="460" d="M320 0 L410 0 L393 103 L393 322 C393 426 322 460 232 460 C176 460 99 447 62 431 L62 354 C102 368 168 382 216 382 C266 382 304 367 304 303 L304 254 L247 254 C117 254 36 209 36 117 C36 43 81 -8 165 -8 C227 -8 279 22 311 47 L320 0 Z M190 62 C147 62 126 85 126 127 C126 175 164 194 237 194 L304 194 L304 103 C268 80 227 62 190 62 L190 62 Z M312 562 C343 562 366 584 366 615 C366 647 343 669 312 669 C281 669 257 648 257 615 C257 584 281 562 312 562 L312 562 Z M129 562 C160 562 183 584 183 615 C183 647 160 669 129 669 C97 669 75 648 75 615 C75 584 97 562 129 562 L129 562 Z " />
<glyph glyph-name="aring" unicode="&#xe5;" horiz-adv-x="460" d="M320 0 L410 0 L393 103 L393 322 C393 426 322 460 232 460 C176 460 99 447 62 431 L62 354 C102 368 168 382 216 382 C266 382 304 367 304 303 L304 254 L247 254 C117 254 36 209 36 117 C36 43 81 -8 165 -8 C227 -8 279 22 311 47 L320 0 Z M230 695 C184 695 134 665 134 609 C134 553 179 522 230 522 C279 522 327 555 327 609 C327 665 279 695 230 695 L230 695 Z M190 62 C147 62 126 85 126 127 C126 175 164 194 237 194 L304 194 L304 103 C268 80 227 62 190 62 L190 62 Z M230 649 C257 649 270 634 270 609 C270 583 257 568 230 568 C202 568 190 582 190 609 C190 630 202 649 230 649 L230 649 Z " />
<glyph glyph-name="ae" unicode="&#xe6;" horiz-adv-x="741" d="M516 -8 C589 -8 647 4 688 28 L688 99 C645 79 583 67 532 67 C450 67 400 108 393 199 L699 199 L699 243 C699 368 638 460 506 460 C448 460 402 439 368 404 C341 445 291 460 232 460 C176 460 99 447 62 431 L62 354 C102 368 168 382 216 382 C266 382 304 367 304 303 L304 259 L247 259 C117 259 36 213 36 122 C36 47 81 -8 166 -8 C245 -8 306 37 341 70 C376 19 434 -8 516 -8 L516 -8 Z M190 62 C147 62 126 89 126 131 C126 180 164 199 239 199 L303 199 C305 168 309 141 318 117 C282 90 235 62 190 62 L190 62 Z M503 385 C571 385 601 332 603 261 L393 261 C402 356 448 385 503 385 L503 385 Z " />
<glyph glyph-name="ccedilla" unicode="&#xe7;" horiz-adv-x="432" d="M241 -220 C316 -220 354 -179 354 -132 C354 -86 318 -53 272 -44 L286 -6 C326 -3 361 6 388 22 L388 95 C351 78 312 70 278 70 C190 70 135 118 135 226 C135 349 197 382 268 382 C307 382 347 375 388 350 L388 438 C354 455 310 460 264 460 C121 460 41 355 41 218 C41 87 102 3 226 -7 L201 -63 L201 -78 C256 -76 281 -101 281 -127 C281 -147 270 -163 231 -163 C210 -163 173 -152 159 -141 L155 -201 C173 -211 215 -220 241 -220 L241 -220 Z " />
<glyph glyph-name="egrave" unicode="&#xe8;" horiz-adv-x="482" d="M258 -8 C331 -8 388 4 430 28 L430 99 C386 79 324 67 274 67 C190 67 139 110 133 206 L441 206 L441 243 C441 368 380 460 248 460 C119 460 41 357 41 217 C41 74 117 -8 258 -8 L258 -8 Z M245 385 C311 385 341 336 344 268 L135 268 C146 357 191 385 245 385 L245 385 Z M311 529 L217 677 L124 677 L239 529 L311 529 Z " />
<glyph glyph-name="eacute" unicode="&#xe9;" horiz-adv-x="482" d="M258 -8 C331 -8 388 4 430 28 L430 99 C386 79 324 67 274 67 C190 67 139 110 133 206 L441 206 L441 243 C441 368 380 460 248 460 C119 460 41 357 41 217 C41 74 117 -8 258 -8 L258 -8 Z M245 385 C311 385 341 336 344 268 L135 268 C146 357 191 385 245 385 L245 385 Z M268 529 L385 677 L293 677 L196 529 L268 529 Z " />
<glyph glyph-name="ecircumflex" unicode="&#xea;" horiz-adv-x="482" d="M258 -8 C331 -8 388 4 430 28 L430 99 C386 79 324 67 274 67 C190 67 139 110 133 206 L441 206 L441 243 C441 368 380 460 248 460 C119 460 41 357 41 217 C41 74 117 -8 258 -8 L258 -8 Z M227 679 L115 528 L201 528 L256 620 L259 620 L311 528 L396 528 L297 679 L227 679 Z M245 385 C311 385 341 336 344 268 L135 268 C146 357 191 385 245 385 L245 385 Z " />
<glyph glyph-name="edieresis" unicode="&#xeb;" horiz-adv-x="482" d="M258 -8 C331 -8 388 4 430 28 L430 99 C386 79 324 67 274 67 C190 67 139 110 133 206 L441 206 L441 243 C441 368 380 460 248 460 C119 460 41 357 41 217 C41 74 117 -8 258 -8 L258 -8 Z M245 385 C311 385 341 336 344 268 L135 268 C146 357 191 385 245 385 L245 385 Z M346 562 C377 562 400 584 400 615 C400 647 377 669 346 669 C315 669 291 648 291 615 C291 584 315 562 346 562 L346 562 Z M163 562 C194 562 217 584 217 615 C217 647 194 669 163 669 C131 669 109 648 109 615 C109 584 131 562 163 562 L163 562 Z " />
<glyph glyph-name="igrave" unicode="&#xec;" horiz-adv-x="252" d="M25 375 L95 375 L95 0 L185 0 L185 451 L25 451 L25 375 Z M169 529 L75 677 L-18 677 L97 529 L169 529 Z " />
<glyph glyph-name="iacute" unicode="&#xed;" horiz-adv-x="252" d="M25 375 L95 375 L95 0 L185 0 L185 451 L25 451 L25 375 Z M173 529 L290 677 L198 677 L101 529 L173 529 Z " />
<glyph glyph-name="icircumflex" unicode="&#xee;" horiz-adv-x="252" d="M25 375 L95 375 L95 0 L185 0 L185 451 L25 451 L25 375 Z M100 679 L-12 528 L74 528 L129 620 L132 620 L184 528 L269 528 L170 679 L100 679 Z " />
<glyph glyph-name="idieresis" unicode="&#xef;" horiz-adv-x="252" d="M25 375 L95 375 L95 0 L185 0 L185 451 L25 451 L25 375 Z M230 562 C261 562 284 584 284 615 C284 647 261 669 230 669 C199 669 175 648 175 615 C175 584 199 562 230 562 L230 562 Z M47 562 C78 562 101 584 101 615 C101 647 78 669 47 669 C15 669 -7 648 -7 615 C-7 584 15 562 47 562 L47 562 Z " />
<glyph glyph-name="eth" unicode="&#xf0;" horiz-adv-x="510" d="M198 502 L260 558 C301 527 324 495 340 446 C318 456 290 459 255 459 C129 459 40 351 40 222 C40 65 120 -8 248 -8 C381 -8 462 105 462 232 C462 369 446 512 320 612 L373 660 L331 701 L270 646 C246 660 220 673 191 684 L149 625 C172 613 191 602 209 592 L154 542 L198 502 Z M367 224 C367 139 344 67 253 67 C161 67 134 136 134 227 C134 309 158 384 250 384 C290 384 321 381 359 365 C363 328 367 264 367 224 L367 224 Z " />
<glyph glyph-name="ntilde" unicode="&#xf1;" horiz-adv-x="522" d="M70 0 L159 0 L159 335 C197 358 246 381 284 381 C351 381 368 349 368 277 L368 0 L458 0 L458 297 C458 414 411 460 323 460 C256 460 193 426 151 397 L141 451 L51 451 L70 343 L70 0 Z M381 645 C371 632 349 613 320 613 C287 613 256 648 215 648 C174 648 142 622 123 598 L148 552 C166 574 184 585 209 585 C243 585 275 550 315 550 C355 550 389 577 406 598 L381 645 Z " />
<glyph glyph-name="ograve" unicode="&#xf2;" horiz-adv-x="502" d="M248 -8 C378 -8 461 100 461 227 C461 387 391 460 254 460 C128 460 40 351 40 222 C40 63 120 -8 248 -8 L248 -8 Z M253 67 C161 67 134 136 134 227 C134 309 158 384 250 384 C351 384 367 306 367 224 C367 139 344 67 253 67 L253 67 Z M299 529 L205 677 L112 677 L227 529 L299 529 Z " />
<glyph glyph-name="oacute" unicode="&#xf3;" horiz-adv-x="502" d="M277 529 L394 677 L302 677 L205 529 L277 529 Z M248 -8 C378 -8 461 100 461 227 C461 387 391 460 254 460 C128 460 40 351 40 222 C40 63 120 -8 248 -8 L248 -8 Z M253 67 C161 67 134 136 134 227 C134 309 158 384 250 384 C351 384 367 306 367 224 C367 139 344 67 253 67 L253 67 Z " />
<glyph glyph-name="ocircumflex" unicode="&#xf4;" horiz-adv-x="502" d="M224 674 L112 523 L198 523 L253 615 L256 615 L308 523 L393 523 L294 674 L224 674 Z M248 -8 C378 -8 461 100 461 227 C461 387 391 460 254 460 C128 460 40 351 40 222 C40 63 120 -8 248 -8 L248 -8 Z M253 67 C161 67 134 136 134 227 C134 309 158 384 250 384 C351 384 367 306 367 224 C367 139 344 67 253 67 L253 67 Z " />
<glyph glyph-name="otilde" unicode="&#xf5;" horiz-adv-x="502" d="M248 -8 C378 -8 461 100 461 227 C461 387 391 460 254 460 C128 460 40 351 40 222 C40 63 120 -8 248 -8 L248 -8 Z M253 67 C161 67 134 136 134 227 C134 309 158 384 250 384 C351 384 367 306 367 224 C367 139 344 67 253 67 L253 67 Z M367 645 C357 632 335 613 306 613 C273 613 242 648 201 648 C160 648 128 622 109 598 L134 552 C152 574 170 585 195 585 C229 585 261 550 301 550 C341 550 375 577 392 598 L367 645 Z " />
<glyph glyph-name="odieresis" unicode="&#xf6;" horiz-adv-x="502" d="M166 562 C197 562 220 584 220 615 C220 647 197 669 166 669 C134 669 112 648 112 615 C112 584 134 562 166 562 L166 562 Z M349 562 C380 562 403 584 403 615 C403 647 380 669 349 669 C318 669 294 648 294 615 C294 584 318 562 349 562 L349 562 Z M248 -8 C378 -8 461 100 461 227 C461 387 391 460 254 460 C128 460 40 351 40 222 C40 63 120 -8 248 -8 L248 -8 Z M253 67 C161 67 134 136 134 227 C134 309 158 384 250 384 C351 384 367 306 367 224 C367 139 344 67 253 67 L253 67 Z " />
<glyph glyph-name="divide" unicode="&#xf7;" horiz-adv-x="502" d="M52 261 L450 261 L450 329 L52 329 L52 261 Z M249 401 C284 401 311 425 311 460 C311 495 284 518 249 518 C214 518 187 495 187 460 C187 425 214 401 249 401 L249 401 Z M249 76 C284 76 311 100 311 135 C311 170 284 193 249 193 C214 193 187 170 187 135 C187 100 214 76 249 76 L249 76 Z " />
<glyph glyph-name="oslash" unicode="&#xf8;" horiz-adv-x="504" d="M249 -8 C379 -8 462 100 462 227 C462 297 448 351 421 389 L481 460 L414 460 L385 425 C352 448 309 460 255 460 C129 460 41 351 41 222 C41 152 56 100 84 63 L24 -9 L88 -9 L119 28 C153 3 197 -8 249 -8 L249 -8 Z M135 227 C135 309 159 384 251 384 C286 384 312 374 329 358 L147 139 C138 164 135 194 135 227 L135 227 Z M254 67 C219 67 193 77 175 94 L357 312 C365 286 368 255 368 224 C368 139 345 67 254 67 L254 67 Z " />
<glyph glyph-name="ugrave" unicode="&#xf9;" horiz-adv-x="514" d="M443 451 L354 451 L354 115 C316 91 274 69 236 69 C171 69 154 100 154 170 L154 451 L64 451 L64 155 C64 38 111 -8 199 -8 C265 -8 321 25 361 55 L372 0 L462 0 L443 110 L443 451 Z M314 529 L220 677 L127 677 L242 529 L314 529 Z " />
<glyph glyph-name="uacute" unicode="&#xfa;" horiz-adv-x="514" d="M443 451 L354 451 L354 115 C316 91 274 69 236 69 C171 69 154 100 154 170 L154 451 L64 451 L64 155 C64 38 111 -8 199 -8 C265 -8 321 25 361 55 L372 0 L462 0 L443 110 L443 451 Z M280 529 L397 677 L305 677 L208 529 L280 529 Z " />
<glyph glyph-name="ucircumflex" unicode="&#xfb;" horiz-adv-x="514" d="M443 451 L354 451 L354 115 C316 91 274 69 236 69 C171 69 154 100 154 170 L154 451 L64 451 L64 155 C64 38 111 -8 199 -8 C265 -8 321 25 361 55 L372 0 L462 0 L443 110 L443 451 Z M234 679 L122 528 L208 528 L263 620 L266 620 L318 528 L403 528 L304 679 L234 679 Z " />
<glyph glyph-name="udieresis" unicode="&#xfc;" horiz-adv-x="514" d="M443 451 L354 451 L354 115 C316 91 274 69 236 69 C171 69 154 100 154 170 L154 451 L64 451 L64 155 C64 38 111 -8 199 -8 C265 -8 321 25 361 55 L372 0 L462 0 L443 110 L443 451 Z M346 562 C377 562 400 584 400 615 C400 647 377 669 346 669 C315 669 291 648 291 615 C291 584 315 562 346 562 L346 562 Z M163 562 C194 562 217 584 217 615 C217 647 194 669 163 669 C131 669 109 648 109 615 C109 584 131 562 163 562 L163 562 Z " />
<glyph glyph-name="yacute" unicode="&#xfd;" horiz-adv-x="469" d="M207 -207 L287 15 L456 451 L360 451 L274 201 L239 99 L233 99 L202 197 L124 451 L21 451 L181 0 L197 0 L110 -204 L113 -207 L207 -207 Z M274 529 L391 677 L299 677 L202 529 L274 529 Z " />
<glyph glyph-name="thorn" unicode="&#xfe;" horiz-adv-x="500" d="M67 -207 L156 -207 L156 -1 C178 -5 205 -8 232 -8 C359 -8 458 77 458 247 C458 379 398 460 291 460 C241 460 196 442 156 418 L156 653 L67 653 L67 -207 Z M257 385 C331 385 364 335 364 233 C364 144 338 67 234 67 C211 67 180 70 156 75 L156 355 C186 370 222 385 257 385 L257 385 Z " />
<glyph glyph-name="ydieresis" unicode="&#xff;" horiz-adv-x="469" d="M207 -207 L287 15 L456 451 L360 451 L274 201 L239 99 L233 99 L202 197 L124 451 L21 451 L181 0 L197 0 L110 -204 L113 -207 L207 -207 Z M339 563 C370 563 393 585 393 616 C393 648 370 670 339 670 C308 670 284 649 284 616 C284 585 308 563 339 563 L339 563 Z M156 563 C187 563 210 585 210 616 C210 648 187 670 156 670 C124 670 102 649 102 616 C102 585 124 563 156 563 L156 563 Z " />
<glyph glyph-name="Amacron" unicode="&#x100;" horiz-adv-x="542" d="M9 0 L101 0 L162 170 L364 170 L413 0 L518 0 L325 583 L233 583 L9 0 Z M156 653 L410 653 L410 725 L156 725 L156 653 Z M215 318 L272 473 L277 473 L321 318 L341 248 L190 248 L215 318 Z " />
<glyph glyph-name="amacron" unicode="&#x101;" horiz-adv-x="460" d="M320 0 L410 0 L393 103 L393 322 C393 426 322 460 232 460 C176 460 99 447 62 431 L62 354 C102 368 168 382 216 382 C266 382 304 367 304 303 L304 254 L247 254 C117 254 36 209 36 117 C36 43 81 -8 165 -8 C227 -8 279 22 311 47 L320 0 Z M190 62 C147 62 126 85 126 127 C126 175 164 194 237 194 L304 194 L304 103 C268 80 227 62 190 62 L190 62 Z M102 562 L356 562 L356 638 L102 638 L102 562 Z " />
<glyph glyph-name="Abreve" unicode="&#x102;" horiz-adv-x="542" d="M9 0 L101 0 L162 170 L364 170 L413 0 L518 0 L325 583 L233 583 L9 0 Z M283 700 C245 700 218 726 209 754 L154 732 C166 682 203 630 281 630 C357 630 403 672 414 734 L362 756 C355 726 330 700 283 700 L283 700 Z M215 318 L272 473 L277 473 L321 318 L341 248 L190 248 L215 318 Z " />
<glyph glyph-name="abreve" unicode="&#x103;" horiz-adv-x="460" d="M320 0 L410 0 L393 103 L393 322 C393 426 322 460 232 460 C176 460 99 447 62 431 L62 354 C102 368 168 382 216 382 C266 382 304 367 304 303 L304 254 L247 254 C117 254 36 209 36 117 C36 43 81 -8 165 -8 C227 -8 279 22 311 47 L320 0 Z M190 62 C147 62 126 85 126 127 C126 175 164 194 237 194 L304 194 L304 103 C268 80 227 62 190 62 L190 62 Z M223 587 C178 587 159 622 150 650 L95 628 C106 578 143 526 221 526 C297 526 343 568 354 630 L303 652 C296 622 277 587 223 587 L223 587 Z " />
<glyph glyph-name="Aogonek" unicode="&#x104;" horiz-adv-x="542" d="M514 -194 L512 -139 C494 -146 470 -154 449 -154 C423 -154 402 -142 402 -108 C402 -69 426 -29 474 0 L518 0 L325 583 L233 583 L9 0 L101 0 L162 170 L364 170 L410 10 C365 -18 324 -61 324 -122 C324 -185 367 -214 425 -214 C455 -214 492 -207 514 -194 L514 -194 Z M215 318 L272 473 L277 473 L321 318 L341 248 L190 248 L215 318 Z " />
<glyph glyph-name="aogonek" unicode="&#x105;" horiz-adv-x="460" d="M415 -194 L413 -139 C395 -146 371 -154 350 -154 C324 -154 303 -142 303 -108 C303 -69 327 -29 375 0 L410 0 L393 103 L393 322 C393 426 322 460 232 460 C176 460 99 447 62 431 L62 354 C102 368 168 382 216 382 C266 382 304 367 304 303 L304 254 L247 254 C117 254 36 209 36 117 C36 43 81 -8 165 -8 C227 -8 279 22 311 47 L317 14 C270 -14 225 -58 225 -122 C225 -185 268 -214 326 -214 C356 -214 393 -207 415 -194 L415 -194 Z M190 62 C147 62 126 85 126 127 C126 175 164 194 237 194 L304 194 L304 103 C268 80 227 62 190 62 L190 62 Z " />
<glyph glyph-name="Cacute" unicode="&#x106;" horiz-adv-x="560" d="M339 -9 C418 -9 485 11 514 30 L514 113 C461 82 414 71 352 71 C227 71 148 147 148 302 C148 438 225 513 336 513 C400 513 453 503 514 467 L514 559 C481 572 437 592 340 592 C148 592 45 457 45 286 C45 99 150 -9 339 -9 L339 -9 Z M340 633 L446 761 L354 761 L269 633 L340 633 Z " />
<glyph glyph-name="cacute" unicode="&#x107;" horiz-adv-x="431" d="M277 529 L394 677 L302 677 L205 529 L277 529 Z M252 -8 C307 -8 354 2 388 22 L388 95 C351 78 312 70 278 70 C190 70 135 118 135 226 C135 349 197 382 268 382 C307 382 347 375 388 350 L388 438 C354 455 310 460 264 460 C121 460 41 355 41 218 C41 78 111 -8 252 -8 L252 -8 Z " />
<glyph glyph-name="Ccircumflex" unicode="&#x108;" horiz-adv-x="560" d="M339 -9 C418 -9 485 11 514 30 L514 113 C461 82 414 71 352 71 C227 71 148 147 148 302 C148 438 225 513 336 513 C400 513 453 503 514 467 L514 559 C481 572 437 592 340 592 C148 592 45 457 45 286 C45 99 150 -9 339 -9 L339 -9 Z M296 767 L176 631 L264 631 L326 708 L330 708 L390 631 L476 631 L368 767 L296 767 Z " />
<glyph glyph-name="ccircumflex" unicode="&#x109;" horiz-adv-x="431" d="M225 679 L113 528 L199 528 L254 620 L257 620 L309 528 L394 528 L295 679 L225 679 Z M252 -8 C307 -8 354 2 388 22 L388 95 C351 78 312 70 278 70 C190 70 135 118 135 226 C135 349 197 382 268 382 C307 382 347 375 388 350 L388 438 C354 455 310 460 264 460 C121 460 41 355 41 218 C41 78 111 -8 252 -8 L252 -8 Z " />
<glyph glyph-name="Cdotaccent" unicode="&#x10a;" horiz-adv-x="560" d="M326 640 C358 640 384 661 384 693 C384 727 358 748 326 748 C293 748 269 727 269 693 C269 661 293 640 326 640 L326 640 Z M339 -9 C418 -9 485 11 514 30 L514 113 C461 82 414 71 352 71 C227 71 148 147 148 302 C148 438 225 513 336 513 C400 513 453 503 514 467 L514 559 C481 572 437 592 340 592 C148 592 45 457 45 286 C45 99 150 -9 339 -9 L339 -9 Z " />
<glyph glyph-name="cdotaccent" unicode="&#x10b;" horiz-adv-x="431" d="M252 -8 C307 -8 354 2 388 22 L388 95 C351 78 312 70 278 70 C190 70 135 118 135 226 C135 349 197 382 268 382 C307 382 347 375 388 350 L388 438 C354 455 310 460 264 460 C121 460 41 355 41 218 C41 78 111 -8 252 -8 L252 -8 Z M252 560 C287 560 314 584 314 619 C314 654 287 677 252 677 C217 677 190 654 190 619 C190 584 217 560 252 560 L252 560 Z " />
<glyph glyph-name="Ccaron" unicode="&#x10c;" horiz-adv-x="560" d="M339 -9 C418 -9 485 11 514 30 L514 113 C461 82 414 71 352 71 C227 71 148 147 148 302 C148 438 225 513 336 513 C400 513 453 503 514 467 L514 559 C481 572 437 592 340 592 C148 592 45 457 45 286 C45 99 150 -9 339 -9 L339 -9 Z M360 626 L480 761 L392 761 L329 685 L326 685 L266 761 L179 761 L287 626 L360 626 Z " />
<glyph glyph-name="ccaron" unicode="&#x10d;" horiz-adv-x="431" d="M277 529 L389 679 L303 679 L248 587 L245 587 L193 679 L108 679 L207 529 L277 529 Z M252 -8 C307 -8 354 2 388 22 L388 95 C351 78 312 70 278 70 C190 70 135 118 135 226 C135 349 197 382 268 382 C307 382 347 375 388 350 L388 438 C354 455 310 460 264 460 C121 460 41 355 41 218 C41 78 111 -8 252 -8 L252 -8 Z " />
<glyph glyph-name="Dcaron" unicode="&#x10e;" horiz-adv-x="634" d="M79 0 L254 0 C448 1 588 101 588 302 C588 518 436 583 249 583 L79 583 L79 0 Z M242 505 C392 505 485 450 485 291 C485 158 399 78 255 78 L176 78 L176 505 L242 505 Z M307 624 L427 759 L339 759 L276 683 L273 683 L213 759 L126 759 L234 624 L307 624 Z " />
<glyph glyph-name="dcaron" unicode="&#x10f;" horiz-adv-x="518" d="M365 0 L456 0 L439 101 L439 653 L349 653 L349 453 C324 457 289 460 264 460 C144 460 41 365 41 205 C41 50 134 -8 215 -8 C273 -8 319 17 356 48 L365 0 Z M241 67 C171 67 135 118 135 220 C135 340 185 386 269 386 C294 386 324 381 349 374 L349 108 C306 82 278 67 241 67 L241 67 Z M471 477 L530 477 L571 653 L490 653 L471 477 Z " />
<glyph glyph-name="Dcroat" unicode="&#x110;" horiz-adv-x="638" d="M24 262 L83 262 L83 0 L258 0 C452 1 592 101 592 302 C592 518 440 583 253 583 L83 583 L83 332 L24 332 L24 262 Z M317 262 L317 332 L180 332 L180 505 L246 505 C396 505 489 450 489 291 C489 158 403 78 259 78 L180 78 L180 262 L317 262 Z " />
<glyph glyph-name="dcroat" unicode="&#x111;" horiz-adv-x="509" d="M188 527 L349 527 L349 453 C324 457 289 460 264 460 C144 460 41 365 41 205 C41 50 134 -8 215 -8 C273 -8 319 17 356 48 L365 0 L456 0 L439 101 L439 527 L499 527 L499 594 L439 594 L439 653 L349 653 L349 594 L188 594 L188 527 Z M241 67 C171 67 135 118 135 220 C135 340 185 386 269 386 C294 386 324 381 349 374 L349 108 C306 82 278 67 241 67 L241 67 Z " />
<glyph glyph-name="Emacron" unicode="&#x112;" horiz-adv-x="488" d="M79 0 L448 0 L448 78 L176 78 L176 260 L395 260 L395 337 L176 337 L176 505 L441 505 L441 583 L79 583 L79 0 Z M142 654 L396 654 L396 726 L142 726 L142 654 Z " />
<glyph glyph-name="emacron" unicode="&#x113;" horiz-adv-x="482" d="M258 -8 C331 -8 388 4 430 28 L430 99 C386 79 324 67 274 67 C190 67 139 110 133 206 L441 206 L441 243 C441 368 380 460 248 460 C119 460 41 357 41 217 C41 74 117 -8 258 -8 L258 -8 Z M245 385 C311 385 341 336 344 268 L135 268 C146 357 191 385 245 385 L245 385 Z M127 562 L381 562 L381 638 L127 638 L127 562 Z " />
<glyph glyph-name="Ebreve" unicode="&#x114;" horiz-adv-x="488" d="M79 0 L448 0 L448 78 L176 78 L176 260 L395 260 L395 337 L176 337 L176 505 L441 505 L441 583 L79 583 L79 0 Z M273 700 C235 700 208 726 199 754 L144 732 C156 682 193 630 271 630 C347 630 393 672 404 734 L352 756 C345 726 320 700 273 700 L273 700 Z " />
<glyph glyph-name="ebreve" unicode="&#x115;" horiz-adv-x="482" d="M258 -8 C331 -8 388 4 430 28 L430 99 C386 79 324 67 274 67 C190 67 139 110 133 206 L441 206 L441 243 C441 368 380 460 248 460 C119 460 41 357 41 217 C41 74 117 -8 258 -8 L258 -8 Z M245 385 C311 385 341 336 344 268 L135 268 C146 357 191 385 245 385 L245 385 Z M249 587 C204 587 185 622 176 650 L121 628 C132 578 169 526 247 526 C323 526 369 568 380 630 L329 652 C322 622 303 587 249 587 L249 587 Z " />
<glyph glyph-name="Edotaccent" unicode="&#x116;" horiz-adv-x="488" d="M79 0 L448 0 L448 78 L176 78 L176 260 L395 260 L395 337 L176 337 L176 505 L441 505 L441 583 L79 583 L79 0 Z M276 639 C308 639 334 660 334 692 C334 726 308 747 276 747 C243 747 219 726 219 692 C219 660 243 639 276 639 L276 639 Z " />
<glyph glyph-name="edotaccent" unicode="&#x117;" horiz-adv-x="482" d="M258 -8 C331 -8 388 4 430 28 L430 99 C386 79 324 67 274 67 C190 67 139 110 133 206 L441 206 L441 243 C441 368 380 460 248 460 C119 460 41 357 41 217 C41 74 117 -8 258 -8 L258 -8 Z M245 385 C311 385 341 336 344 268 L135 268 C146 357 191 385 245 385 L245 385 Z M242 560 C277 560 304 584 304 619 C304 654 277 677 242 677 C207 677 180 654 180 619 C180 584 207 560 242 560 L242 560 Z " />
<glyph glyph-name="Eogonek" unicode="&#x118;" horiz-adv-x="488" d="M79 0 L334 0 C295 -28 263 -68 263 -122 C263 -185 306 -214 364 -214 C394 -214 431 -207 453 -194 L451 -139 C433 -146 409 -154 388 -154 C362 -154 341 -142 341 -108 C341 -69 365 -29 413 0 L448 0 L448 78 L176 78 L176 260 L395 260 L395 337 L176 337 L176 505 L441 505 L441 583 L79 583 L79 0 Z " />
<glyph glyph-name="eogonek" unicode="&#x119;" horiz-adv-x="482" d="M258 -8 L275 -8 C241 -35 215 -73 215 -122 C215 -185 258 -214 316 -214 C346 -214 383 -207 405 -194 L403 -139 C385 -146 361 -154 340 -154 C314 -154 293 -142 293 -108 C293 -67 321 -24 374 5 C395 11 413 18 430 28 L430 99 C386 79 324 67 274 67 C190 67 139 110 133 206 L441 206 L441 243 C441 368 380 460 248 460 C119 460 41 357 41 217 C41 74 117 -8 258 -8 L258 -8 Z M245 385 C311 385 341 336 344 268 L135 268 C146 357 191 385 245 385 L245 385 Z " />
<glyph glyph-name="Ecaron" unicode="&#x11a;" horiz-adv-x="488" d="M79 0 L448 0 L448 78 L176 78 L176 260 L395 260 L395 337 L176 337 L176 505 L441 505 L441 583 L79 583 L79 0 Z M300 626 L420 761 L332 761 L269 685 L266 685 L206 761 L119 761 L227 626 L300 626 Z " />
<glyph glyph-name="ecaron" unicode="&#x11b;" horiz-adv-x="482" d="M258 -8 C331 -8 388 4 430 28 L430 99 C386 79 324 67 274 67 C190 67 139 110 133 206 L441 206 L441 243 C441 368 380 460 248 460 C119 460 41 357 41 217 C41 74 117 -8 258 -8 L258 -8 Z M275 529 L387 679 L301 679 L246 587 L243 587 L191 679 L106 679 L205 529 L275 529 Z M245 385 C311 385 341 336 344 268 L135 268 C146 357 191 385 245 385 L245 385 Z " />
<glyph glyph-name="Gcircumflex" unicode="&#x11c;" horiz-adv-x="599" d="M339 -9 C418 -9 479 11 540 45 L540 297 L443 297 L443 83 C415 75 385 71 352 71 C225 71 148 149 148 302 C148 438 235 513 346 513 C410 513 478 499 538 463 L538 555 C505 568 447 592 349 592 C157 592 45 457 45 286 C45 99 150 -9 339 -9 L339 -9 Z M316 767 L196 631 L284 631 L346 708 L350 708 L410 631 L496 631 L388 767 L316 767 Z " />
<glyph glyph-name="gcircumflex" unicode="&#x11d;" horiz-adv-x="483" d="M231 166 C326 166 407 240 407 313 C407 342 400 366 389 387 L473 387 L473 455 L339 435 C310 451 273 460 230 460 C124 460 49 383 49 308 C49 243 83 202 137 181 L60 107 L60 46 L117 39 C68 11 24 -29 24 -80 C24 -161 97 -214 219 -214 C361 -214 455 -125 455 -31 C455 41 413 88 290 101 L148 116 L195 168 C206 166 218 166 231 166 L231 166 Z M256 24 C349 13 366 -8 366 -48 C366 -96 314 -145 232 -145 C147 -145 113 -106 113 -66 C113 -31 145 4 192 31 L256 24 Z M231 229 C179 229 140 258 140 315 C140 364 171 395 225 395 C281 395 316 364 316 312 C316 263 280 229 231 229 L231 229 Z M205 679 L93 528 L179 528 L234 620 L237 620 L289 528 L374 528 L275 679 L205 679 Z " />
<glyph glyph-name="Gbreve" unicode="&#x11e;" horiz-adv-x="599" d="M339 -9 C418 -9 479 11 540 45 L540 297 L443 297 L443 83 C415 75 385 71 352 71 C225 71 148 149 148 302 C148 438 235 513 346 513 C410 513 478 499 538 463 L538 555 C505 568 447 592 349 592 C157 592 45 457 45 286 C45 99 150 -9 339 -9 L339 -9 Z M341 699 C303 699 276 725 267 753 L212 731 C224 681 261 629 339 629 C415 629 461 671 472 733 L420 755 C413 725 388 699 341 699 L341 699 Z " />
<glyph glyph-name="gbreve" unicode="&#x11f;" horiz-adv-x="483" d="M231 166 C326 166 407 240 407 313 C407 342 400 366 389 387 L473 387 L473 455 L339 435 C310 451 273 460 230 460 C124 460 49 383 49 308 C49 243 83 202 137 181 L60 107 L60 46 L117 39 C68 11 24 -29 24 -80 C24 -161 97 -214 219 -214 C361 -214 455 -125 455 -31 C455 41 413 88 290 101 L148 116 L195 168 C206 166 218 166 231 166 L231 166 Z M256 24 C349 13 366 -8 366 -48 C366 -96 314 -145 232 -145 C147 -145 113 -106 113 -66 C113 -31 145 4 192 31 L256 24 Z M231 229 C179 229 140 258 140 315 C140 364 171 395 225 395 C281 395 316 364 316 312 C316 263 280 229 231 229 L231 229 Z M233 587 C188 587 169 622 160 650 L105 628 C116 578 153 526 231 526 C307 526 353 568 364 630 L313 652 C306 622 287 587 233 587 L233 587 Z " />
<glyph glyph-name="Gdotaccent" unicode="&#x120;" horiz-adv-x="599" d="M339 -9 C418 -9 479 11 540 45 L540 297 L443 297 L443 83 C415 75 385 71 352 71 C225 71 148 149 148 302 C148 438 235 513 346 513 C410 513 478 499 538 463 L538 555 C505 568 447 592 349 592 C157 592 45 457 45 286 C45 99 150 -9 339 -9 L339 -9 Z M343 640 C375 640 401 661 401 693 C401 727 375 748 343 748 C310 748 286 727 286 693 C286 661 310 640 343 640 L343 640 Z " />
<glyph glyph-name="gdotaccent" unicode="&#x121;" horiz-adv-x="483" d="M231 166 C326 166 407 240 407 313 C407 342 400 366 389 387 L473 387 L473 455 L339 435 C310 451 273 460 230 460 C124 460 49 383 49 308 C49 243 83 202 137 181 L60 107 L60 46 L117 39 C68 11 24 -29 24 -80 C24 -161 97 -214 219 -214 C361 -214 455 -125 455 -31 C455 41 413 88 290 101 L148 116 L195 168 C206 166 218 166 231 166 L231 166 Z M256 24 C349 13 366 -8 366 -48 C366 -96 314 -145 232 -145 C147 -145 113 -106 113 -66 C113 -31 145 4 192 31 L256 24 Z M231 229 C179 229 140 258 140 315 C140 364 171 395 225 395 C281 395 316 364 316 312 C316 263 280 229 231 229 L231 229 Z M227 560 C262 560 289 584 289 619 C289 654 262 677 227 677 C192 677 165 654 165 619 C165 584 192 560 227 560 L227 560 Z " />
<glyph glyph-name="Gcommaaccent" unicode="&#x122;" horiz-adv-x="599" d="M339 -9 C418 -9 479 11 540 45 L540 297 L443 297 L443 83 C415 75 385 71 352 71 C225 71 148 149 148 302 C148 438 235 513 346 513 C410 513 478 499 538 463 L538 555 C505 568 447 592 349 592 C157 592 45 457 45 286 C45 99 150 -9 339 -9 L339 -9 Z M280 -248 L345 -248 L392 -62 L309 -62 L280 -248 Z " />
<glyph glyph-name="gcommaaccent" unicode="&#x123;" horiz-adv-x="483" d="M231 166 C326 166 407 240 407 313 C407 342 400 366 389 387 L473 387 L473 455 L339 435 C310 451 273 460 230 460 C124 460 49 383 49 308 C49 243 83 202 137 181 L60 107 L60 46 L117 39 C68 11 24 -29 24 -80 C24 -161 97 -214 219 -214 C361 -214 455 -125 455 -31 C455 41 413 88 290 101 L148 116 L195 168 C206 166 218 166 231 166 L231 166 Z M256 24 C349 13 366 -8 366 -48 C366 -96 314 -145 232 -145 C147 -145 113 -106 113 -66 C113 -31 145 4 192 31 L256 24 Z M231 229 C179 229 140 258 140 315 C140 364 171 395 225 395 C281 395 316 364 316 312 C316 263 280 229 231 229 L231 229 Z M297 702 L232 702 L185 513 L268 513 L297 702 Z " />
<glyph glyph-name="Hcircumflex" unicode="&#x124;" horiz-adv-x="663" d="M487 0 L584 0 L584 583 L487 583 L487 338 L176 338 L176 583 L79 583 L79 0 L176 0 L176 260 L487 260 L487 0 Z M295 767 L175 631 L263 631 L325 708 L329 708 L389 631 L475 631 L367 767 L295 767 Z " />
<glyph glyph-name="hcircumflex" unicode="&#x125;" horiz-adv-x="519" d="M365 0 L455 0 L455 297 C455 414 408 460 320 460 C257 460 197 430 156 402 L156 653 L67 653 L67 0 L156 0 L156 335 C194 358 243 381 281 381 C348 381 365 349 365 277 L365 0 Z M80 809 L-40 673 L48 673 L110 750 L114 750 L174 673 L260 673 L152 809 L80 809 Z " />
<glyph glyph-name="Hbar" unicode="&#x126;" horiz-adv-x="667" d="M33 447 L80 447 L80 0 L177 0 L177 260 L488 260 L488 0 L585 0 L585 447 L633 447 L633 514 L585 514 L585 583 L488 583 L488 514 L177 514 L177 583 L80 583 L80 514 L33 514 L33 447 Z M177 447 L488 447 L488 338 L177 338 L177 447 Z " />
<glyph glyph-name="hbar" unicode="&#x127;" horiz-adv-x="519" d="M-15 525 L67 525 L67 0 L156 0 L156 335 C194 358 243 381 281 381 C348 381 365 349 365 277 L365 0 L455 0 L455 297 C455 414 408 460 320 460 C257 460 197 430 156 402 L156 525 L296 525 L296 591 L156 591 L156 653 L67 653 L67 591 L-15 591 L-15 525 Z " />
<glyph glyph-name="Itilde" unicode="&#x128;" horiz-adv-x="255" d="M79 0 L176 0 L176 583 L79 583 L79 0 Z M248 733 C239 720 216 701 188 701 C154 701 123 735 82 735 C41 735 9 709 -9 686 L16 635 C33 657 51 668 77 668 C111 668 142 633 182 633 C222 633 257 661 273 681 L248 733 Z " />
<glyph glyph-name="itilde" unicode="&#x129;" horiz-adv-x="252" d="M25 375 L95 375 L95 0 L185 0 L185 451 L25 451 L25 375 Z M253 645 C243 632 221 613 192 613 C159 613 128 648 87 648 C46 648 14 622 -5 598 L20 552 C38 574 56 585 81 585 C115 585 147 550 187 550 C227 550 261 577 278 598 L253 645 Z " />
<glyph glyph-name="Imacron" unicode="&#x12a;" horiz-adv-x="255" d="M79 0 L176 0 L176 583 L79 583 L79 0 Z M1 654 L255 654 L255 726 L1 726 L1 654 Z " />
<glyph glyph-name="imacron" unicode="&#x12b;" horiz-adv-x="252" d="M25 375 L95 375 L95 0 L185 0 L185 451 L25 451 L25 375 Z M10 562 L264 562 L264 638 L10 638 L10 562 Z " />
<glyph glyph-name="Ibreve" unicode="&#x12c;" horiz-adv-x="255" d="M79 0 L176 0 L176 583 L79 583 L79 0 Z M128 700 C90 700 63 726 54 754 L-1 732 C11 682 48 630 126 630 C202 630 248 672 259 734 L207 756 C200 726 175 700 128 700 L128 700 Z " />
<glyph glyph-name="ibreve" unicode="&#x12d;" horiz-adv-x="252" d="M25 375 L95 375 L95 0 L185 0 L185 451 L25 451 L25 375 Z M136 587 C91 587 72 622 63 650 L8 628 C19 578 56 526 134 526 C210 526 256 568 267 630 L216 652 C209 622 190 587 136 587 L136 587 Z " />
<glyph glyph-name="Iogonek" unicode="&#x12e;" horiz-adv-x="255" d="M181 -194 L179 -139 C161 -146 137 -154 116 -154 C90 -154 69 -142 69 -108 C69 -69 93 -29 141 0 L176 0 L176 583 L79 583 L79 11 C33 -17 -9 -60 -9 -122 C-9 -185 34 -214 92 -214 C122 -214 159 -207 181 -194 L181 -194 Z " />
<glyph glyph-name="iogonek" unicode="&#x12f;" horiz-adv-x="253" d="M26 375 L96 375 L96 14 C48 -14 4 -59 4 -122 C4 -185 47 -214 105 -214 C135 -214 172 -207 194 -194 L192 -139 C174 -146 150 -154 129 -154 C103 -154 82 -142 82 -108 C82 -69 106 -29 154 0 L186 0 L186 451 L26 451 L26 375 Z M144 560 C179 560 206 584 206 619 C206 654 179 677 144 677 C109 677 82 654 82 619 C82 584 109 560 144 560 L144 560 Z " />
<glyph glyph-name="Idotaccent" unicode="&#x130;" horiz-adv-x="255" d="M127 640 C159 640 185 661 185 693 C185 727 159 748 127 748 C94 748 70 727 70 693 C70 661 94 640 127 640 L127 640 Z M79 0 L176 0 L176 583 L79 583 L79 0 Z " />
<glyph glyph-name="dotlessi" unicode="&#x131;" horiz-adv-x="252" d="M25 375 L95 375 L95 0 L185 0 L185 451 L25 451 L25 375 Z " />
<glyph glyph-name="IJ" unicode="&#x132;" horiz-adv-x="528" d="M79 0 L176 0 L176 583 L79 583 L79 0 Z M321 -87 C407 4 454 89 454 179 L454 583 L356 583 L356 175 C356 97 304 34 247 -43 L321 -87 Z " />
<glyph glyph-name="ij" unicode="&#x133;" horiz-adv-x="503" d="M276 375 L346 375 L346 18 C346 -57 306 -132 276 -181 L339 -214 C402 -154 436 -52 436 32 L436 451 L276 451 L276 375 Z M25 375 L95 375 L95 0 L185 0 L185 451 L25 451 L25 375 Z M393 560 C428 560 455 584 455 619 C455 654 428 677 393 677 C358 677 331 654 331 619 C331 584 358 560 393 560 L393 560 Z M142 560 C177 560 204 584 204 619 C204 654 177 677 142 677 C107 677 80 654 80 619 C80 584 107 560 142 560 L142 560 Z " />
<glyph glyph-name="Jcircumflex" unicode="&#x134;" horiz-adv-x="273" d="M67 -87 C153 4 200 89 200 179 L200 583 L102 583 L102 175 C102 97 50 34 -7 -43 L67 -87 Z M123 767 L3 631 L91 631 L153 708 L157 708 L217 631 L303 631 L195 767 L123 767 Z " />
<glyph glyph-name="jcircumflex" unicode="&#x135;" horiz-adv-x="252" d="M25 375 L95 375 L95 18 C95 -57 55 -132 25 -181 L88 -214 C151 -154 185 -52 185 32 L185 451 L25 451 L25 375 Z M93 679 L-19 528 L67 528 L122 620 L125 620 L177 528 L262 528 L163 679 L93 679 Z " />
<glyph glyph-name="Kcommaaccent" unicode="&#x136;" horiz-adv-x="546" d="M211 -248 L276 -248 L323 -62 L240 -62 L211 -248 Z M412 0 L528 0 L283 309 L535 583 L428 583 L189 309 L189 292 L412 0 Z M79 0 L176 0 L176 583 L79 583 L79 0 Z " />
<glyph glyph-name="kcommaaccent" unicode="&#x137;" horiz-adv-x="466" d="M166 -248 L231 -248 L278 -62 L195 -62 L166 -248 Z M335 0 L444 0 L275 256 L451 451 L346 451 L181 259 L181 238 L335 0 Z M67 0 L156 0 L156 653 L67 653 L67 0 Z " />
<glyph glyph-name="Lacute" unicode="&#x139;" horiz-adv-x="453" d="M79 0 L435 0 L435 78 L176 78 L176 583 L79 583 L79 0 Z M159 633 L265 761 L173 761 L88 633 L159 633 Z " />
<glyph glyph-name="lacute" unicode="&#x13a;" horiz-adv-x="232" d="M144 683 L250 811 L158 811 L73 683 L144 683 Z M71 0 L161 0 L161 653 L71 653 L71 0 Z " />
<glyph glyph-name="Lcommaaccent" unicode="&#x13b;" horiz-adv-x="453" d="M79 0 L435 0 L435 78 L176 78 L176 583 L79 583 L79 0 Z M205 -248 L270 -248 L317 -62 L234 -62 L205 -248 Z " />
<glyph glyph-name="lcommaaccent" unicode="&#x13c;" horiz-adv-x="232" d="M39 -248 L104 -248 L151 -62 L68 -62 L39 -248 Z M71 0 L161 0 L161 653 L71 653 L71 0 Z " />
<glyph glyph-name="Lcaron" unicode="&#x13d;" horiz-adv-x="453" d="M79 0 L435 0 L435 78 L176 78 L176 583 L79 583 L79 0 Z M266 461 L325 461 L366 637 L285 637 L266 461 Z " />
<glyph glyph-name="lcaron" unicode="&#x13e;" horiz-adv-x="242" d="M199 477 L258 477 L299 653 L218 653 L199 477 Z M71 0 L161 0 L161 653 L71 653 L71 0 Z " />
<glyph glyph-name="Ldot" unicode="&#x13f;" horiz-adv-x="475" d="M79 0 L435 0 L435 78 L176 78 L176 583 L79 583 L79 0 Z M364 271 C399 271 426 295 426 330 C426 365 399 388 364 388 C329 388 302 365 302 330 C302 295 329 271 364 271 L364 271 Z " />
<glyph glyph-name="ldot" unicode="&#x140;" horiz-adv-x="299" d="M267 278 C299 278 325 299 325 331 C325 365 299 386 267 386 C234 386 210 365 210 331 C210 299 234 278 267 278 L267 278 Z M71 0 L161 0 L161 653 L71 653 L71 0 Z " />
<glyph glyph-name="Lslash" unicode="&#x141;" horiz-adv-x="463" d="M23 194 L89 231 L89 0 L445 0 L445 78 L186 78 L186 285 L317 358 L317 432 L186 357 L186 583 L89 583 L89 302 L23 265 L23 194 Z " />
<glyph glyph-name="lslash" unicode="&#x142;" horiz-adv-x="271" d="M15 238 L91 285 L91 0 L181 0 L181 341 L265 393 L265 469 L181 416 L181 653 L91 653 L91 359 L15 311 L15 238 Z " />
<glyph glyph-name="Nacute" unicode="&#x143;" horiz-adv-x="651" d="M347 633 L453 761 L361 761 L276 633 L347 633 Z M79 0 L172 0 L172 426 L174 426 L484 0 L572 0 L572 583 L479 583 L479 168 L477 168 L166 583 L79 583 L79 0 Z " />
<glyph glyph-name="nacute" unicode="&#x144;" horiz-adv-x="522" d="M70 0 L159 0 L159 335 C197 358 246 381 284 381 C351 381 368 349 368 277 L368 0 L458 0 L458 297 C458 414 411 460 323 460 C256 460 193 426 151 397 L141 451 L51 451 L70 343 L70 0 Z M294 529 L411 677 L319 677 L222 529 L294 529 Z " />
<glyph glyph-name="Ncommaaccent" unicode="&#x145;" horiz-adv-x="651" d="M264 -248 L329 -248 L376 -62 L293 -62 L264 -248 Z M79 0 L172 0 L172 426 L174 426 L484 0 L572 0 L572 583 L479 583 L479 168 L477 168 L166 583 L79 583 L79 0 Z " />
<glyph glyph-name="ncommaaccent" unicode="&#x146;" horiz-adv-x="522" d="M70 0 L159 0 L159 335 C197 358 246 381 284 381 C351 381 368 349 368 277 L368 0 L458 0 L458 297 C458 414 411 460 323 460 C256 460 193 426 151 397 L141 451 L51 451 L70 343 L70 0 Z M191 -248 L256 -248 L303 -62 L220 -62 L191 -248 Z " />
<glyph glyph-name="Ncaron" unicode="&#x147;" horiz-adv-x="651" d="M359 626 L479 761 L391 761 L328 685 L325 685 L265 761 L178 761 L286 626 L359 626 Z M79 0 L172 0 L172 426 L174 426 L484 0 L572 0 L572 583 L479 583 L479 168 L477 168 L166 583 L79 583 L79 0 Z " />
<glyph glyph-name="ncaron" unicode="&#x148;" horiz-adv-x="522" d="M70 0 L159 0 L159 335 C197 358 246 381 284 381 C351 381 368 349 368 277 L368 0 L458 0 L458 297 C458 414 411 460 323 460 C256 460 193 426 151 397 L141 451 L51 451 L70 343 L70 0 Z M294 529 L406 679 L320 679 L265 587 L262 587 L210 679 L125 679 L224 529 L294 529 Z " />
<glyph glyph-name="napostrophe" unicode="&#x149;" horiz-adv-x="522" d="M70 0 L159 0 L159 335 C197 358 246 381 284 381 C351 381 368 349 368 277 L368 0 L458 0 L458 297 C458 414 411 460 323 460 C256 460 193 426 151 397 L141 451 L51 451 L70 343 L70 0 Z M61 486 C126 533 165 609 165 672 C165 705 140 730 106 730 C75 730 51 702 50 675 C71 662 78 645 78 623 C78 588 55 544 26 509 L61 486 Z " />
<glyph glyph-name="Eng" unicode="&#x14a;" horiz-adv-x="651" d="M79 0 L172 0 L172 426 L174 426 L479 7 L479 -5 C479 -50 467 -106 398 -184 L467 -228 C553 -137 572 -77 572 -3 L572 583 L479 583 L479 168 L477 168 L166 583 L79 583 L79 0 Z " />
<glyph glyph-name="eng" unicode="&#x14b;" horiz-adv-x="521" d="M458 297 C458 414 411 460 323 460 C256 460 193 426 151 397 L141 451 L51 451 L70 343 L70 0 L159 0 L159 335 C197 358 246 381 284 381 C351 381 368 349 368 277 L368 18 C368 -57 327 -132 297 -181 L361 -214 C424 -154 458 -52 458 32 L458 297 Z " />
<glyph glyph-name="Omacron" unicode="&#x14c;" horiz-adv-x="648" d="M196 654 L450 654 L450 726 L196 726 L196 654 Z M317 -9 C506 -9 603 145 603 310 C603 465 512 592 333 592 C152 592 45 457 45 279 C45 118 141 -9 317 -9 L317 -9 Z M321 70 C203 70 148 174 148 296 C148 424 209 514 326 514 C441 514 500 421 500 294 C500 177 448 70 321 70 L321 70 Z " />
<glyph glyph-name="omacron" unicode="&#x14d;" horiz-adv-x="502" d="M123 562 L377 562 L377 638 L123 638 L123 562 Z M248 -8 C378 -8 461 100 461 227 C461 387 391 460 254 460 C128 460 40 351 40 222 C40 63 120 -8 248 -8 L248 -8 Z M253 67 C161 67 134 136 134 227 C134 309 158 384 250 384 C351 384 367 306 367 224 C367 139 344 67 253 67 L253 67 Z " />
<glyph glyph-name="Obreve" unicode="&#x14e;" horiz-adv-x="648" d="M324 699 C286 699 259 725 250 753 L195 731 C207 681 244 629 322 629 C398 629 444 671 455 733 L403 755 C396 725 371 699 324 699 L324 699 Z M317 -9 C506 -9 603 145 603 310 C603 465 512 592 333 592 C152 592 45 457 45 279 C45 118 141 -9 317 -9 L317 -9 Z M321 70 C203 70 148 174 148 296 C148 424 209 514 326 514 C441 514 500 421 500 294 C500 177 448 70 321 70 L321 70 Z " />
<glyph glyph-name="obreve" unicode="&#x14f;" horiz-adv-x="502" d="M248 -8 C378 -8 461 100 461 227 C461 387 391 460 254 460 C128 460 40 351 40 222 C40 63 120 -8 248 -8 L248 -8 Z M253 67 C161 67 134 136 134 227 C134 309 158 384 250 384 C351 384 367 306 367 224 C367 139 344 67 253 67 L253 67 Z M250 587 C205 587 186 622 177 650 L122 628 C133 578 170 526 248 526 C324 526 370 568 381 630 L330 652 C323 622 304 587 250 587 L250 587 Z " />
<glyph glyph-name="Ohungarumlaut" unicode="&#x150;" horiz-adv-x="648" d="M317 -9 C506 -9 603 145 603 310 C603 465 512 592 333 592 C152 592 45 457 45 279 C45 118 141 -9 317 -9 L317 -9 Z M321 70 C203 70 148 174 148 296 C148 424 209 514 326 514 C441 514 500 421 500 294 C500 177 448 70 321 70 L321 70 Z M286 633 L378 762 L288 762 L215 633 L286 633 Z M431 633 L544 762 L453 762 L360 633 L431 633 Z " />
<glyph glyph-name="ohungarumlaut" unicode="&#x151;" horiz-adv-x="502" d="M190 529 L306 677 L215 677 L119 529 L190 529 Z M353 529 L472 677 L382 677 L282 529 L353 529 Z M248 -8 C378 -8 461 100 461 227 C461 387 391 460 254 460 C128 460 40 351 40 222 C40 63 120 -8 248 -8 L248 -8 Z M253 67 C161 67 134 136 134 227 C134 309 158 384 250 384 C351 384 367 306 367 224 C367 139 344 67 253 67 L253 67 Z " />
<glyph glyph-name="OE" unicode="&#x152;" horiz-adv-x="856" d="M438 0 L815 0 L815 78 L535 78 L535 260 L762 260 L762 337 L535 337 L535 505 L808 505 L808 583 L438 583 L438 571 C407 584 372 592 333 592 C152 592 45 457 45 279 C45 118 141 -9 317 -9 C362 -9 403 2 438 21 L438 0 Z M321 70 C203 70 148 174 148 296 C148 424 209 514 326 514 C372 514 410 497 438 467 L438 121 C410 89 371 70 321 70 L321 70 Z " />
<glyph glyph-name="oe" unicode="&#x153;" horiz-adv-x="810" d="M248 -8 C316 -8 372 22 409 69 C445 19 504 -8 585 -8 C658 -8 715 4 757 28 L757 99 C713 79 651 67 601 67 C517 67 466 110 460 206 L768 206 L768 243 C768 368 707 460 575 460 C509 460 456 433 421 388 C387 437 331 460 254 460 C128 460 40 351 40 222 C40 63 120 -8 248 -8 L248 -8 Z M253 67 C161 67 134 136 134 227 C134 309 158 384 250 384 C351 384 367 306 367 224 C367 139 344 67 253 67 L253 67 Z M572 385 C638 385 668 336 671 268 L462 268 C473 357 518 385 572 385 L572 385 Z " />
<glyph glyph-name="Racute" unicode="&#x154;" horiz-adv-x="536" d="M79 0 L176 0 L176 212 L234 212 C250 212 266 213 281 214 L407 0 L523 0 L371 238 C441 271 475 331 475 401 C475 525 392 583 273 583 L79 583 L79 0 Z M235 506 C324 505 375 471 375 398 C375 308 312 289 222 289 L176 289 L176 506 L235 506 Z M266 633 L372 761 L280 761 L195 633 L266 633 Z " />
<glyph glyph-name="racute" unicode="&#x155;" horiz-adv-x="345" d="M70 0 L159 0 L159 323 C192 349 234 376 288 376 C301 376 314 375 328 371 L328 455 C312 459 298 460 282 460 C238 460 189 430 152 395 L141 451 L51 451 L70 343 L70 0 Z M224 529 L341 677 L249 677 L152 529 L224 529 Z " />
<glyph glyph-name="Rcommaaccent" unicode="&#x156;" horiz-adv-x="536" d="M79 0 L176 0 L176 212 L234 212 C250 212 266 213 281 214 L407 0 L523 0 L371 238 C441 271 475 331 475 401 C475 525 392 583 273 583 L79 583 L79 0 Z M235 506 C324 505 375 471 375 398 C375 308 312 289 222 289 L176 289 L176 506 L235 506 Z M212 -248 L277 -248 L324 -62 L241 -62 L212 -248 Z " />
<glyph glyph-name="rcommaaccent" unicode="&#x157;" horiz-adv-x="345" d="M70 0 L159 0 L159 323 C192 349 234 376 288 376 C301 376 314 375 328 371 L328 455 C312 459 298 460 282 460 C238 460 189 430 152 395 L141 451 L51 451 L70 343 L70 0 Z M43 -248 L108 -248 L155 -62 L72 -62 L43 -248 Z " />
<glyph glyph-name="Rcaron" unicode="&#x158;" horiz-adv-x="536" d="M79 0 L176 0 L176 212 L234 212 C250 212 266 213 281 214 L407 0 L523 0 L371 238 C441 271 475 331 475 401 C475 525 392 583 273 583 L79 583 L79 0 Z M235 506 C324 505 375 471 375 398 C375 308 312 289 222 289 L176 289 L176 506 L235 506 Z M284 626 L404 761 L316 761 L253 685 L250 685 L190 761 L103 761 L211 626 L284 626 Z " />
<glyph glyph-name="rcaron" unicode="&#x159;" horiz-adv-x="345" d="M70 0 L159 0 L159 323 C192 349 234 376 288 376 C301 376 314 375 328 371 L328 455 C312 459 298 460 282 460 C238 460 189 430 152 395 L141 451 L51 451 L70 343 L70 0 Z M219 529 L331 679 L245 679 L190 587 L187 587 L135 679 L50 679 L149 529 L219 529 Z " />
<glyph glyph-name="Sacute" unicode="&#x15a;" horiz-adv-x="477" d="M53 26 C107 3 164 -9 222 -9 C337 -9 435 49 435 163 C435 277 335 312 250 345 C180 371 142 391 142 441 C142 486 193 512 246 512 C306 512 368 493 413 464 L413 557 C374 577 315 592 243 592 C138 592 48 529 48 423 C48 326 123 287 199 259 C275 231 341 213 341 153 C341 103 293 72 230 72 C168 72 97 93 53 118 L53 26 Z M251 633 L357 761 L265 761 L180 633 L251 633 Z " />
<glyph glyph-name="sacute" unicode="&#x15b;" horiz-adv-x="418" d="M230 529 L347 677 L255 677 L158 529 L230 529 Z M199 -8 C291 -8 380 34 380 134 C380 232 298 253 227 269 C174 280 129 292 129 333 C129 364 166 385 211 385 C258 385 296 379 363 351 L363 432 C323 452 264 460 218 460 C125 460 43 411 43 323 C43 236 118 212 187 194 C245 180 298 168 298 127 C298 88 257 66 210 66 C158 66 112 77 47 101 L47 21 C89 5 138 -8 199 -8 L199 -8 Z " />
<glyph glyph-name="Scircumflex" unicode="&#x15c;" horiz-adv-x="477" d="M53 26 C107 3 164 -9 222 -9 C337 -9 435 49 435 163 C435 277 335 312 250 345 C180 371 142 391 142 441 C142 486 193 512 246 512 C306 512 368 493 413 464 L413 557 C374 577 315 592 243 592 C138 592 48 529 48 423 C48 326 123 287 199 259 C275 231 341 213 341 153 C341 103 293 72 230 72 C168 72 97 93 53 118 L53 26 Z M213 767 L93 631 L181 631 L243 708 L247 708 L307 631 L393 631 L285 767 L213 767 Z " />
<glyph glyph-name="scircumflex" unicode="&#x15d;" horiz-adv-x="418" d="M187 679 L75 528 L161 528 L216 620 L219 620 L271 528 L356 528 L257 679 L187 679 Z M199 -8 C291 -8 380 34 380 134 C380 232 298 253 227 269 C174 280 129 292 129 333 C129 364 166 385 211 385 C258 385 296 379 363 351 L363 432 C323 452 264 460 218 460 C125 460 43 411 43 323 C43 236 118 212 187 194 C245 180 298 168 298 127 C298 88 257 66 210 66 C158 66 112 77 47 101 L47 21 C89 5 138 -8 199 -8 L199 -8 Z " />
<glyph glyph-name="Scedilla" unicode="&#x15e;" horiz-adv-x="477" d="M218 -219 C293 -219 331 -178 331 -131 C331 -85 295 -52 249 -43 L263 -6 C359 6 435 63 435 163 C435 277 335 312 250 345 C180 371 142 391 142 441 C142 486 193 512 246 512 C306 512 368 493 413 464 L413 557 C374 577 315 592 243 592 C138 592 48 529 48 423 C48 326 123 287 199 259 C275 231 341 213 341 153 C341 103 293 72 230 72 C168 72 97 93 53 118 L53 26 C100 5 150 -6 201 -8 L178 -62 L178 -77 C233 -75 258 -100 258 -126 C258 -146 247 -162 208 -162 C187 -162 150 -151 136 -140 L132 -200 C150 -210 192 -219 218 -219 L218 -219 Z " />
<glyph glyph-name="scedilla" unicode="&#x15f;" horiz-adv-x="419" d="M187 -219 C262 -219 300 -178 300 -131 C300 -85 264 -52 218 -43 L232 -6 C311 3 380 46 380 134 C380 232 298 253 227 269 C174 280 129 292 129 333 C129 364 166 385 211 385 C258 385 296 379 363 351 L363 432 C323 452 264 460 218 460 C125 460 43 411 43 323 C43 236 118 212 187 194 C245 180 298 168 298 127 C298 88 257 66 210 66 C158 66 112 77 47 101 L47 21 C82 7 122 -4 171 -7 L147 -62 L147 -77 C202 -75 227 -100 227 -126 C227 -146 216 -162 177 -162 C156 -162 119 -151 105 -140 L101 -200 C119 -210 161 -219 187 -219 L187 -219 Z " />
<glyph glyph-name="Scaron" unicode="&#x160;" horiz-adv-x="477" d="M53 26 C107 3 164 -9 222 -9 C337 -9 435 49 435 163 C435 277 335 312 250 345 C180 371 142 391 142 441 C142 486 193 512 246 512 C306 512 368 493 413 464 L413 557 C374 577 315 592 243 592 C138 592 48 529 48 423 C48 326 123 287 199 259 C275 231 341 213 341 153 C341 103 293 72 230 72 C168 72 97 93 53 118 L53 26 Z M273 626 L393 761 L305 761 L242 685 L239 685 L179 761 L92 761 L200 626 L273 626 Z " />
<glyph glyph-name="scaron" unicode="&#x161;" horiz-adv-x="418" d="M247 529 L359 679 L273 679 L218 587 L215 587 L163 679 L78 679 L177 529 L247 529 Z M199 -8 C291 -8 380 34 380 134 C380 232 298 253 227 269 C174 280 129 292 129 333 C129 364 166 385 211 385 C258 385 296 379 363 351 L363 432 C323 452 264 460 218 460 C125 460 43 411 43 323 C43 236 118 212 187 194 C245 180 298 168 298 127 C298 88 257 66 210 66 C158 66 112 77 47 101 L47 21 C89 5 138 -8 199 -8 L199 -8 Z " />
<glyph glyph-name="Tcommaaccent" unicode="&#x162;" horiz-adv-x="547" d="M18 505 L223 505 L223 0 L320 0 L320 505 L528 505 L528 583 L18 583 L18 505 Z M200 -248 L265 -248 L312 -62 L229 -62 L200 -248 Z " />
<glyph glyph-name="tcommaaccent" unicode="&#x163;" horiz-adv-x="371" d="M24 375 L101 375 L101 130 C100 34 161 -8 237 -8 C282 -8 323 -1 349 13 L349 83 C327 76 298 69 272 69 C224 69 191 82 190 143 L190 375 L340 375 L340 451 L190 451 L190 570 L101 570 L101 451 L24 451 L24 375 Z M154 -248 L219 -248 L266 -62 L183 -62 L154 -248 Z " />
<glyph glyph-name="Tcaron" unicode="&#x164;" horiz-adv-x="547" d="M18 505 L223 505 L223 0 L320 0 L320 505 L528 505 L528 583 L18 583 L18 505 Z M300 626 L420 761 L332 761 L269 685 L266 685 L206 761 L119 761 L227 626 L300 626 Z " />
<glyph glyph-name="tcaron" unicode="&#x165;" horiz-adv-x="371" d="M24 375 L101 375 L101 130 C100 34 161 -8 237 -8 C282 -8 323 -1 349 13 L349 83 C327 76 298 69 272 69 C224 69 191 82 190 143 L190 375 L340 375 L340 451 L190 451 L190 570 L101 570 L101 451 L24 451 L24 375 Z M236 530 L295 530 L336 706 L255 706 L236 530 Z " />
<glyph glyph-name="Tbar" unicode="&#x166;" horiz-adv-x="547" d="M18 505 L223 505 L223 316 L101 316 L101 249 L223 249 L223 0 L320 0 L320 249 L445 249 L445 316 L320 316 L320 505 L528 505 L528 583 L18 583 L18 505 Z " />
<glyph glyph-name="tbar" unicode="&#x167;" horiz-adv-x="374" d="M103 570 L103 451 L26 451 L26 375 L103 375 L103 287 L44 287 L44 223 L103 223 L103 130 C102 34 163 -8 239 -8 C284 -8 325 -1 351 13 L351 83 C329 76 300 69 274 69 C226 69 193 82 192 143 L192 223 L313 223 L313 287 L192 287 L192 375 L342 375 L342 451 L192 451 L192 570 L103 570 Z " />
<glyph glyph-name="Utilde" unicode="&#x168;" horiz-adv-x="633" d="M441 733 C432 720 409 701 381 701 C347 701 316 735 275 735 C234 735 202 709 184 686 L209 635 C226 657 244 668 270 668 C304 668 335 633 375 633 C415 633 450 661 466 681 L441 733 Z M319 -9 C433 -9 561 65 561 238 L561 583 L464 583 L464 237 C464 127 417 74 326 74 C238 74 170 115 170 225 L170 583 L73 583 L73 216 C73 51 196 -9 319 -9 L319 -9 Z " />
<glyph glyph-name="utilde" unicode="&#x169;" horiz-adv-x="514" d="M443 451 L354 451 L354 115 C316 91 274 69 236 69 C171 69 154 100 154 170 L154 451 L64 451 L64 155 C64 38 111 -8 199 -8 C265 -8 321 25 361 55 L372 0 L462 0 L443 110 L443 451 Z M377 645 C367 632 345 613 316 613 C283 613 252 648 211 648 C170 648 138 622 119 598 L144 552 C162 574 180 585 205 585 C239 585 271 550 311 550 C351 550 385 577 402 598 L377 645 Z " />
<glyph glyph-name="Umacron" unicode="&#x16a;" horiz-adv-x="633" d="M194 654 L448 654 L448 726 L194 726 L194 654 Z M319 -9 C433 -9 561 65 561 238 L561 583 L464 583 L464 237 C464 127 417 74 326 74 C238 74 170 115 170 225 L170 583 L73 583 L73 216 C73 51 196 -9 319 -9 L319 -9 Z " />
<glyph glyph-name="umacron" unicode="&#x16b;" horiz-adv-x="514" d="M443 451 L354 451 L354 115 C316 91 274 69 236 69 C171 69 154 100 154 170 L154 451 L64 451 L64 155 C64 38 111 -8 199 -8 C265 -8 321 25 361 55 L372 0 L462 0 L443 110 L443 451 Z M130 562 L384 562 L384 638 L130 638 L130 562 Z " />
<glyph glyph-name="Ubreve" unicode="&#x16c;" horiz-adv-x="633" d="M315 700 C277 700 250 726 241 754 L186 732 C198 682 235 630 313 630 C389 630 435 672 446 734 L394 756 C387 726 362 700 315 700 L315 700 Z M319 -9 C433 -9 561 65 561 238 L561 583 L464 583 L464 237 C464 127 417 74 326 74 C238 74 170 115 170 225 L170 583 L73 583 L73 216 C73 51 196 -9 319 -9 L319 -9 Z " />
<glyph glyph-name="ubreve" unicode="&#x16d;" horiz-adv-x="514" d="M443 451 L354 451 L354 115 C316 91 274 69 236 69 C171 69 154 100 154 170 L154 451 L64 451 L64 155 C64 38 111 -8 199 -8 C265 -8 321 25 361 55 L372 0 L462 0 L443 110 L443 451 Z M258 587 C213 587 194 622 185 650 L130 628 C141 578 178 526 256 526 C332 526 378 568 389 630 L338 652 C331 622 312 587 258 587 L258 587 Z " />
<glyph glyph-name="Uring" unicode="&#x16e;" horiz-adv-x="633" d="M319 -9 C433 -9 561 65 561 238 L561 583 L464 583 L464 237 C464 127 417 74 326 74 C238 74 170 115 170 225 L170 583 L73 583 L73 216 C73 51 196 -9 319 -9 L319 -9 Z M319 791 C273 791 223 761 223 705 C223 649 269 618 319 618 C369 618 416 651 416 705 C416 761 369 791 319 791 L319 791 Z M319 664 C291 664 279 679 279 705 C279 727 291 745 319 745 C346 745 359 730 359 705 C359 679 346 664 319 664 L319 664 Z " />
<glyph glyph-name="uring" unicode="&#x16f;" horiz-adv-x="514" d="M443 451 L354 451 L354 115 C316 91 274 69 236 69 C171 69 154 100 154 170 L154 451 L64 451 L64 155 C64 38 111 -8 199 -8 C265 -8 321 25 361 55 L372 0 L462 0 L443 110 L443 451 Z M259 695 C213 695 163 665 163 609 C163 553 208 522 259 522 C308 522 356 555 356 609 C356 665 308 695 259 695 L259 695 Z M259 649 C286 649 299 634 299 609 C299 583 286 568 259 568 C231 568 219 582 219 609 C219 630 231 649 259 649 L259 649 Z " />
<glyph glyph-name="Uhungarumlaut" unicode="&#x170;" horiz-adv-x="633" d="M319 -9 C433 -9 561 65 561 238 L561 583 L464 583 L464 237 C464 127 417 74 326 74 C238 74 170 115 170 225 L170 583 L73 583 L73 216 C73 51 196 -9 319 -9 L319 -9 Z M271 633 L363 762 L273 762 L200 633 L271 633 Z M416 633 L529 762 L438 762 L345 633 L416 633 Z " />
<glyph glyph-name="uhungarumlaut" unicode="&#x171;" horiz-adv-x="514" d="M443 451 L354 451 L354 115 C316 91 274 69 236 69 C171 69 154 100 154 170 L154 451 L64 451 L64 155 C64 38 111 -8 199 -8 C265 -8 321 25 361 55 L372 0 L462 0 L443 110 L443 451 Z M196 529 L312 677 L221 677 L125 529 L196 529 Z M359 529 L478 677 L388 677 L288 529 L359 529 Z " />
<glyph glyph-name="Uogonek" unicode="&#x172;" horiz-adv-x="634" d="M435 -194 L433 -139 C415 -146 391 -154 370 -154 C344 -154 323 -142 323 -108 C323 -67 350 -25 403 5 C488 33 561 107 561 238 L561 583 L464 583 L464 237 C464 127 417 74 326 74 C238 74 170 115 170 225 L170 583 L73 583 L73 216 C73 57 186 -4 304 -8 C271 -36 245 -73 245 -122 C245 -185 288 -214 346 -214 C376 -214 413 -207 435 -194 L435 -194 Z " />
<glyph glyph-name="uogonek" unicode="&#x173;" horiz-adv-x="514" d="M443 451 L354 451 L354 115 C316 91 274 69 236 69 C171 69 154 100 154 170 L154 451 L64 451 L64 155 C64 38 111 -8 199 -8 C265 -8 321 25 361 55 L370 7 C327 -21 290 -64 290 -122 C290 -185 333 -214 391 -214 C421 -214 458 -207 480 -194 L478 -139 C460 -146 436 -154 415 -154 C389 -154 368 -142 368 -108 C368 -69 392 -29 440 0 L462 0 L443 110 L443 451 Z " />
<glyph glyph-name="Wcircumflex" unicode="&#x174;" horiz-adv-x="886" d="M873 583 L775 583 L682 278 L635 120 L630 120 L587 281 L505 583 L397 583 L304 278 L255 118 L250 118 L212 280 L138 583 L32 583 L189 0 L299 0 L390 291 L439 445 L445 445 L488 290 L567 0 L678 0 L873 583 Z M412 767 L292 631 L380 631 L442 708 L446 708 L506 631 L592 631 L484 767 L412 767 Z " />
<glyph glyph-name="wcircumflex" unicode="&#x175;" horiz-adv-x="746" d="M350 679 L238 528 L324 528 L379 620 L382 620 L434 528 L519 528 L420 679 L350 679 Z M728 451 L631 451 L567 235 L528 96 L523 96 L486 232 L426 451 L336 451 L263 225 L222 97 L217 97 L185 225 L128 451 L24 451 L164 0 L263 0 L338 231 L370 330 L376 330 L406 227 L472 0 L577 0 L728 451 Z " />
<glyph glyph-name="Ycircumflex" unicode="&#x176;" horiz-adv-x="542" d="M533 583 L433 583 L337 403 L280 295 L276 295 L217 403 L118 583 L11 583 L221 218 L221 0 L319 0 L319 215 L533 583 Z M239 767 L119 631 L207 631 L269 708 L273 708 L333 631 L419 631 L311 767 L239 767 Z " />
<glyph glyph-name="ycircumflex" unicode="&#x177;" horiz-adv-x="469" d="M207 -207 L287 15 L456 451 L360 451 L274 201 L239 99 L233 99 L202 197 L124 451 L21 451 L181 0 L197 0 L110 -204 L113 -207 L207 -207 Z M214 679 L102 528 L188 528 L243 620 L246 620 L298 528 L383 528 L284 679 L214 679 Z " />
<glyph glyph-name="Ydieresis" unicode="&#x178;" horiz-adv-x="542" d="M533 583 L433 583 L337 403 L280 295 L276 295 L217 403 L118 583 L11 583 L221 218 L221 0 L319 0 L319 215 L533 583 Z M368 631 C399 631 422 652 422 683 C422 717 399 738 368 738 C337 738 313 717 313 683 C313 652 337 631 368 631 L368 631 Z M184 631 C215 631 239 652 239 684 C239 717 215 738 184 738 C153 738 131 717 131 684 C131 652 153 631 184 631 L184 631 Z " />
<glyph glyph-name="Zacute" unicode="&#x179;" horiz-adv-x="507" d="M469 0 L469 78 L164 78 L485 580 L483 583 L41 583 L41 505 L335 505 L21 3 L23 0 L469 0 Z M280 633 L386 761 L294 761 L209 633 L280 633 Z " />
<glyph glyph-name="zacute" unicode="&#x17a;" horiz-adv-x="436" d="M27 3 L28 0 L405 0 L405 76 L165 76 L400 449 L398 451 L37 451 L37 375 L259 375 L27 3 Z M251 529 L368 677 L276 677 L179 529 L251 529 Z " />
<glyph glyph-name="Zdotaccent" unicode="&#x17b;" horiz-adv-x="507" d="M469 0 L469 78 L164 78 L485 580 L483 583 L41 583 L41 505 L335 505 L21 3 L23 0 L469 0 Z M265 639 C297 639 323 660 323 692 C323 726 297 747 265 747 C232 747 208 726 208 692 C208 660 232 639 265 639 L265 639 Z " />
<glyph glyph-name="zdotaccent" unicode="&#x17c;" horiz-adv-x="436" d="M27 3 L28 0 L405 0 L405 76 L165 76 L400 449 L398 451 L37 451 L37 375 L259 375 L27 3 Z M220 560 C255 560 282 584 282 619 C282 654 255 677 220 677 C185 677 158 654 158 619 C158 584 185 560 220 560 L220 560 Z " />
<glyph glyph-name="Zcaron" unicode="&#x17d;" horiz-adv-x="507" d="M469 0 L469 78 L164 78 L485 580 L483 583 L41 583 L41 505 L335 505 L21 3 L23 0 L469 0 Z M289 626 L409 761 L321 761 L258 685 L255 685 L195 761 L108 761 L216 626 L289 626 Z " />
<glyph glyph-name="zcaron" unicode="&#x17e;" horiz-adv-x="436" d="M27 3 L28 0 L405 0 L405 76 L165 76 L400 449 L398 451 L37 451 L37 375 L259 375 L27 3 Z M252 529 L364 679 L278 679 L223 587 L220 587 L168 679 L83 679 L182 529 L252 529 Z " />
<glyph glyph-name="uni018F" unicode="&#x18f;" horiz-adv-x="626" d="M83 555 L83 467 C138 496 205 512 268 512 C387 512 471 461 475 333 L46 333 C40 313 36 290 36 264 C36 96 145 -9 300 -9 C488 -9 580 130 580 304 C580 506 456 592 275 592 C220 592 143 578 83 555 L83 555 Z M304 70 C206 70 139 136 135 258 L475 258 C469 142 418 70 304 70 L304 70 Z " />
<glyph glyph-name="florin" unicode="&#x192;" horiz-adv-x="518" d="M201 39 C188 -34 156 -65 105 -65 C80 -65 61 -63 38 -57 L26 -133 C43 -137 63 -140 88 -140 C188 -140 268 -82 287 31 L307 244 L439 244 L439 317 L313 317 L322 407 C329 481 358 515 412 515 C437 515 456 513 482 507 L489 586 C471 590 452 592 427 592 C326 592 246 535 236 422 L226 317 L116 317 L116 244 L219 244 L201 39 Z " />
<glyph glyph-name="uni01C4" unicode="&#x1c4;" horiz-adv-x="1141" d="M79 0 L254 0 C448 1 588 101 588 302 C588 518 436 583 249 583 L79 583 L79 0 Z M242 505 C392 505 485 450 485 291 C485 158 399 78 255 78 L176 78 L176 505 L242 505 Z M1102 0 L1102 78 L797 78 L1118 580 L1116 583 L674 583 L674 505 L968 505 L654 3 L656 0 L1102 0 Z M922 626 L1042 761 L954 761 L891 685 L888 685 L828 761 L741 761 L849 626 L922 626 Z " />
<glyph glyph-name="uni01C5" unicode="&#x1c5;" horiz-adv-x="1070" d="M79 0 L254 0 C448 1 588 101 588 302 C588 518 436 583 249 583 L79 583 L79 0 Z M242 505 C392 505 485 450 485 291 C485 158 399 78 255 78 L176 78 L176 505 L242 505 Z M660 3 L661 0 L1038 0 L1038 76 L798 76 L1033 449 L1031 451 L670 451 L670 375 L892 375 L660 3 Z M885 529 L997 679 L911 679 L856 587 L853 587 L801 679 L716 679 L815 529 L885 529 Z " />
<glyph glyph-name="uni01C6" unicode="&#x1c6;" horiz-adv-x="945" d="M365 0 L456 0 L439 101 L439 653 L349 653 L349 453 C324 457 289 460 264 460 C144 460 41 365 41 205 C41 50 134 -8 215 -8 C273 -8 319 17 356 48 L365 0 Z M535 3 L536 0 L913 0 L913 76 L673 76 L908 449 L906 451 L545 451 L545 375 L767 375 L535 3 Z M241 67 C171 67 135 118 135 220 C135 340 185 386 269 386 C294 386 324 381 349 374 L349 108 C306 82 278 67 241 67 L241 67 Z M760 529 L872 679 L786 679 L731 587 L728 587 L676 679 L591 679 L690 529 L760 529 Z " />
<glyph glyph-name="uni01C7" unicode="&#x1c7;" horiz-adv-x="726" d="M79 0 L435 0 L435 78 L176 78 L176 583 L79 583 L79 0 Z M519 -87 C605 4 652 89 652 179 L652 583 L554 583 L554 175 C554 97 502 34 445 -43 L519 -87 Z " />
<glyph glyph-name="uni01C8" unicode="&#x1c8;" horiz-adv-x="704" d="M79 0 L435 0 L435 78 L176 78 L176 583 L79 583 L79 0 Z M477 375 L547 375 L547 18 C547 -57 507 -132 477 -181 L540 -214 C603 -154 637 -52 637 32 L637 451 L477 451 L477 375 Z M594 560 C629 560 656 584 656 619 C656 654 629 677 594 677 C559 677 532 654 532 619 C532 584 559 560 594 560 L594 560 Z " />
<glyph glyph-name="uni01C9" unicode="&#x1c9;" horiz-adv-x="484" d="M257 375 L327 375 L327 18 C327 -57 287 -132 257 -181 L320 -214 C383 -154 417 -52 417 32 L417 451 L257 451 L257 375 Z M71 0 L161 0 L161 653 L71 653 L71 0 Z M374 560 C409 560 436 584 436 619 C436 654 409 677 374 677 C339 677 312 654 312 619 C312 584 339 560 374 560 L374 560 Z " />
<glyph glyph-name="uni01CA" unicode="&#x1ca;" horiz-adv-x="925" d="M718 -87 C804 4 851 89 851 179 L851 583 L753 583 L753 175 C753 97 701 34 644 -43 L718 -87 Z M79 0 L172 0 L172 426 L174 426 L484 0 L572 0 L572 583 L479 583 L479 168 L477 168 L166 583 L79 583 L79 0 Z " />
<glyph glyph-name="uni01CB" unicode="&#x1cb;" horiz-adv-x="903" d="M79 0 L172 0 L172 426 L174 426 L484 0 L572 0 L572 583 L479 583 L479 168 L477 168 L166 583 L79 583 L79 0 Z M676 375 L746 375 L746 18 C746 -57 706 -132 676 -181 L739 -214 C802 -154 836 -52 836 32 L836 451 L676 451 L676 375 Z M793 560 C828 560 855 584 855 619 C855 654 828 677 793 677 C758 677 731 654 731 619 C731 584 758 560 793 560 L793 560 Z " />
<glyph glyph-name="uni01CC" unicode="&#x1cc;" horiz-adv-x="774" d="M70 0 L159 0 L159 335 C197 358 246 381 284 381 C351 381 368 349 368 277 L368 0 L458 0 L458 297 C458 414 411 460 323 460 C256 460 193 426 151 397 L141 451 L51 451 L70 343 L70 0 Z M546 375 L616 375 L616 18 C616 -57 576 -132 546 -181 L609 -214 C672 -154 706 -52 706 32 L706 451 L546 451 L546 375 Z M663 560 C698 560 725 584 725 619 C725 654 698 677 663 677 C628 677 601 654 601 619 C601 584 628 560 663 560 L663 560 Z " />
<glyph glyph-name="uni01D3" unicode="&#x1d3;" horiz-adv-x="633" d="M350 627 L470 762 L382 762 L319 686 L316 686 L256 762 L169 762 L277 627 L350 627 Z M319 -9 C433 -9 561 65 561 238 L561 583 L464 583 L464 237 C464 127 417 74 326 74 C238 74 170 115 170 225 L170 583 L73 583 L73 216 C73 51 196 -9 319 -9 L319 -9 Z " />
<glyph glyph-name="uni01D4" unicode="&#x1d4;" horiz-adv-x="514" d="M443 451 L354 451 L354 115 C316 91 274 69 236 69 C171 69 154 100 154 170 L154 451 L64 451 L64 155 C64 38 111 -8 199 -8 C265 -8 321 25 361 55 L372 0 L462 0 L443 110 L443 451 Z M288 529 L400 679 L314 679 L259 587 L256 587 L204 679 L119 679 L218 529 L288 529 Z " />
<glyph glyph-name="uni01E2" unicode="&#x1e2;" horiz-adv-x="762" d="M352 0 L721 0 L721 78 L450 78 L450 260 L668 260 L668 337 L450 337 L450 505 L714 505 L714 583 L318 583 L1 0 L98 0 L187 170 L352 170 L352 0 Z M403 653 L657 653 L657 725 L403 725 L403 653 Z M345 473 L352 473 L352 248 L227 248 L345 473 Z " />
<glyph glyph-name="uni01E3" unicode="&#x1e3;" horiz-adv-x="741" d="M516 -8 C589 -8 647 4 688 28 L688 99 C645 79 583 67 532 67 C450 67 400 108 393 199 L699 199 L699 243 C699 368 638 460 506 460 C448 460 402 439 368 404 C341 445 291 460 232 460 C176 460 99 447 62 431 L62 354 C102 368 168 382 216 382 C266 382 304 367 304 303 L304 259 L247 259 C117 259 36 213 36 122 C36 47 81 -8 166 -8 C245 -8 306 37 341 70 C376 19 434 -8 516 -8 L516 -8 Z M190 62 C147 62 126 89 126 131 C126 180 164 199 239 199 L303 199 C305 168 309 141 318 117 C282 90 235 62 190 62 L190 62 Z M503 385 C571 385 601 332 603 261 L393 261 C402 356 448 385 503 385 L503 385 Z M246 562 L500 562 L500 638 L246 638 L246 562 Z " />
<glyph glyph-name="uni01F1" unicode="&#x1f1;" horiz-adv-x="1129" d="M79 0 L254 0 C448 1 588 101 588 302 C588 518 436 583 249 583 L79 583 L79 0 Z M242 505 C392 505 485 450 485 291 C485 158 399 78 255 78 L176 78 L176 505 L242 505 Z M1090 0 L1090 78 L785 78 L1106 580 L1104 583 L662 583 L662 505 L956 505 L642 3 L644 0 L1090 0 Z " />
<glyph glyph-name="uni01F2" unicode="&#x1f2;" horiz-adv-x="1070" d="M79 0 L254 0 C448 1 588 101 588 302 C588 518 436 583 249 583 L79 583 L79 0 Z M242 505 C392 505 485 450 485 291 C485 158 399 78 255 78 L176 78 L176 505 L242 505 Z M660 3 L661 0 L1038 0 L1038 76 L798 76 L1033 449 L1031 451 L670 451 L670 375 L892 375 L660 3 Z " />
<glyph glyph-name="uni01F3" unicode="&#x1f3;" horiz-adv-x="945" d="M365 0 L456 0 L439 101 L439 653 L349 653 L349 453 C324 457 289 460 264 460 C144 460 41 365 41 205 C41 50 134 -8 215 -8 C273 -8 319 17 356 48 L365 0 Z M535 3 L536 0 L913 0 L913 76 L673 76 L908 449 L906 451 L545 451 L545 375 L767 375 L535 3 Z M241 67 C171 67 135 118 135 220 C135 340 185 386 269 386 C294 386 324 381 349 374 L349 108 C306 82 278 67 241 67 L241 67 Z " />
<glyph glyph-name="AEacute" unicode="&#x1fc;" horiz-adv-x="762" d="M352 0 L721 0 L721 78 L450 78 L450 260 L668 260 L668 337 L450 337 L450 505 L714 505 L714 583 L318 583 L1 0 L98 0 L187 170 L352 170 L352 0 Z M345 473 L352 473 L352 248 L227 248 L345 473 Z M535 634 L641 762 L549 762 L464 634 L535 634 Z " />
<glyph glyph-name="aeacute" unicode="&#x1fd;" horiz-adv-x="741" d="M516 -8 C589 -8 647 4 688 28 L688 99 C645 79 583 67 532 67 C450 67 400 108 393 199 L699 199 L699 243 C699 368 638 460 506 460 C448 460 402 439 368 404 C341 445 291 460 232 460 C176 460 99 447 62 431 L62 354 C102 368 168 382 216 382 C266 382 304 367 304 303 L304 259 L247 259 C117 259 36 213 36 122 C36 47 81 -8 166 -8 C245 -8 306 37 341 70 C376 19 434 -8 516 -8 L516 -8 Z M190 62 C147 62 126 89 126 131 C126 180 164 199 239 199 L303 199 C305 168 309 141 318 117 C282 90 235 62 190 62 L190 62 Z M503 385 C571 385 601 332 603 261 L393 261 C402 356 448 385 503 385 L503 385 Z M396 529 L513 677 L421 677 L324 529 L396 529 Z " />
<glyph glyph-name="Oslashacute" unicode="&#x1fe;" horiz-adv-x="648" d="M317 -9 C506 -9 603 145 603 310 C603 383 582 450 542 500 L620 592 L544 592 L500 541 C458 573 402 592 333 592 C152 592 45 457 45 279 C45 203 66 134 108 83 L29 -9 L106 -9 L150 42 C193 10 249 -9 317 -9 L317 -9 Z M148 296 C148 424 209 514 326 514 C373 514 411 498 439 470 L175 162 C157 200 148 246 148 296 L148 296 Z M321 70 C274 70 238 86 210 113 L474 421 C491 386 500 342 500 294 C500 177 448 70 321 70 L321 70 Z M333 633 L439 761 L347 761 L262 633 L333 633 Z " />
<glyph glyph-name="oslashacute" unicode="&#x1ff;" horiz-adv-x="504" d="M249 -8 C379 -8 462 100 462 227 C462 297 448 351 421 389 L481 460 L414 460 L385 425 C352 448 309 460 255 460 C129 460 41 351 41 222 C41 152 56 100 84 63 L24 -9 L88 -9 L119 28 C153 3 197 -8 249 -8 L249 -8 Z M135 227 C135 309 159 384 251 384 C286 384 312 374 329 358 L147 139 C138 164 135 194 135 227 L135 227 Z M254 67 C219 67 193 77 175 94 L357 312 C365 286 368 255 368 224 C368 139 345 67 254 67 L254 67 Z M288 529 L405 677 L313 677 L216 529 L288 529 Z " />
<glyph glyph-name="Scommaaccent" unicode="&#x218;" horiz-adv-x="477" d="M176 -248 L241 -248 L288 -62 L205 -62 L176 -248 Z M53 26 C107 3 164 -9 222 -9 C337 -9 435 49 435 163 C435 277 335 312 250 345 C180 371 142 391 142 441 C142 486 193 512 246 512 C306 512 368 493 413 464 L413 557 C374 577 315 592 243 592 C138 592 48 529 48 423 C48 326 123 287 199 259 C275 231 341 213 341 153 C341 103 293 72 230 72 C168 72 97 93 53 118 L53 26 Z " />
<glyph glyph-name="scommaaccent" unicode="&#x219;" horiz-adv-x="418" d="M144 -248 L209 -248 L256 -62 L173 -62 L144 -248 Z M199 -8 C291 -8 380 34 380 134 C380 232 298 253 227 269 C174 280 129 292 129 333 C129 364 166 385 211 385 C258 385 296 379 363 351 L363 432 C323 452 264 460 218 460 C125 460 43 411 43 323 C43 236 118 212 187 194 C245 180 298 168 298 127 C298 88 257 66 210 66 C158 66 112 77 47 101 L47 21 C89 5 138 -8 199 -8 L199 -8 Z " />
<glyph glyph-name="uni021A" unicode="&#x21a;" horiz-adv-x="547" d="M18 505 L223 505 L223 0 L320 0 L320 505 L528 505 L528 583 L18 583 L18 505 Z M199 -248 L264 -248 L311 -62 L228 -62 L199 -248 Z " />
<glyph glyph-name="uni021B" unicode="&#x21b;" horiz-adv-x="371" d="M24 375 L101 375 L101 130 C100 34 161 -8 237 -8 C282 -8 323 -1 349 13 L349 83 C327 76 298 69 272 69 C224 69 191 82 190 143 L190 375 L340 375 L340 451 L190 451 L190 570 L101 570 L101 451 L24 451 L24 375 Z M154 -248 L219 -248 L266 -62 L183 -62 L154 -248 Z " />
<glyph glyph-name="uni0232" unicode="&#x232;" horiz-adv-x="542" d="M533 583 L433 583 L337 403 L280 295 L276 295 L217 403 L118 583 L11 583 L221 218 L221 0 L319 0 L319 215 L533 583 Z M151 653 L405 653 L405 725 L151 725 L151 653 Z " />
<glyph glyph-name="uni0233" unicode="&#x233;" horiz-adv-x="469" d="M207 -207 L287 15 L456 451 L360 451 L274 201 L239 99 L233 99 L202 197 L124 451 L21 451 L181 0 L197 0 L110 -204 L113 -207 L207 -207 Z M121 562 L375 562 L375 638 L121 638 L121 562 Z " />
<glyph glyph-name="uni0237" unicode="&#x237;" horiz-adv-x="252" d="M25 375 L95 375 L95 18 C95 -57 55 -132 25 -181 L88 -214 C151 -154 185 -52 185 32 L185 451 L25 451 L25 375 Z " />
<glyph glyph-name="uni0259" unicode="&#x259;" horiz-adv-x="482" d="M224 460 C151 460 94 448 52 424 L52 353 C96 373 158 385 208 385 C291 385 342 341 348 246 L41 246 L41 209 C41 84 102 -8 234 -8 C363 -8 441 95 441 235 C441 378 365 460 224 460 L224 460 Z M237 67 C170 67 141 116 137 184 L346 184 C336 94 291 67 237 67 L237 67 Z " />
<glyph glyph-name="circumflex" unicode="&#x2c6;" horiz-adv-x="385" d="M168 679 L56 528 L142 528 L197 620 L200 620 L252 528 L337 528 L238 679 L168 679 Z " />
<glyph glyph-name="caron" unicode="&#x2c7;" horiz-adv-x="445" d="M254 529 L366 679 L280 679 L225 587 L222 587 L170 679 L85 679 L184 529 L254 529 Z " />
<glyph glyph-name="breve" unicode="&#x2d8;" horiz-adv-x="340" d="M175 587 C130 587 111 622 102 650 L47 628 C58 578 95 526 173 526 C249 526 295 568 306 630 L255 652 C248 622 229 587 175 587 L175 587 Z " />
<glyph glyph-name="dotaccent" unicode="&#x2d9;" horiz-adv-x="301" d="M154 560 C189 560 216 584 216 619 C216 654 189 677 154 677 C119 677 92 654 92 619 C92 584 119 560 154 560 L154 560 Z " />
<glyph glyph-name="ring" unicode="&#x2da;" horiz-adv-x="316" d="M161 695 C115 695 65 665 65 609 C65 553 110 522 161 522 C210 522 258 555 258 609 C258 665 210 695 161 695 L161 695 Z M161 649 C188 649 201 634 201 609 C201 583 188 568 161 568 C133 568 121 582 121 609 C121 630 133 649 161 649 L161 649 Z " />
<glyph glyph-name="ogonek" unicode="&#x2db;" horiz-adv-x="315" d="M269 -194 L267 -139 C249 -146 225 -154 204 -154 C178 -154 157 -142 157 -108 C157 -66 186 -23 241 7 L220 38 C160 14 79 -37 79 -122 C79 -185 122 -214 180 -214 C210 -214 247 -207 269 -194 L269 -194 Z " />
<glyph glyph-name="tilde" unicode="&#x2dc;" horiz-adv-x="410" d="M323 645 C313 632 291 613 262 613 C229 613 198 648 157 648 C116 648 84 622 65 598 L90 552 C108 574 126 585 151 585 C185 585 217 550 257 550 C297 550 331 577 348 598 L323 645 Z " />
<glyph glyph-name="hungarumlaut" unicode="&#x2dd;" horiz-adv-x="453" d="M118 529 L234 677 L143 677 L47 529 L118 529 Z M281 529 L400 677 L310 677 L210 529 L281 529 Z " />
<glyph glyph-name="dotbelowcmb" unicode="&#x323;" d="M-225 -198 C-193 -198 -167 -177 -167 -144 C-167 -111 -192 -90 -225 -90 C-257 -90 -282 -111 -282 -144 C-282 -176 -257 -198 -225 -198 L-225 -198 Z " />
<glyph glyph-name="uni0394" unicode="&#x394;" horiz-adv-x="558" d="M530 0 L530 65 L333 583 L241 583 L29 63 L30 0 L530 0 Z M277 473 L282 473 L424 78 L124 78 L277 473 Z " />
<glyph glyph-name="Sigma" unicode="&#x3a3;" horiz-adv-x="515" d="M47 0 L467 0 L467 82 L157 82 L296 291 L163 505 L456 505 L456 583 L50 583 L50 514 L194 285 L47 71 L47 0 Z " />
<glyph glyph-name="pi" unicode="&#x3c0;" horiz-adv-x="584" d="M454 375 L522 375 L522 451 L38 451 L38 375 L106 375 L106 0 L190 0 L190 375 L370 375 L370 65 C370 17 401 -5 464 -5 C491 -5 518 0 541 12 L541 65 C521 63 502 63 490 63 C465 63 454 77 454 118 L454 375 Z " />
<glyph glyph-name="uni1E46" unicode="&#x1e46;" horiz-adv-x="651" d="M321 -198 C353 -198 379 -177 379 -144 C379 -111 354 -90 321 -90 C289 -90 264 -111 264 -144 C264 -176 289 -198 321 -198 L321 -198 Z M79 0 L172 0 L172 426 L174 426 L484 0 L572 0 L572 583 L479 583 L479 168 L477 168 L166 583 L79 583 L79 0 Z " />
<glyph glyph-name="uni1E47" unicode="&#x1e47;" horiz-adv-x="522" d="M70 0 L159 0 L159 335 C197 358 246 381 284 381 C351 381 368 349 368 277 L368 0 L458 0 L458 297 C458 414 411 460 323 460 C256 460 193 426 151 397 L141 451 L51 451 L70 343 L70 0 Z M265 -198 C297 -198 323 -177 323 -144 C323 -111 298 -90 265 -90 C233 -90 208 -111 208 -144 C208 -176 233 -198 265 -198 L265 -198 Z " />
<glyph glyph-name="uni1E62" unicode="&#x1e62;" horiz-adv-x="477" d="M220 -198 C252 -198 278 -177 278 -144 C278 -111 253 -90 220 -90 C188 -90 163 -111 163 -144 C163 -176 188 -198 220 -198 L220 -198 Z M53 26 C107 3 164 -9 222 -9 C337 -9 435 49 435 163 C435 277 335 312 250 345 C180 371 142 391 142 441 C142 486 193 512 246 512 C306 512 368 493 413 464 L413 557 C374 577 315 592 243 592 C138 592 48 529 48 423 C48 326 123 287 199 259 C275 231 341 213 341 153 C341 103 293 72 230 72 C168 72 97 93 53 118 L53 26 Z " />
<glyph glyph-name="uni1E63" unicode="&#x1e63;" horiz-adv-x="418" d="M202 -198 C234 -198 260 -177 260 -144 C260 -111 235 -90 202 -90 C170 -90 145 -111 145 -144 C145 -176 170 -198 202 -198 L202 -198 Z M199 -8 C291 -8 380 34 380 134 C380 232 298 253 227 269 C174 280 129 292 129 333 C129 364 166 385 211 385 C258 385 296 379 363 351 L363 432 C323 452 264 460 218 460 C125 460 43 411 43 323 C43 236 118 212 187 194 C245 180 298 168 298 127 C298 88 257 66 210 66 C158 66 112 77 47 101 L47 21 C89 5 138 -8 199 -8 L199 -8 Z " />
<glyph glyph-name="Wgrave" unicode="&#x1e80;" horiz-adv-x="886" d="M505 633 L420 761 L328 761 L434 633 L505 633 Z M873 583 L775 583 L682 278 L635 120 L630 120 L587 281 L505 583 L397 583 L304 278 L255 118 L250 118 L212 280 L138 583 L32 583 L189 0 L299 0 L390 291 L439 445 L445 445 L488 290 L567 0 L678 0 L873 583 Z " />
<glyph glyph-name="wgrave" unicode="&#x1e81;" horiz-adv-x="746" d="M728 451 L631 451 L567 235 L528 96 L523 96 L486 232 L426 451 L336 451 L263 225 L222 97 L217 97 L185 225 L128 451 L24 451 L164 0 L263 0 L338 231 L370 330 L376 330 L406 227 L472 0 L577 0 L728 451 Z M413 529 L319 677 L226 677 L341 529 L413 529 Z " />
<glyph glyph-name="Wacute" unicode="&#x1e82;" horiz-adv-x="886" d="M477 628 L583 756 L491 756 L406 628 L477 628 Z M873 583 L775 583 L682 278 L635 120 L630 120 L587 281 L505 583 L397 583 L304 278 L255 118 L250 118 L212 280 L138 583 L32 583 L189 0 L299 0 L390 291 L439 445 L445 445 L488 290 L567 0 L678 0 L873 583 Z " />
<glyph glyph-name="wacute" unicode="&#x1e83;" horiz-adv-x="746" d="M418 529 L535 677 L443 677 L346 529 L418 529 Z M728 451 L631 451 L567 235 L528 96 L523 96 L486 232 L426 451 L336 451 L263 225 L222 97 L217 97 L185 225 L128 451 L24 451 L164 0 L263 0 L338 231 L370 330 L376 330 L406 227 L472 0 L577 0 L728 451 Z " />
<glyph glyph-name="Wdieresis" unicode="&#x1e84;" horiz-adv-x="886" d="M356 631 C387 631 411 652 411 684 C411 717 387 738 356 738 C325 738 303 717 303 684 C303 652 325 631 356 631 L356 631 Z M540 631 C571 631 594 652 594 683 C594 717 571 738 540 738 C509 738 485 717 485 683 C485 652 509 631 540 631 L540 631 Z M873 583 L775 583 L682 278 L635 120 L630 120 L587 281 L505 583 L397 583 L304 278 L255 118 L250 118 L212 280 L138 583 L32 583 L189 0 L299 0 L390 291 L439 445 L445 445 L488 290 L567 0 L678 0 L873 583 Z " />
<glyph glyph-name="wdieresis" unicode="&#x1e85;" horiz-adv-x="746" d="M295 562 C326 562 349 584 349 615 C349 647 326 669 295 669 C263 669 241 648 241 615 C241 584 263 562 295 562 L295 562 Z M478 562 C509 562 532 584 532 615 C532 647 509 669 478 669 C447 669 423 648 423 615 C423 584 447 562 478 562 L478 562 Z M728 451 L631 451 L567 235 L528 96 L523 96 L486 232 L426 451 L336 451 L263 225 L222 97 L217 97 L185 225 L128 451 L24 451 L164 0 L263 0 L338 231 L370 330 L376 330 L406 227 L472 0 L577 0 L728 451 Z " />
<glyph glyph-name="uni1EBC" unicode="&#x1ebc;" horiz-adv-x="488" d="M79 0 L448 0 L448 78 L176 78 L176 260 L395 260 L395 337 L176 337 L176 505 L441 505 L441 583 L79 583 L79 0 Z M388 733 C379 720 356 701 328 701 C294 701 263 735 222 735 C181 735 149 709 131 686 L156 635 C173 657 191 668 217 668 C251 668 282 633 322 633 C362 633 397 661 413 681 L388 733 Z " />
<glyph glyph-name="uni1EBD" unicode="&#x1ebd;" horiz-adv-x="482" d="M258 -8 C331 -8 388 4 430 28 L430 99 C386 79 324 67 274 67 C190 67 139 110 133 206 L441 206 L441 243 C441 368 380 460 248 460 C119 460 41 357 41 217 C41 74 117 -8 258 -8 L258 -8 Z M245 385 C311 385 341 336 344 268 L135 268 C146 357 191 385 245 385 L245 385 Z M368 645 C358 632 336 613 307 613 C274 613 243 648 202 648 C161 648 129 622 110 598 L135 552 C153 574 171 585 196 585 C230 585 262 550 302 550 C342 550 376 577 393 598 L368 645 Z " />
<glyph glyph-name="Ygrave" unicode="&#x1ef2;" horiz-adv-x="542" d="M533 583 L433 583 L337 403 L280 295 L276 295 L217 403 L118 583 L11 583 L221 218 L221 0 L319 0 L319 215 L533 583 Z M335 633 L250 761 L158 761 L264 633 L335 633 Z " />
<glyph glyph-name="ygrave" unicode="&#x1ef3;" horiz-adv-x="469" d="M207 -207 L287 15 L456 451 L360 451 L274 201 L239 99 L233 99 L202 197 L124 451 L21 451 L181 0 L197 0 L110 -204 L113 -207 L207 -207 Z M300 512 L206 660 L113 660 L228 512 L300 512 Z " />
<glyph glyph-name="uni2004" unicode="&#x2004;" horiz-adv-x="333" d="" />
<glyph glyph-name="uni2007" unicode="&#x2007;" horiz-adv-x="500" d="" />
<glyph glyph-name="uni2009" unicode="&#x2009;" horiz-adv-x="160" d="" />
<glyph glyph-name="uni200A" unicode="&#x200a;" horiz-adv-x="80" d="" />
<glyph glyph-name="uni200B" unicode="&#x200b;" d="" />
<glyph glyph-name="uni2012" unicode="&#x2012;" horiz-adv-x="378" d="M388 226 L388 303 L-10 303 L-10 226 L388 226 Z " />
<glyph glyph-name="endash" unicode="&#x2013;" horiz-adv-x="451" d="M64 214 L387 214 L387 283 L64 283 L64 214 Z " />
<glyph glyph-name="emdash" unicode="&#x2014;" horiz-adv-x="853" d="M64 214 L789 214 L789 283 L64 283 L64 214 Z " />
<glyph glyph-name="quoteleft" unicode="&#x2018;" horiz-adv-x="235" d="M171 695 C100 643 57 559 57 489 C57 452 84 425 121 425 C156 425 183 456 183 487 C160 500 153 519 153 544 C153 583 178 631 210 670 L171 695 Z " />
<glyph glyph-name="quoteright" unicode="&#x2019;" horiz-adv-x="236" d="M87 423 C158 475 201 559 201 629 C201 666 174 693 137 693 C102 693 75 662 75 631 C98 618 105 599 105 574 C105 535 80 487 48 448 L87 423 Z " />
<glyph glyph-name="quotesinglbase" unicode="&#x201a;" horiz-adv-x="242" d="M67 -159 C138 -107 181 -23 181 48 C181 85 154 112 116 112 C82 112 55 81 54 51 C77 37 85 18 85 -7 C85 -46 59 -95 27 -134 L67 -159 Z " />
<glyph glyph-name="quotedblleft" unicode="&#x201c;" horiz-adv-x="404" d="M171 695 C100 643 57 559 57 489 C57 452 84 425 121 425 C156 425 183 456 183 487 C160 500 153 519 153 544 C153 583 178 631 210 670 L171 695 Z M340 695 C269 643 226 559 226 489 C226 452 253 425 290 425 C325 425 352 456 352 487 C329 500 322 519 322 544 C322 583 347 631 379 670 L340 695 Z " />
<glyph glyph-name="quotedblright" unicode="&#x201d;" horiz-adv-x="409" d="M86 414 C157 466 200 550 200 620 C200 657 173 684 136 684 C101 684 74 653 74 622 C97 609 104 590 104 565 C104 526 79 478 47 439 L86 414 Z M257 414 C328 466 371 550 371 620 C371 657 344 684 307 684 C272 684 245 653 245 622 C268 609 275 590 275 565 C275 526 250 478 218 439 L257 414 Z " />
<glyph glyph-name="quotedblbase" unicode="&#x201e;" horiz-adv-x="415" d="M67 -159 C138 -107 181 -23 181 48 C181 85 154 112 116 112 C82 112 55 81 54 51 C77 37 85 18 85 -7 C85 -46 59 -95 27 -134 L67 -159 Z M240 -159 C311 -107 354 -23 354 48 C354 85 327 112 289 112 C255 112 228 81 227 51 C250 37 258 18 258 -7 C258 -46 232 -95 200 -134 L240 -159 Z " />
<glyph glyph-name="dagger" unicode="&#x2020;" horiz-adv-x="481" d="M31 383 L204 383 L204 0 L276 0 L276 383 L449 383 L449 453 L276 453 L276 653 L204 653 L204 453 L31 453 L31 383 Z " />
<glyph glyph-name="daggerdbl" unicode="&#x2021;" horiz-adv-x="517" d="M50 388 L223 388 L223 251 L50 251 L50 181 L223 181 L223 0 L294 0 L294 181 L468 181 L468 251 L294 251 L294 388 L468 388 L468 458 L294 458 L294 653 L223 653 L223 458 L50 458 L50 388 Z " />
<glyph glyph-name="bullet" unicode="&#x2022;" horiz-adv-x="399" d="M199 165 C273 165 330 222 330 296 C330 370 273 427 199 427 C126 427 69 370 69 296 C69 222 126 165 199 165 L199 165 Z " />
<glyph glyph-name="ellipsis" unicode="&#x2026;" horiz-adv-x="688" d="M124 -8 C162 -8 191 23 191 58 C191 94 162 126 124 126 C86 126 56 94 56 58 C56 23 86 -8 124 -8 L124 -8 Z M345 -8 C383 -8 412 23 412 58 C412 94 383 126 345 126 C307 126 277 94 277 58 C277 23 307 -8 345 -8 L345 -8 Z M564 -8 C602 -8 631 23 631 58 C631 94 602 126 564 126 C526 126 496 94 496 58 C496 23 526 -8 564 -8 L564 -8 Z " />
<glyph glyph-name="perthousand" unicode="&#x2030;" horiz-adv-x="969" d="M163 290 C235 290 290 346 290 440 C290 543 235 593 163 593 C89 593 34 533 34 437 C34 339 89 290 163 290 L163 290 Z M358 371 L420 371 L548 563 L548 583 L476 583 L358 371 Z M167 341 C126 341 102 371 102 439 C102 514 120 540 160 540 C200 540 224 514 224 436 C224 366 201 341 167 341 L167 341 Z M532 -8 C605 -8 660 49 660 143 C660 245 605 296 532 296 C458 296 404 235 404 140 C404 42 458 -8 532 -8 L532 -8 Z M535 43 C495 43 471 74 471 142 C471 209 489 243 528 243 C569 243 592 218 592 138 C592 68 571 43 535 43 L535 43 Z M352 233 L289 233 L159 20 L159 0 L230 0 L352 233 Z M808 -8 C881 -8 936 49 936 143 C936 245 881 296 808 296 C734 296 680 235 680 140 C680 42 734 -8 808 -8 L808 -8 Z M811 43 C771 43 747 74 747 142 C747 209 765 243 804 243 C845 243 868 218 868 138 C868 68 847 43 811 43 L811 43 Z " />
<glyph glyph-name="guilsinglleft" unicode="&#x2039;" horiz-adv-x="271" d="M140 46 L218 46 L147 226 L218 405 L140 405 L45 226 L140 46 Z " />
<glyph glyph-name="guilsinglright" unicode="&#x203a;" horiz-adv-x="270" d="M130 408 L52 408 L123 228 L52 49 L130 49 L225 228 L130 408 Z " />
<glyph glyph-name="uni203D" unicode="&#x203d;" horiz-adv-x="398" d="M121 318 L132 193 L197 195 L200 269 C255 289 365 351 365 450 C365 548 287 592 186 592 C146 592 81 580 39 560 L39 485 C82 503 135 519 177 519 C234 519 273 498 273 444 C273 391 239 356 202 333 L200 444 L118 442 L121 318 Z M166 -8 C204 -8 233 23 233 58 C233 94 204 126 166 126 C128 126 98 94 98 58 C98 23 128 -8 166 -8 L166 -8 Z " />
<glyph glyph-name="fraction" unicode="&#x2044;" horiz-adv-x="100" d="M-98 0 L251 543 L251 548 L189 548 L-160 5 L-160 0 L-98 0 Z " />
<glyph glyph-name="zerosuperior" unicode="&#x2070;" horiz-adv-x="301" d="M147 396 C229 396 274 456 274 556 C274 638 245 713 152 713 C70 713 27 648 27 547 C27 455 63 396 147 396 L147 396 Z M150 444 C101 444 94 497 94 550 C94 601 99 663 147 663 C197 663 205 599 205 554 C205 501 202 444 150 444 L150 444 Z " />
<glyph glyph-name="i.superior" unicode="&#x2071;" horiz-adv-x="187" d="M20 648 L68 648 L68 400 L141 400 L141 707 L20 707 L20 648 Z M56 822 C56 794 77 775 105 775 C134 775 156 794 156 822 C156 850 134 869 105 869 C77 869 56 850 56 822 L56 822 Z " />
<glyph glyph-name="foursuperior" unicode="&#x2074;" horiz-adv-x="280" d="M149 400 L216 400 L216 476 L259 476 L259 523 L216 523 L216 712 L150 712 L13 522 L13 476 L149 476 L149 400 Z M70 523 L145 633 L149 633 L149 523 L70 523 Z " />
<glyph glyph-name="fivesuperior" unicode="&#x2075;" horiz-adv-x="258" d="M109 396 C163 396 233 425 233 498 C233 564 185 594 105 594 L94 594 L100 659 L225 659 L225 708 L52 708 L37 545 C52 547 67 549 80 549 C142 549 169 531 169 495 C169 465 144 444 112 444 C85 444 56 449 26 464 L26 411 C46 403 74 396 109 396 L109 396 Z " />
<glyph glyph-name="sixsuperior" unicode="&#x2076;" horiz-adv-x="290" d="M144 396 C221 396 266 449 266 508 C266 573 220 600 165 600 C135 600 113 593 97 584 C105 637 129 664 178 664 C197 664 216 662 244 648 L244 701 C221 709 197 713 176 713 C81 713 26 631 26 532 C26 453 63 396 144 396 L144 396 Z M147 555 C183 555 199 535 199 501 C199 466 182 443 147 443 C106 443 94 476 94 532 L94 542 C107 549 124 555 147 555 L147 555 Z " />
<glyph glyph-name="sevensuperior" unicode="&#x2077;" horiz-adv-x="236" d="M95 400 L230 674 L230 708 L17 708 L17 659 L164 659 L33 402 L34 400 L95 400 Z " />
<glyph glyph-name="eightsuperior" unicode="&#x2078;" horiz-adv-x="289" d="M263 485 C263 522 239 543 209 557 C237 576 256 604 256 636 C256 687 207 713 144 713 C83 713 37 674 37 628 C37 595 53 574 76 558 C46 539 26 508 26 480 C26 427 66 396 140 396 C205 396 263 434 263 485 L263 485 Z M88 486 C88 508 93 523 109 540 C151 521 197 509 197 480 C197 451 172 442 145 442 C115 442 88 454 88 486 L88 486 Z M194 627 C194 610 186 590 169 574 C132 588 99 600 99 630 C99 656 117 664 143 664 C180 664 194 648 194 627 L194 627 Z " />
<glyph glyph-name="ninesuperior" unicode="&#x2079;" horiz-adv-x="289" d="M44 408 C68 399 92 396 113 396 C209 396 262 474 262 577 C262 656 226 713 145 713 C68 713 24 660 24 599 C24 535 69 507 124 507 C154 507 175 514 192 523 C184 470 159 444 112 444 C92 444 73 446 44 461 L44 408 Z M142 553 C106 553 89 571 89 608 C89 648 108 666 141 666 C183 666 196 633 196 577 L196 565 C182 558 165 553 142 553 L142 553 Z " />
<glyph glyph-name="plussuperior" unicode="&#x207a;" horiz-adv-x="328" d="M18 526 L137 526 L137 409 L191 409 L191 526 L310 526 L310 578 L191 578 L191 694 L137 694 L137 578 L18 578 L18 526 Z " />
<glyph glyph-name="minussuperior" unicode="&#x207b;" horiz-adv-x="368" d="M38 526 L330 526 L330 578 L38 578 L38 526 Z " />
<glyph glyph-name="equalsuperior" unicode="&#x207c;" horiz-adv-x="353" d="M38 459 L316 459 L316 513 L38 513 L38 459 Z M38 591 L316 591 L316 645 L38 645 L38 591 Z " />
<glyph glyph-name="parenleftsuperior" unicode="&#x207d;" horiz-adv-x="190" d="M195 306 C172 330 82 430 82 580 C82 726 169 819 193 841 L134 841 C110 821 19 733 19 578 C19 429 86 356 132 306 L195 306 Z " />
<glyph glyph-name="parenrightsuperior" unicode="&#x207e;" horiz-adv-x="190" d="M60 306 C104 356 173 429 173 578 C173 733 85 820 60 841 L-2 841 C22 819 109 725 109 578 C109 430 20 330 -4 306 L60 306 Z " />
<glyph glyph-name="n.superior" unicode="&#x207f;" horiz-adv-x="369" d="M49 400 L120 400 L120 626 C145 639 175 652 197 652 C239 652 253 633 253 586 L253 400 L325 400 L325 602 C325 683 289 713 230 713 C185 713 143 693 114 674 L108 707 L35 707 L49 632 L49 400 Z " />
<glyph glyph-name="zeroinferior" unicode="&#x2080;" horiz-adv-x="301" d="M147 -4 C229 -4 274 56 274 156 C274 238 245 313 152 313 C70 313 27 248 27 147 C27 55 63 -4 147 -4 L147 -4 Z M150 44 C101 44 94 97 94 150 C94 201 99 263 147 263 C197 263 205 199 205 154 C205 101 202 44 150 44 L150 44 Z " />
<glyph glyph-name="oneinferior" unicode="&#x2081;" horiz-adv-x="197" d="M150 0 L150 312 L111 312 L11 282 L11 237 L82 248 L82 0 L150 0 Z " />
<glyph glyph-name="twoinferior" unicode="&#x2082;" horiz-adv-x="275" d="M173 219 C173 162 103 105 23 39 L23 0 L250 0 L250 52 L116 52 L116 54 C192 113 241 168 241 225 C241 287 188 313 130 313 C96 313 56 304 31 284 L31 232 C65 259 95 263 121 263 C148 263 173 249 173 219 L173 219 Z " />
<glyph glyph-name="threeinferior" unicode="&#x2083;" horiz-adv-x="261" d="M108 -4 C177 -4 235 26 235 93 C235 133 206 162 165 166 L165 168 C186 174 221 197 221 240 C221 286 178 313 120 313 C88 313 55 303 31 284 L31 232 C60 256 89 262 111 262 C136 262 156 250 156 227 C156 197 119 176 80 173 L80 135 C140 133 171 120 171 87 C171 61 148 44 118 44 C89 44 60 47 28 63 L28 11 C45 2 68 -4 108 -4 L108 -4 Z " />
<glyph glyph-name="fourinferior" unicode="&#x2084;" horiz-adv-x="279" d="M149 0 L216 0 L216 76 L259 76 L259 123 L216 123 L216 312 L150 312 L13 122 L13 76 L149 76 L149 0 Z M70 123 L145 233 L149 233 L149 123 L70 123 Z " />
<glyph glyph-name="fiveinferior" unicode="&#x2085;" horiz-adv-x="259" d="M109 -4 C163 -4 233 25 233 98 C233 164 185 194 105 194 L94 194 L100 259 L225 259 L225 308 L52 308 L37 145 C52 147 67 149 80 149 C142 149 169 131 169 95 C169 65 144 44 112 44 C85 44 56 49 26 64 L26 11 C46 3 74 -4 109 -4 L109 -4 Z " />
<glyph glyph-name="sixinferior" unicode="&#x2086;" horiz-adv-x="290" d="M144 -4 C221 -4 266 49 266 108 C266 173 220 200 165 200 C135 200 113 193 97 184 C105 237 129 264 178 264 C197 264 216 262 244 248 L244 301 C221 309 197 313 176 313 C81 313 26 231 26 132 C26 53 63 -4 144 -4 L144 -4 Z M147 155 C183 155 199 135 199 101 C199 66 182 43 147 43 C106 43 94 76 94 132 L94 142 C107 149 124 155 147 155 L147 155 Z " />
<glyph glyph-name="seveninferior" unicode="&#x2087;" horiz-adv-x="237" d="M95 0 L230 274 L230 308 L17 308 L17 259 L164 259 L33 2 L34 0 L95 0 Z " />
<glyph glyph-name="eightinferior" unicode="&#x2088;" horiz-adv-x="290" d="M263 85 C263 122 239 143 209 157 C237 176 256 204 256 236 C256 287 207 313 144 313 C83 313 37 274 37 228 C37 195 53 174 76 158 C46 139 26 108 26 80 C26 27 66 -4 140 -4 C205 -4 263 34 263 85 L263 85 Z M88 86 C88 108 93 123 109 140 C151 121 197 109 197 80 C197 51 172 42 145 42 C115 42 88 54 88 86 L88 86 Z M194 227 C194 210 186 190 169 174 C132 188 99 200 99 230 C99 256 117 264 143 264 C180 264 194 248 194 227 L194 227 Z " />
<glyph glyph-name="nineinferior" unicode="&#x2089;" horiz-adv-x="290" d="M45 8 C69 -1 93 -4 114 -4 C210 -4 263 74 263 177 C263 256 227 313 146 313 C69 313 25 260 25 199 C25 135 70 107 125 107 C155 107 176 114 193 123 C185 70 160 44 113 44 C93 44 74 46 45 61 L45 8 Z M143 153 C107 153 90 171 90 208 C90 248 109 266 142 266 C184 266 197 233 197 177 L197 165 C183 158 166 153 143 153 L143 153 Z " />
<glyph glyph-name="plus.inferior" unicode="&#x208a;" horiz-adv-x="328" d="M18 126 L137 126 L137 9 L191 9 L191 126 L310 126 L310 178 L191 178 L191 294 L137 294 L137 178 L18 178 L18 126 Z " />
<glyph glyph-name="minus.inferior" unicode="&#x208b;" horiz-adv-x="368" d="M38 126 L330 126 L330 178 L38 178 L38 126 Z " />
<glyph glyph-name="equal.inferior" unicode="&#x208c;" horiz-adv-x="353" d="M38 59 L316 59 L316 113 L38 113 L38 59 Z M38 191 L316 191 L316 245 L38 245 L38 191 Z " />
<glyph glyph-name="parenleft.inferior" unicode="&#x208d;" horiz-adv-x="191" d="M195 -94 C172 -70 82 30 82 180 C82 326 169 419 193 441 L134 441 C110 421 19 333 19 178 C19 29 86 -44 132 -94 L195 -94 Z " />
<glyph glyph-name="parenright.inferior" unicode="&#x208e;" horiz-adv-x="192" d="M60 -94 C104 -44 173 29 173 178 C173 333 85 420 60 441 L-2 441 C22 419 109 325 109 178 C109 30 20 -70 -4 -94 L60 -94 Z " />
<glyph glyph-name="a.inferior" unicode="&#x2090;" horiz-adv-x="325" d="M218 0 L291 0 L279 73 L279 217 C279 290 225 314 160 314 C121 314 67 305 42 294 L42 233 C70 243 115 252 148 252 C176 252 207 248 207 203 L207 175 L174 175 C78 175 23 143 23 81 C23 29 56 -5 114 -5 C157 -5 192 14 212 30 L218 0 Z M136 48 C107 48 96 65 96 88 C96 117 118 129 166 129 L207 129 L207 72 C184 58 157 48 136 48 L136 48 Z " />
<glyph glyph-name="e.inferior" unicode="&#x2091;" horiz-adv-x="337" d="M302 20 L302 74 C273 61 229 53 194 53 C139 53 104 79 99 138 L310 138 L310 165 C310 251 264 314 172 314 C82 314 25 244 25 148 C25 48 83 -5 181 -5 C232 -5 273 3 302 20 L302 20 Z M170 255 C208 255 229 227 232 185 L101 185 C108 241 138 255 170 255 L170 255 Z " />
<glyph glyph-name="o.inferior" unicode="&#x2092;" horiz-adv-x="352" d="M173 -5 C266 -5 325 68 325 155 C325 263 276 314 178 314 C87 314 25 239 25 152 C25 43 82 -5 173 -5 L173 -5 Z M177 53 C114 53 102 101 102 155 C102 205 111 255 175 255 C243 255 250 200 250 153 C250 100 240 53 177 53 L177 53 Z " />
<glyph glyph-name="x.inferior" unicode="&#x2093;" horiz-adv-x="341" d="M99 307 L11 307 L130 155 L2 0 L86 0 L168 106 L171 106 L243 0 L334 0 L215 159 L332 307 L254 307 L180 206 L173 206 L99 307 Z " />
<glyph glyph-name="h.inferior" unicode="&#x2095;" horiz-adv-x="367" d="M250 0 L323 0 L323 202 C323 283 287 313 228 313 C187 313 147 295 119 277 L119 479 L47 479 L47 0 L119 0 L119 226 C144 239 174 252 195 252 C238 252 250 233 250 186 L250 0 Z " />
<glyph glyph-name="k.inferior" unicode="&#x2096;" horiz-adv-x="332" d="M232 0 L320 0 L210 176 L324 307 L240 307 L134 176 L134 161 L232 0 Z M47 0 L119 0 L119 479 L47 479 L47 0 Z " />
<glyph glyph-name="l.inferior" unicode="&#x2097;" horiz-adv-x="174" d="M51 0 L123 0 L123 479 L51 479 L51 0 Z " />
<glyph glyph-name="m.inferior" unicode="&#x2098;" horiz-adv-x="548" d="M432 0 L504 0 L504 202 C504 283 467 313 408 313 C363 313 324 291 297 272 C281 301 252 313 215 313 C175 313 140 295 113 278 L108 307 L35 307 L49 232 L49 0 L120 0 L120 230 C141 242 164 252 183 252 C227 252 239 233 239 186 L239 0 L312 0 L312 202 C312 211 311 220 310 229 C332 241 356 252 375 252 C419 252 432 233 432 186 L432 0 Z " />
<glyph glyph-name="n.inferior" unicode="&#x2099;" horiz-adv-x="369" d="M49 0 L120 0 L120 226 C145 239 175 252 197 252 C239 252 253 233 253 186 L253 0 L325 0 L325 202 C325 283 289 313 230 313 C185 313 143 293 114 274 L108 307 L35 307 L49 232 L49 0 Z " />
<glyph glyph-name="p.inferior" unicode="&#x209a;" horiz-adv-x="353" d="M49 -141 L120 -141 L120 -2 C134 -4 151 -5 168 -5 C255 -5 327 51 327 169 C327 259 285 314 211 314 C174 314 142 303 112 285 L108 307 L35 307 L49 232 L49 -141 Z M181 255 C231 255 251 225 251 158 C251 105 239 53 169 53 C155 53 135 55 120 57 L120 241 C140 248 162 255 181 255 L181 255 Z " />
<glyph glyph-name="s.inferior" unicode="&#x209b;" horiz-adv-x="295" d="M140 -5 C206 -5 270 23 270 93 C270 162 211 177 163 187 C128 194 97 201 97 226 C97 242 120 256 149 256 C182 256 208 251 258 231 L258 293 C230 308 185 314 154 314 C87 314 28 279 28 217 C28 158 82 141 130 129 C168 120 204 113 204 88 C204 64 176 52 148 52 C110 52 75 61 31 77 L31 15 C61 4 97 -5 140 -5 L140 -5 Z " />
<glyph glyph-name="t.inferior" unicode="&#x209c;" horiz-adv-x="273" d="M13 248 L68 248 L68 90 C68 19 117 -5 169 -5 C200 -5 229 -1 248 9 L248 64 C233 60 213 54 196 54 C163 54 141 62 140 99 L140 248 L242 248 L242 307 L140 307 L140 388 L68 388 L68 307 L13 307 L13 248 Z " />
<glyph glyph-name="colonsign" unicode="&#x20a1;" horiz-adv-x="627" d="M219 -92 L289 -92 L322 -9 L338 -9 C416 -9 484 11 512 30 L512 113 C460 83 414 71 355 71 L604 685 L534 685 L487 569 C472 574 454 580 431 584 L472 685 L403 685 L365 591 C356 592 347 592 338 592 C143 592 43 457 43 287 C43 178 77 96 144 46 L88 -92 L157 -92 L200 15 C217 8 236 2 255 -1 L219 -92 Z M146 302 C146 438 223 514 333 514 L185 147 C159 185 146 236 146 302 L146 302 Z M235 99 L400 509 C419 506 438 500 456 493 L288 78 C268 83 251 90 235 99 L235 99 Z " />
<glyph glyph-name="cruzeiro" unicode="&#x20a2;" horiz-adv-x="581" d="M343 -9 C422 -9 489 11 518 30 L518 113 C465 82 418 71 357 71 L357 210 C388 235 428 263 478 263 C490 263 503 262 516 258 L516 339 C501 343 488 344 473 344 C431 344 385 316 349 280 L338 335 L252 335 L270 229 L270 85 C195 114 151 186 151 302 C151 438 228 513 340 513 C404 513 457 503 518 467 L518 559 C485 572 441 592 344 592 C152 592 49 458 49 287 C49 100 154 -9 343 -9 L343 -9 Z " />
<glyph glyph-name="franc" unicode="&#x20a3;" horiz-adv-x="668" d="M81 0 L178 0 L178 263 L373 263 L379 232 L379 0 L468 0 L468 211 C500 237 540 265 592 265 C605 265 618 263 632 259 L632 343 C616 347 603 348 588 348 C544 348 497 318 460 283 L449 340 L178 340 L178 505 L464 505 L464 583 L81 583 L81 0 Z " />
<glyph glyph-name="lira" unicode="&#x20a4;" horiz-adv-x="499" d="M380 367 L189 367 C185 387 183 406 183 422 C183 474 229 513 288 513 C347 513 391 497 431 463 L431 555 C398 577 347 592 283 592 C197 592 96 538 96 418 C96 402 97 384 100 367 L57 367 L57 298 L112 298 L124 247 L57 247 L57 178 L135 178 L135 169 C135 136 125 107 107 73 L54 73 L54 0 L457 0 L457 73 L195 73 C207 107 216 144 218 178 L380 178 L380 247 L213 247 C210 264 207 281 203 298 L380 298 L380 367 Z " />
<glyph glyph-name="mill" unicode="&#x20a5;" horiz-adv-x="766" d="M624 0 L714 0 L714 297 C714 414 668 460 579 460 C548 460 520 452 494 442 L536 574 L461 574 L409 409 C386 444 349 460 299 460 C237 460 183 431 144 403 L135 451 L45 451 L64 343 L64 0 L153 0 L153 340 C188 361 226 381 260 381 C328 381 344 349 344 277 L344 205 L241 -120 L316 -120 L354 0 L434 0 L434 252 L468 360 C492 372 517 381 541 381 C608 381 624 349 624 277 L624 0 Z " />
<glyph glyph-name="naira" unicode="&#x20a6;" horiz-adv-x="728" d="M115 0 L208 0 L208 204 L372 204 L520 0 L608 0 L608 204 L683 204 L683 272 L608 272 L608 324 L683 324 L683 391 L608 391 L608 583 L515 583 L515 391 L346 391 L202 583 L115 583 L115 391 L48 391 L48 324 L115 324 L115 272 L48 272 L48 204 L115 204 L115 0 Z M396 324 L515 324 L515 272 L435 272 L396 324 Z M208 324 L284 324 L322 272 L208 272 L208 324 Z M513 168 L486 204 L515 204 L515 168 L513 168 Z M208 426 L210 426 L235 391 L208 391 L208 426 Z " />
<glyph glyph-name="pesetas" unicode="&#x20a7;" horiz-adv-x="1229" d="M81 0 L178 0 L178 212 L236 212 C398 212 477 296 477 401 C477 525 394 583 275 583 L81 583 L81 0 Z M1002 -8 C1094 -8 1183 34 1183 134 C1183 232 1101 253 1030 269 C977 280 932 292 932 333 C932 364 969 385 1014 385 C1061 385 1099 379 1166 351 L1166 432 C1126 452 1067 460 1021 460 C928 460 846 411 846 323 C846 236 921 212 990 194 C1048 180 1101 168 1101 127 C1101 88 1060 66 1013 66 C961 66 915 77 850 101 L850 21 C892 5 941 -8 1002 -8 L1002 -8 Z M497 375 L574 375 L574 130 C573 34 634 -8 710 -8 C755 -8 796 -1 822 13 L822 83 C800 76 771 69 745 69 C697 69 664 82 663 143 L663 375 L813 375 L813 451 L663 451 L663 570 L574 570 L574 451 L497 451 L497 375 Z M237 506 C326 505 377 471 377 398 C377 308 313 291 224 289 L178 289 L178 506 L237 506 Z " />
<glyph glyph-name="rupee" unicode="&#x20a8;" horiz-adv-x="873" d="M624 62 C545 62 472 88 415 172 C414 172 389 212 372 240 C442 273 476 333 476 402 C476 525 394 583 275 583 L81 583 L81 0 L178 0 L178 214 L236 214 C253 214 269 215 284 217 C306 182 340 128 342 127 C397 41 465 -8 618 -8 C711 -8 828 26 828 134 C828 232 745 253 675 269 C622 280 577 292 577 333 C577 364 614 385 659 385 C706 385 744 379 811 351 L811 432 C771 452 712 460 665 460 C573 460 491 411 491 323 C491 236 565 212 635 194 C693 180 745 169 745 128 C745 81 687 62 624 62 L624 62 Z M237 507 C326 506 376 472 376 399 C376 310 314 290 224 290 L178 290 L178 507 L237 507 Z " />
<glyph glyph-name="won" unicode="&#x20a9;" horiz-adv-x="966" d="M907 583 L809 583 L751 394 L590 394 L539 583 L431 583 L373 394 L218 394 L172 583 L66 583 L117 394 L47 394 L47 328 L135 328 L147 284 L47 284 L47 218 L164 218 L223 0 L333 0 L401 218 L541 218 L601 0 L712 0 L785 218 L918 218 L918 284 L807 284 L821 328 L918 328 L918 394 L843 394 L907 583 Z M608 328 L731 328 L718 284 L620 284 L608 328 Z M234 328 L353 328 L340 284 L245 284 L234 328 Z M424 291 L436 328 L511 328 L522 290 L523 284 L422 284 L424 291 Z M284 118 L260 218 L319 218 L289 118 L284 118 Z M664 120 L638 218 L698 218 L669 120 L664 120 Z M473 445 L479 445 L493 394 L457 394 L473 445 Z " />
<glyph glyph-name="sheqel" unicode="&#x20aa;" horiz-adv-x="702" d="M81 0 L149 0 L149 485 L279 485 C384 485 397 448 397 355 L397 244 L465 244 L465 354 C465 533 424 583 240 583 L81 583 L81 0 Z M242 0 L368 0 C590 0 629 67 629 280 L629 583 L560 583 L560 284 C560 135 532 99 397 99 L311 99 L311 331 L242 331 L242 0 Z " />
<glyph glyph-name="dong" unicode="&#x20ab;" horiz-adv-x="534" d="M197 579 L349 579 L349 521 C324 524 289 527 265 527 C146 527 46 457 46 309 C46 171 137 127 217 127 C275 127 320 147 356 174 L366 134 L451 134 L435 220 L435 579 L488 579 L488 642 L435 642 L435 709 L349 709 L349 642 L197 642 L197 579 Z M241 194 C172 194 136 234 136 322 C136 426 186 461 269 461 C294 461 324 456 349 451 L349 227 C306 204 278 194 241 194 L241 194 Z M59 0 L465 0 L465 75 L59 75 L59 0 Z " />
<glyph glyph-name="Euro" unicode="&#x20ac;" horiz-adv-x="574" d="M43 326 L106 326 C104 312 104 298 104 284 L104 259 L43 259 L43 194 L111 194 C135 64 217 -9 365 -9 C435 -9 491 5 520 23 L520 105 C470 75 431 70 379 70 C299 70 243 110 219 194 L414 194 L414 259 L208 259 C207 272 207 285 207 300 C207 309 207 317 208 326 L414 326 L414 391 L220 391 C245 470 304 514 372 514 C421 514 461 508 520 478 L520 566 C487 580 447 591 372 591 C239 591 150 508 118 391 L43 391 L43 326 Z " />
<glyph glyph-name="uni20AD" unicode="&#x20ad;" horiz-adv-x="596" d="M98 0 L195 0 L195 267 L227 267 L431 0 L547 0 L335 267 L526 267 L526 340 L330 340 L554 583 L447 583 L235 340 L195 340 L195 583 L98 583 L98 340 L45 340 L45 267 L98 267 L98 0 Z " />
<glyph glyph-name="uni20AE" unicode="&#x20ae;" horiz-adv-x="574" d="M33 505 L238 505 L238 325 L123 277 L123 206 L238 254 L238 203 L123 155 L123 84 L238 132 L238 0 L335 0 L335 173 L455 224 L455 295 L335 244 L335 295 L455 346 L455 417 L335 366 L335 505 L543 505 L543 583 L33 583 L33 505 Z " />
<glyph glyph-name="uni20B1" unicode="&#x20b1;" horiz-adv-x="608" d="M106 0 L203 0 L203 212 L261 212 C380 212 455 258 485 324 L568 324 L568 378 L500 378 C501 385 502 393 502 401 C502 407 502 414 501 420 L568 420 L568 474 L490 474 C463 548 392 583 300 583 L106 583 L106 474 L49 474 L49 420 L106 420 L106 378 L49 378 L49 324 L106 324 L106 0 Z M402 398 C402 391 402 384 401 378 L203 378 L203 420 L400 420 C401 413 402 406 402 398 L402 398 Z M249 289 L203 289 L203 324 L376 324 C350 297 304 290 249 289 L249 289 Z M262 506 C310 505 347 495 371 474 L203 474 L203 506 L262 506 Z " />
<glyph glyph-name="uni20B4" unicode="&#x20b4;" horiz-adv-x="550" d="M501 390 L459 390 C466 406 470 425 470 446 C470 552 381 592 276 592 C203 592 145 577 106 557 L106 466 C151 495 212 513 273 513 C325 513 376 494 376 449 C376 426 368 407 354 390 L47 390 L47 323 L240 323 C211 310 183 297 159 280 L47 280 L47 214 L103 214 C93 194 88 170 88 143 C88 29 181 -9 296 -9 C354 -9 411 3 466 26 L466 118 C422 93 351 72 289 72 C225 72 177 97 177 148 C177 174 187 195 204 214 L501 214 L501 280 L325 280 C353 291 381 305 404 323 L501 323 L501 390 Z " />
<glyph glyph-name="uni20B9" unicode="&#x20b9;" horiz-adv-x="500" d="M454 414 L386 414 C378 454 356 486 323 507 L437 507 L458 583 L60 583 L60 507 L158 507 C229 504 273 467 287 414 L60 414 L60 344 L287 344 C273 280 216 256 139 256 L59 256 L59 181 L150 181 C167 181 183 182 198 184 L315 0 L431 0 L285 211 C342 241 375 290 385 344 L433 344 L454 414 Z " />
<glyph glyph-name="uni2113" unicode="&#x2113;" horiz-adv-x="406" d="M22 185 L45 132 C58 141 76 152 97 165 L97 156 C97 44 129 -8 213 -8 C275 -8 312 5 351 30 L325 88 C307 74 277 59 247 59 C202 59 187 86 187 175 L187 225 C209 241 230 257 248 273 C330 336 384 402 384 474 C384 569 315 592 249 592 C156 592 97 521 97 399 L97 232 L22 185 Z M187 427 C187 487 206 526 245 526 C286 526 299 499 299 467 C299 409 256 354 203 308 L187 294 L187 427 Z " />
<glyph glyph-name="uni2116" unicode="&#x2116;" horiz-adv-x="994" d="M650 170 L939 170 L939 229 L650 229 L650 170 Z M791 273 C884 273 944 346 944 433 C944 542 894 592 796 592 C706 592 644 517 644 429 C644 321 699 273 791 273 L791 273 Z M796 331 C732 331 720 379 720 433 C720 482 729 533 793 533 C862 533 869 478 869 431 C869 378 858 331 796 331 L796 331 Z M81 0 L174 0 L174 426 L176 426 L486 0 L574 0 L574 583 L481 583 L481 168 L479 168 L168 583 L81 583 L81 0 Z " />
<glyph glyph-name="uni2117" unicode="&#x2117;" horiz-adv-x="700" d="M350 -14 C517 -14 653 120 653 289 C653 458 517 592 350 592 C183 592 47 458 47 289 C47 120 183 -14 350 -14 L350 -14 Z M350 18 C200 18 79 139 79 289 C79 439 200 560 350 560 C500 560 621 439 621 289 C621 139 500 18 350 18 L350 18 Z M242 109 L314 109 L314 223 L350 223 C461 223 515 268 515 347 C515 423 459 459 377 459 L242 459 L242 109 Z M349 399 C407 398 440 388 440 346 C440 294 401 283 342 283 L314 283 L314 399 L349 399 Z " />
<glyph glyph-name="servicemark" unicode="&#x2120;" horiz-adv-x="684" d="M274 298 L330 298 L351 505 L353 505 L413 298 L480 298 L544 503 L546 503 L565 298 L625 298 L596 583 L519 583 L454 375 L450 375 L387 583 L305 583 L274 298 Z M64 311 C92 300 120 294 148 294 C205 294 254 316 254 378 C254 434 205 452 163 468 C129 480 120 490 120 507 C120 528 136 539 162 539 C191 539 221 529 243 515 L243 570 C224 580 195 587 159 587 C107 587 63 556 63 504 C63 456 99 434 135 421 C173 407 197 397 197 373 C197 349 183 344 153 344 C122 344 86 354 64 366 L64 311 Z " />
<glyph glyph-name="trademark" unicode="&#x2122;" horiz-adv-x="732" d="M321 298 L377 298 L398 505 L400 505 L460 298 L527 298 L591 503 L593 503 L612 298 L672 298 L643 583 L566 583 L501 375 L497 375 L434 583 L352 583 L321 298 Z M59 534 L154 534 L154 298 L213 298 L213 534 L310 534 L310 583 L59 583 L59 534 Z " />
<glyph glyph-name="Omega" unicode="&#x2126;" horiz-adv-x="709" d="M351 592 C162 592 56 450 56 314 C56 213 114 121 191 80 L191 78 L54 78 L54 0 L296 0 L296 74 C215 130 160 209 160 306 C160 430 235 514 352 514 C469 514 549 430 549 306 C549 209 495 131 414 74 L414 0 L654 0 L654 78 L515 78 L515 80 C596 129 653 227 653 328 C653 464 542 592 351 592 L351 592 Z " />
<glyph glyph-name="estimated" unicode="&#x212e;" horiz-adv-x="564" d="M293 -8 C377 -8 453 22 501 94 L464 125 C423 71 371 45 297 45 C215 45 160 104 160 166 L160 215 L519 215 L519 261 C518 392 427 465 294 465 C146 465 47 357 47 217 C47 68 153 -8 293 -8 L293 -8 Z M160 261 L160 285 C160 365 210 423 294 423 C372 423 405 357 405 285 L405 261 L160 261 Z " />
<glyph glyph-name="onethird" unicode="&#x2153;" horiz-adv-x="636" d="M172 253 L172 565 L133 565 L33 535 L33 490 L104 501 L104 253 L172 253 Z M469 -4 C538 -4 596 26 596 93 C596 133 567 162 526 166 L526 168 C547 174 582 197 582 240 C582 286 539 313 481 313 C449 313 416 303 392 284 L392 232 C421 256 450 262 472 262 C497 262 517 250 517 227 C517 197 480 176 441 173 L441 135 C501 133 532 120 532 87 C532 61 509 44 479 44 C450 44 421 47 389 63 L389 11 C406 2 429 -4 469 -4 L469 -4 Z M162 0 L511 543 L511 548 L449 548 L100 5 L100 0 L162 0 Z " />
<glyph glyph-name="twothirds" unicode="&#x2154;" horiz-adv-x="663" d="M195 476 C195 419 125 362 45 296 L45 257 L272 257 L272 309 L138 309 L138 311 C214 370 263 425 263 482 C263 544 210 570 152 570 C118 570 78 561 53 541 L53 489 C87 516 117 520 143 520 C170 520 195 506 195 476 L195 476 Z M496 -4 C565 -4 623 26 623 93 C623 133 594 162 553 166 L553 168 C574 174 609 197 609 240 C609 286 566 313 508 313 C476 313 443 303 419 284 L419 232 C448 256 477 262 499 262 C524 262 544 250 544 227 C544 197 507 176 468 173 L468 135 C528 133 559 120 559 87 C559 61 536 44 506 44 C477 44 448 47 416 63 L416 11 C433 2 456 -4 496 -4 L496 -4 Z M198 0 L547 543 L547 548 L485 548 L136 5 L136 0 L198 0 Z " />
<glyph glyph-name="uni215B" unicode="&#x215b;" horiz-adv-x="659" d="M618 85 C618 122 594 143 564 157 C592 176 611 204 611 236 C611 287 562 313 499 313 C438 313 392 274 392 228 C392 195 408 174 431 158 C401 139 381 108 381 80 C381 27 421 -4 495 -4 C560 -4 618 34 618 85 L618 85 Z M157 0 L506 543 L506 548 L444 548 L95 5 L95 0 L157 0 Z M173 253 L173 565 L134 565 L34 535 L34 490 L105 501 L105 253 L173 253 Z M443 86 C443 108 448 123 464 140 C506 121 552 109 552 80 C552 51 527 42 500 42 C470 42 443 54 443 86 L443 86 Z M549 227 C549 210 541 190 524 174 C487 188 454 200 454 230 C454 256 472 264 498 264 C535 264 549 248 549 227 L549 227 Z " />
<glyph glyph-name="arrowleft" unicode="&#x2190;" horiz-adv-x="545" d="M257 91 L155 226 L545 226 L545 303 L156 303 L257 439 L167 439 L37 264 L168 91 L257 91 Z " />
<glyph glyph-name="arrowup" unicode="&#x2191;" horiz-adv-x="464" d="M406 436 L233 567 L58 436 L58 346 L194 448 L194 59 L270 59 L270 449 L406 346 L406 436 Z " />
<glyph glyph-name="arrowright" unicode="&#x2192;" horiz-adv-x="543" d="M377 91 L508 264 L377 439 L287 439 L389 303 L0 303 L0 226 L390 226 L287 91 L377 91 Z " />
<glyph glyph-name="arrowdown" unicode="&#x2193;" horiz-adv-x="464" d="M58 190 L232 59 L406 191 L406 280 L270 178 L270 567 L194 567 L194 179 L58 280 L58 190 Z " />
<glyph glyph-name="uni2196" unicode="&#x2196;" horiz-adv-x="464" d="M267 523 L52 494 L21 277 L84 214 L109 382 L384 107 L438 161 L163 436 L330 460 L267 523 Z " />
<glyph glyph-name="uni2197" unicode="&#x2197;" horiz-adv-x="464" d="M438 277 L407 493 L192 523 L129 460 L296 436 L21 161 L75 106 L350 381 L375 214 L438 277 Z " />
<glyph glyph-name="uni2198" unicode="&#x2198;" horiz-adv-x="464" d="M195 103 L412 134 L441 349 L378 413 L354 245 L80 520 L25 466 L300 191 L132 167 L195 103 Z " />
<glyph glyph-name="uni2199" unicode="&#x2199;" horiz-adv-x="464" d="M26 349 L56 134 L272 103 L335 167 L168 191 L442 466 L388 521 L113 245 L89 413 L26 349 Z " />
<glyph glyph-name="partialdiff" unicode="&#x2202;" horiz-adv-x="505" d="M249 460 C122 460 35 351 35 222 C35 65 115 -8 243 -8 C375 -8 456 105 456 232 C456 419 434 584 183 680 L141 621 C270 558 304 524 333 447 C311 457 284 460 249 460 L249 460 Z M362 224 C362 139 339 67 247 67 C156 67 129 136 129 227 C129 309 153 384 245 384 C285 384 316 380 354 364 C357 328 362 264 362 224 L362 224 Z " />
<glyph glyph-name="Delta" unicode="&#x2206;" horiz-adv-x="564" d="M533 0 L533 65 L336 583 L244 583 L32 63 L33 0 L533 0 Z M280 473 L285 473 L427 78 L127 78 L280 473 Z " />
<glyph glyph-name="product" unicode="&#x220f;" horiz-adv-x="719" d="M219 -207 L219 505 L497 505 L497 -207 L596 -207 L596 505 L691 505 L691 583 L28 583 L28 505 L121 505 L121 -207 L219 -207 Z " />
<glyph glyph-name="summation" unicode="&#x2211;" horiz-adv-x="505" d="M38 -207 L470 -207 L470 -125 L148 -125 L332 216 L159 505 L447 505 L447 583 L41 583 L41 514 L224 210 L38 -136 L38 -207 Z " />
<glyph glyph-name="minus" unicode="&#x2212;" horiz-adv-x="547" d="M64 263 L483 263 L483 329 L64 329 L64 263 Z " />
<glyph glyph-name="radical" unicode="&#x221a;" horiz-adv-x="536" d="M185 0 L274 0 L526 653 L433 653 L239 115 L235 115 L120 451 L25 451 L185 0 Z " />
<glyph glyph-name="infinity" unicode="&#x221e;" horiz-adv-x="848" d="M217 506 C114 506 50 398 50 294 C50 190 106 82 217 82 C307 82 374 166 424 239 C476 166 543 82 632 82 C743 82 798 190 798 294 C798 397 734 506 632 506 C542 506 476 421 424 349 C374 421 307 506 217 506 L217 506 Z M217 152 C158 152 124 219 124 294 C124 368 158 435 217 435 C284 435 344 353 385 294 C344 234 284 152 217 152 L217 152 Z M632 152 C564 152 505 234 463 294 C505 353 564 435 632 435 C690 435 724 368 724 294 C724 219 690 152 632 152 L632 152 Z " />
<glyph glyph-name="integral" unicode="&#x222b;" horiz-adv-x="421" d="M168 -35 C168 -106 141 -138 88 -138 C63 -138 45 -136 19 -131 L19 -207 C35 -211 58 -213 83 -213 C182 -213 254 -156 254 -43 L254 477 C254 553 280 585 334 585 C359 585 377 583 402 577 L402 655 C386 659 364 661 339 661 C239 661 168 604 168 491 L168 -35 Z " />
<glyph glyph-name="approxequal" unicode="&#x2248;" horiz-adv-x="515" d="M337 319 C383 319 424 344 450 376 L413 426 C391 404 373 390 345 390 C276 390 252 435 172 435 C124 435 81 407 62 383 L94 334 C112 348 131 365 166 365 C228 365 270 319 337 319 L337 319 Z M338 134 C384 134 425 159 451 191 L414 241 C392 219 374 205 346 205 C277 205 253 250 173 250 C125 250 82 222 63 198 L95 149 C113 163 132 180 167 180 C229 180 271 134 338 134 L338 134 Z " />
<glyph glyph-name="notequal" unicode="&#x2260;" horiz-adv-x="511" d="M59 358 L270 358 L196 236 L59 236 L59 166 L154 166 L66 21 L133 21 L221 166 L453 166 L453 236 L264 236 L338 358 L453 358 L453 427 L380 427 L464 564 L395 564 L312 427 L59 427 L59 358 Z " />
<glyph glyph-name="lessequal" unicode="&#x2264;" horiz-adv-x="525" d="M57 31 L459 31 L459 102 L57 102 L57 31 Z M459 138 L459 212 L171 336 L171 340 L459 461 L459 535 L58 362 L58 311 L459 138 Z " />
<glyph glyph-name="greaterequal" unicode="&#x2265;" horiz-adv-x="526" d="M468 102 L66 102 L66 31 L468 31 L468 102 Z M468 311 L468 362 L67 535 L67 461 L354 339 L354 336 L67 212 L67 138 L468 311 Z " />
<glyph glyph-name="uni2460" unicode="&#x2460;" horiz-adv-x="691" d="M345 0 C506 0 637 130 637 291 C637 452 506 583 345 583 C184 583 54 452 54 291 C54 130 184 0 345 0 L345 0 Z M345 36 C206 36 94 152 94 291 C94 430 206 547 345 547 C484 547 597 430 597 291 C597 152 484 36 345 36 L345 36 Z M384 138 L384 450 L345 450 L245 421 L245 375 L316 386 L316 138 L384 138 Z " />
<glyph glyph-name="uni2461" unicode="&#x2461;" horiz-adv-x="691" d="M345 0 C506 0 637 130 637 291 C637 452 506 583 345 583 C184 583 54 452 54 291 C54 130 184 0 345 0 L345 0 Z M345 36 C206 36 94 152 94 291 C94 430 206 547 345 547 C484 547 597 430 597 291 C597 152 484 36 345 36 L345 36 Z M232 138 L458 138 L458 190 L323 190 L323 192 C400 251 449 306 449 363 C449 425 397 451 339 451 C304 451 264 442 240 422 L240 370 C274 397 304 401 330 401 C357 401 382 388 382 357 C382 300 311 244 232 178 L232 138 Z " />
<glyph glyph-name="uni2462" unicode="&#x2462;" horiz-adv-x="691" d="M345 0 C506 0 637 130 637 291 C637 452 506 583 345 583 C184 583 54 452 54 291 C54 130 184 0 345 0 L345 0 Z M345 36 C206 36 94 152 94 291 C94 430 206 547 345 547 C484 547 597 430 597 291 C597 152 484 36 345 36 L345 36 Z M330 134 C399 134 458 164 458 231 C458 271 428 300 387 305 L387 307 C408 313 443 336 443 379 C443 425 400 451 342 451 C310 451 277 442 253 422 L253 370 C282 394 311 400 333 400 C358 400 378 389 378 365 C378 336 341 314 302 311 L302 273 C362 271 393 258 393 225 C393 199 370 182 340 182 C311 182 282 186 250 202 L250 149 C268 141 290 134 330 134 L330 134 Z " />
<glyph glyph-name="uni2463" unicode="&#x2463;" horiz-adv-x="691" d="M345 0 C506 0 637 130 637 291 C637 452 506 583 345 583 C184 583 54 452 54 291 C54 130 184 0 345 0 L345 0 Z M345 36 C206 36 94 152 94 291 C94 430 206 547 345 547 C484 547 597 430 597 291 C597 152 484 36 345 36 L345 36 Z M333 138 L400 138 L400 215 L443 215 L443 261 L400 261 L400 450 L337 450 L197 261 L197 215 L333 215 L333 138 Z M255 261 L333 367 L333 261 L255 261 Z " />
<glyph glyph-name="uni2464" unicode="&#x2464;" horiz-adv-x="691" d="M345 0 C506 0 637 130 637 291 C637 452 506 583 345 583 C184 583 54 452 54 291 C54 130 184 0 345 0 L345 0 Z M345 36 C206 36 94 152 94 291 C94 430 206 547 345 547 C484 547 597 430 597 291 C597 152 484 36 345 36 L345 36 Z M325 134 C379 134 449 164 449 236 C449 302 401 333 320 333 L310 333 L316 398 L441 398 L441 446 L267 446 L253 284 C267 286 282 287 296 287 C358 287 385 269 385 233 C385 203 360 182 327 182 C301 182 272 188 242 202 L242 149 C262 141 289 134 325 134 L325 134 Z " />
<glyph glyph-name="uni2465" unicode="&#x2465;" horiz-adv-x="691" d="M345 0 C506 0 637 130 637 291 C637 452 506 583 345 583 C184 583 54 452 54 291 C54 130 184 0 345 0 L345 0 Z M345 36 C206 36 94 152 94 291 C94 430 206 547 345 547 C484 547 597 430 597 291 C597 152 484 36 345 36 L345 36 Z M364 402 C383 402 402 400 431 386 L431 440 C407 447 383 451 362 451 C267 451 213 369 213 270 C213 191 249 134 330 134 C408 134 452 188 452 247 C452 311 407 339 351 339 C320 339 299 331 283 322 C292 376 314 402 364 402 L364 402 Z M333 293 C369 293 385 274 385 240 C385 205 368 181 334 181 C293 181 280 214 280 268 L280 280 C294 287 310 293 333 293 L333 293 Z " />
<glyph glyph-name="uni2466" unicode="&#x2466;" horiz-adv-x="691" d="M345 0 C506 0 637 130 637 291 C637 452 506 583 345 583 C184 583 54 452 54 291 C54 130 184 0 345 0 L345 0 Z M345 36 C206 36 94 152 94 291 C94 430 206 547 345 547 C484 547 597 430 597 291 C597 152 484 36 345 36 L345 36 Z M319 137 L453 412 L453 445 L240 445 L240 397 L387 397 L257 140 L258 137 L319 137 Z " />
<glyph glyph-name="uni2467" unicode="&#x2467;" horiz-adv-x="691" d="M345 0 C506 0 637 130 637 291 C637 452 506 583 345 583 C184 583 54 452 54 291 C54 130 184 0 345 0 L345 0 Z M345 36 C206 36 94 152 94 291 C94 430 206 547 345 547 C484 547 597 430 597 291 C597 152 484 36 345 36 L345 36 Z M459 222 C459 258 435 279 405 294 C432 312 452 341 452 373 C452 424 402 450 340 450 C278 450 232 411 232 365 C232 333 249 311 272 296 C242 277 221 246 221 217 C221 165 262 133 335 133 C401 133 459 171 459 222 L459 222 Z M390 364 C390 347 382 328 365 311 C328 325 294 339 294 368 C294 393 312 402 338 402 C375 402 390 385 390 364 L390 364 Z M283 223 C283 246 289 260 304 277 C347 257 392 245 392 216 C392 187 366 179 340 179 C311 179 283 191 283 223 L283 223 Z " />
<glyph glyph-name="uni2468" unicode="&#x2468;" horiz-adv-x="691" d="M345 0 C506 0 637 130 637 291 C637 452 506 583 345 583 C184 583 54 452 54 291 C54 130 184 0 345 0 L345 0 Z M345 36 C206 36 94 152 94 291 C94 430 206 547 345 547 C484 547 597 430 597 291 C597 152 484 36 345 36 L345 36 Z M313 181 C293 181 274 183 245 198 L245 145 C269 136 293 133 314 133 C410 133 464 212 464 314 C464 393 427 450 346 450 C269 450 225 397 225 337 C225 272 271 245 325 245 C355 245 376 252 393 261 C385 208 360 181 313 181 L313 181 Z M343 290 C307 290 291 308 291 345 C291 385 309 403 342 403 C383 403 397 371 397 316 L397 303 C384 296 366 290 343 290 L343 290 Z " />
<glyph glyph-name="uni2469" unicode="&#x2469;" horiz-adv-x="691" d="M345 0 C506 0 637 130 637 291 C637 452 506 583 345 583 C184 583 54 452 54 291 C54 130 184 0 345 0 L345 0 Z M345 36 C206 36 94 152 94 291 C94 430 206 547 345 547 C484 547 597 430 597 291 C597 152 484 36 345 36 L345 36 Z M277 140 L277 447 L240 447 L144 418 L144 374 L213 384 L213 140 L277 140 Z M431 136 C510 136 553 194 553 294 C553 374 525 447 436 447 C356 447 315 384 315 285 C315 195 349 136 431 136 L431 136 Z M434 182 C386 182 379 235 379 287 C379 337 383 399 430 399 C480 399 487 335 487 291 C487 239 485 182 434 182 L434 182 Z " />
<glyph glyph-name="uni24CA" unicode="&#x24ca;" horiz-adv-x="700" d="M350 -14 C517 -14 653 120 653 289 C653 458 517 592 350 592 C183 592 47 458 47 289 C47 120 183 -14 350 -14 L350 -14 Z M353 107 C429 107 512 157 512 262 L512 425 L439 425 L439 269 C439 206 406 173 352 173 C298 173 265 199 265 263 L265 425 L192 425 L192 252 C192 152 270 107 353 107 L353 107 Z M350 18 C200 18 79 139 79 289 C79 439 200 560 350 560 C500 560 621 439 621 289 C621 139 500 18 350 18 L350 18 Z " />
<glyph glyph-name="uni25B2" unicode="&#x25b2;" horiz-adv-x="590" d="M563 21 L295 449 L27 21 L563 21 Z " />
<glyph glyph-name="uni25B6" unicode="&#x25b6;" horiz-adv-x="538" d="M84 -33 L512 235 L84 503 L84 -33 Z " />
<glyph glyph-name="uni25B8" unicode="&#x25b8;" horiz-adv-x="378" d="M352 218 L85 486 L85 -50 L352 218 Z " />
<glyph glyph-name="uni25BA" unicode="&#x25ba;" horiz-adv-x="838" d="M806 218 L84 486 L84 -50 L806 218 Z " />
<glyph glyph-name="uni25BC" unicode="&#x25bc;" horiz-adv-x="610" d="M37 448 L305 20 L573 448 L37 448 Z " />
<glyph glyph-name="uni25C0" unicode="&#x25c0;" horiz-adv-x="538" d="M454 -33 L454 503 L26 235 L454 -33 Z " />
<glyph glyph-name="uni25C2" unicode="&#x25c2;" horiz-adv-x="379" d="M294 -50 L294 486 L27 219 L294 -50 Z " />
<glyph glyph-name="uni25C4" unicode="&#x25c4;" horiz-adv-x="838" d="M754 -50 L754 486 L32 218 L754 -50 Z " />
<glyph glyph-name="lozenge" unicode="&#x25ca;" horiz-adv-x="495" d="M212 0 L284 0 L470 286 L285 583 L213 583 L26 286 L212 0 Z M249 73 L114 288 L247 509 L384 285 L249 73 Z " />
<glyph glyph-name="uni2610" unicode="&#x2610;" horiz-adv-x="753" d="M85 0 L668 0 L668 583 L85 583 L85 0 Z M145 59 L145 523 L608 523 L608 59 L145 59 Z " />
<glyph glyph-name="uni2611" unicode="&#x2611;" horiz-adv-x="753" d="M85 0 L668 0 L668 583 L85 583 L85 0 Z M145 59 L145 523 L608 523 L608 59 L145 59 Z M256 85 L276 85 C400 216 503 369 580 483 L572 492 C542 489 498 469 486 450 C434 370 336 220 287 162 C261 214 256 283 255 319 L233 326 C220 322 192 296 183 283 C179 259 218 114 256 85 L256 85 Z " />
<glyph glyph-name="uni261A" unicode="&#x261a;" horiz-adv-x="973" d="M44 453 C27 391 81 386 81 386 L287 400 L342 365 C342 365 266 272 262 246 C262 246 278 200 315 186 C315 186 325 129 367 126 C367 126 376 88 422 74 L498 101 C498 101 574 88 718 140 L907 126 L907 365 L730 401 C730 401 680 443 617 459 L315 509 L44 453 Z " />
<glyph glyph-name="uni261B" unicode="&#x261b;" horiz-adv-x="973" d="M658 509 L356 459 C293 443 243 401 243 401 L66 365 L66 126 L255 140 C399 88 475 101 475 101 L551 74 C597 88 606 126 606 126 C648 129 658 186 658 186 C695 200 711 246 711 246 C707 272 631 365 631 365 L686 400 L892 386 C892 386 946 391 929 453 L658 509 Z " />
<glyph glyph-name="uni261C" unicode="&#x261c;" horiz-adv-x="973" d="M44 453 C27 391 81 386 81 386 L287 400 L342 365 C342 365 266 272 262 246 C262 246 278 200 315 186 C315 186 325 129 367 126 C367 126 376 88 422 74 L498 101 C498 101 574 88 718 140 L907 126 L907 365 L730 401 C730 401 680 443 617 459 L315 509 L44 453 Z M668 186 C596 157 493 154 493 154 L424 127 C400 129 396 157 396 157 L447 196 L511 215 L492 255 L428 231 L374 184 C360 186 356 208 356 208 L423 269 L473 291 L456 326 L404 300 L339 232 C328 231 317 249 317 249 L370 318 L422 369 L311 426 L125 418 C125 418 105 428 115 442 L314 467 L597 414 C642 398 690 360 690 360 L852 326 L852 178 L668 186 Z " />
<glyph glyph-name="uni261D" unicode="&#x261d;" horiz-adv-x="510" d="M45 473 L95 171 C111 108 153 58 153 58 L189 -119 L428 -119 L414 70 C466 214 453 290 453 290 L480 366 C466 412 428 421 428 421 C425 463 368 473 368 473 C354 510 308 526 308 526 C282 522 189 446 189 446 L154 501 L168 707 C168 707 163 761 101 744 L45 473 Z M376 -64 L228 -64 L194 98 C194 98 156 146 140 191 L87 474 L112 673 C126 683 136 663 136 663 L128 477 L185 366 L236 418 L305 471 C305 471 323 460 322 449 L254 384 L228 332 L263 315 L285 365 L346 432 C346 432 368 428 370 414 L323 360 L299 296 L339 277 L358 341 L397 392 C397 392 425 388 427 364 L400 295 C400 295 397 192 368 120 L376 -64 Z " />
<glyph glyph-name="uni261E" unicode="&#x261e;" horiz-adv-x="973" d="M658 509 L356 459 C293 443 243 401 243 401 L66 365 L66 126 L255 140 C399 88 475 101 475 101 L551 74 C597 88 606 126 606 126 C648 129 658 186 658 186 C695 200 711 246 711 246 C707 272 631 365 631 365 L686 400 L892 386 C892 386 946 391 929 453 L658 509 Z M121 178 L121 326 L283 360 C283 360 331 398 376 414 L659 467 L858 442 C868 428 848 418 848 418 L662 426 L551 369 L603 318 L656 249 C656 249 645 231 634 232 L569 300 L517 326 L500 291 L550 269 L617 208 C617 208 613 186 599 184 L545 231 L481 255 L462 215 L526 196 L577 157 C577 157 573 129 549 127 L480 154 C480 154 377 157 305 186 L121 178 Z " />
<glyph glyph-name="uni261F" unicode="&#x261f;" horiz-adv-x="509" d="M465 169 L415 471 C399 534 357 584 357 584 L321 761 L82 761 L96 572 C44 428 57 352 57 352 L30 276 C44 230 82 221 82 221 C85 179 142 169 142 169 C156 132 202 116 202 116 C228 120 321 196 321 196 L356 141 L342 -65 C342 -65 347 -119 409 -102 L465 169 Z M134 706 L282 706 L316 544 C316 544 354 496 370 451 L423 168 L398 -31 C384 -41 374 -21 374 -21 L382 165 L325 276 L274 224 L205 171 C205 171 187 182 188 193 L256 258 L282 310 L247 327 L225 277 L164 210 C164 210 142 214 140 228 L187 282 L211 346 L171 365 L152 301 L113 250 C113 250 85 254 83 278 L110 347 C110 347 113 450 142 522 L134 706 Z " />
<glyph glyph-name="uni267E" unicode="&#x267e;" horiz-adv-x="700" d="M350 -14 C517 -14 653 120 653 289 C653 458 517 592 350 592 C183 592 47 458 47 289 C47 120 183 -14 350 -14 L350 -14 Z M350 18 C200 18 79 139 79 289 C79 439 200 560 350 560 C500 560 621 439 621 289 C621 139 500 18 350 18 L350 18 Z M247 406 C193 406 159 348 159 291 C159 235 189 176 247 176 C289 176 325 223 349 258 C374 220 406 176 451 176 C510 176 540 235 540 291 C540 347 506 406 451 406 C409 406 373 360 349 325 C323 363 292 406 247 406 L247 406 Z M247 229 C223 229 209 257 209 291 C209 326 223 355 247 355 C275 355 305 320 325 291 C306 264 274 229 247 229 L247 229 Z M451 229 C424 229 393 264 373 291 C392 320 424 355 451 355 C474 355 489 326 489 291 C489 257 474 229 451 229 L451 229 Z " />
<glyph glyph-name="uni2713" unicode="&#x2713;" horiz-adv-x="475" d="M117 85 L137 85 C261 216 364 369 441 483 L433 492 C403 489 359 469 347 450 C295 370 197 220 148 162 C122 214 117 283 116 319 L94 326 C81 322 53 296 44 283 C40 259 79 114 117 85 L117 85 Z " />
<glyph glyph-name="uni2776" unicode="&#x2776;" horiz-adv-x="691" d="M345 0 C506 0 637 130 637 291 C637 452 506 583 345 583 C184 583 54 452 54 291 C54 130 184 0 345 0 L345 0 Z M316 138 L316 386 L245 375 L245 421 L345 450 L384 450 L384 138 L316 138 Z " />
<glyph glyph-name="uni2777" unicode="&#x2777;" horiz-adv-x="691" d="M345 0 C506 0 637 130 637 291 C637 452 506 583 345 583 C184 583 54 452 54 291 C54 130 184 0 345 0 L345 0 Z M232 178 C311 244 382 300 382 357 C382 388 357 401 330 401 C304 401 274 397 240 370 L240 422 C264 442 304 451 339 451 C397 451 449 425 449 363 C449 307 400 251 324 193 C324 192 323 191 323 190 L458 190 L458 138 L232 138 L232 178 Z " />
<glyph glyph-name="uni2778" unicode="&#x2778;" horiz-adv-x="691" d="M345 0 C506 0 637 130 637 291 C637 452 506 583 345 583 C184 583 54 452 54 291 C54 130 184 0 345 0 L345 0 Z M330 134 C290 134 268 141 250 149 L250 202 C282 186 311 182 340 182 C370 182 393 199 393 225 C393 258 362 271 302 273 L302 311 C341 314 378 336 378 365 C378 389 358 400 333 400 C311 400 282 394 253 370 L253 422 C277 442 310 451 342 451 C400 451 443 425 443 379 C443 336 408 313 387 307 L387 305 C428 300 458 271 458 231 C458 164 399 134 330 134 L330 134 Z " />
<glyph glyph-name="uni2779" unicode="&#x2779;" horiz-adv-x="691" d="M345 0 C506 0 637 130 637 291 C637 452 506 583 345 583 C184 583 54 452 54 291 C54 130 184 0 345 0 L345 0 Z M333 215 L197 215 L197 261 L337 450 L400 450 L400 261 L443 261 L443 215 L400 215 L400 138 L333 138 L333 215 Z M333 261 L333 367 L255 261 L333 261 Z " />
<glyph glyph-name="uni277A" unicode="&#x277a;" horiz-adv-x="691" d="M345 0 C506 0 637 130 637 291 C637 452 506 583 345 583 C184 583 54 452 54 291 C54 130 184 0 345 0 L345 0 Z M325 134 C289 134 262 141 242 149 L242 202 C272 188 301 182 327 182 C360 182 385 203 385 233 C385 269 358 287 296 287 C282 287 267 286 253 284 L267 446 L441 446 L441 398 L316 398 L310 333 L320 333 C401 333 449 302 449 236 C449 164 379 134 325 134 L325 134 Z " />
<glyph glyph-name="uni277B" unicode="&#x277b;" horiz-adv-x="691" d="M345 0 C506 0 637 130 637 291 C637 452 506 583 345 583 C184 583 54 452 54 291 C54 130 184 0 345 0 L345 0 Z M364 402 C314 402 292 376 283 322 C299 331 320 339 351 339 C407 339 452 311 452 247 C452 188 408 134 330 134 C249 134 213 191 213 270 C213 369 267 451 362 451 C383 451 407 447 431 440 L431 386 C402 400 383 402 364 402 L364 402 Z M333 293 C310 293 294 287 280 280 L280 269 C280 214 293 181 334 181 C368 181 385 205 385 240 C385 274 369 293 333 293 L333 293 Z " />
<glyph glyph-name="uni277C" unicode="&#x277c;" horiz-adv-x="691" d="M345 0 C506 0 637 130 637 291 C637 452 506 583 345 583 C184 583 54 452 54 291 C54 130 184 0 345 0 L345 0 Z M258 137 L257 140 L387 397 L240 397 L240 445 L453 445 L453 412 L319 137 L258 137 Z " />
<glyph glyph-name="uni277D" unicode="&#x277d;" horiz-adv-x="691" d="M345 0 C506 0 637 130 637 291 C637 452 506 583 345 583 C184 583 54 452 54 291 C54 130 184 0 345 0 L345 0 Z M459 222 C459 171 401 133 335 133 C262 133 221 165 221 217 C221 246 242 277 272 296 C249 311 232 333 232 365 C232 411 278 450 340 450 C402 450 452 424 452 373 C452 341 432 312 405 294 C435 279 459 258 459 222 L459 222 Z M390 364 C390 385 375 402 338 402 C312 402 294 393 294 368 C294 339 328 325 365 311 C382 328 390 347 390 364 L390 364 Z M283 223 C283 191 311 179 340 179 C366 179 392 187 392 216 C392 245 347 257 304 277 C289 260 283 246 283 223 L283 223 Z " />
<glyph glyph-name="uni277E" unicode="&#x277e;" horiz-adv-x="691" d="M345 0 C506 0 637 130 637 291 C637 452 506 583 345 583 C184 583 54 452 54 291 C54 130 184 0 345 0 L345 0 Z M313 181 C360 181 385 208 393 261 C376 252 355 245 325 245 C271 245 225 272 225 337 C225 397 269 450 346 450 C427 450 464 393 464 314 C464 212 410 133 314 133 C293 133 269 136 245 145 L245 198 C274 183 293 181 313 181 L313 181 Z M343 290 C366 290 384 296 397 303 L397 315 C397 371 384 403 342 403 C309 403 291 385 291 345 C291 308 307 290 343 290 L343 290 Z " />
<glyph glyph-name="uni277F" unicode="&#x277f;" horiz-adv-x="691" d="M345 0 C506 0 637 130 637 291 C637 452 506 583 345 583 C184 583 54 452 54 291 C54 130 184 0 345 0 L345 0 Z M213 140 L213 384 L144 374 L144 418 L240 447 L277 447 L277 140 L213 140 Z M431 136 C349 136 315 195 315 285 C315 384 356 447 436 447 C525 447 553 374 553 294 C553 194 510 136 431 136 L431 136 Z M434 182 C485 182 487 239 487 291 C487 335 480 399 430 399 C383 399 379 337 379 287 C379 235 386 182 434 182 L434 182 Z " />
<glyph glyph-name="uni2780" unicode="&#x2780;" horiz-adv-x="691" d="M345 0 C506 0 637 130 637 291 C637 452 506 583 345 583 C184 583 54 452 54 291 C54 130 184 0 345 0 L345 0 Z M345 36 C206 36 94 152 94 291 C94 430 206 547 345 547 C484 547 597 430 597 291 C597 152 484 36 345 36 L345 36 Z M386 139 L386 447 L348 447 L250 418 L250 374 L320 385 L320 139 L386 139 Z " />
<glyph glyph-name="uni2781" unicode="&#x2781;" horiz-adv-x="691" d="M345 0 C506 0 637 130 637 291 C637 452 506 583 345 583 C184 583 54 452 54 291 C54 130 184 0 345 0 L345 0 Z M345 36 C206 36 94 152 94 291 C94 430 206 547 345 547 C484 547 597 430 597 291 C597 152 484 36 345 36 L345 36 Z M233 139 L457 139 L457 190 L322 190 C323 191 324 191 324 192 C399 250 447 305 447 361 C447 422 396 448 339 448 C305 448 266 439 241 420 L241 369 C275 395 305 399 330 399 C357 399 382 386 382 356 C382 299 312 243 233 178 L233 139 Z " />
<glyph glyph-name="uni2782" unicode="&#x2782;" horiz-adv-x="691" d="M345 0 C506 0 637 130 637 291 C637 452 506 583 345 583 C184 583 54 452 54 291 C54 130 184 0 345 0 L345 0 Z M345 36 C206 36 94 152 94 291 C94 430 206 547 345 547 C484 547 597 430 597 291 C597 152 484 36 345 36 L345 36 Z M330 135 C399 135 456 164 456 231 C456 270 427 299 386 303 L386 305 C407 311 442 334 442 377 C442 422 399 448 342 448 C311 448 279 439 255 419 L255 368 C283 392 312 398 334 398 C359 398 378 387 378 363 C378 334 342 312 303 309 L303 272 C362 270 393 258 393 225 C393 199 370 182 341 182 C312 182 283 185 252 201 L252 150 C269 141 291 135 330 135 L330 135 Z " />
<glyph glyph-name="uni2783" unicode="&#x2783;" horiz-adv-x="691" d="M345 0 C506 0 637 130 637 291 C637 452 506 583 345 583 C184 583 54 452 54 291 C54 130 184 0 345 0 L345 0 Z M345 36 C206 36 94 152 94 291 C94 430 206 547 345 547 C484 547 597 430 597 291 C597 152 484 36 345 36 L345 36 Z M333 140 L399 140 L399 215 L441 215 L441 261 L399 261 L399 448 L337 448 L199 260 L199 215 L333 215 L333 140 Z M256 261 L333 365 L333 261 L256 261 Z " />
<glyph glyph-name="uni2784" unicode="&#x2784;" horiz-adv-x="691" d="M345 0 C506 0 637 130 637 291 C637 452 506 583 345 583 C184 583 54 452 54 291 C54 130 184 0 345 0 L345 0 Z M345 36 C206 36 94 152 94 291 C94 430 206 547 345 547 C484 547 597 430 597 291 C597 152 484 36 345 36 L345 36 Z M326 135 C379 135 448 164 448 236 C448 301 401 331 321 331 L311 331 L317 396 L440 396 L440 443 L269 443 L255 283 C269 285 284 286 297 286 C359 286 385 269 385 233 C385 203 361 182 328 182 C302 182 274 188 244 202 L244 150 C264 142 291 135 326 135 L326 135 Z " />
<glyph glyph-name="uni2785" unicode="&#x2785;" horiz-adv-x="691" d="M345 0 C506 0 637 130 637 291 C637 452 506 583 345 583 C184 583 54 452 54 291 C54 130 184 0 345 0 L345 0 Z M345 36 C206 36 94 152 94 291 C94 430 206 547 345 547 C484 547 597 430 597 291 C597 152 484 36 345 36 L345 36 Z M364 400 C383 400 402 398 430 384 L430 437 C407 444 383 448 363 448 C269 448 215 367 215 269 C215 192 251 135 331 135 C407 135 451 188 451 246 C451 310 406 337 351 337 C320 337 300 329 285 320 C293 374 315 400 364 400 L364 400 Z M334 292 C370 292 385 273 385 239 C385 204 369 181 334 181 C294 181 281 214 281 268 L281 279 C295 286 311 292 334 292 L334 292 Z " />
<glyph glyph-name="uni2786" unicode="&#x2786;" horiz-adv-x="691" d="M345 0 C506 0 637 130 637 291 C637 452 506 583 345 583 C184 583 54 452 54 291 C54 130 184 0 345 0 L345 0 Z M345 36 C206 36 94 152 94 291 C94 430 206 547 345 547 C484 547 597 430 597 291 C597 152 484 36 345 36 L345 36 Z M320 139 L452 410 L452 443 L243 443 L243 396 L388 396 L259 141 L260 139 L320 139 Z " />
<glyph glyph-name="uni2787" unicode="&#x2787;" horiz-adv-x="691" d="M345 0 C506 0 637 130 637 291 C637 452 506 583 345 583 C184 583 54 452 54 291 C54 130 184 0 345 0 L345 0 Z M345 36 C206 36 94 152 94 291 C94 430 206 547 345 547 C484 547 597 430 597 291 C597 152 484 36 345 36 L345 36 Z M457 223 C457 259 434 279 405 294 C431 312 450 340 450 372 C450 423 402 448 340 448 C280 448 234 410 234 364 C234 333 251 311 274 296 C244 277 224 247 224 218 C224 166 263 135 336 135 C400 135 457 173 457 223 L457 223 Z M390 363 C390 347 382 327 365 311 C329 325 295 338 295 367 C295 392 313 401 339 401 C375 401 390 384 390 363 L390 363 Z M284 224 C284 247 290 260 305 278 C347 257 392 246 392 217 C392 188 367 180 341 180 C312 180 284 192 284 224 L284 224 Z " />
<glyph glyph-name="uni2788" unicode="&#x2788;" horiz-adv-x="691" d="M345 0 C506 0 637 130 637 291 C637 452 506 583 345 583 C184 583 54 452 54 291 C54 130 184 0 345 0 L345 0 Z M345 36 C206 36 94 152 94 291 C94 430 206 547 345 547 C484 547 597 430 597 291 C597 152 484 36 345 36 L345 36 Z M314 182 C294 182 275 184 247 199 L247 147 C270 138 294 135 314 135 C409 135 462 213 462 314 C462 392 426 448 346 448 C270 448 227 395 227 336 C227 272 272 245 326 245 C355 245 376 253 393 261 C385 209 360 182 314 182 L314 182 Z M343 290 C307 290 291 308 291 344 C291 384 309 402 342 402 C383 402 397 370 397 315 L397 303 C383 295 366 290 343 290 L343 290 Z " />
<glyph glyph-name="uni278A" unicode="&#x278a;" horiz-adv-x="691" d="M345 0 C506 0 637 130 637 291 C637 452 506 583 345 583 C184 583 54 452 54 291 C54 130 184 0 345 0 L345 0 Z M308 140 L308 385 L238 374 L238 419 L337 448 L374 448 L374 140 L308 140 Z " />
<glyph glyph-name="uni278B" unicode="&#x278b;" horiz-adv-x="691" d="M345 0 C506 0 637 130 637 291 C637 452 506 583 345 583 C184 583 54 452 54 291 C54 130 184 0 345 0 L345 0 Z M233 177 C312 243 382 299 382 355 C382 385 357 399 330 399 C305 399 275 395 241 368 L241 419 C266 439 305 448 339 448 C396 448 447 422 447 361 C447 305 400 252 326 194 C326 193 324 190 322 189 L457 189 L457 139 L233 139 L233 177 Z " />
<glyph glyph-name="uni278C" unicode="&#x278c;" horiz-adv-x="691" d="M345 0 C506 0 637 130 637 291 C637 452 506 583 345 583 C184 583 54 452 54 291 C54 130 184 0 345 0 L345 0 Z M330 135 C291 135 269 141 252 150 L252 201 C283 185 312 182 341 182 C370 182 393 199 393 225 C393 258 362 270 303 272 L303 309 C342 312 378 334 378 363 C378 387 359 398 334 398 C312 398 283 392 255 368 L255 419 C279 439 311 448 342 448 C399 448 442 422 442 377 C442 334 407 311 386 305 L386 303 C427 299 456 270 456 231 C456 164 399 135 330 135 L330 135 Z " />
<glyph glyph-name="uni278D" unicode="&#x278d;" horiz-adv-x="691" d="M345 0 C506 0 637 130 637 291 C637 452 506 583 345 583 C184 583 54 452 54 291 C54 130 184 0 345 0 L345 0 Z M333 215 L199 215 L199 260 L337 447 L399 447 L399 260 L441 260 L441 215 L399 215 L399 139 L333 139 L333 215 Z M333 260 L333 365 L256 260 L333 260 Z " />
<glyph glyph-name="uni278E" unicode="&#x278e;" horiz-adv-x="691" d="M345 0 C506 0 637 130 637 291 C637 452 506 583 345 583 C184 583 54 452 54 291 C54 130 184 0 345 0 L345 0 Z M326 135 C291 135 264 142 244 150 L244 202 C274 188 302 182 329 182 C361 182 385 203 385 233 C385 269 359 287 297 287 C284 287 270 285 255 283 L270 443 L440 443 L440 396 L317 396 L311 331 L321 331 C401 331 448 301 448 236 C448 164 380 135 326 135 L326 135 Z " />
<glyph glyph-name="uni278F" unicode="&#x278f;" horiz-adv-x="691" d="M345 0 C506 0 637 130 637 291 C637 452 506 583 345 583 C184 583 54 452 54 291 C54 130 184 0 345 0 L345 0 Z M364 400 C315 400 293 373 285 320 C300 329 320 337 351 337 C406 337 451 310 451 246 C451 188 407 135 331 135 C251 135 215 192 215 269 C215 367 269 448 363 448 C383 448 407 444 430 436 L430 384 C402 398 383 400 364 400 L364 400 Z M334 292 C311 292 295 286 281 279 L281 268 C281 213 294 181 334 181 C369 181 385 204 385 239 C385 273 370 292 334 292 L334 292 Z " />
<glyph glyph-name="uni2790" unicode="&#x2790;" horiz-adv-x="691" d="M345 0 C506 0 637 130 637 291 C637 452 506 583 345 583 C184 583 54 452 54 291 C54 130 184 0 345 0 L345 0 Z M260 139 L259 142 L388 396 L242 396 L242 443 L452 443 L452 410 L319 139 L260 139 Z " />
<glyph glyph-name="uni2791" unicode="&#x2791;" horiz-adv-x="691" d="M345 0 C506 0 637 130 637 291 C637 452 506 583 345 583 C184 583 54 452 54 291 C54 130 184 0 345 0 L345 0 Z M457 223 C457 173 400 135 335 135 C263 135 223 166 223 218 C223 247 244 277 273 296 C251 311 234 333 234 364 C234 410 280 448 340 448 C401 448 450 423 450 372 C450 340 431 312 404 294 C433 279 457 259 457 223 L457 223 Z M389 363 C389 384 375 401 338 401 C312 401 295 392 295 367 C295 338 329 325 365 311 C382 327 389 347 389 363 L389 363 Z M284 224 C284 192 311 180 341 180 C366 180 392 188 392 217 C392 246 347 257 305 278 C290 260 284 247 284 224 L284 224 Z " />
<glyph glyph-name="uni2792" unicode="&#x2792;" horiz-adv-x="691" d="M345 0 C506 0 637 130 637 291 C637 452 506 583 345 583 C184 583 54 452 54 291 C54 130 184 0 345 0 L345 0 Z M314 182 C360 182 385 209 393 261 C376 253 355 245 326 245 C272 245 227 272 227 336 C227 395 270 448 346 448 C426 448 462 392 462 314 C462 213 409 135 315 135 C294 135 270 138 247 147 L247 199 C276 184 294 182 314 182 L314 182 Z M343 290 C366 290 384 295 397 303 L397 315 C397 370 383 402 343 402 C309 402 291 384 291 344 C291 308 307 290 343 290 L343 290 Z " />
<glyph glyph-name="uni301A" unicode="&#x301a;" horiz-adv-x="391" d="M74 -181 L350 -181 L350 -116 L279 -116 L279 613 L350 613 L350 679 L74 679 L74 -181 Z M150 613 L203 613 L203 -116 L150 -116 L150 613 Z " />
<glyph glyph-name="uni301B" unicode="&#x301b;" horiz-adv-x="391" d="M318 679 L41 679 L41 613 L112 613 L112 -116 L41 -116 L41 -181 L318 -181 L318 679 Z M242 613 L242 -116 L188 -116 L188 613 L242 613 Z " />
<glyph glyph-name="apple" unicode="&#xf8ff;" horiz-adv-x="1241" d="M390 318 L401 318 L401 328 L411 328 L411 338 L421 338 L421 347 L431 347 L431 388 L420 388 L420 348 L401 348 L401 388 L390 388 L390 347 L400 347 L400 329 L390 329 L390 318 Z M350 338 L371 338 L371 348 L351 348 L351 377 L371 377 L371 388 L351 388 L351 398 L340 398 L340 388 L330 388 L330 377 L340 377 L340 347 L350 347 L350 338 Z M590 338 L611 338 L611 348 L591 348 L591 377 L611 377 L611 388 L591 388 L591 398 L580 398 L580 388 L570 388 L570 377 L580 377 L580 347 L590 347 L590 338 Z M700 338 L731 338 L731 348 L701 348 L701 357 L731 357 L731 378 L721 378 L721 388 L700 388 L700 378 L690 378 L690 347 L700 347 L700 338 Z M880 338 L911 338 L911 348 L881 348 L881 357 L911 357 L911 378 L901 378 L901 388 L880 388 L880 378 L870 378 L870 347 L880 347 L880 338 Z M110 347 L121 347 L121 357 L131 357 L131 368 L121 368 L121 378 L110 378 L110 368 L100 368 L100 357 L110 357 L110 347 Z M180 347 L191 347 L191 357 L201 357 L201 368 L191 368 L191 378 L180 378 L180 368 L170 368 L170 357 L180 357 L180 347 Z M270 347 L281 347 L281 357 L291 357 L291 368 L281 368 L281 378 L270 378 L270 368 L260 368 L260 357 L270 357 L270 347 Z M520 338 L541 338 L541 347 L551 347 L551 378 L541 378 L541 388 L520 388 L520 378 L510 378 L510 347 L520 347 L520 338 Z M630 338 L641 338 L641 377 L660 377 L660 338 L671 338 L671 378 L661 378 L661 388 L641 388 L641 408 L630 408 L630 338 Z M960 347 L971 347 L971 357 L981 357 L981 368 L971 368 L971 378 L960 378 L960 368 L950 368 L950 357 L960 357 L960 347 Z M1050 347 L1061 347 L1061 357 L1071 357 L1071 368 L1061 368 L1061 378 L1050 378 L1050 368 L1040 368 L1040 357 L1050 357 L1050 347 Z M1120 347 L1131 347 L1131 357 L1141 357 L1141 368 L1131 368 L1131 378 L1120 378 L1120 368 L1110 368 L1110 357 L1120 357 L1120 347 Z M450 318 L461 318 L461 338 L481 338 L481 347 L491 347 L491 378 L481 378 L481 388 L450 388 L450 318 Z M780 318 L791 318 L791 388 L760 388 L760 378 L750 378 L750 347 L760 347 L760 338 L780 338 L780 318 Z M820 338 L851 338 L851 388 L840 388 L840 348 L821 348 L821 388 L810 388 L810 347 L820 347 L820 338 Z M240 328 L251 328 L251 338 L261 338 L261 348 L250 348 L250 338 L240 338 L240 328 Z M250 377 L261 377 L261 388 L251 388 L251 398 L240 398 L240 387 L250 387 L250 377 Z M300 328 L311 328 L311 338 L301 338 L301 348 L290 348 L290 338 L300 338 L300 328 Z M290 377 L301 377 L301 387 L311 387 L311 398 L300 398 L300 388 L290 388 L290 377 Z M930 328 L941 328 L941 338 L951 338 L951 348 L940 348 L940 338 L930 338 L930 328 Z M940 377 L951 377 L951 388 L941 388 L941 398 L930 398 L930 387 L940 387 L940 377 Z M990 328 L1001 328 L1001 338 L991 338 L991 348 L980 348 L980 338 L990 338 L990 328 Z M980 377 L991 377 L991 387 L1001 387 L1001 398 L990 398 L990 388 L980 388 L980 377 Z M160 338 L171 338 L171 348 L160 348 L160 338 Z M160 377 L171 377 L171 388 L160 388 L160 377 Z M200 338 L211 338 L211 348 L200 348 L200 338 Z M200 377 L211 377 L211 388 L200 388 L200 377 Z M461 348 L461 377 L480 377 L480 348 L461 348 Z M521 348 L521 377 L540 377 L540 348 L521 348 Z M701 368 L701 377 L720 377 L720 368 L701 368 Z M761 348 L761 377 L780 377 L780 348 L761 348 Z M881 368 L881 377 L900 377 L900 368 L881 368 Z M1030 338 L1041 338 L1041 348 L1030 348 L1030 338 Z M1030 377 L1041 377 L1041 388 L1030 388 L1030 377 Z M1070 338 L1081 338 L1081 348 L1070 348 L1070 338 Z M1070 377 L1081 377 L1081 388 L1070 388 L1070 377 Z " />
<glyph glyph-name="f_f" unicode="&#xfb00;" horiz-adv-x="596" d="M182 375 L383 375 L383 0 L472 0 L472 375 L574 375 L574 451 L472 451 L472 481 C472 555 503 584 554 584 C581 584 600 582 626 577 L626 655 C610 659 587 661 562 661 C453 661 383 601 383 487 L383 451 L182 451 L182 481 C182 555 210 584 262 584 C288 584 307 582 333 577 L333 655 C317 659 294 661 269 661 C160 661 92 601 92 487 L92 451 L25 451 L25 375 L92 375 L92 0 L182 0 L182 375 Z " />
<glyph glyph-name="fi" unicode="&#xfb01;" horiz-adv-x="540" d="M25 375 L92 375 L92 0 L182 0 L182 375 L385 375 L385 0 L474 0 L474 451 L182 451 L182 481 C182 555 213 584 264 584 C290 584 310 582 336 577 L336 655 C320 659 297 661 272 661 C163 661 92 601 92 487 L92 451 L25 451 L25 375 Z " />
<glyph glyph-name="fl" unicode="&#xfb02;" horiz-adv-x="553" d="M25 375 L92 375 L92 0 L182 0 L182 375 L281 375 L281 451 L182 451 L182 481 C182 555 213 584 264 584 C290 584 310 582 336 577 L336 655 C320 659 297 661 272 661 C163 661 92 601 92 487 L92 451 L25 451 L25 375 Z M392 0 L482 0 L482 653 L392 653 L392 0 Z " />
<glyph glyph-name="f_f_i" unicode="&#xfb03;" horiz-adv-x="832" d="M182 375 L384 375 L384 0 L473 0 L473 375 L676 375 L676 0 L766 0 L766 451 L473 451 L473 481 C473 555 504 584 555 584 C581 584 601 582 627 577 L627 655 C611 659 588 661 563 661 C454 661 384 601 384 487 L384 451 L182 451 L182 481 C182 555 210 584 262 584 C288 584 307 582 333 577 L333 655 C317 659 294 661 269 661 C160 661 92 601 92 487 L92 451 L25 451 L25 375 L92 375 L92 0 L182 0 L182 375 Z " />
<glyph glyph-name="f_f_l" unicode="&#xfb04;" horiz-adv-x="838" d="M384 0 L473 0 L473 375 L572 375 L572 451 L473 451 L473 481 C473 555 504 584 555 584 C581 584 601 582 627 577 L627 655 C611 659 588 661 563 661 C454 661 384 601 384 487 L384 451 L182 451 L182 481 C182 555 210 584 262 584 C288 584 307 582 333 577 L333 655 C317 659 294 661 269 661 C160 661 92 601 92 487 L92 451 L25 451 L25 375 L92 375 L92 0 L182 0 L182 375 L384 375 L384 0 Z M677 0 L766 0 L766 653 L677 653 L677 0 Z " />
</font>
</defs>
</svg>
