<svg xmlns="http://www.w3.org/2000/svg">
<defs>
<font id="Greta Sans Cnd Std Hea">
<font-face  font-family="Greta Sans Condensed Std" units-per-em="1000" ascent="710" descent="-290" font-style="normal" font-weight="800" font-stretch="condensed" cap-height="583" x-height="456" underline-position="-75" underline-thickness="50" />

<glyph glyph-name="NULL" d="" />
<glyph glyph-name="CR" unicode="&#xd;" horiz-adv-x="250" d="" />
<glyph glyph-name="space" unicode="&#x20;" horiz-adv-x="166" d="" />
<glyph glyph-name="exclam" unicode="&#x21;" horiz-adv-x="240" d="M41 346 L58 200 L181 200 L197 344 L197 583 L41 583 L41 346 Z M122 -8 C170 -8 198 29 198 64 C198 106 171 141 122 141 C75 141 44 104 44 64 C44 27 75 -8 122 -8 L122 -8 Z " />
<glyph glyph-name="quotedbl" unicode="&#x22;" horiz-adv-x="330" d="M36 460 L140 460 L163 690 L36 690 L36 460 Z M184 460 L288 460 L311 690 L184 690 L184 460 Z " />
<glyph glyph-name="numbersign" unicode="&#x23;" horiz-adv-x="445" d="M50 356 L100 356 L79 207 L32 207 L19 113 L65 113 L49 0 L153 0 L169 113 L227 113 L211 0 L314 0 L330 113 L382 113 L395 207 L343 207 L364 356 L413 356 L426 450 L378 450 L397 583 L294 583 L275 450 L217 450 L236 583 L133 583 L114 450 L63 450 L50 356 Z M203 356 L261 356 L240 207 L182 207 L203 356 Z " />
<glyph glyph-name="dollar" unicode="&#x24;" horiz-adv-x="375" d="M217 -84 L217 -6 C307 10 354 72 354 177 C354 284 295 318 242 347 C203 367 176 385 176 419 C176 446 201 468 239 468 C278 468 311 460 336 444 L336 568 C308 585 269 593 217 594 L217 666 L166 666 L166 590 C76 575 25 511 25 421 C25 347 64 294 109 267 C160 235 205 221 205 170 C205 138 184 118 149 118 C106 118 66 128 31 144 L31 11 C75 -5 125 -11 165 -11 L166 -11 L166 -84 L217 -84 Z " />
<glyph glyph-name="percent" unicode="&#x25;" horiz-adv-x="567" d="M139 281 C214 281 257 336 257 436 C257 547 214 595 139 595 C62 595 19 536 19 433 C19 328 62 281 139 281 L139 281 Z M140 353 C120 353 114 380 114 434 C114 497 120 520 138 520 C156 520 161 498 161 433 C161 375 155 353 140 353 L140 353 Z M291 347 L363 347 L480 564 L480 583 L369 583 L291 347 Z M429 -12 C504 -12 547 44 547 144 C547 254 504 302 429 302 C352 302 310 244 310 142 C310 36 352 -12 429 -12 L429 -12 Z M430 61 C410 61 404 88 404 143 C404 203 410 228 428 228 C447 228 452 206 452 141 C452 83 446 61 430 61 L430 61 Z M286 244 L215 244 L93 19 L93 0 L205 0 L286 244 Z " />
<glyph glyph-name="ampersand" unicode="&#x26;" horiz-adv-x="556" d="M536 315 L410 315 C402 261 386 217 365 183 C333 214 308 239 304 244 C296 251 289 258 283 265 C331 284 411 340 411 445 C411 543 333 595 239 595 C151 595 70 535 70 426 C70 384 89 336 115 291 C69 265 15 219 15 140 C15 40 90 -12 198 -12 C246 -12 295 4 342 33 C359 15 373 2 376 0 L537 0 L537 18 C531 21 485 65 436 113 C487 170 524 241 536 315 L536 315 Z M192 189 C198 183 236 142 276 101 C257 93 237 89 217 89 C179 89 153 112 153 162 C153 181 158 199 167 216 C175 206 184 197 192 189 L192 189 Z M203 423 C203 463 217 484 237 484 C259 484 271 461 271 427 C271 389 255 355 228 335 C211 364 203 393 203 423 L203 423 Z " />
<glyph glyph-name="quotesingle" unicode="&#x27;" horiz-adv-x="181" d="M36 460 L140 460 L163 690 L36 690 L36 460 Z " />
<glyph glyph-name="parenleft" unicode="&#x28;" horiz-adv-x="246" d="M241 -191 C197 -115 131 56 131 250 C131 435 191 583 236 651 L129 651 C85 587 23 425 23 249 C23 70 83 -116 132 -191 L241 -191 Z " />
<glyph glyph-name="parenright" unicode="&#x29;" horiz-adv-x="246" d="M10 652 C55 583 115 431 115 246 C115 53 50 -115 5 -191 L114 -191 C163 -118 223 66 223 245 C223 422 161 585 117 651 L10 652 Z " />
<glyph glyph-name="asterisk" unicode="&#x2a;" horiz-adv-x="338" d="M22 501 L124 463 L23 432 L65 356 L142 434 L125 319 L212 319 L187 435 L272 355 L315 432 L206 466 L314 500 L272 576 L184 498 L213 615 L125 615 L148 500 L67 576 L22 501 Z " />
<glyph glyph-name="plus" unicode="&#x2b;" horiz-adv-x="300" d="M22 251 L106 251 L106 115 L194 115 L194 251 L278 251 L278 349 L194 349 L194 484 L106 484 L106 349 L22 349 L22 251 Z " />
<glyph glyph-name="comma" unicode="&#x2c;" horiz-adv-x="222" d="M89 -170 C160 -84 195 -9 195 56 C195 116 159 145 107 145 C54 145 26 114 23 73 C52 55 58 33 58 5 C58 -42 37 -106 7 -162 L89 -170 Z " />
<glyph glyph-name="&amp;#x2d;" unicode="&#x2d;" horiz-adv-x="288" d="M36 197 L252 197 L252 289 L36 289 L36 197 Z " />
<glyph glyph-name="&amp;#xad;" unicode="&#xad;" horiz-adv-x="288" d="M36 197 L252 197 L252 289 L36 289 L36 197 Z " />
<glyph glyph-name="period" unicode="&#x2e;" horiz-adv-x="224" d="M112 -8 C166 -8 198 19 198 69 C198 117 167 147 112 147 C62 147 27 119 27 69 C27 17 62 -8 112 -8 L112 -8 Z " />
<glyph glyph-name="slash" unicode="&#x2f;" horiz-adv-x="285" d="M16 -93 L118 -93 L270 674 L168 674 L16 -93 Z " />
<glyph glyph-name="zero" unicode="0" horiz-adv-x="432" d="M214 -11 C361 -11 403 101 403 294 C403 492 368 595 218 595 C83 595 29 503 29 276 C29 84 69 -11 214 -11 L214 -11 Z M216 108 C184 108 175 145 175 287 C175 438 187 475 216 475 C246 475 256 427 256 294 C256 145 248 108 216 108 L216 108 Z " />
<glyph glyph-name="one" unicode="1" horiz-adv-x="295" d="M250 0 L250 583 L131 583 L18 551 L18 429 L87 439 L87 0 L250 0 Z " />
<glyph glyph-name="two" unicode="2" horiz-adv-x="366" d="M29 0 L337 0 L337 134 L183 134 L182 140 C263 227 333 325 333 434 C333 545 268 595 162 595 C106 595 58 581 31 565 L31 436 C52 451 82 455 102 455 C139 455 167 434 167 381 C167 293 86 189 29 103 L29 0 Z " />
<glyph glyph-name="three" unicode="3" horiz-adv-x="343" d="M142 -11 C238 -11 317 44 317 176 C317 255 270 310 209 321 L209 326 C267 345 309 392 309 465 C309 543 256 595 155 595 C111 595 59 586 32 571 L32 445 C49 456 72 461 90 461 C123 461 146 439 146 403 C146 360 109 335 74 329 L74 244 C121 242 156 224 156 180 C156 140 132 115 96 115 C78 115 53 118 30 127 L30 4 C59 -4 104 -11 142 -11 L142 -11 Z " />
<glyph glyph-name="four" unicode="4" horiz-adv-x="398" d="M336 0 L336 131 L372 131 L372 246 L336 246 L336 583 L143 583 L18 244 L18 131 L183 131 L183 0 L336 0 Z M117 246 L176 417 L183 417 L183 246 L117 246 Z " />
<glyph glyph-name="five" unicode="5" horiz-adv-x="355" d="M108 115 C91 115 51 118 32 125 L32 8 C67 -4 115 -7 153 -7 C244 -7 330 60 330 183 C330 321 259 354 190 354 C183 354 176 354 169 353 L173 450 L317 450 L317 583 L47 583 L37 247 C49 250 84 252 98 252 C135 252 174 236 174 185 C174 134 137 115 108 115 L108 115 Z " />
<glyph glyph-name="six" unicode="6" horiz-adv-x="404" d="M353 460 L353 582 C328 590 284 595 253 595 C106 595 27 477 27 259 C27 84 77 -11 207 -11 C323 -11 382 67 382 206 C382 292 356 375 258 375 C226 375 199 368 174 353 C185 437 213 476 271 476 C292 476 323 473 353 460 L353 460 Z M205 274 C226 274 241 256 241 196 C241 134 227 103 205 103 C180 103 169 155 169 248 L169 265 C180 270 192 274 205 274 L205 274 Z " />
<glyph glyph-name="seven" unicode="7" horiz-adv-x="340" d="M203 0 L325 505 L325 583 L19 583 L19 451 L165 451 L58 8 L59 0 L203 0 Z " />
<glyph glyph-name="eight" unicode="8" horiz-adv-x="419" d="M392 165 C392 246 353 285 308 312 C354 344 388 390 388 448 C388 541 320 595 210 595 C100 595 32 516 32 428 C32 355 63 314 101 284 C61 253 25 203 25 145 C25 40 103 -11 206 -11 C321 -11 392 67 392 165 L392 165 Z M154 161 C154 186 161 217 169 241 C211 217 247 193 247 145 C247 107 226 91 204 91 C173 91 154 112 154 161 L154 161 Z M261 430 C261 405 253 376 237 350 C203 369 176 392 176 436 C176 465 192 484 217 484 C243 484 261 465 261 430 L261 430 Z " />
<glyph glyph-name="nine" unicode="9" horiz-adv-x="404" d="M50 123 L50 1 C75 -7 119 -12 150 -12 C297 -12 376 106 376 324 C376 499 326 594 196 594 C80 594 21 516 21 377 C21 291 47 208 145 208 C177 208 204 214 228 229 C217 146 189 107 132 107 C111 107 80 110 50 123 L50 123 Z M198 309 C177 309 162 327 162 387 C162 449 176 480 198 480 C223 480 234 428 234 335 L234 317 C223 312 211 309 198 309 L198 309 Z " />
<glyph glyph-name="colon" unicode="&#x3a;" horiz-adv-x="242" d="M120 -8 C174 -8 206 19 206 69 C206 117 175 147 120 147 C70 147 35 119 35 69 C35 17 70 -8 120 -8 L120 -8 Z M120 308 C174 308 206 335 206 385 C206 433 175 463 120 463 C70 463 35 435 35 385 C35 333 70 308 120 308 L120 308 Z " />
<glyph glyph-name="semicolon" unicode="&#x3b;" horiz-adv-x="243" d="M101 -170 C172 -84 207 -9 207 56 C207 116 171 145 119 145 C66 145 38 114 35 73 C64 55 70 33 70 5 C70 -42 49 -106 19 -162 L101 -170 Z M120 308 C174 308 206 335 206 385 C206 433 175 463 120 463 C70 463 35 435 35 385 C35 333 70 308 120 308 L120 308 Z " />
<glyph glyph-name="less" unicode="&#x3c;" horiz-adv-x="319" d="M282 61 L282 158 L99 297 L99 301 L282 434 L283 528 L18 329 L18 260 L282 61 Z " />
<glyph glyph-name="equal" unicode="&#x3d;" horiz-adv-x="337" d="M37 161 L300 161 L300 245 L37 245 L37 161 Z M37 344 L300 344 L300 429 L37 429 L37 344 Z " />
<glyph glyph-name="greater" unicode="&#x3e;" horiz-adv-x="319" d="M300 260 L300 329 L37 528 L37 434 L216 300 L216 296 L37 158 L37 61 L300 260 Z " />
<glyph glyph-name="question" unicode="&#x3f;" horiz-adv-x="286" d="M67 198 L166 198 L166 259 C208 282 267 340 267 442 C267 544 206 591 128 591 C97 591 64 587 30 568 L30 467 C48 477 67 480 81 480 C107 480 118 459 118 417 C118 362 88 321 67 297 L67 198 Z M117 -8 C165 -8 193 29 193 64 C193 106 165 141 117 141 C70 141 39 104 39 64 C39 27 70 -8 117 -8 L117 -8 Z " />
<glyph glyph-name="at" unicode="&#x40;" horiz-adv-x="733" d="M373 7 L417 -8 C613 22 715 162 715 316 C715 540 575 642 398 642 C174 642 21 447 21 198 C21 -51 137 -212 356 -212 C461 -212 552 -192 621 -138 L621 -54 C544 -107 460 -126 375 -126 C204 -126 118 -19 118 202 C118 417 225 562 390 562 C564 562 622 470 622 309 C622 218 585 117 507 83 L497 90 L554 458 L447 458 L444 442 C427 451 409 457 393 457 C336 457 286 421 254 378 C215 323 189 205 189 109 C189 65 194 23 202 -7 L294 -7 L390 115 L373 7 Z M310 132 C309 149 308 167 308 184 C308 263 325 324 361 375 C367 377 374 376 381 376 C392 376 409 371 430 357 L408 222 L325 128 L310 132 Z " />
<glyph glyph-name="A" unicode="A" horiz-adv-x="430" d="M1 0 L158 0 L173 117 L250 117 L262 0 L422 0 L325 583 L113 583 L1 0 Z M195 292 L213 454 L220 454 L233 293 L238 243 L189 243 L195 292 Z " />
<glyph glyph-name="B" unicode="B" horiz-adv-x="459" d="M41 0 L289 0 C389 0 442 72 442 166 C442 269 383 302 335 308 L335 310 C392 321 426 362 426 445 C426 530 377 583 282 583 L41 583 L41 0 Z M220 242 C257 242 277 225 277 184 C277 137 259 119 227 119 L204 119 L204 242 L220 242 Z M218 464 C246 464 263 447 263 404 C263 369 249 347 217 347 L204 347 L204 464 L218 464 Z " />
<glyph glyph-name="C" unicode="C" horiz-adv-x="381" d="M235 -11 C281 -11 329 -4 356 9 L356 133 C328 120 307 119 285 119 C216 119 189 172 189 294 C189 397 215 463 284 463 C307 463 329 461 356 446 L356 576 C330 587 287 595 243 595 C83 595 22 479 22 278 C22 73 94 -11 235 -11 L235 -11 Z " />
<glyph glyph-name="D" unicode="D" horiz-adv-x="492" d="M41 0 L263 0 C377 0 471 108 471 305 C471 524 356 583 263 583 L41 583 L41 0 Z M221 457 C273 457 304 438 304 292 C304 156 274 126 223 126 L204 126 L204 457 L221 457 Z " />
<glyph glyph-name="E" unicode="E" horiz-adv-x="380" d="M41 0 L355 0 L355 126 L204 126 L204 236 L333 236 L333 354 L204 354 L204 457 L353 457 L353 583 L41 583 L41 0 Z " />
<glyph glyph-name="F" unicode="F" horiz-adv-x="351" d="M41 0 L204 0 L204 203 L319 203 L319 322 L204 322 L204 457 L337 457 L337 583 L41 583 L41 0 Z " />
<glyph glyph-name="G" unicode="G" horiz-adv-x="465" d="M279 -11 C342 -11 384 -2 436 24 L436 313 L284 313 L284 121 C276 119 269 118 262 118 C215 118 187 155 187 294 C187 418 244 456 321 456 C359 456 392 453 425 437 L425 568 C382 587 342 595 287 595 C107 595 21 482 21 278 C21 74 99 -11 279 -11 L279 -11 Z " />
<glyph glyph-name="H" unicode="H" horiz-adv-x="514" d="M310 0 L473 0 L473 583 L310 583 L310 361 L204 361 L204 583 L41 583 L41 0 L204 0 L204 235 L310 235 L310 0 Z " />
<glyph glyph-name="I" unicode="I" horiz-adv-x="245" d="M41 0 L204 0 L204 583 L41 583 L41 0 Z " />
<glyph glyph-name="J" unicode="J" horiz-adv-x="251" d="M116 -109 C175 -12 213 89 213 179 L213 583 L49 583 L49 176 C49 92 24 8 -17 -78 L116 -109 Z " />
<glyph glyph-name="K" unicode="K" horiz-adv-x="464" d="M286 0 L452 0 L360 325 L452 583 L295 583 L205 304 L205 287 L286 0 Z M41 0 L204 0 L204 583 L41 583 L41 0 Z " />
<glyph glyph-name="L" unicode="L" horiz-adv-x="348" d="M41 0 L339 0 L339 126 L204 126 L204 583 L41 583 L41 0 Z " />
<glyph glyph-name="M" unicode="M" horiz-adv-x="634" d="M26 0 L164 0 L172 218 L177 347 L183 347 L201 219 L234 0 L384 0 L419 220 L438 344 L443 344 L448 218 L455 0 L607 0 L580 583 L381 583 L343 349 L327 235 L321 235 L306 348 L269 583 L56 583 L26 0 Z " />
<glyph glyph-name="N" unicode="N" horiz-adv-x="503" d="M41 0 L191 0 L190 267 L193 267 L330 0 L462 0 L462 583 L305 583 L306 328 L303 328 L165 583 L41 583 L41 0 Z " />
<glyph glyph-name="O" unicode="O" horiz-adv-x="489" d="M239 -11 C392 -11 468 104 468 313 C468 481 405 595 249 595 C88 595 21 465 21 275 C21 97 86 -11 239 -11 L239 -11 Z M245 112 C206 112 188 154 188 297 C188 432 207 472 246 472 C283 472 301 435 301 290 C301 150 284 112 245 112 L245 112 Z " />
<glyph glyph-name="P" unicode="P" horiz-adv-x="450" d="M41 0 L204 0 L204 169 L226 169 C392 169 435 270 435 379 C435 509 391 583 243 583 L41 583 L41 0 Z M215 464 C251 464 269 446 269 379 C269 297 248 288 212 287 L204 287 L204 464 L215 464 Z " />
<glyph glyph-name="Q" unicode="Q" horiz-adv-x="489" d="M239 -11 C252 -11 265 -10 277 -8 L306 -115 L458 -115 L461 -98 L369 28 C435 78 468 175 468 313 C468 481 405 595 249 595 C88 595 21 465 21 275 C21 97 86 -11 239 -11 L239 -11 Z M245 112 C206 112 188 154 188 297 C188 432 207 472 246 472 C283 472 301 435 301 290 C301 150 284 112 245 112 L245 112 Z " />
<glyph glyph-name="R" unicode="R" horiz-adv-x="461" d="M41 0 L204 0 L204 172 L239 172 L280 0 L450 0 L370 231 C406 265 434 313 434 381 C434 509 374 583 242 583 L41 583 L41 0 Z M214 464 C250 464 268 448 268 380 C268 299 247 291 211 291 L204 291 L204 464 L214 464 Z " />
<glyph glyph-name="S" unicode="S" horiz-adv-x="369" d="M28 10 C72 -5 121 -11 161 -11 C286 -11 351 55 351 178 C351 286 292 317 239 347 C202 368 176 385 176 419 C176 446 201 467 237 467 C277 467 309 458 333 443 L333 569 C304 587 264 595 208 595 C91 595 22 525 22 420 C22 347 60 294 104 267 C154 236 200 221 200 170 C200 139 179 119 145 119 C102 119 63 128 28 144 L28 10 Z " />
<glyph glyph-name="T" unicode="T" horiz-adv-x="384" d="M9 457 L113 457 L113 0 L277 0 L277 457 L375 457 L375 583 L9 583 L9 457 Z " />
<glyph glyph-name="U" unicode="U" horiz-adv-x="494" d="M250 -11 C381 -11 457 48 457 234 L457 583 L300 583 L300 224 C300 135 284 112 254 112 C220 112 201 135 201 219 L201 583 L38 583 L38 208 C38 41 121 -11 250 -11 L250 -11 Z " />
<glyph glyph-name="V" unicode="V" horiz-adv-x="434" d="M433 583 L275 583 L237 275 L222 150 L217 150 L203 275 L166 583 L7 583 L119 0 L309 0 L433 583 Z " />
<glyph glyph-name="W" unicode="W" horiz-adv-x="678" d="M672 583 L514 583 L484 318 L471 195 L467 195 L453 318 L423 583 L264 583 L228 318 L212 193 L209 193 L198 318 L176 583 L14 583 L94 0 L286 0 L322 250 L337 360 L341 360 L354 250 L384 0 L576 0 L672 583 Z " />
<glyph glyph-name="X" unicode="X" horiz-adv-x="434" d="M171 583 L10 583 L111 291 L8 0 L171 0 L212 191 L223 191 L262 0 L426 0 L325 300 L426 583 L265 583 L222 397 L212 397 L171 583 Z " />
<glyph glyph-name="Y" unicode="Y" horiz-adv-x="415" d="M414 583 L269 583 L234 421 L214 336 L212 336 L193 421 L158 583 L1 583 L125 193 L125 0 L289 0 L289 185 L414 583 Z " />
<glyph glyph-name="Z" unicode="Z" horiz-adv-x="364" d="M344 0 L344 126 L214 126 L351 579 L350 583 L20 583 L20 457 L146 457 L12 3 L13 0 L344 0 Z " />
<glyph glyph-name="bracketleft" unicode="&#x5b;" horiz-adv-x="228" d="M41 -200 L204 -200 L204 -109 L155 -109 L155 567 L204 567 L204 660 L41 660 L41 -200 Z " />
<glyph glyph-name="backslash" unicode="&#x5c;" horiz-adv-x="287" d="M117 674 L16 674 L168 -93 L271 -93 L117 674 Z " />
<glyph glyph-name="bracketright" unicode="&#x5d;" horiz-adv-x="228" d="M187 660 L24 660 L24 567 L73 567 L73 -109 L24 -109 L24 -200 L187 -200 L187 660 Z " />
<glyph glyph-name="asciicircum" unicode="&#x5e;" horiz-adv-x="310" d="M13 233 L112 233 L152 446 L155 446 L189 233 L296 233 L219 583 L89 583 L13 233 Z " />
<glyph glyph-name="underscore" unicode="&#x5f;" horiz-adv-x="569" d="M61 -187 L509 -187 L509 -96 L61 -96 L61 -187 Z " />
<glyph glyph-name="grave" unicode="&#x60;" horiz-adv-x="283" d="M235 524 L191 672 L49 672 L130 524 L235 524 Z " />
<glyph glyph-name="a" unicode="a" horiz-adv-x="407" d="M235 0 L387 0 L372 111 L372 306 C372 428 312 468 211 468 C163 468 106 462 39 441 L39 314 C65 323 112 332 149 332 C188 332 220 320 220 276 L220 251 L202 251 C84 251 11 207 11 113 C11 36 56 -7 120 -7 C170 -7 211 20 228 46 L235 0 Z M191 89 C174 89 163 103 163 140 C163 182 181 189 206 189 L220 189 L220 100 C210 93 200 89 191 89 L191 89 Z " />
<glyph glyph-name="b" unicode="b" horiz-adv-x="429" d="M188 -8 C312 -8 410 58 410 251 C410 401 360 468 272 468 C237 468 207 451 186 427 L186 653 L34 653 L34 15 C87 1 138 -8 188 -8 L188 -8 Z M212 353 C243 353 256 330 256 238 C256 140 243 107 199 107 L186 107 L186 345 C194 350 203 353 212 353 L212 353 Z " />
<glyph glyph-name="c" unicode="c" horiz-adv-x="320" d="M193 -8 C226 -8 269 -3 297 11 L297 132 C283 124 261 122 249 122 C205 122 179 153 179 237 C179 312 209 340 248 340 C261 340 283 338 297 330 L297 454 C267 465 240 468 202 468 C87 468 19 375 19 221 C19 71 81 -8 193 -8 L193 -8 Z " />
<glyph glyph-name="d" unicode="d" horiz-adv-x="438" d="M263 0 L416 0 L401 100 L401 653 L249 653 L249 461 C231 465 210 468 192 468 C93 468 19 388 19 209 C19 50 81 -7 152 -7 C192 -7 228 15 254 55 L263 0 Z M218 108 C187 108 179 148 179 224 C179 310 191 356 228 356 C235 356 242 355 249 354 L249 121 C237 112 229 108 218 108 L218 108 Z " />
<glyph glyph-name="e" unicode="e" horiz-adv-x="404" d="M224 -8 C301 -8 340 1 379 17 L379 126 C338 115 302 112 272 112 C217 112 184 125 173 188 L383 188 L383 237 C383 385 340 468 216 468 C88 468 19 377 19 219 C19 48 100 -8 224 -8 L224 -8 Z M206 352 C228 352 237 322 238 258 L169 258 C170 327 183 352 206 352 L206 352 Z " />
<glyph glyph-name="f" unicode="f" horiz-adv-x="271" d="M17 336 L54 336 L54 0 L206 0 L206 336 L254 336 L254 456 L206 456 C206 499 213 532 246 532 C255 532 266 530 275 528 L275 653 C258 658 229 660 211 660 C120 660 54 614 54 465 L54 456 L17 456 L17 336 Z " />
<glyph glyph-name="g" unicode="g" horiz-adv-x="423" d="M203 170 C289 170 387 218 387 316 C387 336 384 355 378 371 L420 371 L420 465 L315 443 C283 460 244 468 201 468 C104 468 18 421 18 314 C18 236 66 197 122 181 L36 107 L36 41 L103 33 C52 11 2 -29 2 -87 C2 -165 69 -214 192 -214 C326 -214 409 -136 409 -23 C409 49 374 114 265 124 L170 133 L191 170 L203 170 Z M210 20 C254 14 266 -10 266 -43 C266 -88 241 -115 206 -115 C170 -115 151 -91 151 -55 C151 -29 162 -4 183 23 L210 20 Z M202 256 C178 256 169 278 169 319 C169 367 179 381 201 381 C220 381 233 369 233 317 C233 279 225 256 202 256 L202 256 Z " />
<glyph glyph-name="h" unicode="h" horiz-adv-x="441" d="M255 0 L408 0 L408 316 C408 427 363 465 300 465 C256 465 217 444 187 413 L187 653 L35 653 L35 0 L187 0 L187 316 C197 325 210 332 221 332 C248 332 255 302 255 221 L255 0 Z " />
<glyph glyph-name="i" unicode="i" horiz-adv-x="238" d="M18 336 L52 336 L52 0 L204 0 L204 456 L18 456 L18 336 Z M130 536 C182 536 213 562 213 611 C213 657 183 685 130 685 C81 685 47 659 47 611 C47 560 81 536 130 536 L130 536 Z " />
<glyph glyph-name="j" unicode="j" horiz-adv-x="239" d="M18 336 L52 336 L52 18 C52 -57 35 -134 13 -198 L141 -213 C181 -150 205 -57 205 31 L205 456 L18 456 L18 336 Z M131 536 C183 536 214 562 214 611 C214 657 184 685 131 685 C82 685 48 659 48 611 C48 560 82 536 131 536 L131 536 Z " />
<glyph glyph-name="k" unicode="k" horiz-adv-x="418" d="M245 0 L406 0 L330 244 L409 456 L252 456 L191 247 L191 227 L245 0 Z M35 0 L187 0 L187 653 L35 653 L35 0 Z " />
<glyph glyph-name="l" unicode="l" horiz-adv-x="224" d="M36 0 L188 0 L188 653 L36 653 L36 0 Z " />
<glyph glyph-name="m" unicode="m" horiz-adv-x="644" d="M459 0 L611 0 L611 316 C611 427 567 465 504 465 C456 465 416 440 385 405 C367 448 334 465 293 465 C248 465 210 444 181 413 L176 456 L25 456 L37 343 L37 0 L189 0 L189 322 C197 328 205 332 213 332 C241 332 248 317 248 221 L248 0 L400 0 L400 322 C408 328 417 332 425 332 C452 332 459 317 459 221 L459 0 Z " />
<glyph glyph-name="n" unicode="n" horiz-adv-x="442" d="M37 0 L189 0 L189 316 C199 325 212 332 223 332 C250 332 257 302 257 221 L257 0 L409 0 L409 316 C409 427 365 465 302 465 C253 465 213 441 182 407 L176 456 L25 456 L37 343 L37 0 Z " />
<glyph glyph-name="o" unicode="o" horiz-adv-x="417" d="M204 -8 C335 -8 399 93 399 239 C399 399 333 468 210 468 C87 468 18 365 18 218 C18 70 85 -8 204 -8 L204 -8 Z M209 105 C180 105 171 133 171 230 C171 316 180 349 209 349 C240 349 246 317 246 231 C246 138 238 105 209 105 L209 105 Z " />
<glyph glyph-name="p" unicode="p" horiz-adv-x="431" d="M37 -207 L189 -207 L189 -3 C203 -6 218 -8 233 -8 C329 -8 412 63 412 250 C412 401 358 467 286 467 C237 467 202 446 181 414 L176 456 L25 456 L37 344 L37 -207 Z M216 353 C246 353 259 321 259 238 C259 154 245 107 202 107 L189 107 L189 342 C198 349 206 353 216 353 L216 353 Z " />
<glyph glyph-name="q" unicode="q" horiz-adv-x="429" d="M241 468 C117 468 19 400 19 210 C19 55 74 -8 159 -8 C193 -8 223 9 243 33 L243 -207 L395 -207 L395 446 C342 459 291 468 241 468 L241 468 Z M217 107 C187 107 172 129 172 223 C172 325 190 354 230 354 C234 354 238 354 243 353 L243 115 C234 110 225 107 217 107 L217 107 Z " />
<glyph glyph-name="r" unicode="r" horiz-adv-x="306" d="M37 0 L196 0 L196 261 C211 280 240 301 275 301 C282 301 288 300 295 298 L295 454 C285 458 277 460 269 460 C232 460 205 420 191 392 L183 456 L25 456 L37 343 L37 0 Z " />
<glyph glyph-name="s" unicode="s" horiz-adv-x="339" d="M154 -8 C263 -8 325 42 325 140 C325 232 270 254 210 276 C177 288 166 297 166 318 C166 338 186 350 214 350 C246 350 284 341 308 327 L308 444 C277 462 225 468 186 468 C82 468 19 409 19 316 C19 238 70 209 115 190 C155 172 178 166 178 141 C178 116 156 106 132 106 C105 106 70 111 24 130 L24 11 C62 -3 114 -8 154 -8 L154 -8 Z " />
<glyph glyph-name="t" unicode="t" horiz-adv-x="291" d="M17 336 L51 336 L51 138 C51 23 105 -8 183 -8 C212 -8 248 -2 278 10 L278 122 C265 118 252 114 237 114 C210 114 204 138 203 169 L203 336 L272 336 L272 456 L203 456 L203 579 L51 579 L51 456 L17 456 L17 336 Z " />
<glyph glyph-name="u" unicode="u" horiz-adv-x="442" d="M404 456 L252 456 L252 140 C242 131 231 125 220 125 C192 125 185 155 185 236 L185 456 L33 456 L33 142 C33 30 78 -8 140 -8 C189 -8 230 16 260 52 L269 0 L420 0 L404 114 L404 456 Z " />
<glyph glyph-name="v" unicode="v" horiz-adv-x="382" d="M90 0 L286 0 L380 456 L233 456 L208 250 L196 146 L192 146 L179 249 L152 456 L8 456 L90 0 Z " />
<glyph glyph-name="w" unicode="w" horiz-adv-x="563" d="M553 456 L435 456 L413 261 L403 153 L399 153 L386 261 L362 456 L216 456 L187 259 L173 153 L169 153 L160 259 L142 456 L14 456 L71 0 L240 0 L267 161 L279 254 L283 254 L294 161 L317 0 L490 0 L553 456 Z " />
<glyph glyph-name="x" unicode="x" horiz-adv-x="376" d="M150 456 L12 456 L91 234 L9 0 L145 0 L181 151 L193 151 L225 0 L365 0 L286 235 L365 456 L227 456 L194 297 L182 297 L150 456 Z " />
<glyph glyph-name="y" unicode="y" horiz-adv-x="383" d="M247 -207 L288 2 L380 456 L233 456 L207 252 L196 142 L192 142 L179 251 L152 456 L9 456 L89 0 L140 0 L92 -203 L94 -207 L247 -207 Z " />
<glyph glyph-name="z" unicode="z" horiz-adv-x="346" d="M13 3 L13 0 L329 0 L329 121 L220 121 L330 453 L329 456 L18 456 L18 336 L128 336 L13 3 Z " />
<glyph glyph-name="braceleft" unicode="&#x7b;" horiz-adv-x="259" d="M213 -180 L237 -178 L237 -91 L217 -91 C174 -91 165 -74 169 -24 L183 148 C187 193 172 238 122 252 C174 270 189 306 184 361 L170 530 C166 580 177 593 217 593 L237 593 L237 682 L204 682 C120 683 52 650 60 545 L75 351 C78 314 61 297 19 297 L19 217 C62 217 78 191 75 157 L60 -33 C50 -148 127 -184 213 -180 L213 -180 Z " />
<glyph glyph-name="bar" unicode="&#x7c;" horiz-adv-x="199" d="M42 -92 L157 -92 L157 675 L42 675 L42 -92 Z " />
<glyph glyph-name="braceright" unicode="&#x7d;" horiz-adv-x="258" d="M45 681 L21 679 L21 592 L41 592 C84 592 93 575 89 525 L75 353 C71 308 86 263 136 249 C84 231 69 195 74 140 L88 -29 C92 -79 81 -92 41 -92 L21 -92 L21 -181 L54 -181 C138 -182 206 -149 198 -44 L183 150 C180 187 197 204 239 204 L239 284 C196 284 180 310 183 344 L198 534 C208 649 131 685 45 681 L45 681 Z " />
<glyph glyph-name="asciitilde" unicode="&#x7e;" horiz-adv-x="407" d="M277 196 C326 196 366 245 384 279 L341 342 C321 312 300 290 270 290 C225 290 209 340 139 340 C90 340 43 298 23 263 L65 201 C90 230 113 246 144 246 C189 246 210 196 277 196 L277 196 Z " />
<glyph glyph-name="uni00A0" unicode="&#xa0;" horiz-adv-x="166" d="" />
<glyph glyph-name="exclamdown" unicode="&#xa1;" horiz-adv-x="232" d="M38 -124 L194 -124 L194 115 L178 259 L55 259 L38 113 L38 -124 Z M119 467 C72 467 41 432 41 395 C41 355 72 318 119 318 C168 318 195 353 195 395 C195 430 167 467 119 467 L119 467 Z " />
<glyph glyph-name="cent" unicode="&#xa2;" horiz-adv-x="331" d="M190 -88 L241 -88 L241 -5 C262 -2 282 3 298 11 L298 132 C284 124 262 122 250 122 C206 122 180 153 180 237 C180 312 210 340 249 340 C262 340 284 338 298 330 L298 454 C279 461 261 464 241 466 L241 548 L190 548 L190 467 C83 460 20 369 20 221 C20 73 80 -6 190 -8 L190 -88 Z " />
<glyph glyph-name="sterling" unicode="&#xa3;" horiz-adv-x="352" d="M208 178 C208 191 208 205 207 219 L271 219 L271 324 L201 324 C199 357 198 387 198 411 C198 451 216 475 249 475 C278 475 296 470 314 460 L314 578 C289 589 246 595 205 595 C124 595 49 547 49 427 C49 396 51 360 53 324 L31 324 L31 219 L62 219 C63 197 64 177 64 160 C64 143 62 128 60 113 L33 113 L33 0 L328 0 L328 113 L203 113 C206 134 208 156 208 178 L208 178 Z " />
<glyph glyph-name="currency" unicode="&#xa4;" horiz-adv-x="424" d="M77 480 L23 433 L90 363 C73 338 67 302 67 267 C67 236 73 203 92 171 L23 104 L71 55 L138 120 C162 104 186 96 211 96 C236 96 261 105 284 119 L353 51 L399 103 L335 168 C353 196 361 232 361 267 C361 302 354 338 337 363 L402 430 L352 484 L286 417 C263 432 240 440 216 440 C190 440 164 430 140 414 L77 480 Z M167 267 C167 315 179 345 212 345 C247 345 257 314 257 267 C257 216 244 189 212 189 C181 189 167 218 167 267 L167 267 Z " />
<glyph glyph-name="yen" unicode="&#xa5;" horiz-adv-x="448" d="M392 172 L304 172 L304 173 L317 216 L392 216 L392 314 L346 314 L428 583 L284 583 L232 308 L226 308 L175 583 L19 583 L102 314 L58 314 L58 216 L132 216 L143 182 L143 172 L58 172 L58 74 L143 74 L143 0 L304 0 L304 74 L392 74 L392 172 Z " />
<glyph glyph-name="brokenbar" unicode="&#xa6;" horiz-adv-x="160" d="M42 -92 L118 -92 L118 218 L42 218 L42 -92 Z M42 366 L118 366 L118 675 L42 675 L42 366 Z " />
<glyph glyph-name="section" unicode="&#xa7;" horiz-adv-x="394" d="M161 -114 C262 -114 373 -38 373 114 C373 198 348 264 268 337 L154 449 C178 471 213 481 249 481 C278 481 320 475 352 458 L352 572 C327 583 291 591 234 591 C122 591 22 501 22 362 C22 267 55 205 129 136 L237 30 C211 5 175 -3 141 -3 C112 -3 76 2 39 16 L39 -93 C68 -105 113 -114 161 -114 L161 -114 Z M171 299 C225 247 267 198 270 127 L221 176 C185 214 122 271 119 353 L171 299 Z " />
<glyph glyph-name="dieresis" unicode="&#xa8;" horiz-adv-x="372" d="M107 542 C147 542 169 560 169 607 C169 653 148 673 107 673 C69 673 45 654 45 607 C45 561 69 542 107 542 L107 542 Z M264 542 C304 542 327 560 327 608 C327 653 305 673 264 673 C226 673 202 654 202 608 C202 561 226 542 264 542 L264 542 Z " />
<glyph glyph-name="copyright" unicode="&#xa9;" horiz-adv-x="453" d="M227 -12 C349 -12 427 107 427 289 C427 470 356 592 227 592 C105 592 27 470 27 289 C27 106 97 -12 227 -12 L227 -12 Z M227 31 C141 31 73 124 73 289 C73 452 137 548 227 548 C310 548 380 456 380 289 C380 130 320 31 227 31 L227 31 Z M239 114 C258 114 292 124 300 136 L300 217 C282 202 266 197 251 197 C217 197 204 237 204 290 C204 343 217 383 250 383 C264 383 280 378 300 365 L300 449 C290 459 261 467 241 467 C172 467 121 403 121 282 C121 158 177 114 239 114 L239 114 Z " />
<glyph glyph-name="ordfeminine" unicode="&#xaa;" horiz-adv-x="341" d="M196 270 L310 270 L299 348 L299 480 C299 567 255 595 180 595 C145 595 102 589 51 575 L51 484 C71 490 105 497 133 497 C162 497 184 488 184 457 L184 444 L172 444 C84 444 31 412 31 348 C31 295 63 264 110 264 C148 264 179 284 190 301 L196 270 Z M34 160 L311 160 L311 227 L34 227 L34 160 Z M165 332 C154 332 145 341 145 366 C145 393 158 399 176 399 L184 399 L184 340 C178 335 171 332 165 332 L165 332 Z " />
<glyph glyph-name="guillemotleft" unicode="&#xab;" horiz-adv-x="433" d="M102 46 L234 46 L175 226 L227 405 L102 405 L22 226 L102 46 Z M276 46 L408 46 L349 226 L401 405 L276 405 L196 226 L276 46 Z " />
<glyph glyph-name="logicalnot" unicode="&#xac;" horiz-adv-x="389" d="M253 113 L349 113 L349 335 L33 335 L33 237 L253 237 L253 113 Z " />
<glyph glyph-name="registered" unicode="&#xae;" horiz-adv-x="305" d="M152 261 C224 261 279 330 279 454 C279 577 228 649 152 649 C82 649 26 574 26 454 C26 331 81 261 152 261 L152 261 Z M152 294 C95 294 63 357 63 454 C63 551 92 615 152 615 C211 615 242 551 242 454 C242 347 213 294 152 294 L152 294 Z M96 356 L143 356 L143 410 L156 410 L168 356 L218 356 L197 430 C208 445 213 465 213 487 C213 533 195 561 168 561 L96 561 L96 356 Z M146 512 C157 512 165 506 165 487 C165 463 158 459 145 459 L143 459 L143 512 L146 512 Z " />
<glyph glyph-name="macron" unicode="&#xaf;" horiz-adv-x="337" d="M47 552 L291 552 L291 652 L47 652 L47 552 Z " />
<glyph glyph-name="degree" unicode="&#xb0;" horiz-adv-x="301" d="M147 319 C232 319 277 376 277 457 C277 539 238 592 153 592 C68 592 24 537 24 456 C24 370 63 319 147 319 L147 319 Z M150 403 C133 403 127 417 127 455 C127 490 133 506 151 506 C167 506 173 492 173 456 C173 419 168 403 150 403 L150 403 Z " />
<glyph glyph-name="plusminus" unicode="&#xb1;" horiz-adv-x="316" d="M33 274 L121 274 L121 140 L195 140 L195 274 L284 274 L284 355 L195 355 L195 488 L121 488 L121 355 L33 355 L33 274 Z M32 11 L284 11 L284 101 L32 101 L32 11 Z " />
<glyph glyph-name="twosuperior" unicode="&#xb2;" horiz-adv-x="212" d="M79 610 C79 558 55 521 13 459 L13 400 L200 400 L200 477 L108 477 L108 481 C156 518 194 576 194 630 C194 695 153 721 101 721 C73 721 42 718 14 702 L18 634 C30 643 43 646 53 646 C68 646 79 631 79 610 L79 610 Z " />
<glyph glyph-name="threesuperior" unicode="&#xb3;" horiz-adv-x="206" d="M80 396 C141 396 194 420 194 493 C194 535 175 568 122 576 L122 578 C169 591 189 611 189 651 C189 701 143 721 92 721 C63 721 35 715 15 705 L15 636 C26 643 37 646 47 646 C64 646 78 637 78 617 C78 593 57 583 36 579 L36 533 C64 532 84 522 84 498 C84 476 69 467 51 467 C37 467 24 469 13 475 L13 404 C33 399 56 396 80 396 L80 396 Z " />
<glyph glyph-name="acute" unicode="&#xb4;" horiz-adv-x="283" d="M158 524 L238 672 L97 672 L53 524 L158 524 Z " />
<glyph glyph-name="mu" unicode="&#xb5;" horiz-adv-x="458" d="M40 -207 L191 -207 L191 18 C196 12 203 9 209 9 C229 16 247 32 262 52 C275 13 310 -7 358 -7 C383 -7 411 -3 440 8 L440 109 C435 108 429 108 425 108 C411 108 409 127 409 165 L409 456 L257 456 L257 143 C248 133 237 127 228 127 C203 127 192 138 192 203 L192 456 L40 456 L40 -207 Z " />
<glyph glyph-name="paragraph" unicode="&#xb6;" horiz-adv-x="528" d="M209 -207 L332 -207 L332 470 L360 470 L360 -207 L482 -207 L482 583 L213 583 C87 583 16 499 16 369 C16 228 107 156 209 155 L209 -207 Z " />
<glyph glyph-name="periodcentered" unicode="&#xb7;" horiz-adv-x="208" d="M105 233 C142 233 181 254 181 308 C181 360 142 382 105 382 C71 382 29 361 29 308 C29 255 72 233 105 233 L105 233 Z " />
<glyph glyph-name="cedilla" unicode="&#xb8;" horiz-adv-x="330" d="M148 -214 C210 -214 250 -178 250 -129 C250 -84 229 -58 179 -42 L202 10 L136 10 L101 -65 L101 -78 C135 -81 155 -97 155 -116 C155 -130 146 -140 125 -140 C111 -140 88 -136 73 -127 L69 -199 C91 -209 116 -214 148 -214 L148 -214 Z " />
<glyph glyph-name="onesuperior" unicode="&#xb9;" horiz-adv-x="182" d="M156 400 L156 717 L59 717 L10 691 L10 625 L41 635 L41 400 L156 400 Z " />
<glyph glyph-name="ordmasculine" unicode="&#xba;" horiz-adv-x="343" d="M165 264 C263 264 310 332 310 435 C310 546 260 595 170 595 C78 595 27 524 27 421 C27 319 77 264 165 264 L165 264 Z M35 160 L315 160 L315 227 L35 227 L35 160 Z M169 344 C150 344 143 362 143 429 C143 489 150 512 169 512 C189 512 194 490 194 430 C194 366 188 344 169 344 L169 344 Z " />
<glyph glyph-name="guillemotright" unicode="&#xbb;" horiz-adv-x="434" d="M156 408 L24 408 L83 228 L31 49 L156 49 L236 228 L156 408 Z M331 408 L199 408 L258 228 L206 49 L331 49 L411 228 L331 408 Z " />
<glyph glyph-name="onequarter" unicode="&#xbc;" horiz-adv-x="488" d="M164 262 L164 579 L67 579 L18 553 L18 487 L49 497 L49 262 L164 262 Z M339 0 L448 0 L448 62 L466 62 L466 127 L448 127 L448 317 L337 317 L255 122 L255 62 L339 62 L339 0 Z M302 127 L337 213 L339 213 L339 127 L302 127 Z M152 0 L381 546 L381 552 L319 552 L88 5 L88 0 L152 0 Z " />
<glyph glyph-name="onehalf" unicode="&#xbd;" horiz-adv-x="507" d="M164 262 L164 579 L67 579 L18 553 L18 487 L49 497 L49 262 L164 262 Z M364 210 C364 158 340 121 298 59 L298 0 L485 0 L485 77 L393 77 L393 81 C441 118 479 176 479 230 C479 295 438 321 386 321 C358 321 327 318 299 302 L303 234 C315 243 328 246 338 246 C353 246 364 231 364 210 L364 210 Z M152 0 L381 546 L381 552 L319 552 L88 5 L88 0 L152 0 Z " />
<glyph glyph-name="threequarters" unicode="&#xbe;" horiz-adv-x="495" d="M91 264 C152 264 205 288 205 361 C205 403 186 436 133 444 L133 446 C180 459 200 479 200 519 C200 569 154 589 103 589 C74 589 46 583 26 573 L26 504 C37 511 48 514 58 514 C75 514 89 505 89 485 C89 461 68 451 47 447 L47 401 C75 400 95 390 95 366 C95 344 80 335 62 335 C48 335 35 337 24 343 L24 272 C44 267 67 264 91 264 L91 264 Z M347 0 L456 0 L456 62 L474 62 L474 127 L456 127 L456 317 L345 317 L263 122 L263 62 L347 62 L347 0 Z M310 127 L345 213 L347 213 L347 127 L310 127 Z M159 0 L388 546 L388 552 L326 552 L95 5 L95 0 L159 0 Z " />
<glyph glyph-name="questiondown" unicode="&#xbf;" horiz-adv-x="282" d="M217 262 L118 262 L118 201 C76 178 17 120 17 18 C17 -84 78 -131 156 -131 C187 -131 220 -127 254 -108 L254 -7 C236 -17 217 -20 203 -20 C177 -20 166 1 166 43 C166 98 196 139 217 163 L217 262 Z M167 468 C119 468 91 431 91 396 C91 354 119 319 167 319 C214 319 245 356 245 396 C245 433 214 468 167 468 L167 468 Z " />
<glyph glyph-name="Agrave" unicode="&#xc0;" horiz-adv-x="430" d="M1 0 L158 0 L173 117 L250 117 L262 0 L422 0 L325 583 L113 583 L1 0 Z M277 630 L234 768 L92 768 L170 630 L277 630 Z M195 292 L213 454 L220 454 L233 293 L238 243 L189 243 L195 292 Z " />
<glyph glyph-name="Aacute" unicode="&#xc1;" horiz-adv-x="430" d="M1 0 L158 0 L173 117 L250 117 L262 0 L422 0 L325 583 L113 583 L1 0 Z M264 630 L343 768 L200 768 L158 630 L264 630 Z M195 292 L213 454 L220 454 L233 293 L238 243 L189 243 L195 292 Z " />
<glyph glyph-name="Acircumflex" unicode="&#xc2;" horiz-adv-x="430" d="M1 0 L158 0 L173 117 L250 117 L262 0 L422 0 L325 583 L113 583 L1 0 Z M159 770 L83 629 L196 629 L215 711 L222 711 L242 629 L353 629 L279 770 L159 770 Z M195 292 L213 454 L220 454 L233 293 L238 243 L189 243 L195 292 Z " />
<glyph glyph-name="Atilde" unicode="&#xc3;" horiz-adv-x="430" d="M1 0 L158 0 L173 117 L250 117 L262 0 L422 0 L325 583 L113 583 L1 0 Z M339 754 C325 739 296 725 278 725 C240 725 223 754 179 754 C137 754 101 725 84 700 L107 630 C124 647 145 660 166 660 C202 660 224 629 268 629 C313 629 343 655 356 680 L339 754 Z M195 292 L213 454 L220 454 L233 293 L238 243 L189 243 L195 292 Z " />
<glyph glyph-name="Adieresis" unicode="&#xc4;" horiz-adv-x="430" d="M1 0 L158 0 L173 117 L250 117 L262 0 L422 0 L325 583 L113 583 L1 0 Z M296 626 C335 626 358 644 358 692 C358 737 336 757 296 757 C257 757 233 738 233 692 C233 645 257 626 296 626 L296 626 Z M138 626 C178 626 200 644 200 691 C200 737 179 757 138 757 C100 757 76 738 76 691 C76 645 100 626 138 626 L138 626 Z M195 292 L213 454 L220 454 L233 293 L238 243 L189 243 L195 292 Z " />
<glyph glyph-name="Aring" unicode="&#xc5;" horiz-adv-x="430" d="M1 0 L158 0 L173 117 L250 117 L262 0 L422 0 L325 583 L113 583 L1 0 Z M217 802 C160 802 118 776 118 706 C118 635 159 608 217 608 C274 608 315 638 315 706 C315 776 274 802 217 802 L217 802 Z M195 292 L213 454 L220 454 L233 293 L238 243 L189 243 L195 292 Z M217 744 C236 744 242 729 242 706 C242 684 237 665 217 665 C201 665 192 682 192 706 C192 728 199 744 217 744 L217 744 Z " />
<glyph glyph-name="AE" unicode="&#xc6;" horiz-adv-x="579" d="M240 0 L555 0 L555 126 L404 126 L404 236 L533 236 L533 354 L404 354 L404 457 L552 457 L552 583 L125 583 L1 0 L148 0 L169 117 L240 117 L240 0 Z M232 465 L240 465 L240 243 L192 243 L232 465 Z " />
<glyph glyph-name="Ccedilla" unicode="&#xc7;" horiz-adv-x="382" d="M211 -214 C273 -214 313 -178 313 -129 C313 -84 292 -58 242 -42 L256 -10 C295 -9 334 -2 357 9 L357 133 C329 120 308 119 286 119 C217 119 190 172 190 294 C190 397 216 463 285 463 C308 463 330 461 357 446 L357 576 C331 587 288 595 244 595 C84 595 23 479 23 278 C23 96 80 10 191 -7 L164 -65 L164 -78 C198 -81 218 -97 218 -116 C218 -130 209 -140 188 -140 C174 -140 151 -136 136 -127 L132 -199 C154 -209 179 -214 211 -214 L211 -214 Z " />
<glyph glyph-name="Egrave" unicode="&#xc8;" horiz-adv-x="380" d="M41 0 L355 0 L355 126 L204 126 L204 236 L333 236 L333 354 L204 354 L204 457 L353 457 L353 583 L41 583 L41 0 Z M268 630 L225 768 L83 768 L161 630 L268 630 Z " />
<glyph glyph-name="Eacute" unicode="&#xc9;" horiz-adv-x="380" d="M41 0 L355 0 L355 126 L204 126 L204 236 L333 236 L333 354 L204 354 L204 457 L353 457 L353 583 L41 583 L41 0 Z M230 630 L309 768 L166 768 L124 630 L230 630 Z " />
<glyph glyph-name="Ecircumflex" unicode="&#xca;" horiz-adv-x="380" d="M41 0 L355 0 L355 126 L204 126 L204 236 L333 236 L333 354 L204 354 L204 457 L353 457 L353 583 L41 583 L41 0 Z M147 769 L71 628 L184 628 L203 710 L210 710 L230 628 L341 628 L267 769 L147 769 Z " />
<glyph glyph-name="Edieresis" unicode="&#xcb;" horiz-adv-x="380" d="M41 0 L355 0 L355 126 L204 126 L204 236 L333 236 L333 354 L204 354 L204 457 L353 457 L353 583 L41 583 L41 0 Z M277 627 C316 627 339 645 339 693 C339 738 317 758 277 758 C238 758 214 739 214 693 C214 646 238 627 277 627 L277 627 Z M119 627 C159 627 181 645 181 692 C181 738 160 758 119 758 C81 758 57 739 57 692 C57 646 81 627 119 627 L119 627 Z " />
<glyph glyph-name="Igrave" unicode="&#xcc;" horiz-adv-x="245" d="M181 630 L138 768 L-4 768 L74 630 L181 630 Z M41 0 L204 0 L204 583 L41 583 L41 0 Z " />
<glyph glyph-name="Iacute" unicode="&#xcd;" horiz-adv-x="245" d="M41 0 L204 0 L204 583 L41 583 L41 0 Z M170 630 L249 768 L106 768 L64 630 L170 630 Z " />
<glyph glyph-name="Icircumflex" unicode="&#xce;" horiz-adv-x="245" d="M41 0 L204 0 L204 583 L41 583 L41 0 Z M66 769 L-10 628 L103 628 L122 710 L129 710 L149 628 L260 628 L186 769 L66 769 Z " />
<glyph glyph-name="Idieresis" unicode="&#xcf;" horiz-adv-x="245" d="M41 0 L204 0 L204 583 L41 583 L41 0 Z M35 627 C75 627 97 645 97 692 C97 738 76 758 35 758 C-3 758 -27 739 -27 692 C-27 646 -3 627 35 627 L35 627 Z M193 627 C232 627 255 645 255 693 C255 738 233 758 193 758 C154 758 130 739 130 693 C130 646 154 627 193 627 L193 627 Z " />
<glyph glyph-name="Eth" unicode="&#xd0;" horiz-adv-x="493" d="M14 247 L42 247 L42 0 L264 0 C378 0 472 108 472 305 C472 524 357 583 264 583 L42 583 L42 344 L14 344 L14 247 Z M255 247 L255 344 L205 344 L205 457 L222 457 C274 457 305 438 305 292 C305 156 275 126 224 126 L205 126 L205 247 L255 247 Z " />
<glyph glyph-name="Ntilde" unicode="&#xd1;" horiz-adv-x="503" d="M364 754 C350 739 321 725 303 725 C265 725 248 754 204 754 C162 754 126 725 109 700 L132 630 C149 647 170 660 191 660 C227 660 249 629 293 629 C338 629 368 655 381 680 L364 754 Z M41 0 L191 0 L190 267 L193 267 L330 0 L462 0 L462 583 L305 583 L306 328 L303 328 L165 583 L41 583 L41 0 Z " />
<glyph glyph-name="Ograve" unicode="&#xd2;" horiz-adv-x="489" d="M300 630 L257 768 L115 768 L193 630 L300 630 Z M239 -11 C392 -11 468 104 468 313 C468 481 405 595 249 595 C88 595 21 465 21 275 C21 97 86 -11 239 -11 L239 -11 Z M245 112 C206 112 188 154 188 297 C188 432 207 472 246 472 C283 472 301 435 301 290 C301 150 284 112 245 112 L245 112 Z " />
<glyph glyph-name="Oacute" unicode="&#xd3;" horiz-adv-x="489" d="M283 630 L362 768 L219 768 L177 630 L283 630 Z M239 -11 C392 -11 468 104 468 313 C468 481 405 595 249 595 C88 595 21 465 21 275 C21 97 86 -11 239 -11 L239 -11 Z M245 112 C206 112 188 154 188 297 C188 432 207 472 246 472 C283 472 301 435 301 290 C301 150 284 112 245 112 L245 112 Z " />
<glyph glyph-name="Ocircumflex" unicode="&#xd4;" horiz-adv-x="489" d="M239 -11 C392 -11 468 104 468 313 C468 481 405 595 249 595 C88 595 21 465 21 275 C21 97 86 -11 239 -11 L239 -11 Z M245 112 C206 112 188 154 188 297 C188 432 207 472 246 472 C283 472 301 435 301 290 C301 150 284 112 245 112 L245 112 Z M185 770 L109 629 L222 629 L241 711 L248 711 L268 629 L379 629 L305 770 L185 770 Z " />
<glyph glyph-name="Otilde" unicode="&#xd5;" horiz-adv-x="489" d="M359 753 C345 738 316 724 298 724 C260 724 243 753 199 753 C157 753 121 724 104 699 L127 629 C144 646 165 659 186 659 C222 659 244 628 288 628 C333 628 363 654 376 679 L359 753 Z M239 -11 C392 -11 468 104 468 313 C468 481 405 595 249 595 C88 595 21 465 21 275 C21 97 86 -11 239 -11 L239 -11 Z M245 112 C206 112 188 154 188 297 C188 432 207 472 246 472 C283 472 301 435 301 290 C301 150 284 112 245 112 L245 112 Z " />
<glyph glyph-name="Odieresis" unicode="&#xd6;" horiz-adv-x="489" d="M170 626 C210 626 232 644 232 691 C232 737 211 757 170 757 C132 757 108 738 108 691 C108 645 132 626 170 626 L170 626 Z M328 626 C367 626 390 644 390 692 C390 737 368 757 328 757 C289 757 265 738 265 692 C265 645 289 626 328 626 L328 626 Z M239 -11 C392 -11 468 104 468 313 C468 481 405 595 249 595 C88 595 21 465 21 275 C21 97 86 -11 239 -11 L239 -11 Z M245 112 C206 112 188 154 188 297 C188 432 207 472 246 472 C283 472 301 435 301 290 C301 150 284 112 245 112 L245 112 Z " />
<glyph glyph-name="multiply" unicode="&#xd7;" horiz-adv-x="357" d="M80 125 L178 231 L277 125 L331 176 L228 285 L331 396 L279 448 L178 339 L77 448 L26 396 L128 286 L26 176 L80 125 Z " />
<glyph glyph-name="Oslash" unicode="&#xd8;" horiz-adv-x="489" d="M239 -11 C392 -11 468 104 468 313 C468 393 453 461 421 510 L477 595 L414 595 L385 551 C352 579 306 595 249 595 C88 595 21 465 21 275 C21 188 36 119 69 70 L16 -11 L79 -11 L106 30 C139 3 183 -11 239 -11 L239 -11 Z M188 297 C188 432 207 472 246 472 C269 472 285 457 293 411 L188 251 L188 297 Z M245 112 C222 112 206 127 197 169 L300 326 C301 315 301 303 301 290 C301 150 284 112 245 112 L245 112 Z " />
<glyph glyph-name="Ugrave" unicode="&#xd9;" horiz-adv-x="494" d="M309 630 L266 768 L124 768 L202 630 L309 630 Z M250 -11 C381 -11 457 48 457 234 L457 583 L300 583 L300 224 C300 135 284 112 254 112 C220 112 201 135 201 219 L201 583 L38 583 L38 208 C38 41 121 -11 250 -11 L250 -11 Z " />
<glyph glyph-name="Uacute" unicode="&#xda;" horiz-adv-x="494" d="M292 630 L371 768 L228 768 L186 630 L292 630 Z M250 -11 C381 -11 457 48 457 234 L457 583 L300 583 L300 224 C300 135 284 112 254 112 C220 112 201 135 201 219 L201 583 L38 583 L38 208 C38 41 121 -11 250 -11 L250 -11 Z " />
<glyph glyph-name="Ucircumflex" unicode="&#xdb;" horiz-adv-x="494" d="M250 -11 C381 -11 457 48 457 234 L457 583 L300 583 L300 224 C300 135 284 112 254 112 C220 112 201 135 201 219 L201 583 L38 583 L38 208 C38 41 121 -11 250 -11 L250 -11 Z M193 769 L117 628 L230 628 L249 710 L256 710 L276 628 L387 628 L313 769 L193 769 Z " />
<glyph glyph-name="Udieresis" unicode="&#xdc;" horiz-adv-x="494" d="M164 626 C204 626 226 644 226 691 C226 737 205 757 164 757 C126 757 102 738 102 691 C102 645 126 626 164 626 L164 626 Z M322 626 C361 626 384 644 384 692 C384 737 362 757 322 757 C283 757 259 738 259 692 C259 645 283 626 322 626 L322 626 Z M250 -11 C381 -11 457 48 457 234 L457 583 L300 583 L300 224 C300 135 284 112 254 112 C220 112 201 135 201 219 L201 583 L38 583 L38 208 C38 41 121 -11 250 -11 L250 -11 Z " />
<glyph glyph-name="Yacute" unicode="&#xdd;" horiz-adv-x="415" d="M414 583 L269 583 L234 421 L214 336 L212 336 L193 421 L158 583 L1 583 L125 193 L125 0 L289 0 L289 185 L414 583 Z M257 630 L336 768 L193 768 L151 630 L257 630 Z " />
<glyph glyph-name="Thorn" unicode="&#xde;" horiz-adv-x="450" d="M41 0 L204 0 L204 91 L225 91 C392 91 434 193 434 301 C434 429 391 505 241 505 L204 505 L204 583 L41 583 L41 0 Z M214 386 C250 386 268 368 268 300 C268 219 247 210 211 210 L204 210 L204 386 L214 386 Z " />
<glyph glyph-name="germandbls" unicode="&#xdf;" horiz-adv-x="470" d="M248 660 C136 660 35 606 35 462 L35 0 L187 0 L187 445 C187 506 203 531 239 531 C271 531 286 511 286 472 C286 424 220 393 220 315 C220 259 244 229 273 209 C303 187 332 173 332 142 C332 119 311 106 287 106 C264 106 244 109 215 119 L215 3 C252 -5 275 -8 311 -8 C405 -8 461 49 461 139 C461 198 435 228 406 252 C374 277 351 295 351 336 C351 393 424 410 424 506 C424 603 364 660 248 660 L248 660 Z " />
<glyph glyph-name="agrave" unicode="&#xe0;" horiz-adv-x="407" d="M235 0 L387 0 L372 111 L372 306 C372 428 312 468 211 468 C163 468 106 462 39 441 L39 314 C65 323 112 332 149 332 C188 332 220 320 220 276 L220 251 L202 251 C84 251 11 207 11 113 C11 36 56 -7 120 -7 C170 -7 211 20 228 46 L235 0 Z M260 523 L216 671 L74 671 L155 523 L260 523 Z M191 89 C174 89 163 103 163 140 C163 182 181 189 206 189 L220 189 L220 100 C210 93 200 89 191 89 L191 89 Z " />
<glyph glyph-name="aacute" unicode="&#xe1;" horiz-adv-x="407" d="M235 0 L387 0 L372 111 L372 306 C372 428 312 468 211 468 C163 468 106 462 39 441 L39 314 C65 323 112 332 149 332 C188 332 220 320 220 276 L220 251 L202 251 C84 251 11 207 11 113 C11 36 56 -7 120 -7 C170 -7 211 20 228 46 L235 0 Z M256 524 L336 672 L195 672 L151 524 L256 524 Z M191 89 C174 89 163 103 163 140 C163 182 181 189 206 189 L220 189 L220 100 C210 93 200 89 191 89 L191 89 Z " />
<glyph glyph-name="acircumflex" unicode="&#xe2;" horiz-adv-x="407" d="M235 0 L387 0 L372 111 L372 306 C372 428 312 468 211 468 C163 468 106 462 39 441 L39 314 C65 323 112 332 149 332 C188 332 220 320 220 276 L220 251 L202 251 C84 251 11 207 11 113 C11 36 56 -7 120 -7 C170 -7 211 20 228 46 L235 0 Z M143 672 L69 524 L181 524 L199 612 L207 612 L225 524 L337 524 L263 672 L143 672 Z M191 89 C174 89 163 103 163 140 C163 182 181 189 206 189 L220 189 L220 100 C210 93 200 89 191 89 L191 89 Z " />
<glyph glyph-name="atilde" unicode="&#xe3;" horiz-adv-x="407" d="M235 0 L387 0 L372 111 L372 306 C372 428 312 468 211 468 C163 468 106 462 39 441 L39 314 C65 323 112 332 149 332 C188 332 220 320 220 276 L220 251 L202 251 C84 251 11 207 11 113 C11 36 56 -7 120 -7 C170 -7 211 20 228 46 L235 0 Z M322 668 C309 653 279 639 261 639 C224 639 206 668 163 668 C121 668 84 639 67 614 L90 545 C107 562 128 575 149 575 C186 575 207 545 251 545 C296 545 326 570 340 595 L322 668 Z M191 89 C174 89 163 103 163 140 C163 182 181 189 206 189 L220 189 L220 100 C210 93 200 89 191 89 L191 89 Z " />
<glyph glyph-name="adieresis" unicode="&#xe4;" horiz-adv-x="407" d="M235 0 L387 0 L372 111 L372 306 C372 428 312 468 211 468 C163 468 106 462 39 441 L39 314 C65 323 112 332 149 332 C188 332 220 320 220 276 L220 251 L202 251 C84 251 11 207 11 113 C11 36 56 -7 120 -7 C170 -7 211 20 228 46 L235 0 Z M282 542 C322 542 345 560 345 608 C345 653 323 673 282 673 C244 673 220 654 220 608 C220 561 244 542 282 542 L282 542 Z M125 542 C165 542 187 560 187 607 C187 653 166 673 125 673 C87 673 63 654 63 607 C63 561 87 542 125 542 L125 542 Z M191 89 C174 89 163 103 163 140 C163 182 181 189 206 189 L220 189 L220 100 C210 93 200 89 191 89 L191 89 Z " />
<glyph glyph-name="aring" unicode="&#xe5;" horiz-adv-x="407" d="M235 0 L387 0 L372 111 L372 306 C372 428 312 468 211 468 C163 468 106 462 39 441 L39 314 C65 323 112 332 149 332 C188 332 220 320 220 276 L220 251 L202 251 C84 251 11 207 11 113 C11 36 56 -7 120 -7 C170 -7 211 20 228 46 L235 0 Z M207 712 C150 712 109 685 109 616 C109 545 149 517 207 517 C264 517 306 548 306 616 C306 686 264 712 207 712 L207 712 Z M191 89 C174 89 163 103 163 140 C163 182 181 189 206 189 L220 189 L220 100 C210 93 200 89 191 89 L191 89 Z M207 654 C226 654 233 638 233 616 C233 593 228 575 207 575 C191 575 182 592 182 616 C182 638 190 654 207 654 L207 654 Z " />
<glyph glyph-name="ae" unicode="&#xe6;" horiz-adv-x="605" d="M435 -8 C494 -8 540 3 579 20 L579 128 C539 117 505 112 470 112 C418 112 384 127 373 187 L584 187 L584 237 C584 386 542 468 412 468 C374 468 341 459 314 442 C289 460 255 468 212 468 C166 468 108 460 40 439 L40 312 C66 321 112 332 150 332 C189 332 220 320 220 276 L220 252 L202 252 C85 252 12 207 12 113 C12 37 57 -7 121 -7 C194 -7 236 34 256 65 C292 12 353 -8 435 -8 L435 -8 Z M192 89 C175 89 164 103 164 140 C164 182 182 189 206 189 L221 189 C222 159 227 133 234 110 C223 99 208 89 192 89 L192 89 Z M406 352 C429 352 438 317 439 257 L370 257 C373 319 385 352 406 352 L406 352 Z " />
<glyph glyph-name="ccedilla" unicode="&#xe7;" horiz-adv-x="320" d="M168 -214 C230 -214 270 -178 270 -129 C270 -84 249 -58 199 -42 L214 -7 C243 -5 274 0 297 11 L297 132 C283 124 261 122 249 122 C205 122 179 153 179 237 C179 312 209 340 248 340 C261 340 283 338 297 330 L297 454 C267 465 240 468 202 468 C87 468 19 375 19 221 C19 92 65 15 149 -3 L121 -65 L121 -78 C155 -81 175 -97 175 -116 C175 -130 166 -140 145 -140 C131 -140 108 -136 93 -127 L89 -199 C111 -209 136 -214 168 -214 L168 -214 Z " />
<glyph glyph-name="egrave" unicode="&#xe8;" horiz-adv-x="404" d="M224 -8 C301 -8 340 1 379 17 L379 126 C338 115 302 112 272 112 C217 112 184 125 173 188 L383 188 L383 237 C383 385 340 468 216 468 C88 468 19 377 19 219 C19 48 100 -8 224 -8 L224 -8 Z M276 524 L232 672 L90 672 L171 524 L276 524 Z M206 352 C228 352 237 322 238 258 L169 258 C170 327 183 352 206 352 L206 352 Z " />
<glyph glyph-name="eacute" unicode="&#xe9;" horiz-adv-x="404" d="M224 -8 C301 -8 340 1 379 17 L379 126 C338 115 302 112 272 112 C217 112 184 125 173 188 L383 188 L383 237 C383 385 340 468 216 468 C88 468 19 377 19 219 C19 48 100 -8 224 -8 L224 -8 Z M255 524 L335 672 L194 672 L150 524 L255 524 Z M206 352 C228 352 237 322 238 258 L169 258 C170 327 183 352 206 352 L206 352 Z " />
<glyph glyph-name="ecircumflex" unicode="&#xea;" horiz-adv-x="404" d="M224 -8 C301 -8 340 1 379 17 L379 126 C338 115 302 112 272 112 C217 112 184 125 173 188 L383 188 L383 237 C383 385 340 468 216 468 C88 468 19 377 19 219 C19 48 100 -8 224 -8 L224 -8 Z M155 672 L81 524 L193 524 L211 612 L219 612 L237 524 L349 524 L275 672 L155 672 Z M206 352 C228 352 237 322 238 258 L169 258 C170 327 183 352 206 352 L206 352 Z " />
<glyph glyph-name="edieresis" unicode="&#xeb;" horiz-adv-x="404" d="M224 -8 C301 -8 340 1 379 17 L379 126 C338 115 302 112 272 112 C217 112 184 125 173 188 L383 188 L383 237 C383 385 340 468 216 468 C88 468 19 377 19 219 C19 48 100 -8 224 -8 L224 -8 Z M288 542 C328 542 351 560 351 608 C351 653 329 673 288 673 C250 673 226 654 226 608 C226 561 250 542 288 542 L288 542 Z M131 542 C171 542 193 560 193 607 C193 653 172 673 131 673 C93 673 69 654 69 607 C69 561 93 542 131 542 L131 542 Z M206 352 C228 352 237 322 238 258 L169 258 C170 327 183 352 206 352 L206 352 Z " />
<glyph glyph-name="igrave" unicode="&#xec;" horiz-adv-x="238" d="M18 336 L52 336 L52 0 L204 0 L204 456 L18 456 L18 336 Z M190 524 L146 672 L4 672 L85 524 L190 524 Z " />
<glyph glyph-name="iacute" unicode="&#xed;" horiz-adv-x="238" d="M18 336 L52 336 L52 0 L204 0 L204 456 L18 456 L18 336 Z M171 524 L251 672 L110 672 L66 524 L171 524 Z " />
<glyph glyph-name="icircumflex" unicode="&#xee;" horiz-adv-x="238" d="M18 336 L52 336 L52 0 L204 0 L204 456 L18 456 L18 336 Z M69 672 L-5 524 L107 524 L125 612 L133 612 L151 524 L263 524 L189 672 L69 672 Z " />
<glyph glyph-name="idieresis" unicode="&#xef;" horiz-adv-x="238" d="M18 336 L52 336 L52 0 L204 0 L204 456 L18 456 L18 336 Z M203 542 C243 542 266 560 266 608 C266 653 244 673 203 673 C165 673 141 654 141 608 C141 561 165 542 203 542 L203 542 Z M46 542 C86 542 108 560 108 607 C108 653 87 673 46 673 C8 673 -16 654 -16 607 C-16 561 8 542 46 542 L46 542 Z " />
<glyph glyph-name="eth" unicode="&#xf0;" horiz-adv-x="421" d="M174 500 L204 527 C214 508 222 487 230 464 C224 467 216 468 208 468 C124 468 17 408 17 218 C17 61 97 -8 203 -8 C341 -8 399 90 399 266 C399 394 350 511 283 596 L318 627 L274 675 L240 644 C229 656 217 666 205 676 L135 611 C147 600 159 589 169 578 L134 546 L174 500 Z M245 231 C245 159 236 104 208 104 C180 104 170 153 170 230 C170 299 180 350 209 350 C220 350 231 346 242 334 C244 305 245 265 245 231 L245 231 Z " />
<glyph glyph-name="ntilde" unicode="&#xf1;" horiz-adv-x="442" d="M37 0 L189 0 L189 316 C199 325 212 332 223 332 C250 332 257 302 257 221 L257 0 L409 0 L409 316 C409 427 365 465 302 465 C253 465 213 441 182 407 L176 456 L25 456 L37 343 L37 0 Z M341 668 C328 653 298 639 280 639 C243 639 225 668 182 668 C140 668 103 639 86 614 L109 545 C126 562 147 575 168 575 C205 575 226 545 270 545 C315 545 345 570 359 595 L341 668 Z " />
<glyph glyph-name="ograve" unicode="&#xf2;" horiz-adv-x="417" d="M204 -8 C335 -8 399 93 399 239 C399 399 333 468 210 468 C87 468 18 365 18 218 C18 70 85 -8 204 -8 L204 -8 Z M209 105 C180 105 171 133 171 230 C171 316 180 349 209 349 C240 349 246 317 246 231 C246 138 238 105 209 105 L209 105 Z M254 524 L210 672 L68 672 L149 524 L254 524 Z " />
<glyph glyph-name="oacute" unicode="&#xf3;" horiz-adv-x="417" d="M265 524 L345 672 L204 672 L160 524 L265 524 Z M204 -8 C335 -8 399 93 399 239 C399 399 333 468 210 468 C87 468 18 365 18 218 C18 70 85 -8 204 -8 L204 -8 Z M209 105 C180 105 171 133 171 230 C171 316 180 349 209 349 C240 349 246 317 246 231 C246 138 238 105 209 105 L209 105 Z " />
<glyph glyph-name="ocircumflex" unicode="&#xf4;" horiz-adv-x="417" d="M159 667 L85 519 L197 519 L215 607 L223 607 L241 519 L353 519 L279 667 L159 667 Z M204 -8 C335 -8 399 93 399 239 C399 399 333 468 210 468 C87 468 18 365 18 218 C18 70 85 -8 204 -8 L204 -8 Z M209 105 C180 105 171 133 171 230 C171 316 180 349 209 349 C240 349 246 317 246 231 C246 138 238 105 209 105 L209 105 Z " />
<glyph glyph-name="otilde" unicode="&#xf5;" horiz-adv-x="417" d="M204 -8 C335 -8 399 93 399 239 C399 399 333 468 210 468 C87 468 18 365 18 218 C18 70 85 -8 204 -8 L204 -8 Z M209 105 C180 105 171 133 171 230 C171 316 180 349 209 349 C240 349 246 317 246 231 C246 138 238 105 209 105 L209 105 Z M329 668 C316 653 286 639 268 639 C231 639 213 668 170 668 C128 668 91 639 74 614 L97 545 C114 562 135 575 156 575 C193 575 214 545 258 545 C303 545 333 570 347 595 L329 668 Z " />
<glyph glyph-name="odieresis" unicode="&#xf6;" horiz-adv-x="417" d="M133 542 C173 542 195 560 195 607 C195 653 174 673 133 673 C95 673 71 654 71 607 C71 561 95 542 133 542 L133 542 Z M290 542 C330 542 353 560 353 608 C353 653 331 673 290 673 C252 673 228 654 228 608 C228 561 252 542 290 542 L290 542 Z M204 -8 C335 -8 399 93 399 239 C399 399 333 468 210 468 C87 468 18 365 18 218 C18 70 85 -8 204 -8 L204 -8 Z M209 105 C180 105 171 133 171 230 C171 316 180 349 209 349 C240 349 246 317 246 231 C246 138 238 105 209 105 L209 105 Z " />
<glyph glyph-name="divide" unicode="&#xf7;" horiz-adv-x="345" d="M25 245 L320 245 L320 340 L25 340 L25 245 Z M170 373 C207 373 246 394 246 448 C246 500 207 522 170 522 C136 522 94 501 94 448 C94 395 137 373 170 373 L170 373 Z M170 62 C207 62 246 83 246 137 C246 189 207 211 170 211 C136 211 94 190 94 137 C94 84 137 62 170 62 L170 62 Z " />
<glyph glyph-name="oslash" unicode="&#xf8;" horiz-adv-x="418" d="M204 -8 C335 -8 399 93 399 239 C399 312 385 366 358 403 L404 468 L351 468 L327 435 C297 457 258 468 210 468 C87 468 18 365 18 218 C18 149 32 95 60 57 L12 -11 L66 -11 L91 25 C121 3 158 -8 204 -8 L204 -8 Z M209 105 C191 105 181 115 176 145 L246 244 L246 231 C246 138 238 105 209 105 L209 105 Z M171 230 C171 316 180 349 209 349 C227 349 236 338 241 313 L171 213 L171 230 Z " />
<glyph glyph-name="ugrave" unicode="&#xf9;" horiz-adv-x="442" d="M404 456 L252 456 L252 140 C242 131 231 125 220 125 C192 125 185 155 185 236 L185 456 L33 456 L33 142 C33 30 78 -8 140 -8 C189 -8 230 16 260 52 L269 0 L420 0 L404 114 L404 456 Z M279 524 L235 672 L93 672 L174 524 L279 524 Z " />
<glyph glyph-name="uacute" unicode="&#xfa;" horiz-adv-x="442" d="M404 456 L252 456 L252 140 C242 131 231 125 220 125 C192 125 185 155 185 236 L185 456 L33 456 L33 142 C33 30 78 -8 140 -8 C189 -8 230 16 260 52 L269 0 L420 0 L404 114 L404 456 Z M263 524 L343 672 L202 672 L158 524 L263 524 Z " />
<glyph glyph-name="ucircumflex" unicode="&#xfb;" horiz-adv-x="442" d="M404 456 L252 456 L252 140 C242 131 231 125 220 125 C192 125 185 155 185 236 L185 456 L33 456 L33 142 C33 30 78 -8 140 -8 C189 -8 230 16 260 52 L269 0 L420 0 L404 114 L404 456 Z M164 672 L90 524 L202 524 L220 612 L228 612 L246 524 L358 524 L284 672 L164 672 Z " />
<glyph glyph-name="udieresis" unicode="&#xfc;" horiz-adv-x="442" d="M404 456 L252 456 L252 140 C242 131 231 125 220 125 C192 125 185 155 185 236 L185 456 L33 456 L33 142 C33 30 78 -8 140 -8 C189 -8 230 16 260 52 L269 0 L420 0 L404 114 L404 456 Z M292 542 C332 542 355 560 355 608 C355 653 333 673 292 673 C254 673 230 654 230 608 C230 561 254 542 292 542 L292 542 Z M135 542 C175 542 197 560 197 607 C197 653 176 673 135 673 C97 673 73 654 73 607 C73 561 97 542 135 542 L135 542 Z " />
<glyph glyph-name="yacute" unicode="&#xfd;" horiz-adv-x="383" d="M247 -207 L288 2 L380 456 L233 456 L207 252 L196 142 L192 142 L179 251 L152 456 L9 456 L89 0 L140 0 L92 -203 L94 -207 L247 -207 Z M235 524 L315 672 L174 672 L130 524 L235 524 Z " />
<glyph glyph-name="thorn" unicode="&#xfe;" horiz-adv-x="429" d="M35 -207 L187 -207 L187 -3 C201 -6 216 -8 231 -8 C327 -8 410 62 410 250 C410 401 356 468 284 468 C240 468 208 450 187 424 L187 653 L35 653 L35 -207 Z M214 353 C244 353 257 320 257 238 C257 154 243 107 200 107 L187 107 L187 342 C196 349 204 353 214 353 L214 353 Z " />
<glyph glyph-name="ydieresis" unicode="&#xff;" horiz-adv-x="383" d="M247 -207 L288 2 L380 456 L233 456 L207 252 L196 142 L192 142 L179 251 L152 456 L9 456 L89 0 L140 0 L92 -203 L94 -207 L247 -207 Z M273 543 C313 543 336 561 336 609 C336 654 314 674 273 674 C235 674 211 655 211 609 C211 562 235 543 273 543 L273 543 Z M116 543 C156 543 178 561 178 608 C178 654 157 674 116 674 C78 674 54 655 54 608 C54 562 78 543 116 543 L116 543 Z " />
<glyph glyph-name="Amacron" unicode="&#x100;" horiz-adv-x="430" d="M1 0 L158 0 L173 117 L250 117 L262 0 L422 0 L325 583 L113 583 L1 0 Z M97 650 L340 650 L340 750 L97 750 L97 650 Z M195 292 L213 454 L220 454 L233 293 L238 243 L189 243 L195 292 Z " />
<glyph glyph-name="amacron" unicode="&#x101;" horiz-adv-x="407" d="M235 0 L387 0 L372 111 L372 306 C372 428 312 468 211 468 C163 468 106 462 39 441 L39 314 C65 323 112 332 149 332 C188 332 220 320 220 276 L220 251 L202 251 C84 251 11 207 11 113 C11 36 56 -7 120 -7 C170 -7 211 20 228 46 L235 0 Z M87 552 L331 552 L331 652 L87 652 L87 552 Z M191 89 C174 89 163 103 163 140 C163 182 181 189 206 189 L220 189 L220 100 C210 93 200 89 191 89 L191 89 Z " />
<glyph glyph-name="Abreve" unicode="&#x102;" horiz-adv-x="430" d="M1 0 L158 0 L173 117 L250 117 L262 0 L422 0 L325 583 L113 583 L1 0 Z M219 721 C190 721 164 737 145 772 L88 704 C106 664 152 625 219 625 C283 625 331 662 350 703 L299 772 C280 739 251 721 219 721 L219 721 Z M195 292 L213 454 L220 454 L233 293 L238 243 L189 243 L195 292 Z " />
<glyph glyph-name="abreve" unicode="&#x103;" horiz-adv-x="407" d="M235 0 L387 0 L372 111 L372 306 C372 428 312 468 211 468 C163 468 106 462 39 441 L39 314 C65 323 112 332 149 332 C188 332 220 320 220 276 L220 251 L202 251 C84 251 11 207 11 113 C11 36 56 -7 120 -7 C170 -7 211 20 228 46 L235 0 Z M204 628 C174 628 148 646 130 681 L73 613 C91 573 137 532 204 532 C268 532 316 571 335 612 L284 681 C265 648 237 628 204 628 L204 628 Z M191 89 C174 89 163 103 163 140 C163 182 181 189 206 189 L220 189 L220 100 C210 93 200 89 191 89 L191 89 Z " />
<glyph glyph-name="Aogonek" unicode="&#x104;" horiz-adv-x="430" d="M414 -197 L414 -118 C398 -125 379 -127 364 -127 C344 -127 323 -117 323 -89 C323 -60 342 -29 386 0 L422 0 L325 583 L113 583 L1 0 L158 0 L173 117 L250 117 L262 0 L297 0 C258 -27 224 -66 224 -120 C224 -176 259 -213 336 -213 C369 -213 394 -207 414 -197 L414 -197 Z M195 292 L213 454 L220 454 L233 293 L238 243 L189 243 L195 292 Z " />
<glyph glyph-name="aogonek" unicode="&#x105;" horiz-adv-x="407" d="M235 0 L268 0 C229 -27 195 -66 195 -120 C195 -176 230 -213 307 -213 C340 -213 365 -207 385 -197 L385 -118 C369 -125 350 -127 335 -127 C315 -127 294 -117 294 -89 C294 -60 313 -29 357 0 L387 0 L372 111 L372 306 C372 428 312 468 211 468 C163 468 106 462 39 441 L39 314 C65 323 112 332 149 332 C188 332 220 320 220 276 L220 251 L202 251 C84 251 11 207 11 113 C11 36 56 -7 120 -7 C170 -7 211 20 228 46 L235 0 Z M191 89 C174 89 163 103 163 140 C163 182 181 189 206 189 L220 189 L220 100 C210 93 200 89 191 89 L191 89 Z " />
<glyph glyph-name="Cacute" unicode="&#x106;" horiz-adv-x="381" d="M235 -11 C281 -11 329 -4 356 9 L356 133 C328 120 307 119 285 119 C216 119 189 172 189 294 C189 397 215 463 284 463 C307 463 329 461 356 446 L356 576 C330 587 287 595 243 595 C83 595 22 479 22 278 C22 73 94 -11 235 -11 L235 -11 Z M271 630 L350 768 L207 768 L165 630 L271 630 Z " />
<glyph glyph-name="cacute" unicode="&#x107;" horiz-adv-x="320" d="M242 524 L322 672 L181 672 L137 524 L242 524 Z M193 -8 C226 -8 269 -3 297 11 L297 132 C283 124 261 122 249 122 C205 122 179 153 179 237 C179 312 209 340 248 340 C261 340 283 338 297 330 L297 454 C267 465 240 468 202 468 C87 468 19 375 19 221 C19 71 81 -8 193 -8 L193 -8 Z " />
<glyph glyph-name="Ccircumflex" unicode="&#x108;" horiz-adv-x="381" d="M235 -11 C281 -11 329 -4 356 9 L356 133 C328 120 307 119 285 119 C216 119 189 172 189 294 C189 397 215 463 284 463 C307 463 329 461 356 446 L356 576 C330 587 287 595 243 595 C83 595 22 479 22 278 C22 73 94 -11 235 -11 L235 -11 Z M169 769 L93 628 L206 628 L225 710 L232 710 L252 628 L363 628 L289 769 L169 769 Z " />
<glyph glyph-name="ccircumflex" unicode="&#x109;" horiz-adv-x="320" d="M141 672 L67 524 L179 524 L197 612 L205 612 L223 524 L335 524 L261 672 L141 672 Z M193 -8 C226 -8 269 -3 297 11 L297 132 C283 124 261 122 249 122 C205 122 179 153 179 237 C179 312 209 340 248 340 C261 340 283 338 297 330 L297 454 C267 465 240 468 202 468 C87 468 19 375 19 221 C19 71 81 -8 193 -8 L193 -8 Z " />
<glyph glyph-name="Cdotaccent" unicode="&#x10a;" horiz-adv-x="381" d="M232 631 C279 631 307 655 307 699 C307 740 280 767 232 767 C187 767 157 743 157 699 C157 653 187 631 232 631 L232 631 Z M235 -11 C281 -11 329 -4 356 9 L356 133 C328 120 307 119 285 119 C216 119 189 172 189 294 C189 397 215 463 284 463 C307 463 329 461 356 446 L356 576 C330 587 287 595 243 595 C83 595 22 479 22 278 C22 73 94 -11 235 -11 L235 -11 Z " />
<glyph glyph-name="cdotaccent" unicode="&#x10b;" horiz-adv-x="320" d="M193 -8 C226 -8 269 -3 297 11 L297 132 C283 124 261 122 249 122 C205 122 179 153 179 237 C179 312 209 340 248 340 C261 340 283 338 297 330 L297 454 C267 465 240 468 202 468 C87 468 19 375 19 221 C19 71 81 -8 193 -8 L193 -8 Z M195 536 C232 536 271 557 271 611 C271 663 232 685 195 685 C161 685 119 664 119 611 C119 558 162 536 195 536 L195 536 Z " />
<glyph glyph-name="Ccaron" unicode="&#x10c;" horiz-adv-x="381" d="M235 -11 C281 -11 329 -4 356 9 L356 133 C328 120 307 119 285 119 C216 119 189 172 189 294 C189 397 215 463 284 463 C307 463 329 461 356 446 L356 576 C330 587 287 595 243 595 C83 595 22 479 22 278 C22 73 94 -11 235 -11 L235 -11 Z M287 628 L364 768 L252 768 L232 686 L224 686 L205 768 L94 768 L167 628 L287 628 Z " />
<glyph glyph-name="ccaron" unicode="&#x10d;" horiz-adv-x="320" d="M249 524 L324 672 L212 672 L193 585 L186 585 L168 672 L57 672 L129 524 L249 524 Z M193 -8 C226 -8 269 -3 297 11 L297 132 C283 124 261 122 249 122 C205 122 179 153 179 237 C179 312 209 340 248 340 C261 340 283 338 297 330 L297 454 C267 465 240 468 202 468 C87 468 19 375 19 221 C19 71 81 -8 193 -8 L193 -8 Z " />
<glyph glyph-name="Dcaron" unicode="&#x10e;" horiz-adv-x="492" d="M41 0 L263 0 C377 0 471 108 471 305 C471 524 356 583 263 583 L41 583 L41 0 Z M221 457 C273 457 304 438 304 292 C304 156 274 126 223 126 L204 126 L204 457 L221 457 Z M272 626 L349 766 L237 766 L217 684 L209 684 L190 766 L79 766 L152 626 L272 626 Z " />
<glyph glyph-name="dcaron" unicode="&#x10f;" horiz-adv-x="454" d="M263 0 L416 0 L401 100 L401 653 L249 653 L249 461 C231 465 210 468 192 468 C93 468 19 388 19 209 C19 50 81 -7 152 -7 C192 -7 228 15 254 55 L263 0 Z M427 471 L494 471 L550 654 L437 654 L427 471 Z M218 108 C187 108 179 148 179 224 C179 310 191 356 228 356 C235 356 242 355 249 354 L249 121 C237 112 229 108 218 108 L218 108 Z " />
<glyph glyph-name="Dcroat" unicode="&#x110;" horiz-adv-x="493" d="M14 247 L42 247 L42 0 L264 0 C378 0 472 108 472 305 C472 524 357 583 264 583 L42 583 L42 344 L14 344 L14 247 Z M255 247 L255 344 L205 344 L205 457 L222 457 C274 457 305 438 305 292 C305 156 275 126 224 126 L205 126 L205 247 L255 247 Z " />
<glyph glyph-name="dcroat" unicode="&#x111;" horiz-adv-x="438" d="M143 522 L249 522 L249 461 C231 465 210 468 192 468 C93 468 19 388 19 209 C19 50 81 -7 152 -7 C192 -7 228 15 254 55 L263 0 L416 0 L401 100 L401 522 L438 522 L438 604 L401 604 L401 653 L249 653 L249 604 L143 604 L143 522 Z M218 108 C187 108 179 148 179 224 C179 310 191 356 228 356 C235 356 242 355 249 354 L249 121 C237 112 229 108 218 108 L218 108 Z " />
<glyph glyph-name="Emacron" unicode="&#x112;" horiz-adv-x="380" d="M41 0 L355 0 L355 126 L204 126 L204 236 L333 236 L333 354 L204 354 L204 457 L353 457 L353 583 L41 583 L41 0 Z M81 651 L324 651 L324 751 L81 751 L81 651 Z " />
<glyph glyph-name="emacron" unicode="&#x113;" horiz-adv-x="404" d="M224 -8 C301 -8 340 1 379 17 L379 126 C338 115 302 112 272 112 C217 112 184 125 173 188 L383 188 L383 237 C383 385 340 468 216 468 C88 468 19 377 19 219 C19 48 100 -8 224 -8 L224 -8 Z M95 552 L339 552 L339 652 L95 652 L95 552 Z M206 352 C228 352 237 322 238 258 L169 258 C170 327 183 352 206 352 L206 352 Z " />
<glyph glyph-name="Ebreve" unicode="&#x114;" horiz-adv-x="380" d="M41 0 L355 0 L355 126 L204 126 L204 236 L333 236 L333 354 L204 354 L204 457 L353 457 L353 583 L41 583 L41 0 Z M200 721 C171 721 145 737 126 772 L69 704 C87 664 133 625 200 625 C264 625 312 662 331 703 L280 772 C261 739 232 721 200 721 L200 721 Z " />
<glyph glyph-name="ebreve" unicode="&#x115;" horiz-adv-x="404" d="M224 -8 C301 -8 340 1 379 17 L379 126 C338 115 302 112 272 112 C217 112 184 125 173 188 L383 188 L383 237 C383 385 340 468 216 468 C88 468 19 377 19 219 C19 48 100 -8 224 -8 L224 -8 Z M207 628 C177 628 151 646 133 681 L76 613 C94 573 140 532 207 532 C271 532 319 571 338 612 L287 681 C268 648 240 628 207 628 L207 628 Z M206 352 C228 352 237 322 238 258 L169 258 C170 327 183 352 206 352 L206 352 Z " />
<glyph glyph-name="Edotaccent" unicode="&#x116;" horiz-adv-x="380" d="M41 0 L355 0 L355 126 L204 126 L204 236 L333 236 L333 354 L204 354 L204 457 L353 457 L353 583 L41 583 L41 0 Z M207 630 C254 630 282 654 282 698 C282 739 255 766 207 766 C162 766 132 742 132 698 C132 652 162 630 207 630 L207 630 Z " />
<glyph glyph-name="edotaccent" unicode="&#x117;" horiz-adv-x="404" d="M224 -8 C301 -8 340 1 379 17 L379 126 C338 115 302 112 272 112 C217 112 184 125 173 188 L383 188 L383 237 C383 385 340 468 216 468 C88 468 19 377 19 219 C19 48 100 -8 224 -8 L224 -8 Z M210 536 C247 536 286 557 286 611 C286 663 247 685 210 685 C176 685 134 664 134 611 C134 558 177 536 210 536 L210 536 Z M206 352 C228 352 237 322 238 258 L169 258 C170 327 183 352 206 352 L206 352 Z " />
<glyph glyph-name="Eogonek" unicode="&#x118;" horiz-adv-x="380" d="M41 0 L240 0 C201 -27 167 -66 167 -120 C167 -176 202 -213 279 -213 C312 -213 337 -207 357 -197 L357 -118 C341 -125 322 -127 307 -127 C287 -127 266 -117 266 -89 C266 -60 285 -29 329 0 L355 0 L355 126 L204 126 L204 236 L333 236 L333 354 L204 354 L204 457 L353 457 L353 583 L41 583 L41 0 Z " />
<glyph glyph-name="eogonek" unicode="&#x119;" horiz-adv-x="404" d="M224 -8 L247 -8 C212 -34 184 -71 184 -120 C184 -176 219 -213 296 -213 C329 -213 354 -207 374 -197 L374 -118 C358 -125 339 -127 324 -127 C304 -127 283 -117 283 -89 C283 -56 308 -21 366 12 C370 13 374 15 379 17 L379 126 C338 115 302 112 272 112 C217 112 184 125 173 188 L383 188 L383 237 C383 385 340 468 216 468 C88 468 19 377 19 219 C19 48 100 -8 224 -8 L224 -8 Z M206 352 C228 352 237 322 238 258 L169 258 C170 327 183 352 206 352 L206 352 Z " />
<glyph glyph-name="Ecaron" unicode="&#x11a;" horiz-adv-x="380" d="M41 0 L355 0 L355 126 L204 126 L204 236 L333 236 L333 354 L204 354 L204 457 L353 457 L353 583 L41 583 L41 0 Z M262 628 L339 768 L227 768 L207 686 L199 686 L180 768 L69 768 L142 628 L262 628 Z " />
<glyph glyph-name="ecaron" unicode="&#x11b;" horiz-adv-x="404" d="M224 -8 C301 -8 340 1 379 17 L379 126 C338 115 302 112 272 112 C217 112 184 125 173 188 L383 188 L383 237 C383 385 340 468 216 468 C88 468 19 377 19 219 C19 48 100 -8 224 -8 L224 -8 Z M272 524 L347 672 L235 672 L216 585 L209 585 L191 672 L80 672 L152 524 L272 524 Z M206 352 C228 352 237 322 238 258 L169 258 C170 327 183 352 206 352 L206 352 Z " />
<glyph glyph-name="Gcircumflex" unicode="&#x11c;" horiz-adv-x="465" d="M279 -11 C342 -11 384 -2 436 24 L436 313 L284 313 L284 121 C276 119 269 118 262 118 C215 118 187 155 187 294 C187 418 244 456 321 456 C359 456 392 453 425 437 L425 568 C382 587 342 595 287 595 C107 595 21 482 21 278 C21 74 99 -11 279 -11 L279 -11 Z M216 770 L140 629 L253 629 L272 711 L279 711 L299 629 L410 629 L336 770 L216 770 Z " />
<glyph glyph-name="gcircumflex" unicode="&#x11d;" horiz-adv-x="423" d="M203 170 C289 170 387 218 387 316 C387 336 384 355 378 371 L420 371 L420 465 L315 443 C283 460 244 468 201 468 C104 468 18 421 18 314 C18 236 66 197 122 181 L36 107 L36 41 L103 33 C52 11 2 -29 2 -87 C2 -165 69 -214 192 -214 C326 -214 409 -136 409 -23 C409 49 374 114 265 124 L170 133 L191 170 L203 170 Z M145 672 L71 524 L183 524 L201 612 L209 612 L227 524 L339 524 L265 672 L145 672 Z M210 20 C254 14 266 -10 266 -43 C266 -88 241 -115 206 -115 C170 -115 151 -91 151 -55 C151 -29 162 -4 183 23 L210 20 Z M202 256 C178 256 169 278 169 319 C169 367 179 381 201 381 C220 381 233 369 233 317 C233 279 225 256 202 256 L202 256 Z " />
<glyph glyph-name="Gbreve" unicode="&#x11e;" horiz-adv-x="465" d="M279 -11 C342 -11 384 -2 436 24 L436 313 L284 313 L284 121 C276 119 269 118 262 118 C215 118 187 155 187 294 C187 418 244 456 321 456 C359 456 392 453 425 437 L425 568 C382 587 342 595 287 595 C107 595 21 482 21 278 C21 74 99 -11 279 -11 L279 -11 Z M274 720 C245 720 219 736 200 771 L143 703 C161 663 207 624 274 624 C338 624 386 661 405 702 L354 771 C335 738 306 720 274 720 L274 720 Z " />
<glyph glyph-name="gbreve" unicode="&#x11f;" horiz-adv-x="423" d="M203 170 C289 170 387 218 387 316 C387 336 384 355 378 371 L420 371 L420 465 L315 443 C283 460 244 468 201 468 C104 468 18 421 18 314 C18 236 66 197 122 181 L36 107 L36 41 L103 33 C52 11 2 -29 2 -87 C2 -165 69 -214 192 -214 C326 -214 409 -136 409 -23 C409 49 374 114 265 124 L170 133 L191 170 L203 170 Z M203 628 C173 628 147 646 129 681 L72 613 C90 573 136 532 203 532 C267 532 315 571 334 612 L283 681 C264 648 236 628 203 628 L203 628 Z M210 20 C254 14 266 -10 266 -43 C266 -88 241 -115 206 -115 C170 -115 151 -91 151 -55 C151 -29 162 -4 183 23 L210 20 Z M202 256 C178 256 169 278 169 319 C169 367 179 381 201 381 C220 381 233 369 233 317 C233 279 225 256 202 256 L202 256 Z " />
<glyph glyph-name="Gdotaccent" unicode="&#x120;" horiz-adv-x="465" d="M279 -11 C342 -11 384 -2 436 24 L436 313 L284 313 L284 121 C276 119 269 118 262 118 C215 118 187 155 187 294 C187 418 244 456 321 456 C359 456 392 453 425 437 L425 568 C382 587 342 595 287 595 C107 595 21 482 21 278 C21 74 99 -11 279 -11 L279 -11 Z M277 631 C324 631 352 655 352 699 C352 740 325 767 277 767 C232 767 202 743 202 699 C202 653 232 631 277 631 L277 631 Z " />
<glyph glyph-name="gdotaccent" unicode="&#x121;" horiz-adv-x="423" d="M203 170 C289 170 387 218 387 316 C387 336 384 355 378 371 L420 371 L420 465 L315 443 C283 460 244 468 201 468 C104 468 18 421 18 314 C18 236 66 197 122 181 L36 107 L36 41 L103 33 C52 11 2 -29 2 -87 C2 -165 69 -214 192 -214 C326 -214 409 -136 409 -23 C409 49 374 114 265 124 L170 133 L191 170 L203 170 Z M202 536 C239 536 278 557 278 611 C278 663 239 685 202 685 C168 685 126 664 126 611 C126 558 169 536 202 536 L202 536 Z M210 20 C254 14 266 -10 266 -43 C266 -88 241 -115 206 -115 C170 -115 151 -91 151 -55 C151 -29 162 -4 183 23 L210 20 Z M202 256 C178 256 169 278 169 319 C169 367 179 381 201 381 C220 381 233 369 233 317 C233 279 225 256 202 256 L202 256 Z " />
<glyph glyph-name="Gcommaaccent" unicode="&#x122;" horiz-adv-x="465" d="M279 -11 C342 -11 384 -2 436 24 L436 313 L284 313 L284 121 C276 119 269 118 262 118 C215 118 187 155 187 294 C187 418 244 456 321 456 C359 456 392 453 425 437 L425 568 C382 587 342 595 287 595 C107 595 21 482 21 278 C21 74 99 -11 279 -11 L279 -11 Z M194 -247 L292 -247 L330 -62 L212 -62 L194 -247 Z " />
<glyph glyph-name="gcommaaccent" unicode="&#x123;" horiz-adv-x="423" d="M203 170 C289 170 387 218 387 316 C387 336 384 355 378 371 L420 371 L420 465 L315 443 C283 460 244 468 201 468 C104 468 18 421 18 314 C18 236 66 197 122 181 L36 107 L36 41 L103 33 C52 11 2 -29 2 -87 C2 -165 69 -214 192 -214 C326 -214 409 -136 409 -23 C409 49 374 114 265 124 L170 133 L191 170 L203 170 Z M269 701 L171 701 L133 513 L251 513 L269 701 Z M210 20 C254 14 266 -10 266 -43 C266 -88 241 -115 206 -115 C170 -115 151 -91 151 -55 C151 -29 162 -4 183 23 L210 20 Z M202 256 C178 256 169 278 169 319 C169 367 179 381 201 381 C220 381 233 369 233 317 C233 279 225 256 202 256 L202 256 Z " />
<glyph glyph-name="Hcircumflex" unicode="&#x124;" horiz-adv-x="514" d="M310 0 L473 0 L473 583 L310 583 L310 361 L204 361 L204 583 L41 583 L41 0 L204 0 L204 235 L310 235 L310 0 Z M195 769 L119 628 L232 628 L251 710 L258 710 L278 628 L389 628 L315 769 L195 769 Z " />
<glyph glyph-name="hcircumflex" unicode="&#x125;" horiz-adv-x="441" d="M255 0 L408 0 L408 316 C408 427 363 465 300 465 C256 465 217 444 187 413 L187 653 L35 653 L35 0 L187 0 L187 316 C197 325 210 332 221 332 C248 332 255 302 255 221 L255 0 Z M51 817 L-25 676 L88 676 L107 758 L114 758 L134 676 L245 676 L171 817 L51 817 Z " />
<glyph glyph-name="Hbar" unicode="&#x126;" horiz-adv-x="516" d="M15 433 L42 433 L42 0 L205 0 L205 235 L311 235 L311 0 L474 0 L474 433 L502 433 L502 515 L474 515 L474 583 L311 583 L311 515 L205 515 L205 583 L42 583 L42 515 L15 515 L15 433 Z M205 433 L311 433 L311 361 L205 361 L205 433 Z " />
<glyph glyph-name="hbar" unicode="&#x127;" horiz-adv-x="441" d="M-8 514 L35 514 L35 0 L187 0 L187 316 C197 325 210 332 221 332 C248 332 255 302 255 221 L255 0 L408 0 L408 316 C408 427 363 465 300 465 C256 465 217 444 187 413 L187 514 L278 514 L278 596 L187 596 L187 653 L35 653 L35 596 L-8 596 L-8 514 Z " />
<glyph glyph-name="Itilde" unicode="&#x128;" horiz-adv-x="245" d="M41 0 L204 0 L204 583 L41 583 L41 0 Z M240 754 C226 739 197 725 179 725 C141 725 124 754 80 754 C38 754 2 725 -15 700 L8 630 C25 647 46 660 67 660 C103 660 125 629 169 629 C214 629 244 655 257 680 L240 754 Z " />
<glyph glyph-name="itilde" unicode="&#x129;" horiz-adv-x="238" d="M18 336 L52 336 L52 0 L204 0 L204 456 L18 456 L18 336 Z M241 668 C228 653 198 639 180 639 C143 639 125 668 82 668 C40 668 3 639 -14 614 L9 545 C26 562 47 575 68 575 C105 575 126 545 170 545 C215 545 245 570 259 595 L241 668 Z " />
<glyph glyph-name="Imacron" unicode="&#x12a;" horiz-adv-x="245" d="M41 0 L204 0 L204 583 L41 583 L41 0 Z M4 651 L247 651 L247 751 L4 751 L4 651 Z " />
<glyph glyph-name="imacron" unicode="&#x12b;" horiz-adv-x="238" d="M18 336 L52 336 L52 0 L204 0 L204 456 L18 456 L18 336 Z M1 552 L245 552 L245 652 L1 652 L1 552 Z " />
<glyph glyph-name="Ibreve" unicode="&#x12c;" horiz-adv-x="245" d="M41 0 L204 0 L204 583 L41 583 L41 0 Z M123 721 C94 721 68 737 49 772 L-8 704 C10 664 56 625 123 625 C187 625 235 662 254 703 L203 772 C184 739 155 721 123 721 L123 721 Z " />
<glyph glyph-name="ibreve" unicode="&#x12d;" horiz-adv-x="238" d="M18 336 L52 336 L52 0 L204 0 L204 456 L18 456 L18 336 Z M123 628 C93 628 67 646 49 681 L-8 613 C10 573 56 532 123 532 C187 532 235 571 254 612 L203 681 C184 648 156 628 123 628 L123 628 Z " />
<glyph glyph-name="Iogonek" unicode="&#x12e;" horiz-adv-x="245" d="M41 0 L72 0 C33 -27 -1 -66 -1 -120 C-1 -176 34 -213 111 -213 C144 -213 169 -207 189 -197 L189 -118 C173 -125 154 -127 139 -127 C119 -127 98 -117 98 -89 C98 -60 117 -29 161 0 L204 0 L204 583 L41 583 L41 0 Z " />
<glyph glyph-name="iogonek" unicode="&#x12f;" horiz-adv-x="238" d="M18 336 L52 336 L52 0 L90 0 C51 -27 17 -66 17 -120 C17 -176 52 -213 129 -213 C162 -213 187 -207 207 -197 L207 -118 C191 -125 172 -127 157 -127 C137 -127 116 -117 116 -89 C116 -60 135 -29 179 0 L204 0 L204 456 L18 456 L18 336 Z M129 536 C166 536 205 557 205 611 C205 663 166 685 129 685 C95 685 53 664 53 611 C53 558 96 536 129 536 L129 536 Z " />
<glyph glyph-name="Idotaccent" unicode="&#x130;" horiz-adv-x="245" d="M122 631 C169 631 197 655 197 699 C197 740 170 767 122 767 C77 767 47 743 47 699 C47 653 77 631 122 631 L122 631 Z M41 0 L204 0 L204 583 L41 583 L41 0 Z " />
<glyph glyph-name="dotlessi" unicode="&#x131;" horiz-adv-x="238" d="M18 336 L52 336 L52 0 L204 0 L204 456 L18 456 L18 336 Z " />
<glyph glyph-name="IJ" unicode="&#x132;" horiz-adv-x="496" d="M41 0 L204 0 L204 583 L41 583 L41 0 Z M360 -109 C419 -12 457 89 457 179 L457 583 L293 583 L293 176 C293 92 268 8 227 -78 L360 -109 Z " />
<glyph glyph-name="ij" unicode="&#x133;" horiz-adv-x="478" d="M256 336 L290 336 L290 18 C290 -57 273 -134 251 -198 L379 -213 C419 -150 443 -57 443 31 L443 456 L256 456 L256 336 Z M18 336 L52 336 L52 0 L204 0 L204 456 L18 456 L18 336 Z M369 536 C421 536 452 562 452 611 C452 657 422 685 369 685 C320 685 286 659 286 611 C286 560 320 536 369 536 L369 536 Z M130 536 C182 536 213 562 213 611 C213 657 183 685 130 685 C81 685 47 659 47 611 C47 560 81 536 130 536 L130 536 Z " />
<glyph glyph-name="Jcircumflex" unicode="&#x134;" horiz-adv-x="251" d="M116 -109 C175 -12 213 89 213 179 L213 583 L49 583 L49 176 C49 92 24 8 -17 -78 L116 -109 Z M71 769 L-5 628 L108 628 L127 710 L134 710 L154 628 L265 628 L191 769 L71 769 Z " />
<glyph glyph-name="jcircumflex" unicode="&#x135;" horiz-adv-x="239" d="M18 336 L52 336 L52 18 C52 -57 35 -134 13 -198 L141 -213 C181 -150 205 -57 205 31 L205 456 L18 456 L18 336 Z M67 672 L-7 524 L105 524 L123 612 L131 612 L149 524 L261 524 L187 672 L67 672 Z " />
<glyph glyph-name="Kcommaaccent" unicode="&#x136;" horiz-adv-x="464" d="M163 -247 L261 -247 L299 -62 L181 -62 L163 -247 Z M286 0 L452 0 L360 325 L452 583 L295 583 L205 304 L205 287 L286 0 Z M41 0 L204 0 L204 583 L41 583 L41 0 Z " />
<glyph glyph-name="kcommaaccent" unicode="&#x137;" horiz-adv-x="418" d="M143 -247 L241 -247 L279 -62 L161 -62 L143 -247 Z M245 0 L406 0 L330 244 L409 456 L252 456 L191 247 L191 227 L245 0 Z M35 0 L187 0 L187 653 L35 653 L35 0 Z " />
<glyph glyph-name="Lacute" unicode="&#x139;" horiz-adv-x="348" d="M41 0 L339 0 L339 126 L204 126 L204 583 L41 583 L41 0 Z M163 630 L242 768 L99 768 L57 630 L163 630 Z " />
<glyph glyph-name="lacute" unicode="&#x13a;" horiz-adv-x="224" d="M160 698 L239 836 L96 836 L54 698 L160 698 Z M36 0 L188 0 L188 653 L36 653 L36 0 Z " />
<glyph glyph-name="Lcommaaccent" unicode="&#x13b;" horiz-adv-x="348" d="M41 0 L339 0 L339 126 L204 126 L204 583 L41 583 L41 0 Z M125 -247 L223 -247 L261 -62 L143 -62 L125 -247 Z " />
<glyph glyph-name="lcommaaccent" unicode="&#x13c;" horiz-adv-x="224" d="M40 -247 L138 -247 L176 -62 L58 -62 L40 -247 Z M36 0 L188 0 L188 653 L36 653 L36 0 Z " />
<glyph glyph-name="Lcaron" unicode="&#x13d;" horiz-adv-x="360" d="M41 0 L339 0 L339 126 L204 126 L204 583 L41 583 L41 0 Z M249 463 L316 463 L372 646 L259 646 L249 463 Z " />
<glyph glyph-name="lcaron" unicode="&#x13e;" horiz-adv-x="240" d="M212 471 L279 471 L335 654 L222 654 L212 471 Z M36 0 L188 0 L188 653 L36 653 L36 0 Z " />
<glyph glyph-name="Ldot" unicode="&#x13f;" horiz-adv-x="403" d="M41 0 L339 0 L339 126 L204 126 L204 583 L41 583 L41 0 Z M323 237 C360 237 399 258 399 312 C399 364 360 386 323 386 C289 386 247 365 247 312 C247 259 290 237 323 237 L323 237 Z " />
<glyph glyph-name="ldot" unicode="&#x140;" horiz-adv-x="352" d="M288 239 C335 239 363 263 363 307 C363 348 336 375 288 375 C243 375 213 351 213 307 C213 261 243 239 288 239 L288 239 Z M36 0 L188 0 L188 653 L36 653 L36 0 Z " />
<glyph glyph-name="Lslash" unicode="&#x141;" horiz-adv-x="355" d="M9 183 L47 205 L47 0 L345 0 L345 126 L210 126 L210 301 L275 339 L275 435 L210 396 L210 583 L47 583 L47 300 L9 278 L9 183 Z " />
<glyph glyph-name="lslash" unicode="&#x142;" horiz-adv-x="264" d="M10 210 L51 235 L51 0 L203 0 L203 329 L252 359 L252 462 L203 431 L203 653 L51 653 L51 337 L10 312 L10 210 Z " />
<glyph glyph-name="Nacute" unicode="&#x143;" horiz-adv-x="503" d="M289 630 L368 768 L225 768 L183 630 L289 630 Z M41 0 L191 0 L190 267 L193 267 L330 0 L462 0 L462 583 L305 583 L306 328 L303 328 L165 583 L41 583 L41 0 Z " />
<glyph glyph-name="nacute" unicode="&#x144;" horiz-adv-x="442" d="M37 0 L189 0 L189 316 C199 325 212 332 223 332 C250 332 257 302 257 221 L257 0 L409 0 L409 316 C409 427 365 465 302 465 C253 465 213 441 182 407 L176 456 L25 456 L37 343 L37 0 Z M272 524 L352 672 L211 672 L167 524 L272 524 Z " />
<glyph glyph-name="Ncommaaccent" unicode="&#x145;" horiz-adv-x="503" d="M188 -247 L286 -247 L324 -62 L206 -62 L188 -247 Z M41 0 L191 0 L190 267 L193 267 L330 0 L462 0 L462 583 L305 583 L306 328 L303 328 L165 583 L41 583 L41 0 Z " />
<glyph glyph-name="ncommaaccent" unicode="&#x146;" horiz-adv-x="442" d="M37 0 L189 0 L189 316 C199 325 212 332 223 332 C250 332 257 302 257 221 L257 0 L409 0 L409 316 C409 427 365 465 302 465 C253 465 213 441 182 407 L176 456 L25 456 L37 343 L37 0 Z M152 -247 L250 -247 L288 -62 L170 -62 L152 -247 Z " />
<glyph glyph-name="Ncaron" unicode="&#x147;" horiz-adv-x="503" d="M308 628 L385 768 L273 768 L253 686 L245 686 L226 768 L115 768 L188 628 L308 628 Z M41 0 L191 0 L190 267 L193 267 L330 0 L462 0 L462 583 L305 583 L306 328 L303 328 L165 583 L41 583 L41 0 Z " />
<glyph glyph-name="ncaron" unicode="&#x148;" horiz-adv-x="442" d="M37 0 L189 0 L189 316 C199 325 212 332 223 332 C250 332 257 302 257 221 L257 0 L409 0 L409 316 C409 427 365 465 302 465 C253 465 213 441 182 407 L176 456 L25 456 L37 343 L37 0 Z M289 524 L364 672 L252 672 L233 585 L226 585 L208 672 L97 672 L169 524 L289 524 Z " />
<glyph glyph-name="napostrophe" unicode="&#x149;" horiz-adv-x="442" d="M37 0 L189 0 L189 316 C199 325 212 332 223 332 C250 332 257 302 257 221 L257 0 L409 0 L409 316 C409 427 365 465 302 465 C253 465 213 441 182 407 L176 456 L25 456 L37 343 L37 0 Z M87 510 C145 580 174 641 174 693 C174 742 144 766 102 766 C59 766 36 741 34 707 C57 693 62 675 62 652 C62 614 45 562 21 516 L87 510 Z " />
<glyph glyph-name="Eng" unicode="&#x14a;" horiz-adv-x="503" d="M41 0 L191 0 L190 267 L193 267 L312 34 C309 -35 292 -107 254 -186 L386 -215 C445 -119 462 -53 462 -5 L462 583 L305 583 L306 328 L303 328 L165 583 L41 583 L41 0 Z " />
<glyph glyph-name="eng" unicode="&#x14b;" horiz-adv-x="442" d="M409 316 C409 427 365 465 302 465 C253 465 213 441 182 407 L176 456 L25 456 L37 343 L37 0 L189 0 L189 316 C199 324 212 332 223 332 C250 332 257 302 257 221 L257 15 C257 -59 241 -135 219 -200 L346 -213 C382 -156 409 -76 409 27 L409 316 Z " />
<glyph glyph-name="Omacron" unicode="&#x14c;" horiz-adv-x="489" d="M120 651 L363 651 L363 751 L120 751 L120 651 Z M239 -11 C392 -11 468 104 468 313 C468 481 405 595 249 595 C88 595 21 465 21 275 C21 97 86 -11 239 -11 L239 -11 Z M245 112 C206 112 188 154 188 297 C188 432 207 472 246 472 C283 472 301 435 301 290 C301 150 284 112 245 112 L245 112 Z " />
<glyph glyph-name="omacron" unicode="&#x14d;" horiz-adv-x="417" d="M95 552 L339 552 L339 652 L95 652 L95 552 Z M204 -8 C335 -8 399 93 399 239 C399 399 333 468 210 468 C87 468 18 365 18 218 C18 70 85 -8 204 -8 L204 -8 Z M209 105 C180 105 171 133 171 230 C171 316 180 349 209 349 C240 349 246 317 246 231 C246 138 238 105 209 105 L209 105 Z " />
<glyph glyph-name="Obreve" unicode="&#x14e;" horiz-adv-x="489" d="M245 720 C216 720 190 736 171 771 L114 703 C132 663 178 624 245 624 C309 624 357 661 376 702 L325 771 C306 738 277 720 245 720 L245 720 Z M239 -11 C392 -11 468 104 468 313 C468 481 405 595 249 595 C88 595 21 465 21 275 C21 97 86 -11 239 -11 L239 -11 Z M245 112 C206 112 188 154 188 297 C188 432 207 472 246 472 C283 472 301 435 301 290 C301 150 284 112 245 112 L245 112 Z " />
<glyph glyph-name="obreve" unicode="&#x14f;" horiz-adv-x="417" d="M204 -8 C335 -8 399 93 399 239 C399 399 333 468 210 468 C87 468 18 365 18 218 C18 70 85 -8 204 -8 L204 -8 Z M209 105 C180 105 171 133 171 230 C171 316 180 349 209 349 C240 349 246 317 246 231 C246 138 238 105 209 105 L209 105 Z M209 628 C179 628 153 646 135 681 L78 613 C96 573 142 532 209 532 C273 532 321 571 340 612 L289 681 C270 648 242 628 209 628 L209 628 Z " />
<glyph glyph-name="Ohungarumlaut" unicode="&#x150;" horiz-adv-x="489" d="M239 -11 C392 -11 468 104 468 313 C468 481 405 595 249 595 C88 595 21 465 21 275 C21 97 86 -11 239 -11 L239 -11 Z M245 112 C206 112 188 154 188 297 C188 432 207 472 246 472 C283 472 301 435 301 290 C301 150 284 112 245 112 L245 112 Z M221 630 L283 768 L141 768 L115 630 L221 630 Z M365 630 L461 768 L319 768 L259 630 L365 630 Z " />
<glyph glyph-name="ohungarumlaut" unicode="&#x151;" horiz-adv-x="417" d="M190 524 L256 672 L115 672 L85 524 L190 524 Z M339 524 L435 672 L294 672 L234 524 L339 524 Z M204 -8 C335 -8 399 93 399 239 C399 399 333 468 210 468 C87 468 18 365 18 218 C18 70 85 -8 204 -8 L204 -8 Z M209 105 C180 105 171 133 171 230 C171 316 180 349 209 349 C240 349 246 317 246 231 C246 138 238 105 209 105 L209 105 Z " />
<glyph glyph-name="OE" unicode="&#x152;" horiz-adv-x="624" d="M283 0 L599 0 L599 126 L447 126 L447 236 L578 236 L578 354 L447 354 L447 457 L597 457 L597 583 L283 583 L283 571 C262 586 238 595 208 595 C82 595 23 468 23 275 C23 97 72 -12 192 -12 C223 -12 256 -1 283 18 L283 0 Z M246 111 C208 111 190 176 190 297 C190 413 209 472 247 472 C261 472 273 464 283 446 L283 139 C273 119 261 111 246 111 L246 111 Z " />
<glyph glyph-name="oe" unicode="&#x153;" horiz-adv-x="636" d="M204 -8 C251 -8 290 5 320 29 C355 3 401 -8 455 -8 C532 -8 571 1 610 17 L610 126 C569 115 533 112 503 112 C448 112 415 125 404 188 L614 188 L614 237 C614 385 571 468 447 468 C400 468 361 456 330 432 C300 456 260 468 210 468 C87 468 18 365 18 218 C18 70 85 -8 204 -8 L204 -8 Z M209 105 C180 105 171 133 171 230 C171 316 180 349 209 349 C240 349 246 317 246 231 C246 138 238 105 209 105 L209 105 Z M437 352 C459 352 468 322 469 258 L400 258 C401 327 414 352 437 352 L437 352 Z " />
<glyph glyph-name="Racute" unicode="&#x154;" horiz-adv-x="461" d="M41 0 L204 0 L204 172 L239 172 L280 0 L450 0 L370 231 C406 265 434 313 434 381 C434 509 374 583 242 583 L41 583 L41 0 Z M254 630 L333 768 L190 768 L148 630 L254 630 Z M214 464 C250 464 268 448 268 380 C268 299 247 291 211 291 L204 291 L204 464 L214 464 Z " />
<glyph glyph-name="racute" unicode="&#x155;" horiz-adv-x="306" d="M37 0 L196 0 L196 261 C211 280 240 301 275 301 C282 301 288 300 295 298 L295 454 C285 458 277 460 269 460 C232 460 205 420 191 392 L183 456 L25 456 L37 343 L37 0 Z M212 524 L292 672 L151 672 L107 524 L212 524 Z " />
<glyph glyph-name="Rcommaaccent" unicode="&#x156;" horiz-adv-x="461" d="M41 0 L204 0 L204 172 L239 172 L280 0 L450 0 L370 231 C406 265 434 313 434 381 C434 509 374 583 242 583 L41 583 L41 0 Z M166 -247 L264 -247 L302 -62 L184 -62 L166 -247 Z M214 464 C250 464 268 448 268 380 C268 299 247 291 211 291 L204 291 L204 464 L214 464 Z " />
<glyph glyph-name="rcommaaccent" unicode="&#x157;" horiz-adv-x="306" d="M37 0 L196 0 L196 261 C211 280 240 301 275 301 C282 301 288 300 295 298 L295 454 C285 458 277 460 269 460 C232 460 205 420 191 392 L183 456 L25 456 L37 343 L37 0 Z M37 -247 L135 -247 L173 -62 L55 -62 L37 -247 Z " />
<glyph glyph-name="Rcaron" unicode="&#x158;" horiz-adv-x="461" d="M41 0 L204 0 L204 172 L239 172 L280 0 L450 0 L370 231 C406 265 434 313 434 381 C434 509 374 583 242 583 L41 583 L41 0 Z M272 628 L349 768 L237 768 L217 686 L209 686 L190 768 L79 768 L152 628 L272 628 Z M214 464 C250 464 268 448 268 380 C268 299 247 291 211 291 L204 291 L204 464 L214 464 Z " />
<glyph glyph-name="rcaron" unicode="&#x159;" horiz-adv-x="306" d="M37 0 L196 0 L196 261 C211 280 240 301 275 301 C282 301 288 300 295 298 L295 454 C285 458 277 460 269 460 C232 460 205 420 191 392 L183 456 L25 456 L37 343 L37 0 Z M227 524 L302 672 L190 672 L171 585 L164 585 L146 672 L35 672 L107 524 L227 524 Z " />
<glyph glyph-name="Sacute" unicode="&#x15a;" horiz-adv-x="369" d="M28 10 C72 -5 121 -11 161 -11 C286 -11 351 55 351 178 C351 286 292 317 239 347 C202 368 176 385 176 419 C176 446 201 467 237 467 C277 467 309 458 333 443 L333 569 C304 587 264 595 208 595 C91 595 22 525 22 420 C22 347 60 294 104 267 C154 236 200 221 200 170 C200 139 179 119 145 119 C102 119 63 128 28 144 L28 10 Z M233 630 L312 768 L169 768 L127 630 L233 630 Z " />
<glyph glyph-name="sacute" unicode="&#x15b;" horiz-adv-x="339" d="M215 524 L295 672 L154 672 L110 524 L215 524 Z M154 -8 C263 -8 325 42 325 140 C325 232 270 254 210 276 C177 288 166 297 166 318 C166 338 186 350 214 350 C246 350 284 341 308 327 L308 444 C277 462 225 468 186 468 C82 468 19 409 19 316 C19 238 70 209 115 190 C155 172 178 166 178 141 C178 116 156 106 132 106 C105 106 70 111 24 130 L24 11 C62 -3 114 -8 154 -8 L154 -8 Z " />
<glyph glyph-name="Scircumflex" unicode="&#x15c;" horiz-adv-x="369" d="M28 10 C72 -5 121 -11 161 -11 C286 -11 351 55 351 178 C351 286 292 317 239 347 C202 368 176 385 176 419 C176 446 201 467 237 467 C277 467 309 458 333 443 L333 569 C304 587 264 595 208 595 C91 595 22 525 22 420 C22 347 60 294 104 267 C154 236 200 221 200 170 C200 139 179 119 145 119 C102 119 63 128 28 144 L28 10 Z M130 769 L54 628 L167 628 L186 710 L193 710 L213 628 L324 628 L250 769 L130 769 Z " />
<glyph glyph-name="scircumflex" unicode="&#x15d;" horiz-adv-x="339" d="M121 672 L47 524 L159 524 L177 612 L185 612 L203 524 L315 524 L241 672 L121 672 Z M154 -8 C263 -8 325 42 325 140 C325 232 270 254 210 276 C177 288 166 297 166 318 C166 338 186 350 214 350 C246 350 284 341 308 327 L308 444 C277 462 225 468 186 468 C82 468 19 409 19 316 C19 238 70 209 115 190 C155 172 178 166 178 141 C178 116 156 106 132 106 C105 106 70 111 24 130 L24 11 C62 -3 114 -8 154 -8 L154 -8 Z " />
<glyph glyph-name="Scedilla" unicode="&#x15e;" horiz-adv-x="369" d="M163 -213 C225 -213 265 -177 265 -128 C265 -83 244 -57 194 -41 L209 -7 C302 8 351 72 351 178 C351 286 292 317 239 347 C202 368 176 385 176 419 C176 446 201 467 237 467 C277 467 309 458 333 443 L333 569 C304 587 264 595 208 595 C91 595 22 525 22 420 C22 347 60 294 104 267 C154 236 200 221 200 170 C200 139 179 119 145 119 C102 119 63 128 28 144 L28 10 C65 -2 105 -9 141 -10 L116 -64 L116 -77 C150 -80 170 -96 170 -115 C170 -129 161 -139 140 -139 C126 -139 103 -135 88 -126 L84 -198 C106 -208 131 -213 163 -213 L163 -213 Z " />
<glyph glyph-name="scedilla" unicode="&#x15f;" horiz-adv-x="340" d="M136 -213 C198 -213 238 -177 238 -128 C238 -83 217 -57 167 -41 L182 -6 C273 1 325 50 325 140 C325 232 270 254 210 276 C177 288 166 297 166 318 C166 338 186 350 214 350 C246 350 284 341 308 327 L308 444 C277 462 225 468 186 468 C82 468 19 409 19 316 C19 238 70 209 115 190 C155 172 178 166 178 141 C178 116 156 106 132 106 C105 106 70 111 24 130 L24 11 C50 1 84 -4 115 -7 L89 -64 L89 -77 C123 -80 143 -96 143 -115 C143 -129 134 -139 113 -139 C99 -139 76 -135 61 -126 L57 -198 C79 -208 104 -213 136 -213 L136 -213 Z " />
<glyph glyph-name="Scaron" unicode="&#x160;" horiz-adv-x="369" d="M28 10 C72 -5 121 -11 161 -11 C286 -11 351 55 351 178 C351 286 292 317 239 347 C202 368 176 385 176 419 C176 446 201 467 237 467 C277 467 309 458 333 443 L333 569 C304 587 264 595 208 595 C91 595 22 525 22 420 C22 347 60 294 104 267 C154 236 200 221 200 170 C200 139 179 119 145 119 C102 119 63 128 28 144 L28 10 Z M248 628 L325 768 L213 768 L193 686 L185 686 L166 768 L55 768 L128 628 L248 628 Z " />
<glyph glyph-name="scaron" unicode="&#x161;" horiz-adv-x="339" d="M243 524 L318 672 L206 672 L187 585 L180 585 L162 672 L51 672 L123 524 L243 524 Z M154 -8 C263 -8 325 42 325 140 C325 232 270 254 210 276 C177 288 166 297 166 318 C166 338 186 350 214 350 C246 350 284 341 308 327 L308 444 C277 462 225 468 186 468 C82 468 19 409 19 316 C19 238 70 209 115 190 C155 172 178 166 178 141 C178 116 156 106 132 106 C105 106 70 111 24 130 L24 11 C62 -3 114 -8 154 -8 L154 -8 Z " />
<glyph glyph-name="Tcommaaccent" unicode="&#x162;" horiz-adv-x="384" d="M9 457 L113 457 L113 0 L277 0 L277 457 L375 457 L375 583 L9 583 L9 457 Z M122 -247 L220 -247 L258 -62 L140 -62 L122 -247 Z " />
<glyph glyph-name="tcommaaccent" unicode="&#x163;" horiz-adv-x="291" d="M17 336 L51 336 L51 138 C51 23 105 -8 183 -8 C212 -8 248 -2 278 10 L278 122 C265 118 252 114 237 114 C210 114 204 138 203 169 L203 336 L272 336 L272 456 L203 456 L203 579 L51 579 L51 456 L17 456 L17 336 Z M95 -247 L193 -247 L231 -62 L113 -62 L95 -247 Z " />
<glyph glyph-name="Tcaron" unicode="&#x164;" horiz-adv-x="384" d="M9 457 L113 457 L113 0 L277 0 L277 457 L375 457 L375 583 L9 583 L9 457 Z M251 628 L328 768 L216 768 L196 686 L188 686 L169 768 L58 768 L131 628 L251 628 Z " />
<glyph glyph-name="tcaron" unicode="&#x165;" horiz-adv-x="291" d="M17 336 L51 336 L51 138 C51 23 105 -8 183 -8 C212 -8 248 -2 278 10 L278 122 C265 118 252 114 237 114 C210 114 204 138 203 169 L203 336 L272 336 L272 456 L203 456 L203 579 L51 579 L51 456 L17 456 L17 336 Z M230 500 L297 500 L353 683 L240 683 L230 500 Z " />
<glyph glyph-name="Tbar" unicode="&#x166;" horiz-adv-x="385" d="M9 457 L113 457 L113 301 L62 301 L62 219 L113 219 L113 0 L277 0 L277 219 L329 219 L329 301 L277 301 L277 457 L375 457 L375 583 L9 583 L9 457 Z " />
<glyph glyph-name="tbar" unicode="&#x167;" horiz-adv-x="292" d="M51 579 L51 456 L17 456 L17 336 L51 336 L51 286 L21 286 L21 205 L51 205 L51 138 C51 23 105 -8 183 -8 C212 -8 248 -2 278 10 L278 122 C265 118 252 114 237 114 C210 114 204 138 203 169 L203 205 L261 205 L261 286 L203 286 L203 336 L272 336 L272 456 L203 456 L203 579 L51 579 Z " />
<glyph glyph-name="Utilde" unicode="&#x168;" horiz-adv-x="494" d="M371 754 C357 739 328 725 310 725 C272 725 255 754 211 754 C169 754 133 725 116 700 L139 630 C156 647 177 660 198 660 C234 660 256 629 300 629 C345 629 375 655 388 680 L371 754 Z M250 -11 C381 -11 457 48 457 234 L457 583 L300 583 L300 224 C300 135 284 112 254 112 C220 112 201 135 201 219 L201 583 L38 583 L38 208 C38 41 121 -11 250 -11 L250 -11 Z " />
<glyph glyph-name="utilde" unicode="&#x169;" horiz-adv-x="442" d="M404 456 L252 456 L252 140 C242 131 231 125 220 125 C192 125 185 155 185 236 L185 456 L33 456 L33 142 C33 30 78 -8 140 -8 C189 -8 230 16 260 52 L269 0 L420 0 L404 114 L404 456 Z M339 668 C326 653 296 639 278 639 C241 639 223 668 180 668 C138 668 101 639 84 614 L107 545 C124 562 145 575 166 575 C203 575 224 545 268 545 C313 545 343 570 357 595 L339 668 Z " />
<glyph glyph-name="Umacron" unicode="&#x16a;" horiz-adv-x="494" d="M131 651 L374 651 L374 751 L131 751 L131 651 Z M250 -11 C381 -11 457 48 457 234 L457 583 L300 583 L300 224 C300 135 284 112 254 112 C220 112 201 135 201 219 L201 583 L38 583 L38 208 C38 41 121 -11 250 -11 L250 -11 Z " />
<glyph glyph-name="umacron" unicode="&#x16b;" horiz-adv-x="442" d="M404 456 L252 456 L252 140 C242 131 231 125 220 125 C192 125 185 155 185 236 L185 456 L33 456 L33 142 C33 30 78 -8 140 -8 C189 -8 230 16 260 52 L269 0 L420 0 L404 114 L404 456 Z M96 552 L340 552 L340 652 L96 652 L96 552 Z " />
<glyph glyph-name="Ubreve" unicode="&#x16c;" horiz-adv-x="494" d="M251 721 C222 721 196 737 177 772 L120 704 C138 664 184 625 251 625 C315 625 363 662 382 703 L331 772 C312 739 283 721 251 721 L251 721 Z M250 -11 C381 -11 457 48 457 234 L457 583 L300 583 L300 224 C300 135 284 112 254 112 C220 112 201 135 201 219 L201 583 L38 583 L38 208 C38 41 121 -11 250 -11 L250 -11 Z " />
<glyph glyph-name="ubreve" unicode="&#x16d;" horiz-adv-x="442" d="M404 456 L252 456 L252 140 C242 131 231 125 220 125 C192 125 185 155 185 236 L185 456 L33 456 L33 142 C33 30 78 -8 140 -8 C189 -8 230 16 260 52 L269 0 L420 0 L404 114 L404 456 Z M221 628 C191 628 165 646 147 681 L90 613 C108 573 154 532 221 532 C285 532 333 571 352 612 L301 681 C282 648 254 628 221 628 L221 628 Z " />
<glyph glyph-name="Uring" unicode="&#x16e;" horiz-adv-x="494" d="M250 -11 C381 -11 457 48 457 234 L457 583 L300 583 L300 224 C300 135 284 112 254 112 C220 112 201 135 201 219 L201 583 L38 583 L38 208 C38 41 121 -11 250 -11 L250 -11 Z M252 810 C195 810 153 784 153 714 C153 643 194 616 252 616 C309 616 350 646 350 714 C350 784 309 810 252 810 L252 810 Z M252 752 C271 752 277 737 277 714 C277 692 272 673 252 673 C236 673 227 690 227 714 C227 736 234 752 252 752 L252 752 Z " />
<glyph glyph-name="uring" unicode="&#x16f;" horiz-adv-x="442" d="M404 456 L252 456 L252 140 C242 131 231 125 220 125 C192 125 185 155 185 236 L185 456 L33 456 L33 142 C33 30 78 -8 140 -8 C189 -8 230 16 260 52 L269 0 L420 0 L404 114 L404 456 Z M221 712 C164 712 123 685 123 616 C123 545 163 517 221 517 C278 517 320 548 320 616 C320 686 278 712 221 712 L221 712 Z M221 654 C240 654 247 638 247 616 C247 593 242 575 221 575 C205 575 196 592 196 616 C196 638 204 654 221 654 L221 654 Z " />
<glyph glyph-name="Uhungarumlaut" unicode="&#x170;" horiz-adv-x="494" d="M250 -11 C381 -11 457 48 457 234 L457 583 L300 583 L300 224 C300 135 284 112 254 112 C220 112 201 135 201 219 L201 583 L38 583 L38 208 C38 41 121 -11 250 -11 L250 -11 Z M229 630 L291 768 L149 768 L123 630 L229 630 Z M373 630 L469 768 L327 768 L267 630 L373 630 Z " />
<glyph glyph-name="uhungarumlaut" unicode="&#x171;" horiz-adv-x="442" d="M404 456 L252 456 L252 140 C242 131 231 125 220 125 C192 125 185 155 185 236 L185 456 L33 456 L33 142 C33 30 78 -8 140 -8 C189 -8 230 16 260 52 L269 0 L420 0 L404 114 L404 456 Z M344 524 L440 672 L299 672 L239 524 L344 524 Z M195 524 L261 672 L120 672 L90 524 L195 524 Z " />
<glyph glyph-name="Uogonek" unicode="&#x172;" horiz-adv-x="494" d="M359 -197 L359 -118 C343 -125 324 -127 309 -127 C289 -127 268 -117 268 -89 C268 -60 286 -31 329 -2 C411 21 457 89 457 234 L457 583 L300 583 L300 224 C300 135 284 112 254 112 C220 112 201 135 201 219 L201 583 L38 583 L38 208 C38 50 112 -4 228 -10 C195 -37 169 -72 169 -120 C169 -176 204 -213 281 -213 C314 -213 339 -207 359 -197 L359 -197 Z " />
<glyph glyph-name="uogonek" unicode="&#x173;" horiz-adv-x="442" d="M404 456 L252 456 L252 140 C242 131 231 125 220 125 C192 125 185 155 185 236 L185 456 L33 456 L33 142 C33 30 78 -8 140 -8 C189 -8 230 16 260 52 L269 0 L303 0 C264 -27 230 -66 230 -120 C230 -176 265 -213 342 -213 C375 -213 400 -207 420 -197 L420 -118 C404 -125 385 -127 370 -127 C350 -127 329 -117 329 -89 C329 -60 348 -29 392 0 L420 0 L404 114 L404 456 Z " />
<glyph glyph-name="Wcircumflex" unicode="&#x174;" horiz-adv-x="678" d="M672 583 L514 583 L484 318 L471 195 L467 195 L453 318 L423 583 L264 583 L228 318 L212 193 L209 193 L198 318 L176 583 L14 583 L94 0 L286 0 L322 250 L337 360 L341 360 L354 250 L384 0 L576 0 L672 583 Z M280 770 L204 629 L317 629 L336 711 L343 711 L363 629 L474 629 L400 770 L280 770 Z " />
<glyph glyph-name="wcircumflex" unicode="&#x175;" horiz-adv-x="563" d="M236 672 L162 524 L274 524 L292 612 L300 612 L318 524 L430 524 L356 672 L236 672 Z M553 456 L435 456 L413 261 L403 153 L399 153 L386 261 L362 456 L216 456 L187 259 L173 153 L169 153 L160 259 L142 456 L14 456 L71 0 L240 0 L267 161 L279 254 L283 254 L294 161 L317 0 L490 0 L553 456 Z " />
<glyph glyph-name="Ycircumflex" unicode="&#x176;" horiz-adv-x="415" d="M414 583 L269 583 L234 421 L214 336 L212 336 L193 421 L158 583 L1 583 L125 193 L125 0 L289 0 L289 185 L414 583 Z M151 769 L75 628 L188 628 L207 710 L214 710 L234 628 L345 628 L271 769 L151 769 Z " />
<glyph glyph-name="ycircumflex" unicode="&#x177;" horiz-adv-x="383" d="M247 -207 L288 2 L380 456 L233 456 L207 252 L196 142 L192 142 L179 251 L152 456 L9 456 L89 0 L140 0 L92 -203 L94 -207 L247 -207 Z M138 672 L64 524 L176 524 L194 612 L202 612 L220 524 L332 524 L258 672 L138 672 Z " />
<glyph glyph-name="Ydieresis" unicode="&#x178;" horiz-adv-x="415" d="M414 583 L269 583 L234 421 L214 336 L212 336 L193 421 L158 583 L1 583 L125 193 L125 0 L289 0 L289 185 L414 583 Z M296 627 C335 627 358 645 358 693 C358 738 336 758 296 758 C257 758 233 739 233 693 C233 646 257 627 296 627 L296 627 Z M138 627 C178 627 200 645 200 692 C200 738 179 758 138 758 C100 758 76 739 76 692 C76 646 100 627 138 627 L138 627 Z " />
<glyph glyph-name="Zacute" unicode="&#x179;" horiz-adv-x="364" d="M344 0 L344 126 L214 126 L351 579 L350 583 L20 583 L20 457 L146 457 L12 3 L13 0 L344 0 Z M231 630 L310 768 L167 768 L125 630 L231 630 Z " />
<glyph glyph-name="zacute" unicode="&#x17a;" horiz-adv-x="346" d="M13 3 L13 0 L329 0 L329 121 L220 121 L330 453 L329 456 L18 456 L18 336 L128 336 L13 3 Z M221 524 L301 672 L160 672 L116 524 L221 524 Z " />
<glyph glyph-name="Zdotaccent" unicode="&#x17b;" horiz-adv-x="364" d="M344 0 L344 126 L214 126 L351 579 L350 583 L20 583 L20 457 L146 457 L12 3 L13 0 L344 0 Z M193 630 C240 630 268 654 268 698 C268 739 241 766 193 766 C148 766 118 742 118 698 C118 652 148 630 193 630 L193 630 Z " />
<glyph glyph-name="zdotaccent" unicode="&#x17c;" horiz-adv-x="346" d="M13 3 L13 0 L329 0 L329 121 L220 121 L330 453 L329 456 L18 456 L18 336 L128 336 L13 3 Z M181 536 C218 536 257 557 257 611 C257 663 218 685 181 685 C147 685 105 664 105 611 C105 558 148 536 181 536 L181 536 Z " />
<glyph glyph-name="Zcaron" unicode="&#x17d;" horiz-adv-x="364" d="M344 0 L344 126 L214 126 L351 579 L350 583 L20 583 L20 457 L146 457 L12 3 L13 0 L344 0 Z M251 628 L328 768 L216 768 L196 686 L188 686 L169 768 L58 768 L131 628 L251 628 Z " />
<glyph glyph-name="zcaron" unicode="&#x17e;" horiz-adv-x="346" d="M13 3 L13 0 L329 0 L329 121 L220 121 L330 453 L329 456 L18 456 L18 336 L128 336 L13 3 Z M237 524 L312 672 L200 672 L181 585 L174 585 L156 672 L45 672 L117 524 L237 524 Z " />
<glyph glyph-name="uni018F" unicode="&#x18f;" horiz-adv-x="479" d="M37 562 L37 440 C78 457 135 469 190 469 C247 469 287 441 287 349 L25 349 C22 317 19 284 19 255 C19 96 85 -12 234 -12 C392 -12 457 135 457 312 C457 528 353 595 216 595 C156 595 92 582 37 562 L37 562 Z M235 111 C205 111 189 154 188 224 L289 224 C287 145 269 111 235 111 L235 111 Z " />
<glyph glyph-name="florin" unicode="&#x192;" horiz-adv-x="311" d="M79 31 C77 -9 66 -31 41 -31 C35 -31 29 -30 22 -27 L18 -134 C39 -139 61 -141 81 -141 C177 -141 220 -75 225 29 L227 220 L275 220 L275 325 L229 325 L230 384 C232 450 241 468 266 468 C274 468 281 467 289 464 L292 586 C273 589 255 591 237 591 C130 591 86 528 85 425 L83 325 L49 325 L49 220 L82 220 L79 31 Z " />
<glyph glyph-name="uni01C4" unicode="&#x1c4;" horiz-adv-x="855" d="M41 0 L263 0 C377 0 471 108 471 305 C471 524 356 583 263 583 L41 583 L41 0 Z M835 0 L835 126 L705 126 L842 579 L841 583 L511 583 L511 457 L637 457 L503 3 L504 0 L835 0 Z M221 457 C273 457 304 438 304 292 C304 156 274 126 223 126 L204 126 L204 457 L221 457 Z M742 628 L819 768 L707 768 L687 686 L679 686 L660 768 L549 768 L622 628 L742 628 Z " />
<glyph glyph-name="uni01C5" unicode="&#x1c5;" horiz-adv-x="838" d="M41 0 L263 0 C377 0 471 108 471 305 C471 524 356 583 263 583 L41 583 L41 0 Z M504 3 L504 0 L820 0 L820 121 L711 121 L821 453 L820 456 L509 456 L509 336 L619 336 L504 3 Z M221 457 C273 457 304 438 304 292 C304 156 274 126 223 126 L204 126 L204 457 L221 457 Z M727 524 L802 672 L690 672 L671 585 L664 585 L646 672 L535 672 L607 524 L727 524 Z " />
<glyph glyph-name="uni01C6" unicode="&#x1c6;" horiz-adv-x="784" d="M263 0 L416 0 L401 100 L401 653 L249 653 L249 461 C231 465 210 468 192 468 C93 468 19 388 19 209 C19 50 81 -7 152 -7 C192 -7 228 15 254 55 L263 0 Z M451 3 L451 0 L767 0 L767 121 L658 121 L768 453 L767 456 L456 456 L456 336 L566 336 L451 3 Z M674 524 L749 672 L637 672 L618 585 L611 585 L593 672 L482 672 L554 524 L674 524 Z M218 108 C187 108 179 148 179 224 C179 310 191 356 228 356 C235 356 242 355 249 354 L249 121 C237 112 229 108 218 108 L218 108 Z " />
<glyph glyph-name="uni01C7" unicode="&#x1c7;" horiz-adv-x="600" d="M41 0 L339 0 L339 126 L204 126 L204 583 L41 583 L41 0 Z M464 -109 C523 -12 561 89 561 179 L561 583 L397 583 L397 176 C397 92 372 8 331 -78 L464 -109 Z " />
<glyph glyph-name="uni01C8" unicode="&#x1c8;" horiz-adv-x="588" d="M41 0 L339 0 L339 126 L204 126 L204 583 L41 583 L41 0 Z M366 336 L400 336 L400 18 C400 -57 383 -134 361 -198 L489 -213 C529 -150 553 -57 553 31 L553 456 L366 456 L366 336 Z M479 536 C531 536 562 562 562 611 C562 657 532 685 479 685 C430 685 396 659 396 611 C396 560 430 536 479 536 L479 536 Z " />
<glyph glyph-name="uni01C9" unicode="&#x1c9;" horiz-adv-x="464" d="M242 336 L276 336 L276 18 C276 -57 259 -134 237 -198 L365 -213 C405 -150 429 -57 429 31 L429 456 L242 456 L242 336 Z M36 0 L188 0 L188 653 L36 653 L36 0 Z M355 536 C407 536 438 562 438 611 C438 657 408 685 355 685 C306 685 272 659 272 611 C272 560 306 536 355 536 L355 536 Z " />
<glyph glyph-name="uni01CA" unicode="&#x1ca;" horiz-adv-x="754" d="M618 -109 C677 -12 715 89 715 179 L715 583 L551 583 L551 176 C551 92 526 8 485 -78 L618 -109 Z M41 0 L191 0 L190 267 L193 267 L330 0 L462 0 L462 583 L305 583 L306 328 L303 328 L165 583 L41 583 L41 0 Z " />
<glyph glyph-name="uni01CB" unicode="&#x1cb;" horiz-adv-x="742" d="M41 0 L191 0 L190 267 L193 267 L330 0 L462 0 L462 583 L305 583 L306 328 L303 328 L165 583 L41 583 L41 0 Z M520 336 L554 336 L554 18 C554 -57 537 -134 515 -198 L643 -213 C683 -150 707 -57 707 31 L707 456 L520 456 L520 336 Z M633 536 C685 536 716 562 716 611 C716 657 686 685 633 685 C584 685 550 659 550 611 C550 560 584 536 633 536 L633 536 Z " />
<glyph glyph-name="uni01CC" unicode="&#x1cc;" horiz-adv-x="682" d="M37 0 L189 0 L189 316 C199 325 212 332 223 332 C250 332 257 302 257 221 L257 0 L409 0 L409 316 C409 427 365 465 302 465 C253 465 213 441 182 407 L176 456 L25 456 L37 343 L37 0 Z M460 336 L494 336 L494 18 C494 -57 477 -134 455 -198 L583 -213 C623 -150 647 -57 647 31 L647 456 L460 456 L460 336 Z M573 536 C625 536 656 562 656 611 C656 657 626 685 573 685 C524 685 490 659 490 611 C490 560 524 536 573 536 L573 536 Z " />
<glyph glyph-name="uni01D3" unicode="&#x1d3;" horiz-adv-x="494" d="M307 629 L384 769 L272 769 L252 687 L244 687 L225 769 L114 769 L187 629 L307 629 Z M250 -11 C381 -11 457 48 457 234 L457 583 L300 583 L300 224 C300 135 284 112 254 112 C220 112 201 135 201 219 L201 583 L38 583 L38 208 C38 41 121 -11 250 -11 L250 -11 Z " />
<glyph glyph-name="uni01D4" unicode="&#x1d4;" horiz-adv-x="442" d="M404 456 L252 456 L252 140 C242 131 231 125 220 125 C192 125 185 155 185 236 L185 456 L33 456 L33 142 C33 30 78 -8 140 -8 C189 -8 230 16 260 52 L269 0 L420 0 L404 114 L404 456 Z M284 524 L359 672 L247 672 L228 585 L221 585 L203 672 L92 672 L164 524 L284 524 Z " />
<glyph glyph-name="uni01E2" unicode="&#x1e2;" horiz-adv-x="579" d="M240 0 L555 0 L555 126 L404 126 L404 236 L533 236 L533 354 L404 354 L404 457 L552 457 L552 583 L125 583 L1 0 L148 0 L169 117 L240 117 L240 0 Z M224 650 L467 650 L467 750 L224 750 L224 650 Z M232 465 L240 465 L240 243 L192 243 L232 465 Z " />
<glyph glyph-name="uni01E3" unicode="&#x1e3;" horiz-adv-x="605" d="M435 -8 C494 -8 540 3 579 20 L579 128 C539 117 505 112 470 112 C418 112 384 127 373 187 L584 187 L584 237 C584 386 542 468 412 468 C374 468 341 459 314 442 C289 460 255 468 212 468 C166 468 108 460 40 439 L40 312 C66 321 112 332 150 332 C189 332 220 320 220 276 L220 252 L202 252 C85 252 12 207 12 113 C12 37 57 -7 121 -7 C194 -7 236 34 256 65 C292 12 353 -8 435 -8 L435 -8 Z M196 552 L440 552 L440 652 L196 652 L196 552 Z M192 89 C175 89 164 103 164 140 C164 182 182 189 206 189 L221 189 C222 159 227 133 234 110 C223 99 208 89 192 89 L192 89 Z M406 352 C429 352 438 317 439 257 L370 257 C373 319 385 352 406 352 L406 352 Z " />
<glyph glyph-name="uni01F1" unicode="&#x1f1;" horiz-adv-x="848" d="M41 0 L263 0 C377 0 471 108 471 305 C471 524 356 583 263 583 L41 583 L41 0 Z M828 0 L828 126 L698 126 L835 579 L834 583 L504 583 L504 457 L630 457 L496 3 L497 0 L828 0 Z M221 457 C273 457 304 438 304 292 C304 156 274 126 223 126 L204 126 L204 457 L221 457 Z " />
<glyph glyph-name="uni01F2" unicode="&#x1f2;" horiz-adv-x="838" d="M41 0 L263 0 C377 0 471 108 471 305 C471 524 356 583 263 583 L41 583 L41 0 Z M504 3 L504 0 L820 0 L820 121 L711 121 L821 453 L820 456 L509 456 L509 336 L619 336 L504 3 Z M221 457 C273 457 304 438 304 292 C304 156 274 126 223 126 L204 126 L204 457 L221 457 Z " />
<glyph glyph-name="uni01F3" unicode="&#x1f3;" horiz-adv-x="784" d="M263 0 L416 0 L401 100 L401 653 L249 653 L249 461 C231 465 210 468 192 468 C93 468 19 388 19 209 C19 50 81 -7 152 -7 C192 -7 228 15 254 55 L263 0 Z M451 3 L451 0 L767 0 L767 121 L658 121 L768 453 L767 456 L456 456 L456 336 L566 336 L451 3 Z M218 108 C187 108 179 148 179 224 C179 310 191 356 228 356 C235 356 242 355 249 354 L249 121 C237 112 229 108 218 108 L218 108 Z " />
<glyph glyph-name="AEacute" unicode="&#x1fc;" horiz-adv-x="579" d="M240 0 L555 0 L555 126 L404 126 L404 236 L533 236 L533 354 L404 354 L404 457 L552 457 L552 583 L125 583 L1 0 L148 0 L169 117 L240 117 L240 0 Z M385 631 L464 769 L321 769 L279 631 L385 631 Z M232 465 L240 465 L240 243 L192 243 L232 465 Z " />
<glyph glyph-name="aeacute" unicode="&#x1fd;" horiz-adv-x="605" d="M435 -8 C494 -8 540 3 579 20 L579 128 C539 117 505 112 470 112 C418 112 384 127 373 187 L584 187 L584 237 C584 386 542 468 412 468 C374 468 341 459 314 442 C289 460 255 468 212 468 C166 468 108 460 40 439 L40 312 C66 321 112 332 150 332 C189 332 220 320 220 276 L220 252 L202 252 C85 252 12 207 12 113 C12 37 57 -7 121 -7 C194 -7 236 34 256 65 C292 12 353 -8 435 -8 L435 -8 Z M362 524 L442 672 L301 672 L257 524 L362 524 Z M192 89 C175 89 164 103 164 140 C164 182 182 189 206 189 L221 189 C222 159 227 133 234 110 C223 99 208 89 192 89 L192 89 Z M406 352 C429 352 438 317 439 257 L370 257 C373 319 385 352 406 352 L406 352 Z " />
<glyph glyph-name="Oslashacute" unicode="&#x1fe;" horiz-adv-x="489" d="M239 -11 C392 -11 468 104 468 313 C468 393 453 461 421 510 L477 595 L414 595 L385 551 C352 579 306 595 249 595 C88 595 21 465 21 275 C21 188 36 119 69 70 L16 -11 L79 -11 L106 30 C139 3 183 -11 239 -11 L239 -11 Z M282 630 L361 768 L218 768 L176 630 L282 630 Z M188 297 C188 432 207 472 246 472 C269 472 285 457 293 411 L188 251 L188 297 Z M245 112 C222 112 206 127 197 169 L300 326 C301 315 301 303 301 290 C301 150 284 112 245 112 L245 112 Z " />
<glyph glyph-name="oslashacute" unicode="&#x1ff;" horiz-adv-x="418" d="M204 -8 C335 -8 399 93 399 239 C399 312 385 366 358 403 L404 468 L351 468 L327 435 C297 457 258 468 210 468 C87 468 18 365 18 218 C18 149 32 95 60 57 L12 -11 L66 -11 L91 25 C121 3 158 -8 204 -8 L204 -8 Z M268 524 L348 672 L207 672 L163 524 L268 524 Z M209 105 C191 105 181 115 176 145 L246 244 L246 231 C246 138 238 105 209 105 L209 105 Z M171 230 C171 316 180 349 209 349 C227 349 236 338 241 313 L171 213 L171 230 Z " />
<glyph glyph-name="Scommaaccent" unicode="&#x218;" horiz-adv-x="369" d="M107 -247 L205 -247 L243 -62 L125 -62 L107 -247 Z M28 10 C72 -5 121 -11 161 -11 C286 -11 351 55 351 178 C351 286 292 317 239 347 C202 368 176 385 176 419 C176 446 201 467 237 467 C277 467 309 458 333 443 L333 569 C304 587 264 595 208 595 C91 595 22 525 22 420 C22 347 60 294 104 267 C154 236 200 221 200 170 C200 139 179 119 145 119 C102 119 63 128 28 144 L28 10 Z " />
<glyph glyph-name="scommaaccent" unicode="&#x219;" horiz-adv-x="339" d="M94 -247 L192 -247 L230 -62 L112 -62 L94 -247 Z M154 -8 C263 -8 325 42 325 140 C325 232 270 254 210 276 C177 288 166 297 166 318 C166 338 186 350 214 350 C246 350 284 341 308 327 L308 444 C277 462 225 468 186 468 C82 468 19 409 19 316 C19 238 70 209 115 190 C155 172 178 166 178 141 C178 116 156 106 132 106 C105 106 70 111 24 130 L24 11 C62 -3 114 -8 154 -8 L154 -8 Z " />
<glyph glyph-name="uni021A" unicode="&#x21a;" horiz-adv-x="384" d="M9 457 L113 457 L113 0 L277 0 L277 457 L375 457 L375 583 L9 583 L9 457 Z M122 -247 L220 -247 L258 -62 L140 -62 L122 -247 Z " />
<glyph glyph-name="uni021B" unicode="&#x21b;" horiz-adv-x="291" d="M17 336 L51 336 L51 138 C51 23 105 -8 183 -8 C212 -8 248 -2 278 10 L278 122 C265 118 252 114 237 114 C210 114 204 138 203 169 L203 336 L272 336 L272 456 L203 456 L203 579 L51 579 L51 456 L17 456 L17 336 Z M95 -247 L193 -247 L231 -62 L113 -62 L95 -247 Z " />
<glyph glyph-name="uni0232" unicode="&#x232;" horiz-adv-x="415" d="M414 583 L269 583 L234 421 L214 336 L212 336 L193 421 L158 583 L1 583 L125 193 L125 0 L289 0 L289 185 L414 583 Z M92 650 L335 650 L335 750 L92 750 L92 650 Z " />
<glyph glyph-name="uni0233" unicode="&#x233;" horiz-adv-x="383" d="M247 -207 L288 2 L380 456 L233 456 L207 252 L196 142 L192 142 L179 251 L152 456 L9 456 L89 0 L140 0 L92 -203 L94 -207 L247 -207 Z M73 552 L317 552 L317 652 L73 652 L73 552 Z " />
<glyph glyph-name="uni0237" unicode="&#x237;" horiz-adv-x="239" d="M18 336 L52 336 L52 18 C52 -57 35 -134 13 -198 L141 -213 C181 -150 205 -57 205 31 L205 456 L18 456 L18 336 Z " />
<glyph glyph-name="uni0259" unicode="&#x259;" horiz-adv-x="404" d="M180 467 C103 467 64 458 25 442 L25 333 C66 344 102 347 132 347 C186 347 220 334 231 271 L21 271 L21 222 C21 74 64 -9 188 -9 C316 -9 385 82 385 240 C385 411 304 467 180 467 L180 467 Z M198 107 C175 107 167 136 166 201 L235 201 C233 131 220 107 198 107 L198 107 Z " />
<glyph glyph-name="circumflex" unicode="&#x2c6;" horiz-adv-x="362" d="M122 672 L48 524 L160 524 L178 612 L186 612 L204 524 L316 524 L242 672 L122 672 Z " />
<glyph glyph-name="caron" unicode="&#x2c7;" horiz-adv-x="414" d="M272 524 L347 672 L235 672 L216 585 L209 585 L191 672 L80 672 L152 524 L272 524 Z " />
<glyph glyph-name="breve" unicode="&#x2d8;" horiz-adv-x="349" d="M175 628 C145 628 119 646 101 681 L44 613 C62 573 108 532 175 532 C239 532 287 571 306 612 L255 681 C236 648 208 628 175 628 L175 628 Z " />
<glyph glyph-name="dotaccent" unicode="&#x2d9;" horiz-adv-x="262" d="M132 536 C169 536 208 557 208 611 C208 663 169 685 132 685 C98 685 56 664 56 611 C56 558 99 536 132 536 L132 536 Z " />
<glyph glyph-name="ring" unicode="&#x2da;" horiz-adv-x="294" d="M147 712 C90 712 49 685 49 616 C49 545 89 517 147 517 C204 517 246 548 246 616 C246 686 204 712 147 712 L147 712 Z M147 654 C166 654 173 638 173 616 C173 593 168 575 147 575 C131 575 122 592 122 616 C122 638 130 654 147 654 L147 654 Z " />
<glyph glyph-name="ogonek" unicode="&#x2db;" horiz-adv-x="401" d="M340 -197 L340 -118 C324 -125 305 -127 290 -127 C270 -127 249 -117 249 -89 C249 -56 274 -21 332 12 L270 26 C215 1 150 -45 150 -120 C150 -176 185 -213 262 -213 C295 -213 320 -207 340 -197 L340 -197 Z " />
<glyph glyph-name="tilde" unicode="&#x2dc;" horiz-adv-x="367" d="M302 668 C289 653 259 639 241 639 C204 639 186 668 143 668 C101 668 64 639 47 614 L70 545 C87 562 108 575 129 575 C166 575 187 545 231 545 C276 545 306 570 320 595 L302 668 Z " />
<glyph glyph-name="hungarumlaut" unicode="&#x2dd;" horiz-adv-x="446" d="M153 524 L219 672 L78 672 L48 524 L153 524 Z M302 524 L398 672 L257 672 L197 524 L302 524 Z " />
<glyph glyph-name="dotbelowcmb" unicode="&#x323;" d="M-93 -221 C-57 -221 -18 -201 -18 -147 C-18 -96 -57 -74 -93 -74 C-127 -74 -169 -94 -169 -147 C-169 -200 -126 -221 -93 -221 L-93 -221 Z " />
<glyph glyph-name="uni0394" unicode="&#x394;" horiz-adv-x="483" d="M467 0 L467 110 L337 583 L159 583 L15 108 L16 0 L467 0 Z M236 418 L241 418 L287 126 L180 126 L236 418 Z " />
<glyph glyph-name="Sigma" unicode="&#x3a3;" horiz-adv-x="323" d="M31 0 L294 0 L294 127 L186 127 L236 296 L185 457 L290 457 L290 583 L31 583 L31 468 L86 296 L31 121 L31 0 Z " />
<glyph glyph-name="pi" unicode="&#x3c0;" horiz-adv-x="477" d="M417 336 L441 336 L441 456 L27 456 L27 336 L52 336 L52 0 L203 0 L203 336 L265 336 L265 78 C265 25 302 -8 366 -8 C393 -8 420 -3 449 8 L449 109 C443 108 437 107 433 107 C419 107 417 125 417 163 L417 336 Z " />
<glyph glyph-name="uni1E46" unicode="&#x1e46;" horiz-adv-x="503" d="M250 -221 C286 -221 325 -201 325 -147 C325 -96 286 -74 250 -74 C216 -74 174 -94 174 -147 C174 -200 217 -221 250 -221 L250 -221 Z M41 0 L191 0 L190 267 L193 267 L330 0 L462 0 L462 583 L305 583 L306 328 L303 328 L165 583 L41 583 L41 0 Z " />
<glyph glyph-name="uni1E47" unicode="&#x1e47;" horiz-adv-x="442" d="M37 0 L189 0 L189 316 C199 325 212 332 223 332 C250 332 257 302 257 221 L257 0 L409 0 L409 316 C409 427 365 465 302 465 C253 465 213 441 182 407 L176 456 L25 456 L37 343 L37 0 Z M222 -221 C258 -221 297 -201 297 -147 C297 -96 258 -74 222 -74 C188 -74 146 -94 146 -147 C146 -200 189 -221 222 -221 L222 -221 Z " />
<glyph glyph-name="uni1E62" unicode="&#x1e62;" horiz-adv-x="369" d="M175 -221 C211 -221 250 -201 250 -147 C250 -96 211 -74 175 -74 C141 -74 99 -94 99 -147 C99 -200 142 -221 175 -221 L175 -221 Z M28 10 C72 -5 121 -11 161 -11 C286 -11 351 55 351 178 C351 286 292 317 239 347 C202 368 176 385 176 419 C176 446 201 467 237 467 C277 467 309 458 333 443 L333 569 C304 587 264 595 208 595 C91 595 22 525 22 420 C22 347 60 294 104 267 C154 236 200 221 200 170 C200 139 179 119 145 119 C102 119 63 128 28 144 L28 10 Z " />
<glyph glyph-name="uni1E63" unicode="&#x1e63;" horiz-adv-x="339" d="M162 -221 C198 -221 237 -201 237 -147 C237 -96 198 -74 162 -74 C128 -74 86 -94 86 -147 C86 -200 129 -221 162 -221 L162 -221 Z M154 -8 C263 -8 325 42 325 140 C325 232 270 254 210 276 C177 288 166 297 166 318 C166 338 186 350 214 350 C246 350 284 341 308 327 L308 444 C277 462 225 468 186 468 C82 468 19 409 19 316 C19 238 70 209 115 190 C155 172 178 166 178 141 C178 116 156 106 132 106 C105 106 70 111 24 130 L24 11 C62 -3 114 -8 154 -8 L154 -8 Z " />
<glyph glyph-name="Wgrave" unicode="&#x1e80;" horiz-adv-x="678" d="M398 630 L355 768 L213 768 L291 630 L398 630 Z M672 583 L514 583 L484 318 L471 195 L467 195 L453 318 L423 583 L264 583 L228 318 L212 193 L209 193 L198 318 L176 583 L14 583 L94 0 L286 0 L322 250 L337 360 L341 360 L354 250 L384 0 L576 0 L672 583 Z " />
<glyph glyph-name="wgrave" unicode="&#x1e81;" horiz-adv-x="563" d="M553 456 L435 456 L413 261 L403 153 L399 153 L386 261 L362 456 L216 456 L187 259 L173 153 L169 153 L160 259 L142 456 L14 456 L71 0 L240 0 L267 161 L279 254 L283 254 L294 161 L317 0 L490 0 L553 456 Z M338 524 L294 672 L152 672 L233 524 L338 524 Z " />
<glyph glyph-name="Wacute" unicode="&#x1e82;" horiz-adv-x="678" d="M393 629 L472 767 L329 767 L287 629 L393 629 Z M672 583 L514 583 L484 318 L471 195 L467 195 L453 318 L423 583 L264 583 L228 318 L212 193 L209 193 L198 318 L176 583 L14 583 L94 0 L286 0 L322 250 L337 360 L341 360 L354 250 L384 0 L576 0 L672 583 Z " />
<glyph glyph-name="wacute" unicode="&#x1e83;" horiz-adv-x="563" d="M345 524 L425 672 L284 672 L240 524 L345 524 Z M553 456 L435 456 L413 261 L403 153 L399 153 L386 261 L362 456 L216 456 L187 259 L173 153 L169 153 L160 259 L142 456 L14 456 L71 0 L240 0 L267 161 L279 254 L283 254 L294 161 L317 0 L490 0 L553 456 Z " />
<glyph glyph-name="Wdieresis" unicode="&#x1e84;" horiz-adv-x="678" d="M259 627 C299 627 321 645 321 692 C321 738 300 758 259 758 C221 758 197 739 197 692 C197 646 221 627 259 627 L259 627 Z M417 627 C456 627 479 645 479 693 C479 738 457 758 417 758 C378 758 354 739 354 693 C354 646 378 627 417 627 L417 627 Z M672 583 L514 583 L484 318 L471 195 L467 195 L453 318 L423 583 L264 583 L228 318 L212 193 L209 193 L198 318 L176 583 L14 583 L94 0 L286 0 L322 250 L337 360 L341 360 L354 250 L384 0 L576 0 L672 583 Z " />
<glyph glyph-name="wdieresis" unicode="&#x1e85;" horiz-adv-x="563" d="M200 542 C240 542 262 560 262 607 C262 653 241 673 200 673 C162 673 138 654 138 607 C138 561 162 542 200 542 L200 542 Z M357 542 C397 542 420 560 420 608 C420 653 398 673 357 673 C319 673 295 654 295 608 C295 561 319 542 357 542 L357 542 Z M553 456 L435 456 L413 261 L403 153 L399 153 L386 261 L362 456 L216 456 L187 259 L173 153 L169 153 L160 259 L142 456 L14 456 L71 0 L240 0 L267 161 L279 254 L283 254 L294 161 L317 0 L490 0 L553 456 Z " />
<glyph glyph-name="uni1EBC" unicode="&#x1ebc;" horiz-adv-x="380" d="M41 0 L355 0 L355 126 L204 126 L204 236 L333 236 L333 354 L204 354 L204 457 L353 457 L353 583 L41 583 L41 0 Z M321 754 C307 739 278 725 260 725 C222 725 205 754 161 754 C119 754 83 725 66 700 L89 630 C106 647 127 660 148 660 C184 660 206 629 250 629 C295 629 325 655 338 680 L321 754 Z " />
<glyph glyph-name="uni1EBD" unicode="&#x1ebd;" horiz-adv-x="404" d="M224 -8 C301 -8 340 1 379 17 L379 126 C338 115 302 112 272 112 C217 112 184 125 173 188 L383 188 L383 237 C383 385 340 468 216 468 C88 468 19 377 19 219 C19 48 100 -8 224 -8 L224 -8 Z M335 668 C322 653 292 639 274 639 C237 639 219 668 176 668 C134 668 97 639 80 614 L103 545 C120 562 141 575 162 575 C199 575 220 545 264 545 C309 545 339 570 353 595 L335 668 Z M206 352 C228 352 237 322 238 258 L169 258 C170 327 183 352 206 352 L206 352 Z " />
<glyph glyph-name="Ygrave" unicode="&#x1ef2;" horiz-adv-x="415" d="M414 583 L269 583 L234 421 L214 336 L212 336 L193 421 L158 583 L1 583 L125 193 L125 0 L289 0 L289 185 L414 583 Z M274 630 L231 768 L89 768 L167 630 L274 630 Z " />
<glyph glyph-name="ygrave" unicode="&#x1ef3;" horiz-adv-x="383" d="M247 -207 L288 2 L380 456 L233 456 L207 252 L196 142 L192 142 L179 251 L152 456 L9 456 L89 0 L140 0 L92 -203 L94 -207 L247 -207 Z M248 522 L204 670 L62 670 L143 522 L248 522 Z " />
<glyph glyph-name="uni2004" unicode="&#x2004;" horiz-adv-x="212" d="" />
<glyph glyph-name="uni2007" unicode="&#x2007;" horiz-adv-x="400" d="" />
<glyph glyph-name="uni2009" unicode="&#x2009;" horiz-adv-x="160" d="" />
<glyph glyph-name="uni200A" unicode="&#x200a;" horiz-adv-x="136" d="" />
<glyph glyph-name="uni200B" unicode="&#x200b;" d="" />
<glyph glyph-name="uni2012" unicode="&#x2012;" horiz-adv-x="378" d="M388 204 L388 326 L-10 326 L-10 204 L388 204 Z " />
<glyph glyph-name="endash" unicode="&#x2013;" horiz-adv-x="372" d="M36 209 L336 209 L336 293 L36 293 L36 209 Z " />
<glyph glyph-name="emdash" unicode="&#x2014;" horiz-adv-x="745" d="M36 209 L709 209 L709 293 L36 293 L36 209 Z " />
<glyph glyph-name="quoteleft" unicode="&#x2018;" horiz-adv-x="203" d="M121 680 C57 603 26 535 26 477 C26 423 58 397 105 397 C152 397 178 424 180 461 C154 478 149 497 149 523 C149 565 168 622 195 673 L121 680 Z " />
<glyph glyph-name="quoteright" unicode="&#x2019;" horiz-adv-x="196" d="M95 438 C159 515 190 583 190 641 C190 695 158 721 111 721 C64 721 38 694 36 657 C62 640 67 621 67 595 C67 553 48 496 21 445 L95 438 Z " />
<glyph glyph-name="quotesinglbase" unicode="&#x201a;" horiz-adv-x="208" d="M83 -144 C147 -66 178 2 178 61 C178 115 146 141 99 141 C51 141 26 113 23 76 C49 60 54 40 54 15 C54 -28 35 -86 8 -137 L83 -144 Z " />
<glyph glyph-name="quotedblleft" unicode="&#x201c;" horiz-adv-x="373" d="M121 680 C57 603 26 535 26 477 C26 423 58 397 105 397 C152 397 178 424 180 461 C154 478 149 497 149 523 C149 565 168 622 195 673 L121 680 Z M291 680 C227 603 196 535 196 477 C196 423 228 397 275 397 C322 397 348 424 350 461 C324 478 319 497 319 523 C319 565 338 622 365 673 L291 680 Z " />
<glyph glyph-name="quotedblright" unicode="&#x201d;" horiz-adv-x="373" d="M96 429 C160 506 191 574 191 632 C191 686 159 712 112 712 C65 712 39 685 37 648 C63 631 68 612 68 586 C68 544 49 487 22 436 L96 429 Z M269 429 C333 506 364 574 364 632 C364 686 332 712 285 712 C238 712 212 685 210 648 C236 631 241 612 241 586 C241 544 222 487 195 436 L269 429 Z " />
<glyph glyph-name="quotedblbase" unicode="&#x201e;" horiz-adv-x="382" d="M83 -144 C147 -66 178 2 178 61 C178 115 146 141 99 141 C51 141 26 113 23 76 C49 60 54 40 54 15 C54 -28 35 -86 8 -137 L83 -144 Z M257 -144 C321 -66 352 2 352 61 C352 115 320 141 273 141 C225 141 200 113 197 76 C223 60 228 40 228 15 C228 -28 209 -86 182 -137 L257 -144 Z " />
<glyph glyph-name="dagger" unicode="&#x2020;" horiz-adv-x="350" d="M18 359 L117 359 L117 0 L233 0 L233 359 L332 359 L332 465 L233 465 L233 653 L117 653 L117 465 L18 465 L18 359 Z " />
<glyph glyph-name="daggerdbl" unicode="&#x2021;" horiz-adv-x="370" d="M28 381 L127 381 L127 259 L28 259 L28 154 L127 154 L127 0 L243 0 L243 154 L342 154 L342 259 L243 259 L243 381 L342 381 L342 486 L243 486 L243 653 L127 653 L127 486 L28 486 L28 381 Z " />
<glyph glyph-name="bullet" unicode="&#x2022;" horiz-adv-x="369" d="M185 156 C266 156 328 218 328 299 C328 379 266 441 185 441 C104 441 42 379 42 299 C42 218 104 156 185 156 L185 156 Z " />
<glyph glyph-name="ellipsis" unicode="&#x2026;" horiz-adv-x="639" d="M112 -8 C166 -8 198 19 198 69 C198 117 167 147 112 147 C62 147 27 119 27 69 C27 17 62 -8 112 -8 L112 -8 Z M319 -8 C373 -8 405 19 405 69 C405 117 374 147 319 147 C269 147 234 119 234 69 C234 17 269 -8 319 -8 L319 -8 Z M527 -8 C581 -8 613 19 613 69 C613 117 582 147 527 147 C477 147 442 119 442 69 C442 17 477 -8 527 -8 L527 -8 Z " />
<glyph glyph-name="perthousand" unicode="&#x2030;" horiz-adv-x="819" d="M139 281 C214 281 257 336 257 436 C257 547 214 595 139 595 C62 595 19 536 19 434 C19 328 62 281 139 281 L139 281 Z M291 347 L363 347 L480 564 L480 583 L369 583 L291 347 Z M140 353 C120 353 114 381 114 435 C114 497 120 521 138 521 C156 521 161 498 161 433 C161 375 155 353 140 353 L140 353 Z M429 -12 C504 -12 547 44 547 144 C547 254 504 302 429 302 C352 302 310 244 310 142 C310 36 352 -12 429 -12 L429 -12 Z M430 61 C410 61 404 88 404 143 C404 203 410 228 428 228 C447 228 452 206 452 141 C452 83 446 61 430 61 L430 61 Z M287 244 L215 244 L94 19 L94 0 L206 0 L287 244 Z M682 -12 C757 -12 800 44 800 144 C800 254 757 302 682 302 C605 302 562 244 562 142 C562 36 605 -12 682 -12 L682 -12 Z M682 61 C663 61 657 88 657 143 C657 203 663 228 680 228 C700 228 705 206 705 141 C705 83 699 61 682 61 L682 61 Z " />
<glyph glyph-name="guilsinglleft" unicode="&#x2039;" horiz-adv-x="258" d="M102 46 L234 46 L175 226 L227 405 L102 405 L22 226 L102 46 Z " />
<glyph glyph-name="guilsinglright" unicode="&#x203a;" horiz-adv-x="258" d="M156 408 L24 408 L83 228 L31 49 L156 49 L236 228 L156 408 Z " />
<glyph glyph-name="uni203D" unicode="&#x203d;" horiz-adv-x="295" d="M58 300 L80 194 L157 206 L156 257 C212 285 276 342 276 442 C276 541 223 591 131 591 C99 591 56 582 32 568 L32 466 C52 475 77 481 100 481 C138 481 170 462 170 414 C170 387 163 365 149 347 L139 429 L42 417 L58 300 Z M119 -8 C167 -8 195 29 195 64 C195 106 167 141 119 141 C72 141 41 104 41 64 C41 27 72 -8 119 -8 L119 -8 Z " />
<glyph glyph-name="fraction" unicode="&#x2044;" horiz-adv-x="98" d="M-36 0 L193 546 L193 552 L131 552 L-100 5 L-100 0 L-36 0 Z " />
<glyph glyph-name="zerosuperior" unicode="&#x2070;" horiz-adv-x="291" d="M144 396 C232 396 279 453 279 558 C279 659 237 721 147 721 C66 721 11 665 11 549 C11 447 57 396 144 396 L144 396 Z M146 464 C127 464 123 482 123 555 C123 633 129 653 145 653 C163 653 167 627 167 558 C167 483 163 464 146 464 L146 464 Z " />
<glyph glyph-name="i.superior" unicode="&#x2071;" horiz-adv-x="177" d="M14 630 L38 630 L38 400 L152 400 L152 716 L14 716 L14 630 Z M96 769 C136 769 159 788 159 823 C159 855 136 876 96 876 C59 876 33 857 33 823 C33 787 59 769 96 769 L96 769 Z " />
<glyph glyph-name="foursuperior" unicode="&#x2074;" horiz-adv-x="228" d="M87 400 L196 400 L196 462 L214 462 L214 527 L196 527 L196 717 L85 717 L3 522 L3 462 L87 462 L87 400 Z M50 527 L85 613 L87 613 L87 527 L50 527 Z " />
<glyph glyph-name="fivesuperior" unicode="&#x2075;" horiz-adv-x="208" d="M89 395 C147 395 197 424 197 501 C197 576 151 599 104 599 C98 599 93 598 88 597 L89 644 L189 644 L189 716 L26 716 L19 532 C27 534 35 535 44 535 C69 535 87 528 87 501 C87 476 71 467 51 467 C39 467 26 469 16 474 L16 407 C39 400 63 395 89 395 L89 395 Z " />
<glyph glyph-name="sixsuperior" unicode="&#x2076;" horiz-adv-x="255" d="M127 395 C205 395 247 438 247 509 C247 561 223 606 159 606 C142 606 126 600 113 590 C119 633 135 651 166 651 C180 651 203 648 225 639 L225 710 C202 716 179 721 154 721 C69 721 11 658 11 540 C11 448 51 395 127 395 L127 395 Z M129 548 C141 548 148 538 148 506 C148 476 142 460 129 460 C114 460 110 486 110 540 L110 541 C115 545 122 548 129 548 L129 548 Z " />
<glyph glyph-name="sevensuperior" unicode="&#x2077;" horiz-adv-x="199" d="M112 400 L200 672 L200 716 L6 716 L6 644 L93 644 L15 404 L16 400 L112 400 Z " />
<glyph glyph-name="eightsuperior" unicode="&#x2078;" horiz-adv-x="258" d="M246 490 C246 535 218 556 187 571 C217 587 242 609 242 640 C242 692 203 721 129 721 C51 721 16 678 16 628 C16 589 40 566 67 548 C40 534 11 512 11 476 C11 417 64 395 127 395 C212 395 246 437 246 490 L246 490 Z M102 490 C102 502 105 514 108 524 C131 511 149 498 149 480 C149 460 139 453 126 453 C112 453 102 468 102 490 L102 490 Z M151 627 C151 616 147 603 142 591 C123 601 110 613 110 633 C110 650 118 657 129 657 C144 657 151 647 151 627 L151 627 Z " />
<glyph glyph-name="ninesuperior" unicode="&#x2079;" horiz-adv-x="256" d="M30 404 C52 397 81 395 102 395 C187 395 245 458 245 577 C245 667 205 721 128 721 C51 721 9 679 9 608 C9 556 33 511 97 511 C114 511 129 516 143 526 C136 483 120 463 90 463 C75 463 51 466 30 475 L30 404 Z M127 568 C115 568 107 578 107 610 C107 642 114 657 127 657 C141 657 146 631 146 576 L146 575 C140 571 133 568 127 568 L127 568 Z " />
<glyph glyph-name="plussuperior" unicode="&#x207a;" horiz-adv-x="234" d="M12 523 L78 523 L78 440 L156 440 L156 523 L222 523 L222 608 L156 608 L156 691 L78 691 L78 608 L12 608 L12 523 Z " />
<glyph glyph-name="minussuperior" unicode="&#x207b;" horiz-adv-x="249" d="M20 524 L229 524 L229 609 L20 609 L20 524 Z " />
<glyph glyph-name="equalsuperior" unicode="&#x207c;" horiz-adv-x="246" d="M20 455 L226 455 L226 541 L20 541 L20 455 Z M20 600 L226 600 L226 685 L20 685 L20 600 Z " />
<glyph glyph-name="parenleftsuperior" unicode="&#x207d;" horiz-adv-x="158" d="M169 312 C135 360 90 452 90 594 C90 730 132 813 165 864 L85 864 C53 816 6 722 6 590 C6 458 47 370 87 312 L169 312 Z " />
<glyph glyph-name="parenrightsuperior" unicode="&#x207e;" horiz-adv-x="157" d="M72 312 C108 365 150 457 150 588 C150 721 106 811 70 864 L-12 864 C22 816 67 726 67 584 C67 448 24 364 -9 312 L72 312 Z " />
<glyph glyph-name="n.superior" unicode="&#x207f;" horiz-adv-x="326" d="M27 400 L142 400 L142 617 C149 623 156 627 163 627 C182 627 187 606 187 548 L187 400 L302 400 L302 614 C302 693 270 722 225 722 C190 722 159 705 137 682 L133 716 L19 716 L27 637 L27 400 Z " />
<glyph glyph-name="zeroinferior" unicode="&#x2080;" horiz-adv-x="291" d="M144 -4 C232 -4 279 53 279 158 C279 259 237 321 147 321 C66 321 11 265 11 149 C11 47 57 -4 144 -4 L144 -4 Z M146 64 C127 64 123 82 123 155 C123 233 129 253 145 253 C163 253 167 227 167 158 C167 83 163 64 146 64 L146 64 Z " />
<glyph glyph-name="oneinferior" unicode="&#x2081;" horiz-adv-x="182" d="M156 0 L156 317 L59 317 L10 291 L10 225 L41 235 L41 0 L156 0 Z " />
<glyph glyph-name="twoinferior" unicode="&#x2082;" horiz-adv-x="212" d="M79 210 C79 158 55 121 13 59 L13 0 L200 0 L200 77 L108 77 L108 81 C156 118 194 176 194 230 C194 295 153 321 101 321 C73 321 42 318 14 302 L18 234 C30 243 43 246 53 246 C68 246 79 231 79 210 L79 210 Z " />
<glyph glyph-name="threeinferior" unicode="&#x2083;" horiz-adv-x="205" d="M80 -4 C141 -4 194 20 194 93 C194 135 175 168 122 176 L122 178 C169 191 189 211 189 251 C189 301 143 321 92 321 C63 321 35 315 15 305 L15 236 C26 243 37 246 47 246 C64 246 78 237 78 217 C78 193 57 183 36 179 L36 133 C64 132 84 122 84 98 C84 76 69 67 51 67 C37 67 24 69 13 75 L13 4 C33 -1 56 -4 80 -4 L80 -4 Z " />
<glyph glyph-name="fourinferior" unicode="&#x2084;" horiz-adv-x="227" d="M87 0 L196 0 L196 62 L214 62 L214 127 L196 127 L196 317 L85 317 L3 122 L3 62 L87 62 L87 0 Z M50 127 L85 213 L87 213 L87 127 L50 127 Z " />
<glyph glyph-name="fiveinferior" unicode="&#x2085;" horiz-adv-x="208" d="M89 -5 C147 -5 197 24 197 101 C197 176 151 199 104 199 C98 199 93 198 88 197 L89 244 L189 244 L189 316 L26 316 L19 132 C27 134 35 135 44 135 C69 135 87 128 87 101 C87 76 71 67 51 67 C39 67 26 69 16 74 L16 7 C39 0 63 -5 89 -5 L89 -5 Z " />
<glyph glyph-name="sixinferior" unicode="&#x2086;" horiz-adv-x="255" d="M127 -5 C205 -5 247 38 247 109 C247 161 223 206 159 206 C142 206 126 200 113 190 C119 233 135 251 166 251 C180 251 203 248 225 239 L225 310 C202 316 179 321 154 321 C69 321 11 258 11 140 C11 48 51 -5 127 -5 L127 -5 Z M129 148 C141 148 148 138 148 106 C148 76 142 60 129 60 C114 60 110 86 110 140 L110 141 C115 145 122 148 129 148 L129 148 Z " />
<glyph glyph-name="seveninferior" unicode="&#x2087;" horiz-adv-x="199" d="M112 0 L200 272 L200 316 L6 316 L6 244 L93 244 L15 4 L16 0 L112 0 Z " />
<glyph glyph-name="eightinferior" unicode="&#x2088;" horiz-adv-x="258" d="M246 90 C246 135 218 156 187 171 C217 187 242 209 242 240 C242 292 203 321 129 321 C51 321 16 278 16 228 C16 189 40 166 67 148 C40 134 11 112 11 76 C11 17 64 -5 127 -5 C212 -5 246 37 246 90 L246 90 Z M102 90 C102 102 105 114 108 124 C131 111 149 98 149 80 C149 60 139 53 126 53 C112 53 102 68 102 90 L102 90 Z M151 227 C151 216 147 203 142 191 C123 201 110 213 110 233 C110 250 118 257 129 257 C144 257 151 247 151 227 L151 227 Z " />
<glyph glyph-name="nineinferior" unicode="&#x2089;" horiz-adv-x="256" d="M30 4 C52 -3 81 -5 102 -5 C187 -5 245 58 245 177 C245 267 205 321 128 321 C51 321 9 279 9 208 C9 156 33 111 97 111 C114 111 129 116 143 126 C136 83 120 63 90 63 C75 63 51 66 30 75 L30 4 Z M127 168 C115 168 107 178 107 210 C107 242 114 257 127 257 C141 257 146 231 146 176 L146 175 C140 171 133 168 127 168 L127 168 Z " />
<glyph glyph-name="plus.inferior" unicode="&#x208a;" horiz-adv-x="234" d="M12 123 L78 123 L78 40 L156 40 L156 123 L222 123 L222 208 L156 208 L156 291 L78 291 L78 208 L12 208 L12 123 Z " />
<glyph glyph-name="minus.inferior" unicode="&#x208b;" horiz-adv-x="249" d="M20 124 L229 124 L229 209 L20 209 L20 124 Z " />
<glyph glyph-name="equal.inferior" unicode="&#x208c;" horiz-adv-x="246" d="M20 55 L226 55 L226 141 L20 141 L20 55 Z M20 200 L226 200 L226 285 L20 285 L20 200 Z " />
<glyph glyph-name="parenleft.inferior" unicode="&#x208d;" horiz-adv-x="157" d="M169 -88 C135 -40 90 52 90 194 C90 330 132 413 165 464 L85 464 C53 416 6 322 6 190 C6 58 47 -30 87 -88 L169 -88 Z " />
<glyph glyph-name="parenright.inferior" unicode="&#x208e;" horiz-adv-x="157" d="M72 -88 C108 -35 150 57 150 188 C150 321 106 411 70 464 L-12 464 C22 416 67 326 67 184 C67 48 24 -36 -9 -88 L72 -88 Z " />
<glyph glyph-name="a.inferior" unicode="&#x2090;" horiz-adv-x="298" d="M169 0 L283 0 L272 78 L272 208 C272 295 228 323 154 323 C119 323 77 318 26 303 L26 213 C45 219 79 227 107 227 C135 227 158 218 158 187 L158 173 L146 173 C58 173 7 142 7 78 C7 25 39 -6 85 -6 C123 -6 153 14 164 32 L169 0 Z M139 63 C128 63 120 73 120 97 C120 123 132 129 149 129 L158 129 L158 72 C152 67 145 63 139 63 L139 63 Z " />
<glyph glyph-name="e.inferior" unicode="&#x2091;" horiz-adv-x="292" d="M276 13 L276 91 C245 83 221 80 195 80 C159 80 134 89 126 130 L279 130 L279 163 C279 267 248 323 153 323 C64 323 11 260 11 150 C11 33 70 -6 170 -6 C212 -6 247 2 276 13 L276 13 Z M148 242 C163 242 169 220 170 179 L124 179 C126 221 135 242 148 242 L148 242 Z " />
<glyph glyph-name="o.inferior" unicode="&#x2092;" horiz-adv-x="304" d="M148 -6 C244 -6 293 62 293 165 C293 276 242 323 153 323 C62 323 10 253 10 151 C10 47 62 -6 148 -6 L148 -6 Z M152 75 C132 75 126 94 126 159 C126 217 132 240 152 240 C173 240 177 218 177 160 C177 97 172 75 152 75 L152 75 Z " />
<glyph glyph-name="x.inferior" unicode="&#x2093;" horiz-adv-x="272" d="M110 316 L6 316 L62 162 L4 0 L107 0 L131 97 L139 97 L161 0 L267 0 L210 163 L267 316 L163 316 L140 215 L133 215 L110 316 Z " />
<glyph glyph-name="h.inferior" unicode="&#x2095;" horiz-adv-x="325" d="M186 0 L301 0 L301 214 C301 293 269 322 222 322 C190 322 163 307 141 286 L141 460 L26 460 L26 0 L141 0 L141 218 C148 223 156 227 162 227 C181 227 186 206 186 148 L186 0 Z " />
<glyph glyph-name="k.inferior" unicode="&#x2096;" horiz-adv-x="308" d="M180 0 L302 0 L248 169 L303 316 L184 316 L143 171 L143 157 L180 0 Z M26 0 L141 0 L141 460 L26 460 L26 0 Z " />
<glyph glyph-name="l.inferior" unicode="&#x2097;" horiz-adv-x="174" d="M30 0 L145 0 L145 460 L30 460 L30 0 Z " />
<glyph glyph-name="m.inferior" unicode="&#x2098;" horiz-adv-x="474" d="M336 0 L451 0 L451 214 C451 293 419 322 372 322 C337 322 307 304 285 279 C272 310 248 322 218 322 C185 322 158 306 137 285 L133 316 L19 316 L27 237 L27 0 L142 0 L142 220 C147 224 152 227 157 227 C177 227 182 216 182 148 L182 0 L296 0 L296 220 C301 224 307 227 312 227 C331 227 336 216 336 148 L336 0 Z " />
<glyph glyph-name="n.inferior" unicode="&#x2099;" horiz-adv-x="326" d="M27 0 L142 0 L142 217 C149 223 156 227 163 227 C182 227 187 206 187 148 L187 0 L302 0 L302 214 C302 293 270 322 225 322 C190 322 159 305 137 282 L133 316 L19 316 L27 237 L27 0 Z " />
<glyph glyph-name="p.inferior" unicode="&#x209a;" horiz-adv-x="316" d="M27 -143 L142 -143 L142 -3 C152 -5 162 -6 173 -6 C244 -6 305 47 305 173 C305 273 264 323 213 323 C177 323 152 309 136 288 L133 316 L19 316 L27 237 L27 -143 Z M160 242 C180 242 189 217 189 164 C189 110 180 76 150 76 C148 76 145 75 142 76 L142 235 C148 239 154 242 160 242 L160 242 Z " />
<glyph glyph-name="s.inferior" unicode="&#x209b;" horiz-adv-x="247" d="M113 -6 C194 -6 237 29 237 97 C237 162 197 177 153 192 C134 197 123 202 123 219 C123 233 137 240 156 240 C180 240 208 233 225 222 L225 305 C203 319 162 323 133 323 C54 323 12 282 12 217 C12 163 49 144 82 130 C111 119 127 115 127 97 C127 81 112 75 96 75 C76 75 53 79 16 94 L16 9 C45 0 83 -6 113 -6 L113 -6 Z " />
<glyph glyph-name="t.inferior" unicode="&#x209c;" horiz-adv-x="215" d="M11 230 L35 230 L35 100 C35 16 75 -6 133 -6 C154 -6 181 -1 202 7 L202 87 C194 84 184 81 173 81 C155 81 150 98 150 122 L150 230 L197 230 L197 316 L150 316 L150 400 L35 400 L35 316 L11 316 L11 230 Z " />
<glyph glyph-name="colonsign" unicode="&#x20a1;" horiz-adv-x="459" d="M237 -13 C244 -13 252 -13 260 -12 L249 -71 L310 -71 L323 3 C340 10 354 18 360 26 L360 137 L347 130 L444 658 L382 658 L367 576 C358 580 349 583 339 585 L352 658 L291 658 L279 594 C269 594 259 595 247 595 C86 595 25 479 25 277 C25 110 73 21 169 -5 L157 -71 L219 -71 L229 -13 L237 -13 Z M254 124 L316 459 C325 457 334 454 344 451 L283 118 C273 118 263 120 254 124 L254 124 Z M193 294 C193 378 210 436 254 456 L204 187 C196 214 193 249 193 294 L193 294 Z " />
<glyph glyph-name="cruzeiro" unicode="&#x20a2;" horiz-adv-x="469" d="M289 -11 C355 -11 407 0 432 19 L432 137 C411 126 382 120 350 118 L350 209 C364 228 387 246 416 246 C421 246 427 245 432 244 L432 374 C424 377 418 379 410 379 C381 379 359 344 346 319 L340 375 L221 375 L230 278 L230 137 C188 162 171 211 171 294 C171 410 212 464 322 464 C362 464 402 455 432 442 L432 569 C409 582 355 595 298 595 C106 595 23 480 23 278 C23 98 110 -11 289 -11 L289 -11 Z " />
<glyph glyph-name="franc" unicode="&#x20a3;" horiz-adv-x="528" d="M45 0 L203 0 L203 223 L270 223 L270 0 L408 0 L408 140 C425 161 453 181 486 181 C493 181 500 179 506 178 L506 335 C497 339 489 341 480 341 C444 341 418 300 404 271 L396 337 L203 337 L203 462 L429 462 L429 583 L45 583 L45 0 Z " />
<glyph glyph-name="lira" unicode="&#x20a4;" horiz-adv-x="354" d="M276 373 L200 373 C199 387 199 399 199 411 C199 451 218 475 251 475 C280 475 297 470 315 460 L315 578 C290 589 248 595 206 595 C125 595 50 547 50 427 C50 410 50 392 51 373 L33 373 L33 289 L57 289 L61 254 L33 254 L33 170 L66 170 L66 160 C66 143 64 128 62 113 L34 113 L34 0 L329 0 L329 113 L204 113 C206 132 208 151 209 170 L276 170 L276 254 L207 254 L204 289 L276 289 L276 373 Z " />
<glyph glyph-name="mill" unicode="&#x20a5;" horiz-adv-x="640" d="M459 0 L611 0 L611 316 C611 427 567 465 504 465 C477 465 453 457 432 444 L467 574 L377 574 L344 454 C329 462 312 465 293 465 C248 465 210 444 181 413 L176 456 L25 456 L37 343 L37 0 L189 0 L189 322 C197 328 205 332 213 332 C241 332 248 317 248 221 L248 100 L188 -120 L278 -120 L310 0 L400 0 L400 322 C408 328 417 332 425 332 C452 332 459 317 459 221 L459 0 Z " />
<glyph glyph-name="naira" unicode="&#x20a6;" horiz-adv-x="554" d="M65 0 L215 0 L214 198 L252 198 L354 0 L486 0 L486 198 L528 198 L528 274 L486 274 L486 319 L528 319 L528 395 L486 395 L486 583 L329 583 L329 395 L290 395 L189 583 L65 583 L65 395 L28 395 L28 319 L65 319 L65 274 L28 274 L28 198 L65 198 L65 0 Z " />
<glyph glyph-name="pesetas" unicode="&#x20a7;" horiz-adv-x="1060" d="M45 0 L208 0 L208 169 L230 169 C396 169 439 270 439 379 C439 509 395 583 247 583 L45 583 L45 0 Z M457 336 L491 336 L491 138 C491 23 545 -8 623 -8 C652 -8 688 -2 718 10 L718 122 C705 118 692 114 677 114 C650 114 644 138 643 169 L643 336 L712 336 L712 456 L643 456 L643 579 L491 579 L491 456 L457 456 L457 336 Z M867 -8 C976 -8 1038 42 1038 140 C1038 232 983 254 923 276 C890 288 879 297 879 318 C879 338 899 350 927 350 C959 350 997 341 1021 327 L1021 444 C990 462 938 468 899 468 C795 468 732 409 732 316 C732 238 783 209 828 190 C868 172 891 166 891 141 C891 116 869 106 845 106 C818 106 783 111 737 130 L737 11 C775 -3 827 -8 867 -8 L867 -8 Z M219 464 C255 464 273 446 273 379 C273 297 252 288 216 287 L208 287 L208 464 L219 464 Z " />
<glyph glyph-name="rupee" unicode="&#x20a8;" horiz-adv-x="770" d="M532 105 C487 105 435 118 393 200 L376 233 C412 266 438 315 438 381 C438 509 379 583 246 583 L45 583 L45 0 L209 0 L209 172 L230 172 C237 172 244 173 252 174 L272 134 C330 12 405 -7 537 -7 C669 -7 748 41 748 140 C748 232 694 254 634 276 C606 286 589 295 589 318 C589 338 608 350 637 350 C668 350 708 339 731 325 L731 442 C700 462 644 468 605 468 C497 468 443 408 443 316 C443 239 494 211 538 191 C578 173 601 166 601 141 C601 115 560 105 532 105 L532 105 Z M219 464 C254 464 272 448 272 380 C272 299 252 291 216 291 L209 291 L209 464 L219 464 Z " />
<glyph glyph-name="won" unicode="&#x20a9;" horiz-adv-x="730" d="M693 583 L535 583 L518 436 L460 436 L444 583 L285 583 L265 436 L209 436 L197 583 L35 583 L55 436 L24 436 L24 367 L64 367 L70 326 L24 326 L24 257 L79 257 L115 0 L307 0 L343 250 L344 257 L374 257 L375 250 L405 0 L597 0 L639 257 L707 257 L707 326 L651 326 L657 367 L707 367 L707 436 L669 436 L693 583 Z M468 367 L510 367 L506 326 L473 326 L468 367 Z M215 367 L255 367 L250 326 L218 326 L215 367 Z M488 195 L481 257 L498 257 L492 195 L488 195 Z M230 193 L224 257 L241 257 L233 193 L230 193 Z M358 360 L362 360 L366 326 L353 326 L358 360 Z " />
<glyph glyph-name="sheqel" unicode="&#x20aa;" horiz-adv-x="532" d="M45 0 L132 0 L132 416 L199 416 C268 416 286 392 286 299 L286 251 L367 251 L367 378 C367 527 356 583 175 583 L45 583 L45 0 Z M165 0 L289 0 C477 0 490 88 490 292 L490 583 L402 583 L402 313 C402 195 396 171 305 171 L253 171 L253 326 L165 326 L165 0 Z " />
<glyph glyph-name="dong" unicode="&#x20ab;" horiz-adv-x="391" d="M152 555 L214 555 L214 504 C197 509 179 512 162 512 C86 512 25 452 25 300 C25 175 77 125 129 125 C161 125 190 140 216 174 L220 131 L342 131 L336 214 L336 555 L366 555 L366 625 L336 625 L336 676 L214 676 L214 625 L152 625 L152 555 Z M31 0 L346 0 L346 95 L31 95 L31 0 Z M185 218 C158 218 147 255 147 313 C147 381 163 419 194 419 C201 419 207 418 214 416 L214 231 C203 223 195 218 185 218 L185 218 Z " />
<glyph glyph-name="Euro" unicode="&#x20ac;" horiz-adv-x="386" d="M22 314 L49 314 C48 302 48 290 48 277 L48 268 L22 268 L22 188 L54 188 C74 52 144 -11 239 -11 C281 -11 324 -6 355 11 L355 132 C337 122 313 119 294 119 C259 119 238 144 227 188 L314 188 L314 268 L217 268 L217 314 L314 314 L314 393 L226 393 C237 438 258 464 292 464 C310 464 330 464 354 452 L354 577 C326 590 288 594 249 594 C151 594 81 533 57 393 L22 393 L22 314 Z " />
<glyph glyph-name="uni20AD" unicode="&#x20ad;" horiz-adv-x="492" d="M54 0 L217 0 L217 239 L231 239 L299 0 L465 0 L397 239 L454 239 L454 344 L380 344 L465 583 L308 583 L231 344 L217 344 L217 583 L54 583 L54 344 L26 344 L26 239 L54 239 L54 0 Z " />
<glyph glyph-name="uni20AE" unicode="&#x20ae;" horiz-adv-x="404" d="M19 457 L123 457 L123 293 L78 270 L78 171 L123 195 L123 160 L78 136 L78 38 L123 61 L123 0 L287 0 L287 147 L339 175 L339 274 L287 246 L287 281 L339 309 L339 407 L287 379 L287 457 L385 457 L385 583 L19 583 L19 457 Z " />
<glyph glyph-name="uni20B1" unicode="&#x20b1;" horiz-adv-x="508" d="M60 0 L223 0 L223 169 L245 169 C378 169 432 234 448 316 L487 316 L487 362 L453 362 C453 367 454 373 454 379 C454 384 453 389 453 395 L487 395 L487 441 L449 441 C435 532 384 583 262 583 L60 583 L60 441 L29 441 L29 395 L60 395 L60 362 L29 362 L29 316 L60 316 L60 0 Z M288 379 L288 362 L223 362 L223 395 L287 395 C288 390 288 385 288 379 L288 379 Z M231 287 L223 287 L223 316 L280 316 C271 291 254 287 231 287 L231 287 Z M234 464 C254 464 269 458 278 441 L223 441 L223 464 L234 464 Z " />
<glyph glyph-name="uni20B4" unicode="&#x20b4;" horiz-adv-x="432" d="M405 400 L381 400 C384 411 386 422 386 434 C386 539 325 595 209 595 C152 595 106 588 68 569 L68 445 C96 459 132 468 172 468 C208 468 233 448 233 420 C233 413 231 406 229 400 L26 400 L26 323 L145 323 C130 313 115 301 101 287 L26 287 L26 210 L57 210 C53 195 51 180 51 163 C51 40 114 -11 240 -11 C280 -11 329 -5 374 11 L374 144 C338 128 299 119 257 119 C222 119 201 137 201 169 C201 185 204 198 211 210 L405 210 L405 287 L294 287 C308 298 321 310 334 323 L405 323 L405 400 Z " />
<glyph glyph-name="uni20B9" unicode="&#x20b9;" horiz-adv-x="426" d="M407 417 L330 417 C322 436 309 451 292 464 L383 464 L407 583 L34 583 L34 464 L121 464 C147 462 165 450 172 417 L34 417 L34 316 L168 316 C159 283 140 270 112 270 L33 270 L33 167 L145 167 L194 0 L356 0 L277 218 C304 241 326 273 336 316 L383 316 L407 417 Z " />
<glyph glyph-name="uni2113" unicode="&#x2113;" horiz-adv-x="345" d="M17 219 L24 144 C26 145 37 151 51 160 C51 48 104 -7 180 -7 C226 -7 273 2 309 25 L304 134 C271 119 242 116 222 116 C187 116 180 146 180 196 L180 239 C184 241 187 244 188 245 C266 300 333 369 333 463 C333 563 287 595 198 595 C88 595 51 520 51 405 L51 242 L17 219 Z M180 429 C180 461 187 476 197 476 C210 476 215 457 215 423 C215 388 203 357 180 333 L180 429 Z " />
<glyph glyph-name="uni2116" unicode="&#x2116;" horiz-adv-x="719" d="M505 153 L689 153 L689 228 L505 228 L505 153 Z M594 264 C665 264 691 330 691 436 C691 549 659 593 599 593 C534 593 504 528 504 419 C504 318 530 264 594 264 L594 264 Z M597 351 C580 351 575 373 575 428 C575 479 580 501 597 501 C615 501 620 478 620 429 C620 376 615 351 597 351 L597 351 Z M44 0 L194 0 L193 267 L196 267 L333 0 L465 0 L465 583 L308 583 L309 328 L306 328 L168 583 L44 583 L44 0 Z " />
<glyph glyph-name="uni2117" unicode="&#x2117;" horiz-adv-x="453" d="M227 -12 C349 -12 427 107 427 289 C427 470 356 592 227 592 C105 592 27 470 27 289 C27 106 97 -12 227 -12 L227 -12 Z M227 32 C141 32 73 124 73 289 C73 452 137 548 227 548 C310 548 380 456 380 289 C380 130 320 32 227 32 L227 32 Z M142 102 L223 102 L223 197 L236 197 C315 197 343 262 343 332 C343 412 310 461 246 461 L142 461 L142 102 Z M226 379 C248 379 260 365 260 332 C260 289 248 280 225 280 L223 280 L223 379 L226 379 Z " />
<glyph glyph-name="servicemark" unicode="&#x2120;" horiz-adv-x="534" d="M211 280 L291 280 L298 430 L301 430 L321 280 L377 280 L398 430 L402 430 L408 280 L500 280 L486 583 L381 583 L359 435 L356 435 L336 583 L228 583 L211 280 Z M36 289 C58 277 81 272 111 272 C163 272 201 297 201 374 C201 436 151 459 132 469 C118 477 113 484 113 493 C113 507 124 512 138 512 C152 512 172 508 189 499 L189 571 C172 582 147 587 124 587 C69 587 33 551 33 483 C33 427 71 405 92 395 C108 387 122 379 122 363 C122 350 115 346 102 346 C78 346 45 360 36 365 L36 289 Z " />
<glyph glyph-name="trademark" unicode="&#x2122;" horiz-adv-x="539" d="M217 280 L297 280 L304 430 L307 430 L327 280 L383 280 L404 430 L407 430 L414 280 L505 280 L491 583 L387 583 L365 435 L362 435 L341 583 L233 583 L217 280 Z M44 507 L82 507 L82 280 L172 280 L172 507 L212 507 L212 583 L44 583 L44 507 Z " />
<glyph glyph-name="Omega" unicode="&#x2126;" horiz-adv-x="516" d="M256 595 C122 595 32 478 32 330 C32 220 84 158 117 128 L117 126 L32 126 L32 0 L238 0 L238 122 C212 163 198 203 198 304 C198 435 221 471 257 471 C292 471 318 435 318 304 C318 203 304 167 278 122 L278 0 L486 0 L486 126 L397 126 L397 128 C434 161 483 230 483 343 C483 496 395 595 256 595 L256 595 Z " />
<glyph glyph-name="estimated" unicode="&#x212e;" horiz-adv-x="551" d="M293 -8 C371 -8 459 17 512 84 L478 131 C430 79 360 60 291 60 C227 60 188 98 188 171 L188 197 L527 197 L527 263 C527 389 433 465 279 465 C116 465 22 357 22 217 C22 36 162 -8 293 -8 L293 -8 Z M188 265 L188 281 C188 358 209 407 278 407 C337 407 355 361 355 285 L355 265 L188 265 Z " />
<glyph glyph-name="onethird" unicode="&#x2153;" horiz-adv-x="499" d="M164 271 L164 588 L67 588 L18 562 L18 496 L49 506 L49 271 L164 271 Z M363 -4 C424 -4 477 20 477 93 C477 135 458 168 405 176 L405 178 C452 191 472 211 472 251 C472 301 426 321 375 321 C346 321 318 315 298 305 L298 236 C309 243 320 246 330 246 C347 246 361 237 361 217 C361 193 340 183 319 179 L319 133 C347 132 367 122 367 98 C367 76 352 67 334 67 C320 67 307 69 296 75 L296 4 C316 -1 339 -4 363 -4 L363 -4 Z M153 0 L382 546 L382 552 L320 552 L89 5 L89 0 L153 0 Z " />
<glyph glyph-name="twothirds" unicode="&#x2154;" horiz-adv-x="518" d="M90 478 C90 426 66 389 24 327 L24 268 L211 268 L211 345 L119 345 L119 349 C167 386 205 444 205 498 C205 563 164 589 112 589 C84 589 53 586 25 570 L29 502 C41 511 54 514 64 514 C79 514 90 499 90 478 L90 478 Z M383 -4 C444 -4 497 20 497 93 C497 135 478 168 425 176 L425 178 C472 191 492 211 492 251 C492 301 446 321 395 321 C366 321 338 315 318 305 L318 236 C329 243 340 246 350 246 C367 246 381 237 381 217 C381 193 360 183 339 179 L339 133 C367 132 387 122 387 98 C387 76 372 67 354 67 C340 67 327 69 316 75 L316 4 C336 -1 359 -4 383 -4 L383 -4 Z M178 0 L407 546 L407 552 L345 552 L114 5 L114 0 L178 0 Z " />
<glyph glyph-name="uni215B" unicode="&#x215b;" horiz-adv-x="530" d="M509 90 C509 135 481 156 450 171 C480 187 505 209 505 240 C505 292 466 321 392 321 C314 321 279 278 279 228 C279 189 303 166 330 148 C303 134 274 112 274 76 C274 17 327 -5 390 -5 C475 -5 509 37 509 90 L509 90 Z M165 262 L165 579 L68 579 L19 553 L19 487 L50 497 L50 262 L165 262 Z M150 0 L379 546 L379 552 L317 552 L86 5 L86 0 L150 0 Z M365 90 C365 102 368 114 371 124 C394 111 412 98 412 80 C412 60 402 53 389 53 C375 53 365 68 365 90 L365 90 Z M414 227 C414 216 410 203 405 191 C386 201 373 213 373 233 C373 250 381 257 392 257 C407 257 414 247 414 227 L414 227 Z " />
<glyph glyph-name="arrowleft" unicode="&#x2190;" horiz-adv-x="568" d="M269 92 L200 204 L568 204 L568 326 L201 326 L269 440 L150 440 L30 265 L150 92 L269 92 Z " />
<glyph glyph-name="arrowup" unicode="&#x2191;" horiz-adv-x="540" d="M442 453 L269 573 L94 453 L94 334 L208 402 L208 35 L330 35 L330 403 L442 334 L442 453 Z " />
<glyph glyph-name="arrowright" unicode="&#x2192;" horiz-adv-x="567" d="M418 92 L538 265 L418 440 L299 440 L367 326 L0 326 L0 204 L368 204 L299 92 L418 92 Z " />
<glyph glyph-name="arrowdown" unicode="&#x2193;" horiz-adv-x="540" d="M94 154 L268 35 L442 155 L442 274 L329 206 L329 573 L206 573 L206 205 L94 274 L94 154 Z " />
<glyph glyph-name="uni2196" unicode="&#x2196;" horiz-adv-x="540" d="M282 534 L76 497 L36 288 L120 203 L153 332 L412 72 L499 159 L239 419 L366 449 L282 534 Z " />
<glyph glyph-name="uni2197" unicode="&#x2197;" horiz-adv-x="540" d="M495 286 L458 494 L249 532 L165 448 L294 416 L33 156 L120 70 L380 330 L411 202 L495 286 Z " />
<glyph glyph-name="uni2198" unicode="&#x2198;" horiz-adv-x="540" d="M251 75 L458 113 L497 321 L412 406 L381 277 L121 537 L34 451 L294 190 L166 160 L251 75 Z " />
<glyph glyph-name="uni2199" unicode="&#x2199;" horiz-adv-x="540" d="M41 321 L78 114 L287 75 L371 160 L243 192 L503 452 L416 538 L156 278 L125 406 L41 321 Z " />
<glyph glyph-name="partialdiff" unicode="&#x2202;" horiz-adv-x="425" d="M211 468 C127 468 20 408 20 218 C20 61 100 -8 206 -8 C344 -8 402 90 402 266 C402 441 310 594 208 676 L138 611 C188 569 213 524 232 464 C227 467 219 468 211 468 L211 468 Z M248 231 C248 159 239 104 210 104 C183 104 173 153 173 230 C173 299 183 350 211 350 C223 350 233 346 245 334 C247 305 248 265 248 231 L248 231 Z " />
<glyph glyph-name="Delta" unicode="&#x2206;" horiz-adv-x="488" d="M470 0 L470 110 L340 583 L162 583 L18 108 L19 0 L470 0 Z M239 418 L244 418 L290 126 L183 126 L239 418 Z " />
<glyph glyph-name="product" unicode="&#x220f;" horiz-adv-x="522" d="M212 -207 L212 457 L309 457 L309 -207 L466 -207 L466 457 L498 457 L498 583 L24 583 L24 457 L55 457 L55 -207 L212 -207 Z " />
<glyph glyph-name="summation" unicode="&#x2211;" horiz-adv-x="324" d="M27 -207 L300 -207 L300 -80 L187 -80 L254 196 L189 457 L293 457 L293 583 L28 583 L28 468 L97 197 L27 -86 L27 -207 Z " />
<glyph glyph-name="minus" unicode="&#x2212;" horiz-adv-x="285" d="M37 251 L248 251 L248 341 L37 341 L37 251 Z " />
<glyph glyph-name="radical" unicode="&#x221a;" horiz-adv-x="438" d="M109 0 L279 0 L435 653 L281 653 L199 167 L195 167 L156 456 L10 456 L109 0 Z " />
<glyph glyph-name="infinity" unicode="&#x221e;" horiz-adv-x="629" d="M165 504 C82 504 28 415 28 293 C28 168 76 81 165 81 C232 81 285 139 315 214 C344 145 400 81 464 81 C554 81 602 173 602 293 C602 411 548 504 464 504 C399 504 346 448 315 372 C282 453 232 504 165 504 L165 504 Z M179 171 C145 171 125 224 125 293 C125 360 145 414 179 414 C218 414 248 353 268 293 C251 239 219 171 179 171 L179 171 Z M450 171 C410 171 381 240 362 293 C382 349 410 414 450 414 C484 414 504 360 504 293 C504 224 484 171 450 171 L450 171 Z " />
<glyph glyph-name="integral" unicode="&#x222b;" horiz-adv-x="317" d="M95 4 C95 -70 89 -102 51 -102 C38 -102 26 -101 10 -98 L10 -207 C25 -211 65 -213 88 -213 C193 -213 229 -156 229 -43 L229 432 C229 508 232 541 270 541 C282 541 292 540 307 538 L307 654 C291 658 281 660 258 660 C154 660 95 603 95 490 L95 4 Z " />
<glyph glyph-name="approxequal" unicode="&#x2248;" horiz-adv-x="420" d="M282 279 C331 279 371 328 389 362 L346 425 C326 395 305 373 275 373 C230 373 214 423 144 423 C95 423 48 381 28 346 L70 284 C95 313 118 329 149 329 C194 329 215 279 282 279 L282 279 Z M283 99 C332 99 372 148 390 182 L347 245 C327 215 306 193 276 193 C231 193 215 243 145 243 C96 243 49 201 29 166 L71 104 C96 133 119 149 150 149 C195 149 216 99 283 99 L283 99 Z " />
<glyph glyph-name="notequal" unicode="&#x2260;" horiz-adv-x="343" d="M34 344 L150 344 L114 245 L34 245 L34 161 L83 161 L34 28 L115 28 L164 161 L311 161 L311 245 L195 245 L231 344 L311 344 L311 429 L263 429 L314 566 L233 566 L182 429 L34 429 L34 344 Z " />
<glyph glyph-name="lessequal" unicode="&#x2264;" horiz-adv-x="360" d="M29 9 L326 9 L326 99 L29 99 L29 9 Z M323 120 L323 216 L133 325 L133 330 L323 440 L323 533 L30 360 L30 292 L323 120 Z " />
<glyph glyph-name="greaterequal" unicode="&#x2265;" horiz-adv-x="360" d="M331 99 L34 99 L34 9 L331 9 L331 99 Z M331 292 L331 360 L38 533 L38 439 L227 331 L227 325 L38 216 L38 120 L331 292 Z " />
<glyph glyph-name="uni2460" unicode="&#x2460;" horiz-adv-x="691" d="M345 0 C506 0 637 130 637 291 C637 452 506 583 345 583 C184 583 54 452 54 291 C54 130 184 0 345 0 L345 0 Z M345 36 C206 36 94 152 94 291 C94 430 206 547 345 547 C484 547 597 430 597 291 C597 152 484 36 345 36 L345 36 Z M411 140 L411 457 L339 457 L218 425 L218 353 L289 362 L289 140 L411 140 Z " />
<glyph glyph-name="uni2461" unicode="&#x2461;" horiz-adv-x="691" d="M345 0 C506 0 637 130 637 291 C637 452 506 583 345 583 C184 583 54 452 54 291 C54 130 184 0 345 0 L345 0 Z M345 36 C206 36 94 152 94 291 C94 430 206 547 345 547 C484 547 597 430 597 291 C597 152 484 36 345 36 L345 36 Z M220 141 L475 141 L475 226 L369 226 L369 230 C440 276 473 320 473 368 C473 436 409 462 342 462 C300 462 252 453 220 429 L220 352 C258 374 294 383 319 383 C346 383 362 371 362 349 C362 301 299 262 220 206 L220 141 Z " />
<glyph glyph-name="uni2462" unicode="&#x2462;" horiz-adv-x="691" d="M345 0 C506 0 637 130 637 291 C637 452 506 583 345 583 C184 583 54 452 54 291 C54 130 184 0 345 0 L345 0 Z M345 36 C206 36 94 152 94 291 C94 430 206 547 345 547 C484 547 597 430 597 291 C597 152 484 36 345 36 L345 36 Z M331 136 C411 136 475 170 475 238 C475 266 463 310 401 317 L401 320 C448 330 464 354 464 384 C464 437 405 462 339 462 C290 462 254 450 230 433 L230 357 C263 372 291 377 313 377 C340 377 356 369 356 352 C356 331 334 325 278 321 L278 269 C350 267 369 261 369 241 C369 226 356 214 316 214 C291 214 263 218 227 234 L227 154 C251 145 289 136 331 136 L331 136 Z " />
<glyph glyph-name="uni2463" unicode="&#x2463;" horiz-adv-x="691" d="M345 0 C506 0 637 130 637 291 C637 452 506 583 345 583 C184 583 54 452 54 291 C54 130 184 0 345 0 L345 0 Z M345 36 C206 36 94 152 94 291 C94 430 206 547 345 547 C484 547 597 430 597 291 C597 152 484 36 345 36 L345 36 Z M317 141 L435 141 L435 199 L478 199 L478 271 L435 271 L435 457 L324 457 L171 266 L171 199 L317 199 L317 141 Z M250 271 L317 360 L317 271 L250 271 Z " />
<glyph glyph-name="uni2464" unicode="&#x2464;" horiz-adv-x="691" d="M345 0 C506 0 637 130 637 291 C637 452 506 583 345 583 C184 583 54 452 54 291 C54 130 184 0 345 0 L345 0 Z M345 36 C206 36 94 152 94 291 C94 430 206 547 345 547 C484 547 597 430 597 291 C597 152 484 36 345 36 L345 36 Z M316 136 C380 136 467 157 467 242 C467 312 410 342 331 342 L309 342 L312 378 L463 378 L463 457 L239 457 L222 268 C239 271 265 273 289 273 C334 273 359 265 359 244 C359 224 341 213 309 213 C284 213 252 216 217 232 L217 154 C248 142 281 136 316 136 L316 136 Z " />
<glyph glyph-name="uni2465" unicode="&#x2465;" horiz-adv-x="691" d="M345 0 C506 0 637 130 637 291 C637 452 506 583 345 583 C184 583 54 452 54 291 C54 130 184 0 345 0 L345 0 Z M345 36 C206 36 94 152 94 291 C94 430 206 547 345 547 C484 547 597 430 597 291 C597 152 484 36 345 36 L345 36 Z M373 390 C398 390 426 383 457 369 L457 447 C428 458 388 462 363 462 C253 462 187 386 187 281 C187 189 237 136 330 136 C420 136 479 186 479 252 C479 312 435 348 366 348 C342 348 320 343 300 337 C310 374 331 390 373 390 L373 390 Z M331 286 C352 286 371 277 371 248 C371 223 356 208 332 208 C305 208 296 227 295 269 L295 279 C306 283 317 286 331 286 L331 286 Z " />
<glyph glyph-name="uni2466" unicode="&#x2466;" horiz-adv-x="691" d="M345 0 C506 0 637 130 637 291 C637 452 506 583 345 583 C184 583 54 452 54 291 C54 130 184 0 345 0 L345 0 Z M345 36 C206 36 94 152 94 291 C94 430 206 547 345 547 C484 547 597 430 597 291 C597 152 484 36 345 36 L345 36 Z M346 134 L471 400 L471 450 L221 450 L221 371 L367 371 L245 139 L247 134 L346 134 Z " />
<glyph glyph-name="uni2467" unicode="&#x2467;" horiz-adv-x="691" d="M345 0 C506 0 637 130 637 291 C637 452 506 583 345 583 C184 583 54 452 54 291 C54 130 184 0 345 0 L345 0 Z M345 36 C206 36 94 152 94 291 C94 430 206 547 345 547 C484 547 597 430 597 291 C597 152 484 36 345 36 L345 36 Z M491 225 C491 260 462 283 427 300 C462 319 485 346 485 374 C485 431 417 455 343 455 C266 455 198 418 198 362 C198 328 219 303 248 285 C217 268 194 241 194 213 C194 154 251 129 336 129 C414 129 491 168 491 225 L491 225 Z M387 359 C387 349 382 335 371 322 C335 336 304 346 304 363 C304 381 322 385 345 385 C371 385 387 376 387 359 L387 359 Z M293 230 C293 241 296 249 302 258 C342 240 380 230 380 214 C380 198 358 193 337 193 C310 193 293 207 293 230 L293 230 Z " />
<glyph glyph-name="uni2468" unicode="&#x2468;" horiz-adv-x="691" d="M345 0 C506 0 637 130 637 291 C637 452 506 583 345 583 C184 583 54 452 54 291 C54 130 184 0 345 0 L345 0 Z M345 36 C206 36 94 152 94 291 C94 430 206 547 345 547 C484 547 597 430 597 291 C597 152 484 36 345 36 L345 36 Z M310 202 C285 202 256 209 225 222 L225 145 C254 133 294 129 319 129 C431 129 496 205 496 311 C496 403 446 455 353 455 C263 455 205 406 205 340 C205 273 254 243 316 243 C339 243 363 248 382 254 C374 217 351 202 310 202 L310 202 Z M352 305 C331 305 313 314 313 344 C313 371 327 385 349 385 C376 385 387 364 389 319 L389 312 C377 308 365 305 352 305 L352 305 Z " />
<glyph glyph-name="uni2469" unicode="&#x2469;" horiz-adv-x="691" d="M345 0 C506 0 637 130 637 291 C637 452 506 583 345 583 C184 583 54 452 54 291 C54 130 184 0 345 0 L345 0 Z M345 36 C206 36 94 152 94 291 C94 430 206 547 345 547 C484 547 597 430 597 291 C597 152 484 36 345 36 L345 36 Z M291 148 L291 436 L232 436 L132 407 L132 342 L191 351 L191 148 L291 148 Z M434 145 C513 145 565 197 565 292 C565 383 530 439 440 439 C359 439 308 388 308 284 C308 192 354 145 434 145 L434 145 Z M438 212 C404 212 398 246 398 290 C398 341 410 371 437 371 C466 371 474 337 474 291 C474 246 469 212 438 212 L438 212 Z " />
<glyph glyph-name="uni24CA" unicode="&#x24ca;" horiz-adv-x="453" d="M227 -12 C349 -12 427 107 427 289 C427 470 356 592 227 592 C105 592 27 470 27 289 C27 106 97 -12 227 -12 L227 -12 Z M228 99 C289 99 327 143 327 245 L327 437 L256 437 L256 255 C256 197 246 179 229 179 C209 179 201 200 201 254 L201 437 L130 437 L130 231 C130 143 167 99 228 99 L228 99 Z M227 31 C141 31 73 124 73 289 C73 452 137 548 227 548 C310 548 380 456 380 289 C380 130 320 31 227 31 L227 31 Z " />
<glyph glyph-name="uni25B2" unicode="&#x25b2;" horiz-adv-x="590" d="M563 21 L295 449 L27 21 L563 21 Z " />
<glyph glyph-name="uni25B6" unicode="&#x25b6;" horiz-adv-x="538" d="M84 -33 L512 235 L84 503 L84 -33 Z " />
<glyph glyph-name="uni25B8" unicode="&#x25b8;" horiz-adv-x="378" d="M352 218 L85 486 L85 -50 L352 218 Z " />
<glyph glyph-name="uni25BA" unicode="&#x25ba;" horiz-adv-x="838" d="M806 218 L84 486 L84 -50 L806 218 Z " />
<glyph glyph-name="uni25BC" unicode="&#x25bc;" horiz-adv-x="610" d="M37 448 L305 20 L573 448 L37 448 Z " />
<glyph glyph-name="uni25C0" unicode="&#x25c0;" horiz-adv-x="538" d="M454 -33 L454 503 L26 235 L454 -33 Z " />
<glyph glyph-name="uni25C2" unicode="&#x25c2;" horiz-adv-x="379" d="M294 -50 L294 486 L27 219 L294 -50 Z " />
<glyph glyph-name="uni25C4" unicode="&#x25c4;" horiz-adv-x="838" d="M754 -50 L754 486 L32 218 L754 -50 Z " />
<glyph glyph-name="lozenge" unicode="&#x25ca;" horiz-adv-x="384" d="M123 0 L266 0 L366 286 L266 583 L124 583 L16 286 L123 0 Z M195 109 L145 288 L193 467 L238 285 L195 109 Z " />
<glyph glyph-name="uni2610" unicode="&#x2610;" horiz-adv-x="753" d="M85 0 L668 0 L668 583 L85 583 L85 0 Z M186 94 L186 482 L567 482 L567 94 L186 94 Z " />
<glyph glyph-name="uni2611" unicode="&#x2611;" horiz-adv-x="753" d="M85 0 L668 0 L668 583 L85 583 L85 0 Z M186 94 L186 482 L567 482 L567 94 L186 94 Z M279 117 L296 117 C396 227 479 355 541 451 L535 458 C511 455 456 439 447 424 C407 358 348 252 310 200 C296 246 297 295 296 326 L279 331 C268 328 228 294 220 283 C217 262 249 141 279 117 L279 117 Z " />
<glyph glyph-name="uni261A" unicode="&#x261a;" horiz-adv-x="973" d="M44 453 C27 391 81 386 81 386 L287 400 L342 365 C342 365 266 272 262 246 C262 246 278 200 315 186 C315 186 325 129 367 126 C367 126 376 88 422 74 L498 101 C498 101 574 88 718 140 L907 126 L907 365 L730 401 C730 401 680 443 617 459 L315 509 L44 453 Z " />
<glyph glyph-name="uni261B" unicode="&#x261b;" horiz-adv-x="973" d="M658 509 L356 459 C293 443 243 401 243 401 L66 365 L66 126 L255 140 C399 88 475 101 475 101 L551 74 C597 88 606 126 606 126 C648 129 658 186 658 186 C695 200 711 246 711 246 C707 272 631 365 631 365 L686 400 L892 386 C892 386 946 391 929 453 L658 509 Z " />
<glyph glyph-name="uni261C" unicode="&#x261c;" horiz-adv-x="973" d="M44 453 C27 391 81 386 81 386 L287 400 L342 365 C342 365 266 272 262 246 C262 246 278 200 315 186 C315 186 325 129 367 126 C367 126 376 88 422 74 L498 101 C498 101 574 88 718 140 L907 126 L907 365 L730 401 C730 401 680 443 617 459 L315 509 L44 453 Z M668 186 C596 157 493 154 493 154 L424 127 C400 129 396 157 396 157 L447 196 L511 215 L492 255 L428 231 L374 184 C360 186 356 208 356 208 L423 269 L473 291 L456 326 L404 300 L339 232 C328 231 317 249 317 249 L370 318 L422 369 L311 426 L125 418 C125 418 105 428 115 442 L314 467 L597 414 C642 398 690 360 690 360 L852 326 L852 178 L668 186 Z " />
<glyph glyph-name="uni261D" unicode="&#x261d;" horiz-adv-x="510" d="M45 473 L95 171 C111 108 153 58 153 58 L189 -119 L428 -119 L414 70 C466 214 453 290 453 290 L480 366 C466 412 428 421 428 421 C425 463 368 473 368 473 C354 510 308 526 308 526 C282 522 189 446 189 446 L154 501 L168 707 C168 707 163 761 101 744 L45 473 Z M376 -64 L228 -64 L194 98 C194 98 156 146 140 191 L87 474 L112 673 C126 683 136 663 136 663 L128 477 L185 366 L236 418 L305 471 C305 471 323 460 322 449 L254 384 L228 332 L263 315 L285 365 L346 432 C346 432 368 428 370 414 L323 360 L299 296 L339 277 L358 341 L397 392 C397 392 425 388 427 364 L400 295 C400 295 397 192 368 120 L376 -64 Z " />
<glyph glyph-name="uni261E" unicode="&#x261e;" horiz-adv-x="973" d="M658 509 L356 459 C293 443 243 401 243 401 L66 365 L66 126 L255 140 C399 88 475 101 475 101 L551 74 C597 88 606 126 606 126 C648 129 658 186 658 186 C695 200 711 246 711 246 C707 272 631 365 631 365 L686 400 L892 386 C892 386 946 391 929 453 L658 509 Z M121 178 L121 326 L283 360 C283 360 331 398 376 414 L659 467 L858 442 C868 428 848 418 848 418 L662 426 L551 369 L603 318 L656 249 C656 249 645 231 634 232 L569 300 L517 326 L500 291 L550 269 L617 208 C617 208 613 186 599 184 L545 231 L481 255 L462 215 L526 196 L577 157 C577 157 573 129 549 127 L480 154 C480 154 377 157 305 186 L121 178 Z " />
<glyph glyph-name="uni261F" unicode="&#x261f;" horiz-adv-x="509" d="M465 169 L415 471 C399 534 357 584 357 584 L321 761 L82 761 L96 572 C44 428 57 352 57 352 L30 276 C44 230 82 221 82 221 C85 179 142 169 142 169 C156 132 202 116 202 116 C228 120 321 196 321 196 L356 141 L342 -65 C342 -65 347 -119 409 -102 L465 169 Z M134 706 L282 706 L316 544 C316 544 354 496 370 451 L423 168 L398 -31 C384 -41 374 -21 374 -21 L382 165 L325 276 L274 224 L205 171 C205 171 187 182 188 193 L256 258 L282 310 L247 327 L225 277 L164 210 C164 210 142 214 140 228 L187 282 L211 346 L171 365 L152 301 L113 250 C113 250 85 254 83 278 L110 347 C110 347 113 450 142 522 L134 706 Z " />
<glyph glyph-name="uni267E" unicode="&#x267e;" horiz-adv-x="453" d="M227 -12 C349 -12 427 107 427 289 C427 470 356 592 227 592 C105 592 27 470 27 289 C27 106 97 -12 227 -12 L227 -12 Z M227 31 C141 31 73 124 73 289 C73 452 137 548 227 548 C310 548 380 456 380 289 C380 130 320 31 227 31 L227 31 Z M169 411 C135 411 113 358 113 287 C113 217 132 163 169 163 C195 163 213 198 228 238 C243 198 262 163 288 163 C325 163 344 218 344 287 C344 356 322 411 288 411 C263 411 243 375 228 337 C213 376 195 411 169 411 L169 411 Z M174 220 C160 220 155 251 155 287 C155 322 160 353 174 353 C188 353 200 319 211 287 C200 256 188 220 174 220 L174 220 Z M284 220 C269 220 257 256 247 287 C257 319 268 353 284 353 C297 353 301 322 301 287 C301 251 297 220 284 220 L284 220 Z " />
<glyph glyph-name="uni2713" unicode="&#x2713;" horiz-adv-x="407" d="M106 117 L123 117 C223 227 306 355 368 451 L362 458 C338 455 283 439 274 424 C234 358 175 252 137 200 C123 246 124 295 123 326 L106 331 C95 328 55 294 47 283 C44 262 76 141 106 117 L106 117 Z " />
<glyph glyph-name="uni2776" unicode="&#x2776;" horiz-adv-x="691" d="M345 0 C506 0 637 130 637 291 C637 452 506 583 345 583 C184 583 54 452 54 291 C54 130 184 0 345 0 L345 0 Z M289 140 L289 362 L218 353 L218 425 L339 457 L411 457 L411 140 L289 140 Z " />
<glyph glyph-name="uni2777" unicode="&#x2777;" horiz-adv-x="691" d="M345 0 C506 0 637 130 637 291 C637 452 506 583 345 583 C184 583 54 452 54 291 C54 130 184 0 345 0 L345 0 Z M220 206 C299 262 362 301 362 349 C362 371 346 383 319 383 C294 383 258 374 220 352 L220 429 C252 453 300 462 342 462 C409 462 473 436 473 368 C473 320 440 276 369 231 L369 226 L475 226 L475 141 L220 141 L220 206 Z " />
<glyph glyph-name="uni2778" unicode="&#x2778;" horiz-adv-x="691" d="M345 0 C506 0 637 130 637 291 C637 452 506 583 345 583 C184 583 54 452 54 291 C54 130 184 0 345 0 L345 0 Z M331 136 C289 136 251 145 227 154 L227 234 C263 218 291 214 316 214 C356 214 369 226 369 241 C369 261 350 267 278 269 L278 321 C334 325 356 331 356 352 C356 369 340 377 313 377 C291 377 263 372 230 357 L230 433 C254 450 290 462 339 462 C405 462 464 437 464 384 C464 354 448 330 401 320 L401 317 C463 310 475 266 475 238 C475 170 411 136 331 136 L331 136 Z " />
<glyph glyph-name="uni2779" unicode="&#x2779;" horiz-adv-x="691" d="M345 0 C506 0 637 130 637 291 C637 452 506 583 345 583 C184 583 54 452 54 291 C54 130 184 0 345 0 L345 0 Z M317 199 L171 199 L171 266 L324 457 L435 457 L435 271 L478 271 L478 199 L435 199 L435 141 L317 141 L317 199 Z M317 271 L317 360 L250 271 L317 271 Z " />
<glyph glyph-name="uni277A" unicode="&#x277a;" horiz-adv-x="691" d="M345 0 C506 0 637 130 637 291 C637 452 506 583 345 583 C184 583 54 452 54 291 C54 130 184 0 345 0 L345 0 Z M316 136 C281 136 248 142 217 154 L217 232 C252 216 284 213 309 213 C341 213 359 224 359 244 C359 265 334 273 289 273 C265 273 239 271 222 268 L239 457 L463 457 L463 378 L312 378 L309 342 L331 342 C410 342 467 312 467 242 C467 157 380 136 316 136 L316 136 Z " />
<glyph glyph-name="uni277B" unicode="&#x277b;" horiz-adv-x="691" d="M345 0 C506 0 637 130 637 291 C637 452 506 583 345 583 C184 583 54 452 54 291 C54 130 184 0 345 0 L345 0 Z M373 390 C331 390 310 374 300 337 C320 343 342 348 366 348 C435 348 479 312 479 252 C479 186 420 136 330 136 C237 136 187 189 187 281 C187 386 253 462 363 462 C388 462 428 458 457 447 L457 369 C426 383 398 390 373 390 L373 390 Z M331 286 C317 286 306 283 295 279 L295 272 C296 228 305 208 332 208 C356 208 371 223 371 248 C371 277 352 286 331 286 L331 286 Z " />
<glyph glyph-name="uni277C" unicode="&#x277c;" horiz-adv-x="691" d="M345 0 C506 0 637 130 637 291 C637 452 506 583 345 583 C184 583 54 452 54 291 C54 130 184 0 345 0 L345 0 Z M247 134 L245 139 L367 371 L221 371 L221 450 L471 450 L471 400 L346 134 L247 134 Z " />
<glyph glyph-name="uni277D" unicode="&#x277d;" horiz-adv-x="691" d="M345 0 C506 0 637 130 637 291 C637 452 506 583 345 583 C184 583 54 452 54 291 C54 130 184 0 345 0 L345 0 Z M491 225 C491 168 414 129 336 129 C251 129 194 154 194 213 C194 241 217 268 248 285 C219 303 198 328 198 362 C198 418 266 455 343 455 C417 455 485 431 485 374 C485 346 462 319 427 300 C462 283 491 260 491 225 L491 225 Z M387 359 C387 376 371 385 345 385 C322 385 304 381 304 363 C304 346 335 336 371 322 C382 335 387 349 387 359 L387 359 Z M293 230 C293 207 310 193 337 193 C358 193 380 198 380 214 C380 230 342 240 302 258 C296 249 293 241 293 230 L293 230 Z " />
<glyph glyph-name="uni277E" unicode="&#x277e;" horiz-adv-x="691" d="M345 0 C506 0 637 130 637 291 C637 452 506 583 345 583 C184 583 54 452 54 291 C54 130 184 0 345 0 L345 0 Z M310 202 C351 202 374 217 382 254 C363 248 339 243 316 243 C254 243 205 273 205 340 C205 406 263 455 353 455 C446 455 496 403 496 311 C496 205 431 129 319 129 C294 129 254 133 225 145 L225 222 C256 209 285 202 310 202 L310 202 Z M352 305 C365 305 377 308 389 312 L389 318 C388 364 377 385 349 385 C327 385 313 371 313 344 C313 314 331 305 352 305 L352 305 Z " />
<glyph glyph-name="uni277F" unicode="&#x277f;" horiz-adv-x="691" d="M345 0 C506 0 637 130 637 291 C637 452 506 583 345 583 C184 583 54 452 54 291 C54 130 184 0 345 0 L345 0 Z M191 148 L191 351 L132 342 L132 407 L232 436 L291 436 L291 148 L191 148 Z M434 145 C354 145 308 192 308 284 C308 388 359 439 440 439 C530 439 565 383 565 292 C565 197 513 145 434 145 L434 145 Z M438 212 C469 212 474 246 474 291 C474 337 466 371 437 371 C410 371 398 341 398 290 C398 246 404 212 438 212 L438 212 Z " />
<glyph glyph-name="uni2780" unicode="&#x2780;" horiz-adv-x="691" d="M345 0 C506 0 637 130 637 291 C637 452 506 583 345 583 C184 583 54 452 54 291 C54 130 184 0 345 0 L345 0 Z M345 36 C206 36 94 152 94 291 C94 430 206 547 345 547 C484 547 597 430 597 291 C597 152 484 36 345 36 L345 36 Z M410 146 L410 440 L345 440 L233 410 L233 344 L299 353 L299 146 L410 146 Z " />
<glyph glyph-name="uni2781" unicode="&#x2781;" horiz-adv-x="691" d="M345 0 C506 0 637 130 637 291 C637 452 506 583 345 583 C184 583 54 452 54 291 C54 130 184 0 345 0 L345 0 Z M345 36 C206 36 94 152 94 291 C94 430 206 547 345 547 C484 547 597 430 597 291 C597 152 484 36 345 36 L345 36 Z M229 145 L465 145 L465 223 L366 223 L366 227 C432 271 464 312 464 356 C464 419 405 444 342 444 C304 444 259 435 229 413 L229 343 C265 363 298 371 321 371 C347 371 362 360 362 339 C362 294 303 257 229 204 L229 145 Z " />
<glyph glyph-name="uni2782" unicode="&#x2782;" horiz-adv-x="691" d="M345 0 C506 0 637 130 637 291 C637 452 506 583 345 583 C184 583 54 452 54 291 C54 130 184 0 345 0 L345 0 Z M345 36 C206 36 94 152 94 291 C94 430 206 547 345 547 C484 547 597 430 597 291 C597 152 484 36 345 36 L345 36 Z M333 140 C406 140 466 171 466 235 C466 262 454 302 397 308 L397 311 C439 320 455 342 455 370 C455 420 401 443 340 443 C295 443 262 432 239 415 L239 346 C270 361 296 365 317 365 C342 365 356 357 356 341 C356 321 335 315 283 312 L283 264 C350 262 368 256 368 237 C368 222 356 211 319 211 C295 211 270 215 236 230 L236 157 C259 148 294 140 333 140 L333 140 Z " />
<glyph glyph-name="uni2783" unicode="&#x2783;" horiz-adv-x="691" d="M345 0 C506 0 637 130 637 291 C637 452 506 583 345 583 C184 583 54 452 54 291 C54 130 184 0 345 0 L345 0 Z M345 36 C206 36 94 152 94 291 C94 430 206 547 345 547 C484 547 597 430 597 291 C597 152 484 36 345 36 L345 36 Z M319 147 L426 147 L426 202 L466 202 L466 268 L426 268 L426 441 L325 441 L182 263 L182 202 L319 202 L319 147 Z M256 268 L319 351 L319 268 L256 268 Z " />
<glyph glyph-name="uni2784" unicode="&#x2784;" horiz-adv-x="691" d="M345 0 C506 0 637 130 637 291 C637 452 506 583 345 583 C184 583 54 452 54 291 C54 130 184 0 345 0 L345 0 Z M345 36 C206 36 94 152 94 291 C94 430 206 547 345 547 C484 547 597 430 597 291 C597 152 484 36 345 36 L345 36 Z M322 141 C381 141 461 161 461 239 C461 304 409 332 336 332 L315 332 L318 366 L458 366 L458 440 L251 440 L235 265 C251 267 275 269 296 269 C339 269 362 262 362 242 C362 222 346 212 316 212 C293 212 263 215 231 229 L231 158 C259 147 289 141 322 141 L322 141 Z " />
<glyph glyph-name="uni2785" unicode="&#x2785;" horiz-adv-x="691" d="M345 0 C506 0 637 130 637 291 C637 452 506 583 345 583 C184 583 54 452 54 291 C54 130 184 0 345 0 L345 0 Z M345 36 C206 36 94 152 94 291 C94 430 206 547 345 547 C484 547 597 430 597 291 C597 152 484 36 345 36 L345 36 Z M375 378 C398 378 424 371 452 358 L452 430 C425 440 388 443 366 443 C264 443 203 373 203 275 C203 190 249 141 335 141 C418 141 472 187 472 248 C472 305 431 338 368 338 C346 338 324 332 307 327 C315 362 335 378 375 378 L375 378 Z M335 280 C356 280 373 272 373 244 C373 221 359 206 337 206 C312 206 303 226 302 267 L302 274 C312 278 323 280 335 280 L335 280 Z " />
<glyph glyph-name="uni2786" unicode="&#x2786;" horiz-adv-x="691" d="M345 0 C506 0 637 130 637 291 C637 452 506 583 345 583 C184 583 54 452 54 291 C54 130 184 0 345 0 L345 0 Z M345 36 C206 36 94 152 94 291 C94 430 206 547 345 547 C484 547 597 430 597 291 C597 152 484 36 345 36 L345 36 Z M352 144 L469 392 L469 438 L237 438 L237 365 L374 365 L260 148 L261 144 L352 144 Z " />
<glyph glyph-name="uni2787" unicode="&#x2787;" horiz-adv-x="691" d="M345 0 C506 0 637 130 637 291 C637 452 506 583 345 583 C184 583 54 452 54 291 C54 130 184 0 345 0 L345 0 Z M345 36 C206 36 94 152 94 291 C94 430 206 547 345 547 C484 547 597 430 597 291 C597 152 484 36 345 36 L345 36 Z M482 230 C482 262 456 284 423 299 C455 317 477 341 477 369 C477 422 414 443 345 443 C275 443 212 409 212 357 C212 326 232 303 258 285 C230 270 208 245 208 219 C208 164 261 141 340 141 C411 141 482 177 482 230 L482 230 Z M387 355 C387 345 382 332 372 320 C338 332 309 342 309 358 C309 375 326 380 348 380 C372 380 387 370 387 355 L387 355 Z M299 234 C299 244 301 252 307 261 C345 245 380 235 380 219 C380 205 360 199 340 199 C315 199 299 213 299 234 L299 234 Z " />
<glyph glyph-name="uni2788" unicode="&#x2788;" horiz-adv-x="691" d="M345 0 C506 0 637 130 637 291 C637 452 506 583 345 583 C184 583 54 452 54 291 C54 130 184 0 345 0 L345 0 Z M345 36 C206 36 94 152 94 291 C94 430 206 547 345 547 C484 547 597 430 597 291 C597 152 484 36 345 36 L345 36 Z M313 207 C289 207 263 214 235 227 L235 156 C262 144 299 141 321 141 C424 141 485 211 485 309 C485 395 439 443 353 443 C269 443 216 398 216 337 C216 274 262 246 319 246 C341 246 363 252 381 257 C373 222 352 207 313 207 L313 207 Z M352 304 C331 304 315 313 315 341 C315 366 329 379 349 379 C375 379 385 359 386 318 L386 310 C376 306 365 304 352 304 L352 304 Z " />
<glyph glyph-name="uni278A" unicode="&#x278a;" horiz-adv-x="691" d="M345 0 C506 0 637 130 637 291 C637 452 506 583 345 583 C184 583 54 452 54 291 C54 130 184 0 345 0 L345 0 Z M294 147 L294 355 L229 346 L229 412 L340 441 L406 441 L406 147 L294 147 Z " />
<glyph glyph-name="uni278B" unicode="&#x278b;" horiz-adv-x="691" d="M345 0 C506 0 637 130 637 291 C637 452 506 583 345 583 C184 583 54 452 54 291 C54 130 184 0 345 0 L345 0 Z M229 202 C303 255 362 292 362 337 C362 358 347 369 321 369 C298 369 265 361 229 340 L229 411 C259 433 304 442 342 442 C405 442 464 417 464 354 C464 310 432 269 367 226 C367 225 366 221 366 221 L465 221 L465 143 L229 143 L229 202 Z " />
<glyph glyph-name="uni278C" unicode="&#x278c;" horiz-adv-x="691" d="M345 0 C506 0 637 130 637 291 C637 452 506 583 345 583 C184 583 54 452 54 291 C54 130 184 0 345 0 L345 0 Z M333 140 C294 140 259 148 236 157 L236 230 C270 215 295 211 319 211 C356 211 368 222 368 237 C368 256 350 262 283 264 L283 312 C335 315 356 321 356 341 C356 357 342 365 317 365 C296 365 270 361 239 346 L239 415 C262 432 295 443 340 443 C401 443 455 420 455 370 C455 342 439 320 397 311 L397 308 C454 302 466 262 466 235 C466 171 406 140 333 140 L333 140 Z " />
<glyph glyph-name="uni278D" unicode="&#x278d;" horiz-adv-x="691" d="M345 0 C506 0 637 130 637 291 C637 452 506 583 345 583 C184 583 54 452 54 291 C54 130 184 0 345 0 L345 0 Z M319 201 L182 201 L182 261 L325 440 L426 440 L426 267 L466 267 L466 201 L426 201 L426 146 L319 146 L319 201 Z M319 267 L319 350 L256 267 L319 267 Z " />
<glyph glyph-name="uni278E" unicode="&#x278e;" horiz-adv-x="691" d="M345 0 C506 0 637 130 637 291 C637 452 506 583 345 583 C184 583 54 452 54 291 C54 130 184 0 345 0 L345 0 Z M324 142 C290 142 261 148 232 159 L232 230 C264 216 294 212 318 212 C347 212 363 223 363 242 C363 262 341 270 298 270 C276 270 253 268 237 265 L253 441 L459 441 L459 367 L320 367 L316 332 C323 333 331 333 337 333 C410 333 463 305 463 240 C463 162 383 142 324 142 L324 142 Z " />
<glyph glyph-name="uni278F" unicode="&#x278f;" horiz-adv-x="691" d="M345 0 C506 0 637 130 637 291 C637 452 506 583 345 583 C184 583 54 452 54 291 C54 130 184 0 345 0 L345 0 Z M375 377 C335 377 315 361 307 326 C324 332 346 337 368 337 C431 337 472 304 472 247 C472 187 418 140 335 140 C249 140 203 189 203 274 C203 372 264 443 366 443 C388 443 425 439 452 429 L452 357 C424 370 398 377 375 377 L375 377 Z M335 280 C323 280 312 277 302 273 L302 268 C302 225 311 205 337 205 C359 205 373 220 373 244 C373 271 356 280 335 280 L335 280 Z " />
<glyph glyph-name="uni2790" unicode="&#x2790;" horiz-adv-x="691" d="M345 0 C506 0 637 130 637 291 C637 452 506 583 345 583 C184 583 54 452 54 291 C54 130 184 0 345 0 L345 0 Z M258 145 L257 149 L371 366 L234 366 L234 439 L466 439 L466 393 L349 145 L258 145 Z " />
<glyph glyph-name="uni2791" unicode="&#x2791;" horiz-adv-x="691" d="M345 0 C506 0 637 130 637 291 C637 452 506 583 345 583 C184 583 54 452 54 291 C54 130 184 0 345 0 L345 0 Z M480 230 C480 177 409 141 338 141 C258 141 206 164 206 219 C206 245 227 270 256 285 C230 303 210 326 210 357 C210 409 273 443 343 443 C412 443 474 422 474 369 C474 341 453 317 421 299 C454 284 480 262 480 230 L480 230 Z M385 355 C385 370 370 380 345 380 C324 380 307 375 307 358 C307 342 336 332 370 320 C380 332 385 345 385 355 L385 355 Z M297 234 C297 213 312 199 338 199 C358 199 378 205 378 219 C378 235 342 245 305 261 C299 252 297 244 297 234 L297 234 Z " />
<glyph glyph-name="uni2792" unicode="&#x2792;" horiz-adv-x="691" d="M345 0 C506 0 637 130 637 291 C637 452 506 583 345 583 C184 583 54 452 54 291 C54 130 184 0 345 0 L345 0 Z M314 207 C352 207 374 222 382 257 C364 252 341 246 319 246 C263 246 216 274 216 337 C216 398 270 443 353 443 C440 443 486 395 486 309 C486 211 425 141 322 141 C299 141 262 144 236 156 L236 227 C264 214 290 207 314 207 L314 207 Z M353 304 C365 304 377 306 387 310 L387 316 C386 359 375 379 350 379 C330 379 315 366 315 341 C315 313 332 304 353 304 L353 304 Z " />
<glyph glyph-name="uni301A" unicode="&#x301a;" horiz-adv-x="370" d="M41 -181 L347 -181 L347 -89 L305 -89 L305 586 L347 586 L347 679 L41 679 L41 -181 Z M155 586 L191 586 L191 -89 L155 -89 L155 586 Z " />
<glyph glyph-name="uni301B" unicode="&#x301b;" horiz-adv-x="370" d="M329 679 L24 679 L24 586 L65 586 L65 -89 L24 -89 L24 -181 L329 -181 L329 679 Z M215 586 L215 -89 L179 -89 L179 586 L215 586 Z " />
<glyph glyph-name="apple" unicode="&#xf8ff;" horiz-adv-x="1241" d="M390 318 L401 318 L401 328 L411 328 L411 338 L421 338 L421 347 L431 347 L431 388 L420 388 L420 348 L401 348 L401 388 L390 388 L390 347 L400 347 L400 329 L390 329 L390 318 Z M350 338 L371 338 L371 348 L351 348 L351 377 L371 377 L371 388 L351 388 L351 398 L340 398 L340 388 L330 388 L330 377 L340 377 L340 347 L350 347 L350 338 Z M590 338 L611 338 L611 348 L591 348 L591 377 L611 377 L611 388 L591 388 L591 398 L580 398 L580 388 L570 388 L570 377 L580 377 L580 347 L590 347 L590 338 Z M700 338 L731 338 L731 348 L701 348 L701 357 L731 357 L731 378 L721 378 L721 388 L700 388 L700 378 L690 378 L690 347 L700 347 L700 338 Z M880 338 L911 338 L911 348 L881 348 L881 357 L911 357 L911 378 L901 378 L901 388 L880 388 L880 378 L870 378 L870 347 L880 347 L880 338 Z M110 347 L121 347 L121 357 L131 357 L131 368 L121 368 L121 378 L110 378 L110 368 L100 368 L100 357 L110 357 L110 347 Z M180 347 L191 347 L191 357 L201 357 L201 368 L191 368 L191 378 L180 378 L180 368 L170 368 L170 357 L180 357 L180 347 Z M270 347 L281 347 L281 357 L291 357 L291 368 L281 368 L281 378 L270 378 L270 368 L260 368 L260 357 L270 357 L270 347 Z M520 338 L541 338 L541 347 L551 347 L551 378 L541 378 L541 388 L520 388 L520 378 L510 378 L510 347 L520 347 L520 338 Z M630 338 L641 338 L641 377 L660 377 L660 338 L671 338 L671 378 L661 378 L661 388 L641 388 L641 408 L630 408 L630 338 Z M960 347 L971 347 L971 357 L981 357 L981 368 L971 368 L971 378 L960 378 L960 368 L950 368 L950 357 L960 357 L960 347 Z M1050 347 L1061 347 L1061 357 L1071 357 L1071 368 L1061 368 L1061 378 L1050 378 L1050 368 L1040 368 L1040 357 L1050 357 L1050 347 Z M1120 347 L1131 347 L1131 357 L1141 357 L1141 368 L1131 368 L1131 378 L1120 378 L1120 368 L1110 368 L1110 357 L1120 357 L1120 347 Z M450 318 L461 318 L461 338 L481 338 L481 347 L491 347 L491 378 L481 378 L481 388 L450 388 L450 318 Z M780 318 L791 318 L791 388 L760 388 L760 378 L750 378 L750 347 L760 347 L760 338 L780 338 L780 318 Z M820 338 L851 338 L851 388 L840 388 L840 348 L821 348 L821 388 L810 388 L810 347 L820 347 L820 338 Z M240 328 L251 328 L251 338 L261 338 L261 348 L250 348 L250 338 L240 338 L240 328 Z M250 377 L261 377 L261 388 L251 388 L251 398 L240 398 L240 387 L250 387 L250 377 Z M300 328 L311 328 L311 338 L301 338 L301 348 L290 348 L290 338 L300 338 L300 328 Z M290 377 L301 377 L301 387 L311 387 L311 398 L300 398 L300 388 L290 388 L290 377 Z M930 328 L941 328 L941 338 L951 338 L951 348 L940 348 L940 338 L930 338 L930 328 Z M940 377 L951 377 L951 388 L941 388 L941 398 L930 398 L930 387 L940 387 L940 377 Z M990 328 L1001 328 L1001 338 L991 338 L991 348 L980 348 L980 338 L990 338 L990 328 Z M980 377 L991 377 L991 387 L1001 387 L1001 398 L990 398 L990 388 L980 388 L980 377 Z M160 338 L171 338 L171 348 L160 348 L160 338 Z M160 377 L171 377 L171 388 L160 388 L160 377 Z M200 338 L211 338 L211 348 L200 348 L200 338 Z M200 377 L211 377 L211 388 L200 388 L200 377 Z M461 348 L461 377 L480 377 L480 348 L461 348 Z M521 348 L521 377 L540 377 L540 348 L521 348 Z M701 368 L701 377 L720 377 L720 368 L701 368 Z M761 348 L761 377 L780 377 L780 348 L761 348 Z M881 368 L881 377 L900 377 L900 368 L881 368 Z M1030 338 L1041 338 L1041 348 L1030 348 L1030 338 Z M1030 377 L1041 377 L1041 388 L1030 388 L1030 377 Z M1070 338 L1081 338 L1081 348 L1070 348 L1070 338 Z M1070 377 L1081 377 L1081 388 L1070 388 L1070 377 Z " />
<glyph glyph-name="f_f" unicode="&#xfb00;" horiz-adv-x="494" d="M277 0 L430 0 L430 336 L478 336 L478 456 L430 456 C430 499 435 531 469 531 C478 531 488 529 497 527 L497 653 C479 658 450 660 432 660 C395 660 363 653 338 634 C304 652 266 658 211 658 C123 658 53 600 53 483 L53 456 L17 456 L17 336 L53 336 L53 0 L206 0 L206 336 L277 336 L277 0 Z M252 544 C262 544 273 544 284 542 C279 520 277 495 277 465 L277 456 L206 456 C206 502 213 544 252 544 L252 544 Z " />
<glyph glyph-name="fi" unicode="&#xfb01;" horiz-adv-x="465" d="M17 336 L53 336 L53 0 L206 0 L206 336 L278 336 L278 0 L430 0 L430 456 L206 456 C206 500 215 530 282 530 C295 530 309 529 325 527 L325 653 C300 658 274 660 250 660 C129 660 53 595 53 484 L53 456 L17 456 L17 336 Z " />
<glyph glyph-name="fl" unicode="&#xfb02;" horiz-adv-x="467" d="M279 0 L431 0 L431 653 L283 653 C265 658 226 660 208 660 C117 660 53 614 53 465 L53 456 L17 456 L17 336 L53 336 L53 0 L206 0 L206 336 L245 336 L245 456 L206 456 C206 499 211 531 245 531 C253 531 269 529 279 528 L279 0 Z " />
<glyph glyph-name="f_f_i" unicode="&#xfb03;" horiz-adv-x="689" d="M278 0 L430 0 L430 336 L502 336 L502 0 L654 0 L654 456 L430 456 C430 500 439 530 506 530 C520 530 533 529 549 527 L549 653 C524 658 499 660 474 660 C353 660 278 595 278 484 L278 456 L206 456 L206 463 C206 506 211 531 238 531 C247 531 257 529 266 527 L266 653 C248 658 226 660 208 660 C117 660 53 614 53 465 L53 456 L17 456 L17 336 L53 336 L53 0 L206 0 L206 336 L278 336 L278 0 Z " />
<glyph glyph-name="f_f_l" unicode="&#xfb04;" horiz-adv-x="690" d="M206 336 L278 336 L278 0 L430 0 L430 336 L470 336 L470 456 L430 456 C430 499 436 531 470 531 C476 531 491 530 502 528 L502 0 L654 0 L654 653 L508 653 C490 658 451 660 432 660 C342 660 278 614 278 465 L278 456 L206 456 L206 463 C206 506 211 531 238 531 C247 531 257 529 266 527 L266 653 C248 658 226 660 208 660 C117 660 53 614 53 465 L53 456 L17 456 L17 336 L53 336 L53 0 L206 0 L206 336 Z " />
</font>
</defs>
</svg>
