<svg xmlns="http://www.w3.org/2000/svg">
<defs>
<font id="Greta Sans Cnd Std Lt">
<font-face  font-family="Greta Sans Condensed Std" units-per-em="1000" ascent="710" descent="-290" font-style="normal" font-weight="300" font-stretch="condensed" cap-height="583" x-height="450" underline-position="-75" underline-thickness="50" />

<glyph glyph-name="NULL" d="" />
<glyph glyph-name="CR" unicode="&#xd;" horiz-adv-x="250" d="" />
<glyph glyph-name="space" unicode="&#x20;" horiz-adv-x="178" d="" />
<glyph glyph-name="exclam" unicode="&#x21;" horiz-adv-x="184" d="M63 341 L69 198 L114 198 L119 342 L119 583 L63 583 L63 341 Z M43 40 C43 14 64 -7 89 -7 C115 -7 136 14 136 40 C136 65 115 86 89 86 C64 86 43 65 43 40 L43 40 Z " />
<glyph glyph-name="quotedbl" unicode="&#x22;" horiz-adv-x="270" d="M52 460 L98 460 L106 657 L52 657 L52 460 Z M170 460 L216 460 L224 657 L170 657 L170 460 Z " />
<glyph glyph-name="numbersign" unicode="&#x23;" horiz-adv-x="441" d="M58 386 L141 386 L112 203 L33 203 L27 164 L106 164 L80 0 L122 0 L148 164 L251 164 L225 0 L267 0 L292 164 L377 164 L383 203 L298 203 L327 386 L408 386 L414 425 L333 425 L358 583 L317 583 L292 425 L189 425 L214 583 L172 583 L147 425 L64 425 L58 386 Z M183 386 L286 386 L257 203 L154 203 L183 386 Z " />
<glyph glyph-name="dollar" unicode="&#x24;" horiz-adv-x="332" d="M187 -76 L187 -3 C253 9 301 61 301 157 C301 259 239 298 175 329 C119 355 88 384 88 445 C88 494 119 539 176 539 C213 539 251 529 283 510 L283 566 C259 578 226 586 187 588 L187 656 L144 656 L144 585 C77 572 35 512 35 438 C35 352 88 310 147 282 C208 252 247 227 247 154 C247 82 211 47 155 47 C115 47 72 59 40 76 L40 17 C74 3 108 -5 144 -6 L144 -76 L187 -76 Z " />
<glyph glyph-name="percent" unicode="&#x25;" horiz-adv-x="512" d="M123 285 C181 285 217 342 217 437 C217 540 180 591 123 591 C65 591 28 530 28 434 C28 335 65 285 123 285 L123 285 Z M125 323 C87 323 71 366 71 435 C71 510 87 551 122 551 C157 551 173 514 173 434 C173 365 159 323 125 323 L125 323 Z M270 369 L311 369 L403 570 L403 583 L354 583 L270 369 Z M389 -8 C447 -8 484 50 484 144 C484 248 446 298 389 298 C332 298 295 238 295 142 C295 43 332 -8 389 -8 L389 -8 Z M391 31 C354 31 338 74 338 143 C338 215 353 260 388 260 C424 260 440 223 440 142 C440 72 425 31 391 31 L391 31 Z M252 225 L211 225 L119 13 L119 0 L167 0 L252 225 Z " />
<glyph glyph-name="ampersand" unicode="&#x26;" horiz-adv-x="494" d="M455 350 L397 350 C384 269 361 199 329 147 C298 180 269 210 255 224 C235 244 216 266 198 288 C254 321 321 379 321 462 C321 533 282 591 200 591 C118 591 70 522 70 440 C70 393 90 348 119 304 C75 271 33 222 33 144 C33 51 87 -7 177 -7 C237 -7 288 22 329 66 C360 34 388 7 399 0 L465 0 L465 16 C449 26 407 67 364 111 C410 181 440 271 455 350 L455 350 Z M198 206 C213 189 254 144 295 101 C263 64 224 44 182 44 C125 44 89 79 89 153 C89 205 113 242 145 268 C162 247 179 226 198 206 L198 206 Z M125 441 C125 516 159 541 198 541 C247 541 264 503 264 458 C264 392 219 352 172 321 C144 362 125 403 125 441 L125 441 Z " />
<glyph glyph-name="quotesingle" unicode="&#x27;" horiz-adv-x="152" d="M52 460 L98 460 L106 657 L52 657 L52 460 Z " />
<glyph glyph-name="parenleft" unicode="&#x28;" horiz-adv-x="219" d="M200 -152 C177 -116 87 43 87 261 C87 474 174 614 199 648 L144 648 C121 620 35 473 35 260 C35 45 120 -115 145 -151 L200 -152 Z " />
<glyph glyph-name="parenright" unicode="&#x29;" horiz-adv-x="219" d="M19 648 C43 614 131 462 131 246 C131 31 44 -117 19 -151 L73 -151 C97 -122 184 32 184 247 C184 460 98 613 74 648 L19 648 Z " />
<glyph glyph-name="asterisk" unicode="&#x2a;" horiz-adv-x="326" d="M39 528 L141 479 L39 431 L59 395 L149 459 L142 338 L182 338 L174 459 L266 394 L286 431 L181 480 L286 529 L266 565 L173 499 L182 624 L142 624 L151 499 L60 563 L39 528 Z " />
<glyph glyph-name="plus" unicode="&#x2b;" horiz-adv-x="358" d="M33 275 L157 275 L157 105 L201 105 L201 275 L325 275 L325 321 L201 321 L201 488 L157 488 L157 321 L33 321 L33 275 Z " />
<glyph glyph-name="comma" unicode="&#x2c;" horiz-adv-x="179" d="M40 -159 C104 -104 136 -35 136 28 C136 63 114 92 85 100 C62 100 42 79 42 56 C62 37 70 16 70 -14 C70 -60 43 -102 13 -137 L40 -159 Z " />
<glyph glyph-name="&amp;#x2d;" unicode="&#x2d;" horiz-adv-x="269" d="M48 218 L220 218 L220 270 L48 270 L48 218 Z " />
<glyph glyph-name="&amp;#xad;" unicode="&#xad;" horiz-adv-x="269" d="M48 218 L220 218 L220 270 L48 270 L48 218 Z " />
<glyph glyph-name="period" unicode="&#x2e;" horiz-adv-x="177" d="M43 40 C43 14 64 -7 89 -7 C115 -7 136 14 136 40 C136 65 115 86 89 86 C64 86 43 65 43 40 L43 40 Z " />
<glyph glyph-name="slash" unicode="&#x2f;" horiz-adv-x="243" d="M24 -93 L75 -93 L220 674 L170 674 L24 -93 Z " />
<glyph glyph-name="zero" unicode="0" horiz-adv-x="389" d="M191 -7 C302 -7 347 103 347 298 C347 478 316 591 197 591 C89 591 42 490 42 282 C42 94 76 -7 191 -7 L191 -7 Z M194 44 C128 44 100 103 100 285 C100 467 130 539 194 539 C259 539 289 464 289 297 C289 115 261 44 194 44 L194 44 Z " />
<glyph glyph-name="one" unicode="1" horiz-adv-x="241" d="M180 0 L180 583 L147 583 L24 542 L24 493 L121 517 L121 0 L180 0 Z " />
<glyph glyph-name="two" unicode="2" horiz-adv-x="339" d="M32 0 L305 0 L305 53 L103 53 L103 54 C192 151 290 307 290 430 C290 542 235 591 157 591 C115 591 75 579 43 558 L43 503 C82 531 115 537 146 537 C199 537 232 501 232 421 C232 306 128 152 32 43 L32 0 Z " />
<glyph glyph-name="three" unicode="3" horiz-adv-x="321" d="M132 -7 C206 -7 283 42 283 164 C283 254 232 305 180 311 L180 314 C210 324 265 373 265 460 C265 540 223 591 144 591 C107 591 72 580 42 559 L42 503 C74 528 105 537 133 537 C185 537 208 496 208 446 C208 378 154 328 106 321 L106 278 C177 275 227 236 227 161 C227 94 192 47 136 47 C106 47 73 51 40 68 L40 12 C62 2 90 -7 132 -7 L132 -7 Z " />
<glyph glyph-name="four" unicode="4" horiz-adv-x="340" d="M258 0 L258 152 L312 152 L312 201 L258 201 L258 583 L204 583 L24 198 L24 152 L201 152 L201 0 L258 0 Z M74 201 L198 469 L201 469 L201 201 L74 201 Z " />
<glyph glyph-name="five" unicode="5" horiz-adv-x="320" d="M135 45 C105 45 72 52 39 65 L39 11 C63 2 96 -6 135 -6 C209 -6 283 53 283 174 C283 301 218 344 129 344 C121 344 114 344 107 343 L116 532 L275 532 L275 583 L68 583 L53 290 C72 293 92 294 109 294 C182 294 227 262 227 170 C227 85 184 45 135 45 L135 45 Z " />
<glyph glyph-name="six" unicode="6" horiz-adv-x="353" d="M296 524 L296 578 C273 587 244 591 221 591 C101 591 41 467 41 256 C41 87 80 -7 178 -7 C269 -7 317 71 317 196 C317 309 271 356 196 356 C154 356 123 341 100 326 C109 467 147 539 222 539 C244 539 266 537 296 524 L296 524 Z M185 308 C235 308 261 274 261 190 C261 91 232 44 179 44 C122 44 98 118 98 255 L98 280 C120 294 149 308 185 308 L185 308 Z " />
<glyph glyph-name="seven" unicode="7" horiz-adv-x="291" d="M109 0 L271 549 L271 583 L28 583 L28 533 L214 533 L55 4 L57 0 L109 0 Z " />
<glyph glyph-name="eight" unicode="8" horiz-adv-x="353" d="M313 157 C313 233 275 268 231 297 C272 329 305 387 305 452 C305 535 264 591 175 591 C98 591 49 524 49 441 C49 373 80 335 118 306 C77 278 40 218 40 149 C40 57 81 -7 171 -7 C256 -7 313 65 313 157 L313 157 Z M95 153 C95 215 120 260 147 285 C201 250 256 222 256 152 C256 70 214 44 174 44 C128 44 95 81 95 153 L95 153 Z M248 444 C248 397 230 350 196 318 C148 346 104 375 104 444 C104 505 133 539 174 539 C228 539 248 499 248 444 L248 444 Z " />
<glyph glyph-name="nine" unicode="9" horiz-adv-x="353" d="M56 59 L56 5 C79 -4 108 -8 131 -8 C251 -8 311 116 311 327 C311 496 272 590 174 590 C83 590 35 512 35 387 C35 274 81 227 156 227 C198 227 229 241 252 256 C243 115 205 44 130 44 C108 44 86 46 56 59 L56 59 Z M167 275 C117 275 91 309 91 393 C91 492 120 539 173 539 C230 539 254 465 254 328 L254 303 C232 288 202 275 167 275 L167 275 Z " />
<glyph glyph-name="colon" unicode="&#x3a;" horiz-adv-x="186" d="M47 40 C47 14 68 -7 93 -7 C119 -7 140 14 140 40 C140 65 119 86 93 86 C68 86 47 65 47 40 L47 40 Z M47 389 C47 363 68 342 93 342 C119 342 140 363 140 389 C140 414 119 435 93 435 C68 435 47 414 47 389 L47 389 Z " />
<glyph glyph-name="semicolon" unicode="&#x3b;" horiz-adv-x="199" d="M49 -159 C113 -104 145 -35 145 28 C145 63 123 92 94 100 C71 100 51 79 51 56 C71 37 79 16 79 -14 C79 -60 52 -102 22 -137 L49 -159 Z M57 389 C57 363 78 342 103 342 C129 342 150 363 150 389 C150 414 129 435 103 435 C78 435 57 414 57 389 L57 389 Z " />
<glyph glyph-name="less" unicode="&#x3c;" horiz-adv-x="345" d="M298 75 L298 135 L77 296 L77 298 L298 456 L299 516 L25 313 L25 276 L298 75 Z " />
<glyph glyph-name="equal" unicode="&#x3d;" horiz-adv-x="374" d="M50 183 L324 183 L324 231 L50 231 L50 183 Z M50 361 L324 361 L324 410 L50 410 L50 361 Z " />
<glyph glyph-name="greater" unicode="&#x3e;" horiz-adv-x="345" d="M319 276 L319 313 L47 516 L47 456 L265 297 L265 295 L47 135 L47 75 L319 276 Z " />
<glyph glyph-name="question" unicode="&#x3f;" horiz-adv-x="279" d="M94 187 L141 187 L141 267 C178 288 250 342 250 449 C250 549 202 591 127 591 C98 591 61 583 32 568 L32 516 C61 530 93 540 120 540 C165 540 192 513 192 445 C192 347 123 306 94 289 L94 187 Z M68 40 C68 14 89 -7 114 -7 C140 -7 161 14 161 40 C161 65 140 86 114 86 C89 86 68 65 68 40 L68 40 Z " />
<glyph glyph-name="at" unicode="&#x40;" horiz-adv-x="641" d="M348 9 L385 -5 C524 34 616 169 616 316 C616 506 513 642 360 642 C168 642 32 447 32 198 C32 -62 128 -199 308 -199 C389 -199 478 -174 537 -129 L537 -80 C473 -127 391 -152 318 -152 C170 -152 82 -43 82 200 C82 415 196 596 355 596 C494 596 568 476 568 309 C568 197 510 94 414 50 L402 57 L453 455 L407 455 L404 431 C380 445 354 454 336 454 C297 454 270 429 249 398 C209 338 188 224 188 118 C188 71 192 29 198 -4 L245 -4 L366 147 L348 9 Z M240 72 C239 98 236 123 236 151 C236 250 261 355 307 407 C310 408 315 409 320 409 C340 409 370 397 397 381 L375 211 L256 70 L240 72 Z " />
<glyph glyph-name="A" unicode="A" horiz-adv-x="382" d="M11 0 L68 0 L113 184 L261 184 L298 0 L360 0 L226 583 L167 583 L11 0 Z M153 346 L193 507 L196 507 L228 345 L250 235 L125 235 L153 346 Z " />
<glyph glyph-name="B" unicode="B" horiz-adv-x="385" d="M60 0 L194 0 C302 0 354 63 354 166 C354 269 291 302 249 306 L249 308 C293 324 326 367 326 441 C326 534 274 583 175 583 L60 583 L60 0 Z M169 275 C240 275 292 253 292 171 C292 75 242 52 181 52 L119 52 L119 275 L169 275 Z M163 531 C212 531 263 517 263 427 C263 372 233 325 171 325 L119 325 L119 531 L163 531 Z " />
<glyph glyph-name="C" unicode="C" horiz-adv-x="381" d="M238 -7 C286 -7 326 5 348 18 L348 72 C315 53 285 47 247 47 C150 47 100 121 100 294 C100 451 150 538 242 538 C278 538 309 532 348 511 L348 569 C325 580 295 591 240 591 C98 591 37 458 37 286 C37 97 97 -7 238 -7 L238 -7 Z " />
<glyph glyph-name="D" unicode="D" horiz-adv-x="450" d="M60 0 L183 0 C322 0 414 102 414 303 C414 518 310 583 180 583 L60 583 L60 0 Z M173 531 C278 531 352 485 352 297 C352 125 285 52 182 52 L119 52 L119 531 L173 531 Z " />
<glyph glyph-name="E" unicode="E" horiz-adv-x="347" d="M60 0 L318 0 L318 52 L119 52 L119 275 L282 275 L282 325 L119 325 L119 531 L313 531 L313 583 L60 583 L60 0 Z " />
<glyph glyph-name="F" unicode="F" horiz-adv-x="326" d="M60 0 L119 0 L119 248 L278 248 L278 299 L119 299 L119 531 L308 531 L308 583 L60 583 L60 0 Z " />
<glyph glyph-name="G" unicode="G" horiz-adv-x="427" d="M242 -7 C293 -7 336 6 381 29 L381 297 L322 297 L322 58 C299 51 277 47 248 47 C158 47 99 107 99 294 C99 458 164 537 255 537 C296 537 338 530 378 508 L378 567 C351 578 315 591 256 591 C112 591 37 456 37 286 C37 98 96 -7 242 -7 L242 -7 Z " />
<glyph glyph-name="H" unicode="H" horiz-adv-x="472" d="M353 0 L412 0 L412 583 L353 583 L353 325 L119 325 L119 583 L60 583 L60 0 L119 0 L119 273 L353 273 L353 0 Z " />
<glyph glyph-name="I" unicode="I" horiz-adv-x="179" d="M60 0 L119 0 L119 583 L60 583 L60 0 Z " />
<glyph glyph-name="J" unicode="J" horiz-adv-x="193" d="M40 -85 C99 4 136 89 136 179 L136 583 L75 583 L75 179 C75 88 34 13 -10 -60 L40 -85 Z " />
<glyph glyph-name="K" unicode="K" horiz-adv-x="379" d="M296 0 L364 0 L192 308 L369 583 L304 583 L136 309 L136 294 L296 0 Z M60 0 L119 0 L119 583 L60 583 L60 0 Z " />
<glyph glyph-name="L" unicode="L" horiz-adv-x="319" d="M60 0 L307 0 L307 52 L119 52 L119 583 L60 583 L60 0 Z " />
<glyph glyph-name="M" unicode="M" horiz-adv-x="553" d="M40 0 L96 0 L114 308 L126 464 L129 464 L170 307 L248 0 L302 0 L383 308 L424 460 L427 460 L437 307 L455 0 L513 0 L472 583 L406 583 L314 234 L279 94 L276 94 L243 232 L154 583 L82 583 L40 0 Z " />
<glyph glyph-name="N" unicode="N" horiz-adv-x="462" d="M60 0 L119 0 L117 454 L119 454 L346 0 L402 0 L402 583 L344 583 L346 134 L344 134 L116 583 L60 583 L60 0 Z " />
<glyph glyph-name="O" unicode="O" horiz-adv-x="456" d="M223 -7 C362 -7 419 119 419 308 C419 462 369 591 235 591 C97 591 37 459 37 281 C37 108 93 -7 223 -7 L223 -7 Z M227 46 C142 46 100 129 100 290 C100 464 147 538 232 538 C313 538 357 460 357 300 C357 134 317 46 227 46 L227 46 Z " />
<glyph glyph-name="P" unicode="P" horiz-adv-x="370" d="M60 0 L119 0 L119 213 L167 213 C289 213 341 291 341 402 C341 532 286 583 194 583 L60 583 L60 0 Z M177 531 C247 531 281 489 281 400 C281 287 226 265 162 263 L119 263 L119 531 L177 531 Z " />
<glyph glyph-name="Q" unicode="Q" horiz-adv-x="456" d="M223 -7 C241 -7 257 -4 272 0 L367 -109 L442 -109 L443 -95 L317 19 C388 65 419 169 419 308 C419 462 369 591 235 591 C97 591 37 459 37 281 C37 108 93 -7 223 -7 L223 -7 Z M227 46 C142 46 100 129 100 290 C100 464 147 538 232 538 C313 538 357 460 357 300 C357 134 317 46 227 46 L227 46 Z " />
<glyph glyph-name="R" unicode="R" horiz-adv-x="386" d="M60 0 L119 0 L119 227 L165 227 C178 227 191 228 203 230 L302 0 L371 0 L258 248 C310 277 339 332 339 408 C339 532 285 583 191 583 L60 583 L60 0 Z M174 531 C244 531 277 497 277 406 C277 293 223 278 159 278 L119 278 L119 531 L174 531 Z " />
<glyph glyph-name="S" unicode="S" horiz-adv-x="331" d="M38 15 C76 0 111 -7 149 -7 C234 -7 300 47 300 158 C300 263 238 297 176 329 C123 357 93 384 93 445 C93 496 125 537 179 537 C216 537 252 526 283 507 L283 568 C256 582 220 591 176 591 C89 591 35 522 35 437 C35 350 84 310 141 282 C199 253 241 227 241 154 C241 82 204 49 150 49 C111 49 71 58 38 75 L38 15 Z " />
<glyph glyph-name="T" unicode="T" horiz-adv-x="371" d="M11 531 L155 531 L155 0 L216 0 L216 531 L360 531 L360 583 L11 583 L11 531 Z " />
<glyph glyph-name="U" unicode="U" horiz-adv-x="445" d="M225 -7 C309 -7 389 46 389 221 L389 583 L331 583 L331 217 C331 94 295 48 229 48 C161 48 116 80 116 204 L116 583 L56 583 L56 198 C56 35 137 -7 225 -7 L225 -7 Z " />
<glyph glyph-name="V" unicode="V" horiz-adv-x="396" d="M386 583 L326 583 L239 254 L199 88 L196 88 L159 255 L80 583 L19 583 L165 0 L223 0 L386 583 Z " />
<glyph glyph-name="W" unicode="W" horiz-adv-x="624" d="M611 583 L551 583 L480 253 L446 93 L443 93 L412 255 L348 583 L281 583 L210 253 L177 88 L173 88 L145 253 L87 583 L25 583 L139 0 L205 0 L279 342 L310 487 L315 487 L342 342 L408 0 L473 0 L611 583 Z " />
<glyph glyph-name="X" unicode="X" horiz-adv-x="374" d="M88 583 L22 583 L153 296 L9 0 L75 0 L183 245 L186 245 L288 0 L356 0 L220 299 L361 583 L296 583 L190 348 L187 348 L88 583 Z " />
<glyph glyph-name="Y" unicode="Y" horiz-adv-x="374" d="M364 583 L306 583 L232 381 L192 274 L189 274 L148 381 L72 583 L11 583 L156 220 L156 0 L217 0 L217 215 L364 583 Z " />
<glyph glyph-name="Z" unicode="Z" horiz-adv-x="343" d="M315 0 L315 52 L95 52 L325 580 L324 583 L30 583 L30 531 L242 531 L17 3 L18 0 L315 0 Z " />
<glyph glyph-name="bracketleft" unicode="&#x5b;" horiz-adv-x="199" d="M56 -184 L169 -184 L169 -139 L107 -139 L107 631 L169 631 L169 677 L56 677 L56 -184 Z " />
<glyph glyph-name="backslash" unicode="&#x5c;" horiz-adv-x="245" d="M74 674 L23 674 L170 -93 L221 -93 L74 674 Z " />
<glyph glyph-name="bracketright" unicode="&#x5d;" horiz-adv-x="200" d="M143 677 L30 677 L30 631 L92 631 L92 -139 L30 -139 L30 -184 L143 -184 L143 677 Z " />
<glyph glyph-name="asciicircum" unicode="&#x5e;" horiz-adv-x="317" d="M20 240 L70 240 L158 522 L162 522 L243 240 L293 240 L190 583 L131 583 L20 240 Z " />
<glyph glyph-name="underscore" unicode="&#x5f;" horiz-adv-x="470" d="M77 -132 L393 -132 L393 -85 L77 -85 L77 -132 Z " />
<glyph glyph-name="grave" unicode="&#x60;" horiz-adv-x="221" d="M176 528 L109 669 L53 669 L131 528 L176 528 Z " />
<glyph glyph-name="a" unicode="a" horiz-adv-x="340" d="M246 0 L303 0 L287 90 L287 343 C287 431 241 459 175 459 C133 459 80 450 50 436 L50 384 C78 396 127 407 162 407 C208 407 232 387 232 329 L232 248 L183 248 C91 248 27 210 27 114 C27 40 60 -6 126 -6 C174 -6 212 21 237 50 L246 0 Z M137 44 C103 44 84 64 84 120 C84 188 121 204 179 204 L232 204 L232 95 C203 65 170 44 137 44 L137 44 Z " />
<glyph glyph-name="b" unicode="b" horiz-adv-x="366" d="M164 -7 C267 -7 332 74 332 247 C332 396 288 459 206 459 C168 459 133 443 106 423 L106 653 L50 653 L50 13 C94 -2 127 -7 164 -7 L164 -7 Z M191 408 C249 408 274 366 274 238 C274 119 250 43 169 43 C148 43 125 46 106 50 L106 375 C130 393 160 408 191 408 L191 408 Z " />
<glyph glyph-name="c" unicode="c" horiz-adv-x="309" d="M186 -7 C222 -7 252 0 277 14 L277 62 C251 50 225 44 199 44 C135 44 93 92 93 225 C93 349 134 407 198 407 C224 407 249 403 277 387 L277 444 C252 456 224 459 195 459 C88 459 34 362 34 220 C34 74 83 -7 186 -7 L186 -7 Z " />
<glyph glyph-name="d" unicode="d" horiz-adv-x="370" d="M275 0 L331 0 L316 95 L316 653 L261 653 L261 451 C242 456 217 459 194 459 C99 459 34 377 34 209 C34 61 86 -6 160 -6 C204 -6 240 19 266 53 L275 0 Z M171 48 C116 48 93 107 93 217 C93 350 128 409 195 409 C217 409 241 406 261 398 L261 98 C231 68 203 48 171 48 L171 48 Z " />
<glyph glyph-name="e" unicode="e" horiz-adv-x="356" d="M198 -7 C250 -7 287 3 317 20 L317 67 C281 51 243 44 206 44 C133 44 93 90 91 210 L320 210 L320 245 C320 373 285 459 185 459 C81 459 34 360 34 217 C34 62 90 -7 198 -7 L198 -7 Z M182 408 C245 408 261 335 262 255 L91 255 C97 362 130 408 182 408 L182 408 Z " />
<glyph glyph-name="f" unicode="f" horiz-adv-x="218" d="M18 400 L70 400 L70 0 L125 0 L125 400 L203 400 L203 450 L125 450 L125 505 C125 583 149 611 192 611 C211 611 223 609 241 605 L241 656 C230 659 215 661 198 661 C126 661 70 620 70 508 L70 450 L18 450 L18 400 Z " />
<glyph glyph-name="g" unicode="g" horiz-adv-x="345" d="M167 173 C242 173 291 245 291 315 C291 351 284 381 271 405 L340 405 L340 449 L239 439 C220 452 196 459 167 459 C86 459 40 391 40 311 C40 244 65 200 111 182 L49 100 L49 60 L97 52 C56 23 16 -19 16 -82 C16 -165 67 -214 160 -214 C263 -214 328 -137 328 -42 C328 33 290 76 203 89 L104 104 L153 173 L167 173 Z M182 39 C250 28 274 3 274 -50 C274 -117 230 -166 165 -166 C105 -166 71 -137 71 -73 C71 -25 102 14 141 45 L182 39 Z M167 218 C117 218 95 255 95 315 C95 380 116 414 165 414 C212 414 235 379 235 315 C235 255 210 218 167 218 L167 218 Z " />
<glyph glyph-name="h" unicode="h" horiz-adv-x="382" d="M276 0 L333 0 L333 320 C333 422 301 459 232 459 C183 459 138 431 108 401 L108 653 L52 653 L52 0 L108 0 L108 348 C137 378 174 407 213 407 C267 407 276 373 276 303 L276 0 Z " />
<glyph glyph-name="i" unicode="i" horiz-adv-x="176" d="M17 400 L69 400 L69 0 L124 0 L124 450 L17 450 L17 400 Z M52 612 C52 587 72 567 97 567 C122 567 142 587 142 612 C142 637 122 657 97 657 C72 657 52 637 52 612 L52 612 Z " />
<glyph glyph-name="j" unicode="j" horiz-adv-x="177" d="M17 400 L69 400 L69 18 C69 -66 40 -139 15 -193 L59 -214 C98 -155 125 -64 125 25 L125 450 L17 450 L17 400 Z M52 612 C52 587 72 567 97 567 C122 567 142 587 142 612 C142 637 122 657 97 657 C72 657 52 637 52 612 L52 612 Z " />
<glyph glyph-name="k" unicode="k" horiz-adv-x="332" d="M250 0 L315 0 L182 252 L319 450 L256 450 L127 256 L127 241 L250 0 Z M52 0 L108 0 L108 653 L52 653 L52 0 Z " />
<glyph glyph-name="l" unicode="l" horiz-adv-x="168" d="M56 0 L112 0 L112 653 L56 653 L56 0 Z " />
<glyph glyph-name="m" unicode="m" horiz-adv-x="579" d="M474 0 L529 0 L529 321 C529 422 500 459 431 459 C382 459 339 430 310 399 C296 442 268 459 222 459 C173 459 132 431 103 400 L95 450 L39 450 L54 347 L54 0 L110 0 L110 356 C136 383 168 407 202 407 C255 407 264 376 264 304 L264 0 L319 0 L319 320 C319 332 318 344 317 355 C344 383 378 407 412 407 C466 407 474 376 474 304 L474 0 Z " />
<glyph glyph-name="n" unicode="n" horiz-adv-x="384" d="M54 0 L110 0 L110 347 C139 377 177 407 215 407 C269 407 278 374 278 304 L278 0 L334 0 L334 320 C334 422 303 459 234 459 C181 459 134 427 104 394 L95 450 L39 450 L54 347 L54 0 Z " />
<glyph glyph-name="o" unicode="o" horiz-adv-x="361" d="M179 -7 C277 -7 328 102 328 228 C328 389 287 459 184 459 C89 459 34 355 34 223 C34 60 84 -7 179 -7 L179 -7 Z M182 44 C115 44 91 98 91 226 C91 337 116 408 182 408 C257 408 270 341 270 225 C270 115 248 44 182 44 L182 44 Z " />
<glyph glyph-name="p" unicode="p" horiz-adv-x="370" d="M54 -207 L110 -207 L110 1 C128 -4 150 -7 174 -7 C266 -7 336 56 336 244 C336 396 294 459 212 459 C169 459 132 435 103 404 L95 450 L39 450 L54 350 L54 -207 Z M196 407 C254 407 278 365 278 237 C278 106 250 43 175 43 C154 43 129 46 110 52 L110 361 C134 386 163 407 196 407 L196 407 Z " />
<glyph glyph-name="q" unicode="q" horiz-adv-x="368" d="M201 459 C99 459 34 375 34 208 C34 47 91 -7 166 -7 C202 -7 235 9 261 31 L261 -207 L317 -207 L317 443 C271 455 241 459 201 459 L201 459 Z M176 44 C119 44 91 84 91 217 C91 349 127 410 198 410 C221 410 242 406 261 401 L261 79 C234 58 206 44 176 44 L176 44 Z " />
<glyph glyph-name="r" unicode="r" horiz-adv-x="249" d="M54 0 L110 0 L110 333 C133 364 165 401 211 401 C220 401 229 400 238 398 L238 454 C228 457 220 458 210 458 C166 458 130 422 105 388 L96 450 L39 450 L54 347 L54 0 Z " />
<glyph glyph-name="s" unicode="s" horiz-adv-x="301" d="M137 -7 C208 -7 272 31 272 129 C272 210 218 236 163 256 C117 274 86 289 86 336 C86 382 117 408 162 408 C193 408 219 404 258 386 L258 441 C232 454 194 459 163 459 C88 459 33 412 33 332 C33 257 84 229 136 210 C183 193 220 175 220 127 C220 69 188 45 142 45 C108 45 76 51 36 68 L36 13 C65 1 98 -7 137 -7 L137 -7 Z " />
<glyph glyph-name="t" unicode="t" horiz-adv-x="253" d="M18 400 L71 400 L71 104 C71 23 113 -7 167 -7 C196 -7 223 -3 243 9 L243 55 C225 48 205 44 185 44 C149 44 128 63 127 115 L127 400 L237 400 L237 450 L127 450 L127 570 L71 570 L71 450 L18 450 L18 400 Z " />
<glyph glyph-name="u" unicode="u" horiz-adv-x="379" d="M325 450 L269 450 L269 104 C240 73 207 44 171 44 C117 44 106 77 106 147 L106 450 L50 450 L50 131 C50 29 83 -8 151 -8 C202 -8 245 24 275 57 L284 0 L339 0 L325 104 L325 450 Z " />
<glyph glyph-name="v" unicode="v" horiz-adv-x="329" d="M131 0 L193 0 L316 450 L256 450 L197 206 L167 77 L164 77 L135 205 L78 450 L18 450 L131 0 Z " />
<glyph glyph-name="w" unicode="w" horiz-adv-x="522" d="M504 450 L448 450 L400 206 L374 76 L370 76 L343 204 L294 450 L238 450 L177 200 L149 76 L145 76 L123 200 L81 450 L22 450 L112 0 L174 0 L238 260 L260 356 L264 356 L284 260 L340 0 L405 0 L504 450 Z " />
<glyph glyph-name="x" unicode="x" horiz-adv-x="338" d="M83 450 L21 450 L135 227 L11 0 L73 0 L165 185 L170 185 L258 0 L322 0 L204 233 L320 450 L260 450 L172 273 L168 273 L83 450 Z " />
<glyph glyph-name="y" unicode="y" horiz-adv-x="331" d="M145 -207 L199 6 L316 450 L257 450 L194 192 L167 67 L164 67 L138 190 L79 450 L19 450 L128 0 L145 0 L86 -204 L88 -207 L145 -207 Z " />
<glyph glyph-name="z" unicode="z" horiz-adv-x="295" d="M20 3 L20 0 L272 0 L272 50 L99 50 L269 448 L267 450 L28 450 L28 401 L191 401 L20 3 Z " />
<glyph glyph-name="braceleft" unicode="&#x7b;" horiz-adv-x="229" d="M186 -179 L201 -178 L200 -137 L184 -137 C130 -137 107 -122 113 -40 L126 143 C130 197 114 241 82 253 C114 265 132 300 126 367 L115 548 C109 627 129 639 184 639 L200 639 L201 681 C201 681 179 682 178 682 C114 684 59 659 64 551 L77 357 C80 310 67 275 29 275 L29 233 C67 233 80 195 77 151 L64 -39 C56 -151 115 -181 186 -179 L186 -179 Z " />
<glyph glyph-name="bar" unicode="&#x7c;" horiz-adv-x="169" d="M57 -92 L112 -92 L112 675 L57 675 L57 -92 Z " />
<glyph glyph-name="braceright" unicode="&#x7d;" horiz-adv-x="229" d="M43 680 L28 679 L29 638 L45 638 C99 638 122 623 116 541 L103 358 C99 304 115 260 147 248 C115 236 97 201 103 134 L114 -47 C120 -126 100 -138 45 -138 L29 -138 L28 -180 C28 -180 50 -181 51 -181 C115 -183 170 -158 165 -50 L152 144 C149 191 162 226 200 226 L200 268 C162 268 149 306 152 350 L165 540 C173 652 114 682 43 680 L43 680 Z " />
<glyph glyph-name="asciitilde" unicode="&#x7e;" horiz-adv-x="382" d="M258 259 C294 259 321 287 338 317 L310 345 C296 322 282 307 259 307 C211 307 185 346 130 346 C94 346 61 318 46 295 L71 264 C84 278 101 297 131 297 C173 297 209 259 258 259 L258 259 Z " />
<glyph glyph-name="uni00A0" unicode="&#xa0;" horiz-adv-x="178" d="" />
<glyph glyph-name="exclamdown" unicode="&#xa1;" horiz-adv-x="174" d="M58 -131 L114 -131 L114 110 L109 254 L64 254 L58 111 L58 -131 Z M38 412 C38 387 59 366 84 366 C110 366 131 387 131 412 C131 438 110 459 84 459 C59 459 38 438 38 412 L38 412 Z " />
<glyph glyph-name="cent" unicode="&#xa2;" horiz-adv-x="318" d="M170 -88 L213 -88 L213 -5 C237 -2 258 4 276 14 L276 62 C250 50 224 44 198 44 C134 44 92 92 92 225 C92 349 133 407 197 407 C223 407 248 403 276 387 L276 444 C256 453 235 457 213 458 L213 537 L170 537 L170 457 C79 444 33 351 33 220 C33 81 77 1 170 -6 L170 -88 Z " />
<glyph glyph-name="sterling" unicode="&#xa3;" horiz-adv-x="354" d="M150 173 C150 199 147 230 143 261 L263 261 L263 310 L136 310 C130 350 125 389 125 421 C125 497 158 537 209 537 C245 537 270 530 301 508 L301 568 C275 582 245 591 205 591 C138 591 70 543 70 421 C70 387 74 348 79 310 L37 310 L37 261 L86 261 C91 224 96 190 96 163 C96 125 87 89 72 50 L37 50 L37 0 L320 0 L320 50 L129 50 C142 89 150 132 150 173 L150 173 Z " />
<glyph glyph-name="currency" unicode="&#xa4;" horiz-adv-x="392" d="M63 475 L37 453 L96 384 C80 355 73 314 73 277 C73 238 81 197 98 167 L37 99 L61 75 L120 140 C140 120 167 108 196 108 C224 108 252 121 272 139 L331 74 L354 99 L294 167 C312 196 320 238 320 277 C320 316 313 355 296 383 L355 452 L330 477 L274 412 C252 435 225 446 196 446 C167 446 139 432 118 411 L63 475 Z M116 277 C116 346 142 401 196 401 C251 401 276 343 276 277 C276 209 251 153 196 153 C142 153 116 210 116 277 L116 277 Z " />
<glyph glyph-name="yen" unicode="&#xa5;" horiz-adv-x="411" d="M364 176 L234 176 L234 204 L255 259 L364 259 L364 304 L272 304 L381 583 L323 583 L210 262 L206 262 L90 583 L29 583 L138 304 L50 304 L50 259 L155 259 L175 209 L175 176 L50 176 L50 131 L175 131 L175 0 L234 0 L234 131 L364 131 L364 176 Z " />
<glyph glyph-name="brokenbar" unicode="&#xa6;" horiz-adv-x="168" d="M58 -92 L110 -92 L110 202 L58 202 L58 -92 Z M58 387 L110 387 L110 675 L58 675 L58 387 Z " />
<glyph glyph-name="section" unicode="&#xa7;" horiz-adv-x="363" d="M162 -104 C246 -104 330 -36 330 83 C330 153 302 207 250 277 L99 482 C124 524 170 540 208 540 C243 540 282 532 317 513 L317 569 C294 579 259 591 206 591 C116 591 34 521 34 401 C34 325 65 267 116 197 L262 2 C239 -37 197 -52 160 -52 C123 -52 82 -42 47 -26 L47 -81 C71 -91 110 -104 162 -104 L162 -104 Z M210 250 C261 178 281 134 281 80 C281 71 280 63 279 55 L155 228 C106 297 80 344 80 406 C80 413 80 420 81 427 L210 250 Z " />
<glyph glyph-name="dieresis" unicode="&#xa8;" horiz-adv-x="283" d="M24 612 C24 587 44 567 69 567 C94 567 114 587 114 612 C114 637 94 657 69 657 C44 657 24 637 24 612 L24 612 Z M165 612 C165 587 185 567 210 567 C235 567 255 587 255 612 C255 637 235 657 210 657 C185 657 165 637 165 612 L165 612 Z " />
<glyph glyph-name="copyright" unicode="&#xa9;" horiz-adv-x="511" d="M255 -8 C385 -8 473 110 473 289 C473 468 385 591 255 591 C127 591 38 468 38 289 C38 110 126 -8 255 -8 L255 -8 Z M255 17 C144 17 63 122 63 289 C63 454 144 566 255 566 C366 566 448 459 448 289 C448 122 368 17 255 17 L255 17 Z M264 109 C295 109 319 116 333 124 L333 163 C310 151 292 148 268 148 C211 148 181 189 181 290 C181 380 209 433 263 433 C286 433 307 431 333 418 L333 459 C318 466 299 473 264 473 C178 473 137 393 137 288 C137 163 182 109 264 109 L264 109 Z " />
<glyph glyph-name="ordfeminine" unicode="&#xaa;" horiz-adv-x="299" d="M205 272 L250 272 L239 337 L239 500 C239 570 205 591 157 591 C129 591 91 585 68 574 L68 531 C87 539 120 547 147 547 C182 547 195 527 195 484 L195 445 L163 445 C94 445 51 413 51 350 C51 298 74 266 120 266 C153 266 182 286 199 306 L205 272 Z M133 305 C109 305 94 316 94 353 C94 395 121 410 162 410 L195 410 L195 339 C176 321 154 305 133 305 L133 305 Z M47 188 L254 188 L254 226 L47 226 L47 188 Z " />
<glyph glyph-name="guillemotleft" unicode="&#xab;" horiz-adv-x="315" d="M106 46 L156 46 L97 226 L155 405 L105 405 L35 226 L106 46 Z M225 46 L275 46 L216 226 L274 405 L224 405 L154 226 L225 46 Z " />
<glyph glyph-name="logicalnot" unicode="&#xac;" horiz-adv-x="379" d="M276 139 L326 139 L326 321 L52 321 L52 272 L276 272 L276 139 Z " />
<glyph glyph-name="registered" unicode="&#xae;" horiz-adv-x="356" d="M178 267 C254 267 318 331 318 454 C318 577 255 643 178 643 C103 643 39 576 39 454 C39 330 103 267 178 267 L178 267 Z M178 288 C115 288 61 342 61 454 C61 567 114 621 178 621 C243 621 296 566 296 454 C296 338 242 288 178 288 L178 288 Z M127 358 L152 358 L152 432 L171 432 C176 432 182 432 187 433 L219 358 L248 358 L210 442 C228 452 238 472 238 498 C238 542 214 561 180 561 L127 561 L127 358 Z M172 537 C198 537 212 526 212 498 C212 461 191 455 169 455 L152 455 L152 537 L172 537 Z " />
<glyph glyph-name="macron" unicode="&#xaf;" horiz-adv-x="260" d="M39 571 L224 571 L224 621 L39 621 L39 571 Z " />
<glyph glyph-name="degree" unicode="&#xb0;" horiz-adv-x="282" d="M140 341 C205 341 244 397 244 468 C244 540 209 592 144 592 C79 592 38 538 38 467 C38 390 74 341 140 341 L140 341 Z M141 382 C108 382 86 409 86 466 C86 520 107 551 142 551 C176 551 196 524 196 467 C196 411 176 382 141 382 L141 382 Z " />
<glyph glyph-name="plusminus" unicode="&#xb1;" horiz-adv-x="374" d="M50 307 L165 307 L165 154 L210 154 L210 307 L326 307 L326 353 L210 353 L210 505 L165 505 L165 353 L50 353 L50 307 Z M49 42 L326 42 L326 92 L49 92 L49 42 Z " />
<glyph glyph-name="twosuperior" unicode="&#xb2;" horiz-adv-x="192" d="M124 621 C124 557 71 495 15 432 L15 400 L172 400 L172 438 L65 438 L65 440 C117 492 167 559 167 625 C167 687 134 713 90 713 C66 713 40 707 21 694 L22 657 C46 674 64 677 81 677 C107 677 124 658 124 621 L124 621 Z " />
<glyph glyph-name="threesuperior" unicode="&#xb3;" horiz-adv-x="181" d="M73 396 C121 396 161 421 161 489 C161 535 134 562 103 564 L103 566 C121 571 150 595 150 643 C150 688 125 713 82 713 C60 713 38 707 21 694 L21 658 C41 672 58 677 74 677 C96 677 109 663 109 634 C109 600 83 574 56 570 L56 545 C96 543 119 526 119 487 C119 452 104 431 75 431 C56 431 38 434 18 443 L18 406 C31 400 48 396 73 396 L73 396 Z " />
<glyph glyph-name="acute" unicode="&#xb4;" horiz-adv-x="221" d="M106 528 L185 669 L129 669 L61 528 L106 528 Z " />
<glyph glyph-name="mu" unicode="&#xb5;" horiz-adv-x="402" d="M55 -207 L110 -207 L110 30 C122 5 146 -6 170 -6 C210 -6 244 23 269 61 C275 13 297 -6 329 -6 C345 -6 363 -3 379 6 L379 45 C366 43 355 43 347 43 C329 43 323 65 323 105 L323 450 L268 450 L268 109 C241 73 207 48 177 48 C130 48 110 81 110 146 L110 450 L55 450 L55 -207 Z " />
<glyph glyph-name="paragraph" unicode="&#xb6;" horiz-adv-x="432" d="M205 -207 L260 -207 L260 532 L320 532 L320 -207 L375 -207 L375 583 L208 583 C93 583 21 505 21 375 C21 234 102 170 205 166 L205 -207 Z " />
<glyph glyph-name="periodcentered" unicode="&#xb7;" horiz-adv-x="172" d="M42 309 C42 284 62 264 87 264 C112 264 132 284 132 309 C132 334 112 354 87 354 C62 354 42 334 42 309 L42 309 Z " />
<glyph glyph-name="cedilla" unicode="&#xb8;" horiz-adv-x="219" d="M115 -214 C172 -214 198 -175 198 -132 C198 -86 169 -60 132 -51 L149 11 L110 11 L88 -62 L88 -76 C130 -79 151 -100 151 -129 C151 -153 139 -172 108 -172 C91 -172 67 -165 54 -157 L54 -200 C68 -208 95 -214 115 -214 L115 -214 Z " />
<glyph glyph-name="onesuperior" unicode="&#xb9;" horiz-adv-x="138" d="M104 400 L104 712 L75 712 L7 686 L7 652 L62 668 L62 400 L104 400 Z " />
<glyph glyph-name="ordmasculine" unicode="&#xba;" horiz-adv-x="307" d="M154 267 C225 267 260 337 260 429 C260 540 229 591 157 591 C88 591 49 519 49 426 C49 315 84 267 154 267 L154 267 Z M49 188 L261 188 L261 226 L49 226 L49 188 Z M155 305 C114 305 96 339 96 428 C96 505 114 551 155 551 C201 551 213 507 213 427 C213 351 195 305 155 305 L155 305 Z " />
<glyph glyph-name="guillemotright" unicode="&#xbb;" horiz-adv-x="317" d="M89 408 L39 408 L98 228 L40 49 L90 49 L160 228 L89 408 Z M210 408 L160 408 L219 228 L161 49 L211 49 L281 228 L210 408 Z " />
<glyph glyph-name="onequarter" unicode="&#xbc;" horiz-adv-x="442" d="M122 262 L122 574 L93 574 L25 548 L25 514 L80 530 L80 262 L122 262 Z M344 0 L385 0 L385 79 L414 79 L414 113 L385 113 L385 312 L342 312 L246 113 L246 79 L344 79 L344 0 Z M280 113 L342 246 L344 246 L344 113 L280 113 Z M111 0 L353 558 L353 562 L320 562 L77 4 L77 0 L111 0 Z " />
<glyph glyph-name="onehalf" unicode="&#xbd;" horiz-adv-x="453" d="M122 262 L122 574 L93 574 L25 548 L25 514 L80 530 L80 262 L122 262 Z M372 221 C372 157 319 95 263 32 L263 0 L420 0 L420 38 L313 38 L313 40 C365 92 415 159 415 225 C415 287 382 313 338 313 C314 313 288 307 269 294 L270 257 C294 274 312 277 329 277 C355 277 372 258 372 221 L372 221 Z M106 0 L348 558 L348 562 L315 562 L72 4 L72 0 L106 0 Z " />
<glyph glyph-name="threequarters" unicode="&#xbe;" horiz-adv-x="449" d="M92 261 C140 261 180 286 180 354 C180 400 153 427 122 429 L122 431 C140 436 169 460 169 508 C169 553 144 578 101 578 C79 578 57 572 40 559 L40 523 C60 537 77 542 93 542 C115 542 128 528 128 499 C128 465 102 439 75 435 L75 410 C115 408 138 391 138 352 C138 317 123 296 94 296 C75 296 57 299 37 308 L37 271 C50 265 67 261 92 261 L92 261 Z M351 0 L392 0 L392 79 L421 79 L421 113 L392 113 L392 312 L349 312 L253 113 L253 79 L351 79 L351 0 Z M287 113 L349 246 L351 246 L351 113 L287 113 Z M125 0 L367 558 L367 562 L334 562 L91 4 L91 0 L125 0 Z " />
<glyph glyph-name="questiondown" unicode="&#xbf;" horiz-adv-x="274" d="M182 265 L135 265 L135 185 C98 164 26 110 26 3 C26 -97 74 -139 149 -139 C178 -139 215 -131 244 -116 L244 -64 C215 -78 183 -88 156 -88 C111 -88 84 -61 84 7 C84 105 153 146 182 163 L182 265 Z M208 412 C208 438 187 459 162 459 C136 459 115 438 115 412 C115 387 136 366 162 366 C187 366 208 387 208 412 L208 412 Z " />
<glyph glyph-name="Agrave" unicode="&#xc0;" horiz-adv-x="382" d="M11 0 L68 0 L113 184 L261 184 L298 0 L360 0 L226 583 L167 583 L11 0 Z M153 346 L193 507 L196 507 L228 345 L250 235 L125 235 L153 346 Z M220 630 L159 736 L101 736 L172 630 L220 630 Z " />
<glyph glyph-name="Aacute" unicode="&#xc1;" horiz-adv-x="382" d="M11 0 L68 0 L113 184 L261 184 L298 0 L360 0 L226 583 L167 583 L11 0 Z M153 346 L193 507 L196 507 L228 345 L250 235 L125 235 L153 346 Z M216 630 L287 736 L229 736 L168 630 L216 630 Z " />
<glyph glyph-name="Acircumflex" unicode="&#xc2;" horiz-adv-x="382" d="M11 0 L68 0 L113 184 L261 184 L298 0 L360 0 L226 583 L167 583 L11 0 Z M153 346 L193 507 L196 507 L228 345 L250 235 L125 235 L153 346 Z M176 739 L97 627 L147 627 L196 700 L199 700 L248 627 L296 627 L223 739 L176 739 Z " />
<glyph glyph-name="Atilde" unicode="&#xc3;" horiz-adv-x="382" d="M11 0 L68 0 L113 184 L261 184 L298 0 L360 0 L226 583 L167 583 L11 0 Z M153 346 L193 507 L196 507 L228 345 L250 235 L125 235 L153 346 Z M285 718 C278 699 260 686 241 686 C214 686 193 719 157 719 C126 719 103 698 90 674 L109 642 C122 663 136 673 154 673 C184 673 207 640 241 640 C270 640 294 660 304 686 L285 718 Z " />
<glyph glyph-name="Adieresis" unicode="&#xc4;" horiz-adv-x="382" d="M11 0 L68 0 L113 184 L261 184 L298 0 L360 0 L226 583 L167 583 L11 0 Z M153 346 L193 507 L196 507 L228 345 L250 235 L125 235 L153 346 Z M84 672 C84 647 104 627 129 627 C154 627 174 647 174 672 C174 697 154 717 129 717 C104 717 84 697 84 672 L84 672 Z M215 672 C215 647 235 627 260 627 C285 627 305 647 305 672 C305 697 285 717 260 717 C235 717 215 697 215 672 L215 672 Z " />
<glyph glyph-name="Aring" unicode="&#xc5;" horiz-adv-x="382" d="M11 0 L68 0 L113 184 L261 184 L298 0 L360 0 L226 583 L167 583 L11 0 Z M153 346 L193 507 L196 507 L228 345 L250 235 L125 235 L153 346 Z M197 767 C161 767 128 742 128 691 C128 640 157 614 197 614 C236 614 265 641 265 691 C265 743 235 767 197 767 L197 767 Z M197 733 C218 733 229 719 229 691 C229 665 219 648 197 648 C175 648 165 664 165 691 C165 717 176 733 197 733 L197 733 Z " />
<glyph glyph-name="AE" unicode="&#xc6;" horiz-adv-x="540" d="M252 0 L510 0 L510 52 L312 52 L312 275 L475 275 L475 325 L312 325 L312 531 L506 531 L506 583 L223 583 L5 0 L63 0 L128 184 L252 184 L252 0 Z M249 524 L252 524 L252 235 L146 235 L249 524 Z " />
<glyph glyph-name="Ccedilla" unicode="&#xc7;" horiz-adv-x="382" d="M218 -214 C275 -214 301 -175 301 -132 C301 -86 272 -60 235 -51 L247 -7 C291 -5 328 5 349 18 L349 72 C316 53 286 47 248 47 C151 47 101 121 101 294 C101 451 151 538 243 538 C279 538 310 532 349 511 L349 569 C326 580 296 591 241 591 C99 591 38 458 38 286 C38 111 89 9 208 -5 L191 -62 L191 -76 C233 -79 254 -100 254 -129 C254 -153 242 -172 211 -172 C194 -172 170 -165 157 -157 L157 -200 C171 -208 198 -214 218 -214 L218 -214 Z " />
<glyph glyph-name="Egrave" unicode="&#xc8;" horiz-adv-x="347" d="M60 0 L318 0 L318 52 L119 52 L119 275 L282 275 L282 325 L119 325 L119 531 L313 531 L313 583 L60 583 L60 0 Z M237 630 L176 736 L118 736 L189 630 L237 630 Z " />
<glyph glyph-name="Eacute" unicode="&#xc9;" horiz-adv-x="347" d="M60 0 L318 0 L318 52 L119 52 L119 275 L282 275 L282 325 L119 325 L119 531 L313 531 L313 583 L60 583 L60 0 Z M191 630 L262 736 L204 736 L143 630 L191 630 Z " />
<glyph glyph-name="Ecircumflex" unicode="&#xca;" horiz-adv-x="347" d="M60 0 L318 0 L318 52 L119 52 L119 275 L282 275 L282 325 L119 325 L119 531 L313 531 L313 583 L60 583 L60 0 Z M171 738 L92 626 L142 626 L191 699 L194 699 L243 626 L291 626 L218 738 L171 738 Z " />
<glyph glyph-name="Edieresis" unicode="&#xcb;" horiz-adv-x="347" d="M60 0 L318 0 L318 52 L119 52 L119 275 L282 275 L282 325 L119 325 L119 531 L313 531 L313 583 L60 583 L60 0 Z M208 673 C208 648 228 628 253 628 C278 628 298 648 298 673 C298 698 278 718 253 718 C228 718 208 698 208 673 L208 673 Z M77 673 C77 648 97 628 122 628 C147 628 167 648 167 673 C167 698 147 718 122 718 C97 718 77 698 77 673 L77 673 Z " />
<glyph glyph-name="Igrave" unicode="&#xcc;" horiz-adv-x="179" d="M116 630 L55 736 L-3 736 L68 630 L116 630 Z M60 0 L119 0 L119 583 L60 583 L60 0 Z " />
<glyph glyph-name="Iacute" unicode="&#xcd;" horiz-adv-x="179" d="M60 0 L119 0 L119 583 L60 583 L60 0 Z M108 630 L179 736 L121 736 L60 630 L108 630 Z " />
<glyph glyph-name="Icircumflex" unicode="&#xce;" horiz-adv-x="179" d="M60 0 L119 0 L119 583 L60 583 L60 0 Z M68 738 L-11 626 L39 626 L88 699 L91 699 L140 626 L188 626 L115 738 L68 738 Z " />
<glyph glyph-name="Idieresis" unicode="&#xcf;" horiz-adv-x="179" d="M60 0 L119 0 L119 583 L60 583 L60 0 Z M-22 673 C-22 648 -2 628 23 628 C48 628 68 648 68 673 C68 698 48 718 23 718 C-2 718 -22 698 -22 673 L-22 673 Z M109 673 C109 648 129 628 154 628 C179 628 199 648 199 673 C199 698 179 718 154 718 C129 718 109 698 109 673 L109 673 Z " />
<glyph glyph-name="Eth" unicode="&#xd0;" horiz-adv-x="453" d="M17 276 L62 276 L62 0 L185 0 C324 0 416 102 416 303 C416 518 312 583 182 583 L62 583 L62 325 L17 325 L17 276 Z M224 276 L224 325 L121 325 L121 531 L175 531 C280 531 354 485 354 297 C354 125 287 52 184 52 L121 52 L121 276 L224 276 Z " />
<glyph glyph-name="Ntilde" unicode="&#xd1;" horiz-adv-x="462" d="M324 718 C317 699 299 686 280 686 C253 686 232 719 196 719 C165 719 142 698 129 674 L148 642 C161 663 175 673 193 673 C223 673 246 640 280 640 C309 640 333 660 343 686 L324 718 Z M60 0 L119 0 L117 454 L119 454 L346 0 L402 0 L402 583 L344 583 L346 134 L344 134 L116 583 L60 583 L60 0 Z " />
<glyph glyph-name="Ograve" unicode="&#xd2;" horiz-adv-x="456" d="M253 630 L192 736 L134 736 L205 630 L253 630 Z M223 -7 C362 -7 419 119 419 308 C419 462 369 591 235 591 C97 591 37 459 37 281 C37 108 93 -7 223 -7 L223 -7 Z M227 46 C142 46 100 129 100 290 C100 464 147 538 232 538 C313 538 357 460 357 300 C357 134 317 46 227 46 L227 46 Z " />
<glyph glyph-name="Oacute" unicode="&#xd3;" horiz-adv-x="456" d="M237 630 L308 736 L250 736 L189 630 L237 630 Z M223 -7 C362 -7 419 119 419 308 C419 462 369 591 235 591 C97 591 37 459 37 281 C37 108 93 -7 223 -7 L223 -7 Z M227 46 C142 46 100 129 100 290 C100 464 147 538 232 538 C313 538 357 460 357 300 C357 134 317 46 227 46 L227 46 Z " />
<glyph glyph-name="Ocircumflex" unicode="&#xd4;" horiz-adv-x="456" d="M223 -7 C362 -7 419 119 419 308 C419 462 369 591 235 591 C97 591 37 459 37 281 C37 108 93 -7 223 -7 L223 -7 Z M227 46 C142 46 100 129 100 290 C100 464 147 538 232 538 C313 538 357 460 357 300 C357 134 317 46 227 46 L227 46 Z M210 739 L131 627 L181 627 L230 700 L233 700 L282 627 L330 627 L257 739 L210 739 Z " />
<glyph glyph-name="Otilde" unicode="&#xd5;" horiz-adv-x="456" d="M316 717 C309 698 291 685 272 685 C245 685 224 718 188 718 C157 718 134 697 121 673 L140 641 C153 662 167 672 185 672 C215 672 238 639 272 639 C301 639 325 659 335 685 L316 717 Z M223 -7 C362 -7 419 119 419 308 C419 462 369 591 235 591 C97 591 37 459 37 281 C37 108 93 -7 223 -7 L223 -7 Z M227 46 C142 46 100 129 100 290 C100 464 147 538 232 538 C313 538 357 460 357 300 C357 134 317 46 227 46 L227 46 Z " />
<glyph glyph-name="Odieresis" unicode="&#xd6;" horiz-adv-x="456" d="M117 672 C117 647 137 627 162 627 C187 627 207 647 207 672 C207 697 187 717 162 717 C137 717 117 697 117 672 L117 672 Z M248 672 C248 647 268 627 293 627 C318 627 338 647 338 672 C338 697 318 717 293 717 C268 717 248 697 248 672 L248 672 Z M223 -7 C362 -7 419 119 419 308 C419 462 369 591 235 591 C97 591 37 459 37 281 C37 108 93 -7 223 -7 L223 -7 Z M227 46 C142 46 100 129 100 290 C100 464 147 538 232 538 C313 538 357 460 357 300 C357 134 317 46 227 46 L227 46 Z " />
<glyph glyph-name="multiply" unicode="&#xd7;" horiz-adv-x="359" d="M75 122 L179 260 L284 122 L319 146 L206 296 L319 446 L285 473 L179 332 L73 473 L40 446 L152 296 L40 146 L75 122 Z " />
<glyph glyph-name="Oslash" unicode="&#xd8;" horiz-adv-x="457" d="M223 -7 C362 -7 419 119 419 308 C419 382 407 451 380 502 L434 591 L385 591 L354 539 C325 571 286 591 235 591 C97 591 37 459 37 281 C37 199 49 131 76 81 L23 -7 L72 -7 L102 43 C132 11 171 -7 223 -7 L223 -7 Z M227 46 C187 46 157 64 136 99 L341 438 C351 402 357 356 357 300 C357 134 317 46 227 46 L227 46 Z M100 290 C100 464 147 538 232 538 C270 538 300 520 321 485 L116 147 C105 184 100 232 100 290 L100 290 Z " />
<glyph glyph-name="Ugrave" unicode="&#xd9;" horiz-adv-x="445" d="M253 630 L192 736 L134 736 L205 630 L253 630 Z M225 -7 C309 -7 389 46 389 221 L389 583 L331 583 L331 217 C331 94 295 48 229 48 C161 48 116 80 116 204 L116 583 L56 583 L56 198 C56 35 137 -7 225 -7 L225 -7 Z " />
<glyph glyph-name="Uacute" unicode="&#xda;" horiz-adv-x="445" d="M236 630 L307 736 L249 736 L188 630 L236 630 Z M225 -7 C309 -7 389 46 389 221 L389 583 L331 583 L331 217 C331 94 295 48 229 48 C161 48 116 80 116 204 L116 583 L56 583 L56 198 C56 35 137 -7 225 -7 L225 -7 Z " />
<glyph glyph-name="Ucircumflex" unicode="&#xdb;" horiz-adv-x="445" d="M225 -7 C309 -7 389 46 389 221 L389 583 L331 583 L331 217 C331 94 295 48 229 48 C161 48 116 80 116 204 L116 583 L56 583 L56 198 C56 35 137 -7 225 -7 L225 -7 Z M206 738 L127 626 L177 626 L226 699 L229 699 L278 626 L326 626 L253 738 L206 738 Z " />
<glyph glyph-name="Udieresis" unicode="&#xdc;" horiz-adv-x="445" d="M116 672 C116 647 136 627 161 627 C186 627 206 647 206 672 C206 697 186 717 161 717 C136 717 116 697 116 672 L116 672 Z M247 672 C247 647 267 627 292 627 C317 627 337 647 337 672 C337 697 317 717 292 717 C267 717 247 697 247 672 L247 672 Z M225 -7 C309 -7 389 46 389 221 L389 583 L331 583 L331 217 C331 94 295 48 229 48 C161 48 116 80 116 204 L116 583 L56 583 L56 198 C56 35 137 -7 225 -7 L225 -7 Z " />
<glyph glyph-name="Yacute" unicode="&#xdd;" horiz-adv-x="374" d="M364 583 L306 583 L232 381 L192 274 L189 274 L148 381 L72 583 L11 583 L156 220 L156 0 L217 0 L217 215 L364 583 Z M207 630 L278 736 L220 736 L159 630 L207 630 Z " />
<glyph glyph-name="Thorn" unicode="&#xde;" horiz-adv-x="366" d="M60 0 L119 0 L119 115 L163 115 C288 115 338 199 338 303 C338 426 286 485 189 485 L119 485 L119 583 L60 583 L60 0 Z M173 433 C244 433 277 390 277 302 C277 189 222 167 159 166 L119 166 L119 433 L173 433 Z " />
<glyph glyph-name="germandbls" unicode="&#xdf;" horiz-adv-x="386" d="M195 661 C117 661 52 613 52 495 L52 0 L108 0 L108 492 C108 582 144 608 190 608 C239 608 263 577 263 522 C263 449 169 412 169 329 C169 265 201 235 241 214 C282 193 314 174 314 124 C314 74 286 45 243 45 C219 45 196 48 163 61 L163 7 C191 -4 211 -7 239 -7 C308 -7 365 35 365 125 C365 191 333 225 291 246 C245 271 221 286 221 334 C221 405 321 434 321 530 C321 613 275 661 195 661 L195 661 Z " />
<glyph glyph-name="agrave" unicode="&#xe0;" horiz-adv-x="340" d="M246 0 L303 0 L287 90 L287 343 C287 431 241 459 175 459 C133 459 80 450 50 436 L50 384 C78 396 127 407 162 407 C208 407 232 387 232 329 L232 248 L183 248 C91 248 27 210 27 114 C27 40 60 -6 126 -6 C174 -6 212 21 237 50 L246 0 Z M137 44 C103 44 84 64 84 120 C84 188 121 204 179 204 L232 204 L232 95 C203 65 170 44 137 44 L137 44 Z M207 527 L140 668 L84 668 L162 527 L207 527 Z " />
<glyph glyph-name="aacute" unicode="&#xe1;" horiz-adv-x="340" d="M246 0 L303 0 L287 90 L287 343 C287 431 241 459 175 459 C133 459 80 450 50 436 L50 384 C78 396 127 407 162 407 C208 407 232 387 232 329 L232 248 L183 248 C91 248 27 210 27 114 C27 40 60 -6 126 -6 C174 -6 212 21 237 50 L246 0 Z M137 44 C103 44 84 64 84 120 C84 188 121 204 179 204 L232 204 L232 95 C203 65 170 44 137 44 L137 44 Z M185 528 L264 669 L208 669 L140 528 L185 528 Z " />
<glyph glyph-name="acircumflex" unicode="&#xe2;" horiz-adv-x="340" d="M246 0 L303 0 L287 90 L287 343 C287 431 241 459 175 459 C133 459 80 450 50 436 L50 384 C78 396 127 407 162 407 C208 407 232 387 232 329 L232 248 L183 248 C91 248 27 210 27 114 C27 40 60 -6 126 -6 C174 -6 212 21 237 50 L246 0 Z M137 44 C103 44 84 64 84 120 C84 188 121 204 179 204 L232 204 L232 95 C203 65 170 44 137 44 L137 44 Z M149 668 L71 528 L122 528 L169 627 L173 627 L219 528 L268 528 L196 668 L149 668 Z " />
<glyph glyph-name="atilde" unicode="&#xe3;" horiz-adv-x="340" d="M246 0 L303 0 L287 90 L287 343 C287 431 241 459 175 459 C133 459 80 450 50 436 L50 384 C78 396 127 407 162 407 C208 407 232 387 232 329 L232 248 L183 248 C91 248 27 210 27 114 C27 40 60 -6 126 -6 C174 -6 212 21 237 50 L246 0 Z M137 44 C103 44 84 64 84 120 C84 188 121 204 179 204 L232 204 L232 95 C203 65 170 44 137 44 L137 44 Z M256 632 C250 612 232 600 213 600 C186 600 162 633 126 633 C95 633 74 613 59 590 L78 559 C91 580 105 590 124 590 C153 590 178 557 213 557 C242 557 265 577 276 603 L256 632 Z " />
<glyph glyph-name="adieresis" unicode="&#xe4;" horiz-adv-x="340" d="M246 0 L303 0 L287 90 L287 343 C287 431 241 459 175 459 C133 459 80 450 50 436 L50 384 C78 396 127 407 162 407 C208 407 232 387 232 329 L232 248 L183 248 C91 248 27 210 27 114 C27 40 60 -6 126 -6 C174 -6 212 21 237 50 L246 0 Z M137 44 C103 44 84 64 84 120 C84 188 121 204 179 204 L232 204 L232 95 C203 65 170 44 137 44 L137 44 Z M49 612 C49 587 69 567 94 567 C119 567 139 587 139 612 C139 637 119 657 94 657 C69 657 49 637 49 612 L49 612 Z M190 612 C190 587 210 567 235 567 C260 567 280 587 280 612 C280 637 260 657 235 657 C210 657 190 637 190 612 L190 612 Z " />
<glyph glyph-name="aring" unicode="&#xe5;" horiz-adv-x="340" d="M246 0 L303 0 L287 90 L287 343 C287 431 241 459 175 459 C133 459 80 450 50 436 L50 384 C78 396 127 407 162 407 C208 407 232 387 232 329 L232 248 L183 248 C91 248 27 210 27 114 C27 40 60 -6 126 -6 C174 -6 212 21 237 50 L246 0 Z M137 44 C103 44 84 64 84 120 C84 188 121 204 179 204 L232 204 L232 95 C203 65 170 44 137 44 L137 44 Z M168 677 C132 677 98 650 98 599 C98 547 128 519 168 519 C208 519 239 548 239 599 C239 652 207 677 168 677 L168 677 Z M168 643 C190 643 203 628 203 599 C203 571 192 552 168 552 C145 552 134 571 134 599 C134 625 147 643 168 643 L168 643 Z " />
<glyph glyph-name="ae" unicode="&#xe6;" horiz-adv-x="552" d="M392 -7 C445 -7 481 2 512 20 L512 67 C477 51 438 44 402 44 C330 44 289 90 286 208 L517 208 L517 246 C517 371 481 460 381 460 C335 460 300 439 275 402 C259 444 223 460 175 460 C137 460 84 451 50 436 L50 385 C78 397 127 407 162 407 C207 407 232 388 232 329 L232 251 L183 251 C89 251 27 211 27 115 C27 43 60 -6 126 -6 C187 -6 233 33 260 67 C287 17 331 -7 392 -7 L392 -7 Z M378 408 C441 408 459 336 459 254 L459 253 L286 253 C291 362 324 408 378 408 L378 408 Z M138 44 C103 44 84 65 84 121 C84 190 121 207 179 207 L232 207 C232 167 237 134 245 106 C218 73 178 44 138 44 L138 44 Z " />
<glyph glyph-name="ccedilla" unicode="&#xe7;" horiz-adv-x="309" d="M175 -214 C232 -214 258 -175 258 -132 C258 -86 229 -60 192 -51 L204 -6 C232 -4 256 2 277 14 L277 62 C251 50 225 44 199 44 C135 44 93 92 93 225 C93 349 134 407 198 407 C224 407 249 403 277 387 L277 444 C252 456 224 459 195 459 C88 459 34 362 34 220 C34 84 76 5 165 -5 L148 -62 L148 -76 C190 -79 211 -100 211 -129 C211 -153 199 -172 168 -172 C151 -172 127 -165 114 -157 L114 -200 C128 -208 155 -214 175 -214 L175 -214 Z " />
<glyph glyph-name="egrave" unicode="&#xe8;" horiz-adv-x="356" d="M198 -7 C250 -7 287 3 317 20 L317 67 C281 51 243 44 206 44 C133 44 93 90 91 210 L320 210 L320 245 C320 373 285 459 185 459 C81 459 34 360 34 217 C34 62 90 -7 198 -7 L198 -7 Z M182 408 C245 408 261 335 262 255 L91 255 C97 362 130 408 182 408 L182 408 Z M222 528 L155 669 L99 669 L177 528 L222 528 Z " />
<glyph glyph-name="eacute" unicode="&#xe9;" horiz-adv-x="356" d="M198 -7 C250 -7 287 3 317 20 L317 67 C281 51 243 44 206 44 C133 44 93 90 91 210 L320 210 L320 245 C320 373 285 459 185 459 C81 459 34 360 34 217 C34 62 90 -7 198 -7 L198 -7 Z M182 408 C245 408 261 335 262 255 L91 255 C97 362 130 408 182 408 L182 408 Z M195 528 L274 669 L218 669 L150 528 L195 528 Z " />
<glyph glyph-name="ecircumflex" unicode="&#xea;" horiz-adv-x="356" d="M198 -7 C250 -7 287 3 317 20 L317 67 C281 51 243 44 206 44 C133 44 93 90 91 210 L320 210 L320 245 C320 373 285 459 185 459 C81 459 34 360 34 217 C34 62 90 -7 198 -7 L198 -7 Z M182 408 C245 408 261 335 262 255 L91 255 C97 362 130 408 182 408 L182 408 Z M167 668 L89 528 L140 528 L187 627 L191 627 L237 528 L286 528 L214 668 L167 668 Z " />
<glyph glyph-name="edieresis" unicode="&#xeb;" horiz-adv-x="356" d="M198 -7 C250 -7 287 3 317 20 L317 67 C281 51 243 44 206 44 C133 44 93 90 91 210 L320 210 L320 245 C320 373 285 459 185 459 C81 459 34 360 34 217 C34 62 90 -7 198 -7 L198 -7 Z M182 408 C245 408 261 335 262 255 L91 255 C97 362 130 408 182 408 L182 408 Z M209 612 C209 587 229 567 254 567 C279 567 299 587 299 612 C299 637 279 657 254 657 C229 657 209 637 209 612 L209 612 Z M68 612 C68 587 88 567 113 567 C138 567 158 587 158 612 C158 637 138 657 113 657 C88 657 68 637 68 612 L68 612 Z " />
<glyph glyph-name="igrave" unicode="&#xec;" horiz-adv-x="176" d="M17 400 L69 400 L69 0 L124 0 L124 450 L17 450 L17 400 Z M122 528 L55 669 L-1 669 L77 528 L122 528 Z " />
<glyph glyph-name="iacute" unicode="&#xed;" horiz-adv-x="176" d="M17 400 L69 400 L69 0 L124 0 L124 450 L17 450 L17 400 Z M110 528 L189 669 L133 669 L65 528 L110 528 Z " />
<glyph glyph-name="icircumflex" unicode="&#xee;" horiz-adv-x="176" d="M17 400 L69 400 L69 0 L124 0 L124 450 L17 450 L17 400 Z M70 668 L-8 528 L43 528 L90 627 L94 627 L140 528 L189 528 L117 668 L70 668 Z " />
<glyph glyph-name="idieresis" unicode="&#xef;" horiz-adv-x="176" d="M17 400 L69 400 L69 0 L124 0 L124 450 L17 450 L17 400 Z M120 612 C120 587 140 567 165 567 C190 567 210 587 210 612 C210 637 190 657 165 657 C140 657 120 637 120 612 L120 612 Z M-21 612 C-21 587 -1 567 24 567 C49 567 69 587 69 612 C69 637 49 657 24 657 C-1 657 -21 637 -21 612 L-21 612 Z " />
<glyph glyph-name="eth" unicode="&#xf0;" horiz-adv-x="368" d="M146 515 L197 559 C220 529 235 494 250 441 C231 455 207 461 180 461 C99 461 31 374 31 222 C31 62 85 -8 177 -8 C275 -8 325 100 325 231 C325 367 310 493 233 590 L290 640 L263 669 L207 620 C189 639 167 656 143 672 L110 638 C134 620 154 604 171 588 L121 544 L146 515 Z M267 225 C267 118 243 43 179 43 C116 43 89 95 89 225 C89 334 117 410 183 410 C211 410 233 405 259 386 C264 344 267 277 267 225 L267 225 Z " />
<glyph glyph-name="ntilde" unicode="&#xf1;" horiz-adv-x="384" d="M54 0 L110 0 L110 347 C139 377 177 407 215 407 C269 407 278 374 278 304 L278 0 L334 0 L334 320 C334 422 303 459 234 459 C181 459 134 427 104 394 L95 450 L39 450 L54 347 L54 0 Z M281 632 C275 612 257 600 238 600 C211 600 187 633 151 633 C120 633 99 613 84 590 L103 559 C116 580 130 590 149 590 C178 590 203 557 238 557 C267 557 290 577 301 603 L281 632 Z " />
<glyph glyph-name="ograve" unicode="&#xf2;" horiz-adv-x="361" d="M179 -7 C277 -7 328 102 328 228 C328 389 287 459 184 459 C89 459 34 355 34 223 C34 60 84 -7 179 -7 L179 -7 Z M182 44 C115 44 91 98 91 226 C91 337 116 408 182 408 C257 408 270 341 270 225 C270 115 248 44 182 44 L182 44 Z M209 528 L142 669 L86 669 L164 528 L209 528 Z " />
<glyph glyph-name="oacute" unicode="&#xf3;" horiz-adv-x="361" d="M197 528 L276 669 L220 669 L152 528 L197 528 Z M179 -7 C277 -7 328 102 328 228 C328 389 287 459 184 459 C89 459 34 355 34 223 C34 60 84 -7 179 -7 L179 -7 Z M182 44 C115 44 91 98 91 226 C91 337 116 408 182 408 C257 408 270 341 270 225 C270 115 248 44 182 44 L182 44 Z " />
<glyph glyph-name="ocircumflex" unicode="&#xf4;" horiz-adv-x="361" d="M163 663 L85 523 L136 523 L183 622 L187 622 L233 523 L282 523 L210 663 L163 663 Z M179 -7 C277 -7 328 102 328 228 C328 389 287 459 184 459 C89 459 34 355 34 223 C34 60 84 -7 179 -7 L179 -7 Z M182 44 C115 44 91 98 91 226 C91 337 116 408 182 408 C257 408 270 341 270 225 C270 115 248 44 182 44 L182 44 Z " />
<glyph glyph-name="otilde" unicode="&#xf5;" horiz-adv-x="361" d="M179 -7 C277 -7 328 102 328 228 C328 389 287 459 184 459 C89 459 34 355 34 223 C34 60 84 -7 179 -7 L179 -7 Z M182 44 C115 44 91 98 91 226 C91 337 116 408 182 408 C257 408 270 341 270 225 C270 115 248 44 182 44 L182 44 Z M270 632 C264 612 246 600 227 600 C200 600 176 633 140 633 C109 633 88 613 73 590 L92 559 C105 580 119 590 138 590 C167 590 192 557 227 557 C256 557 279 577 290 603 L270 632 Z " />
<glyph glyph-name="odieresis" unicode="&#xf6;" horiz-adv-x="361" d="M69 612 C69 587 89 567 114 567 C139 567 159 587 159 612 C159 637 139 657 114 657 C89 657 69 637 69 612 L69 612 Z M210 612 C210 587 230 567 255 567 C280 567 300 587 300 612 C300 637 280 657 255 657 C230 657 210 637 210 612 L210 612 Z M179 -7 C277 -7 328 102 328 228 C328 389 287 459 184 459 C89 459 34 355 34 223 C34 60 84 -7 179 -7 L179 -7 Z M182 44 C115 44 91 98 91 226 C91 337 116 408 182 408 C257 408 270 341 270 225 C270 115 248 44 182 44 L182 44 Z " />
<glyph glyph-name="divide" unicode="&#xf7;" horiz-adv-x="374" d="M46 272 L328 272 L328 319 L46 319 L46 272 Z M142 439 C142 414 162 394 187 394 C212 394 232 414 232 439 C232 464 212 484 187 484 C162 484 142 464 142 439 L142 439 Z M142 149 C142 124 162 104 187 104 C212 104 232 124 232 149 C232 174 212 194 187 194 C162 194 142 174 142 149 L142 149 Z " />
<glyph glyph-name="oslash" unicode="&#xf8;" horiz-adv-x="363" d="M179 -7 C277 -7 328 102 328 228 C328 300 319 354 301 391 L342 460 L300 460 L279 424 C256 448 225 459 184 459 C89 459 34 355 34 223 C34 152 43 99 62 62 L21 -7 L63 -7 L84 29 C108 4 139 -7 179 -7 L179 -7 Z M91 226 C91 337 116 408 182 408 C214 408 235 396 248 373 L99 124 C93 150 91 184 91 226 L91 226 Z M182 44 C151 44 129 55 115 80 L263 328 C268 300 270 265 270 225 C270 115 248 44 182 44 L182 44 Z " />
<glyph glyph-name="ugrave" unicode="&#xf9;" horiz-adv-x="379" d="M325 450 L269 450 L269 104 C240 73 207 44 171 44 C117 44 106 77 106 147 L106 450 L50 450 L50 131 C50 29 83 -8 151 -8 C202 -8 245 24 275 57 L284 0 L339 0 L325 104 L325 450 Z M227 528 L160 669 L104 669 L182 528 L227 528 Z " />
<glyph glyph-name="uacute" unicode="&#xfa;" horiz-adv-x="379" d="M325 450 L269 450 L269 104 C240 73 207 44 171 44 C117 44 106 77 106 147 L106 450 L50 450 L50 131 C50 29 83 -8 151 -8 C202 -8 245 24 275 57 L284 0 L339 0 L325 104 L325 450 Z M197 528 L276 669 L220 669 L152 528 L197 528 Z " />
<glyph glyph-name="ucircumflex" unicode="&#xfb;" horiz-adv-x="379" d="M325 450 L269 450 L269 104 C240 73 207 44 171 44 C117 44 106 77 106 147 L106 450 L50 450 L50 131 C50 29 83 -8 151 -8 C202 -8 245 24 275 57 L284 0 L339 0 L325 104 L325 450 Z M171 668 L93 528 L144 528 L191 627 L195 627 L241 528 L290 528 L218 668 L171 668 Z " />
<glyph glyph-name="udieresis" unicode="&#xfc;" horiz-adv-x="379" d="M325 450 L269 450 L269 104 C240 73 207 44 171 44 C117 44 106 77 106 147 L106 450 L50 450 L50 131 C50 29 83 -8 151 -8 C202 -8 245 24 275 57 L284 0 L339 0 L325 104 L325 450 Z M209 612 C209 587 229 567 254 567 C279 567 299 587 299 612 C299 637 279 657 254 657 C229 657 209 637 209 612 L209 612 Z M68 612 C68 587 88 567 113 567 C138 567 158 587 158 612 C158 637 138 657 113 657 C88 657 68 637 68 612 L68 612 Z " />
<glyph glyph-name="yacute" unicode="&#xfd;" horiz-adv-x="331" d="M145 -207 L199 6 L316 450 L257 450 L194 192 L167 67 L164 67 L138 190 L79 450 L19 450 L128 0 L145 0 L86 -204 L88 -207 L145 -207 Z M183 528 L262 669 L206 669 L138 528 L183 528 Z " />
<glyph glyph-name="thorn" unicode="&#xfe;" horiz-adv-x="368" d="M52 -207 L108 -207 L108 1 C126 -4 148 -7 171 -7 C264 -7 334 54 334 243 C334 395 292 459 210 459 C171 459 136 440 108 412 L108 653 L52 653 L52 -207 Z M194 408 C252 408 276 363 276 236 C276 106 248 44 172 44 C152 44 127 46 108 52 L108 363 C132 387 161 408 194 408 L194 408 Z " />
<glyph glyph-name="ydieresis" unicode="&#xff;" horiz-adv-x="331" d="M145 -207 L199 6 L316 450 L257 450 L194 192 L167 67 L164 67 L138 190 L79 450 L19 450 L128 0 L145 0 L86 -204 L88 -207 L145 -207 Z M194 613 C194 588 214 568 239 568 C264 568 284 588 284 613 C284 638 264 658 239 658 C214 658 194 638 194 613 L194 613 Z M53 613 C53 588 73 568 98 568 C123 568 143 588 143 613 C143 638 123 658 98 658 C73 658 53 638 53 613 L53 613 Z " />
<glyph glyph-name="Amacron" unicode="&#x100;" horiz-adv-x="382" d="M11 0 L68 0 L113 184 L261 184 L298 0 L360 0 L226 583 L167 583 L11 0 Z M153 346 L193 507 L196 507 L228 345 L250 235 L125 235 L153 346 Z M110 656 L288 656 L288 704 L110 704 L110 656 Z " />
<glyph glyph-name="amacron" unicode="&#x101;" horiz-adv-x="340" d="M246 0 L303 0 L287 90 L287 343 C287 431 241 459 175 459 C133 459 80 450 50 436 L50 384 C78 396 127 407 162 407 C208 407 232 387 232 329 L232 248 L183 248 C91 248 27 210 27 114 C27 40 60 -6 126 -6 C174 -6 212 21 237 50 L246 0 Z M137 44 C103 44 84 64 84 120 C84 188 121 204 179 204 L232 204 L232 95 C203 65 170 44 137 44 L137 44 Z M74 571 L259 571 L259 621 L74 621 L74 571 Z " />
<glyph glyph-name="Abreve" unicode="&#x102;" horiz-adv-x="382" d="M11 0 L68 0 L113 184 L261 184 L298 0 L360 0 L226 583 L167 583 L11 0 Z M153 346 L193 507 L196 507 L228 345 L250 235 L125 235 L153 346 Z M198 676 C168 676 149 697 141 731 L104 718 C112 664 144 637 198 637 C251 637 288 664 294 721 L258 732 C252 697 234 676 198 676 L198 676 Z " />
<glyph glyph-name="abreve" unicode="&#x103;" horiz-adv-x="340" d="M246 0 L303 0 L287 90 L287 343 C287 431 241 459 175 459 C133 459 80 450 50 436 L50 384 C78 396 127 407 162 407 C208 407 232 387 232 329 L232 248 L183 248 C91 248 27 210 27 114 C27 40 60 -6 126 -6 C174 -6 212 21 237 50 L246 0 Z M137 44 C103 44 84 64 84 120 C84 188 121 204 179 204 L232 204 L232 95 C203 65 170 44 137 44 L137 44 Z M165 575 C130 575 116 603 108 638 L70 625 C79 571 109 534 164 534 C219 534 253 571 261 628 L225 639 C218 604 204 575 165 575 L165 575 Z " />
<glyph glyph-name="Aogonek" unicode="&#x104;" horiz-adv-x="382" d="M359 -198 L359 -156 C344 -163 327 -167 312 -167 C288 -167 269 -150 269 -118 C269 -77 293 -35 333 0 L360 0 L226 583 L167 583 L11 0 L68 0 L113 184 L261 184 L296 7 C256 -24 219 -71 219 -126 C219 -184 252 -211 299 -211 C319 -211 343 -206 359 -198 L359 -198 Z M153 346 L193 507 L196 507 L228 345 L250 235 L125 235 L153 346 Z " />
<glyph glyph-name="aogonek" unicode="&#x105;" horiz-adv-x="340" d="M304 -198 L304 -156 C289 -163 272 -167 257 -167 C233 -167 214 -150 214 -118 C214 -77 238 -35 278 0 L303 0 L287 90 L287 343 C287 431 241 459 175 459 C133 459 80 450 50 436 L50 384 C78 396 127 407 162 407 C208 407 232 387 232 329 L232 248 L183 248 C91 248 27 210 27 114 C27 40 60 -6 126 -6 C174 -6 212 21 237 50 L244 9 C203 -21 164 -70 164 -126 C164 -184 197 -211 244 -211 C264 -211 288 -206 304 -198 L304 -198 Z M137 44 C103 44 84 64 84 120 C84 188 121 204 179 204 L232 204 L232 95 C203 65 170 44 137 44 L137 44 Z " />
<glyph glyph-name="Cacute" unicode="&#x106;" horiz-adv-x="381" d="M238 -7 C286 -7 326 5 348 18 L348 72 C315 53 285 47 247 47 C150 47 100 121 100 294 C100 451 150 538 242 538 C278 538 309 532 348 511 L348 569 C325 580 295 591 240 591 C98 591 37 458 37 286 C37 97 97 -7 238 -7 L238 -7 Z M243 630 L314 736 L256 736 L195 630 L243 630 Z " />
<glyph glyph-name="cacute" unicode="&#x107;" horiz-adv-x="309" d="M194 528 L273 669 L217 669 L149 528 L194 528 Z M186 -7 C222 -7 252 0 277 14 L277 62 C251 50 225 44 199 44 C135 44 93 92 93 225 C93 349 134 407 198 407 C224 407 249 403 277 387 L277 444 C252 456 224 459 195 459 C88 459 34 362 34 220 C34 74 83 -7 186 -7 L186 -7 Z " />
<glyph glyph-name="Ccircumflex" unicode="&#x108;" horiz-adv-x="381" d="M238 -7 C286 -7 326 5 348 18 L348 72 C315 53 285 47 247 47 C150 47 100 121 100 294 C100 451 150 538 242 538 C278 538 309 532 348 511 L348 569 C325 580 295 591 240 591 C98 591 37 458 37 286 C37 97 97 -7 238 -7 L238 -7 Z M211 738 L132 626 L182 626 L231 699 L234 699 L283 626 L331 626 L258 738 L211 738 Z " />
<glyph glyph-name="ccircumflex" unicode="&#x109;" horiz-adv-x="309" d="M164 668 L86 528 L137 528 L184 627 L188 627 L234 528 L283 528 L211 668 L164 668 Z M186 -7 C222 -7 252 0 277 14 L277 62 C251 50 225 44 199 44 C135 44 93 92 93 225 C93 349 134 407 198 407 C224 407 249 403 277 387 L277 444 C252 456 224 459 195 459 C88 459 34 362 34 220 C34 74 83 -7 186 -7 L186 -7 Z " />
<glyph glyph-name="Cdotaccent" unicode="&#x10a;" horiz-adv-x="381" d="M185 680 C185 655 205 635 230 635 C255 635 275 655 275 680 C275 705 255 725 230 725 C205 725 185 705 185 680 L185 680 Z M238 -7 C286 -7 326 5 348 18 L348 72 C315 53 285 47 247 47 C150 47 100 121 100 294 C100 451 150 538 242 538 C278 538 309 532 348 511 L348 569 C325 580 295 591 240 591 C98 591 37 458 37 286 C37 97 97 -7 238 -7 L238 -7 Z " />
<glyph glyph-name="cdotaccent" unicode="&#x10b;" horiz-adv-x="309" d="M186 -7 C222 -7 252 0 277 14 L277 62 C251 50 225 44 199 44 C135 44 93 92 93 225 C93 349 134 407 198 407 C224 407 249 403 277 387 L277 444 C252 456 224 459 195 459 C88 459 34 362 34 220 C34 74 83 -7 186 -7 L186 -7 Z M139 612 C139 587 159 567 184 567 C209 567 229 587 229 612 C229 637 209 657 184 657 C159 657 139 637 139 612 L139 612 Z " />
<glyph glyph-name="Ccaron" unicode="&#x10c;" horiz-adv-x="381" d="M238 -7 C286 -7 326 5 348 18 L348 72 C315 53 285 47 247 47 C150 47 100 121 100 294 C100 451 150 538 242 538 C278 538 309 532 348 511 L348 569 C325 580 295 591 240 591 C98 591 37 458 37 286 C37 97 97 -7 238 -7 L238 -7 Z M254 623 L333 735 L283 735 L234 661 L231 661 L182 735 L133 735 L207 623 L254 623 Z " />
<glyph glyph-name="ccaron" unicode="&#x10d;" horiz-adv-x="309" d="M202 529 L279 668 L228 668 L182 572 L179 572 L132 668 L83 668 L155 529 L202 529 Z M186 -7 C222 -7 252 0 277 14 L277 62 C251 50 225 44 199 44 C135 44 93 92 93 225 C93 349 134 407 198 407 C224 407 249 403 277 387 L277 444 C252 456 224 459 195 459 C88 459 34 362 34 220 C34 74 83 -7 186 -7 L186 -7 Z " />
<glyph glyph-name="Dcaron" unicode="&#x10e;" horiz-adv-x="450" d="M60 0 L183 0 C322 0 414 102 414 303 C414 518 310 583 180 583 L60 583 L60 0 Z M173 531 C278 531 352 485 352 297 C352 125 285 52 182 52 L119 52 L119 531 L173 531 Z M215 621 L294 733 L244 733 L195 659 L192 659 L143 733 L94 733 L168 621 L215 621 Z " />
<glyph glyph-name="dcaron" unicode="&#x10f;" horiz-adv-x="377" d="M275 0 L331 0 L316 95 L316 653 L261 653 L261 451 C242 456 217 459 194 459 C99 459 34 377 34 209 C34 61 86 -6 160 -6 C204 -6 240 19 266 53 L275 0 Z M171 48 C116 48 93 107 93 217 C93 350 128 409 195 409 C217 409 241 406 261 398 L261 98 C231 68 203 48 171 48 L171 48 Z M352 487 L392 487 L419 653 L367 653 L352 487 Z " />
<glyph glyph-name="Dcroat" unicode="&#x110;" horiz-adv-x="453" d="M17 276 L62 276 L62 0 L185 0 C324 0 416 102 416 303 C416 518 312 583 182 583 L62 583 L62 325 L17 325 L17 276 Z M224 276 L224 325 L121 325 L121 531 L175 531 C280 531 354 485 354 297 C354 125 287 52 184 52 L121 52 L121 276 L224 276 Z " />
<glyph glyph-name="dcroat" unicode="&#x111;" horiz-adv-x="370" d="M143 544 L261 544 L261 451 C242 456 217 459 194 459 C99 459 34 377 34 209 C34 61 86 -6 160 -6 C204 -6 240 19 266 53 L275 0 L331 0 L316 95 L316 544 L364 544 L364 591 L316 591 L316 653 L261 653 L261 591 L143 591 L143 544 Z M171 48 C116 48 93 107 93 217 C93 350 128 409 195 409 C217 409 241 406 261 398 L261 98 C231 68 203 48 171 48 L171 48 Z " />
<glyph glyph-name="Emacron" unicode="&#x112;" horiz-adv-x="347" d="M60 0 L318 0 L318 52 L119 52 L119 275 L282 275 L282 325 L119 325 L119 531 L313 531 L313 583 L60 583 L60 0 Z M102 657 L280 657 L280 705 L102 705 L102 657 Z " />
<glyph glyph-name="emacron" unicode="&#x113;" horiz-adv-x="356" d="M198 -7 C250 -7 287 3 317 20 L317 67 C281 51 243 44 206 44 C133 44 93 90 91 210 L320 210 L320 245 C320 373 285 459 185 459 C81 459 34 360 34 217 C34 62 90 -7 198 -7 L198 -7 Z M182 408 C245 408 261 335 262 255 L91 255 C97 362 130 408 182 408 L182 408 Z M94 571 L279 571 L279 621 L94 621 L94 571 Z " />
<glyph glyph-name="Ebreve" unicode="&#x114;" horiz-adv-x="347" d="M60 0 L318 0 L318 52 L119 52 L119 275 L282 275 L282 325 L119 325 L119 531 L313 531 L313 583 L60 583 L60 0 Z M193 676 C163 676 144 697 136 731 L99 718 C107 664 139 637 193 637 C246 637 283 664 289 721 L253 732 C247 697 229 676 193 676 L193 676 Z " />
<glyph glyph-name="ebreve" unicode="&#x115;" horiz-adv-x="356" d="M198 -7 C250 -7 287 3 317 20 L317 67 C281 51 243 44 206 44 C133 44 93 90 91 210 L320 210 L320 245 C320 373 285 459 185 459 C81 459 34 360 34 217 C34 62 90 -7 198 -7 L198 -7 Z M182 408 C245 408 261 335 262 255 L91 255 C97 362 130 408 182 408 L182 408 Z M181 575 C146 575 132 603 124 638 L86 625 C95 571 125 534 180 534 C235 534 269 571 277 628 L241 639 C234 604 220 575 181 575 L181 575 Z " />
<glyph glyph-name="Edotaccent" unicode="&#x116;" horiz-adv-x="347" d="M60 0 L318 0 L318 52 L119 52 L119 275 L282 275 L282 325 L119 325 L119 531 L313 531 L313 583 L60 583 L60 0 Z M151 679 C151 654 171 634 196 634 C221 634 241 654 241 679 C241 704 221 724 196 724 C171 724 151 704 151 679 L151 679 Z " />
<glyph glyph-name="edotaccent" unicode="&#x117;" horiz-adv-x="356" d="M198 -7 C250 -7 287 3 317 20 L317 67 C281 51 243 44 206 44 C133 44 93 90 91 210 L320 210 L320 245 C320 373 285 459 185 459 C81 459 34 360 34 217 C34 62 90 -7 198 -7 L198 -7 Z M182 408 C245 408 261 335 262 255 L91 255 C97 362 130 408 182 408 L182 408 Z M134 612 C134 587 154 567 179 567 C204 567 224 587 224 612 C224 637 204 657 179 657 C154 657 134 637 134 612 L134 612 Z " />
<glyph glyph-name="Eogonek" unicode="&#x118;" horiz-adv-x="347" d="M60 0 L255 0 C219 -31 187 -75 187 -126 C187 -184 220 -211 267 -211 C287 -211 311 -206 327 -198 L327 -156 C312 -163 295 -167 280 -167 C256 -167 237 -150 237 -118 C237 -77 261 -35 301 0 L318 0 L318 52 L119 52 L119 275 L282 275 L282 325 L119 325 L119 531 L313 531 L313 583 L60 583 L60 0 Z " />
<glyph glyph-name="eogonek" unicode="&#x119;" horiz-adv-x="355" d="M198 -7 L213 -7 C180 -37 153 -79 153 -126 C153 -184 186 -211 233 -211 C253 -211 277 -206 293 -198 L293 -156 C278 -163 261 -167 246 -167 C222 -167 203 -150 203 -118 C203 -77 227 -35 268 0 C286 5 302 12 317 20 L317 67 C281 51 243 44 206 44 C133 44 93 90 91 210 L320 210 L320 245 C320 373 285 459 185 459 C81 459 34 360 34 217 C34 62 90 -7 198 -7 L198 -7 Z M182 408 C245 408 261 335 262 255 L91 255 C97 362 130 408 182 408 L182 408 Z " />
<glyph glyph-name="Ecaron" unicode="&#x11a;" horiz-adv-x="347" d="M60 0 L318 0 L318 52 L119 52 L119 275 L282 275 L282 325 L119 325 L119 531 L313 531 L313 583 L60 583 L60 0 Z M210 623 L289 735 L239 735 L190 661 L187 661 L138 735 L89 735 L163 623 L210 623 Z " />
<glyph glyph-name="ecaron" unicode="&#x11b;" horiz-adv-x="356" d="M198 -7 C250 -7 287 3 317 20 L317 67 C281 51 243 44 206 44 C133 44 93 90 91 210 L320 210 L320 245 C320 373 285 459 185 459 C81 459 34 360 34 217 C34 62 90 -7 198 -7 L198 -7 Z M182 408 C245 408 261 335 262 255 L91 255 C97 362 130 408 182 408 L182 408 Z M203 529 L280 668 L229 668 L183 572 L180 572 L133 668 L84 668 L156 529 L203 529 Z " />
<glyph glyph-name="Gcircumflex" unicode="&#x11c;" horiz-adv-x="427" d="M242 -7 C293 -7 336 6 381 29 L381 297 L322 297 L322 58 C299 51 277 47 248 47 C158 47 99 107 99 294 C99 458 164 537 255 537 C296 537 338 530 378 508 L378 567 C351 578 315 591 256 591 C112 591 37 456 37 286 C37 98 96 -7 242 -7 L242 -7 Z M229 739 L150 627 L200 627 L249 700 L252 700 L301 627 L349 627 L276 739 L229 739 Z " />
<glyph glyph-name="gcircumflex" unicode="&#x11d;" horiz-adv-x="345" d="M167 173 C242 173 291 245 291 315 C291 351 284 381 271 405 L340 405 L340 449 L239 439 C220 452 196 459 167 459 C86 459 40 391 40 311 C40 244 65 200 111 182 L49 100 L49 60 L97 52 C56 23 16 -19 16 -82 C16 -165 67 -214 160 -214 C263 -214 328 -137 328 -42 C328 33 290 76 203 89 L104 104 L153 173 L167 173 Z M182 39 C250 28 274 3 274 -50 C274 -117 230 -166 165 -166 C105 -166 71 -137 71 -73 C71 -25 102 14 141 45 L182 39 Z M167 218 C117 218 95 255 95 315 C95 380 116 414 165 414 C212 414 235 379 235 315 C235 255 210 218 167 218 L167 218 Z M146 668 L68 528 L119 528 L166 627 L170 627 L216 528 L265 528 L193 668 L146 668 Z " />
<glyph glyph-name="Gbreve" unicode="&#x11e;" horiz-adv-x="427" d="M242 -7 C293 -7 336 6 381 29 L381 297 L322 297 L322 58 C299 51 277 47 248 47 C158 47 99 107 99 294 C99 458 164 537 255 537 C296 537 338 530 378 508 L378 567 C351 578 315 591 256 591 C112 591 37 456 37 286 C37 98 96 -7 242 -7 L242 -7 Z M247 675 C217 675 198 696 190 730 L153 717 C161 663 193 636 247 636 C300 636 337 663 343 720 L307 731 C301 696 283 675 247 675 L247 675 Z " />
<glyph glyph-name="gbreve" unicode="&#x11f;" horiz-adv-x="345" d="M167 173 C242 173 291 245 291 315 C291 351 284 381 271 405 L340 405 L340 449 L239 439 C220 452 196 459 167 459 C86 459 40 391 40 311 C40 244 65 200 111 182 L49 100 L49 60 L97 52 C56 23 16 -19 16 -82 C16 -165 67 -214 160 -214 C263 -214 328 -137 328 -42 C328 33 290 76 203 89 L104 104 L153 173 L167 173 Z M182 39 C250 28 274 3 274 -50 C274 -117 230 -166 165 -166 C105 -166 71 -137 71 -73 C71 -25 102 14 141 45 L182 39 Z M167 218 C117 218 95 255 95 315 C95 380 116 414 165 414 C212 414 235 379 235 315 C235 255 210 218 167 218 L167 218 Z M165 575 C130 575 116 603 108 638 L70 625 C79 571 109 534 164 534 C219 534 253 571 261 628 L225 639 C218 604 204 575 165 575 L165 575 Z " />
<glyph glyph-name="Gdotaccent" unicode="&#x120;" horiz-adv-x="427" d="M242 -7 C293 -7 336 6 381 29 L381 297 L322 297 L322 58 C299 51 277 47 248 47 C158 47 99 107 99 294 C99 458 164 537 255 537 C296 537 338 530 378 508 L378 567 C351 578 315 591 256 591 C112 591 37 456 37 286 C37 98 96 -7 242 -7 L242 -7 Z M201 680 C201 655 221 635 246 635 C271 635 291 655 291 680 C291 705 271 725 246 725 C221 725 201 705 201 680 L201 680 Z " />
<glyph glyph-name="gdotaccent" unicode="&#x121;" horiz-adv-x="345" d="M167 173 C242 173 291 245 291 315 C291 351 284 381 271 405 L340 405 L340 449 L239 439 C220 452 196 459 167 459 C86 459 40 391 40 311 C40 244 65 200 111 182 L49 100 L49 60 L97 52 C56 23 16 -19 16 -82 C16 -165 67 -214 160 -214 C263 -214 328 -137 328 -42 C328 33 290 76 203 89 L104 104 L153 173 L167 173 Z M182 39 C250 28 274 3 274 -50 C274 -117 230 -166 165 -166 C105 -166 71 -137 71 -73 C71 -25 102 14 141 45 L182 39 Z M167 218 C117 218 95 255 95 315 C95 380 116 414 165 414 C212 414 235 379 235 315 C235 255 210 218 167 218 L167 218 Z M121 612 C121 587 141 567 166 567 C191 567 211 587 211 612 C211 637 191 657 166 657 C141 657 121 637 121 612 L121 612 Z " />
<glyph glyph-name="Gcommaaccent" unicode="&#x122;" horiz-adv-x="427" d="M242 -7 C293 -7 336 6 381 29 L381 297 L322 297 L322 58 C299 51 277 47 248 47 C158 47 99 107 99 294 C99 458 164 537 255 537 C296 537 338 530 378 508 L378 567 C351 578 315 591 256 591 C112 591 37 456 37 286 C37 98 96 -7 242 -7 L242 -7 Z M208 -221 L248 -221 L276 -62 L226 -62 L208 -221 Z " />
<glyph glyph-name="gcommaaccent" unicode="&#x123;" horiz-adv-x="345" d="M167 173 C242 173 291 245 291 315 C291 351 284 381 271 405 L340 405 L340 449 L239 439 C220 452 196 459 167 459 C86 459 40 391 40 311 C40 244 65 200 111 182 L49 100 L49 60 L97 52 C56 23 16 -19 16 -82 C16 -165 67 -214 160 -214 C263 -214 328 -137 328 -42 C328 33 290 76 203 89 L104 104 L153 173 L167 173 Z M182 39 C250 28 274 3 274 -50 C274 -117 230 -166 165 -166 C105 -166 71 -137 71 -73 C71 -25 102 14 141 45 L182 39 Z M167 218 C117 218 95 255 95 315 C95 380 116 414 165 414 C212 414 235 379 235 315 C235 255 210 218 167 218 L167 218 Z M203 675 L163 675 L135 513 L185 513 L203 675 Z " />
<glyph glyph-name="Hcircumflex" unicode="&#x124;" horiz-adv-x="472" d="M353 0 L412 0 L412 583 L353 583 L353 325 L119 325 L119 583 L60 583 L60 0 L119 0 L119 273 L353 273 L353 0 Z M214 738 L135 626 L185 626 L234 699 L237 699 L286 626 L334 626 L261 738 L214 738 Z " />
<glyph glyph-name="hcircumflex" unicode="&#x125;" horiz-adv-x="382" d="M276 0 L333 0 L333 320 C333 422 301 459 232 459 C183 459 138 431 108 401 L108 653 L52 653 L52 0 L108 0 L108 348 C137 378 174 407 213 407 C267 407 276 373 276 303 L276 0 Z M60 785 L-19 673 L31 673 L80 746 L83 746 L132 673 L180 673 L107 785 L60 785 Z " />
<glyph glyph-name="Hbar" unicode="&#x126;" horiz-adv-x="475" d="M22 454 L61 454 L61 0 L120 0 L120 273 L354 273 L354 0 L413 0 L413 454 L454 454 L454 500 L413 500 L413 583 L354 583 L354 500 L120 500 L120 583 L61 583 L61 500 L22 500 L22 454 Z M120 454 L354 454 L354 325 L120 325 L120 454 Z " />
<glyph glyph-name="hbar" unicode="&#x127;" horiz-adv-x="382" d="M-8 544 L52 544 L52 0 L108 0 L108 348 C137 378 174 407 213 407 C267 407 276 373 276 303 L276 0 L333 0 L333 320 C333 422 301 459 232 459 C183 459 138 431 108 401 L108 544 L210 544 L210 590 L108 590 L108 653 L52 653 L52 590 L-8 590 L-8 544 Z " />
<glyph glyph-name="Itilde" unicode="&#x128;" horiz-adv-x="179" d="M60 0 L119 0 L119 583 L60 583 L60 0 Z M178 718 C171 699 153 686 134 686 C107 686 86 719 50 719 C19 719 -4 698 -17 674 L2 642 C15 663 29 673 47 673 C77 673 100 640 134 640 C163 640 187 660 197 686 L178 718 Z " />
<glyph glyph-name="itilde" unicode="&#x129;" horiz-adv-x="176" d="M17 400 L69 400 L69 0 L124 0 L124 450 L17 450 L17 400 Z M183 632 C177 612 159 600 140 600 C113 600 89 633 53 633 C22 633 1 613 -14 590 L5 559 C18 580 32 590 51 590 C80 590 105 557 140 557 C169 557 192 577 203 603 L183 632 Z " />
<glyph glyph-name="Imacron" unicode="&#x12a;" horiz-adv-x="179" d="M60 0 L119 0 L119 583 L60 583 L60 0 Z M1 657 L179 657 L179 705 L1 705 L1 657 Z " />
<glyph glyph-name="imacron" unicode="&#x12b;" horiz-adv-x="176" d="M17 400 L69 400 L69 0 L124 0 L124 450 L17 450 L17 400 Z M2 571 L187 571 L187 621 L2 621 L2 571 Z " />
<glyph glyph-name="Ibreve" unicode="&#x12c;" horiz-adv-x="179" d="M60 0 L119 0 L119 583 L60 583 L60 0 Z M88 676 C58 676 39 697 31 731 L-6 718 C2 664 34 637 88 637 C141 637 178 664 184 721 L148 732 C142 697 124 676 88 676 L88 676 Z " />
<glyph glyph-name="ibreve" unicode="&#x12d;" horiz-adv-x="176" d="M17 400 L69 400 L69 0 L124 0 L124 450 L17 450 L17 400 Z M94 575 C59 575 45 603 37 638 L-1 625 C8 571 38 534 93 534 C148 534 182 571 190 628 L154 639 C147 604 133 575 94 575 L94 575 Z " />
<glyph glyph-name="Iogonek" unicode="&#x12e;" horiz-adv-x="179" d="M127 -198 L127 -156 C112 -163 95 -167 80 -167 C56 -167 37 -150 37 -118 C37 -77 61 -35 101 0 L119 0 L119 583 L60 583 L60 4 C21 -27 -13 -73 -13 -126 C-13 -184 20 -211 67 -211 C87 -211 111 -206 127 -198 L127 -198 Z " />
<glyph glyph-name="iogonek" unicode="&#x12f;" horiz-adv-x="176" d="M17 400 L69 400 L69 6 C29 -25 -7 -72 -7 -126 C-7 -184 26 -211 73 -211 C93 -211 117 -206 133 -198 L133 -156 C118 -163 101 -167 86 -167 C62 -167 43 -150 43 -118 C43 -77 67 -35 107 0 L124 0 L124 450 L17 450 L17 400 Z M55 612 C55 587 75 567 100 567 C125 567 145 587 145 612 C145 637 125 657 100 657 C75 657 55 637 55 612 L55 612 Z " />
<glyph glyph-name="Idotaccent" unicode="&#x130;" horiz-adv-x="179" d="M43 680 C43 655 63 635 88 635 C113 635 133 655 133 680 C133 705 113 725 88 725 C63 725 43 705 43 680 L43 680 Z M60 0 L119 0 L119 583 L60 583 L60 0 Z " />
<glyph glyph-name="dotlessi" unicode="&#x131;" horiz-adv-x="176" d="M17 400 L69 400 L69 0 L124 0 L124 450 L17 450 L17 400 Z " />
<glyph glyph-name="IJ" unicode="&#x132;" horiz-adv-x="372" d="M60 0 L119 0 L119 583 L60 583 L60 0 Z M219 -85 C278 4 315 89 315 179 L315 583 L254 583 L254 179 C254 88 213 13 169 -60 L219 -85 Z " />
<glyph glyph-name="ij" unicode="&#x133;" horiz-adv-x="353" d="M193 400 L245 400 L245 18 C245 -66 216 -139 191 -193 L235 -214 C274 -155 301 -64 301 25 L301 450 L193 450 L193 400 Z M17 400 L69 400 L69 0 L124 0 L124 450 L17 450 L17 400 Z M228 612 C228 587 248 567 273 567 C298 567 318 587 318 612 C318 637 298 657 273 657 C248 657 228 637 228 612 L228 612 Z M52 612 C52 587 72 567 97 567 C122 567 142 587 142 612 C142 637 122 657 97 657 C72 657 52 637 52 612 L52 612 Z " />
<glyph glyph-name="Jcircumflex" unicode="&#x134;" horiz-adv-x="193" d="M40 -85 C99 4 136 89 136 179 L136 583 L75 583 L75 179 C75 88 34 13 -10 -60 L40 -85 Z M87 738 L8 626 L58 626 L107 699 L110 699 L159 626 L207 626 L134 738 L87 738 Z " />
<glyph glyph-name="jcircumflex" unicode="&#x135;" horiz-adv-x="177" d="M17 400 L69 400 L69 18 C69 -66 40 -139 15 -193 L59 -214 C98 -155 125 -64 125 25 L125 450 L17 450 L17 400 Z M68 668 L-10 528 L41 528 L88 627 L92 627 L138 528 L187 528 L115 668 L68 668 Z " />
<glyph glyph-name="Kcommaaccent" unicode="&#x136;" horiz-adv-x="379" d="M149 -221 L189 -221 L217 -62 L167 -62 L149 -221 Z M296 0 L364 0 L192 308 L369 583 L304 583 L136 309 L136 294 L296 0 Z M60 0 L119 0 L119 583 L60 583 L60 0 Z " />
<glyph glyph-name="kcommaaccent" unicode="&#x137;" horiz-adv-x="332" d="M126 -221 L166 -221 L194 -62 L144 -62 L126 -221 Z M250 0 L315 0 L182 252 L319 450 L256 450 L127 256 L127 241 L250 0 Z M52 0 L108 0 L108 653 L52 653 L52 0 Z " />
<glyph glyph-name="Lacute" unicode="&#x139;" horiz-adv-x="319" d="M60 0 L307 0 L307 52 L119 52 L119 583 L60 583 L60 0 Z M114 630 L185 736 L127 736 L66 630 L114 630 Z " />
<glyph glyph-name="lacute" unicode="&#x13a;" horiz-adv-x="168" d="M107 684 L178 790 L120 790 L59 684 L107 684 Z M56 0 L112 0 L112 653 L56 653 L56 0 Z " />
<glyph glyph-name="Lcommaaccent" unicode="&#x13b;" horiz-adv-x="319" d="M60 0 L307 0 L307 52 L119 52 L119 583 L60 583 L60 0 Z M151 -221 L191 -221 L219 -62 L169 -62 L151 -221 Z " />
<glyph glyph-name="lcommaaccent" unicode="&#x13c;" horiz-adv-x="168" d="M38 -221 L78 -221 L106 -62 L56 -62 L38 -221 Z M56 0 L112 0 L112 653 L56 653 L56 0 Z " />
<glyph glyph-name="Lcaron" unicode="&#x13d;" horiz-adv-x="319" d="M60 0 L307 0 L307 52 L119 52 L119 583 L60 583 L60 0 Z M196 465 L236 465 L263 631 L211 631 L196 465 Z " />
<glyph glyph-name="lcaron" unicode="&#x13e;" horiz-adv-x="174" d="M151 487 L191 487 L218 653 L166 653 L151 487 Z M56 0 L112 0 L112 653 L56 653 L56 0 Z " />
<glyph glyph-name="Ldot" unicode="&#x13f;" horiz-adv-x="336" d="M60 0 L307 0 L307 52 L119 52 L119 583 L60 583 L60 0 Z M218 323 C218 298 238 278 263 278 C288 278 308 298 308 323 C308 348 288 368 263 368 C238 368 218 348 218 323 L218 323 Z " />
<glyph glyph-name="ldot" unicode="&#x140;" horiz-adv-x="226" d="M152 315 C152 290 172 270 197 270 C222 270 242 290 242 315 C242 340 222 360 197 360 C172 360 152 340 152 315 L152 315 Z M56 0 L112 0 L112 653 L56 653 L56 0 Z " />
<glyph glyph-name="Lslash" unicode="&#x141;" horiz-adv-x="324" d="M17 208 L65 239 L65 0 L312 0 L312 52 L124 52 L124 277 L226 344 L226 399 L124 330 L124 583 L65 583 L65 291 L17 259 L17 208 Z " />
<glyph glyph-name="lslash" unicode="&#x142;" horiz-adv-x="191" d="M11 253 L65 292 L65 0 L121 0 L121 332 L182 376 L182 431 L121 386 L121 653 L65 653 L65 345 L11 305 L11 253 Z " />
<glyph glyph-name="Nacute" unicode="&#x143;" horiz-adv-x="462" d="M242 630 L313 736 L255 736 L194 630 L242 630 Z M60 0 L119 0 L117 454 L119 454 L346 0 L402 0 L402 583 L344 583 L346 134 L344 134 L116 583 L60 583 L60 0 Z " />
<glyph glyph-name="nacute" unicode="&#x144;" horiz-adv-x="384" d="M54 0 L110 0 L110 347 C139 377 177 407 215 407 C269 407 278 374 278 304 L278 0 L334 0 L334 320 C334 422 303 459 234 459 C181 459 134 427 104 394 L95 450 L39 450 L54 347 L54 0 Z M207 528 L286 669 L230 669 L162 528 L207 528 Z " />
<glyph glyph-name="Ncommaaccent" unicode="&#x145;" horiz-adv-x="462" d="M197 -221 L237 -221 L265 -62 L215 -62 L197 -221 Z M60 0 L119 0 L117 454 L119 454 L346 0 L402 0 L402 583 L344 583 L346 134 L344 134 L116 583 L60 583 L60 0 Z " />
<glyph glyph-name="ncommaaccent" unicode="&#x146;" horiz-adv-x="384" d="M54 0 L110 0 L110 347 C139 377 177 407 215 407 C269 407 278 374 278 304 L278 0 L334 0 L334 320 C334 422 303 459 234 459 C181 459 134 427 104 394 L95 450 L39 450 L54 347 L54 0 Z M150 -221 L190 -221 L218 -62 L168 -62 L150 -221 Z " />
<glyph glyph-name="Ncaron" unicode="&#x147;" horiz-adv-x="462" d="M254 623 L333 735 L283 735 L234 661 L231 661 L182 735 L133 735 L207 623 L254 623 Z M60 0 L119 0 L117 454 L119 454 L346 0 L402 0 L402 583 L344 583 L346 134 L344 134 L116 583 L60 583 L60 0 Z " />
<glyph glyph-name="ncaron" unicode="&#x148;" horiz-adv-x="384" d="M54 0 L110 0 L110 347 C139 377 177 407 215 407 C269 407 278 374 278 304 L278 0 L334 0 L334 320 C334 422 303 459 234 459 C181 459 134 427 104 394 L95 450 L39 450 L54 347 L54 0 Z M215 529 L292 668 L241 668 L195 572 L192 572 L145 668 L96 668 L168 529 L215 529 Z " />
<glyph glyph-name="napostrophe" unicode="&#x149;" horiz-adv-x="384" d="M54 0 L110 0 L110 347 C139 377 177 407 215 407 C269 407 278 374 278 304 L278 0 L334 0 L334 320 C334 422 303 459 234 459 C181 459 134 427 104 394 L95 450 L39 450 L54 347 L54 0 Z M42 509 C94 554 120 610 120 661 C120 689 102 713 78 719 C59 719 43 702 43 683 C59 668 66 651 66 627 C66 589 44 555 20 527 L42 509 Z " />
<glyph glyph-name="Eng" unicode="&#x14a;" horiz-adv-x="462" d="M60 0 L119 0 L117 454 L119 454 L344 4 L344 3 C344 -64 331 -117 284 -192 L329 -213 C389 -125 402 -71 402 -3 L402 583 L344 583 L346 134 L344 134 L116 583 L60 583 L60 0 Z " />
<glyph glyph-name="eng" unicode="&#x14b;" horiz-adv-x="384" d="M334 320 C334 422 303 459 234 459 C181 459 134 427 104 394 L95 450 L39 450 L54 347 L54 0 L110 0 L110 347 C139 377 177 407 215 407 C269 407 278 374 278 304 L278 6 C278 -76 250 -142 225 -197 L268 -214 C307 -156 334 -77 334 11 L334 320 Z " />
<glyph glyph-name="Omacron" unicode="&#x14c;" horiz-adv-x="456" d="M139 657 L317 657 L317 705 L139 705 L139 657 Z M223 -7 C362 -7 419 119 419 308 C419 462 369 591 235 591 C97 591 37 459 37 281 C37 108 93 -7 223 -7 L223 -7 Z M227 46 C142 46 100 129 100 290 C100 464 147 538 232 538 C313 538 357 460 357 300 C357 134 317 46 227 46 L227 46 Z " />
<glyph glyph-name="omacron" unicode="&#x14d;" horiz-adv-x="361" d="M89 571 L274 571 L274 621 L89 621 L89 571 Z M179 -7 C277 -7 328 102 328 228 C328 389 287 459 184 459 C89 459 34 355 34 223 C34 60 84 -7 179 -7 L179 -7 Z M182 44 C115 44 91 98 91 226 C91 337 116 408 182 408 C257 408 270 341 270 225 C270 115 248 44 182 44 L182 44 Z " />
<glyph glyph-name="Obreve" unicode="&#x14e;" horiz-adv-x="456" d="M228 675 C198 675 179 696 171 730 L134 717 C142 663 174 636 228 636 C281 636 318 663 324 720 L288 731 C282 696 264 675 228 675 L228 675 Z M223 -7 C362 -7 419 119 419 308 C419 462 369 591 235 591 C97 591 37 459 37 281 C37 108 93 -7 223 -7 L223 -7 Z M227 46 C142 46 100 129 100 290 C100 464 147 538 232 538 C313 538 357 460 357 300 C357 134 317 46 227 46 L227 46 Z " />
<glyph glyph-name="obreve" unicode="&#x14f;" horiz-adv-x="361" d="M179 -7 C277 -7 328 102 328 228 C328 389 287 459 184 459 C89 459 34 355 34 223 C34 60 84 -7 179 -7 L179 -7 Z M182 44 C115 44 91 98 91 226 C91 337 116 408 182 408 C257 408 270 341 270 225 C270 115 248 44 182 44 L182 44 Z M180 575 C145 575 131 603 123 638 L85 625 C94 571 124 534 179 534 C234 534 268 571 276 628 L240 639 C233 604 219 575 180 575 L180 575 Z " />
<glyph glyph-name="Ohungarumlaut" unicode="&#x150;" horiz-adv-x="456" d="M223 -7 C362 -7 419 119 419 308 C419 462 369 591 235 591 C97 591 37 459 37 281 C37 108 93 -7 223 -7 L223 -7 Z M227 46 C142 46 100 129 100 290 C100 464 147 538 232 538 C313 538 357 460 357 300 C357 134 317 46 227 46 L227 46 Z M199 630 L264 736 L206 736 L151 630 L199 630 Z M298 630 L378 736 L320 736 L249 630 L298 630 Z " />
<glyph glyph-name="ohungarumlaut" unicode="&#x151;" horiz-adv-x="361" d="M137 528 L215 672 L160 672 L93 528 L137 528 Z M256 528 L338 672 L284 672 L211 528 L256 528 Z M179 -7 C277 -7 328 102 328 228 C328 389 287 459 184 459 C89 459 34 355 34 223 C34 60 84 -7 179 -7 L179 -7 Z M182 44 C115 44 91 98 91 226 C91 337 116 408 182 408 C257 408 270 341 270 225 C270 115 248 44 182 44 L182 44 Z " />
<glyph glyph-name="OE" unicode="&#x152;" horiz-adv-x="610" d="M317 0 L579 0 L579 52 L378 52 L378 275 L544 275 L544 325 L378 325 L378 531 L575 531 L575 583 L317 583 L317 564 C294 582 267 591 234 591 C107 591 38 467 38 281 C38 105 96 -7 219 -7 C257 -7 291 8 317 33 L317 0 Z M226 46 C144 46 101 132 101 290 C101 461 150 538 233 538 C266 538 294 526 317 499 L317 96 C295 61 264 46 226 46 L226 46 Z " />
<glyph glyph-name="oe" unicode="&#x153;" horiz-adv-x="592" d="M179 -7 C231 -7 270 24 295 73 C322 18 368 -7 434 -7 C486 -7 523 3 553 20 L553 67 C517 51 479 44 442 44 C371 44 331 88 327 203 L327 210 L556 210 L556 245 C556 373 521 459 421 459 C367 459 328 432 303 386 C281 436 243 459 184 459 C89 459 34 355 34 223 C34 60 84 -7 179 -7 L179 -7 Z M182 44 C115 44 91 98 91 226 C91 337 116 408 182 408 C256 408 270 342 270 227 L270 209 C268 108 244 44 182 44 L182 44 Z M418 408 C481 408 497 335 498 255 L327 255 L327 256 C333 362 366 408 418 408 L418 408 Z " />
<glyph glyph-name="Racute" unicode="&#x154;" horiz-adv-x="386" d="M60 0 L119 0 L119 227 L165 227 C178 227 191 228 203 230 L302 0 L371 0 L258 248 C310 277 339 332 339 408 C339 532 285 583 191 583 L60 583 L60 0 Z M174 531 C244 531 277 497 277 406 C277 293 223 278 159 278 L119 278 L119 531 L174 531 Z M187 630 L258 736 L200 736 L139 630 L187 630 Z " />
<glyph glyph-name="racute" unicode="&#x155;" horiz-adv-x="249" d="M54 0 L110 0 L110 333 C133 364 165 401 211 401 C220 401 229 400 238 398 L238 454 C228 457 220 458 210 458 C166 458 130 422 105 388 L96 450 L39 450 L54 347 L54 0 Z M157 528 L236 669 L180 669 L112 528 L157 528 Z " />
<glyph glyph-name="Rcommaaccent" unicode="&#x156;" horiz-adv-x="386" d="M60 0 L119 0 L119 227 L165 227 C178 227 191 228 203 230 L302 0 L371 0 L258 248 C310 277 339 332 339 408 C339 532 285 583 191 583 L60 583 L60 0 Z M174 531 C244 531 277 497 277 406 C277 293 223 278 159 278 L119 278 L119 531 L174 531 Z M158 -221 L198 -221 L226 -62 L176 -62 L158 -221 Z " />
<glyph glyph-name="rcommaaccent" unicode="&#x157;" horiz-adv-x="249" d="M54 0 L110 0 L110 333 C133 364 165 401 211 401 C220 401 229 400 238 398 L238 454 C228 457 220 458 210 458 C166 458 130 422 105 388 L96 450 L39 450 L54 347 L54 0 Z M38 -221 L78 -221 L106 -62 L56 -62 L38 -221 Z " />
<glyph glyph-name="Rcaron" unicode="&#x158;" horiz-adv-x="386" d="M60 0 L119 0 L119 227 L165 227 C178 227 191 228 203 230 L302 0 L371 0 L258 248 C310 277 339 332 339 408 C339 532 285 583 191 583 L60 583 L60 0 Z M174 531 C244 531 277 497 277 406 C277 293 223 278 159 278 L119 278 L119 531 L174 531 Z M201 623 L280 735 L230 735 L181 661 L178 661 L129 735 L80 735 L154 623 L201 623 Z " />
<glyph glyph-name="rcaron" unicode="&#x159;" horiz-adv-x="249" d="M54 0 L110 0 L110 333 C133 364 165 401 211 401 C220 401 229 400 238 398 L238 454 C228 457 220 458 210 458 C166 458 130 422 105 388 L96 450 L39 450 L54 347 L54 0 Z M163 529 L240 668 L189 668 L143 572 L140 572 L93 668 L44 668 L116 529 L163 529 Z " />
<glyph glyph-name="Sacute" unicode="&#x15a;" horiz-adv-x="331" d="M38 15 C76 0 111 -7 149 -7 C234 -7 300 47 300 158 C300 263 238 297 176 329 C123 357 93 384 93 445 C93 496 125 537 179 537 C216 537 252 526 283 507 L283 568 C256 582 220 591 176 591 C89 591 35 522 35 437 C35 350 84 310 141 282 C199 253 241 227 241 154 C241 82 204 49 150 49 C111 49 71 58 38 75 L38 15 Z M179 630 L250 736 L192 736 L131 630 L179 630 Z " />
<glyph glyph-name="sacute" unicode="&#x15b;" horiz-adv-x="301" d="M159 528 L238 669 L182 669 L114 528 L159 528 Z M137 -7 C208 -7 272 31 272 129 C272 210 218 236 163 256 C117 274 86 289 86 336 C86 382 117 408 162 408 C193 408 219 404 258 386 L258 441 C232 454 194 459 163 459 C88 459 33 412 33 332 C33 257 84 229 136 210 C183 193 220 175 220 127 C220 69 188 45 142 45 C108 45 76 51 36 68 L36 13 C65 1 98 -7 137 -7 L137 -7 Z " />
<glyph glyph-name="Scircumflex" unicode="&#x15c;" horiz-adv-x="331" d="M38 15 C76 0 111 -7 149 -7 C234 -7 300 47 300 158 C300 263 238 297 176 329 C123 357 93 384 93 445 C93 496 125 537 179 537 C216 537 252 526 283 507 L283 568 C256 582 220 591 176 591 C89 591 35 522 35 437 C35 350 84 310 141 282 C199 253 241 227 241 154 C241 82 204 49 150 49 C111 49 71 58 38 75 L38 15 Z M148 738 L69 626 L119 626 L168 699 L171 699 L220 626 L268 626 L195 738 L148 738 Z " />
<glyph glyph-name="scircumflex" unicode="&#x15d;" horiz-adv-x="301" d="M133 668 L55 528 L106 528 L153 627 L157 627 L203 528 L252 528 L180 668 L133 668 Z M137 -7 C208 -7 272 31 272 129 C272 210 218 236 163 256 C117 274 86 289 86 336 C86 382 117 408 162 408 C193 408 219 404 258 386 L258 441 C232 454 194 459 163 459 C88 459 33 412 33 332 C33 257 84 229 136 210 C183 193 220 175 220 127 C220 69 188 45 142 45 C108 45 76 51 36 68 L36 13 C65 1 98 -7 137 -7 L137 -7 Z " />
<glyph glyph-name="Scedilla" unicode="&#x15e;" horiz-adv-x="331" d="M145 -213 C202 -213 228 -174 228 -131 C228 -85 199 -59 162 -50 L174 -5 C246 4 300 58 300 158 C300 263 238 297 176 329 C123 357 93 384 93 445 C93 496 125 537 179 537 C216 537 252 526 283 507 L283 568 C256 582 220 591 176 591 C89 591 35 522 35 437 C35 350 84 310 141 282 C199 253 241 227 241 154 C241 82 204 49 150 49 C111 49 71 58 38 75 L38 15 C71 2 102 -5 134 -7 L118 -61 L118 -75 C160 -78 181 -99 181 -128 C181 -152 169 -171 138 -171 C121 -171 97 -164 84 -156 L84 -199 C98 -207 125 -213 145 -213 L145 -213 Z " />
<glyph glyph-name="scedilla" unicode="&#x15f;" horiz-adv-x="301" d="M132 -213 C189 -213 215 -174 215 -131 C215 -85 186 -59 149 -50 L161 -5 C222 2 272 42 272 129 C272 210 218 236 163 256 C117 274 86 289 86 336 C86 382 117 408 162 408 C193 408 219 404 258 386 L258 441 C232 454 194 459 163 459 C88 459 33 412 33 332 C33 257 84 229 136 210 C183 193 220 175 220 127 C220 69 188 45 142 45 C108 45 76 51 36 68 L36 13 C61 2 89 -5 121 -7 L105 -61 L105 -75 C147 -78 168 -99 168 -128 C168 -152 156 -171 125 -171 C108 -171 84 -164 71 -156 L71 -199 C85 -207 112 -213 132 -213 L132 -213 Z " />
<glyph glyph-name="Scaron" unicode="&#x160;" horiz-adv-x="331" d="M38 15 C76 0 111 -7 149 -7 C234 -7 300 47 300 158 C300 263 238 297 176 329 C123 357 93 384 93 445 C93 496 125 537 179 537 C216 537 252 526 283 507 L283 568 C256 582 220 591 176 591 C89 591 35 522 35 437 C35 350 84 310 141 282 C199 253 241 227 241 154 C241 82 204 49 150 49 C111 49 71 58 38 75 L38 15 Z M193 623 L272 735 L222 735 L173 661 L170 661 L121 735 L72 735 L146 623 L193 623 Z " />
<glyph glyph-name="scaron" unicode="&#x161;" horiz-adv-x="301" d="M179 529 L256 668 L205 668 L159 572 L156 572 L109 668 L60 668 L132 529 L179 529 Z M137 -7 C208 -7 272 31 272 129 C272 210 218 236 163 256 C117 274 86 289 86 336 C86 382 117 408 162 408 C193 408 219 404 258 386 L258 441 C232 454 194 459 163 459 C88 459 33 412 33 332 C33 257 84 229 136 210 C183 193 220 175 220 127 C220 69 188 45 142 45 C108 45 76 51 36 68 L36 13 C65 1 98 -7 137 -7 L137 -7 Z " />
<glyph glyph-name="Tcommaaccent" unicode="&#x162;" horiz-adv-x="371" d="M11 531 L155 531 L155 0 L216 0 L216 531 L360 531 L360 583 L11 583 L11 531 Z M142 -221 L182 -221 L210 -62 L160 -62 L142 -221 Z " />
<glyph glyph-name="tcommaaccent" unicode="&#x163;" horiz-adv-x="253" d="M18 400 L71 400 L71 104 C71 23 113 -7 167 -7 C196 -7 223 -3 243 9 L243 55 C225 48 205 44 185 44 C149 44 128 63 127 115 L127 400 L237 400 L237 450 L127 450 L127 570 L71 570 L71 450 L18 450 L18 400 Z M111 -221 L151 -221 L179 -62 L129 -62 L111 -221 Z " />
<glyph glyph-name="Tcaron" unicode="&#x164;" horiz-adv-x="371" d="M11 531 L155 531 L155 0 L216 0 L216 531 L360 531 L360 583 L11 583 L11 531 Z M204 623 L283 735 L233 735 L184 661 L181 661 L132 735 L83 735 L157 623 L204 623 Z " />
<glyph glyph-name="tcaron" unicode="&#x165;" horiz-adv-x="253" d="M18 400 L71 400 L71 104 C71 23 113 -7 167 -7 C196 -7 223 -3 243 9 L243 55 C225 48 205 44 185 44 C149 44 128 63 127 115 L127 400 L237 400 L237 450 L127 450 L127 570 L71 570 L71 450 L18 450 L18 400 Z M177 525 L217 525 L244 691 L192 691 L177 525 Z " />
<glyph glyph-name="Tbar" unicode="&#x166;" horiz-adv-x="372" d="M11 531 L155 531 L155 315 L67 315 L67 267 L155 267 L155 0 L216 0 L216 267 L305 267 L305 315 L216 315 L216 531 L360 531 L360 583 L11 583 L11 531 Z " />
<glyph glyph-name="tbar" unicode="&#x167;" horiz-adv-x="255" d="M72 570 L72 450 L19 450 L19 400 L72 400 L72 285 L30 285 L30 242 L72 242 L72 104 C72 23 114 -7 168 -7 C197 -7 224 -3 244 9 L244 55 C226 48 206 44 186 44 C150 44 129 63 128 115 L128 242 L216 242 L216 285 L128 285 L128 400 L238 400 L238 450 L128 450 L128 570 L72 570 Z " />
<glyph glyph-name="Utilde" unicode="&#x168;" horiz-adv-x="445" d="M312 718 C305 699 287 686 268 686 C241 686 220 719 184 719 C153 719 130 698 117 674 L136 642 C149 663 163 673 181 673 C211 673 234 640 268 640 C297 640 321 660 331 686 L312 718 Z M225 -7 C309 -7 389 46 389 221 L389 583 L331 583 L331 217 C331 94 295 48 229 48 C161 48 116 80 116 204 L116 583 L56 583 L56 198 C56 35 137 -7 225 -7 L225 -7 Z " />
<glyph glyph-name="utilde" unicode="&#x169;" horiz-adv-x="379" d="M325 450 L269 450 L269 104 C240 73 207 44 171 44 C117 44 106 77 106 147 L106 450 L50 450 L50 131 C50 29 83 -8 151 -8 C202 -8 245 24 275 57 L284 0 L339 0 L325 104 L325 450 Z M280 632 C274 612 256 600 237 600 C210 600 186 633 150 633 C119 633 98 613 83 590 L102 559 C115 580 129 590 148 590 C177 590 202 557 237 557 C266 557 289 577 300 603 L280 632 Z " />
<glyph glyph-name="Umacron" unicode="&#x16a;" horiz-adv-x="445" d="M137 657 L315 657 L315 705 L137 705 L137 657 Z M225 -7 C309 -7 389 46 389 221 L389 583 L331 583 L331 217 C331 94 295 48 229 48 C161 48 116 80 116 204 L116 583 L56 583 L56 198 C56 35 137 -7 225 -7 L225 -7 Z " />
<glyph glyph-name="umacron" unicode="&#x16b;" horiz-adv-x="379" d="M325 450 L269 450 L269 104 C240 73 207 44 171 44 C117 44 106 77 106 147 L106 450 L50 450 L50 131 C50 29 83 -8 151 -8 C202 -8 245 24 275 57 L284 0 L339 0 L325 104 L325 450 Z M94 571 L279 571 L279 621 L94 621 L94 571 Z " />
<glyph glyph-name="Ubreve" unicode="&#x16c;" horiz-adv-x="445" d="M222 676 C192 676 173 697 165 731 L128 718 C136 664 168 637 222 637 C275 637 312 664 318 721 L282 732 C276 697 258 676 222 676 L222 676 Z M225 -7 C309 -7 389 46 389 221 L389 583 L331 583 L331 217 C331 94 295 48 229 48 C161 48 116 80 116 204 L116 583 L56 583 L56 198 C56 35 137 -7 225 -7 L225 -7 Z " />
<glyph glyph-name="ubreve" unicode="&#x16d;" horiz-adv-x="379" d="M325 450 L269 450 L269 104 C240 73 207 44 171 44 C117 44 106 77 106 147 L106 450 L50 450 L50 131 C50 29 83 -8 151 -8 C202 -8 245 24 275 57 L284 0 L339 0 L325 104 L325 450 Z M188 575 C153 575 139 603 131 638 L93 625 C102 571 132 534 187 534 C242 534 276 571 284 628 L248 639 C241 604 227 575 188 575 L188 575 Z " />
<glyph glyph-name="Uring" unicode="&#x16e;" horiz-adv-x="445" d="M225 -7 C309 -7 389 46 389 221 L389 583 L331 583 L331 217 C331 94 295 48 229 48 C161 48 116 80 116 204 L116 583 L56 583 L56 198 C56 35 137 -7 225 -7 L225 -7 Z M225 775 C189 775 156 750 156 699 C156 648 185 622 225 622 C264 622 293 649 293 699 C293 751 263 775 225 775 L225 775 Z M225 741 C246 741 257 727 257 699 C257 673 247 656 225 656 C203 656 193 672 193 699 C193 725 204 741 225 741 L225 741 Z " />
<glyph glyph-name="uring" unicode="&#x16f;" horiz-adv-x="379" d="M325 450 L269 450 L269 104 C240 73 207 44 171 44 C117 44 106 77 106 147 L106 450 L50 450 L50 131 C50 29 83 -8 151 -8 C202 -8 245 24 275 57 L284 0 L339 0 L325 104 L325 450 Z M190 677 C154 677 120 650 120 599 C120 547 150 519 190 519 C230 519 261 548 261 599 C261 652 229 677 190 677 L190 677 Z M190 643 C212 643 225 628 225 599 C225 571 214 552 190 552 C167 552 156 571 156 599 C156 625 169 643 190 643 L190 643 Z " />
<glyph glyph-name="Uhungarumlaut" unicode="&#x170;" horiz-adv-x="445" d="M225 -7 C309 -7 389 46 389 221 L389 583 L331 583 L331 217 C331 94 295 48 229 48 C161 48 116 80 116 204 L116 583 L56 583 L56 198 C56 35 137 -7 225 -7 L225 -7 Z M190 630 L255 736 L197 736 L142 630 L190 630 Z M289 630 L369 736 L311 736 L240 630 L289 630 Z " />
<glyph glyph-name="uhungarumlaut" unicode="&#x171;" horiz-adv-x="379" d="M325 450 L269 450 L269 104 C240 73 207 44 171 44 C117 44 106 77 106 147 L106 450 L50 450 L50 131 C50 29 83 -8 151 -8 C202 -8 245 24 275 57 L284 0 L339 0 L325 104 L325 450 Z M261 528 L343 672 L289 672 L216 528 L261 528 Z M142 528 L220 672 L165 672 L98 528 L142 528 Z " />
<glyph glyph-name="Uogonek" unicode="&#x172;" horiz-adv-x="445" d="M299 -198 L299 -156 C284 -163 267 -167 252 -167 C228 -167 209 -150 209 -118 C209 -78 233 -35 272 0 C337 18 389 79 389 221 L389 583 L331 583 L331 217 C331 94 295 48 229 48 C161 48 116 80 116 204 L116 583 L56 583 L56 198 C56 38 133 -5 219 -7 C186 -37 159 -79 159 -126 C159 -184 192 -211 239 -211 C259 -211 283 -206 299 -198 L299 -198 Z " />
<glyph glyph-name="uogonek" unicode="&#x173;" horiz-adv-x="379" d="M325 450 L269 450 L269 104 C240 73 207 44 171 44 C117 44 106 77 106 147 L106 450 L50 450 L50 131 C50 29 83 -8 151 -8 C202 -8 245 24 275 57 L283 5 C244 -26 208 -72 208 -126 C208 -184 241 -211 288 -211 C308 -211 332 -206 348 -198 L348 -156 C333 -163 316 -167 301 -167 C277 -167 258 -150 258 -118 C258 -77 282 -35 322 0 L339 0 L325 104 L325 450 Z " />
<glyph glyph-name="Wcircumflex" unicode="&#x174;" horiz-adv-x="624" d="M611 583 L551 583 L480 253 L446 93 L443 93 L412 255 L348 583 L281 583 L210 253 L177 88 L173 88 L145 253 L87 583 L25 583 L139 0 L205 0 L279 342 L310 487 L315 487 L342 342 L408 0 L473 0 L611 583 Z M288 739 L209 627 L259 627 L308 700 L311 700 L360 627 L408 627 L335 739 L288 739 Z " />
<glyph glyph-name="wcircumflex" unicode="&#x175;" horiz-adv-x="522" d="M242 668 L164 528 L215 528 L262 627 L266 627 L312 528 L361 528 L289 668 L242 668 Z M504 450 L448 450 L400 206 L374 76 L370 76 L343 204 L294 450 L238 450 L177 200 L149 76 L145 76 L123 200 L81 450 L22 450 L112 0 L174 0 L238 260 L260 356 L264 356 L284 260 L340 0 L405 0 L504 450 Z " />
<glyph glyph-name="Ycircumflex" unicode="&#x176;" horiz-adv-x="374" d="M364 583 L306 583 L232 381 L192 274 L189 274 L148 381 L72 583 L11 583 L156 220 L156 0 L217 0 L217 215 L364 583 Z M165 738 L86 626 L136 626 L185 699 L188 699 L237 626 L285 626 L212 738 L165 738 Z " />
<glyph glyph-name="ycircumflex" unicode="&#x177;" horiz-adv-x="331" d="M145 -207 L199 6 L316 450 L257 450 L194 192 L167 67 L164 67 L138 190 L79 450 L19 450 L128 0 L145 0 L86 -204 L88 -207 L145 -207 Z M150 668 L72 528 L123 528 L170 627 L174 627 L220 528 L269 528 L197 668 L150 668 Z " />
<glyph glyph-name="Ydieresis" unicode="&#x178;" horiz-adv-x="374" d="M364 583 L306 583 L232 381 L192 274 L189 274 L148 381 L72 583 L11 583 L156 220 L156 0 L217 0 L217 215 L364 583 Z M210 673 C210 648 230 628 255 628 C280 628 300 648 300 673 C300 698 280 718 255 718 C230 718 210 698 210 673 L210 673 Z M79 673 C79 648 99 628 124 628 C149 628 169 648 169 673 C169 698 149 718 124 718 C99 718 79 698 79 673 L79 673 Z " />
<glyph glyph-name="Zacute" unicode="&#x179;" horiz-adv-x="343" d="M315 0 L315 52 L95 52 L325 580 L324 583 L30 583 L30 531 L242 531 L17 3 L18 0 L315 0 Z M192 630 L263 736 L205 736 L144 630 L192 630 Z " />
<glyph glyph-name="zacute" unicode="&#x17a;" horiz-adv-x="295" d="M20 3 L20 0 L272 0 L272 50 L99 50 L269 448 L267 450 L28 450 L28 401 L191 401 L20 3 Z M164 528 L243 669 L187 669 L119 528 L164 528 Z " />
<glyph glyph-name="Zdotaccent" unicode="&#x17b;" horiz-adv-x="343" d="M315 0 L315 52 L95 52 L325 580 L324 583 L30 583 L30 531 L242 531 L17 3 L18 0 L315 0 Z M137 679 C137 654 157 634 182 634 C207 634 227 654 227 679 C227 704 207 724 182 724 C157 724 137 704 137 679 L137 679 Z " />
<glyph glyph-name="zdotaccent" unicode="&#x17c;" horiz-adv-x="295" d="M20 3 L20 0 L272 0 L272 50 L99 50 L269 448 L267 450 L28 450 L28 401 L191 401 L20 3 Z M105 612 C105 587 125 567 150 567 C175 567 195 587 195 612 C195 637 175 657 150 657 C125 657 105 637 105 612 L105 612 Z " />
<glyph glyph-name="Zcaron" unicode="&#x17d;" horiz-adv-x="343" d="M315 0 L315 52 L95 52 L325 580 L324 583 L30 583 L30 531 L242 531 L17 3 L18 0 L315 0 Z M197 623 L276 735 L226 735 L177 661 L174 661 L125 735 L76 735 L150 623 L197 623 Z " />
<glyph glyph-name="zcaron" unicode="&#x17e;" horiz-adv-x="295" d="M20 3 L20 0 L272 0 L272 50 L99 50 L269 448 L267 450 L28 450 L28 401 L191 401 L20 3 Z M173 529 L250 668 L199 668 L153 572 L150 572 L103 668 L54 668 L126 529 L173 529 Z " />
<glyph glyph-name="uni018F" unicode="&#x18f;" horiz-adv-x="444" d="M60 562 L60 507 C103 527 149 538 195 538 C281 538 342 488 344 323 L35 323 C33 309 31 290 31 273 C31 116 91 -7 214 -7 C354 -7 407 143 407 306 C407 514 326 591 199 591 C158 591 107 581 60 562 L60 562 Z M215 46 C140 46 94 120 93 273 L344 273 C340 118 298 46 215 46 L215 46 Z " />
<glyph glyph-name="florin" unicode="&#x192;" horiz-adv-x="340" d="M133 24 C126 -59 106 -87 65 -87 C50 -87 39 -86 25 -82 L19 -135 C31 -138 46 -140 61 -140 C135 -140 180 -86 188 21 L199 268 L288 268 L288 317 L201 317 L206 426 C209 512 232 537 273 537 C287 537 300 536 315 533 L318 586 C306 589 293 591 277 591 C201 591 156 539 151 433 L145 317 L73 317 L73 268 L143 268 L133 24 Z " />
<glyph glyph-name="uni01C4" unicode="&#x1c4;" horiz-adv-x="794" d="M60 0 L183 0 C322 0 414 102 414 303 C414 518 310 583 180 583 L60 583 L60 0 Z M173 531 C278 531 352 485 352 297 C352 125 285 52 182 52 L119 52 L119 531 L173 531 Z M765 0 L765 52 L545 52 L775 580 L774 583 L480 583 L480 531 L692 531 L467 3 L468 0 L765 0 Z M647 623 L726 735 L676 735 L627 661 L624 661 L575 735 L526 735 L600 623 L647 623 Z " />
<glyph glyph-name="uni01C5" unicode="&#x1c5;" horiz-adv-x="745" d="M60 0 L183 0 C322 0 414 102 414 303 C414 518 310 583 180 583 L60 583 L60 0 Z M173 531 C278 531 352 485 352 297 C352 125 285 52 182 52 L119 52 L119 531 L173 531 Z M470 3 L470 0 L722 0 L722 50 L549 50 L719 448 L717 450 L478 450 L478 401 L641 401 L470 3 Z M623 529 L700 668 L649 668 L603 572 L600 572 L553 668 L504 668 L576 529 L623 529 Z " />
<glyph glyph-name="uni01C6" unicode="&#x1c6;" horiz-adv-x="665" d="M275 0 L331 0 L316 95 L316 653 L261 653 L261 451 C242 456 217 459 194 459 C99 459 34 377 34 209 C34 61 86 -6 160 -6 C204 -6 240 19 266 53 L275 0 Z M171 48 C116 48 93 107 93 217 C93 350 128 409 195 409 C217 409 241 406 261 398 L261 98 C231 68 203 48 171 48 L171 48 Z M390 3 L390 0 L642 0 L642 50 L469 50 L639 448 L637 450 L398 450 L398 401 L561 401 L390 3 Z M543 529 L620 668 L569 668 L523 572 L520 572 L473 668 L424 668 L496 529 L543 529 Z " />
<glyph glyph-name="uni01C7" unicode="&#x1c7;" horiz-adv-x="511" d="M60 0 L307 0 L307 52 L119 52 L119 583 L60 583 L60 0 Z M358 -85 C417 4 454 89 454 179 L454 583 L393 583 L393 179 C393 88 352 13 308 -60 L358 -85 Z " />
<glyph glyph-name="uni01C8" unicode="&#x1c8;" horiz-adv-x="495" d="M60 0 L307 0 L307 52 L119 52 L119 583 L60 583 L60 0 Z M335 400 L387 400 L387 18 C387 -66 358 -139 333 -193 L377 -214 C416 -155 443 -64 443 25 L443 450 L335 450 L335 400 Z M370 612 C370 587 390 567 415 567 C440 567 460 587 460 612 C460 637 440 657 415 657 C390 657 370 637 370 612 L370 612 Z " />
<glyph glyph-name="uni01C9" unicode="&#x1c9;" horiz-adv-x="345" d="M185 400 L237 400 L237 18 C237 -66 208 -139 183 -193 L227 -214 C266 -155 293 -64 293 25 L293 450 L185 450 L185 400 Z M56 0 L112 0 L112 653 L56 653 L56 0 Z M220 612 C220 587 240 567 265 567 C290 567 310 587 310 612 C310 637 290 657 265 657 C240 657 220 637 220 612 L220 612 Z " />
<glyph glyph-name="uni01CA" unicode="&#x1ca;" horiz-adv-x="655" d="M502 -85 C561 4 598 89 598 179 L598 583 L537 583 L537 179 C537 88 496 13 452 -60 L502 -85 Z M60 0 L119 0 L117 454 L119 454 L346 0 L402 0 L402 583 L344 583 L346 134 L344 134 L116 583 L60 583 L60 0 Z " />
<glyph glyph-name="uni01CB" unicode="&#x1cb;" horiz-adv-x="639" d="M60 0 L119 0 L117 454 L119 454 L346 0 L402 0 L402 583 L344 583 L346 134 L344 134 L116 583 L60 583 L60 0 Z M479 400 L531 400 L531 18 C531 -66 502 -139 477 -193 L521 -214 C560 -155 587 -64 587 25 L587 450 L479 450 L479 400 Z M514 612 C514 587 534 567 559 567 C584 567 604 587 604 612 C604 637 584 657 559 657 C534 657 514 637 514 612 L514 612 Z " />
<glyph glyph-name="uni01CC" unicode="&#x1cc;" horiz-adv-x="561" d="M54 0 L110 0 L110 347 C139 377 177 407 215 407 C269 407 278 374 278 304 L278 0 L334 0 L334 320 C334 422 303 459 234 459 C181 459 134 427 104 394 L95 450 L39 450 L54 347 L54 0 Z M400 400 L452 400 L452 18 C452 -66 423 -139 398 -193 L442 -214 C481 -155 508 -64 508 25 L508 450 L400 450 L400 400 Z M435 612 C435 587 455 567 480 567 C505 567 525 587 525 612 C525 637 505 657 480 657 C455 657 435 637 435 612 L435 612 Z " />
<glyph glyph-name="uni01D3" unicode="&#x1d3;" horiz-adv-x="445" d="M244 624 L323 736 L273 736 L224 662 L221 662 L172 736 L123 736 L197 624 L244 624 Z M225 -7 C309 -7 389 46 389 221 L389 583 L331 583 L331 217 C331 94 295 48 229 48 C161 48 116 80 116 204 L116 583 L56 583 L56 198 C56 35 137 -7 225 -7 L225 -7 Z " />
<glyph glyph-name="uni01D4" unicode="&#x1d4;" horiz-adv-x="379" d="M325 450 L269 450 L269 104 C240 73 207 44 171 44 C117 44 106 77 106 147 L106 450 L50 450 L50 131 C50 29 83 -8 151 -8 C202 -8 245 24 275 57 L284 0 L339 0 L325 104 L325 450 Z M210 529 L287 668 L236 668 L190 572 L187 572 L140 668 L91 668 L163 529 L210 529 Z " />
<glyph glyph-name="uni01E2" unicode="&#x1e2;" horiz-adv-x="540" d="M252 0 L510 0 L510 52 L312 52 L312 275 L475 275 L475 325 L312 325 L312 531 L506 531 L506 583 L223 583 L5 0 L63 0 L128 184 L252 184 L252 0 Z M249 524 L252 524 L252 235 L146 235 L249 524 Z M290 656 L468 656 L468 704 L290 704 L290 656 Z " />
<glyph glyph-name="uni01E3" unicode="&#x1e3;" horiz-adv-x="552" d="M392 -7 C445 -7 481 2 512 20 L512 67 C477 51 438 44 402 44 C330 44 289 90 286 208 L517 208 L517 246 C517 371 481 460 381 460 C335 460 300 439 275 402 C259 444 223 460 175 460 C137 460 84 451 50 436 L50 385 C78 397 127 407 162 407 C207 407 232 388 232 329 L232 251 L183 251 C89 251 27 211 27 115 C27 43 60 -6 126 -6 C187 -6 233 33 260 67 C287 17 331 -7 392 -7 L392 -7 Z M378 408 C441 408 459 336 459 254 L459 253 L286 253 C291 362 324 408 378 408 L378 408 Z M138 44 C103 44 84 65 84 121 C84 190 121 207 179 207 L232 207 C232 167 237 134 245 106 C218 73 178 44 138 44 L138 44 Z M182 571 L367 571 L367 621 L182 621 L182 571 Z " />
<glyph glyph-name="uni01F1" unicode="&#x1f1;" horiz-adv-x="782" d="M60 0 L183 0 C322 0 414 102 414 303 C414 518 310 583 180 583 L60 583 L60 0 Z M173 531 C278 531 352 485 352 297 C352 125 285 52 182 52 L119 52 L119 531 L173 531 Z M753 0 L753 52 L533 52 L763 580 L762 583 L468 583 L468 531 L680 531 L455 3 L456 0 L753 0 Z " />
<glyph glyph-name="uni01F2" unicode="&#x1f2;" horiz-adv-x="745" d="M60 0 L183 0 C322 0 414 102 414 303 C414 518 310 583 180 583 L60 583 L60 0 Z M173 531 C278 531 352 485 352 297 C352 125 285 52 182 52 L119 52 L119 531 L173 531 Z M470 3 L470 0 L722 0 L722 50 L549 50 L719 448 L717 450 L478 450 L478 401 L641 401 L470 3 Z " />
<glyph glyph-name="uni01F3" unicode="&#x1f3;" horiz-adv-x="665" d="M275 0 L331 0 L316 95 L316 653 L261 653 L261 451 C242 456 217 459 194 459 C99 459 34 377 34 209 C34 61 86 -6 160 -6 C204 -6 240 19 266 53 L275 0 Z M171 48 C116 48 93 107 93 217 C93 350 128 409 195 409 C217 409 241 406 261 398 L261 98 C231 68 203 48 171 48 L171 48 Z M390 3 L390 0 L642 0 L642 50 L469 50 L639 448 L637 450 L398 450 L398 401 L561 401 L390 3 Z " />
<glyph glyph-name="AEacute" unicode="&#x1fc;" horiz-adv-x="540" d="M252 0 L510 0 L510 52 L312 52 L312 275 L475 275 L475 325 L312 325 L312 531 L506 531 L506 583 L223 583 L5 0 L63 0 L128 184 L252 184 L252 0 Z M249 524 L252 524 L252 235 L146 235 L249 524 Z M384 631 L455 737 L397 737 L336 631 L384 631 Z " />
<glyph glyph-name="aeacute" unicode="&#x1fd;" horiz-adv-x="552" d="M392 -7 C445 -7 481 2 512 20 L512 67 C477 51 438 44 402 44 C330 44 289 90 286 208 L517 208 L517 246 C517 371 481 460 381 460 C335 460 300 439 275 402 C259 444 223 460 175 460 C137 460 84 451 50 436 L50 385 C78 397 127 407 162 407 C207 407 232 388 232 329 L232 251 L183 251 C89 251 27 211 27 115 C27 43 60 -6 126 -6 C187 -6 233 33 260 67 C287 17 331 -7 392 -7 L392 -7 Z M378 408 C441 408 459 336 459 254 L459 253 L286 253 C291 362 324 408 378 408 L378 408 Z M138 44 C103 44 84 65 84 121 C84 190 121 207 179 207 L232 207 C232 167 237 134 245 106 C218 73 178 44 138 44 L138 44 Z M297 528 L376 669 L320 669 L252 528 L297 528 Z " />
<glyph glyph-name="Oslashacute" unicode="&#x1fe;" horiz-adv-x="457" d="M223 -7 C362 -7 419 119 419 308 C419 382 407 451 380 502 L434 591 L385 591 L354 539 C325 571 286 591 235 591 C97 591 37 459 37 281 C37 199 49 131 76 81 L23 -7 L72 -7 L102 43 C132 11 171 -7 223 -7 L223 -7 Z M227 46 C187 46 157 64 136 99 L341 438 C351 402 357 356 357 300 C357 134 317 46 227 46 L227 46 Z M100 290 C100 464 147 538 232 538 C270 538 300 520 321 485 L116 147 C105 184 100 232 100 290 L100 290 Z M239 630 L310 736 L252 736 L191 630 L239 630 Z " />
<glyph glyph-name="oslashacute" unicode="&#x1ff;" horiz-adv-x="363" d="M179 -7 C277 -7 328 102 328 228 C328 300 319 354 301 391 L342 460 L300 460 L279 424 C256 448 225 459 184 459 C89 459 34 355 34 223 C34 152 43 99 62 62 L21 -7 L63 -7 L84 29 C108 4 139 -7 179 -7 L179 -7 Z M91 226 C91 337 116 408 182 408 C214 408 235 396 248 373 L99 124 C93 150 91 184 91 226 L91 226 Z M182 44 C151 44 129 55 115 80 L263 328 C268 300 270 265 270 225 C270 115 248 44 182 44 L182 44 Z M202 528 L281 669 L225 669 L157 528 L202 528 Z " />
<glyph glyph-name="Scommaaccent" unicode="&#x218;" horiz-adv-x="331" d="M124 -221 L164 -221 L192 -62 L142 -62 L124 -221 Z M38 15 C76 0 111 -7 149 -7 C234 -7 300 47 300 158 C300 263 238 297 176 329 C123 357 93 384 93 445 C93 496 125 537 179 537 C216 537 252 526 283 507 L283 568 C256 582 220 591 176 591 C89 591 35 522 35 437 C35 350 84 310 141 282 C199 253 241 227 241 154 C241 82 204 49 150 49 C111 49 71 58 38 75 L38 15 Z " />
<glyph glyph-name="scommaaccent" unicode="&#x219;" horiz-adv-x="301" d="M108 -221 L148 -221 L176 -62 L126 -62 L108 -221 Z M137 -7 C208 -7 272 31 272 129 C272 210 218 236 163 256 C117 274 86 289 86 336 C86 382 117 408 162 408 C193 408 219 404 258 386 L258 441 C232 454 194 459 163 459 C88 459 33 412 33 332 C33 257 84 229 136 210 C183 193 220 175 220 127 C220 69 188 45 142 45 C108 45 76 51 36 68 L36 13 C65 1 98 -7 137 -7 L137 -7 Z " />
<glyph glyph-name="uni021A" unicode="&#x21a;" horiz-adv-x="371" d="M11 531 L155 531 L155 0 L216 0 L216 531 L360 531 L360 583 L11 583 L11 531 Z M142 -221 L182 -221 L210 -62 L160 -62 L142 -221 Z " />
<glyph glyph-name="uni021B" unicode="&#x21b;" horiz-adv-x="253" d="M18 400 L71 400 L71 104 C71 23 113 -7 167 -7 C196 -7 223 -3 243 9 L243 55 C225 48 205 44 185 44 C149 44 128 63 127 115 L127 400 L237 400 L237 450 L127 450 L127 570 L71 570 L71 450 L18 450 L18 400 Z M111 -221 L151 -221 L179 -62 L129 -62 L111 -221 Z " />
<glyph glyph-name="uni0232" unicode="&#x232;" horiz-adv-x="374" d="M364 583 L306 583 L232 381 L192 274 L189 274 L148 381 L72 583 L11 583 L156 220 L156 0 L217 0 L217 215 L364 583 Z M101 656 L279 656 L279 704 L101 704 L101 656 Z " />
<glyph glyph-name="uni0233" unicode="&#x233;" horiz-adv-x="331" d="M145 -207 L199 6 L316 450 L257 450 L194 192 L167 67 L164 67 L138 190 L79 450 L19 450 L128 0 L145 0 L86 -204 L88 -207 L145 -207 Z M79 571 L264 571 L264 621 L79 621 L79 571 Z " />
<glyph glyph-name="uni0237" unicode="&#x237;" horiz-adv-x="177" d="M17 400 L69 400 L69 18 C69 -66 40 -139 15 -193 L59 -214 C98 -155 125 -64 125 25 L125 450 L17 450 L17 400 Z " />
<glyph glyph-name="uni0259" unicode="&#x259;" horiz-adv-x="355" d="M157 458 C105 458 68 448 38 431 L38 384 C74 400 112 407 149 407 C221 407 261 361 264 241 L35 241 L35 206 C35 78 70 -8 170 -8 C274 -8 321 91 321 234 C321 389 265 458 157 458 L157 458 Z M173 43 C109 43 93 116 93 196 L263 196 C258 89 225 43 173 43 L173 43 Z " />
<glyph glyph-name="circumflex" unicode="&#x2c6;" horiz-adv-x="282" d="M123 668 L45 528 L96 528 L143 627 L147 627 L193 528 L242 528 L170 668 L123 668 Z " />
<glyph glyph-name="caron" unicode="&#x2c7;" horiz-adv-x="331" d="M189 529 L266 668 L215 668 L169 572 L166 572 L119 668 L70 668 L142 529 L189 529 Z " />
<glyph glyph-name="breve" unicode="&#x2d8;" horiz-adv-x="251" d="M126 575 C91 575 77 603 69 638 L31 625 C40 571 70 534 125 534 C180 534 214 571 222 628 L186 639 C179 604 165 575 126 575 L126 575 Z " />
<glyph glyph-name="dotaccent" unicode="&#x2d9;" horiz-adv-x="221" d="M68 612 C68 587 88 567 113 567 C138 567 158 587 158 612 C158 637 138 657 113 657 C88 657 68 637 68 612 L68 612 Z " />
<glyph glyph-name="ring" unicode="&#x2da;" horiz-adv-x="232" d="M116 677 C80 677 46 650 46 599 C46 547 76 519 116 519 C156 519 187 548 187 599 C187 652 155 677 116 677 L116 677 Z M116 643 C138 643 151 628 151 599 C151 571 140 552 116 552 C93 552 82 571 82 599 C82 625 95 643 116 643 L116 643 Z " />
<glyph glyph-name="ogonek" unicode="&#x2db;" horiz-adv-x="237" d="M194 -198 L194 -156 C179 -163 162 -167 147 -167 C123 -167 104 -150 104 -118 C104 -76 130 -32 173 4 L157 25 C109 -4 54 -60 54 -126 C54 -184 87 -211 134 -211 C154 -211 178 -206 194 -198 L194 -198 Z " />
<glyph glyph-name="tilde" unicode="&#x2dc;" horiz-adv-x="300" d="M239 632 C233 612 215 600 196 600 C169 600 145 633 109 633 C78 633 57 613 42 590 L61 559 C74 580 88 590 107 590 C136 590 161 557 196 557 C225 557 248 577 259 603 L239 632 Z " />
<glyph glyph-name="hungarumlaut" unicode="&#x2dd;" horiz-adv-x="339" d="M90 528 L168 672 L113 672 L46 528 L90 528 Z M209 528 L291 672 L237 672 L164 528 L209 528 Z " />
<glyph glyph-name="dotbelowcmb" unicode="&#x323;" d="M-199 -141 C-199 -166 -179 -186 -154 -186 C-129 -186 -109 -166 -109 -141 C-109 -116 -129 -96 -154 -96 C-179 -96 -199 -116 -199 -141 L-199 -141 Z " />
<glyph glyph-name="uni0394" unicode="&#x394;" horiz-adv-x="396" d="M374 0 L374 46 L237 583 L174 583 L21 46 L22 0 L374 0 Z M200 500 L204 500 L309 53 L81 53 L200 500 Z " />
<glyph glyph-name="Sigma" unicode="&#x3a3;" horiz-adv-x="364" d="M33 0 L330 0 L330 55 L97 55 L198 291 L100 531 L319 531 L319 583 L36 583 L36 535 L137 288 L33 47 L33 0 Z " />
<glyph glyph-name="pi" unicode="&#x3c0;" horiz-adv-x="410" d="M316 399 L370 399 L370 450 L27 450 L27 399 L79 399 L79 0 L132 0 L132 399 L263 399 L263 66 C263 18 279 -7 324 -7 C343 -7 360 -4 375 6 L375 45 C362 42 350 42 342 42 C323 42 316 58 316 98 L316 399 Z " />
<glyph glyph-name="uni1E46" unicode="&#x1e46;" horiz-adv-x="462" d="M181 -141 C181 -166 201 -186 226 -186 C251 -186 271 -166 271 -141 C271 -116 251 -96 226 -96 C201 -96 181 -116 181 -141 L181 -141 Z M60 0 L119 0 L117 454 L119 454 L346 0 L402 0 L402 583 L344 583 L346 134 L344 134 L116 583 L60 583 L60 0 Z " />
<glyph glyph-name="uni1E47" unicode="&#x1e47;" horiz-adv-x="384" d="M54 0 L110 0 L110 347 C139 377 177 407 215 407 C269 407 278 374 278 304 L278 0 L334 0 L334 320 C334 422 303 459 234 459 C181 459 134 427 104 394 L95 450 L39 450 L54 347 L54 0 Z M144 -141 C144 -166 164 -186 189 -186 C214 -186 234 -166 234 -141 C234 -116 214 -96 189 -96 C164 -96 144 -116 144 -141 L144 -141 Z " />
<glyph glyph-name="uni1E62" unicode="&#x1e62;" horiz-adv-x="331" d="M105 -141 C105 -166 125 -186 150 -186 C175 -186 195 -166 195 -141 C195 -116 175 -96 150 -96 C125 -96 105 -116 105 -141 L105 -141 Z M38 15 C76 0 111 -7 149 -7 C234 -7 300 47 300 158 C300 263 238 297 176 329 C123 357 93 384 93 445 C93 496 125 537 179 537 C216 537 252 526 283 507 L283 568 C256 582 220 591 176 591 C89 591 35 522 35 437 C35 350 84 310 141 282 C199 253 241 227 241 154 C241 82 204 49 150 49 C111 49 71 58 38 75 L38 15 Z " />
<glyph glyph-name="uni1E63" unicode="&#x1e63;" horiz-adv-x="301" d="M98 -141 C98 -166 118 -186 143 -186 C168 -186 188 -166 188 -141 C188 -116 168 -96 143 -96 C118 -96 98 -116 98 -141 L98 -141 Z M137 -7 C208 -7 272 31 272 129 C272 210 218 236 163 256 C117 274 86 289 86 336 C86 382 117 408 162 408 C193 408 219 404 258 386 L258 441 C232 454 194 459 163 459 C88 459 33 412 33 332 C33 257 84 229 136 210 C183 193 220 175 220 127 C220 69 188 45 142 45 C108 45 76 51 36 68 L36 13 C65 1 98 -7 137 -7 L137 -7 Z " />
<glyph glyph-name="Wgrave" unicode="&#x1e80;" horiz-adv-x="624" d="M349 630 L288 736 L230 736 L301 630 L349 630 Z M611 583 L551 583 L480 253 L446 93 L443 93 L412 255 L348 583 L281 583 L210 253 L177 88 L173 88 L145 253 L87 583 L25 583 L139 0 L205 0 L279 342 L310 487 L315 487 L342 342 L408 0 L473 0 L611 583 Z " />
<glyph glyph-name="wgrave" unicode="&#x1e81;" horiz-adv-x="522" d="M504 450 L448 450 L400 206 L374 76 L370 76 L343 204 L294 450 L238 450 L177 200 L149 76 L145 76 L123 200 L81 450 L22 450 L112 0 L174 0 L238 260 L260 356 L264 356 L284 260 L340 0 L405 0 L504 450 Z M288 528 L221 669 L165 669 L243 528 L288 528 Z " />
<glyph glyph-name="Wacute" unicode="&#x1e82;" horiz-adv-x="624" d="M332 626 L403 732 L345 732 L284 626 L332 626 Z M611 583 L551 583 L480 253 L446 93 L443 93 L412 255 L348 583 L281 583 L210 253 L177 88 L173 88 L145 253 L87 583 L25 583 L139 0 L205 0 L279 342 L310 487 L315 487 L342 342 L408 0 L473 0 L611 583 Z " />
<glyph glyph-name="wacute" unicode="&#x1e83;" horiz-adv-x="522" d="M287 528 L366 669 L310 669 L242 528 L287 528 Z M504 450 L448 450 L400 206 L374 76 L370 76 L343 204 L294 450 L238 450 L177 200 L149 76 L145 76 L123 200 L81 450 L22 450 L112 0 L174 0 L238 260 L260 356 L264 356 L284 260 L340 0 L405 0 L504 450 Z " />
<glyph glyph-name="Wdieresis" unicode="&#x1e84;" horiz-adv-x="624" d="M200 673 C200 648 220 628 245 628 C270 628 290 648 290 673 C290 698 270 718 245 718 C220 718 200 698 200 673 L200 673 Z M331 673 C331 648 351 628 376 628 C401 628 421 648 421 673 C421 698 401 718 376 718 C351 718 331 698 331 673 L331 673 Z M611 583 L551 583 L480 253 L446 93 L443 93 L412 255 L348 583 L281 583 L210 253 L177 88 L173 88 L145 253 L87 583 L25 583 L139 0 L205 0 L279 342 L310 487 L315 487 L342 342 L408 0 L473 0 L611 583 Z " />
<glyph glyph-name="wdieresis" unicode="&#x1e85;" horiz-adv-x="522" d="M147 612 C147 587 167 567 192 567 C217 567 237 587 237 612 C237 637 217 657 192 657 C167 657 147 637 147 612 L147 612 Z M288 612 C288 587 308 567 333 567 C358 567 378 587 378 612 C378 637 358 657 333 657 C308 657 288 637 288 612 L288 612 Z M504 450 L448 450 L400 206 L374 76 L370 76 L343 204 L294 450 L238 450 L177 200 L149 76 L145 76 L123 200 L81 450 L22 450 L112 0 L174 0 L238 260 L260 356 L264 356 L284 260 L340 0 L405 0 L504 450 Z " />
<glyph glyph-name="uni1EBC" unicode="&#x1ebc;" horiz-adv-x="347" d="M60 0 L318 0 L318 52 L119 52 L119 275 L282 275 L282 325 L119 325 L119 531 L313 531 L313 583 L60 583 L60 0 Z M275 718 C268 699 250 686 231 686 C204 686 183 719 147 719 C116 719 93 698 80 674 L99 642 C112 663 126 673 144 673 C174 673 197 640 231 640 C260 640 284 660 294 686 L275 718 Z " />
<glyph glyph-name="uni1EBD" unicode="&#x1ebd;" horiz-adv-x="356" d="M198 -7 C250 -7 287 3 317 20 L317 67 C281 51 243 44 206 44 C133 44 93 90 91 210 L320 210 L320 245 C320 373 285 459 185 459 C81 459 34 360 34 217 C34 62 90 -7 198 -7 L198 -7 Z M182 408 C245 408 261 335 262 255 L91 255 C97 362 130 408 182 408 L182 408 Z M276 632 C270 612 252 600 233 600 C206 600 182 633 146 633 C115 633 94 613 79 590 L98 559 C111 580 125 590 144 590 C173 590 198 557 233 557 C262 557 285 577 296 603 L276 632 Z " />
<glyph glyph-name="Ygrave" unicode="&#x1ef2;" horiz-adv-x="374" d="M364 583 L306 583 L232 381 L192 274 L189 274 L148 381 L72 583 L11 583 L156 220 L156 0 L217 0 L217 215 L364 583 Z M227 630 L166 736 L108 736 L179 630 L227 630 Z " />
<glyph glyph-name="ygrave" unicode="&#x1ef3;" horiz-adv-x="331" d="M145 -207 L199 6 L316 450 L257 450 L194 192 L167 67 L164 67 L138 190 L79 450 L19 450 L128 0 L145 0 L86 -204 L88 -207 L145 -207 Z M205 517 L138 658 L82 658 L160 517 L205 517 Z " />
<glyph glyph-name="uni2004" unicode="&#x2004;" horiz-adv-x="333" d="" />
<glyph glyph-name="uni2007" unicode="&#x2007;" horiz-adv-x="400" d="" />
<glyph glyph-name="uni2009" unicode="&#x2009;" horiz-adv-x="160" d="" />
<glyph glyph-name="uni200A" unicode="&#x200a;" horiz-adv-x="80" d="" />
<glyph glyph-name="uni200B" unicode="&#x200b;" d="" />
<glyph glyph-name="uni2012" unicode="&#x2012;" horiz-adv-x="365" d="M375 237 L375 292 L-10 292 L-10 237 L375 237 Z " />
<glyph glyph-name="endash" unicode="&#x2013;" horiz-adv-x="338" d="M49 223 L289 223 L289 269 L49 269 L49 223 Z " />
<glyph glyph-name="emdash" unicode="&#x2014;" horiz-adv-x="636" d="M49 223 L587 223 L587 269 L49 269 L49 223 Z " />
<glyph glyph-name="quoteleft" unicode="&#x2018;" horiz-adv-x="166" d="M128 670 C70 621 42 558 42 502 C42 470 61 444 88 437 C108 437 126 456 126 477 C108 494 101 513 101 540 C101 581 125 619 152 650 L128 670 Z " />
<glyph glyph-name="quoteright" unicode="&#x2019;" horiz-adv-x="176" d="M62 448 C120 497 148 560 148 616 C148 648 129 674 102 681 C82 681 64 662 64 641 C82 624 89 605 89 578 C89 537 65 499 38 468 L62 448 Z " />
<glyph glyph-name="quotesinglbase" unicode="&#x201a;" horiz-adv-x="172" d="M40 -134 C98 -84 127 -22 127 35 C127 67 107 93 81 100 C60 100 42 81 42 61 C60 43 67 24 67 -3 C67 -44 43 -82 16 -114 L40 -134 Z " />
<glyph glyph-name="quotedblleft" unicode="&#x201c;" horiz-adv-x="290" d="M128 670 C70 621 42 558 42 502 C42 470 61 444 88 437 C108 437 126 456 126 477 C108 494 101 513 101 540 C101 581 125 619 152 650 L128 670 Z M252 670 C194 621 166 558 166 502 C166 470 185 444 212 437 C232 437 250 456 250 477 C232 494 225 513 225 540 C225 581 249 619 276 650 L252 670 Z " />
<glyph glyph-name="quotedblright" unicode="&#x201d;" horiz-adv-x="303" d="M59 439 C117 488 145 551 145 607 C145 639 126 665 99 672 C79 672 61 653 61 632 C79 615 86 596 86 569 C86 528 62 490 35 459 L59 439 Z M186 439 C244 488 272 551 272 607 C272 639 253 665 226 672 C206 672 188 653 188 632 C206 615 213 596 213 569 C213 528 189 490 162 459 L186 439 Z " />
<glyph glyph-name="quotedblbase" unicode="&#x201e;" horiz-adv-x="299" d="M40 -134 C98 -84 127 -22 127 35 C127 67 107 93 81 100 C60 100 42 81 42 61 C60 43 67 24 67 -3 C67 -44 43 -82 16 -114 L40 -134 Z M167 -134 C225 -84 254 -22 254 35 C254 67 234 93 208 100 C187 100 169 81 169 61 C187 43 194 24 194 -3 C194 -44 170 -82 143 -114 L167 -134 Z " />
<glyph glyph-name="dagger" unicode="&#x2020;" horiz-adv-x="347" d="M24 406 L150 406 L150 0 L196 0 L196 406 L323 406 L323 450 L196 450 L196 653 L150 653 L150 450 L24 450 L24 406 Z " />
<glyph glyph-name="daggerdbl" unicode="&#x2021;" horiz-adv-x="377" d="M39 401 L165 401 L165 239 L39 239 L39 195 L165 195 L165 0 L211 0 L211 195 L338 195 L338 239 L211 239 L211 401 L338 401 L338 445 L211 445 L211 653 L165 653 L165 445 L39 445 L39 401 Z " />
<glyph glyph-name="bullet" unicode="&#x2022;" horiz-adv-x="373" d="M186 165 C260 165 317 222 317 297 C317 370 260 426 186 426 C113 426 56 370 56 297 C56 222 113 165 186 165 L186 165 Z " />
<glyph glyph-name="ellipsis" unicode="&#x2026;" horiz-adv-x="511" d="M43 40 C43 14 64 -7 89 -7 C115 -7 136 14 136 40 C136 65 115 86 89 86 C64 86 43 65 43 40 L43 40 Z M211 40 C211 14 232 -7 257 -7 C283 -7 304 14 304 40 C304 65 283 86 257 86 C232 86 211 65 211 40 L211 40 Z M377 40 C377 14 398 -7 423 -7 C449 -7 470 14 470 40 C470 65 449 86 423 86 C398 86 377 65 377 40 L377 40 Z " />
<glyph glyph-name="perthousand" unicode="&#x2030;" horiz-adv-x="715" d="M123 286 C181 286 217 342 217 437 C217 540 180 591 123 591 C65 591 28 530 28 435 C28 335 65 286 123 286 L123 286 Z M269 369 L310 369 L402 570 L402 583 L353 583 L269 369 Z M125 324 C87 324 71 367 71 435 C71 511 87 552 122 552 C157 552 173 514 173 434 C173 365 159 324 125 324 L125 324 Z M389 -8 C447 -8 484 50 484 144 C484 248 446 298 389 298 C332 298 295 238 295 142 C295 43 332 -8 389 -8 L389 -8 Z M391 31 C354 31 338 74 338 143 C338 215 353 260 388 260 C424 260 440 223 440 142 C440 72 425 31 391 31 L391 31 Z M254 225 L213 225 L120 13 L120 0 L169 0 L254 225 Z M593 -8 C652 -8 688 50 688 144 C688 248 651 298 593 298 C536 298 499 238 499 142 C499 43 536 -8 593 -8 L593 -8 Z M595 31 C558 31 542 74 542 143 C542 215 557 260 592 260 C628 260 644 223 644 142 C644 72 630 31 595 31 L595 31 Z " />
<glyph glyph-name="guilsinglleft" unicode="&#x2039;" horiz-adv-x="195" d="M106 46 L156 46 L97 226 L155 405 L105 405 L35 226 L106 46 Z " />
<glyph glyph-name="guilsinglright" unicode="&#x203a;" horiz-adv-x="195" d="M89 408 L39 408 L98 228 L40 49 L90 49 L160 228 L89 408 Z " />
<glyph glyph-name="uni203D" unicode="&#x203d;" horiz-adv-x="277" d="M86 319 L97 191 L135 193 L134 267 C173 288 249 345 249 450 C249 549 200 591 126 591 C96 591 57 582 31 568 L31 521 C59 536 93 544 121 544 C169 544 196 513 196 449 C196 380 164 337 134 312 L134 322 L127 461 L78 459 L86 319 Z M69 40 C69 14 90 -7 115 -7 C141 -7 162 14 162 40 C162 65 141 86 115 86 C90 86 69 65 69 40 L69 40 Z " />
<glyph glyph-name="fraction" unicode="&#x2044;" horiz-adv-x="92" d="M-60 0 L182 558 L182 562 L149 562 L-94 4 L-94 0 L-60 0 Z " />
<glyph glyph-name="zerosuperior" unicode="&#x2070;" horiz-adv-x="223" d="M109 396 C170 396 202 449 202 557 C202 645 180 713 113 713 C53 713 22 654 22 548 C22 448 47 396 109 396 L109 396 Z M112 431 C77 431 65 463 65 549 C65 632 76 677 111 677 C146 677 159 635 159 555 C159 472 147 431 112 431 L112 431 Z " />
<glyph glyph-name="i.superior" unicode="&#x2071;" horiz-adv-x="127" d="M15 667 L48 667 L48 400 L92 400 L92 708 L15 708 L15 667 Z M38 824 C38 807 52 793 69 793 C86 793 100 807 100 824 C100 841 86 855 69 855 C52 855 38 841 38 824 L38 824 Z " />
<glyph glyph-name="foursuperior" unicode="&#x2074;" horiz-adv-x="192" d="M107 400 L148 400 L148 479 L177 479 L177 513 L148 513 L148 712 L105 712 L9 513 L9 479 L107 479 L107 400 Z M43 513 L105 646 L107 646 L107 513 L43 513 Z " />
<glyph glyph-name="fivesuperior" unicode="&#x2075;" horiz-adv-x="180" d="M76 396 C118 396 161 426 161 495 C161 565 126 585 74 585 L63 585 L67 672 L155 672 L155 708 L37 708 L27 548 C38 550 48 551 57 551 C98 551 120 541 120 492 C120 452 101 431 74 431 C55 431 38 435 19 444 L19 407 C33 401 51 396 76 396 L76 396 Z " />
<glyph glyph-name="sixsuperior" unicode="&#x2076;" horiz-adv-x="202" d="M101 396 C156 396 184 441 184 502 C184 566 158 592 115 592 C93 592 76 585 62 576 C67 644 86 677 126 677 C138 677 151 676 169 666 L169 704 C154 710 138 713 124 713 C57 713 21 642 21 532 C21 448 45 396 101 396 L101 396 Z M105 560 C133 560 143 541 143 499 C143 453 131 431 102 431 C72 431 61 468 61 532 L61 545 C72 553 86 560 105 560 L105 560 Z " />
<glyph glyph-name="sevensuperior" unicode="&#x2077;" horiz-adv-x="161" d="M60 400 L156 685 L156 708 L11 708 L11 672 L114 672 L21 403 L22 400 L60 400 Z " />
<glyph glyph-name="eightsuperior" unicode="&#x2078;" horiz-adv-x="203" d="M181 484 C181 525 160 544 135 558 C159 575 177 600 177 636 C177 683 148 713 100 713 C54 713 27 675 27 629 C27 592 42 572 62 558 C40 542 20 513 20 479 C20 428 48 396 98 396 C148 396 181 434 181 484 L181 484 Z M59 483 C59 513 70 531 83 545 C112 529 142 517 142 481 C142 438 121 429 100 429 C76 429 59 445 59 483 L59 483 Z M137 631 C137 607 128 587 111 570 C86 583 64 597 64 632 C64 664 78 678 99 678 C128 678 137 659 137 631 L137 631 Z " />
<glyph glyph-name="ninesuperior" unicode="&#x2079;" horiz-adv-x="201" d="M32 405 C48 398 63 396 77 396 C144 396 181 465 181 577 C181 655 158 713 101 713 C45 713 18 668 18 606 C18 544 43 516 87 516 C108 516 125 523 138 532 C132 464 113 431 76 431 C64 431 51 432 32 442 L32 405 Z M96 549 C68 549 58 567 58 609 C58 658 71 679 99 679 C130 679 140 640 140 577 L140 563 C129 555 114 549 96 549 L96 549 Z " />
<glyph glyph-name="plussuperior" unicode="&#x207a;" horiz-adv-x="241" d="M16 533 L101 533 L101 440 L139 440 L139 533 L225 533 L225 573 L139 573 L139 666 L101 666 L101 573 L16 573 L16 533 Z " />
<glyph glyph-name="minussuperior" unicode="&#x207b;" horiz-adv-x="265" d="M29 536 L236 536 L236 575 L29 575 L29 536 Z " />
<glyph glyph-name="equalsuperior" unicode="&#x207c;" horiz-adv-x="253" d="M29 471 L224 471 L224 512 L29 512 L29 471 Z M29 601 L224 601 L224 641 L29 641 L29 601 Z " />
<glyph glyph-name="parenleftsuperior" unicode="&#x207d;" horiz-adv-x="134" d="M136 306 C119 330 57 430 57 579 C57 726 117 819 135 841 L94 841 C77 821 15 731 15 578 C15 427 66 343 94 306 L136 306 Z " />
<glyph glyph-name="parenrightsuperior" unicode="&#x207e;" horiz-adv-x="134" d="M41 306 C68 339 119 422 119 573 C119 726 60 817 41 841 L-1 841 C16 818 78 721 78 572 C78 425 17 328 -1 306 L41 306 Z " />
<glyph glyph-name="n.superior" unicode="&#x207f;" horiz-adv-x="264" d="M37 400 L81 400 L81 636 C101 654 126 671 147 671 C182 671 187 646 187 591 L187 400 L231 400 L231 602 C231 680 213 713 165 713 C129 713 97 692 77 672 L72 708 L27 708 L37 637 L37 400 Z " />
<glyph glyph-name="zeroinferior" unicode="&#x2080;" horiz-adv-x="223" d="M109 -4 C170 -4 202 49 202 157 C202 245 180 313 113 313 C53 313 22 254 22 148 C22 48 47 -4 109 -4 L109 -4 Z M112 31 C77 31 65 63 65 149 C65 232 76 277 111 277 C146 277 159 235 159 155 C159 72 147 31 112 31 L112 31 Z " />
<glyph glyph-name="oneinferior" unicode="&#x2081;" horiz-adv-x="139" d="M104 0 L104 312 L75 312 L7 286 L7 252 L62 268 L62 0 L104 0 Z " />
<glyph glyph-name="twoinferior" unicode="&#x2082;" horiz-adv-x="191" d="M124 221 C124 157 71 95 15 32 L15 0 L172 0 L172 38 L65 38 L65 40 C117 92 167 159 167 225 C167 287 134 313 90 313 C66 313 40 307 21 294 L22 257 C46 274 64 277 81 277 C107 277 124 258 124 221 L124 221 Z " />
<glyph glyph-name="threeinferior" unicode="&#x2083;" horiz-adv-x="181" d="M73 -4 C121 -4 161 21 161 89 C161 135 134 162 103 164 L103 166 C121 171 150 195 150 243 C150 288 125 313 82 313 C60 313 38 307 21 294 L21 258 C41 272 58 277 74 277 C96 277 109 263 109 234 C109 200 83 174 56 170 L56 145 C96 143 119 126 119 87 C119 52 104 31 75 31 C56 31 38 34 18 43 L18 6 C31 0 48 -4 73 -4 L73 -4 Z " />
<glyph glyph-name="fourinferior" unicode="&#x2084;" horiz-adv-x="192" d="M107 0 L148 0 L148 79 L177 79 L177 113 L148 113 L148 312 L105 312 L9 113 L9 79 L107 79 L107 0 Z M43 113 L105 246 L107 246 L107 113 L43 113 Z " />
<glyph glyph-name="fiveinferior" unicode="&#x2085;" horiz-adv-x="180" d="M76 -4 C118 -4 161 26 161 95 C161 165 126 185 74 185 L63 185 L67 272 L155 272 L155 308 L37 308 L27 148 C38 150 48 151 57 151 C98 151 120 141 120 92 C120 52 101 31 74 31 C55 31 38 35 19 44 L19 7 C33 1 51 -4 76 -4 L76 -4 Z " />
<glyph glyph-name="sixinferior" unicode="&#x2086;" horiz-adv-x="202" d="M101 -4 C156 -4 184 41 184 102 C184 166 158 192 115 192 C93 192 76 185 62 176 C67 244 86 277 126 277 C138 277 151 276 169 266 L169 304 C154 310 138 313 124 313 C57 313 21 242 21 132 C21 48 45 -4 101 -4 L101 -4 Z M105 160 C133 160 143 141 143 99 C143 53 131 31 102 31 C72 31 61 68 61 132 L61 145 C72 153 86 160 105 160 L105 160 Z " />
<glyph glyph-name="seveninferior" unicode="&#x2087;" horiz-adv-x="160" d="M60 0 L156 285 L156 308 L11 308 L11 272 L114 272 L21 3 L22 0 L60 0 Z " />
<glyph glyph-name="eightinferior" unicode="&#x2088;" horiz-adv-x="203" d="M181 84 C181 125 160 144 135 158 C159 175 177 200 177 236 C177 283 148 313 100 313 C54 313 27 275 27 229 C27 192 42 172 62 158 C40 142 20 113 20 79 C20 28 48 -4 98 -4 C148 -4 181 34 181 84 L181 84 Z M59 83 C59 113 70 131 83 145 C112 129 142 117 142 81 C142 38 121 29 100 29 C76 29 59 45 59 83 L59 83 Z M137 231 C137 207 128 187 111 170 C86 183 64 197 64 232 C64 264 78 278 99 278 C128 278 137 259 137 231 L137 231 Z " />
<glyph glyph-name="nineinferior" unicode="&#x2089;" horiz-adv-x="201" d="M32 5 C48 -2 63 -4 77 -4 C144 -4 181 65 181 177 C181 255 158 313 101 313 C45 313 18 268 18 206 C18 144 43 116 87 116 C108 116 125 123 138 132 C132 64 113 31 76 31 C64 31 51 32 32 42 L32 5 Z M96 149 C68 149 58 167 58 209 C58 258 71 279 99 279 C130 279 140 240 140 177 L140 163 C129 155 114 149 96 149 L96 149 Z " />
<glyph glyph-name="plus.inferior" unicode="&#x208a;" horiz-adv-x="241" d="M16 133 L101 133 L101 40 L139 40 L139 133 L225 133 L225 173 L139 173 L139 266 L101 266 L101 173 L16 173 L16 133 Z " />
<glyph glyph-name="minus.inferior" unicode="&#x208b;" horiz-adv-x="265" d="M29 136 L236 136 L236 175 L29 175 L29 136 Z " />
<glyph glyph-name="equal.inferior" unicode="&#x208c;" horiz-adv-x="253" d="M29 71 L224 71 L224 112 L29 112 L29 71 Z M29 201 L224 201 L224 241 L29 241 L29 201 Z " />
<glyph glyph-name="parenleft.inferior" unicode="&#x208d;" horiz-adv-x="134" d="M136 -94 C119 -70 57 30 57 179 C57 326 117 419 135 441 L94 441 C77 421 15 331 15 178 C15 27 66 -57 94 -94 L136 -94 Z " />
<glyph glyph-name="parenright.inferior" unicode="&#x208e;" horiz-adv-x="134" d="M41 -94 C68 -61 119 22 119 173 C119 326 60 417 41 441 L-1 441 C16 418 78 321 78 172 C78 25 17 -72 -1 -94 L41 -94 Z " />
<glyph glyph-name="a.inferior" unicode="&#x2090;" horiz-adv-x="233" d="M163 0 L207 0 L198 64 L198 223 C198 292 165 314 118 314 C90 314 55 308 30 297 L30 255 C49 263 83 271 107 271 C139 271 154 253 154 211 L154 169 L124 169 C57 169 17 140 17 78 C17 27 39 -5 83 -5 C117 -5 142 14 158 33 L163 0 Z M93 33 C71 33 61 47 61 82 C61 121 81 134 119 134 L154 134 L154 69 C136 51 114 33 93 33 L93 33 Z " />
<glyph glyph-name="e.inferior" unicode="&#x2091;" horiz-adv-x="240" d="M214 13 L214 52 C189 40 163 35 138 35 C92 35 67 64 65 143 L219 143 L219 166 C219 256 192 314 123 314 C57 314 21 250 21 149 C21 42 58 -5 131 -5 C166 -5 192 1 214 13 L214 13 Z M122 274 C161 274 171 229 172 177 L65 177 C69 246 91 274 122 274 L122 274 Z " />
<glyph glyph-name="o.inferior" unicode="&#x2092;" horiz-adv-x="249" d="M124 -5 C190 -5 228 63 228 155 C228 267 195 314 127 314 C63 314 20 244 20 152 C20 39 60 -5 124 -5 L124 -5 Z M126 35 C82 35 66 72 66 154 C66 226 81 273 126 273 C175 273 184 227 184 154 C184 81 169 35 126 35 L126 35 Z " />
<glyph glyph-name="x.inferior" unicode="&#x2093;" horiz-adv-x="233" d="M62 308 L13 308 L89 155 L6 0 L54 0 L116 128 L173 0 L223 0 L146 160 L222 308 L176 308 L119 185 L62 308 Z " />
<glyph glyph-name="h.inferior" unicode="&#x2095;" horiz-adv-x="261" d="M184 0 L228 0 L228 202 C228 279 210 314 161 314 C129 314 100 296 79 276 L79 476 L35 476 L35 0 L79 0 L79 237 C98 255 124 271 145 271 C179 271 184 246 184 191 L184 0 Z " />
<glyph glyph-name="k.inferior" unicode="&#x2096;" horiz-adv-x="230" d="M170 0 L221 0 L136 173 L224 308 L174 308 L92 176 L92 164 L170 0 Z M35 0 L79 0 L79 476 L35 476 L35 0 Z " />
<glyph glyph-name="l.inferior" unicode="&#x2097;" horiz-adv-x="123" d="M39 0 L83 0 L83 476 L39 476 L39 0 Z " />
<glyph glyph-name="m.inferior" unicode="&#x2098;" horiz-adv-x="402" d="M325 0 L368 0 L368 203 C368 280 351 313 301 313 C268 313 238 293 217 271 C207 300 188 313 159 313 C126 313 97 294 77 272 L72 308 L28 308 L37 237 L37 0 L81 0 L81 237 C99 255 121 271 142 271 C178 271 183 248 183 191 L183 0 L226 0 L226 203 C226 215 225 227 224 237 C242 255 264 271 284 271 C319 271 325 248 325 191 L325 0 Z " />
<glyph glyph-name="n.inferior" unicode="&#x2099;" horiz-adv-x="264" d="M37 0 L81 0 L81 236 C101 254 126 271 147 271 C182 271 187 246 187 191 L187 0 L231 0 L231 202 C231 280 213 313 165 313 C129 313 97 292 77 272 L72 308 L27 308 L37 237 L37 0 Z " />
<glyph glyph-name="p.inferior" unicode="&#x209a;" horiz-adv-x="254" d="M37 -142 L81 -142 L81 0 C93 -3 108 -5 123 -5 C189 -5 234 50 234 167 C234 258 206 313 152 313 C122 313 97 298 76 277 L72 308 L27 308 L37 237 L37 -142 Z M81 243 C98 259 117 272 137 272 C175 272 188 235 188 160 C188 84 174 35 123 35 C110 35 94 37 81 41 L81 243 Z " />
<glyph glyph-name="s.inferior" unicode="&#x209b;" horiz-adv-x="204" d="M94 -5 C143 -5 185 20 185 88 C185 149 146 165 109 177 C81 186 62 195 62 228 C62 260 83 273 109 273 C132 273 148 270 177 256 L177 299 C158 310 132 313 111 313 C62 313 20 283 20 224 C20 168 56 153 90 140 C121 130 145 119 145 87 C145 50 127 35 97 35 C74 35 53 40 23 53 L23 10 C44 1 65 -5 94 -5 L94 -5 Z " />
<glyph glyph-name="t.inferior" unicode="&#x209c;" horiz-adv-x="183" d="M12 267 L46 267 L46 85 C46 17 75 -5 114 -5 C134 -5 153 -2 166 6 L166 44 C155 39 141 35 128 35 C103 35 89 50 89 96 L89 267 L160 267 L160 308 L89 308 L89 388 L46 388 L46 308 L12 308 L12 267 Z " />
<glyph glyph-name="colonsign" unicode="&#x20a1;" horiz-adv-x="432" d="M168 -89 L207 -89 L229 -9 L237 -9 C288 -9 332 5 353 19 L353 72 C319 52 287 45 249 45 L244 45 L414 668 L375 668 L349 573 C337 578 324 583 306 586 L329 668 L290 668 L268 590 C260 591 252 591 243 591 C101 591 34 457 34 288 C34 171 60 82 115 33 L82 -89 L122 -89 L149 10 C162 4 176 -1 191 -4 L168 -89 Z M96 296 C96 452 153 537 246 537 L254 537 L135 106 C109 148 96 210 96 296 L96 296 Z M166 72 L292 534 C307 531 321 527 335 521 L206 51 C191 55 178 62 166 72 L166 72 Z " />
<glyph glyph-name="cruzeiro" unicode="&#x20a2;" horiz-adv-x="421" d="M250 -7 C302 -7 347 6 368 19 L368 72 C334 52 297 46 259 46 L250 46 L250 214 C275 252 307 288 348 288 C358 288 367 286 376 283 L376 338 C365 342 356 343 345 343 C305 343 270 305 246 269 L238 335 L186 335 L199 234 L199 57 C133 83 99 159 99 295 C99 448 154 539 252 539 C290 539 330 533 368 511 L368 567 C345 578 312 591 252 591 C105 591 39 455 39 287 C39 109 105 -7 250 -7 L250 -7 Z " />
<glyph glyph-name="franc" unicode="&#x20a3;" horiz-adv-x="488" d="M61 0 L119 0 L119 279 L268 279 L275 227 L275 0 L332 0 L332 206 C357 245 389 280 432 280 C441 280 450 278 459 275 L459 334 C448 338 439 339 429 339 C389 339 353 299 328 263 L319 330 L119 330 L119 531 L331 531 L331 583 L61 583 L61 0 Z " />
<glyph glyph-name="lira" unicode="&#x20a4;" horiz-adv-x="362" d="M274 355 L133 355 C130 379 128 401 128 421 C128 497 163 537 214 537 C251 537 277 529 308 508 L308 567 C283 582 251 591 210 591 C143 591 73 543 73 421 C73 400 74 378 77 355 L42 355 L42 306 L83 306 C86 279 91 253 94 229 L42 229 L42 180 L98 180 C99 174 99 168 99 163 C99 125 90 89 75 50 L40 50 L40 0 L328 0 L328 50 L132 50 C145 89 153 132 153 173 L153 180 L274 180 L274 229 L150 229 C147 254 143 280 139 306 L274 306 L274 355 Z " />
<glyph glyph-name="mill" unicode="&#x20a5;" horiz-adv-x="568" d="M261 0 L316 0 L316 269 L342 380 C363 396 386 407 409 407 C463 407 471 376 471 304 L471 0 L526 0 L526 321 C526 422 497 459 428 459 C402 459 377 451 356 438 L388 574 L341 574 L302 411 C288 445 261 459 219 459 C170 459 129 431 100 400 L92 450 L36 450 L51 347 L51 0 L107 0 L107 356 C133 383 165 407 199 407 C252 407 261 376 261 304 L261 237 L176 -120 L224 -120 L261 36 L261 0 Z " />
<glyph glyph-name="naira" unicode="&#x20a6;" horiz-adv-x="508" d="M81 0 L140 0 L138 223 L255 223 L367 0 L423 0 L423 223 L474 223 L474 267 L423 267 L423 319 L474 319 L474 363 L423 363 L423 583 L365 583 L366 363 L248 363 L137 583 L81 583 L81 363 L35 363 L35 319 L81 319 L81 267 L35 267 L35 223 L81 223 L81 0 Z M271 319 L366 319 L366 267 L297 267 L271 319 Z M138 319 L207 319 L233 267 L138 267 L138 319 Z M140 454 L185 363 L138 363 L138 454 L140 454 Z M367 134 L365 134 L320 223 L366 223 L367 134 Z " />
<glyph glyph-name="pesetas" unicode="&#x20a7;" horiz-adv-x="878" d="M60 0 L119 0 L119 213 L167 213 C289 213 341 291 341 402 C341 532 286 583 194 583 L60 583 L60 0 Z M359 400 L412 400 L412 104 C412 23 454 -7 508 -7 C537 -7 564 -3 584 9 L584 55 C566 48 546 44 526 44 C490 44 469 63 468 115 L468 400 L578 400 L578 450 L468 450 L468 570 L412 570 L412 450 L359 450 L359 400 Z M707 -7 C778 -7 842 31 842 129 C842 210 788 236 733 256 C687 274 656 289 656 336 C656 382 687 408 732 408 C763 408 789 404 828 386 L828 441 C802 454 764 459 733 459 C658 459 603 412 603 332 C603 257 654 229 706 210 C753 193 790 175 790 127 C790 69 758 45 712 45 C678 45 646 51 606 68 L606 13 C635 1 668 -7 707 -7 L707 -7 Z M177 531 C247 531 281 489 281 400 C281 287 226 265 162 263 L119 263 L119 531 L177 531 Z " />
<glyph glyph-name="rupee" unicode="&#x20a8;" horiz-adv-x="631" d="M454 41 C403 41 353 73 297 178 C291 189 271 224 258 249 C310 277 339 332 339 409 C339 533 285 583 191 583 L61 583 L61 0 L120 0 L120 228 L165 228 C179 228 193 229 206 231 C222 203 247 159 252 149 C308 40 357 -6 452 -6 C527 -6 596 29 596 129 C596 210 542 233 488 256 C443 275 411 293 411 336 C411 382 439 410 483 410 C515 410 542 405 581 387 L581 440 C553 455 514 461 483 461 C408 461 357 410 357 333 C357 257 409 234 460 213 C506 194 544 172 544 127 C544 66 508 41 454 41 L454 41 Z M175 531 C245 531 278 498 278 407 C278 294 224 279 160 279 L120 279 L120 531 L175 531 Z " />
<glyph glyph-name="won" unicode="&#x20a9;" horiz-adv-x="671" d="M630 583 L570 583 L526 379 L407 379 L367 583 L300 583 L256 379 L142 379 L106 583 L44 583 L84 379 L38 379 L38 333 L93 333 L107 259 L38 259 L38 213 L116 213 L158 0 L224 0 L270 213 L386 213 L427 0 L492 0 L542 213 L631 213 L631 259 L553 259 L571 333 L631 333 L631 379 L582 379 L630 583 Z M416 333 L516 333 L500 259 L430 259 L416 333 Z M150 333 L246 333 L230 259 L163 259 L150 333 Z M296 333 L362 333 L377 259 L280 259 L296 333 Z M192 88 L171 213 L221 213 L196 88 L192 88 Z M462 93 L439 213 L490 213 L465 93 L462 93 Z M329 487 L334 487 L354 379 L306 379 L329 487 Z " />
<glyph glyph-name="sheqel" unicode="&#x20aa;" horiz-adv-x="519" d="M61 0 L109 0 L109 522 L203 522 C281 522 294 481 294 368 L294 251 L341 251 L341 363 C341 526 321 583 185 583 L61 583 L61 0 Z M180 0 L286 0 C446 0 461 87 461 239 L461 583 L414 583 L414 234 C414 115 394 62 300 62 L229 62 L229 341 L180 341 L180 0 Z " />
<glyph glyph-name="dong" unicode="&#x20ab;" horiz-adv-x="382" d="M153 563 L256 563 L256 482 C236 488 211 492 188 492 C105 492 38 439 38 287 C38 152 94 107 156 107 C196 107 233 130 260 164 L268 114 L319 114 L307 201 L307 563 L346 563 L346 608 L307 608 L307 684 L256 684 L256 608 L153 608 L153 563 Z M168 154 C117 154 91 192 91 295 C91 418 133 446 191 446 C214 446 236 440 256 433 L256 205 C226 176 200 154 168 154 L168 154 Z M42 0 L327 0 L327 49 L42 49 L42 0 Z " />
<glyph glyph-name="Euro" unicode="&#x20ac;" horiz-adv-x="411" d="M33 331 L79 331 C78 316 78 301 78 286 C78 272 78 258 79 245 L33 245 L33 200 L82 200 C98 64 156 -7 265 -7 C310 -7 349 3 371 16 L371 71 C338 51 311 48 276 48 C207 48 162 95 147 200 L298 200 L298 245 L142 245 C141 260 141 276 141 294 C141 307 141 319 142 331 L298 331 L298 376 L147 376 C163 481 210 537 273 537 C303 537 330 535 367 516 L367 573 C344 583 320 590 272 590 C169 590 104 507 84 376 L33 376 L33 331 Z " />
<glyph glyph-name="uni20AD" unicode="&#x20ad;" horiz-adv-x="413" d="M72 0 L131 0 L131 281 L155 281 L308 0 L376 0 L219 281 L360 281 L360 329 L217 329 L381 583 L316 583 L160 329 L131 329 L131 583 L72 583 L72 329 L34 329 L34 281 L72 281 L72 0 Z " />
<glyph glyph-name="uni20AE" unicode="&#x20ae;" horiz-adv-x="399" d="M25 531 L169 531 L169 327 L88 282 L88 231 L169 277 L169 203 L88 158 L88 107 L169 153 L169 0 L230 0 L230 187 L316 236 L316 286 L230 237 L230 311 L316 360 L316 409 L230 361 L230 531 L374 531 L374 583 L25 583 L25 531 Z " />
<glyph glyph-name="uni20B1" unicode="&#x20b1;" horiz-adv-x="447" d="M80 0 L139 0 L139 213 L187 213 C278 213 330 256 351 325 L414 325 L414 365 L359 365 C360 377 361 389 361 402 C361 413 361 424 360 434 L414 434 L414 475 L353 475 C335 551 286 583 214 583 L80 583 L80 475 L37 475 L37 434 L80 434 L80 365 L37 365 L37 325 L80 325 L80 0 Z M301 400 C301 387 300 375 299 365 L139 365 L139 434 L299 434 C300 423 301 412 301 400 L301 400 Z M182 263 L139 263 L139 325 L289 325 C269 276 228 264 182 263 L182 263 Z M197 531 C243 531 273 513 289 475 L139 475 L139 531 L197 531 Z " />
<glyph glyph-name="uni20B4" unicode="&#x20b4;" horiz-adv-x="398" d="M361 374 L314 374 C325 394 332 418 332 448 C332 532 281 591 194 591 C150 591 113 582 85 569 L85 509 C116 528 153 537 190 537 C244 537 274 499 274 449 C274 418 266 394 251 374 L35 374 L35 327 L196 327 L191 324 C163 309 135 292 113 269 L35 269 L35 222 L83 222 C74 201 69 177 69 147 C69 36 131 -7 215 -7 C254 -7 289 1 327 16 L327 77 C295 59 255 49 216 49 C161 49 125 79 125 150 C125 179 131 202 142 222 L361 222 L361 269 L189 269 C198 275 208 281 219 287 C239 298 259 311 276 327 L361 327 L361 374 Z " />
<glyph glyph-name="uni20B9" unicode="&#x20b9;" horiz-adv-x="373" d="M342 423 L287 423 C283 474 264 509 236 531 L328 531 L342 583 L46 583 L46 531 L115 531 C184 531 220 497 226 423 L46 423 L46 373 L226 373 C218 286 167 265 98 265 L45 265 L45 213 L113 213 C124 213 135 213 145 215 L247 0 L315 0 L198 231 C249 257 280 307 286 373 L328 373 L342 423 Z " />
<glyph glyph-name="uni2113" unicode="&#x2113;" horiz-adv-x="286" d="M15 187 L36 155 L72 184 L72 140 C72 34 97 -7 156 -7 C196 -7 221 4 249 25 L233 63 C214 47 194 38 171 38 C139 38 125 64 125 154 L125 233 C142 249 158 266 171 279 C236 353 268 409 268 477 C268 565 229 590 177 590 C104 590 72 519 72 414 L72 239 C50 218 29 198 15 187 L15 187 Z M125 426 C125 511 143 546 174 546 C206 546 219 517 219 471 C219 424 194 367 143 311 L125 292 L125 426 Z " />
<glyph glyph-name="uni2116" unicode="&#x2116;" horiz-adv-x="699" d="M462 180 L656 180 L656 223 L462 223 L462 180 Z M558 268 C623 268 658 337 658 428 C658 544 625 586 561 586 C500 586 459 526 459 425 C459 312 496 268 558 268 L558 268 Z M559 307 C516 307 503 347 503 426 C503 496 515 545 559 545 C608 545 615 498 615 425 C615 356 602 307 559 307 L559 307 Z M60 0 L119 0 L117 454 L119 454 L346 0 L402 0 L402 583 L344 583 L346 134 L344 134 L116 583 L60 583 L60 0 Z " />
<glyph glyph-name="uni2117" unicode="&#x2117;" horiz-adv-x="511" d="M255 -7 C385 -7 473 110 473 289 C473 468 385 591 255 591 C127 591 38 468 38 289 C38 110 126 -7 255 -7 L255 -7 Z M255 18 C144 18 63 122 63 289 C63 454 144 566 255 566 C366 566 448 459 448 289 C448 122 368 18 255 18 L255 18 Z M181 94 L222 94 L222 225 L253 225 C334 225 371 276 371 350 C371 431 333 467 271 467 L181 467 L181 94 Z M258 430 C305 429 329 405 329 350 C329 279 291 263 249 263 L222 263 L222 430 L258 430 Z " />
<glyph glyph-name="servicemark" unicode="&#x2120;" horiz-adv-x="487" d="M198 299 L234 299 L249 512 L251 512 L298 299 L337 299 L387 512 L389 512 L404 299 L441 299 L420 583 L372 583 L321 366 L319 366 L270 583 L221 583 L198 299 Z M50 306 C69 298 86 294 105 294 C147 294 178 318 178 376 C178 426 144 444 116 462 C94 475 84 489 84 513 C84 541 98 555 121 555 C138 555 154 551 170 542 L170 578 C156 585 140 588 119 588 C79 588 49 561 49 510 C49 468 76 447 101 431 C126 416 144 403 144 373 C144 340 130 328 105 328 C84 328 65 334 50 343 L50 306 Z " />
<glyph glyph-name="trademark" unicode="&#x2122;" horiz-adv-x="516" d="M227 299 L263 299 L278 512 L280 512 L327 299 L366 299 L416 511 L418 511 L433 299 L470 299 L449 583 L400 583 L350 366 L347 366 L299 583 L249 583 L227 299 Z M49 550 L115 550 L115 299 L152 299 L152 550 L217 550 L217 583 L49 583 L49 550 Z " />
<glyph glyph-name="Omega" unicode="&#x2126;" horiz-adv-x="492" d="M244 591 C104 591 43 443 43 303 C43 186 87 99 138 55 L138 53 L45 53 L45 0 L200 0 L200 49 C143 105 106 181 106 297 C106 454 160 539 245 539 C329 539 386 454 386 297 C386 181 349 106 292 49 L292 0 L447 0 L447 53 L354 53 L354 55 C406 103 449 193 449 310 C449 451 385 591 244 591 L244 591 Z " />
<glyph glyph-name="estimated" unicode="&#x212e;" horiz-adv-x="412" d="M214 -8 C277 -8 330 17 367 88 L343 107 C311 49 271 27 217 27 C144 27 105 93 105 187 L105 215 L374 215 L374 270 C374 378 317 465 215 465 C102 465 38 357 38 217 C38 69 108 -8 214 -8 L214 -8 Z M105 247 L105 264 C105 368 146 436 215 436 C283 436 307 357 307 285 L307 247 L105 247 Z " />
<glyph glyph-name="onethird" unicode="&#x2153;" horiz-adv-x="444" d="M122 264 L122 576 L93 576 L25 550 L25 516 L80 532 L80 264 L122 264 Z M324 -4 C372 -4 412 21 412 89 C412 135 385 162 354 164 L354 166 C372 171 401 195 401 243 C401 288 376 313 333 313 C311 313 289 307 272 294 L272 258 C292 272 309 277 325 277 C347 277 360 263 360 234 C360 200 334 174 307 170 L307 145 C347 143 370 126 370 87 C370 52 355 31 326 31 C307 31 289 34 269 43 L269 6 C282 0 299 -4 324 -4 L324 -4 Z M111 0 L353 558 L353 562 L320 562 L77 4 L77 0 L111 0 Z " />
<glyph glyph-name="twothirds" unicode="&#x2154;" horiz-adv-x="454" d="M142 488 C142 424 89 362 33 299 L33 267 L190 267 L190 305 L83 305 L83 307 C135 359 185 426 185 492 C185 554 152 580 108 580 C84 580 58 574 39 561 L40 524 C64 541 82 544 99 544 C125 544 142 525 142 488 L142 488 Z M334 -4 C382 -4 422 21 422 89 C422 135 395 162 364 164 L364 166 C382 171 411 195 411 243 C411 288 386 313 343 313 C321 313 299 307 282 294 L282 258 C302 272 319 277 335 277 C357 277 370 263 370 234 C370 200 344 174 317 170 L317 145 C357 143 380 126 380 87 C380 52 365 31 336 31 C317 31 299 34 279 43 L279 6 C292 0 309 -4 334 -4 L334 -4 Z M132 0 L374 558 L374 562 L341 562 L98 4 L98 0 L132 0 Z " />
<glyph glyph-name="uni215B" unicode="&#x215b;" horiz-adv-x="458" d="M425 84 C425 125 404 144 379 158 C403 175 421 200 421 236 C421 283 392 313 344 313 C298 313 271 275 271 229 C271 192 286 172 306 158 C284 142 264 113 264 79 C264 28 292 -4 342 -4 C392 -4 425 34 425 84 L425 84 Z M108 0 L350 558 L350 562 L317 562 L74 4 L74 0 L108 0 Z M122 262 L122 574 L93 574 L25 548 L25 514 L80 530 L80 262 L122 262 Z M303 83 C303 113 314 131 327 145 C356 129 386 117 386 81 C386 38 365 29 344 29 C320 29 303 45 303 83 L303 83 Z M381 231 C381 207 372 187 355 170 C330 183 308 197 308 232 C308 264 322 278 343 278 C372 278 381 259 381 231 L381 231 Z " />
<glyph glyph-name="arrowleft" unicode="&#x2190;" horiz-adv-x="537" d="M234 92 L124 237 L537 237 L537 292 L124 292 L234 437 L166 437 L36 264 L167 92 L234 92 Z " />
<glyph glyph-name="arrowup" unicode="&#x2191;" horiz-adv-x="439" d="M395 442 L223 573 L50 443 L50 375 L195 484 L195 72 L250 72 L250 485 L395 375 L395 442 Z " />
<glyph glyph-name="arrowright" unicode="&#x2192;" horiz-adv-x="535" d="M370 92 L501 264 L371 437 L302 437 L412 292 L0 292 L0 237 L413 237 L302 92 L370 92 Z " />
<glyph glyph-name="arrowdown" unicode="&#x2193;" horiz-adv-x="439" d="M50 202 L223 72 L395 203 L395 271 L250 160 L250 573 L195 573 L195 161 L50 271 L50 202 Z " />
<glyph glyph-name="uni2196" unicode="&#x2196;" horiz-adv-x="443" d="M260 529 L46 500 L16 285 L64 237 L89 418 L380 126 L420 165 L127 457 L308 481 L260 529 Z " />
<glyph glyph-name="uni2197" unicode="&#x2197;" horiz-adv-x="450" d="M426 285 L396 500 L182 529 L134 481 L314 457 L22 166 L61 126 L353 418 L378 237 L426 285 Z " />
<glyph glyph-name="uni2198" unicode="&#x2198;" horiz-adv-x="443" d="M178 119 L392 149 L421 363 L374 411 L349 231 L58 523 L18 484 L310 192 L129 167 L178 119 Z " />
<glyph glyph-name="uni2199" unicode="&#x2199;" horiz-adv-x="443" d="M24 364 L54 150 L268 120 L316 168 L136 193 L427 485 L388 524 L97 232 L72 413 L24 364 Z " />
<glyph glyph-name="partialdiff" unicode="&#x2202;" horiz-adv-x="362" d="M179 461 C98 461 29 374 29 222 C29 62 84 -8 176 -8 C274 -8 324 100 324 231 C324 409 299 570 142 672 L109 638 C190 577 222 541 249 440 C230 455 206 461 179 461 L179 461 Z M266 225 C266 118 242 43 177 43 C115 43 88 95 88 225 C88 334 116 410 181 410 C210 410 232 405 258 386 C263 344 266 277 266 225 L266 225 Z " />
<glyph glyph-name="Delta" unicode="&#x2206;" horiz-adv-x="396" d="M374 0 L374 46 L237 583 L174 583 L21 46 L22 0 L374 0 Z M200 500 L204 500 L309 53 L81 53 L200 500 Z " />
<glyph glyph-name="product" unicode="&#x220f;" horiz-adv-x="508" d="M148 -207 L148 531 L358 531 L358 -207 L416 -207 L416 531 L488 531 L488 583 L21 583 L21 531 L89 531 L89 -207 L148 -207 Z " />
<glyph glyph-name="summation" unicode="&#x2211;" horiz-adv-x="358" d="M28 -207 L331 -207 L331 -153 L93 -153 L231 217 L99 531 L315 531 L315 583 L30 583 L30 535 L167 215 L28 -160 L28 -207 Z " />
<glyph glyph-name="minus" unicode="&#x2212;" horiz-adv-x="385" d="M50 271 L335 271 L335 320 L50 320 L50 271 Z " />
<glyph glyph-name="radical" unicode="&#x221a;" horiz-adv-x="393" d="M138 0 L198 0 L382 653 L321 653 L174 84 L169 84 L82 450 L21 450 L138 0 Z " />
<glyph glyph-name="infinity" unicode="&#x221e;" horiz-adv-x="618" d="M159 506 C84 506 40 402 40 294 C40 177 80 82 159 82 C228 82 277 171 311 253 C345 173 390 82 459 82 C538 82 578 182 578 294 C578 401 534 506 459 506 C392 506 345 419 311 338 C276 418 230 506 159 506 L159 506 Z M162 129 C120 129 87 187 87 294 C87 398 120 459 162 459 C213 459 257 360 286 295 C258 229 214 129 162 129 L162 129 Z M457 129 C404 129 363 231 334 295 C363 359 405 459 457 459 C499 459 532 398 532 294 C532 187 499 129 457 129 L457 129 Z " />
<glyph glyph-name="integral" unicode="&#x222b;" horiz-adv-x="305" d="M125 -33 C125 -124 108 -163 64 -163 C45 -163 34 -161 16 -157 L16 -207 C28 -211 47 -213 64 -213 C141 -213 178 -156 178 -43 L178 477 C178 570 198 609 243 609 C261 609 271 607 290 603 L290 655 C277 658 264 661 246 661 C169 661 125 604 125 491 L125 -33 Z " />
<glyph glyph-name="approxequal" unicode="&#x2248;" horiz-adv-x="393" d="M262 344 C298 344 325 372 342 402 L314 430 C300 407 286 392 263 392 C215 392 189 431 134 431 C98 431 65 403 50 380 L75 349 C88 363 105 382 135 382 C177 382 213 344 262 344 L262 344 Z M263 171 C299 171 326 199 343 229 L315 257 C301 234 287 219 264 219 C216 219 190 258 135 258 C99 258 66 230 51 207 L76 176 C89 190 106 209 136 209 C178 209 214 171 263 171 L263 171 Z " />
<glyph glyph-name="notequal" unicode="&#x2260;" horiz-adv-x="367" d="M48 361 L195 361 L138 231 L48 231 L48 183 L117 183 L47 22 L91 22 L161 183 L322 183 L322 231 L182 231 L239 361 L322 361 L322 410 L260 410 L327 562 L283 562 L217 410 L48 410 L48 361 Z " />
<glyph glyph-name="lessequal" unicode="&#x2264;" horiz-adv-x="377" d="M45 36 L333 36 L333 86 L45 86 L45 36 Z M322 129 L322 187 L110 331 L110 335 L322 478 L322 535 L46 348 L46 315 L322 129 Z " />
<glyph glyph-name="greaterequal" unicode="&#x2265;" horiz-adv-x="377" d="M333 86 L44 86 L44 36 L333 36 L333 86 Z M332 315 L332 348 L55 535 L55 476 L266 335 L266 331 L55 187 L55 129 L332 315 Z " />
<glyph glyph-name="uni2460" unicode="&#x2460;" horiz-adv-x="697" d="M348 -3 C511 -3 644 128 644 291 C644 454 511 586 348 586 C185 586 54 454 54 291 C54 128 185 -3 348 -3 L348 -3 Z M348 28 C204 28 88 147 88 291 C88 435 204 555 348 555 C492 555 609 435 609 291 C609 147 492 28 348 28 L348 28 Z M372 138 L372 449 L344 449 L252 420 L252 387 L325 401 L325 138 L372 138 Z " />
<glyph glyph-name="uni2461" unicode="&#x2461;" horiz-adv-x="697" d="M348 -3 C511 -3 644 128 644 291 C644 454 511 586 348 586 C185 586 54 454 54 291 C54 128 185 -3 348 -3 L348 -3 Z M348 28 C204 28 88 147 88 291 C88 435 204 555 348 555 C492 555 609 435 609 291 C609 147 492 28 348 28 L348 28 Z M237 138 L454 138 L454 176 L302 176 C302 177 303 177 303 178 C379 237 442 300 442 362 C442 423 395 449 339 449 C308 449 271 440 247 421 L247 382 C281 409 308 413 335 413 C368 413 395 395 395 360 C395 298 317 234 237 168 L237 138 Z " />
<glyph glyph-name="uni2462" unicode="&#x2462;" horiz-adv-x="697" d="M348 -3 C511 -3 644 128 644 291 C644 454 511 586 348 586 C185 586 54 454 54 291 C54 128 185 -3 348 -3 L348 -3 Z M348 28 C204 28 88 147 88 291 C88 435 204 555 348 555 C492 555 609 435 609 291 C609 147 492 28 348 28 L348 28 Z M332 134 C395 134 452 162 452 229 C452 273 415 298 377 302 L377 304 C394 308 436 332 436 379 C436 423 399 449 344 449 C315 449 285 440 261 421 L261 382 C289 406 316 413 340 413 C369 413 390 398 390 371 C390 338 349 312 312 308 L312 278 C371 276 405 261 405 222 C405 191 380 170 344 170 C315 170 287 173 258 188 L258 148 C274 140 294 134 332 134 L332 134 Z " />
<glyph glyph-name="uni2463" unicode="&#x2463;" horiz-adv-x="697" d="M348 -3 C511 -3 644 128 644 291 C644 454 511 586 348 586 C185 586 54 454 54 291 C54 128 185 -3 348 -3 L348 -3 Z M348 28 C204 28 88 147 88 291 C88 435 204 555 348 555 C492 555 609 435 609 291 C609 147 492 28 348 28 L348 28 Z M343 138 L390 138 L390 221 L434 221 L434 255 L390 255 L390 449 L346 449 L206 256 L206 221 L343 221 L343 138 Z M250 255 L343 382 L343 255 L250 255 Z " />
<glyph glyph-name="uni2464" unicode="&#x2464;" horiz-adv-x="697" d="M348 -3 C511 -3 644 128 644 291 C644 454 511 586 348 586 C185 586 54 454 54 291 C54 128 185 -3 348 -3 L348 -3 Z M348 28 C204 28 88 147 88 291 C88 435 204 555 348 555 C492 555 609 435 609 291 C609 147 492 28 348 28 L348 28 Z M328 134 C380 134 442 165 442 234 C442 300 395 328 319 328 C315 328 306 327 304 327 L311 409 L435 409 L435 444 L275 444 L262 290 C276 292 290 293 302 293 C366 293 397 275 397 231 C397 194 368 170 331 170 C304 170 277 176 249 189 L249 148 C267 141 292 134 328 134 L328 134 Z " />
<glyph glyph-name="uni2465" unicode="&#x2465;" horiz-adv-x="697" d="M348 -3 C511 -3 644 128 644 291 C644 454 511 586 348 586 C185 586 54 454 54 291 C54 128 185 -3 348 -3 L348 -3 Z M348 28 C204 28 88 147 88 291 C88 435 204 555 348 555 C492 555 609 435 609 291 C609 147 492 28 348 28 L348 28 Z M364 413 C380 413 398 411 424 399 L424 439 C403 446 382 449 364 449 C276 449 224 371 224 268 C224 192 258 134 332 134 C403 134 444 185 444 244 C444 309 401 334 348 334 C316 334 291 322 275 312 C282 379 309 413 364 413 L364 413 Z M337 299 C378 299 395 278 395 238 C395 196 376 170 335 170 C289 170 273 208 273 268 L273 279 C288 288 310 299 337 299 L337 299 Z " />
<glyph glyph-name="uni2466" unicode="&#x2466;" horiz-adv-x="697" d="M348 -3 C511 -3 644 128 644 291 C644 454 511 586 348 586 C185 586 54 454 54 291 C54 128 185 -3 348 -3 L348 -3 Z M348 28 C204 28 88 147 88 291 C88 435 204 555 348 555 C492 555 609 435 609 291 C609 147 492 28 348 28 L348 28 Z M310 138 L446 419 L446 444 L249 444 L249 409 L398 409 L265 140 L267 138 L310 138 Z " />
<glyph glyph-name="uni2467" unicode="&#x2467;" horiz-adv-x="697" d="M348 -3 C511 -3 644 128 644 291 C644 454 511 586 348 586 C185 586 54 454 54 291 C54 128 185 -3 348 -3 L348 -3 Z M348 28 C204 28 88 147 88 291 C88 435 204 555 348 555 C492 555 609 435 609 291 C609 147 492 28 348 28 L348 28 Z M451 222 C451 260 426 279 396 293 C423 311 445 340 445 373 C445 422 402 449 342 449 C286 449 246 412 246 367 C246 333 264 313 288 299 C257 281 235 250 235 218 C235 167 271 134 339 134 C401 134 451 172 451 222 L451 222 Z M399 367 C399 346 387 324 364 307 C326 321 290 334 290 369 C290 400 311 413 341 413 C382 413 399 392 399 367 L399 367 Z M280 221 C280 250 292 267 312 285 C356 265 404 254 404 218 C404 180 373 170 343 170 C310 170 280 185 280 221 L280 221 Z " />
<glyph glyph-name="uni2468" unicode="&#x2468;" horiz-adv-x="697" d="M348 -3 C511 -3 644 128 644 291 C644 454 511 586 348 586 C185 586 54 454 54 291 C54 128 185 -3 348 -3 L348 -3 Z M348 28 C204 28 88 147 88 291 C88 435 204 555 348 555 C492 555 609 435 609 291 C609 147 492 28 348 28 L348 28 Z M317 171 C299 171 282 172 255 185 L255 145 C276 137 297 134 316 134 C405 134 456 210 456 315 C456 391 422 449 348 449 C277 449 236 399 236 339 C236 275 279 249 332 249 C362 249 388 260 404 271 C397 204 369 171 317 171 L317 171 Z M343 284 C301 284 283 304 283 346 C283 393 305 414 345 414 C391 414 408 375 408 315 L408 304 C392 294 370 284 343 284 L343 284 Z " />
<glyph glyph-name="uni2469" unicode="&#x2469;" horiz-adv-x="697" d="M348 -3 C511 -3 644 128 644 291 C644 454 511 586 348 586 C185 586 54 454 54 291 C54 128 185 -3 348 -3 L348 -3 Z M348 28 C204 28 88 147 88 291 C88 435 204 555 348 555 C492 555 609 435 609 291 C609 147 492 28 348 28 L348 28 Z M269 138 L269 449 L242 449 L150 420 L150 387 L222 401 L222 138 L269 138 Z M427 134 C506 134 547 196 547 294 C547 372 521 449 432 449 C352 449 314 382 314 285 C314 195 345 134 427 134 L427 134 Z M429 170 C378 170 362 220 362 287 C362 350 375 413 427 413 C481 413 497 351 497 292 C497 226 484 170 429 170 L429 170 Z " />
<glyph glyph-name="uni24CA" unicode="&#x24ca;" horiz-adv-x="511" d="M255 -8 C385 -8 473 113 473 289 C473 465 385 591 255 591 C127 591 38 465 38 289 C38 113 125 -8 255 -8 L255 -8 Z M259 98 C316 98 366 143 366 255 L366 446 L325 446 L325 257 C325 176 301 139 258 139 C215 139 190 168 190 250 L190 446 L150 446 L150 242 C150 135 199 98 259 98 L259 98 Z M255 17 C144 17 63 124 63 289 C63 452 143 566 255 566 C366 566 448 457 448 289 C448 125 368 17 255 17 L255 17 Z " />
<glyph glyph-name="uni25B2" unicode="&#x25b2;" horiz-adv-x="590" d="M563 21 L295 449 L27 21 L563 21 Z " />
<glyph glyph-name="uni25B6" unicode="&#x25b6;" horiz-adv-x="538" d="M84 -33 L512 235 L84 503 L84 -33 Z " />
<glyph glyph-name="uni25B8" unicode="&#x25b8;" horiz-adv-x="378" d="M352 218 L85 486 L85 -50 L352 218 Z " />
<glyph glyph-name="uni25BA" unicode="&#x25ba;" horiz-adv-x="838" d="M806 218 L84 486 L84 -50 L806 218 Z " />
<glyph glyph-name="uni25BC" unicode="&#x25bc;" horiz-adv-x="610" d="M37 448 L305 20 L573 448 L37 448 Z " />
<glyph glyph-name="uni25C0" unicode="&#x25c0;" horiz-adv-x="538" d="M454 -33 L454 503 L26 235 L454 -33 Z " />
<glyph glyph-name="uni25C2" unicode="&#x25c2;" horiz-adv-x="379" d="M294 -50 L294 486 L27 219 L294 -50 Z " />
<glyph glyph-name="uni25C4" unicode="&#x25c4;" horiz-adv-x="838" d="M754 -50 L754 486 L32 218 L754 -50 Z " />
<glyph glyph-name="lozenge" unicode="&#x25ca;" horiz-adv-x="359" d="M155 0 L205 0 L339 286 L205 583 L155 583 L20 286 L155 0 Z M180 56 L76 288 L178 525 L284 285 L180 56 Z " />
<glyph glyph-name="uni2610" unicode="&#x2610;" horiz-adv-x="753" d="M85 0 L668 0 L668 583 L85 583 L85 0 Z M128 43 L128 540 L625 540 L625 43 L128 43 Z " />
<glyph glyph-name="uni2611" unicode="&#x2611;" horiz-adv-x="753" d="M85 0 L668 0 L668 583 L85 583 L85 0 Z M128 43 L128 540 L625 540 L625 43 L128 43 Z M254 78 L274 78 C392 200 509 370 589 490 L581 499 C554 494 519 475 506 456 C451 371 336 198 280 139 C252 192 238 272 237 313 L218 319 C207 316 186 295 178 285 C174 260 215 115 254 78 L254 78 Z " />
<glyph glyph-name="uni261A" unicode="&#x261a;" horiz-adv-x="973" d="M44 453 C27 391 81 386 81 386 L287 400 L342 365 C342 365 266 272 262 246 C262 246 278 200 315 186 C315 186 325 129 367 126 C367 126 376 88 422 74 L498 101 C498 101 574 88 718 140 L907 126 L907 365 L730 401 C730 401 680 443 617 459 L315 509 L44 453 Z " />
<glyph glyph-name="uni261B" unicode="&#x261b;" horiz-adv-x="973" d="M658 509 L356 459 C293 443 243 401 243 401 L66 365 L66 126 L255 140 C399 88 475 101 475 101 L551 74 C597 88 606 126 606 126 C648 129 658 186 658 186 C695 200 711 246 711 246 C707 272 631 365 631 365 L686 400 L892 386 C892 386 946 391 929 453 L658 509 Z " />
<glyph glyph-name="uni261C" unicode="&#x261c;" horiz-adv-x="973" d="M44 453 C27 391 81 386 81 386 L287 400 L351 363 C351 363 267 272 262 247 C262 247 275 201 314 187 C314 187 324 131 367 126 C367 126 376 88 422 74 L498 101 C498 101 574 88 718 140 L907 126 L907 365 L730 401 C730 401 680 443 617 459 L315 509 L44 453 Z M678 178 C608 148 494 145 494 145 L424 119 C400 121 392 152 392 152 L447 196 L511 215 L495 249 L432 226 L373 174 C355 177 348 205 348 205 L422 270 L476 291 L461 320 L406 297 L333 226 C318 228 307 249 307 249 L376 325 L416 368 L306 424 L114 414 C114 414 91 426 102 442 L314 473 L602 421 C647 405 698 366 698 366 L861 332 L861 170 L678 178 Z " />
<glyph glyph-name="uni261D" unicode="&#x261d;" horiz-adv-x="510" d="M45 473 L95 171 C111 108 153 58 153 58 L189 -119 L428 -119 L414 70 C466 214 453 290 453 290 L480 366 C466 412 428 421 428 421 C423 464 367 474 367 474 C352 513 307 526 307 526 C281 521 191 434 191 434 L154 501 L168 707 C168 707 163 761 101 744 L45 473 Z M384 -73 L221 -73 L187 90 C187 90 149 141 133 186 L81 474 L112 686 C128 697 140 674 140 674 L130 482 L186 370 L229 410 L305 481 C305 481 326 470 328 455 L257 382 L233 327 L263 312 L284 366 L349 440 C349 440 377 433 380 415 L328 356 L305 293 L339 277 L358 341 L402 396 C402 396 433 388 435 364 L409 294 C409 294 405 180 375 110 L384 -73 Z " />
<glyph glyph-name="uni261E" unicode="&#x261e;" horiz-adv-x="973" d="M658 509 L356 459 C293 443 243 401 243 401 L66 365 L66 126 L255 140 C399 88 475 101 475 101 L551 74 C597 88 606 126 606 126 C649 131 659 187 659 187 C698 201 711 247 711 247 C707 272 620 363 620 363 L686 400 L892 386 C892 386 946 391 929 453 L658 509 Z M112 170 L112 332 L276 366 C276 366 326 405 371 421 L659 473 L871 442 C882 426 859 414 859 414 L667 424 L555 368 L595 325 L667 249 C667 249 655 228 640 226 L567 297 L512 320 L497 291 L551 270 L625 205 C625 205 618 177 600 174 L541 226 L478 249 L462 215 L526 196 L581 152 C581 152 574 121 550 119 L480 145 C480 145 365 148 295 178 L112 170 Z " />
<glyph glyph-name="uni261F" unicode="&#x261f;" horiz-adv-x="509" d="M465 169 L415 471 C399 534 357 584 357 584 L321 761 L82 761 L96 572 C44 428 57 352 57 352 L30 276 C44 230 82 221 82 221 C87 178 143 168 143 168 C157 129 203 115 203 115 C228 120 319 207 319 207 L356 141 L342 -65 C342 -65 347 -119 409 -102 L465 169 Z M126 715 L288 715 L322 551 C322 551 361 501 377 456 L429 168 L398 -44 C382 -55 370 -32 370 -32 L380 160 L324 272 L281 231 L205 160 C205 160 184 171 182 187 L253 259 L276 315 L247 329 L226 276 L161 201 C161 201 133 209 130 226 L182 285 L205 349 L171 364 L152 301 L108 246 C108 246 77 253 75 277 L101 347 C101 347 104 462 134 531 L126 715 Z " />
<glyph glyph-name="uni267E" unicode="&#x267e;" horiz-adv-x="511" d="M255 -8 C385 -8 473 110 473 289 C473 468 385 591 255 591 C127 591 38 468 38 289 C38 110 126 -8 255 -8 L255 -8 Z M255 17 C143 17 63 122 63 289 C63 453 143 566 255 566 C368 566 448 458 448 289 C448 123 369 17 255 17 L255 17 Z M187 405 C148 405 125 348 125 290 C125 234 144 177 187 177 C217 177 240 216 257 261 C274 214 296 177 328 177 C370 177 389 236 389 290 C389 346 368 405 328 405 C298 405 274 366 257 322 C239 368 218 405 187 405 L187 405 Z M187 214 C164 214 155 250 155 290 C155 331 165 367 187 367 C210 367 229 330 244 291 C228 252 209 214 187 214 L187 214 Z M327 214 C305 214 286 252 270 291 C286 330 304 367 327 367 C349 367 359 331 359 290 C359 250 350 214 327 214 L327 214 Z " />
<glyph glyph-name="uni2713" unicode="&#x2713;" horiz-adv-x="487" d="M119 78 L139 78 C257 200 374 370 454 490 L446 499 C419 494 384 475 371 456 C316 371 201 198 145 139 C117 192 103 272 102 313 L83 319 C72 316 51 295 43 285 C39 260 80 115 119 78 L119 78 Z " />
<glyph glyph-name="uni2776" unicode="&#x2776;" horiz-adv-x="697" d="M348 -3 C511 -3 644 128 644 291 C644 454 511 586 348 586 C185 586 54 454 54 291 C54 128 185 -3 348 -3 L348 -3 Z M325 138 L325 401 L252 387 L252 420 L344 449 L372 449 L372 138 L325 138 Z " />
<glyph glyph-name="uni2777" unicode="&#x2777;" horiz-adv-x="697" d="M348 -3 C511 -3 644 128 644 291 C644 454 511 586 348 586 C185 586 54 454 54 291 C54 128 185 -3 348 -3 L348 -3 Z M237 168 C317 234 395 298 395 360 C395 395 368 413 335 413 C308 413 281 409 247 382 L247 421 C271 440 308 449 339 449 C395 449 442 423 442 362 C442 301 379 237 304 178 C304 177 303 177 302 176 L454 176 L454 138 L237 138 L237 168 Z " />
<glyph glyph-name="uni2778" unicode="&#x2778;" horiz-adv-x="697" d="M348 -3 C511 -3 644 128 644 291 C644 454 511 586 348 586 C185 586 54 454 54 291 C54 128 185 -3 348 -3 L348 -3 Z M332 134 C294 134 274 140 258 148 L258 188 C287 173 315 170 344 170 C380 170 405 191 405 222 C405 261 371 276 312 278 L312 308 C349 312 390 338 390 371 C390 398 369 413 340 413 C316 413 289 406 261 382 L261 421 C285 440 315 449 344 449 C399 449 436 423 436 379 C436 332 394 308 377 304 L377 302 C415 298 452 273 452 229 C452 162 395 134 332 134 L332 134 Z " />
<glyph glyph-name="uni2779" unicode="&#x2779;" horiz-adv-x="697" d="M348 -3 C511 -3 644 128 644 291 C644 454 511 586 348 586 C185 586 54 454 54 291 C54 128 185 -3 348 -3 L348 -3 Z M343 221 L206 221 L206 256 L346 449 L390 449 L390 255 L434 255 L434 221 L390 221 L390 138 L343 138 L343 221 Z M343 255 L343 382 L250 255 L343 255 Z " />
<glyph glyph-name="uni277A" unicode="&#x277a;" horiz-adv-x="697" d="M348 -3 C511 -3 644 128 644 291 C644 454 511 586 348 586 C185 586 54 454 54 291 C54 128 185 -3 348 -3 L348 -3 Z M328 134 C292 134 267 141 249 148 L249 189 C277 176 304 170 331 170 C368 170 397 194 397 231 C397 275 366 293 302 293 C290 293 276 292 262 290 L275 444 L435 444 L435 409 L311 409 L304 327 C306 327 315 328 319 328 C395 328 442 300 442 234 C442 165 380 134 328 134 L328 134 Z " />
<glyph glyph-name="uni277B" unicode="&#x277b;" horiz-adv-x="697" d="M348 -3 C511 -3 644 128 644 291 C644 454 511 586 348 586 C185 586 54 454 54 291 C54 128 185 -3 348 -3 L348 -3 Z M364 413 C309 413 282 379 275 312 C291 322 316 334 348 334 C401 334 444 309 444 244 C444 185 403 134 332 134 C258 134 224 192 224 268 C224 371 276 449 364 449 C382 449 403 446 424 439 L424 399 C398 411 380 413 364 413 L364 413 Z M337 299 C310 299 288 288 273 279 L273 268 C273 208 289 170 335 170 C376 170 395 196 395 238 C395 278 378 299 337 299 L337 299 Z " />
<glyph glyph-name="uni277C" unicode="&#x277c;" horiz-adv-x="697" d="M348 -3 C511 -3 644 128 644 291 C644 454 511 586 348 586 C185 586 54 454 54 291 C54 128 185 -3 348 -3 L348 -3 Z M267 138 L265 140 L398 409 L249 409 L249 444 L446 444 L446 419 L310 138 L267 138 Z " />
<glyph glyph-name="uni277D" unicode="&#x277d;" horiz-adv-x="697" d="M348 -3 C511 -3 644 128 644 291 C644 454 511 586 348 586 C185 586 54 454 54 291 C54 128 185 -3 348 -3 L348 -3 Z M451 222 C451 172 401 134 339 134 C271 134 235 167 235 218 C235 250 257 281 288 299 C264 313 246 333 246 367 C246 412 286 449 342 449 C402 449 445 422 445 373 C445 340 423 311 396 293 C426 279 451 260 451 222 L451 222 Z M399 367 C399 392 382 413 341 413 C311 413 290 400 290 369 C290 334 326 321 364 307 C387 324 399 346 399 367 L399 367 Z M280 221 C280 185 310 170 343 170 C373 170 404 180 404 218 C404 254 356 265 312 285 C292 267 280 250 280 221 L280 221 Z " />
<glyph glyph-name="uni277E" unicode="&#x277e;" horiz-adv-x="697" d="M348 -3 C511 -3 644 128 644 291 C644 454 511 586 348 586 C185 586 54 454 54 291 C54 128 185 -3 348 -3 L348 -3 Z M317 171 C369 171 397 204 404 271 C388 260 362 249 332 249 C279 249 236 275 236 339 C236 399 277 449 348 449 C422 449 456 391 456 315 C456 210 405 134 316 134 C297 134 276 137 255 145 L255 185 C282 172 299 171 317 171 L317 171 Z M343 284 C370 284 392 294 408 304 L408 315 C408 375 391 414 345 414 C305 414 283 393 283 346 C283 304 301 284 343 284 L343 284 Z " />
<glyph glyph-name="uni277F" unicode="&#x277f;" horiz-adv-x="697" d="M348 -3 C511 -3 644 128 644 291 C644 454 511 586 348 586 C185 586 54 454 54 291 C54 128 185 -3 348 -3 L348 -3 Z M222 138 L222 401 L150 387 L150 420 L242 449 L269 449 L269 138 L222 138 Z M427 134 C345 134 314 195 314 285 C314 382 352 449 432 449 C521 449 547 372 547 294 C547 196 506 134 427 134 L427 134 Z M429 170 C484 170 497 226 497 292 C497 351 481 413 427 413 C375 413 362 350 362 287 C362 220 378 170 429 170 L429 170 Z " />
<glyph glyph-name="uni2780" unicode="&#x2780;" horiz-adv-x="697" d="M348 -3 C511 -3 644 128 644 291 C644 454 511 586 348 586 C185 586 54 454 54 291 C54 128 185 -3 348 -3 L348 -3 Z M348 28 C204 28 88 147 88 291 C88 435 204 555 348 555 C492 555 609 435 609 291 C609 147 492 28 348 28 L348 28 Z M378 138 L378 449 L350 449 L258 420 L258 387 L331 401 L331 138 L378 138 Z " />
<glyph glyph-name="uni2781" unicode="&#x2781;" horiz-adv-x="697" d="M348 -3 C511 -3 644 128 644 291 C644 454 511 586 348 586 C185 586 54 454 54 291 C54 128 185 -3 348 -3 L348 -3 Z M348 28 C204 28 88 147 88 291 C88 435 204 555 348 555 C492 555 609 435 609 291 C609 147 492 28 348 28 L348 28 Z M237 138 L454 138 L454 176 L302 176 C303 177 304 177 304 178 C379 237 442 301 442 362 C442 423 395 449 339 449 C308 449 271 440 247 421 L247 382 C281 409 308 413 335 413 C368 413 395 395 395 360 C395 298 317 234 237 168 L237 138 Z " />
<glyph glyph-name="uni2782" unicode="&#x2782;" horiz-adv-x="697" d="M348 -3 C511 -3 644 128 644 291 C644 454 511 586 348 586 C185 586 54 454 54 291 C54 128 185 -3 348 -3 L348 -3 Z M348 28 C204 28 88 147 88 291 C88 435 204 555 348 555 C492 555 609 435 609 291 C609 147 492 28 348 28 L348 28 Z M332 134 C395 134 452 162 452 229 C452 273 415 298 377 302 L377 304 C394 308 436 332 436 379 C436 423 399 449 344 449 C315 449 285 440 261 421 L261 382 C289 406 316 413 340 413 C369 413 390 398 390 371 C390 338 349 312 312 308 L312 278 C371 276 405 261 405 222 C405 191 380 170 344 170 C315 170 287 173 258 188 L258 148 C274 140 294 134 332 134 L332 134 Z " />
<glyph glyph-name="uni2783" unicode="&#x2783;" horiz-adv-x="697" d="M348 -3 C511 -3 644 128 644 291 C644 454 511 586 348 586 C185 586 54 454 54 291 C54 128 185 -3 348 -3 L348 -3 Z M348 28 C204 28 88 147 88 291 C88 435 204 555 348 555 C492 555 609 435 609 291 C609 147 492 28 348 28 L348 28 Z M343 138 L390 138 L390 221 L434 221 L434 255 L390 255 L390 449 L346 449 L206 256 L206 221 L343 221 L343 138 Z M250 255 L343 382 L343 255 L250 255 Z " />
<glyph glyph-name="uni2784" unicode="&#x2784;" horiz-adv-x="697" d="M348 -3 C511 -3 644 128 644 291 C644 454 511 586 348 586 C185 586 54 454 54 291 C54 128 185 -3 348 -3 L348 -3 Z M348 28 C204 28 88 147 88 291 C88 435 204 555 348 555 C492 555 609 435 609 291 C609 147 492 28 348 28 L348 28 Z M328 134 C380 134 442 165 442 234 C442 300 395 328 319 328 C315 328 306 327 304 327 L311 409 L435 409 L435 444 L275 444 L262 290 C276 292 290 293 302 293 C366 293 397 275 397 231 C397 194 368 170 331 170 C304 170 277 176 249 189 L249 148 C267 141 292 134 328 134 L328 134 Z " />
<glyph glyph-name="uni2785" unicode="&#x2785;" horiz-adv-x="697" d="M348 -3 C511 -3 644 128 644 291 C644 454 511 586 348 586 C185 586 54 454 54 291 C54 128 185 -3 348 -3 L348 -3 Z M348 28 C204 28 88 147 88 291 C88 435 204 555 348 555 C492 555 609 435 609 291 C609 147 492 28 348 28 L348 28 Z M364 413 C380 413 398 411 424 399 L424 439 C403 446 382 449 364 449 C276 449 224 371 224 268 C224 192 258 134 332 134 C403 134 444 185 444 244 C444 309 401 334 348 334 C316 334 291 322 275 312 C282 379 309 413 364 413 L364 413 Z M337 299 C378 299 395 278 395 238 C395 196 376 170 335 170 C289 170 273 208 273 268 L273 279 C288 288 310 299 337 299 L337 299 Z " />
<glyph glyph-name="uni2786" unicode="&#x2786;" horiz-adv-x="697" d="M348 -3 C511 -3 644 128 644 291 C644 454 511 586 348 586 C185 586 54 454 54 291 C54 128 185 -3 348 -3 L348 -3 Z M348 28 C204 28 88 147 88 291 C88 435 204 555 348 555 C492 555 609 435 609 291 C609 147 492 28 348 28 L348 28 Z M310 138 L446 419 L446 444 L249 444 L249 409 L398 409 L265 140 L267 138 L310 138 Z " />
<glyph glyph-name="uni2787" unicode="&#x2787;" horiz-adv-x="697" d="M348 -3 C511 -3 644 128 644 291 C644 454 511 586 348 586 C185 586 54 454 54 291 C54 128 185 -3 348 -3 L348 -3 Z M348 28 C204 28 88 147 88 291 C88 435 204 555 348 555 C492 555 609 435 609 291 C609 147 492 28 348 28 L348 28 Z M451 222 C451 260 426 279 396 293 C423 311 445 340 445 373 C445 422 402 449 342 449 C286 449 246 412 246 367 C246 333 264 313 288 299 C257 281 235 250 235 218 C235 167 271 134 339 134 C401 134 451 172 451 222 L451 222 Z M399 367 C399 346 387 324 364 307 C326 321 290 334 290 369 C290 400 311 413 341 413 C382 413 399 392 399 367 L399 367 Z M280 221 C280 250 292 267 312 285 C356 265 404 254 404 218 C404 180 373 170 343 170 C310 170 280 185 280 221 L280 221 Z " />
<glyph glyph-name="uni2788" unicode="&#x2788;" horiz-adv-x="697" d="M348 -3 C511 -3 644 128 644 291 C644 454 511 586 348 586 C185 586 54 454 54 291 C54 128 185 -3 348 -3 L348 -3 Z M348 28 C204 28 88 147 88 291 C88 435 204 555 348 555 C492 555 609 435 609 291 C609 147 492 28 348 28 L348 28 Z M317 171 C299 171 282 172 255 185 L255 145 C276 137 297 134 316 134 C405 134 456 210 456 315 C456 391 422 449 348 449 C277 449 236 399 236 339 C236 275 279 249 332 249 C362 249 388 260 404 271 C397 204 369 171 317 171 L317 171 Z M343 284 C301 284 283 304 283 346 C283 393 305 414 345 414 C391 414 408 375 408 315 L408 304 C392 294 370 284 343 284 L343 284 Z " />
<glyph glyph-name="uni278A" unicode="&#x278a;" horiz-adv-x="697" d="M348 -3 C511 -3 644 128 644 291 C644 454 511 586 348 586 C185 586 54 454 54 291 C54 128 185 -3 348 -3 L348 -3 Z M321 138 L321 401 L248 387 L248 420 L340 449 L368 449 L368 138 L321 138 Z " />
<glyph glyph-name="uni278B" unicode="&#x278b;" horiz-adv-x="697" d="M348 -3 C511 -3 644 128 644 291 C644 454 511 586 348 586 C185 586 54 454 54 291 C54 128 185 -3 348 -3 L348 -3 Z M237 168 C317 234 395 298 395 360 C395 395 368 413 335 413 C308 413 281 409 247 382 L247 421 C271 440 308 449 339 449 C395 449 442 423 442 362 C442 301 380 239 307 180 L302 176 L454 176 L454 138 L237 138 L237 168 Z " />
<glyph glyph-name="uni278C" unicode="&#x278c;" horiz-adv-x="697" d="M348 -3 C511 -3 644 128 644 291 C644 454 511 586 348 586 C185 586 54 454 54 291 C54 128 185 -3 348 -3 L348 -3 Z M332 134 C294 134 274 140 258 148 L258 188 C287 173 315 170 344 170 C380 170 405 191 405 222 C405 261 371 276 312 278 L312 308 C349 312 390 338 390 371 C390 398 369 413 340 413 C316 413 289 406 261 382 L261 421 C285 440 315 449 344 449 C399 449 436 423 436 379 C436 332 394 308 377 304 L377 302 C415 298 452 273 452 229 C452 162 395 134 332 134 L332 134 Z " />
<glyph glyph-name="uni278D" unicode="&#x278d;" horiz-adv-x="697" d="M348 -3 C511 -3 644 128 644 291 C644 454 511 586 348 586 C185 586 54 454 54 291 C54 128 185 -3 348 -3 L348 -3 Z M343 221 L206 221 L206 256 L346 449 L390 449 L390 255 L434 255 L434 221 L390 221 L390 138 L343 138 L343 221 Z M343 255 L343 382 L250 255 L343 255 Z " />
<glyph glyph-name="uni278E" unicode="&#x278e;" horiz-adv-x="697" d="M348 -3 C511 -3 644 128 644 291 C644 454 511 586 348 586 C185 586 54 454 54 291 C54 128 185 -3 348 -3 L348 -3 Z M328 134 C292 134 267 141 249 148 L249 189 C277 176 304 170 331 170 C368 170 397 194 397 231 C397 275 366 293 302 293 C290 293 276 292 262 290 L275 444 L435 444 L435 409 L311 409 L304 327 C306 327 315 328 319 328 C395 328 442 300 442 234 C442 165 380 134 328 134 L328 134 Z " />
<glyph glyph-name="uni278F" unicode="&#x278f;" horiz-adv-x="697" d="M348 -3 C511 -3 644 128 644 291 C644 454 511 586 348 586 C185 586 54 454 54 291 C54 128 185 -3 348 -3 L348 -3 Z M364 413 C309 413 282 379 275 312 C291 322 316 334 348 334 C401 334 444 309 444 244 C444 185 403 134 332 134 C258 134 224 192 224 268 C224 371 276 449 364 449 C382 449 403 446 424 439 L424 399 C398 411 380 413 364 413 L364 413 Z M337 299 C310 299 288 288 273 279 L273 268 C273 208 289 170 335 170 C376 170 395 196 395 238 C395 278 378 299 337 299 L337 299 Z " />
<glyph glyph-name="uni2790" unicode="&#x2790;" horiz-adv-x="697" d="M348 -3 C511 -3 644 128 644 291 C644 454 511 586 348 586 C185 586 54 454 54 291 C54 128 185 -3 348 -3 L348 -3 Z M267 138 L265 140 L398 409 L249 409 L249 444 L446 444 L446 419 L310 138 L267 138 Z " />
<glyph glyph-name="uni2791" unicode="&#x2791;" horiz-adv-x="697" d="M348 -3 C511 -3 644 128 644 291 C644 454 511 586 348 586 C185 586 54 454 54 291 C54 128 185 -3 348 -3 L348 -3 Z M451 222 C451 172 401 134 339 134 C271 134 235 167 235 218 C235 250 257 281 288 299 C264 313 246 333 246 367 C246 412 286 449 342 449 C402 449 445 422 445 373 C445 340 423 311 396 293 C426 279 451 260 451 222 L451 222 Z M399 367 C399 392 382 413 341 413 C311 413 290 400 290 369 C290 334 326 321 364 307 C387 324 399 346 399 367 L399 367 Z M280 221 C280 185 310 170 343 170 C373 170 404 180 404 218 C404 254 356 265 312 285 C292 267 280 250 280 221 L280 221 Z " />
<glyph glyph-name="uni2792" unicode="&#x2792;" horiz-adv-x="697" d="M348 -3 C511 -3 644 128 644 291 C644 454 511 586 348 586 C185 586 54 454 54 291 C54 128 185 -3 348 -3 L348 -3 Z M317 171 C369 171 397 204 404 271 C388 260 362 249 332 249 C279 249 236 275 236 339 C236 399 277 449 348 449 C422 449 456 391 456 315 C456 210 405 134 316 134 C297 134 276 137 255 145 L255 185 C282 172 299 171 317 171 L317 171 Z M343 284 C370 284 392 294 408 304 L408 315 C408 375 391 414 345 414 C305 414 283 393 283 346 C283 304 301 284 343 284 L343 284 Z " />
<glyph glyph-name="uni301A" unicode="&#x301a;" horiz-adv-x="296" d="M56 -181 L266 -181 L266 -136 L205 -136 L205 633 L266 633 L266 679 L56 679 L56 -181 Z M107 633 L154 633 L154 -136 L107 -136 L107 633 Z " />
<glyph glyph-name="uni301B" unicode="&#x301b;" horiz-adv-x="296" d="M240 679 L30 679 L30 633 L91 633 L91 -136 L30 -136 L30 -181 L240 -181 L240 679 Z M189 633 L189 -136 L142 -136 L142 633 L189 633 Z " />
<glyph glyph-name="apple" unicode="&#xf8ff;" horiz-adv-x="1241" d="M390 318 L401 318 L401 328 L411 328 L411 338 L421 338 L421 347 L431 347 L431 388 L420 388 L420 348 L401 348 L401 388 L390 388 L390 347 L400 347 L400 329 L390 329 L390 318 Z M350 338 L371 338 L371 348 L351 348 L351 377 L371 377 L371 388 L351 388 L351 398 L340 398 L340 388 L330 388 L330 377 L340 377 L340 347 L350 347 L350 338 Z M590 338 L611 338 L611 348 L591 348 L591 377 L611 377 L611 388 L591 388 L591 398 L580 398 L580 388 L570 388 L570 377 L580 377 L580 347 L590 347 L590 338 Z M700 338 L731 338 L731 348 L701 348 L701 357 L731 357 L731 378 L721 378 L721 388 L700 388 L700 378 L690 378 L690 347 L700 347 L700 338 Z M880 338 L911 338 L911 348 L881 348 L881 357 L911 357 L911 378 L901 378 L901 388 L880 388 L880 378 L870 378 L870 347 L880 347 L880 338 Z M110 347 L121 347 L121 357 L131 357 L131 368 L121 368 L121 378 L110 378 L110 368 L100 368 L100 357 L110 357 L110 347 Z M180 347 L191 347 L191 357 L201 357 L201 368 L191 368 L191 378 L180 378 L180 368 L170 368 L170 357 L180 357 L180 347 Z M270 347 L281 347 L281 357 L291 357 L291 368 L281 368 L281 378 L270 378 L270 368 L260 368 L260 357 L270 357 L270 347 Z M520 338 L541 338 L541 347 L551 347 L551 378 L541 378 L541 388 L520 388 L520 378 L510 378 L510 347 L520 347 L520 338 Z M630 338 L641 338 L641 377 L660 377 L660 338 L671 338 L671 378 L661 378 L661 388 L641 388 L641 408 L630 408 L630 338 Z M960 347 L971 347 L971 357 L981 357 L981 368 L971 368 L971 378 L960 378 L960 368 L950 368 L950 357 L960 357 L960 347 Z M1050 347 L1061 347 L1061 357 L1071 357 L1071 368 L1061 368 L1061 378 L1050 378 L1050 368 L1040 368 L1040 357 L1050 357 L1050 347 Z M1120 347 L1131 347 L1131 357 L1141 357 L1141 368 L1131 368 L1131 378 L1120 378 L1120 368 L1110 368 L1110 357 L1120 357 L1120 347 Z M450 318 L461 318 L461 338 L481 338 L481 347 L491 347 L491 378 L481 378 L481 388 L450 388 L450 318 Z M780 318 L791 318 L791 388 L760 388 L760 378 L750 378 L750 347 L760 347 L760 338 L780 338 L780 318 Z M820 338 L851 338 L851 388 L840 388 L840 348 L821 348 L821 388 L810 388 L810 347 L820 347 L820 338 Z M240 328 L251 328 L251 338 L261 338 L261 348 L250 348 L250 338 L240 338 L240 328 Z M250 377 L261 377 L261 388 L251 388 L251 398 L240 398 L240 387 L250 387 L250 377 Z M300 328 L311 328 L311 338 L301 338 L301 348 L290 348 L290 338 L300 338 L300 328 Z M290 377 L301 377 L301 387 L311 387 L311 398 L300 398 L300 388 L290 388 L290 377 Z M930 328 L941 328 L941 338 L951 338 L951 348 L940 348 L940 338 L930 338 L930 328 Z M940 377 L951 377 L951 388 L941 388 L941 398 L930 398 L930 387 L940 387 L940 377 Z M990 328 L1001 328 L1001 338 L991 338 L991 348 L980 348 L980 338 L990 338 L990 328 Z M980 377 L991 377 L991 387 L1001 387 L1001 398 L990 398 L990 388 L980 388 L980 377 Z M160 338 L171 338 L171 348 L160 348 L160 338 Z M160 377 L171 377 L171 388 L160 388 L160 377 Z M200 338 L211 338 L211 348 L200 348 L200 338 Z M200 377 L211 377 L211 388 L200 388 L200 377 Z M461 348 L461 377 L480 377 L480 348 L461 348 Z M521 348 L521 377 L540 377 L540 348 L521 348 Z M701 368 L701 377 L720 377 L720 368 L701 368 Z M761 348 L761 377 L780 377 L780 348 L761 348 Z M881 368 L881 377 L900 377 L900 368 L881 368 Z M1030 338 L1041 338 L1041 348 L1030 348 L1030 338 Z M1030 377 L1041 377 L1041 388 L1030 388 L1030 377 Z M1070 338 L1081 338 L1081 348 L1070 348 L1070 338 Z M1070 377 L1081 377 L1081 388 L1070 388 L1070 377 Z " />
<glyph glyph-name="f_f" unicode="&#xfb00;" horiz-adv-x="422" d="M125 401 L274 401 L274 0 L330 0 L330 401 L407 401 L407 450 L330 450 L330 504 C330 581 350 608 395 608 C413 608 424 606 441 602 L441 655 C428 658 413 661 396 661 C325 661 274 620 274 508 L274 450 L125 450 L125 504 C125 581 144 608 189 608 C207 608 218 606 234 602 L234 655 C222 658 207 661 191 661 C119 661 68 620 68 508 L68 450 L18 450 L18 401 L68 401 L68 0 L125 0 L125 401 Z " />
<glyph glyph-name="fi" unicode="&#xfb01;" horiz-adv-x="382" d="M18 400 L68 400 L68 0 L125 0 L125 400 L276 400 L276 0 L331 0 L331 450 L125 450 L125 504 C125 582 146 610 194 610 C212 610 224 609 242 604 L242 655 C229 658 212 661 194 661 C118 661 68 614 68 511 L68 450 L18 450 L18 400 Z " />
<glyph glyph-name="fl" unicode="&#xfb02;" horiz-adv-x="391" d="M18 401 L68 401 L68 0 L125 0 L125 401 L201 401 L201 450 L125 450 L125 504 C125 581 144 608 189 608 C207 608 218 606 234 602 L234 655 C222 658 207 661 191 661 C119 661 68 620 68 508 L68 450 L18 450 L18 401 Z M279 0 L335 0 L335 653 L279 653 L279 0 Z " />
<glyph glyph-name="f_f_i" unicode="&#xfb03;" horiz-adv-x="589" d="M125 400 L275 400 L275 0 L331 0 L331 400 L482 400 L482 0 L538 0 L538 450 L331 450 L331 504 C331 582 352 610 400 610 C419 610 430 609 448 604 L448 655 C435 658 419 661 401 661 C324 661 275 614 275 511 L275 450 L125 450 L125 504 C125 581 144 608 189 608 C207 608 218 606 234 602 L234 655 C222 658 207 661 191 661 C119 661 68 620 68 508 L68 450 L18 450 L18 400 L68 400 L68 0 L125 0 L125 400 Z " />
<glyph glyph-name="f_f_l" unicode="&#xfb04;" horiz-adv-x="595" d="M125 401 L275 401 L275 0 L331 0 L331 401 L408 401 L408 450 L331 450 L331 504 C331 581 351 608 396 608 C413 608 424 606 441 602 L441 655 C429 658 414 661 397 661 C326 661 275 620 275 508 L275 450 L125 450 L125 504 C125 581 144 608 189 608 C207 608 218 606 234 602 L234 655 C222 658 207 661 191 661 C119 661 68 620 68 508 L68 450 L18 450 L18 401 L68 401 L68 0 L125 0 L125 401 Z M483 0 L539 0 L539 653 L483 653 L483 0 Z " />
</font>
</defs>
</svg>
