<svg xmlns="http://www.w3.org/2000/svg">
<defs>
<font id="Greta Sans Cnd Std Lt Ita">
<font-face  font-family="Greta Sans Condensed Std" units-per-em="1000" ascent="710" descent="-290" font-style="italic" font-weight="300" font-stretch="condensed" slope="-5.37999" cap-height="583" x-height="452" underline-position="-75" underline-thickness="50" />

<glyph glyph-name="NULL" d="" />
<glyph glyph-name="CR" unicode="&#xd;" horiz-adv-x="250" d="" />
<glyph glyph-name="space" unicode="&#x20;" horiz-adv-x="178" d="" />
<glyph glyph-name="exclam" unicode="&#x21;" horiz-adv-x="171" d="M74 341 L56 210 L99 210 L127 342 L169 583 L115 583 L74 341 Z M13 -1 L64 -6 L92 115 L36 117 L13 -1 Z " />
<glyph glyph-name="quotedbl" unicode="&#x22;" horiz-adv-x="264" d="M81 430 L126 430 L169 635 L117 635 L81 430 Z M195 430 L240 430 L285 635 L231 635 L195 430 Z " />
<glyph glyph-name="numbersign" unicode="&#x23;" horiz-adv-x="419" d="M79 389 L157 389 L101 207 L21 207 L14 167 L88 167 L37 0 L78 0 L130 167 L222 167 L170 0 L212 0 L263 167 L347 167 L355 207 L276 207 L332 389 L413 389 L420 429 L344 429 L392 583 L351 583 L303 429 L211 429 L259 583 L217 583 L169 429 L86 429 L79 389 Z M199 389 L291 389 L234 207 L142 207 L199 389 Z " />
<glyph glyph-name="dollar" unicode="&#x24;" horiz-adv-x="320" d="M-1 16 C31 1 63 -5 98 -6 L86 -71 L127 -71 L139 -2 C212 12 272 71 272 183 C272 248 233 281 191 313 C152 341 116 369 116 419 C116 479 157 523 218 523 C252 523 286 513 313 496 L322 553 C301 564 274 572 241 574 L253 639 L212 639 L200 573 C124 562 64 500 64 405 C64 347 98 312 142 280 C184 249 221 221 221 170 C221 92 170 46 114 46 C74 46 36 57 10 74 L-1 16 Z " />
<glyph glyph-name="percent" unicode="&#x25;" horiz-adv-x="502" d="M126 285 C201 285 249 399 249 494 C249 555 221 590 177 590 C105 590 54 483 54 379 C54 317 83 285 126 285 L126 285 Z M133 323 C108 323 94 345 94 380 C94 460 133 551 171 551 C195 551 209 531 209 495 C209 420 173 323 133 323 L133 323 Z M328 369 L450 571 L452 583 L404 583 L286 369 L328 369 Z M205 225 L76 12 L73 0 L122 0 L246 225 L205 225 Z M336 -6 C412 -6 461 109 461 203 C461 264 431 299 387 299 C317 299 264 190 264 89 C264 27 295 -6 336 -6 L336 -6 Z M343 32 C317 32 305 54 305 89 C305 163 342 260 381 260 C406 260 418 240 418 205 C418 129 383 32 343 32 L343 32 Z " />
<glyph glyph-name="ampersand" unicode="&#x26;" horiz-adv-x="491" d="M479 316 L484 363 L477 366 C432 343 377 331 326 331 C307 331 290 332 274 337 C311 361 347 406 347 474 C347 533 310 590 233 590 C142 590 79 504 79 412 C79 375 94 335 120 310 C74 284 21 225 21 128 C21 43 79 -6 161 -6 C271 -6 359 107 389 287 C422 291 454 300 479 316 L479 316 Z M230 305 C256 292 297 284 337 284 C318 154 247 44 170 44 C116 44 78 76 78 143 C78 223 125 277 167 299 L168 325 C143 351 132 383 132 413 C132 493 175 542 227 542 C269 542 293 505 293 462 C293 401 262 357 226 331 L230 305 Z " />
<glyph glyph-name="quotesingle" unicode="&#x27;" horiz-adv-x="149" d="M81 430 L126 430 L170 635 L117 635 L81 430 Z " />
<glyph glyph-name="parenleft" unicode="&#x28;" horiz-adv-x="217" d="M125 -159 C112 -135 64 -49 64 74 C64 271 150 518 269 649 L212 649 C104 512 18 286 18 72 C18 -47 61 -135 75 -159 L125 -159 Z " />
<glyph glyph-name="parenright" unicode="&#x29;" horiz-adv-x="218" d="M89 649 C103 625 150 538 150 416 C150 206 58 -28 -56 -159 L2 -159 C108 -21 196 206 196 416 C196 535 153 625 139 649 L89 649 Z " />
<glyph glyph-name="asterisk" unicode="&#x2a;" horiz-adv-x="319" d="M86 528 L176 478 L69 431 L82 395 L181 459 L153 338 L191 338 L205 459 L283 394 L309 431 L215 480 L327 529 L314 565 L212 499 L243 624 L204 624 L190 499 L112 563 L86 528 Z " />
<glyph glyph-name="plus" unicode="&#x2b;" horiz-adv-x="346" d="M35 277 L154 277 L125 109 L169 109 L198 277 L318 277 L326 321 L206 321 L235 484 L191 484 L162 321 L43 321 L35 277 Z " />
<glyph glyph-name="comma" unicode="&#x2c;" horiz-adv-x="156" d="M-13 -157 C31 -102 57 -40 69 23 C72 45 73 69 71 90 L20 92 C22 72 21 53 18 33 C8 -33 -16 -86 -51 -137 L-13 -157 Z " />
<glyph glyph-name="&amp;#x2d;" unicode="&#x2d;" horiz-adv-x="265" d="M41 220 L211 220 L220 268 L50 268 L41 220 Z " />
<glyph glyph-name="&amp;#xad;" unicode="&#xad;" horiz-adv-x="265" d="M41 220 L211 220 L220 268 L50 268 L41 220 Z " />
<glyph glyph-name="period" unicode="&#x2e;" horiz-adv-x="157" d="M4 -2 L55 -8 L84 115 L27 117 L4 -2 Z " />
<glyph glyph-name="slash" unicode="&#x2f;" horiz-adv-x="258" d="M-27 -90 L18 -90 L301 671 L256 671 L-27 -90 Z " />
<glyph glyph-name="zero" unicode="0" horiz-adv-x="374" d="M352 427 C352 524 328 588 242 588 C103 588 34 329 34 147 C34 52 64 -5 145 -5 C290 -5 352 267 352 427 L352 427 Z M151 46 C103 46 87 84 89 167 C94 343 149 538 234 538 C281 538 297 504 296 417 C295 267 245 46 151 46 L151 46 Z " />
<glyph glyph-name="one" unicode="1" horiz-adv-x="232" d="M127 0 L228 583 L193 583 L72 536 L63 487 L164 521 L74 0 L127 0 Z " />
<glyph glyph-name="two" unicode="2" horiz-adv-x="323" d="M258 51 L70 51 C183 167 310 389 310 494 C310 543 262 588 197 588 C152 588 114 581 81 556 L76 504 C109 528 145 537 175 537 C219 537 251 517 263 482 C244 371 129 170 10 46 L2 0 L250 0 L258 51 Z " />
<glyph glyph-name="three" unicode="3" horiz-adv-x="323" d="M0 14 C19 4 46 -5 92 -5 C183 -5 275 84 275 178 C275 234 219 286 179 307 L179 310 C234 348 315 434 315 493 C315 552 262 588 198 588 C156 588 116 577 86 558 L85 509 C117 526 149 536 180 536 C226 536 259 517 269 485 C250 431 176 340 118 315 L113 285 C163 262 212 218 228 172 C217 98 151 46 98 46 C69 46 42 51 10 66 L0 14 Z " />
<glyph glyph-name="four" unicode="4" horiz-adv-x="349" d="M317 583 L265 583 L16 211 L9 169 L191 169 L162 0 L215 0 L244 169 L309 169 L317 216 L252 216 L317 583 Z M68 216 L244 486 L247 486 L200 216 L68 216 Z " />
<glyph glyph-name="five" unicode="5" horiz-adv-x="315" d="M3 13 C25 3 65 -6 101 -6 C197 -6 268 106 270 207 C272 281 238 339 195 358 C166 357 130 343 108 328 L155 531 L310 531 L320 583 L121 583 L52 281 L69 271 C99 290 133 304 169 310 C200 291 218 256 215 199 C212 108 156 44 103 44 C71 44 39 52 12 64 L3 13 Z " />
<glyph glyph-name="six" unicode="6" horiz-adv-x="340" d="M335 574 C308 586 287 588 262 588 C125 588 32 336 32 168 C32 60 72 -5 128 -5 C200 -5 300 115 300 220 C300 293 275 342 234 366 C197 366 142 339 99 303 C106 337 116 370 129 402 C158 479 201 539 252 539 C276 539 295 538 325 525 L335 574 Z M212 315 C235 290 247 260 247 222 C247 161 200 59 140 41 C107 52 82 107 82 173 C82 195 84 221 88 249 C129 285 183 314 212 315 L212 315 Z " />
<glyph glyph-name="seven" unicode="7" horiz-adv-x="291" d="M71 530 L263 530 L30 9 L33 0 L82 0 L326 558 L321 583 L79 583 L71 530 Z " />
<glyph glyph-name="eight" unicode="8" horiz-adv-x="351" d="M343 477 C343 533 298 588 228 588 C155 588 79 510 79 443 C79 409 112 358 149 305 C79 262 11 184 11 116 C11 67 49 -5 127 -5 C224 -5 296 67 296 152 C296 189 258 248 217 307 C280 349 343 422 343 477 L343 477 Z M250 129 C230 81 195 45 138 45 C99 45 67 80 57 126 C74 184 115 237 169 277 C210 219 249 163 250 129 L250 129 Z M125 469 C136 500 171 540 213 540 C255 540 286 512 292 467 C281 426 245 376 196 336 C159 390 126 440 125 469 L125 469 Z " />
<glyph glyph-name="nine" unicode="9" horiz-adv-x="341" d="M17 9 C44 -3 65 -5 90 -5 C227 -5 320 247 320 415 C320 523 280 588 224 588 C152 588 52 468 52 363 C52 290 77 241 118 217 C154 217 209 243 253 279 C245 246 235 212 223 181 C194 104 151 44 100 44 C76 44 57 45 27 58 L17 9 Z M140 268 C117 293 105 323 105 361 C105 422 152 524 212 542 C245 531 270 476 270 410 C270 388 268 361 263 333 C223 298 168 269 140 268 L140 268 Z " />
<glyph glyph-name="colon" unicode="&#x3a;" horiz-adv-x="160" d="M5 -2 L56 -8 L85 115 L28 117 L5 -2 Z M63 340 L114 334 L143 457 L86 459 L63 340 Z " />
<glyph glyph-name="semicolon" unicode="&#x3b;" horiz-adv-x="178" d="M-6 -157 C38 -102 64 -40 76 23 C79 45 80 69 78 90 L27 92 C29 72 28 53 25 33 C15 -33 -9 -86 -44 -137 L-6 -157 Z M80 340 L131 334 L160 457 L103 459 L80 340 Z " />
<glyph glyph-name="less" unicode="&#x3c;" horiz-adv-x="334" d="M257 76 L268 134 L82 294 L324 455 L335 516 L35 314 L28 277 L257 76 Z " />
<glyph glyph-name="equal" unicode="&#x3d;" horiz-adv-x="367" d="M37 184 L303 184 L312 231 L46 231 L37 184 Z M69 363 L334 363 L344 410 L78 410 L69 363 Z " />
<glyph glyph-name="greater" unicode="&#x3e;" horiz-adv-x="334" d="M313 276 L319 313 L91 516 L80 457 L266 296 L24 136 L13 75 L313 276 Z " />
<glyph glyph-name="question" unicode="&#x3f;" horiz-adv-x="241" d="M247 459 C248 510 192 579 99 595 L84 548 C135 536 184 505 204 460 C178 410 106 338 76 290 C68 280 64 270 64 261 C64 236 72 208 77 181 L116 187 L110 266 C119 281 171 335 180 349 C217 393 247 429 247 459 L247 459 Z M37 0 L88 -6 L117 115 L60 117 L37 0 Z " />
<glyph glyph-name="at" unicode="&#x40;" horiz-adv-x="632" d="M365 -9 C533 47 617 204 617 362 C617 524 527 642 390 642 C170 642 20 382 20 118 C20 -82 104 -200 261 -200 C338 -200 427 -176 486 -134 L486 -91 C426 -131 345 -158 274 -158 C140 -158 65 -67 65 120 C65 339 187 602 381 602 C508 602 574 498 574 360 C574 240 523 102 397 42 L384 49 L457 459 L411 459 L406 432 C379 449 350 458 330 458 C292 458 264 432 241 401 C201 348 171 220 165 98 C164 88 164 78 164 68 C164 40 166 16 170 -5 L227 -5 L355 147 L330 5 L365 -9 Z M214 56 C213 80 212 91 214 117 C220 233 252 363 301 413 C307 414 314 414 321 414 C343 414 370 404 398 387 L368 217 L229 54 L214 56 Z " />
<glyph glyph-name="A" unicode="A" horiz-adv-x="380" d="M-30 0 L28 0 L110 195 L252 195 L258 0 L316 0 L287 583 L229 583 L-30 0 Z M240 501 L243 501 L251 242 L130 242 L240 501 Z " />
<glyph glyph-name="B" unicode="B" horiz-adv-x="381" d="M16 0 L143 0 C267 0 338 98 338 199 C338 266 290 302 254 306 L254 308 C304 322 355 379 355 471 C355 544 312 583 223 583 L118 583 L16 0 Z M172 277 C238 277 279 255 279 192 C279 108 222 52 138 52 L81 52 L120 277 L172 277 Z M204 532 C250 532 294 525 294 462 C294 386 251 325 178 325 L129 325 L165 532 L204 532 Z " />
<glyph glyph-name="C" unicode="C" horiz-adv-x="376" d="M195 -5 C247 -5 289 10 310 21 L318 72 C286 56 250 46 213 46 C134 46 95 85 95 181 C95 352 176 537 305 537 C334 537 362 534 386 519 L395 571 C373 582 342 588 306 588 C130 588 37 361 37 176 C37 61 83 -5 195 -5 L195 -5 Z " />
<glyph glyph-name="D" unicode="D" horiz-adv-x="451" d="M16 0 L143 0 C308 0 427 191 427 394 C427 530 349 583 238 583 L118 583 L16 0 Z M217 532 C312 532 368 497 368 391 C368 223 279 52 143 52 L81 52 L165 532 L217 532 Z " />
<glyph glyph-name="E" unicode="E" horiz-adv-x="341" d="M16 0 L265 0 L274 52 L81 52 L120 275 L279 275 L288 325 L129 325 L165 532 L355 532 L364 583 L117 583 L16 0 Z " />
<glyph glyph-name="F" unicode="F" horiz-adv-x="323" d="M16 0 L72 0 L116 253 L273 253 L281 303 L125 303 L165 532 L353 532 L360 583 L117 583 L16 0 Z " />
<glyph glyph-name="G" unicode="G" horiz-adv-x="419" d="M202 -5 C257 -5 304 10 334 26 L383 297 L327 297 L283 57 C259 50 233 46 211 46 C136 46 93 81 93 184 C93 342 180 535 315 537 C356 538 388 527 414 511 L425 566 C396 581 359 588 318 588 C139 588 34 360 34 178 C34 61 86 -5 202 -5 L202 -5 Z " />
<glyph glyph-name="H" unicode="H" horiz-adv-x="453" d="M292 0 L349 0 L451 583 L394 583 L349 326 L129 326 L175 583 L118 583 L16 0 L72 0 L120 275 L340 275 L292 0 Z " />
<glyph glyph-name="I" unicode="I" horiz-adv-x="177" d="M16 0 L72 0 L174 583 L118 583 L16 0 Z " />
<glyph glyph-name="J" unicode="J" horiz-adv-x="188" d="M-24 -86 C52 4 102 89 118 179 L189 583 L132 583 L61 179 C45 88 -12 13 -66 -59 L-24 -86 Z " />
<glyph glyph-name="K" unicode="K" horiz-adv-x="369" d="M247 0 L310 0 L200 307 L415 583 L348 583 L144 312 L142 297 L247 0 Z M16 0 L72 0 L174 583 L118 583 L16 0 Z " />
<glyph glyph-name="L" unicode="L" horiz-adv-x="312" d="M16 0 L259 0 L267 52 L81 52 L174 583 L117 583 L16 0 Z " />
<glyph glyph-name="M" unicode="M" horiz-adv-x="547" d="M-5 0 L49 0 L161 465 L164 465 L198 0 L251 0 L452 458 L455 458 L403 0 L461 0 L523 583 L454 583 L245 97 L242 97 L208 583 L138 583 L-5 0 Z " />
<glyph glyph-name="N" unicode="N" horiz-adv-x="456" d="M16 0 L72 0 L151 450 L153 450 L300 0 L351 0 L454 583 L398 583 L319 137 L317 137 L171 583 L118 583 L16 0 Z " />
<glyph glyph-name="O" unicode="O" horiz-adv-x="464" d="M186 -5 C352 -5 445 242 445 411 C445 518 398 588 294 588 C120 588 31 336 31 170 C31 63 83 -5 186 -5 L186 -5 Z M193 46 C127 46 90 87 90 171 C90 311 162 537 284 537 C349 537 386 501 386 417 C386 274 311 46 193 46 L193 46 Z " />
<glyph glyph-name="P" unicode="P" horiz-adv-x="364" d="M16 0 L73 0 L110 213 L157 213 C289 213 368 328 368 463 C368 541 315 583 242 583 L118 583 L16 0 Z M221 532 C283 532 310 505 310 450 C310 336 241 264 162 264 L119 264 L165 532 L221 532 Z " />
<glyph glyph-name="Q" unicode="Q" horiz-adv-x="464" d="M186 -5 C199 -5 212 -3 224 0 L299 -109 L354 -109 L357 -95 L268 17 C382 81 445 272 445 411 C445 518 398 588 294 588 C120 588 31 336 31 170 C31 63 83 -5 186 -5 L186 -5 Z M193 46 C127 46 90 87 90 171 C90 311 162 537 284 537 C349 537 386 501 386 417 C386 274 311 46 193 46 L193 46 Z " />
<glyph glyph-name="R" unicode="R" horiz-adv-x="379" d="M16 0 L72 0 L113 235 L157 235 C169 235 180 236 191 237 L258 0 L320 0 L243 253 C323 289 367 375 367 466 C367 541 321 583 239 583 L117 583 L16 0 Z M218 532 C280 532 308 510 308 456 C308 369 259 284 160 284 L121 284 L165 532 L218 532 Z " />
<glyph glyph-name="S" unicode="S" horiz-adv-x="330" d="M-7 19 C28 4 62 -5 101 -5 C203 -5 288 57 288 182 C288 253 235 287 190 324 C156 351 126 380 126 426 C126 492 170 537 234 537 C269 537 298 527 324 513 L336 566 C310 579 275 588 233 588 C139 588 68 520 68 416 C68 353 109 316 149 284 C190 251 232 221 232 168 C232 91 173 46 114 46 C75 46 43 54 7 71 L-7 19 Z " />
<glyph glyph-name="T" unicode="T" horiz-adv-x="366" d="M59 532 L204 532 L111 0 L168 0 L261 532 L405 532 L413 583 L68 583 L59 532 Z " />
<glyph glyph-name="U" unicode="U" horiz-adv-x="438" d="M176 -5 C263 -5 346 47 377 223 L441 583 L385 583 L320 218 C299 96 250 47 184 47 C130 47 98 69 98 139 C98 158 100 180 105 206 L171 583 L115 583 L47 200 C43 175 40 152 40 132 C40 24 102 -5 176 -5 L176 -5 Z " />
<glyph glyph-name="V" unicode="V" horiz-adv-x="397" d="M439 583 L379 583 L166 91 L163 91 L134 583 L74 583 L118 0 L177 0 L439 583 Z " />
<glyph glyph-name="W" unicode="W" horiz-adv-x="624" d="M664 583 L604 583 L413 96 L410 96 L402 583 L336 583 L145 92 L142 92 L142 583 L79 583 L92 0 L158 0 L347 483 L351 483 L360 0 L425 0 L664 583 Z " />
<glyph glyph-name="X" unicode="X" horiz-adv-x="372" d="M83 583 L160 298 L-35 0 L32 0 L184 248 L245 0 L308 0 L227 297 L415 583 L350 583 L202 346 L143 583 L83 583 Z " />
<glyph glyph-name="Y" unicode="Y" horiz-adv-x="371" d="M418 583 L358 583 L190 275 L188 275 L126 583 L66 583 L149 217 L110 0 L167 0 L203 207 L418 583 Z " />
<glyph glyph-name="Z" unicode="Z" horiz-adv-x="342" d="M269 0 L277 52 L62 52 L381 580 L380 583 L87 583 L79 532 L288 532 L-28 3 L-27 0 L269 0 Z " />
<glyph glyph-name="bracketleft" unicode="&#x5b;" horiz-adv-x="191" d="M-22 -184 L84 -184 L91 -142 L31 -142 L169 634 L229 634 L235 677 L130 677 L-22 -184 Z " />
<glyph glyph-name="backslash" unicode="&#x5c;" horiz-adv-x="487" d="M144 671 L99 671 L355 -90 L400 -90 L144 671 Z " />
<glyph glyph-name="bracketright" unicode="&#x5d;" horiz-adv-x="192" d="M210 677 L103 677 L96 634 L156 634 L19 -142 L-42 -142 L-48 -184 L59 -184 L210 677 Z " />
<glyph glyph-name="asciicircum" unicode="&#x5e;" horiz-adv-x="318" d="M34 240 L84 240 L224 534 L251 240 L303 240 L266 583 L198 583 L34 240 Z " />
<glyph glyph-name="underscore" unicode="&#x5f;" horiz-adv-x="466" d="M12 -128 L323 -128 L328 -81 L17 -81 L12 -128 Z " />
<glyph glyph-name="grave" unicode="&#x60;" horiz-adv-x="263" d="M289 528 L199 677 L145 677 L246 528 L289 528 Z " />
<glyph glyph-name="a" unicode="a" horiz-adv-x="331" d="M237 0 L316 456 L265 456 L260 429 C230 446 200 456 180 456 C143 456 115 427 95 399 C46 327 17 170 17 63 C17 41 19 18 21 0 L81 0 L212 157 L185 0 L237 0 Z M73 68 C72 78 71 90 71 101 C72 192 107 347 155 409 L173 409 C196 406 221 397 251 380 L225 228 L83 65 L73 68 Z " />
<glyph glyph-name="b" unicode="b" horiz-adv-x="332" d="M8 21 C39 5 79 -5 117 -5 C228 -5 301 159 301 314 C301 389 285 454 229 454 C197 454 157 422 122 384 L170 653 L119 653 L8 21 Z M207 402 L225 402 C239 380 247 346 247 296 C247 161 181 44 129 44 C104 44 83 48 64 55 L111 321 C146 363 185 394 207 402 L207 402 Z " />
<glyph glyph-name="c" unicode="c" horiz-adv-x="282" d="M210 146 C170 102 129 66 95 50 L80 54 C75 75 74 94 73 119 C73 222 103 347 153 403 C159 404 166 405 173 405 C202 405 236 394 261 381 L280 431 C257 445 218 454 187 454 C152 454 121 431 100 405 C40 341 20 191 20 99 C20 64 23 33 32 3 L86 -5 C153 26 209 83 236 118 L210 146 Z " />
<glyph glyph-name="d" unicode="d" horiz-adv-x="332" d="M237 0 L351 653 L299 653 L259 427 C229 444 200 454 180 454 C143 454 115 426 95 397 C46 325 17 170 17 63 C17 41 19 18 21 0 L81 0 L212 156 L185 0 L237 0 Z M73 68 C72 78 71 90 71 101 C71 191 107 346 155 407 L173 407 C196 404 221 395 251 379 L224 227 L83 65 L73 68 Z " />
<glyph glyph-name="e" unicode="e" horiz-adv-x="300" d="M246 112 L222 142 C178 99 129 66 92 50 L80 55 C75 74 72 96 73 121 C73 141 74 161 76 182 C143 219 243 281 283 324 L288 418 C256 444 221 454 190 454 C142 454 105 416 83 375 C38 297 19 192 19 91 C19 59 23 29 32 3 L82 -5 C150 26 216 79 246 112 L246 112 Z M155 407 C160 408 166 408 172 408 C196 408 222 400 237 387 L234 338 C198 299 129 256 82 229 C95 302 120 370 155 407 L155 407 Z " />
<glyph glyph-name="f" unicode="f" horiz-adv-x="214" d="M44 406 L100 406 L27 -18 C11 -104 -13 -147 -28 -166 C-54 -170 -77 -162 -96 -153 L-110 -200 C-90 -209 -63 -213 -40 -213 C16 -213 62 -106 77 -20 L150 406 L227 406 L234 450 L157 450 L164 487 C175 552 190 581 212 608 C221 611 230 612 239 612 C256 611 273 608 291 600 L304 648 C287 655 268 658 249 658 C233 658 214 654 201 647 C163 627 131 579 115 492 L107 450 L51 450 L44 406 Z " />
<glyph glyph-name="g" unicode="g" horiz-adv-x="331" d="M76 -213 C109 -213 139 -205 157 -188 C199 -150 224 -66 237 9 L315 454 L265 454 L260 427 C230 444 200 454 180 454 C143 454 115 426 95 397 C46 325 17 170 17 63 C17 41 19 18 21 0 L81 0 L212 156 L196 63 C175 -61 155 -125 134 -151 C114 -161 96 -163 77 -163 C45 -163 18 -155 -8 -141 L-20 -193 C9 -206 49 -213 76 -213 L76 -213 Z M73 68 C72 78 71 90 71 101 C71 191 107 346 155 407 L172 407 C196 404 221 395 251 379 L225 228 L83 65 L73 68 Z " />
<glyph glyph-name="h" unicode="h" horiz-adv-x="348" d="M56 0 L107 291 C160 354 215 395 242 401 L258 396 C262 373 262 339 245 240 L205 0 L256 0 L299 252 C309 308 314 351 314 382 C314 434 300 454 270 454 C226 454 171 416 118 357 L170 653 L119 653 L6 0 L56 0 Z " />
<glyph glyph-name="i" unicode="i" horiz-adv-x="152" d="M57 0 L135 450 L84 450 L6 0 L57 0 Z M151 555 L175 660 L120 661 L104 566 L151 555 Z " />
<glyph glyph-name="j" unicode="j" horiz-adv-x="151" d="M4 -9 C-5 -61 -34 -119 -75 -181 L-38 -205 C15 -137 44 -70 56 -3 L135 450 L84 450 L4 -9 Z M151 555 L175 660 L120 661 L104 566 L151 555 Z " />
<glyph glyph-name="k" unicode="k" horiz-adv-x="321" d="M57 0 L107 288 C149 339 206 391 237 408 L256 402 C248 335 224 271 167 203 L163 184 L195 0 L252 0 L216 192 C272 264 300 324 308 409 L310 443 L236 456 C209 441 160 404 118 356 L170 653 L119 653 L6 0 L57 0 Z " />
<glyph glyph-name="l" unicode="l" horiz-adv-x="160" d="M61 0 L174 653 L123 653 L11 0 L61 0 Z " />
<glyph glyph-name="m" unicode="m" horiz-adv-x="515" d="M372 0 L423 0 L466 252 C475 304 480 345 480 377 C480 429 467 454 437 454 C395 454 348 421 299 362 C301 424 287 454 255 454 C214 454 168 422 120 365 L135 450 L84 450 L7 0 L57 0 L108 298 C158 360 204 394 229 401 L243 395 C245 387 246 378 246 365 C246 341 242 304 231 240 L191 0 L242 0 L285 252 C288 270 291 286 293 302 C342 361 385 394 411 401 L425 395 C426 387 427 377 427 364 C427 340 424 304 413 240 L372 0 Z " />
<glyph glyph-name="n" unicode="n" horiz-adv-x="348" d="M57 0 L108 293 C161 356 216 395 243 402 L258 395 C263 373 262 339 246 240 L205 0 L256 0 L300 252 C309 309 314 352 314 383 C314 434 301 454 271 454 C227 454 172 416 119 357 L135 450 L84 450 L7 0 L57 0 Z " />
<glyph glyph-name="o" unicode="o" horiz-adv-x="328" d="M133 41 C117 42 99 47 89 56 C78 80 73 104 73 139 C72 240 117 382 177 410 C197 407 216 402 227 395 C239 373 245 345 244 308 C244 209 200 89 133 41 L133 41 Z M111 -5 C162 -5 207 37 240 92 C276 156 298 236 298 299 C298 414 262 454 204 454 C150 454 105 415 74 359 C39 295 20 212 20 140 C20 43 52 -5 111 -5 L111 -5 Z " />
<glyph glyph-name="p" unicode="p" horiz-adv-x="351" d="M40 -207 L76 5 C96 -2 117 -5 138 -5 C249 -5 320 162 320 307 C320 388 298 454 250 454 C229 454 188 436 146 412 L153 450 L101 450 L88 375 C61 357 36 337 20 321 L30 285 C43 296 60 311 79 325 L-12 -207 L40 -207 Z M226 405 L240 405 C255 386 266 353 266 298 C266 172 208 43 148 43 C127 43 107 47 85 55 L138 364 C170 383 201 399 226 405 L226 405 Z " />
<glyph glyph-name="q" unicode="q" horiz-adv-x="330" d="M200 -207 L315 454 L264 454 L259 427 C229 444 200 454 180 454 C143 454 115 425 95 396 C46 325 17 170 17 63 C17 41 19 18 21 0 L81 0 L212 155 L149 -207 L200 -207 Z M73 68 C72 78 71 90 71 101 C71 191 107 345 155 407 C161 407 167 407 173 406 C196 404 221 395 251 379 L224 227 L83 65 L73 68 Z " />
<glyph glyph-name="r" unicode="r" horiz-adv-x="246" d="M57 0 L106 281 C146 341 186 384 207 401 L240 371 L267 419 C257 436 239 454 222 454 C202 454 159 414 118 354 L135 450 L84 450 L7 0 L57 0 Z " />
<glyph glyph-name="s" unicode="s" horiz-adv-x="261" d="M252 439 C227 450 203 454 176 454 C97 454 46 388 46 329 C46 275 75 246 109 209 C137 179 159 146 163 105 C164 94 162 83 159 72 C143 54 113 44 83 44 C60 44 26 53 1 66 L-10 15 C15 2 41 -5 76 -5 C118 -5 152 11 174 35 C197 59 209 91 209 124 C209 173 176 209 144 244 C116 276 95 306 95 343 C95 361 100 374 106 390 C123 400 147 406 172 405 C195 405 219 399 241 387 L252 439 Z " />
<glyph glyph-name="t" unicode="t" horiz-adv-x="244" d="M44 406 L92 406 L23 8 L75 -6 C127 19 193 76 216 107 L193 138 C168 106 130 74 97 58 L84 63 L144 406 L237 406 L244 450 L151 450 L172 569 L121 569 L100 450 L51 450 L44 406 Z " />
<glyph glyph-name="u" unicode="u" horiz-adv-x="344" d="M277 450 L226 160 C174 96 116 57 90 51 L76 56 C75 80 75 112 92 212 L133 450 L82 450 L37 192 C27 137 22 94 22 63 C22 17 34 -5 61 -5 C106 -5 165 36 215 93 L199 0 L249 0 L327 450 L277 450 Z " />
<glyph glyph-name="v" unicode="v" horiz-adv-x="310" d="M271 450 L125 62 L120 62 C105 121 97 176 97 228 C97 305 101 379 113 450 L60 450 C49 390 47 329 47 269 C47 179 64 78 83 0 L147 0 L325 450 L271 450 Z " />
<glyph glyph-name="w" unicode="w" horiz-adv-x="500" d="M460 450 L315 62 L310 62 C296 121 288 176 288 228 C288 305 292 378 304 450 L250 450 C244 415 241 380 239 345 L124 62 L119 62 C105 121 97 176 97 228 C97 305 101 378 113 450 L60 450 C49 390 47 330 47 270 C47 180 64 79 83 0 L142 0 L238 238 C241 156 257 70 274 0 L338 0 L515 450 L460 450 Z " />
<glyph glyph-name="x" unicode="x" horiz-adv-x="301" d="M266 450 L153 267 L113 450 L57 450 L111 224 L-31 0 L27 0 L133 179 L173 0 L229 0 L176 222 L324 450 L266 450 Z " />
<glyph glyph-name="y" unicode="y" horiz-adv-x="311" d="M76 -207 L179 70 L326 450 L272 450 L125 62 L121 62 C106 116 98 180 98 228 C98 305 102 378 114 450 L61 450 C51 389 47 328 47 266 C47 177 63 77 82 0 L99 0 L19 -197 L21 -207 L76 -207 Z " />
<glyph glyph-name="z" unicode="z" horiz-adv-x="269" d="M53 403 L206 403 L-14 33 L-15 0 L201 0 L207 48 L50 48 L271 418 L272 450 L59 450 L53 403 Z " />
<glyph glyph-name="braceleft" unicode="&#x7b;" horiz-adv-x="219" d="M100 -179 L115 -178 L121 -140 L105 -140 C67 -140 46 -130 46 -92 C46 -79 49 -61 54 -40 L98 143 C102 161 104 177 104 192 C104 222 95 245 75 253 C108 265 131 301 138 367 L159 547 C168 627 190 643 243 643 L259 643 L267 681 L245 682 C178 683 128 659 115 551 L93 357 C87 310 68 273 31 273 L25 234 C51 234 61 214 61 187 C61 176 59 164 56 151 L10 -39 C5 -61 2 -79 2 -95 C2 -161 44 -181 100 -179 L100 -179 Z " />
<glyph glyph-name="bar" unicode="&#x7c;" horiz-adv-x="160" d="M-5 -92 L41 -92 L177 675 L131 675 L-5 -92 Z " />
<glyph glyph-name="braceright" unicode="&#x7d;" horiz-adv-x="219" d="M116 680 L101 679 L95 641 L111 641 C149 641 170 631 170 593 C170 580 167 562 162 541 L118 358 C114 340 112 324 112 309 C112 279 121 256 141 248 C108 236 85 200 78 134 L57 -46 C48 -126 26 -142 -27 -142 L-43 -142 L-51 -180 L-29 -181 C38 -182 88 -158 101 -50 L123 144 C129 191 148 228 185 228 L191 267 C165 267 155 287 155 314 C155 325 157 337 160 350 L206 540 C211 562 214 580 214 596 C214 662 172 682 116 680 L116 680 Z " />
<glyph glyph-name="asciitilde" unicode="&#x7e;" horiz-adv-x="368" d="M247 257 C280 257 314 281 334 309 L315 342 C297 321 279 308 259 308 C212 308 193 346 140 346 C103 346 69 321 51 296 L67 263 C81 278 103 296 131 296 C173 296 200 257 247 257 L247 257 Z " />
<glyph glyph-name="uni00A0" unicode="&#xa0;" horiz-adv-x="178" d="" />
<glyph glyph-name="exclamdown" unicode="&#xa1;" horiz-adv-x="162" d="M81 110 L99 241 L56 241 L28 109 L-14 -132 L40 -132 L81 110 Z M142 452 L91 457 L63 336 L119 334 L142 452 Z " />
<glyph glyph-name="cent" unicode="&#xa2;" horiz-adv-x="291" d="M213 146 C173 102 132 66 98 50 L83 54 C78 75 77 94 76 119 C76 222 106 347 156 403 C162 404 169 405 176 405 C205 405 239 394 264 381 L283 431 C267 441 243 448 219 452 L235 537 L193 537 L178 453 C148 449 121 428 103 405 C43 341 23 191 23 99 C23 64 26 33 35 3 L89 -5 C92 -3 95 -1 99 0 L86 -75 L127 -75 L145 28 C187 57 220 93 239 118 L213 146 Z " />
<glyph glyph-name="sterling" unicode="&#xa3;" horiz-adv-x="350" d="M132 168 C137 196 140 229 141 263 L263 263 L271 310 L143 310 C145 350 146 389 151 419 C162 496 201 536 254 536 C291 536 315 527 340 506 L351 565 C326 579 297 588 255 588 C190 588 116 544 97 418 C91 385 89 348 87 310 L47 310 L39 263 L86 263 C84 225 82 190 78 164 C72 124 59 89 37 50 L5 50 L-3 0 L273 0 L280 50 L91 50 C110 88 124 127 132 168 L132 168 Z " />
<glyph glyph-name="currency" unicode="&#xa4;" horiz-adv-x="384" d="M98 464 L69 442 L116 373 C87 333 70 269 69 226 C67 201 70 174 78 156 L7 87 L27 64 L95 128 C111 108 134 97 163 97 C192 97 219 109 243 128 L288 63 L315 87 L270 156 C300 197 316 263 318 308 C320 331 317 355 309 372 L378 441 L358 465 L292 400 C275 423 252 435 223 435 C194 435 165 420 141 401 L98 464 Z M216 392 C261 392 279 351 276 301 C272 221 231 139 171 139 C125 139 106 181 110 234 C115 305 160 392 216 392 L216 392 Z " />
<glyph glyph-name="yen" unicode="&#xa5;" horiz-adv-x="405" d="M340 176 L214 176 L219 202 L251 259 L354 259 L362 304 L276 304 L434 583 L375 583 L206 270 L204 270 L143 583 L83 583 L145 304 L59 304 L52 259 L155 259 L164 216 L157 176 L37 176 L29 131 L149 131 L126 0 L184 0 L206 131 L332 131 L340 176 Z " />
<glyph glyph-name="brokenbar" unicode="&#xa6;" horiz-adv-x="166" d="M-4 -92 L47 -92 L99 202 L49 202 L-4 -92 Z M81 387 L131 387 L183 675 L133 675 L81 387 Z " />
<glyph glyph-name="section" unicode="&#xa7;" horiz-adv-x="356" d="M95 -105 C207 -105 295 2 295 133 C295 185 274 239 236 300 C232 307 160 434 136 474 C166 518 211 544 254 544 C289 544 324 535 355 518 L365 570 C344 580 312 590 261 590 C146 590 56 486 56 352 C56 296 80 239 118 173 C121 167 190 49 215 8 C185 -34 141 -58 100 -58 C64 -58 29 -48 -3 -32 L-12 -84 C11 -94 47 -105 95 -105 L95 -105 Z M156 202 C120 267 102 311 102 359 C102 383 105 406 112 426 C135 385 191 283 195 278 C232 214 249 172 249 124 C249 99 245 75 238 55 C216 94 160 197 156 202 L156 202 Z " />
<glyph glyph-name="dieresis" unicode="&#xa8;" horiz-adv-x="324" d="M138 562 L183 551 L206 645 L155 647 L138 562 Z M273 562 L318 551 L341 645 L290 647 L273 562 Z " />
<glyph glyph-name="copyright" unicode="&#xa9;" horiz-adv-x="509" d="M259 -9 C381 -9 474 118 474 289 C474 460 381 590 259 590 C139 590 46 460 46 289 C46 117 137 -9 259 -9 L259 -9 Z M259 16 C156 16 71 129 71 289 C71 450 156 566 259 566 C363 566 448 451 448 289 C448 130 364 16 259 16 L259 16 Z M266 109 C296 109 323 117 337 127 L337 167 C314 152 295 148 270 148 C213 148 185 191 185 290 C185 380 213 433 267 433 C291 433 311 430 337 414 L337 457 C323 465 302 473 268 473 C181 473 141 390 141 288 C141 163 186 109 266 109 L266 109 Z " />
<glyph glyph-name="ordfeminine" unicode="&#xaa;" horiz-adv-x="303" d="M257 389 L314 704 L274 704 L270 686 C248 698 225 705 211 705 C185 705 163 684 149 664 C119 623 97 530 93 452 C92 429 93 407 95 389 L143 389 L236 493 L217 389 L257 389 Z M134 434 C134 446 134 458 136 476 C140 548 164 633 195 668 C216 671 237 664 264 649 L246 548 L141 433 L134 434 Z M65 303 L266 303 L273 342 L72 342 L65 303 Z " />
<glyph glyph-name="guillemotleft" unicode="&#xab;" horiz-adv-x="307" d="M67 46 L116 46 L90 226 L177 405 L130 405 L29 226 L67 46 Z M182 46 L231 46 L205 226 L292 405 L245 405 L144 226 L182 46 Z " />
<glyph glyph-name="logicalnot" unicode="&#xac;" horiz-adv-x="367" d="M246 138 L294 138 L327 321 L61 321 L53 274 L269 274 L246 138 Z " />
<glyph glyph-name="registered" unicode="&#xae;" horiz-adv-x="345" d="M197 267 C274 267 330 344 330 454 C330 564 274 643 197 643 C122 643 66 564 66 454 C66 344 122 267 197 267 L197 267 Z M197 286 C134 286 86 352 86 454 C86 556 133 623 197 623 C262 623 310 556 310 454 C310 349 262 286 197 286 L197 286 Z M147 358 L173 358 L173 432 L189 432 C194 432 199 432 204 433 L235 358 L264 358 L227 441 C244 452 253 471 253 498 C253 542 232 561 200 561 L147 561 L147 358 Z M192 537 C217 537 228 526 228 498 C228 461 208 455 187 455 L173 455 L173 537 L192 537 Z " />
<glyph glyph-name="macron" unicode="&#xaf;" horiz-adv-x="335" d="M130 577 L319 577 L327 623 L138 623 L130 577 Z " />
<glyph glyph-name="degree" unicode="&#xb0;" horiz-adv-x="261" d="M148 351 C217 351 264 427 264 510 C264 555 240 592 190 592 C120 592 72 515 72 432 C72 385 96 351 148 351 L148 351 Z M154 389 C128 389 115 406 115 437 C115 504 147 553 182 553 C209 553 221 535 221 506 C221 442 191 389 154 389 L154 389 Z " />
<glyph glyph-name="plusminus" unicode="&#xb1;" horiz-adv-x="366" d="M61 309 L173 309 L145 154 L189 154 L217 309 L328 309 L337 353 L225 353 L252 505 L208 505 L181 353 L69 353 L61 309 Z M12 44 L282 44 L291 92 L21 92 L12 44 Z " />
<glyph glyph-name="twosuperior" unicode="&#xb2;" horiz-adv-x="184" d="M195 400 L200 434 L93 434 C156 494 229 599 229 656 C229 690 200 715 161 715 C138 715 114 708 90 694 L87 659 C107 672 128 678 144 678 C170 678 183 662 189 647 C178 586 120 499 50 432 L46 400 L195 400 Z " />
<glyph glyph-name="threesuperior" unicode="&#xb3;" horiz-adv-x="187" d="M44 408 C55 402 74 395 100 395 C157 395 208 436 210 488 C211 521 176 552 152 563 L152 566 C180 579 227 624 228 654 C230 692 198 715 160 715 C135 715 111 707 93 695 L92 661 C110 672 128 678 146 678 C173 678 184 669 190 645 C178 619 145 583 113 571 L110 552 C139 539 163 510 171 486 C164 444 131 430 101 430 C85 430 69 433 51 442 L44 408 Z " />
<glyph glyph-name="acute" unicode="&#xb4;" horiz-adv-x="263" d="M192 528 L293 677 L239 677 L149 528 L192 528 Z " />
<glyph glyph-name="mu" unicode="&#xb5;" horiz-adv-x="381" d="M-25 -207 L26 -207 L64 6 C73 -2 82 -5 95 -4 C136 3 183 48 222 97 C222 92 218 63 218 58 C213 10 232 -7 265 -7 C280 -7 295 -3 312 5 L317 42 C305 39 294 38 287 38 C270 38 265 52 272 87 L335 450 L285 450 L233 152 C180 90 124 53 97 47 L84 53 C81 80 83 112 99 212 L140 450 L89 450 C76 375 -25 -207 -25 -207 L-25 -207 Z " />
<glyph glyph-name="paragraph" unicode="&#xb6;" horiz-adv-x="419" d="M121 -207 L170 -207 L301 533 L359 533 L229 -207 L278 -207 L417 583 L263 583 C142 583 39 479 39 313 C39 216 101 169 187 166 L121 -207 Z " />
<glyph glyph-name="periodcentered" unicode="&#xb7;" horiz-adv-x="154" d="M51 263 L99 252 L122 350 L68 352 L51 263 Z " />
<glyph glyph-name="cedilla" unicode="&#xb8;" horiz-adv-x="276" d="M79 -210 C144 -210 174 -164 174 -113 C174 -79 150 -51 121 -44 L145 14 L110 14 L79 -54 L79 -69 C116 -74 131 -94 131 -119 C131 -145 111 -169 78 -169 C63 -169 41 -163 28 -154 L20 -196 C34 -204 60 -210 79 -210 L79 -210 Z " />
<glyph glyph-name="onesuperior" unicode="&#xb9;" horiz-adv-x="134" d="M123 400 L180 712 L152 712 L81 685 L75 650 L134 669 L84 400 L123 400 Z " />
<glyph glyph-name="ordmasculine" unicode="&#xba;" horiz-adv-x="309" d="M61 303 L268 303 L274 342 L68 342 L61 303 Z M185 417 C173 418 161 422 154 427 C144 451 142 473 145 508 C149 582 178 654 216 673 C230 671 243 668 251 662 C260 646 265 621 263 587 C259 514 227 443 185 417 L185 417 Z M168 385 C208 385 243 413 265 450 C288 489 302 536 305 581 C310 673 281 705 236 705 C193 705 161 677 139 638 C118 600 105 551 102 500 C98 423 124 385 168 385 L168 385 Z " />
<glyph glyph-name="guillemotright" unicode="&#xbb;" horiz-adv-x="308" d="M112 408 L63 408 L89 228 L2 49 L49 49 L150 228 L112 408 Z M231 408 L182 408 L208 228 L121 49 L168 49 L269 228 L231 408 Z " />
<glyph glyph-name="onequarter" unicode="&#xbc;" horiz-adv-x="446" d="M116 264 L173 576 L145 576 L74 549 L68 514 L127 533 L77 264 L116 264 Z M390 87 L395 119 L363 119 L399 311 L359 311 L216 116 L211 87 L318 87 L302 0 L341 0 L357 87 L390 87 Z M252 119 L349 253 L324 119 L252 119 Z M65 0 L405 566 L405 570 L368 570 L29 4 L29 0 L65 0 Z " />
<glyph glyph-name="onehalf" unicode="&#xbd;" horiz-adv-x="457" d="M117 264 L174 576 L146 576 L75 549 L69 514 L128 533 L78 264 L117 264 Z M384 0 L389 34 L282 34 C345 94 418 199 418 256 C418 290 389 315 350 315 C327 315 303 308 279 294 L276 259 C296 272 317 278 333 278 C359 278 372 262 378 247 C367 186 309 99 239 32 L235 0 L384 0 Z M61 0 L401 566 L401 570 L364 570 L25 4 L25 0 L61 0 Z " />
<glyph glyph-name="threequarters" unicode="&#xbe;" horiz-adv-x="465" d="M37 272 C48 266 67 259 93 259 C150 259 201 300 203 352 C204 385 169 416 145 427 L145 430 C173 443 220 488 221 518 C223 556 191 579 153 579 C128 579 104 571 86 559 L85 525 C103 536 121 542 139 542 C166 542 177 533 183 509 C171 483 138 447 106 435 L103 416 C132 403 156 374 164 350 C157 308 124 294 94 294 C78 294 62 297 44 306 L37 272 Z M408 87 L413 119 L381 119 L417 311 L377 311 L234 116 L229 87 L336 87 L320 0 L359 0 L375 87 L408 87 Z M270 119 L367 253 L342 119 L270 119 Z M94 0 L434 566 L434 570 L397 570 L58 4 L58 0 L94 0 Z " />
<glyph glyph-name="questiondown" unicode="&#xbf;" horiz-adv-x="240" d="M-16 -8 C-17 -59 39 -128 132 -144 L147 -97 C96 -85 47 -54 27 -9 C53 41 125 113 155 161 C163 171 167 181 167 190 C167 215 159 243 154 270 L115 264 L121 185 C112 170 60 116 51 102 C14 58 -16 22 -16 -8 L-16 -8 Z M194 451 L143 457 L114 336 L171 334 L194 451 Z " />
<glyph glyph-name="Agrave" unicode="&#xc0;" horiz-adv-x="380" d="M-30 0 L28 0 L110 195 L252 195 L258 0 L316 0 L287 583 L229 583 L-30 0 Z M240 501 L243 501 L251 242 L130 242 L240 501 Z M292 634 L229 740 L172 740 L244 634 L292 634 Z " />
<glyph glyph-name="Aacute" unicode="&#xc1;" horiz-adv-x="380" d="M-30 0 L28 0 L110 195 L252 195 L258 0 L316 0 L287 583 L229 583 L-30 0 Z M240 501 L243 501 L251 242 L130 242 L240 501 Z M281 634 L377 740 L320 740 L233 634 L281 634 Z " />
<glyph glyph-name="Acircumflex" unicode="&#xc2;" horiz-adv-x="380" d="M-30 0 L28 0 L110 195 L252 195 L258 0 L316 0 L287 583 L229 583 L-30 0 Z M240 501 L243 501 L251 242 L130 242 L240 501 Z M265 743 L167 631 L215 631 L278 706 L281 706 L316 631 L364 631 L311 743 L265 743 Z " />
<glyph glyph-name="Atilde" unicode="&#xc3;" horiz-adv-x="380" d="M-30 0 L28 0 L110 195 L252 195 L258 0 L316 0 L287 583 L229 583 L-30 0 Z M240 501 L243 501 L251 242 L130 242 L240 501 Z M362 720 C351 701 332 688 314 688 C287 688 266 721 231 721 C201 721 176 698 158 674 L174 646 C191 667 206 676 223 676 C251 676 276 644 309 644 C342 644 365 667 380 692 L362 720 Z " />
<glyph glyph-name="Adieresis" unicode="&#xc4;" horiz-adv-x="380" d="M-30 0 L28 0 L110 195 L252 195 L258 0 L316 0 L287 583 L229 583 L-30 0 Z M240 501 L243 501 L251 242 L130 242 L240 501 Z M172 644 L218 633 L240 726 L189 728 L172 644 Z M306 644 L351 633 L374 726 L323 728 L306 644 Z " />
<glyph glyph-name="Aring" unicode="&#xc5;" horiz-adv-x="380" d="M-30 0 L28 0 L110 195 L252 195 L258 0 L316 0 L287 583 L229 583 L-30 0 Z M290 767 C249 767 203 738 203 671 C203 634 228 612 261 612 C305 612 350 642 350 709 C350 746 325 767 290 767 L290 767 Z M240 501 L243 501 L251 242 L130 242 L240 501 Z M284 735 C304 735 314 725 314 705 C314 672 297 643 268 643 C247 643 239 656 239 675 C239 716 259 735 284 735 L284 735 Z " />
<glyph glyph-name="AE" unicode="&#xc6;" horiz-adv-x="536" d="M211 0 L461 0 L469 52 L277 52 L315 273 L475 273 L483 323 L324 323 L361 532 L552 532 L560 583 L289 583 L-38 0 L21 0 L120 184 L243 184 L211 0 Z M297 511 L300 511 L252 235 L148 235 L297 511 Z " />
<glyph glyph-name="Ccedilla" unicode="&#xc7;" horiz-adv-x="377" d="M153 -210 C218 -210 248 -164 248 -113 C248 -79 224 -51 195 -44 L211 -4 C256 -2 291 11 310 21 L318 72 C286 56 250 46 213 46 C134 46 95 85 95 181 C95 352 176 537 305 537 C334 537 362 534 386 519 L395 571 C373 582 342 588 306 588 C130 588 37 361 37 176 C37 68 77 3 175 -4 L153 -54 L153 -69 C190 -74 205 -94 205 -119 C205 -145 185 -169 152 -169 C137 -169 115 -163 102 -154 L94 -196 C108 -204 134 -210 153 -210 L153 -210 Z " />
<glyph glyph-name="Egrave" unicode="&#xc8;" horiz-adv-x="341" d="M16 0 L265 0 L274 52 L81 52 L120 275 L279 275 L288 325 L129 325 L165 532 L355 532 L364 583 L117 583 L16 0 Z M293 634 L230 740 L173 740 L245 634 L293 634 Z " />
<glyph glyph-name="Eacute" unicode="&#xc9;" horiz-adv-x="341" d="M16 0 L265 0 L274 52 L81 52 L120 275 L279 275 L288 325 L129 325 L165 532 L355 532 L364 583 L117 583 L16 0 Z M245 634 L341 740 L284 740 L197 634 L245 634 Z " />
<glyph glyph-name="Ecircumflex" unicode="&#xca;" horiz-adv-x="341" d="M16 0 L265 0 L274 52 L81 52 L120 275 L279 275 L288 325 L129 325 L165 532 L355 532 L364 583 L117 583 L16 0 Z M250 742 L152 630 L200 630 L263 705 L266 705 L301 630 L349 630 L296 742 L250 742 Z " />
<glyph glyph-name="Edieresis" unicode="&#xcb;" horiz-adv-x="341" d="M16 0 L265 0 L274 52 L81 52 L120 275 L279 275 L288 325 L129 325 L165 532 L355 532 L364 583 L117 583 L16 0 Z M161 645 L207 634 L229 727 L178 729 L161 645 Z M295 645 L340 634 L363 727 L312 729 L295 645 Z " />
<glyph glyph-name="Igrave" unicode="&#xcc;" horiz-adv-x="177" d="M171 634 L108 740 L51 740 L123 634 L171 634 Z M16 0 L72 0 L174 583 L118 583 L16 0 Z " />
<glyph glyph-name="Iacute" unicode="&#xcd;" horiz-adv-x="177" d="M16 0 L72 0 L174 583 L118 583 L16 0 Z M170 634 L266 740 L209 740 L122 634 L170 634 Z " />
<glyph glyph-name="Icircumflex" unicode="&#xce;" horiz-adv-x="177" d="M16 0 L72 0 L174 583 L118 583 L16 0 Z M151 742 L53 630 L101 630 L164 705 L167 705 L202 630 L250 630 L197 742 L151 742 Z " />
<glyph glyph-name="Idieresis" unicode="&#xcf;" horiz-adv-x="177" d="M16 0 L72 0 L174 583 L118 583 L16 0 Z M64 645 L110 634 L132 727 L81 729 L64 645 Z M198 645 L243 634 L266 727 L215 729 L198 645 Z " />
<glyph glyph-name="Eth" unicode="&#xd0;" horiz-adv-x="452" d="M27 277 L65 277 L17 0 L144 0 C309 0 428 191 428 394 C428 530 350 583 239 583 L119 583 L73 324 L35 324 L27 277 Z M220 277 L229 324 L129 324 L166 532 L218 532 C313 532 369 497 369 391 C369 223 280 52 144 52 L82 52 L121 277 L220 277 Z " />
<glyph glyph-name="Ntilde" unicode="&#xd1;" horiz-adv-x="456" d="M396 720 C385 701 366 688 348 688 C321 688 300 721 265 721 C235 721 210 698 192 674 L208 646 C225 667 240 676 257 676 C285 676 310 644 343 644 C376 644 399 667 414 692 L396 720 Z M16 0 L72 0 L151 450 L153 450 L300 0 L351 0 L454 583 L398 583 L319 137 L317 137 L171 583 L118 583 L16 0 Z " />
<glyph glyph-name="Ograve" unicode="&#xd2;" horiz-adv-x="464" d="M315 634 L252 740 L195 740 L267 634 L315 634 Z M186 -5 C352 -5 445 242 445 411 C445 518 398 588 294 588 C120 588 31 336 31 170 C31 63 83 -5 186 -5 L186 -5 Z M193 46 C127 46 90 87 90 171 C90 311 162 537 284 537 C349 537 386 501 386 417 C386 274 311 46 193 46 L193 46 Z " />
<glyph glyph-name="Oacute" unicode="&#xd3;" horiz-adv-x="464" d="M305 634 L401 740 L344 740 L257 634 L305 634 Z M186 -5 C352 -5 445 242 445 411 C445 518 398 588 294 588 C120 588 31 336 31 170 C31 63 83 -5 186 -5 L186 -5 Z M193 46 C127 46 90 87 90 171 C90 311 162 537 284 537 C349 537 386 501 386 417 C386 274 311 46 193 46 L193 46 Z " />
<glyph glyph-name="Ocircumflex" unicode="&#xd4;" horiz-adv-x="464" d="M186 -5 C352 -5 445 242 445 411 C445 518 398 588 294 588 C120 588 31 336 31 170 C31 63 83 -5 186 -5 L186 -5 Z M193 46 C127 46 90 87 90 171 C90 311 162 537 284 537 C349 537 386 501 386 417 C386 274 311 46 193 46 L193 46 Z M299 743 L201 631 L249 631 L312 706 L315 706 L350 631 L398 631 L345 743 L299 743 Z " />
<glyph glyph-name="Otilde" unicode="&#xd5;" horiz-adv-x="464" d="M397 719 C386 700 367 687 349 687 C322 687 301 720 266 720 C236 720 211 697 193 673 L209 645 C226 666 241 675 258 675 C286 675 311 643 344 643 C377 643 400 666 415 691 L397 719 Z M186 -5 C352 -5 445 242 445 411 C445 518 398 588 294 588 C120 588 31 336 31 170 C31 63 83 -5 186 -5 L186 -5 Z M193 46 C127 46 90 87 90 171 C90 311 162 537 284 537 C349 537 386 501 386 417 C386 274 311 46 193 46 L193 46 Z " />
<glyph glyph-name="Odieresis" unicode="&#xd6;" horiz-adv-x="464" d="M204 644 L250 633 L272 726 L221 728 L204 644 Z M338 644 L383 633 L406 726 L355 728 L338 644 Z M186 -5 C352 -5 445 242 445 411 C445 518 398 588 294 588 C120 588 31 336 31 170 C31 63 83 -5 186 -5 L186 -5 Z M193 46 C127 46 90 87 90 171 C90 311 162 537 284 537 C349 537 386 501 386 417 C386 274 311 46 193 46 L193 46 Z " />
<glyph glyph-name="multiply" unicode="&#xd7;" horiz-adv-x="346" d="M50 128 L173 259 L250 128 L289 156 L207 295 L338 435 L309 462 L186 331 L109 463 L70 435 L152 295 L21 156 L50 128 Z " />
<glyph glyph-name="Oslash" unicode="&#xd8;" horiz-adv-x="464" d="M186 -5 C352 -5 445 242 445 411 C445 450 438 485 425 512 L482 588 L433 588 L402 546 C377 573 342 588 294 588 C120 588 31 336 31 170 C31 133 37 101 49 74 L-10 -5 L39 -5 L72 40 C98 11 136 -5 186 -5 L186 -5 Z M193 46 C154 46 125 60 108 88 L383 455 C385 443 386 431 386 417 C386 274 311 46 193 46 L193 46 Z M90 171 C90 311 162 537 284 537 C321 537 349 525 366 499 L93 133 C91 144 90 157 90 171 L90 171 Z " />
<glyph glyph-name="Ugrave" unicode="&#xd9;" horiz-adv-x="438" d="M312 634 L249 740 L192 740 L264 634 L312 634 Z M176 -5 C263 -5 346 47 377 223 L441 583 L385 583 L320 218 C299 96 250 47 184 47 C130 47 98 69 98 139 C98 158 100 180 105 206 L171 583 L115 583 L47 200 C43 175 40 152 40 132 C40 24 102 -5 176 -5 L176 -5 Z " />
<glyph glyph-name="Uacute" unicode="&#xda;" horiz-adv-x="438" d="M294 634 L390 740 L333 740 L246 634 L294 634 Z M176 -5 C263 -5 346 47 377 223 L441 583 L385 583 L320 218 C299 96 250 47 184 47 C130 47 98 69 98 139 C98 158 100 180 105 206 L171 583 L115 583 L47 200 C43 175 40 152 40 132 C40 24 102 -5 176 -5 L176 -5 Z " />
<glyph glyph-name="Ucircumflex" unicode="&#xdb;" horiz-adv-x="438" d="M176 -5 C263 -5 346 47 377 223 L441 583 L385 583 L320 218 C299 96 250 47 184 47 C130 47 98 69 98 139 C98 158 100 180 105 206 L171 583 L115 583 L47 200 C43 175 40 152 40 132 C40 24 102 -5 176 -5 L176 -5 Z M281 742 L183 630 L231 630 L294 705 L297 705 L332 630 L380 630 L327 742 L281 742 Z " />
<glyph glyph-name="Udieresis" unicode="&#xdc;" horiz-adv-x="438" d="M191 644 L237 633 L259 726 L208 728 L191 644 Z M325 644 L370 633 L393 726 L342 728 L325 644 Z M176 -5 C263 -5 346 47 377 223 L441 583 L385 583 L320 218 C299 96 250 47 184 47 C130 47 98 69 98 139 C98 158 100 180 105 206 L171 583 L115 583 L47 200 C43 175 40 152 40 132 C40 24 102 -5 176 -5 L176 -5 Z " />
<glyph glyph-name="Yacute" unicode="&#xdd;" horiz-adv-x="371" d="M418 583 L358 583 L190 275 L188 275 L126 583 L66 583 L149 217 L110 0 L167 0 L203 207 L418 583 Z M256 634 L352 740 L295 740 L208 634 L256 634 Z " />
<glyph glyph-name="Thorn" unicode="&#xde;" horiz-adv-x="367" d="M16 0 L73 0 L91 105 L142 105 C272 105 353 223 353 355 C353 433 303 475 230 475 L156 475 L175 583 L118 583 L16 0 Z M209 424 C270 424 294 397 294 342 C294 237 226 156 146 156 L100 156 L147 424 L209 424 Z " />
<glyph glyph-name="germandbls" unicode="&#xdf;" horiz-adv-x="404" d="M44 406 L100 406 L27 -18 C20 -56 11 -87 2 -110 C-9 -139 -20 -153 -27 -163 C-53 -164 -77 -158 -96 -150 L-110 -199 C-88 -208 -63 -212 -39 -212 C17 -212 63 -98 77 -20 L163 483 C174 548 193 579 215 606 C228 610 240 611 251 611 C297 610 332 597 332 529 C332 439 205 408 205 320 C205 265 228 242 263 205 C285 181 308 151 312 109 C313 95 310 81 306 70 C292 51 260 43 230 43 C209 43 176 52 153 64 L141 14 C166 1 194 -6 229 -6 C274 -6 307 12 330 39 C350 62 361 92 361 123 C361 170 329 210 294 245 C269 274 255 295 255 328 C255 408 383 429 383 545 C383 617 337 658 267 658 C236 658 207 649 185 631 C150 604 126 551 114 488 L107 450 L51 450 L44 406 Z " />
<glyph glyph-name="agrave" unicode="&#xe0;" horiz-adv-x="331" d="M237 0 L316 456 L265 456 L260 429 C230 446 200 456 180 456 C143 456 115 427 95 399 C46 327 17 170 17 63 C17 41 19 18 21 0 L81 0 L212 157 L185 0 L237 0 Z M73 68 C72 78 71 90 71 101 C72 192 107 347 155 409 L173 409 C196 406 221 397 251 380 L225 228 L83 65 L73 68 Z M256 527 L166 676 L112 676 L213 527 L256 527 Z " />
<glyph glyph-name="aacute" unicode="&#xe1;" horiz-adv-x="331" d="M237 0 L316 456 L265 456 L260 429 C230 446 200 456 180 456 C143 456 115 427 95 399 C46 327 17 170 17 63 C17 41 19 18 21 0 L81 0 L212 157 L185 0 L237 0 Z M73 68 C72 78 71 90 71 101 C72 192 107 347 155 409 L173 409 C196 406 221 397 251 380 L225 228 L83 65 L73 68 Z M236 528 L337 677 L283 677 L193 528 L236 528 Z " />
<glyph glyph-name="acircumflex" unicode="&#xe2;" horiz-adv-x="331" d="M237 0 L316 456 L265 456 L260 429 C230 446 200 456 180 456 C143 456 115 427 95 399 C46 327 17 170 17 63 C17 41 19 18 21 0 L81 0 L212 157 L185 0 L237 0 Z M73 68 C72 78 71 90 71 101 C72 192 107 347 155 409 L173 409 C196 406 221 397 251 380 L225 228 L83 65 L73 68 Z M227 676 L124 528 L174 528 L239 633 L242 633 L271 528 L318 528 L272 676 L227 676 Z " />
<glyph glyph-name="atilde" unicode="&#xe3;" horiz-adv-x="331" d="M237 0 L316 456 L265 456 L260 429 C230 446 200 456 180 456 C143 456 115 427 95 399 C46 327 17 170 17 63 C17 41 19 18 21 0 L81 0 L212 157 L185 0 L237 0 Z M73 68 C72 78 71 90 71 101 C72 192 107 347 155 409 L173 409 C196 406 221 397 251 380 L225 228 L83 65 L73 68 Z M327 633 C316 615 298 602 279 602 C253 602 234 634 199 634 C169 634 144 612 126 587 L143 559 C159 580 174 589 191 589 C219 589 242 558 275 558 C308 558 329 581 344 606 L327 633 Z " />
<glyph glyph-name="adieresis" unicode="&#xe4;" horiz-adv-x="331" d="M237 0 L316 456 L265 456 L260 429 C230 446 200 456 180 456 C143 456 115 427 95 399 C46 327 17 170 17 63 C17 41 19 18 21 0 L81 0 L212 157 L185 0 L237 0 Z M73 68 C72 78 71 90 71 101 C72 192 107 347 155 409 L173 409 C196 406 221 397 251 380 L225 228 L83 65 L73 68 Z M136 562 L181 551 L204 645 L153 647 L136 562 Z M271 562 L316 551 L339 645 L288 647 L271 562 Z " />
<glyph glyph-name="aring" unicode="&#xe5;" horiz-adv-x="331" d="M237 0 L316 456 L265 456 L260 429 C230 446 200 456 180 456 C143 456 115 427 95 399 C46 327 17 170 17 63 C17 41 19 18 21 0 L81 0 L212 157 L185 0 L237 0 Z M73 68 C72 78 71 90 71 101 C72 192 107 347 155 409 L173 409 C196 406 221 397 251 380 L225 228 L83 65 L73 68 Z M249 679 C208 679 162 649 162 582 C162 546 187 523 220 523 C264 523 308 553 308 620 C308 658 284 679 249 679 L249 679 Z M243 647 C263 647 273 636 273 616 C273 584 255 555 227 555 C207 555 198 568 198 586 C198 627 218 647 243 647 L243 647 Z " />
<glyph glyph-name="ae" unicode="&#xe6;" horiz-adv-x="494" d="M441 111 L416 140 C372 97 323 64 286 49 L274 54 C270 71 268 91 267 114 C267 136 267 160 270 183 C337 220 437 282 477 325 L481 418 C450 444 415 454 385 454 C349 454 319 433 297 406 C262 428 210 454 181 454 C144 454 115 424 95 396 C54 336 18 194 18 80 C18 50 20 24 23 0 L82 0 L215 152 C214 131 213 110 213 90 C213 58 217 27 225 1 L276 -7 C344 24 410 77 441 111 L441 111 Z M74 67 C73 80 71 93 71 106 C72 207 111 353 155 407 C164 408 174 407 183 405 C212 400 241 385 271 365 C248 322 233 271 223 218 L84 64 L74 67 Z M349 407 C354 408 360 408 366 408 C389 408 415 401 431 387 L427 339 C392 300 323 258 277 232 C290 304 314 371 349 407 L349 407 Z " />
<glyph glyph-name="ccedilla" unicode="&#xe7;" horiz-adv-x="282" d="M49 -210 C114 -210 144 -164 144 -113 C144 -79 120 -51 91 -44 L113 9 C168 41 212 88 236 118 L210 146 C170 102 129 66 95 50 L80 54 C75 75 74 94 73 119 C73 222 103 347 153 403 C159 404 166 405 173 405 C202 405 236 394 261 381 L280 431 C257 445 218 454 187 454 C152 454 121 431 100 405 C40 341 20 191 20 99 C20 64 23 33 32 3 L72 -3 L49 -54 L49 -69 C86 -74 101 -94 101 -119 C101 -145 81 -169 48 -169 C33 -169 11 -163 -2 -154 L-10 -196 C4 -204 30 -210 49 -210 L49 -210 Z " />
<glyph glyph-name="egrave" unicode="&#xe8;" horiz-adv-x="300" d="M246 112 L222 142 C178 99 129 66 92 50 L80 55 C75 74 72 96 73 121 C73 141 74 161 76 182 C143 219 243 281 283 324 L288 418 C256 444 221 454 190 454 C142 454 105 416 83 375 C38 297 19 192 19 91 C19 59 23 29 32 3 L82 -5 C150 26 216 79 246 112 L246 112 Z M155 407 C160 408 166 408 172 408 C196 408 222 400 237 387 L234 338 C198 299 129 256 82 229 C95 302 120 370 155 407 L155 407 Z M245 528 L155 677 L101 677 L202 528 L245 528 Z " />
<glyph glyph-name="eacute" unicode="&#xe9;" horiz-adv-x="300" d="M246 112 L222 142 C178 99 129 66 92 50 L80 55 C75 74 72 96 73 121 C73 141 74 161 76 182 C143 219 243 281 283 324 L288 418 C256 444 221 454 190 454 C142 454 105 416 83 375 C38 297 19 192 19 91 C19 59 23 29 32 3 L82 -5 C150 26 216 79 246 112 L246 112 Z M155 407 C160 408 166 408 172 408 C196 408 222 400 237 387 L234 338 C198 299 129 256 82 229 C95 302 120 370 155 407 L155 407 Z M214 528 L315 677 L261 677 L171 528 L214 528 Z " />
<glyph glyph-name="ecircumflex" unicode="&#xea;" horiz-adv-x="300" d="M246 112 L222 142 C178 99 129 66 92 50 L80 55 C75 74 72 96 73 121 C73 141 74 161 76 182 C143 219 243 281 283 324 L288 418 C256 444 221 454 190 454 C142 454 105 416 83 375 C38 297 19 192 19 91 C19 59 23 29 32 3 L82 -5 C150 26 216 79 246 112 L246 112 Z M155 407 C160 408 166 408 172 408 C196 408 222 400 237 387 L234 338 C198 299 129 256 82 229 C95 302 120 370 155 407 L155 407 Z M212 676 L109 528 L159 528 L224 633 L227 633 L256 528 L303 528 L257 676 L212 676 Z " />
<glyph glyph-name="edieresis" unicode="&#xeb;" horiz-adv-x="300" d="M246 112 L222 142 C178 99 129 66 92 50 L80 55 C75 74 72 96 73 121 C73 141 74 161 76 182 C143 219 243 281 283 324 L288 418 C256 444 221 454 190 454 C142 454 105 416 83 375 C38 297 19 192 19 91 C19 59 23 29 32 3 L82 -5 C150 26 216 79 246 112 L246 112 Z M155 407 C160 408 166 408 172 408 C196 408 222 400 237 387 L234 338 C198 299 129 256 82 229 C95 302 120 370 155 407 L155 407 Z M249 561 L294 550 L317 644 L266 646 L249 561 Z M114 561 L159 550 L182 644 L131 646 L114 561 Z " />
<glyph glyph-name="igrave" unicode="&#xec;" horiz-adv-x="152" d="M57 0 L135 450 L84 450 L7 0 L57 0 Z M139 528 L49 677 L-5 677 L96 528 L139 528 Z " />
<glyph glyph-name="iacute" unicode="&#xed;" horiz-adv-x="152" d="M146 528 L247 677 L193 677 L103 528 L146 528 Z M57 0 L135 450 L84 450 L7 0 L57 0 Z " />
<glyph glyph-name="icircumflex" unicode="&#xee;" horiz-adv-x="152" d="M131 676 L28 528 L78 528 L143 633 L146 633 L175 528 L222 528 L176 676 L131 676 Z M57 0 L135 450 L84 450 L7 0 L57 0 Z " />
<glyph glyph-name="idieresis" unicode="&#xef;" horiz-adv-x="152" d="M30 562 L75 551 L98 645 L47 647 L30 562 Z M165 562 L210 551 L233 645 L182 647 L165 562 Z M57 0 L135 450 L84 450 L7 0 L57 0 Z " />
<glyph glyph-name="eth" unicode="&#xf0;" horiz-adv-x="328" d="M160 522 L211 563 C233 527 247 486 251 438 C237 448 222 454 205 454 C144 454 93 408 61 338 C34 278 20 212 19 144 C18 43 51 -5 110 -5 C159 -5 204 31 234 89 C277 173 303 282 303 380 C303 464 290 532 249 594 L299 634 L275 664 L227 625 C213 641 197 657 178 673 L148 637 C163 623 177 609 189 594 L136 552 L160 522 Z M136 41 C121 42 99 46 89 57 C76 82 73 111 74 147 C75 239 115 374 178 410 C182 409 196 408 199 406 C213 403 236 392 253 378 C249 248 211 108 136 41 L136 41 Z " />
<glyph glyph-name="ntilde" unicode="&#xf1;" horiz-adv-x="348" d="M57 0 L108 293 C161 356 216 395 243 402 L258 395 C263 373 262 339 246 240 L205 0 L256 0 L300 252 C309 309 314 352 314 383 C314 434 301 454 271 454 C227 454 172 416 119 357 L135 450 L84 450 L7 0 L57 0 Z M322 633 C311 615 293 602 274 602 C248 602 229 634 194 634 C164 634 139 612 121 587 L138 559 C154 580 169 589 186 589 C214 589 237 558 270 558 C303 558 324 581 339 606 L322 633 Z " />
<glyph glyph-name="ograve" unicode="&#xf2;" horiz-adv-x="328" d="M133 41 C117 42 99 47 89 56 C78 80 73 104 73 139 C72 240 117 382 177 410 C197 407 216 402 227 395 C239 373 245 345 244 308 C244 209 200 89 133 41 L133 41 Z M111 -5 C162 -5 207 37 240 92 C276 156 298 236 298 299 C298 414 262 454 204 454 C150 454 105 415 74 359 C39 295 20 212 20 140 C20 43 52 -5 111 -5 L111 -5 Z M233 528 L143 677 L89 677 L190 528 L233 528 Z " />
<glyph glyph-name="oacute" unicode="&#xf3;" horiz-adv-x="328" d="M218 528 L319 677 L265 677 L175 528 L218 528 Z M133 41 C117 42 99 47 89 56 C78 80 73 104 73 139 C72 240 117 382 177 410 C197 407 216 402 227 395 C239 373 245 345 244 308 C244 209 200 89 133 41 L133 41 Z M111 -5 C162 -5 207 37 240 92 C276 156 298 236 298 299 C298 414 262 454 204 454 C150 454 105 415 74 359 C39 295 20 212 20 140 C20 43 52 -5 111 -5 L111 -5 Z " />
<glyph glyph-name="ocircumflex" unicode="&#xf4;" horiz-adv-x="328" d="M219 671 L116 523 L166 523 L231 628 L234 628 L263 523 L310 523 L264 671 L219 671 Z M133 41 C117 42 99 47 89 56 C78 80 73 104 73 139 C72 240 117 382 177 410 C197 407 216 402 227 395 C239 373 245 345 244 308 C244 209 200 89 133 41 L133 41 Z M111 -5 C162 -5 207 37 240 92 C276 156 298 236 298 299 C298 414 262 454 204 454 C150 454 105 415 74 359 C39 295 20 212 20 140 C20 43 52 -5 111 -5 L111 -5 Z " />
<glyph glyph-name="otilde" unicode="&#xf5;" horiz-adv-x="328" d="M133 41 C117 42 99 47 89 56 C78 80 73 104 73 139 C72 240 117 382 177 410 C197 407 216 402 227 395 C239 373 245 345 244 308 C244 209 200 89 133 41 L133 41 Z M111 -5 C162 -5 207 37 240 92 C276 156 298 236 298 299 C298 414 262 454 204 454 C150 454 105 415 74 359 C39 295 20 212 20 140 C20 43 52 -5 111 -5 L111 -5 Z M313 633 C302 615 284 602 265 602 C239 602 220 634 185 634 C155 634 130 612 112 587 L129 559 C145 580 160 589 177 589 C205 589 228 558 261 558 C294 558 315 581 330 606 L313 633 Z " />
<glyph glyph-name="odieresis" unicode="&#xf6;" horiz-adv-x="328" d="M116 562 L161 551 L184 645 L133 647 L116 562 Z M251 562 L296 551 L319 645 L268 647 L251 562 Z M133 41 C117 42 99 47 89 56 C78 80 73 104 73 139 C72 240 117 382 177 410 C197 407 216 402 227 395 C239 373 245 345 244 308 C244 209 200 89 133 41 L133 41 Z M111 -5 C162 -5 207 37 240 92 C276 156 298 236 298 299 C298 414 262 454 204 454 C150 454 105 415 74 359 C39 295 20 212 20 140 C20 43 52 -5 111 -5 L111 -5 Z " />
<glyph glyph-name="divide" unicode="&#xf7;" horiz-adv-x="360" d="M46 273 L320 273 L329 319 L55 319 L46 273 Z M174 393 L222 382 L245 480 L191 482 L174 393 Z M125 107 L173 96 L196 194 L142 196 L125 107 Z " />
<glyph glyph-name="oslash" unicode="&#xf8;" horiz-adv-x="330" d="M112 -5 C163 -5 208 37 241 92 C277 156 299 236 299 299 C299 329 296 354 291 374 L350 454 L307 454 L277 414 C261 442 236 454 205 454 C151 454 106 415 75 359 C40 295 21 212 21 140 C21 114 23 91 27 72 L-29 -5 L13 -5 L42 34 C57 8 81 -5 112 -5 L112 -5 Z M74 139 C73 240 118 382 178 410 C198 407 217 402 228 395 C233 385 237 375 240 363 L74 136 L74 139 Z M134 41 C118 42 100 47 90 56 C85 65 82 75 79 85 L245 311 L245 308 C245 209 201 89 134 41 L134 41 Z " />
<glyph glyph-name="ugrave" unicode="&#xf9;" horiz-adv-x="344" d="M277 450 L226 160 C174 96 116 57 90 51 L76 56 C75 80 75 112 92 212 L133 450 L82 450 L37 192 C27 137 22 94 22 63 C22 17 34 -5 61 -5 C106 -5 165 36 215 93 L199 0 L249 0 L327 450 L277 450 Z M247 528 L157 677 L103 677 L204 528 L247 528 Z " />
<glyph glyph-name="uacute" unicode="&#xfa;" horiz-adv-x="344" d="M277 450 L226 160 C174 96 116 57 90 51 L76 56 C75 80 75 112 92 212 L133 450 L82 450 L37 192 C27 137 22 94 22 63 C22 17 34 -5 61 -5 C106 -5 165 36 215 93 L199 0 L249 0 L327 450 L277 450 Z M220 528 L321 677 L267 677 L177 528 L220 528 Z " />
<glyph glyph-name="ucircumflex" unicode="&#xfb;" horiz-adv-x="344" d="M277 450 L226 160 C174 96 116 57 90 51 L76 56 C75 80 75 112 92 212 L133 450 L82 450 L37 192 C27 137 22 94 22 63 C22 17 34 -5 61 -5 C106 -5 165 36 215 93 L199 0 L249 0 L327 450 L277 450 Z M220 676 L117 528 L167 528 L232 633 L235 633 L264 528 L311 528 L265 676 L220 676 Z " />
<glyph glyph-name="udieresis" unicode="&#xfc;" horiz-adv-x="344" d="M277 450 L226 160 C174 96 116 57 90 51 L76 56 C75 80 75 112 92 212 L133 450 L82 450 L37 192 C27 137 22 94 22 63 C22 17 34 -5 61 -5 C106 -5 165 36 215 93 L199 0 L249 0 L327 450 L277 450 Z M258 562 L303 551 L326 645 L275 647 L258 562 Z M123 562 L168 551 L191 645 L140 647 L123 562 Z " />
<glyph glyph-name="yacute" unicode="&#xfd;" horiz-adv-x="311" d="M76 -207 L179 70 L326 450 L272 450 L125 62 L121 62 C106 116 98 180 98 228 C98 305 102 378 114 450 L61 450 C51 389 47 328 47 266 C47 177 63 77 82 0 L99 0 L19 -197 L21 -207 L76 -207 Z M213 528 L314 677 L260 677 L170 528 L213 528 Z " />
<glyph glyph-name="thorn" unicode="&#xfe;" horiz-adv-x="333" d="M22 -207 L58 5 C78 -2 99 -5 120 -5 C231 -5 303 163 303 309 C303 385 282 454 234 454 C212 454 172 436 129 411 L171 653 L119 653 L-30 -207 L22 -207 Z M208 403 L223 402 C238 384 249 349 249 298 C249 171 191 44 130 44 C109 44 89 47 67 56 L120 361 C152 381 183 397 208 403 L208 403 Z " />
<glyph glyph-name="ydieresis" unicode="&#xff;" horiz-adv-x="311" d="M116 563 L161 552 L184 646 L133 648 L116 563 Z M251 563 L296 552 L319 646 L268 648 L251 563 Z M76 -207 L179 70 L326 450 L272 450 L125 62 L121 62 C106 116 98 180 98 228 C98 305 102 378 114 450 L61 450 C51 389 47 328 47 266 C47 177 63 77 82 0 L99 0 L19 -197 L21 -207 L76 -207 Z " />
<glyph glyph-name="Amacron" unicode="&#x100;" horiz-adv-x="380" d="M-30 0 L28 0 L110 195 L252 195 L258 0 L316 0 L287 583 L229 583 L-30 0 Z M240 501 L243 501 L251 242 L130 242 L240 501 Z M177 665 L365 665 L374 712 L185 712 L177 665 Z " />
<glyph glyph-name="amacron" unicode="&#x101;" horiz-adv-x="331" d="M237 0 L316 456 L265 456 L260 429 C230 446 200 456 180 456 C143 456 115 427 95 399 C46 327 17 170 17 63 C17 41 19 18 21 0 L81 0 L212 157 L185 0 L237 0 Z M73 68 C72 78 71 90 71 101 C72 192 107 347 155 409 L173 409 C196 406 221 397 251 380 L225 228 L83 65 L73 68 Z M139 577 L328 577 L336 623 L147 623 L139 577 Z " />
<glyph glyph-name="Abreve" unicode="&#x102;" horiz-adv-x="380" d="M-30 0 L28 0 L110 195 L252 195 L258 0 L316 0 L287 583 L229 583 L-30 0 Z M240 501 L243 501 L251 242 L130 242 L240 501 Z M268 674 C238 674 227 697 224 733 L185 720 C186 668 211 632 262 632 C314 632 354 666 374 722 L340 734 C328 698 303 674 268 674 L268 674 Z " />
<glyph glyph-name="abreve" unicode="&#x103;" horiz-adv-x="331" d="M237 0 L316 456 L265 456 L260 429 C230 446 200 456 180 456 C143 456 115 427 95 399 C46 327 17 170 17 63 C17 41 19 18 21 0 L81 0 L212 157 L185 0 L237 0 Z M73 68 C72 78 71 90 71 101 C72 192 107 347 155 409 L173 409 C196 406 221 397 251 380 L225 228 L83 65 L73 68 Z M232 575 C197 575 188 602 186 637 L147 623 C148 571 170 533 223 533 C277 533 316 569 335 626 L302 637 C289 602 270 575 232 575 L232 575 Z " />
<glyph glyph-name="Aogonek" unicode="&#x104;" horiz-adv-x="380" d="M298 -183 L303 -142 C287 -150 268 -155 253 -155 C232 -155 217 -145 217 -120 C217 -78 253 -26 297 0 L316 0 L287 583 L229 583 L-30 0 L28 0 L110 195 L252 195 L258 5 C215 -25 172 -77 172 -135 C172 -177 197 -198 237 -198 C257 -198 281 -194 298 -183 L298 -183 Z M240 501 L243 501 L251 242 L130 242 L240 501 Z " />
<glyph glyph-name="aogonek" unicode="&#x105;" horiz-adv-x="331" d="M219 -183 L224 -142 C208 -150 189 -155 174 -155 C153 -155 138 -145 138 -120 C138 -78 174 -26 218 0 L237 0 L316 456 L265 456 L260 429 C230 446 200 456 180 456 C143 456 115 427 95 399 C46 327 17 170 17 63 C17 41 19 18 21 0 L81 0 L212 157 L187 11 C141 -18 93 -74 93 -135 C93 -177 118 -198 158 -198 C178 -198 202 -194 219 -183 L219 -183 Z M73 68 C72 78 71 90 71 101 C72 192 107 347 155 409 L173 409 C196 406 221 397 251 380 L225 228 L83 65 L73 68 Z " />
<glyph glyph-name="Cacute" unicode="&#x106;" horiz-adv-x="376" d="M195 -5 C247 -5 289 10 310 21 L318 72 C286 56 250 46 213 46 C134 46 95 85 95 181 C95 352 176 537 305 537 C334 537 362 534 386 519 L395 571 C373 582 342 588 306 588 C130 588 37 361 37 176 C37 61 83 -5 195 -5 L195 -5 Z M294 634 L390 740 L333 740 L246 634 L294 634 Z " />
<glyph glyph-name="cacute" unicode="&#x107;" horiz-adv-x="282" d="M211 528 L312 677 L258 677 L168 528 L211 528 Z M210 146 C170 102 129 66 95 50 L80 54 C75 75 74 94 73 119 C73 222 103 347 153 403 C159 404 166 405 173 405 C202 405 236 394 261 381 L280 431 C257 445 218 454 187 454 C152 454 121 431 100 405 C40 341 20 191 20 99 C20 64 23 33 32 3 L86 -5 C153 26 209 83 236 118 L210 146 Z " />
<glyph glyph-name="Ccircumflex" unicode="&#x108;" horiz-adv-x="376" d="M195 -5 C247 -5 289 10 310 21 L318 72 C286 56 250 46 213 46 C134 46 95 85 95 181 C95 352 176 537 305 537 C334 537 362 534 386 519 L395 571 C373 582 342 588 306 588 C130 588 37 361 37 176 C37 61 83 -5 195 -5 L195 -5 Z M300 742 L202 630 L250 630 L313 705 L316 705 L351 630 L399 630 L346 742 L300 742 Z " />
<glyph glyph-name="ccircumflex" unicode="&#x109;" horiz-adv-x="282" d="M211 676 L108 528 L158 528 L223 633 L226 633 L255 528 L302 528 L256 676 L211 676 Z M210 146 C170 102 129 66 95 50 L80 54 C75 75 74 94 73 119 C73 222 103 347 153 403 C159 404 166 405 173 405 C202 405 236 394 261 381 L280 431 C257 445 218 454 187 454 C152 454 121 431 100 405 C40 341 20 191 20 99 C20 64 23 33 32 3 L86 -5 C153 26 209 83 236 118 L210 146 Z " />
<glyph glyph-name="Cdotaccent" unicode="&#x10a;" horiz-adv-x="376" d="M273 644 L321 633 L344 729 L290 731 L273 644 Z M195 -5 C247 -5 289 10 310 21 L318 72 C286 56 250 46 213 46 C134 46 95 85 95 181 C95 352 176 537 305 537 C334 537 362 534 386 519 L395 571 C373 582 342 588 306 588 C130 588 37 361 37 176 C37 61 83 -5 195 -5 L195 -5 Z " />
<glyph glyph-name="cdotaccent" unicode="&#x10b;" horiz-adv-x="282" d="M210 146 C170 102 129 66 95 50 L80 54 C75 75 74 94 73 119 C73 222 103 347 153 403 C159 404 166 405 173 405 C202 405 236 394 261 381 L280 431 C257 445 218 454 187 454 C152 454 121 431 100 405 C40 341 20 191 20 99 C20 64 23 33 32 3 L86 -5 C153 26 209 83 236 118 L210 146 Z M175 566 L223 555 L246 653 L192 655 L175 566 Z " />
<glyph glyph-name="Ccaron" unicode="&#x10c;" horiz-adv-x="376" d="M195 -5 C247 -5 289 10 310 21 L318 72 C286 56 250 46 213 46 C134 46 95 85 95 181 C95 352 176 537 305 537 C334 537 362 534 386 519 L395 571 C373 582 342 588 306 588 C130 588 37 361 37 176 C37 61 83 -5 195 -5 L195 -5 Z M323 627 L421 739 L373 739 L310 664 L308 664 L273 739 L224 739 L277 627 L323 627 Z " />
<glyph glyph-name="ccaron" unicode="&#x10d;" horiz-adv-x="282" d="M224 528 L326 676 L277 676 L211 571 L208 571 L180 676 L132 676 L178 528 L224 528 Z M210 146 C170 102 129 66 95 50 L80 54 C75 75 74 94 73 119 C73 222 103 347 153 403 C159 404 166 405 173 405 C202 405 236 394 261 381 L280 431 C257 445 218 454 187 454 C152 454 121 431 100 405 C40 341 20 191 20 99 C20 64 23 33 32 3 L86 -5 C153 26 209 83 236 118 L210 146 Z " />
<glyph glyph-name="Dcaron" unicode="&#x10e;" horiz-adv-x="451" d="M16 0 L143 0 C308 0 427 191 427 394 C427 530 349 583 238 583 L118 583 L16 0 Z M217 532 C312 532 368 497 368 391 C368 223 279 52 143 52 L81 52 L165 532 L217 532 Z M275 625 L373 737 L325 737 L262 662 L260 662 L225 737 L176 737 L229 625 L275 625 Z " />
<glyph glyph-name="dcaron" unicode="&#x10f;" horiz-adv-x="339" d="M237 0 L351 653 L299 653 L259 427 C229 444 200 454 180 454 C143 454 115 426 95 397 C46 325 17 170 17 63 C17 41 19 18 21 0 L81 0 L212 156 L185 0 L237 0 Z M73 68 C72 78 71 90 71 101 C71 191 107 346 155 407 L173 407 C196 404 221 395 251 379 L224 227 L83 65 L73 68 Z M353 490 L394 490 L457 654 L405 654 L353 490 Z " />
<glyph glyph-name="Dcroat" unicode="&#x110;" horiz-adv-x="453" d="M25 277 L65 277 L17 0 L144 0 C309 0 428 191 428 394 C428 530 350 583 239 583 L119 583 L73 324 L33 324 L25 277 Z M218 277 L227 324 L129 324 L166 532 L218 532 C313 532 369 497 369 391 C369 223 280 52 144 52 L82 52 L121 277 L218 277 Z " />
<glyph glyph-name="dcroat" unicode="&#x111;" horiz-adv-x="331" d="M176 551 L281 551 L259 427 C229 444 200 454 180 454 C143 454 115 426 95 397 C46 325 17 170 17 63 C17 41 19 18 21 0 L81 0 L212 156 L185 0 L237 0 L333 551 L378 551 L386 594 L340 594 L351 653 L299 653 L288 594 L183 594 L176 551 Z M73 68 C72 78 71 90 71 101 C71 191 107 346 155 407 L173 407 C196 404 221 395 251 379 L224 227 L83 65 L73 68 Z " />
<glyph glyph-name="Emacron" unicode="&#x112;" horiz-adv-x="341" d="M16 0 L265 0 L274 52 L81 52 L120 275 L279 275 L288 325 L129 325 L165 532 L355 532 L364 583 L117 583 L16 0 Z M161 666 L349 666 L358 713 L169 713 L161 666 Z " />
<glyph glyph-name="emacron" unicode="&#x113;" horiz-adv-x="300" d="M246 112 L222 142 C178 99 129 66 92 50 L80 55 C75 74 72 96 73 121 C73 141 74 161 76 182 C143 219 243 281 283 324 L288 418 C256 444 221 454 190 454 C142 454 105 416 83 375 C38 297 19 192 19 91 C19 59 23 29 32 3 L82 -5 C150 26 216 79 246 112 L246 112 Z M155 407 C160 408 166 408 172 408 C196 408 222 400 237 387 L234 338 C198 299 129 256 82 229 C95 302 120 370 155 407 L155 407 Z M112 577 L301 577 L309 623 L120 623 L112 577 Z " />
<glyph glyph-name="Ebreve" unicode="&#x114;" horiz-adv-x="341" d="M16 0 L265 0 L274 52 L81 52 L120 275 L279 275 L288 325 L129 325 L165 532 L355 532 L364 583 L117 583 L16 0 Z M257 674 C227 674 216 697 213 733 L174 720 C175 668 200 632 251 632 C303 632 343 666 363 722 L329 734 C317 698 292 674 257 674 L257 674 Z " />
<glyph glyph-name="ebreve" unicode="&#x115;" horiz-adv-x="300" d="M246 112 L222 142 C178 99 129 66 92 50 L80 55 C75 74 72 96 73 121 C73 141 74 161 76 182 C143 219 243 281 283 324 L288 418 C256 444 221 454 190 454 C142 454 105 416 83 375 C38 297 19 192 19 91 C19 59 23 29 32 3 L82 -5 C150 26 216 79 246 112 L246 112 Z M155 407 C160 408 166 408 172 408 C196 408 222 400 237 387 L234 338 C198 299 129 256 82 229 C95 302 120 370 155 407 L155 407 Z M209 575 C174 575 165 602 163 637 L124 623 C125 571 147 533 200 533 C254 533 293 569 312 626 L279 637 C266 602 247 575 209 575 L209 575 Z " />
<glyph glyph-name="Edotaccent" unicode="&#x116;" horiz-adv-x="341" d="M16 0 L265 0 L274 52 L81 52 L120 275 L279 275 L288 325 L129 325 L165 532 L355 532 L364 583 L117 583 L16 0 Z M224 643 L272 632 L295 728 L241 730 L224 643 Z " />
<glyph glyph-name="edotaccent" unicode="&#x117;" horiz-adv-x="300" d="M246 112 L222 142 C178 99 129 66 92 50 L80 55 C75 74 72 96 73 121 C73 141 74 161 76 182 C143 219 243 281 283 324 L288 418 C256 444 221 454 190 454 C142 454 105 416 83 375 C38 297 19 192 19 91 C19 59 23 29 32 3 L82 -5 C150 26 216 79 246 112 L246 112 Z M155 407 C160 408 166 408 172 408 C196 408 222 400 237 387 L234 338 C198 299 129 256 82 229 C95 302 120 370 155 407 L155 407 Z M176 566 L224 555 L247 653 L193 655 L176 566 Z " />
<glyph glyph-name="Eogonek" unicode="&#x118;" horiz-adv-x="341" d="M16 0 L204 0 C164 -31 126 -81 126 -135 C126 -177 151 -198 191 -198 C211 -198 235 -194 252 -183 L257 -142 C241 -150 222 -155 207 -155 C186 -155 171 -145 171 -120 C171 -78 207 -26 251 0 L265 0 L274 52 L81 52 L120 275 L279 275 L288 325 L129 325 L165 532 L355 532 L364 583 L117 583 L16 0 Z " />
<glyph glyph-name="eogonek" unicode="&#x119;" horiz-adv-x="300" d="M246 112 L222 142 C178 99 129 66 92 50 L80 55 C75 74 72 96 73 121 C73 141 74 161 76 182 C143 219 243 281 283 324 L288 418 C256 444 221 454 190 454 C142 454 105 416 83 375 C38 297 19 192 19 91 C19 59 23 29 32 3 L66 -2 C32 -37 7 -79 7 -128 C7 -171 32 -194 75 -194 C95 -194 115 -190 132 -181 L136 -144 C120 -152 103 -156 89 -156 C67 -156 52 -141 52 -113 C52 -75 77 -25 118 13 C173 44 221 85 246 112 L246 112 Z M155 407 C160 408 166 408 172 408 C196 408 222 400 237 387 L234 338 C198 299 129 256 82 229 C95 302 120 370 155 407 L155 407 Z " />
<glyph glyph-name="Ecaron" unicode="&#x11a;" horiz-adv-x="341" d="M16 0 L265 0 L274 52 L81 52 L120 275 L279 275 L288 325 L129 325 L165 532 L355 532 L364 583 L117 583 L16 0 Z M274 627 L372 739 L324 739 L261 664 L259 664 L224 739 L175 739 L228 627 L274 627 Z " />
<glyph glyph-name="ecaron" unicode="&#x11b;" horiz-adv-x="300" d="M246 112 L222 142 C178 99 129 66 92 50 L80 55 C75 74 72 96 73 121 C73 141 74 161 76 182 C143 219 243 281 283 324 L288 418 C256 444 221 454 190 454 C142 454 105 416 83 375 C38 297 19 192 19 91 C19 59 23 29 32 3 L82 -5 C150 26 216 79 246 112 L246 112 Z M155 407 C160 408 166 408 172 408 C196 408 222 400 237 387 L234 338 C198 299 129 256 82 229 C95 302 120 370 155 407 L155 407 Z M225 528 L327 676 L278 676 L212 571 L209 571 L181 676 L133 676 L179 528 L225 528 Z " />
<glyph glyph-name="Gcircumflex" unicode="&#x11c;" horiz-adv-x="419" d="M202 -5 C257 -5 304 10 334 26 L383 297 L327 297 L283 57 C259 50 233 46 211 46 C136 46 93 81 93 184 C93 342 180 535 315 537 C356 538 388 527 414 511 L425 566 C396 581 359 588 318 588 C139 588 34 360 34 178 C34 61 86 -5 202 -5 L202 -5 Z M306 742 L208 630 L256 630 L319 705 L322 705 L357 630 L405 630 L352 742 L306 742 Z " />
<glyph glyph-name="gcircumflex" unicode="&#x11d;" horiz-adv-x="331" d="M76 -213 C109 -213 139 -205 157 -188 C199 -150 224 -66 237 9 L315 454 L265 454 L260 427 C230 444 200 454 180 454 C143 454 115 426 95 397 C46 325 17 170 17 63 C17 41 19 18 21 0 L81 0 L212 156 L196 63 C175 -61 155 -125 134 -151 C114 -161 96 -163 77 -163 C45 -163 18 -155 -8 -141 L-20 -193 C9 -206 49 -213 76 -213 L76 -213 Z M73 68 C72 78 71 90 71 101 C71 191 107 346 155 407 L172 407 C196 404 221 395 251 379 L225 228 L83 65 L73 68 Z M228 676 L125 528 L175 528 L240 633 L243 633 L272 528 L319 528 L273 676 L228 676 Z " />
<glyph glyph-name="Gbreve" unicode="&#x11e;" horiz-adv-x="419" d="M202 -5 C257 -5 304 10 334 26 L383 297 L327 297 L283 57 C259 50 233 46 211 46 C136 46 93 81 93 184 C93 342 180 535 315 537 C356 538 388 527 414 511 L425 566 C396 581 359 588 318 588 C139 588 34 360 34 178 C34 61 86 -5 202 -5 L202 -5 Z M317 673 C287 673 276 696 273 732 L234 719 C235 667 260 631 311 631 C363 631 403 665 423 721 L389 733 C377 697 352 673 317 673 L317 673 Z " />
<glyph glyph-name="gbreve" unicode="&#x11f;" horiz-adv-x="331" d="M76 -213 C109 -213 139 -205 157 -188 C199 -150 224 -66 237 9 L315 454 L265 454 L260 427 C230 444 200 454 180 454 C143 454 115 426 95 397 C46 325 17 170 17 63 C17 41 19 18 21 0 L81 0 L212 156 L196 63 C175 -61 155 -125 134 -151 C114 -161 96 -163 77 -163 C45 -163 18 -155 -8 -141 L-20 -193 C9 -206 49 -213 76 -213 L76 -213 Z M73 68 C72 78 71 90 71 101 C71 191 107 346 155 407 L172 407 C196 404 221 395 251 379 L225 228 L83 65 L73 68 Z M221 575 C186 575 177 602 175 637 L136 623 C137 571 159 533 212 533 C266 533 305 569 324 626 L291 637 C278 602 259 575 221 575 L221 575 Z " />
<glyph glyph-name="Gdotaccent" unicode="&#x120;" horiz-adv-x="419" d="M202 -5 C257 -5 304 10 334 26 L383 297 L327 297 L283 57 C259 50 233 46 211 46 C136 46 93 81 93 184 C93 342 180 535 315 537 C356 538 388 527 414 511 L425 566 C396 581 359 588 318 588 C139 588 34 360 34 178 C34 61 86 -5 202 -5 L202 -5 Z M282 644 L330 633 L353 729 L299 731 L282 644 Z " />
<glyph glyph-name="gdotaccent" unicode="&#x121;" horiz-adv-x="331" d="M76 -213 C109 -213 139 -205 157 -188 C199 -150 224 -66 237 9 L315 454 L265 454 L260 427 C230 444 200 454 180 454 C143 454 115 426 95 397 C46 325 17 170 17 63 C17 41 19 18 21 0 L81 0 L212 156 L196 63 C175 -61 155 -125 134 -151 C114 -161 96 -163 77 -163 C45 -163 18 -155 -8 -141 L-20 -193 C9 -206 49 -213 76 -213 L76 -213 Z M73 68 C72 78 71 90 71 101 C71 191 107 346 155 407 L172 407 C196 404 221 395 251 379 L225 228 L83 65 L73 68 Z M194 566 L242 555 L265 653 L211 655 L194 566 Z " />
<glyph glyph-name="Gcommaaccent" unicode="&#x122;" horiz-adv-x="419" d="M202 -5 C257 -5 304 10 334 26 L383 297 L327 297 L283 57 C259 50 233 46 211 46 C136 46 93 81 93 184 C93 342 180 535 315 537 C356 538 388 527 414 511 L425 566 C396 581 359 588 318 588 C139 588 34 360 34 178 C34 61 86 -5 202 -5 L202 -5 Z M133 -213 L174 -213 L226 -62 L174 -62 L133 -213 Z " />
<glyph glyph-name="gcommaaccent" unicode="&#x123;" horiz-adv-x="331" d="M76 -213 C109 -213 139 -205 157 -188 C199 -150 224 -66 237 9 L315 454 L265 454 L260 427 C230 444 200 454 180 454 C143 454 115 426 95 397 C46 325 17 170 17 63 C17 41 19 18 21 0 L81 0 L212 156 L196 63 C175 -61 155 -125 134 -151 C114 -161 96 -163 77 -163 C45 -163 18 -155 -8 -141 L-20 -193 C9 -206 49 -213 76 -213 L76 -213 Z M73 68 C72 78 71 90 71 101 C71 191 107 346 155 407 L172 407 C196 404 221 395 251 379 L225 228 L83 65 L73 68 Z M288 694 L247 694 L195 541 L247 541 L288 694 Z " />
<glyph glyph-name="Hcircumflex" unicode="&#x124;" horiz-adv-x="453" d="M292 0 L349 0 L451 583 L394 583 L349 326 L129 326 L175 583 L118 583 L16 0 L72 0 L120 275 L340 275 L292 0 Z M286 742 L188 630 L236 630 L299 705 L302 705 L337 630 L385 630 L332 742 L286 742 Z " />
<glyph glyph-name="hcircumflex" unicode="&#x125;" horiz-adv-x="348" d="M56 0 L107 291 C160 354 215 395 242 401 L258 396 C262 373 262 339 245 240 L205 0 L256 0 L299 252 C309 308 314 351 314 382 C314 434 300 454 270 454 C226 454 171 416 118 357 L170 653 L119 653 L6 0 L56 0 Z M150 788 L52 676 L100 676 L163 751 L166 751 L201 676 L249 676 L196 788 L150 788 Z " />
<glyph glyph-name="Hbar" unicode="&#x126;" horiz-adv-x="456" d="M56 460 L97 460 L17 0 L73 0 L121 275 L341 275 L293 0 L350 0 L430 460 L472 460 L479 501 L437 501 L452 583 L395 583 L380 501 L161 501 L176 583 L119 583 L104 501 L64 501 L56 460 Z M154 460 L373 460 L350 326 L130 326 L154 460 Z " />
<glyph glyph-name="hbar" unicode="&#x127;" horiz-adv-x="348" d="M55 542 L100 542 L6 0 L56 0 L107 291 C160 354 215 395 242 401 L258 396 C262 373 262 339 245 240 L205 0 L256 0 L299 252 C309 308 314 351 314 382 C314 434 300 454 270 454 C226 454 171 416 118 357 L150 542 L264 542 L272 584 L158 584 L170 653 L119 653 L107 584 L63 584 L55 542 Z " />
<glyph glyph-name="Itilde" unicode="&#x128;" horiz-adv-x="177" d="M16 0 L72 0 L174 583 L118 583 L16 0 Z M255 720 C244 701 225 688 207 688 C180 688 159 721 124 721 C94 721 69 698 51 674 L67 646 C84 667 99 676 116 676 C144 676 169 644 202 644 C235 644 258 667 273 692 L255 720 Z " />
<glyph glyph-name="itilde" unicode="&#x129;" horiz-adv-x="152" d="M57 0 L135 450 L84 450 L7 0 L57 0 Z M225 633 C214 615 196 602 177 602 C151 602 132 634 97 634 C67 634 42 612 24 587 L41 559 C57 580 72 589 89 589 C117 589 140 558 173 558 C206 558 227 581 242 606 L225 633 Z " />
<glyph glyph-name="Imacron" unicode="&#x12a;" horiz-adv-x="177" d="M16 0 L72 0 L174 583 L118 583 L16 0 Z M62 666 L250 666 L259 713 L70 713 L62 666 Z " />
<glyph glyph-name="imacron" unicode="&#x12b;" horiz-adv-x="152" d="M57 0 L135 450 L84 450 L7 0 L57 0 Z M36 577 L225 577 L233 623 L44 623 L36 577 Z " />
<glyph glyph-name="Ibreve" unicode="&#x12c;" horiz-adv-x="177" d="M16 0 L72 0 L174 583 L118 583 L16 0 Z M160 674 C130 674 119 697 116 733 L77 720 C78 668 103 632 154 632 C206 632 246 666 266 722 L232 734 C220 698 195 674 160 674 L160 674 Z " />
<glyph glyph-name="ibreve" unicode="&#x12d;" horiz-adv-x="152" d="M57 0 L135 450 L84 450 L7 0 L57 0 Z M129 575 C94 575 85 602 83 637 L44 623 C45 571 67 533 120 533 C174 533 213 569 232 626 L199 637 C186 602 167 575 129 575 L129 575 Z " />
<glyph glyph-name="Iogonek" unicode="&#x12e;" horiz-adv-x="177" d="M55 -183 L60 -142 C44 -150 25 -155 10 -155 C-11 -155 -26 -145 -26 -120 C-26 -78 10 -26 54 0 L72 0 L174 583 L118 583 L17 7 C-27 -23 -71 -76 -71 -135 C-71 -177 -46 -198 -6 -198 C14 -198 38 -194 55 -183 L55 -183 Z " />
<glyph glyph-name="iogonek" unicode="&#x12f;" horiz-adv-x="151" d="M57 0 L135 450 L84 450 L8 5 C-35 -25 -78 -77 -78 -135 C-78 -177 -53 -198 -13 -198 C7 -198 31 -194 48 -183 L53 -142 C37 -150 18 -155 3 -155 C-18 -155 -33 -145 -33 -120 C-33 -78 3 -26 47 0 L57 0 Z M100 566 L148 555 L171 653 L117 655 L100 566 Z " />
<glyph glyph-name="Idotaccent" unicode="&#x130;" horiz-adv-x="177" d="M127 644 L175 633 L198 729 L144 731 L127 644 Z M16 0 L72 0 L174 583 L118 583 L16 0 Z " />
<glyph glyph-name="dotlessi" unicode="&#x131;" horiz-adv-x="152" d="M57 0 L135 450 L84 450 L7 0 L57 0 Z " />
<glyph glyph-name="IJ" unicode="&#x132;" horiz-adv-x="364" d="M16 0 L72 0 L174 583 L118 583 L16 0 Z M152 -86 C228 4 278 89 294 179 L365 583 L308 583 L237 179 C221 88 164 13 110 -59 L152 -86 Z " />
<glyph glyph-name="ij" unicode="&#x133;" horiz-adv-x="303" d="M57 0 L135 450 L84 450 L6 0 L57 0 Z M151 555 L175 660 L120 661 L104 566 L151 555 Z M154 -9 C145 -61 116 -119 75 -181 L112 -205 C165 -137 194 -70 206 -3 L285 450 L234 450 L154 -9 Z M301 555 L325 660 L270 661 L254 566 L301 555 Z " />
<glyph glyph-name="Jcircumflex" unicode="&#x134;" horiz-adv-x="188" d="M-24 -86 C52 4 102 89 118 179 L189 583 L132 583 L61 179 C45 88 -12 13 -66 -59 L-24 -86 Z M162 742 L64 630 L112 630 L175 705 L178 705 L213 630 L261 630 L208 742 L162 742 Z " />
<glyph glyph-name="jcircumflex" unicode="&#x135;" horiz-adv-x="152" d="M127 676 L24 528 L74 528 L139 633 L142 633 L171 528 L218 528 L172 676 L127 676 Z M5 -9 C-4 -61 -33 -119 -74 -181 L-37 -205 C16 -137 46 -70 57 -3 L134 450 L83 450 L5 -9 Z " />
<glyph glyph-name="Kcommaaccent" unicode="&#x136;" horiz-adv-x="369" d="M80 -213 L121 -213 L173 -62 L121 -62 L80 -213 Z M247 0 L310 0 L200 307 L415 583 L348 583 L144 312 L142 297 L247 0 Z M16 0 L72 0 L174 583 L118 583 L16 0 Z " />
<glyph glyph-name="kcommaaccent" unicode="&#x137;" horiz-adv-x="321" d="M57 0 L107 288 C149 339 206 391 237 408 L256 402 C248 335 224 271 167 203 L163 184 L195 0 L252 0 L216 192 C272 264 300 324 308 409 L310 443 L236 456 C209 441 160 404 118 356 L170 653 L119 653 L6 0 L57 0 Z M48 -213 L89 -213 L141 -62 L89 -62 L48 -213 Z " />
<glyph glyph-name="Lacute" unicode="&#x139;" horiz-adv-x="312" d="M16 0 L259 0 L267 52 L81 52 L174 583 L117 583 L16 0 Z M172 634 L268 740 L211 740 L124 634 L172 634 Z " />
<glyph glyph-name="lacute" unicode="&#x13a;" horiz-adv-x="160" d="M172 683 L268 789 L211 789 L124 683 L172 683 Z M61 0 L174 653 L123 653 L11 0 L61 0 Z " />
<glyph glyph-name="Lcommaaccent" unicode="&#x13b;" horiz-adv-x="312" d="M16 0 L259 0 L267 52 L81 52 L174 583 L117 583 L16 0 Z M71 -213 L112 -213 L164 -62 L112 -62 L71 -213 Z " />
<glyph glyph-name="lcommaaccent" unicode="&#x13c;" horiz-adv-x="160" d="M-39 -213 L2 -213 L54 -62 L2 -62 L-39 -213 Z M61 0 L174 653 L123 653 L11 0 L61 0 Z " />
<glyph glyph-name="Lcaron" unicode="&#x13d;" horiz-adv-x="314" d="M16 0 L259 0 L267 52 L81 52 L174 583 L117 583 L16 0 Z M221 473 L262 473 L325 637 L273 637 L221 473 Z " />
<glyph glyph-name="lcaron" unicode="&#x13e;" horiz-adv-x="166" d="M177 490 L218 490 L281 654 L229 654 L177 490 Z M61 0 L174 653 L123 653 L11 0 L61 0 Z " />
<glyph glyph-name="Ldot" unicode="&#x13f;" horiz-adv-x="328" d="M16 0 L259 0 L267 52 L81 52 L174 583 L117 583 L16 0 Z M230 274 L278 263 L301 361 L247 363 L230 274 Z " />
<glyph glyph-name="ldot" unicode="&#x140;" horiz-adv-x="218" d="M164 278 L212 267 L235 363 L181 365 L164 278 Z M61 0 L174 653 L123 653 L11 0 L61 0 Z " />
<glyph glyph-name="Lslash" unicode="&#x141;" horiz-adv-x="318" d="M9 213 L64 245 L22 0 L265 0 L273 52 L87 52 L127 282 L226 340 L236 393 L136 333 L180 583 L123 583 L73 295 L17 261 L9 213 Z " />
<glyph glyph-name="lslash" unicode="&#x142;" horiz-adv-x="182" d="M8 245 L67 281 L19 0 L69 0 L123 315 L189 355 L198 407 L132 366 L182 653 L131 653 L75 331 L17 295 L8 245 Z " />
<glyph glyph-name="Nacute" unicode="&#x143;" horiz-adv-x="456" d="M304 634 L400 740 L343 740 L256 634 L304 634 Z M16 0 L72 0 L151 450 L153 450 L300 0 L351 0 L454 583 L398 583 L319 137 L317 137 L171 583 L118 583 L16 0 Z " />
<glyph glyph-name="nacute" unicode="&#x144;" horiz-adv-x="348" d="M57 0 L108 293 C161 356 216 395 243 402 L258 395 C263 373 262 339 246 240 L205 0 L256 0 L300 252 C309 309 314 352 314 383 C314 434 301 454 271 454 C227 454 172 416 119 357 L135 450 L84 450 L7 0 L57 0 Z M227 528 L328 677 L274 677 L184 528 L227 528 Z " />
<glyph glyph-name="Ncommaaccent" unicode="&#x145;" horiz-adv-x="456" d="M122 -213 L163 -213 L215 -62 L163 -62 L122 -213 Z M16 0 L72 0 L151 450 L153 450 L300 0 L351 0 L454 583 L398 583 L319 137 L317 137 L171 583 L118 583 L16 0 Z " />
<glyph glyph-name="ncommaaccent" unicode="&#x146;" horiz-adv-x="348" d="M57 0 L108 293 C161 356 216 395 243 402 L258 395 C263 373 262 339 246 240 L205 0 L256 0 L300 252 C309 309 314 352 314 383 C314 434 301 454 271 454 C227 454 172 416 119 357 L135 450 L84 450 L7 0 L57 0 Z M63 -213 L104 -213 L156 -62 L104 -62 L63 -213 Z " />
<glyph glyph-name="Ncaron" unicode="&#x147;" horiz-adv-x="456" d="M305 627 L403 739 L355 739 L292 664 L290 664 L255 739 L206 739 L259 627 L305 627 Z M16 0 L72 0 L151 450 L153 450 L300 0 L351 0 L454 583 L398 583 L319 137 L317 137 L171 583 L118 583 L16 0 Z " />
<glyph glyph-name="ncaron" unicode="&#x148;" horiz-adv-x="348" d="M57 0 L108 293 C161 356 216 395 243 402 L258 395 C263 373 262 339 246 240 L205 0 L256 0 L300 252 C309 309 314 352 314 383 C314 434 301 454 271 454 C227 454 172 416 119 357 L135 450 L84 450 L7 0 L57 0 Z M240 528 L342 676 L293 676 L227 571 L224 571 L196 676 L148 676 L194 528 L240 528 Z " />
<glyph glyph-name="napostrophe" unicode="&#x149;" horiz-adv-x="348" d="M57 0 L108 293 C161 356 216 395 243 402 L258 395 C263 373 262 339 246 240 L205 0 L256 0 L300 252 C309 309 314 352 314 383 C314 434 301 454 271 454 C227 454 172 416 119 357 L135 450 L84 450 L7 0 L57 0 Z M77 510 C113 555 134 606 144 657 C147 675 147 694 146 711 L104 713 C106 696 105 681 103 665 C95 611 75 568 47 527 L77 510 Z " />
<glyph glyph-name="Eng" unicode="&#x14a;" horiz-adv-x="456" d="M16 0 L72 0 L151 450 L153 450 L291 3 L299 3 L296 -14 C285 -73 261 -118 204 -189 L244 -213 C316 -125 340 -69 353 8 L454 583 L398 583 L319 130 L317 130 L171 583 L118 583 L16 0 Z " />
<glyph glyph-name="eng" unicode="&#x14b;" horiz-adv-x="348" d="M57 0 L108 293 C161 356 216 395 243 402 L258 396 C260 388 261 379 261 367 C261 343 257 306 246 240 L203 -7 C195 -59 166 -117 125 -180 L161 -203 C214 -136 244 -68 255 -1 L300 252 C309 309 314 352 314 383 C314 434 301 454 271 454 C227 454 172 417 119 357 L135 450 L84 450 L7 0 L57 0 Z " />
<glyph glyph-name="Omacron" unicode="&#x14c;" horiz-adv-x="464" d="M213 666 L401 666 L410 713 L221 713 L213 666 Z M186 -5 C352 -5 445 242 445 411 C445 518 398 588 294 588 C120 588 31 336 31 170 C31 63 83 -5 186 -5 L186 -5 Z M193 46 C127 46 90 87 90 171 C90 311 162 537 284 537 C349 537 386 501 386 417 C386 274 311 46 193 46 L193 46 Z " />
<glyph glyph-name="omacron" unicode="&#x14d;" horiz-adv-x="328" d="M122 577 L311 577 L319 623 L130 623 L122 577 Z M133 41 C117 42 99 47 89 56 C78 80 73 104 73 139 C72 240 117 382 177 410 C197 407 216 402 227 395 C239 373 245 345 244 308 C244 209 200 89 133 41 L133 41 Z M111 -5 C162 -5 207 37 240 92 C276 156 298 236 298 299 C298 414 262 454 204 454 C150 454 105 415 74 359 C39 295 20 212 20 140 C20 43 52 -5 111 -5 L111 -5 Z " />
<glyph glyph-name="Obreve" unicode="&#x14e;" horiz-adv-x="464" d="M303 673 C273 673 262 696 259 732 L220 719 C221 667 246 631 297 631 C349 631 389 665 409 721 L375 733 C363 697 338 673 303 673 L303 673 Z M186 -5 C352 -5 445 242 445 411 C445 518 398 588 294 588 C120 588 31 336 31 170 C31 63 83 -5 186 -5 L186 -5 Z M193 46 C127 46 90 87 90 171 C90 311 162 537 284 537 C349 537 386 501 386 417 C386 274 311 46 193 46 L193 46 Z " />
<glyph glyph-name="obreve" unicode="&#x14f;" horiz-adv-x="328" d="M133 41 C117 42 99 47 89 56 C78 80 73 104 73 139 C72 240 117 382 177 410 C197 407 216 402 227 395 C239 373 245 345 244 308 C244 209 200 89 133 41 L133 41 Z M111 -5 C162 -5 207 37 240 92 C276 156 298 236 298 299 C298 414 262 454 204 454 C150 454 105 415 74 359 C39 295 20 212 20 140 C20 43 52 -5 111 -5 L111 -5 Z M216 575 C181 575 172 602 170 637 L131 623 C132 571 154 533 207 533 C261 533 300 569 319 626 L286 637 C273 602 254 575 216 575 L216 575 Z " />
<glyph glyph-name="Ohungarumlaut" unicode="&#x150;" horiz-adv-x="464" d="M186 -5 C352 -5 445 242 445 411 C445 518 398 588 294 588 C120 588 31 336 31 170 C31 63 83 -5 186 -5 L186 -5 Z M193 46 C127 46 90 87 90 171 C90 311 162 537 284 537 C349 537 386 501 386 417 C386 274 311 46 193 46 L193 46 Z M255 634 L339 740 L281 740 L207 634 L255 634 Z M353 634 L453 740 L394 740 L305 634 L353 634 Z " />
<glyph glyph-name="ohungarumlaut" unicode="&#x151;" horiz-adv-x="328" d="M168 528 L266 677 L212 677 L124 528 L168 528 Z M285 528 L388 677 L333 677 L242 528 L285 528 Z M133 41 C117 42 99 47 89 56 C78 80 73 104 73 139 C72 240 117 382 177 410 C197 407 216 402 227 395 C239 373 245 345 244 308 C244 209 200 89 133 41 L133 41 Z M111 -5 C162 -5 207 37 240 92 C276 156 298 236 298 299 C298 414 262 454 204 454 C150 454 105 415 74 359 C39 295 20 212 20 140 C20 43 52 -5 111 -5 L111 -5 Z " />
<glyph glyph-name="OE" unicode="&#x152;" horiz-adv-x="603" d="M278 0 L527 0 L536 52 L344 52 L382 273 L541 273 L550 323 L391 323 L428 532 L618 532 L627 583 L379 583 L375 563 C353 580 325 588 290 588 C128 588 33 342 33 167 C33 64 80 -5 177 -5 C215 -5 252 5 283 29 L278 0 Z M193 47 C128 47 93 90 93 172 C93 316 169 538 286 538 C321 538 347 528 364 500 L294 91 C265 59 231 47 193 47 L193 47 Z " />
<glyph glyph-name="oe" unicode="&#x153;" horiz-adv-x="509" d="M111 -5 C156 -5 197 28 228 73 C229 48 233 24 241 3 L291 -5 C359 26 425 79 455 112 L431 142 C387 99 338 66 301 50 L289 55 C284 74 281 96 282 121 C282 141 283 161 285 182 C352 219 452 281 492 324 L497 418 C465 444 430 454 399 454 C351 454 314 416 292 375 C291 374 291 374 291 373 C278 432 247 454 204 454 C150 454 105 415 74 359 C39 295 20 212 20 140 C20 43 52 -5 111 -5 L111 -5 Z M133 41 C117 42 99 47 89 56 C78 80 73 104 73 139 C72 240 117 382 177 410 C197 407 216 402 227 395 C239 373 245 345 244 308 C244 209 200 89 133 41 L133 41 Z M364 407 C369 408 375 408 381 408 C405 408 431 400 446 387 L443 338 C407 299 338 256 291 229 C304 302 329 370 364 407 L364 407 Z " />
<glyph glyph-name="Racute" unicode="&#x154;" horiz-adv-x="379" d="M16 0 L72 0 L113 235 L157 235 C169 235 180 236 191 237 L258 0 L320 0 L243 253 C323 289 367 375 367 466 C367 541 321 583 239 583 L117 583 L16 0 Z M218 532 C280 532 308 510 308 456 C308 369 259 284 160 284 L121 284 L165 532 L218 532 Z M260 634 L356 740 L299 740 L212 634 L260 634 Z " />
<glyph glyph-name="racute" unicode="&#x155;" horiz-adv-x="246" d="M57 0 L106 281 C146 341 186 384 207 401 L240 371 L267 419 C257 436 239 454 222 454 C202 454 159 414 118 354 L135 450 L84 450 L7 0 L57 0 Z M199 528 L300 677 L246 677 L156 528 L199 528 Z " />
<glyph glyph-name="Rcommaaccent" unicode="&#x156;" horiz-adv-x="379" d="M16 0 L72 0 L113 235 L157 235 C169 235 180 236 191 237 L258 0 L320 0 L243 253 C323 289 367 375 367 466 C367 541 321 583 239 583 L117 583 L16 0 Z M218 532 C280 532 308 510 308 456 C308 369 259 284 160 284 L121 284 L165 532 L218 532 Z M80 -213 L121 -213 L173 -62 L121 -62 L80 -213 Z " />
<glyph glyph-name="rcommaaccent" unicode="&#x157;" horiz-adv-x="246" d="M57 0 L106 281 C146 341 186 384 207 401 L240 371 L267 419 C257 436 239 454 222 454 C202 454 159 414 118 354 L135 450 L84 450 L7 0 L57 0 Z M-43 -213 L-2 -213 L50 -62 L-2 -62 L-43 -213 Z " />
<glyph glyph-name="Rcaron" unicode="&#x158;" horiz-adv-x="379" d="M16 0 L72 0 L113 235 L157 235 C169 235 180 236 191 237 L258 0 L320 0 L243 253 C323 289 367 375 367 466 C367 541 321 583 239 583 L117 583 L16 0 Z M218 532 C280 532 308 510 308 456 C308 369 259 284 160 284 L121 284 L165 532 L218 532 Z M260 627 L358 739 L310 739 L247 664 L245 664 L210 739 L161 739 L214 627 L260 627 Z " />
<glyph glyph-name="rcaron" unicode="&#x159;" horiz-adv-x="246" d="M57 0 L106 281 C146 341 186 384 207 401 L240 371 L267 419 C257 436 239 454 222 454 C202 454 159 414 118 354 L135 450 L84 450 L7 0 L57 0 Z M204 528 L306 676 L257 676 L191 571 L188 571 L160 676 L112 676 L158 528 L204 528 Z " />
<glyph glyph-name="Sacute" unicode="&#x15a;" horiz-adv-x="330" d="M-7 19 C28 4 62 -5 101 -5 C203 -5 288 57 288 182 C288 253 235 287 190 324 C156 351 126 380 126 426 C126 492 170 537 234 537 C269 537 298 527 324 513 L336 566 C310 579 275 588 233 588 C139 588 68 520 68 416 C68 353 109 316 149 284 C190 251 232 221 232 168 C232 91 173 46 114 46 C75 46 43 54 7 71 L-7 19 Z M248 634 L344 740 L287 740 L200 634 L248 634 Z " />
<glyph glyph-name="sacute" unicode="&#x15b;" horiz-adv-x="261" d="M188 528 L289 677 L235 677 L145 528 L188 528 Z M252 439 C227 450 203 454 176 454 C97 454 46 388 46 329 C46 275 75 246 109 209 C137 179 159 146 163 105 C164 94 162 83 159 72 C143 54 113 44 83 44 C60 44 26 53 1 66 L-10 15 C15 2 41 -5 76 -5 C118 -5 152 11 174 35 C197 59 209 91 209 124 C209 173 176 209 144 244 C116 276 95 306 95 343 C95 361 100 374 106 390 C123 400 147 406 172 405 C195 405 219 399 241 387 L252 439 Z " />
<glyph glyph-name="Scircumflex" unicode="&#x15c;" horiz-adv-x="330" d="M-7 19 C28 4 62 -5 101 -5 C203 -5 288 57 288 182 C288 253 235 287 190 324 C156 351 126 380 126 426 C126 492 170 537 234 537 C269 537 298 527 324 513 L336 566 C310 579 275 588 233 588 C139 588 68 520 68 416 C68 353 109 316 149 284 C190 251 232 221 232 168 C232 91 173 46 114 46 C75 46 43 54 7 71 L-7 19 Z M232 742 L134 630 L182 630 L245 705 L248 705 L283 630 L331 630 L278 742 L232 742 Z " />
<glyph glyph-name="scircumflex" unicode="&#x15d;" horiz-adv-x="261" d="M189 676 L86 528 L136 528 L201 633 L204 633 L233 528 L280 528 L234 676 L189 676 Z M252 439 C227 450 203 454 176 454 C97 454 46 388 46 329 C46 275 75 246 109 209 C137 179 159 146 163 105 C164 94 162 83 159 72 C143 54 113 44 83 44 C60 44 26 53 1 66 L-10 15 C15 2 41 -5 76 -5 C118 -5 152 11 174 35 C197 59 209 91 209 124 C209 173 176 209 144 244 C116 276 95 306 95 343 C95 361 100 374 106 390 C123 400 147 406 172 405 C195 405 219 399 241 387 L252 439 Z " />
<glyph glyph-name="Scedilla" unicode="&#x15e;" horiz-adv-x="331" d="M76 -209 C141 -209 171 -163 171 -112 C171 -78 147 -50 118 -43 L135 -2 C221 10 288 71 288 182 C288 253 235 287 190 324 C156 351 126 380 126 426 C126 492 170 537 234 537 C269 537 298 527 324 513 L336 566 C310 579 275 588 233 588 C139 588 68 520 68 416 C68 353 109 316 149 284 C190 251 232 221 232 168 C232 91 173 46 114 46 C75 46 43 54 7 71 L-7 19 C27 4 60 -4 98 -5 L76 -53 L76 -68 C113 -73 128 -93 128 -118 C128 -144 108 -168 75 -168 C60 -168 38 -162 25 -153 L17 -195 C31 -203 57 -209 76 -209 L76 -209 Z " />
<glyph glyph-name="scedilla" unicode="&#x15f;" horiz-adv-x="262" d="M53 -209 C118 -209 148 -163 148 -112 C148 -78 124 -50 95 -43 L112 0 C138 6 159 18 174 35 C197 59 209 91 209 124 C209 173 176 209 144 244 C116 276 95 306 95 343 C95 361 100 374 106 390 C123 400 147 406 172 405 C195 405 219 399 241 387 L252 439 C227 450 203 454 176 454 C97 454 46 388 46 329 C46 275 75 246 109 209 C137 179 159 146 163 105 C164 94 162 83 159 72 C143 54 113 44 83 44 C60 44 26 53 1 66 L-10 15 C14 2 40 -5 75 -5 L53 -53 L53 -68 C90 -73 105 -93 105 -118 C105 -144 85 -168 52 -168 C37 -168 15 -162 2 -153 L-6 -195 C8 -203 34 -209 53 -209 L53 -209 Z " />
<glyph glyph-name="Scaron" unicode="&#x160;" horiz-adv-x="330" d="M-7 19 C28 4 62 -5 101 -5 C203 -5 288 57 288 182 C288 253 235 287 190 324 C156 351 126 380 126 426 C126 492 170 537 234 537 C269 537 298 527 324 513 L336 566 C310 579 275 588 233 588 C139 588 68 520 68 416 C68 353 109 316 149 284 C190 251 232 221 232 168 C232 91 173 46 114 46 C75 46 43 54 7 71 L-7 19 Z M259 627 L357 739 L309 739 L246 664 L244 664 L209 739 L160 739 L213 627 L259 627 Z " />
<glyph glyph-name="scaron" unicode="&#x161;" horiz-adv-x="261" d="M202 528 L304 676 L255 676 L189 571 L186 571 L158 676 L110 676 L156 528 L202 528 Z M252 439 C227 450 203 454 176 454 C97 454 46 388 46 329 C46 275 75 246 109 209 C137 179 159 146 163 105 C164 94 162 83 159 72 C143 54 113 44 83 44 C60 44 26 53 1 66 L-10 15 C15 2 41 -5 76 -5 C118 -5 152 11 174 35 C197 59 209 91 209 124 C209 173 176 209 144 244 C116 276 95 306 95 343 C95 361 100 374 106 390 C123 400 147 406 172 405 C195 405 219 399 241 387 L252 439 Z " />
<glyph glyph-name="Tcommaaccent" unicode="&#x162;" horiz-adv-x="366" d="M59 532 L204 532 L111 0 L168 0 L261 532 L405 532 L413 583 L68 583 L59 532 Z M60 -213 L101 -213 L153 -62 L101 -62 L60 -213 Z " />
<glyph glyph-name="tcommaaccent" unicode="&#x163;" horiz-adv-x="244" d="M44 406 L92 406 L23 8 L75 -6 C127 19 193 76 216 107 L193 138 C168 106 130 74 97 58 L84 63 L144 406 L237 406 L244 450 L151 450 L172 569 L121 569 L100 450 L51 450 L44 406 Z M19 -213 L60 -213 L112 -62 L60 -62 L19 -213 Z " />
<glyph glyph-name="Tcaron" unicode="&#x164;" horiz-adv-x="366" d="M59 532 L204 532 L111 0 L168 0 L261 532 L405 532 L413 583 L68 583 L59 532 Z M267 627 L365 739 L317 739 L254 664 L252 664 L217 739 L168 739 L221 627 L267 627 Z " />
<glyph glyph-name="tcaron" unicode="&#x165;" horiz-adv-x="244" d="M44 406 L92 406 L23 8 L75 -6 C127 19 193 76 216 107 L193 138 C168 106 130 74 97 58 L84 63 L144 406 L237 406 L244 450 L151 450 L172 569 L121 569 L100 450 L51 450 L44 406 Z M192 511 L233 511 L296 675 L244 675 L192 511 Z " />
<glyph glyph-name="Tbar" unicode="&#x166;" horiz-adv-x="366" d="M59 532 L204 532 L165 312 L82 312 L75 269 L158 269 L111 0 L168 0 L215 269 L305 269 L313 312 L222 312 L261 532 L405 532 L413 583 L68 583 L59 532 Z " />
<glyph glyph-name="tbar" unicode="&#x167;" horiz-adv-x="244" d="M45 406 L93 406 L74 294 L36 294 L28 255 L67 255 L24 8 L76 -6 C128 19 194 76 217 107 L194 138 C169 106 131 74 98 58 L85 63 L118 255 L194 255 L202 294 L125 294 L145 406 L238 406 L245 450 L152 450 L173 569 L122 569 L101 450 L52 450 L45 406 Z " />
<glyph glyph-name="Utilde" unicode="&#x168;" horiz-adv-x="438" d="M384 720 C373 701 354 688 336 688 C309 688 288 721 253 721 C223 721 198 698 180 674 L196 646 C213 667 228 676 245 676 C273 676 298 644 331 644 C364 644 387 667 402 692 L384 720 Z M176 -5 C263 -5 346 47 377 223 L441 583 L385 583 L320 218 C299 96 250 47 184 47 C130 47 98 69 98 139 C98 158 100 180 105 206 L171 583 L115 583 L47 200 C43 175 40 152 40 132 C40 24 102 -5 176 -5 L176 -5 Z " />
<glyph glyph-name="utilde" unicode="&#x169;" horiz-adv-x="344" d="M277 450 L226 160 C174 96 116 57 90 51 L76 56 C75 80 75 112 92 212 L133 450 L82 450 L37 192 C27 137 22 94 22 63 C22 17 34 -5 61 -5 C106 -5 165 36 215 93 L199 0 L249 0 L327 450 L277 450 Z M315 633 C304 615 286 602 267 602 C241 602 222 634 187 634 C157 634 132 612 114 587 L131 559 C147 580 162 589 179 589 C207 589 230 558 263 558 C296 558 317 581 332 606 L315 633 Z " />
<glyph glyph-name="Umacron" unicode="&#x16a;" horiz-adv-x="438" d="M194 666 L382 666 L391 713 L202 713 L194 666 Z M176 -5 C263 -5 346 47 377 223 L441 583 L385 583 L320 218 C299 96 250 47 184 47 C130 47 98 69 98 139 C98 158 100 180 105 206 L171 583 L115 583 L47 200 C43 175 40 152 40 132 C40 24 102 -5 176 -5 L176 -5 Z " />
<glyph glyph-name="umacron" unicode="&#x16b;" horiz-adv-x="344" d="M277 450 L226 160 C174 96 116 57 90 51 L76 56 C75 80 75 112 92 212 L133 450 L82 450 L37 192 C27 137 22 94 22 63 C22 17 34 -5 61 -5 C106 -5 165 36 215 93 L199 0 L249 0 L327 450 L277 450 Z M131 577 L320 577 L328 623 L139 623 L131 577 Z " />
<glyph glyph-name="Ubreve" unicode="&#x16c;" horiz-adv-x="438" d="M284 674 C254 674 243 697 240 733 L201 720 C202 668 227 632 278 632 C330 632 370 666 390 722 L356 734 C344 698 319 674 284 674 L284 674 Z M176 -5 C263 -5 346 47 377 223 L441 583 L385 583 L320 218 C299 96 250 47 184 47 C130 47 98 69 98 139 C98 158 100 180 105 206 L171 583 L115 583 L47 200 C43 175 40 152 40 132 C40 24 102 -5 176 -5 L176 -5 Z " />
<glyph glyph-name="ubreve" unicode="&#x16d;" horiz-adv-x="344" d="M277 450 L226 160 C174 96 116 57 90 51 L76 56 C75 80 75 112 92 212 L133 450 L82 450 L37 192 C27 137 22 94 22 63 C22 17 34 -5 61 -5 C106 -5 165 36 215 93 L199 0 L249 0 L327 450 L277 450 Z M226 575 C191 575 182 602 180 637 L141 623 C142 571 164 533 217 533 C271 533 310 569 329 626 L296 637 C283 602 264 575 226 575 L226 575 Z " />
<glyph glyph-name="Uring" unicode="&#x16e;" horiz-adv-x="438" d="M176 -5 C263 -5 346 47 377 223 L441 583 L385 583 L320 218 C299 96 250 47 184 47 C130 47 98 69 98 139 C98 158 100 180 105 206 L171 583 L115 583 L47 200 C43 175 40 152 40 132 C40 24 102 -5 176 -5 L176 -5 Z M298 729 C318 729 328 719 328 699 C328 666 311 637 282 637 C261 637 253 650 253 669 C253 710 273 729 298 729 L298 729 Z M304 761 C263 761 217 732 217 665 C217 628 242 606 275 606 C319 606 364 636 364 703 C364 740 339 761 304 761 L304 761 Z " />
<glyph glyph-name="uring" unicode="&#x16f;" horiz-adv-x="344" d="M277 450 L226 160 C174 96 116 57 90 51 L76 56 C75 80 75 112 92 212 L133 450 L82 450 L37 192 C27 137 22 94 22 63 C22 17 34 -5 61 -5 C106 -5 165 36 215 93 L199 0 L249 0 L327 450 L277 450 Z M242 679 C201 679 155 649 155 582 C155 546 180 523 213 523 C257 523 301 553 301 620 C301 658 277 679 242 679 L242 679 Z M236 647 C256 647 266 636 266 616 C266 584 248 555 220 555 C200 555 191 568 191 586 C191 627 211 647 236 647 L236 647 Z " />
<glyph glyph-name="Uhungarumlaut" unicode="&#x170;" horiz-adv-x="438" d="M176 -5 C263 -5 346 47 377 223 L441 583 L385 583 L320 218 C299 96 250 47 184 47 C130 47 98 69 98 139 C98 158 100 180 105 206 L171 583 L115 583 L47 200 C43 175 40 152 40 132 C40 24 102 -5 176 -5 L176 -5 Z M242 634 L326 740 L268 740 L194 634 L242 634 Z M340 634 L440 740 L381 740 L292 634 L340 634 Z " />
<glyph glyph-name="uhungarumlaut" unicode="&#x171;" horiz-adv-x="344" d="M277 450 L226 160 C174 96 116 57 90 51 L76 56 C75 80 75 112 92 212 L133 450 L82 450 L37 192 C27 137 22 94 22 63 C22 17 34 -5 61 -5 C106 -5 165 36 215 93 L199 0 L249 0 L327 450 L277 450 Z M289 528 L392 677 L337 677 L246 528 L289 528 Z M172 528 L270 677 L216 677 L128 528 L172 528 Z " />
<glyph glyph-name="Uogonek" unicode="&#x172;" horiz-adv-x="438" d="M220 -183 L225 -142 C209 -150 190 -155 175 -155 C154 -155 139 -145 139 -120 C139 -78 174 -27 218 0 C288 15 351 75 377 223 L441 583 L385 583 L320 218 C299 96 250 47 184 47 C130 47 98 69 98 139 C98 158 100 180 105 206 L171 583 L115 583 L47 200 C42 175 40 152 40 132 C40 29 97 -2 166 -5 C128 -36 94 -83 94 -135 C94 -177 119 -198 159 -198 C179 -198 203 -194 220 -183 L220 -183 Z " />
<glyph glyph-name="uogonek" unicode="&#x173;" horiz-adv-x="344" d="M277 450 L226 160 C174 96 116 57 90 51 L76 56 C75 80 75 112 92 212 L133 450 L82 450 L37 192 C27 137 22 94 22 63 C22 17 34 -5 61 -5 C106 -5 166 36 215 92 L200 7 C156 -23 112 -76 112 -135 C112 -177 137 -198 177 -198 C197 -198 221 -194 238 -183 L243 -142 C227 -150 208 -155 193 -155 C172 -155 157 -145 157 -120 C157 -78 193 -26 237 0 L249 0 L327 450 L277 450 Z " />
<glyph glyph-name="Wcircumflex" unicode="&#x174;" horiz-adv-x="624" d="M664 583 L604 583 L413 96 L410 96 L402 583 L336 583 L145 92 L142 92 L142 583 L79 583 L92 0 L158 0 L347 483 L351 483 L360 0 L425 0 L664 583 Z M374 743 L276 631 L324 631 L387 706 L390 706 L425 631 L473 631 L420 743 L374 743 Z " />
<glyph glyph-name="wcircumflex" unicode="&#x175;" horiz-adv-x="500" d="M460 450 L315 62 L310 62 C296 121 288 176 288 228 C288 305 292 378 304 450 L250 450 C244 415 241 380 239 345 L124 62 L119 62 C105 121 97 176 97 228 C97 305 101 378 113 450 L60 450 C49 390 47 330 47 270 C47 180 64 79 83 0 L142 0 L238 238 C241 156 257 70 274 0 L338 0 L515 450 L460 450 Z M291 676 L188 528 L238 528 L303 633 L306 633 L335 528 L382 528 L336 676 L291 676 Z " />
<glyph glyph-name="Ycircumflex" unicode="&#x176;" horiz-adv-x="371" d="M418 583 L358 583 L190 275 L188 275 L126 583 L66 583 L149 217 L110 0 L167 0 L203 207 L418 583 Z M245 742 L147 630 L195 630 L258 705 L261 705 L296 630 L344 630 L291 742 L245 742 Z " />
<glyph glyph-name="ycircumflex" unicode="&#x177;" horiz-adv-x="311" d="M209 676 L106 528 L156 528 L221 633 L224 633 L253 528 L300 528 L254 676 L209 676 Z M76 -207 L179 70 L326 450 L272 450 L125 62 L121 62 C106 116 98 180 98 228 C98 305 102 378 114 450 L61 450 C51 389 47 328 47 266 C47 177 63 77 82 0 L99 0 L19 -197 L21 -207 L76 -207 Z " />
<glyph glyph-name="Ydieresis" unicode="&#x178;" horiz-adv-x="371" d="M418 583 L358 583 L190 275 L188 275 L126 583 L66 583 L149 217 L110 0 L167 0 L203 207 L418 583 Z M158 645 L204 634 L226 727 L175 729 L158 645 Z M292 645 L337 634 L360 727 L309 729 L292 645 Z " />
<glyph glyph-name="Zacute" unicode="&#x179;" horiz-adv-x="342" d="M269 0 L277 52 L62 52 L381 580 L380 583 L87 583 L79 532 L288 532 L-28 3 L-27 0 L269 0 Z M237 634 L333 740 L276 740 L189 634 L237 634 Z " />
<glyph glyph-name="zacute" unicode="&#x17a;" horiz-adv-x="269" d="M184 528 L285 677 L231 677 L141 528 L184 528 Z M53 403 L206 403 L-14 33 L-15 0 L201 0 L207 48 L50 48 L271 418 L272 450 L59 450 L53 403 Z " />
<glyph glyph-name="Zdotaccent" unicode="&#x17b;" horiz-adv-x="342" d="M269 0 L277 52 L62 52 L381 580 L380 583 L87 583 L79 532 L288 532 L-28 3 L-27 0 L269 0 Z M208 643 L256 632 L279 728 L225 730 L208 643 Z " />
<glyph glyph-name="zdotaccent" unicode="&#x17c;" horiz-adv-x="269" d="M53 403 L206 403 L-14 33 L-15 0 L201 0 L207 48 L50 48 L271 418 L272 450 L59 450 L53 403 Z M154 566 L202 555 L225 653 L171 655 L154 566 Z " />
<glyph glyph-name="Zcaron" unicode="&#x17d;" horiz-adv-x="342" d="M269 0 L277 52 L62 52 L381 580 L380 583 L87 583 L79 532 L288 532 L-28 3 L-27 0 L269 0 Z M260 627 L358 739 L310 739 L247 664 L245 664 L210 739 L161 739 L214 627 L260 627 Z " />
<glyph glyph-name="zcaron" unicode="&#x17e;" horiz-adv-x="269" d="M200 528 L302 676 L253 676 L187 571 L184 571 L156 676 L108 676 L154 528 L200 528 Z M53 403 L206 403 L-14 33 L-15 0 L201 0 L207 48 L50 48 L271 418 L272 450 L59 450 L53 403 Z " />
<glyph glyph-name="uni018F" unicode="&#x18f;" horiz-adv-x="432" d="M112 560 L102 502 C149 524 195 535 239 535 C313 535 355 499 355 416 C355 392 353 364 346 324 L47 324 C32 268 20 209 20 158 C20 58 67 -5 162 -5 C328 -5 413 245 413 416 C413 535 353 588 253 588 C206 588 161 580 112 560 L112 560 Z M172 49 C107 49 79 87 79 157 C79 188 84 227 93 274 L335 274 C306 140 250 49 172 49 L172 49 Z " />
<glyph glyph-name="florin" unicode="&#x192;" horiz-adv-x="311" d="M88 23 C71 -59 49 -88 8 -88 C-5 -88 -16 -86 -29 -83 L-41 -135 C-31 -138 -17 -140 -1 -140 C70 -140 120 -86 141 21 L184 270 L270 270 L276 316 L192 316 L211 423 C226 509 250 535 291 535 C304 535 316 534 330 530 L341 583 C329 586 317 588 302 588 C228 588 177 537 159 430 L139 316 L67 316 L61 270 L131 270 L88 23 Z " />
<glyph glyph-name="uni01C4" unicode="&#x1c4;" horiz-adv-x="793" d="M16 0 L143 0 C308 0 427 191 427 394 C427 530 349 583 238 583 L118 583 L16 0 Z M217 532 C312 532 368 497 368 391 C368 223 279 52 143 52 L81 52 L165 532 L217 532 Z M719 0 L727 52 L512 52 L831 580 L830 583 L537 583 L529 532 L738 532 L422 3 L423 0 L719 0 Z M709 627 L807 739 L759 739 L696 664 L694 664 L659 739 L610 739 L663 627 L709 627 Z " />
<glyph glyph-name="uni01C5" unicode="&#x1c5;" horiz-adv-x="720" d="M16 0 L143 0 C308 0 427 191 427 394 C427 530 349 583 238 583 L118 583 L16 0 Z M217 532 C312 532 368 497 368 391 C368 223 279 52 143 52 L81 52 L165 532 L217 532 Z M503 403 L656 403 L436 33 L435 0 L651 0 L657 48 L500 48 L721 418 L722 450 L509 450 L503 403 Z M649 528 L751 676 L702 676 L636 571 L633 571 L605 676 L557 676 L603 528 L649 528 Z " />
<glyph glyph-name="uni01C6" unicode="&#x1c6;" horiz-adv-x="600" d="M237 0 L351 653 L299 653 L259 427 C229 444 200 454 180 454 C143 454 115 426 95 397 C46 325 17 170 17 63 C17 41 19 18 21 0 L81 0 L212 156 L185 0 L237 0 Z M383 403 L536 403 L316 33 L315 0 L531 0 L537 48 L380 48 L601 418 L602 450 L389 450 L383 403 Z M73 68 C72 78 71 90 71 101 C71 191 107 346 155 407 L173 407 C196 404 221 395 251 379 L224 227 L83 65 L73 68 Z M530 528 L632 676 L583 676 L517 571 L514 571 L486 676 L438 676 L484 528 L530 528 Z " />
<glyph glyph-name="uni01C7" unicode="&#x1c7;" horiz-adv-x="499" d="M16 0 L259 0 L267 52 L81 52 L174 583 L117 583 L16 0 Z M287 -86 C363 4 413 89 429 179 L500 583 L443 583 L372 179 C356 88 299 13 245 -59 L287 -86 Z " />
<glyph glyph-name="uni01C8" unicode="&#x1c8;" horiz-adv-x="463" d="M16 0 L259 0 L267 52 L81 52 L174 583 L117 583 L16 0 Z M315 -9 C306 -61 277 -119 236 -181 L273 -205 C326 -137 355 -70 367 -3 L446 450 L395 450 L315 -9 Z M462 555 L486 660 L431 661 L415 566 L462 555 Z " />
<glyph glyph-name="uni01C9" unicode="&#x1c9;" horiz-adv-x="311" d="M163 -9 C154 -61 125 -119 84 -181 L121 -205 C174 -137 203 -70 215 -3 L294 450 L243 450 L163 -9 Z M310 555 L334 660 L279 661 L263 566 L310 555 Z M61 0 L174 653 L123 653 L11 0 L61 0 Z " />
<glyph glyph-name="uni01CA" unicode="&#x1ca;" horiz-adv-x="643" d="M431 -86 C507 4 557 89 573 179 L644 583 L587 583 L516 179 C500 88 443 13 389 -59 L431 -86 Z M16 0 L72 0 L151 450 L153 450 L300 0 L351 0 L454 583 L398 583 L319 137 L317 137 L171 583 L118 583 L16 0 Z " />
<glyph glyph-name="uni01CB" unicode="&#x1cb;" horiz-adv-x="607" d="M459 -9 C450 -61 421 -119 380 -181 L417 -205 C470 -137 499 -70 511 -3 L590 450 L539 450 L459 -9 Z M606 555 L630 660 L575 661 L559 566 L606 555 Z M16 0 L72 0 L151 450 L153 450 L300 0 L351 0 L454 583 L398 583 L319 137 L317 137 L171 583 L118 583 L16 0 Z " />
<glyph glyph-name="uni01CC" unicode="&#x1cc;" horiz-adv-x="499" d="M57 0 L108 293 C161 356 216 395 243 402 L258 395 C263 373 262 339 246 240 L205 0 L256 0 L300 252 C309 309 314 352 314 383 C314 434 301 454 271 454 C227 454 172 416 119 357 L135 450 L84 450 L7 0 L57 0 Z M351 -9 C342 -61 313 -119 272 -181 L309 -205 C362 -137 391 -70 403 -3 L482 450 L431 450 L351 -9 Z M498 555 L522 660 L467 661 L451 566 L498 555 Z " />
<glyph glyph-name="uni01D3" unicode="&#x1d3;" horiz-adv-x="438" d="M299 619 L397 731 L349 731 L286 656 L284 656 L249 731 L200 731 L253 619 L299 619 Z M176 -5 C263 -5 346 47 377 223 L441 583 L385 583 L320 218 C299 96 250 47 184 47 C130 47 98 69 98 139 C98 158 100 180 105 206 L171 583 L115 583 L47 200 C43 175 40 152 40 132 C40 24 102 -5 176 -5 L176 -5 Z " />
<glyph glyph-name="uni01D4" unicode="&#x1d4;" horiz-adv-x="344" d="M277 450 L226 160 C174 96 116 57 90 51 L76 56 C75 80 75 112 92 212 L133 450 L82 450 L37 192 C27 137 22 94 22 63 C22 17 34 -5 61 -5 C106 -5 165 36 215 93 L199 0 L249 0 L327 450 L277 450 Z M239 528 L341 676 L292 676 L226 571 L223 571 L195 676 L147 676 L193 528 L239 528 Z " />
<glyph glyph-name="uni01E2" unicode="&#x1e2;" horiz-adv-x="536" d="M211 0 L461 0 L469 52 L277 52 L315 273 L475 273 L483 323 L324 323 L361 532 L552 532 L560 583 L289 583 L-38 0 L21 0 L120 184 L243 184 L211 0 Z M297 511 L300 511 L252 235 L148 235 L297 511 Z M354 665 L542 665 L551 712 L362 712 L354 665 Z " />
<glyph glyph-name="uni01E3" unicode="&#x1e3;" horiz-adv-x="494" d="M441 111 L416 140 C372 97 323 64 286 49 L274 54 C270 71 268 91 267 114 C267 136 267 160 270 183 C337 220 437 282 477 325 L481 418 C450 444 415 454 385 454 C349 454 319 433 297 406 C262 428 210 454 181 454 C144 454 115 424 95 396 C54 336 18 194 18 80 C18 50 20 24 23 0 L82 0 L215 152 C214 131 213 110 213 90 C213 58 217 27 225 1 L276 -7 C344 24 410 77 441 111 L441 111 Z M74 67 C73 80 71 93 71 106 C72 207 111 353 155 407 C164 408 174 407 183 405 C212 400 241 385 271 365 C248 322 233 271 223 218 L84 64 L74 67 Z M349 407 C354 408 360 408 366 408 C389 408 415 401 431 387 L427 339 C392 300 323 258 277 232 C290 304 314 371 349 407 L349 407 Z M217 577 L406 577 L414 623 L225 623 L217 577 Z " />
<glyph glyph-name="uni01F1" unicode="&#x1f1;" horiz-adv-x="782" d="M16 0 L143 0 C308 0 427 191 427 394 C427 530 349 583 238 583 L118 583 L16 0 Z M217 532 C312 532 368 497 368 391 C368 223 279 52 143 52 L81 52 L165 532 L217 532 Z M708 0 L716 52 L501 52 L820 580 L819 583 L526 583 L518 532 L727 532 L411 3 L412 0 L708 0 Z " />
<glyph glyph-name="uni01F2" unicode="&#x1f2;" horiz-adv-x="720" d="M16 0 L143 0 C308 0 427 191 427 394 C427 530 349 583 238 583 L118 583 L16 0 Z M217 532 C312 532 368 497 368 391 C368 223 279 52 143 52 L81 52 L165 532 L217 532 Z M503 403 L656 403 L436 33 L435 0 L651 0 L657 48 L500 48 L721 418 L722 450 L509 450 L503 403 Z " />
<glyph glyph-name="uni01F3" unicode="&#x1f3;" horiz-adv-x="600" d="M237 0 L351 653 L299 653 L259 427 C229 444 200 454 180 454 C143 454 115 426 95 397 C46 325 17 170 17 63 C17 41 19 18 21 0 L81 0 L212 156 L185 0 L237 0 Z M383 403 L536 403 L316 33 L315 0 L531 0 L537 48 L380 48 L601 418 L602 450 L389 450 L383 403 Z M73 68 C72 78 71 90 71 101 C71 191 107 346 155 407 L173 407 C196 404 221 395 251 379 L224 227 L83 65 L73 68 Z " />
<glyph glyph-name="AEacute" unicode="&#x1fc;" horiz-adv-x="536" d="M211 0 L461 0 L469 52 L277 52 L315 273 L475 273 L483 323 L324 323 L361 532 L552 532 L560 583 L289 583 L-38 0 L21 0 L120 184 L243 184 L211 0 Z M297 511 L300 511 L252 235 L148 235 L297 511 Z M440 635 L536 741 L479 741 L392 635 L440 635 Z " />
<glyph glyph-name="aeacute" unicode="&#x1fd;" horiz-adv-x="494" d="M441 111 L416 140 C372 97 323 64 286 49 L274 54 C270 71 268 91 267 114 C267 136 267 160 270 183 C337 220 437 282 477 325 L481 418 C450 444 415 454 385 454 C349 454 319 433 297 406 C262 428 210 454 181 454 C144 454 115 424 95 396 C54 336 18 194 18 80 C18 50 20 24 23 0 L82 0 L215 152 C214 131 213 110 213 90 C213 58 217 27 225 1 L276 -7 C344 24 410 77 441 111 L441 111 Z M74 67 C73 80 71 93 71 106 C72 207 111 353 155 407 C164 408 174 407 183 405 C212 400 241 385 271 365 C248 322 233 271 223 218 L84 64 L74 67 Z M349 407 C354 408 360 408 366 408 C389 408 415 401 431 387 L427 339 C392 300 323 258 277 232 C290 304 314 371 349 407 L349 407 Z M315 528 L416 677 L362 677 L272 528 L315 528 Z " />
<glyph glyph-name="Oslashacute" unicode="&#x1fe;" horiz-adv-x="464" d="M186 -5 C352 -5 445 242 445 411 C445 450 438 485 425 512 L482 588 L433 588 L402 546 C377 573 342 588 294 588 C120 588 31 336 31 170 C31 133 37 101 49 74 L-10 -5 L39 -5 L72 40 C98 11 136 -5 186 -5 L186 -5 Z M193 46 C154 46 125 60 108 88 L383 455 C385 443 386 431 386 417 C386 274 311 46 193 46 L193 46 Z M90 171 C90 311 162 537 284 537 C321 537 349 525 366 499 L93 133 C91 144 90 157 90 171 L90 171 Z M300 634 L396 740 L339 740 L252 634 L300 634 Z " />
<glyph glyph-name="oslashacute" unicode="&#x1ff;" horiz-adv-x="330" d="M112 -5 C163 -5 208 37 241 92 C277 156 299 236 299 299 C299 329 296 354 291 374 L350 454 L307 454 L277 414 C261 442 236 454 205 454 C151 454 106 415 75 359 C40 295 21 212 21 140 C21 114 23 91 27 72 L-29 -5 L13 -5 L42 34 C57 8 81 -5 112 -5 L112 -5 Z M74 139 C73 240 118 382 178 410 C198 407 217 402 228 395 C233 385 237 375 240 363 L74 136 L74 139 Z M134 41 C118 42 100 47 90 56 C85 65 82 75 79 85 L245 311 L245 308 C245 209 201 89 134 41 L134 41 Z M223 528 L324 677 L270 677 L180 528 L223 528 Z " />
<glyph glyph-name="Scommaaccent" unicode="&#x218;" horiz-adv-x="330" d="M53 -213 L94 -213 L146 -62 L94 -62 L53 -213 Z M-7 19 C28 4 62 -5 101 -5 C203 -5 288 57 288 182 C288 253 235 287 190 324 C156 351 126 380 126 426 C126 492 170 537 234 537 C269 537 298 527 324 513 L336 566 C310 579 275 588 233 588 C139 588 68 520 68 416 C68 353 109 316 149 284 C190 251 232 221 232 168 C232 91 173 46 114 46 C75 46 43 54 7 71 L-7 19 Z " />
<glyph glyph-name="scommaaccent" unicode="&#x219;" horiz-adv-x="261" d="M20 -213 L61 -213 L113 -62 L61 -62 L20 -213 Z M252 439 C227 450 203 454 176 454 C97 454 46 388 46 329 C46 275 75 246 109 209 C137 179 159 146 163 105 C164 94 162 83 159 72 C143 54 113 44 83 44 C60 44 26 53 1 66 L-10 15 C15 2 41 -5 76 -5 C118 -5 152 11 174 35 C197 59 209 91 209 124 C209 173 176 209 144 244 C116 276 95 306 95 343 C95 361 100 374 106 390 C123 400 147 406 172 405 C195 405 219 399 241 387 L252 439 Z " />
<glyph glyph-name="uni021A" unicode="&#x21a;" horiz-adv-x="366" d="M59 532 L204 532 L111 0 L168 0 L261 532 L405 532 L413 583 L68 583 L59 532 Z M62 -213 L103 -213 L155 -62 L103 -62 L62 -213 Z " />
<glyph glyph-name="uni021B" unicode="&#x21b;" horiz-adv-x="244" d="M44 406 L92 406 L23 8 L75 -6 C127 19 193 76 216 107 L193 138 C168 106 130 74 97 58 L84 63 L144 406 L237 406 L244 450 L151 450 L172 569 L121 569 L100 450 L51 450 L44 406 Z M19 -213 L60 -213 L112 -62 L60 -62 L19 -213 Z " />
<glyph glyph-name="uni0232" unicode="&#x232;" horiz-adv-x="371" d="M418 583 L358 583 L190 275 L188 275 L126 583 L66 583 L149 217 L110 0 L167 0 L203 207 L418 583 Z M156 665 L344 665 L353 712 L164 712 L156 665 Z " />
<glyph glyph-name="uni0233" unicode="&#x233;" horiz-adv-x="311" d="M76 -207 L179 70 L326 450 L272 450 L125 62 L121 62 C106 116 98 180 98 228 C98 305 102 378 114 450 L61 450 C51 389 47 328 47 266 C47 177 63 77 82 0 L99 0 L19 -197 L21 -207 L76 -207 Z M117 577 L306 577 L314 623 L125 623 L117 577 Z " />
<glyph glyph-name="uni0237" unicode="&#x237;" horiz-adv-x="152" d="M5 -9 C-4 -61 -33 -119 -74 -181 L-37 -205 C16 -137 46 -70 57 -3 L134 450 L83 450 L5 -9 Z " />
<glyph glyph-name="uni0259" unicode="&#x259;" horiz-adv-x="298" d="M42 338 L66 308 C110 351 159 384 196 400 L208 395 C213 376 216 354 215 329 C215 309 214 288 212 268 C144 230 45 169 5 126 L0 32 C32 6 67 -4 98 -4 C146 -4 183 34 205 75 C250 153 269 258 269 359 C269 391 265 421 256 447 L206 455 C138 424 72 371 42 338 L42 338 Z M133 43 C128 42 122 42 116 42 C92 42 66 50 51 63 L54 112 C90 150 159 193 205 220 C193 147 168 80 133 43 L133 43 Z " />
<glyph glyph-name="circumflex" unicode="&#x2c6;" horiz-adv-x="347" d="M256 676 L153 528 L203 528 L268 633 L271 633 L300 528 L347 528 L301 676 L256 676 Z " />
<glyph glyph-name="caron" unicode="&#x2c7;" horiz-adv-x="411" d="M301 528 L403 676 L354 676 L288 571 L285 571 L257 676 L209 676 L255 528 L301 528 Z " />
<glyph glyph-name="breve" unicode="&#x2d8;" horiz-adv-x="306" d="M234 575 C199 575 190 602 188 637 L149 623 C150 571 172 533 225 533 C279 533 318 569 337 626 L304 637 C291 602 272 575 234 575 L234 575 Z " />
<glyph glyph-name="dotaccent" unicode="&#x2d9;" horiz-adv-x="251" d="M178 566 L226 555 L249 653 L195 655 L178 566 Z " />
<glyph glyph-name="ring" unicode="&#x2da;" horiz-adv-x="289" d="M242 647 C262 647 272 636 272 616 C272 584 254 555 226 555 C206 555 197 568 197 586 C197 627 217 647 242 647 L242 647 Z M248 679 C207 679 161 649 161 582 C161 546 186 523 219 523 C263 523 307 553 307 620 C307 658 283 679 248 679 L248 679 Z " />
<glyph glyph-name="ogonek" unicode="&#x2db;" horiz-adv-x="230" d="M151 -183 L156 -142 C140 -150 121 -155 106 -155 C85 -155 70 -145 70 -120 C70 -76 110 -21 157 4 L137 21 C87 -4 25 -66 25 -135 C25 -177 50 -198 90 -198 C110 -198 134 -194 151 -183 L151 -183 Z " />
<glyph glyph-name="tilde" unicode="&#x2dc;" horiz-adv-x="375" d="M353 633 C342 615 324 602 305 602 C279 602 260 634 225 634 C195 634 170 612 152 587 L169 559 C185 580 200 589 217 589 C245 589 268 558 301 558 C334 558 355 581 370 606 L353 633 Z " />
<glyph glyph-name="hungarumlaut" unicode="&#x2dd;" horiz-adv-x="417" d="M174 528 L272 677 L218 677 L130 528 L174 528 Z M291 528 L394 677 L339 677 L248 528 L291 528 Z " />
<glyph glyph-name="dotbelowcmb" unicode="&#x323;" horiz-adv-x="-8" d="M-241 -174 L-193 -186 L-170 -88 L-224 -86 L-241 -174 Z " />
<glyph glyph-name="uni0394" unicode="&#x394;" horiz-adv-x="384" d="M320 0 L328 43 L291 583 L229 583 L-15 42 L-22 0 L320 0 Z M243 517 L246 517 L266 50 L45 50 L243 517 Z " />
<glyph glyph-name="Sigma" unicode="&#x3a3;" horiz-adv-x="354" d="M-12 0 L277 0 L285 52 L60 52 L200 291 L148 534 L359 534 L368 583 L94 583 L87 538 L140 288 L-5 44 L-12 0 Z " />
<glyph glyph-name="pi" unicode="&#x3c0;" horiz-adv-x="396" d="M331 401 L385 401 L393 450 L59 450 L51 401 L102 401 L32 0 L82 0 L152 401 L280 401 L220 58 C213 15 226 -5 266 -5 C281 -5 299 -2 316 7 L321 43 C309 40 298 40 290 40 C273 40 269 53 276 87 L331 401 Z " />
<glyph glyph-name="uni1E46" unicode="&#x1e46;" horiz-adv-x="456" d="M133 -174 L181 -186 L204 -88 L150 -86 L133 -174 Z M16 0 L72 0 L151 450 L153 450 L300 0 L351 0 L454 583 L398 583 L319 137 L317 137 L171 583 L118 583 L16 0 Z " />
<glyph glyph-name="uni1E47" unicode="&#x1e47;" horiz-adv-x="348" d="M57 0 L108 293 C161 356 216 395 243 402 L258 395 C263 373 262 339 246 240 L205 0 L256 0 L300 252 C309 309 314 352 314 383 C314 434 301 454 271 454 C227 454 172 416 119 357 L135 450 L84 450 L7 0 L57 0 Z M81 -174 L129 -186 L152 -88 L98 -86 L81 -174 Z " />
<glyph glyph-name="uni1E62" unicode="&#x1e62;" horiz-adv-x="330" d="M69 -174 L117 -186 L140 -88 L86 -86 L69 -174 Z M-7 19 C28 4 62 -5 101 -5 C203 -5 288 57 288 182 C288 253 235 287 190 324 C156 351 126 380 126 426 C126 492 170 537 234 537 C269 537 298 527 324 513 L336 566 C310 579 275 588 233 588 C139 588 68 520 68 416 C68 353 109 316 149 284 C190 251 232 221 232 168 C232 91 173 46 114 46 C75 46 43 54 7 71 L-7 19 Z " />
<glyph glyph-name="uni1E63" unicode="&#x1e63;" horiz-adv-x="261" d="M38 -174 L86 -186 L109 -88 L55 -86 L38 -174 Z M252 439 C227 450 203 454 176 454 C97 454 46 388 46 329 C46 275 75 246 109 209 C137 179 159 146 163 105 C164 94 162 83 159 72 C143 54 113 44 83 44 C60 44 26 53 1 66 L-10 15 C15 2 41 -5 76 -5 C118 -5 152 11 174 35 C197 59 209 91 209 124 C209 173 176 209 144 244 C116 276 95 306 95 343 C95 361 100 374 106 390 C123 400 147 406 172 405 C195 405 219 399 241 387 L252 439 Z " />
<glyph glyph-name="Wgrave" unicode="&#x1e80;" horiz-adv-x="624" d="M391 634 L328 740 L271 740 L343 634 L391 634 Z M664 583 L604 583 L413 96 L410 96 L402 583 L336 583 L145 92 L142 92 L142 583 L79 583 L92 0 L158 0 L347 483 L351 483 L360 0 L425 0 L664 583 Z " />
<glyph glyph-name="wgrave" unicode="&#x1e81;" horiz-adv-x="500" d="M460 450 L315 62 L310 62 C296 121 288 176 288 228 C288 305 292 378 304 450 L250 450 C244 415 241 380 239 345 L124 62 L119 62 C105 121 97 176 97 228 C97 305 101 378 113 450 L60 450 C49 390 47 330 47 270 C47 180 64 79 83 0 L142 0 L238 238 C241 156 257 70 274 0 L338 0 L515 450 L460 450 Z M305 528 L215 677 L161 677 L262 528 L305 528 Z " />
<glyph glyph-name="Wacute" unicode="&#x1e82;" horiz-adv-x="624" d="M393 630 L489 736 L432 736 L345 630 L393 630 Z M664 583 L604 583 L413 96 L410 96 L402 583 L336 583 L145 92 L142 92 L142 583 L79 583 L92 0 L158 0 L347 483 L351 483 L360 0 L425 0 L664 583 Z " />
<glyph glyph-name="wacute" unicode="&#x1e83;" horiz-adv-x="500" d="M460 450 L315 62 L310 62 C296 121 288 176 288 228 C288 305 292 378 304 450 L250 450 C244 415 241 380 239 345 L124 62 L119 62 C105 121 97 176 97 228 C97 305 101 378 113 450 L60 450 C49 390 47 330 47 270 C47 180 64 79 83 0 L142 0 L238 238 C241 156 257 70 274 0 L338 0 L515 450 L460 450 Z M304 528 L405 677 L351 677 L261 528 L304 528 Z " />
<glyph glyph-name="Wdieresis" unicode="&#x1e84;" horiz-adv-x="624" d="M283 645 L329 634 L351 727 L300 729 L283 645 Z M417 645 L462 634 L485 727 L434 729 L417 645 Z M664 583 L604 583 L413 96 L410 96 L402 583 L336 583 L145 92 L142 92 L142 583 L79 583 L92 0 L158 0 L347 483 L351 483 L360 0 L425 0 L664 583 Z " />
<glyph glyph-name="wdieresis" unicode="&#x1e85;" horiz-adv-x="500" d="M460 450 L315 62 L310 62 C296 121 288 176 288 228 C288 305 292 378 304 450 L250 450 C244 415 241 380 239 345 L124 62 L119 62 C105 121 97 176 97 228 C97 305 101 378 113 450 L60 450 C49 390 47 330 47 270 C47 180 64 79 83 0 L142 0 L238 238 C241 156 257 70 274 0 L338 0 L515 450 L460 450 Z M331 562 L376 551 L399 645 L348 647 L331 562 Z M196 562 L241 551 L264 645 L213 647 L196 562 Z " />
<glyph glyph-name="uni1EBC" unicode="&#x1ebc;" horiz-adv-x="341" d="M16 0 L265 0 L274 52 L81 52 L120 275 L279 275 L288 325 L129 325 L165 532 L355 532 L364 583 L117 583 L16 0 Z M355 720 C344 701 325 688 307 688 C280 688 259 721 224 721 C194 721 169 698 151 674 L167 646 C184 667 199 676 216 676 C244 676 269 644 302 644 C335 644 358 667 373 692 L355 720 Z " />
<glyph glyph-name="uni1EBD" unicode="&#x1ebd;" horiz-adv-x="300" d="M246 112 L222 142 C178 99 129 66 92 50 L80 55 C75 74 72 96 73 121 C73 141 74 161 76 182 C143 219 243 281 283 324 L288 418 C256 444 221 454 190 454 C142 454 105 416 83 375 C38 297 19 192 19 91 C19 59 23 29 32 3 L82 -5 C150 26 216 79 246 112 L246 112 Z M155 407 C160 408 166 408 172 408 C196 408 222 400 237 387 L234 338 C198 299 129 256 82 229 C95 302 120 370 155 407 L155 407 Z M303 633 C292 615 274 602 255 602 C229 602 210 634 175 634 C145 634 120 612 102 587 L119 559 C135 580 150 589 167 589 C195 589 218 558 251 558 C284 558 305 581 320 606 L303 633 Z " />
<glyph glyph-name="Ygrave" unicode="&#x1ef2;" horiz-adv-x="371" d="M418 583 L358 583 L190 275 L188 275 L126 583 L66 583 L149 217 L110 0 L167 0 L203 207 L418 583 Z M278 634 L215 740 L158 740 L230 634 L278 634 Z " />
<glyph glyph-name="ygrave" unicode="&#x1ef3;" horiz-adv-x="311" d="M76 -207 L179 70 L326 450 L272 450 L125 62 L121 62 C106 116 98 180 98 228 C98 305 102 378 114 450 L61 450 C51 389 47 328 47 266 C47 177 63 77 82 0 L99 0 L19 -197 L21 -207 L76 -207 Z M236 519 L146 668 L92 668 L193 519 L236 519 Z " />
<glyph glyph-name="uni2004" unicode="&#x2004;" horiz-adv-x="333" d="" />
<glyph glyph-name="uni2007" unicode="&#x2007;" horiz-adv-x="600" d="" />
<glyph glyph-name="uni2009" unicode="&#x2009;" horiz-adv-x="160" d="" />
<glyph glyph-name="uni200A" unicode="&#x200a;" horiz-adv-x="80" d="" />
<glyph glyph-name="uni200B" unicode="&#x200b;" d="" />
<glyph glyph-name="uni2012" unicode="&#x2012;" horiz-adv-x="365" d="M375 237 L375 292 L-10 292 L-10 237 L375 237 Z " />
<glyph glyph-name="endash" unicode="&#x2013;" horiz-adv-x="336" d="M45 224 L282 224 L287 269 L51 269 L45 224 Z " />
<glyph glyph-name="emdash" unicode="&#x2014;" horiz-adv-x="631" d="M45 224 L577 224 L582 269 L51 269 L45 224 Z " />
<glyph glyph-name="quoteleft" unicode="&#x2018;" horiz-adv-x="150" d="M163 668 C123 619 100 563 89 506 C86 487 85 465 87 446 L133 444 C131 462 132 479 135 497 C144 557 165 604 197 650 L163 668 Z " />
<glyph glyph-name="quoteright" unicode="&#x2019;" horiz-adv-x="158" d="M110 450 C150 499 173 555 184 612 C187 631 188 653 186 672 L140 674 C142 656 141 639 138 621 C129 561 108 514 76 468 L110 450 Z " />
<glyph glyph-name="quotesinglbase" unicode="&#x201a;" horiz-adv-x="153" d="M-10 -132 C30 -82 54 -26 64 31 C67 51 68 72 66 91 L20 93 C22 75 21 58 18 40 C9 -20 -12 -68 -44 -114 L-10 -132 Z " />
<glyph glyph-name="quotedblleft" unicode="&#x201c;" horiz-adv-x="271" d="M163 668 C123 619 100 563 89 506 C86 487 85 465 87 446 L133 444 C131 462 132 479 135 497 C144 557 165 604 197 650 L163 668 Z M284 668 C244 619 221 563 210 506 C207 487 206 465 208 446 L254 444 C252 462 253 479 256 497 C265 557 286 604 318 650 L284 668 Z " />
<glyph glyph-name="quotedblright" unicode="&#x201d;" horiz-adv-x="282" d="M107 441 C147 490 170 546 181 603 C184 622 185 644 183 663 L137 665 C139 647 138 630 135 612 C126 552 105 505 73 459 L107 441 Z M230 441 C270 490 293 546 304 603 C307 622 308 644 306 663 L260 665 C262 647 261 630 258 612 C249 552 228 505 196 459 L230 441 Z " />
<glyph glyph-name="quotedblbase" unicode="&#x201e;" horiz-adv-x="275" d="M-10 -132 C30 -82 54 -26 64 31 C67 51 68 72 66 91 L20 93 C22 75 21 58 18 40 C9 -20 -12 -68 -44 -114 L-10 -132 Z M112 -132 C152 -82 176 -26 186 31 C189 51 190 72 188 91 L142 93 C144 75 143 58 140 40 C131 -20 110 -68 78 -114 L112 -132 Z " />
<glyph glyph-name="dagger" unicode="&#x2020;" horiz-adv-x="348" d="M51 406 L178 406 L107 0 L152 0 L222 406 L350 406 L358 451 L230 451 L266 653 L221 653 L186 451 L59 451 L51 406 Z " />
<glyph glyph-name="daggerdbl" unicode="&#x2021;" horiz-adv-x="375" d="M63 401 L189 401 L160 239 L35 239 L28 195 L153 195 L119 0 L165 0 L199 195 L326 195 L334 239 L206 239 L235 401 L362 401 L370 445 L242 445 L279 653 L233 653 L196 445 L72 445 L63 401 Z " />
<glyph glyph-name="bullet" unicode="&#x2022;" horiz-adv-x="362" d="M170 167 C246 167 313 223 313 307 C313 368 274 424 204 424 C127 424 63 365 63 282 C63 222 103 167 170 167 L170 167 Z " />
<glyph glyph-name="ellipsis" unicode="&#x2026;" horiz-adv-x="480" d="M4 -2 L55 -8 L84 115 L27 117 L4 -2 Z M165 -2 L216 -8 L245 115 L188 117 L165 -2 Z M326 -2 L377 -8 L406 115 L349 117 L326 -2 Z " />
<glyph glyph-name="perthousand" unicode="&#x2030;" horiz-adv-x="707" d="M126 285 C201 285 249 399 249 494 C249 555 221 590 177 590 C105 590 54 483 54 379 C54 317 83 285 126 285 L126 285 Z M133 323 C108 323 94 345 94 380 C94 460 133 551 171 551 C195 551 209 531 209 495 C209 420 173 323 133 323 L133 323 Z M286 369 L328 369 L450 571 L452 583 L404 583 L286 369 Z M246 225 L205 225 L76 12 L73 0 L122 0 L246 225 Z M336 -6 C412 -6 461 109 461 203 C461 264 431 299 387 299 C317 299 264 190 264 89 C264 27 295 -6 336 -6 L336 -6 Z M343 32 C317 32 305 54 305 89 C305 163 342 260 381 260 C406 260 418 240 418 205 C418 129 383 32 343 32 L343 32 Z M543 -6 C619 -6 667 109 667 203 C667 264 638 299 594 299 C524 299 471 190 471 89 C471 27 502 -6 543 -6 L543 -6 Z M550 32 C524 32 512 54 512 89 C512 163 549 260 587 260 C613 260 625 240 625 205 C625 129 590 32 550 32 L550 32 Z " />
<glyph glyph-name="guilsinglleft" unicode="&#x2039;" horiz-adv-x="191" d="M67 46 L116 46 L90 226 L177 405 L130 405 L29 226 L67 46 Z " />
<glyph glyph-name="guilsinglright" unicode="&#x203a;" horiz-adv-x="191" d="M112 408 L63 408 L89 228 L2 49 L49 49 L150 228 L112 408 Z " />
<glyph glyph-name="uni203D" unicode="&#x203d;" horiz-adv-x="256" d="M90 303 L105 181 L141 188 L138 286 C155 304 187 336 195 348 C231 393 262 429 262 459 C263 507 209 578 113 595 L99 548 C151 536 203 504 223 459 C200 419 165 375 135 334 L125 457 L78 448 L90 303 Z M52 0 L103 -6 L132 115 L75 117 L52 0 Z " />
<glyph glyph-name="fraction" unicode="&#x2044;" horiz-adv-x="125" d="M-86 0 L254 566 L254 570 L217 570 L-122 4 L-122 0 L-86 0 Z " />
<glyph glyph-name="zerosuperior" unicode="&#x2070;" horiz-adv-x="224" d="M263 626 C263 674 245 715 193 715 C115 715 77 615 68 520 C66 506 66 493 66 481 C66 429 89 395 136 395 C216 395 253 500 261 589 C263 602 263 615 263 626 L263 626 Z M141 430 C117 430 106 447 106 488 C106 499 107 508 108 521 C115 601 143 680 187 680 C212 680 222 663 222 620 C222 608 221 598 219 583 C211 508 186 430 141 430 L141 430 Z " />
<glyph glyph-name="i.superior" unicode="&#x2071;" horiz-adv-x="110" d="M99 400 L155 709 L115 709 L59 400 L99 400 Z M167 780 L185 851 L143 853 L130 788 L167 780 Z " />
<glyph glyph-name="foursuperior" unicode="&#x2074;" horiz-adv-x="200" d="M227 487 L232 519 L200 519 L236 711 L196 711 L53 516 L48 487 L155 487 L139 400 L178 400 L194 487 L227 487 Z M89 519 L186 653 L161 519 L89 519 Z " />
<glyph glyph-name="fivesuperior" unicode="&#x2075;" horiz-adv-x="186" d="M50 408 C64 402 89 395 109 395 C171 395 211 449 213 509 C214 555 190 585 165 595 C148 595 128 586 116 577 L140 674 L231 674 L237 709 L114 709 L74 545 L89 541 C106 552 126 557 147 561 C162 550 173 534 172 501 C169 452 141 429 111 429 C92 429 72 435 55 442 L50 408 Z " />
<glyph glyph-name="sixsuperior" unicode="&#x2076;" horiz-adv-x="203" d="M251 706 C235 712 220 715 205 715 C127 715 69 602 64 507 C61 439 90 395 127 395 C174 395 228 449 231 509 C233 551 216 581 192 595 C171 595 139 581 112 561 C120 594 132 622 145 643 C160 666 178 679 200 679 C214 679 226 679 243 672 L251 706 Z M175 562 C190 546 192 534 191 506 C188 461 160 434 134 427 C113 434 101 455 104 507 C104 514 105 521 106 528 C129 547 158 561 175 562 L175 562 Z " />
<glyph glyph-name="sevensuperior" unicode="&#x2077;" horiz-adv-x="162" d="M79 673 L185 673 L56 406 L58 400 L93 400 L234 695 L231 709 L84 709 L79 673 Z " />
<glyph glyph-name="eightsuperior" unicode="&#x2078;" horiz-adv-x="211" d="M255 648 C256 679 225 715 182 715 C133 715 93 670 92 635 C91 615 112 588 134 561 C94 542 56 503 54 467 C53 440 79 395 129 395 C185 395 228 429 230 480 C230 501 207 533 182 563 C217 584 254 621 255 648 L255 648 Z M193 472 C183 448 166 428 133 428 C110 428 96 448 90 469 C99 500 119 524 149 544 C172 517 193 490 193 472 L193 472 Z M129 642 C137 659 153 681 175 681 C200 681 212 667 216 644 C210 623 193 600 167 580 C147 605 129 627 129 642 L129 642 Z " />
<glyph glyph-name="ninesuperior" unicode="&#x2079;" horiz-adv-x="203" d="M56 402 C72 396 87 393 102 393 C180 393 238 506 243 601 C246 669 217 713 180 713 C133 713 79 659 76 599 C74 557 91 527 115 513 C135 513 168 527 194 546 C187 514 175 486 162 465 C147 442 129 429 107 429 C93 429 81 429 64 436 L56 402 Z M132 546 C117 562 115 574 116 602 C119 647 147 674 173 681 C194 674 206 653 203 601 L201 580 C178 561 148 547 132 546 L132 546 Z " />
<glyph glyph-name="plussuperior" unicode="&#x207a;" horiz-adv-x="233" d="M63 533 L146 533 L130 440 L167 440 L183 533 L267 533 L274 573 L190 573 L207 666 L170 666 L153 573 L71 573 L63 533 Z " />
<glyph glyph-name="minussuperior" unicode="&#x207b;" horiz-adv-x="256" d="M77 536 L277 536 L283 575 L84 575 L77 536 Z " />
<glyph glyph-name="equalsuperior" unicode="&#x207c;" horiz-adv-x="244" d="M66 471 L254 471 L261 512 L74 512 L66 471 Z M89 601 L277 601 L285 641 L96 641 L89 601 Z " />
<glyph glyph-name="parenleftsuperior" unicode="&#x207d;" horiz-adv-x="128" d="M140 306 C129 323 101 378 101 460 C101 662 207 815 232 841 L191 841 C169 820 59 670 59 460 C59 371 89 324 100 306 L140 306 Z " />
<glyph glyph-name="parenrightsuperior" unicode="&#x207e;" horiz-adv-x="127" d="M100 841 C110 824 138 769 138 687 C138 484 32 331 7 306 L48 306 C70 326 179 480 179 689 C179 777 151 823 140 841 L100 841 Z " />
<glyph glyph-name="n.superior" unicode="&#x207f;" horiz-adv-x="251" d="M100 400 L136 601 C174 644 212 669 231 673 L242 668 C246 653 244 632 233 565 L204 400 L243 400 L274 573 C281 611 285 641 285 663 C285 700 274 715 253 715 C221 715 182 686 144 644 L156 709 L116 709 L59 400 L100 400 Z " />
<glyph glyph-name="zeroinferior" unicode="&#x2080;" horiz-adv-x="225" d="M193 226 C193 274 175 315 123 315 C45 315 7 215 -2 120 C-4 106 -4 93 -4 81 C-4 29 19 -5 66 -5 C146 -5 183 100 191 189 C193 202 193 215 193 226 L193 226 Z M71 30 C47 30 36 47 36 88 C36 99 37 108 38 121 C45 201 73 280 117 280 C142 280 152 263 152 220 C152 208 151 198 149 183 C141 108 116 30 71 30 L71 30 Z " />
<glyph glyph-name="oneinferior" unicode="&#x2081;" horiz-adv-x="133" d="M52 0 L109 312 L81 312 L10 285 L4 250 L63 269 L13 0 L52 0 Z " />
<glyph glyph-name="twoinferior" unicode="&#x2082;" horiz-adv-x="183" d="M125 0 L130 34 L23 34 C86 94 159 199 159 256 C159 290 130 315 91 315 C68 315 44 308 20 294 L17 259 C37 272 58 278 74 278 C100 278 113 262 119 247 C108 186 50 99 -20 32 L-24 0 L125 0 Z " />
<glyph glyph-name="threeinferior" unicode="&#x2083;" horiz-adv-x="187" d="M-26 8 C-15 2 4 -5 30 -5 C87 -5 138 36 140 88 C141 121 106 152 82 163 L82 166 C110 179 157 224 158 254 C160 292 128 315 90 315 C65 315 41 307 23 295 L22 261 C40 272 58 278 76 278 C103 278 114 269 120 245 C108 219 75 183 43 171 L40 152 C69 139 93 110 101 86 C94 44 61 30 31 30 C15 30 -1 33 -19 42 L-26 8 Z " />
<glyph glyph-name="fourinferior" unicode="&#x2084;" horiz-adv-x="200" d="M157 87 L162 119 L130 119 L166 311 L126 311 L-17 116 L-22 87 L85 87 L69 0 L108 0 L124 87 L157 87 Z M19 119 L116 253 L91 119 L19 119 Z " />
<glyph glyph-name="fiveinferior" unicode="&#x2085;" horiz-adv-x="187" d="M-20 8 C-6 2 19 -5 39 -5 C101 -5 141 49 143 109 C144 155 120 185 95 195 C78 195 58 186 46 177 L70 274 L161 274 L167 309 L44 309 L4 145 L19 141 C36 152 56 157 77 161 C92 150 103 134 102 101 C99 52 71 29 41 29 C22 29 2 35 -15 42 L-20 8 Z " />
<glyph glyph-name="sixinferior" unicode="&#x2086;" horiz-adv-x="203" d="M181 306 C165 312 150 315 135 315 C57 315 -1 202 -6 107 C-9 39 20 -5 57 -5 C104 -5 158 49 161 109 C163 151 146 181 122 195 C101 195 69 181 42 161 C50 194 62 222 75 243 C90 266 108 279 130 279 C144 279 156 279 173 272 L181 306 Z M105 162 C120 146 122 134 121 106 C118 61 90 34 64 27 C43 34 31 55 34 107 C34 114 35 121 36 128 C59 147 88 161 105 162 L105 162 Z " />
<glyph glyph-name="seveninferior" unicode="&#x2087;" horiz-adv-x="162" d="M9 273 L115 273 L-14 6 L-12 0 L23 0 L164 295 L161 309 L14 309 L9 273 Z " />
<glyph glyph-name="eightinferior" unicode="&#x2088;" horiz-adv-x="210" d="M185 248 C186 279 155 315 112 315 C63 315 23 270 22 235 C21 215 42 188 64 161 C24 142 -14 103 -16 67 C-17 40 9 -5 59 -5 C115 -5 158 29 160 80 C160 101 137 133 112 163 C147 184 184 221 185 248 L185 248 Z M123 72 C113 48 96 28 63 28 C40 28 26 48 20 69 C29 100 49 124 79 144 C102 117 123 90 123 72 L123 72 Z M59 242 C67 259 83 281 105 281 C130 281 142 267 146 244 C140 223 123 200 97 180 C77 205 59 227 59 242 L59 242 Z " />
<glyph glyph-name="nineinferior" unicode="&#x2089;" horiz-adv-x="203" d="M-15 2 C1 -4 16 -7 31 -7 C109 -7 167 106 172 201 C175 269 146 313 109 313 C62 313 8 259 5 199 C3 157 20 127 44 113 C64 113 97 127 123 146 C116 114 104 86 91 65 C76 42 58 29 36 29 C22 29 10 29 -7 36 L-15 2 Z M61 146 C46 162 44 174 45 202 C48 247 76 274 102 281 C123 274 135 253 132 201 L130 180 C107 161 77 147 61 146 L61 146 Z " />
<glyph glyph-name="plus.inferior" unicode="&#x208a;" horiz-adv-x="233" d="M-7 133 L76 133 L60 40 L97 40 L113 133 L197 133 L204 173 L120 173 L137 266 L100 266 L83 173 L1 173 L-7 133 Z " />
<glyph glyph-name="minus.inferior" unicode="&#x208b;" horiz-adv-x="257" d="M8 136 L208 136 L214 175 L15 175 L8 136 Z " />
<glyph glyph-name="equal.inferior" unicode="&#x208c;" horiz-adv-x="245" d="M-4 71 L184 71 L191 112 L4 112 L-4 71 Z M19 201 L207 201 L215 241 L26 241 L19 201 Z " />
<glyph glyph-name="parenleft.inferior" unicode="&#x208d;" horiz-adv-x="128" d="M70 -94 C59 -77 31 -22 31 60 C31 262 137 415 162 441 L121 441 C99 420 -11 270 -11 60 C-11 -29 19 -76 30 -94 L70 -94 Z " />
<glyph glyph-name="parenright.inferior" unicode="&#x208e;" horiz-adv-x="128" d="M30 441 C40 424 68 369 68 287 C68 84 -38 -69 -63 -94 L-22 -94 C0 -74 109 80 109 289 C109 377 81 423 70 441 L30 441 Z " />
<glyph glyph-name="a.inferior" unicode="&#x2090;" horiz-adv-x="241" d="M160 0 L217 314 L177 314 L173 295 C151 308 129 315 115 315 C88 315 69 300 55 280 C25 240 2 140 -3 63 C-4 40 -3 18 -1 0 L46 0 L138 102 L120 0 L160 0 Z M38 49 C38 61 39 78 40 95 C44 167 67 243 98 277 C118 279 140 272 167 258 L148 158 L45 48 L38 49 Z " />
<glyph glyph-name="e.inferior" unicode="&#x2091;" horiz-adv-x="215" d="M163 75 L148 103 C116 73 78 46 52 36 L44 39 C41 54 40 70 40 89 C40 98 40 108 41 120 L41 124 C91 150 162 195 191 224 L195 289 C173 307 143 315 121 315 C102 315 82 304 73 297 C55 280 43 264 32 241 C14 204 2 150 -1 100 C-2 89 -2 78 -2 68 C-2 43 0 20 6 0 L46 -5 C95 15 141 52 163 75 L163 75 Z M97 279 C119 283 141 276 155 265 L153 234 C128 208 79 180 46 161 C56 216 76 259 97 279 L97 279 Z " />
<glyph glyph-name="o.inferior" unicode="&#x2092;" horiz-adv-x="231" d="M80 28 C68 29 56 33 49 39 C40 61 38 84 40 118 C43 192 73 263 110 282 C125 280 137 277 145 272 C153 255 159 230 157 196 C152 124 120 54 80 28 L80 28 Z M63 -5 C102 -5 137 24 160 61 C182 99 196 147 199 191 C203 283 174 315 131 315 C88 315 56 287 34 248 C13 209 0 162 -3 110 C-7 34 19 -5 63 -5 L63 -5 Z " />
<glyph glyph-name="x.inferior" unicode="&#x2093;" horiz-adv-x="216" d="M176 309 L96 182 L65 309 L25 309 L64 150 L-36 0 L8 0 L80 118 L108 0 L151 0 L112 149 L221 309 L176 309 Z " />
<glyph glyph-name="h.inferior" unicode="&#x2095;" horiz-adv-x="251" d="M30 0 L66 200 C104 243 143 269 161 273 L173 268 C176 253 174 232 163 165 L134 0 L173 0 L204 173 C211 211 215 241 215 263 C215 300 204 315 183 315 C152 315 113 286 74 243 L114 464 L74 464 L-11 0 L30 0 Z " />
<glyph glyph-name="k.inferior" unicode="&#x2096;" horiz-adv-x="232" d="M30 0 L66 198 C95 233 135 265 158 277 L169 273 C163 227 147 187 106 140 L103 127 L126 0 L170 0 L144 134 C183 179 205 219 211 281 C212 288 213 297 213 305 L158 315 C139 304 104 279 75 247 L114 464 L74 464 L-11 0 L30 0 Z " />
<glyph glyph-name="l.inferior" unicode="&#x2097;" horiz-adv-x="118" d="M34 0 L118 464 L77 464 L-7 0 L34 0 Z " />
<glyph glyph-name="m.inferior" unicode="&#x2098;" horiz-adv-x="374" d="M257 0 L296 0 L328 173 C334 206 337 233 337 254 C337 294 326 315 304 315 C273 315 240 289 205 248 C206 292 195 315 172 315 C141 315 109 290 75 250 L86 309 L45 309 L-11 0 L30 0 L67 205 C102 247 134 270 152 274 L162 270 C165 254 166 232 154 165 L125 0 L164 0 L196 173 C198 185 200 196 201 207 C235 248 265 270 283 274 L294 270 C296 254 298 232 285 165 L257 0 Z " />
<glyph glyph-name="n.inferior" unicode="&#x2099;" horiz-adv-x="252" d="M30 0 L66 201 C104 244 142 269 161 273 L172 268 C176 253 174 232 163 165 L134 0 L173 0 L204 173 C211 211 215 241 215 263 C215 300 204 315 183 315 C151 315 112 286 74 244 L86 309 L46 309 L-11 0 L30 0 Z " />
<glyph glyph-name="p.inferior" unicode="&#x209a;" horiz-adv-x="253" d="M18 -142 L44 2 C58 -2 74 -5 89 -5 C164 -5 215 89 220 190 C224 252 210 315 171 315 C156 315 126 302 95 285 L100 309 L60 309 L50 257 C32 245 15 232 4 221 L11 195 C19 202 31 212 43 220 L-23 -142 L18 -142 Z M152 276 L160 275 C173 260 180 231 178 185 C172 94 134 30 94 30 C79 30 66 32 51 38 L89 248 C112 261 134 271 152 276 L152 276 Z " />
<glyph glyph-name="s.inferior" unicode="&#x209b;" horiz-adv-x="183" d="M165 304 C148 312 131 315 111 315 C51 315 18 270 17 230 C15 193 36 168 61 144 C78 126 93 105 95 74 C95 66 92 55 90 48 C80 35 60 32 40 32 C24 32 2 37 -15 46 L-23 10 C-5 1 18 -5 42 -5 C71 -5 97 6 113 22 C126 35 134 59 135 81 C137 115 114 143 89 168 C69 190 57 211 58 237 C59 254 62 260 66 269 C78 276 96 280 114 279 C129 278 143 274 158 267 L165 304 Z " />
<glyph glyph-name="t.inferior" unicode="&#x209c;" horiz-adv-x="182" d="M17 277 L50 277 L1 4 L42 -5 C79 12 126 52 141 72 L129 101 C110 79 82 55 59 44 L50 48 L91 277 L157 277 L163 309 L96 309 L111 389 L71 389 L56 309 L22 309 L17 277 Z " />
<glyph glyph-name="colonsign" unicode="&#x20a1;" horiz-adv-x="439" d="M106 -89 L149 -89 L188 -5 L200 -5 C254 -5 299 11 319 21 L327 72 C296 56 256 46 218 46 L212 46 L486 633 L442 633 L412 569 C401 574 389 578 374 581 L398 633 L355 633 L334 587 C326 588 319 588 311 588 C135 588 38 366 38 179 C38 119 51 72 79 41 L19 -89 L62 -89 L110 15 C121 9 134 4 148 1 L106 -89 Z M97 184 C97 355 180 537 310 537 L110 106 C101 126 97 152 97 184 L97 184 Z M136 70 L352 533 C365 531 378 527 390 521 L171 52 C158 56 146 61 136 70 L136 70 Z " />
<glyph glyph-name="cruzeiro" unicode="&#x20a2;" horiz-adv-x="417" d="M392 324 C382 336 368 347 352 347 C326 347 283 301 245 247 L262 339 L213 339 L163 54 C118 71 95 111 95 185 C95 354 176 537 308 537 C338 537 369 533 393 518 L402 571 C380 582 349 588 308 588 C131 588 37 365 37 180 C37 63 86 -5 198 -5 C253 -5 297 11 318 21 L325 72 C294 56 255 46 217 46 L209 46 L235 189 C274 242 312 279 336 288 C339 288 368 269 369 267 L392 324 Z " />
<glyph glyph-name="franc" unicode="&#x20a3;" horiz-adv-x="474" d="M17 0 L73 0 L121 271 L268 271 L220 0 L271 0 L300 165 C339 219 378 260 403 270 C405 270 435 250 436 248 L460 308 C450 320 435 331 420 331 C394 331 350 284 311 230 L328 323 L130 323 L167 531 L374 531 L382 583 L119 583 L17 0 Z " />
<glyph glyph-name="lira" unicode="&#x20a4;" horiz-adv-x="351" d="M258 588 C193 588 118 543 100 417 C96 397 94 375 92 353 L61 353 L52 306 L89 306 C87 279 87 253 85 229 L39 229 L31 183 L81 183 C81 176 80 170 79 164 C73 124 59 89 37 50 L7 50 L-2 0 L274 0 L282 50 L92 50 C111 88 125 127 132 168 L134 183 L255 183 L263 229 L140 229 L145 306 L276 306 L285 353 L148 353 C149 377 151 399 154 418 C165 495 204 536 256 536 C293 536 317 527 343 506 L353 565 C329 579 299 588 258 588 L258 588 Z " />
<glyph glyph-name="mill" unicode="&#x20a5;" horiz-adv-x="501" d="M237 0 L274 218 L325 343 C358 377 387 396 406 401 L420 395 C421 387 422 377 422 364 C422 340 419 304 408 240 L367 0 L418 0 L461 252 C470 304 475 345 475 377 C475 429 462 454 432 454 C408 454 384 444 358 424 L419 574 L377 574 L294 369 C295 426 281 454 250 454 C209 454 163 422 115 365 L130 450 L79 450 L2 0 L52 0 L103 298 C153 360 199 394 224 401 L238 395 C240 387 241 378 241 365 C241 341 237 304 226 240 L215 176 L95 -120 L137 -120 L186 1 L186 0 L237 0 Z " />
<glyph glyph-name="naira" unicode="&#x20a6;" horiz-adv-x="500" d="M35 0 L92 0 L131 221 L247 221 L318 0 L370 0 L409 221 L459 221 L465 264 L416 264 L426 321 L477 321 L484 364 L434 364 L473 583 L417 583 L378 364 L261 364 L191 583 L138 583 L99 364 L56 364 L49 321 L91 321 L81 264 L37 264 L31 221 L74 221 L35 0 Z M275 321 L370 321 L360 264 L294 264 L275 321 Z M148 321 L214 321 L233 264 L138 264 L148 321 Z M335 136 L308 221 L353 221 L338 136 L335 136 Z M171 450 L173 450 L200 364 L156 364 L171 450 Z " />
<glyph glyph-name="pesetas" unicode="&#x20a7;" horiz-adv-x="796" d="M16 0 L73 0 L110 213 L157 213 C289 213 368 328 368 463 C368 541 315 583 242 583 L118 583 L16 0 Z M374 406 L422 406 L353 8 L405 -6 C457 19 523 76 546 107 L523 138 C498 106 460 74 427 58 L414 63 L474 406 L567 406 L574 450 L481 450 L502 569 L451 569 L430 450 L381 450 L374 406 Z M221 532 C283 532 310 505 310 450 C310 336 241 264 162 264 L119 264 L165 532 L221 532 Z M779 439 C754 450 730 454 703 454 C624 454 573 388 573 329 C573 275 602 246 636 209 C664 179 686 146 690 105 C691 94 689 83 686 72 C670 54 640 44 610 44 C587 44 553 53 528 66 L517 15 C542 2 568 -5 603 -5 C645 -5 679 11 701 35 C724 59 736 91 736 124 C736 173 703 209 671 244 C643 276 622 306 622 343 C622 361 627 374 633 390 C650 400 674 406 699 405 C722 405 746 399 768 387 L779 439 Z " />
<glyph glyph-name="rupee" unicode="&#x20a8;" horiz-adv-x="588" d="M16 0 L74 0 L112 218 L156 218 C170 218 183 219 196 221 L229 103 C251 44 292 -8 393 -8 C435 -8 470 6 493 28 C515 49 528 83 529 118 C531 167 498 211 464 246 C437 276 418 308 418 346 C420 370 425 382 432 394 C447 405 472 412 497 411 C519 411 541 406 561 395 L571 444 C546 456 521 460 496 460 C412 460 367 395 365 336 C363 282 394 246 428 211 C451 185 474 154 477 111 C477 97 474 80 470 69 C456 49 425 38 394 38 C341 38 304 65 283 120 L251 240 C325 280 363 365 363 448 C363 523 321 583 244 583 L117 583 L16 0 Z M220 532 C283 532 304 497 304 443 C304 348 247 270 162 270 L121 270 L166 532 L220 532 Z " />
<glyph glyph-name="won" unicode="&#x20a9;" horiz-adv-x="652" d="M676 583 L616 583 L536 380 L417 380 L414 583 L348 583 L268 380 L154 380 L155 583 L92 583 L96 380 L59 380 L52 336 L97 336 L98 261 L38 261 L31 217 L99 217 L104 0 L170 0 L255 217 L368 217 L372 0 L437 0 L526 217 L605 217 L611 261 L544 261 L574 336 L625 336 L633 380 L592 380 L676 583 Z M418 336 L519 336 L490 261 L419 261 L418 336 Z M154 336 L251 336 L222 261 L154 261 L154 336 Z M301 336 L366 336 L367 261 L272 261 L301 336 Z M154 92 L154 217 L205 217 L157 92 L154 92 Z M422 96 L420 217 L472 217 L425 96 L422 96 Z M359 484 L363 484 L365 380 L318 380 L359 484 Z " />
<glyph glyph-name="sheqel" unicode="&#x20aa;" horiz-adv-x="526" d="M16 0 L63 0 L153 521 L255 521 C312 521 331 496 331 439 C331 399 321 343 308 268 L305 251 L351 251 L356 278 C370 357 380 419 380 465 C380 549 348 583 249 583 L116 583 L16 0 Z M144 0 L246 0 C414 0 447 123 477 292 L527 583 L480 583 L430 288 C404 142 383 63 269 63 L202 63 L251 340 L203 340 L144 0 Z " />
<glyph glyph-name="dong" unicode="&#x20ab;" horiz-adv-x="358" d="M203 600 L296 600 L277 505 C248 520 221 528 201 528 C162 528 138 506 117 483 C76 431 45 309 39 213 C38 184 39 156 42 134 L101 134 L227 262 L201 134 L253 134 L348 600 L386 600 L393 641 L356 641 L373 721 L321 721 L305 641 L210 641 L203 600 Z M91 189 C91 204 91 220 93 240 C98 331 132 443 176 487 C205 488 231 479 268 462 L241 327 L101 187 L91 189 Z M-2 0 L264 0 L272 46 L7 46 L-2 0 Z " />
<glyph glyph-name="Euro" unicode="&#x20ac;" horiz-adv-x="435" d="M46 335 L92 335 C84 305 78 274 74 244 L30 244 L23 202 L71 202 L71 180 C71 62 121 -5 234 -5 C288 -5 334 12 355 22 L362 73 C331 57 291 46 253 46 C173 46 130 86 130 186 L130 202 L303 202 L310 244 L133 244 C136 275 142 306 151 335 L327 335 L334 377 L165 377 C201 469 263 537 343 537 C373 537 404 533 428 518 L437 571 C415 581 384 588 344 588 C230 588 148 495 105 377 L54 377 L46 335 Z " />
<glyph glyph-name="uni20AD" unicode="&#x20ad;" horiz-adv-x="405" d="M28 0 L84 0 L133 276 L161 276 L258 0 L321 0 L222 276 L353 276 L361 319 L219 319 L426 583 L360 583 L159 319 L140 319 L187 583 L130 583 L84 319 L46 319 L37 276 L76 276 L28 0 Z " />
<glyph glyph-name="uni20AE" unicode="&#x20ae;" horiz-adv-x="391" d="M69 532 L213 532 L177 328 L90 282 L82 233 L169 279 L156 206 L69 160 L60 111 L147 157 L120 0 L178 0 L211 191 L302 239 L310 287 L220 239 L233 312 L324 361 L332 410 L241 362 L271 532 L414 532 L422 583 L77 583 L69 532 Z " />
<glyph glyph-name="uni20B1" unicode="&#x20b1;" horiz-adv-x="436" d="M69 440 L113 440 L100 369 L57 369 L49 326 L93 326 L36 0 L93 0 L130 213 L177 213 C260 213 322 258 356 326 L412 326 L420 369 L374 369 C381 391 385 415 387 440 L432 440 L440 482 L387 482 C379 548 328 583 261 583 L138 583 L120 482 L76 482 L69 440 Z M316 369 L157 369 L169 440 L330 440 C329 414 324 390 316 369 L316 369 Z M182 264 L139 264 L149 326 L294 326 C267 286 226 264 182 264 L182 264 Z M241 532 C288 532 316 516 326 482 L176 482 L185 532 L241 532 Z " />
<glyph glyph-name="uni20B4" unicode="&#x20b4;" horiz-adv-x="405" d="M391 381 L333 381 C354 409 367 441 367 483 C367 547 321 588 251 588 C211 588 168 578 140 564 L147 514 C176 529 204 537 239 537 C288 537 314 511 314 474 C314 435 298 406 274 381 L56 381 L49 336 L221 336 C209 326 195 317 182 308 C162 294 143 279 125 264 L36 264 L30 220 L83 220 C59 188 43 149 43 99 C43 26 100 -5 174 -5 C211 -5 251 4 289 20 L280 67 C246 50 209 45 172 45 C128 45 96 69 96 111 C96 154 117 189 146 220 L364 220 L372 264 L196 264 L215 279 C240 297 267 315 291 336 L385 336 L391 381 Z " />
<glyph glyph-name="uni20B9" unicode="&#x20b9;" horiz-adv-x="410" d="M326 0 L221 244 C282 270 322 323 341 384 L393 384 L406 427 L350 427 C351 437 352 448 352 459 C352 494 338 520 315 537 L409 537 L425 583 L101 583 L92 537 L206 537 C266 537 295 506 295 452 C295 443 294 435 293 427 L74 427 L68 384 L283 384 C261 323 209 274 135 274 L49 274 L40 227 L133 227 C145 227 157 228 168 229 L264 0 L326 0 Z " />
<glyph glyph-name="uni2113" unicode="&#x2113;" horiz-adv-x="283" d="M106 -7 C148 -7 174 8 206 38 L196 74 C176 52 151 39 127 39 C107 39 96 52 96 88 C96 108 98 136 107 181 L115 228 L180 293 C264 377 304 429 304 503 C304 562 275 590 231 590 C158 590 112 514 94 411 L63 231 L5 185 L15 155 L55 185 C48 160 42 94 42 81 C42 21 68 -7 106 -7 L106 -7 Z M124 279 L150 424 C164 508 189 546 221 546 C244 546 253 523 253 492 C252 430 228 397 172 333 L124 279 Z " />
<glyph glyph-name="uni2116" unicode="&#x2116;" horiz-adv-x="674" d="M432 181 L620 181 L628 224 L440 224 L432 181 Z M541 268 C620 268 674 381 674 498 C674 556 646 587 599 587 C518 587 464 468 464 363 C464 303 496 268 541 268 L541 268 Z M549 309 C520 309 507 328 507 360 C507 432 536 545 590 545 C621 545 632 524 632 495 C632 415 603 309 549 309 L549 309 Z M16 0 L72 0 L151 450 L153 450 L299 0 L351 0 L454 583 L397 583 L319 137 L317 137 L171 583 L118 583 L16 0 Z " />
<glyph glyph-name="uni2117" unicode="&#x2117;" horiz-adv-x="510" d="M260 -9 C381 -9 474 118 474 289 C474 461 382 590 260 590 C139 590 47 461 47 289 C47 118 138 -9 260 -9 L260 -9 Z M260 16 C157 16 71 129 71 289 C71 450 156 566 260 566 C363 566 449 451 449 289 C449 130 365 16 260 16 L260 16 Z M185 94 L226 94 L226 225 L257 225 C338 225 376 276 376 350 C376 431 337 467 275 467 L185 467 L185 94 Z M263 430 C309 429 334 405 334 350 C334 279 296 263 254 263 L226 263 L226 430 L263 430 Z " />
<glyph glyph-name="servicemark" unicode="&#x2120;" horiz-adv-x="472" d="M199 299 L233 299 L285 512 L286 512 L296 299 L333 299 L420 512 L421 512 L398 299 L434 299 L465 583 L417 583 L330 366 L328 366 L318 583 L268 583 L199 299 Z M59 308 C76 298 92 294 112 294 C162 294 196 336 196 385 C196 446 126 467 126 505 C126 532 142 555 168 555 C184 555 202 550 215 539 L222 573 C210 583 192 587 171 587 C127 587 92 547 92 501 C92 441 162 425 162 383 C162 354 145 327 117 327 C98 327 79 334 65 344 L59 308 Z " />
<glyph glyph-name="trademark" unicode="&#x2122;" horiz-adv-x="497" d="M223 299 L258 299 L310 512 L311 512 L320 299 L358 299 L444 512 L445 512 L423 299 L458 299 L489 583 L440 583 L355 366 L353 366 L342 583 L293 583 L223 299 Z M99 550 L162 550 L118 299 L154 299 L197 550 L261 550 L266 583 L104 583 L99 550 Z " />
<glyph glyph-name="Omega" unicode="&#x2126;" horiz-adv-x="478" d="M295 592 C134 592 42 353 42 210 C42 143 66 85 98 55 L98 53 L7 53 L-1 0 L149 0 L157 49 C121 89 99 142 101 212 C103 357 183 540 287 540 C357 540 392 490 392 404 C392 271 332 130 247 49 L239 0 L389 0 L397 53 L306 53 L307 55 C377 112 454 253 454 408 C454 508 403 592 295 592 L295 592 Z " />
<glyph glyph-name="estimated" unicode="&#x212e;" horiz-adv-x="425" d="M213 -7 C277 -7 329 17 367 88 L343 109 C310 50 271 28 216 28 C143 28 105 93 104 187 L104 215 L375 215 L375 270 C374 378 317 465 214 465 C100 465 36 357 36 217 C36 69 107 -7 213 -7 L213 -7 Z M104 247 L104 264 C105 368 145 436 214 436 C282 436 306 357 306 285 L306 247 L104 247 Z " />
<glyph glyph-name="onethird" unicode="&#x2153;" horiz-adv-x="469" d="M117 266 L174 578 L146 578 L75 551 L69 516 L128 535 L78 266 L117 266 Z M245 8 C256 2 275 -5 301 -5 C358 -5 409 36 411 88 C412 121 377 152 353 163 L353 166 C381 179 428 224 429 254 C431 292 399 315 361 315 C336 315 312 307 294 295 L293 261 C311 272 329 278 347 278 C374 278 385 269 391 245 C379 219 346 183 314 171 L311 152 C340 139 364 110 372 86 C365 44 332 30 302 30 C286 30 270 33 252 42 L245 8 Z M62 0 L402 566 L402 570 L365 570 L26 4 L26 0 L62 0 Z " />
<glyph glyph-name="twothirds" unicode="&#x2154;" horiz-adv-x="487" d="M188 266 L193 300 L86 300 C149 360 222 465 222 522 C222 556 193 581 154 581 C131 581 107 574 83 560 L80 525 C100 538 121 544 137 544 C163 544 176 528 182 513 C171 452 113 365 43 298 L39 266 L188 266 Z M263 8 C274 2 293 -5 319 -5 C376 -5 427 36 429 88 C430 121 395 152 371 163 L371 166 C399 179 446 224 447 254 C449 292 417 315 379 315 C354 315 330 307 312 295 L311 261 C329 272 347 278 365 278 C392 278 403 269 409 245 C397 219 364 183 332 171 L329 152 C358 139 382 110 390 86 C383 44 350 30 320 30 C304 30 288 33 270 42 L263 8 Z M102 0 L442 566 L442 570 L405 570 L66 4 L66 0 L102 0 Z " />
<glyph glyph-name="uni215B" unicode="&#x215b;" horiz-adv-x="471" d="M435 248 C436 279 405 315 362 315 C313 315 273 270 272 235 C271 215 292 188 314 161 C274 142 236 103 234 67 C233 40 259 -5 309 -5 C365 -5 408 29 410 80 C410 101 387 133 362 163 C397 184 434 221 435 248 L435 248 Z M67 0 L407 566 L407 570 L370 570 L31 4 L31 0 L67 0 Z M117 264 L174 576 L146 576 L75 549 L69 514 L128 533 L78 264 L117 264 Z M373 72 C363 48 346 28 313 28 C290 28 276 48 270 69 C279 100 299 124 329 144 C352 117 373 90 373 72 L373 72 Z M309 242 C317 259 333 281 355 281 C380 281 392 267 396 244 C390 223 373 200 347 180 C327 205 309 227 309 242 L309 242 Z " />
<glyph glyph-name="arrowleft" unicode="&#x2190;" horiz-adv-x="537" d="M234 92 L124 237 L537 237 L537 292 L124 292 L234 437 L166 437 L36 264 L167 92 L234 92 Z " />
<glyph glyph-name="arrowup" unicode="&#x2191;" horiz-adv-x="439" d="M395 442 L223 573 L50 443 L50 375 L195 484 L195 72 L250 72 L250 485 L395 375 L395 442 Z " />
<glyph glyph-name="arrowright" unicode="&#x2192;" horiz-adv-x="535" d="M370 92 L501 264 L371 437 L302 437 L412 292 L0 292 L0 237 L413 237 L302 92 L370 92 Z " />
<glyph glyph-name="arrowdown" unicode="&#x2193;" horiz-adv-x="439" d="M50 202 L223 72 L395 203 L395 271 L250 160 L250 573 L195 573 L195 161 L50 271 L50 202 Z " />
<glyph glyph-name="uni2196" unicode="&#x2196;" horiz-adv-x="443" d="M260 529 L46 500 L16 285 L64 237 L89 418 L380 126 L420 165 L127 457 L308 481 L260 529 Z " />
<glyph glyph-name="uni2197" unicode="&#x2197;" horiz-adv-x="450" d="M426 285 L396 500 L182 529 L134 481 L314 457 L22 166 L61 126 L353 418 L378 237 L426 285 Z " />
<glyph glyph-name="uni2198" unicode="&#x2198;" horiz-adv-x="443" d="M178 119 L392 149 L421 363 L374 411 L349 231 L58 523 L18 484 L310 192 L129 167 L178 119 Z " />
<glyph glyph-name="uni2199" unicode="&#x2199;" horiz-adv-x="443" d="M24 364 L54 150 L268 120 L316 168 L136 193 L427 485 L388 524 L97 232 L72 413 L24 364 Z " />
<glyph glyph-name="partialdiff" unicode="&#x2202;" horiz-adv-x="325" d="M107 -6 C160 -6 209 37 242 104 C274 171 296 267 300 360 C303 491 275 595 172 682 L141 646 C202 590 237 527 246 441 C233 451 217 456 201 456 C137 456 85 406 55 333 C35 284 22 225 18 161 C12 49 46 -6 107 -6 L107 -6 Z M131 40 C115 41 95 46 86 57 C76 82 72 108 72 141 C72 151 72 161 73 173 C78 281 121 384 174 412 C175 412 194 410 194 410 C208 408 233 393 249 377 L249 376 C241 205 199 96 131 40 L131 40 Z " />
<glyph glyph-name="Delta" unicode="&#x2206;" horiz-adv-x="397" d="M327 0 L335 43 L298 583 L236 583 L-8 42 L-15 0 L327 0 Z M250 517 L253 517 L273 50 L52 50 L250 517 Z " />
<glyph glyph-name="product" unicode="&#x220f;" horiz-adv-x="505" d="M68 -207 L198 531 L401 531 L271 -207 L329 -207 L459 531 L528 531 L537 583 L83 583 L74 531 L141 531 L11 -208 L68 -207 Z " />
<glyph glyph-name="summation" unicode="&#x2211;" horiz-adv-x="347" d="M-53 -207 L240 -207 L249 -153 L20 -153 L218 217 L145 531 L355 531 L364 583 L88 583 L81 535 L155 215 L-45 -160 L-53 -207 Z " />
<glyph glyph-name="minus" unicode="&#x2212;" horiz-adv-x="376" d="M52 271 L328 271 L337 320 L61 320 L52 271 Z " />
<glyph glyph-name="radical" unicode="&#x221a;" horiz-adv-x="393" d="M54 450 L88 0 L147 0 L451 653 L396 653 L133 69 L130 69 L111 450 L54 450 Z " />
<glyph glyph-name="infinity" unicode="&#x221e;" horiz-adv-x="602" d="M200 506 C107 506 39 339 39 217 C39 143 67 82 127 82 C193 82 256 175 301 249 C323 176 350 82 417 82 C505 82 575 229 575 367 C575 441 548 506 490 506 C425 506 366 416 318 343 C296 417 268 506 200 506 L200 506 Z M137 131 C107 131 85 162 85 215 C85 307 136 457 193 457 C243 457 269 360 286 295 C247 229 188 131 137 131 L137 131 Z M423 131 C371 131 350 231 333 295 C373 359 429 457 480 457 C510 457 530 426 530 374 C530 277 477 131 423 131 L423 131 Z " />
<glyph glyph-name="integral" unicode="&#x222b;" horiz-adv-x="299" d="M70 -37 C54 -127 31 -166 -13 -166 C-31 -166 -40 -165 -57 -160 L-65 -207 C-54 -211 -37 -213 -20 -213 C55 -213 100 -156 120 -43 L213 478 C229 571 256 610 300 610 C317 610 327 609 343 604 L353 652 C341 655 328 658 311 658 C237 658 183 601 163 488 L70 -37 Z " />
<glyph glyph-name="approxequal" unicode="&#x2248;" horiz-adv-x="380" d="M267 342 C300 342 334 366 354 394 L335 427 C317 406 299 393 279 393 C232 393 213 431 160 431 C123 431 89 406 71 381 L87 348 C101 363 123 381 151 381 C193 381 220 342 267 342 L267 342 Z M240 169 C273 169 307 193 327 221 L308 254 C290 233 272 220 252 220 C205 220 186 258 133 258 C96 258 62 233 44 208 L60 175 C74 190 96 208 124 208 C166 208 193 169 240 169 L240 169 Z " />
<glyph glyph-name="notequal" unicode="&#x2260;" horiz-adv-x="356" d="M65 363 L209 363 L131 231 L42 231 L34 184 L103 184 L7 22 L48 22 L144 184 L300 184 L309 231 L172 231 L251 363 L331 363 L340 410 L279 410 L371 565 L329 565 L237 410 L74 410 L65 363 Z " />
<glyph glyph-name="lessequal" unicode="&#x2264;" horiz-adv-x="378" d="M6 36 L296 36 L304 86 L15 86 L6 36 Z M298 129 L309 187 L117 332 L361 478 L371 536 L62 348 L57 315 L298 129 Z " />
<glyph glyph-name="greaterequal" unicode="&#x2265;" horiz-adv-x="375" d="M303 86 L14 86 L5 36 L294 36 L303 86 Z M343 315 L349 348 L108 536 L96 476 L289 333 L45 187 L36 129 L343 315 Z " />
<glyph glyph-name="uni2460" unicode="&#x2460;" horiz-adv-x="703" d="M356 -3 C519 -3 651 128 651 291 C651 454 519 586 356 586 C193 586 61 454 61 291 C61 128 193 -3 356 -3 L356 -3 Z M356 28 C212 28 96 147 96 291 C96 435 212 555 356 555 C500 555 617 435 617 291 C617 147 500 28 356 28 L356 28 Z M379 138 L379 449 L352 449 L260 420 L260 387 L332 401 L332 138 L379 138 Z " />
<glyph glyph-name="uni2461" unicode="&#x2461;" horiz-adv-x="703" d="M356 -3 C519 -3 651 128 651 291 C651 454 519 586 356 586 C193 586 61 454 61 291 C61 128 193 -3 356 -3 L356 -3 Z M356 28 C212 28 96 147 96 291 C96 435 212 555 356 555 C500 555 617 435 617 291 C617 147 500 28 356 28 L356 28 Z M244 138 L461 138 L461 176 L309 176 C310 177 311 177 311 178 C387 237 450 300 450 362 C450 423 403 449 347 449 C315 449 279 440 254 421 L254 382 C289 409 316 413 342 413 C376 413 402 395 402 360 C402 298 325 234 244 168 L244 138 Z " />
<glyph glyph-name="uni2462" unicode="&#x2462;" horiz-adv-x="703" d="M356 -3 C519 -3 651 128 651 291 C651 454 519 586 356 586 C193 586 61 454 61 291 C61 128 193 -3 356 -3 L356 -3 Z M356 28 C212 28 96 147 96 291 C96 435 212 555 356 555 C500 555 617 435 617 291 C617 147 500 28 356 28 L356 28 Z M340 134 C403 134 459 162 459 229 C459 273 423 298 384 302 L384 304 C401 308 444 332 444 379 C444 423 407 449 352 449 C323 449 292 440 268 421 L268 382 C297 406 323 413 347 413 C377 413 398 398 398 371 C398 338 357 312 319 308 L319 278 C378 276 413 261 413 222 C413 191 388 170 352 170 C323 170 294 173 265 188 L265 148 C281 140 302 134 340 134 L340 134 Z " />
<glyph glyph-name="uni2463" unicode="&#x2463;" horiz-adv-x="703" d="M356 -3 C519 -3 651 128 651 291 C651 454 519 586 356 586 C193 586 61 454 61 291 C61 128 193 -3 356 -3 L356 -3 Z M356 28 C212 28 96 147 96 291 C96 435 212 555 356 555 C500 555 617 435 617 291 C617 147 500 28 356 28 L356 28 Z M351 138 L398 138 L398 221 L442 221 L442 255 L398 255 L398 449 L354 449 L213 256 L213 221 L351 221 L351 138 Z M258 255 L351 382 L351 255 L258 255 Z " />
<glyph glyph-name="uni2464" unicode="&#x2464;" horiz-adv-x="703" d="M356 -3 C519 -3 651 128 651 291 C651 454 519 586 356 586 C193 586 61 454 61 291 C61 128 193 -3 356 -3 L356 -3 Z M356 28 C212 28 96 147 96 291 C96 435 212 555 356 555 C500 555 617 435 617 291 C617 147 500 28 356 28 L356 28 Z M336 134 C388 134 450 165 450 234 C450 300 403 328 326 328 C323 328 314 327 311 327 L319 409 L443 409 L443 444 L282 444 L269 290 C283 292 297 293 310 293 C374 293 404 275 404 231 C404 194 376 170 339 170 C312 170 285 176 257 189 L257 148 C275 141 300 134 336 134 L336 134 Z " />
<glyph glyph-name="uni2465" unicode="&#x2465;" horiz-adv-x="703" d="M356 -3 C519 -3 651 128 651 291 C651 454 519 586 356 586 C193 586 61 454 61 291 C61 128 193 -3 356 -3 L356 -3 Z M356 28 C212 28 96 147 96 291 C96 435 212 555 356 555 C500 555 617 435 617 291 C617 147 500 28 356 28 L356 28 Z M371 413 C388 413 406 411 432 399 L432 439 C411 446 390 449 371 449 C283 449 231 371 231 268 C231 192 265 134 339 134 C411 134 452 185 452 244 C452 309 409 334 356 334 C324 334 299 322 283 312 C290 379 317 413 371 413 L371 413 Z M345 299 C386 299 403 278 403 238 C403 196 383 170 342 170 C296 170 280 208 280 268 L280 279 C295 288 317 299 345 299 L345 299 Z " />
<glyph glyph-name="uni2466" unicode="&#x2466;" horiz-adv-x="703" d="M356 -3 C519 -3 651 128 651 291 C651 454 519 586 356 586 C193 586 61 454 61 291 C61 128 193 -3 356 -3 L356 -3 Z M356 28 C212 28 96 147 96 291 C96 435 212 555 356 555 C500 555 617 435 617 291 C617 147 500 28 356 28 L356 28 Z M318 138 L454 419 L454 444 L256 444 L256 409 L406 409 L273 140 L274 138 L318 138 Z " />
<glyph glyph-name="uni2467" unicode="&#x2467;" horiz-adv-x="703" d="M356 -3 C519 -3 651 128 651 291 C651 454 519 586 356 586 C193 586 61 454 61 291 C61 128 193 -3 356 -3 L356 -3 Z M356 28 C212 28 96 147 96 291 C96 435 212 555 356 555 C500 555 617 435 617 291 C617 147 500 28 356 28 L356 28 Z M459 222 C459 260 434 279 404 293 C431 311 452 340 452 373 C452 422 409 449 350 449 C294 449 253 412 253 367 C253 333 271 313 295 299 C265 281 243 250 243 218 C243 167 279 134 346 134 C409 134 459 172 459 222 L459 222 Z M406 367 C406 346 395 324 372 307 C334 321 297 334 297 369 C297 400 318 413 348 413 C390 413 406 392 406 367 L406 367 Z M288 221 C288 250 300 267 320 285 C363 265 412 254 412 218 C412 180 381 170 351 170 C318 170 288 185 288 221 L288 221 Z " />
<glyph glyph-name="uni2468" unicode="&#x2468;" horiz-adv-x="703" d="M356 -3 C519 -3 651 128 651 291 C651 454 519 586 356 586 C193 586 61 454 61 291 C61 128 193 -3 356 -3 L356 -3 Z M356 28 C212 28 96 147 96 291 C96 435 212 555 356 555 C500 555 617 435 617 291 C617 147 500 28 356 28 L356 28 Z M324 171 C307 171 289 172 263 185 L263 145 C284 137 305 134 324 134 C412 134 464 210 464 315 C464 391 430 449 356 449 C284 449 244 399 244 339 C244 275 286 249 339 249 C370 249 395 260 412 271 C405 204 376 171 324 171 L324 171 Z M350 284 C309 284 291 304 291 346 C291 393 312 414 353 414 C399 414 415 375 415 315 L415 304 C400 294 378 284 350 284 L350 284 Z " />
<glyph glyph-name="uni2469" unicode="&#x2469;" horiz-adv-x="703" d="M356 -3 C519 -3 651 128 651 291 C651 454 519 586 356 586 C193 586 61 454 61 291 C61 128 193 -3 356 -3 L356 -3 Z M356 28 C212 28 96 147 96 291 C96 435 212 555 356 555 C500 555 617 435 617 291 C617 147 500 28 356 28 L356 28 Z M277 138 L277 449 L249 449 L158 420 L158 387 L230 401 L230 138 L277 138 Z M434 134 C513 134 554 196 554 294 C554 372 528 449 439 449 C359 449 321 382 321 285 C321 195 352 134 434 134 L434 134 Z M437 170 C386 170 369 220 369 287 C369 350 383 413 435 413 C489 413 505 351 505 292 C505 226 492 170 437 170 L437 170 Z " />
<glyph glyph-name="uni24CA" unicode="&#x24ca;" horiz-adv-x="509" d="M259 -12 C381 -12 473 120 473 289 C473 458 381 592 259 592 C138 592 46 458 46 289 C46 120 137 -12 259 -12 L259 -12 Z M259 12 C156 12 71 132 71 289 C71 448 155 568 259 568 C363 568 448 449 448 289 C448 132 364 12 259 12 L259 12 Z M263 98 C320 98 370 147 370 259 L370 446 L329 446 L329 261 C329 180 305 139 262 139 C219 139 194 172 194 254 L194 446 L154 446 L154 246 C154 139 203 98 263 98 L263 98 Z " />
<glyph glyph-name="uni25B2" unicode="&#x25b2;" horiz-adv-x="595" d="M526 21 L258 449 L-10 21 L526 21 Z " />
<glyph glyph-name="uni25B6" unicode="&#x25b6;" horiz-adv-x="551" d="M94 -33 L522 235 L94 503 L94 -33 Z " />
<glyph glyph-name="uni25B8" unicode="&#x25b8;" horiz-adv-x="392" d="M360 218 L93 486 L93 -50 L360 218 Z " />
<glyph glyph-name="uni25BA" unicode="&#x25ba;" horiz-adv-x="849" d="M813 218 L91 486 L91 -50 L813 218 Z " />
<glyph glyph-name="uni25BC" unicode="&#x25bc;" horiz-adv-x="609" d="M68 448 L336 20 L604 448 L68 448 Z " />
<glyph glyph-name="uni25C0" unicode="&#x25c0;" horiz-adv-x="551" d="M450 -33 L450 503 L22 235 L450 -33 Z " />
<glyph glyph-name="uni25C2" unicode="&#x25c2;" horiz-adv-x="392" d="M287 -50 L287 486 L20 219 L287 -50 Z " />
<glyph glyph-name="uni25C4" unicode="&#x25c4;" horiz-adv-x="848" d="M745 -50 L745 486 L23 218 L745 -50 Z " />
<glyph glyph-name="lozenge" unicode="&#x25ca;" horiz-adv-x="350" d="M107 0 L156 0 L336 286 L257 583 L208 583 L26 286 L107 0 Z M140 46 L77 288 L224 536 L286 285 L140 46 Z " />
<glyph glyph-name="uni2610" unicode="&#x2610;" horiz-adv-x="781" d="M106 0 L689 0 L689 583 L106 583 L106 0 Z M149 43 L149 540 L646 540 L646 43 L149 43 Z " />
<glyph glyph-name="uni2611" unicode="&#x2611;" horiz-adv-x="782" d="M106 -4 L689 -4 L689 579 L106 579 L106 -4 Z M149 39 L149 536 L646 536 L646 39 L149 39 Z M274 78 L293 78 C412 200 529 370 609 490 L601 499 C574 494 539 475 526 456 C471 371 355 198 299 139 C271 192 258 272 257 313 L237 319 C227 316 205 295 198 285 C194 260 234 115 274 78 L274 78 Z " />
<glyph glyph-name="uni261A" unicode="&#x261a;" horiz-adv-x="1008" d="M74 453 C57 391 111 386 111 386 L317 400 L372 365 C372 365 296 272 292 246 C292 246 308 200 345 186 C345 186 355 129 397 126 C397 126 406 88 452 74 L528 101 C528 101 604 88 748 140 L937 126 L937 365 L760 401 C760 401 710 443 647 459 L345 509 L74 453 Z " />
<glyph glyph-name="uni261B" unicode="&#x261b;" horiz-adv-x="943" d="M660 509 L358 459 C295 443 245 401 245 401 L68 365 L68 126 L257 140 C401 88 477 101 477 101 L553 74 C599 88 608 126 608 126 C650 129 660 186 660 186 C697 200 713 246 713 246 C709 272 633 365 633 365 L688 400 L894 386 C894 386 948 391 931 453 L660 509 Z " />
<glyph glyph-name="uni261C" unicode="&#x261c;" horiz-adv-x="1008" d="M74 453 C57 391 111 386 111 386 L317 400 L381 363 C381 363 296 272 292 247 C292 247 305 201 344 187 C344 187 354 131 397 126 C397 126 406 88 452 74 L528 101 C528 101 604 88 748 140 L937 126 L937 365 L760 401 C760 401 710 443 647 459 L345 509 L74 453 Z M708 178 C638 148 523 145 523 145 L453 119 C429 121 422 152 422 152 L477 196 L541 215 L525 249 L462 226 L403 174 C385 177 378 205 378 205 L452 270 L506 291 L491 320 L436 297 L363 226 C348 228 336 249 336 249 L405 325 L446 368 L336 424 L144 414 C144 414 121 426 132 442 L344 473 L632 421 C677 405 727 366 727 366 L891 332 L891 170 L708 178 Z " />
<glyph glyph-name="uni261D" unicode="&#x261d;" horiz-adv-x="557" d="M80 473 L130 171 C146 108 188 58 188 58 L224 -119 L463 -119 L449 70 C501 214 488 290 488 290 L515 366 C501 412 463 421 463 421 C458 464 402 474 402 474 C387 513 342 526 342 526 C316 521 226 434 226 434 L189 501 L203 707 C203 707 198 761 136 744 L80 473 Z M419 -73 L256 -73 L222 90 C222 90 184 141 168 186 L116 474 L147 686 C163 697 175 674 175 674 L165 482 L221 370 L264 410 L340 481 C340 481 361 470 363 455 L292 382 L268 327 L298 312 L319 366 L384 440 C384 440 412 433 415 415 L363 356 L340 293 L374 277 L393 341 L437 396 C437 396 468 388 470 364 L444 294 C444 294 440 180 410 110 L419 -73 Z " />
<glyph glyph-name="uni261E" unicode="&#x261e;" horiz-adv-x="943" d="M660 509 L358 459 C295 443 245 401 245 401 L68 365 L68 126 L257 140 C401 88 477 101 477 101 L553 74 C599 88 608 126 608 126 C651 131 661 187 661 187 C700 201 713 247 713 247 C709 272 622 363 622 363 L688 400 L894 386 C894 386 948 391 931 453 L660 509 Z M114 170 L114 332 L278 366 C278 366 328 405 373 421 L661 473 L873 442 C884 426 861 414 861 414 L669 424 L557 368 L597 325 L669 249 C669 249 657 228 642 226 L569 297 L514 320 L499 291 L553 270 L627 205 C627 205 620 177 602 174 L543 226 L480 249 L464 215 L528 196 L583 152 C583 152 576 121 552 119 L482 145 C482 145 367 148 297 178 L114 170 Z " />
<glyph glyph-name="uni261F" unicode="&#x261f;" horiz-adv-x="555" d="M500 169 L450 471 C434 534 392 584 392 584 L356 761 L117 761 L131 572 C79 428 92 352 92 352 L65 276 C79 230 117 221 117 221 C122 178 178 168 178 168 C192 129 238 115 238 115 C263 120 354 207 354 207 L391 141 L377 -65 C377 -65 382 -119 444 -102 L500 169 Z M161 715 L323 715 L357 551 C357 551 396 501 412 456 L464 168 L433 -44 C417 -55 405 -32 405 -32 L415 160 L359 272 L316 231 L240 160 C240 160 219 171 217 187 L288 259 L311 315 L282 329 L261 276 L196 201 C196 201 168 209 165 226 L217 285 L240 349 L206 364 L187 301 L143 246 C143 246 112 253 110 277 L136 347 C136 347 139 462 169 531 L161 715 Z " />
<glyph glyph-name="uni267E" unicode="&#x267e;" horiz-adv-x="510" d="M260 -9 C381 -9 474 118 474 289 C474 460 382 590 260 590 C139 590 47 460 47 289 C47 118 138 -9 260 -9 L260 -9 Z M260 16 C156 16 71 130 71 289 C71 449 155 566 260 566 C365 566 449 450 449 289 C449 131 366 16 260 16 L260 16 Z M191 405 C152 405 130 348 130 290 C130 234 148 177 191 177 C222 177 245 216 261 261 C279 214 300 177 332 177 C375 177 393 236 393 290 C393 346 373 405 332 405 C302 405 279 366 261 322 C243 368 223 405 191 405 L191 405 Z M192 214 C169 214 160 250 160 290 C160 331 169 367 192 367 C215 367 233 330 249 291 C233 252 214 214 192 214 L192 214 Z M331 214 C310 214 291 252 275 291 C290 330 309 367 331 367 C353 367 364 331 364 290 C364 250 354 214 331 214 L331 214 Z " />
<glyph glyph-name="uni2713" unicode="&#x2713;" horiz-adv-x="448" d="M120 78 L139 78 C258 200 375 370 455 490 L447 499 C420 494 385 475 372 456 C317 371 201 198 145 139 C117 192 104 272 103 313 L83 319 C73 316 51 295 44 285 C40 260 80 115 120 78 L120 78 Z " />
<glyph glyph-name="uni2776" unicode="&#x2776;" horiz-adv-x="703" d="M356 -3 C519 -3 651 128 651 291 C651 454 519 586 356 586 C193 586 61 454 61 291 C61 128 193 -3 356 -3 L356 -3 Z M332 138 L332 401 L260 387 L260 420 L352 449 L379 449 L379 138 L332 138 Z " />
<glyph glyph-name="uni2777" unicode="&#x2777;" horiz-adv-x="703" d="M356 -3 C519 -3 651 128 651 291 C651 454 519 586 356 586 C193 586 61 454 61 291 C61 128 193 -3 356 -3 L356 -3 Z M244 168 C325 234 402 298 402 360 C402 395 376 413 342 413 C316 413 289 409 254 382 L254 421 C279 440 315 449 347 449 C403 449 450 423 450 362 C450 301 387 237 311 178 C311 177 310 177 309 176 L461 176 L461 138 L244 138 L244 168 Z " />
<glyph glyph-name="uni2778" unicode="&#x2778;" horiz-adv-x="703" d="M356 -3 C519 -3 651 128 651 291 C651 454 519 586 356 586 C193 586 61 454 61 291 C61 128 193 -3 356 -3 L356 -3 Z M340 134 C302 134 281 140 265 148 L265 188 C294 173 323 170 352 170 C388 170 413 191 413 222 C413 261 378 276 319 278 L319 308 C357 312 398 338 398 371 C398 398 377 413 347 413 C323 413 297 406 268 382 L268 421 C292 440 323 449 352 449 C407 449 444 423 444 379 C444 332 401 308 384 304 L384 302 C423 298 459 273 459 229 C459 162 403 134 340 134 L340 134 Z " />
<glyph glyph-name="uni2779" unicode="&#x2779;" horiz-adv-x="703" d="M356 -3 C519 -3 651 128 651 291 C651 454 519 586 356 586 C193 586 61 454 61 291 C61 128 193 -3 356 -3 L356 -3 Z M351 221 L213 221 L213 256 L354 449 L398 449 L398 255 L442 255 L442 221 L398 221 L398 138 L351 138 L351 221 Z M351 255 L351 382 L258 255 L351 255 Z " />
<glyph glyph-name="uni277A" unicode="&#x277a;" horiz-adv-x="703" d="M356 -3 C519 -3 651 128 651 291 C651 454 519 586 356 586 C193 586 61 454 61 291 C61 128 193 -3 356 -3 L356 -3 Z M336 134 C300 134 275 141 257 148 L257 189 C285 176 312 170 339 170 C376 170 404 194 404 231 C404 275 374 293 310 293 C297 293 283 292 269 290 L282 444 L443 444 L443 409 L319 409 L311 327 C314 327 323 328 326 328 C403 328 450 300 450 234 C450 165 388 134 336 134 L336 134 Z " />
<glyph glyph-name="uni277B" unicode="&#x277b;" horiz-adv-x="703" d="M356 -3 C519 -3 651 128 651 291 C651 454 519 586 356 586 C193 586 61 454 61 291 C61 128 193 -3 356 -3 L356 -3 Z M371 413 C317 413 290 379 283 312 C299 322 324 334 356 334 C409 334 452 309 452 244 C452 185 411 134 339 134 C265 134 231 192 231 268 C231 371 283 449 371 449 C390 449 411 446 432 439 L432 399 C406 411 388 413 371 413 L371 413 Z M345 299 C317 299 295 288 280 279 L280 268 C280 208 296 170 342 170 C383 170 403 196 403 238 C403 278 386 299 345 299 L345 299 Z " />
<glyph glyph-name="uni277C" unicode="&#x277c;" horiz-adv-x="703" d="M356 -3 C519 -3 651 128 651 291 C651 454 519 586 356 586 C193 586 61 454 61 291 C61 128 193 -3 356 -3 L356 -3 Z M274 138 L273 140 L406 409 L256 409 L256 444 L454 444 L454 419 L318 138 L274 138 Z " />
<glyph glyph-name="uni277D" unicode="&#x277d;" horiz-adv-x="703" d="M356 -3 C519 -3 651 128 651 291 C651 454 519 586 356 586 C193 586 61 454 61 291 C61 128 193 -3 356 -3 L356 -3 Z M459 222 C459 172 409 134 346 134 C279 134 243 167 243 218 C243 250 265 281 295 299 C271 313 253 333 253 367 C253 412 294 449 350 449 C409 449 452 422 452 373 C452 340 431 311 404 293 C434 279 459 260 459 222 L459 222 Z M406 367 C406 392 390 413 348 413 C318 413 297 400 297 369 C297 334 334 321 372 307 C395 324 406 346 406 367 L406 367 Z M288 221 C288 185 318 170 351 170 C381 170 412 180 412 218 C412 254 363 265 320 285 C300 267 288 250 288 221 L288 221 Z " />
<glyph glyph-name="uni277E" unicode="&#x277e;" horiz-adv-x="703" d="M356 -3 C519 -3 651 128 651 291 C651 454 519 586 356 586 C193 586 61 454 61 291 C61 128 193 -3 356 -3 L356 -3 Z M324 171 C376 171 405 204 412 271 C395 260 370 249 339 249 C286 249 244 275 244 339 C244 399 284 449 356 449 C430 449 464 391 464 315 C464 210 412 134 324 134 C305 134 284 137 263 145 L263 185 C289 172 307 171 324 171 L324 171 Z M350 284 C378 284 400 294 415 304 L415 315 C415 375 399 414 353 414 C312 414 291 393 291 346 C291 304 309 284 350 284 L350 284 Z " />
<glyph glyph-name="uni277F" unicode="&#x277f;" horiz-adv-x="703" d="M356 -3 C519 -3 651 128 651 291 C651 454 519 586 356 586 C193 586 61 454 61 291 C61 128 193 -3 356 -3 L356 -3 Z M230 138 L230 401 L158 387 L158 420 L249 449 L277 449 L277 138 L230 138 Z M434 134 C352 134 321 195 321 285 C321 382 359 449 439 449 C528 449 554 372 554 294 C554 196 513 134 434 134 L434 134 Z M437 170 C492 170 505 226 505 292 C505 351 489 413 435 413 C383 413 369 350 369 287 C369 220 386 170 437 170 L437 170 Z " />
<glyph glyph-name="uni2780" unicode="&#x2780;" horiz-adv-x="703" d="M356 -3 C519 -3 651 128 651 291 C651 454 519 586 356 586 C193 586 61 454 61 291 C61 128 193 -3 356 -3 L356 -3 Z M356 28 C212 28 96 147 96 291 C96 435 212 555 356 555 C500 555 617 435 617 291 C617 147 500 28 356 28 L356 28 Z M385 138 L385 449 L358 449 L266 420 L266 387 L338 401 L338 138 L385 138 Z " />
<glyph glyph-name="uni2781" unicode="&#x2781;" horiz-adv-x="703" d="M356 -3 C519 -3 651 128 651 291 C651 454 519 586 356 586 C193 586 61 454 61 291 C61 128 193 -3 356 -3 L356 -3 Z M356 28 C212 28 96 147 96 291 C96 435 212 555 356 555 C500 555 617 435 617 291 C617 147 500 28 356 28 L356 28 Z M244 138 L461 138 L461 176 L309 176 C310 177 311 177 311 178 C387 237 450 301 450 362 C450 423 403 449 347 449 C315 449 279 440 254 421 L254 382 C289 409 316 413 342 413 C376 413 402 395 402 360 C402 298 325 234 244 168 L244 138 Z " />
<glyph glyph-name="uni2782" unicode="&#x2782;" horiz-adv-x="703" d="M356 -3 C519 -3 651 128 651 291 C651 454 519 586 356 586 C193 586 61 454 61 291 C61 128 193 -3 356 -3 L356 -3 Z M356 28 C212 28 96 147 96 291 C96 435 212 555 356 555 C500 555 617 435 617 291 C617 147 500 28 356 28 L356 28 Z M340 134 C403 134 459 162 459 229 C459 273 423 298 384 302 L384 304 C401 308 444 332 444 379 C444 423 407 449 352 449 C323 449 292 440 268 421 L268 382 C297 406 323 413 347 413 C377 413 398 398 398 371 C398 338 357 312 319 308 L319 278 C378 276 413 261 413 222 C413 191 388 170 352 170 C323 170 294 173 265 188 L265 148 C281 140 302 134 340 134 L340 134 Z " />
<glyph glyph-name="uni2783" unicode="&#x2783;" horiz-adv-x="703" d="M356 -3 C519 -3 651 128 651 291 C651 454 519 586 356 586 C193 586 61 454 61 291 C61 128 193 -3 356 -3 L356 -3 Z M356 28 C212 28 96 147 96 291 C96 435 212 555 356 555 C500 555 617 435 617 291 C617 147 500 28 356 28 L356 28 Z M351 138 L398 138 L398 221 L442 221 L442 255 L398 255 L398 449 L354 449 L213 256 L213 221 L351 221 L351 138 Z M258 255 L351 382 L351 255 L258 255 Z " />
<glyph glyph-name="uni2784" unicode="&#x2784;" horiz-adv-x="703" d="M356 -3 C519 -3 651 128 651 291 C651 454 519 586 356 586 C193 586 61 454 61 291 C61 128 193 -3 356 -3 L356 -3 Z M356 28 C212 28 96 147 96 291 C96 435 212 555 356 555 C500 555 617 435 617 291 C617 147 500 28 356 28 L356 28 Z M336 134 C388 134 450 165 450 234 C450 300 403 328 326 328 C323 328 314 327 311 327 L319 409 L443 409 L443 444 L282 444 L269 290 C283 292 297 293 310 293 C374 293 404 275 404 231 C404 194 376 170 339 170 C312 170 285 176 257 189 L257 148 C275 141 300 134 336 134 L336 134 Z " />
<glyph glyph-name="uni2785" unicode="&#x2785;" horiz-adv-x="703" d="M356 -3 C519 -3 651 128 651 291 C651 454 519 586 356 586 C193 586 61 454 61 291 C61 128 193 -3 356 -3 L356 -3 Z M356 28 C212 28 96 147 96 291 C96 435 212 555 356 555 C500 555 617 435 617 291 C617 147 500 28 356 28 L356 28 Z M371 413 C388 413 406 411 432 399 L432 439 C411 446 390 449 371 449 C283 449 231 371 231 268 C231 192 265 134 339 134 C411 134 452 185 452 244 C452 309 409 334 356 334 C324 334 299 322 283 312 C290 379 317 413 371 413 L371 413 Z M345 299 C386 299 403 278 403 238 C403 196 383 170 342 170 C296 170 280 208 280 268 L280 279 C295 288 317 299 345 299 L345 299 Z " />
<glyph glyph-name="uni2786" unicode="&#x2786;" horiz-adv-x="703" d="M356 -3 C519 -3 651 128 651 291 C651 454 519 586 356 586 C193 586 61 454 61 291 C61 128 193 -3 356 -3 L356 -3 Z M356 28 C212 28 96 147 96 291 C96 435 212 555 356 555 C500 555 617 435 617 291 C617 147 500 28 356 28 L356 28 Z M318 138 L454 419 L454 444 L256 444 L256 409 L406 409 L273 140 L274 138 L318 138 Z " />
<glyph glyph-name="uni2787" unicode="&#x2787;" horiz-adv-x="703" d="M356 -3 C519 -3 651 128 651 291 C651 454 519 586 356 586 C193 586 61 454 61 291 C61 128 193 -3 356 -3 L356 -3 Z M356 28 C212 28 96 147 96 291 C96 435 212 555 356 555 C500 555 617 435 617 291 C617 147 500 28 356 28 L356 28 Z M459 222 C459 260 434 279 404 293 C431 311 452 340 452 373 C452 422 409 449 350 449 C294 449 253 412 253 367 C253 333 271 313 295 299 C265 281 243 250 243 218 C243 167 279 134 346 134 C409 134 459 172 459 222 L459 222 Z M406 367 C406 346 395 324 372 307 C334 321 297 334 297 369 C297 400 318 413 348 413 C390 413 406 392 406 367 L406 367 Z M288 221 C288 250 300 267 320 285 C363 265 412 254 412 218 C412 180 381 170 351 170 C318 170 288 185 288 221 L288 221 Z " />
<glyph glyph-name="uni2788" unicode="&#x2788;" horiz-adv-x="703" d="M356 -3 C519 -3 651 128 651 291 C651 454 519 586 356 586 C193 586 61 454 61 291 C61 128 193 -3 356 -3 L356 -3 Z M356 28 C212 28 96 147 96 291 C96 435 212 555 356 555 C500 555 617 435 617 291 C617 147 500 28 356 28 L356 28 Z M324 171 C307 171 289 172 263 185 L263 145 C284 137 305 134 324 134 C412 134 464 210 464 315 C464 391 430 449 356 449 C284 449 244 399 244 339 C244 275 286 249 339 249 C370 249 395 260 412 271 C405 204 376 171 324 171 L324 171 Z M350 284 C309 284 291 304 291 346 C291 393 312 414 353 414 C399 414 415 375 415 315 L415 304 C400 294 378 284 350 284 L350 284 Z " />
<glyph glyph-name="uni278A" unicode="&#x278a;" horiz-adv-x="703" d="M356 -3 C519 -3 651 128 651 291 C651 454 519 586 356 586 C193 586 61 454 61 291 C61 128 193 -3 356 -3 L356 -3 Z M328 138 L328 401 L256 387 L256 420 L348 449 L375 449 L375 138 L328 138 Z " />
<glyph glyph-name="uni278B" unicode="&#x278b;" horiz-adv-x="703" d="M356 -3 C519 -3 651 128 651 291 C651 454 519 586 356 586 C193 586 61 454 61 291 C61 128 193 -3 356 -3 L356 -3 Z M244 168 C325 234 402 298 402 360 C402 395 376 413 342 413 C316 413 289 409 254 382 L254 421 C279 440 315 449 347 449 C403 449 450 423 450 362 C450 301 388 239 314 180 L309 176 L461 176 L461 138 L244 138 L244 168 Z " />
<glyph glyph-name="uni278C" unicode="&#x278c;" horiz-adv-x="703" d="M356 -3 C519 -3 651 128 651 291 C651 454 519 586 356 586 C193 586 61 454 61 291 C61 128 193 -3 356 -3 L356 -3 Z M340 134 C302 134 281 140 265 148 L265 188 C294 173 323 170 352 170 C388 170 413 191 413 222 C413 261 378 276 319 278 L319 308 C357 312 398 338 398 371 C398 398 377 413 347 413 C323 413 297 406 268 382 L268 421 C292 440 323 449 352 449 C407 449 444 423 444 379 C444 332 401 308 384 304 L384 302 C423 298 459 273 459 229 C459 162 403 134 340 134 L340 134 Z " />
<glyph glyph-name="uni278D" unicode="&#x278d;" horiz-adv-x="703" d="M356 -3 C519 -3 651 128 651 291 C651 454 519 586 356 586 C193 586 61 454 61 291 C61 128 193 -3 356 -3 L356 -3 Z M351 221 L213 221 L213 256 L354 449 L398 449 L398 255 L442 255 L442 221 L398 221 L398 138 L351 138 L351 221 Z M351 255 L351 382 L258 255 L351 255 Z " />
<glyph glyph-name="uni278E" unicode="&#x278e;" horiz-adv-x="703" d="M356 -3 C519 -3 651 128 651 291 C651 454 519 586 356 586 C193 586 61 454 61 291 C61 128 193 -3 356 -3 L356 -3 Z M336 134 C300 134 275 141 257 148 L257 189 C285 176 312 170 339 170 C376 170 404 194 404 231 C404 275 374 293 310 293 C297 293 283 292 269 290 L282 444 L443 444 L443 409 L319 409 L311 327 C314 327 323 328 326 328 C403 328 450 300 450 234 C450 165 388 134 336 134 L336 134 Z " />
<glyph glyph-name="uni278F" unicode="&#x278f;" horiz-adv-x="703" d="M356 -3 C519 -3 651 128 651 291 C651 454 519 586 356 586 C193 586 61 454 61 291 C61 128 193 -3 356 -3 L356 -3 Z M371 413 C317 413 290 379 283 312 C299 322 324 334 356 334 C409 334 452 309 452 244 C452 185 411 134 339 134 C265 134 231 192 231 268 C231 371 283 449 371 449 C390 449 411 446 432 439 L432 399 C406 411 388 413 371 413 L371 413 Z M345 299 C317 299 295 288 280 279 L280 268 C280 208 296 170 342 170 C383 170 403 196 403 238 C403 278 386 299 345 299 L345 299 Z " />
<glyph glyph-name="uni2790" unicode="&#x2790;" horiz-adv-x="703" d="M356 -3 C519 -3 651 128 651 291 C651 454 519 586 356 586 C193 586 61 454 61 291 C61 128 193 -3 356 -3 L356 -3 Z M274 138 L273 140 L406 409 L256 409 L256 444 L454 444 L454 419 L318 138 L274 138 Z " />
<glyph glyph-name="uni2791" unicode="&#x2791;" horiz-adv-x="703" d="M356 -3 C519 -3 651 128 651 291 C651 454 519 586 356 586 C193 586 61 454 61 291 C61 128 193 -3 356 -3 L356 -3 Z M459 222 C459 172 409 134 346 134 C279 134 243 167 243 218 C243 250 265 281 295 299 C271 313 253 333 253 367 C253 412 294 449 350 449 C409 449 452 422 452 373 C452 340 431 311 404 293 C434 279 459 260 459 222 L459 222 Z M406 367 C406 392 390 413 348 413 C318 413 297 400 297 369 C297 334 334 321 372 307 C395 324 406 346 406 367 L406 367 Z M288 221 C288 185 318 170 351 170 C381 170 412 180 412 218 C412 254 363 265 320 285 C300 267 288 250 288 221 L288 221 Z " />
<glyph glyph-name="uni2792" unicode="&#x2792;" horiz-adv-x="703" d="M356 -3 C519 -3 651 128 651 291 C651 454 519 586 356 586 C193 586 61 454 61 291 C61 128 193 -3 356 -3 L356 -3 Z M324 171 C376 171 405 204 412 271 C395 260 370 249 339 249 C286 249 244 275 244 339 C244 399 284 449 356 449 C430 449 464 391 464 315 C464 210 412 134 324 134 C305 134 284 137 263 145 L263 185 C289 172 307 171 324 171 L324 171 Z M350 284 C378 284 400 294 415 304 L415 315 C415 375 399 414 353 414 C312 414 291 393 291 346 C291 304 309 284 350 284 L350 284 Z " />
<glyph glyph-name="uni301A" unicode="&#x301a;" horiz-adv-x="281" d="M-21 -181 L175 -181 L183 -140 L123 -140 L260 637 L320 637 L326 679 L131 679 L-21 -181 Z M169 637 L213 637 L77 -140 L32 -140 L169 637 Z " />
<glyph glyph-name="uni301B" unicode="&#x301b;" horiz-adv-x="282" d="M300 679 L104 679 L96 637 L156 637 L19 -140 L-41 -140 L-47 -181 L149 -181 L300 679 Z M247 637 L110 -140 L65 -140 L201 637 L247 637 Z " />
<glyph glyph-name="apple" unicode="&#xf8ff;" horiz-adv-x="1241" d="M390 318 L401 318 L401 328 L411 328 L411 338 L421 338 L421 347 L431 347 L431 388 L420 388 L420 348 L401 348 L401 388 L390 388 L390 347 L400 347 L400 329 L390 329 L390 318 Z M350 338 L371 338 L371 348 L351 348 L351 377 L371 377 L371 388 L351 388 L351 398 L340 398 L340 388 L330 388 L330 377 L340 377 L340 347 L350 347 L350 338 Z M590 338 L611 338 L611 348 L591 348 L591 377 L611 377 L611 388 L591 388 L591 398 L580 398 L580 388 L570 388 L570 377 L580 377 L580 347 L590 347 L590 338 Z M700 338 L731 338 L731 348 L701 348 L701 357 L731 357 L731 378 L721 378 L721 388 L700 388 L700 378 L690 378 L690 347 L700 347 L700 338 Z M880 338 L911 338 L911 348 L881 348 L881 357 L911 357 L911 378 L901 378 L901 388 L880 388 L880 378 L870 378 L870 347 L880 347 L880 338 Z M110 347 L121 347 L121 357 L131 357 L131 368 L121 368 L121 378 L110 378 L110 368 L100 368 L100 357 L110 357 L110 347 Z M180 347 L191 347 L191 357 L201 357 L201 368 L191 368 L191 378 L180 378 L180 368 L170 368 L170 357 L180 357 L180 347 Z M270 347 L281 347 L281 357 L291 357 L291 368 L281 368 L281 378 L270 378 L270 368 L260 368 L260 357 L270 357 L270 347 Z M520 338 L541 338 L541 347 L551 347 L551 378 L541 378 L541 388 L520 388 L520 378 L510 378 L510 347 L520 347 L520 338 Z M630 338 L641 338 L641 377 L660 377 L660 338 L671 338 L671 378 L661 378 L661 388 L641 388 L641 408 L630 408 L630 338 Z M960 347 L971 347 L971 357 L981 357 L981 368 L971 368 L971 378 L960 378 L960 368 L950 368 L950 357 L960 357 L960 347 Z M1050 347 L1061 347 L1061 357 L1071 357 L1071 368 L1061 368 L1061 378 L1050 378 L1050 368 L1040 368 L1040 357 L1050 357 L1050 347 Z M1120 347 L1131 347 L1131 357 L1141 357 L1141 368 L1131 368 L1131 378 L1120 378 L1120 368 L1110 368 L1110 357 L1120 357 L1120 347 Z M450 318 L461 318 L461 338 L481 338 L481 347 L491 347 L491 378 L481 378 L481 388 L450 388 L450 318 Z M780 318 L791 318 L791 388 L760 388 L760 378 L750 378 L750 347 L760 347 L760 338 L780 338 L780 318 Z M820 338 L851 338 L851 388 L840 388 L840 348 L821 348 L821 388 L810 388 L810 347 L820 347 L820 338 Z M240 328 L251 328 L251 338 L261 338 L261 348 L250 348 L250 338 L240 338 L240 328 Z M250 377 L261 377 L261 388 L251 388 L251 398 L240 398 L240 387 L250 387 L250 377 Z M300 328 L311 328 L311 338 L301 338 L301 348 L290 348 L290 338 L300 338 L300 328 Z M290 377 L301 377 L301 387 L311 387 L311 398 L300 398 L300 388 L290 388 L290 377 Z M930 328 L941 328 L941 338 L951 338 L951 348 L940 348 L940 338 L930 338 L930 328 Z M940 377 L951 377 L951 388 L941 388 L941 398 L930 398 L930 387 L940 387 L940 377 Z M990 328 L1001 328 L1001 338 L991 338 L991 348 L980 348 L980 338 L990 338 L990 328 Z M980 377 L991 377 L991 387 L1001 387 L1001 398 L990 398 L990 388 L980 388 L980 377 Z M160 338 L171 338 L171 348 L160 348 L160 338 Z M160 377 L171 377 L171 388 L160 388 L160 377 Z M200 338 L211 338 L211 348 L200 348 L200 338 Z M200 377 L211 377 L211 388 L200 388 L200 377 Z M461 348 L461 377 L480 377 L480 348 L461 348 Z M521 348 L521 377 L540 377 L540 348 L521 348 Z M701 368 L701 377 L720 377 L720 368 L701 368 Z M761 348 L761 377 L780 377 L780 348 L761 348 Z M881 368 L881 377 L900 377 L900 368 L881 368 Z M1030 338 L1041 338 L1041 348 L1030 348 L1030 338 Z M1030 377 L1041 377 L1041 388 L1030 388 L1030 377 Z M1070 338 L1081 338 L1081 348 L1070 348 L1070 338 Z M1070 377 L1081 377 L1081 388 L1070 388 L1070 377 Z " />
<glyph glyph-name="f_f" unicode="&#xfb00;" horiz-adv-x="379" d="M44 406 L100 406 L27 -18 C12 -102 -12 -144 -27 -163 C-52 -164 -77 -158 -95 -150 L-110 -198 C-87 -208 -61 -212 -37 -212 C19 -212 63 -98 77 -20 L151 406 L265 406 L192 -18 C177 -102 152 -146 138 -165 C104 -167 61 -154 43 -145 L19 -188 C41 -198 87 -212 126 -212 C182 -212 227 -104 242 -20 L315 406 L391 406 L399 450 L323 450 L329 484 C341 550 354 578 376 606 C385 609 397 609 410 608 C425 608 439 605 455 597 L469 649 C455 655 438 658 424 658 C398 658 371 652 352 638 C351 637 351 637 350 637 C331 645 294 657 264 657 C233 657 201 648 179 630 C152 607 128 564 115 489 L108 450 L51 450 L44 406 Z M280 490 L273 450 L158 450 L164 483 C175 549 191 579 213 607 C230 610 248 610 262 608 C280 606 301 600 315 595 C300 570 288 535 280 490 L280 490 Z " />
<glyph glyph-name="fi" unicode="&#xfb01;" horiz-adv-x="338" d="M44 406 L100 406 L27 -18 C12 -102 -13 -144 -28 -163 C-54 -164 -78 -158 -96 -150 L-110 -198 C-87 -208 -63 -212 -39 -212 C17 -212 63 -98 77 -20 L151 406 L264 406 L194 0 L245 0 L323 450 L158 450 L164 483 C175 549 190 578 212 606 C221 608 234 609 245 609 C262 608 281 605 299 598 L312 649 C298 655 278 658 264 658 C234 658 200 647 178 629 C151 605 128 564 115 488 L108 450 L51 450 L44 406 Z " />
<glyph glyph-name="fl" unicode="&#xfb02;" horiz-adv-x="343" d="M243 0 L356 653 L310 653 C297 656 281 658 269 658 C238 658 203 646 180 628 C152 605 128 562 115 487 L108 450 L51 450 L44 406 L101 406 L27 -18 C12 -102 -13 -144 -28 -163 C-54 -164 -78 -158 -96 -150 L-110 -198 C-87 -208 -64 -211 -40 -211 C16 -211 63 -98 77 -20 L151 406 L222 406 L229 450 L158 450 L164 482 C175 547 189 576 212 604 C224 607 243 609 261 608 C273 607 285 605 296 602 L193 0 L243 0 Z " />
<glyph glyph-name="f_f_i" unicode="&#xfb03;" horiz-adv-x="503" d="M150 406 L265 406 L192 -18 C177 -102 152 -146 138 -165 C105 -167 62 -154 43 -145 L20 -188 C43 -197 87 -212 126 -212 C182 -212 229 -98 242 -20 L316 406 L428 406 L359 0 L409 0 L487 450 L324 450 L330 485 C341 552 355 578 377 606 C388 608 402 609 416 608 C432 607 449 604 463 597 L477 649 C463 655 443 658 429 658 C404 658 375 651 355 639 L351 636 C332 645 294 657 264 657 C233 657 200 647 177 629 C150 606 128 565 115 489 L108 450 L51 450 L44 406 L100 406 L27 -18 C12 -102 -12 -144 -27 -163 C-52 -164 -77 -158 -95 -150 L-110 -198 C-87 -208 -61 -212 -37 -212 C19 -212 63 -98 77 -20 L150 406 Z M164 484 C175 550 191 579 213 606 C223 609 236 610 245 610 C270 609 296 602 314 594 C299 569 287 536 280 490 L273 450 L158 450 L164 484 Z " />
<glyph glyph-name="f_f_l" unicode="&#xfb04;" horiz-adv-x="508" d="M409 0 L522 652 L478 652 C464 656 445 657 431 657 C403 657 372 651 350 636 C331 644 294 657 263 657 C233 657 200 647 179 630 C151 607 127 563 115 487 L108 450 L51 450 L44 406 L101 406 L27 -18 C12 -102 -12 -144 -27 -163 C-52 -164 -77 -158 -95 -150 L-110 -198 C-87 -208 -61 -212 -37 -212 C19 -212 63 -98 77 -20 L151 406 L265 406 L192 -18 C177 -102 152 -146 138 -165 C104 -167 61 -154 43 -145 L19 -187 C41 -197 87 -212 127 -212 C183 -212 229 -98 242 -20 L316 406 L387 406 L395 450 L323 450 L329 483 C340 549 355 577 377 604 C389 608 406 608 421 608 C436 608 449 605 462 601 L358 0 L409 0 Z M164 482 C175 548 191 578 213 606 C227 610 243 609 256 608 C276 606 298 600 314 594 C299 569 287 535 279 488 L272 450 L158 450 L164 482 Z " />
</font>
</defs>
</svg>
