<svg xmlns="http://www.w3.org/2000/svg">
<defs>
<font id="Greta Sans Std Thin">
<font-face  font-family="Greta Sans Std" units-per-em="1000" ascent="710" descent="-290" font-style="normal" font-weight="200" font-stretch="normal" cap-height="583" x-height="450" underline-position="-75" underline-thickness="50" />

<glyph glyph-name="NULL" d="" />
<glyph glyph-name="CR" unicode="&#xd;" horiz-adv-x="250" d="" />
<glyph glyph-name="space" unicode="&#x20;" horiz-adv-x="220" d="" />
<glyph glyph-name="exclam" unicode="&#x21;" horiz-adv-x="208" d="M90 347 L93 217 L115 217 L118 348 L118 583 L90 583 L90 347 Z M90 -6 L117 -6 L117 105 L90 105 L90 -6 Z " />
<glyph glyph-name="quotedbl" unicode="&#x22;" horiz-adv-x="338" d="M76 456 L102 456 L104 656 L76 656 L76 456 Z M236 456 L261 456 L264 656 L236 656 L236 456 Z " />
<glyph glyph-name="numbersign" unicode="&#x23;" horiz-adv-x="619" d="M86 397 L219 397 L177 200 L51 200 L46 178 L173 178 L135 0 L158 0 L196 178 L364 178 L326 0 L350 0 L388 178 L527 178 L532 200 L392 200 L434 397 L567 397 L572 419 L439 419 L474 583 L450 583 L415 419 L247 419 L282 583 L259 583 L224 419 L91 419 L86 397 Z M242 397 L410 397 L368 200 L200 200 L242 397 Z " />
<glyph glyph-name="dollar" unicode="&#x24;" horiz-adv-x="444" d="M234 -67 L234 -6 C323 2 395 54 395 153 C395 245 320 281 234 313 L234 566 C280 565 326 554 373 535 L373 564 C334 579 287 591 234 592 L234 650 L209 650 L209 591 C125 584 56 536 56 444 C56 357 123 324 209 292 L209 18 L207 18 C156 18 103 29 60 48 L60 18 C114 0 154 -8 206 -8 L209 -8 L209 -67 L234 -67 Z M366 151 C366 73 312 28 234 19 L234 283 C309 254 366 224 366 151 L366 151 Z M85 450 C85 512 129 558 209 565 L209 323 C133 352 85 381 85 450 L85 450 Z " />
<glyph glyph-name="percent" unicode="&#x25;" horiz-adv-x="707" d="M169 287 C241 287 294 344 294 438 C294 540 241 591 169 591 C96 591 43 530 43 435 C43 337 96 287 169 287 L169 287 Z M170 308 C99 308 68 365 68 436 C68 514 105 570 168 570 C234 570 269 519 269 437 C269 365 238 308 170 308 L170 308 Z M381 369 L403 369 L515 574 L515 583 L492 583 L381 369 Z M538 -8 C610 -8 663 49 663 143 C663 245 610 296 538 296 C465 296 412 235 412 140 C412 42 465 -8 538 -8 L538 -8 Z M539 13 C468 13 437 69 437 140 C437 217 474 275 537 275 C603 275 638 224 638 142 C638 70 607 13 539 13 L539 13 Z M332 218 L310 218 L198 9 L198 0 L222 0 L332 218 Z " />
<glyph glyph-name="ampersand" unicode="&#x26;" horiz-adv-x="645" d="M593 355 L563 355 C538 256 501 175 450 118 C390 164 330 211 319 220 C290 241 259 266 231 291 C313 327 405 378 405 462 C405 529 361 592 260 592 C145 592 96 521 96 446 C96 395 132 346 181 298 C112 263 55 217 55 139 C55 48 117 -8 235 -8 C327 -8 397 28 451 81 C505 39 553 4 560 0 L590 0 L590 13 C581 18 528 58 471 102 C535 175 572 273 593 355 L593 355 Z M284 211 L430 97 C377 46 311 18 234 18 C149 18 84 55 84 143 C84 212 144 255 198 282 C225 258 254 234 284 211 L284 211 Z M125 445 C125 541 198 567 259 567 C347 567 376 508 376 461 C376 386 286 339 213 306 C163 353 125 401 125 445 L125 445 Z " />
<glyph glyph-name="quotesingle" unicode="&#x27;" horiz-adv-x="178" d="M76 456 L102 456 L105 656 L76 656 L76 456 Z " />
<glyph glyph-name="parenleft" unicode="&#x28;" horiz-adv-x="234" d="M198 -147 C176 -114 81 39 81 261 C81 479 176 620 197 649 L170 649 C151 627 55 483 55 260 C55 37 149 -114 171 -147 L198 -147 Z " />
<glyph glyph-name="parenright" unicode="&#x29;" horiz-adv-x="233" d="M36 649 C57 615 152 465 152 243 C152 25 57 -119 36 -147 L64 -147 C82 -125 178 22 178 244 C178 467 85 615 63 648 L36 649 Z " />
<glyph glyph-name="asterisk" unicode="&#x2a;" horiz-adv-x="382" d="M64 543 L179 481 L64 420 L75 399 L183 466 L180 343 L203 343 L200 466 L307 399 L318 420 L203 482 L318 543 L307 563 L200 497 L203 625 L180 625 L183 497 L76 563 L64 543 Z " />
<glyph glyph-name="plus" unicode="&#x2b;" horiz-adv-x="525" d="M53 283 L248 283 L248 87 L272 87 L272 283 L471 283 L471 307 L272 307 L272 505 L248 505 L248 307 L53 307 L53 283 Z " />
<glyph glyph-name="comma" unicode="&#x2c;" horiz-adv-x="200" d="M39 -157 C104 -110 137 -51 137 5 C137 41 121 79 87 104 C80 104 65 89 65 82 C92 53 103 31 103 -8 C103 -59 73 -101 24 -142 L39 -157 Z " />
<glyph glyph-name="&amp;#x2d;" unicode="&#x2d;" horiz-adv-x="373" d="M71 230 L303 230 L303 256 L71 256 L71 230 Z " />
<glyph glyph-name="&amp;#xad;" unicode="&#xad;" horiz-adv-x="373" d="M71 230 L303 230 L303 256 L71 256 L71 230 Z " />
<glyph glyph-name="period" unicode="&#x2e;" horiz-adv-x="180" d="M77 -6 L104 -6 L104 115 L77 115 L77 -6 Z " />
<glyph glyph-name="slash" unicode="&#x2f;" horiz-adv-x="316" d="M39 -91 L66 -91 L278 673 L251 673 L39 -91 Z " />
<glyph glyph-name="zero" unicode="0" horiz-adv-x="537" d="M264 -8 C410 -8 475 127 475 299 C475 443 437 592 272 592 C123 592 63 452 63 283 C63 119 108 -8 264 -8 L264 -8 Z M265 17 C161 17 91 91 91 284 C91 473 168 567 270 567 C376 567 445 484 445 298 C445 111 371 17 265 17 L265 17 Z " />
<glyph glyph-name="one" unicode="1" horiz-adv-x="292" d="M202 0 L202 583 L182 583 L38 531 L38 505 L174 551 L174 0 L202 0 Z " />
<glyph glyph-name="two" unicode="2" horiz-adv-x="462" d="M48 0 L410 0 L410 26 L86 26 L86 27 C210 119 389 302 389 433 C389 544 318 592 220 592 C166 592 114 575 66 541 L66 515 C129 557 171 567 218 567 C312 567 361 519 361 432 C361 308 191 134 48 23 L48 0 Z " />
<glyph glyph-name="three" unicode="3" horiz-adv-x="438" d="M190 -8 C281 -8 379 36 379 155 C379 250 295 310 221 312 L221 314 C258 322 352 370 352 461 C352 540 300 592 209 592 C157 592 108 575 66 544 L66 517 C117 554 154 567 206 567 C285 567 324 522 324 457 C324 381 241 327 167 319 L167 297 C274 293 351 238 351 153 C351 75 301 17 194 17 C151 17 103 26 61 45 L61 18 C89 5 135 -8 190 -8 L190 -8 Z " />
<glyph glyph-name="four" unicode="4" horiz-adv-x="454" d="M325 0 L325 163 L413 163 L413 187 L325 187 L325 583 L300 583 L38 189 L38 163 L298 163 L298 0 L325 0 Z M65 187 L295 533 L298 533 L298 187 L65 187 Z " />
<glyph glyph-name="five" unicode="5" horiz-adv-x="436" d="M195 17 C146 17 101 26 57 46 L57 17 C89 6 131 -8 194 -8 C286 -8 376 47 376 165 C376 291 287 338 174 338 C151 338 130 337 110 334 L126 558 L371 558 L371 583 L103 583 L83 306 C109 310 138 314 166 314 C272 314 349 271 349 163 C349 66 280 17 195 17 L195 17 Z " />
<glyph glyph-name="six" unicode="6" horiz-adv-x="461" d="M380 550 L380 577 C352 587 315 592 286 592 C152 592 62 459 62 252 C62 109 111 -8 231 -8 C346 -8 407 79 407 190 C407 305 346 344 252 344 C184 344 125 308 91 283 C99 464 174 567 286 567 C312 567 343 565 380 550 L380 550 Z M248 319 C332 319 378 285 378 187 C378 88 328 17 232 17 C133 17 91 122 91 251 L91 258 C127 284 186 319 248 319 L248 319 Z " />
<glyph glyph-name="seven" unicode="7" horiz-adv-x="385" d="M114 0 L356 563 L356 583 L42 583 L42 558 L327 558 L87 3 L90 0 L114 0 Z " />
<glyph glyph-name="eight" unicode="8" horiz-adv-x="462" d="M401 152 C401 231 342 267 276 296 C336 326 389 387 389 454 C389 533 338 592 228 592 C134 592 73 529 73 446 C73 373 121 337 178 309 C122 286 62 230 62 146 C62 56 123 -8 222 -8 C329 -8 401 62 401 152 L401 152 Z M90 147 C90 231 149 275 200 299 C281 263 372 237 372 150 C372 55 291 17 224 17 C147 17 90 68 90 147 L90 147 Z M361 451 C361 394 318 338 254 305 C178 337 101 365 101 447 C101 518 152 567 227 567 C324 567 361 513 361 451 L361 451 Z " />
<glyph glyph-name="nine" unicode="9" horiz-adv-x="462" d="M81 34 L81 7 C109 -3 146 -8 175 -8 C309 -8 399 125 399 332 C399 475 350 592 230 592 C115 592 54 505 54 394 C54 279 115 240 209 240 C276 240 336 276 369 301 C361 120 286 17 175 17 C149 17 118 19 81 34 L81 34 Z M213 265 C129 265 83 299 83 397 C83 496 133 567 229 567 C328 567 370 462 370 333 L370 325 C334 299 274 265 213 265 L213 265 Z " />
<glyph glyph-name="colon" unicode="&#x3a;" horiz-adv-x="183" d="M78 -6 L105 -6 L105 115 L78 115 L78 -6 Z M78 333 L105 333 L105 454 L78 454 L78 333 Z " />
<glyph glyph-name="semicolon" unicode="&#x3b;" horiz-adv-x="220" d="M50 -157 C115 -110 148 -51 148 5 C148 41 132 79 98 104 C91 104 76 89 76 82 C103 53 114 31 114 -8 C114 -59 84 -101 35 -142 L50 -157 Z M96 333 L123 333 L123 454 L96 454 L96 333 Z " />
<glyph glyph-name="less" unicode="&#x3c;" horiz-adv-x="482" d="M415 83 L415 110 L69 294 L69 295 L415 481 L415 507 L41 306 L41 283 L415 83 Z " />
<glyph glyph-name="equal" unicode="&#x3d;" horiz-adv-x="530" d="M75 192 L456 192 L456 217 L75 217 L75 192 Z M75 374 L456 374 L456 399 L75 399 L75 374 Z " />
<glyph glyph-name="greater" unicode="&#x3e;" horiz-adv-x="482" d="M440 283 L440 306 L67 507 L67 481 L412 295 L412 294 L67 110 L67 83 L440 283 Z " />
<glyph glyph-name="question" unicode="&#x3f;" horiz-adv-x="379" d="M144 193 L171 193 L171 269 C219 286 336 336 336 452 C336 550 269 592 177 592 C137 592 85 583 47 566 L47 540 C89 559 134 567 176 567 C255 567 306 528 306 452 C306 341 187 297 144 282 L144 193 Z M144 -6 L171 -6 L171 105 L144 105 L144 -6 Z " />
<glyph glyph-name="at" unicode="&#x40;" horiz-adv-x="865" d="M479 5 L532 -8 C700 31 824 151 824 316 C824 501 694 642 489 642 C233 642 53 447 53 198 C53 -48 168 -197 412 -197 C527 -197 661 -156 730 -104 L730 -76 C669 -122 549 -173 417 -173 C206 -173 80 -54 80 199 C80 414 228 618 487 618 C688 618 798 481 798 313 C798 153 672 48 541 17 L508 26 L583 459 L558 459 L553 431 C515 447 470 458 441 458 C407 458 384 440 362 418 C300 364 257 236 257 101 C257 58 262 21 270 -8 L316 -8 L507 167 L479 5 Z M291 26 C286 55 283 76 283 108 C283 237 325 386 413 434 C417 435 423 436 429 436 C461 436 509 422 548 406 L512 197 L319 24 L291 26 Z " />
<glyph glyph-name="A" unicode="A" horiz-adv-x="500" d="M21 0 L49 0 L125 203 L368 203 L432 0 L462 0 L273 583 L242 583 L21 0 Z M193 383 L256 551 L258 551 L311 383 L360 228 L135 228 L193 383 Z " />
<glyph glyph-name="B" unicode="B" horiz-adv-x="493" d="M90 0 L227 0 C382 0 443 69 443 166 C443 268 350 302 295 305 L295 307 C350 318 402 363 402 439 C402 534 334 583 202 583 L90 583 L90 0 Z M225 289 C334 289 413 258 413 167 C413 54 317 25 221 25 L119 25 L119 289 L225 289 Z M196 558 C265 558 372 542 372 435 C372 376 327 315 227 315 L119 315 L119 558 L196 558 Z " />
<glyph glyph-name="C" unicode="C" horiz-adv-x="511" d="M319 -8 C381 -8 431 7 462 24 L462 51 C410 25 374 18 321 18 C173 18 88 98 88 291 C88 463 178 567 322 567 C364 567 405 562 462 535 L462 564 C431 577 386 592 325 592 C135 592 58 445 58 288 C58 112 128 -8 319 -8 L319 -8 Z " />
<glyph glyph-name="D" unicode="D" horiz-adv-x="589" d="M90 0 L197 0 C392 0 531 100 531 302 C531 517 380 583 192 583 L90 583 L90 0 Z M189 558 C351 558 501 506 501 300 C501 108 365 25 204 25 L119 25 L119 558 L189 558 Z " />
<glyph glyph-name="E" unicode="E" horiz-adv-x="478" d="M90 0 L431 0 L431 25 L119 25 L119 287 L378 287 L378 312 L119 312 L119 558 L424 558 L424 583 L90 583 L90 0 Z " />
<glyph glyph-name="F" unicode="F" horiz-adv-x="443" d="M90 0 L119 0 L119 264 L371 264 L371 290 L119 290 L119 558 L417 558 L417 583 L90 583 L90 0 Z " />
<glyph glyph-name="G" unicode="G" horiz-adv-x="557" d="M317 -8 C384 -8 435 6 488 32 L488 294 L459 294 L459 45 C422 31 387 18 319 18 C181 18 88 86 88 291 C88 467 180 567 324 567 C382 567 430 558 486 532 L486 561 C447 577 401 592 325 592 C135 592 58 445 58 288 C58 112 126 -8 317 -8 L317 -8 Z " />
<glyph glyph-name="H" unicode="H" horiz-adv-x="620" d="M501 0 L530 0 L530 583 L501 583 L501 313 L119 313 L119 583 L90 583 L90 0 L119 0 L119 288 L501 288 L501 0 Z " />
<glyph glyph-name="I" unicode="I" horiz-adv-x="209" d="M90 0 L119 0 L119 583 L90 583 L90 0 Z " />
<glyph glyph-name="J" unicode="J" horiz-adv-x="225" d="M7 -81 C91 6 140 89 140 179 L140 583 L111 583 L111 181 C111 83 49 5 -16 -65 L7 -81 Z " />
<glyph glyph-name="K" unicode="K" horiz-adv-x="487" d="M421 0 L459 0 L183 304 L468 583 L432 583 L157 310 L157 295 L421 0 Z M90 0 L119 0 L119 583 L90 583 L90 0 Z " />
<glyph glyph-name="L" unicode="L" horiz-adv-x="427" d="M90 0 L414 0 L414 25 L119 25 L119 583 L90 583 L90 0 Z " />
<glyph glyph-name="M" unicode="M" horiz-adv-x="730" d="M61 0 L91 0 L125 335 L146 543 L150 543 L224 336 L344 0 L375 0 L503 336 L581 541 L585 541 L606 335 L638 0 L669 0 L608 583 L568 583 L439 239 L364 40 L359 40 L289 238 L165 583 L122 583 L61 0 Z " />
<glyph glyph-name="N" unicode="N" horiz-adv-x="607" d="M90 0 L119 0 L119 543 L120 543 L483 0 L517 0 L517 583 L488 583 L488 43 L487 43 L123 583 L90 583 L90 0 Z " />
<glyph glyph-name="O" unicode="O" horiz-adv-x="610" d="M299 -8 C486 -8 552 152 552 306 C552 449 491 592 315 592 C136 592 58 449 58 282 C58 131 126 -8 299 -8 L299 -8 Z M299 18 C174 18 88 107 88 286 C88 484 185 566 313 566 C438 566 522 479 522 303 C522 115 435 18 299 18 L299 18 Z " />
<glyph glyph-name="P" unicode="P" horiz-adv-x="485" d="M90 0 L119 0 L119 220 L204 220 C364 220 441 301 441 405 C441 528 360 583 243 583 L90 583 L90 0 Z M230 558 C352 557 412 502 412 404 C412 277 298 246 199 245 L119 245 L119 558 L230 558 Z " />
<glyph glyph-name="Q" unicode="Q" horiz-adv-x="610" d="M299 -8 C331 -8 361 -3 386 6 L556 -108 L591 -108 L591 -96 L411 16 C513 67 552 188 552 306 C552 449 491 592 315 592 C136 592 58 449 58 282 C58 131 126 -8 299 -8 L299 -8 Z M299 18 C174 18 88 107 88 286 C88 484 185 566 313 566 C438 566 522 479 522 303 C522 115 435 18 299 18 L299 18 Z " />
<glyph glyph-name="R" unicode="R" horiz-adv-x="515" d="M90 0 L119 0 L119 241 L207 241 C237 241 264 243 288 247 L452 0 L488 0 L316 254 C402 279 444 335 444 414 C444 537 363 583 246 583 L90 583 L90 0 Z M232 558 C354 557 414 515 414 414 C414 287 301 267 202 267 L119 267 L119 558 L232 558 Z " />
<glyph glyph-name="S" unicode="S" horiz-adv-x="443" d="M58 18 C113 0 152 -8 204 -8 C307 -8 394 44 394 153 C394 249 312 285 220 318 C137 349 83 377 83 450 C83 517 136 566 228 566 C275 566 324 555 372 535 L372 564 C332 580 282 592 228 592 C135 592 54 543 54 444 C54 357 123 324 210 292 C296 260 365 232 365 151 C365 65 298 18 205 18 C155 18 102 29 58 48 L58 18 Z " />
<glyph glyph-name="T" unicode="T" horiz-adv-x="495" d="M12 558 L233 558 L233 0 L262 0 L262 558 L483 558 L483 583 L12 583 L12 558 Z " />
<glyph glyph-name="U" unicode="U" horiz-adv-x="593" d="M300 -8 C405 -8 509 65 509 238 L509 583 L480 583 L480 234 C480 92 409 19 302 19 C189 19 113 76 113 221 L113 583 L84 583 L84 216 C84 49 185 -8 300 -8 L300 -8 Z " />
<glyph glyph-name="V" unicode="V" horiz-adv-x="519" d="M497 583 L466 583 L345 268 L257 37 L255 37 L174 269 L65 583 L33 583 L239 0 L270 0 L497 583 Z " />
<glyph glyph-name="W" unicode="W" horiz-adv-x="835" d="M810 583 L779 583 L676 267 L600 33 L597 33 L528 268 L436 583 L402 583 L300 267 L225 33 L223 33 L159 268 L73 583 L41 583 L204 0 L242 0 L355 351 L416 538 L419 538 L474 351 L578 0 L615 0 L810 583 Z " />
<glyph glyph-name="X" unicode="X" horiz-adv-x="490" d="M72 583 L37 583 L228 297 L19 0 L54 0 L242 273 L245 273 L426 0 L462 0 L261 299 L462 583 L427 583 L247 322 L244 322 L72 583 Z " />
<glyph glyph-name="Y" unicode="Y" horiz-adv-x="487" d="M465 583 L434 583 L328 392 L247 249 L244 249 L161 392 L52 583 L20 583 L229 223 L229 0 L258 0 L258 222 L465 583 Z " />
<glyph glyph-name="Z" unicode="Z" horiz-adv-x="457" d="M413 0 L413 25 L71 25 L429 580 L427 583 L47 583 L47 558 L382 558 L27 3 L29 0 L413 0 Z " />
<glyph glyph-name="bracketleft" unicode="&#x5b;" horiz-adv-x="265" d="M82 -181 L223 -181 L223 -158 L108 -158 L108 655 L223 655 L223 679 L82 679 L82 -181 Z " />
<glyph glyph-name="backslash" unicode="&#x5c;" horiz-adv-x="316" d="M65 673 L38 673 L250 -91 L278 -91 L65 673 Z " />
<glyph glyph-name="bracketright" unicode="&#x5d;" horiz-adv-x="265" d="M182 679 L41 679 L41 655 L156 655 L156 -158 L41 -158 L41 -181 L182 -181 L182 679 Z " />
<glyph glyph-name="asciicircum" unicode="&#x5e;" horiz-adv-x="447" d="M40 241 L67 241 L223 560 L224 560 L374 241 L401 241 L240 583 L209 583 L40 241 Z " />
<glyph glyph-name="underscore" unicode="&#x5f;" horiz-adv-x="638" d="M113 -113 L525 -113 L525 -88 L113 -88 L113 -113 Z " />
<glyph glyph-name="grave" unicode="&#x60;" horiz-adv-x="295" d="M219 529 L118 684 L90 684 L193 529 L219 529 Z " />
<glyph glyph-name="a" unicode="a" horiz-adv-x="443" d="M353 0 L381 0 L364 81 L364 335 C364 429 317 459 235 459 C183 459 109 444 70 430 L70 404 C108 418 176 434 232 434 C329 434 337 380 337 320 L337 238 L248 238 C129 238 45 201 45 110 C45 36 83 -8 169 -8 C237 -8 300 30 340 61 L353 0 Z M171 17 C114 17 73 38 73 111 C73 191 148 215 244 215 L337 215 L337 84 C295 54 235 17 171 17 L171 17 Z " />
<glyph glyph-name="b" unicode="b" horiz-adv-x="480" d="M212 -8 C339 -8 427 76 427 246 C427 376 370 459 263 459 C204 459 151 429 104 396 L104 653 L77 653 L77 14 C126 -1 163 -8 212 -8 L212 -8 Z M257 434 C355 434 398 360 398 241 C398 105 335 17 213 17 C171 17 137 23 104 33 L104 372 C141 396 197 434 257 434 L257 434 Z " />
<glyph glyph-name="c" unicode="c" horiz-adv-x="416" d="M246 -8 C293 -8 334 5 369 22 L369 48 C333 31 297 17 249 17 C155 17 81 73 81 222 C81 355 146 434 255 434 C296 434 324 429 369 407 L369 436 C333 452 299 459 256 459 C124 459 53 357 53 220 C53 80 116 -8 246 -8 L246 -8 Z " />
<glyph glyph-name="d" unicode="d" horiz-adv-x="478" d="M388 0 L415 0 L398 92 L398 653 L371 653 L371 443 C334 453 301 459 258 459 C133 459 54 378 54 210 C54 75 112 -8 214 -8 C277 -8 332 32 374 69 L388 0 Z M217 17 C121 17 83 97 83 216 C83 359 141 434 258 434 C302 434 336 426 371 416 L371 93 C328 58 277 17 217 17 L217 17 Z " />
<glyph glyph-name="e" unicode="e" horiz-adv-x="464" d="M250 -8 C315 -8 361 3 401 23 L401 48 C359 27 309 17 252 17 C148 17 82 75 82 218 L82 225 L412 225 L412 244 C412 365 369 459 241 459 C113 459 53 354 53 217 C53 77 114 -8 250 -8 L250 -8 Z M240 434 C355 434 382 340 382 256 L382 248 L83 248 C91 369 148 434 240 434 L240 434 Z " />
<glyph glyph-name="f" unicode="f" horiz-adv-x="270" d="M28 425 L96 425 L96 0 L123 0 L123 425 L253 425 L253 450 L123 450 L123 489 C123 591 169 634 246 634 C273 634 283 633 309 629 L309 653 C293 657 270 659 249 659 C152 659 96 602 96 489 L96 450 L28 450 L28 425 Z " />
<glyph glyph-name="g" unicode="g" horiz-adv-x="444" d="M217 177 C313 177 362 253 362 316 C362 359 349 396 323 422 L441 422 L441 445 L297 441 C275 452 249 459 217 459 C115 459 67 389 67 313 C67 250 95 205 151 186 L68 93 L68 70 L140 61 C85 32 29 -11 29 -79 C29 -160 89 -214 206 -214 C345 -214 408 -125 408 -50 C408 28 360 62 248 73 L96 92 L173 181 C187 178 201 177 217 177 L217 177 Z M240 48 C340 36 382 14 382 -54 C382 -126 317 -190 208 -190 C118 -190 56 -153 56 -77 C56 -14 113 28 170 57 L240 48 Z M217 200 C130 200 94 248 94 314 C95 391 143 435 216 435 C287 435 334 391 334 316 C334 249 284 200 217 200 L217 200 Z " />
<glyph glyph-name="h" unicode="h" horiz-adv-x="502" d="M400 0 L427 0 L427 294 C427 404 406 459 302 459 C221 459 148 411 106 377 L106 653 L79 653 L79 0 L106 0 L106 352 C154 389 223 434 295 434 C389 434 400 380 400 292 L400 0 Z " />
<glyph glyph-name="i" unicode="i" horiz-adv-x="203" d="M24 425 L97 425 L97 0 L124 0 L124 450 L24 450 L24 425 Z M97 577 L124 577 L124 661 L97 661 L97 577 Z " />
<glyph glyph-name="j" unicode="j" horiz-adv-x="203" d="M24 425 L97 425 L97 18 C97 -70 54 -146 13 -201 L33 -214 C84 -155 124 -70 124 21 L124 450 L24 450 L24 425 Z M97 577 L124 577 L124 661 L97 661 L97 577 Z " />
<glyph glyph-name="k" unicode="k" horiz-adv-x="418" d="M352 0 L389 0 L168 252 L395 450 L358 450 L138 257 L138 245 L352 0 Z M79 0 L106 0 L106 653 L79 653 L79 0 Z " />
<glyph glyph-name="l" unicode="l" horiz-adv-x="200" d="M86 0 L114 0 L114 653 L86 653 L86 0 Z " />
<glyph glyph-name="m" unicode="m" horiz-adv-x="789" d="M686 0 L713 0 L713 295 C713 405 700 459 596 459 C517 459 453 415 407 376 C397 431 369 459 295 459 C216 459 152 414 105 376 L91 450 L63 450 L82 350 L82 0 L109 0 L109 353 C156 390 217 434 288 434 C382 434 385 380 385 292 L385 0 L412 0 L412 294 C412 316 411 336 410 353 C457 390 518 434 589 434 C684 434 686 380 686 292 L686 0 Z " />
<glyph glyph-name="n" unicode="n" horiz-adv-x="505" d="M82 0 L109 0 L109 352 C157 389 226 434 298 434 C392 434 403 380 403 292 L403 0 L430 0 L430 295 C430 405 407 459 303 459 C221 459 147 408 105 374 L91 450 L63 450 L82 350 L82 0 Z " />
<glyph glyph-name="o" unicode="o" horiz-adv-x="484" d="M241 -8 C358 -8 431 102 431 225 C431 385 364 459 247 459 C134 459 52 351 52 223 C52 62 134 -8 241 -8 L241 -8 Z M242 17 C150 17 81 76 81 224 C81 350 154 434 245 434 C356 434 403 358 403 223 C403 102 337 17 242 17 L242 17 Z " />
<glyph glyph-name="p" unicode="p" horiz-adv-x="485" d="M82 -207 L109 -207 L109 8 C141 -2 176 -8 217 -8 C348 -8 432 72 432 242 C432 372 378 459 269 459 C200 459 146 415 105 378 L91 450 L63 450 L82 353 L82 -207 Z M262 434 C359 434 403 356 403 237 C403 98 340 17 218 17 C178 17 144 23 109 35 L109 355 C147 388 198 434 262 434 L262 434 Z " />
<glyph glyph-name="q" unicode="q" horiz-adv-x="474" d="M258 459 C136 459 53 375 53 209 C53 72 113 -8 215 -8 C285 -8 332 23 371 57 L371 -207 L398 -207 L398 439 C339 454 309 459 258 459 L258 459 Z M219 17 C122 17 82 93 82 215 C82 356 144 434 259 434 C303 434 335 428 371 417 L371 81 C333 51 291 17 219 17 L219 17 Z " />
<glyph glyph-name="r" unicode="r" horiz-adv-x="325" d="M82 0 L109 0 L109 342 C154 390 201 433 269 433 C282 433 296 431 310 427 L310 454 C294 458 283 459 267 459 C194 459 142 409 106 369 L91 450 L63 450 L82 350 L82 0 Z " />
<glyph glyph-name="s" unicode="s" horiz-adv-x="391" d="M186 -8 C265 -8 345 27 345 124 C345 205 277 227 199 245 C129 261 77 274 77 338 C77 405 134 434 201 434 C245 434 279 428 329 408 L329 436 C290 452 246 459 203 459 C114 459 51 414 51 336 C51 256 114 238 191 219 C263 201 319 186 319 122 C319 59 277 17 189 17 C142 17 104 23 56 44 L56 16 C94 0 133 -8 186 -8 L186 -8 Z " />
<glyph glyph-name="t" unicode="t" horiz-adv-x="314" d="M27 425 L94 425 L94 124 C94 26 141 -8 210 -8 C247 -8 282 -1 304 11 L304 35 C279 24 252 17 216 17 C159 17 122 44 121 129 L121 425 L295 425 L295 450 L121 450 L121 568 L94 568 L94 450 L27 450 L27 425 Z " />
<glyph glyph-name="u" unicode="u" horiz-adv-x="488" d="M407 450 L380 450 L380 99 C331 59 274 17 214 17 C123 17 102 62 102 153 L102 450 L75 450 L75 151 C75 40 105 -8 208 -8 C277 -8 338 36 383 76 L398 0 L426 0 L407 100 L407 450 Z " />
<glyph glyph-name="v" unicode="v" horiz-adv-x="421" d="M190 0 L224 0 L395 450 L365 450 L273 202 L210 33 L206 33 L149 202 L64 450 L33 450 L190 0 Z " />
<glyph glyph-name="w" unicode="w" horiz-adv-x="692" d="M663 450 L633 450 L553 208 L496 32 L493 32 L441 207 L368 450 L335 450 L250 204 L191 32 L187 32 L138 204 L68 450 L36 450 L170 0 L205 0 L297 268 L348 412 L352 412 L395 267 L476 0 L511 0 L663 450 Z " />
<glyph glyph-name="x" unicode="x" horiz-adv-x="430" d="M71 450 L37 450 L200 230 L21 0 L56 0 L215 209 L216 209 L368 0 L403 0 L232 231 L400 450 L367 450 L217 253 L215 253 L71 450 Z " />
<glyph glyph-name="y" unicode="y" horiz-adv-x="420" d="M144 -207 L225 9 L395 450 L365 450 L264 178 L210 33 L206 33 L157 177 L64 450 L33 450 L190 0 L197 0 L116 -204 L119 -207 L144 -207 Z " />
<glyph glyph-name="z" unicode="z" horiz-adv-x="380" d="M31 3 L32 0 L344 0 L344 25 L74 25 L342 448 L340 450 L43 450 L43 425 L297 425 L31 3 Z " />
<glyph glyph-name="braceleft" unicode="&#x7b;" horiz-adv-x="307" d="M247 -179 L267 -178 L266 -156 L244 -156 C167 -156 103 -138 114 -42 L131 142 C137 198 115 242 77 253 C115 266 140 299 132 368 L116 550 C111 642 156 660 244 660 L266 660 L267 681 C267 681 238 682 237 682 C153 684 84 657 90 552 L107 358 C112 309 93 264 42 264 L42 242 C94 242 112 196 107 149 L90 -40 C78 -151 155 -180 247 -179 L247 -179 Z " />
<glyph glyph-name="bar" unicode="&#x7c;" horiz-adv-x="195" d="M84 -92 L111 -92 L111 675 L84 675 L84 -92 Z " />
<glyph glyph-name="braceright" unicode="&#x7d;" horiz-adv-x="307" d="M60 679 L40 678 L41 656 L63 656 C140 656 204 638 193 542 L176 358 C170 302 192 258 230 247 C192 234 167 201 175 132 L191 -50 C196 -142 151 -160 63 -160 L41 -160 L40 -181 C40 -181 69 -182 70 -182 C154 -184 223 -157 217 -52 L200 142 C195 191 214 236 265 236 L265 258 C213 258 195 304 200 351 L217 540 C229 651 152 680 60 679 L60 679 Z " />
<glyph glyph-name="asciitilde" unicode="&#x7e;" horiz-adv-x="509" d="M350 276 C382 276 416 297 438 326 L424 342 C405 321 384 301 352 301 C282 301 247 345 178 345 C134 345 94 319 72 298 L85 280 C101 294 131 320 177 320 C239 320 284 276 350 276 L350 276 Z " />
<glyph glyph-name="uni00A0" unicode="&#xa0;" horiz-adv-x="250" d="" />
<glyph glyph-name="exclamdown" unicode="&#xa1;" horiz-adv-x="193" d="M83 -132 L111 -132 L111 103 L108 234 L86 234 L83 104 L83 -132 Z M83 346 L110 346 L110 457 L83 457 L83 346 Z " />
<glyph glyph-name="cent" unicode="&#xa2;" horiz-adv-x="434" d="M237 -75 L261 -75 L261 -8 C304 -6 341 6 374 22 L374 48 C340 32 305 18 261 17 L261 434 C301 434 329 429 374 407 L374 436 C338 452 304 459 261 459 L261 535 L237 535 L237 458 C120 446 58 348 58 220 C58 85 116 -2 237 -8 L237 -75 Z M237 17 C151 24 86 82 86 222 C86 345 142 422 237 432 L237 17 Z " />
<glyph glyph-name="sterling" unicode="&#xa3;" horiz-adv-x="481" d="M166 165 C166 197 159 235 151 274 L339 274 L339 299 L145 299 C136 343 127 388 127 425 C127 512 176 565 268 565 C324 565 356 558 401 532 L401 561 C363 582 327 591 268 591 C182 591 100 543 100 423 C100 385 108 341 117 299 L56 299 L56 274 L122 274 C131 232 139 192 139 161 C139 117 121 69 90 25 L55 25 L55 0 L426 0 L426 25 L122 25 C149 70 166 116 166 165 L166 165 Z " />
<glyph glyph-name="currency" unicode="&#xa4;" horiz-adv-x="518" d="M75 468 L60 453 L131 382 C106 354 92 314 92 272 C92 227 109 187 136 158 L61 83 L76 68 L150 143 C179 119 218 104 259 104 C301 104 341 120 370 145 L443 72 L457 87 L385 159 C411 188 427 228 427 272 C427 314 413 353 388 382 L457 452 L442 466 L373 397 C343 425 302 441 259 441 C216 441 175 423 145 397 L75 468 Z M116 272 C116 351 175 416 259 416 C343 416 403 349 403 272 C403 194 343 129 259 129 C176 129 116 195 116 272 L116 272 Z " />
<glyph glyph-name="yen" unicode="&#xa5;" horiz-adv-x="552" d="M482 172 L291 172 L291 202 L329 273 L482 273 L482 296 L342 296 L498 583 L467 583 L279 229 L277 229 L85 583 L53 583 L211 296 L71 296 L71 273 L223 273 L262 203 L262 172 L71 172 L71 149 L262 149 L262 0 L291 0 L291 149 L482 149 L482 172 Z " />
<glyph glyph-name="brokenbar" unicode="&#xa6;" horiz-adv-x="199" d="M86 -92 L113 -92 L113 199 L86 199 L86 -92 Z M86 390 L113 390 L113 675 L86 675 L86 390 Z " />
<glyph glyph-name="section" unicode="&#xa7;" horiz-adv-x="488" d="M223 -98 C330 -98 428 -26 428 83 C428 152 410 209 275 337 C240 369 160 437 103 486 C138 539 208 567 269 567 C320 567 384 556 428 534 L428 562 C397 574 347 592 269 592 C162 592 56 520 56 410 C56 343 74 282 206 157 C241 124 321 54 380 5 C348 -46 284 -73 224 -73 C173 -73 108 -62 64 -40 L64 -69 C95 -81 145 -98 223 -98 L223 -98 Z M255 323 C394 191 402 136 402 81 C402 61 398 43 391 26 C330 77 256 142 222 177 C94 300 81 358 81 413 C81 432 84 449 91 464 C148 417 220 354 255 323 L255 323 Z " />
<glyph glyph-name="dieresis" unicode="&#xa8;" horiz-adv-x="377" d="M86 578 L113 578 L113 656 L86 656 L86 578 Z M248 578 L275 578 L275 656 L248 656 L248 578 Z " />
<glyph glyph-name="copyright" unicode="&#xa9;" horiz-adv-x="721" d="M361 -14 C528 -14 664 122 664 289 C664 456 528 592 361 592 C194 592 58 456 58 289 C58 122 194 -14 361 -14 L361 -14 Z M361 3 C211 3 76 130 76 289 C76 451 211 575 361 575 C511 575 646 452 646 289 C646 130 511 3 361 3 L361 3 Z M367 109 C405 109 437 118 455 128 L455 152 C424 137 401 132 368 132 C279 132 230 175 230 289 C230 391 281 449 368 449 C394 449 420 446 455 430 L455 456 C436 464 408 473 370 473 C253 473 204 390 204 288 C204 171 252 109 367 109 L367 109 Z " />
<glyph glyph-name="ordfeminine" unicode="&#xaa;" horiz-adv-x="400" d="M297 274 L321 274 L309 331 L309 506 C309 571 272 592 215 592 C179 592 127 582 100 572 L100 549 C126 559 174 570 213 570 C278 570 286 536 286 494 L286 442 L224 442 C138 442 80 413 80 350 C80 299 109 268 168 268 C217 268 260 295 288 317 L297 274 Z M172 289 C132 289 104 306 104 351 C104 406 155 423 223 423 L286 423 L286 337 C257 316 217 289 172 289 L172 289 Z M72 208 L334 208 L334 229 L72 229 L72 208 Z " />
<glyph glyph-name="guillemotleft" unicode="&#xab;" horiz-adv-x="396" d="M153 46 L179 46 L84 226 L179 405 L153 405 L53 226 L153 46 Z M309 46 L335 46 L240 226 L335 405 L309 405 L209 226 L309 46 Z " />
<glyph glyph-name="logicalnot" unicode="&#xac;" horiz-adv-x="526" d="M425 100 L451 100 L451 314 L85 314 L85 290 L425 290 L425 100 Z " />
<glyph glyph-name="registered" unicode="&#xae;" horiz-adv-x="490" d="M245 268 C351 268 432 348 432 454 C432 560 351 641 245 641 C139 641 58 560 58 454 C58 348 139 268 245 268 L245 268 Z M244 282 C153 282 73 350 73 454 C73 558 154 627 245 627 C336 627 417 558 417 453 C417 347 335 282 244 282 L244 282 Z M181 356 L197 356 L197 439 L228 439 C238 439 247 439 255 441 L311 356 L330 356 L270 444 C299 453 314 473 314 502 C314 545 285 562 242 562 L181 562 L181 356 Z M238 548 C281 548 298 532 298 502 C298 460 261 453 226 453 L197 453 L197 548 L238 548 Z " />
<glyph glyph-name="macron" unicode="&#xaf;" horiz-adv-x="348" d="M53 582 L299 582 L299 608 L53 608 L53 582 Z " />
<glyph glyph-name="degree" unicode="&#xb0;" horiz-adv-x="360" d="M178 359 C254 359 301 411 301 476 C301 542 259 592 184 592 C107 592 59 541 59 475 C59 409 103 359 178 359 L178 359 Z M179 379 C121 379 83 418 83 474 C83 531 124 571 182 571 C240 571 276 533 276 475 C276 420 237 379 179 379 L179 379 Z " />
<glyph glyph-name="plusminus" unicode="&#xb1;" horiz-adv-x="551" d="M81 317 L262 317 L262 144 L286 144 L286 317 L470 317 L470 341 L286 341 L286 522 L262 522 L262 341 L81 341 L81 317 Z M80 52 L471 52 L471 77 L80 77 L80 52 Z " />
<glyph glyph-name="twosuperior" unicode="&#xb2;" horiz-adv-x="249" d="M192 623 C192 555 101 480 20 418 L20 400 L227 400 L227 421 L53 421 L53 422 C124 474 215 552 215 624 C215 685 174 711 118 711 C90 711 57 702 30 683 L30 662 C67 687 90 691 117 691 C167 691 192 666 192 623 L192 623 Z " />
<glyph glyph-name="threesuperior" unicode="&#xb3;" horiz-adv-x="236" d="M99 396 C154 396 208 419 208 486 C208 535 163 560 121 562 L121 563 C141 567 192 592 192 642 C192 686 161 711 110 711 C81 711 53 702 29 684 L29 663 C58 684 80 691 109 691 C149 691 170 671 170 639 C170 601 126 571 85 567 L85 549 C146 547 185 529 185 484 C185 446 160 415 103 415 C78 415 51 420 26 431 L26 410 C42 402 67 396 99 396 L99 396 Z " />
<glyph glyph-name="acute" unicode="&#xb4;" horiz-adv-x="295" d="M129 529 L233 684 L205 684 L104 529 L129 529 Z " />
<glyph glyph-name="mu" unicode="&#xb5;" horiz-adv-x="538" d="M81 -207 L108 -207 L108 42 C126 8 161 -8 217 -8 C282 -8 341 33 385 74 C388 22 402 -7 446 -7 C461 -7 479 -5 500 6 L500 25 C478 17 462 16 451 16 C419 16 411 42 411 87 L411 450 L384 450 L384 99 C337 59 279 18 220 18 C132 18 108 60 108 152 L108 450 L81 450 L81 -207 Z " />
<glyph glyph-name="paragraph" unicode="&#xb6;" horiz-adv-x="540" d="M291 -207 L318 -207 L318 558 L426 558 L426 -207 L454 -207 L454 583 L295 583 C137 583 35 506 35 376 C35 235 146 172 291 168 L291 -207 Z " />
<glyph glyph-name="periodcentered" unicode="&#xb7;" horiz-adv-x="178" d="M76 275 L103 275 L103 353 L76 353 L76 275 Z " />
<glyph glyph-name="cedilla" unicode="&#xb8;" horiz-adv-x="283" d="M156 -215 C231 -215 258 -176 258 -132 C258 -86 206 -62 162 -54 L182 6 L159 6 L136 -61 L136 -71 C198 -79 232 -100 232 -132 C232 -176 198 -193 154 -193 C132 -193 94 -183 79 -172 L79 -196 C96 -206 132 -215 156 -215 L156 -215 Z " />
<glyph glyph-name="onesuperior" unicode="&#xb9;" horiz-adv-x="158" d="M108 400 L108 711 L91 711 L9 682 L9 663 L85 687 L85 400 L108 400 Z " />
<glyph glyph-name="ordmasculine" unicode="&#xba;" horiz-adv-x="416" d="M209 271 C290 271 341 344 341 431 C341 541 294 592 213 592 C134 592 77 519 77 430 C77 318 135 271 209 271 L209 271 Z M74 208 L342 208 L342 229 L74 229 L74 208 Z M209 291 C148 291 103 328 103 430 C103 517 150 571 211 571 C286 571 316 522 316 430 C316 346 273 291 209 291 L209 291 Z " />
<glyph glyph-name="guillemotright" unicode="&#xbb;" horiz-adv-x="396" d="M86 408 L60 408 L155 228 L60 49 L86 49 L186 228 L86 408 Z M243 408 L217 408 L312 228 L217 49 L243 49 L343 228 L243 408 Z " />
<glyph glyph-name="onequarter" unicode="&#xbc;" horiz-adv-x="589" d="M139 267 L139 578 L122 578 L40 549 L40 530 L116 554 L116 267 L139 267 Z M477 0 L500 0 L500 87 L546 87 L546 106 L500 106 L500 311 L478 311 L331 107 L331 87 L477 87 L477 0 Z M354 106 L475 278 L477 278 L477 106 L354 106 Z M125 0 L460 546 L460 547 L436 547 L102 1 L102 0 L125 0 Z " />
<glyph glyph-name="onehalf" unicode="&#xbd;" horiz-adv-x="602" d="M140 267 L140 578 L123 578 L41 549 L41 530 L117 554 L117 267 L140 267 Z M519 223 C519 155 428 80 347 18 L347 0 L554 0 L554 21 L380 21 L380 22 C451 74 542 152 542 224 C542 285 501 311 445 311 C417 311 384 302 357 283 L357 262 C394 287 417 291 444 291 C494 291 519 266 519 223 L519 223 Z M106 0 L441 546 L441 547 L417 547 L83 1 L83 0 L106 0 Z " />
<glyph glyph-name="threequarters" unicode="&#xbe;" horiz-adv-x="604" d="M130 270 C185 270 239 293 239 360 C239 409 194 434 152 436 L152 437 C172 441 223 466 223 516 C223 560 192 585 141 585 C112 585 84 576 60 558 L60 537 C89 558 111 565 140 565 C180 565 201 545 201 513 C201 475 157 445 116 441 L116 423 C177 421 216 403 216 358 C216 320 191 289 134 289 C109 289 82 294 57 305 L57 284 C73 276 98 270 130 270 L130 270 Z M491 0 L514 0 L514 87 L560 87 L560 106 L514 106 L514 311 L492 311 L345 107 L345 87 L491 87 L491 0 Z M368 106 L489 278 L491 278 L491 106 L368 106 Z M151 0 L486 546 L486 547 L462 547 L128 1 L128 0 L151 0 Z " />
<glyph glyph-name="questiondown" unicode="&#xbf;" horiz-adv-x="372" d="M232 258 L205 258 L205 182 C157 165 40 115 40 -1 C40 -99 107 -141 199 -141 C239 -141 291 -132 329 -115 L329 -89 C287 -108 242 -116 200 -116 C121 -116 70 -77 70 -1 C70 110 189 154 232 169 L232 258 Z M232 457 L205 457 L205 346 L232 346 L232 457 Z " />
<glyph glyph-name="Agrave" unicode="&#xc0;" horiz-adv-x="500" d="M21 0 L49 0 L125 203 L368 203 L432 0 L462 0 L273 583 L242 583 L21 0 Z M193 383 L256 551 L258 551 L311 383 L360 228 L135 228 L193 383 Z M273 632 L197 736 L169 736 L248 632 L273 632 Z " />
<glyph glyph-name="Aacute" unicode="&#xc1;" horiz-adv-x="500" d="M21 0 L49 0 L125 203 L368 203 L432 0 L462 0 L273 583 L242 583 L21 0 Z M193 383 L256 551 L258 551 L311 383 L360 228 L135 228 L193 383 Z M270 632 L349 736 L321 736 L245 632 L270 632 Z " />
<glyph glyph-name="Acircumflex" unicode="&#xc2;" horiz-adv-x="500" d="M21 0 L49 0 L125 203 L368 203 L432 0 L462 0 L273 583 L242 583 L21 0 Z M193 383 L256 551 L258 551 L311 383 L360 228 L135 228 L193 383 Z M250 737 L150 627 L178 627 L259 716 L261 716 L340 627 L367 627 L271 737 L250 737 Z " />
<glyph glyph-name="Atilde" unicode="&#xc3;" horiz-adv-x="500" d="M21 0 L49 0 L125 203 L368 203 L432 0 L462 0 L273 583 L242 583 L21 0 Z M193 383 L256 551 L258 551 L311 383 L360 228 L135 228 L193 383 Z M375 708 C358 684 339 672 318 672 C283 672 263 708 216 708 C192 708 170 698 147 676 L158 658 C180 678 193 685 218 685 C256 685 276 650 317 650 C341 650 366 662 388 692 L375 708 Z " />
<glyph glyph-name="Adieresis" unicode="&#xc4;" horiz-adv-x="500" d="M21 0 L49 0 L125 203 L368 203 L432 0 L462 0 L273 583 L242 583 L21 0 Z M193 383 L256 551 L258 551 L311 383 L360 228 L135 228 L193 383 Z M163 638 L190 638 L190 716 L163 716 L163 638 Z M325 638 L352 638 L352 716 L325 716 L325 638 Z " />
<glyph glyph-name="Aring" unicode="&#xc5;" horiz-adv-x="500" d="M21 0 L49 0 L125 203 L368 203 L432 0 L462 0 L273 583 L242 583 L21 0 Z M193 383 L256 551 L258 551 L311 383 L360 228 L135 228 L193 383 Z M261 757 C226 757 191 732 191 692 C191 649 222 625 261 625 C299 625 331 650 331 692 C331 735 298 757 261 757 L261 757 Z M261 644 C229 644 212 664 212 692 C212 722 235 739 261 739 C285 739 310 722 310 692 C310 665 293 644 261 644 L261 644 Z " />
<glyph glyph-name="AE" unicode="&#xc6;" horiz-adv-x="741" d="M353 0 L693 0 L693 25 L382 25 L382 287 L640 287 L640 312 L382 312 L382 558 L686 558 L686 583 L344 583 L13 0 L42 0 L157 203 L353 203 L353 0 Z M171 228 L353 549 L353 228 L171 228 Z " />
<glyph glyph-name="Ccedilla" unicode="&#xc7;" horiz-adv-x="512" d="M304 -214 C379 -214 406 -175 406 -131 C406 -85 354 -61 310 -53 L325 -8 C384 -7 433 7 463 24 L463 51 C411 25 375 18 322 18 C174 18 89 98 89 291 C89 463 179 567 323 567 C365 567 406 562 463 535 L463 564 C432 577 387 592 326 592 C136 592 59 445 59 288 C59 117 124 0 302 -7 L284 -60 L284 -70 C346 -78 380 -99 380 -131 C380 -175 346 -192 302 -192 C280 -192 242 -182 227 -171 L227 -195 C244 -205 280 -214 304 -214 L304 -214 Z " />
<glyph glyph-name="Egrave" unicode="&#xc8;" horiz-adv-x="478" d="M90 0 L431 0 L431 25 L119 25 L119 287 L378 287 L378 312 L119 312 L119 558 L424 558 L424 583 L90 583 L90 0 Z M311 632 L235 736 L207 736 L286 632 L311 632 Z " />
<glyph glyph-name="Eacute" unicode="&#xc9;" horiz-adv-x="478" d="M90 0 L431 0 L431 25 L119 25 L119 287 L378 287 L378 312 L119 312 L119 558 L424 558 L424 583 L90 583 L90 0 Z M237 632 L316 736 L288 736 L212 632 L237 632 Z " />
<glyph glyph-name="Ecircumflex" unicode="&#xca;" horiz-adv-x="478" d="M90 0 L431 0 L431 25 L119 25 L119 287 L378 287 L378 312 L119 312 L119 558 L424 558 L424 583 L90 583 L90 0 Z M252 736 L152 626 L180 626 L261 715 L263 715 L342 626 L369 626 L273 736 L252 736 Z " />
<glyph glyph-name="Edieresis" unicode="&#xcb;" horiz-adv-x="478" d="M90 0 L431 0 L431 25 L119 25 L119 287 L378 287 L378 312 L119 312 L119 558 L424 558 L424 583 L90 583 L90 0 Z M326 639 L353 639 L353 717 L326 717 L326 639 Z M164 639 L191 639 L191 717 L164 717 L164 639 Z " />
<glyph glyph-name="Igrave" unicode="&#xcc;" horiz-adv-x="209" d="M116 632 L40 736 L12 736 L91 632 L116 632 Z M90 0 L119 0 L119 583 L90 583 L90 0 Z " />
<glyph glyph-name="Iacute" unicode="&#xcd;" horiz-adv-x="209" d="M90 0 L119 0 L119 583 L90 583 L90 0 Z M111 632 L190 736 L162 736 L86 632 L111 632 Z " />
<glyph glyph-name="Icircumflex" unicode="&#xce;" horiz-adv-x="209" d="M90 0 L119 0 L119 583 L90 583 L90 0 Z M97 736 L-3 626 L25 626 L106 715 L108 715 L187 626 L214 626 L118 736 L97 736 Z " />
<glyph glyph-name="Idieresis" unicode="&#xcf;" horiz-adv-x="209" d="M90 0 L119 0 L119 583 L90 583 L90 0 Z M11 639 L38 639 L38 717 L11 717 L11 639 Z M173 639 L200 639 L200 717 L173 717 L173 639 Z " />
<glyph glyph-name="Eth" unicode="&#xd0;" horiz-adv-x="591" d="M18 286 L92 286 L92 0 L199 0 C394 0 533 100 533 302 C533 517 382 583 194 583 L92 583 L92 311 L18 311 L18 286 Z M273 286 L273 311 L121 311 L121 558 L191 558 C353 558 503 506 503 300 C503 108 367 25 206 25 L121 25 L121 286 L273 286 Z " />
<glyph glyph-name="Ntilde" unicode="&#xd1;" horiz-adv-x="607" d="M418 708 C401 684 382 672 361 672 C326 672 306 708 259 708 C235 708 213 698 190 676 L201 658 C223 678 236 685 261 685 C299 685 319 650 360 650 C384 650 409 662 431 692 L418 708 Z M90 0 L119 0 L119 543 L120 543 L483 0 L517 0 L517 583 L488 583 L488 43 L487 43 L123 583 L90 583 L90 0 Z " />
<glyph glyph-name="Ograve" unicode="&#xd2;" horiz-adv-x="610" d="M317 632 L241 736 L213 736 L292 632 L317 632 Z M299 -8 C486 -8 552 152 552 306 C552 449 491 592 315 592 C136 592 58 449 58 282 C58 131 126 -8 299 -8 L299 -8 Z M299 18 C174 18 88 107 88 286 C88 484 185 566 313 566 C438 566 522 479 522 303 C522 115 435 18 299 18 L299 18 Z " />
<glyph glyph-name="Oacute" unicode="&#xd3;" horiz-adv-x="610" d="M296 632 L375 736 L347 736 L271 632 L296 632 Z M299 -8 C486 -8 552 152 552 306 C552 449 491 592 315 592 C136 592 58 449 58 282 C58 131 126 -8 299 -8 L299 -8 Z M299 18 C174 18 88 107 88 286 C88 484 185 566 313 566 C438 566 522 479 522 303 C522 115 435 18 299 18 L299 18 Z " />
<glyph glyph-name="Ocircumflex" unicode="&#xd4;" horiz-adv-x="610" d="M299 -8 C486 -8 552 152 552 306 C552 449 491 592 315 592 C136 592 58 449 58 282 C58 131 126 -8 299 -8 L299 -8 Z M299 18 C174 18 88 107 88 286 C88 484 185 566 313 566 C438 566 522 479 522 303 C522 115 435 18 299 18 L299 18 Z M303 737 L203 627 L231 627 L312 716 L314 716 L393 627 L420 627 L324 737 L303 737 Z " />
<glyph glyph-name="Otilde" unicode="&#xd5;" horiz-adv-x="610" d="M419 707 C402 683 383 671 362 671 C327 671 307 707 260 707 C236 707 214 697 191 675 L202 657 C224 677 237 684 262 684 C300 684 320 649 361 649 C385 649 410 661 432 691 L419 707 Z M299 -8 C486 -8 552 152 552 306 C552 449 491 592 315 592 C136 592 58 449 58 282 C58 131 126 -8 299 -8 L299 -8 Z M299 18 C174 18 88 107 88 286 C88 484 185 566 313 566 C438 566 522 479 522 303 C522 115 435 18 299 18 L299 18 Z " />
<glyph glyph-name="Odieresis" unicode="&#xd6;" horiz-adv-x="610" d="M207 638 L234 638 L234 716 L207 716 L207 638 Z M369 638 L396 638 L396 716 L369 716 L369 638 Z M299 -8 C486 -8 552 152 552 306 C552 449 491 592 315 592 C136 592 58 449 58 282 C58 131 126 -8 299 -8 L299 -8 Z M299 18 C174 18 88 107 88 286 C88 484 185 566 313 566 C438 566 522 479 522 303 C522 115 435 18 299 18 L299 18 Z " />
<glyph glyph-name="multiply" unicode="&#xd7;" horiz-adv-x="469" d="M80 123 L235 278 L390 124 L407 141 L252 295 L407 450 L390 467 L235 312 L80 468 L63 451 L218 295 L63 140 L80 123 Z " />
<glyph glyph-name="Oslash" unicode="&#xd8;" horiz-adv-x="610" d="M299 -8 C486 -8 552 152 552 306 C552 381 535 456 493 510 L558 592 L529 592 L478 528 C441 567 388 592 315 592 C136 592 58 449 58 282 C58 203 76 128 118 74 L53 -8 L82 -8 L133 56 C172 16 226 -8 299 -8 L299 -8 Z M88 286 C88 484 185 566 313 566 C373 566 424 546 460 505 L137 97 C106 142 88 204 88 286 L88 286 Z M299 18 C239 18 188 38 151 79 L475 487 C505 443 522 382 522 303 C522 115 435 18 299 18 L299 18 Z " />
<glyph glyph-name="Ugrave" unicode="&#xd9;" horiz-adv-x="593" d="M322 632 L246 736 L218 736 L297 632 L322 632 Z M300 -8 C405 -8 509 65 509 238 L509 583 L480 583 L480 234 C480 92 409 19 302 19 C189 19 113 76 113 221 L113 583 L84 583 L84 216 C84 49 185 -8 300 -8 L300 -8 Z " />
<glyph glyph-name="Uacute" unicode="&#xda;" horiz-adv-x="593" d="M285 632 L364 736 L336 736 L260 632 L285 632 Z M300 -8 C405 -8 509 65 509 238 L509 583 L480 583 L480 234 C480 92 409 19 302 19 C189 19 113 76 113 221 L113 583 L84 583 L84 216 C84 49 185 -8 300 -8 L300 -8 Z " />
<glyph glyph-name="Ucircumflex" unicode="&#xdb;" horiz-adv-x="593" d="M300 -8 C405 -8 509 65 509 238 L509 583 L480 583 L480 234 C480 92 409 19 302 19 C189 19 113 76 113 221 L113 583 L84 583 L84 216 C84 49 185 -8 300 -8 L300 -8 Z M293 736 L193 626 L221 626 L302 715 L304 715 L383 626 L410 626 L314 736 L293 736 Z " />
<glyph glyph-name="Udieresis" unicode="&#xdc;" horiz-adv-x="593" d="M205 638 L232 638 L232 716 L205 716 L205 638 Z M367 638 L394 638 L394 716 L367 716 L367 638 Z M300 -8 C405 -8 509 65 509 238 L509 583 L480 583 L480 234 C480 92 409 19 302 19 C189 19 113 76 113 221 L113 583 L84 583 L84 216 C84 49 185 -8 300 -8 L300 -8 Z " />
<glyph glyph-name="Yacute" unicode="&#xdd;" horiz-adv-x="487" d="M465 583 L434 583 L328 392 L247 249 L244 249 L161 392 L52 583 L20 583 L229 223 L229 0 L258 0 L258 222 L465 583 Z M252 632 L331 736 L303 736 L227 632 L252 632 Z " />
<glyph glyph-name="Thorn" unicode="&#xde;" horiz-adv-x="485" d="M90 0 L119 0 L119 121 L204 121 C364 121 441 202 441 306 C441 429 360 484 243 484 L119 484 L119 583 L90 583 L90 0 Z M230 458 C352 458 412 402 412 305 C412 178 298 147 199 146 L119 146 L119 458 L230 458 Z " />
<glyph glyph-name="germandbls" unicode="&#xdf;" horiz-adv-x="511" d="M261 660 C164 660 79 603 79 490 L79 0 L106 0 L106 490 C106 592 181 635 259 635 C346 635 392 589 392 529 C392 426 224 415 224 322 C224 265 265 239 337 220 C409 201 449 185 449 121 C449 67 417 17 335 17 C301 17 266 20 227 37 L227 9 C264 -4 288 -8 332 -8 C421 -8 475 39 475 122 C475 199 429 223 355 242 C285 261 251 282 251 324 C251 402 420 413 420 531 C420 605 370 660 261 660 L261 660 Z " />
<glyph glyph-name="agrave" unicode="&#xe0;" horiz-adv-x="443" d="M353 0 L381 0 L364 81 L364 335 C364 429 317 459 235 459 C183 459 109 444 70 430 L70 404 C108 418 176 434 232 434 C329 434 337 380 337 320 L337 238 L248 238 C129 238 45 201 45 110 C45 36 83 -8 169 -8 C237 -8 300 30 340 61 L353 0 Z M171 17 C114 17 73 38 73 111 C73 191 148 215 244 215 L337 215 L337 84 C295 54 235 17 171 17 L171 17 Z M257 528 L156 683 L128 683 L231 528 L257 528 Z " />
<glyph glyph-name="aacute" unicode="&#xe1;" horiz-adv-x="443" d="M353 0 L381 0 L364 81 L364 335 C364 429 317 459 235 459 C183 459 109 444 70 430 L70 404 C108 418 176 434 232 434 C329 434 337 380 337 320 L337 238 L248 238 C129 238 45 201 45 110 C45 36 83 -8 169 -8 C237 -8 300 30 340 61 L353 0 Z M171 17 C114 17 73 38 73 111 C73 191 148 215 244 215 L337 215 L337 84 C295 54 235 17 171 17 L171 17 Z M219 529 L323 684 L295 684 L194 529 L219 529 Z " />
<glyph glyph-name="acircumflex" unicode="&#xe2;" horiz-adv-x="443" d="M353 0 L381 0 L364 81 L364 335 C364 429 317 459 235 459 C183 459 109 444 70 430 L70 404 C108 418 176 434 232 434 C329 434 337 380 337 320 L337 238 L248 238 C129 238 45 201 45 110 C45 36 83 -8 169 -8 C237 -8 300 30 340 61 L353 0 Z M171 17 C114 17 73 38 73 111 C73 191 148 215 244 215 L337 215 L337 84 C295 54 235 17 171 17 L171 17 Z M214 676 L104 529 L132 529 L222 655 L224 655 L312 529 L339 529 L235 676 L214 676 Z " />
<glyph glyph-name="atilde" unicode="&#xe3;" horiz-adv-x="443" d="M353 0 L381 0 L364 81 L364 335 C364 429 317 459 235 459 C183 459 109 444 70 430 L70 404 C108 418 176 434 232 434 C329 434 337 380 337 320 L337 238 L248 238 C129 238 45 201 45 110 C45 36 83 -8 169 -8 C237 -8 300 30 340 61 L353 0 Z M171 17 C114 17 73 38 73 111 C73 191 148 215 244 215 L337 215 L337 84 C295 54 235 17 171 17 L171 17 Z M332 618 C315 594 296 583 275 583 C237 583 200 619 157 619 C133 619 111 608 88 586 L99 569 C121 589 134 596 159 596 C197 596 232 560 274 560 C298 560 323 573 345 603 L332 618 Z " />
<glyph glyph-name="adieresis" unicode="&#xe4;" horiz-adv-x="443" d="M353 0 L381 0 L364 81 L364 335 C364 429 317 459 235 459 C183 459 109 444 70 430 L70 404 C108 418 176 434 232 434 C329 434 337 380 337 320 L337 238 L248 238 C129 238 45 201 45 110 C45 36 83 -8 169 -8 C237 -8 300 30 340 61 L353 0 Z M171 17 C114 17 73 38 73 111 C73 191 148 215 244 215 L337 215 L337 84 C295 54 235 17 171 17 L171 17 Z M125 578 L152 578 L152 656 L125 656 L125 578 Z M287 578 L314 578 L314 656 L287 656 L287 578 Z " />
<glyph glyph-name="aring" unicode="&#xe5;" horiz-adv-x="443" d="M353 0 L381 0 L364 81 L364 335 C364 429 317 459 235 459 C183 459 109 444 70 430 L70 404 C108 418 176 434 232 434 C329 434 337 380 337 320 L337 238 L248 238 C129 238 45 201 45 110 C45 36 83 -8 169 -8 C237 -8 300 30 340 61 L353 0 Z M171 17 C114 17 73 38 73 111 C73 191 148 215 244 215 L337 215 L337 84 C295 54 235 17 171 17 L171 17 Z M219 681 C178 681 136 651 136 603 C136 552 173 524 219 524 C264 524 301 553 301 603 C301 654 262 681 219 681 L219 681 Z M219 663 C249 663 281 643 281 603 C281 568 260 542 219 542 C177 542 156 567 156 603 C156 642 188 663 219 663 L219 663 Z " />
<glyph glyph-name="ae" unicode="&#xe6;" horiz-adv-x="746" d="M532 -8 C597 -8 643 3 683 23 L683 48 C641 27 591 17 534 17 C431 17 365 75 365 218 L365 223 L694 223 L694 244 C694 365 651 459 523 459 C444 459 392 420 364 358 C356 434 310 459 235 459 C183 459 109 444 70 430 L70 404 C108 418 176 434 232 434 C329 434 337 380 337 320 L337 239 L248 239 C129 239 45 202 45 111 C45 37 83 -8 169 -8 C259 -8 326 40 368 75 C398 22 451 -8 532 -8 L532 -8 Z M171 17 C114 17 73 39 73 112 C73 192 148 216 244 216 L337 216 C337 168 344 126 359 93 C318 60 253 17 171 17 L171 17 Z M523 434 C637 434 665 340 665 256 L665 247 L366 247 C373 369 431 434 523 434 L523 434 Z " />
<glyph glyph-name="ccedilla" unicode="&#xe7;" horiz-adv-x="417" d="M236 -214 C311 -214 338 -175 338 -131 C338 -85 286 -61 242 -53 L257 -8 C299 -6 336 6 369 22 L369 48 C333 31 297 17 249 17 C155 17 81 73 81 222 C81 355 146 434 255 434 C296 434 324 429 369 407 L369 436 C333 452 299 459 256 459 C124 459 53 357 53 220 C53 84 112 -2 234 -8 L216 -60 L216 -70 C278 -78 312 -99 312 -131 C312 -175 278 -192 234 -192 C212 -192 174 -182 159 -171 L159 -195 C176 -205 212 -214 236 -214 L236 -214 Z " />
<glyph glyph-name="egrave" unicode="&#xe8;" horiz-adv-x="464" d="M250 -8 C315 -8 361 3 401 23 L401 48 C359 27 309 17 252 17 C148 17 82 75 82 218 L82 225 L412 225 L412 244 C412 365 369 459 241 459 C113 459 53 354 53 217 C53 77 114 -8 250 -8 L250 -8 Z M240 434 C355 434 382 340 382 256 L382 248 L83 248 C91 369 148 434 240 434 L240 434 Z M263 529 L162 684 L134 684 L237 529 L263 529 Z " />
<glyph glyph-name="eacute" unicode="&#xe9;" horiz-adv-x="464" d="M250 -8 C315 -8 361 3 401 23 L401 48 C359 27 309 17 252 17 C148 17 82 75 82 218 L82 225 L412 225 L412 244 C412 365 369 459 241 459 C113 459 53 354 53 217 C53 77 114 -8 250 -8 L250 -8 Z M240 434 C355 434 382 340 382 256 L382 248 L83 248 C91 369 148 434 240 434 L240 434 Z M237 529 L341 684 L313 684 L212 529 L237 529 Z " />
<glyph glyph-name="ecircumflex" unicode="&#xea;" horiz-adv-x="464" d="M250 -8 C315 -8 361 3 401 23 L401 48 C359 27 309 17 252 17 C148 17 82 75 82 218 L82 225 L412 225 L412 244 C412 365 369 459 241 459 C113 459 53 354 53 217 C53 77 114 -8 250 -8 L250 -8 Z M240 434 C355 434 382 340 382 256 L382 248 L83 248 C91 369 148 434 240 434 L240 434 Z M240 676 L130 529 L158 529 L248 655 L250 655 L338 529 L365 529 L261 676 L240 676 Z " />
<glyph glyph-name="edieresis" unicode="&#xeb;" horiz-adv-x="464" d="M250 -8 C315 -8 361 3 401 23 L401 48 C359 27 309 17 252 17 C148 17 82 75 82 218 L82 225 L412 225 L412 244 C412 365 369 459 241 459 C113 459 53 354 53 217 C53 77 114 -8 250 -8 L250 -8 Z M240 434 C355 434 382 340 382 256 L382 248 L83 248 C91 369 148 434 240 434 L240 434 Z M305 578 L332 578 L332 656 L305 656 L305 578 Z M143 578 L170 578 L170 656 L143 656 L143 578 Z " />
<glyph glyph-name="igrave" unicode="&#xec;" horiz-adv-x="203" d="M24 425 L97 425 L97 0 L124 0 L124 450 L24 450 L24 425 Z M139 529 L38 684 L10 684 L113 529 L139 529 Z " />
<glyph glyph-name="iacute" unicode="&#xed;" horiz-adv-x="203" d="M24 425 L97 425 L97 0 L124 0 L124 450 L24 450 L24 425 Z M107 529 L211 684 L183 684 L82 529 L107 529 Z " />
<glyph glyph-name="icircumflex" unicode="&#xee;" horiz-adv-x="203" d="M24 425 L97 425 L97 0 L124 0 L124 450 L24 450 L24 425 Z M99 676 L-11 529 L17 529 L107 655 L109 655 L197 529 L224 529 L120 676 L99 676 Z " />
<glyph glyph-name="idieresis" unicode="&#xef;" horiz-adv-x="203" d="M24 425 L97 425 L97 0 L124 0 L124 450 L24 450 L24 425 Z M177 578 L204 578 L204 656 L177 656 L177 578 Z M15 578 L42 578 L42 656 L15 656 L15 578 Z " />
<glyph glyph-name="eth" unicode="&#xf0;" horiz-adv-x="490" d="M199 497 L286 572 C325 534 353 488 379 422 C339 448 297 459 256 459 C142 459 52 360 52 223 C52 62 133 -8 241 -8 C357 -8 431 102 431 225 C431 364 408 492 306 589 L396 665 L380 683 L289 604 C258 630 220 654 175 675 L160 654 C204 633 239 612 269 587 L182 513 L199 497 Z M402 223 C402 102 336 17 241 17 C149 17 80 76 80 224 C80 349 155 434 257 434 C300 434 345 419 387 390 C395 343 402 284 402 223 L402 223 Z " />
<glyph glyph-name="ntilde" unicode="&#xf1;" horiz-adv-x="505" d="M82 0 L109 0 L109 352 C157 389 226 434 298 434 C392 434 403 380 403 292 L403 0 L430 0 L430 295 C430 405 407 459 303 459 C221 459 147 408 105 374 L91 450 L63 450 L82 350 L82 0 Z M365 618 C348 594 329 583 308 583 C270 583 233 619 190 619 C166 619 144 608 121 586 L132 569 C154 589 167 596 192 596 C230 596 265 560 307 560 C331 560 356 573 378 603 L365 618 Z " />
<glyph glyph-name="ograve" unicode="&#xf2;" horiz-adv-x="484" d="M241 -8 C358 -8 431 102 431 225 C431 385 364 459 247 459 C134 459 52 351 52 223 C52 62 134 -8 241 -8 L241 -8 Z M242 17 C150 17 81 76 81 224 C81 350 154 434 245 434 C356 434 403 358 403 223 C403 102 337 17 242 17 L242 17 Z M267 529 L166 684 L138 684 L241 529 L267 529 Z " />
<glyph glyph-name="oacute" unicode="&#xf3;" horiz-adv-x="484" d="M240 529 L344 684 L316 684 L215 529 L240 529 Z M241 -8 C358 -8 431 102 431 225 C431 385 364 459 247 459 C134 459 52 351 52 223 C52 62 134 -8 241 -8 L241 -8 Z M242 17 C150 17 81 76 81 224 C81 350 154 434 245 434 C356 434 403 358 403 223 C403 102 337 17 242 17 L242 17 Z " />
<glyph glyph-name="ocircumflex" unicode="&#xf4;" horiz-adv-x="484" d="M238 671 L128 524 L156 524 L246 650 L248 650 L336 524 L363 524 L259 671 L238 671 Z M241 -8 C358 -8 431 102 431 225 C431 385 364 459 247 459 C134 459 52 351 52 223 C52 62 134 -8 241 -8 L241 -8 Z M242 17 C150 17 81 76 81 224 C81 350 154 434 245 434 C356 434 403 358 403 223 C403 102 337 17 242 17 L242 17 Z " />
<glyph glyph-name="otilde" unicode="&#xf5;" horiz-adv-x="484" d="M241 -8 C358 -8 431 102 431 225 C431 385 364 459 247 459 C134 459 52 351 52 223 C52 62 134 -8 241 -8 L241 -8 Z M242 17 C150 17 81 76 81 224 C81 350 154 434 245 434 C356 434 403 358 403 223 C403 102 337 17 242 17 L242 17 Z M361 618 C344 594 325 583 304 583 C266 583 229 619 186 619 C162 619 140 608 117 586 L128 569 C150 589 163 596 188 596 C226 596 261 560 303 560 C327 560 352 573 374 603 L361 618 Z " />
<glyph glyph-name="odieresis" unicode="&#xf6;" horiz-adv-x="484" d="M152 578 L179 578 L179 656 L152 656 L152 578 Z M314 578 L341 578 L341 656 L314 656 L314 578 Z M241 -8 C358 -8 431 102 431 225 C431 385 364 459 247 459 C134 459 52 351 52 223 C52 62 134 -8 241 -8 L241 -8 Z M242 17 C150 17 81 76 81 224 C81 350 154 434 245 434 C356 434 403 358 403 223 C403 102 337 17 242 17 L242 17 Z " />
<glyph glyph-name="divide" unicode="&#xf7;" horiz-adv-x="536" d="M73 282 L464 282 L464 306 L73 306 L73 282 Z M256 418 L283 418 L283 496 L256 496 L256 418 Z M256 93 L283 93 L283 171 L256 171 L256 93 Z " />
<glyph glyph-name="oslash" unicode="&#xf8;" horiz-adv-x="485" d="M241 -8 C358 -8 431 102 431 225 C431 301 416 358 387 397 L435 459 L411 459 L374 411 C343 443 300 459 247 459 C134 459 52 351 52 223 C52 148 69 93 99 56 L49 -8 L73 -8 L111 41 C145 7 190 -8 241 -8 L241 -8 Z M242 17 C196 17 157 31 128 63 L369 374 C392 338 403 287 403 223 C403 102 337 17 242 17 L242 17 Z M81 224 C81 350 154 434 245 434 C295 434 332 418 357 389 L116 78 C94 111 81 159 81 224 L81 224 Z " />
<glyph glyph-name="ugrave" unicode="&#xf9;" horiz-adv-x="488" d="M407 450 L380 450 L380 99 C331 59 274 17 214 17 C123 17 102 62 102 153 L102 450 L75 450 L75 151 C75 40 105 -8 208 -8 C277 -8 338 36 383 76 L398 0 L426 0 L407 100 L407 450 Z M267 529 L166 684 L138 684 L241 529 L267 529 Z " />
<glyph glyph-name="uacute" unicode="&#xfa;" horiz-adv-x="488" d="M407 450 L380 450 L380 99 C331 59 274 17 214 17 C123 17 102 62 102 153 L102 450 L75 450 L75 151 C75 40 105 -8 208 -8 C277 -8 338 36 383 76 L398 0 L426 0 L407 100 L407 450 Z M236 529 L340 684 L312 684 L211 529 L236 529 Z " />
<glyph glyph-name="ucircumflex" unicode="&#xfb;" horiz-adv-x="488" d="M407 450 L380 450 L380 99 C331 59 274 17 214 17 C123 17 102 62 102 153 L102 450 L75 450 L75 151 C75 40 105 -8 208 -8 C277 -8 338 36 383 76 L398 0 L426 0 L407 100 L407 450 Z M235 676 L125 529 L153 529 L243 655 L245 655 L333 529 L360 529 L256 676 L235 676 Z " />
<glyph glyph-name="udieresis" unicode="&#xfc;" horiz-adv-x="488" d="M407 450 L380 450 L380 99 C331 59 274 17 214 17 C123 17 102 62 102 153 L102 450 L75 450 L75 151 C75 40 105 -8 208 -8 C277 -8 338 36 383 76 L398 0 L426 0 L407 100 L407 450 Z M302 578 L329 578 L329 656 L302 656 L302 578 Z M140 578 L167 578 L167 656 L140 656 L140 578 Z " />
<glyph glyph-name="yacute" unicode="&#xfd;" horiz-adv-x="420" d="M144 -207 L225 9 L395 450 L365 450 L264 178 L210 33 L206 33 L157 177 L64 450 L33 450 L190 0 L197 0 L116 -204 L119 -207 L144 -207 Z M215 529 L319 684 L291 684 L190 529 L215 529 Z " />
<glyph glyph-name="thorn" unicode="&#xfe;" horiz-adv-x="482" d="M79 -207 L106 -207 L106 8 C138 -2 173 -8 214 -8 C345 -8 429 72 429 242 C429 372 375 459 266 459 C200 459 147 418 106 382 L106 653 L79 653 L79 -207 Z M259 434 C356 434 400 356 400 237 C400 98 337 17 215 17 C175 17 141 23 106 35 L106 355 C144 387 195 434 259 434 L259 434 Z " />
<glyph glyph-name="ydieresis" unicode="&#xff;" horiz-adv-x="420" d="M144 -207 L225 9 L395 450 L365 450 L264 178 L210 33 L206 33 L157 177 L64 450 L33 450 L190 0 L197 0 L116 -204 L119 -207 L144 -207 Z M283 579 L310 579 L310 657 L283 657 L283 579 Z M121 579 L148 579 L148 657 L121 657 L121 579 Z " />
<glyph glyph-name="Amacron" unicode="&#x100;" horiz-adv-x="500" d="M21 0 L49 0 L125 203 L368 203 L432 0 L462 0 L273 583 L242 583 L21 0 Z M193 383 L256 551 L258 551 L311 383 L360 228 L135 228 L193 383 Z M164 670 L362 670 L362 694 L164 694 L164 670 Z " />
<glyph glyph-name="amacron" unicode="&#x101;" horiz-adv-x="443" d="M353 0 L381 0 L364 81 L364 335 C364 429 317 459 235 459 C183 459 109 444 70 430 L70 404 C108 418 176 434 232 434 C329 434 337 380 337 320 L337 238 L248 238 C129 238 45 201 45 110 C45 36 83 -8 169 -8 C237 -8 300 30 340 61 L353 0 Z M171 17 C114 17 73 38 73 111 C73 191 148 215 244 215 L337 215 L337 84 C295 54 235 17 171 17 L171 17 Z M93 582 L339 582 L339 608 L93 608 L93 582 Z " />
<glyph glyph-name="Abreve" unicode="&#x102;" horiz-adv-x="500" d="M21 0 L49 0 L125 203 L368 203 L432 0 L462 0 L273 583 L242 583 L21 0 Z M193 383 L256 551 L258 551 L311 383 L360 228 L135 228 L193 383 Z M259 663 C211 663 183 688 176 723 L154 719 C165 665 203 639 259 639 C314 639 355 663 366 720 L344 724 C337 688 312 663 259 663 L259 663 Z " />
<glyph glyph-name="abreve" unicode="&#x103;" horiz-adv-x="443" d="M353 0 L381 0 L364 81 L364 335 C364 429 317 459 235 459 C183 459 109 444 70 430 L70 404 C108 418 176 434 232 434 C329 434 337 380 337 320 L337 238 L248 238 C129 238 45 201 45 110 C45 36 83 -8 169 -8 C237 -8 300 30 340 61 L353 0 Z M171 17 C114 17 73 38 73 111 C73 191 148 215 244 215 L337 215 L337 84 C295 54 235 17 171 17 L171 17 Z M216 556 C158 556 140 599 133 634 L111 630 C122 576 149 534 216 534 C282 534 312 574 323 631 L301 635 C294 599 277 556 216 556 L216 556 Z " />
<glyph glyph-name="Aogonek" unicode="&#x104;" horiz-adv-x="500" d="M486 -190 L486 -168 C463 -180 439 -186 415 -186 C385 -186 344 -170 344 -115 C344 -67 394 -25 440 0 L462 0 L273 583 L242 583 L21 0 L49 0 L125 203 L368 203 L428 12 C379 -10 317 -58 317 -117 C317 -181 359 -209 413 -209 C435 -209 464 -202 486 -190 L486 -190 Z M193 383 L256 551 L258 551 L311 383 L360 228 L135 228 L193 383 Z " />
<glyph glyph-name="aogonek" unicode="&#x105;" horiz-adv-x="443" d="M408 -190 L408 -168 C385 -180 361 -186 337 -186 C307 -186 266 -170 266 -115 C266 -67 316 -25 362 0 L381 0 L364 81 L364 335 C364 429 317 459 235 459 C183 459 109 444 70 430 L70 404 C108 418 176 434 232 434 C329 434 337 380 337 320 L337 238 L248 238 C129 238 45 201 45 110 C45 36 83 -8 169 -8 C237 -8 300 30 340 61 L350 12 C301 -10 239 -58 239 -117 C239 -181 281 -209 335 -209 C357 -209 386 -202 408 -190 L408 -190 Z M171 17 C114 17 73 38 73 111 C73 191 148 215 244 215 L337 215 L337 84 C295 54 235 17 171 17 L171 17 Z " />
<glyph glyph-name="Cacute" unicode="&#x106;" horiz-adv-x="511" d="M319 -8 C381 -8 431 7 462 24 L462 51 C410 25 374 18 321 18 C173 18 88 98 88 291 C88 463 178 567 322 567 C364 567 405 562 462 535 L462 564 C431 577 386 592 325 592 C135 592 58 445 58 288 C58 112 128 -8 319 -8 L319 -8 Z M310 632 L389 736 L361 736 L285 632 L310 632 Z " />
<glyph glyph-name="cacute" unicode="&#x107;" horiz-adv-x="416" d="M239 529 L343 684 L315 684 L214 529 L239 529 Z M246 -8 C293 -8 334 5 369 22 L369 48 C333 31 297 17 249 17 C155 17 81 73 81 222 C81 355 146 434 255 434 C296 434 324 429 369 407 L369 436 C333 452 299 459 256 459 C124 459 53 357 53 220 C53 80 116 -8 246 -8 L246 -8 Z " />
<glyph glyph-name="Ccircumflex" unicode="&#x108;" horiz-adv-x="511" d="M319 -8 C381 -8 431 7 462 24 L462 51 C410 25 374 18 321 18 C173 18 88 98 88 291 C88 463 178 567 322 567 C364 567 405 562 462 535 L462 564 C431 577 386 592 325 592 C135 592 58 445 58 288 C58 112 128 -8 319 -8 L319 -8 Z M303 736 L203 626 L231 626 L312 715 L314 715 L393 626 L420 626 L324 736 L303 736 Z " />
<glyph glyph-name="ccircumflex" unicode="&#x109;" horiz-adv-x="416" d="M240 676 L130 529 L158 529 L248 655 L250 655 L338 529 L365 529 L261 676 L240 676 Z M246 -8 C293 -8 334 5 369 22 L369 48 C333 31 297 17 249 17 C155 17 81 73 81 222 C81 355 146 434 255 434 C296 434 324 429 369 407 L369 436 C333 452 299 459 256 459 C124 459 53 357 53 220 C53 80 116 -8 246 -8 L246 -8 Z " />
<glyph glyph-name="Cdotaccent" unicode="&#x10a;" horiz-adv-x="511" d="M300 644 L327 644 L327 722 L300 722 L300 644 Z M319 -8 C381 -8 431 7 462 24 L462 51 C410 25 374 18 321 18 C173 18 88 98 88 291 C88 463 178 567 322 567 C364 567 405 562 462 535 L462 564 C431 577 386 592 325 592 C135 592 58 445 58 288 C58 112 128 -8 319 -8 L319 -8 Z " />
<glyph glyph-name="cdotaccent" unicode="&#x10b;" horiz-adv-x="416" d="M246 -8 C293 -8 334 5 369 22 L369 48 C333 31 297 17 249 17 C155 17 81 73 81 222 C81 355 146 434 255 434 C296 434 324 429 369 407 L369 436 C333 452 299 459 256 459 C124 459 53 357 53 220 C53 80 116 -8 246 -8 L246 -8 Z M227 578 L254 578 L254 656 L227 656 L227 578 Z " />
<glyph glyph-name="Ccaron" unicode="&#x10c;" horiz-adv-x="511" d="M319 -8 C381 -8 431 7 462 24 L462 51 C410 25 374 18 321 18 C173 18 88 98 88 291 C88 463 178 567 322 567 C364 567 405 562 462 535 L462 564 C431 577 386 592 325 592 C135 592 58 445 58 288 C58 112 128 -8 319 -8 L319 -8 Z M323 626 L423 736 L395 736 L315 647 L313 647 L233 736 L205 736 L303 626 L323 626 Z " />
<glyph glyph-name="ccaron" unicode="&#x10d;" horiz-adv-x="416" d="M254 529 L361 676 L333 676 L245 550 L243 550 L153 676 L126 676 L233 529 L254 529 Z M246 -8 C293 -8 334 5 369 22 L369 48 C333 31 297 17 249 17 C155 17 81 73 81 222 C81 355 146 434 255 434 C296 434 324 429 369 407 L369 436 C333 452 299 459 256 459 C124 459 53 357 53 220 C53 80 116 -8 246 -8 L246 -8 Z " />
<glyph glyph-name="Dcaron" unicode="&#x10e;" horiz-adv-x="589" d="M90 0 L197 0 C392 0 531 100 531 302 C531 517 380 583 192 583 L90 583 L90 0 Z M189 558 C351 558 501 506 501 300 C501 108 365 25 204 25 L119 25 L119 558 L189 558 Z M250 624 L350 734 L322 734 L242 645 L240 645 L160 734 L132 734 L230 624 L250 624 Z " />
<glyph glyph-name="dcaron" unicode="&#x10f;" horiz-adv-x="480" d="M388 0 L415 0 L398 92 L398 653 L371 653 L371 443 C334 453 301 459 258 459 C133 459 54 378 54 210 C54 75 112 -8 214 -8 C277 -8 332 32 374 69 L388 0 Z M217 17 C121 17 83 97 83 216 C83 359 141 434 258 434 C302 434 336 426 371 416 L371 93 C328 58 277 17 217 17 L217 17 Z M475 481 L497 481 L519 655 L491 655 L475 481 Z " />
<glyph glyph-name="Dcroat" unicode="&#x110;" horiz-adv-x="591" d="M18 286 L92 286 L92 0 L199 0 C394 0 533 100 533 302 C533 517 382 583 194 583 L92 583 L92 311 L18 311 L18 286 Z M273 286 L273 311 L121 311 L121 558 L191 558 C353 558 503 506 503 300 C503 108 367 25 206 25 L121 25 L121 286 L273 286 Z " />
<glyph glyph-name="dcroat" unicode="&#x111;" horiz-adv-x="478" d="M198 538 L371 538 L371 443 C334 453 301 459 258 459 C133 459 54 378 54 210 C54 75 112 -8 214 -8 C277 -8 332 32 374 69 L388 0 L415 0 L398 92 L398 538 L466 538 L466 563 L398 563 L398 653 L371 653 L371 563 L198 563 L198 538 Z M217 17 C121 17 83 97 83 216 C83 359 141 434 258 434 C302 434 336 426 371 416 L371 93 C328 58 277 17 217 17 L217 17 Z " />
<glyph glyph-name="Emacron" unicode="&#x112;" horiz-adv-x="478" d="M90 0 L431 0 L431 25 L119 25 L119 287 L378 287 L378 312 L119 312 L119 558 L424 558 L424 583 L90 583 L90 0 Z M161 671 L359 671 L359 695 L161 695 L161 671 Z " />
<glyph glyph-name="emacron" unicode="&#x113;" horiz-adv-x="464" d="M250 -8 C315 -8 361 3 401 23 L401 48 C359 27 309 17 252 17 C148 17 82 75 82 218 L82 225 L412 225 L412 244 C412 365 369 459 241 459 C113 459 53 354 53 217 C53 77 114 -8 250 -8 L250 -8 Z M240 434 C355 434 382 340 382 256 L382 248 L83 248 C91 369 148 434 240 434 L240 434 Z M122 582 L368 582 L368 608 L122 608 L122 582 Z " />
<glyph glyph-name="Ebreve" unicode="&#x114;" horiz-adv-x="478" d="M90 0 L431 0 L431 25 L119 25 L119 287 L378 287 L378 312 L119 312 L119 558 L424 558 L424 583 L90 583 L90 0 Z M266 663 C218 663 190 688 183 723 L161 719 C172 665 210 639 266 639 C321 639 362 663 373 720 L351 724 C344 688 319 663 266 663 L266 663 Z " />
<glyph glyph-name="ebreve" unicode="&#x115;" horiz-adv-x="464" d="M250 -8 C315 -8 361 3 401 23 L401 48 C359 27 309 17 252 17 C148 17 82 75 82 218 L82 225 L412 225 L412 244 C412 365 369 459 241 459 C113 459 53 354 53 217 C53 77 114 -8 250 -8 L250 -8 Z M240 434 C355 434 382 340 382 256 L382 248 L83 248 C91 369 148 434 240 434 L240 434 Z M238 556 C180 556 162 599 155 634 L133 630 C144 576 171 534 238 534 C304 534 334 574 345 631 L323 635 C316 599 299 556 238 556 L238 556 Z " />
<glyph glyph-name="Edotaccent" unicode="&#x116;" horiz-adv-x="478" d="M90 0 L431 0 L431 25 L119 25 L119 287 L378 287 L378 312 L119 312 L119 558 L424 558 L424 583 L90 583 L90 0 Z M252 643 L279 643 L279 721 L252 721 L252 643 Z " />
<glyph glyph-name="edotaccent" unicode="&#x117;" horiz-adv-x="464" d="M250 -8 C315 -8 361 3 401 23 L401 48 C359 27 309 17 252 17 C148 17 82 75 82 218 L82 225 L412 225 L412 244 C412 365 369 459 241 459 C113 459 53 354 53 217 C53 77 114 -8 250 -8 L250 -8 Z M240 434 C355 434 382 340 382 256 L382 248 L83 248 C91 369 148 434 240 434 L240 434 Z M216 578 L243 578 L243 656 L216 656 L216 578 Z " />
<glyph glyph-name="Eogonek" unicode="&#x118;" horiz-adv-x="478" d="M90 0 L371 0 C328 -25 284 -67 284 -117 C284 -181 326 -209 380 -209 C402 -209 431 -202 453 -190 L453 -168 C430 -180 406 -186 382 -186 C352 -186 311 -170 311 -115 C311 -67 361 -25 407 0 L431 0 L431 25 L119 25 L119 287 L378 287 L378 312 L119 312 L119 558 L424 558 L424 583 L90 583 L90 0 Z " />
<glyph glyph-name="eogonek" unicode="&#x119;" horiz-adv-x="464" d="M250 -8 C260 -8 269 -8 278 -7 C239 -33 203 -72 203 -117 C203 -181 245 -209 299 -209 C321 -209 350 -202 372 -190 L372 -168 C349 -180 325 -186 301 -186 C271 -186 230 -170 230 -115 C230 -68 277 -28 322 -2 C352 2 377 11 401 23 L401 48 C359 27 309 17 252 17 C148 17 82 75 82 218 L82 225 L412 225 L412 244 C412 365 369 459 241 459 C113 459 53 354 53 217 C53 77 114 -8 250 -8 L250 -8 Z M240 434 C355 434 382 340 382 256 L382 248 L83 248 C91 369 148 434 240 434 L240 434 Z " />
<glyph glyph-name="Ecaron" unicode="&#x11a;" horiz-adv-x="478" d="M90 0 L431 0 L431 25 L119 25 L119 287 L378 287 L378 312 L119 312 L119 558 L424 558 L424 583 L90 583 L90 0 Z M268 626 L368 736 L340 736 L260 647 L258 647 L178 736 L150 736 L248 626 L268 626 Z " />
<glyph glyph-name="ecaron" unicode="&#x11b;" horiz-adv-x="464" d="M250 -8 C315 -8 361 3 401 23 L401 48 C359 27 309 17 252 17 C148 17 82 75 82 218 L82 225 L412 225 L412 244 C412 365 369 459 241 459 C113 459 53 354 53 217 C53 77 114 -8 250 -8 L250 -8 Z M240 434 C355 434 382 340 382 256 L382 248 L83 248 C91 369 148 434 240 434 L240 434 Z M248 529 L355 676 L327 676 L239 550 L237 550 L147 676 L120 676 L227 529 L248 529 Z " />
<glyph glyph-name="Gcircumflex" unicode="&#x11c;" horiz-adv-x="557" d="M317 -8 C384 -8 435 6 488 32 L488 294 L459 294 L459 45 C422 31 387 18 319 18 C181 18 88 86 88 291 C88 467 180 567 324 567 C382 567 430 558 486 532 L486 561 C447 577 401 592 325 592 C135 592 58 445 58 288 C58 112 126 -8 317 -8 L317 -8 Z M312 736 L212 626 L240 626 L321 715 L323 715 L402 626 L429 626 L333 736 L312 736 Z " />
<glyph glyph-name="gcircumflex" unicode="&#x11d;" horiz-adv-x="444" d="M217 177 C313 177 362 253 362 316 C362 359 349 396 323 422 L441 422 L441 445 L297 441 C275 452 249 459 217 459 C115 459 67 389 67 313 C67 250 95 205 151 186 L68 93 L68 70 L140 61 C85 32 29 -11 29 -79 C29 -160 89 -214 206 -214 C345 -214 408 -125 408 -50 C408 28 360 62 248 73 L96 92 L173 181 C187 178 201 177 217 177 L217 177 Z M240 48 C340 36 382 14 382 -54 C382 -126 317 -190 208 -190 C118 -190 56 -153 56 -77 C56 -14 113 28 170 57 L240 48 Z M217 200 C130 200 94 248 94 314 C95 391 143 435 216 435 C287 435 334 391 334 316 C334 249 284 200 217 200 L217 200 Z M206 676 L96 529 L124 529 L214 655 L216 655 L304 529 L331 529 L227 676 L206 676 Z " />
<glyph glyph-name="Gbreve" unicode="&#x11e;" horiz-adv-x="557" d="M317 -8 C384 -8 435 6 488 32 L488 294 L459 294 L459 45 C422 31 387 18 319 18 C181 18 88 86 88 291 C88 467 180 567 324 567 C382 567 430 558 486 532 L486 561 C447 577 401 592 325 592 C135 592 58 445 58 288 C58 112 126 -8 317 -8 L317 -8 Z M315 662 C267 662 239 687 232 722 L210 718 C221 664 259 638 315 638 C370 638 411 662 422 719 L400 723 C393 687 368 662 315 662 L315 662 Z " />
<glyph glyph-name="gbreve" unicode="&#x11f;" horiz-adv-x="444" d="M217 177 C313 177 362 253 362 316 C362 359 349 396 323 422 L441 422 L441 445 L297 441 C275 452 249 459 217 459 C115 459 67 389 67 313 C67 250 95 205 151 186 L68 93 L68 70 L140 61 C85 32 29 -11 29 -79 C29 -160 89 -214 206 -214 C345 -214 408 -125 408 -50 C408 28 360 62 248 73 L96 92 L173 181 C187 178 201 177 217 177 L217 177 Z M240 48 C340 36 382 14 382 -54 C382 -126 317 -190 208 -190 C118 -190 56 -153 56 -77 C56 -14 113 28 170 57 L240 48 Z M217 200 C130 200 94 248 94 314 C95 391 143 435 216 435 C287 435 334 391 334 316 C334 249 284 200 217 200 L217 200 Z M211 556 C153 556 135 599 128 634 L106 630 C117 576 144 534 211 534 C277 534 307 574 318 631 L296 635 C289 599 272 556 211 556 L211 556 Z " />
<glyph glyph-name="Gdotaccent" unicode="&#x120;" horiz-adv-x="557" d="M317 -8 C384 -8 435 6 488 32 L488 294 L459 294 L459 45 C422 31 387 18 319 18 C181 18 88 86 88 291 C88 467 180 567 324 567 C382 567 430 558 486 532 L486 561 C447 577 401 592 325 592 C135 592 58 445 58 288 C58 112 126 -8 317 -8 L317 -8 Z M304 644 L331 644 L331 722 L304 722 L304 644 Z " />
<glyph glyph-name="gdotaccent" unicode="&#x121;" horiz-adv-x="444" d="M217 177 C313 177 362 253 362 316 C362 359 349 396 323 422 L441 422 L441 445 L297 441 C275 452 249 459 217 459 C115 459 67 389 67 313 C67 250 95 205 151 186 L68 93 L68 70 L140 61 C85 32 29 -11 29 -79 C29 -160 89 -214 206 -214 C345 -214 408 -125 408 -50 C408 28 360 62 248 73 L96 92 L173 181 C187 178 201 177 217 177 L217 177 Z M240 48 C340 36 382 14 382 -54 C382 -126 317 -190 208 -190 C118 -190 56 -153 56 -77 C56 -14 113 28 170 57 L240 48 Z M217 200 C130 200 94 248 94 314 C95 391 143 435 216 435 C287 435 334 391 334 316 C334 249 284 200 217 200 L217 200 Z M195 578 L222 578 L222 656 L195 656 L195 578 Z " />
<glyph glyph-name="Gcommaaccent" unicode="&#x122;" horiz-adv-x="557" d="M317 -8 C384 -8 435 6 488 32 L488 294 L459 294 L459 45 C422 31 387 18 319 18 C181 18 88 86 88 291 C88 467 180 567 324 567 C382 567 430 558 486 532 L486 561 C447 577 401 592 325 592 C135 592 58 445 58 288 C58 112 126 -8 317 -8 L317 -8 Z M295 -204 L316 -204 L343 -62 L316 -62 L295 -204 Z " />
<glyph glyph-name="gcommaaccent" unicode="&#x123;" horiz-adv-x="444" d="M217 177 C313 177 362 253 362 316 C362 359 349 396 323 422 L441 422 L441 445 L297 441 C275 452 249 459 217 459 C115 459 67 389 67 313 C67 250 95 205 151 186 L68 93 L68 70 L140 61 C85 32 29 -11 29 -79 C29 -160 89 -214 206 -214 C345 -214 408 -125 408 -50 C408 28 360 62 248 73 L96 92 L173 181 C187 178 201 177 217 177 L217 177 Z M240 48 C340 36 382 14 382 -54 C382 -126 317 -190 208 -190 C118 -190 56 -153 56 -77 C56 -14 113 28 170 57 L240 48 Z M217 200 C130 200 94 248 94 314 C95 391 143 435 216 435 C287 435 334 391 334 316 C334 249 284 200 217 200 L217 200 Z M240 657 L219 657 L192 513 L219 513 L240 657 Z " />
<glyph glyph-name="Hcircumflex" unicode="&#x124;" horiz-adv-x="620" d="M501 0 L530 0 L530 583 L501 583 L501 313 L119 313 L119 583 L90 583 L90 0 L119 0 L119 288 L501 288 L501 0 Z M307 736 L207 626 L235 626 L316 715 L318 715 L397 626 L424 626 L328 736 L307 736 Z " />
<glyph glyph-name="hcircumflex" unicode="&#x125;" horiz-adv-x="502" d="M400 0 L427 0 L427 294 C427 404 406 459 302 459 C221 459 148 411 106 377 L106 653 L79 653 L79 0 L106 0 L106 352 C154 389 223 434 295 434 C389 434 400 380 400 292 L400 0 Z M83 789 L-17 679 L11 679 L92 768 L94 768 L173 679 L200 679 L104 789 L83 789 Z " />
<glyph glyph-name="Hbar" unicode="&#x126;" horiz-adv-x="621" d="M42 465 L90 465 L90 0 L119 0 L119 288 L501 288 L501 0 L530 0 L530 465 L580 465 L580 489 L530 489 L530 583 L501 583 L501 489 L119 489 L119 583 L90 583 L90 489 L42 489 L42 465 Z M119 465 L501 465 L501 313 L119 313 L119 465 Z " />
<glyph glyph-name="hbar" unicode="&#x127;" horiz-adv-x="502" d="M1 539 L79 539 L79 0 L106 0 L106 352 C154 389 223 434 295 434 C389 434 400 380 400 292 L400 0 L427 0 L427 294 C427 404 406 459 302 459 C221 459 148 411 106 377 L106 539 L268 539 L268 563 L106 563 L106 653 L79 653 L79 563 L1 563 L1 539 Z " />
<glyph glyph-name="Itilde" unicode="&#x128;" horiz-adv-x="209" d="M90 0 L119 0 L119 583 L90 583 L90 0 Z M214 708 C197 684 178 672 157 672 C122 672 102 708 55 708 C31 708 9 698 -14 676 L-3 658 C19 678 32 685 57 685 C95 685 115 650 156 650 C180 650 205 662 227 692 L214 708 Z " />
<glyph glyph-name="itilde" unicode="&#x129;" horiz-adv-x="203" d="M24 425 L97 425 L97 0 L124 0 L124 450 L24 450 L24 425 Z M226 618 C209 594 190 583 169 583 C131 583 94 619 51 619 C27 619 5 608 -18 586 L-7 569 C15 589 28 596 53 596 C91 596 126 560 168 560 C192 560 217 573 239 603 L226 618 Z " />
<glyph glyph-name="Imacron" unicode="&#x12a;" horiz-adv-x="209" d="M90 0 L119 0 L119 583 L90 583 L90 0 Z M7 671 L205 671 L205 695 L7 695 L7 671 Z " />
<glyph glyph-name="imacron" unicode="&#x12b;" horiz-adv-x="203" d="M24 425 L97 425 L97 0 L124 0 L124 450 L24 450 L24 425 Z M-12 582 L234 582 L234 608 L-12 608 L-12 582 Z " />
<glyph glyph-name="Ibreve" unicode="&#x12c;" horiz-adv-x="209" d="M90 0 L119 0 L119 583 L90 583 L90 0 Z M105 663 C57 663 29 688 22 723 L0 719 C11 665 49 639 105 639 C160 639 201 663 212 720 L190 724 C183 688 158 663 105 663 L105 663 Z " />
<glyph glyph-name="ibreve" unicode="&#x12d;" horiz-adv-x="203" d="M24 425 L97 425 L97 0 L124 0 L124 450 L24 450 L24 425 Z M110 556 C52 556 34 599 27 634 L5 630 C16 576 43 534 110 534 C176 534 206 574 217 631 L195 635 C188 599 171 556 110 556 L110 556 Z " />
<glyph glyph-name="Iogonek" unicode="&#x12e;" horiz-adv-x="209" d="M148 -190 L148 -168 C125 -180 101 -186 77 -186 C47 -186 6 -170 6 -115 C6 -67 56 -25 102 0 L119 0 L119 583 L90 583 L90 12 C41 -10 -21 -58 -21 -117 C-21 -181 21 -209 75 -209 C97 -209 126 -202 148 -190 L148 -190 Z " />
<glyph glyph-name="iogonek" unicode="&#x12f;" horiz-adv-x="204" d="M25 425 L98 425 L98 13 C49 -9 -14 -58 -14 -117 C-14 -181 28 -209 82 -209 C104 -209 133 -202 155 -190 L155 -168 C132 -180 108 -186 84 -186 C54 -186 13 -170 13 -115 C13 -67 63 -25 109 0 L125 0 L125 450 L25 450 L25 425 Z M100 578 L127 578 L127 656 L100 656 L100 578 Z " />
<glyph glyph-name="Idotaccent" unicode="&#x130;" horiz-adv-x="209" d="M91 644 L118 644 L118 722 L91 722 L91 644 Z M90 0 L119 0 L119 583 L90 583 L90 0 Z " />
<glyph glyph-name="dotlessi" unicode="&#x131;" horiz-adv-x="203" d="M24 425 L97 425 L97 0 L124 0 L124 450 L24 450 L24 425 Z " />
<glyph glyph-name="IJ" unicode="&#x132;" horiz-adv-x="434" d="M90 0 L119 0 L119 583 L90 583 L90 0 Z M215 -81 C299 6 348 89 348 179 L348 583 L319 583 L319 181 C319 83 257 5 192 -65 L215 -81 Z " />
<glyph glyph-name="ij" unicode="&#x133;" horiz-adv-x="405" d="M226 425 L299 425 L299 18 C299 -70 256 -146 215 -201 L235 -214 C286 -155 326 -70 326 21 L326 450 L226 450 L226 425 Z M24 425 L97 425 L97 0 L124 0 L124 450 L24 450 L24 425 Z M299 577 L326 577 L326 661 L299 661 L299 577 Z M97 577 L124 577 L124 661 L97 661 L97 577 Z " />
<glyph glyph-name="Jcircumflex" unicode="&#x134;" horiz-adv-x="225" d="M7 -81 C91 6 140 89 140 179 L140 583 L111 583 L111 181 C111 83 49 5 -16 -65 L7 -81 Z M118 736 L18 626 L46 626 L127 715 L129 715 L208 626 L235 626 L139 736 L118 736 Z " />
<glyph glyph-name="jcircumflex" unicode="&#x135;" horiz-adv-x="203" d="M24 425 L97 425 L97 18 C97 -70 54 -146 13 -201 L33 -214 C84 -155 124 -70 124 21 L124 450 L24 450 L24 425 Z M100 676 L-10 529 L18 529 L108 655 L110 655 L198 529 L225 529 L121 676 L100 676 Z " />
<glyph glyph-name="Kcommaaccent" unicode="&#x136;" horiz-adv-x="487" d="M205 -204 L226 -204 L253 -62 L226 -62 L205 -204 Z M421 0 L459 0 L183 304 L468 583 L432 583 L157 310 L157 295 L421 0 Z M90 0 L119 0 L119 583 L90 583 L90 0 Z " />
<glyph glyph-name="kcommaaccent" unicode="&#x137;" horiz-adv-x="418" d="M169 -204 L190 -204 L217 -62 L190 -62 L169 -204 Z M352 0 L389 0 L168 252 L395 450 L358 450 L138 257 L138 245 L352 0 Z M79 0 L106 0 L106 653 L79 653 L79 0 Z " />
<glyph glyph-name="Lacute" unicode="&#x139;" horiz-adv-x="427" d="M90 0 L414 0 L414 25 L119 25 L119 583 L90 583 L90 0 Z M122 632 L201 736 L173 736 L97 632 L122 632 Z " />
<glyph glyph-name="lacute" unicode="&#x13a;" horiz-adv-x="200" d="M118 676 L197 780 L169 780 L93 676 L118 676 Z M86 0 L114 0 L114 653 L86 653 L86 0 Z " />
<glyph glyph-name="Lcommaaccent" unicode="&#x13b;" horiz-adv-x="427" d="M90 0 L414 0 L414 25 L119 25 L119 583 L90 583 L90 0 Z M224 -204 L245 -204 L272 -62 L245 -62 L224 -204 Z " />
<glyph glyph-name="lcommaaccent" unicode="&#x13c;" horiz-adv-x="200" d="M63 -204 L84 -204 L111 -62 L84 -62 L63 -204 Z M86 0 L114 0 L114 653 L86 653 L86 0 Z " />
<glyph glyph-name="Lcaron" unicode="&#x13d;" horiz-adv-x="427" d="M90 0 L414 0 L414 25 L119 25 L119 583 L90 583 L90 0 Z M246 461 L268 461 L290 635 L262 635 L246 461 Z " />
<glyph glyph-name="lcaron" unicode="&#x13e;" horiz-adv-x="201" d="M199 479 L221 479 L243 653 L215 653 L199 479 Z M86 0 L114 0 L114 653 L86 653 L86 0 Z " />
<glyph glyph-name="Ldot" unicode="&#x13f;" horiz-adv-x="446" d="M90 0 L414 0 L414 25 L119 25 L119 583 L90 583 L90 0 Z M326 289 L353 289 L353 367 L326 367 L326 289 Z " />
<glyph glyph-name="ldot" unicode="&#x140;" horiz-adv-x="272" d="M221 282 L248 282 L248 360 L221 360 L221 282 Z M86 0 L114 0 L114 653 L86 653 L86 0 Z " />
<glyph glyph-name="Lslash" unicode="&#x141;" horiz-adv-x="431" d="M27 210 L94 254 L94 0 L418 0 L418 25 L123 25 L123 273 L270 370 L270 396 L123 298 L123 583 L94 583 L94 279 L27 235 L27 210 Z " />
<glyph glyph-name="lslash" unicode="&#x142;" horiz-adv-x="232" d="M17 266 L95 312 L95 0 L123 0 L123 329 L216 384 L216 411 L123 355 L123 653 L95 653 L95 338 L17 291 L17 266 Z " />
<glyph glyph-name="Nacute" unicode="&#x143;" horiz-adv-x="607" d="M288 632 L367 736 L339 736 L263 632 L288 632 Z M90 0 L119 0 L119 543 L120 543 L483 0 L517 0 L517 583 L488 583 L488 43 L487 43 L123 583 L90 583 L90 0 Z " />
<glyph glyph-name="nacute" unicode="&#x144;" horiz-adv-x="505" d="M82 0 L109 0 L109 352 C157 389 226 434 298 434 C392 434 403 380 403 292 L403 0 L430 0 L430 295 C430 405 407 459 303 459 C221 459 147 408 105 374 L91 450 L63 450 L82 350 L82 0 Z M253 529 L357 684 L329 684 L228 529 L253 529 Z " />
<glyph glyph-name="Ncommaaccent" unicode="&#x145;" horiz-adv-x="607" d="M279 -204 L300 -204 L327 -62 L300 -62 L279 -204 Z M90 0 L119 0 L119 543 L120 543 L483 0 L517 0 L517 583 L488 583 L488 43 L487 43 L123 583 L90 583 L90 0 Z " />
<glyph glyph-name="ncommaaccent" unicode="&#x146;" horiz-adv-x="505" d="M82 0 L109 0 L109 352 C157 389 226 434 298 434 C392 434 403 380 403 292 L403 0 L430 0 L430 295 C430 405 407 459 303 459 C221 459 147 408 105 374 L91 450 L63 450 L82 350 L82 0 Z M217 -204 L238 -204 L265 -62 L238 -62 L217 -204 Z " />
<glyph glyph-name="Ncaron" unicode="&#x147;" horiz-adv-x="607" d="M316 626 L416 736 L388 736 L308 647 L306 647 L226 736 L198 736 L296 626 L316 626 Z M90 0 L119 0 L119 543 L120 543 L483 0 L517 0 L517 583 L488 583 L488 43 L487 43 L123 583 L90 583 L90 0 Z " />
<glyph glyph-name="ncaron" unicode="&#x148;" horiz-adv-x="505" d="M82 0 L109 0 L109 352 C157 389 226 434 298 434 C392 434 403 380 403 292 L403 0 L430 0 L430 295 C430 405 407 459 303 459 C221 459 147 408 105 374 L91 450 L63 450 L82 350 L82 0 Z M262 529 L369 676 L341 676 L253 550 L251 550 L161 676 L134 676 L241 529 L262 529 Z " />
<glyph glyph-name="napostrophe" unicode="&#x149;" horiz-adv-x="505" d="M82 0 L109 0 L109 352 C157 389 226 434 298 434 C392 434 403 380 403 292 L403 0 L430 0 L430 295 C430 405 407 459 303 459 C221 459 147 408 105 374 L91 450 L63 450 L82 350 L82 0 Z M32 510 C85 549 111 597 111 642 C111 671 98 702 71 722 C65 722 53 710 53 705 C75 681 84 663 84 632 C84 590 59 556 20 523 L32 510 Z " />
<glyph glyph-name="Eng" unicode="&#x14a;" horiz-adv-x="607" d="M90 0 L119 0 L119 543 L120 543 L483 0 L488 0 L488 -6 C488 -78 472 -122 406 -195 L426 -210 C510 -123 517 -74 517 -2 L517 583 L488 583 L488 43 L487 43 L123 583 L90 583 L90 0 Z " />
<glyph glyph-name="eng" unicode="&#x14b;" horiz-adv-x="505" d="M430 295 C430 405 407 459 303 459 C221 459 147 408 105 374 L91 450 L63 450 L82 350 L82 0 L109 0 L109 352 C157 389 226 434 298 434 C392 434 403 380 403 292 L403 1 C402 -85 360 -147 319 -201 L338 -214 C389 -155 429 -85 430 4 L430 295 Z " />
<glyph glyph-name="Omacron" unicode="&#x14c;" horiz-adv-x="610" d="M211 671 L409 671 L409 695 L211 695 L211 671 Z M299 -8 C486 -8 552 152 552 306 C552 449 491 592 315 592 C136 592 58 449 58 282 C58 131 126 -8 299 -8 L299 -8 Z M299 18 C174 18 88 107 88 286 C88 484 185 566 313 566 C438 566 522 479 522 303 C522 115 435 18 299 18 L299 18 Z " />
<glyph glyph-name="omacron" unicode="&#x14d;" horiz-adv-x="484" d="M123 582 L369 582 L369 608 L123 608 L123 582 Z M241 -8 C358 -8 431 102 431 225 C431 385 364 459 247 459 C134 459 52 351 52 223 C52 62 134 -8 241 -8 L241 -8 Z M242 17 C150 17 81 76 81 224 C81 350 154 434 245 434 C356 434 403 358 403 223 C403 102 337 17 242 17 L242 17 Z " />
<glyph glyph-name="Obreve" unicode="&#x14e;" horiz-adv-x="610" d="M306 662 C258 662 230 687 223 722 L201 718 C212 664 250 638 306 638 C361 638 402 662 413 719 L391 723 C384 687 359 662 306 662 L306 662 Z M299 -8 C486 -8 552 152 552 306 C552 449 491 592 315 592 C136 592 58 449 58 282 C58 131 126 -8 299 -8 L299 -8 Z M299 18 C174 18 88 107 88 286 C88 484 185 566 313 566 C438 566 522 479 522 303 C522 115 435 18 299 18 L299 18 Z " />
<glyph glyph-name="obreve" unicode="&#x14f;" horiz-adv-x="484" d="M241 -8 C358 -8 431 102 431 225 C431 385 364 459 247 459 C134 459 52 351 52 223 C52 62 134 -8 241 -8 L241 -8 Z M242 17 C150 17 81 76 81 224 C81 350 154 434 245 434 C356 434 403 358 403 223 C403 102 337 17 242 17 L242 17 Z M241 556 C183 556 165 599 158 634 L136 630 C147 576 174 534 241 534 C307 534 337 574 348 631 L326 635 C319 599 302 556 241 556 L241 556 Z " />
<glyph glyph-name="Ohungarumlaut" unicode="&#x150;" horiz-adv-x="610" d="M299 -8 C486 -8 552 152 552 306 C552 449 491 592 315 592 C136 592 58 449 58 282 C58 131 126 -8 299 -8 L299 -8 Z M299 18 C174 18 88 107 88 286 C88 484 185 566 313 566 C438 566 522 479 522 303 C522 115 435 18 299 18 L299 18 Z M265 632 L338 736 L311 736 L240 632 L265 632 Z M372 632 L451 736 L423 736 L347 632 L372 632 Z " />
<glyph glyph-name="ohungarumlaut" unicode="&#x151;" horiz-adv-x="484" d="M163 529 L267 684 L239 684 L138 529 L163 529 Z M323 529 L427 684 L399 684 L298 529 L323 529 Z M241 -8 C358 -8 431 102 431 225 C431 385 364 459 247 459 C134 459 52 351 52 223 C52 62 134 -8 241 -8 L241 -8 Z M242 17 C150 17 81 76 81 224 C81 350 154 434 245 434 C356 434 403 358 403 223 C403 102 337 17 242 17 L242 17 Z " />
<glyph glyph-name="OE" unicode="&#x152;" horiz-adv-x="845" d="M455 0 L798 0 L798 25 L484 25 L484 287 L745 287 L745 312 L484 312 L484 558 L791 558 L791 583 L455 583 L455 546 C420 575 375 592 315 592 C136 592 58 449 58 282 C58 131 126 -8 299 -8 C365 -8 417 13 455 48 L455 0 Z M299 18 C174 18 88 107 88 286 C88 484 185 566 313 566 C370 566 419 547 455 509 L455 84 C416 40 363 18 299 18 L299 18 Z " />
<glyph glyph-name="oe" unicode="&#x153;" horiz-adv-x="813" d="M241 -8 C324 -8 385 47 413 124 C437 40 496 -8 599 -8 C664 -8 710 3 750 23 L750 48 C708 27 658 17 601 17 C497 17 431 75 431 218 L431 225 L761 225 L761 244 C761 365 718 459 590 459 C500 459 444 407 418 329 C394 417 334 459 247 459 C134 459 52 351 52 223 C52 62 134 -8 241 -8 L241 -8 Z M242 17 C150 17 81 76 81 224 C81 350 154 434 245 434 C351 434 398 364 402 240 L402 201 C395 92 331 17 242 17 L242 17 Z M589 434 C704 434 731 340 731 256 L731 248 L432 248 C440 369 497 434 589 434 L589 434 Z " />
<glyph glyph-name="Racute" unicode="&#x154;" horiz-adv-x="515" d="M90 0 L119 0 L119 241 L207 241 C237 241 264 243 288 247 L452 0 L488 0 L316 254 C402 279 444 335 444 414 C444 537 363 583 246 583 L90 583 L90 0 Z M232 558 C354 557 414 515 414 414 C414 287 301 267 202 267 L119 267 L119 558 L232 558 Z M236 632 L315 736 L287 736 L211 632 L236 632 Z " />
<glyph glyph-name="racute" unicode="&#x155;" horiz-adv-x="325" d="M82 0 L109 0 L109 342 C154 390 201 433 269 433 C282 433 296 431 310 427 L310 454 C294 458 283 459 267 459 C194 459 142 409 106 369 L91 450 L63 450 L82 350 L82 0 Z M190 529 L294 684 L266 684 L165 529 L190 529 Z " />
<glyph glyph-name="Rcommaaccent" unicode="&#x156;" horiz-adv-x="515" d="M90 0 L119 0 L119 241 L207 241 C237 241 264 243 288 247 L452 0 L488 0 L316 254 C402 279 444 335 444 414 C444 537 363 583 246 583 L90 583 L90 0 Z M232 558 C354 557 414 515 414 414 C414 287 301 267 202 267 L119 267 L119 558 L232 558 Z M227 -204 L248 -204 L275 -62 L248 -62 L227 -204 Z " />
<glyph glyph-name="rcommaaccent" unicode="&#x157;" horiz-adv-x="325" d="M82 0 L109 0 L109 342 C154 390 201 433 269 433 C282 433 296 431 310 427 L310 454 C294 458 283 459 267 459 C194 459 142 409 106 369 L91 450 L63 450 L82 350 L82 0 Z M59 -204 L80 -204 L107 -62 L80 -62 L59 -204 Z " />
<glyph glyph-name="Rcaron" unicode="&#x158;" horiz-adv-x="515" d="M90 0 L119 0 L119 241 L207 241 C237 241 264 243 288 247 L452 0 L488 0 L316 254 C402 279 444 335 444 414 C444 537 363 583 246 583 L90 583 L90 0 Z M232 558 C354 557 414 515 414 414 C414 287 301 267 202 267 L119 267 L119 558 L232 558 Z M249 626 L349 736 L321 736 L241 647 L239 647 L159 736 L131 736 L229 626 L249 626 Z " />
<glyph glyph-name="rcaron" unicode="&#x159;" horiz-adv-x="325" d="M82 0 L109 0 L109 342 C154 390 201 433 269 433 C282 433 296 431 310 427 L310 454 C294 458 283 459 267 459 C194 459 142 409 106 369 L91 450 L63 450 L82 350 L82 0 Z M194 529 L301 676 L273 676 L185 550 L183 550 L93 676 L66 676 L173 529 L194 529 Z " />
<glyph glyph-name="Sacute" unicode="&#x15a;" horiz-adv-x="443" d="M58 18 C113 0 152 -8 204 -8 C307 -8 394 44 394 153 C394 249 312 285 220 318 C137 349 83 377 83 450 C83 517 136 566 228 566 C275 566 324 555 372 535 L372 564 C332 580 282 592 228 592 C135 592 54 543 54 444 C54 357 123 324 210 292 C296 260 365 232 365 151 C365 65 298 18 205 18 C155 18 102 29 58 48 L58 18 Z M213 632 L292 736 L264 736 L188 632 L213 632 Z " />
<glyph glyph-name="sacute" unicode="&#x15b;" horiz-adv-x="391" d="M186 529 L290 684 L262 684 L161 529 L186 529 Z M186 -8 C265 -8 345 27 345 124 C345 205 277 227 199 245 C129 261 77 274 77 338 C77 405 134 434 201 434 C245 434 279 428 329 408 L329 436 C290 452 246 459 203 459 C114 459 51 414 51 336 C51 256 114 238 191 219 C263 201 319 186 319 122 C319 59 277 17 189 17 C142 17 104 23 56 44 L56 16 C94 0 133 -8 186 -8 L186 -8 Z " />
<glyph glyph-name="Scircumflex" unicode="&#x15c;" horiz-adv-x="443" d="M58 18 C113 0 152 -8 204 -8 C307 -8 394 44 394 153 C394 249 312 285 220 318 C137 349 83 377 83 450 C83 517 136 566 228 566 C275 566 324 555 372 535 L372 564 C332 580 282 592 228 592 C135 592 54 543 54 444 C54 357 123 324 210 292 C296 260 365 232 365 151 C365 65 298 18 205 18 C155 18 102 29 58 48 L58 18 Z M222 736 L122 626 L150 626 L231 715 L233 715 L312 626 L339 626 L243 736 L222 736 Z " />
<glyph glyph-name="scircumflex" unicode="&#x15d;" horiz-adv-x="391" d="M194 676 L84 529 L112 529 L202 655 L204 655 L292 529 L319 529 L215 676 L194 676 Z M186 -8 C265 -8 345 27 345 124 C345 205 277 227 199 245 C129 261 77 274 77 338 C77 405 134 434 201 434 C245 434 279 428 329 408 L329 436 C290 452 246 459 203 459 C114 459 51 414 51 336 C51 256 114 238 191 219 C263 201 319 186 319 122 C319 59 277 17 189 17 C142 17 104 23 56 44 L56 16 C94 0 133 -8 186 -8 L186 -8 Z " />
<glyph glyph-name="Scedilla" unicode="&#x15e;" horiz-adv-x="443" d="M208 -214 C283 -214 310 -175 310 -131 C310 -85 258 -61 214 -53 L229 -7 C321 1 394 53 394 153 C394 249 312 285 220 318 C137 349 83 377 83 450 C83 517 136 566 228 566 C275 566 324 555 372 535 L372 564 C332 580 282 592 228 592 C135 592 54 543 54 444 C54 357 123 324 210 292 C296 260 365 232 365 151 C365 65 298 18 205 18 C155 18 102 29 58 48 L58 18 C113 0 152 -8 204 -8 L206 -8 L188 -60 L188 -70 C250 -78 284 -99 284 -131 C284 -175 250 -192 206 -192 C184 -192 146 -182 131 -171 L131 -195 C148 -205 184 -214 208 -214 L208 -214 Z " />
<glyph glyph-name="scedilla" unicode="&#x15f;" horiz-adv-x="391" d="M182 -214 C257 -214 284 -175 284 -131 C284 -85 232 -61 188 -53 L203 -7 C276 -3 345 34 345 124 C345 205 277 227 199 245 C129 261 77 274 77 338 C77 405 134 434 201 434 C245 434 279 428 329 408 L329 436 C290 452 246 459 203 459 C114 459 51 414 51 336 C51 256 114 238 191 219 C263 201 319 186 319 122 C319 59 277 17 189 17 C142 17 104 23 56 44 L56 16 C92 0 130 -7 180 -8 L162 -60 L162 -70 C224 -78 258 -99 258 -131 C258 -175 224 -192 180 -192 C158 -192 120 -182 105 -171 L105 -195 C122 -205 158 -214 182 -214 L182 -214 Z " />
<glyph glyph-name="Scaron" unicode="&#x160;" horiz-adv-x="443" d="M58 18 C113 0 152 -8 204 -8 C307 -8 394 44 394 153 C394 249 312 285 220 318 C137 349 83 377 83 450 C83 517 136 566 228 566 C275 566 324 555 372 535 L372 564 C332 580 282 592 228 592 C135 592 54 543 54 444 C54 357 123 324 210 292 C296 260 365 232 365 151 C365 65 298 18 205 18 C155 18 102 29 58 48 L58 18 Z M234 626 L334 736 L306 736 L226 647 L224 647 L144 736 L116 736 L214 626 L234 626 Z " />
<glyph glyph-name="scaron" unicode="&#x161;" horiz-adv-x="391" d="M216 529 L323 676 L295 676 L207 550 L205 550 L115 676 L88 676 L195 529 L216 529 Z M186 -8 C265 -8 345 27 345 124 C345 205 277 227 199 245 C129 261 77 274 77 338 C77 405 134 434 201 434 C245 434 279 428 329 408 L329 436 C290 452 246 459 203 459 C114 459 51 414 51 336 C51 256 114 238 191 219 C263 201 319 186 319 122 C319 59 277 17 189 17 C142 17 104 23 56 44 L56 16 C94 0 133 -8 186 -8 L186 -8 Z " />
<glyph glyph-name="Tcommaaccent" unicode="&#x162;" horiz-adv-x="495" d="M12 558 L233 558 L233 0 L262 0 L262 558 L483 558 L483 583 L12 583 L12 558 Z M211 -204 L232 -204 L259 -62 L232 -62 L211 -204 Z " />
<glyph glyph-name="tcommaaccent" unicode="&#x163;" horiz-adv-x="314" d="M27 425 L94 425 L94 124 C94 26 141 -8 210 -8 C247 -8 282 -1 304 11 L304 35 C279 24 252 17 216 17 C159 17 122 44 121 129 L121 425 L295 425 L295 450 L121 450 L121 568 L94 568 L94 450 L27 450 L27 425 Z M164 -204 L185 -204 L212 -62 L185 -62 L164 -204 Z " />
<glyph glyph-name="Tcaron" unicode="&#x164;" horiz-adv-x="495" d="M12 558 L233 558 L233 0 L262 0 L262 558 L483 558 L483 583 L12 583 L12 558 Z M255 626 L355 736 L327 736 L247 647 L245 647 L165 736 L137 736 L235 626 L255 626 Z " />
<glyph glyph-name="tcaron" unicode="&#x165;" horiz-adv-x="314" d="M27 425 L94 425 L94 124 C94 26 141 -8 210 -8 C247 -8 282 -1 304 11 L304 35 C279 24 252 17 216 17 C159 17 122 44 121 129 L121 425 L295 425 L295 450 L121 450 L121 568 L94 568 L94 450 L27 450 L27 425 Z M221 529 L243 529 L265 703 L237 703 L221 529 Z " />
<glyph glyph-name="Tbar" unicode="&#x166;" horiz-adv-x="497" d="M12 558 L233 558 L233 307 L97 307 L97 283 L233 283 L233 0 L262 0 L262 283 L400 283 L400 307 L262 307 L262 558 L483 558 L483 583 L12 583 L12 558 Z " />
<glyph glyph-name="tbar" unicode="&#x167;" horiz-adv-x="317" d="M96 568 L96 450 L29 450 L29 425 L96 425 L96 279 L39 279 L39 255 L96 255 L96 124 C96 26 143 -8 212 -8 C249 -8 284 -1 306 11 L306 35 C281 24 254 17 218 17 C161 17 124 44 123 129 L123 255 L265 255 L265 279 L123 279 L123 425 L297 425 L297 450 L123 450 L123 568 L96 568 Z " />
<glyph glyph-name="Utilde" unicode="&#x168;" horiz-adv-x="593" d="M410 708 C393 684 374 672 353 672 C318 672 298 708 251 708 C227 708 205 698 182 676 L193 658 C215 678 228 685 253 685 C291 685 311 650 352 650 C376 650 401 662 423 692 L410 708 Z M300 -8 C405 -8 509 65 509 238 L509 583 L480 583 L480 234 C480 92 409 19 302 19 C189 19 113 76 113 221 L113 583 L84 583 L84 216 C84 49 185 -8 300 -8 L300 -8 Z " />
<glyph glyph-name="utilde" unicode="&#x169;" horiz-adv-x="488" d="M407 450 L380 450 L380 99 C331 59 274 17 214 17 C123 17 102 62 102 153 L102 450 L75 450 L75 151 C75 40 105 -8 208 -8 C277 -8 338 36 383 76 L398 0 L426 0 L407 100 L407 450 Z M360 618 C343 594 324 583 303 583 C265 583 228 619 185 619 C161 619 139 608 116 586 L127 569 C149 589 162 596 187 596 C225 596 260 560 302 560 C326 560 351 573 373 603 L360 618 Z " />
<glyph glyph-name="Umacron" unicode="&#x16a;" horiz-adv-x="593" d="M202 671 L400 671 L400 695 L202 695 L202 671 Z M300 -8 C405 -8 509 65 509 238 L509 583 L480 583 L480 234 C480 92 409 19 302 19 C189 19 113 76 113 221 L113 583 L84 583 L84 216 C84 49 185 -8 300 -8 L300 -8 Z " />
<glyph glyph-name="umacron" unicode="&#x16b;" horiz-adv-x="488" d="M407 450 L380 450 L380 99 C331 59 274 17 214 17 C123 17 102 62 102 153 L102 450 L75 450 L75 151 C75 40 105 -8 208 -8 C277 -8 338 36 383 76 L398 0 L426 0 L407 100 L407 450 Z M113 582 L359 582 L359 608 L113 608 L113 582 Z " />
<glyph glyph-name="Ubreve" unicode="&#x16c;" horiz-adv-x="593" d="M297 663 C249 663 221 688 214 723 L192 719 C203 665 241 639 297 639 C352 639 393 663 404 720 L382 724 C375 688 350 663 297 663 L297 663 Z M300 -8 C405 -8 509 65 509 238 L509 583 L480 583 L480 234 C480 92 409 19 302 19 C189 19 113 76 113 221 L113 583 L84 583 L84 216 C84 49 185 -8 300 -8 L300 -8 Z " />
<glyph glyph-name="ubreve" unicode="&#x16d;" horiz-adv-x="488" d="M407 450 L380 450 L380 99 C331 59 274 17 214 17 C123 17 102 62 102 153 L102 450 L75 450 L75 151 C75 40 105 -8 208 -8 C277 -8 338 36 383 76 L398 0 L426 0 L407 100 L407 450 Z M240 556 C182 556 164 599 157 634 L135 630 C146 576 173 534 240 534 C306 534 336 574 347 631 L325 635 C318 599 301 556 240 556 L240 556 Z " />
<glyph glyph-name="Uring" unicode="&#x16e;" horiz-adv-x="593" d="M300 -8 C405 -8 509 65 509 238 L509 583 L480 583 L480 234 C480 92 409 19 302 19 C189 19 113 76 113 221 L113 583 L84 583 L84 216 C84 49 185 -8 300 -8 L300 -8 Z M299 765 C264 765 229 740 229 700 C229 657 260 633 299 633 C337 633 369 658 369 700 C369 743 336 765 299 765 L299 765 Z M299 652 C267 652 250 672 250 700 C250 730 273 747 299 747 C323 747 348 730 348 700 C348 673 331 652 299 652 L299 652 Z " />
<glyph glyph-name="uring" unicode="&#x16f;" horiz-adv-x="488" d="M407 450 L380 450 L380 99 C331 59 274 17 214 17 C123 17 102 62 102 153 L102 450 L75 450 L75 151 C75 40 105 -8 208 -8 C277 -8 338 36 383 76 L398 0 L426 0 L407 100 L407 450 Z M245 681 C204 681 162 651 162 603 C162 552 199 524 245 524 C290 524 327 553 327 603 C327 654 288 681 245 681 L245 681 Z M245 663 C275 663 307 643 307 603 C307 568 286 542 245 542 C203 542 182 567 182 603 C182 642 214 663 245 663 L245 663 Z " />
<glyph glyph-name="Uhungarumlaut" unicode="&#x170;" horiz-adv-x="593" d="M300 -8 C405 -8 509 65 509 238 L509 583 L480 583 L480 234 C480 92 409 19 302 19 C189 19 113 76 113 221 L113 583 L84 583 L84 216 C84 49 185 -8 300 -8 L300 -8 Z M244 632 L317 736 L290 736 L219 632 L244 632 Z M351 632 L430 736 L402 736 L326 632 L351 632 Z " />
<glyph glyph-name="uhungarumlaut" unicode="&#x171;" horiz-adv-x="488" d="M407 450 L380 450 L380 99 C331 59 274 17 214 17 C123 17 102 62 102 153 L102 450 L75 450 L75 151 C75 40 105 -8 208 -8 C277 -8 338 36 383 76 L398 0 L426 0 L407 100 L407 450 Z M312 529 L416 684 L388 684 L287 529 L312 529 Z M152 529 L256 684 L228 684 L127 529 L152 529 Z " />
<glyph glyph-name="Uogonek" unicode="&#x172;" horiz-adv-x="593" d="M300 -8 L311 -8 C272 -34 236 -72 236 -117 C236 -181 278 -209 332 -209 C354 -209 383 -202 405 -190 L405 -168 C382 -180 358 -186 334 -186 C304 -186 263 -170 263 -115 C263 -67 314 -24 360 0 C441 24 509 98 509 238 L509 583 L480 583 L480 234 C480 92 409 19 302 19 C189 19 113 76 113 221 L113 583 L84 583 L84 216 C84 49 185 -8 300 -8 L300 -8 Z " />
<glyph glyph-name="uogonek" unicode="&#x173;" horiz-adv-x="488" d="M407 450 L380 450 L380 99 C331 59 274 17 214 17 C123 17 102 62 102 153 L102 450 L75 450 L75 151 C75 40 105 -8 208 -8 C277 -8 338 36 383 76 L396 11 C347 -12 287 -59 287 -117 C287 -181 329 -209 383 -209 C405 -209 434 -202 456 -190 L456 -168 C433 -180 409 -186 385 -186 C355 -186 314 -170 314 -115 C314 -67 364 -25 410 0 L426 0 L407 100 L407 450 Z " />
<glyph glyph-name="Wcircumflex" unicode="&#x174;" horiz-adv-x="835" d="M810 583 L779 583 L676 267 L600 33 L597 33 L528 268 L436 583 L402 583 L300 267 L225 33 L223 33 L159 268 L73 583 L41 583 L204 0 L242 0 L355 351 L416 538 L419 538 L474 351 L578 0 L615 0 L810 583 Z M402 736 L302 626 L330 626 L411 715 L413 715 L492 626 L519 626 L423 736 L402 736 Z " />
<glyph glyph-name="wcircumflex" unicode="&#x175;" horiz-adv-x="692" d="M341 676 L231 529 L259 529 L349 655 L351 655 L439 529 L466 529 L362 676 L341 676 Z M663 450 L633 450 L553 208 L496 32 L493 32 L441 207 L368 450 L335 450 L250 204 L191 32 L187 32 L138 204 L68 450 L36 450 L170 0 L205 0 L297 268 L348 412 L352 412 L395 267 L476 0 L511 0 L663 450 Z " />
<glyph glyph-name="Ycircumflex" unicode="&#x176;" horiz-adv-x="487" d="M465 583 L434 583 L328 392 L247 249 L244 249 L161 392 L52 583 L20 583 L229 223 L229 0 L258 0 L258 222 L465 583 Z M233 736 L133 626 L161 626 L242 715 L244 715 L323 626 L350 626 L254 736 L233 736 Z " />
<glyph glyph-name="ycircumflex" unicode="&#x177;" horiz-adv-x="420" d="M144 -207 L225 9 L395 450 L365 450 L264 178 L210 33 L206 33 L157 177 L64 450 L33 450 L190 0 L197 0 L116 -204 L119 -207 L144 -207 Z M210 676 L100 529 L128 529 L218 655 L220 655 L308 529 L335 529 L231 676 L210 676 Z " />
<glyph glyph-name="Ydieresis" unicode="&#x178;" horiz-adv-x="487" d="M465 583 L434 583 L328 392 L247 249 L244 249 L161 392 L52 583 L20 583 L229 223 L229 0 L258 0 L258 222 L465 583 Z M311 639 L338 639 L338 717 L311 717 L311 639 Z M149 639 L176 639 L176 717 L149 717 L149 639 Z " />
<glyph glyph-name="Zacute" unicode="&#x179;" horiz-adv-x="457" d="M413 0 L413 25 L71 25 L429 580 L427 583 L47 583 L47 558 L382 558 L27 3 L29 0 L413 0 Z M235 632 L314 736 L286 736 L210 632 L235 632 Z " />
<glyph glyph-name="zacute" unicode="&#x17a;" horiz-adv-x="380" d="M31 3 L32 0 L344 0 L344 25 L74 25 L342 448 L340 450 L43 450 L43 425 L297 425 L31 3 Z M193 529 L297 684 L269 684 L168 529 L193 529 Z " />
<glyph glyph-name="Zdotaccent" unicode="&#x17b;" horiz-adv-x="457" d="M413 0 L413 25 L71 25 L429 580 L427 583 L47 583 L47 558 L382 558 L27 3 L29 0 L413 0 Z M227 643 L254 643 L254 721 L227 721 L227 643 Z " />
<glyph glyph-name="zdotaccent" unicode="&#x17c;" horiz-adv-x="380" d="M31 3 L32 0 L344 0 L344 25 L74 25 L342 448 L340 450 L43 450 L43 425 L297 425 L31 3 Z M175 578 L202 578 L202 656 L175 656 L175 578 Z " />
<glyph glyph-name="Zcaron" unicode="&#x17d;" horiz-adv-x="457" d="M413 0 L413 25 L71 25 L429 580 L427 583 L47 583 L47 558 L382 558 L27 3 L29 0 L413 0 Z M247 626 L347 736 L319 736 L239 647 L237 647 L157 736 L129 736 L227 626 L247 626 Z " />
<glyph glyph-name="zcaron" unicode="&#x17e;" horiz-adv-x="380" d="M31 3 L32 0 L344 0 L344 25 L74 25 L342 448 L340 450 L43 450 L43 425 L297 425 L31 3 Z M207 529 L314 676 L286 676 L198 550 L196 550 L106 676 L79 676 L186 529 L207 529 Z " />
<glyph glyph-name="uni018F" unicode="&#x18f;" horiz-adv-x="598" d="M89 563 L89 535 C151 556 211 566 270 566 C401 566 508 505 510 313 L52 313 C50 305 48 292 48 279 C48 126 119 -8 287 -8 C474 -8 540 148 540 305 C540 502 436 592 271 592 C217 592 152 583 89 563 L89 563 Z M288 18 C160 18 79 108 78 288 L509 288 C505 103 419 18 288 18 L288 18 Z " />
<glyph glyph-name="florin" unicode="&#x192;" horiz-adv-x="469" d="M203 32 C192 -64 157 -113 85 -113 C68 -113 53 -111 35 -107 L29 -133 C47 -137 63 -139 80 -139 C172 -139 220 -73 231 31 L254 290 L391 290 L391 315 L256 315 L266 422 C275 517 310 566 382 566 C399 566 415 564 433 560 L438 586 C420 590 403 592 386 592 C294 592 247 526 238 422 L228 315 L115 315 L115 290 L226 290 L203 32 Z " />
<glyph glyph-name="uni01C4" unicode="&#x1c4;" horiz-adv-x="1046" d="M90 0 L197 0 C392 0 531 100 531 302 C531 517 380 583 192 583 L90 583 L90 0 Z M189 558 C351 558 501 506 501 300 C501 108 365 25 204 25 L119 25 L119 558 L189 558 Z M1001 0 L1001 25 L659 25 L1017 580 L1015 583 L635 583 L635 558 L970 558 L615 3 L617 0 L1001 0 Z M836 626 L936 736 L908 736 L828 647 L826 647 L746 736 L718 736 L816 626 L836 626 Z " />
<glyph glyph-name="uni01C5" unicode="&#x1c5;" horiz-adv-x="969" d="M90 0 L197 0 C392 0 531 100 531 302 C531 517 380 583 192 583 L90 583 L90 0 Z M189 558 C351 558 501 506 501 300 C501 108 365 25 204 25 L119 25 L119 558 L189 558 Z M619 3 L620 0 L932 0 L932 25 L662 25 L930 448 L928 450 L631 450 L631 425 L885 425 L619 3 Z M795 529 L902 676 L874 676 L786 550 L784 550 L694 676 L667 676 L774 529 L795 529 Z " />
<glyph glyph-name="uni01C6" unicode="&#x1c6;" horiz-adv-x="859" d="M388 0 L415 0 L398 92 L398 653 L371 653 L371 443 C334 453 301 459 258 459 C133 459 54 378 54 210 C54 75 112 -8 214 -8 C277 -8 332 32 374 69 L388 0 Z M217 17 C121 17 83 97 83 216 C83 359 141 434 258 434 C302 434 336 426 371 416 L371 93 C328 58 277 17 217 17 L217 17 Z M509 3 L510 0 L822 0 L822 25 L552 25 L820 448 L818 450 L521 450 L521 425 L775 425 L509 3 Z M685 529 L792 676 L764 676 L676 550 L674 550 L584 676 L557 676 L664 529 L685 529 Z " />
<glyph glyph-name="uni01C7" unicode="&#x1c7;" horiz-adv-x="652" d="M90 0 L414 0 L414 25 L119 25 L119 583 L90 583 L90 0 Z M433 -81 C517 6 566 89 566 179 L566 583 L537 583 L537 181 C537 83 475 5 410 -65 L433 -81 Z " />
<glyph glyph-name="uni01C8" unicode="&#x1c8;" horiz-adv-x="629" d="M90 0 L414 0 L414 25 L119 25 L119 583 L90 583 L90 0 Z M450 425 L523 425 L523 18 C523 -70 480 -146 439 -201 L459 -214 C510 -155 550 -70 550 21 L550 450 L450 450 L450 425 Z M523 577 L550 577 L550 661 L523 661 L523 577 Z " />
<glyph glyph-name="uni01C9" unicode="&#x1c9;" horiz-adv-x="402" d="M223 425 L296 425 L296 18 C296 -70 253 -146 212 -201 L232 -214 C283 -155 323 -70 323 21 L323 450 L223 450 L223 425 Z M86 0 L114 0 L114 653 L86 653 L86 0 Z M296 577 L323 577 L323 661 L296 661 L296 577 Z " />
<glyph glyph-name="uni01CA" unicode="&#x1ca;" horiz-adv-x="832" d="M613 -81 C697 6 746 89 746 179 L746 583 L717 583 L717 181 C717 83 655 5 590 -65 L613 -81 Z M90 0 L119 0 L119 543 L120 543 L483 0 L517 0 L517 583 L488 583 L488 43 L487 43 L123 583 L90 583 L90 0 Z " />
<glyph glyph-name="uni01CB" unicode="&#x1cb;" horiz-adv-x="810" d="M90 0 L119 0 L119 543 L120 543 L483 0 L517 0 L517 583 L488 583 L488 43 L487 43 L123 583 L90 583 L90 0 Z M630 425 L703 425 L703 18 C703 -70 660 -146 619 -201 L639 -214 C690 -155 730 -70 730 21 L730 450 L630 450 L630 425 Z M703 577 L730 577 L730 661 L703 661 L703 577 Z " />
<glyph glyph-name="uni01CC" unicode="&#x1cc;" horiz-adv-x="708" d="M82 0 L109 0 L109 352 C157 389 226 434 298 434 C392 434 403 380 403 292 L403 0 L430 0 L430 295 C430 405 407 459 303 459 C221 459 147 408 105 374 L91 450 L63 450 L82 350 L82 0 Z M529 425 L602 425 L602 18 C602 -70 559 -146 518 -201 L538 -214 C589 -155 629 -70 629 21 L629 450 L529 450 L529 425 Z M602 577 L629 577 L629 661 L602 661 L602 577 Z " />
<glyph glyph-name="uni01D3" unicode="&#x1d3;" horiz-adv-x="593" d="M305 627 L405 737 L377 737 L297 648 L295 648 L215 737 L187 737 L285 627 L305 627 Z M300 -8 C405 -8 509 65 509 238 L509 583 L480 583 L480 234 C480 92 409 19 302 19 C189 19 113 76 113 221 L113 583 L84 583 L84 216 C84 49 185 -8 300 -8 L300 -8 Z " />
<glyph glyph-name="uni01D4" unicode="&#x1d4;" horiz-adv-x="488" d="M407 450 L380 450 L380 99 C331 59 274 17 214 17 C123 17 102 62 102 153 L102 450 L75 450 L75 151 C75 40 105 -8 208 -8 C277 -8 338 36 383 76 L398 0 L426 0 L407 100 L407 450 Z M249 529 L356 676 L328 676 L240 550 L238 550 L148 676 L121 676 L228 529 L249 529 Z " />
<glyph glyph-name="uni01E2" unicode="&#x1e2;" horiz-adv-x="741" d="M353 0 L693 0 L693 25 L382 25 L382 287 L640 287 L640 312 L382 312 L382 558 L686 558 L686 583 L344 583 L13 0 L42 0 L157 203 L353 203 L353 0 Z M171 228 L353 549 L353 228 L171 228 Z M419 670 L617 670 L617 694 L419 694 L419 670 Z " />
<glyph glyph-name="uni01E3" unicode="&#x1e3;" horiz-adv-x="746" d="M532 -8 C597 -8 643 3 683 23 L683 48 C641 27 591 17 534 17 C431 17 365 75 365 218 L365 223 L694 223 L694 244 C694 365 651 459 523 459 C444 459 392 420 364 358 C356 434 310 459 235 459 C183 459 109 444 70 430 L70 404 C108 418 176 434 232 434 C329 434 337 380 337 320 L337 239 L248 239 C129 239 45 202 45 111 C45 37 83 -8 169 -8 C259 -8 326 40 368 75 C398 22 451 -8 532 -8 L532 -8 Z M171 17 C114 17 73 39 73 112 C73 192 148 216 244 216 L337 216 C337 168 344 126 359 93 C318 60 253 17 171 17 L171 17 Z M523 434 C637 434 665 340 665 256 L665 247 L366 247 C373 369 431 434 523 434 L523 434 Z M238 582 L484 582 L484 608 L238 608 L238 582 Z " />
<glyph glyph-name="uni01F1" unicode="&#x1f1;" horiz-adv-x="1028" d="M90 0 L197 0 C392 0 531 100 531 302 C531 517 380 583 192 583 L90 583 L90 0 Z M189 558 C351 558 501 506 501 300 C501 108 365 25 204 25 L119 25 L119 558 L189 558 Z M984 0 L984 25 L642 25 L1000 580 L998 583 L618 583 L618 558 L953 558 L598 3 L600 0 L984 0 Z " />
<glyph glyph-name="uni01F2" unicode="&#x1f2;" horiz-adv-x="969" d="M90 0 L197 0 C392 0 531 100 531 302 C531 517 380 583 192 583 L90 583 L90 0 Z M189 558 C351 558 501 506 501 300 C501 108 365 25 204 25 L119 25 L119 558 L189 558 Z M619 3 L620 0 L932 0 L932 25 L662 25 L930 448 L928 450 L631 450 L631 425 L885 425 L619 3 Z " />
<glyph glyph-name="uni01F3" unicode="&#x1f3;" horiz-adv-x="859" d="M388 0 L415 0 L398 92 L398 653 L371 653 L371 443 C334 453 301 459 258 459 C133 459 54 378 54 210 C54 75 112 -8 214 -8 C277 -8 332 32 374 69 L388 0 Z M217 17 C121 17 83 97 83 216 C83 359 141 434 258 434 C302 434 336 426 371 416 L371 93 C328 58 277 17 217 17 L217 17 Z M509 3 L510 0 L822 0 L822 25 L552 25 L820 448 L818 450 L521 450 L521 425 L775 425 L509 3 Z " />
<glyph glyph-name="AEacute" unicode="&#x1fc;" horiz-adv-x="741" d="M353 0 L693 0 L693 25 L382 25 L382 287 L640 287 L640 312 L382 312 L382 558 L686 558 L686 583 L344 583 L13 0 L42 0 L157 203 L353 203 L353 0 Z M171 228 L353 549 L353 228 L171 228 Z M520 633 L599 737 L571 737 L495 633 L520 633 Z " />
<glyph glyph-name="aeacute" unicode="&#x1fd;" horiz-adv-x="746" d="M532 -8 C597 -8 643 3 683 23 L683 48 C641 27 591 17 534 17 C431 17 365 75 365 218 L365 223 L694 223 L694 244 C694 365 651 459 523 459 C444 459 392 420 364 358 C356 434 310 459 235 459 C183 459 109 444 70 430 L70 404 C108 418 176 434 232 434 C329 434 337 380 337 320 L337 239 L248 239 C129 239 45 202 45 111 C45 37 83 -8 169 -8 C259 -8 326 40 368 75 C398 22 451 -8 532 -8 L532 -8 Z M171 17 C114 17 73 39 73 112 C73 192 148 216 244 216 L337 216 C337 168 344 126 359 93 C318 60 253 17 171 17 L171 17 Z M523 434 C637 434 665 340 665 256 L665 247 L366 247 C373 369 431 434 523 434 L523 434 Z M385 529 L489 684 L461 684 L360 529 L385 529 Z " />
<glyph glyph-name="Oslashacute" unicode="&#x1fe;" horiz-adv-x="610" d="M299 -8 C486 -8 552 152 552 306 C552 381 535 456 493 510 L558 592 L529 592 L478 528 C441 567 388 592 315 592 C136 592 58 449 58 282 C58 203 76 128 118 74 L53 -8 L82 -8 L133 56 C172 16 226 -8 299 -8 L299 -8 Z M88 286 C88 484 185 566 313 566 C373 566 424 546 460 505 L137 97 C106 142 88 204 88 286 L88 286 Z M299 18 C239 18 188 38 151 79 L475 487 C505 443 522 382 522 303 C522 115 435 18 299 18 L299 18 Z M301 632 L380 736 L352 736 L276 632 L301 632 Z " />
<glyph glyph-name="oslashacute" unicode="&#x1ff;" horiz-adv-x="485" d="M241 -8 C358 -8 431 102 431 225 C431 301 416 358 387 397 L435 459 L411 459 L374 411 C343 443 300 459 247 459 C134 459 52 351 52 223 C52 148 69 93 99 56 L49 -8 L73 -8 L111 41 C145 7 190 -8 241 -8 L241 -8 Z M242 17 C196 17 157 31 128 63 L369 374 C392 338 403 287 403 223 C403 102 337 17 242 17 L242 17 Z M81 224 C81 350 154 434 245 434 C295 434 332 418 357 389 L116 78 C94 111 81 159 81 224 L81 224 Z M252 529 L356 684 L328 684 L227 529 L252 529 Z " />
<glyph glyph-name="Scommaaccent" unicode="&#x218;" horiz-adv-x="443" d="M184 -204 L205 -204 L232 -62 L205 -62 L184 -204 Z M58 18 C113 0 152 -8 204 -8 C307 -8 394 44 394 153 C394 249 312 285 220 318 C137 349 83 377 83 450 C83 517 136 566 228 566 C275 566 324 555 372 535 L372 564 C332 580 282 592 228 592 C135 592 54 543 54 444 C54 357 123 324 210 292 C296 260 365 232 365 151 C365 65 298 18 205 18 C155 18 102 29 58 48 L58 18 Z " />
<glyph glyph-name="scommaaccent" unicode="&#x219;" horiz-adv-x="391" d="M160 -204 L181 -204 L208 -62 L181 -62 L160 -204 Z M186 -8 C265 -8 345 27 345 124 C345 205 277 227 199 245 C129 261 77 274 77 338 C77 405 134 434 201 434 C245 434 279 428 329 408 L329 436 C290 452 246 459 203 459 C114 459 51 414 51 336 C51 256 114 238 191 219 C263 201 319 186 319 122 C319 59 277 17 189 17 C142 17 104 23 56 44 L56 16 C94 0 133 -8 186 -8 L186 -8 Z " />
<glyph glyph-name="uni021A" unicode="&#x21a;" horiz-adv-x="495" d="M12 558 L233 558 L233 0 L262 0 L262 558 L483 558 L483 583 L12 583 L12 558 Z M211 -204 L232 -204 L259 -62 L232 -62 L211 -204 Z " />
<glyph glyph-name="uni021B" unicode="&#x21b;" horiz-adv-x="314" d="M27 425 L94 425 L94 124 C94 26 141 -8 210 -8 C247 -8 282 -1 304 11 L304 35 C279 24 252 17 216 17 C159 17 122 44 121 129 L121 425 L295 425 L295 450 L121 450 L121 568 L94 568 L94 450 L27 450 L27 425 Z M164 -204 L185 -204 L212 -62 L185 -62 L164 -204 Z " />
<glyph glyph-name="uni0232" unicode="&#x232;" horiz-adv-x="487" d="M465 583 L434 583 L328 392 L247 249 L244 249 L161 392 L52 583 L20 583 L229 223 L229 0 L258 0 L258 222 L465 583 Z M145 670 L343 670 L343 694 L145 694 L145 670 Z " />
<glyph glyph-name="uni0233" unicode="&#x233;" horiz-adv-x="420" d="M144 -207 L225 9 L395 450 L365 450 L264 178 L210 33 L206 33 L157 177 L64 450 L33 450 L190 0 L197 0 L116 -204 L119 -207 L144 -207 Z M94 582 L340 582 L340 608 L94 608 L94 582 Z " />
<glyph glyph-name="uni0237" unicode="&#x237;" horiz-adv-x="203" d="M24 425 L97 425 L97 18 C97 -70 54 -146 13 -201 L33 -214 C84 -155 124 -70 124 21 L124 450 L24 450 L24 425 Z " />
<glyph glyph-name="uni0259" unicode="&#x259;" horiz-adv-x="463" d="M212 459 C147 459 101 448 61 428 L61 403 C103 424 153 434 210 434 C314 434 380 376 380 233 L380 226 L50 226 L50 207 C50 86 93 -8 221 -8 C349 -8 409 97 409 234 C409 374 348 459 212 459 L212 459 Z M222 17 C107 17 80 111 80 195 L80 203 L379 203 C371 81 313 17 222 17 L222 17 Z " />
<glyph glyph-name="circumflex" unicode="&#x2c6;" horiz-adv-x="377" d="M185 676 L75 529 L103 529 L193 655 L195 655 L283 529 L310 529 L206 676 L185 676 Z " />
<glyph glyph-name="caron" unicode="&#x2c7;" horiz-adv-x="445" d="M235 529 L342 676 L314 676 L226 550 L224 550 L134 676 L107 676 L214 529 L235 529 Z " />
<glyph glyph-name="breve" unicode="&#x2d8;" horiz-adv-x="330" d="M164 556 C106 556 88 599 81 634 L59 630 C70 576 97 534 164 534 C230 534 260 574 271 631 L249 635 C242 599 225 556 164 556 L164 556 Z " />
<glyph glyph-name="dotaccent" unicode="&#x2d9;" horiz-adv-x="301" d="M134 578 L161 578 L161 656 L134 656 L134 578 Z " />
<glyph glyph-name="ring" unicode="&#x2da;" horiz-adv-x="311" d="M157 681 C116 681 74 651 74 603 C74 552 111 524 157 524 C202 524 239 553 239 603 C239 654 200 681 157 681 L157 681 Z M157 663 C187 663 219 643 219 603 C219 568 198 542 157 542 C115 542 94 567 94 603 C94 642 126 663 157 663 L157 663 Z " />
<glyph glyph-name="ogonek" unicode="&#x2db;" horiz-adv-x="294" d="M218 -190 L218 -168 C195 -180 171 -186 147 -186 C117 -186 76 -170 76 -115 C76 -63 136 -18 184 6 L171 17 C121 -3 49 -54 49 -117 C49 -181 91 -209 145 -209 C167 -209 196 -202 218 -190 L218 -190 Z " />
<glyph glyph-name="tilde" unicode="&#x2dc;" horiz-adv-x="405" d="M320 618 C303 594 284 583 263 583 C225 583 188 619 145 619 C121 619 99 608 76 586 L87 569 C109 589 122 596 147 596 C185 596 220 560 262 560 C286 560 311 573 333 603 L320 618 Z " />
<glyph glyph-name="hungarumlaut" unicode="&#x2dd;" horiz-adv-x="451" d="M98 529 L202 684 L174 684 L73 529 L98 529 Z M258 529 L362 684 L334 684 L233 529 L258 529 Z " />
<glyph glyph-name="dotbelowcmb" unicode="&#x323;" d="M-239 -181 L-212 -181 L-212 -103 L-239 -103 L-239 -181 Z " />
<glyph glyph-name="uni0394" unicode="&#x394;" horiz-adv-x="503" d="M471 0 L471 23 L281 583 L249 583 L30 22 L30 0 L471 0 Z M262 551 L265 551 L440 25 L59 25 L262 551 Z " />
<glyph glyph-name="Sigma" unicode="&#x3a3;" horiz-adv-x="528" d="M45 0 L474 0 L474 26 L80 26 L240 290 L83 558 L452 558 L452 583 L49 583 L49 560 L209 289 L45 20 L45 0 Z " />
<glyph glyph-name="pi" unicode="&#x3c0;" horiz-adv-x="553" d="M407 425 L502 425 L502 450 L36 450 L36 425 L125 425 L125 0 L151 0 L151 425 L382 425 L382 75 C382 24 395 -7 443 -7 C458 -7 476 -5 497 6 L497 25 C475 17 458 16 448 16 C416 16 407 42 407 86 L407 425 Z " />
<glyph glyph-name="uni1E46" unicode="&#x1e46;" horiz-adv-x="607" d="M294 -181 L321 -181 L321 -103 L294 -103 L294 -181 Z M90 0 L119 0 L119 543 L120 543 L483 0 L517 0 L517 583 L488 583 L488 43 L487 43 L123 583 L90 583 L90 0 Z " />
<glyph glyph-name="uni1E47" unicode="&#x1e47;" horiz-adv-x="505" d="M82 0 L109 0 L109 352 C157 389 226 434 298 434 C392 434 403 380 403 292 L403 0 L430 0 L430 295 C430 405 407 459 303 459 C221 459 147 408 105 374 L91 450 L63 450 L82 350 L82 0 Z M239 -181 L266 -181 L266 -103 L239 -103 L239 -181 Z " />
<glyph glyph-name="uni1E62" unicode="&#x1e62;" horiz-adv-x="443" d="M198 -181 L225 -181 L225 -103 L198 -103 L198 -181 Z M58 18 C113 0 152 -8 204 -8 C307 -8 394 44 394 153 C394 249 312 285 220 318 C137 349 83 377 83 450 C83 517 136 566 228 566 C275 566 324 555 372 535 L372 564 C332 580 282 592 228 592 C135 592 54 543 54 444 C54 357 123 324 210 292 C296 260 365 232 365 151 C365 65 298 18 205 18 C155 18 102 29 58 48 L58 18 Z " />
<glyph glyph-name="uni1E63" unicode="&#x1e63;" horiz-adv-x="391" d="M174 -181 L201 -181 L201 -103 L174 -103 L174 -181 Z M186 -8 C265 -8 345 27 345 124 C345 205 277 227 199 245 C129 261 77 274 77 338 C77 405 134 434 201 434 C245 434 279 428 329 408 L329 436 C290 452 246 459 203 459 C114 459 51 414 51 336 C51 256 114 238 191 219 C263 201 319 186 319 122 C319 59 277 17 189 17 C142 17 104 23 56 44 L56 16 C94 0 133 -8 186 -8 L186 -8 Z " />
<glyph glyph-name="Wgrave" unicode="&#x1e80;" horiz-adv-x="835" d="M452 632 L376 736 L348 736 L427 632 L452 632 Z M810 583 L779 583 L676 267 L600 33 L597 33 L528 268 L436 583 L402 583 L300 267 L225 33 L223 33 L159 268 L73 583 L41 583 L204 0 L242 0 L355 351 L416 538 L419 538 L474 351 L578 0 L615 0 L810 583 Z " />
<glyph glyph-name="wgrave" unicode="&#x1e81;" horiz-adv-x="692" d="M663 450 L633 450 L553 208 L496 32 L493 32 L441 207 L368 450 L335 450 L250 204 L191 32 L187 32 L138 204 L68 450 L36 450 L170 0 L205 0 L297 268 L348 412 L352 412 L395 267 L476 0 L511 0 L663 450 Z M366 529 L265 684 L237 684 L340 529 L366 529 Z " />
<glyph glyph-name="Wacute" unicode="&#x1e82;" horiz-adv-x="835" d="M431 627 L510 731 L482 731 L406 627 L431 627 Z M810 583 L779 583 L676 267 L600 33 L597 33 L528 268 L436 583 L402 583 L300 267 L225 33 L223 33 L159 268 L73 583 L41 583 L204 0 L242 0 L355 351 L416 538 L419 538 L474 351 L578 0 L615 0 L810 583 Z " />
<glyph glyph-name="wacute" unicode="&#x1e83;" horiz-adv-x="692" d="M369 529 L473 684 L445 684 L344 529 L369 529 Z M663 450 L633 450 L553 208 L496 32 L493 32 L441 207 L368 450 L335 450 L250 204 L191 32 L187 32 L138 204 L68 450 L36 450 L170 0 L205 0 L297 268 L348 412 L352 412 L395 267 L476 0 L511 0 L663 450 Z " />
<glyph glyph-name="Wdieresis" unicode="&#x1e84;" horiz-adv-x="835" d="M319 639 L346 639 L346 717 L319 717 L319 639 Z M481 639 L508 639 L508 717 L481 717 L481 639 Z M810 583 L779 583 L676 267 L600 33 L597 33 L528 268 L436 583 L402 583 L300 267 L225 33 L223 33 L159 268 L73 583 L41 583 L204 0 L242 0 L355 351 L416 538 L419 538 L474 351 L578 0 L615 0 L810 583 Z " />
<glyph glyph-name="wdieresis" unicode="&#x1e85;" horiz-adv-x="692" d="M253 578 L280 578 L280 656 L253 656 L253 578 Z M415 578 L442 578 L442 656 L415 656 L415 578 Z M663 450 L633 450 L553 208 L496 32 L493 32 L441 207 L368 450 L335 450 L250 204 L191 32 L187 32 L138 204 L68 450 L36 450 L170 0 L205 0 L297 268 L348 412 L352 412 L395 267 L476 0 L511 0 L663 450 Z " />
<glyph glyph-name="uni1EBC" unicode="&#x1ebc;" horiz-adv-x="478" d="M90 0 L431 0 L431 25 L119 25 L119 287 L378 287 L378 312 L119 312 L119 558 L424 558 L424 583 L90 583 L90 0 Z M364 708 C347 684 328 672 307 672 C272 672 252 708 205 708 C181 708 159 698 136 676 L147 658 C169 678 182 685 207 685 C245 685 265 650 306 650 C330 650 355 662 377 692 L364 708 Z " />
<glyph glyph-name="uni1EBD" unicode="&#x1ebd;" horiz-adv-x="464" d="M250 -8 C315 -8 361 3 401 23 L401 48 C359 27 309 17 252 17 C148 17 82 75 82 218 L82 225 L412 225 L412 244 C412 365 369 459 241 459 C113 459 53 354 53 217 C53 77 114 -8 250 -8 L250 -8 Z M240 434 C355 434 382 340 382 256 L382 248 L83 248 C91 369 148 434 240 434 L240 434 Z M363 618 C346 594 327 583 306 583 C268 583 231 619 188 619 C164 619 142 608 119 586 L130 569 C152 589 165 596 190 596 C228 596 263 560 305 560 C329 560 354 573 376 603 L363 618 Z " />
<glyph glyph-name="Ygrave" unicode="&#x1ef2;" horiz-adv-x="487" d="M465 583 L434 583 L328 392 L247 249 L244 249 L161 392 L52 583 L20 583 L229 223 L229 0 L258 0 L258 222 L465 583 Z M281 632 L205 736 L177 736 L256 632 L281 632 Z " />
<glyph glyph-name="ygrave" unicode="&#x1ef3;" horiz-adv-x="420" d="M144 -207 L225 9 L395 450 L365 450 L264 178 L210 33 L206 33 L157 177 L64 450 L33 450 L190 0 L197 0 L116 -204 L119 -207 L144 -207 Z M247 509 L146 664 L118 664 L221 509 L247 509 Z " />
<glyph glyph-name="uni2004" unicode="&#x2004;" horiz-adv-x="333" d="" />
<glyph glyph-name="uni2007" unicode="&#x2007;" horiz-adv-x="500" d="" />
<glyph glyph-name="uni2009" unicode="&#x2009;" horiz-adv-x="160" d="" />
<glyph glyph-name="uni200A" unicode="&#x200a;" horiz-adv-x="80" d="" />
<glyph glyph-name="uni200B" unicode="&#x200b;" d="" />
<glyph glyph-name="uni2012" unicode="&#x2012;" horiz-adv-x="333" d="M343 252 L343 277 L-10 277 L-10 252 L343 252 Z " />
<glyph glyph-name="endash" unicode="&#x2013;" horiz-adv-x="464" d="M71 232 L394 232 L394 257 L71 257 L71 232 Z " />
<glyph glyph-name="emdash" unicode="&#x2014;" horiz-adv-x="866" d="M71 232 L796 232 L796 257 L71 257 L71 232 Z " />
<glyph glyph-name="quoteleft" unicode="&#x2018;" horiz-adv-x="191" d="M153 668 C94 626 65 573 65 523 C65 490 79 456 110 433 C116 433 130 447 130 453 C105 479 95 499 95 534 C95 580 122 618 166 655 L153 668 Z " />
<glyph glyph-name="quoteright" unicode="&#x2019;" horiz-adv-x="215" d="M73 450 C132 492 161 545 161 595 C161 628 147 662 116 685 C110 685 96 671 96 665 C121 639 131 619 131 584 C131 538 104 500 60 463 L73 450 Z " />
<glyph glyph-name="quotesinglbase" unicode="&#x201a;" horiz-adv-x="196" d="M41 -132 C100 -90 130 -36 130 15 C130 47 116 81 85 104 C78 104 65 91 65 84 C89 58 99 38 99 3 C99 -43 72 -81 28 -119 L41 -132 Z " />
<glyph glyph-name="quotedblleft" unicode="&#x201c;" horiz-adv-x="355" d="M153 668 C94 626 65 573 65 523 C65 490 79 456 110 433 C116 433 130 447 130 453 C105 479 95 499 95 534 C95 580 122 618 166 655 L153 668 Z M317 668 C258 626 229 573 229 523 C229 490 243 456 274 433 C280 433 294 447 294 453 C269 479 259 499 259 534 C259 580 286 618 330 655 L317 668 Z " />
<glyph glyph-name="quotedblright" unicode="&#x201d;" horiz-adv-x="382" d="M72 441 C131 483 160 536 160 586 C160 619 146 653 115 676 C109 676 95 662 95 656 C120 630 130 610 130 575 C130 529 103 491 59 454 L72 441 Z M239 441 C298 483 327 536 327 586 C327 619 313 653 282 676 C276 676 262 662 262 656 C287 630 297 610 297 575 C297 529 270 491 226 454 L239 441 Z " />
<glyph glyph-name="quotedblbase" unicode="&#x201e;" horiz-adv-x="364" d="M41 -132 C100 -90 130 -36 130 15 C130 47 116 81 85 104 C78 104 65 91 65 84 C89 58 99 38 99 3 C99 -43 72 -81 28 -119 L41 -132 Z M209 -132 C268 -90 298 -36 298 15 C298 47 284 81 253 104 C246 104 233 91 233 84 C257 58 267 38 267 3 C267 -43 240 -81 196 -119 L209 -132 Z " />
<glyph glyph-name="dagger" unicode="&#x2020;" horiz-adv-x="501" d="M41 426 L236 426 L236 0 L260 0 L260 426 L459 426 L459 450 L260 450 L260 653 L236 653 L236 450 L41 450 L41 426 Z " />
<glyph glyph-name="daggerdbl" unicode="&#x2021;" horiz-adv-x="544" d="M63 409 L257 409 L257 231 L63 231 L63 207 L257 207 L257 0 L282 0 L282 207 L481 207 L481 231 L282 231 L282 409 L481 409 L481 433 L282 433 L282 653 L257 653 L257 433 L63 433 L63 409 Z " />
<glyph glyph-name="bullet" unicode="&#x2022;" horiz-adv-x="416" d="M208 167 C281 167 337 223 337 296 C337 368 281 424 208 424 C136 424 80 368 80 296 C80 223 136 167 208 167 L208 167 Z " />
<glyph glyph-name="ellipsis" unicode="&#x2026;" horiz-adv-x="609" d="M77 -6 L104 -6 L104 115 L77 115 L77 -6 Z M293 -6 L320 -6 L320 115 L293 115 L293 -6 Z M506 -6 L533 -6 L533 115 L506 115 L506 -6 Z " />
<glyph glyph-name="perthousand" unicode="&#x2030;" horiz-adv-x="976" d="M169 287 C241 287 294 344 294 438 C294 540 241 591 169 591 C96 591 43 530 43 435 C43 337 96 287 169 287 L169 287 Z M381 369 L403 369 L515 574 L515 583 L492 583 L381 369 Z M170 308 C99 308 68 365 68 436 C68 514 105 570 168 570 C234 570 269 519 269 437 C269 365 238 308 170 308 L170 308 Z M538 -8 C610 -8 663 49 663 143 C663 245 610 296 538 296 C465 296 412 235 412 140 C412 42 465 -8 538 -8 L538 -8 Z M539 13 C468 13 437 69 437 140 C437 217 474 275 537 275 C603 275 638 224 638 142 C638 70 607 13 539 13 L539 13 Z M332 218 L310 218 L198 9 L198 0 L222 0 L332 218 Z M808 -8 C880 -8 933 49 933 143 C933 245 880 296 808 296 C735 296 682 235 682 140 C682 42 735 -8 808 -8 L808 -8 Z M809 13 C738 13 707 69 707 140 C707 217 744 275 807 275 C873 275 908 224 908 142 C908 70 877 13 809 13 L809 13 Z " />
<glyph glyph-name="guilsinglleft" unicode="&#x2039;" horiz-adv-x="240" d="M153 46 L179 46 L84 226 L179 405 L153 405 L53 226 L153 46 Z " />
<glyph glyph-name="guilsinglright" unicode="&#x203a;" horiz-adv-x="239" d="M86 408 L60 408 L155 228 L60 49 L86 49 L186 228 L86 408 Z " />
<glyph glyph-name="uni203D" unicode="&#x203d;" horiz-adv-x="375" d="M139 323 L142 193 L164 193 L165 267 C215 286 331 339 331 452 C331 550 264 592 173 592 C133 592 81 583 42 566 L42 540 C84 559 130 567 172 567 C250 567 301 528 301 452 C301 356 216 310 165 289 L166 324 L166 470 L139 470 L139 323 Z M137 -6 L164 -6 L164 105 L137 105 L137 -6 Z " />
<glyph glyph-name="fraction" unicode="&#x2044;" horiz-adv-x="100" d="M-110 0 L225 546 L225 547 L201 547 L-133 1 L-133 0 L-110 0 Z " />
<glyph glyph-name="zerosuperior" unicode="&#x2070;" horiz-adv-x="294" d="M144 396 C223 396 264 460 264 556 C264 634 238 711 149 711 C69 711 31 640 31 547 C31 457 62 396 144 396 L144 396 Z M145 415 C92 415 54 448 54 547 C54 645 92 691 147 691 C201 691 240 650 240 555 C240 459 200 415 145 415 L145 415 Z " />
<glyph glyph-name="i.superior" unicode="&#x2071;" horiz-adv-x="141" d="M17 685 L67 685 L67 400 L91 400 L91 706 L17 706 L17 685 Z M66 793 L88 793 L88 855 L66 855 L66 793 Z " />
<glyph glyph-name="foursuperior" unicode="&#x2074;" horiz-adv-x="245" d="M157 400 L180 400 L180 487 L226 487 L226 506 L180 506 L180 711 L158 711 L11 507 L11 487 L157 487 L157 400 Z M34 506 L155 678 L157 678 L157 506 L34 506 Z " />
<glyph glyph-name="fivesuperior" unicode="&#x2075;" horiz-adv-x="236" d="M103 396 C156 396 208 425 208 491 C208 562 158 580 92 580 C80 580 70 579 61 578 L69 686 L204 686 L204 706 L51 706 L40 557 C55 560 71 561 86 561 C146 561 185 546 185 490 C185 442 150 415 105 415 C77 415 51 420 25 431 L25 410 C43 403 68 396 103 396 L103 396 Z " />
<glyph glyph-name="sixsuperior" unicode="&#x2076;" horiz-adv-x="256" d="M128 396 C191 396 230 437 230 499 C230 564 194 587 141 587 C109 587 75 570 55 555 C61 646 97 691 160 691 C174 691 193 690 214 681 L214 702 C197 708 176 711 160 711 C82 711 30 643 30 530 C30 454 64 396 128 396 L128 396 Z M137 568 C184 568 206 549 206 497 C206 444 179 415 129 415 C78 415 55 463 55 530 L55 536 C74 550 103 568 137 568 L137 568 Z " />
<glyph glyph-name="sevensuperior" unicode="&#x2077;" horiz-adv-x="198" d="M57 400 L193 690 L193 706 L12 706 L12 686 L169 686 L34 402 L36 400 L57 400 Z " />
<glyph glyph-name="eightsuperior" unicode="&#x2078;" horiz-adv-x="256" d="M226 482 C226 525 195 543 160 556 C192 572 220 599 220 635 C220 680 185 711 126 711 C75 711 38 676 38 630 C38 592 60 573 88 560 C58 546 31 515 31 479 C31 429 66 396 124 396 C185 396 226 432 226 482 L226 482 Z M54 480 C54 516 79 540 105 554 C150 537 203 528 203 481 C203 430 162 415 125 415 C83 415 54 437 54 480 L54 480 Z M196 633 C196 603 175 579 142 562 C101 575 60 587 60 631 C60 669 89 691 126 691 C174 691 196 666 196 633 L196 633 Z " />
<glyph glyph-name="ninesuperior" unicode="&#x2079;" horiz-adv-x="256" d="M42 405 C59 399 80 396 96 396 C174 396 226 463 226 577 C226 653 192 711 128 711 C65 711 26 670 26 608 C26 543 62 520 115 520 C146 520 181 537 201 552 C196 461 158 415 96 415 C82 415 63 417 42 426 L42 405 Z M119 539 C72 539 50 557 50 610 C50 664 77 692 127 692 C178 692 202 644 202 577 L202 571 C183 557 153 539 119 539 L119 539 Z " />
<glyph glyph-name="plussuperior" unicode="&#x207a;" horiz-adv-x="325" d="M18 540 L151 540 L151 409 L171 409 L171 540 L307 540 L307 561 L171 561 L171 693 L151 693 L151 561 L18 561 L18 540 Z " />
<glyph glyph-name="minussuperior" unicode="&#x207b;" horiz-adv-x="372" d="M41 540 L330 540 L330 561 L41 561 L41 540 Z " />
<glyph glyph-name="equalsuperior" unicode="&#x207c;" horiz-adv-x="347" d="M41 478 L305 478 L305 499 L41 499 L41 478 Z M41 603 L305 603 L305 624 L41 624 L41 603 Z " />
<glyph glyph-name="parenleftsuperior" unicode="&#x207d;" horiz-adv-x="140" d="M135 305 C114 331 45 426 45 577 C45 725 113 818 133 837 L113 837 C94 820 24 732 24 576 C24 421 85 340 113 305 L135 305 Z " />
<glyph glyph-name="parenrightsuperior" unicode="&#x207e;" horiz-adv-x="140" d="M28 305 C52 329 116 414 116 568 C116 724 50 809 28 837 L6 837 C26 811 95 718 95 568 C95 419 26 324 6 305 L28 305 Z " />
<glyph glyph-name="n.superior" unicode="&#x207f;" horiz-adv-x="343" d="M52 400 L75 400 L75 637 C108 662 154 691 201 691 C263 691 271 657 271 598 L271 400 L295 400 L295 600 C295 676 277 712 206 712 C151 712 101 679 72 656 L62 706 L38 706 L52 638 L52 400 Z " />
<glyph glyph-name="zeroinferior" unicode="&#x2080;" horiz-adv-x="294" d="M144 -4 C223 -4 264 60 264 156 C264 234 238 311 149 311 C69 311 31 240 31 147 C31 57 62 -4 144 -4 L144 -4 Z M145 15 C92 15 54 48 54 147 C54 245 92 291 147 291 C201 291 240 250 240 155 C240 59 200 15 145 15 L145 15 Z " />
<glyph glyph-name="oneinferior" unicode="&#x2081;" horiz-adv-x="158" d="M108 0 L108 311 L91 311 L9 282 L9 263 L85 287 L85 0 L108 0 Z " />
<glyph glyph-name="twoinferior" unicode="&#x2082;" horiz-adv-x="249" d="M192 223 C192 155 101 80 20 18 L20 0 L227 0 L227 21 L53 21 L53 22 C124 74 215 152 215 224 C215 285 174 311 118 311 C90 311 57 302 30 283 L30 262 C67 287 90 291 117 291 C167 291 192 266 192 223 L192 223 Z " />
<glyph glyph-name="threeinferior" unicode="&#x2083;" horiz-adv-x="237" d="M99 -4 C154 -4 208 19 208 86 C208 135 163 160 121 162 L121 163 C141 167 192 192 192 242 C192 286 161 311 110 311 C81 311 53 302 29 284 L29 263 C58 284 80 291 109 291 C149 291 170 271 170 239 C170 201 126 171 85 167 L85 149 C146 147 185 129 185 84 C185 46 160 15 103 15 C78 15 51 20 26 31 L26 10 C42 2 67 -4 99 -4 L99 -4 Z " />
<glyph glyph-name="fourinferior" unicode="&#x2084;" horiz-adv-x="245" d="M157 0 L180 0 L180 87 L226 87 L226 106 L180 106 L180 311 L158 311 L11 107 L11 87 L157 87 L157 0 Z M34 106 L155 278 L157 278 L157 106 L34 106 Z " />
<glyph glyph-name="fiveinferior" unicode="&#x2085;" horiz-adv-x="237" d="M103 -4 C156 -4 208 25 208 91 C208 162 158 180 92 180 C80 180 70 179 61 178 L69 286 L204 286 L204 306 L51 306 L40 157 C55 160 71 161 86 161 C146 161 185 146 185 90 C185 42 150 15 105 15 C77 15 51 20 25 31 L25 10 C43 3 68 -4 103 -4 L103 -4 Z " />
<glyph glyph-name="sixinferior" unicode="&#x2086;" horiz-adv-x="256" d="M128 -4 C191 -4 230 37 230 99 C230 164 194 187 141 187 C109 187 75 170 55 155 C61 246 97 291 160 291 C174 291 193 290 214 281 L214 302 C197 308 176 311 160 311 C82 311 30 243 30 130 C30 54 64 -4 128 -4 L128 -4 Z M137 168 C184 168 206 149 206 97 C206 44 179 15 129 15 C78 15 55 63 55 130 L55 136 C74 150 103 168 137 168 L137 168 Z " />
<glyph glyph-name="seveninferior" unicode="&#x2087;" horiz-adv-x="199" d="M57 0 L193 290 L193 306 L12 306 L12 286 L169 286 L34 2 L36 0 L57 0 Z " />
<glyph glyph-name="eightinferior" unicode="&#x2088;" horiz-adv-x="257" d="M226 82 C226 125 195 143 160 156 C192 172 220 199 220 235 C220 280 185 311 126 311 C75 311 38 276 38 230 C38 192 60 173 88 160 C58 146 31 115 31 79 C31 29 66 -4 124 -4 C185 -4 226 32 226 82 L226 82 Z M54 80 C54 116 79 140 105 154 C150 137 203 128 203 81 C203 30 162 15 125 15 C83 15 54 37 54 80 L54 80 Z M196 233 C196 203 175 179 142 162 C101 175 60 187 60 231 C60 269 89 291 126 291 C174 291 196 266 196 233 L196 233 Z " />
<glyph glyph-name="nineinferior" unicode="&#x2089;" horiz-adv-x="256" d="M42 5 C59 -1 80 -4 96 -4 C174 -4 226 63 226 177 C226 253 192 311 128 311 C65 311 26 270 26 208 C26 143 62 120 115 120 C146 120 181 137 201 152 C196 61 158 15 96 15 C82 15 63 17 42 26 L42 5 Z M119 139 C72 139 50 157 50 210 C50 264 77 292 127 292 C178 292 202 244 202 177 L202 171 C183 157 153 139 119 139 L119 139 Z " />
<glyph glyph-name="plus.inferior" unicode="&#x208a;" horiz-adv-x="325" d="M18 140 L151 140 L151 9 L171 9 L171 140 L307 140 L307 161 L171 161 L171 293 L151 293 L151 161 L18 161 L18 140 Z " />
<glyph glyph-name="minus.inferior" unicode="&#x208b;" horiz-adv-x="372" d="M41 140 L330 140 L330 161 L41 161 L41 140 Z " />
<glyph glyph-name="equal.inferior" unicode="&#x208c;" horiz-adv-x="347" d="M41 78 L305 78 L305 99 L41 99 L41 78 Z M41 203 L305 203 L305 224 L41 224 L41 203 Z " />
<glyph glyph-name="parenleft.inferior" unicode="&#x208d;" horiz-adv-x="140" d="M135 -95 C114 -69 45 26 45 177 C45 325 113 418 133 437 L113 437 C94 420 24 332 24 176 C24 21 85 -60 113 -95 L135 -95 Z " />
<glyph glyph-name="parenright.inferior" unicode="&#x208e;" horiz-adv-x="140" d="M28 -95 C52 -71 116 14 116 168 C116 324 50 409 28 437 L6 437 C26 411 95 318 95 168 C95 19 26 -76 6 -95 L28 -95 Z " />
<glyph glyph-name="a.inferior" unicode="&#x2090;" horiz-adv-x="296" d="M234 0 L259 0 L247 57 L247 227 C247 291 212 312 155 312 C120 312 68 302 42 292 L42 271 C68 281 115 291 153 291 C215 291 223 258 223 217 L223 163 L165 163 C82 163 25 137 25 76 C25 25 51 -5 110 -5 C156 -5 199 19 226 40 L234 0 Z M113 15 C74 15 49 30 49 77 C49 128 97 144 161 144 L223 144 L223 58 C193 38 154 15 113 15 L113 15 Z " />
<glyph glyph-name="e.inferior" unicode="&#x2091;" horiz-adv-x="308" d="M272 16 L272 37 C243 23 207 15 168 15 C98 15 54 54 54 149 L54 152 L280 152 L280 166 C280 248 249 312 160 312 C72 312 29 241 29 148 C29 52 72 -5 167 -5 C212 -5 245 2 272 16 L272 16 Z M159 291 C234 291 254 231 254 174 L254 171 L54 171 C60 251 99 291 159 291 L159 291 Z " />
<glyph glyph-name="o.inferior" unicode="&#x2092;" horiz-adv-x="322" d="M161 -5 C241 -5 293 69 293 153 C293 262 246 312 164 312 C86 312 29 238 29 152 C29 42 85 -5 161 -5 L161 -5 Z M161 15 C97 15 53 57 53 152 C53 234 98 291 162 291 C239 291 268 239 268 152 C268 72 227 15 161 15 L161 15 Z " />
<glyph glyph-name="x.inferior" unicode="&#x2093;" horiz-adv-x="287" d="M46 306 L17 306 L130 156 L6 0 L35 0 L142 138 L144 138 L245 0 L275 0 L157 157 L273 306 L245 306 L146 177 L142 177 L46 306 Z " />
<glyph glyph-name="h.inferior" unicode="&#x2095;" horiz-adv-x="340" d="M270 0 L293 0 L293 200 C293 276 277 312 206 312 C152 312 103 281 74 258 L74 478 L50 478 L50 0 L74 0 L74 237 C107 262 153 291 200 291 C262 291 270 257 270 198 L270 0 Z " />
<glyph glyph-name="k.inferior" unicode="&#x2096;" horiz-adv-x="278" d="M238 0 L269 0 L121 172 L273 306 L243 306 L96 175 L96 166 L238 0 Z M50 0 L74 0 L74 478 L50 478 L50 0 Z " />
<glyph glyph-name="l.inferior" unicode="&#x2097;" horiz-adv-x="132" d="M54 0 L78 0 L78 478 L54 478 L54 0 Z " />
<glyph glyph-name="m.inferior" unicode="&#x2098;" horiz-adv-x="535" d="M464 0 L488 0 L488 200 C488 276 476 312 405 312 C352 312 309 283 277 258 C269 294 248 312 199 312 C147 312 103 283 72 258 L62 306 L38 306 L52 238 L52 0 L75 0 L75 240 C107 263 147 291 193 291 C256 291 258 257 258 198 L258 0 L282 0 L282 200 C282 214 281 227 280 239 C312 263 353 291 398 291 C461 291 464 257 464 198 L464 0 Z " />
<glyph glyph-name="n.inferior" unicode="&#x2099;" horiz-adv-x="342" d="M52 0 L75 0 L75 237 C108 262 154 291 201 291 C263 291 271 257 271 198 L271 0 L295 0 L295 200 C295 276 277 312 206 312 C151 312 101 279 72 256 L62 306 L38 306 L52 238 L52 0 Z " />
<glyph glyph-name="p.inferior" unicode="&#x209a;" horiz-adv-x="326" d="M52 -141 L75 -141 L75 5 C96 -1 120 -5 147 -5 C237 -5 296 50 296 165 C296 254 258 312 183 312 C137 312 101 284 71 260 L62 306 L38 306 L52 239 L52 -141 Z M177 291 C242 291 271 241 271 160 C271 71 231 15 148 15 C122 15 98 19 75 26 L75 242 C101 263 135 291 177 291 L177 291 Z " />
<glyph glyph-name="s.inferior" unicode="&#x209b;" horiz-adv-x="261" d="M123 -5 C179 -5 235 19 235 85 C235 142 186 156 133 168 C86 179 51 188 51 229 C51 272 89 291 133 291 C164 291 188 287 223 273 L223 296 C197 308 165 312 135 312 C73 312 28 281 28 227 C28 173 74 160 126 147 C175 135 213 125 213 84 C213 42 184 15 126 15 C93 15 67 20 32 35 L32 12 C58 1 86 -5 123 -5 L123 -5 Z " />
<glyph glyph-name="t.inferior" unicode="&#x209c;" horiz-adv-x="232" d="M16 285 L63 285 L63 84 C63 18 98 -5 145 -5 C171 -5 195 -1 211 7 L211 27 C194 20 175 15 151 15 C112 15 87 33 87 88 L87 285 L205 285 L205 306 L87 306 L87 386 L63 386 L63 306 L16 306 L16 285 Z " />
<glyph glyph-name="colonsign" unicode="&#x20a1;" horiz-adv-x="601" d="M229 -92 L255 -92 L291 -4 C307 -6 324 -8 342 -8 C420 -8 482 12 511 28 L511 55 C462 28 405 18 343 18 C329 18 315 19 302 20 L573 668 L548 668 L504 563 C486 570 462 577 429 583 L465 668 L440 668 L406 587 C387 589 365 591 340 591 C152 591 55 454 55 297 C55 183 96 90 175 37 L121 -92 L147 -92 L196 25 C217 13 241 5 267 0 L229 -92 Z M85 300 C85 471 196 566 339 566 C357 566 376 565 396 562 L187 65 C125 110 85 187 85 300 L85 300 Z M207 52 L419 559 C444 555 469 548 493 538 L278 24 C252 30 228 39 207 52 L207 52 Z " />
<glyph glyph-name="cruzeiro" unicode="&#x20a2;" horiz-adv-x="595" d="M346 -8 C424 -8 486 12 515 28 L515 55 C466 28 409 18 347 18 C337 18 328 18 319 19 L319 218 C364 266 411 309 479 309 C492 309 506 307 520 303 L520 330 C504 334 493 335 477 335 C404 335 353 285 316 245 L301 326 L272 326 L291 226 L291 23 C175 43 89 131 89 296 C89 467 200 566 343 566 C397 566 458 558 515 530 L515 560 C484 572 434 591 344 591 C156 591 59 450 59 293 C59 117 157 -8 346 -8 L346 -8 Z " />
<glyph glyph-name="franc" unicode="&#x20a3;" horiz-adv-x="674" d="M90 0 L119 0 L119 307 L382 307 L396 232 L396 0 L423 0 L423 223 C468 271 516 315 583 315 C597 315 611 313 625 309 L625 336 C609 340 598 341 582 341 C509 341 457 290 421 250 L405 332 L119 332 L119 558 L422 558 L422 583 L90 583 L90 0 Z " />
<glyph glyph-name="lira" unicode="&#x20a4;" horiz-adv-x="519" d="M385 341 L138 341 C132 371 128 399 128 425 C128 512 193 565 285 565 C346 565 389 554 434 528 L434 557 C396 578 349 591 285 591 C199 591 101 543 101 423 C101 397 104 369 109 341 L62 341 L62 317 L114 317 C121 281 130 245 135 213 L62 213 L62 189 L138 189 C139 179 140 170 140 161 C140 117 122 69 91 25 L60 25 L60 0 L463 0 L463 25 L123 25 C150 70 167 116 167 165 C167 172 166 180 166 189 L385 189 L385 213 L163 213 C158 246 150 282 142 317 L385 317 L385 341 Z " />
<glyph glyph-name="mill" unicode="&#x20a5;" horiz-adv-x="770" d="M378 0 L405 0 L405 294 C405 303 404 312 404 320 L419 366 C464 399 519 434 582 434 C677 434 679 380 679 292 L679 0 L706 0 L706 295 C706 405 693 459 589 459 C526 459 472 430 429 399 L485 574 L459 574 L398 382 C387 433 359 459 288 459 C209 459 145 414 98 376 L84 450 L56 450 L75 350 L75 0 L102 0 L102 353 C149 390 210 434 281 434 C365 434 376 391 378 318 L239 -120 L265 -120 L378 236 L378 0 Z " />
<glyph glyph-name="naira" unicode="&#x20a6;" horiz-adv-x="671" d="M122 0 L151 0 L151 220 L367 220 L515 0 L549 0 L549 220 L618 220 L618 245 L549 245 L549 338 L618 338 L618 362 L549 362 L549 583 L520 583 L520 362 L304 362 L155 583 L122 583 L122 362 L53 362 L53 338 L122 338 L122 245 L53 245 L53 220 L122 220 L122 0 Z M151 338 L289 338 L351 245 L151 245 L151 338 Z M320 338 L520 338 L520 245 L382 245 L320 338 Z M151 543 L152 543 L273 362 L151 362 L151 543 Z M519 43 L399 220 L520 220 L520 43 L519 43 Z " />
<glyph glyph-name="pesetas" unicode="&#x20a7;" horiz-adv-x="1105" d="M90 0 L119 0 L119 220 L204 220 C364 220 441 301 441 405 C441 528 360 583 243 583 L90 583 L90 0 Z M230 558 C352 557 412 502 412 404 C412 277 298 246 199 245 L119 245 L119 558 L230 558 Z M889 -8 C968 -8 1048 27 1048 124 C1048 205 980 227 902 245 C832 261 780 274 780 338 C780 405 837 434 904 434 C948 434 982 428 1032 408 L1032 436 C993 452 949 459 906 459 C817 459 754 414 754 336 C754 256 817 238 894 219 C966 201 1022 186 1022 122 C1022 59 980 17 892 17 C845 17 807 23 759 44 L759 16 C797 0 836 -8 889 -8 L889 -8 Z M456 425 L523 425 L523 124 C523 26 570 -8 639 -8 C676 -8 711 -1 733 11 L733 35 C708 24 681 17 645 17 C588 17 551 44 550 129 L550 425 L724 425 L724 450 L550 450 L550 568 L523 568 L523 450 L456 450 L456 425 Z " />
<glyph glyph-name="rupee" unicode="&#x20a8;" horiz-adv-x="843" d="M623 16 C553 16 496 54 390 171 C372 188 342 227 318 255 C403 279 444 336 444 414 C444 537 363 583 246 583 L90 583 L90 0 L119 0 L119 241 L207 241 C237 241 265 243 289 248 C314 219 348 173 367 155 C469 42 530 -8 622 -8 C701 -8 786 26 786 124 C786 205 719 227 641 245 C570 261 519 274 519 338 C519 405 576 434 642 434 C686 434 720 428 770 408 L770 436 C731 452 687 459 644 459 C555 459 492 414 492 336 C492 256 555 238 632 219 C705 201 760 186 760 122 C760 57 715 16 623 16 L623 16 Z M233 558 C354 557 414 515 414 414 C414 287 301 267 202 267 L119 267 L119 558 L233 558 Z " />
<glyph glyph-name="won" unicode="&#x20a9;" horiz-adv-x="891" d="M829 583 L798 583 L731 378 L514 378 L455 583 L421 583 L355 378 L148 378 L92 583 L60 583 L117 378 L59 378 L59 353 L124 353 L152 252 L59 252 L59 227 L159 227 L223 0 L261 0 L334 227 L530 227 L597 0 L634 0 L710 227 L831 227 L831 252 L718 252 L752 353 L831 353 L831 378 L760 378 L829 583 Z M690 252 L551 252 L547 268 L522 353 L723 353 L695 267 L690 252 Z M314 252 L182 252 L178 268 L155 353 L347 353 L319 267 L314 252 Z M374 351 L374 353 L492 353 L493 351 L522 252 L342 252 L374 351 Z M616 33 L559 227 L682 227 L619 33 L616 33 Z M242 33 L189 227 L306 227 L244 33 L242 33 Z M435 538 L438 538 L485 378 L382 378 L435 538 Z " />
<glyph glyph-name="sheqel" unicode="&#x20aa;" horiz-adv-x="701" d="M90 0 L115 0 L115 554 L272 554 C406 554 431 513 431 314 L431 268 L455 268 L455 314 C455 516 436 583 263 583 L90 583 L90 0 Z M263 0 L386 0 C611 0 617 160 617 276 L617 583 L592 583 L592 277 C592 116 554 29 392 29 L288 29 L288 358 L263 358 L263 0 Z " />
<glyph glyph-name="dong" unicode="&#x20ab;" horiz-adv-x="518" d="M222 608 L376 608 L376 489 C339 498 305 504 264 504 C154 504 59 459 59 306 C59 170 133 125 219 125 C282 125 337 164 379 201 L394 133 L421 133 L404 222 L404 608 L469 608 L469 632 L404 632 L404 710 L376 710 L376 632 L222 632 L222 608 Z M222 149 C139 149 88 195 88 311 C88 451 174 480 263 480 C307 480 342 472 376 462 L376 223 C333 189 282 149 222 149 L222 149 Z M58 0 L427 0 L427 26 L58 26 L58 0 Z " />
<glyph glyph-name="Euro" unicode="&#x20ac;" horiz-adv-x="584" d="M51 356 L122 356 C119 335 118 314 118 292 C118 276 118 261 119 247 L51 247 L51 222 L122 222 C140 84 216 -8 376 -8 C444 -8 488 11 517 27 L517 54 C468 26 433 18 377 18 C258 18 174 82 153 222 L405 222 L405 247 L150 247 C148 262 148 278 148 295 C148 316 149 337 152 356 L405 356 L405 381 L156 381 C182 499 262 566 374 566 C420 566 460 562 517 535 L517 564 C486 577 453 591 376 591 C228 591 151 499 127 381 L51 381 L51 356 Z " />
<glyph glyph-name="uni20AD" unicode="&#x20ad;" horiz-adv-x="534" d="M107 0 L136 0 L136 291 L177 291 L438 0 L476 0 L212 291 L452 291 L452 316 L212 316 L485 583 L449 583 L180 316 L136 316 L136 583 L107 583 L107 316 L48 316 L48 291 L107 291 L107 0 Z " />
<glyph glyph-name="uni20AE" unicode="&#x20ae;" horiz-adv-x="551" d="M41 558 L262 558 L262 333 L126 277 L126 252 L262 308 L262 213 L126 157 L126 132 L262 188 L262 0 L291 0 L291 200 L420 253 L420 279 L291 225 L291 320 L420 373 L420 399 L291 345 L291 558 L512 558 L512 583 L41 583 L41 558 Z " />
<glyph glyph-name="uni20B1" unicode="&#x20b1;" horiz-adv-x="616" d="M121 0 L150 0 L150 220 L235 220 C355 220 428 265 457 332 L561 332 L561 355 L465 355 C470 371 472 387 472 405 C472 422 470 438 467 453 L561 453 L561 475 L461 475 C435 549 366 583 274 583 L121 583 L121 475 L55 475 L55 453 L121 453 L121 355 L55 355 L55 332 L121 332 L121 0 Z M443 404 C443 386 440 369 436 355 L150 355 L150 453 L437 453 C441 438 443 422 443 404 L443 404 Z M230 245 L150 245 L150 332 L427 332 C392 264 306 246 230 245 L230 245 Z M261 558 C349 557 405 528 429 475 L150 475 L150 558 L261 558 Z " />
<glyph glyph-name="uni20B4" unicode="&#x20b4;" horiz-adv-x="532" d="M472 363 L401 363 C424 386 438 415 438 454 C438 553 358 592 265 592 C210 592 160 580 121 564 L121 535 C169 555 217 566 265 566 C356 566 409 524 409 457 C409 416 392 386 363 363 L56 363 L56 338 L324 338 C308 330 291 323 272 316 C222 298 176 277 144 246 L56 246 L56 221 L123 221 C108 199 100 173 100 142 C100 33 186 -8 288 -8 C340 -8 380 0 434 18 L434 48 C390 29 338 18 287 18 C195 18 128 57 128 143 C128 174 138 200 156 221 L472 221 L472 246 L183 246 C209 265 243 281 281 295 C314 307 345 321 371 338 L472 338 L472 363 Z " />
<glyph glyph-name="uni20B9" unicode="&#x20b9;" horiz-adv-x="484" d="M435 424 L368 424 C364 498 327 539 268 558 L426 558 L435 583 L71 583 L71 558 L158 558 C273 557 333 515 338 424 L71 424 L71 400 L339 400 C333 280 223 259 127 259 L71 259 L71 234 L132 234 C162 234 189 236 213 241 L375 0 L411 0 L242 248 C324 272 365 326 369 400 L426 400 L435 424 Z " />
<glyph glyph-name="uni2113" unicode="&#x2113;" horiz-adv-x="357" d="M29 185 L39 166 C62 181 84 195 104 209 L104 140 C104 36 134 -8 197 -8 C247 -8 276 14 302 42 L288 59 C269 34 243 15 204 15 C159 15 132 46 132 144 L132 229 C185 267 226 302 257 334 C304 383 327 427 327 473 C327 557 283 589 222 589 C133 589 104 511 104 419 L104 236 L29 185 Z M132 423 C132 525 166 566 222 566 C277 566 300 527 300 473 C300 427 275 383 229 338 C203 311 171 285 132 256 L132 423 Z " />
<glyph glyph-name="uni2116" unicode="&#x2116;" horiz-adv-x="940" d="M604 175 L879 175 L879 197 L604 197 L604 175 Z M740 244 C820 244 872 318 872 402 C872 511 826 561 744 561 C665 561 608 487 608 401 C608 291 665 244 740 244 L740 244 Z M740 264 C676 264 632 306 632 401 C632 483 678 540 741 540 C819 540 848 488 848 401 C848 321 806 264 740 264 L740 264 Z M90 0 L119 0 L119 543 L120 543 L483 0 L517 0 L517 583 L488 583 L488 43 L487 43 L123 583 L90 583 L90 0 Z " />
<glyph glyph-name="uni2117" unicode="&#x2117;" horiz-adv-x="721" d="M361 -14 C528 -14 664 122 664 289 C664 456 528 592 361 592 C194 592 58 456 58 289 C58 122 194 -14 361 -14 L361 -14 Z M361 3 C211 3 76 130 76 289 C76 451 211 575 361 575 C511 575 646 452 646 289 C646 130 511 3 361 3 L361 3 Z M268 86 L293 86 L293 229 L350 229 C460 229 514 282 514 354 C514 436 458 473 377 473 L268 473 L268 86 Z M367 452 C448 451 489 418 489 354 C489 271 414 251 347 251 L293 251 L293 452 L367 452 Z " />
<glyph glyph-name="servicemark" unicode="&#x2120;" horiz-adv-x="648" d="M271 301 L291 301 L318 557 L320 557 L410 301 L435 301 L528 556 L530 556 L556 301 L577 301 L548 583 L517 583 L424 329 L422 329 L331 583 L301 583 L271 301 Z M77 313 C104 304 123 300 148 300 C198 300 240 323 240 377 C240 424 201 444 156 461 C116 475 96 493 96 520 C96 553 115 572 160 572 C183 572 206 567 229 557 L229 577 C210 586 186 591 160 591 C111 591 75 567 75 519 C75 477 108 459 150 444 C192 427 220 411 220 377 C220 336 194 319 149 319 C124 319 99 325 77 334 L77 313 Z " />
<glyph glyph-name="trademark" unicode="&#x2122;" horiz-adv-x="677" d="M300 301 L321 301 L347 557 L349 557 L439 301 L465 301 L558 556 L560 556 L585 301 L607 301 L577 583 L546 583 L454 329 L451 329 L361 583 L330 583 L300 301 Z M64 563 L166 563 L166 301 L188 301 L188 563 L292 563 L292 583 L64 583 L64 563 Z " />
<glyph glyph-name="Omega" unicode="&#x2126;" horiz-adv-x="653" d="M325 592 C136 592 63 429 63 294 C63 170 130 75 204 27 L204 25 L69 25 L69 0 L247 0 L247 21 C161 80 92 166 92 293 C92 466 192 566 326 566 C460 566 561 466 561 293 C561 166 492 80 406 21 L406 0 L584 0 L584 25 L449 25 L449 27 C524 77 590 173 590 297 C590 432 515 592 325 592 L325 592 Z " />
<glyph glyph-name="estimated" unicode="&#x212e;" horiz-adv-x="532" d="M275 -8 C359 -8 419 21 471 90 L455 102 C410 41 350 13 276 13 C156 13 95 87 92 198 L92 218 L469 218 L469 274 C468 369 407 465 279 465 C136 465 58 357 58 217 C58 74 135 -8 275 -8 L275 -8 Z M92 238 L92 253 C95 371 171 446 279 446 C390 446 435 356 435 285 L435 238 L92 238 Z " />
<glyph glyph-name="onethird" unicode="&#x2153;" horiz-adv-x="589" d="M139 267 L139 578 L122 578 L40 549 L40 530 L116 554 L116 267 L139 267 Z M430 -4 C485 -4 539 19 539 86 C539 135 494 160 452 162 L452 163 C472 167 523 192 523 242 C523 286 492 311 441 311 C412 311 384 302 360 284 L360 263 C389 284 411 291 440 291 C480 291 501 271 501 239 C501 201 457 171 416 167 L416 149 C477 147 516 129 516 84 C516 46 491 15 434 15 C409 15 382 20 357 31 L357 10 C373 2 398 -4 430 -4 L430 -4 Z M115 0 L450 546 L450 547 L426 547 L92 1 L92 0 L115 0 Z " />
<glyph glyph-name="twothirds" unicode="&#x2154;" horiz-adv-x="607" d="M225 498 C225 430 134 355 53 293 L53 275 L260 275 L260 296 L86 296 L86 297 C157 349 248 427 248 499 C248 560 207 586 151 586 C123 586 90 577 63 558 L63 537 C100 562 123 566 150 566 C200 566 225 541 225 498 L225 498 Z M447 -4 C502 -4 556 19 556 86 C556 135 511 160 469 162 L469 163 C489 167 540 192 540 242 C540 286 509 311 458 311 C429 311 401 302 377 284 L377 263 C406 284 428 291 457 291 C497 291 518 271 518 239 C518 201 474 171 433 167 L433 149 C494 147 533 129 533 84 C533 46 508 15 451 15 C426 15 399 20 374 31 L374 10 C390 2 415 -4 447 -4 L447 -4 Z M158 0 L493 546 L493 547 L469 547 L135 1 L135 0 L158 0 Z " />
<glyph glyph-name="uni215B" unicode="&#x215b;" horiz-adv-x="600" d="M548 82 C548 125 517 143 482 156 C514 172 542 199 542 235 C542 280 507 311 448 311 C397 311 360 276 360 230 C360 192 382 173 410 160 C380 146 353 115 353 79 C353 29 388 -4 446 -4 C507 -4 548 32 548 82 L548 82 Z M376 80 C376 116 401 140 427 154 C472 137 525 128 525 81 C525 30 484 15 447 15 C405 15 376 37 376 80 L376 80 Z M518 233 C518 203 497 179 464 162 C423 175 382 187 382 231 C382 269 411 291 448 291 C496 291 518 266 518 233 L518 233 Z M117 0 L452 546 L452 547 L428 547 L94 1 L94 0 L117 0 Z M139 267 L139 578 L122 578 L40 549 L40 530 L116 554 L116 267 L139 267 Z " />
<glyph glyph-name="arrowleft" unicode="&#x2190;" horiz-adv-x="529" d="M184 95 L69 252 L529 252 L529 277 L70 277 L184 433 L154 433 L30 264 L154 95 L184 95 Z " />
<glyph glyph-name="arrowup" unicode="&#x2191;" horiz-adv-x="419" d="M388 467 L219 590 L49 467 L49 437 L205 551 L205 92 L231 92 L231 551 L388 437 L388 467 Z " />
<glyph glyph-name="arrowright" unicode="&#x2192;" horiz-adv-x="529" d="M375 95 L499 264 L375 433 L345 433 L459 277 L0 277 L0 252 L460 252 L345 95 L375 95 Z " />
<glyph glyph-name="arrowdown" unicode="&#x2193;" horiz-adv-x="419" d="M49 215 L219 92 L388 215 L388 245 L232 131 L232 590 L206 590 L206 131 L49 245 L49 215 Z " />
<glyph glyph-name="uni2196" unicode="&#x2196;" horiz-adv-x="431" d="M249 549 L42 517 L10 311 L31 289 L61 480 L385 155 L404 174 L79 498 L271 528 L249 549 Z " />
<glyph glyph-name="uni2197" unicode="&#x2197;" horiz-adv-x="454" d="M426 311 L394 517 L187 549 L165 528 L357 499 L31 175 L50 156 L375 480 L405 289 L426 311 Z " />
<glyph glyph-name="uni2198" unicode="&#x2198;" horiz-adv-x="431" d="M162 144 L369 176 L401 382 L380 404 L351 213 L26 538 L7 520 L333 195 L140 164 L162 144 Z " />
<glyph glyph-name="uni2199" unicode="&#x2199;" horiz-adv-x="431" d="M27 387 L60 180 L266 148 L288 170 L96 199 L421 524 L403 541 L79 217 L48 409 L27 387 Z " />
<glyph glyph-name="partialdiff" unicode="&#x2202;" horiz-adv-x="482" d="M249 459 C135 459 45 360 45 223 C45 62 126 -8 234 -8 C350 -8 424 102 424 225 C424 414 384 576 166 675 L152 653 C270 599 325 543 372 422 C332 448 290 459 249 459 L249 459 Z M395 223 C395 102 329 17 234 17 C142 17 73 76 73 224 C73 349 148 434 250 434 C293 434 338 419 380 390 C388 343 395 284 395 223 L395 223 Z " />
<glyph glyph-name="Delta" unicode="&#x2206;" horiz-adv-x="506" d="M473 0 L473 23 L283 583 L251 583 L32 22 L32 0 L473 0 Z M264 551 L267 551 L442 25 L61 25 L264 551 Z " />
<glyph glyph-name="product" unicode="&#x220f;" horiz-adv-x="712" d="M180 -207 L180 558 L525 558 L525 -207 L555 -207 L555 558 L684 558 L684 583 L29 583 L29 558 L150 558 L150 -208 L180 -207 Z " />
<glyph glyph-name="summation" unicode="&#x2211;" horiz-adv-x="513" d="M38 -207 L470 -207 L470 -181 L75 -181 L301 220 L77 558 L445 558 L445 583 L42 583 L42 560 L269 219 L38 -187 L38 -207 Z " />
<glyph glyph-name="minus" unicode="&#x2212;" horiz-adv-x="567" d="M75 283 L493 283 L493 307 L75 307 L75 283 Z " />
<glyph glyph-name="radical" unicode="&#x221a;" horiz-adv-x="546" d="M216 0 L247 0 L526 653 L497 653 L236 34 L232 34 L64 450 L35 450 L216 0 Z " />
<glyph glyph-name="infinity" unicode="&#x221e;" horiz-adv-x="879" d="M230 506 C128 506 66 395 66 294 C66 193 120 82 230 82 C324 82 400 203 443 276 C494 202 552 82 649 82 C759 82 813 193 813 294 C813 395 751 506 649 506 C555 506 495 389 443 316 C392 389 328 506 230 506 L230 506 Z M230 107 C169 107 92 168 92 294 C92 416 169 481 230 481 C319 481 384 363 429 296 C386 224 313 107 230 107 L230 107 Z M649 107 C566 107 502 227 458 296 C502 363 567 481 649 481 C710 481 787 416 787 294 C787 168 710 107 649 107 L649 107 Z " />
<glyph glyph-name="integral" unicode="&#x222b;" horiz-adv-x="425" d="M187 -44 C187 -145 165 -188 87 -188 C60 -188 51 -187 25 -182 L25 -207 C41 -210 64 -213 85 -213 C182 -213 214 -156 214 -43 L214 489 C214 591 260 634 337 634 C364 634 374 633 400 629 L400 653 C384 657 361 659 340 659 C243 659 187 602 187 489 L187 -44 Z " />
<glyph glyph-name="approxequal" unicode="&#x2248;" horiz-adv-x="520" d="M356 369 C388 369 422 390 444 419 L430 435 C411 414 390 394 358 394 C288 394 253 438 184 438 C140 438 100 412 78 391 L91 373 C107 387 137 413 183 413 C245 413 290 369 356 369 L356 369 Z M357 183 C389 183 423 204 445 233 L431 249 C412 228 391 208 359 208 C289 208 254 252 185 252 C141 252 101 226 79 205 L92 187 C108 201 138 227 184 227 C246 227 291 183 357 183 L357 183 Z " />
<glyph glyph-name="notequal" unicode="&#x2260;" horiz-adv-x="524" d="M73 374 L307 374 L205 217 L73 217 L73 192 L189 192 L78 20 L103 20 L215 192 L454 192 L454 217 L231 217 L333 374 L454 374 L454 399 L349 399 L457 564 L430 564 L323 399 L73 399 L73 374 Z " />
<glyph glyph-name="lessequal" unicode="&#x2264;" horiz-adv-x="545" d="M76 52 L462 52 L462 77 L76 77 L76 52 Z M462 147 L462 174 L111 337 L111 339 L462 502 L462 529 L76 349 L76 327 L462 147 Z " />
<glyph glyph-name="greaterequal" unicode="&#x2265;" horiz-adv-x="545" d="M469 77 L83 77 L83 52 L469 52 L469 77 Z M469 327 L469 349 L83 529 L83 502 L434 339 L434 337 L83 174 L83 147 L469 327 Z " />
<glyph glyph-name="uni2460" unicode="&#x2460;" horiz-adv-x="713" d="M356 -12 C523 -12 660 124 660 291 C660 458 523 595 356 595 C189 595 53 458 53 291 C53 124 189 -12 356 -12 L356 -12 Z M356 8 C200 8 73 135 73 291 C73 447 200 575 356 575 C512 575 640 447 640 291 C640 135 512 8 356 8 L356 8 Z M369 140 L369 451 L352 451 L271 422 L271 403 L346 427 L346 140 L369 140 Z " />
<glyph glyph-name="uni2461" unicode="&#x2461;" horiz-adv-x="713" d="M356 -12 C523 -12 660 124 660 291 C660 458 523 595 356 595 C189 595 53 458 53 291 C53 124 189 -12 356 -12 L356 -12 Z M356 8 C200 8 73 135 73 291 C73 447 200 575 356 575 C512 575 640 447 640 291 C640 135 512 8 356 8 L356 8 Z M243 140 L450 140 L450 160 L274 160 L277 162 C348 214 438 292 438 364 C438 425 398 451 342 451 C314 451 280 442 253 423 L253 402 C290 426 314 431 341 431 C391 431 415 406 415 362 C415 294 324 219 243 158 L243 140 Z " />
<glyph glyph-name="uni2462" unicode="&#x2462;" horiz-adv-x="713" d="M356 -12 C523 -12 660 124 660 291 C660 458 523 595 356 595 C189 595 53 458 53 291 C53 124 189 -12 356 -12 L356 -12 Z M356 8 C200 8 73 135 73 291 C73 447 200 575 356 575 C512 575 640 447 640 291 C640 135 512 8 356 8 L356 8 Z M337 136 C391 136 446 159 446 225 C446 274 400 300 359 301 L359 302 C379 307 430 331 430 382 C430 425 399 451 348 451 C319 451 291 442 267 424 L267 402 C296 423 317 431 346 431 C387 431 407 410 407 379 C407 341 364 310 323 307 L323 289 C384 287 422 268 422 224 C422 185 397 155 341 155 C316 155 288 159 264 171 L264 150 C280 142 305 136 337 136 L337 136 Z " />
<glyph glyph-name="uni2463" unicode="&#x2463;" horiz-adv-x="713" d="M356 -12 C523 -12 660 124 660 291 C660 458 523 595 356 595 C189 595 53 458 53 291 C53 124 189 -12 356 -12 L356 -12 Z M356 8 C200 8 73 135 73 291 C73 447 200 575 356 575 C512 575 640 447 640 291 C640 135 512 8 356 8 L356 8 Z M360 140 L384 140 L384 227 L430 227 L430 246 L384 246 L384 451 L362 451 L215 247 L215 227 L360 227 L360 140 Z M237 246 L360 417 L360 246 L237 246 Z " />
<glyph glyph-name="uni2464" unicode="&#x2464;" horiz-adv-x="713" d="M356 -12 C523 -12 660 124 660 291 C660 458 523 595 356 595 C189 595 53 458 53 291 C53 124 189 -12 356 -12 L356 -12 Z M356 8 C200 8 73 135 73 291 C73 447 200 575 356 575 C512 575 640 447 640 291 C640 135 512 8 356 8 L356 8 Z M331 136 C384 136 436 165 436 231 C436 302 386 320 320 320 C309 320 297 318 289 318 L297 426 L432 426 L432 446 L279 446 L268 296 C282 299 299 300 314 300 C374 300 413 286 413 229 C413 182 378 155 333 155 C305 155 279 160 253 171 L253 150 C271 143 296 136 331 136 L331 136 Z " />
<glyph glyph-name="uni2465" unicode="&#x2465;" horiz-adv-x="713" d="M356 -12 C523 -12 660 124 660 291 C660 458 523 595 356 595 C189 595 53 458 53 291 C53 124 189 -12 356 -12 L356 -12 Z M356 8 C200 8 73 135 73 291 C73 447 200 575 356 575 C512 575 640 447 640 291 C640 135 512 8 356 8 L356 8 Z M368 431 C382 431 400 429 421 421 L421 442 C405 447 384 451 368 451 C290 451 238 383 238 270 C238 194 271 136 336 136 C398 136 438 177 438 238 C438 303 401 327 348 327 C318 327 282 309 263 295 C268 386 305 431 368 431 L368 431 Z M344 308 C391 308 413 289 413 236 C413 184 387 155 336 155 C285 155 262 202 262 270 L262 275 C280 289 311 308 344 308 L344 308 Z " />
<glyph glyph-name="uni2466" unicode="&#x2466;" horiz-adv-x="713" d="M356 -12 C523 -12 660 124 660 291 C660 458 523 595 356 595 C189 595 53 458 53 291 C53 124 189 -12 356 -12 L356 -12 Z M356 8 C200 8 73 135 73 291 C73 447 200 575 356 575 C512 575 640 447 640 291 C640 135 512 8 356 8 L356 8 Z M304 140 L440 430 L440 446 L260 446 L260 426 L416 426 L281 142 L283 140 L304 140 Z " />
<glyph glyph-name="uni2467" unicode="&#x2467;" horiz-adv-x="713" d="M356 -12 C523 -12 660 124 660 291 C660 458 523 595 356 595 C189 595 53 458 53 291 C53 124 189 -12 356 -12 L356 -12 Z M356 8 C200 8 73 135 73 291 C73 447 200 575 356 575 C512 575 640 447 640 291 C640 135 512 8 356 8 L356 8 Z M450 221 C450 264 419 282 384 295 C416 311 443 338 443 375 C443 420 408 451 350 451 C299 451 262 416 262 370 C262 332 285 313 313 300 C283 286 255 256 255 219 C255 169 289 136 348 136 C408 136 450 171 450 221 L450 221 Z M420 373 C420 343 399 320 366 302 C325 315 284 328 284 371 C284 409 312 431 350 431 C398 431 420 405 420 373 L420 373 Z M278 220 C278 256 302 280 329 294 C374 277 427 268 427 220 C427 169 385 155 349 155 C307 155 278 177 278 220 L278 220 Z " />
<glyph glyph-name="uni2468" unicode="&#x2468;" horiz-adv-x="713" d="M356 -12 C523 -12 660 124 660 291 C660 458 523 595 356 595 C189 595 53 458 53 291 C53 124 189 -12 356 -12 L356 -12 Z M356 8 C200 8 73 135 73 291 C73 447 200 575 356 575 C512 575 640 447 640 291 C640 135 512 8 356 8 L356 8 Z M323 155 C309 155 291 157 270 165 L270 144 C286 139 307 136 323 136 C401 136 453 203 453 317 C453 393 420 451 355 451 C293 451 253 409 253 348 C253 283 290 259 343 259 C372 259 408 276 427 291 C423 200 385 155 323 155 L323 155 Z M347 278 C300 278 277 297 277 350 C277 404 304 431 354 431 C406 431 429 384 429 317 L429 310 C410 297 379 278 347 278 L347 278 Z " />
<glyph glyph-name="uni2469" unicode="&#x2469;" horiz-adv-x="713" d="M356 -12 C523 -12 660 124 660 291 C660 458 523 595 356 595 C189 595 53 458 53 291 C53 124 189 -12 356 -12 L356 -12 Z M356 8 C200 8 73 135 73 291 C73 447 200 575 356 575 C512 575 640 447 640 291 C640 135 512 8 356 8 L356 8 Z M258 140 L258 451 L241 451 L159 422 L159 403 L235 427 L235 140 L258 140 Z M419 136 C498 136 539 200 539 296 C539 374 513 451 424 451 C344 451 306 380 306 287 C306 197 337 136 419 136 L419 136 Z M420 155 C368 155 329 187 329 287 C329 384 368 431 422 431 C476 431 515 390 515 295 C515 198 475 155 420 155 L420 155 Z " />
<glyph glyph-name="uni24CA" unicode="&#x24ca;" horiz-adv-x="721" d="M361 -14 C528 -14 664 122 664 289 C664 456 528 592 361 592 C194 592 58 456 58 289 C58 122 194 -14 361 -14 L361 -14 Z M363 94 C436 94 508 144 508 259 L508 454 L483 454 L483 258 C483 166 435 118 363 118 C288 118 239 155 239 250 L239 454 L214 454 L214 246 C214 134 284 94 363 94 L363 94 Z M361 3 C211 3 76 130 76 289 C76 451 211 575 361 575 C511 575 646 452 646 289 C646 130 511 3 361 3 L361 3 Z " />
<glyph glyph-name="uni25B2" unicode="&#x25b2;" horiz-adv-x="590" d="M563 21 L295 449 L27 21 L563 21 Z " />
<glyph glyph-name="uni25B6" unicode="&#x25b6;" horiz-adv-x="537" d="M84 -33 L512 235 L84 503 L84 -33 Z " />
<glyph glyph-name="uni25B8" unicode="&#x25b8;" horiz-adv-x="377" d="M351 218 L84 486 L84 -50 L351 218 Z " />
<glyph glyph-name="uni25BA" unicode="&#x25ba;" horiz-adv-x="840" d="M806 218 L84 486 L84 -50 L806 218 Z " />
<glyph glyph-name="uni25BC" unicode="&#x25bc;" horiz-adv-x="610" d="M37 448 L305 20 L573 448 L37 448 Z " />
<glyph glyph-name="uni25C0" unicode="&#x25c0;" horiz-adv-x="537" d="M453 -33 L453 503 L25 235 L453 -33 Z " />
<glyph glyph-name="uni25C2" unicode="&#x25c2;" horiz-adv-x="378" d="M294 -50 L294 486 L27 219 L294 -50 Z " />
<glyph glyph-name="uni25C4" unicode="&#x25c4;" horiz-adv-x="840" d="M756 -50 L756 486 L34 218 L756 -50 Z " />
<glyph glyph-name="lozenge" unicode="&#x25ca;" horiz-adv-x="491" d="M235 0 L257 0 L461 286 L255 583 L234 583 L30 286 L235 0 Z M246 25 L58 288 L244 557 L434 285 L246 25 Z " />
<glyph glyph-name="uni2610" unicode="&#x2610;" horiz-adv-x="753" d="M85 0 L668 0 L668 583 L85 583 L85 0 Z M108 23 L108 560 L645 560 L645 23 L108 23 Z " />
<glyph glyph-name="uni2611" unicode="&#x2611;" horiz-adv-x="753" d="M85 0 L668 0 L668 583 L85 583 L85 0 Z M108 23 L108 560 L645 560 L645 23 L108 23 Z M259 78 L275 78 C369 166 510 366 589 490 L581 499 C563 490 546 474 534 454 C479 367 340 162 272 102 C244 155 215 252 213 301 L200 305 C197 304 185 292 183 289 C179 264 219 132 259 78 L259 78 Z " />
<glyph glyph-name="uni261A" unicode="&#x261a;" horiz-adv-x="973" d="M44 453 C27 391 81 386 81 386 L287 400 L342 365 C342 365 266 272 262 246 C262 246 278 200 315 186 C315 186 325 129 367 126 C367 126 376 88 422 74 L498 101 C498 101 574 88 718 140 L907 126 L907 365 L730 401 C730 401 680 443 617 459 L315 509 L44 453 Z " />
<glyph glyph-name="uni261B" unicode="&#x261b;" horiz-adv-x="973" d="M658 509 L356 459 C293 443 243 401 243 401 L66 365 L66 126 L255 140 C399 88 475 101 475 101 L551 74 C597 88 606 126 606 126 C648 129 658 186 658 186 C695 200 711 246 711 246 C707 272 631 365 631 365 L686 400 L892 386 C892 386 946 391 929 453 L658 509 Z " />
<glyph glyph-name="uni261C" unicode="&#x261c;" horiz-adv-x="974" d="M45 453 C28 391 82 386 82 386 L288 400 L374 357 C374 357 268 274 261 248 C261 248 269 205 312 190 C312 190 322 135 368 126 C368 126 377 88 423 74 L499 101 C499 101 575 88 719 140 L908 126 L908 365 L731 401 C731 401 681 443 618 459 L316 509 L45 453 Z M702 160 C639 128 495 122 495 122 L422 99 C398 101 383 140 383 140 L448 196 L510 216 L502 235 L441 214 L370 149 C344 155 328 196 328 196 L421 271 L482 290 L473 307 L410 288 L320 211 C293 220 281 250 281 250 L389 342 L401 365 L294 418 L89 404 C89 404 58 421 71 442 L316 488 L614 438 C659 422 716 382 716 382 L884 348 L884 151 L702 160 Z " />
<glyph glyph-name="uni261D" unicode="&#x261d;" horiz-adv-x="509" d="M44 472 L94 170 C110 107 152 57 152 57 L188 -120 L427 -120 L413 69 C465 213 452 289 452 289 L479 365 C465 411 427 420 427 420 C419 466 363 476 363 476 C348 519 305 527 305 527 C280 520 196 406 196 406 L153 500 L167 706 C167 706 162 760 100 743 L44 472 Z M402 -96 L205 -96 L171 72 C171 72 131 129 115 174 L65 472 L111 717 C132 730 149 699 149 699 L135 494 L188 379 L212 391 L303 507 C303 507 333 495 343 468 L265 378 L246 315 L263 306 L282 367 L357 460 C357 460 398 444 404 418 L339 347 L318 286 L337 278 L357 340 L414 405 C414 405 452 390 454 366 L432 293 C432 293 425 149 393 86 L402 -96 Z " />
<glyph glyph-name="uni261E" unicode="&#x261e;" horiz-adv-x="973" d="M658 509 L356 459 C293 443 243 401 243 401 L66 365 L66 126 L255 140 C399 88 475 101 475 101 L551 74 C597 88 606 126 606 126 C652 135 662 190 662 190 C704 205 713 248 713 248 C705 274 592 357 592 357 L686 400 L892 386 C892 386 946 391 929 453 L658 509 Z M89 151 L89 348 L258 382 C258 382 314 422 359 438 L658 488 L903 442 C915 421 885 404 885 404 L679 418 L565 365 L577 342 L692 250 C692 250 681 220 654 211 L563 288 L500 307 L491 290 L553 271 L645 196 C645 196 630 155 604 149 L532 214 L472 235 L464 216 L526 196 L590 140 C590 140 575 101 551 99 L478 122 C478 122 335 128 272 160 L89 151 Z " />
<glyph glyph-name="uni261F" unicode="&#x261f;" horiz-adv-x="509" d="M465 168 L415 470 C399 533 357 583 357 583 L321 760 L82 760 L96 571 C44 427 57 351 57 351 L30 275 C44 229 82 220 82 220 C91 174 146 164 146 164 C161 122 204 114 204 114 C230 121 313 235 313 235 L356 140 L342 -66 C342 -66 347 -120 409 -103 L465 168 Z M107 737 L304 737 L338 568 C338 568 378 512 394 467 L444 168 L398 -77 C377 -89 360 -59 360 -59 L374 147 L321 261 L298 249 L206 134 C206 134 176 146 167 172 L244 263 L263 326 L246 335 L227 273 L152 181 C152 181 111 197 105 222 L170 294 L191 355 L172 363 L152 300 L96 236 C96 236 57 251 55 275 L78 348 C78 348 84 491 116 554 L107 737 Z " />
<glyph glyph-name="uni267E" unicode="&#x267e;" horiz-adv-x="721" d="M361 -14 C528 -14 664 122 664 289 C664 456 528 592 361 592 C194 592 58 456 58 289 C58 122 194 -14 361 -14 L361 -14 Z M361 4 C204 4 76 132 76 289 C76 446 204 574 361 574 C518 574 646 446 646 289 C646 132 518 4 361 4 L361 4 Z M262 403 C207 403 174 344 174 291 C174 238 203 179 262 179 C308 179 337 228 362 275 C387 227 414 179 462 179 C521 179 550 238 550 291 C550 344 517 403 462 403 C417 403 387 355 362 309 C337 356 308 403 262 403 L262 403 Z M262 201 C218 201 196 248 196 291 C196 334 221 381 262 381 C303 381 329 336 352 292 C328 247 300 201 262 201 L262 201 Z M462 201 C423 201 397 247 372 293 C396 337 422 381 462 381 C503 381 528 334 528 291 C528 248 505 201 462 201 L462 201 Z " />
<glyph glyph-name="uni2713" unicode="&#x2713;" horiz-adv-x="482" d="M119 78 L135 78 C229 166 370 366 449 490 L441 499 C423 490 406 474 394 454 C339 367 200 162 132 102 C104 155 75 252 73 301 L60 305 C57 304 45 292 43 289 C39 264 79 132 119 78 L119 78 Z " />
<glyph glyph-name="uni2776" unicode="&#x2776;" horiz-adv-x="713" d="M356 -12 C523 -12 660 124 660 291 C660 458 523 595 356 595 C189 595 53 458 53 291 C53 124 189 -12 356 -12 L356 -12 Z M346 140 L346 427 L271 403 L271 422 L352 451 L369 451 L369 140 L346 140 Z " />
<glyph glyph-name="uni2777" unicode="&#x2777;" horiz-adv-x="713" d="M356 -12 C523 -12 660 124 660 291 C660 458 523 595 356 595 C189 595 53 458 53 291 C53 124 189 -12 356 -12 L356 -12 Z M243 158 C324 219 415 294 415 362 C415 406 391 431 341 431 C314 431 290 426 253 402 L253 423 C280 442 314 451 342 451 C398 451 438 425 438 364 C438 292 347 214 276 162 C276 161 275 161 274 160 L450 160 L450 140 L243 140 L243 158 Z " />
<glyph glyph-name="uni2778" unicode="&#x2778;" horiz-adv-x="713" d="M356 -12 C523 -12 660 124 660 291 C660 458 523 595 356 595 C189 595 53 458 53 291 C53 124 189 -12 356 -12 L356 -12 Z M337 136 C305 136 280 142 264 150 L264 171 C288 159 316 155 341 155 C397 155 422 185 422 224 C422 268 384 287 323 289 L323 307 C364 310 407 341 407 379 C407 410 387 431 346 431 C317 431 296 423 267 402 L267 424 C291 442 319 451 348 451 C399 451 430 425 430 382 C430 331 379 307 359 302 L359 301 C400 300 446 274 446 225 C446 159 391 136 337 136 L337 136 Z " />
<glyph glyph-name="uni2779" unicode="&#x2779;" horiz-adv-x="713" d="M356 -12 C523 -12 660 124 660 291 C660 458 523 595 356 595 C189 595 53 458 53 291 C53 124 189 -12 356 -12 L356 -12 Z M360 227 L215 227 L215 247 L362 451 L384 451 L384 246 L430 246 L430 227 L384 227 L384 140 L360 140 L360 227 Z M360 246 L360 417 L237 246 L360 246 Z " />
<glyph glyph-name="uni277A" unicode="&#x277a;" horiz-adv-x="713" d="M356 -12 C523 -12 660 124 660 291 C660 458 523 595 356 595 C189 595 53 458 53 291 C53 124 189 -12 356 -12 L356 -12 Z M331 136 C296 136 271 143 253 150 L253 171 C279 160 305 155 333 155 C378 155 413 182 413 229 C413 286 374 300 314 300 C299 300 282 299 268 296 L279 446 L432 446 L432 426 L297 426 L289 318 C297 318 309 320 320 320 C386 320 436 302 436 231 C436 165 384 136 331 136 L331 136 Z " />
<glyph glyph-name="uni277B" unicode="&#x277b;" horiz-adv-x="713" d="M356 -12 C523 -12 660 124 660 291 C660 458 523 595 356 595 C189 595 53 458 53 291 C53 124 189 -12 356 -12 L356 -12 Z M368 431 C305 431 268 386 263 295 C282 309 318 327 348 327 C401 327 438 303 438 238 C438 177 398 136 336 136 C271 136 238 194 238 270 C238 383 290 451 368 451 C384 451 405 447 421 442 L421 421 C400 429 382 431 368 431 L368 431 Z M344 308 C311 308 280 289 262 275 L262 270 C262 202 285 155 336 155 C387 155 413 184 413 236 C413 289 391 308 344 308 L344 308 Z " />
<glyph glyph-name="uni277C" unicode="&#x277c;" horiz-adv-x="713" d="M356 -12 C523 -12 660 124 660 291 C660 458 523 595 356 595 C189 595 53 458 53 291 C53 124 189 -12 356 -12 L356 -12 Z M283 140 L281 142 L416 426 L260 426 L260 446 L440 446 L440 430 L304 140 L283 140 Z " />
<glyph glyph-name="uni277D" unicode="&#x277d;" horiz-adv-x="713" d="M356 -12 C523 -12 660 124 660 291 C660 458 523 595 356 595 C189 595 53 458 53 291 C53 124 189 -12 356 -12 L356 -12 Z M450 221 C450 171 408 136 348 136 C289 136 255 169 255 219 C255 256 283 286 313 300 C285 313 262 332 262 370 C262 416 299 451 350 451 C408 451 443 420 443 375 C443 338 416 311 384 295 C419 282 450 264 450 221 L450 221 Z M420 373 C420 405 398 431 350 431 C312 431 284 409 284 371 C284 328 325 315 366 302 C399 320 420 343 420 373 L420 373 Z M278 220 C278 177 307 155 349 155 C385 155 427 169 427 220 C427 268 374 277 329 294 C302 280 278 256 278 220 L278 220 Z " />
<glyph glyph-name="uni277E" unicode="&#x277e;" horiz-adv-x="713" d="M356 -12 C523 -12 660 124 660 291 C660 458 523 595 356 595 C189 595 53 458 53 291 C53 124 189 -12 356 -12 L356 -12 Z M323 155 C385 155 423 200 427 291 C408 276 372 259 343 259 C290 259 253 283 253 348 C253 409 293 451 355 451 C420 451 453 393 453 317 C453 203 401 136 323 136 C307 136 286 139 270 144 L270 165 C291 157 309 155 323 155 L323 155 Z M347 278 C379 278 410 297 429 310 L429 317 C429 384 406 431 354 431 C304 431 277 404 277 350 C277 297 300 278 347 278 L347 278 Z " />
<glyph glyph-name="uni277F" unicode="&#x277f;" horiz-adv-x="713" d="M356 -12 C523 -12 660 124 660 291 C660 458 523 595 356 595 C189 595 53 458 53 291 C53 124 189 -12 356 -12 L356 -12 Z M235 140 L235 427 L159 403 L159 422 L241 451 L258 451 L258 140 L235 140 Z M419 136 C337 136 306 197 306 287 C306 380 344 451 424 451 C513 451 539 374 539 296 C539 200 498 136 419 136 L419 136 Z M420 155 C475 155 515 198 515 295 C515 390 476 431 422 431 C368 431 329 384 329 287 C329 187 368 155 420 155 L420 155 Z " />
<glyph glyph-name="uni2780" unicode="&#x2780;" horiz-adv-x="713" d="M356 -12 C523 -12 660 124 660 291 C660 458 523 595 356 595 C189 595 53 458 53 291 C53 124 189 -12 356 -12 L356 -12 Z M356 8 C200 8 73 135 73 291 C73 447 200 575 356 575 C512 575 640 447 640 291 C640 135 512 8 356 8 L356 8 Z M370 140 L370 451 L353 451 L271 422 L271 403 L347 427 L347 140 L370 140 Z " />
<glyph glyph-name="uni2781" unicode="&#x2781;" horiz-adv-x="713" d="M356 -12 C523 -12 660 124 660 291 C660 458 523 595 356 595 C189 595 53 458 53 291 C53 124 189 -12 356 -12 L356 -12 Z M356 8 C200 8 73 135 73 291 C73 447 200 575 356 575 C512 575 640 447 640 291 C640 135 512 8 356 8 L356 8 Z M243 140 L450 140 L450 160 L274 160 C275 161 276 161 276 162 C347 214 438 292 438 364 C438 425 398 451 342 451 C314 451 280 442 253 423 L253 402 C290 426 314 431 341 431 C391 431 415 406 415 362 C415 294 324 219 243 158 L243 140 Z " />
<glyph glyph-name="uni2782" unicode="&#x2782;" horiz-adv-x="713" d="M356 -12 C523 -12 660 124 660 291 C660 458 523 595 356 595 C189 595 53 458 53 291 C53 124 189 -12 356 -12 L356 -12 Z M356 8 C200 8 73 135 73 291 C73 447 200 575 356 575 C512 575 640 447 640 291 C640 135 512 8 356 8 L356 8 Z M337 136 C391 136 446 159 446 225 C446 274 400 300 359 301 L359 302 C379 307 430 331 430 382 C430 425 399 451 348 451 C319 451 291 442 267 424 L267 402 C296 423 317 431 346 431 C387 431 407 410 407 379 C407 341 364 310 323 307 L323 289 C384 287 422 268 422 224 C422 185 397 155 341 155 C316 155 288 159 264 171 L264 150 C280 142 305 136 337 136 L337 136 Z " />
<glyph glyph-name="uni2783" unicode="&#x2783;" horiz-adv-x="713" d="M356 -12 C523 -12 660 124 660 291 C660 458 523 595 356 595 C189 595 53 458 53 291 C53 124 189 -12 356 -12 L356 -12 Z M356 8 C200 8 73 135 73 291 C73 447 200 575 356 575 C512 575 640 447 640 291 C640 135 512 8 356 8 L356 8 Z M360 140 L384 140 L384 227 L430 227 L430 246 L384 246 L384 451 L362 451 L215 247 L215 227 L360 227 L360 140 Z M237 246 L360 417 L360 246 L237 246 Z " />
<glyph glyph-name="uni2784" unicode="&#x2784;" horiz-adv-x="713" d="M356 -12 C523 -12 660 124 660 291 C660 458 523 595 356 595 C189 595 53 458 53 291 C53 124 189 -12 356 -12 L356 -12 Z M356 8 C200 8 73 135 73 291 C73 447 200 575 356 575 C512 575 640 447 640 291 C640 135 512 8 356 8 L356 8 Z M331 136 C384 136 436 165 436 231 C436 302 386 320 320 320 C309 320 297 318 289 318 L297 426 L432 426 L432 446 L279 446 L268 296 C282 299 299 300 314 300 C374 300 413 286 413 229 C413 182 378 155 333 155 C305 155 279 160 253 171 L253 150 C271 143 296 136 331 136 L331 136 Z " />
<glyph glyph-name="uni2785" unicode="&#x2785;" horiz-adv-x="713" d="M356 -12 C523 -12 660 124 660 291 C660 458 523 595 356 595 C189 595 53 458 53 291 C53 124 189 -12 356 -12 L356 -12 Z M356 8 C200 8 73 135 73 291 C73 447 200 575 356 575 C512 575 640 447 640 291 C640 135 512 8 356 8 L356 8 Z M368 431 C382 431 400 429 421 421 L421 442 C405 447 384 451 368 451 C290 451 238 383 238 270 C238 194 271 136 336 136 C398 136 438 177 438 238 C438 303 401 327 348 327 C318 327 282 309 263 295 C268 386 305 431 368 431 L368 431 Z M344 308 C391 308 413 289 413 236 C413 184 387 155 336 155 C285 155 262 202 262 270 L262 275 C280 289 311 308 344 308 L344 308 Z " />
<glyph glyph-name="uni2786" unicode="&#x2786;" horiz-adv-x="713" d="M356 -12 C523 -12 660 124 660 291 C660 458 523 595 356 595 C189 595 53 458 53 291 C53 124 189 -12 356 -12 L356 -12 Z M356 8 C200 8 73 135 73 291 C73 447 200 575 356 575 C512 575 640 447 640 291 C640 135 512 8 356 8 L356 8 Z M304 140 L440 430 L440 446 L260 446 L260 426 L416 426 L281 142 L283 140 L304 140 Z " />
<glyph glyph-name="uni2787" unicode="&#x2787;" horiz-adv-x="713" d="M356 -12 C523 -12 660 124 660 291 C660 458 523 595 356 595 C189 595 53 458 53 291 C53 124 189 -12 356 -12 L356 -12 Z M356 8 C200 8 73 135 73 291 C73 447 200 575 356 575 C512 575 640 447 640 291 C640 135 512 8 356 8 L356 8 Z M450 221 C450 264 419 282 384 295 C416 311 443 338 443 375 C443 420 408 451 350 451 C299 451 262 416 262 370 C262 332 285 313 313 300 C283 286 255 256 255 219 C255 169 289 136 348 136 C408 136 450 171 450 221 L450 221 Z M420 373 C420 343 399 320 366 302 C325 315 284 328 284 371 C284 409 312 431 350 431 C398 431 420 405 420 373 L420 373 Z M278 220 C278 256 302 280 329 294 C374 277 427 268 427 220 C427 169 385 155 349 155 C307 155 278 177 278 220 L278 220 Z " />
<glyph glyph-name="uni2788" unicode="&#x2788;" horiz-adv-x="713" d="M356 -12 C523 -12 660 124 660 291 C660 458 523 595 356 595 C189 595 53 458 53 291 C53 124 189 -12 356 -12 L356 -12 Z M356 8 C200 8 73 135 73 291 C73 447 200 575 356 575 C512 575 640 447 640 291 C640 135 512 8 356 8 L356 8 Z M323 155 C309 155 291 157 270 165 L270 144 C286 139 307 136 323 136 C401 136 453 203 453 317 C453 393 420 451 355 451 C293 451 253 409 253 348 C253 283 290 259 343 259 C372 259 408 276 427 291 C423 200 385 155 323 155 L323 155 Z M347 278 C300 278 277 297 277 350 C277 404 304 431 354 431 C406 431 429 384 429 317 L429 310 C410 297 379 278 347 278 L347 278 Z " />
<glyph glyph-name="uni278A" unicode="&#x278a;" horiz-adv-x="713" d="M356 -12 C523 -12 660 124 660 291 C660 458 523 595 356 595 C189 595 53 458 53 291 C53 124 189 -12 356 -12 L356 -12 Z M344 140 L344 427 L268 403 L268 422 L350 451 L367 451 L367 140 L344 140 Z " />
<glyph glyph-name="uni278B" unicode="&#x278b;" horiz-adv-x="713" d="M356 -12 C523 -12 660 124 660 291 C660 458 523 595 356 595 C189 595 53 458 53 291 C53 124 189 -12 356 -12 L356 -12 Z M243 158 C324 219 415 294 415 362 C415 406 391 431 341 431 C314 431 290 426 253 402 L253 423 C280 442 314 451 342 451 C398 451 438 425 438 364 C438 292 349 216 279 163 L274 160 L450 160 L450 140 L243 140 L243 158 Z " />
<glyph glyph-name="uni278C" unicode="&#x278c;" horiz-adv-x="713" d="M356 -12 C523 -12 660 124 660 291 C660 458 523 595 356 595 C189 595 53 458 53 291 C53 124 189 -12 356 -12 L356 -12 Z M337 136 C305 136 280 142 264 150 L264 171 C288 159 316 155 341 155 C397 155 422 185 422 224 C422 268 384 287 323 289 L323 307 C364 310 407 341 407 379 C407 410 387 431 346 431 C317 431 296 423 267 402 L267 424 C291 442 319 451 348 451 C399 451 430 425 430 382 C430 331 379 307 359 302 L359 301 C400 300 446 274 446 225 C446 159 391 136 337 136 L337 136 Z " />
<glyph glyph-name="uni278D" unicode="&#x278d;" horiz-adv-x="713" d="M356 -12 C523 -12 660 124 660 291 C660 458 523 595 356 595 C189 595 53 458 53 291 C53 124 189 -12 356 -12 L356 -12 Z M360 227 L215 227 L215 247 L362 451 L384 451 L384 246 L430 246 L430 227 L384 227 L384 140 L360 140 L360 227 Z M360 246 L360 417 L237 246 L360 246 Z " />
<glyph glyph-name="uni278E" unicode="&#x278e;" horiz-adv-x="713" d="M356 -12 C523 -12 660 124 660 291 C660 458 523 595 356 595 C189 595 53 458 53 291 C53 124 189 -12 356 -12 L356 -12 Z M331 136 C296 136 271 143 253 150 L253 171 C279 160 305 155 333 155 C378 155 413 182 413 229 C413 286 374 300 314 300 C299 300 282 299 268 296 L279 446 L432 446 L432 426 L297 426 L289 318 C297 318 309 320 320 320 C386 320 436 302 436 231 C436 165 384 136 331 136 L331 136 Z " />
<glyph glyph-name="uni278F" unicode="&#x278f;" horiz-adv-x="713" d="M356 -12 C523 -12 660 124 660 291 C660 458 523 595 356 595 C189 595 53 458 53 291 C53 124 189 -12 356 -12 L356 -12 Z M368 431 C305 431 268 386 263 295 C282 309 318 327 348 327 C401 327 438 303 438 238 C438 177 398 136 336 136 C271 136 238 194 238 270 C238 383 290 451 368 451 C384 451 405 447 421 442 L421 421 C400 429 382 431 368 431 L368 431 Z M344 308 C311 308 280 289 262 275 L262 270 C262 202 285 155 336 155 C387 155 413 184 413 236 C413 289 391 308 344 308 L344 308 Z " />
<glyph glyph-name="uni2790" unicode="&#x2790;" horiz-adv-x="713" d="M356 -12 C523 -12 660 124 660 291 C660 458 523 595 356 595 C189 595 53 458 53 291 C53 124 189 -12 356 -12 L356 -12 Z M283 140 L281 142 L416 426 L260 426 L260 446 L440 446 L440 430 L304 140 L283 140 Z " />
<glyph glyph-name="uni2791" unicode="&#x2791;" horiz-adv-x="713" d="M356 -12 C523 -12 660 124 660 291 C660 458 523 595 356 595 C189 595 53 458 53 291 C53 124 189 -12 356 -12 L356 -12 Z M450 221 C450 171 408 136 348 136 C289 136 255 169 255 219 C255 256 283 286 313 300 C285 313 262 332 262 370 C262 416 299 451 350 451 C408 451 443 420 443 375 C443 338 416 311 384 295 C419 282 450 264 450 221 L450 221 Z M420 373 C420 405 398 431 350 431 C312 431 284 409 284 371 C284 328 325 315 366 302 C399 320 420 343 420 373 L420 373 Z M278 220 C278 177 307 155 349 155 C385 155 427 169 427 220 C427 268 374 277 329 294 C302 280 278 256 278 220 L278 220 Z " />
<glyph glyph-name="uni2792" unicode="&#x2792;" horiz-adv-x="713" d="M356 -12 C523 -12 660 124 660 291 C660 458 523 595 356 595 C189 595 53 458 53 291 C53 124 189 -12 356 -12 L356 -12 Z M323 155 C385 155 423 200 427 291 C408 276 372 259 343 259 C290 259 253 283 253 348 C253 409 293 451 355 451 C420 451 453 393 453 317 C453 203 401 136 323 136 C307 136 286 139 270 144 L270 165 C291 157 309 155 323 155 L323 155 Z M347 278 C379 278 410 297 429 310 L429 317 C429 384 406 431 354 431 C304 431 277 404 277 350 C277 297 300 278 347 278 L347 278 Z " />
<glyph glyph-name="uni301A" unicode="&#x301a;" horiz-adv-x="385" d="M82 -181 L343 -181 L343 -158 L228 -158 L228 655 L343 655 L343 679 L82 679 L82 -181 Z M108 655 L202 655 L202 -158 L108 -158 L108 655 Z " />
<glyph glyph-name="uni301B" unicode="&#x301b;" horiz-adv-x="385" d="M302 679 L41 679 L41 655 L156 655 L156 -158 L41 -158 L41 -181 L302 -181 L302 679 Z M276 655 L276 -158 L182 -158 L182 655 L276 655 Z " />
<glyph glyph-name="apple" unicode="&#xf8ff;" horiz-adv-x="1241" d="M390 318 L401 318 L401 328 L411 328 L411 338 L421 338 L421 347 L431 347 L431 388 L420 388 L420 348 L401 348 L401 388 L390 388 L390 347 L400 347 L400 329 L390 329 L390 318 Z M350 338 L371 338 L371 348 L351 348 L351 377 L371 377 L371 388 L351 388 L351 398 L340 398 L340 388 L330 388 L330 377 L340 377 L340 347 L350 347 L350 338 Z M590 338 L611 338 L611 348 L591 348 L591 377 L611 377 L611 388 L591 388 L591 398 L580 398 L580 388 L570 388 L570 377 L580 377 L580 347 L590 347 L590 338 Z M700 338 L731 338 L731 348 L701 348 L701 357 L731 357 L731 378 L721 378 L721 388 L700 388 L700 378 L690 378 L690 347 L700 347 L700 338 Z M880 338 L911 338 L911 348 L881 348 L881 357 L911 357 L911 378 L901 378 L901 388 L880 388 L880 378 L870 378 L870 347 L880 347 L880 338 Z M110 347 L121 347 L121 357 L131 357 L131 368 L121 368 L121 378 L110 378 L110 368 L100 368 L100 357 L110 357 L110 347 Z M180 347 L191 347 L191 357 L201 357 L201 368 L191 368 L191 378 L180 378 L180 368 L170 368 L170 357 L180 357 L180 347 Z M270 347 L281 347 L281 357 L291 357 L291 368 L281 368 L281 378 L270 378 L270 368 L260 368 L260 357 L270 357 L270 347 Z M520 338 L541 338 L541 347 L551 347 L551 378 L541 378 L541 388 L520 388 L520 378 L510 378 L510 347 L520 347 L520 338 Z M630 338 L641 338 L641 377 L660 377 L660 338 L671 338 L671 378 L661 378 L661 388 L641 388 L641 408 L630 408 L630 338 Z M960 347 L971 347 L971 357 L981 357 L981 368 L971 368 L971 378 L960 378 L960 368 L950 368 L950 357 L960 357 L960 347 Z M1050 347 L1061 347 L1061 357 L1071 357 L1071 368 L1061 368 L1061 378 L1050 378 L1050 368 L1040 368 L1040 357 L1050 357 L1050 347 Z M1120 347 L1131 347 L1131 357 L1141 357 L1141 368 L1131 368 L1131 378 L1120 378 L1120 368 L1110 368 L1110 357 L1120 357 L1120 347 Z M450 318 L461 318 L461 338 L481 338 L481 347 L491 347 L491 378 L481 378 L481 388 L450 388 L450 318 Z M780 318 L791 318 L791 388 L760 388 L760 378 L750 378 L750 347 L760 347 L760 338 L780 338 L780 318 Z M820 338 L851 338 L851 388 L840 388 L840 348 L821 348 L821 388 L810 388 L810 347 L820 347 L820 338 Z M240 328 L251 328 L251 338 L261 338 L261 348 L250 348 L250 338 L240 338 L240 328 Z M250 377 L261 377 L261 388 L251 388 L251 398 L240 398 L240 387 L250 387 L250 377 Z M300 328 L311 328 L311 338 L301 338 L301 348 L290 348 L290 338 L300 338 L300 328 Z M290 377 L301 377 L301 387 L311 387 L311 398 L300 398 L300 388 L290 388 L290 377 Z M930 328 L941 328 L941 338 L951 338 L951 348 L940 348 L940 338 L930 338 L930 328 Z M940 377 L951 377 L951 388 L941 388 L941 398 L930 398 L930 387 L940 387 L940 377 Z M990 328 L1001 328 L1001 338 L991 338 L991 348 L980 348 L980 338 L990 338 L990 328 Z M980 377 L991 377 L991 387 L1001 387 L1001 398 L990 398 L990 388 L980 388 L980 377 Z M160 338 L171 338 L171 348 L160 348 L160 338 Z M160 377 L171 377 L171 388 L160 388 L160 377 Z M200 338 L211 338 L211 348 L200 348 L200 338 Z M200 377 L211 377 L211 388 L200 388 L200 377 Z M461 348 L461 377 L480 377 L480 348 L461 348 Z M521 348 L521 377 L540 377 L540 348 L521 348 Z M701 368 L701 377 L720 377 L720 368 L701 368 Z M761 348 L761 377 L780 377 L780 348 L761 348 Z M881 368 L881 377 L900 377 L900 368 L881 368 Z M1030 338 L1041 338 L1041 348 L1030 348 L1030 338 Z M1030 377 L1041 377 L1041 388 L1030 388 L1030 377 Z M1070 338 L1081 338 L1081 348 L1070 348 L1070 338 Z M1070 377 L1081 377 L1081 388 L1070 388 L1070 377 Z " />
<glyph glyph-name="f_f" unicode="&#xfb00;" horiz-adv-x="554" d="M380 0 L407 0 L407 425 L537 425 L537 450 L407 450 L407 489 C407 591 453 634 530 634 C557 634 567 633 593 629 L593 653 C577 657 554 659 533 659 C436 659 380 602 380 489 L380 450 L123 450 L123 489 C123 591 169 634 246 634 C273 634 283 633 309 629 L309 653 C293 657 270 659 249 659 C152 659 96 602 96 489 L96 450 L28 450 L28 425 L96 425 L96 0 L123 0 L123 425 L380 425 L380 0 Z " />
<glyph glyph-name="fi" unicode="&#xfb01;" horiz-adv-x="486" d="M28 425 L96 425 L96 0 L123 0 L123 425 L383 425 L383 0 L409 0 L409 450 L123 450 L123 489 C123 591 169 634 246 634 C273 634 283 633 309 629 L309 653 C293 657 270 659 249 659 C152 659 96 602 96 489 L96 450 L28 450 L28 425 Z " />
<glyph glyph-name="fl" unicode="&#xfb02;" horiz-adv-x="498" d="M28 425 L96 425 L96 0 L123 0 L123 425 L253 425 L253 450 L123 450 L123 489 C123 591 169 634 246 634 C273 634 283 633 309 629 L309 653 C293 657 270 659 249 659 C152 659 96 602 96 489 L96 450 L28 450 L28 425 Z M385 0 L412 0 L412 653 L385 653 L385 0 Z " />
<glyph glyph-name="f_f_i" unicode="&#xfb03;" horiz-adv-x="774" d="M381 0 L408 0 L408 425 L670 425 L670 0 L697 0 L697 450 L408 450 L408 489 C408 591 454 634 531 634 C558 634 568 633 594 629 L594 653 C578 657 555 659 534 659 C437 659 381 602 381 489 L381 450 L123 450 L123 489 C123 591 169 634 246 634 C273 634 283 633 309 629 L309 653 C293 657 270 659 249 659 C152 659 96 602 96 489 L96 450 L28 450 L28 425 L96 425 L96 0 L123 0 L123 425 L381 425 L381 0 Z " />
<glyph glyph-name="f_f_l" unicode="&#xfb04;" horiz-adv-x="783" d="M123 425 L381 425 L381 0 L408 0 L408 425 L538 425 L538 450 L408 450 L408 489 C408 591 454 634 531 634 C558 634 568 633 594 629 L594 653 C578 657 555 659 534 659 C437 659 381 602 381 489 L381 450 L123 450 L123 489 C123 591 169 634 246 634 C273 634 283 633 309 629 L309 653 C293 657 270 659 249 659 C152 659 96 602 96 489 L96 450 L28 450 L28 425 L96 425 L96 0 L123 0 L123 425 Z M670 0 L697 0 L697 653 L670 653 L670 0 Z " />
</font>
</defs>
</svg>
