<svg xmlns="http://www.w3.org/2000/svg">
<defs>
<font id="Greta Sans Std SmBld Ita">
<font-face  font-family="Greta Sans Std" units-per-em="1000" ascent="710" descent="-290" font-style="italic" font-weight="600" font-stretch="normal" slope="-9" cap-height="583" x-height="452" underline-position="-75" underline-thickness="50" />

<glyph glyph-name="NULL" d="" />
<glyph glyph-name="CR" unicode="&#xd;" horiz-adv-x="250" d="" />
<glyph glyph-name="space" unicode="&#x20;" horiz-adv-x="250" d="" />
<glyph glyph-name="exclam" unicode="&#x21;" horiz-adv-x="246" d="M86 330 L75 196 L152 196 L187 330 L231 583 L131 583 L86 330 Z M25 1 L119 -11 L156 112 L50 116 L25 1 Z " />
<glyph glyph-name="quotedbl" unicode="&#x22;" horiz-adv-x="380" d="M94 424 L176 424 L228 636 L131 636 L94 424 Z M256 424 L340 424 L393 636 L294 636 L256 424 Z " />
<glyph glyph-name="numbersign" unicode="&#x23;" horiz-adv-x="596" d="M97 373 L197 373 L140 220 L35 220 L17 149 L113 149 L57 0 L129 0 L185 149 L306 149 L250 0 L323 0 L379 149 L495 149 L514 220 L406 220 L464 373 L575 373 L594 443 L491 443 L544 583 L470 583 L417 443 L297 443 L350 583 L277 583 L224 443 L115 443 L97 373 Z M270 373 L390 373 L333 220 L212 220 L270 373 Z " />
<glyph glyph-name="dollar" unicode="&#x24;" horiz-adv-x="435" d="M12 26 C53 5 99 -5 146 -7 L135 -73 L193 -73 L205 -3 C298 9 380 60 380 172 C380 246 326 282 272 311 L261 317 L290 479 C335 474 379 458 406 437 L422 529 C396 545 355 558 304 562 L317 634 L259 634 L246 561 C154 551 69 493 69 384 C69 314 123 278 178 249 L190 242 L161 78 C108 82 58 99 28 119 L12 26 Z M288 155 C288 113 258 90 220 81 L243 214 C269 198 288 180 288 155 L288 155 Z M163 405 C163 443 194 467 231 476 L208 345 C182 361 163 379 163 405 L163 405 Z " />
<glyph glyph-name="percent" unicode="&#x25;" horiz-adv-x="677" d="M168 289 C246 289 317 347 317 474 C317 548 272 593 212 593 C134 593 62 530 62 405 C62 330 108 289 168 289 L168 289 Z M178 345 C148 345 132 373 132 413 C132 506 169 534 204 534 C233 534 249 509 249 469 C249 377 213 345 178 345 L178 345 Z M441 370 L589 563 L592 583 L515 583 L375 370 L441 370 Z M284 236 L120 20 L117 0 L195 0 L350 236 L284 236 Z M475 -8 C553 -8 626 51 626 177 C626 250 581 295 520 295 C443 295 370 228 370 109 C370 33 418 -8 475 -8 L475 -8 Z M484 48 C455 48 440 76 440 115 C440 197 474 237 511 237 C540 237 556 212 556 172 C556 79 519 48 484 48 L484 48 Z " />
<glyph glyph-name="ampersand" unicode="&#x26;" horiz-adv-x="692" d="M673 301 L683 379 L669 384 C600 360 533 349 463 349 C444 349 423 349 404 351 C446 380 466 420 466 460 C466 527 404 593 293 593 C182 593 84 516 84 423 C84 380 105 332 144 303 C92 282 33 226 33 151 C33 40 132 -8 252 -8 C389 -8 529 86 557 267 C601 271 642 281 673 301 L673 301 Z M323 293 C361 281 411 271 463 267 C450 152 355 76 269 76 C202 76 141 100 141 178 C141 236 196 275 238 288 L236 330 C199 355 182 390 182 422 C182 471 221 514 284 514 C334 514 371 477 371 434 C371 394 349 358 313 334 L323 293 Z " />
<glyph glyph-name="quotesingle" unicode="&#x27;" horiz-adv-x="216" d="M94 424 L176 424 L229 636 L131 636 L94 424 Z " />
<glyph glyph-name="parenleft" unicode="&#x28;" horiz-adv-x="311" d="M214 -171 C192 -138 113 -20 113 140 C113 340 221 541 362 648 L258 648 C134 533 30 340 30 141 C30 -14 100 -139 125 -171 L214 -171 Z " />
<glyph glyph-name="parenright" unicode="&#x29;" horiz-adv-x="312" d="M93 648 C115 616 194 496 194 339 C194 140 81 -61 -58 -171 L46 -171 C171 -55 276 143 276 333 C276 488 205 617 182 648 L93 648 Z " />
<glyph glyph-name="asterisk" unicode="&#x2a;" horiz-adv-x="365" d="M92 518 L184 474 L77 433 L98 371 L196 447 L162 330 L227 330 L232 446 L305 371 L349 434 L250 475 L364 518 L343 580 L240 504 L280 623 L214 623 L209 504 L136 580 L92 518 Z " />
<glyph glyph-name="plus" unicode="&#x2b;" horiz-adv-x="468" d="M37 263 L200 263 L169 87 L240 87 L271 263 L433 263 L446 332 L283 332 L314 505 L243 505 L212 332 L50 332 L37 263 Z " />
<glyph glyph-name="comma" unicode="&#x2c;" horiz-adv-x="226" d="M34 -167 C76 -109 103 -42 123 25 C128 41 132 64 137 81 L40 91 L30 43 C14 -21 -9 -79 -42 -136 L34 -167 Z " />
<glyph glyph-name="&amp;#x2d;" unicode="&#x2d;" horiz-adv-x="345" d="M51 206 L275 206 L289 282 L65 282 L51 206 Z " />
<glyph glyph-name="&amp;#xad;" unicode="&#xad;" horiz-adv-x="345" d="M51 206 L275 206 L289 282 L65 282 L51 206 Z " />
<glyph glyph-name="period" unicode="&#x2e;" horiz-adv-x="232" d="M17 1 L111 -11 L148 112 L42 116 L17 1 Z " />
<glyph glyph-name="slash" unicode="&#x2f;" horiz-adv-x="358" d="M-19 -89 L68 -89 L394 669 L308 669 L-19 -89 Z " />
<glyph glyph-name="zero" unicode="0" horiz-adv-x="532" d="M500 393 C500 498 455 593 326 593 C132 593 45 369 45 191 C45 75 96 -8 221 -8 C417 -8 500 221 500 393 L500 393 Z M236 77 C173 77 151 115 151 199 C151 333 203 507 309 507 C374 507 390 454 390 377 C390 267 353 77 236 77 L236 77 Z " />
<glyph glyph-name="one" unicode="1" horiz-adv-x="338" d="M217 0 L319 583 L260 583 L76 527 L61 445 L196 475 L112 0 L217 0 Z " />
<glyph glyph-name="two" unicode="2" horiz-adv-x="472" d="M404 86 L156 86 C297 198 440 353 440 465 C440 532 368 593 266 593 C196 593 144 580 90 543 L82 455 C126 486 182 502 224 502 C277 502 322 489 342 443 C310 347 181 195 24 65 L11 0 L391 0 L404 86 Z " />
<glyph glyph-name="three" unicode="3" horiz-adv-x="458" d="M6 17 C30 5 79 -8 147 -8 C260 -8 403 70 403 182 C403 236 343 284 286 306 L287 310 C342 335 433 417 433 479 C433 547 360 593 271 593 C206 593 144 578 94 547 L95 462 C134 486 183 500 229 500 C287 500 327 478 334 451 C310 411 236 337 164 315 L156 268 C218 248 273 217 303 168 C287 117 222 78 156 78 C114 78 74 86 29 106 L6 17 Z " />
<glyph glyph-name="four" unicode="4" horiz-adv-x="490" d="M436 583 L343 583 L22 219 L11 142 L252 142 L228 0 L332 0 L356 142 L438 142 L453 224 L371 224 L436 583 Z M115 224 L306 451 L309 451 L267 224 L115 224 Z " />
<glyph glyph-name="five" unicode="5" horiz-adv-x="443" d="M14 16 C42 5 103 -8 154 -8 C269 -8 393 84 393 197 C393 286 332 339 263 359 C225 358 191 350 166 340 L204 493 L411 493 L428 583 L136 583 L61 264 L91 251 C127 265 169 279 219 286 C268 265 286 232 286 185 C286 124 227 77 169 77 C120 77 68 89 28 105 L14 16 Z " />
<glyph glyph-name="six" unicode="6" horiz-adv-x="477" d="M457 576 C420 588 383 593 345 593 C181 593 42 386 42 207 C42 72 113 -8 197 -8 C298 -8 433 117 433 210 C433 297 388 356 328 380 C281 380 217 362 161 331 C168 356 178 380 190 403 C220 463 265 510 325 510 C361 510 393 506 437 489 L457 576 Z M283 297 C313 270 331 232 331 196 C331 154 271 85 216 69 C164 85 144 156 144 219 C144 228 145 239 146 250 C194 276 245 293 283 297 L283 297 Z " />
<glyph glyph-name="seven" unicode="7" horiz-adv-x="426" d="M71 490 L340 490 L53 12 L58 0 L155 0 L457 543 L446 583 L85 583 L71 490 Z " />
<glyph glyph-name="eight" unicode="8" horiz-adv-x="491" d="M470 473 C470 531 396 593 300 593 C207 593 89 511 89 439 C89 395 131 345 180 296 C100 260 19 190 19 121 C19 60 79 -8 186 -8 C308 -8 431 58 431 148 C431 197 381 253 326 305 C402 346 470 418 470 473 L470 473 Z M334 127 C305 91 256 73 208 73 C170 73 120 93 99 133 C121 178 162 224 219 259 C274 208 326 161 334 127 L334 127 Z M178 462 C199 496 237 512 269 512 C312 512 365 494 381 456 C366 424 331 379 282 345 C230 392 183 434 178 462 L178 462 Z " />
<glyph glyph-name="nine" unicode="9" horiz-adv-x="478" d="M33 9 C70 -3 107 -8 145 -8 C309 -8 448 199 448 378 C448 513 377 593 293 593 C192 593 57 468 57 375 C57 288 102 229 162 205 C208 205 272 223 328 253 C321 229 312 204 300 182 C270 122 225 75 165 75 C129 75 97 79 53 96 L33 9 Z M207 288 C177 315 159 353 159 389 C159 431 219 500 274 516 C326 500 346 429 346 366 C346 356 345 345 344 334 C296 309 244 291 207 288 L207 288 Z " />
<glyph glyph-name="colon" unicode="&#x3a;" horiz-adv-x="236" d="M20 1 L114 -11 L151 112 L45 116 L20 1 Z M78 347 L172 335 L209 458 L103 462 L78 347 Z " />
<glyph glyph-name="semicolon" unicode="&#x3b;" horiz-adv-x="256" d="M38 -167 C80 -109 107 -42 127 25 C132 41 136 64 141 81 L44 91 L34 43 C18 -21 -5 -79 -38 -136 L38 -167 Z M104 347 L198 335 L235 458 L129 462 L104 347 Z " />
<glyph glyph-name="less" unicode="&#x3c;" horiz-adv-x="464" d="M371 59 L385 142 L127 295 L439 449 L454 531 L44 327 L33 263 L371 59 Z " />
<glyph glyph-name="equal" unicode="&#x3d;" horiz-adv-x="500" d="M46 168 L421 168 L435 238 L59 238 L46 168 Z M80 359 L455 359 L468 428 L93 428 L80 359 Z " />
<glyph glyph-name="greater" unicode="&#x3e;" horiz-adv-x="464" d="M434 263 L445 327 L107 531 L93 449 L351 295 L39 142 L24 59 L434 263 Z " />
<glyph glyph-name="question" unicode="&#x3f;" horiz-adv-x="335" d="M334 454 C334 527 243 579 115 596 L90 518 C153 504 211 489 248 456 C216 413 132 359 93 311 C80 296 72 282 72 270 C72 243 89 207 99 183 L168 192 L156 261 L253 344 C294 378 334 409 334 454 L334 454 Z M49 1 L142 -11 L180 112 L74 116 L49 1 Z " />
<glyph glyph-name="at" unicode="&#x40;" horiz-adv-x="844" d="M491 -9 C696 36 823 163 823 339 C823 517 692 647 509 647 C235 647 30 431 30 158 C30 -57 148 -202 365 -202 C473 -202 599 -165 672 -109 L678 -36 C598 -90 478 -131 392 -131 C208 -131 109 -34 109 169 C109 407 282 578 495 578 C661 578 749 470 749 326 C749 220 709 132 555 73 L546 80 L621 459 L541 459 L535 433 C498 450 460 458 436 458 C376 458 337 421 302 379 C255 322 228 196 228 84 C228 52 232 22 237 -2 L321 -2 L475 140 L448 5 L491 -9 Z M319 97 C318 110 317 124 317 137 C318 233 347 333 390 384 C399 386 409 386 418 386 C450 385 482 373 520 356 L494 231 L333 92 L319 97 Z " />
<glyph glyph-name="A" unicode="A" horiz-adv-x="544" d="M-35 0 L72 0 L164 178 L349 178 L367 0 L481 0 L400 583 L290 583 L-35 0 Z M315 470 L320 470 L341 261 L207 261 L315 470 Z " />
<glyph glyph-name="B" unicode="B" horiz-adv-x="530" d="M29 0 L227 0 C365 0 482 64 482 192 C482 264 421 303 379 309 L379 311 C441 331 493 383 493 450 C493 543 427 583 298 583 L131 583 L29 0 Z M223 257 C321 257 371 247 371 183 C371 101 291 88 214 88 L152 88 L182 257 L223 257 Z M266 496 C330 496 377 490 377 432 C377 368 324 339 239 339 L196 339 L224 496 L266 496 Z " />
<glyph glyph-name="C" unicode="C" horiz-adv-x="547" d="M297 -10 C379 -10 451 15 477 29 L492 127 C442 98 385 81 325 81 C220 81 161 127 161 245 C161 403 264 502 405 502 C450 502 498 495 529 471 L547 571 C515 585 470 593 414 593 C188 593 40 427 40 234 C40 78 137 -10 297 -10 L297 -10 Z " />
<glyph glyph-name="D" unicode="D" horiz-adv-x="625" d="M29 0 L220 0 C431 2 596 135 596 355 C596 522 475 583 309 583 L131 583 L29 0 Z M273 494 C411 494 475 455 475 344 C475 176 375 90 216 90 L152 90 L223 494 L273 494 Z " />
<glyph glyph-name="E" unicode="E" horiz-adv-x="474" d="M29 0 L390 0 L406 90 L152 90 L181 254 L384 254 L399 341 L196 341 L223 494 L473 494 L489 583 L131 583 L29 0 Z " />
<glyph glyph-name="F" unicode="F" horiz-adv-x="457" d="M29 0 L137 0 L178 236 L383 236 L398 323 L193 323 L223 494 L474 494 L489 583 L131 583 L29 0 Z " />
<glyph glyph-name="G" unicode="G" horiz-adv-x="581" d="M297 -10 C378 -10 450 12 486 29 L535 301 L427 301 L389 88 C364 83 340 81 325 81 C219 81 160 126 160 244 C160 401 265 499 407 502 C468 504 526 484 559 459 L577 561 C539 581 477 593 420 593 C195 593 40 426 40 232 C40 78 136 -10 297 -10 L297 -10 Z " />
<glyph glyph-name="H" unicode="H" horiz-adv-x="623" d="M396 0 L505 0 L608 583 L499 583 L457 346 L197 346 L239 583 L132 583 L29 0 L137 0 L182 256 L441 256 L396 0 Z " />
<glyph glyph-name="I" unicode="I" horiz-adv-x="255" d="M29 0 L137 0 L239 583 L131 583 L29 0 Z " />
<glyph glyph-name="J" unicode="J" horiz-adv-x="268" d="M8 -94 C110 2 169 89 185 179 L256 583 L150 583 L78 175 C65 96 4 37 -67 -46 L8 -94 Z " />
<glyph glyph-name="K" unicode="K" horiz-adv-x="531" d="M349 0 L475 0 L312 312 L578 583 L456 583 L204 313 L201 296 L349 0 Z M29 0 L137 0 L239 583 L131 583 L29 0 Z " />
<glyph glyph-name="L" unicode="L" horiz-adv-x="441" d="M29 0 L383 0 L399 90 L152 90 L239 583 L131 583 L29 0 Z " />
<glyph glyph-name="M" unicode="M" horiz-adv-x="760" d="M-2 0 L102 0 L212 405 L217 405 L285 0 L367 0 L584 399 L589 399 L556 0 L670 0 L712 583 L585 583 L370 183 L365 183 L297 583 L165 583 L-2 0 Z " />
<glyph glyph-name="N" unicode="N" horiz-adv-x="635" d="M29 0 L130 0 L201 400 L205 400 L426 0 L517 0 L620 583 L519 583 L450 193 L446 193 L224 583 L132 583 L29 0 Z " />
<glyph glyph-name="O" unicode="O" horiz-adv-x="653" d="M275 -10 C489 -10 627 182 627 367 C627 510 547 593 390 593 C170 593 38 406 38 215 C38 78 121 -10 275 -10 L275 -10 Z M294 79 C203 79 154 130 154 227 C154 363 230 506 370 506 C459 506 511 460 511 362 C511 228 434 79 294 79 L294 79 Z " />
<glyph glyph-name="P" unicode="P" horiz-adv-x="502" d="M29 0 L137 0 L172 202 L226 202 C386 202 500 285 500 425 C500 524 423 583 321 583 L131 583 L29 0 Z M272 496 C353 496 388 469 388 407 C388 313 309 289 220 289 L187 289 L224 496 L272 496 Z " />
<glyph glyph-name="Q" unicode="Q" horiz-adv-x="653" d="M275 -10 C289 -10 303 -9 316 -7 L406 -110 L549 -110 L554 -92 L409 18 C544 77 627 224 627 367 C627 510 547 593 390 593 C170 593 38 406 38 215 C38 78 121 -10 275 -10 L275 -10 Z M294 79 C203 79 154 130 154 227 C154 363 230 506 370 506 C459 506 511 460 511 362 C511 228 434 79 294 79 L294 79 Z " />
<glyph glyph-name="R" unicode="R" horiz-adv-x="526" d="M29 0 L137 0 L175 217 L226 217 C239 217 252 218 264 219 L357 0 L475 0 L363 241 C447 274 500 341 500 434 C500 528 423 583 317 583 L131 583 L29 0 Z M272 496 C353 496 388 473 388 415 C388 325 309 303 220 303 L190 303 L224 496 L272 496 Z " />
<glyph glyph-name="S" unicode="S" horiz-adv-x="469" d="M0 27 C50 4 108 -10 166 -10 C304 -10 418 48 418 188 C418 271 344 306 277 335 C216 363 186 383 186 427 C186 476 238 506 303 506 C362 506 409 487 441 466 L464 557 C429 577 368 593 301 593 C181 593 76 521 76 398 C76 324 136 280 197 253 C263 226 312 212 312 162 C312 107 258 79 199 79 C139 79 76 92 25 118 L0 27 Z " />
<glyph glyph-name="T" unicode="T" horiz-adv-x="532" d="M57 494 L254 494 L168 0 L275 0 L361 494 L559 494 L574 583 L72 583 L57 494 Z " />
<glyph glyph-name="U" unicode="U" horiz-adv-x="620" d="M266 -10 C397 -10 520 64 551 238 L612 583 L505 583 L444 240 C425 133 365 79 282 79 C211 79 168 112 168 186 C168 199 169 214 172 230 L234 583 L127 583 L62 215 C59 197 57 180 57 164 C57 39 154 -10 266 -10 L266 -10 Z " />
<glyph glyph-name="V" unicode="V" horiz-adv-x="571" d="M619 583 L502 583 L261 132 L257 132 L192 583 L71 583 L174 0 L286 0 L619 583 Z " />
<glyph glyph-name="W" unicode="W" horiz-adv-x="882" d="M925 583 L811 583 L607 147 L602 147 L563 583 L443 583 L231 145 L226 145 L204 583 L83 583 L126 0 L255 0 L457 416 L463 416 L504 0 L635 0 L925 583 Z " />
<glyph glyph-name="X" unicode="X" horiz-adv-x="544" d="M85 583 L214 291 L-41 0 L86 0 L262 214 L347 0 L479 0 L345 299 L595 583 L470 583 L297 378 L209 583 L85 583 Z " />
<glyph glyph-name="Y" unicode="Y" horiz-adv-x="541" d="M594 583 L475 583 L284 305 L280 305 L184 583 L61 583 L204 216 L166 0 L273 0 L308 200 L594 583 Z " />
<glyph glyph-name="Z" unicode="Z" horiz-adv-x="506" d="M425 0 L441 91 L158 91 L543 580 L542 583 L96 583 L80 492 L351 492 L-25 3 L-24 0 L425 0 Z " />
<glyph glyph-name="bracketleft" unicode="&#x5b;" horiz-adv-x="260" d="M-6 -181 L144 -181 L157 -109 L87 -109 L213 606 L283 606 L295 679 L145 679 L-6 -181 Z " />
<glyph glyph-name="backslash" unicode="&#x5c;" horiz-adv-x="564" d="M193 669 L107 669 L381 -89 L469 -89 L193 669 Z " />
<glyph glyph-name="bracketright" unicode="&#x5d;" horiz-adv-x="261" d="M264 679 L113 679 L101 606 L171 606 L44 -109 L-25 -109 L-38 -181 L113 -181 L264 679 Z " />
<glyph glyph-name="asciicircum" unicode="&#x5e;" horiz-adv-x="422" d="M39 238 L133 238 L281 500 L321 238 L417 238 L349 583 L243 583 L39 238 Z " />
<glyph glyph-name="underscore" unicode="&#x5f;" horiz-adv-x="622" d="M30 -154 L449 -154 L462 -80 L42 -80 L30 -154 Z " />
<glyph glyph-name="grave" unicode="&#x60;" horiz-adv-x="278" d="M317 529 L208 679 L111 679 L241 529 L317 529 Z " />
<glyph glyph-name="a" unicode="a" horiz-adv-x="462" d="M356 0 L437 458 L342 458 L337 432 C302 449 268 461 243 461 C175 461 127 419 91 372 C51 319 26 198 26 100 C26 64 30 29 37 0 L131 0 L285 135 L261 0 L356 0 Z M129 98 C127 116 126 136 126 153 C127 239 154 335 192 381 C201 382 211 382 221 381 C252 379 286 369 323 353 L300 223 L144 93 L129 98 Z " />
<glyph glyph-name="b" unicode="b" horiz-adv-x="459" d="M18 26 C65 6 126 -9 183 -9 C315 -9 424 133 424 282 C424 372 403 461 321 461 C278 461 224 426 178 388 L225 653 L129 653 L18 26 Z M276 375 L294 374 C307 354 323 318 323 264 C323 149 259 71 207 71 C176 71 148 76 124 84 L162 300 C203 334 245 362 276 375 L276 375 Z " />
<glyph glyph-name="c" unicode="c" horiz-adv-x="380" d="M302 176 C245 133 198 100 151 84 L138 89 C131 115 129 142 128 170 C127 253 155 338 193 374 C203 376 214 377 224 377 C264 377 305 364 341 347 L374 433 C343 450 289 461 248 461 C182 461 124 421 86 371 C49 321 27 229 27 140 C27 91 35 40 50 0 L127 -9 C222 25 297 87 337 124 L302 176 Z " />
<glyph glyph-name="d" unicode="d" horiz-adv-x="463" d="M357 0 L473 653 L376 653 L337 435 C302 452 268 461 243 461 C175 461 127 419 91 372 C51 319 26 198 26 100 C26 64 30 29 37 0 L131 0 L284 134 L260 0 L357 0 Z M129 98 C127 114 126 132 126 149 C127 237 153 335 192 383 C200 384 207 384 215 384 C247 384 283 374 323 355 L299 222 L144 93 L129 98 Z " />
<glyph glyph-name="e" unicode="e" horiz-adv-x="410" d="M353 119 L320 175 C264 133 199 99 151 83 L139 88 C132 117 128 147 129 176 L129 179 C219 216 337 267 388 310 L393 409 C350 442 283 461 236 461 C167 461 123 421 86 372 C49 323 27 229 27 140 C27 91 35 40 50 -1 L127 -9 C218 23 308 81 353 119 L353 119 Z M195 382 C202 383 209 384 216 383 C245 383 279 371 301 357 L302 335 C259 302 191 272 135 247 C145 304 167 355 195 382 L195 382 Z " />
<glyph glyph-name="f" unicode="f" horiz-adv-x="309" d="M41 380 L121 380 L56 12 C40 -80 16 -114 0 -134 C-41 -141 -79 -127 -109 -116 L-131 -195 C-103 -207 -59 -213 -25 -213 C65 -213 131 -102 151 10 L215 380 L315 380 L327 452 L227 452 L233 485 C240 525 253 554 281 581 C293 583 305 583 318 582 C342 581 369 576 392 566 L419 651 C397 657 371 661 347 662 C326 662 304 660 285 655 C214 638 158 589 141 494 L133 452 L53 452 L41 380 Z " />
<glyph glyph-name="g" unicode="g" horiz-adv-x="460" d="M132 -213 C175 -213 214 -201 247 -180 C309 -141 343 -66 356 5 L435 458 L341 458 L337 436 C302 452 268 461 243 461 C175 461 127 419 91 372 C51 319 26 198 26 100 C26 64 30 29 37 0 L131 0 L284 134 L270 55 C256 -27 234 -99 213 -120 C183 -126 155 -128 128 -125 C81 -123 39 -110 3 -90 L-21 -183 C21 -203 80 -213 132 -213 L132 -213 Z M129 98 C127 113 126 130 126 146 C126 235 153 333 192 381 C199 382 207 383 214 382 C246 381 282 371 322 354 L299 222 L144 93 L129 98 Z " />
<glyph glyph-name="h" unicode="h" horiz-adv-x="481" d="M110 0 L157 266 C216 320 283 355 311 367 L330 362 C332 354 333 342 333 328 C333 304 330 272 323 235 L283 0 L379 0 L424 261 C432 306 436 343 436 372 C436 434 417 461 373 461 C313 461 243 416 172 355 L225 653 L131 653 L15 0 L110 0 Z " />
<glyph glyph-name="i" unicode="i" horiz-adv-x="216" d="M110 0 L190 452 L95 452 L15 0 L110 0 Z M204 544 L236 663 L133 666 L116 569 L204 544 Z " />
<glyph glyph-name="j" unicode="j" horiz-adv-x="217" d="M15 -7 C6 -59 -33 -110 -84 -175 L-21 -218 C50 -152 98 -75 111 -1 L191 452 L96 452 L15 -7 Z M204 544 L237 663 L134 666 L117 569 L204 544 Z " />
<glyph glyph-name="k" unicode="k" horiz-adv-x="457" d="M110 0 L157 268 C212 317 280 365 312 377 L329 372 C322 315 300 269 236 208 L232 182 L277 0 L388 0 L328 196 C399 258 429 317 434 402 C434 414 433 432 433 446 L323 461 C286 446 227 410 174 363 L225 653 L131 653 L15 0 L110 0 Z " />
<glyph glyph-name="l" unicode="l" horiz-adv-x="223" d="M114 0 L228 653 L134 653 L19 0 L114 0 Z " />
<glyph glyph-name="m" unicode="m" horiz-adv-x="712" d="M514 0 L610 0 L655 261 C662 298 666 331 666 359 C666 422 647 461 602 461 C542 461 482 416 417 355 C418 420 398 461 353 461 C295 461 236 419 174 360 L190 452 L95 452 L16 0 L111 0 L158 268 C212 321 267 354 296 366 L313 362 C315 354 316 343 316 330 C316 306 313 274 306 235 L266 0 L361 0 L407 261 C407 264 408 267 408 271 C462 322 517 354 544 366 L561 362 C563 353 564 342 564 328 C564 304 561 272 554 235 L514 0 Z " />
<glyph glyph-name="n" unicode="n" horiz-adv-x="481" d="M111 0 L157 266 C217 320 283 355 311 367 L331 362 C333 354 334 343 334 330 C334 306 331 274 324 235 L284 0 L379 0 L425 261 C433 306 437 343 437 372 C437 434 418 461 374 461 C315 461 244 416 173 355 L190 452 L95 452 L16 0 L111 0 Z " />
<glyph glyph-name="o" unicode="o" horiz-adv-x="454" d="M207 66 C183 67 154 75 143 82 C131 106 125 136 125 167 C124 250 161 345 224 388 C254 386 284 379 301 371 C314 344 320 314 320 285 C319 199 269 113 207 66 L207 66 Z M161 -8 C227 -8 294 29 341 83 C390 139 421 215 421 285 C421 415 370 461 279 461 C208 461 138 424 91 364 C47 308 23 232 23 155 C23 45 72 -8 161 -8 L161 -8 Z " />
<glyph glyph-name="p" unicode="p" horiz-adv-x="483" d="M97 -207 L133 -1 C155 -6 178 -9 200 -9 C339 -9 448 129 448 283 C448 372 420 460 353 460 C321 460 264 441 205 416 L212 452 L118 452 L103 366 C69 347 38 329 18 314 L35 255 C50 265 69 276 89 287 L1 -207 L97 -207 Z M300 378 L317 377 C331 356 347 319 347 265 C347 167 295 71 231 71 C205 71 180 74 148 84 L192 340 C226 355 262 368 300 378 L300 378 Z " />
<glyph glyph-name="q" unicode="q" horiz-adv-x="460" d="M318 -207 L435 458 L340 458 L336 436 C301 452 267 461 243 461 C175 461 127 419 91 372 C51 319 26 198 26 100 C26 64 30 29 37 0 L131 0 L282 133 L222 -207 L318 -207 Z M129 98 C127 114 126 131 126 148 C126 236 153 334 192 381 C201 382 208 382 217 382 C249 380 283 371 321 354 L298 221 L144 93 L129 98 Z " />
<glyph glyph-name="r" unicode="r" horiz-adv-x="348" d="M111 0 L156 261 C205 310 249 344 277 359 L324 327 L370 426 C357 443 332 461 307 461 C281 461 225 415 173 355 L190 452 L95 452 L16 0 L111 0 Z " />
<glyph glyph-name="s" unicode="s" horiz-adv-x="368" d="M352 436 C314 455 274 461 231 461 C127 461 52 394 52 319 C52 262 93 219 146 182 C179 159 209 136 221 109 L225 101 C209 81 177 70 140 70 C106 70 50 85 12 104 L-5 20 C30 2 81 -8 133 -8 C182 -8 227 6 261 31 C294 55 315 90 315 130 C315 187 261 228 208 263 C179 282 150 312 145 343 C144 350 144 357 147 365 C168 377 194 382 223 381 C260 380 300 368 331 350 L352 436 Z " />
<glyph glyph-name="t" unicode="t" horiz-adv-x="343" d="M39 380 L109 380 L44 13 L110 -8 C189 13 274 73 313 104 L282 169 C254 149 208 115 168 100 L158 107 L204 380 L328 380 L340 452 L216 452 L236 572 L143 572 L121 452 L51 452 L39 380 Z " />
<glyph glyph-name="u" unicode="u" horiz-adv-x="473" d="M352 452 L305 186 C247 132 179 97 151 86 L133 90 C133 116 138 160 147 218 L188 452 L92 452 L44 176 C37 138 34 105 34 78 C34 23 49 -8 91 -8 C155 -8 227 39 290 96 L273 0 L367 0 L447 452 L352 452 Z " />
<glyph glyph-name="v" unicode="v" horiz-adv-x="434" d="M351 452 L197 112 L187 112 C165 202 156 280 156 355 C156 387 159 418 163 452 L64 452 C60 425 58 396 57 366 C57 238 89 87 119 0 L227 0 L453 452 L351 452 Z " />
<glyph glyph-name="w" unicode="w" horiz-adv-x="689" d="M606 452 L456 116 L447 116 C427 203 417 279 417 353 C417 385 420 417 425 452 L326 452 C322 425 319 397 319 369 L319 362 L195 116 L186 116 C166 203 156 279 156 353 C156 385 159 417 164 452 L64 452 C60 423 58 392 58 360 C58 234 90 87 120 0 L214 0 L331 226 C344 139 365 56 385 0 L482 0 L708 452 L606 452 Z " />
<glyph glyph-name="x" unicode="x" horiz-adv-x="431" d="M351 452 L227 297 L166 452 L58 452 L156 221 L-37 0 L71 0 L190 150 L247 0 L357 0 L261 224 L461 452 L351 452 Z " />
<glyph glyph-name="y" unicode="y" horiz-adv-x="436" d="M149 -207 L302 142 L454 452 L353 452 L199 112 L189 112 C167 201 157 277 158 352 C158 385 160 417 165 452 L66 452 C62 424 59 395 59 365 C59 237 89 87 118 0 L144 0 L39 -190 L45 -207 L149 -207 Z " />
<glyph glyph-name="z" unicode="z" horiz-adv-x="394" d="M55 373 L260 373 L-5 54 L-4 0 L318 0 L330 82 L122 82 L387 396 L387 452 L66 452 L55 373 Z " />
<glyph glyph-name="braceleft" unicode="&#x7b;" horiz-adv-x="293" d="M153 -179 L181 -178 L193 -111 L172 -111 C121 -111 100 -100 100 -70 C100 -60 102 -49 106 -35 L153 144 C157 158 159 171 159 183 C159 217 144 243 118 252 C161 268 188 301 192 366 L209 543 C213 600 238 613 300 613 L320 613 L333 681 C333 681 297 682 296 682 C212 683 141 651 132 550 L114 355 C110 311 88 287 41 287 L29 221 C77 221 89 194 78 152 L28 -38 C23 -56 21 -72 21 -86 C21 -160 82 -183 153 -179 L153 -179 Z " />
<glyph glyph-name="bar" unicode="&#x7c;" horiz-adv-x="226" d="M11 -92 L92 -92 L228 675 L147 675 L11 -92 Z " />
<glyph glyph-name="braceright" unicode="&#x7d;" horiz-adv-x="292" d="M138 679 L110 678 L98 611 L119 611 C170 611 191 600 191 570 C191 560 189 549 185 535 L138 356 C134 342 132 329 132 317 C132 283 147 257 173 248 C130 232 103 199 99 134 L82 -43 C78 -100 53 -113 -9 -113 L-29 -113 L-42 -181 C-42 -181 -6 -182 -5 -182 C79 -183 150 -151 159 -50 L177 145 C181 189 203 213 250 213 L262 279 C214 279 202 306 213 348 L263 538 C268 556 270 572 270 586 C270 660 209 683 138 679 L138 679 Z " />
<glyph glyph-name="asciitilde" unicode="&#x7e;" horiz-adv-x="475" d="M308 220 C355 220 400 248 429 279 L401 337 C376 316 351 306 329 306 C266 307 246 345 174 345 C126 345 80 314 56 288 L80 232 C101 247 128 260 157 260 C214 260 245 220 308 220 L308 220 Z " />
<glyph glyph-name="uni00A0" unicode="&#xa0;" horiz-adv-x="250" d="" />
<glyph glyph-name="exclamdown" unicode="&#xa1;" horiz-adv-x="234" d="M144 123 L155 257 L78 257 L43 123 L-1 -130 L99 -130 L144 123 Z M205 452 L111 464 L74 341 L180 337 L205 452 Z " />
<glyph glyph-name="cent" unicode="&#xa2;" horiz-adv-x="401" d="M310 176 C283 155 258 137 234 122 L278 371 C303 366 327 357 349 347 L382 433 C360 445 326 454 294 458 L308 539 L250 539 L236 460 C178 453 128 416 94 371 C57 321 35 229 35 140 C35 91 43 40 58 0 L135 -9 L155 -1 L142 -74 L200 -74 L218 29 C273 61 317 98 345 124 L310 176 Z M159 84 L146 89 C139 115 137 142 136 170 C135 253 163 338 201 374 L221 377 L171 88 L159 84 Z " />
<glyph glyph-name="sterling" unicode="&#xa3;" horiz-adv-x="474" d="M203 192 C205 208 206 226 206 244 L355 244 L367 319 L203 319 C202 331 202 344 202 355 C202 369 202 382 204 394 C211 445 252 478 310 478 C364 478 402 464 437 430 L454 535 C421 555 380 568 319 568 C233 568 127 523 111 390 C107 368 107 343 107 319 L60 319 L49 244 L109 244 C109 232 110 222 110 211 C110 196 109 182 108 171 C104 135 93 111 75 84 L21 84 L6 0 L388 0 L402 84 L167 84 C185 119 199 156 203 192 L203 192 Z " />
<glyph glyph-name="currency" unicode="&#xa4;" horiz-adv-x="488" d="M123 474 L77 436 L131 365 C102 334 83 283 83 236 C83 210 88 181 97 163 L17 94 L47 54 L127 123 C149 102 182 93 216 93 C250 93 287 104 316 121 L370 51 L412 93 L360 161 C393 195 412 251 412 301 C412 324 407 349 398 365 L475 434 L444 477 L367 407 C343 428 310 436 276 436 C243 436 205 422 175 405 L123 474 Z M264 362 C318 362 337 326 337 288 C337 231 303 166 229 166 C175 166 154 204 154 243 C154 308 202 362 264 362 L264 362 Z " />
<glyph glyph-name="yen" unicode="&#xa5;" horiz-adv-x="596" d="M507 184 L336 184 L339 199 L372 244 L517 244 L529 317 L426 317 L605 557 L493 557 L312 295 L308 295 L213 557 L91 557 L185 317 L87 317 L74 244 L213 244 L230 201 L227 184 L64 184 L51 110 L214 110 L195 0 L304 0 L323 110 L495 110 L507 184 Z " />
<glyph glyph-name="brokenbar" unicode="&#xa6;" horiz-adv-x="233" d="M12 -92 L98 -92 L151 206 L65 206 L12 -92 Z M95 381 L182 381 L234 675 L148 675 L95 381 Z " />
<glyph glyph-name="section" unicode="&#xa7;" horiz-adv-x="472" d="M145 -118 C280 -118 403 -14 403 149 C403 214 378 271 324 328 L189 460 C224 497 274 514 311 514 C360 514 414 498 456 475 L472 564 C443 577 393 592 318 592 C186 592 65 495 65 334 C65 269 92 206 145 148 L273 10 C236 -25 185 -41 148 -41 C99 -41 48 -23 7 -1 L-9 -90 C20 -102 70 -118 145 -118 L145 -118 Z M148 351 C148 361 149 372 150 381 L241 290 C287 243 320 188 320 127 C320 111 318 97 315 84 L220 188 C176 237 148 290 148 351 L148 351 Z " />
<glyph glyph-name="dieresis" unicode="&#xa8;" horiz-adv-x="365" d="M116 570 L203 545 L239 659 L135 662 L116 570 Z M294 570 L381 545 L417 659 L313 662 L294 570 Z " />
<glyph glyph-name="copyright" unicode="&#xa9;" horiz-adv-x="701" d="M357 -14 C524 -14 660 117 660 289 C660 460 524 592 357 592 C190 592 54 460 54 289 C54 117 190 -14 357 -14 L357 -14 Z M357 21 C207 21 89 139 89 289 C89 439 207 557 357 557 C507 557 624 439 624 289 C624 139 507 21 357 21 L357 21 Z M366 112 C416 112 462 124 482 135 L482 205 C445 185 416 179 376 179 C308 179 263 215 263 292 C263 361 307 402 368 402 C408 402 443 396 482 375 L482 450 C459 458 428 470 368 470 C244 470 173 393 173 286 C173 164 256 112 366 112 L366 112 Z " />
<glyph glyph-name="ordfeminine" unicode="&#xaa;" horiz-adv-x="414" d="M351 391 L407 703 L335 703 L332 688 C307 699 282 705 265 705 C216 705 177 676 152 645 C123 608 105 526 105 459 C105 434 108 411 113 391 L185 391 L295 483 L278 391 L351 391 Z M183 460 C182 471 182 481 182 492 C181 553 200 615 228 648 C256 651 286 644 321 629 L306 546 L194 457 L183 460 Z M86 284 L360 284 L367 342 L92 342 L86 284 Z " />
<glyph glyph-name="guillemotleft" unicode="&#xab;" horiz-adv-x="428" d="M95 46 L181 46 L145 226 L244 405 L159 405 L36 226 L95 46 Z M256 46 L342 46 L306 226 L405 405 L320 405 L197 226 L256 46 Z " />
<glyph glyph-name="logicalnot" unicode="&#xac;" horiz-adv-x="473" d="M305 100 L380 100 L421 332 L70 332 L57 259 L333 259 L305 100 Z " />
<glyph glyph-name="registered" unicode="&#xae;" horiz-adv-x="472" d="M269 265 C375 265 459 343 459 454 C459 564 375 644 269 644 C163 644 79 563 79 454 C79 344 163 265 269 265 L269 265 Z M269 295 C176 295 111 363 111 454 C111 545 176 614 269 614 C363 614 427 545 427 454 C427 359 360 295 269 295 L269 295 Z M192 357 L245 357 L245 418 L263 418 C268 418 274 418 279 419 L313 357 L372 357 L324 432 C345 445 357 465 357 492 C357 537 326 561 277 561 L192 561 L192 357 Z M257 520 C287 520 303 515 303 491 C303 463 284 459 254 459 L245 459 L245 520 L257 520 Z " />
<glyph glyph-name="macron" unicode="&#xaf;" horiz-adv-x="352" d="M130 565 L379 565 L394 640 L145 640 L130 565 Z " />
<glyph glyph-name="degree" unicode="&#xb0;" horiz-adv-x="350" d="M189 328 C276 328 341 396 341 486 C341 546 307 592 235 592 C146 592 79 526 79 434 C79 374 115 328 189 328 L189 328 Z M199 390 C170 390 154 408 154 440 C154 499 186 529 222 529 C254 529 266 508 266 476 C266 408 233 390 199 390 L199 390 Z " />
<glyph glyph-name="plusminus" unicode="&#xb1;" horiz-adv-x="495" d="M69 299 L222 299 L195 142 L266 142 L294 299 L446 299 L459 368 L306 368 L334 526 L262 526 L234 368 L82 368 L69 299 Z M16 29 L401 29 L413 101 L29 101 L16 29 Z " />
<glyph glyph-name="twosuperior" unicode="&#xb2;" horiz-adv-x="272" d="M280 400 L288 455 L147 455 C231 519 305 581 305 644 C305 682 260 716 200 716 C165 716 133 708 96 687 L91 628 C117 648 149 659 174 659 C203 659 222 648 235 628 C216 575 154 517 61 444 L54 400 L280 400 Z " />
<glyph glyph-name="threesuperior" unicode="&#xb3;" horiz-adv-x="266" d="M49 409 C64 403 93 395 133 395 C200 395 287 431 287 497 C287 526 251 553 218 565 L218 568 C250 582 300 617 300 652 C300 689 254 716 201 716 C163 716 126 708 97 690 L98 636 C123 652 151 659 176 659 C211 659 224 648 230 634 C215 611 185 588 142 576 L137 542 C175 531 201 516 218 488 C211 460 179 451 142 451 C116 451 91 456 64 467 L49 409 Z " />
<glyph glyph-name="acute" unicode="&#xb4;" horiz-adv-x="278" d="M210 529 L340 679 L243 679 L134 529 L210 529 Z " />
<glyph glyph-name="mu" unicode="&#xb5;" horiz-adv-x="538" d="M-9 -207 L85 -207 L121 -5 C131 -5 141 -3 151 0 C202 15 257 54 304 97 C303 87 302 78 302 69 C302 9 340 -6 385 -6 C414 -6 437 0 463 11 L474 77 C457 75 440 75 430 75 C403 75 397 89 404 132 L461 452 L367 452 L321 188 C263 134 192 98 164 86 L147 90 C146 116 151 160 161 218 L202 452 L106 452 L-9 -207 Z " />
<glyph glyph-name="paragraph" unicode="&#xb6;" horiz-adv-x="590" d="M189 -207 L277 -207 L401 498 L468 498 L345 -207 L432 -207 L571 583 L331 583 C169 583 46 487 46 333 C46 222 133 166 254 163 L189 -207 Z " />
<glyph glyph-name="periodcentered" unicode="&#xb7;" horiz-adv-x="229" d="M64 274 L152 249 L187 368 L84 371 L64 274 Z " />
<glyph glyph-name="cedilla" unicode="&#xb8;" horiz-adv-x="289" d="M81 -214 C165 -214 201 -165 201 -109 C201 -73 177 -45 138 -37 L170 20 L113 20 L69 -54 L69 -69 C113 -70 130 -88 130 -112 C130 -135 111 -155 75 -155 C56 -155 31 -146 15 -136 L-2 -193 C14 -204 53 -214 81 -214 L81 -214 Z " />
<glyph glyph-name="onesuperior" unicode="&#xb9;" horiz-adv-x="196" d="M177 400 L235 715 L192 715 L83 683 L73 626 L153 644 L107 400 L177 400 Z " />
<glyph glyph-name="ordmasculine" unicode="&#xba;" horiz-adv-x="425" d="M71 284 L369 284 L375 342 L78 342 L71 284 Z M252 435 C235 436 219 442 211 447 C202 464 197 486 197 509 C197 565 220 627 264 656 C286 654 303 649 315 644 C324 627 328 607 329 588 C330 528 297 468 252 435 L252 435 Z M219 385 C271 386 319 411 352 447 C386 486 405 538 405 586 C405 674 369 705 303 705 C250 705 200 680 167 639 C136 600 120 549 120 497 C120 421 155 385 219 385 L219 385 Z " />
<glyph glyph-name="guillemotright" unicode="&#xbb;" horiz-adv-x="430" d="M161 408 L75 408 L111 228 L12 49 L97 49 L220 228 L161 408 Z M324 408 L238 408 L274 228 L175 49 L260 49 L383 228 L324 408 Z " />
<glyph glyph-name="onequarter" unicode="&#xbc;" horiz-adv-x="638" d="M174 259 L232 574 L189 574 L80 542 L70 485 L150 503 L104 259 L174 259 Z M572 73 L581 126 L539 126 L573 313 L510 313 L324 123 L317 73 L458 73 L445 0 L516 0 L529 73 L572 73 Z M387 126 L488 229 L469 126 L387 126 Z M119 0 L560 547 L560 552 L496 552 L59 5 L59 0 L119 0 Z " />
<glyph glyph-name="onehalf" unicode="&#xbd;" horiz-adv-x="655" d="M175 259 L233 574 L190 574 L81 542 L71 485 L151 503 L105 259 L175 259 Z M576 0 L584 55 L443 55 C527 119 601 181 601 244 C601 282 556 316 496 316 C461 316 429 308 392 287 L387 228 C413 248 445 259 470 259 C499 259 518 248 531 228 C512 175 450 117 357 44 L350 0 L576 0 Z M111 0 L552 547 L552 552 L488 552 L51 5 L51 0 L111 0 Z " />
<glyph glyph-name="threequarters" unicode="&#xbe;" horiz-adv-x="655" d="M45 270 C60 264 89 256 129 256 C196 256 283 292 283 358 C283 387 247 414 214 426 L214 429 C246 443 296 478 296 513 C296 550 250 577 197 577 C159 577 122 569 93 551 L94 497 C119 513 147 520 172 520 C207 520 220 509 226 495 C211 472 181 449 138 437 L133 403 C171 392 197 377 214 349 C207 321 175 312 138 312 C112 312 87 317 60 328 L45 270 Z M151 0 L592 547 L592 552 L528 552 L91 5 L91 0 L151 0 Z M590 73 L599 126 L557 126 L591 313 L528 313 L342 123 L335 73 L476 73 L463 0 L534 0 L547 73 L590 73 Z M405 126 L506 229 L487 126 L405 126 Z " />
<glyph glyph-name="questiondown" unicode="&#xbf;" horiz-adv-x="334" d="M-9 -2 C-9 -75 82 -127 210 -144 L235 -66 C172 -52 114 -37 77 -4 C109 39 193 93 232 141 C245 156 253 170 253 182 C253 209 236 245 226 269 L157 260 L169 191 L72 108 C31 74 -9 43 -9 -2 L-9 -2 Z M276 451 L183 463 L145 340 L251 336 L276 451 Z " />
<glyph glyph-name="Agrave" unicode="&#xc0;" horiz-adv-x="544" d="M-35 0 L72 0 L164 178 L349 178 L367 0 L481 0 L400 583 L290 583 L-35 0 Z M315 470 L320 470 L341 261 L207 261 L315 470 Z M406 633 L341 766 L234 766 L323 633 L406 633 Z " />
<glyph glyph-name="Aacute" unicode="&#xc1;" horiz-adv-x="544" d="M-35 0 L72 0 L164 178 L349 178 L367 0 L481 0 L400 583 L290 583 L-35 0 Z M315 470 L320 470 L341 261 L207 261 L315 470 Z M381 633 L514 766 L407 766 L298 633 L381 633 Z " />
<glyph glyph-name="Acircumflex" unicode="&#xc2;" horiz-adv-x="544" d="M-35 0 L72 0 L164 178 L349 178 L367 0 L481 0 L400 583 L290 583 L-35 0 Z M341 772 L196 631 L292 631 L364 711 L367 711 L405 631 L505 631 L419 772 L341 772 Z M315 470 L320 470 L341 261 L207 261 L315 470 Z " />
<glyph glyph-name="Atilde" unicode="&#xc3;" horiz-adv-x="544" d="M-35 0 L72 0 L164 178 L349 178 L367 0 L481 0 L400 583 L290 583 L-35 0 Z M481 732 C468 718 446 702 419 702 C386 702 353 735 313 735 C272 735 235 702 211 676 L236 634 C256 655 275 665 298 665 C333 665 367 632 408 632 C456 632 487 668 506 688 L481 732 Z M315 470 L320 470 L341 261 L207 261 L315 470 Z " />
<glyph glyph-name="Adieresis" unicode="&#xc4;" horiz-adv-x="544" d="M-35 0 L72 0 L164 178 L349 178 L367 0 L481 0 L400 583 L290 583 L-35 0 Z M315 470 L320 470 L341 261 L207 261 L315 470 Z M391 652 L479 627 L514 741 L411 744 L391 652 Z M213 652 L300 627 L336 741 L233 744 L213 652 Z " />
<glyph glyph-name="Aring" unicode="&#xc5;" horiz-adv-x="544" d="M-35 0 L72 0 L164 178 L349 178 L367 0 L481 0 L400 583 L290 583 L-35 0 Z M382 788 C327 788 271 754 271 684 C271 637 308 609 351 609 C403 609 464 641 464 715 C464 762 425 788 382 788 L382 788 Z M315 470 L320 470 L341 261 L207 261 L315 470 Z M373 740 C397 740 407 728 407 709 C407 676 388 657 359 657 C336 657 327 669 327 688 C327 717 341 740 373 740 L373 740 Z " />
<glyph glyph-name="AE" unicode="&#xc6;" horiz-adv-x="753" d="M309 0 L669 0 L685 90 L431 90 L460 254 L664 254 L679 341 L475 341 L502 494 L753 494 L768 583 L369 583 L-45 0 L66 0 L174 157 L336 157 L309 0 Z M384 460 L389 460 L352 248 L237 248 L384 460 Z " />
<glyph glyph-name="Ccedilla" unicode="&#xc7;" horiz-adv-x="548" d="M243 -214 C327 -214 363 -165 363 -109 C363 -73 339 -45 300 -37 L315 -9 C389 -6 453 16 477 29 L492 127 C442 98 385 81 325 81 C220 81 161 127 161 245 C161 403 264 502 405 502 C450 502 498 495 529 471 L547 571 C515 585 470 593 414 593 C188 593 40 427 40 234 C40 91 121 5 258 -8 L231 -54 L231 -69 C275 -70 292 -88 292 -112 C292 -135 273 -155 237 -155 C218 -155 193 -146 177 -136 L160 -193 C176 -204 215 -214 243 -214 L243 -214 Z " />
<glyph glyph-name="Egrave" unicode="&#xc8;" horiz-adv-x="474" d="M29 0 L390 0 L406 90 L152 90 L181 254 L384 254 L399 341 L196 341 L223 494 L473 494 L489 583 L131 583 L29 0 Z M388 633 L323 766 L216 766 L305 633 L388 633 Z " />
<glyph glyph-name="Eacute" unicode="&#xc9;" horiz-adv-x="474" d="M29 0 L390 0 L406 90 L152 90 L181 254 L384 254 L399 341 L196 341 L223 494 L473 494 L489 583 L131 583 L29 0 Z M326 633 L459 766 L352 766 L243 633 L326 633 Z " />
<glyph glyph-name="Ecircumflex" unicode="&#xca;" horiz-adv-x="474" d="M29 0 L390 0 L406 90 L152 90 L181 254 L384 254 L399 341 L196 341 L223 494 L473 494 L489 583 L131 583 L29 0 Z M319 773 L174 632 L270 632 L342 712 L345 712 L383 632 L483 632 L397 773 L319 773 Z " />
<glyph glyph-name="Edieresis" unicode="&#xcb;" horiz-adv-x="474" d="M29 0 L390 0 L406 90 L152 90 L181 254 L384 254 L399 341 L196 341 L223 494 L473 494 L489 583 L131 583 L29 0 Z M373 653 L461 628 L496 742 L393 745 L373 653 Z M195 653 L282 628 L318 742 L215 745 L195 653 Z " />
<glyph glyph-name="Igrave" unicode="&#xcc;" horiz-adv-x="255" d="M228 633 L163 766 L56 766 L145 633 L228 633 Z M29 0 L137 0 L239 583 L131 583 L29 0 Z " />
<glyph glyph-name="Iacute" unicode="&#xcd;" horiz-adv-x="255" d="M29 0 L137 0 L239 583 L131 583 L29 0 Z M220 633 L353 766 L246 766 L137 633 L220 633 Z " />
<glyph glyph-name="Icircumflex" unicode="&#xce;" horiz-adv-x="255" d="M29 0 L137 0 L239 583 L131 583 L29 0 Z M185 773 L40 632 L136 632 L208 712 L211 712 L249 632 L349 632 L263 773 L185 773 Z " />
<glyph glyph-name="Idieresis" unicode="&#xcf;" horiz-adv-x="255" d="M29 0 L137 0 L239 583 L131 583 L29 0 Z M61 653 L148 628 L184 742 L81 745 L61 653 Z M239 653 L327 628 L362 742 L259 745 L239 653 Z " />
<glyph glyph-name="Eth" unicode="&#xd0;" horiz-adv-x="627" d="M24 263 L77 263 L31 0 L222 0 C433 2 598 135 598 355 C598 522 477 583 311 583 L133 583 L89 333 L38 333 L24 263 Z M308 263 L321 333 L197 333 L225 494 L275 494 C413 494 477 455 477 344 C477 176 377 90 218 90 L154 90 L185 263 L308 263 Z " />
<glyph glyph-name="Ntilde" unicode="&#xd1;" horiz-adv-x="635" d="M514 732 C501 718 479 702 452 702 C419 702 386 735 346 735 C305 735 268 702 244 676 L269 634 C289 655 308 665 331 665 C366 665 400 632 441 632 C489 632 520 668 539 688 L514 732 Z M29 0 L130 0 L201 400 L205 400 L426 0 L517 0 L620 583 L519 583 L450 193 L446 193 L224 583 L132 583 L29 0 Z " />
<glyph glyph-name="Ograve" unicode="&#xd2;" horiz-adv-x="653" d="M430 633 L365 766 L258 766 L347 633 L430 633 Z M275 -10 C489 -10 627 182 627 367 C627 510 547 593 390 593 C170 593 38 406 38 215 C38 78 121 -10 275 -10 L275 -10 Z M294 79 C203 79 154 130 154 227 C154 363 230 506 370 506 C459 506 511 460 511 362 C511 228 434 79 294 79 L294 79 Z " />
<glyph glyph-name="Oacute" unicode="&#xd3;" horiz-adv-x="653" d="M405 633 L538 766 L431 766 L322 633 L405 633 Z M275 -10 C489 -10 627 182 627 367 C627 510 547 593 390 593 C170 593 38 406 38 215 C38 78 121 -10 275 -10 L275 -10 Z M294 79 C203 79 154 130 154 227 C154 363 230 506 370 506 C459 506 511 460 511 362 C511 228 434 79 294 79 L294 79 Z " />
<glyph glyph-name="Ocircumflex" unicode="&#xd4;" horiz-adv-x="653" d="M275 -10 C489 -10 627 182 627 367 C627 510 547 593 390 593 C170 593 38 406 38 215 C38 78 121 -10 275 -10 L275 -10 Z M294 79 C203 79 154 130 154 227 C154 363 230 506 370 506 C459 506 511 460 511 362 C511 228 434 79 294 79 L294 79 Z M384 774 L239 633 L335 633 L407 713 L410 713 L448 633 L548 633 L462 774 L384 774 Z " />
<glyph glyph-name="Otilde" unicode="&#xd5;" horiz-adv-x="653" d="M525 731 C512 717 490 701 463 701 C430 701 397 734 357 734 C316 734 279 701 255 675 L280 633 C300 654 319 664 342 664 C377 664 411 631 452 631 C500 631 531 667 550 687 L525 731 Z M275 -10 C489 -10 627 182 627 367 C627 510 547 593 390 593 C170 593 38 406 38 215 C38 78 121 -10 275 -10 L275 -10 Z M294 79 C203 79 154 130 154 227 C154 363 230 506 370 506 C459 506 511 460 511 362 C511 228 434 79 294 79 L294 79 Z " />
<glyph glyph-name="Odieresis" unicode="&#xd6;" horiz-adv-x="653" d="M245 652 L332 627 L368 741 L265 744 L245 652 Z M423 652 L511 627 L546 741 L443 744 L423 652 Z M275 -10 C489 -10 627 182 627 367 C627 510 547 593 390 593 C170 593 38 406 38 215 C38 78 121 -10 275 -10 L275 -10 Z M294 79 C203 79 154 130 154 227 C154 363 230 506 370 506 C459 506 511 460 511 362 C511 228 434 79 294 79 L294 79 Z " />
<glyph glyph-name="multiply" unicode="&#xd7;" horiz-adv-x="448" d="M68 107 L222 244 L328 107 L385 158 L279 295 L434 433 L392 487 L238 349 L133 487 L76 435 L181 298 L28 160 L68 107 Z " />
<glyph glyph-name="Oslash" unicode="&#xd8;" horiz-adv-x="653" d="M275 -10 C489 -10 627 182 627 367 C627 427 613 477 585 514 L661 593 L584 593 L544 552 C506 578 455 593 390 593 C170 593 38 406 38 215 C38 157 52 108 81 71 L5 -8 L81 -8 L120 33 C159 5 211 -10 275 -10 L275 -10 Z M154 227 C154 363 230 506 370 506 C412 506 446 495 470 474 L165 158 C158 177 154 200 154 227 L154 227 Z M294 79 C252 79 219 90 196 111 L501 427 C507 408 511 387 511 362 C511 228 434 79 294 79 L294 79 Z " />
<glyph glyph-name="Ugrave" unicode="&#xd9;" horiz-adv-x="620" d="M429 633 L364 766 L257 766 L346 633 L429 633 Z M266 -10 C397 -10 520 64 551 238 L612 583 L505 583 L444 240 C425 133 365 79 282 79 C211 79 168 112 168 186 C168 199 169 214 172 230 L234 583 L127 583 L62 215 C59 197 57 180 57 164 C57 39 154 -10 266 -10 L266 -10 Z " />
<glyph glyph-name="Uacute" unicode="&#xda;" horiz-adv-x="620" d="M391 633 L524 766 L417 766 L308 633 L391 633 Z M266 -10 C397 -10 520 64 551 238 L612 583 L505 583 L444 240 C425 133 365 79 282 79 C211 79 168 112 168 186 C168 199 169 214 172 230 L234 583 L127 583 L62 215 C59 197 57 180 57 164 C57 39 154 -10 266 -10 L266 -10 Z " />
<glyph glyph-name="Ucircumflex" unicode="&#xdb;" horiz-adv-x="620" d="M266 -10 C397 -10 520 64 551 238 L612 583 L505 583 L444 240 C425 133 365 79 282 79 C211 79 168 112 168 186 C168 199 169 214 172 230 L234 583 L127 583 L62 215 C59 197 57 180 57 164 C57 39 154 -10 266 -10 L266 -10 Z M365 773 L220 632 L316 632 L388 712 L391 712 L429 632 L529 632 L443 773 L365 773 Z " />
<glyph glyph-name="Udieresis" unicode="&#xdc;" horiz-adv-x="620" d="M236 652 L323 627 L359 741 L256 744 L236 652 Z M414 652 L502 627 L537 741 L434 744 L414 652 Z M266 -10 C397 -10 520 64 551 238 L612 583 L505 583 L444 240 C425 133 365 79 282 79 C211 79 168 112 168 186 C168 199 169 214 172 230 L234 583 L127 583 L62 215 C59 197 57 180 57 164 C57 39 154 -10 266 -10 L266 -10 Z " />
<glyph glyph-name="Yacute" unicode="&#xdd;" horiz-adv-x="541" d="M594 583 L475 583 L284 305 L280 305 L184 583 L61 583 L204 216 L166 0 L273 0 L308 200 L594 583 Z M354 633 L487 766 L380 766 L271 633 L354 633 Z " />
<glyph glyph-name="Thorn" unicode="&#xde;" horiz-adv-x="514" d="M29 0 L137 0 L154 98 L220 98 C380 98 495 181 495 321 C495 419 417 479 315 479 L221 479 L239 583 L131 583 L29 0 Z M266 392 C347 392 382 365 382 303 C382 209 303 185 215 185 L169 185 L205 392 L266 392 Z " />
<glyph glyph-name="germandbls" unicode="&#xdf;" horiz-adv-x="568" d="M41 385 L121 385 L56 12 C49 -24 42 -53 34 -74 C22 -104 10 -118 1 -128 C-41 -130 -79 -121 -108 -110 L-131 -194 C-103 -206 -59 -212 -26 -212 C65 -212 134 -87 150 10 L231 478 C238 518 251 550 279 577 C298 579 316 581 333 581 C397 581 423 559 423 508 C423 406 288 391 288 298 C288 241 314 219 366 182 C396 162 421 141 435 117 C438 112 441 106 442 101 C427 82 398 72 363 72 C322 72 265 86 231 104 L215 20 C251 2 298 -8 351 -8 C402 -8 443 7 476 32 C507 56 525 90 525 130 C525 185 478 224 429 258 C398 279 383 297 383 319 C383 383 520 386 520 536 C520 604 458 663 357 663 C306 663 257 651 218 622 C178 594 150 550 139 487 L133 452 L53 452 L41 385 Z " />
<glyph glyph-name="agrave" unicode="&#xe0;" horiz-adv-x="462" d="M356 0 L437 458 L342 458 L337 432 C302 449 268 461 243 461 C175 461 127 419 91 372 C51 319 26 198 26 100 C26 64 30 29 37 0 L131 0 L285 135 L261 0 L356 0 Z M129 98 C127 116 126 136 126 153 C127 239 154 335 192 381 C201 382 211 382 221 381 C252 379 286 369 323 353 L300 223 L144 93 L129 98 Z M344 528 L235 678 L138 678 L268 528 L344 528 Z " />
<glyph glyph-name="aacute" unicode="&#xe1;" horiz-adv-x="462" d="M356 0 L437 458 L342 458 L337 432 C302 449 268 461 243 461 C175 461 127 419 91 372 C51 319 26 198 26 100 C26 64 30 29 37 0 L131 0 L285 135 L261 0 L356 0 Z M129 98 C127 116 126 136 126 153 C127 239 154 335 192 381 C201 382 211 382 221 381 C252 379 286 369 323 353 L300 223 L144 93 L129 98 Z M315 529 L445 679 L348 679 L239 529 L315 529 Z " />
<glyph glyph-name="acircumflex" unicode="&#xe2;" horiz-adv-x="462" d="M356 0 L437 458 L342 458 L337 432 C302 449 268 461 243 461 C175 461 127 419 91 372 C51 319 26 198 26 100 C26 64 30 29 37 0 L131 0 L285 135 L261 0 L356 0 Z M129 98 C127 116 126 136 126 153 C127 239 154 335 192 381 C201 382 211 382 221 381 C252 379 286 369 323 353 L300 223 L144 93 L129 98 Z M280 682 L145 527 L238 527 L302 619 L304 619 L334 527 L427 527 L357 682 L280 682 Z " />
<glyph glyph-name="atilde" unicode="&#xe3;" horiz-adv-x="462" d="M356 0 L437 458 L342 458 L337 432 C302 449 268 461 243 461 C175 461 127 419 91 372 C51 319 26 198 26 100 C26 64 30 29 37 0 L131 0 L285 135 L261 0 L356 0 Z M129 98 C127 116 126 136 126 153 C127 239 154 335 192 381 C201 382 211 382 221 381 C252 379 286 369 323 353 L300 223 L144 93 L129 98 Z M423 651 C410 637 387 621 361 621 C328 621 295 653 255 653 C214 653 177 621 153 595 L177 547 C198 569 218 579 240 579 C275 579 308 545 350 545 C397 545 429 582 448 602 L423 651 Z " />
<glyph glyph-name="adieresis" unicode="&#xe4;" horiz-adv-x="462" d="M356 0 L437 458 L342 458 L337 432 C302 449 268 461 243 461 C175 461 127 419 91 372 C51 319 26 198 26 100 C26 64 30 29 37 0 L131 0 L285 135 L261 0 L356 0 Z M129 98 C127 116 126 136 126 153 C127 239 154 335 192 381 C201 382 211 382 221 381 C252 379 286 369 323 353 L300 223 L144 93 L129 98 Z M160 570 L247 545 L283 659 L179 662 L160 570 Z M338 570 L425 545 L461 659 L357 662 L338 570 Z " />
<glyph glyph-name="aring" unicode="&#xe5;" horiz-adv-x="462" d="M356 0 L437 458 L342 458 L337 432 C302 449 268 461 243 461 C175 461 127 419 91 372 C51 319 26 198 26 100 C26 64 30 29 37 0 L131 0 L285 135 L261 0 L356 0 Z M129 98 C127 116 126 136 126 153 C127 239 154 335 192 381 C201 382 211 382 221 381 C252 379 286 369 323 353 L300 223 L144 93 L129 98 Z M321 702 C265 702 208 667 208 596 C208 548 246 519 290 519 C343 519 404 552 404 628 C404 675 365 702 321 702 L321 702 Z M312 652 C335 652 345 640 345 621 C345 589 327 569 297 569 C275 569 266 582 266 600 C266 628 280 652 312 652 L312 652 Z " />
<glyph glyph-name="ae" unicode="&#xe6;" horiz-adv-x="675" d="M619 119 L585 175 C529 133 464 99 417 83 L404 88 C398 112 395 137 394 163 L394 179 C483 216 601 267 653 310 L659 409 C616 442 548 461 501 461 C455 461 418 441 388 413 C342 440 275 461 243 461 C175 461 127 419 91 372 C51 319 26 198 26 100 C26 64 30 29 37 0 L131 0 L292 124 C293 80 302 35 316 -1 L392 -9 C484 23 573 81 619 119 L619 119 Z M127 95 C126 110 125 127 125 143 C125 233 152 333 192 381 C202 383 213 383 222 383 C260 382 297 370 336 348 C315 309 301 256 295 200 L142 90 L127 95 Z M460 382 C467 383 474 383 482 383 C511 382 544 372 566 357 L567 335 C525 301 456 271 400 247 C411 304 433 355 460 382 L460 382 Z " />
<glyph glyph-name="ccedilla" unicode="&#xe7;" horiz-adv-x="380" d="M88 -213 C172 -213 208 -164 208 -108 C208 -72 184 -44 145 -36 L170 8 C244 43 303 93 337 124 L302 176 C245 133 198 100 151 84 L138 89 C131 115 129 142 128 170 C127 253 155 338 193 374 C203 376 214 377 224 377 C264 377 305 364 341 347 L374 433 C343 450 289 461 248 461 C182 461 124 421 86 371 C49 321 27 229 27 140 C27 91 35 40 50 0 L104 -6 L76 -53 L76 -68 C120 -69 137 -87 137 -111 C137 -134 118 -154 82 -154 C63 -154 38 -145 22 -135 L5 -192 C21 -203 60 -213 88 -213 L88 -213 Z " />
<glyph glyph-name="egrave" unicode="&#xe8;" horiz-adv-x="410" d="M353 119 L320 175 C264 133 199 99 151 83 L139 88 C132 117 128 147 129 176 L129 179 C219 216 337 267 388 310 L393 409 C350 442 283 461 236 461 C167 461 123 421 86 372 C49 323 27 229 27 140 C27 91 35 40 50 -1 L127 -9 C218 23 308 81 353 119 L353 119 Z M321 529 L212 679 L115 679 L245 529 L321 529 Z M195 382 C202 383 209 384 216 383 C245 383 279 371 301 357 L302 335 C259 302 191 272 135 247 C145 304 167 355 195 382 L195 382 Z " />
<glyph glyph-name="eacute" unicode="&#xe9;" horiz-adv-x="410" d="M353 119 L320 175 C264 133 199 99 151 83 L139 88 C132 117 128 147 129 176 L129 179 C219 216 337 267 388 310 L393 409 C350 442 283 461 236 461 C167 461 123 421 86 372 C49 323 27 229 27 140 C27 91 35 40 50 -1 L127 -9 C218 23 308 81 353 119 L353 119 Z M276 529 L406 679 L309 679 L200 529 L276 529 Z M195 382 C202 383 209 384 216 383 C245 383 279 371 301 357 L302 335 C259 302 191 272 135 247 C145 304 167 355 195 382 L195 382 Z " />
<glyph glyph-name="ecircumflex" unicode="&#xea;" horiz-adv-x="410" d="M353 119 L320 175 C264 133 199 99 151 83 L139 88 C132 117 128 147 129 176 L129 179 C219 216 337 267 388 310 L393 409 C350 442 283 461 236 461 C167 461 123 421 86 372 C49 323 27 229 27 140 C27 91 35 40 50 -1 L127 -9 C218 23 308 81 353 119 L353 119 Z M260 682 L125 527 L218 527 L282 619 L284 619 L314 527 L407 527 L337 682 L260 682 Z M195 382 C202 383 209 384 216 383 C245 383 279 371 301 357 L302 335 C259 302 191 272 135 247 C145 304 167 355 195 382 L195 382 Z " />
<glyph glyph-name="edieresis" unicode="&#xeb;" horiz-adv-x="410" d="M353 119 L320 175 C264 133 199 99 151 83 L139 88 C132 117 128 147 129 176 L129 179 C219 216 337 267 388 310 L393 409 C350 442 283 461 236 461 C167 461 123 421 86 372 C49 323 27 229 27 140 C27 91 35 40 50 -1 L127 -9 C218 23 308 81 353 119 L353 119 Z M195 382 C202 383 209 384 216 383 C245 383 279 371 301 357 L302 335 C259 302 191 272 135 247 C145 304 167 355 195 382 L195 382 Z M297 570 L384 545 L420 659 L316 662 L297 570 Z M119 570 L206 545 L242 659 L138 662 L119 570 Z " />
<glyph glyph-name="igrave" unicode="&#xec;" horiz-adv-x="216" d="M111 0 L190 452 L95 452 L16 0 L111 0 Z M187 529 L78 679 L-19 679 L111 529 L187 529 Z " />
<glyph glyph-name="iacute" unicode="&#xed;" horiz-adv-x="216" d="M195 529 L325 679 L228 679 L119 529 L195 529 Z M111 0 L190 452 L95 452 L16 0 L111 0 Z " />
<glyph glyph-name="icircumflex" unicode="&#xee;" horiz-adv-x="216" d="M152 682 L17 527 L110 527 L174 619 L176 619 L206 527 L299 527 L229 682 L152 682 Z M111 0 L190 452 L95 452 L16 0 L111 0 Z " />
<glyph glyph-name="idieresis" unicode="&#xef;" horiz-adv-x="216" d="M18 570 L105 545 L141 659 L37 662 L18 570 Z M196 570 L283 545 L319 659 L215 662 L196 570 Z M111 0 L190 452 L95 452 L16 0 L111 0 Z " />
<glyph glyph-name="eth" unicode="&#xf0;" horiz-adv-x="455" d="M204 497 L255 539 C277 513 294 486 305 457 C293 459 279 460 265 460 C179 460 106 401 64 320 C37 272 24 215 24 159 C24 45 78 -8 167 -8 C244 -8 301 30 347 88 C397 151 424 236 424 319 C424 432 400 522 330 601 L377 640 L341 683 L291 641 C274 655 256 670 236 684 L177 615 C192 603 205 591 218 579 L169 538 L204 497 Z M327 331 C327 211 282 123 207 66 C184 67 155 75 143 82 C130 106 125 136 125 168 C125 251 162 345 224 388 L251 385 C276 380 303 375 325 368 C326 356 327 344 327 331 L327 331 Z " />
<glyph glyph-name="ntilde" unicode="&#xf1;" horiz-adv-x="481" d="M111 0 L157 266 C217 320 283 355 311 367 L331 362 C333 354 334 343 334 330 C334 306 331 274 324 235 L284 0 L379 0 L425 261 C433 306 437 343 437 372 C437 434 418 461 374 461 C315 461 244 416 173 355 L190 452 L95 452 L16 0 L111 0 Z M419 651 C406 637 383 621 357 621 C324 621 291 653 251 653 C210 653 173 621 149 595 L173 547 C194 569 214 579 236 579 C271 579 304 545 346 545 C393 545 425 582 444 602 L419 651 Z " />
<glyph glyph-name="ograve" unicode="&#xf2;" horiz-adv-x="454" d="M207 66 C183 67 154 75 143 82 C131 106 125 136 125 167 C124 250 161 345 224 388 C254 386 284 379 301 371 C314 344 320 314 320 285 C319 199 269 113 207 66 L207 66 Z M161 -8 C227 -8 294 29 341 83 C390 139 421 215 421 285 C421 415 370 461 279 461 C208 461 138 424 91 364 C47 308 23 232 23 155 C23 45 72 -8 161 -8 L161 -8 Z M325 529 L216 679 L119 679 L249 529 L325 529 Z " />
<glyph glyph-name="oacute" unicode="&#xf3;" horiz-adv-x="454" d="M301 529 L431 679 L334 679 L225 529 L301 529 Z M207 66 C183 67 154 75 143 82 C131 106 125 136 125 167 C124 250 161 345 224 388 C254 386 284 379 301 371 C314 344 320 314 320 285 C319 199 269 113 207 66 L207 66 Z M161 -8 C227 -8 294 29 341 83 C390 139 421 215 421 285 C421 415 370 461 279 461 C208 461 138 424 91 364 C47 308 23 232 23 155 C23 45 72 -8 161 -8 L161 -8 Z " />
<glyph glyph-name="ocircumflex" unicode="&#xf4;" horiz-adv-x="454" d="M278 677 L143 522 L236 522 L300 614 L302 614 L332 522 L425 522 L355 677 L278 677 Z M207 66 C183 67 154 75 143 82 C131 106 125 136 125 167 C124 250 161 345 224 388 C254 386 284 379 301 371 C314 344 320 314 320 285 C319 199 269 113 207 66 L207 66 Z M161 -8 C227 -8 294 29 341 83 C390 139 421 215 421 285 C421 415 370 461 279 461 C208 461 138 424 91 364 C47 308 23 232 23 155 C23 45 72 -8 161 -8 L161 -8 Z " />
<glyph glyph-name="otilde" unicode="&#xf5;" horiz-adv-x="454" d="M207 66 C183 67 154 75 143 82 C131 106 125 136 125 167 C124 250 161 345 224 388 C254 386 284 379 301 371 C314 344 320 314 320 285 C319 199 269 113 207 66 L207 66 Z M161 -8 C227 -8 294 29 341 83 C390 139 421 215 421 285 C421 415 370 461 279 461 C208 461 138 424 91 364 C47 308 23 232 23 155 C23 45 72 -8 161 -8 L161 -8 Z M411 651 C398 637 375 621 349 621 C316 621 283 653 243 653 C202 653 165 621 141 595 L165 547 C186 569 206 579 228 579 C263 579 296 545 338 545 C385 545 417 582 436 602 L411 651 Z " />
<glyph glyph-name="odieresis" unicode="&#xf6;" horiz-adv-x="454" d="M139 570 L226 545 L262 659 L158 662 L139 570 Z M317 570 L404 545 L440 659 L336 662 L317 570 Z M207 66 C183 67 154 75 143 82 C131 106 125 136 125 167 C124 250 161 345 224 388 C254 386 284 379 301 371 C314 344 320 314 320 285 C319 199 269 113 207 66 L207 66 Z M161 -8 C227 -8 294 29 341 83 C390 139 421 215 421 285 C421 415 370 461 279 461 C208 461 138 424 91 364 C47 308 23 232 23 155 C23 45 72 -8 161 -8 L161 -8 Z " />
<glyph glyph-name="divide" unicode="&#xf7;" horiz-adv-x="469" d="M49 263 L422 263 L435 331 L62 331 L49 263 Z M209 419 L297 394 L332 513 L229 516 L209 419 Z M153 94 L241 69 L276 188 L173 191 L153 94 Z " />
<glyph glyph-name="oslash" unicode="&#xf8;" horiz-adv-x="455" d="M161 -8 C227 -8 294 29 341 83 C390 139 421 215 421 285 C421 331 414 367 402 394 L462 461 L398 461 L373 433 C349 452 318 461 279 461 C208 461 138 424 91 364 C47 308 23 232 23 155 C23 117 29 85 40 61 L-23 -10 L39 -10 L68 22 C91 2 122 -8 161 -8 L161 -8 Z M125 167 C124 250 161 345 224 388 C254 386 284 379 301 371 C303 367 305 362 306 358 L125 155 L125 167 Z M207 66 C183 67 154 75 143 82 C140 87 138 92 136 98 L319 302 C320 296 320 291 320 285 C319 199 269 113 207 66 L207 66 Z " />
<glyph glyph-name="ugrave" unicode="&#xf9;" horiz-adv-x="473" d="M352 452 L305 186 C247 132 179 97 151 86 L133 90 C133 116 138 160 147 218 L188 452 L92 452 L44 176 C37 138 34 105 34 78 C34 23 49 -8 91 -8 C155 -8 227 39 290 96 L273 0 L367 0 L447 452 L352 452 Z M324 529 L215 679 L118 679 L248 529 L324 529 Z " />
<glyph glyph-name="uacute" unicode="&#xfa;" horiz-adv-x="473" d="M352 452 L305 186 C247 132 179 97 151 86 L133 90 C133 116 138 160 147 218 L188 452 L92 452 L44 176 C37 138 34 105 34 78 C34 23 49 -8 91 -8 C155 -8 227 39 290 96 L273 0 L367 0 L447 452 L352 452 Z M297 529 L427 679 L330 679 L221 529 L297 529 Z " />
<glyph glyph-name="ucircumflex" unicode="&#xfb;" horiz-adv-x="473" d="M352 452 L305 186 C247 132 179 97 151 86 L133 90 C133 116 138 160 147 218 L188 452 L92 452 L44 176 C37 138 34 105 34 78 C34 23 49 -8 91 -8 C155 -8 227 39 290 96 L273 0 L367 0 L447 452 L352 452 Z M268 682 L133 527 L226 527 L290 619 L292 619 L322 527 L415 527 L345 682 L268 682 Z " />
<glyph glyph-name="udieresis" unicode="&#xfc;" horiz-adv-x="473" d="M352 452 L305 186 C247 132 179 97 151 86 L133 90 C133 116 138 160 147 218 L188 452 L92 452 L44 176 C37 138 34 105 34 78 C34 23 49 -8 91 -8 C155 -8 227 39 290 96 L273 0 L367 0 L447 452 L352 452 Z M318 570 L405 545 L441 659 L337 662 L318 570 Z M140 570 L227 545 L263 659 L159 662 L140 570 Z " />
<glyph glyph-name="yacute" unicode="&#xfd;" horiz-adv-x="436" d="M149 -207 L302 142 L454 452 L353 452 L199 112 L189 112 C167 201 157 277 158 352 C158 385 160 417 165 452 L66 452 C62 424 59 395 59 365 C59 237 89 87 118 0 L144 0 L39 -190 L45 -207 L149 -207 Z M298 529 L428 679 L331 679 L222 529 L298 529 Z " />
<glyph glyph-name="thorn" unicode="&#xfe;" horiz-adv-x="461" d="M75 -207 L111 -1 C133 -6 156 -9 178 -9 C317 -9 426 129 426 283 C426 372 398 461 331 461 C295 461 241 443 185 419 L226 653 L131 653 L-20 -207 L75 -207 Z M279 375 L296 374 C310 353 325 318 325 264 C325 166 274 71 209 71 C183 71 158 74 126 84 L170 338 C204 352 241 365 279 375 L279 375 Z " />
<glyph glyph-name="ydieresis" unicode="&#xff;" horiz-adv-x="436" d="M137 571 L224 546 L260 660 L156 663 L137 571 Z M315 571 L402 546 L438 660 L334 663 L315 571 Z M149 -207 L302 142 L454 452 L353 452 L199 112 L189 112 C167 201 157 277 158 352 C158 385 160 417 165 452 L66 452 C62 424 59 395 59 365 C59 237 89 87 118 0 L144 0 L39 -190 L45 -207 L149 -207 Z " />
<glyph glyph-name="Amacron" unicode="&#x100;" horiz-adv-x="544" d="M-35 0 L72 0 L164 178 L349 178 L367 0 L481 0 L400 583 L290 583 L-35 0 Z M237 655 L486 655 L501 730 L252 730 L237 655 Z M315 470 L320 470 L341 261 L207 261 L315 470 Z " />
<glyph glyph-name="amacron" unicode="&#x101;" horiz-adv-x="462" d="M356 0 L437 458 L342 458 L337 432 C302 449 268 461 243 461 C175 461 127 419 91 372 C51 319 26 198 26 100 C26 64 30 29 37 0 L131 0 L285 135 L261 0 L356 0 Z M129 98 C127 116 126 136 126 153 C127 239 154 335 192 381 C201 382 211 382 221 381 C252 379 286 369 323 353 L300 223 L144 93 L129 98 Z M173 565 L422 565 L437 640 L188 640 L173 565 Z " />
<glyph glyph-name="Abreve" unicode="&#x102;" horiz-adv-x="544" d="M-35 0 L72 0 L164 178 L349 178 L367 0 L481 0 L400 583 L290 583 L-35 0 Z M361 690 C320 690 303 723 298 752 L238 720 C242 675 272 621 350 621 C425 621 478 666 501 722 L458 753 C444 725 405 690 361 690 L361 690 Z M315 470 L320 470 L341 261 L207 261 L315 470 Z " />
<glyph glyph-name="abreve" unicode="&#x103;" horiz-adv-x="462" d="M356 0 L437 458 L342 458 L337 432 C302 449 268 461 243 461 C175 461 127 419 91 372 C51 319 26 198 26 100 C26 64 30 29 37 0 L131 0 L285 135 L261 0 L356 0 Z M129 98 C127 116 126 136 126 153 C127 239 154 335 192 381 C201 382 211 382 221 381 C252 379 286 369 323 353 L300 223 L144 93 L129 98 Z M297 599 C251 599 235 635 231 661 L171 625 C175 580 207 526 285 526 C360 526 414 572 437 628 L390 662 C377 634 348 599 297 599 L297 599 Z " />
<glyph glyph-name="Aogonek" unicode="&#x104;" horiz-adv-x="544" d="M466 -190 L471 -131 C452 -139 422 -146 401 -146 C380 -146 361 -141 361 -116 C361 -79 399 -31 454 0 L481 0 L400 583 L290 583 L-35 0 L72 0 L164 178 L349 178 L367 0 L377 0 C329 -35 286 -84 286 -139 C286 -189 316 -212 373 -212 C404 -212 443 -204 466 -190 L466 -190 Z M315 470 L320 470 L341 261 L207 261 L315 470 Z " />
<glyph glyph-name="aogonek" unicode="&#x105;" horiz-adv-x="462" d="M334 -191 L339 -132 C320 -140 290 -147 269 -147 C248 -147 229 -142 229 -117 C229 -80 267 -31 323 0 L356 0 L437 458 L342 458 L337 432 C302 449 268 461 243 461 C175 461 127 419 91 372 C51 319 26 198 26 100 C26 64 30 29 37 0 L131 0 L285 135 L263 10 C208 -24 154 -79 154 -140 C154 -190 184 -213 241 -213 C272 -213 311 -205 334 -191 L334 -191 Z M129 98 C127 116 126 136 126 153 C127 239 154 335 192 381 C201 382 211 382 221 381 C252 379 286 369 323 353 L300 223 L144 93 L129 98 Z " />
<glyph glyph-name="Cacute" unicode="&#x106;" horiz-adv-x="547" d="M297 -10 C379 -10 451 15 477 29 L492 127 C442 98 385 81 325 81 C220 81 161 127 161 245 C161 403 264 502 405 502 C450 502 498 495 529 471 L547 571 C515 585 470 593 414 593 C188 593 40 427 40 234 C40 78 137 -10 297 -10 L297 -10 Z M399 633 L532 766 L425 766 L316 633 L399 633 Z " />
<glyph glyph-name="cacute" unicode="&#x107;" horiz-adv-x="380" d="M284 529 L414 679 L317 679 L208 529 L284 529 Z M302 176 C245 133 198 100 151 84 L138 89 C131 115 129 142 128 170 C127 253 155 338 193 374 C203 376 214 377 224 377 C264 377 305 364 341 347 L374 433 C343 450 289 461 248 461 C182 461 124 421 86 371 C49 321 27 229 27 140 C27 91 35 40 50 0 L127 -9 C222 25 297 87 337 124 L302 176 Z " />
<glyph glyph-name="Ccircumflex" unicode="&#x108;" horiz-adv-x="547" d="M297 -10 C379 -10 451 15 477 29 L492 127 C442 98 385 81 325 81 C220 81 161 127 161 245 C161 403 264 502 405 502 C450 502 498 495 529 471 L547 571 C515 585 470 593 414 593 C188 593 40 427 40 234 C40 78 137 -10 297 -10 L297 -10 Z M391 773 L246 632 L342 632 L414 712 L417 712 L455 632 L555 632 L469 773 L391 773 Z " />
<glyph glyph-name="ccircumflex" unicode="&#x109;" horiz-adv-x="380" d="M259 682 L124 527 L217 527 L281 619 L283 619 L313 527 L406 527 L336 682 L259 682 Z M302 176 C245 133 198 100 151 84 L138 89 C131 115 129 142 128 170 C127 253 155 338 193 374 C203 376 214 377 224 377 C264 377 305 364 341 347 L374 433 C343 450 289 461 248 461 C182 461 124 421 86 371 C49 321 27 229 27 140 C27 91 35 40 50 0 L127 -9 C222 25 297 87 337 124 L302 176 Z " />
<glyph glyph-name="Cdotaccent" unicode="&#x10a;" horiz-adv-x="547" d="M353 653 L440 628 L476 742 L372 745 L353 653 Z M297 -10 C379 -10 451 15 477 29 L492 127 C442 98 385 81 325 81 C220 81 161 127 161 245 C161 403 264 502 405 502 C450 502 498 495 529 471 L547 571 C515 585 470 593 414 593 C188 593 40 427 40 234 C40 78 137 -10 297 -10 L297 -10 Z " />
<glyph glyph-name="cdotaccent" unicode="&#x10b;" horiz-adv-x="380" d="M302 176 C245 133 198 100 151 84 L138 89 C131 115 129 142 128 170 C127 253 155 338 193 374 C203 376 214 377 224 377 C264 377 305 364 341 347 L374 433 C343 450 289 461 248 461 C182 461 124 421 86 371 C49 321 27 229 27 140 C27 91 35 40 50 0 L127 -9 C222 25 297 87 337 124 L302 176 Z M210 577 L298 552 L333 671 L230 674 L210 577 Z " />
<glyph glyph-name="Ccaron" unicode="&#x10c;" horiz-adv-x="547" d="M297 -10 C379 -10 451 15 477 29 L492 127 C442 98 385 81 325 81 C220 81 161 127 161 245 C161 403 264 502 405 502 C450 502 498 495 529 471 L547 571 C515 585 470 593 414 593 C188 593 40 427 40 234 C40 78 137 -10 297 -10 L297 -10 Z M441 625 L586 766 L488 766 L418 688 L415 688 L375 767 L272 767 L358 625 L441 625 Z " />
<glyph glyph-name="ccaron" unicode="&#x10d;" horiz-adv-x="380" d="M301 528 L435 681 L342 681 L279 590 L275 590 L246 681 L154 681 L224 528 L301 528 Z M302 176 C245 133 198 100 151 84 L138 89 C131 115 129 142 128 170 C127 253 155 338 193 374 C203 376 214 377 224 377 C264 377 305 364 341 347 L374 433 C343 450 289 461 248 461 C182 461 124 421 86 371 C49 321 27 229 27 140 C27 91 35 40 50 0 L127 -9 C222 25 297 87 337 124 L302 176 Z " />
<glyph glyph-name="Dcaron" unicode="&#x10e;" horiz-adv-x="625" d="M29 0 L220 0 C431 2 596 135 596 355 C596 522 475 583 309 583 L131 583 L29 0 Z M273 494 C411 494 475 455 475 344 C475 176 375 90 216 90 L152 90 L223 494 L273 494 Z M377 623 L522 764 L424 764 L354 686 L351 686 L311 765 L208 765 L294 623 L377 623 Z " />
<glyph glyph-name="dcaron" unicode="&#x10f;" horiz-adv-x="478" d="M357 0 L473 653 L376 653 L337 435 C302 452 268 461 243 461 C175 461 127 419 91 372 C51 319 26 198 26 100 C26 64 30 29 37 0 L131 0 L284 134 L260 0 L357 0 Z M129 98 C127 114 126 132 126 149 C127 237 153 335 192 383 C200 384 207 384 215 384 C247 384 283 374 323 355 L299 222 L144 93 L129 98 Z M479 487 L538 487 L621 675 L533 675 L479 487 Z " />
<glyph glyph-name="Dcroat" unicode="&#x110;" horiz-adv-x="627" d="M22 263 L77 263 L31 0 L222 0 C433 2 598 135 598 355 C598 522 477 583 311 583 L133 583 L89 333 L36 333 L22 263 Z M305 263 L319 333 L197 333 L225 494 L275 494 C413 494 477 455 477 344 C477 176 377 90 218 90 L154 90 L185 263 L305 263 Z " />
<glyph glyph-name="dcroat" unicode="&#x111;" horiz-adv-x="463" d="M207 549 L357 549 L337 435 C302 452 268 461 243 461 C175 461 127 419 91 372 C51 319 26 198 26 100 C26 64 30 29 37 0 L131 0 L284 134 L260 0 L357 0 L454 549 L516 549 L528 611 L465 611 L473 653 L376 653 L368 611 L219 611 L207 549 Z M129 98 C127 114 126 132 126 149 C127 237 153 335 192 383 C200 384 207 384 215 384 C247 384 283 374 323 355 L299 222 L144 93 L129 98 Z " />
<glyph glyph-name="Emacron" unicode="&#x112;" horiz-adv-x="474" d="M29 0 L390 0 L406 90 L152 90 L181 254 L384 254 L399 341 L196 341 L223 494 L473 494 L489 583 L131 583 L29 0 Z M204 656 L453 656 L468 731 L219 731 L204 656 Z " />
<glyph glyph-name="emacron" unicode="&#x113;" horiz-adv-x="410" d="M353 119 L320 175 C264 133 199 99 151 83 L139 88 C132 117 128 147 129 176 L129 179 C219 216 337 267 388 310 L393 409 C350 442 283 461 236 461 C167 461 123 421 86 372 C49 323 27 229 27 140 C27 91 35 40 50 -1 L127 -9 C218 23 308 81 353 119 L353 119 Z M131 565 L380 565 L395 640 L146 640 L131 565 Z M195 382 C202 383 209 384 216 383 C245 383 279 371 301 357 L302 335 C259 302 191 272 135 247 C145 304 167 355 195 382 L195 382 Z " />
<glyph glyph-name="Ebreve" unicode="&#x114;" horiz-adv-x="474" d="M29 0 L390 0 L406 90 L152 90 L181 254 L384 254 L399 341 L196 341 L223 494 L473 494 L489 583 L131 583 L29 0 Z M332 690 C291 690 274 723 269 752 L209 720 C213 675 243 621 321 621 C396 621 449 666 472 722 L429 753 C415 725 376 690 332 690 L332 690 Z " />
<glyph glyph-name="ebreve" unicode="&#x115;" horiz-adv-x="410" d="M353 119 L320 175 C264 133 199 99 151 83 L139 88 C132 117 128 147 129 176 L129 179 C219 216 337 267 388 310 L393 409 C350 442 283 461 236 461 C167 461 123 421 86 372 C49 323 27 229 27 140 C27 91 35 40 50 -1 L127 -9 C218 23 308 81 353 119 L353 119 Z M260 599 C214 599 198 635 194 661 L134 625 C138 580 170 526 248 526 C323 526 377 572 400 628 L353 662 C340 634 311 599 260 599 L260 599 Z M195 382 C202 383 209 384 216 383 C245 383 279 371 301 357 L302 335 C259 302 191 272 135 247 C145 304 167 355 195 382 L195 382 Z " />
<glyph glyph-name="Edotaccent" unicode="&#x116;" horiz-adv-x="474" d="M29 0 L390 0 L406 90 L152 90 L181 254 L384 254 L399 341 L196 341 L223 494 L473 494 L489 583 L131 583 L29 0 Z M275 652 L362 627 L398 741 L294 744 L275 652 Z " />
<glyph glyph-name="edotaccent" unicode="&#x117;" horiz-adv-x="410" d="M353 119 L320 175 C264 133 199 99 151 83 L139 88 C132 117 128 147 129 176 L129 179 C219 216 337 267 388 310 L393 409 C350 442 283 461 236 461 C167 461 123 421 86 372 C49 323 27 229 27 140 C27 91 35 40 50 -1 L127 -9 C218 23 308 81 353 119 L353 119 Z M195 382 C202 383 209 384 216 383 C245 383 279 371 301 357 L302 335 C259 302 191 272 135 247 C145 304 167 355 195 382 L195 382 Z M201 577 L289 552 L324 671 L221 674 L201 577 Z " />
<glyph glyph-name="Eogonek" unicode="&#x118;" horiz-adv-x="474" d="M29 0 L295 0 C247 -35 204 -84 204 -139 C204 -189 234 -212 291 -212 C322 -212 361 -204 384 -190 L389 -131 C370 -139 340 -146 319 -146 C298 -146 279 -141 279 -116 C279 -79 317 -31 372 0 L390 0 L406 90 L152 90 L181 254 L384 254 L399 341 L196 341 L223 494 L473 494 L489 583 L131 583 L29 0 Z " />
<glyph glyph-name="eogonek" unicode="&#x119;" horiz-adv-x="410" d="M353 119 L320 175 C264 133 199 99 151 83 L139 88 C132 117 128 147 129 176 L129 179 C219 216 337 267 388 310 L393 409 C350 442 283 461 236 461 C167 461 123 421 86 372 C49 323 27 229 27 140 C27 91 35 40 50 -1 L95 -6 C57 -44 31 -85 31 -134 C31 -184 60 -210 117 -210 C148 -210 179 -202 202 -189 L207 -130 C189 -138 166 -145 145 -145 C123 -145 107 -136 107 -111 C107 -82 128 -36 172 9 C246 42 315 87 353 119 L353 119 Z M195 382 C202 383 209 384 216 383 C245 383 279 371 301 357 L302 335 C259 302 191 272 135 247 C145 304 167 355 195 382 L195 382 Z " />
<glyph glyph-name="Ecaron" unicode="&#x11a;" horiz-adv-x="474" d="M29 0 L390 0 L406 90 L152 90 L181 254 L384 254 L399 341 L196 341 L223 494 L473 494 L489 583 L131 583 L29 0 Z M360 625 L505 766 L407 766 L337 688 L334 688 L294 767 L191 767 L277 625 L360 625 Z " />
<glyph glyph-name="ecaron" unicode="&#x11b;" horiz-adv-x="410" d="M353 119 L320 175 C264 133 199 99 151 83 L139 88 C132 117 128 147 129 176 L129 179 C219 216 337 267 388 310 L393 409 C350 442 283 461 236 461 C167 461 123 421 86 372 C49 323 27 229 27 140 C27 91 35 40 50 -1 L127 -9 C218 23 308 81 353 119 L353 119 Z M292 528 L426 681 L333 681 L270 590 L266 590 L237 681 L145 681 L215 528 L292 528 Z M195 382 C202 383 209 384 216 383 C245 383 279 371 301 357 L302 335 C259 302 191 272 135 247 C145 304 167 355 195 382 L195 382 Z " />
<glyph glyph-name="Gcircumflex" unicode="&#x11c;" horiz-adv-x="581" d="M297 -10 C378 -10 450 12 486 29 L535 301 L427 301 L389 88 C364 83 340 81 325 81 C219 81 160 126 160 244 C160 401 265 499 407 502 C468 504 526 484 559 459 L577 561 C539 581 477 593 420 593 C195 593 40 426 40 232 C40 78 136 -10 297 -10 L297 -10 Z M395 773 L250 632 L346 632 L418 712 L421 712 L459 632 L559 632 L473 773 L395 773 Z " />
<glyph glyph-name="gcircumflex" unicode="&#x11d;" horiz-adv-x="460" d="M132 -213 C175 -213 214 -201 247 -180 C309 -141 343 -66 356 5 L435 458 L341 458 L337 436 C302 452 268 461 243 461 C175 461 127 419 91 372 C51 319 26 198 26 100 C26 64 30 29 37 0 L131 0 L284 134 L270 55 C256 -27 234 -99 213 -120 C183 -126 155 -128 128 -125 C81 -123 39 -110 3 -90 L-21 -183 C21 -203 80 -213 132 -213 L132 -213 Z M129 98 C127 113 126 130 126 146 C126 235 153 333 192 381 C199 382 207 383 214 382 C246 381 282 371 322 354 L299 222 L144 93 L129 98 Z M275 682 L140 527 L233 527 L297 619 L299 619 L329 527 L422 527 L352 682 L275 682 Z " />
<glyph glyph-name="Gbreve" unicode="&#x11e;" horiz-adv-x="581" d="M297 -10 C378 -10 450 12 486 29 L535 301 L427 301 L389 88 C364 83 340 81 325 81 C219 81 160 126 160 244 C160 401 265 499 407 502 C468 504 526 484 559 459 L577 561 C539 581 477 593 420 593 C195 593 40 426 40 232 C40 78 136 -10 297 -10 L297 -10 Z M417 689 C376 689 359 722 354 751 L294 719 C298 674 328 620 406 620 C481 620 534 665 557 721 L514 752 C500 724 461 689 417 689 L417 689 Z " />
<glyph glyph-name="gbreve" unicode="&#x11f;" horiz-adv-x="460" d="M132 -213 C175 -213 214 -201 247 -180 C309 -141 343 -66 356 5 L435 458 L341 458 L337 436 C302 452 268 461 243 461 C175 461 127 419 91 372 C51 319 26 198 26 100 C26 64 30 29 37 0 L131 0 L284 134 L270 55 C256 -27 234 -99 213 -120 C183 -126 155 -128 128 -125 C81 -123 39 -110 3 -90 L-21 -183 C21 -203 80 -213 132 -213 L132 -213 Z M129 98 C127 113 126 130 126 146 C126 235 153 333 192 381 C199 382 207 383 214 382 C246 381 282 371 322 354 L299 222 L144 93 L129 98 Z M283 599 C237 599 221 635 217 661 L157 625 C161 580 193 526 271 526 C346 526 400 572 423 628 L376 662 C363 634 334 599 283 599 L283 599 Z " />
<glyph glyph-name="Gdotaccent" unicode="&#x120;" horiz-adv-x="581" d="M297 -10 C378 -10 450 12 486 29 L535 301 L427 301 L389 88 C364 83 340 81 325 81 C219 81 160 126 160 244 C160 401 265 499 407 502 C468 504 526 484 559 459 L577 561 C539 581 477 593 420 593 C195 593 40 426 40 232 C40 78 136 -10 297 -10 L297 -10 Z M353 653 L440 628 L476 742 L372 745 L353 653 Z " />
<glyph glyph-name="gdotaccent" unicode="&#x121;" horiz-adv-x="460" d="M132 -213 C175 -213 214 -201 247 -180 C309 -141 343 -66 356 5 L435 458 L341 458 L337 436 C302 452 268 461 243 461 C175 461 127 419 91 372 C51 319 26 198 26 100 C26 64 30 29 37 0 L131 0 L284 134 L270 55 C256 -27 234 -99 213 -120 C183 -126 155 -128 128 -125 C81 -123 39 -110 3 -90 L-21 -183 C21 -203 80 -213 132 -213 L132 -213 Z M129 98 C127 113 126 130 126 146 C126 235 153 333 192 381 C199 382 207 383 214 382 C246 381 282 371 322 354 L299 222 L144 93 L129 98 Z M230 577 L318 552 L353 671 L250 674 L230 577 Z " />
<glyph glyph-name="Gcommaaccent" unicode="&#x122;" horiz-adv-x="581" d="M297 -10 C378 -10 450 12 486 29 L535 301 L427 301 L389 88 C364 83 340 81 325 81 C219 81 160 126 160 244 C160 401 265 499 407 502 C468 504 526 484 559 459 L577 561 C539 581 477 593 420 593 C195 593 40 426 40 232 C40 78 136 -10 297 -10 L297 -10 Z M197 -235 L267 -235 L336 -62 L247 -62 L197 -235 Z " />
<glyph glyph-name="gcommaaccent" unicode="&#x123;" horiz-adv-x="460" d="M132 -213 C175 -213 214 -201 247 -180 C309 -141 343 -66 356 5 L435 458 L341 458 L337 436 C302 452 268 461 243 461 C175 461 127 419 91 372 C51 319 26 198 26 100 C26 64 30 29 37 0 L131 0 L284 134 L270 55 C256 -27 234 -99 213 -120 C183 -126 155 -128 128 -125 C81 -123 39 -110 3 -90 L-21 -183 C21 -203 80 -213 132 -213 L132 -213 Z M129 98 C127 113 126 130 126 146 C126 235 153 333 192 381 C199 382 207 383 214 382 C246 381 282 371 322 354 L299 222 L144 93 L129 98 Z M384 705 L314 705 L245 529 L334 529 L384 705 Z " />
<glyph glyph-name="Hcircumflex" unicode="&#x124;" horiz-adv-x="623" d="M396 0 L505 0 L608 583 L499 583 L457 346 L197 346 L239 583 L132 583 L29 0 L137 0 L182 256 L441 256 L396 0 Z M364 773 L219 632 L315 632 L387 712 L390 712 L428 632 L528 632 L442 773 L364 773 Z " />
<glyph glyph-name="hcircumflex" unicode="&#x125;" horiz-adv-x="481" d="M110 0 L157 266 C216 320 283 355 311 367 L330 362 C332 354 333 342 333 328 C333 304 330 272 323 235 L283 0 L379 0 L424 261 C432 306 436 343 436 372 C436 434 417 461 373 461 C313 461 243 416 172 355 L225 653 L131 653 L15 0 L110 0 Z M177 818 L32 677 L128 677 L200 757 L203 757 L241 677 L341 677 L255 818 L177 818 Z " />
<glyph glyph-name="Hbar" unicode="&#x126;" horiz-adv-x="628" d="M57 448 L110 448 L31 0 L139 0 L184 256 L443 256 L398 0 L507 0 L586 448 L637 448 L650 514 L597 514 L610 583 L501 583 L488 514 L229 514 L241 583 L134 583 L121 514 L70 514 L57 448 Z M217 448 L477 448 L459 346 L199 346 L217 448 Z " />
<glyph glyph-name="hbar" unicode="&#x127;" horiz-adv-x="481" d="M45 517 L107 517 L15 0 L110 0 L157 266 C216 320 283 355 311 367 L330 362 C332 354 333 342 333 328 C333 304 330 272 323 235 L283 0 L379 0 L424 261 C432 306 436 343 436 372 C436 434 417 461 373 461 C313 461 243 416 172 355 L201 517 L354 517 L367 581 L212 581 L225 653 L131 653 L118 581 L57 581 L45 517 Z " />
<glyph glyph-name="Itilde" unicode="&#x128;" horiz-adv-x="255" d="M29 0 L137 0 L239 583 L131 583 L29 0 Z M325 732 C312 718 290 702 263 702 C230 702 197 735 157 735 C116 735 79 702 55 676 L80 634 C100 655 119 665 142 665 C177 665 211 632 252 632 C300 632 331 668 350 688 L325 732 Z " />
<glyph glyph-name="itilde" unicode="&#x129;" horiz-adv-x="216" d="M111 0 L190 452 L95 452 L16 0 L111 0 Z M291 651 C278 637 255 621 229 621 C196 621 163 653 123 653 C82 653 45 621 21 595 L45 547 C66 569 86 579 108 579 C143 579 176 545 218 545 C265 545 297 582 316 602 L291 651 Z " />
<glyph glyph-name="Imacron" unicode="&#x12a;" horiz-adv-x="255" d="M29 0 L137 0 L239 583 L131 583 L29 0 Z M69 656 L318 656 L333 731 L84 731 L69 656 Z " />
<glyph glyph-name="imacron" unicode="&#x12b;" horiz-adv-x="216" d="M111 0 L190 452 L95 452 L16 0 L111 0 Z M36 565 L285 565 L300 640 L51 640 L36 565 Z " />
<glyph glyph-name="Ibreve" unicode="&#x12c;" horiz-adv-x="255" d="M29 0 L137 0 L239 583 L131 583 L29 0 Z M202 690 C161 690 144 723 139 752 L79 720 C83 675 113 621 191 621 C266 621 319 666 342 722 L299 753 C285 725 246 690 202 690 L202 690 Z " />
<glyph glyph-name="ibreve" unicode="&#x12d;" horiz-adv-x="216" d="M111 0 L190 452 L95 452 L16 0 L111 0 Z M164 599 C118 599 102 635 98 661 L38 625 C42 580 74 526 152 526 C227 526 281 572 304 628 L257 662 C244 634 215 599 164 599 L164 599 Z " />
<glyph glyph-name="Iogonek" unicode="&#x12e;" horiz-adv-x="255" d="M29 0 L43 0 C-4 -35 -48 -84 -48 -139 C-48 -189 -18 -212 39 -212 C70 -212 109 -204 132 -190 L137 -131 C118 -139 88 -146 67 -146 C46 -146 27 -141 27 -116 C27 -79 65 -31 120 0 L137 0 L239 583 L131 583 L29 0 Z " />
<glyph glyph-name="iogonek" unicode="&#x12f;" horiz-adv-x="216" d="M111 0 L111 4 L190 452 L95 452 L16 0 L28 0 C-19 -35 -63 -84 -63 -139 C-63 -189 -33 -212 24 -212 C55 -212 94 -204 117 -190 L122 -131 C103 -139 73 -146 52 -146 C31 -146 12 -141 12 -116 C12 -79 50 -31 105 0 L111 0 Z M114 577 L202 552 L237 671 L134 674 L114 577 Z " />
<glyph glyph-name="Idotaccent" unicode="&#x130;" horiz-adv-x="255" d="M144 653 L231 628 L267 742 L163 745 L144 653 Z M29 0 L137 0 L239 583 L131 583 L29 0 Z " />
<glyph glyph-name="dotlessi" unicode="&#x131;" horiz-adv-x="216" d="M111 0 L190 452 L95 452 L16 0 L111 0 Z " />
<glyph glyph-name="IJ" unicode="&#x132;" horiz-adv-x="523" d="M29 0 L137 0 L239 583 L131 583 L29 0 Z M263 -94 C365 2 424 89 440 179 L511 583 L405 583 L333 175 C320 96 259 37 188 -46 L263 -94 Z " />
<glyph glyph-name="ij" unicode="&#x133;" horiz-adv-x="433" d="M110 0 L190 452 L95 452 L15 0 L110 0 Z M204 544 L236 663 L133 666 L116 569 L204 544 Z M231 -7 C222 -59 183 -110 132 -175 L195 -218 C266 -152 314 -75 327 -1 L407 452 L312 452 L231 -7 Z M420 544 L453 663 L350 666 L333 569 L420 544 Z " />
<glyph glyph-name="Jcircumflex" unicode="&#x134;" horiz-adv-x="268" d="M8 -94 C110 2 169 89 185 179 L256 583 L150 583 L78 175 C65 96 4 37 -67 -46 L8 -94 Z M193 773 L48 632 L144 632 L216 712 L219 712 L257 632 L357 632 L271 773 L193 773 Z " />
<glyph glyph-name="jcircumflex" unicode="&#x135;" horiz-adv-x="217" d="M149 682 L14 527 L107 527 L171 619 L173 619 L203 527 L296 527 L226 682 L149 682 Z M16 -7 C7 -59 -31 -110 -82 -175 L-19 -218 C52 -152 100 -75 113 -1 L189 452 L94 452 L16 -7 Z " />
<glyph glyph-name="Kcommaaccent" unicode="&#x136;" horiz-adv-x="531" d="M140 -235 L210 -235 L279 -62 L190 -62 L140 -235 Z M349 0 L475 0 L312 312 L578 583 L456 583 L204 313 L201 296 L349 0 Z M29 0 L137 0 L239 583 L131 583 L29 0 Z " />
<glyph glyph-name="kcommaaccent" unicode="&#x137;" horiz-adv-x="457" d="M110 0 L157 268 C212 317 280 365 312 377 L329 372 C322 315 300 269 236 208 L232 182 L277 0 L388 0 L328 196 C399 258 429 317 434 402 C434 414 433 432 433 446 L323 461 C286 446 227 410 174 363 L225 653 L131 653 L15 0 L110 0 Z M89 -235 L159 -235 L228 -62 L139 -62 L89 -235 Z " />
<glyph glyph-name="Lacute" unicode="&#x139;" horiz-adv-x="441" d="M29 0 L383 0 L399 90 L152 90 L239 583 L131 583 L29 0 Z M220 633 L353 766 L246 766 L137 633 L220 633 Z " />
<glyph glyph-name="lacute" unicode="&#x13a;" horiz-adv-x="223" d="M217 693 L350 826 L243 826 L134 693 L217 693 Z M114 0 L228 653 L134 653 L19 0 L114 0 Z " />
<glyph glyph-name="Lcommaaccent" unicode="&#x13b;" horiz-adv-x="441" d="M29 0 L383 0 L399 90 L152 90 L239 583 L131 583 L29 0 Z M115 -235 L185 -235 L254 -62 L165 -62 L115 -235 Z " />
<glyph glyph-name="lcommaaccent" unicode="&#x13c;" horiz-adv-x="223" d="M-39 -235 L31 -235 L100 -62 L11 -62 L-39 -235 Z M114 0 L228 653 L134 653 L19 0 L114 0 Z " />
<glyph glyph-name="Lcaron" unicode="&#x13d;" horiz-adv-x="442" d="M29 0 L383 0 L399 90 L152 90 L239 583 L131 583 L29 0 Z M285 432 L344 432 L427 620 L339 620 L285 432 Z " />
<glyph glyph-name="lcaron" unicode="&#x13e;" horiz-adv-x="238" d="M230 466 L289 466 L372 654 L284 654 L230 466 Z M114 0 L228 653 L134 653 L19 0 L114 0 Z " />
<glyph glyph-name="Ldot" unicode="&#x13f;" horiz-adv-x="464" d="M29 0 L383 0 L399 90 L152 90 L239 583 L131 583 L29 0 Z M318 288 L406 263 L441 382 L338 385 L318 288 Z " />
<glyph glyph-name="ldot" unicode="&#x140;" horiz-adv-x="298" d="M214 291 L301 266 L337 380 L233 383 L214 291 Z M114 0 L228 653 L134 653 L19 0 L114 0 Z " />
<glyph glyph-name="Lslash" unicode="&#x141;" horiz-adv-x="451" d="M8 193 L80 232 L40 0 L394 0 L410 90 L163 90 L200 297 L314 359 L330 439 L213 375 L250 583 L142 583 L94 310 L23 271 L8 193 Z " />
<glyph glyph-name="lslash" unicode="&#x142;" horiz-adv-x="249" d="M4 237 L79 276 L31 0 L126 0 L183 330 L259 369 L275 452 L197 410 L240 653 L146 653 L93 354 L20 315 L4 237 Z " />
<glyph glyph-name="Nacute" unicode="&#x143;" horiz-adv-x="635" d="M403 633 L536 766 L429 766 L320 633 L403 633 Z M29 0 L130 0 L201 400 L205 400 L426 0 L517 0 L620 583 L519 583 L450 193 L446 193 L224 583 L132 583 L29 0 Z " />
<glyph glyph-name="nacute" unicode="&#x144;" horiz-adv-x="481" d="M111 0 L157 266 C217 320 283 355 311 367 L331 362 C333 354 334 343 334 330 C334 306 331 274 324 235 L284 0 L379 0 L425 261 C433 306 437 343 437 372 C437 434 418 461 374 461 C315 461 244 416 173 355 L190 452 L95 452 L16 0 L111 0 Z M309 529 L439 679 L342 679 L233 529 L309 529 Z " />
<glyph glyph-name="Ncommaaccent" unicode="&#x145;" horiz-adv-x="635" d="M190 -235 L260 -235 L329 -62 L240 -62 L190 -235 Z M29 0 L130 0 L201 400 L205 400 L426 0 L517 0 L620 583 L519 583 L450 193 L446 193 L224 583 L132 583 L29 0 Z " />
<glyph glyph-name="ncommaaccent" unicode="&#x146;" horiz-adv-x="481" d="M111 0 L157 266 C217 320 283 355 311 367 L331 362 C333 354 334 343 334 330 C334 306 331 274 324 235 L284 0 L379 0 L425 261 C433 306 437 343 437 372 C437 434 418 461 374 461 C315 461 244 416 173 355 L190 452 L95 452 L16 0 L111 0 Z M102 -235 L172 -235 L241 -62 L152 -62 L102 -235 Z " />
<glyph glyph-name="Ncaron" unicode="&#x147;" horiz-adv-x="635" d="M409 625 L554 766 L456 766 L386 688 L383 688 L343 767 L240 767 L326 625 L409 625 Z M29 0 L130 0 L201 400 L205 400 L426 0 L517 0 L620 583 L519 583 L450 193 L446 193 L224 583 L132 583 L29 0 Z " />
<glyph glyph-name="ncaron" unicode="&#x148;" horiz-adv-x="481" d="M111 0 L157 266 C217 320 283 355 311 367 L331 362 C333 354 334 343 334 330 C334 306 331 274 324 235 L284 0 L379 0 L425 261 C433 306 437 343 437 372 C437 434 418 461 374 461 C315 461 244 416 173 355 L190 452 L95 452 L16 0 L111 0 Z M319 528 L453 681 L360 681 L297 590 L293 590 L264 681 L172 681 L242 528 L319 528 Z " />
<glyph glyph-name="napostrophe" unicode="&#x149;" horiz-adv-x="481" d="M111 0 L157 266 C217 320 283 355 311 367 L331 362 C333 354 334 343 334 330 C334 306 331 274 324 235 L284 0 L379 0 L425 261 C433 306 437 343 437 372 C437 434 418 461 374 461 C315 461 244 416 173 355 L190 452 L95 452 L16 0 L111 0 Z M73 501 C107 548 129 603 145 657 C149 670 152 689 156 703 L78 711 L69 672 C56 620 38 573 11 527 L73 501 Z " />
<glyph glyph-name="Eng" unicode="&#x14a;" horiz-adv-x="636" d="M29 0 L130 0 L201 400 L205 400 L408 7 L417 7 L415 -5 C408 -52 384 -102 303 -185 L375 -237 C473 -141 503 -81 517 -4 L620 583 L519 583 L448 175 L444 175 L224 583 L132 583 L29 0 Z " />
<glyph glyph-name="eng" unicode="&#x14b;" horiz-adv-x="481" d="M111 0 L157 266 C217 320 283 355 311 367 L331 362 C333 354 334 343 334 330 C334 306 331 274 324 235 L282 -7 C273 -59 235 -110 184 -175 L247 -218 C318 -152 366 -75 379 -1 L425 261 C433 306 437 343 437 372 C437 434 418 461 374 461 C315 461 244 416 173 355 L190 452 L95 452 L16 0 L111 0 Z " />
<glyph glyph-name="Omacron" unicode="&#x14c;" horiz-adv-x="653" d="M273 656 L522 656 L537 731 L288 731 L273 656 Z M275 -10 C489 -10 627 182 627 367 C627 510 547 593 390 593 C170 593 38 406 38 215 C38 78 121 -10 275 -10 L275 -10 Z M294 79 C203 79 154 130 154 227 C154 363 230 506 370 506 C459 506 511 460 511 362 C511 228 434 79 294 79 L294 79 Z " />
<glyph glyph-name="omacron" unicode="&#x14d;" horiz-adv-x="454" d="M162 565 L411 565 L426 640 L177 640 L162 565 Z M207 66 C183 67 154 75 143 82 C131 106 125 136 125 167 C124 250 161 345 224 388 C254 386 284 379 301 371 C314 344 320 314 320 285 C319 199 269 113 207 66 L207 66 Z M161 -8 C227 -8 294 29 341 83 C390 139 421 215 421 285 C421 415 370 461 279 461 C208 461 138 424 91 364 C47 308 23 232 23 155 C23 45 72 -8 161 -8 L161 -8 Z " />
<glyph glyph-name="Obreve" unicode="&#x14e;" horiz-adv-x="653" d="M399 689 C358 689 341 722 336 751 L276 719 C280 674 310 620 388 620 C463 620 516 665 539 721 L496 752 C482 724 443 689 399 689 L399 689 Z M275 -10 C489 -10 627 182 627 367 C627 510 547 593 390 593 C170 593 38 406 38 215 C38 78 121 -10 275 -10 L275 -10 Z M294 79 C203 79 154 130 154 227 C154 363 230 506 370 506 C459 506 511 460 511 362 C511 228 434 79 294 79 L294 79 Z " />
<glyph glyph-name="obreve" unicode="&#x14f;" horiz-adv-x="454" d="M207 66 C183 67 154 75 143 82 C131 106 125 136 125 167 C124 250 161 345 224 388 C254 386 284 379 301 371 C314 344 320 314 320 285 C319 199 269 113 207 66 L207 66 Z M161 -8 C227 -8 294 29 341 83 C390 139 421 215 421 285 C421 415 370 461 279 461 C208 461 138 424 91 364 C47 308 23 232 23 155 C23 45 72 -8 161 -8 L161 -8 Z M286 599 C240 599 224 635 220 661 L160 625 C164 580 196 526 274 526 C349 526 403 572 426 628 L379 662 C366 634 337 599 286 599 L286 599 Z " />
<glyph glyph-name="Ohungarumlaut" unicode="&#x150;" horiz-adv-x="653" d="M275 -10 C489 -10 627 182 627 367 C627 510 547 593 390 593 C170 593 38 406 38 215 C38 78 121 -10 275 -10 L275 -10 Z M294 79 C203 79 154 130 154 227 C154 363 230 506 370 506 C459 506 511 460 511 362 C511 228 434 79 294 79 L294 79 Z M325 633 L447 766 L343 766 L245 633 L325 633 Z M475 633 L620 766 L515 766 L395 633 L475 633 Z " />
<glyph glyph-name="ohungarumlaut" unicode="&#x151;" horiz-adv-x="454" d="M229 529 L358 679 L260 679 L153 529 L229 529 Z M383 529 L520 679 L422 679 L308 529 L383 529 Z M207 66 C183 67 154 75 143 82 C131 106 125 136 125 167 C124 250 161 345 224 388 C254 386 284 379 301 371 C314 344 320 314 320 285 C319 199 269 113 207 66 L207 66 Z M161 -8 C227 -8 294 29 341 83 C390 139 421 215 421 285 C421 415 370 461 279 461 C208 461 138 424 91 364 C47 308 23 232 23 155 C23 45 72 -8 161 -8 L161 -8 Z " />
<glyph glyph-name="OE" unicode="&#x152;" horiz-adv-x="842" d="M398 0 L759 0 L774 90 L520 90 L549 254 L753 254 L768 341 L564 341 L591 494 L842 494 L857 583 L500 583 L497 568 C465 583 428 593 383 593 C184 593 40 423 40 226 C40 93 128 -10 268 -10 C319 -10 363 2 401 21 L398 0 Z M299 79 C208 79 159 135 159 232 C159 365 228 506 375 506 C420 506 454 494 480 470 L418 115 C384 93 344 79 299 79 L299 79 Z " />
<glyph glyph-name="oe" unicode="&#x153;" horiz-adv-x="695" d="M161 -8 C217 -8 273 18 318 59 C322 38 327 17 334 -1 L411 -9 C502 23 592 81 637 119 L604 175 C548 133 483 99 435 83 L423 88 C416 117 412 147 413 176 L413 180 C503 216 621 267 672 310 L677 409 C634 442 567 461 520 461 C467 461 428 437 396 404 C373 444 333 461 279 461 C208 461 138 424 91 364 C47 308 23 232 23 155 C23 45 72 -8 161 -8 L161 -8 Z M207 66 C183 67 154 75 143 82 C131 106 125 136 125 167 C124 250 161 345 224 388 C254 386 284 379 301 371 C314 344 320 314 320 285 C319 199 269 113 207 66 L207 66 Z M479 382 C486 383 493 384 500 383 C529 383 563 371 585 357 L586 335 C543 302 475 272 419 247 C429 304 451 355 479 382 L479 382 Z " />
<glyph glyph-name="Racute" unicode="&#x154;" horiz-adv-x="526" d="M29 0 L137 0 L175 217 L226 217 C239 217 252 218 264 219 L357 0 L475 0 L363 241 C447 274 500 341 500 434 C500 528 423 583 317 583 L131 583 L29 0 Z M272 496 C353 496 388 473 388 415 C388 325 309 303 220 303 L190 303 L224 496 L272 496 Z M328 633 L461 766 L354 766 L245 633 L328 633 Z " />
<glyph glyph-name="racute" unicode="&#x155;" horiz-adv-x="348" d="M111 0 L156 261 C205 310 249 344 277 359 L324 327 L370 426 C357 443 332 461 307 461 C281 461 225 415 173 355 L190 452 L95 452 L16 0 L111 0 Z M276 529 L406 679 L309 679 L200 529 L276 529 Z " />
<glyph glyph-name="Rcommaaccent" unicode="&#x156;" horiz-adv-x="526" d="M29 0 L137 0 L175 217 L226 217 C239 217 252 218 264 219 L357 0 L475 0 L363 241 C447 274 500 341 500 434 C500 528 423 583 317 583 L131 583 L29 0 Z M272 496 C353 496 388 473 388 415 C388 325 309 303 220 303 L190 303 L224 496 L272 496 Z M126 -235 L196 -235 L265 -62 L176 -62 L126 -235 Z " />
<glyph glyph-name="rcommaaccent" unicode="&#x157;" horiz-adv-x="348" d="M111 0 L156 261 C205 310 249 344 277 359 L324 327 L370 426 C357 443 332 461 307 461 C281 461 225 415 173 355 L190 452 L95 452 L16 0 L111 0 Z M-40 -235 L30 -235 L99 -62 L10 -62 L-40 -235 Z " />
<glyph glyph-name="Rcaron" unicode="&#x158;" horiz-adv-x="526" d="M29 0 L137 0 L175 217 L226 217 C239 217 252 218 264 219 L357 0 L475 0 L363 241 C447 274 500 341 500 434 C500 528 423 583 317 583 L131 583 L29 0 Z M272 496 C353 496 388 473 388 415 C388 325 309 303 220 303 L190 303 L224 496 L272 496 Z M355 625 L500 766 L402 766 L332 688 L329 688 L289 767 L186 767 L272 625 L355 625 Z " />
<glyph glyph-name="rcaron" unicode="&#x159;" horiz-adv-x="348" d="M111 0 L156 261 C205 310 249 344 277 359 L324 327 L370 426 C357 443 332 461 307 461 C281 461 225 415 173 355 L190 452 L95 452 L16 0 L111 0 Z M276 528 L410 681 L317 681 L254 590 L250 590 L221 681 L129 681 L199 528 L276 528 Z " />
<glyph glyph-name="Sacute" unicode="&#x15a;" horiz-adv-x="469" d="M0 27 C50 4 108 -10 166 -10 C304 -10 418 48 418 188 C418 271 344 306 277 335 C216 363 186 383 186 427 C186 476 238 506 303 506 C362 506 409 487 441 466 L464 557 C429 577 368 593 301 593 C181 593 76 521 76 398 C76 324 136 280 197 253 C263 226 312 212 312 162 C312 107 258 79 199 79 C139 79 76 92 25 118 L0 27 Z M337 633 L470 766 L363 766 L254 633 L337 633 Z " />
<glyph glyph-name="sacute" unicode="&#x15b;" horiz-adv-x="368" d="M352 436 C314 455 274 461 231 461 C127 461 52 394 52 319 C52 262 93 219 146 182 C179 159 209 136 221 109 L225 101 C209 81 177 70 140 70 C106 70 50 85 12 104 L-5 20 C30 2 81 -8 133 -8 C182 -8 227 6 261 31 C294 55 315 90 315 130 C315 187 261 228 208 263 C179 282 150 312 145 343 C144 350 144 357 147 365 C168 377 194 382 223 381 C260 380 300 368 331 350 L352 436 Z M258 529 L388 679 L291 679 L182 529 L258 529 Z " />
<glyph glyph-name="Scircumflex" unicode="&#x15c;" horiz-adv-x="469" d="M0 27 C50 4 108 -10 166 -10 C304 -10 418 48 418 188 C418 271 344 306 277 335 C216 363 186 383 186 427 C186 476 238 506 303 506 C362 506 409 487 441 466 L464 557 C429 577 368 593 301 593 C181 593 76 521 76 398 C76 324 136 280 197 253 C263 226 312 212 312 162 C312 107 258 79 199 79 C139 79 76 92 25 118 L0 27 Z M291 773 L146 632 L242 632 L314 712 L317 712 L355 632 L455 632 L369 773 L291 773 Z " />
<glyph glyph-name="scircumflex" unicode="&#x15d;" horiz-adv-x="368" d="M352 436 C314 455 274 461 231 461 C127 461 52 394 52 319 C52 262 93 219 146 182 C179 159 209 136 221 109 L225 101 C209 81 177 70 140 70 C106 70 50 85 12 104 L-5 20 C30 2 81 -8 133 -8 C182 -8 227 6 261 31 C294 55 315 90 315 130 C315 187 261 228 208 263 C179 282 150 312 145 343 C144 350 144 357 147 365 C168 377 194 382 223 381 C260 380 300 368 331 350 L352 436 Z M240 682 L105 527 L198 527 L262 619 L264 619 L294 527 L387 527 L317 682 L240 682 Z " />
<glyph glyph-name="Scedilla" unicode="&#x15e;" horiz-adv-x="470" d="M138 -213 C222 -213 258 -164 258 -108 C258 -72 234 -44 195 -36 L211 -7 C328 4 418 63 418 188 C418 271 344 306 277 335 C216 363 186 383 186 427 C186 476 238 506 303 506 C362 506 409 487 441 466 L464 557 C429 577 368 593 301 593 C181 593 76 521 76 398 C76 324 136 280 197 253 C263 226 312 212 312 162 C312 107 258 79 199 79 C139 79 76 92 25 118 L0 27 C46 6 98 -8 151 -10 L126 -53 L126 -68 C170 -69 187 -87 187 -111 C187 -134 168 -154 132 -154 C113 -154 88 -145 72 -135 L55 -192 C71 -203 110 -213 138 -213 L138 -213 Z " />
<glyph glyph-name="scedilla" unicode="&#x15f;" horiz-adv-x="370" d="M95 -213 C179 -213 215 -164 215 -108 C215 -72 191 -44 152 -36 L169 -5 C204 0 235 12 261 31 C294 55 315 90 315 130 C315 187 261 228 208 263 C179 282 150 312 145 343 C144 350 144 357 147 365 C168 377 194 382 223 381 C260 380 300 368 331 350 L352 436 C314 455 274 461 231 461 C127 461 52 394 52 319 C52 262 93 219 146 182 C179 159 209 136 221 109 L225 101 C209 81 177 70 140 70 C106 70 50 85 12 104 L-5 20 C25 4 66 -5 110 -7 L83 -53 L83 -68 C127 -69 144 -87 144 -111 C144 -134 125 -154 89 -154 C70 -154 45 -145 29 -135 L12 -192 C28 -203 67 -213 95 -213 L95 -213 Z " />
<glyph glyph-name="Scaron" unicode="&#x160;" horiz-adv-x="469" d="M0 27 C50 4 108 -10 166 -10 C304 -10 418 48 418 188 C418 271 344 306 277 335 C216 363 186 383 186 427 C186 476 238 506 303 506 C362 506 409 487 441 466 L464 557 C429 577 368 593 301 593 C181 593 76 521 76 398 C76 324 136 280 197 253 C263 226 312 212 312 162 C312 107 258 79 199 79 C139 79 76 92 25 118 L0 27 Z M340 625 L485 766 L387 766 L317 688 L314 688 L274 767 L171 767 L257 625 L340 625 Z " />
<glyph glyph-name="scaron" unicode="&#x161;" horiz-adv-x="368" d="M352 436 C314 455 274 461 231 461 C127 461 52 394 52 319 C52 262 93 219 146 182 C179 159 209 136 221 109 L225 101 C209 81 177 70 140 70 C106 70 50 85 12 104 L-5 20 C30 2 81 -8 133 -8 C182 -8 227 6 261 31 C294 55 315 90 315 130 C315 187 261 228 208 263 C179 282 150 312 145 343 C144 350 144 357 147 365 C168 377 194 382 223 381 C260 380 300 368 331 350 L352 436 Z M279 528 L413 681 L320 681 L257 590 L253 590 L224 681 L132 681 L202 528 L279 528 Z " />
<glyph glyph-name="Tcommaaccent" unicode="&#x162;" horiz-adv-x="532" d="M57 494 L254 494 L168 0 L275 0 L361 494 L559 494 L574 583 L72 583 L57 494 Z M116 -235 L186 -235 L255 -62 L166 -62 L116 -235 Z " />
<glyph glyph-name="tcommaaccent" unicode="&#x163;" horiz-adv-x="343" d="M39 380 L109 380 L44 13 L110 -8 C189 13 274 73 313 104 L282 169 C254 149 208 115 168 100 L158 107 L204 380 L328 380 L340 452 L216 452 L236 572 L143 572 L121 452 L51 452 L39 380 Z M64 -235 L134 -235 L203 -62 L114 -62 L64 -235 Z " />
<glyph glyph-name="Tcaron" unicode="&#x164;" horiz-adv-x="532" d="M57 494 L254 494 L168 0 L275 0 L361 494 L559 494 L574 583 L72 583 L57 494 Z M368 625 L513 766 L415 766 L345 688 L342 688 L302 767 L199 767 L285 625 L368 625 Z " />
<glyph glyph-name="tcaron" unicode="&#x165;" horiz-adv-x="343" d="M39 380 L109 380 L44 13 L110 -8 C189 13 274 73 313 104 L282 169 C254 149 208 115 168 100 L158 107 L204 380 L328 380 L340 452 L216 452 L236 572 L143 572 L121 452 L51 452 L39 380 Z M269 511 L328 511 L411 699 L323 699 L269 511 Z " />
<glyph glyph-name="Tbar" unicode="&#x166;" horiz-adv-x="532" d="M57 494 L254 494 L223 315 L116 315 L103 247 L211 247 L168 0 L275 0 L318 247 L435 247 L448 315 L330 315 L361 494 L559 494 L574 583 L72 583 L57 494 Z " />
<glyph glyph-name="tbar" unicode="&#x167;" horiz-adv-x="343" d="M39 380 L109 380 L96 306 L42 306 L31 250 L86 250 L44 13 L110 -8 C189 13 274 73 313 104 L282 169 C254 149 208 115 168 100 L158 107 L182 250 L279 250 L289 306 L191 306 L204 380 L328 380 L340 452 L216 452 L236 572 L143 572 L121 452 L51 452 L39 380 Z " />
<glyph glyph-name="Utilde" unicode="&#x168;" horiz-adv-x="620" d="M505 732 C492 718 470 702 443 702 C410 702 377 735 337 735 C296 735 259 702 235 676 L260 634 C280 655 299 665 322 665 C357 665 391 632 432 632 C480 632 511 668 530 688 L505 732 Z M266 -10 C397 -10 520 64 551 238 L612 583 L505 583 L444 240 C425 133 365 79 282 79 C211 79 168 112 168 186 C168 199 169 214 172 230 L234 583 L127 583 L62 215 C59 197 57 180 57 164 C57 39 154 -10 266 -10 L266 -10 Z " />
<glyph glyph-name="utilde" unicode="&#x169;" horiz-adv-x="473" d="M352 452 L305 186 C247 132 179 97 151 86 L133 90 C133 116 138 160 147 218 L188 452 L92 452 L44 176 C37 138 34 105 34 78 C34 23 49 -8 91 -8 C155 -8 227 39 290 96 L273 0 L367 0 L447 452 L352 452 Z M404 651 C391 637 368 621 342 621 C309 621 276 653 236 653 C195 653 158 621 134 595 L158 547 C179 569 199 579 221 579 C256 579 289 545 331 545 C378 545 410 582 429 602 L404 651 Z " />
<glyph glyph-name="Umacron" unicode="&#x16a;" horiz-adv-x="620" d="M253 656 L502 656 L517 731 L268 731 L253 656 Z M266 -10 C397 -10 520 64 551 238 L612 583 L505 583 L444 240 C425 133 365 79 282 79 C211 79 168 112 168 186 C168 199 169 214 172 230 L234 583 L127 583 L62 215 C59 197 57 180 57 164 C57 39 154 -10 266 -10 L266 -10 Z " />
<glyph glyph-name="umacron" unicode="&#x16b;" horiz-adv-x="473" d="M352 452 L305 186 C247 132 179 97 151 86 L133 90 C133 116 138 160 147 218 L188 452 L92 452 L44 176 C37 138 34 105 34 78 C34 23 49 -8 91 -8 C155 -8 227 39 290 96 L273 0 L367 0 L447 452 L352 452 Z M162 565 L411 565 L426 640 L177 640 L162 565 Z " />
<glyph glyph-name="Ubreve" unicode="&#x16c;" horiz-adv-x="620" d="M378 690 C337 690 320 723 315 752 L255 720 C259 675 289 621 367 621 C442 621 495 666 518 722 L475 753 C461 725 422 690 378 690 L378 690 Z M266 -10 C397 -10 520 64 551 238 L612 583 L505 583 L444 240 C425 133 365 79 282 79 C211 79 168 112 168 186 C168 199 169 214 172 230 L234 583 L127 583 L62 215 C59 197 57 180 57 164 C57 39 154 -10 266 -10 L266 -10 Z " />
<glyph glyph-name="ubreve" unicode="&#x16d;" horiz-adv-x="473" d="M352 452 L305 186 C247 132 179 97 151 86 L133 90 C133 116 138 160 147 218 L188 452 L92 452 L44 176 C37 138 34 105 34 78 C34 23 49 -8 91 -8 C155 -8 227 39 290 96 L273 0 L367 0 L447 452 L352 452 Z M291 599 C245 599 229 635 225 661 L165 625 C169 580 201 526 279 526 C354 526 408 572 431 628 L384 662 C371 634 342 599 291 599 L291 599 Z " />
<glyph glyph-name="Uring" unicode="&#x16e;" horiz-adv-x="620" d="M266 -10 C397 -10 520 64 551 238 L612 583 L505 583 L444 240 C425 133 365 79 282 79 C211 79 168 112 168 186 C168 199 169 214 172 230 L234 583 L127 583 L62 215 C59 197 57 180 57 164 C57 39 154 -10 266 -10 L266 -10 Z M383 721 C407 721 417 709 417 690 C417 657 398 638 369 638 C346 638 337 650 337 669 C337 698 351 721 383 721 L383 721 Z M392 769 C337 769 281 735 281 665 C281 618 318 590 361 590 C413 590 474 622 474 696 C474 743 435 769 392 769 L392 769 Z " />
<glyph glyph-name="uring" unicode="&#x16f;" horiz-adv-x="473" d="M352 452 L305 186 C247 132 179 97 151 86 L133 90 C133 116 138 160 147 218 L188 452 L92 452 L44 176 C37 138 34 105 34 78 C34 23 49 -8 91 -8 C155 -8 227 39 290 96 L273 0 L367 0 L447 452 L352 452 Z M308 702 C252 702 195 667 195 596 C195 548 233 519 277 519 C330 519 391 552 391 628 C391 675 352 702 308 702 L308 702 Z M299 652 C322 652 332 640 332 621 C332 589 314 569 284 569 C262 569 253 582 253 600 C253 628 267 652 299 652 L299 652 Z " />
<glyph glyph-name="Uhungarumlaut" unicode="&#x170;" horiz-adv-x="620" d="M266 -10 C397 -10 520 64 551 238 L612 583 L505 583 L444 240 C425 133 365 79 282 79 C211 79 168 112 168 186 C168 199 169 214 172 230 L234 583 L127 583 L62 215 C59 197 57 180 57 164 C57 39 154 -10 266 -10 L266 -10 Z M317 633 L439 766 L335 766 L237 633 L317 633 Z M467 633 L612 766 L507 766 L387 633 L467 633 Z " />
<glyph glyph-name="uhungarumlaut" unicode="&#x171;" horiz-adv-x="473" d="M352 452 L305 186 C247 132 179 97 151 86 L133 90 C133 116 138 160 147 218 L188 452 L92 452 L44 176 C37 138 34 105 34 78 C34 23 49 -8 91 -8 C155 -8 227 39 290 96 L273 0 L367 0 L447 452 L352 452 Z M227 529 L356 679 L258 679 L151 529 L227 529 Z M381 529 L518 679 L420 679 L306 529 L381 529 Z " />
<glyph glyph-name="Uogonek" unicode="&#x172;" horiz-adv-x="621" d="M340 -190 L345 -131 C326 -139 296 -146 275 -146 C254 -146 235 -141 235 -116 C235 -82 268 -37 318 -6 C428 11 524 87 551 238 L612 583 L505 583 L444 240 C425 133 365 79 282 79 C211 79 168 112 168 186 C168 199 169 214 172 230 L234 583 L127 583 L62 215 C59 197 57 180 57 164 C57 49 139 -1 239 -9 C196 -43 160 -89 160 -139 C160 -189 190 -212 247 -212 C278 -212 317 -204 340 -190 L340 -190 Z " />
<glyph glyph-name="uogonek" unicode="&#x173;" horiz-adv-x="473" d="M352 452 L305 186 C247 132 178 97 151 86 L133 90 C133 116 138 160 147 218 L188 452 L92 452 L44 176 C37 138 34 105 34 78 C34 23 49 -8 91 -8 C154 -8 227 39 289 96 L273 1 C224 -33 180 -84 180 -139 C180 -189 210 -212 267 -212 C298 -212 337 -204 360 -190 L365 -131 C346 -139 316 -146 295 -146 C274 -146 255 -141 255 -116 C255 -79 293 -31 348 0 L367 0 L447 452 L352 452 Z " />
<glyph glyph-name="Wcircumflex" unicode="&#x174;" horiz-adv-x="882" d="M925 583 L811 583 L607 147 L602 147 L563 583 L443 583 L231 145 L226 145 L204 583 L83 583 L126 0 L255 0 L457 416 L463 416 L504 0 L635 0 L925 583 Z M499 773 L354 632 L450 632 L522 712 L525 712 L563 632 L663 632 L577 773 L499 773 Z " />
<glyph glyph-name="wcircumflex" unicode="&#x175;" horiz-adv-x="689" d="M606 452 L456 116 L447 116 C427 203 417 279 417 353 C417 385 420 417 425 452 L326 452 C322 425 319 397 319 369 L319 362 L195 116 L186 116 C166 203 156 279 156 353 C156 385 159 417 164 452 L64 452 C60 423 58 392 58 360 C58 234 90 87 120 0 L214 0 L331 226 C344 139 365 56 385 0 L482 0 L708 452 L606 452 Z M374 682 L239 527 L332 527 L396 619 L398 619 L428 527 L521 527 L451 682 L374 682 Z " />
<glyph glyph-name="Ycircumflex" unicode="&#x176;" horiz-adv-x="541" d="M594 583 L475 583 L284 305 L280 305 L184 583 L61 583 L204 216 L166 0 L273 0 L308 200 L594 583 Z M320 773 L175 632 L271 632 L343 712 L346 712 L384 632 L484 632 L398 773 L320 773 Z " />
<glyph glyph-name="ycircumflex" unicode="&#x177;" horiz-adv-x="436" d="M265 682 L130 527 L223 527 L287 619 L289 619 L319 527 L412 527 L342 682 L265 682 Z M149 -207 L302 142 L454 452 L353 452 L199 112 L189 112 C167 201 157 277 158 352 C158 385 160 417 165 452 L66 452 C62 424 59 395 59 365 C59 237 89 87 118 0 L144 0 L39 -190 L45 -207 L149 -207 Z " />
<glyph glyph-name="Ydieresis" unicode="&#x178;" horiz-adv-x="541" d="M594 583 L475 583 L284 305 L280 305 L184 583 L61 583 L204 216 L166 0 L273 0 L308 200 L594 583 Z M376 652 L464 627 L499 741 L396 744 L376 652 Z M198 652 L285 627 L321 741 L218 744 L198 652 Z " />
<glyph glyph-name="Zacute" unicode="&#x179;" horiz-adv-x="506" d="M425 0 L441 91 L158 91 L543 580 L542 583 L96 583 L80 492 L351 492 L-25 3 L-24 0 L425 0 Z M326 633 L459 766 L352 766 L243 633 L326 633 Z " />
<glyph glyph-name="zacute" unicode="&#x17a;" horiz-adv-x="394" d="M257 529 L387 679 L290 679 L181 529 L257 529 Z M55 373 L260 373 L-5 54 L-4 0 L318 0 L330 82 L122 82 L387 396 L387 452 L66 452 L55 373 Z " />
<glyph glyph-name="Zdotaccent" unicode="&#x17b;" horiz-adv-x="506" d="M425 0 L441 91 L158 91 L543 580 L542 583 L96 583 L80 492 L351 492 L-25 3 L-24 0 L425 0 Z M267 652 L354 627 L390 741 L286 744 L267 652 Z " />
<glyph glyph-name="zdotaccent" unicode="&#x17c;" horiz-adv-x="394" d="M55 373 L260 373 L-5 54 L-4 0 L318 0 L330 82 L122 82 L387 396 L387 452 L66 452 L55 373 Z M196 577 L284 552 L319 671 L216 674 L196 577 Z " />
<glyph glyph-name="Zcaron" unicode="&#x17d;" horiz-adv-x="506" d="M425 0 L441 91 L158 91 L543 580 L542 583 L96 583 L80 492 L351 492 L-25 3 L-24 0 L425 0 Z M361 625 L506 766 L408 766 L338 688 L335 688 L295 767 L192 767 L278 625 L361 625 Z " />
<glyph glyph-name="zcaron" unicode="&#x17e;" horiz-adv-x="394" d="M277 528 L411 681 L318 681 L255 590 L251 590 L222 681 L130 681 L200 528 L277 528 Z M55 373 L260 373 L-5 54 L-4 0 L318 0 L330 82 L122 82 L387 396 L387 452 L66 452 L55 373 Z " />
<glyph glyph-name="uni018F" unicode="&#x18f;" horiz-adv-x="597" d="M124 557 L106 453 C164 482 230 500 289 500 C392 500 450 450 452 372 C452 362 452 351 450 339 L59 339 C42 296 30 244 30 198 C30 69 113 -10 241 -10 C437 -10 570 165 570 364 C570 519 463 593 314 593 C247 593 185 583 124 557 L124 557 Z M259 81 C175 81 141 134 141 198 C141 214 143 231 147 248 L436 248 C421 166 355 81 259 81 L259 81 Z " />
<glyph glyph-name="florin" unicode="&#x192;" horiz-adv-x="446" d="M137 48 C120 -25 90 -56 42 -56 C22 -56 4 -53 -17 -48 L-34 -133 C-15 -138 6 -141 32 -141 C128 -141 208 -83 234 31 L271 242 L385 242 L394 319 L284 319 L298 395 C310 467 337 503 391 503 C413 503 430 501 453 495 L466 586 C448 590 428 592 405 592 C302 592 220 534 202 422 L184 319 L82 319 L74 242 L170 242 L137 48 Z " />
<glyph glyph-name="uni01C4" unicode="&#x1c4;" horiz-adv-x="1130" d="M29 0 L220 0 C431 2 596 135 596 355 C596 522 475 583 309 583 L131 583 L29 0 Z M1049 0 L1065 91 L782 91 L1167 580 L1166 583 L720 583 L704 492 L975 492 L599 3 L600 0 L1049 0 Z M273 494 C411 494 475 455 475 344 C475 176 375 90 216 90 L152 90 L223 494 L273 494 Z M986 625 L1131 766 L1033 766 L963 688 L960 688 L920 767 L817 767 L903 625 L986 625 Z " />
<glyph glyph-name="uni01C5" unicode="&#x1c5;" horiz-adv-x="1019" d="M29 0 L220 0 C431 2 596 135 596 355 C596 522 475 583 309 583 L131 583 L29 0 Z M273 494 C411 494 475 455 475 344 C475 176 375 90 216 90 L152 90 L223 494 L273 494 Z M679 373 L884 373 L619 54 L620 0 L942 0 L954 82 L746 82 L1011 396 L1011 452 L690 452 L679 373 Z M901 528 L1035 681 L942 681 L879 590 L875 590 L846 681 L754 681 L824 528 L901 528 Z " />
<glyph glyph-name="uni01C6" unicode="&#x1c6;" horiz-adv-x="858" d="M357 0 L473 653 L376 653 L337 435 C302 452 268 461 243 461 C175 461 127 419 91 372 C51 319 26 198 26 100 C26 64 30 29 37 0 L131 0 L284 134 L260 0 L357 0 Z M518 373 L723 373 L458 54 L459 0 L781 0 L793 82 L585 82 L850 396 L850 452 L529 452 L518 373 Z M129 98 C127 114 126 132 126 149 C127 237 153 335 192 383 C200 384 207 384 215 384 C247 384 283 374 323 355 L299 222 L144 93 L129 98 Z M740 528 L874 681 L781 681 L718 590 L714 590 L685 681 L593 681 L663 528 L740 528 Z " />
<glyph glyph-name="uni01C7" unicode="&#x1c7;" horiz-adv-x="709" d="M29 0 L383 0 L399 90 L152 90 L239 583 L131 583 L29 0 Z M448 -94 C550 2 609 89 625 179 L696 583 L590 583 L518 175 C505 96 444 37 373 -46 L448 -94 Z " />
<glyph glyph-name="uni01C8" unicode="&#x1c8;" horiz-adv-x="658" d="M29 0 L383 0 L399 90 L152 90 L239 583 L131 583 L29 0 Z M455 -7 C446 -59 407 -110 356 -175 L419 -218 C490 -152 538 -75 551 -1 L631 452 L536 452 L455 -7 Z M644 544 L677 663 L574 666 L557 569 L644 544 Z " />
<glyph glyph-name="uni01C9" unicode="&#x1c9;" horiz-adv-x="440" d="M237 -7 C228 -59 189 -110 138 -175 L201 -218 C272 -152 320 -75 333 -1 L413 452 L318 452 L237 -7 Z M426 544 L459 663 L356 666 L339 569 L426 544 Z M114 0 L228 653 L134 653 L19 0 L114 0 Z " />
<glyph glyph-name="uni01CA" unicode="&#x1ca;" horiz-adv-x="903" d="M643 -94 C745 2 804 89 820 179 L891 583 L785 583 L713 175 C700 96 639 37 568 -46 L643 -94 Z M29 0 L130 0 L201 400 L205 400 L426 0 L517 0 L620 583 L519 583 L450 193 L446 193 L224 583 L132 583 L29 0 Z " />
<glyph glyph-name="uni01CB" unicode="&#x1cb;" horiz-adv-x="852" d="M650 -7 C641 -59 602 -110 551 -175 L614 -218 C685 -152 733 -75 746 -1 L826 452 L731 452 L650 -7 Z M839 544 L872 663 L769 666 L752 569 L839 544 Z M29 0 L130 0 L201 400 L205 400 L426 0 L517 0 L620 583 L519 583 L450 193 L446 193 L224 583 L132 583 L29 0 Z " />
<glyph glyph-name="uni01CC" unicode="&#x1cc;" horiz-adv-x="698" d="M111 0 L157 266 C217 320 283 355 311 367 L331 362 C333 354 334 343 334 330 C334 306 331 274 324 235 L284 0 L379 0 L425 261 C433 306 437 343 437 372 C437 434 418 461 374 461 C315 461 244 416 173 355 L190 452 L95 452 L16 0 L111 0 Z M496 -7 C487 -59 448 -110 397 -175 L460 -218 C531 -152 579 -75 592 -1 L672 452 L577 452 L496 -7 Z M685 544 L718 663 L615 666 L598 569 L685 544 Z " />
<glyph glyph-name="uni01D3" unicode="&#x1d3;" horiz-adv-x="620" d="M407 608 L552 749 L454 749 L384 671 L381 671 L341 750 L238 750 L324 608 L407 608 Z M266 -10 C397 -10 520 64 551 238 L612 583 L505 583 L444 240 C425 133 365 79 282 79 C211 79 168 112 168 186 C168 199 169 214 172 230 L234 583 L127 583 L62 215 C59 197 57 180 57 164 C57 39 154 -10 266 -10 L266 -10 Z " />
<glyph glyph-name="uni01D4" unicode="&#x1d4;" horiz-adv-x="473" d="M352 452 L305 186 C247 132 179 97 151 86 L133 90 C133 116 138 160 147 218 L188 452 L92 452 L44 176 C37 138 34 105 34 78 C34 23 49 -8 91 -8 C155 -8 227 39 290 96 L273 0 L367 0 L447 452 L352 452 Z M319 528 L453 681 L360 681 L297 590 L293 590 L264 681 L172 681 L242 528 L319 528 Z " />
<glyph glyph-name="uni01E2" unicode="&#x1e2;" horiz-adv-x="753" d="M309 0 L669 0 L685 90 L431 90 L460 254 L664 254 L679 341 L475 341 L502 494 L753 494 L768 583 L369 583 L-45 0 L66 0 L174 157 L336 157 L309 0 Z M468 655 L717 655 L732 730 L483 730 L468 655 Z M384 460 L389 460 L352 248 L237 248 L384 460 Z " />
<glyph glyph-name="uni01E3" unicode="&#x1e3;" horiz-adv-x="675" d="M619 119 L585 175 C529 133 464 99 417 83 L404 88 C398 112 395 137 394 163 L394 179 C483 216 601 267 653 310 L659 409 C616 442 548 461 501 461 C455 461 418 441 388 413 C342 440 275 461 243 461 C175 461 127 419 91 372 C51 319 26 198 26 100 C26 64 30 29 37 0 L131 0 L292 124 C293 80 302 35 316 -1 L392 -9 C484 23 573 81 619 119 L619 119 Z M127 95 C126 110 125 127 125 143 C125 233 152 333 192 381 C202 383 213 383 222 383 C260 382 297 370 336 348 C315 309 301 256 295 200 L142 90 L127 95 Z M283 565 L532 565 L547 640 L298 640 L283 565 Z M460 382 C467 383 474 383 482 383 C511 382 544 372 566 357 L567 335 C525 301 456 271 400 247 C411 304 433 355 460 382 L460 382 Z " />
<glyph glyph-name="uni01F1" unicode="&#x1f1;" horiz-adv-x="1118" d="M29 0 L220 0 C431 2 596 135 596 355 C596 522 475 583 309 583 L131 583 L29 0 Z M1036 0 L1052 91 L769 91 L1154 580 L1153 583 L707 583 L691 492 L962 492 L586 3 L587 0 L1036 0 Z M273 494 C411 494 475 455 475 344 C475 176 375 90 216 90 L152 90 L223 494 L273 494 Z " />
<glyph glyph-name="uni01F2" unicode="&#x1f2;" horiz-adv-x="1019" d="M29 0 L220 0 C431 2 596 135 596 355 C596 522 475 583 309 583 L131 583 L29 0 Z M273 494 C411 494 475 455 475 344 C475 176 375 90 216 90 L152 90 L223 494 L273 494 Z M679 373 L884 373 L619 54 L620 0 L942 0 L954 82 L746 82 L1011 396 L1011 452 L690 452 L679 373 Z " />
<glyph glyph-name="uni01F3" unicode="&#x1f3;" horiz-adv-x="858" d="M357 0 L473 653 L376 653 L337 435 C302 452 268 461 243 461 C175 461 127 419 91 372 C51 319 26 198 26 100 C26 64 30 29 37 0 L131 0 L284 134 L260 0 L357 0 Z M518 373 L723 373 L458 54 L459 0 L781 0 L793 82 L585 82 L850 396 L850 452 L529 452 L518 373 Z M129 98 C127 114 126 132 126 149 C127 237 153 335 192 383 C200 384 207 384 215 384 C247 384 283 374 323 355 L299 222 L144 93 L129 98 Z " />
<glyph glyph-name="AEacute" unicode="&#x1fc;" horiz-adv-x="753" d="M309 0 L669 0 L685 90 L431 90 L460 254 L664 254 L679 341 L475 341 L502 494 L753 494 L768 583 L369 583 L-45 0 L66 0 L174 157 L336 157 L309 0 Z M384 460 L389 460 L352 248 L237 248 L384 460 Z M591 634 L724 767 L617 767 L508 634 L591 634 Z " />
<glyph glyph-name="aeacute" unicode="&#x1fd;" horiz-adv-x="675" d="M619 119 L585 175 C529 133 464 99 417 83 L404 88 C398 112 395 137 394 163 L394 179 C483 216 601 267 653 310 L659 409 C616 442 548 461 501 461 C455 461 418 441 388 413 C342 440 275 461 243 461 C175 461 127 419 91 372 C51 319 26 198 26 100 C26 64 30 29 37 0 L131 0 L292 124 C293 80 302 35 316 -1 L392 -9 C484 23 573 81 619 119 L619 119 Z M127 95 C126 110 125 127 125 143 C125 233 152 333 192 381 C202 383 213 383 222 383 C260 382 297 370 336 348 C315 309 301 256 295 200 L142 90 L127 95 Z M420 529 L550 679 L453 679 L344 529 L420 529 Z M460 382 C467 383 474 383 482 383 C511 382 544 372 566 357 L567 335 C525 301 456 271 400 247 C411 304 433 355 460 382 L460 382 Z " />
<glyph glyph-name="Oslashacute" unicode="&#x1fe;" horiz-adv-x="653" d="M275 -10 C489 -10 627 182 627 367 C627 427 613 477 585 514 L661 593 L584 593 L544 552 C506 578 455 593 390 593 C170 593 38 406 38 215 C38 157 52 108 81 71 L5 -8 L81 -8 L120 33 C159 5 211 -10 275 -10 L275 -10 Z M154 227 C154 363 230 506 370 506 C412 506 446 495 470 474 L165 158 C158 177 154 200 154 227 L154 227 Z M294 79 C252 79 219 90 196 111 L501 427 C507 408 511 387 511 362 C511 228 434 79 294 79 L294 79 Z M407 633 L540 766 L433 766 L324 633 L407 633 Z " />
<glyph glyph-name="oslashacute" unicode="&#x1ff;" horiz-adv-x="455" d="M161 -8 C227 -8 294 29 341 83 C390 139 421 215 421 285 C421 331 414 367 402 394 L462 461 L398 461 L373 433 C349 452 318 461 279 461 C208 461 138 424 91 364 C47 308 23 232 23 155 C23 117 29 85 40 61 L-23 -10 L39 -10 L68 22 C91 2 122 -8 161 -8 L161 -8 Z M125 167 C124 250 161 345 224 388 C254 386 284 379 301 371 C303 367 305 362 306 358 L125 155 L125 167 Z M207 66 C183 67 154 75 143 82 C140 87 138 92 136 98 L319 302 C320 296 320 291 320 285 C319 199 269 113 207 66 L207 66 Z M311 529 L441 679 L344 679 L235 529 L311 529 Z " />
<glyph glyph-name="Scommaaccent" unicode="&#x218;" horiz-adv-x="469" d="M98 -235 L168 -235 L237 -62 L148 -62 L98 -235 Z M0 27 C50 4 108 -10 166 -10 C304 -10 418 48 418 188 C418 271 344 306 277 335 C216 363 186 383 186 427 C186 476 238 506 303 506 C362 506 409 487 441 466 L464 557 C429 577 368 593 301 593 C181 593 76 521 76 398 C76 324 136 280 197 253 C263 226 312 212 312 162 C312 107 258 79 199 79 C139 79 76 92 25 118 L0 27 Z " />
<glyph glyph-name="scommaaccent" unicode="&#x219;" horiz-adv-x="368" d="M352 436 C314 455 274 461 231 461 C127 461 52 394 52 319 C52 262 93 219 146 182 C179 159 209 136 221 109 L225 101 C209 81 177 70 140 70 C106 70 50 85 12 104 L-5 20 C30 2 81 -8 133 -8 C182 -8 227 6 261 31 C294 55 315 90 315 130 C315 187 261 228 208 263 C179 282 150 312 145 343 C144 350 144 357 147 365 C168 377 194 382 223 381 C260 380 300 368 331 350 L352 436 Z M52 -235 L122 -235 L191 -62 L102 -62 L52 -235 Z " />
<glyph glyph-name="uni021A" unicode="&#x21a;" horiz-adv-x="532" d="M57 494 L254 494 L168 0 L275 0 L361 494 L559 494 L574 583 L72 583 L57 494 Z M120 -235 L190 -235 L259 -62 L170 -62 L120 -235 Z " />
<glyph glyph-name="uni021B" unicode="&#x21b;" horiz-adv-x="343" d="M39 380 L109 380 L44 13 L110 -8 C189 13 274 73 313 104 L282 169 C254 149 208 115 168 100 L158 107 L204 380 L328 380 L340 452 L216 452 L236 572 L143 572 L121 452 L51 452 L39 380 Z M64 -235 L134 -235 L203 -62 L114 -62 L64 -235 Z " />
<glyph glyph-name="uni0232" unicode="&#x232;" horiz-adv-x="541" d="M594 583 L475 583 L284 305 L280 305 L184 583 L61 583 L204 216 L166 0 L273 0 L308 200 L594 583 Z M211 655 L460 655 L475 730 L226 730 L211 655 Z " />
<glyph glyph-name="uni0233" unicode="&#x233;" horiz-adv-x="436" d="M149 -207 L302 142 L454 452 L353 452 L199 112 L189 112 C167 201 157 277 158 352 C158 385 160 417 165 452 L66 452 C62 424 59 395 59 365 C59 237 89 87 118 0 L144 0 L39 -190 L45 -207 L149 -207 Z M144 565 L393 565 L408 640 L159 640 L144 565 Z " />
<glyph glyph-name="uni0237" unicode="&#x237;" horiz-adv-x="217" d="M16 -7 C7 -59 -31 -110 -82 -175 L-19 -218 C52 -152 100 -75 113 -1 L189 452 L94 452 L16 -7 Z " />
<glyph glyph-name="uni0259" unicode="&#x259;" horiz-adv-x="409" d="M46 334 L79 278 C135 320 200 354 248 370 L260 365 C267 336 271 306 270 277 L270 273 C179 237 62 185 11 143 L6 44 C49 11 116 -8 163 -8 C232 -8 276 32 313 81 C350 130 372 224 372 313 C372 362 364 413 349 454 L272 462 C181 430 91 372 46 334 L46 334 Z M204 71 C197 70 190 69 183 70 C154 70 120 82 98 96 L97 118 C139 151 207 181 263 205 C253 148 232 98 204 71 L204 71 Z " />
<glyph glyph-name="circumflex" unicode="&#x2c6;" horiz-adv-x="372" d="M254 682 L119 527 L212 527 L276 619 L278 619 L308 527 L401 527 L331 682 L254 682 Z " />
<glyph glyph-name="caron" unicode="&#x2c7;" horiz-adv-x="419" d="M317 528 L451 681 L358 681 L295 590 L291 590 L262 681 L170 681 L240 528 L317 528 Z " />
<glyph glyph-name="breve" unicode="&#x2d8;" horiz-adv-x="331" d="M258 599 C212 599 196 635 192 661 L132 625 C136 580 168 526 246 526 C321 526 375 572 398 628 L351 662 C338 634 309 599 258 599 L258 599 Z " />
<glyph glyph-name="dotaccent" unicode="&#x2d9;" horiz-adv-x="284" d="M175 577 L263 552 L298 671 L195 674 L175 577 Z " />
<glyph glyph-name="ring" unicode="&#x2da;" horiz-adv-x="303" d="M249 652 C272 652 282 640 282 621 C282 589 264 569 234 569 C212 569 203 582 203 600 C203 628 217 652 249 652 L249 652 Z M258 702 C202 702 145 667 145 596 C145 548 183 519 227 519 C280 519 341 552 341 628 C341 675 302 702 258 702 L258 702 Z " />
<glyph glyph-name="ogonek" unicode="&#x2db;" horiz-adv-x="320" d="M221 -190 L226 -131 C207 -139 177 -146 156 -146 C135 -146 116 -141 116 -116 C116 -78 157 -27 216 4 L195 36 C131 8 41 -61 41 -139 C41 -189 71 -212 128 -212 C159 -212 198 -204 221 -190 L221 -190 Z " />
<glyph glyph-name="tilde" unicode="&#x2dc;" horiz-adv-x="391" d="M405 651 C392 637 369 621 343 621 C310 621 277 653 237 653 C196 653 159 621 135 595 L159 547 C180 569 200 579 222 579 C257 579 290 545 332 545 C379 545 411 582 430 602 L405 651 Z " />
<glyph glyph-name="hungarumlaut" unicode="&#x2dd;" horiz-adv-x="429" d="M186 529 L315 679 L217 679 L110 529 L186 529 Z M340 529 L477 679 L379 679 L265 529 L340 529 Z " />
<glyph glyph-name="dotbelowcmb" unicode="&#x323;" d="M-311 -186 L-224 -211 L-188 -93 L-292 -90 L-311 -186 Z " />
<glyph glyph-name="uni0394" unicode="&#x394;" horiz-adv-x="545" d="M475 0 L488 77 L392 583 L285 583 L-4 75 L-16 0 L475 0 Z M307 459 L312 459 L372 91 L105 91 L307 459 Z " />
<glyph glyph-name="Sigma" unicode="&#x3a3;" horiz-adv-x="488" d="M1 0 L398 0 L414 94 L138 94 L298 292 L212 492 L474 492 L490 583 L106 583 L92 502 L184 288 L15 84 L1 0 Z " />
<glyph glyph-name="pi" unicode="&#x3c0;" horiz-adv-x="563" d="M463 364 L523 364 L539 452 L72 452 L56 364 L119 364 L55 0 L151 0 L214 364 L367 364 L314 68 C306 16 340 -6 398 -6 C427 -6 454 0 480 11 L491 77 C474 75 457 75 447 75 C420 75 414 87 422 130 L463 364 Z " />
<glyph glyph-name="uni1E46" unicode="&#x1e46;" horiz-adv-x="635" d="M202 -186 L289 -211 L325 -93 L221 -90 L202 -186 Z M29 0 L130 0 L201 400 L205 400 L426 0 L517 0 L620 583 L519 583 L450 193 L446 193 L224 583 L132 583 L29 0 Z " />
<glyph glyph-name="uni1E47" unicode="&#x1e47;" horiz-adv-x="481" d="M111 0 L157 266 C217 320 283 355 311 367 L331 362 C333 354 334 343 334 330 C334 306 331 274 324 235 L284 0 L379 0 L425 261 C433 306 437 343 437 372 C437 434 418 461 374 461 C315 461 244 416 173 355 L190 452 L95 452 L16 0 L111 0 Z M123 -186 L210 -211 L246 -93 L142 -90 L123 -186 Z " />
<glyph glyph-name="uni1E62" unicode="&#x1e62;" horiz-adv-x="469" d="M118 -186 L205 -211 L241 -93 L137 -90 L118 -186 Z M0 27 C50 4 108 -10 166 -10 C304 -10 418 48 418 188 C418 271 344 306 277 335 C216 363 186 383 186 427 C186 476 238 506 303 506 C362 506 409 487 441 466 L464 557 C429 577 368 593 301 593 C181 593 76 521 76 398 C76 324 136 280 197 253 C263 226 312 212 312 162 C312 107 258 79 199 79 C139 79 76 92 25 118 L0 27 Z " />
<glyph glyph-name="uni1E63" unicode="&#x1e63;" horiz-adv-x="368" d="M352 436 C314 455 274 461 231 461 C127 461 52 394 52 319 C52 262 93 219 146 182 C179 159 209 136 221 109 L225 101 C209 81 177 70 140 70 C106 70 50 85 12 104 L-5 20 C30 2 81 -8 133 -8 C182 -8 227 6 261 31 C294 55 315 90 315 130 C315 187 261 228 208 263 C179 282 150 312 145 343 C144 350 144 357 147 365 C168 377 194 382 223 381 C260 380 300 368 331 350 L352 436 Z M68 -186 L155 -211 L191 -93 L87 -90 L68 -186 Z " />
<glyph glyph-name="Wgrave" unicode="&#x1e80;" horiz-adv-x="882" d="M542 633 L477 766 L370 766 L459 633 L542 633 Z M925 583 L811 583 L607 147 L602 147 L563 583 L443 583 L231 145 L226 145 L204 583 L83 583 L126 0 L255 0 L457 416 L463 416 L504 0 L635 0 L925 583 Z " />
<glyph glyph-name="wgrave" unicode="&#x1e81;" horiz-adv-x="689" d="M606 452 L456 116 L447 116 C427 203 417 279 417 353 C417 385 420 417 425 452 L326 452 C322 425 319 397 319 369 L319 362 L195 116 L186 116 C166 203 156 279 156 353 C156 385 159 417 164 452 L64 452 C60 423 58 392 58 360 C58 234 90 87 120 0 L214 0 L331 226 C344 139 365 56 385 0 L482 0 L708 452 L606 452 Z M414 529 L305 679 L208 679 L338 529 L414 529 Z " />
<glyph glyph-name="Wacute" unicode="&#x1e82;" horiz-adv-x="882" d="M537 628 L670 761 L563 761 L454 628 L537 628 Z M925 583 L811 583 L607 147 L602 147 L563 583 L443 583 L231 145 L226 145 L204 583 L83 583 L126 0 L255 0 L457 416 L463 416 L504 0 L635 0 L925 583 Z " />
<glyph glyph-name="wacute" unicode="&#x1e83;" horiz-adv-x="689" d="M606 452 L456 116 L447 116 C427 203 417 279 417 353 C417 385 420 417 425 452 L326 452 C322 425 319 397 319 369 L319 362 L195 116 L186 116 C166 203 156 279 156 353 C156 385 159 417 164 452 L64 452 C60 423 58 392 58 360 C58 234 90 87 120 0 L214 0 L331 226 C344 139 365 56 385 0 L482 0 L708 452 L606 452 Z M416 529 L546 679 L449 679 L340 529 L416 529 Z " />
<glyph glyph-name="Wdieresis" unicode="&#x1e84;" horiz-adv-x="882" d="M366 654 L453 629 L489 743 L386 746 L366 654 Z M544 654 L632 629 L667 743 L564 746 L544 654 Z M925 583 L811 583 L607 147 L602 147 L563 583 L443 583 L231 145 L226 145 L204 583 L83 583 L126 0 L255 0 L457 416 L463 416 L504 0 L635 0 L925 583 Z " />
<glyph glyph-name="wdieresis" unicode="&#x1e85;" horiz-adv-x="689" d="M606 452 L456 116 L447 116 C427 203 417 279 417 353 C417 385 420 417 425 452 L326 452 C322 425 319 397 319 369 L319 362 L195 116 L186 116 C166 203 156 279 156 353 C156 385 159 417 164 452 L64 452 C60 423 58 392 58 360 C58 234 90 87 120 0 L214 0 L331 226 C344 139 365 56 385 0 L482 0 L708 452 L606 452 Z M425 570 L512 545 L548 659 L444 662 L425 570 Z M247 570 L334 545 L370 659 L266 662 L247 570 Z " />
<glyph glyph-name="uni1EBC" unicode="&#x1ebc;" horiz-adv-x="474" d="M29 0 L390 0 L406 90 L152 90 L181 254 L384 254 L399 341 L196 341 L223 494 L473 494 L489 583 L131 583 L29 0 Z M459 732 C446 718 424 702 397 702 C364 702 331 735 291 735 C250 735 213 702 189 676 L214 634 C234 655 253 665 276 665 C311 665 345 632 386 632 C434 632 465 668 484 688 L459 732 Z " />
<glyph glyph-name="uni1EBD" unicode="&#x1ebd;" horiz-adv-x="410" d="M353 119 L320 175 C264 133 199 99 151 83 L139 88 C132 117 128 147 129 176 L129 179 C219 216 337 267 388 310 L393 409 C350 442 283 461 236 461 C167 461 123 421 86 372 C49 323 27 229 27 140 C27 91 35 40 50 -1 L127 -9 C218 23 308 81 353 119 L353 119 Z M387 651 C374 637 351 621 325 621 C292 621 259 653 219 653 C178 653 141 621 117 595 L141 547 C162 569 182 579 204 579 C239 579 272 545 314 545 C361 545 393 582 412 602 L387 651 Z M195 382 C202 383 209 384 216 383 C245 383 279 371 301 357 L302 335 C259 302 191 272 135 247 C145 304 167 355 195 382 L195 382 Z " />
<glyph glyph-name="Ygrave" unicode="&#x1ef2;" horiz-adv-x="541" d="M594 583 L475 583 L284 305 L280 305 L184 583 L61 583 L204 216 L166 0 L273 0 L308 200 L594 583 Z M391 633 L326 766 L219 766 L308 633 L391 633 Z " />
<glyph glyph-name="ygrave" unicode="&#x1ef3;" horiz-adv-x="436" d="M149 -207 L302 142 L454 452 L353 452 L199 112 L189 112 C167 201 157 277 158 352 C158 385 160 417 165 452 L66 452 C62 424 59 395 59 365 C59 237 89 87 118 0 L144 0 L39 -190 L45 -207 L149 -207 Z M319 529 L210 679 L113 679 L243 529 L319 529 Z " />
<glyph glyph-name="uni2004" unicode="&#x2004;" horiz-adv-x="333" d="" />
<glyph glyph-name="uni2007" unicode="&#x2007;" horiz-adv-x="500" d="" />
<glyph glyph-name="uni2009" unicode="&#x2009;" horiz-adv-x="160" d="" />
<glyph glyph-name="uni200A" unicode="&#x200a;" horiz-adv-x="80" d="" />
<glyph glyph-name="uni200B" unicode="&#x200b;" d="" />
<glyph glyph-name="uni2012" unicode="&#x2012;" horiz-adv-x="378" d="M388 220 L388 309 L-10 309 L-10 220 L388 220 Z " />
<glyph glyph-name="endash" unicode="&#x2013;" horiz-adv-x="435" d="M55 216 L366 216 L379 286 L67 286 L55 216 Z " />
<glyph glyph-name="emdash" unicode="&#x2014;" horiz-adv-x="823" d="M55 216 L754 216 L766 286 L67 286 L55 216 Z " />
<glyph glyph-name="quoteleft" unicode="&#x2018;" horiz-adv-x="217" d="M184 677 C147 625 122 565 104 505 L92 454 L179 445 L188 488 C202 546 223 598 253 649 L184 677 Z " />
<glyph glyph-name="quoteright" unicode="&#x2019;" horiz-adv-x="214" d="M154 441 C191 493 216 553 234 613 L246 664 L159 673 L150 630 C136 572 115 520 85 469 L154 441 Z " />
<glyph glyph-name="quotesinglbase" unicode="&#x201a;" horiz-adv-x="219" d="M35 -141 C73 -89 97 -28 115 33 C120 47 123 68 128 83 L40 92 L31 49 C17 -9 -4 -61 -34 -113 L35 -141 Z " />
<glyph glyph-name="quotedblleft" unicode="&#x201c;" horiz-adv-x="381" d="M184 677 C147 625 122 565 104 505 L92 454 L179 445 L188 488 C202 546 223 598 253 649 L184 677 Z M348 677 C311 625 286 565 268 505 L256 454 L343 445 L352 488 C366 546 387 598 417 649 L348 677 Z " />
<glyph glyph-name="quotedblright" unicode="&#x201d;" horiz-adv-x="383" d="M152 432 C189 484 214 544 232 604 L244 655 L157 664 L148 621 C134 563 113 511 83 460 L152 432 Z M319 432 C356 484 381 544 399 604 L411 655 L324 664 L315 621 C301 563 280 511 250 460 L319 432 Z " />
<glyph glyph-name="quotedblbase" unicode="&#x201e;" horiz-adv-x="385" d="M35 -141 C73 -89 97 -28 115 33 C120 47 123 68 128 83 L40 92 L31 49 C17 -9 -4 -61 -34 -113 L35 -141 Z M201 -141 C239 -89 263 -28 281 33 C286 47 289 68 294 83 L206 92 L197 49 C183 -9 162 -61 132 -113 L201 -141 Z " />
<glyph glyph-name="dagger" unicode="&#x2020;" horiz-adv-x="476" d="M50 376 L217 376 L151 0 L235 0 L301 376 L468 376 L482 456 L315 456 L350 653 L266 653 L231 456 L64 456 L50 376 Z " />
<glyph glyph-name="daggerdbl" unicode="&#x2021;" horiz-adv-x="512" d="M70 386 L237 386 L213 254 L47 254 L32 174 L199 174 L169 0 L253 0 L283 174 L450 174 L465 254 L297 254 L321 386 L488 386 L502 465 L335 465 L368 653 L284 653 L251 465 L84 465 L70 386 Z " />
<glyph glyph-name="bullet" unicode="&#x2022;" horiz-adv-x="391" d="M229 203 C271 220 300 258 300 302 C300 315 297 329 292 343 C276 377 246 399 211 399 C199 399 187 397 174 391 C130 373 103 335 103 290 C103 277 106 262 111 248 C128 216 157 194 191 194 C203 194 216 197 229 203 L229 203 Z " />
<glyph glyph-name="ellipsis" unicode="&#x2026;" horiz-adv-x="666" d="M17 1 L111 -11 L148 112 L42 116 L17 1 Z M234 1 L328 -11 L365 112 L259 116 L234 1 Z M450 1 L544 -11 L581 112 L475 116 L450 1 Z " />
<glyph glyph-name="perthousand" unicode="&#x2030;" horiz-adv-x="943" d="M744 -8 C821 -8 894 51 894 177 C894 250 849 295 788 295 C711 295 638 228 638 109 C638 33 687 -8 744 -8 L744 -8 Z M752 48 C724 48 708 76 708 115 C708 197 743 237 779 237 C809 237 824 212 824 172 C824 79 787 48 752 48 L752 48 Z M168 289 C246 289 318 347 318 474 C318 548 273 593 213 593 C134 593 63 530 63 405 C63 330 108 289 168 289 L168 289 Z M284 236 L120 20 L117 0 L195 0 L350 236 L284 236 Z M484 48 C456 48 440 76 440 115 C440 197 475 237 511 237 C540 237 556 212 556 172 C556 79 519 48 484 48 L484 48 Z M441 370 L590 563 L593 583 L515 583 L375 370 L441 370 Z M178 345 C149 345 132 373 132 413 C132 506 169 534 204 534 C233 534 249 509 249 469 C249 377 213 345 178 345 L178 345 Z M476 -8 C553 -8 626 51 626 177 C626 250 581 295 520 295 C443 295 370 228 370 109 C370 33 419 -8 476 -8 L476 -8 Z " />
<glyph glyph-name="guilsinglleft" unicode="&#x2039;" horiz-adv-x="267" d="M95 46 L181 46 L145 226 L244 405 L159 405 L36 226 L95 46 Z " />
<glyph glyph-name="guilsinglright" unicode="&#x203a;" horiz-adv-x="268" d="M161 408 L75 408 L111 228 L12 49 L97 49 L220 228 L161 408 Z " />
<glyph glyph-name="uni203D" unicode="&#x203d;" horiz-adv-x="341" d="M93 293 L120 172 L185 187 L181 281 L257 338 C301 373 341 399 343 444 C346 513 267 569 140 593 L110 517 C172 503 232 485 262 454 C238 430 205 407 173 377 L165 455 L79 430 L93 293 Z M56 1 L150 -11 L187 112 L81 116 L56 1 Z " />
<glyph glyph-name="fraction" unicode="&#x2044;" horiz-adv-x="171" d="M-105 0 L336 547 L336 552 L272 552 L-165 5 L-165 0 L-105 0 Z " />
<glyph glyph-name="zerosuperior" unicode="&#x2070;" horiz-adv-x="310" d="M344 605 C344 665 313 716 239 716 C132 716 81 624 73 532 C72 524 71 515 71 506 C71 441 106 395 178 395 C284 395 335 490 343 579 C344 588 344 596 344 605 L344 605 Z M189 450 C156 450 143 467 143 511 C143 518 144 525 145 533 C148 590 171 661 227 661 C261 661 270 643 270 596 C270 588 270 581 269 572 C266 518 245 450 189 450 L189 450 Z " />
<glyph glyph-name="i.superior" unicode="&#x2071;" horiz-adv-x="161" d="M141 400 L198 709 L125 709 L68 400 L141 400 Z M207 772 L232 852 L154 854 L141 789 L207 772 Z " />
<glyph glyph-name="foursuperior" unicode="&#x2074;" horiz-adv-x="284" d="M305 473 L314 526 L272 526 L306 713 L243 713 L57 523 L50 473 L191 473 L178 400 L249 400 L262 473 L305 473 Z M120 526 L221 629 L202 526 L120 526 Z " />
<glyph glyph-name="fivesuperior" unicode="&#x2075;" horiz-adv-x="262" d="M55 409 C71 403 111 395 141 395 C215 395 284 436 284 508 C284 559 254 589 208 601 C185 600 167 596 153 590 L169 652 L294 652 L303 710 L123 710 L82 544 L103 537 C124 545 151 551 181 554 C204 544 211 528 211 501 C211 468 184 451 150 451 C122 451 86 458 63 466 L55 409 Z " />
<glyph glyph-name="sixsuperior" unicode="&#x2076;" horiz-adv-x="280" d="M319 706 C298 713 274 716 253 716 C149 716 70 614 70 512 C70 436 118 395 167 395 C227 395 303 454 303 506 C303 555 278 588 243 601 C216 601 180 591 147 574 C152 590 159 605 168 618 C186 644 212 661 241 661 C263 661 282 659 308 651 L319 706 Z M211 550 C228 536 233 522 233 502 C233 478 210 453 178 445 C148 455 139 483 139 519 L139 525 C165 539 189 549 211 550 L211 550 Z " />
<glyph glyph-name="sevensuperior" unicode="&#x2077;" horiz-adv-x="236" d="M79 653 L222 653 L70 407 L74 400 L135 400 L309 688 L303 710 L87 710 L79 653 Z " />
<glyph glyph-name="eightsuperior" unicode="&#x2078;" horiz-adv-x="289" d="M327 646 C327 681 280 716 221 716 C156 716 98 670 98 628 C98 603 122 579 150 556 C104 538 59 507 59 469 C59 435 99 395 161 395 C233 395 305 426 305 483 C305 511 277 539 245 564 C289 584 327 616 327 646 L327 646 Z M239 473 C223 456 199 447 171 447 C149 447 127 457 114 474 C126 498 145 517 176 536 C206 513 234 491 239 473 L239 473 Z M163 640 C179 659 196 665 211 665 C234 665 253 658 264 638 C255 623 242 604 215 586 C189 606 166 625 163 640 L163 640 Z " />
<glyph glyph-name="ninesuperior" unicode="&#x2079;" horiz-adv-x="279" d="M65 399 C86 392 110 389 131 389 C235 389 314 491 314 593 C314 669 266 710 217 710 C157 710 81 651 81 599 C81 550 106 517 141 504 C168 504 204 514 236 530 C231 514 224 500 216 487 C198 461 172 444 143 444 C121 444 102 446 76 454 L65 399 Z M173 555 C156 569 151 583 151 603 C151 627 174 652 206 660 C236 650 245 622 245 586 L245 579 C219 565 195 556 173 555 L173 555 Z " />
<glyph glyph-name="plussuperior" unicode="&#x207a;" horiz-adv-x="314" d="M65 524 L176 524 L156 409 L212 409 L232 524 L344 524 L354 581 L242 581 L263 694 L206 694 L186 581 L76 581 L65 524 Z " />
<glyph glyph-name="minussuperior" unicode="&#x207b;" horiz-adv-x="348" d="M82 524 L361 524 L371 581 L92 581 L82 524 Z " />
<glyph glyph-name="equalsuperior" unicode="&#x207c;" horiz-adv-x="335" d="M70 458 L336 458 L346 515 L80 515 L70 458 Z M94 589 L360 589 L370 646 L104 646 L94 589 Z " />
<glyph glyph-name="parenleftsuperior" unicode="&#x207d;" horiz-adv-x="180" d="M195 308 C178 330 134 402 134 507 C134 691 252 813 287 847 L219 847 C184 815 67 694 67 506 C67 388 112 331 130 307 L195 308 Z " />
<glyph glyph-name="parenrightsuperior" unicode="&#x207e;" horiz-adv-x="180" d="M98 846 C115 824 159 752 159 647 C159 462 41 341 6 307 L74 307 C109 338 226 460 226 647 C226 766 181 823 163 847 L98 846 Z " />
<glyph glyph-name="n.superior" unicode="&#x207f;" horiz-adv-x="351" d="M141 400 L174 581 C217 618 263 640 283 647 L296 644 C301 628 297 600 291 560 L262 400 L334 400 L367 578 C373 608 375 632 375 652 C375 696 361 715 329 715 C287 715 236 684 185 642 L198 709 L125 709 L68 400 L141 400 Z " />
<glyph glyph-name="zeroinferior" unicode="&#x2080;" horiz-adv-x="311" d="M274 205 C274 265 243 316 169 316 C62 316 11 224 3 132 C2 124 1 115 1 106 C1 41 36 -5 108 -5 C214 -5 265 90 273 179 C274 188 274 196 274 205 L274 205 Z M119 50 C86 50 73 67 73 111 C73 118 74 125 75 133 C78 190 101 261 157 261 C191 261 200 243 200 196 C200 188 200 181 199 172 C196 118 175 50 119 50 L119 50 Z " />
<glyph glyph-name="oneinferior" unicode="&#x2081;" horiz-adv-x="196" d="M106 0 L164 315 L121 315 L12 283 L2 226 L82 244 L36 0 L106 0 Z " />
<glyph glyph-name="twoinferior" unicode="&#x2082;" horiz-adv-x="271" d="M210 0 L218 55 L77 55 C161 119 235 181 235 244 C235 282 190 316 130 316 C95 316 63 308 26 287 L21 228 C47 248 79 259 104 259 C133 259 152 248 165 228 C146 175 84 117 -9 44 L-16 0 L210 0 Z " />
<glyph glyph-name="threeinferior" unicode="&#x2083;" horiz-adv-x="266" d="M-21 9 C-6 3 23 -5 63 -5 C130 -5 217 31 217 97 C217 126 181 153 148 165 L148 168 C180 182 230 217 230 252 C230 289 184 316 131 316 C93 316 56 308 27 290 L28 236 C53 252 81 259 106 259 C141 259 154 248 160 234 C145 211 115 188 72 176 L67 142 C105 131 131 116 148 88 C141 60 109 51 72 51 C46 51 21 56 -6 67 L-21 9 Z " />
<glyph glyph-name="fourinferior" unicode="&#x2084;" horiz-adv-x="283" d="M234 73 L243 126 L201 126 L235 313 L172 313 L-14 123 L-21 73 L120 73 L107 0 L178 0 L191 73 L234 73 Z M49 126 L150 229 L131 126 L49 126 Z " />
<glyph glyph-name="fiveinferior" unicode="&#x2085;" horiz-adv-x="263" d="M-15 9 C1 3 41 -5 71 -5 C145 -5 214 36 214 108 C214 159 184 189 138 201 C115 200 97 196 83 190 L99 252 L224 252 L233 310 L53 310 L12 144 L33 137 C54 145 81 151 111 154 C134 144 141 128 141 101 C141 68 114 51 80 51 C52 51 16 58 -7 66 L-15 9 Z " />
<glyph glyph-name="sixinferior" unicode="&#x2086;" horiz-adv-x="279" d="M249 306 C228 313 204 316 183 316 C79 316 0 214 0 112 C0 36 48 -5 97 -5 C157 -5 233 54 233 106 C233 155 208 188 173 201 C146 201 110 191 77 174 C82 190 89 205 98 218 C116 244 142 261 171 261 C193 261 212 259 238 251 L249 306 Z M141 150 C158 136 163 122 163 102 C163 78 140 53 108 45 C78 55 69 83 69 119 L69 125 C95 139 119 149 141 150 L141 150 Z " />
<glyph glyph-name="seveninferior" unicode="&#x2087;" horiz-adv-x="237" d="M9 253 L152 253 L0 7 L4 0 L65 0 L239 288 L233 310 L17 310 L9 253 Z " />
<glyph glyph-name="eightinferior" unicode="&#x2088;" horiz-adv-x="288" d="M257 246 C257 281 210 316 151 316 C86 316 28 270 28 228 C28 203 52 179 80 156 C34 138 -11 107 -11 69 C-11 35 29 -5 91 -5 C163 -5 235 26 235 83 C235 111 207 139 175 164 C219 184 257 216 257 246 L257 246 Z M169 73 C153 56 129 47 101 47 C79 47 57 57 44 74 C56 98 75 117 106 136 C136 113 164 91 169 73 L169 73 Z M93 240 C109 259 126 265 141 265 C164 265 183 258 194 238 C185 223 172 204 145 186 C119 206 96 225 93 240 L93 240 Z " />
<glyph glyph-name="nineinferior" unicode="&#x2089;" horiz-adv-x="279" d="M-5 5 C16 -2 40 -5 61 -5 C165 -5 244 97 244 199 C244 275 196 316 147 316 C87 316 11 257 11 205 C11 156 36 123 71 110 C98 110 134 120 166 136 C161 120 154 106 146 93 C128 67 102 50 73 50 C51 50 32 52 6 60 L-5 5 Z M103 161 C86 175 81 189 81 209 C81 233 104 258 136 266 C166 256 175 228 175 192 L175 185 C149 171 125 162 103 161 L103 161 Z " />
<glyph glyph-name="plus.inferior" unicode="&#x208a;" horiz-adv-x="314" d="M-6 124 L105 124 L85 9 L141 9 L161 124 L273 124 L283 181 L171 181 L192 294 L135 294 L115 181 L5 181 L-6 124 Z " />
<glyph glyph-name="minus.inferior" unicode="&#x208b;" horiz-adv-x="349" d="M12 124 L291 124 L301 181 L22 181 L12 124 Z " />
<glyph glyph-name="equal.inferior" unicode="&#x208c;" horiz-adv-x="336" d="M0 58 L266 58 L276 115 L10 115 L0 58 Z M24 189 L290 189 L300 246 L34 246 L24 189 Z " />
<glyph glyph-name="parenleft.inferior" unicode="&#x208d;" horiz-adv-x="180" d="M125 -92 C108 -70 64 2 64 107 C64 291 182 413 217 447 L149 447 C114 415 -3 294 -3 106 C-3 -12 42 -69 60 -93 L125 -92 Z " />
<glyph glyph-name="parenright.inferior" unicode="&#x208e;" horiz-adv-x="180" d="M27 446 C44 424 88 352 88 247 C88 62 -30 -59 -65 -93 L3 -93 C38 -62 155 60 155 247 C155 366 110 423 92 447 L27 446 Z " />
<glyph glyph-name="a.inferior" unicode="&#x2090;" horiz-adv-x="340" d="M250 0 L307 313 L234 313 L231 297 C206 308 182 315 165 315 C116 315 77 286 52 254 C22 218 5 135 5 68 C5 43 8 20 12 0 L85 0 L194 92 L178 0 L250 0 Z M83 70 C82 80 81 91 81 101 C81 162 99 224 128 257 C156 260 186 253 221 238 L206 155 L94 67 L83 70 Z " />
<glyph glyph-name="e.inferior" unicode="&#x2091;" horiz-adv-x="299" d="M244 81 L219 123 C178 94 132 70 98 60 L89 63 C84 82 82 101 82 120 C147 145 235 183 272 211 L276 279 C245 302 195 315 161 315 C135 315 112 308 94 296 C75 285 59 271 46 255 C20 220 4 156 4 96 C4 62 10 27 21 -1 L80 -6 C146 16 211 55 244 81 L244 81 Z M129 258 C153 262 185 254 205 241 L205 229 C175 205 126 185 86 168 C93 206 109 239 129 258 L129 258 Z " />
<glyph glyph-name="o.inferior" unicode="&#x2092;" horiz-adv-x="321" d="M133 45 C115 45 99 52 91 57 C82 74 77 95 77 117 C76 173 100 236 144 265 C166 263 183 259 195 253 C204 235 209 214 209 194 C208 135 177 77 133 45 L133 45 Z M99 -5 C151 -5 199 20 232 56 C266 95 285 147 286 195 C286 283 249 315 184 315 C130 314 80 289 47 248 C16 210 0 158 0 106 C0 31 35 -5 99 -5 L99 -5 Z " />
<glyph glyph-name="x.inferior" unicode="&#x2093;" horiz-adv-x="310" d="M236 309 L148 203 L103 309 L25 309 L97 149 L-40 0 L43 0 L121 97 L160 0 L243 0 L174 151 L320 309 L236 309 Z " />
<glyph glyph-name="h.inferior" unicode="&#x2095;" horiz-adv-x="350" d="M71 0 L104 181 C146 218 192 240 212 247 L226 244 C230 228 227 200 220 160 L192 0 L264 0 L297 178 C302 208 305 232 305 251 C305 295 291 315 258 315 C216 315 166 284 115 242 L159 480 L87 480 L-3 0 L71 0 Z " />
<glyph glyph-name="k.inferior" unicode="&#x2096;" horiz-adv-x="333" d="M70 0 L103 180 C143 214 191 245 215 254 L224 251 C219 211 203 183 157 142 L154 124 L187 0 L270 0 L228 133 C278 176 300 216 303 275 C304 283 303 295 303 305 L222 315 C196 305 153 280 116 248 L159 480 L86 480 L-3 0 L70 0 Z " />
<glyph glyph-name="l.inferior" unicode="&#x2097;" horiz-adv-x="168" d="M73 0 L161 480 L91 480 L1 0 L73 0 Z " />
<glyph glyph-name="m.inferior" unicode="&#x2098;" horiz-adv-x="523" d="M364 0 L437 0 L470 178 C474 200 476 219 476 237 C476 285 461 315 427 315 C384 315 340 284 294 242 C293 287 277 315 245 315 C203 315 161 286 116 245 L128 309 L55 309 L-2 0 L71 0 L104 179 C142 216 180 239 201 247 L213 244 C215 236 217 226 217 214 C217 199 215 182 211 160 L182 0 L254 0 L288 178 L288 181 C326 217 363 239 383 247 L396 244 C397 236 398 227 398 215 C398 200 397 182 393 160 L364 0 Z " />
<glyph glyph-name="n.inferior" unicode="&#x2099;" horiz-adv-x="352" d="M71 0 L104 181 C147 218 193 240 213 247 L226 244 C231 228 227 200 221 160 L192 0 L264 0 L297 178 C303 208 305 232 305 252 C305 296 291 315 259 315 C217 315 166 284 115 242 L128 309 L55 309 L-2 0 L71 0 Z " />
<glyph glyph-name="p.inferior" unicode="&#x209a;" horiz-adv-x="351" d="M62 -142 L88 -1 C104 -4 120 -6 136 -6 C240 -6 315 88 315 193 C315 254 294 315 246 315 C220 315 181 303 141 287 L145 309 L73 309 L62 251 C39 239 19 227 5 217 L18 171 C27 177 38 183 50 190 L-11 -142 L62 -142 Z M208 253 L218 252 C227 238 238 217 238 180 C238 113 201 49 155 49 C137 49 121 51 99 58 L130 227 C154 237 181 246 208 253 L208 253 Z " />
<glyph glyph-name="s.inferior" unicode="&#x209b;" horiz-adv-x="266" d="M240 298 C213 310 184 315 153 315 C80 315 23 272 23 218 C23 179 52 148 90 123 C119 104 133 91 140 73 C142 72 142 71 143 69 C132 56 114 52 89 52 C59 52 18 62 -7 74 L-18 14 C7 1 45 -5 82 -5 C118 -5 151 4 175 20 C199 35 214 59 214 88 C214 127 176 152 136 179 C113 195 95 214 96 234 C96 238 97 243 99 248 C113 256 132 258 151 257 C177 255 204 248 226 236 L240 298 Z " />
<glyph glyph-name="t.inferior" unicode="&#x209c;" horiz-adv-x="256" d="M16 259 L62 259 L15 8 L68 -5 C125 9 185 49 213 71 L190 118 C170 105 139 82 109 72 L102 77 L134 259 L224 259 L232 309 L143 309 L158 391 L87 391 L71 309 L25 309 L16 259 Z " />
<glyph glyph-name="colonsign" unicode="&#x20a1;" horiz-adv-x="620" d="M160 -92 L233 -92 L281 -10 L293 -10 C366 -10 450 10 482 29 L499 127 C445 96 389 84 335 83 L662 640 L590 640 L533 544 C522 549 508 554 491 558 L539 640 L467 640 L424 567 C415 568 406 568 396 568 C185 568 48 418 48 220 C48 145 73 85 119 46 L38 -92 L110 -92 L171 13 C184 7 198 2 213 -1 L160 -92 Z M164 237 C164 406 266 472 370 475 L180 151 C169 174 164 202 164 237 L164 237 Z M224 104 L439 470 C454 467 468 463 482 457 L266 88 C250 92 236 97 224 104 L224 104 Z " />
<glyph glyph-name="cruzeiro" unicode="&#x20a2;" horiz-adv-x="568" d="M537 318 C524 335 501 352 478 352 C455 352 405 312 358 259 L373 344 L284 344 L239 92 C189 110 162 150 162 221 C162 389 262 478 375 478 C434 478 483 468 533 432 L551 536 C521 549 480 568 392 568 C184 568 45 408 45 219 C45 61 149 -10 288 -10 C361 -10 431 10 462 29 L478 123 C424 93 381 82 326 81 L342 172 C386 215 426 241 450 255 L493 225 L537 318 Z " />
<glyph glyph-name="franc" unicode="&#x20a3;" horiz-adv-x="648" d="M34 0 L143 0 L188 261 L347 261 L301 0 L396 0 L424 157 C471 205 509 233 537 249 L584 217 L632 322 C618 340 594 357 568 357 C542 357 491 312 441 253 L458 349 L204 349 L226 474 L488 474 L504 565 L133 565 L34 0 Z " />
<glyph glyph-name="lira" unicode="&#x20a4;" horiz-adv-x="479" d="M324 568 C238 568 131 523 116 390 L113 369 L75 369 L62 299 L112 299 C112 282 113 266 114 250 L54 250 L41 180 L114 180 C113 177 113 174 113 171 C109 135 98 111 80 84 L26 84 L12 0 L394 0 L408 84 L172 84 C188 115 200 146 206 178 L206 180 L347 180 L361 250 L211 250 C211 266 210 283 209 299 L368 299 L382 369 L206 369 C206 378 207 387 208 396 C215 448 256 480 313 480 C367 480 404 464 440 429 L459 535 C426 555 384 568 324 568 L324 568 Z " />
<glyph glyph-name="mill" unicode="&#x20a5;" horiz-adv-x="697" d="M356 0 L391 199 L440 303 C481 336 518 357 539 366 L556 362 C558 353 559 342 559 328 C559 304 556 272 549 235 L509 0 L605 0 L650 261 C657 298 661 331 661 359 C661 422 642 461 597 461 C565 461 532 448 499 427 L570 574 L487 574 L407 407 C399 441 380 461 348 461 C290 461 231 419 169 360 L185 452 L90 452 L11 0 L106 0 L153 268 C207 321 262 354 291 366 L308 362 C310 354 311 343 311 330 C311 306 308 274 301 235 L287 154 L157 -120 L239 -120 L296 0 L356 0 Z " />
<glyph glyph-name="naira" unicode="&#x20a6;" horiz-adv-x="704" d="M64 0 L166 0 L199 192 L340 192 L449 0 L545 0 L578 192 L648 192 L661 264 L591 264 L600 319 L668 319 L682 392 L613 392 L642 557 L541 557 L512 392 L356 392 L256 557 L162 557 L133 392 L71 392 L57 319 L120 319 L110 264 L51 264 L38 192 L98 192 L64 0 Z M400 319 L499 319 L489 264 L433 264 L400 319 Z M221 319 L269 319 L300 264 L212 264 L221 319 Z " />
<glyph glyph-name="pesetas" unicode="&#x20a7;" horiz-adv-x="1145" d="M506 380 L576 380 L511 13 L577 -8 C654 12 737 70 777 102 L761 20 C796 2 847 -8 899 -8 C948 -8 993 6 1027 31 C1060 55 1081 90 1081 130 C1081 187 1027 228 974 263 C945 282 916 312 911 343 C910 350 910 357 913 365 C934 377 960 382 989 381 C1026 380 1066 368 1097 350 L1118 436 C1080 455 1040 461 997 461 C893 461 818 394 818 319 C818 262 859 219 912 182 C945 159 975 136 987 109 L991 101 C975 81 943 70 906 70 C872 70 817 84 779 103 C779 103 779 104 780 104 L749 169 C721 149 675 115 635 100 L625 107 L671 380 L795 380 L807 452 L683 452 L703 572 L610 572 L588 452 L518 452 L506 380 Z M31 0 L139 0 L174 202 L228 202 C388 202 502 285 502 425 C502 524 425 583 323 583 L133 583 L31 0 Z M274 496 C355 496 390 469 390 407 C390 313 311 289 222 289 L189 289 L226 496 L274 496 Z " />
<glyph glyph-name="rupee" unicode="&#x20a8;" horiz-adv-x="826" d="M32 0 L141 0 L174 188 L226 188 C241 188 256 188 270 190 C282 167 297 140 297 139 C333 64 400 -8 572 -8 C621 -8 668 5 704 29 C739 53 761 87 761 130 C761 187 708 228 655 263 C623 284 595 313 594 342 C594 349 595 356 598 364 C619 375 645 380 673 378 C709 378 746 368 778 350 L798 436 C760 455 721 461 678 461 C577 461 499 397 499 319 C499 262 540 219 592 182 C630 156 652 136 663 113 C666 109 667 105 668 101 C652 80 615 69 573 69 C499 69 438 98 398 167 L370 215 C453 253 495 325 495 407 C495 503 430 564 329 564 L132 564 L32 0 Z M269 478 C352 478 380 451 380 394 C380 297 307 274 223 274 L189 274 L225 478 L269 478 Z " />
<glyph glyph-name="won" unicode="&#x20a9;" horiz-adv-x="929" d="M930 557 L820 557 L750 407 L596 407 L583 557 L466 557 L393 407 L244 407 L237 557 L119 557 L129 407 L71 407 L58 338 L134 338 L137 293 L51 293 L38 224 L142 224 L158 0 L284 0 L397 224 L498 224 L523 0 L650 0 L763 224 L874 224 L888 293 L797 293 L820 338 L895 338 L907 407 L854 407 L930 557 Z M602 338 L717 338 L696 293 L606 293 L602 338 Z M247 338 L360 338 L338 293 L249 293 L247 338 Z M619 137 L611 224 L664 224 L624 137 L619 137 Z M257 136 L253 224 L304 224 L262 136 L257 136 Z M455 338 L485 338 L490 293 L432 293 L455 338 Z " />
<glyph glyph-name="sheqel" unicode="&#x20aa;" horiz-adv-x="700" d="M32 0 L96 0 L174 442 L313 442 C400 442 423 418 423 367 C423 339 416 302 408 256 L407 250 L472 250 L476 276 C487 340 496 392 496 432 C496 523 452 557 300 557 L130 557 L32 0 Z M202 0 L335 0 C568 0 600 89 637 299 L683 557 L618 557 L572 292 C550 169 540 116 380 116 L286 116 L323 322 L258 322 L202 0 Z " />
<glyph glyph-name="dong" unicode="&#x20ab;" horiz-adv-x="488" d="M230 582 L362 582 L346 503 C315 516 288 524 263 524 C195 524 148 488 112 449 C71 404 46 301 46 217 C46 187 50 157 56 133 L149 133 L291 244 L268 133 L362 133 L456 582 L504 582 L514 647 L470 647 L486 722 L392 722 L376 647 L240 647 L230 582 Z M9 0 L377 0 L391 81 L22 81 L9 0 Z M144 215 C143 228 142 241 142 253 C142 331 170 417 212 459 C252 463 284 453 331 434 L307 320 L159 211 L144 215 Z " />
<glyph glyph-name="Euro" unicode="&#x20ac;" horiz-adv-x="615" d="M52 318 L108 318 C102 296 99 274 97 251 L42 251 L29 186 L97 186 C111 52 218 -10 354 -10 C415 -10 480 5 527 29 L543 123 C487 95 430 80 371 80 C294 80 234 111 217 186 L417 186 L429 251 L213 251 C215 275 218 297 224 318 L440 318 L452 383 L252 383 C292 447 357 478 424 478 C483 478 532 468 582 432 L600 536 C570 549 529 568 442 568 C295 568 184 496 131 383 L65 383 L52 318 Z " />
<glyph glyph-name="uni20AD" unicode="&#x20ad;" horiz-adv-x="588" d="M368 0 L497 0 L357 245 L507 245 L521 323 L348 323 L599 557 L483 557 L246 323 L215 323 L257 557 L148 557 L107 323 L56 323 L42 245 L93 245 L51 0 L159 0 L202 245 L233 245 L368 0 Z " />
<glyph glyph-name="uni20AE" unicode="&#x20ae;" horiz-adv-x="557" d="M71 467 L260 467 L235 323 L122 277 L109 202 L222 248 L213 198 L100 152 L87 78 L200 124 L178 0 L286 0 L316 172 L426 218 L440 292 L329 246 L338 296 L448 342 L462 417 L351 371 L368 467 L560 467 L576 557 L87 557 L71 467 Z " />
<glyph glyph-name="uni20B1" unicode="&#x20b1;" horiz-adv-x="593" d="M73 389 L125 389 L117 345 L68 345 L57 290 L108 290 L57 0 L166 0 L196 175 L248 175 C363 175 445 222 487 290 L559 290 L570 345 L510 345 C514 359 517 374 518 389 L575 389 L586 444 L513 444 C495 513 432 557 346 557 L155 557 L135 444 L84 444 L73 389 Z M397 345 L226 345 L233 389 L403 389 C403 372 401 357 397 345 L397 345 Z M246 263 L212 263 L216 290 L359 290 C330 270 289 264 246 263 L246 263 Z M291 469 C331 469 362 460 380 444 L243 444 L247 469 L291 469 Z " />
<glyph glyph-name="uni20B4" unicode="&#x20b4;" horiz-adv-x="552" d="M529 382 L485 382 C497 404 504 430 504 460 C504 551 435 593 333 593 C265 593 197 577 155 557 L158 472 C197 492 243 506 304 506 C360 506 398 485 398 449 C398 420 386 399 367 382 L66 382 L54 318 L234 318 C201 305 168 291 141 273 L47 273 L35 209 L77 209 C64 185 56 158 56 124 C56 23 136 -10 258 -10 C317 -10 380 4 439 27 L437 115 C377 88 312 79 251 79 C201 79 164 97 164 135 C164 167 178 190 203 209 L498 209 L510 273 L343 273 C373 286 401 300 425 318 L517 318 L529 382 Z " />
<glyph glyph-name="uni20B9" unicode="&#x20b9;" horiz-adv-x="531" d="M426 0 L312 228 C373 254 418 298 437 356 L489 356 L516 429 L447 429 C445 459 433 484 414 503 L517 503 L549 583 L108 583 L93 503 L220 503 C292 503 326 474 334 429 L85 429 L72 356 L326 356 C302 304 239 283 167 283 L59 283 L44 202 L174 202 C186 202 199 202 211 203 L303 0 L426 0 Z " />
<glyph glyph-name="uni2113" unicode="&#x2113;" horiz-adv-x="423" d="M184 -8 C246 -8 281 8 323 36 L309 103 C288 89 258 74 228 74 C195 74 182 86 182 123 C182 137 183 156 187 180 L196 228 C218 241 239 253 258 265 C385 346 442 406 442 485 C442 558 380 593 316 593 C216 593 140 521 119 399 L90 236 L7 189 L20 137 L78 168 C78 168 69 113 69 95 C69 26 120 -8 184 -8 L184 -8 Z M209 301 L231 427 C241 480 263 513 296 513 C325 513 336 485 336 465 C336 417 311 381 244 327 C233 319 222 310 209 301 L209 301 Z " />
<glyph glyph-name="uni2116" unicode="&#x2116;" horiz-adv-x="966" d="M604 136 L891 136 L902 200 L615 200 L604 136 Z M765 242 C878 242 948 331 948 442 C948 518 905 563 825 563 C709 563 640 474 640 364 C640 289 689 242 765 242 L765 242 Z M778 308 C739 308 726 332 726 365 C726 421 745 495 809 495 C849 495 861 470 861 439 C861 377 840 308 778 308 L778 308 Z M31 0 L132 0 L204 408 L207 408 L433 0 L519 0 L621 583 L520 583 L452 193 L449 193 L226 583 L134 583 L31 0 Z " />
<glyph glyph-name="uni2117" unicode="&#x2117;" horiz-adv-x="701" d="M357 -14 C524 -14 660 117 660 289 C660 460 524 592 357 592 C190 592 54 460 54 289 C54 117 190 -14 357 -14 L357 -14 Z M357 21 C207 21 89 139 89 289 C89 439 207 557 357 557 C507 557 624 439 624 289 C624 139 507 21 357 21 L357 21 Z M243 109 L327 109 L327 217 L361 217 C472 217 527 266 527 343 C527 419 470 458 387 458 L243 458 L243 109 Z M352 392 C408 391 439 382 439 342 C439 293 404 283 347 284 L327 284 L327 392 L352 392 Z " />
<glyph glyph-name="servicemark" unicode="&#x2120;" horiz-adv-x="677" d="M278 294 L341 294 L394 491 L396 491 L417 294 L483 294 L574 487 L576 487 L562 294 L629 294 L647 583 L567 583 L476 394 L473 394 L450 583 L360 583 L278 294 Z M71 306 C96 294 122 288 151 288 C217 288 275 317 275 380 C275 465 166 466 166 503 C166 521 186 532 211 532 C239 532 271 522 286 509 L297 569 C281 579 252 587 216 587 C158 587 101 556 101 494 C101 418 210 414 210 375 C209 354 193 345 167 345 C136 345 101 355 81 367 L71 306 Z " />
<glyph glyph-name="trademark" unicode="&#x2122;" horiz-adv-x="718" d="M318 294 L382 294 L435 491 L437 491 L457 294 L523 294 L614 487 L616 487 L602 294 L669 294 L687 583 L608 583 L517 394 L514 394 L490 583 L401 583 L318 294 Z M103 527 L192 527 L151 294 L218 294 L259 527 L350 527 L360 583 L112 583 L103 527 Z " />
<glyph glyph-name="Omega" unicode="&#x2126;" horiz-adv-x="678" d="M396 593 C193 593 61 439 61 280 C61 202 98 125 154 93 L153 91 L24 91 L9 0 L245 0 L260 87 C208 130 175 194 175 266 C175 400 261 505 381 505 C480 505 522 440 522 353 C522 246 456 146 363 87 L348 0 L581 0 L596 91 L463 91 L464 93 C562 144 642 256 642 373 C642 492 558 593 396 593 L396 593 Z " />
<glyph glyph-name="estimated" unicode="&#x212e;" horiz-adv-x="579" d="M297 -8 C381 -8 461 21 511 92 L474 127 C431 74 374 49 300 49 C221 49 169 103 169 166 L169 210 L529 210 L529 261 C528 392 435 465 294 465 C140 465 41 357 41 217 C41 60 157 -8 297 -8 L297 -8 Z M169 263 L169 285 C169 363 212 418 294 418 C369 418 399 358 399 285 L399 263 L169 263 Z " />
<glyph glyph-name="onethird" unicode="&#x2153;" horiz-adv-x="671" d="M174 259 L232 574 L189 574 L80 542 L70 485 L150 503 L104 259 L174 259 Z M371 9 C386 3 415 -5 455 -5 C522 -5 609 31 609 97 C609 126 573 153 540 165 L540 168 C572 182 622 217 622 252 C622 289 576 316 523 316 C485 316 448 308 419 290 L420 236 C445 252 473 259 498 259 C533 259 546 248 552 234 C537 211 507 188 464 176 L459 142 C497 131 523 116 540 88 C533 60 501 51 464 51 C438 51 413 56 386 67 L371 9 Z M112 0 L553 547 L553 552 L489 552 L52 5 L52 0 L112 0 Z " />
<glyph glyph-name="twothirds" unicode="&#x2154;" horiz-adv-x="708" d="M276 264 L284 319 L143 319 C227 383 301 445 301 508 C301 546 256 580 196 580 C161 580 129 572 92 551 L87 492 C113 512 145 523 170 523 C199 523 218 512 231 492 C212 439 150 381 57 308 L50 264 L276 264 Z M407 9 C422 3 451 -5 491 -5 C558 -5 645 31 645 97 C645 126 609 153 576 165 L576 168 C608 182 658 217 658 252 C658 289 612 316 559 316 C521 316 484 308 455 290 L456 236 C481 252 509 259 534 259 C569 259 582 248 588 234 C573 211 543 188 500 176 L495 142 C533 131 559 116 576 88 C569 60 537 51 500 51 C474 51 449 56 422 67 L407 9 Z M174 0 L615 547 L615 552 L551 552 L114 5 L114 0 L174 0 Z " />
<glyph glyph-name="uni215B" unicode="&#x215b;" horiz-adv-x="674" d="M629 246 C629 281 582 316 523 316 C458 316 400 270 400 228 C400 203 424 179 452 156 C406 138 361 107 361 69 C361 35 401 -5 463 -5 C535 -5 607 26 607 83 C607 111 579 139 547 164 C591 184 629 216 629 246 L629 246 Z M120 0 L561 547 L561 552 L497 552 L60 5 L60 0 L120 0 Z M174 259 L232 574 L189 574 L80 542 L70 485 L150 503 L104 259 L174 259 Z M541 73 C525 56 501 47 473 47 C451 47 429 57 416 74 C428 98 447 117 478 136 C508 113 536 91 541 73 L541 73 Z M465 240 C481 259 498 265 513 265 C536 265 555 258 566 238 C557 223 544 204 517 186 C491 206 468 225 465 240 L465 240 Z " />
<glyph glyph-name="arrowleft" unicode="&#x2190;" horiz-adv-x="551" d="M260 91 L167 220 L551 220 L551 309 L168 309 L260 439 L163 439 L35 264 L163 91 L260 91 Z " />
<glyph glyph-name="arrowup" unicode="&#x2191;" horiz-adv-x="484" d="M415 440 L242 569 L67 441 L67 343 L197 436 L197 53 L286 53 L286 437 L415 343 L415 440 Z " />
<glyph glyph-name="arrowright" unicode="&#x2192;" horiz-adv-x="549" d="M387 91 L516 264 L388 439 L290 439 L383 309 L0 309 L0 220 L384 220 L290 91 L387 91 Z " />
<glyph glyph-name="arrowdown" unicode="&#x2193;" horiz-adv-x="484" d="M67 181 L241 53 L415 182 L415 278 L285 185 L285 569 L197 569 L197 185 L67 278 L67 181 Z " />
<glyph glyph-name="uni2196" unicode="&#x2196;" horiz-adv-x="484" d="M271 526 L58 494 L25 280 L94 211 L120 369 L391 98 L454 161 L182 432 L340 457 L271 526 Z " />
<glyph glyph-name="uni2197" unicode="&#x2197;" horiz-adv-x="484" d="M453 279 L420 493 L207 525 L138 457 L296 431 L24 160 L87 97 L358 368 L384 211 L453 279 Z " />
<glyph glyph-name="uni2198" unicode="&#x2198;" horiz-adv-x="484" d="M210 96 L424 128 L456 342 L387 411 L361 253 L90 525 L27 462 L298 191 L141 165 L210 96 Z " />
<glyph glyph-name="uni2199" unicode="&#x2199;" horiz-adv-x="484" d="M30 342 L62 129 L276 96 L345 165 L187 191 L458 462 L395 525 L124 253 L99 411 L30 342 Z " />
<glyph glyph-name="partialdiff" unicode="&#x2202;" horiz-adv-x="461" d="M167 -8 C244 -8 301 30 347 88 C397 151 424 236 424 319 C424 473 371 600 228 701 L170 632 C235 579 280 521 304 457 C292 459 279 460 265 460 C217 460 173 442 136 413 C66 357 24 257 24 159 C24 45 78 -8 167 -8 L167 -8 Z M327 331 C327 211 282 123 207 66 C184 67 155 75 143 82 C130 106 125 136 125 168 C125 251 162 345 225 388 C226 388 246 386 249 385 C274 382 302 377 325 369 C326 357 327 344 327 331 L327 331 Z " />
<glyph glyph-name="Delta" unicode="&#x2206;" horiz-adv-x="563" d="M485 0 L498 77 L402 583 L295 583 L6 75 L-6 0 L485 0 Z M317 459 L322 459 L382 91 L115 91 L317 459 Z " />
<glyph glyph-name="product" unicode="&#x220f;" horiz-adv-x="702" d="M146 -207 L269 492 L517 492 L394 -207 L503 -207 L626 492 L710 492 L726 583 L94 583 L78 492 L160 492 L37 -207 L146 -207 Z " />
<glyph glyph-name="summation" unicode="&#x2211;" horiz-adv-x="477" d="M-44 -207 L362 -207 L378 -113 L92 -113 L320 211 L207 492 L466 492 L482 583 L98 583 L84 502 L202 207 L-29 -123 L-44 -207 Z " />
<glyph glyph-name="minus" unicode="&#x2212;" horiz-adv-x="520" d="M62 260 L458 260 L471 332 L75 332 L62 260 Z " />
<glyph glyph-name="radical" unicode="&#x221a;" horiz-adv-x="526" d="M55 450 L130 0 L233 0 L589 674 L487 674 L212 128 L208 128 L159 450 L55 450 Z " />
<glyph glyph-name="infinity" unicode="&#x221e;" horiz-adv-x="802" d="M253 505 C137 505 50 373 50 248 C50 163 90 81 178 81 C262 81 337 160 398 232 C433 161 481 81 565 81 C684 81 765 214 765 335 C765 422 722 505 640 505 C555 505 480 425 419 355 C384 425 337 505 253 505 L253 505 Z M192 157 C150 157 128 206 128 260 C128 344 178 429 239 429 C299 429 340 351 368 293 C320 236 251 157 192 157 L192 157 Z M578 157 C517 157 477 236 449 293 C497 351 565 429 626 429 C667 429 688 382 688 330 C688 244 638 157 578 157 L578 157 Z " />
<glyph glyph-name="integral" unicode="&#x222b;" horiz-adv-x="398" d="M103 -26 C90 -97 62 -128 10 -128 C-11 -128 -27 -127 -48 -122 L-63 -207 C-49 -211 -25 -213 -1 -213 C95 -213 174 -156 194 -43 L285 468 C298 542 323 574 378 574 C398 574 414 573 434 568 L450 656 C436 660 411 662 387 662 C292 662 216 605 196 492 L103 -26 Z " />
<glyph glyph-name="approxequal" unicode="&#x2248;" horiz-adv-x="491" d="M330 310 C377 310 422 338 451 369 L423 427 C398 406 373 396 351 396 C288 397 268 435 196 435 C148 435 102 404 78 378 L102 322 C123 337 150 350 179 350 C236 350 267 310 330 310 L330 310 Z M300 125 C347 125 392 153 421 184 L393 242 C368 221 343 211 321 211 C258 212 238 250 166 250 C118 250 72 219 48 193 L72 137 C93 152 120 165 149 165 C206 165 237 125 300 125 L300 125 Z " />
<glyph glyph-name="notequal" unicode="&#x2260;" horiz-adv-x="478" d="M73 359 L267 359 L178 238 L53 238 L39 168 L126 168 L20 23 L87 23 L194 168 L407 168 L421 238 L245 238 L335 359 L441 359 L454 428 L386 428 L487 565 L418 565 L317 428 L86 428 L73 359 Z " />
<glyph glyph-name="lessequal" unicode="&#x2264;" horiz-adv-x="514" d="M15 26 L415 26 L428 102 L28 102 L15 26 Z M427 135 L441 214 L171 335 L484 455 L498 535 L75 363 L66 307 L427 135 Z " />
<glyph glyph-name="greaterequal" unicode="&#x2265;" horiz-adv-x="511" d="M430 102 L31 102 L17 26 L417 26 L430 102 Z M467 307 L476 363 L115 535 L100 455 L370 336 L58 214 L44 135 L467 307 Z " />
<glyph glyph-name="uni2460" unicode="&#x2460;" horiz-adv-x="691" d="M345 0 C506 0 637 130 637 291 C637 452 506 583 345 583 C184 583 54 452 54 291 C54 130 184 0 345 0 L345 0 Z M345 36 C206 36 94 152 94 291 C94 430 206 547 345 547 C484 547 597 430 597 291 C597 152 484 36 345 36 L345 36 Z M391 139 L391 452 L344 452 L238 422 L238 369 L309 380 L309 139 L391 139 Z " />
<glyph glyph-name="uni2461" unicode="&#x2461;" horiz-adv-x="691" d="M345 0 C506 0 637 130 637 291 C637 452 506 583 345 583 C184 583 54 452 54 291 C54 130 184 0 345 0 L345 0 Z M345 36 C206 36 94 152 94 291 C94 430 206 547 345 547 C484 547 597 430 597 291 C597 152 484 36 345 36 L345 36 Z M229 139 L463 139 L463 199 L335 199 L335 202 C410 258 455 309 455 364 C455 428 400 454 339 454 C303 454 261 445 235 424 L235 366 C270 391 301 396 327 396 C354 396 377 383 377 355 C377 300 308 248 229 185 L229 139 Z " />
<glyph glyph-name="uni2462" unicode="&#x2462;" horiz-adv-x="691" d="M345 0 C506 0 637 130 637 291 C637 452 506 583 345 583 C184 583 54 452 54 291 C54 130 184 0 345 0 L345 0 Z M345 36 C206 36 94 152 94 291 C94 430 206 547 345 547 C484 547 597 430 597 291 C597 152 484 36 345 36 L345 36 Z M331 135 C402 135 462 166 462 233 C462 270 437 303 390 308 L390 310 C418 317 449 340 449 380 C449 428 401 454 341 454 C305 454 271 444 247 425 L247 367 C277 389 306 394 328 394 C354 394 372 384 372 362 C372 335 339 317 296 314 L296 272 C359 270 387 259 387 229 C387 206 367 191 334 191 C306 191 277 194 244 210 L244 150 C263 142 290 135 331 135 L331 135 Z " />
<glyph glyph-name="uni2463" unicode="&#x2463;" horiz-adv-x="691" d="M345 0 C506 0 637 130 637 291 C637 452 506 583 345 583 C184 583 54 452 54 291 C54 130 184 0 345 0 L345 0 Z M345 36 C206 36 94 152 94 291 C94 430 206 547 345 547 C484 547 597 430 597 291 C597 152 484 36 345 36 L345 36 Z M329 139 L409 139 L409 211 L452 211 L452 264 L409 264 L409 452 L334 452 L190 262 L190 211 L329 211 L329 139 Z M254 264 L329 365 L329 264 L254 264 Z " />
<glyph glyph-name="uni2464" unicode="&#x2464;" horiz-adv-x="691" d="M345 0 C506 0 637 130 637 291 C637 452 506 583 345 583 C184 583 54 452 54 291 C54 130 184 0 345 0 L345 0 Z M345 36 C206 36 94 152 94 291 C94 430 206 547 345 547 C484 547 597 430 597 291 C597 152 484 36 345 36 L345 36 Z M323 135 C379 135 453 162 453 238 C453 305 403 335 323 335 L309 335 L315 393 L446 393 L446 449 L260 449 L245 280 C260 282 278 284 294 284 C352 284 378 268 378 236 C378 209 355 190 323 190 C296 190 267 195 235 210 L235 150 C259 142 287 135 323 135 L323 135 Z " />
<glyph glyph-name="uni2465" unicode="&#x2465;" horiz-adv-x="691" d="M345 0 C506 0 637 130 637 291 C637 452 506 583 345 583 C184 583 54 452 54 291 C54 130 184 0 345 0 L345 0 Z M345 36 C206 36 94 152 94 291 C94 430 206 547 345 547 C484 547 597 430 597 291 C597 152 484 36 345 36 L345 36 Z M366 399 C387 399 408 396 437 382 L437 442 C413 450 384 454 363 454 C264 454 206 374 206 273 C206 191 246 135 330 135 C411 135 459 187 459 248 C459 312 414 341 355 341 C326 341 304 334 288 326 C296 375 319 399 366 399 L366 399 Z M333 291 C365 291 381 275 381 242 C381 209 365 188 333 188 C296 188 284 217 284 269 L284 280 C297 286 312 291 333 291 L333 291 Z " />
<glyph glyph-name="uni2466" unicode="&#x2466;" horiz-adv-x="691" d="M345 0 C506 0 637 130 637 291 C637 452 506 583 345 583 C184 583 54 452 54 291 C54 130 184 0 345 0 L345 0 Z M345 36 C206 36 94 152 94 291 C94 430 206 547 345 547 C484 547 597 430 597 291 C597 152 484 36 345 36 L345 36 Z M326 136 L458 409 L458 446 L235 446 L235 390 L382 390 L254 139 L255 136 L326 136 Z " />
<glyph glyph-name="uni2467" unicode="&#x2467;" horiz-adv-x="691" d="M345 0 C506 0 637 130 637 291 C637 452 506 583 345 583 C184 583 54 452 54 291 C54 130 184 0 345 0 L345 0 Z M345 36 C206 36 94 152 94 291 C94 430 206 547 345 547 C484 547 597 430 597 291 C597 152 484 36 345 36 L345 36 Z M467 223 C467 259 442 280 411 296 C440 314 460 342 460 374 C460 426 406 451 340 451 C275 451 223 413 223 364 C223 332 241 309 266 293 C235 275 214 245 214 216 C214 162 259 132 336 132 C404 132 467 170 467 223 L467 223 Z M389 363 C389 348 382 330 367 314 C330 328 297 341 297 367 C297 390 315 397 340 397 C374 397 389 383 389 363 L389 363 Z M286 225 C286 245 291 257 304 272 C346 252 389 241 389 216 C389 190 364 182 339 182 C310 182 286 195 286 225 L286 225 Z " />
<glyph glyph-name="uni2468" unicode="&#x2468;" horiz-adv-x="691" d="M345 0 C506 0 637 130 637 291 C637 452 506 583 345 583 C184 583 54 452 54 291 C54 130 184 0 345 0 L345 0 Z M345 36 C206 36 94 152 94 291 C94 430 206 547 345 547 C484 547 597 430 597 291 C597 152 484 36 345 36 L345 36 Z M312 186 C291 186 269 190 240 204 L240 145 C265 135 294 132 315 132 C415 132 472 210 472 313 C472 396 432 451 348 451 C267 451 220 399 220 338 C220 272 266 244 323 244 C351 244 373 251 390 259 C382 210 358 186 312 186 L312 186 Z M345 294 C313 294 296 310 296 345 C296 382 314 398 344 398 C381 398 394 369 395 316 L395 305 C382 299 366 294 345 294 L345 294 Z " />
<glyph glyph-name="uni2469" unicode="&#x2469;" horiz-adv-x="691" d="M345 0 C506 0 637 130 637 291 C637 452 506 583 345 583 C184 583 54 452 54 291 C54 130 184 0 345 0 L345 0 Z M345 36 C206 36 94 152 94 291 C94 430 206 547 345 547 C484 547 597 430 597 291 C597 152 484 36 345 36 L345 36 Z M280 142 L280 444 L238 444 L141 415 L141 365 L207 376 L207 142 L280 142 Z M432 138 C510 138 556 195 556 293 C556 376 526 445 437 445 C357 445 313 385 313 284 C313 194 350 138 432 138 L432 138 Z M435 190 C391 190 384 238 384 288 C384 338 390 392 432 392 C476 392 484 336 484 291 C484 241 481 190 435 190 L435 190 Z " />
<glyph glyph-name="uni24CA" unicode="&#x24ca;" horiz-adv-x="701" d="M357 -14 C524 -14 660 117 660 289 C660 460 524 592 357 592 C190 592 54 460 54 289 C54 117 190 -14 357 -14 L357 -14 Z M357 21 C207 21 89 139 89 289 C89 439 207 557 357 557 C507 557 624 439 624 289 C624 139 507 21 357 21 L357 21 Z M359 104 C442 104 523 153 523 258 L523 428 L438 428 L438 266 C438 205 408 176 359 176 C308 176 279 201 279 261 L279 428 L194 428 L194 247 C194 149 269 104 359 104 L359 104 Z " />
<glyph glyph-name="uni25B2" unicode="&#x25b2;" horiz-adv-x="581" d="M520 21 L252 449 L-16 21 L520 21 Z " />
<glyph glyph-name="uni25B6" unicode="&#x25b6;" horiz-adv-x="538" d="M87 -33 L515 235 L87 503 L87 -33 Z " />
<glyph glyph-name="uni25B8" unicode="&#x25b8;" horiz-adv-x="379" d="M353 218 L86 486 L86 -50 L353 218 Z " />
<glyph glyph-name="uni25BA" unicode="&#x25ba;" horiz-adv-x="836" d="M806 218 L84 486 L84 -50 L806 218 Z " />
<glyph glyph-name="uni25BC" unicode="&#x25bc;" horiz-adv-x="590" d="M57 448 L325 20 L593 448 L57 448 Z " />
<glyph glyph-name="uni25C0" unicode="&#x25c0;" horiz-adv-x="538" d="M444 -33 L444 503 L16 235 L444 -33 Z " />
<glyph glyph-name="uni25C2" unicode="&#x25c2;" horiz-adv-x="379" d="M281 -50 L281 486 L14 219 L281 -50 Z " />
<glyph glyph-name="uni25C4" unicode="&#x25c4;" horiz-adv-x="835" d="M738 -50 L738 486 L16 218 L738 -50 Z " />
<glyph glyph-name="lozenge" unicode="&#x25ca;" horiz-adv-x="487" d="M157 0 L242 0 L466 286 L345 583 L260 583 L33 286 L157 0 Z M215 82 L129 288 L286 498 L371 285 L215 82 Z " />
<glyph glyph-name="uni2610" unicode="&#x2610;" horiz-adv-x="780" d="M105 0 L688 0 L688 583 L105 583 L105 0 Z M176 68 L176 512 L617 512 L617 68 L176 68 Z " />
<glyph glyph-name="uni2611" unicode="&#x2611;" horiz-adv-x="781" d="M105 -4 L688 -4 L688 579 L105 579 L105 -4 Z M176 64 L176 508 L617 508 L617 64 L176 64 Z M282 93 L301 93 C419 219 517 366 590 475 L583 483 C554 480 507 461 496 444 C447 367 359 228 313 172 C290 222 286 286 285 321 L265 327 C252 324 222 295 212 283 C209 260 246 121 282 93 L282 93 Z " />
<glyph glyph-name="uni261A" unicode="&#x261a;" horiz-adv-x="994" d="M66 453 C49 391 103 386 103 386 L309 400 L364 365 C364 365 288 272 284 246 C284 246 300 200 337 186 C337 186 347 129 389 126 C389 126 398 88 444 74 L520 101 C520 101 596 88 740 140 L929 126 L929 365 L752 401 C752 401 702 443 639 459 L337 509 L66 453 Z " />
<glyph glyph-name="uni261B" unicode="&#x261b;" horiz-adv-x="929" d="M653 509 L351 459 C288 443 238 401 238 401 L61 365 L61 126 L250 140 C394 88 470 101 470 101 L546 74 C592 88 601 126 601 126 C643 129 653 186 653 186 C690 200 706 246 706 246 C702 272 626 365 626 365 L681 400 L887 386 C887 386 941 391 924 453 L653 509 Z " />
<glyph glyph-name="uni261C" unicode="&#x261c;" horiz-adv-x="994" d="M66 453 C49 391 103 386 103 386 L309 400 L364 365 C364 365 288 272 284 246 C284 246 300 200 337 186 C337 186 347 129 389 126 C389 126 398 88 444 74 L520 101 C520 101 596 88 740 140 L929 126 L929 365 L752 401 C752 401 702 443 639 459 L337 509 L66 453 Z M690 186 C618 157 515 154 515 154 L446 127 C422 129 418 157 418 157 L469 196 L533 215 L514 255 L450 231 L396 184 C382 186 378 208 378 208 L445 269 L495 291 L478 326 L426 300 L361 232 C350 231 339 249 339 249 L392 318 L444 369 L333 426 L147 418 C147 418 127 428 137 442 L336 467 L619 414 C664 398 712 360 712 360 L874 326 L874 178 L690 186 Z " />
<glyph glyph-name="uni261D" unicode="&#x261d;" horiz-adv-x="544" d="M73 473 L123 171 C139 108 181 58 181 58 L217 -119 L456 -119 L442 70 C494 214 481 290 481 290 L508 366 C494 412 456 421 456 421 C453 463 396 473 396 473 C382 510 336 526 336 526 C310 522 217 446 217 446 L182 501 L196 707 C196 707 191 761 129 744 L73 473 Z M404 -64 L256 -64 L222 98 C222 98 184 146 168 191 L115 474 L140 673 C154 683 164 663 164 663 L156 477 L213 366 L264 418 L333 471 C333 471 351 460 350 449 L282 384 L256 332 L291 315 L313 365 L374 432 C374 432 396 428 398 414 L351 360 L327 296 L367 277 L386 341 L425 392 C425 392 453 388 455 364 L428 295 C428 295 425 192 396 120 L404 -64 Z " />
<glyph glyph-name="uni261E" unicode="&#x261e;" horiz-adv-x="929" d="M653 509 L351 459 C288 443 238 401 238 401 L61 365 L61 126 L250 140 C394 88 470 101 470 101 L546 74 C592 88 601 126 601 126 C643 129 653 186 653 186 C690 200 706 246 706 246 C702 272 626 365 626 365 L681 400 L887 386 C887 386 941 391 924 453 L653 509 Z M116 178 L116 326 L278 360 C278 360 326 398 371 414 L654 467 L853 442 C863 428 843 418 843 418 L657 426 L546 369 L598 318 L651 249 C651 249 640 231 629 232 L564 300 L512 326 L495 291 L545 269 L612 208 C612 208 608 186 594 184 L540 231 L476 255 L457 215 L521 196 L572 157 C572 157 568 129 544 127 L475 154 C475 154 372 157 300 186 L116 178 Z " />
<glyph glyph-name="uni261F" unicode="&#x261f;" horiz-adv-x="543" d="M493 169 L443 471 C427 534 385 584 385 584 L349 761 L110 761 L124 572 C72 428 85 352 85 352 L58 276 C72 230 110 221 110 221 C113 179 170 169 170 169 C184 132 230 116 230 116 C256 120 349 196 349 196 L384 141 L370 -65 C370 -65 375 -119 437 -102 L493 169 Z M162 706 L310 706 L344 544 C344 544 382 496 398 451 L451 168 L426 -31 C412 -41 402 -21 402 -21 L410 165 L353 276 L302 224 L233 171 C233 171 215 182 216 193 L284 258 L310 310 L275 327 L253 277 L192 210 C192 210 170 214 168 228 L215 282 L239 346 L199 365 L180 301 L141 250 C141 250 113 254 111 278 L138 347 C138 347 141 450 170 522 L162 706 Z " />
<glyph glyph-name="uni267E" unicode="&#x267e;" horiz-adv-x="701" d="M357 -14 C524 -14 660 117 660 289 C660 460 524 592 357 592 C190 592 54 460 54 289 C54 117 190 -14 357 -14 L357 -14 Z M357 21 C207 21 89 139 89 289 C89 439 207 557 357 557 C507 557 624 439 624 289 C624 139 507 21 357 21 L357 21 Z M254 412 C199 412 163 354 163 292 C163 230 195 171 254 171 C296 171 331 216 356 253 C382 215 413 171 459 171 C519 171 549 231 549 292 C549 353 515 412 459 412 C416 412 380 367 356 330 C330 370 299 412 254 412 L254 412 Z M254 227 C230 227 217 257 217 292 C217 327 230 358 254 358 C281 358 310 321 331 292 C311 263 280 227 254 227 L254 227 Z M459 227 C432 227 402 263 382 292 C401 321 432 358 459 358 C482 358 496 327 496 292 C496 257 482 227 459 227 L459 227 Z " />
<glyph glyph-name="uni2713" unicode="&#x2713;" horiz-adv-x="419" d="M113 93 L132 93 C250 219 348 366 421 475 L414 483 C385 480 338 461 327 444 C278 367 190 228 144 172 C121 222 117 286 116 321 L96 327 C83 324 53 295 43 283 C40 260 77 121 113 93 L113 93 Z " />
<glyph glyph-name="uni2776" unicode="&#x2776;" horiz-adv-x="691" d="M345 0 C506 0 637 130 637 291 C637 452 506 583 345 583 C184 583 54 452 54 291 C54 130 184 0 345 0 L345 0 Z M309 139 L309 380 L238 369 L238 422 L344 452 L391 452 L391 139 L309 139 Z " />
<glyph glyph-name="uni2777" unicode="&#x2777;" horiz-adv-x="691" d="M345 0 C506 0 637 130 637 291 C637 452 506 583 345 583 C184 583 54 452 54 291 C54 130 184 0 345 0 L345 0 Z M229 185 C308 248 377 300 377 355 C377 383 354 396 327 396 C301 396 270 391 235 366 L235 424 C261 445 303 454 339 454 C400 454 455 428 455 364 C455 310 410 258 336 203 C336 202 335 200 335 199 L463 199 L463 139 L229 139 L229 185 Z " />
<glyph glyph-name="uni2778" unicode="&#x2778;" horiz-adv-x="691" d="M345 0 C506 0 637 130 637 291 C637 452 506 583 345 583 C184 583 54 452 54 291 C54 130 184 0 345 0 L345 0 Z M331 135 C290 135 263 142 244 150 L244 210 C277 194 306 191 334 191 C367 191 387 206 387 229 C387 259 359 270 296 272 L296 314 C339 317 372 335 372 362 C372 384 354 394 328 394 C306 394 277 389 247 367 L247 425 C271 444 305 454 341 454 C401 454 449 428 449 380 C449 340 418 317 390 310 L390 308 C437 303 462 270 462 233 C462 166 402 135 331 135 L331 135 Z " />
<glyph glyph-name="uni2779" unicode="&#x2779;" horiz-adv-x="691" d="M345 0 C506 0 637 130 637 291 C637 452 506 583 345 583 C184 583 54 452 54 291 C54 130 184 0 345 0 L345 0 Z M329 211 L190 211 L190 262 L334 452 L409 452 L409 264 L452 264 L452 211 L409 211 L409 139 L329 139 L329 211 Z M329 264 L329 365 L254 264 L329 264 Z " />
<glyph glyph-name="uni277A" unicode="&#x277a;" horiz-adv-x="691" d="M345 0 C506 0 637 130 637 291 C637 452 506 583 345 583 C184 583 54 452 54 291 C54 130 184 0 345 0 L345 0 Z M323 135 C287 135 259 142 235 150 L235 210 C267 195 296 190 323 190 C355 190 378 209 378 236 C378 268 352 284 294 284 C278 284 260 282 245 280 L260 449 L446 449 L446 393 L315 393 L309 335 L323 335 C403 335 453 305 453 238 C453 162 379 135 323 135 L323 135 Z " />
<glyph glyph-name="uni277B" unicode="&#x277b;" horiz-adv-x="691" d="M345 0 C506 0 637 130 637 291 C637 452 506 583 345 583 C184 583 54 452 54 291 C54 130 184 0 345 0 L345 0 Z M366 399 C319 399 296 375 288 326 C304 334 326 341 355 341 C414 341 459 312 459 248 C459 187 411 135 330 135 C246 135 206 191 206 273 C206 374 264 454 363 454 C384 454 413 450 437 442 L437 382 C408 396 387 399 366 399 L366 399 Z M333 291 C312 291 297 286 284 280 L284 270 C284 217 296 188 333 188 C365 188 381 209 381 242 C381 275 365 291 333 291 L333 291 Z " />
<glyph glyph-name="uni277C" unicode="&#x277c;" horiz-adv-x="691" d="M345 0 C506 0 637 130 637 291 C637 452 506 583 345 583 C184 583 54 452 54 291 C54 130 184 0 345 0 L345 0 Z M255 136 L254 139 L382 390 L235 390 L235 446 L458 446 L458 409 L326 136 L255 136 Z " />
<glyph glyph-name="uni277D" unicode="&#x277d;" horiz-adv-x="691" d="M345 0 C506 0 637 130 637 291 C637 452 506 583 345 583 C184 583 54 452 54 291 C54 130 184 0 345 0 L345 0 Z M467 223 C467 170 404 132 336 132 C259 132 214 162 214 216 C214 245 235 275 266 293 C241 309 223 332 223 364 C223 413 275 451 340 451 C406 451 460 426 460 374 C460 342 440 314 411 296 C442 280 467 259 467 223 L467 223 Z M389 363 C389 383 374 397 340 397 C315 397 297 390 297 367 C297 341 330 328 367 314 C382 330 389 348 389 363 L389 363 Z M286 225 C286 195 310 182 339 182 C364 182 389 190 389 216 C389 241 346 252 304 272 C291 257 286 245 286 225 L286 225 Z " />
<glyph glyph-name="uni277E" unicode="&#x277e;" horiz-adv-x="691" d="M345 0 C506 0 637 130 637 291 C637 452 506 583 345 583 C184 583 54 452 54 291 C54 130 184 0 345 0 L345 0 Z M312 186 C358 186 382 210 390 259 C373 251 351 244 323 244 C266 244 220 272 220 338 C220 399 267 451 348 451 C432 451 472 396 472 313 C472 210 415 132 315 132 C294 132 265 135 240 145 L240 204 C269 190 291 186 312 186 L312 186 Z M345 294 C366 294 382 299 395 305 L395 316 C395 369 382 398 344 398 C314 398 296 382 296 345 C296 310 313 294 345 294 L345 294 Z " />
<glyph glyph-name="uni277F" unicode="&#x277f;" horiz-adv-x="691" d="M345 0 C506 0 637 130 637 291 C637 452 506 583 345 583 C184 583 54 452 54 291 C54 130 184 0 345 0 L345 0 Z M207 142 L207 376 L141 365 L141 415 L238 444 L280 444 L280 142 L207 142 Z M432 138 C350 138 313 194 313 284 C313 385 357 445 437 445 C526 445 556 376 556 293 C556 195 510 138 432 138 L432 138 Z M435 190 C481 190 484 241 484 291 C484 336 476 392 432 392 C390 392 384 338 384 288 C384 238 391 190 435 190 L435 190 Z " />
<glyph glyph-name="uni2780" unicode="&#x2780;" horiz-adv-x="691" d="M345 0 C506 0 637 130 637 291 C637 452 506 583 345 583 C184 583 54 452 54 291 C54 130 184 0 345 0 L345 0 Z M345 36 C206 36 94 152 94 291 C94 430 206 547 345 547 C484 547 597 430 597 291 C597 152 484 36 345 36 L345 36 Z M392 141 L392 445 L347 445 L245 416 L245 366 L314 376 L314 141 L392 141 Z " />
<glyph glyph-name="uni2781" unicode="&#x2781;" horiz-adv-x="691" d="M345 0 C506 0 637 130 637 291 C637 452 506 583 345 583 C184 583 54 452 54 291 C54 130 184 0 345 0 L345 0 Z M345 36 C206 36 94 152 94 291 C94 430 206 547 345 547 C484 547 597 430 597 291 C597 152 484 36 345 36 L345 36 Z M232 141 L459 141 L459 198 L333 198 C334 199 335 200 335 201 C407 255 452 307 452 360 C452 421 398 447 339 447 C304 447 264 438 238 418 L238 362 C272 387 303 392 328 392 C354 392 377 379 377 351 C377 298 310 246 232 184 L232 141 Z " />
<glyph glyph-name="uni2782" unicode="&#x2782;" horiz-adv-x="691" d="M345 0 C506 0 637 130 637 291 C637 452 506 583 345 583 C184 583 54 452 54 291 C54 130 184 0 345 0 L345 0 Z M345 36 C206 36 94 152 94 291 C94 430 206 547 345 547 C484 547 597 430 597 291 C597 152 484 36 345 36 L345 36 Z M331 136 C401 136 459 166 459 232 C459 268 434 299 389 304 L389 307 C415 313 445 336 445 375 C445 421 400 447 342 447 C307 447 274 437 251 418 L251 362 C280 384 308 390 329 390 C354 390 373 379 373 358 C373 331 340 313 298 310 L298 270 C359 268 386 257 386 228 C386 205 367 190 335 190 C307 190 280 193 248 209 L248 152 C266 143 291 136 331 136 L331 136 Z " />
<glyph glyph-name="uni2783" unicode="&#x2783;" horiz-adv-x="691" d="M345 0 C506 0 637 130 637 291 C637 452 506 583 345 583 C184 583 54 452 54 291 C54 130 184 0 345 0 L345 0 Z M345 36 C206 36 94 152 94 291 C94 430 206 547 345 547 C484 547 597 430 597 291 C597 152 484 36 345 36 L345 36 Z M329 142 L406 142 L406 212 L448 212 L448 263 L406 263 L406 446 L334 446 L194 261 L194 212 L329 212 L329 142 Z M256 263 L329 362 L329 263 L256 263 Z " />
<glyph glyph-name="uni2784" unicode="&#x2784;" horiz-adv-x="691" d="M345 0 C506 0 637 130 637 291 C637 452 506 583 345 583 C184 583 54 452 54 291 C54 130 184 0 345 0 L345 0 Z M345 36 C206 36 94 152 94 291 C94 430 206 547 345 547 C484 547 597 430 597 291 C597 152 484 36 345 36 L345 36 Z M325 137 C380 137 451 163 451 237 C451 302 403 332 325 332 C323 332 314 332 312 331 L318 388 L444 388 L444 442 L265 442 L250 278 C265 281 282 282 297 282 C354 282 379 267 379 235 C379 208 357 190 325 190 C300 190 271 195 241 209 L241 152 C263 143 290 137 325 137 L325 137 Z " />
<glyph glyph-name="uni2785" unicode="&#x2785;" horiz-adv-x="691" d="M345 0 C506 0 637 130 637 291 C637 452 506 583 345 583 C184 583 54 452 54 291 C54 130 184 0 345 0 L345 0 Z M345 36 C206 36 94 152 94 291 C94 430 206 547 345 547 C484 547 597 430 597 291 C597 152 484 36 345 36 L345 36 Z M367 394 C387 394 407 391 436 378 L436 435 C412 443 384 447 364 447 C268 447 212 369 212 271 C212 191 251 137 332 137 C410 137 457 188 457 247 C457 309 413 337 356 337 C327 337 306 330 290 322 C299 371 320 394 367 394 L367 394 Z M335 289 C367 289 382 272 382 240 C382 209 366 188 335 188 C298 188 287 217 286 267 L286 278 C299 284 314 289 335 289 L335 289 Z " />
<glyph glyph-name="uni2786" unicode="&#x2786;" horiz-adv-x="691" d="M345 0 C506 0 637 130 637 291 C637 452 506 583 345 583 C184 583 54 452 54 291 C54 130 184 0 345 0 L345 0 Z M345 36 C206 36 94 152 94 291 C94 430 206 547 345 547 C484 547 597 430 597 291 C597 152 484 36 345 36 L345 36 Z M328 140 L457 405 L457 442 L241 442 L241 388 L384 388 L259 143 L260 140 L328 140 Z " />
<glyph glyph-name="uni2787" unicode="&#x2787;" horiz-adv-x="691" d="M345 0 C506 0 637 130 637 291 C637 452 506 583 345 583 C184 583 54 452 54 291 C54 130 184 0 345 0 L345 0 Z M345 36 C206 36 94 152 94 291 C94 430 206 547 345 547 C484 547 597 430 597 291 C597 152 484 36 345 36 L345 36 Z M464 225 C464 260 439 280 410 295 C437 313 457 341 457 371 C457 422 405 447 341 447 C279 447 229 410 229 362 C229 331 246 309 270 293 C240 275 220 246 220 218 C220 166 263 137 337 137 C403 137 464 174 464 225 L464 225 Z M389 361 C389 346 382 328 367 313 C331 327 298 339 298 365 C298 388 316 395 341 395 C374 395 389 381 389 361 L389 361 Z M288 227 C288 246 293 258 306 273 C347 254 389 243 389 218 C389 193 365 185 341 185 C312 185 288 197 288 227 L288 227 Z " />
<glyph glyph-name="uni2788" unicode="&#x2788;" horiz-adv-x="691" d="M345 0 C506 0 637 130 637 291 C637 452 506 583 345 583 C184 583 54 452 54 291 C54 130 184 0 345 0 L345 0 Z M345 36 C206 36 94 152 94 291 C94 430 206 547 345 547 C484 547 597 430 597 291 C597 152 484 36 345 36 L345 36 Z M314 189 C293 189 272 192 244 206 L244 149 C268 140 295 137 316 137 C413 137 468 212 468 313 C468 392 429 447 348 447 C270 447 224 396 224 336 C224 273 269 246 324 246 C351 246 373 252 390 260 C382 212 358 189 314 189 L314 189 Z M345 293 C313 293 297 309 297 343 C297 380 314 396 344 396 C381 396 394 367 394 316 L394 305 C381 298 365 293 345 293 L345 293 Z " />
<glyph glyph-name="uni278A" unicode="&#x278a;" horiz-adv-x="691" d="M345 0 C506 0 637 130 637 291 C637 452 506 583 345 583 C184 583 54 452 54 291 C54 130 184 0 345 0 L345 0 Z M305 142 L305 377 L236 367 L236 417 L338 446 L383 446 L383 142 L305 142 Z " />
<glyph glyph-name="uni278B" unicode="&#x278b;" horiz-adv-x="691" d="M345 0 C506 0 637 130 637 291 C637 452 506 583 345 583 C184 583 54 452 54 291 C54 130 184 0 345 0 L345 0 Z M232 184 C310 246 377 297 377 350 C377 378 354 391 328 391 C303 391 272 386 238 361 L238 417 C264 437 304 446 339 446 C398 446 452 421 452 359 C452 306 408 256 337 202 C336 201 335 198 334 198 L459 198 L459 140 L232 140 L232 184 Z " />
<glyph glyph-name="uni278C" unicode="&#x278c;" horiz-adv-x="691" d="M345 0 C506 0 637 130 637 291 C637 452 506 583 345 583 C184 583 54 452 54 291 C54 130 184 0 345 0 L345 0 Z M331 136 C291 136 266 143 248 152 L248 209 C280 193 307 190 335 190 C367 190 386 205 386 228 C386 257 359 268 298 270 L298 310 C340 313 373 331 373 358 C373 379 354 390 329 390 C308 390 280 384 251 362 L251 418 C274 437 307 447 342 447 C400 447 445 421 445 375 C445 336 415 313 389 307 L389 304 C434 299 459 268 459 232 C459 166 401 136 331 136 L331 136 Z " />
<glyph glyph-name="uni278D" unicode="&#x278d;" horiz-adv-x="691" d="M345 0 C506 0 637 130 637 291 C637 452 506 583 345 583 C184 583 54 452 54 291 C54 130 184 0 345 0 L345 0 Z M329 211 L194 211 L194 261 L334 445 L406 445 L406 262 L448 262 L448 211 L406 211 L406 141 L329 141 L329 211 Z M329 262 L329 361 L256 262 L329 262 Z " />
<glyph glyph-name="uni278E" unicode="&#x278e;" horiz-adv-x="691" d="M345 0 C506 0 637 130 637 291 C637 452 506 583 345 583 C184 583 54 452 54 291 C54 130 184 0 345 0 L345 0 Z M326 137 C291 137 263 144 241 152 L241 209 C271 195 300 190 326 190 C358 190 380 208 380 235 C380 267 354 282 297 282 C282 282 265 281 250 279 L265 443 L445 443 L445 389 L318 389 L312 332 L325 332 C403 332 452 302 452 237 C452 164 380 137 326 137 L326 137 Z " />
<glyph glyph-name="uni278F" unicode="&#x278f;" horiz-adv-x="691" d="M345 0 C506 0 637 130 637 291 C637 452 506 583 345 583 C184 583 54 452 54 291 C54 130 184 0 345 0 L345 0 Z M367 394 C320 394 299 370 290 322 C306 329 327 337 356 337 C413 337 457 308 457 247 C457 187 410 136 332 136 C251 136 212 191 212 270 C212 368 268 447 364 447 C384 447 412 443 436 434 L436 377 C407 391 387 394 367 394 L367 394 Z M335 289 C314 289 299 284 286 277 L286 268 C287 216 298 187 335 187 C366 187 382 208 382 240 C382 272 367 289 335 289 L335 289 Z " />
<glyph glyph-name="uni2790" unicode="&#x2790;" horiz-adv-x="691" d="M345 0 C506 0 637 130 637 291 C637 452 506 583 345 583 C184 583 54 452 54 291 C54 130 184 0 345 0 L345 0 Z M259 141 L258 144 L383 388 L240 388 L240 442 L455 442 L455 406 L327 141 L259 141 Z " />
<glyph glyph-name="uni2791" unicode="&#x2791;" horiz-adv-x="691" d="M345 0 C506 0 637 130 637 291 C637 452 506 583 345 583 C184 583 54 452 54 291 C54 130 184 0 345 0 L345 0 Z M463 225 C463 174 402 137 336 137 C262 137 219 166 219 218 C219 246 239 275 269 293 C245 309 228 331 228 362 C228 410 278 447 341 447 C404 447 456 422 456 371 C456 341 437 313 409 295 C438 280 463 260 463 225 L463 225 Z M388 361 C388 381 374 395 340 395 C315 395 298 388 298 365 C298 339 331 327 366 313 C381 328 388 346 388 361 L388 361 Z M287 227 C287 197 312 185 340 185 C364 185 389 193 389 218 C389 243 346 254 305 273 C292 258 287 246 287 227 L287 227 Z " />
<glyph glyph-name="uni2792" unicode="&#x2792;" horiz-adv-x="691" d="M345 0 C506 0 637 130 637 291 C637 452 506 583 345 583 C184 583 54 452 54 291 C54 130 184 0 345 0 L345 0 Z M314 189 C358 189 382 212 390 260 C373 252 352 246 324 246 C270 246 224 273 224 336 C224 396 270 447 348 447 C429 447 468 392 468 313 C468 212 413 137 317 137 C295 137 268 140 244 149 L244 206 C273 192 293 189 314 189 L314 189 Z M346 293 C366 293 382 298 394 305 L394 315 C394 367 381 396 345 396 C314 396 297 380 297 343 C297 309 314 293 346 293 L346 293 Z " />
<glyph glyph-name="uni301A" unicode="&#x301a;" horiz-adv-x="388" d="M-6 -181 L272 -181 L285 -109 L220 -109 L346 606 L411 606 L423 679 L145 679 L-6 -181 Z M213 606 L265 606 L139 -109 L87 -109 L213 606 Z " />
<glyph glyph-name="uni301B" unicode="&#x301b;" horiz-adv-x="389" d="M392 679 L114 679 L101 606 L166 606 L39 -109 L-25 -109 L-37 -181 L241 -181 L392 679 Z M298 606 L172 -109 L120 -109 L246 606 L298 606 Z " />
<glyph glyph-name="apple" unicode="&#xf8ff;" horiz-adv-x="1225" d="M382 318 L393 318 L393 328 L403 328 L403 338 L413 338 L413 347 L423 347 L423 388 L412 388 L412 348 L393 348 L393 388 L382 388 L382 347 L392 347 L392 329 L382 329 L382 318 Z M342 338 L363 338 L363 348 L343 348 L343 377 L363 377 L363 388 L343 388 L343 398 L332 398 L332 388 L322 388 L322 377 L332 377 L332 347 L342 347 L342 338 Z M582 338 L603 338 L603 348 L583 348 L583 377 L603 377 L603 388 L583 388 L583 398 L572 398 L572 388 L562 388 L562 377 L572 377 L572 347 L582 347 L582 338 Z M692 338 L723 338 L723 348 L693 348 L693 357 L723 357 L723 378 L713 378 L713 388 L692 388 L692 378 L682 378 L682 347 L692 347 L692 338 Z M872 338 L903 338 L903 348 L873 348 L873 357 L903 357 L903 378 L893 378 L893 388 L872 388 L872 378 L862 378 L862 347 L872 347 L872 338 Z M102 347 L113 347 L113 357 L123 357 L123 368 L113 368 L113 378 L102 378 L102 368 L92 368 L92 357 L102 357 L102 347 Z M172 347 L183 347 L183 357 L193 357 L193 368 L183 368 L183 378 L172 378 L172 368 L162 368 L162 357 L172 357 L172 347 Z M262 347 L273 347 L273 357 L283 357 L283 368 L273 368 L273 378 L262 378 L262 368 L252 368 L252 357 L262 357 L262 347 Z M512 338 L533 338 L533 347 L543 347 L543 378 L533 378 L533 388 L512 388 L512 378 L502 378 L502 347 L512 347 L512 338 Z M622 338 L633 338 L633 377 L652 377 L652 338 L663 338 L663 378 L653 378 L653 388 L633 388 L633 408 L622 408 L622 338 Z M952 347 L963 347 L963 357 L973 357 L973 368 L963 368 L963 378 L952 378 L952 368 L942 368 L942 357 L952 357 L952 347 Z M1042 347 L1053 347 L1053 357 L1063 357 L1063 368 L1053 368 L1053 378 L1042 378 L1042 368 L1032 368 L1032 357 L1042 357 L1042 347 Z M1112 347 L1123 347 L1123 357 L1133 357 L1133 368 L1123 368 L1123 378 L1112 378 L1112 368 L1102 368 L1102 357 L1112 357 L1112 347 Z M442 318 L453 318 L453 338 L473 338 L473 347 L483 347 L483 378 L473 378 L473 388 L442 388 L442 318 Z M772 318 L783 318 L783 388 L752 388 L752 378 L742 378 L742 347 L752 347 L752 338 L772 338 L772 318 Z M812 338 L843 338 L843 388 L832 388 L832 348 L813 348 L813 388 L802 388 L802 347 L812 347 L812 338 Z M232 328 L243 328 L243 338 L253 338 L253 348 L242 348 L242 338 L232 338 L232 328 Z M242 377 L253 377 L253 388 L243 388 L243 398 L232 398 L232 387 L242 387 L242 377 Z M292 328 L303 328 L303 338 L293 338 L293 348 L282 348 L282 338 L292 338 L292 328 Z M282 377 L293 377 L293 387 L303 387 L303 398 L292 398 L292 388 L282 388 L282 377 Z M922 328 L933 328 L933 338 L943 338 L943 348 L932 348 L932 338 L922 338 L922 328 Z M932 377 L943 377 L943 388 L933 388 L933 398 L922 398 L922 387 L932 387 L932 377 Z M982 328 L993 328 L993 338 L983 338 L983 348 L972 348 L972 338 L982 338 L982 328 Z M972 377 L983 377 L983 387 L993 387 L993 398 L982 398 L982 388 L972 388 L972 377 Z M152 338 L163 338 L163 348 L152 348 L152 338 Z M152 377 L163 377 L163 388 L152 388 L152 377 Z M192 338 L203 338 L203 348 L192 348 L192 338 Z M192 377 L203 377 L203 388 L192 388 L192 377 Z M453 348 L453 377 L472 377 L472 348 L453 348 Z M513 348 L513 377 L532 377 L532 348 L513 348 Z M693 368 L693 377 L712 377 L712 368 L693 368 Z M753 348 L753 377 L772 377 L772 348 L753 348 Z M873 368 L873 377 L892 377 L892 368 L873 368 Z M1022 338 L1033 338 L1033 348 L1022 348 L1022 338 Z M1022 377 L1033 377 L1033 388 L1022 388 L1022 377 Z M1062 338 L1073 338 L1073 348 L1062 348 L1062 338 Z M1062 377 L1073 377 L1073 388 L1062 388 L1062 377 Z " />
<glyph glyph-name="f_f" unicode="&#xfb00;" horiz-adv-x="547" d="M41 380 L121 380 L56 12 C41 -76 17 -109 1 -128 C-40 -130 -78 -121 -108 -110 L-131 -194 C-103 -206 -59 -212 -25 -212 C5 -212 32 -198 56 -176 C88 -189 156 -212 213 -212 C303 -212 372 -87 389 10 L454 380 L553 380 L565 452 L466 452 L471 476 C477 517 491 545 518 573 C532 575 550 575 569 572 C589 570 610 566 630 558 L657 650 C636 656 613 659 592 659 C549 659 508 650 473 631 C446 642 400 659 354 659 C303 659 255 647 217 619 C179 592 151 549 140 486 L134 452 L53 452 L41 380 Z M236 -131 C190 -134 140 -120 108 -109 C129 -71 144 -28 151 10 L215 380 L359 380 L294 12 C279 -76 252 -112 236 -131 L236 -131 Z M378 486 L372 452 L228 452 L232 476 C239 517 255 549 282 576 C309 580 331 578 352 573 C369 569 385 564 401 557 C391 537 383 513 378 486 L378 486 Z " />
<glyph glyph-name="fi" unicode="&#xfb01;" horiz-adv-x="488" d="M41 380 L120 380 L56 12 C41 -76 17 -109 1 -128 C-40 -130 -78 -121 -108 -110 L-131 -194 C-103 -206 -59 -212 -25 -212 C65 -212 134 -87 151 10 L215 380 L354 380 L288 0 L383 0 L462 452 L228 452 L233 481 C239 521 254 551 283 577 C295 578 309 578 328 578 C354 577 385 572 409 562 L435 654 C412 660 384 663 359 663 C308 663 258 652 219 625 C180 598 152 555 140 490 L133 452 L53 452 L41 380 Z " />
<glyph glyph-name="fl" unicode="&#xfb02;" horiz-adv-x="493" d="M383 0 L497 653 L422 653 C403 656 383 658 364 658 C313 658 262 646 221 619 C182 592 152 548 140 484 L134 452 L53 452 L41 380 L121 380 L56 12 C41 -76 17 -109 1 -128 C-40 -130 -78 -121 -108 -110 L-131 -194 C-103 -206 -59 -212 -25 -212 C65 -212 134 -87 151 10 L216 380 L309 380 L322 452 L229 452 L233 474 C239 515 254 544 283 570 C292 571 304 572 319 572 C328 572 338 572 348 571 C361 570 375 568 387 566 L288 0 L383 0 Z " />
<glyph glyph-name="f_f_i" unicode="&#xfb03;" horiz-adv-x="723" d="M619 0 L698 452 L466 452 L471 479 C477 519 492 548 521 575 C535 577 556 577 579 575 C603 572 628 568 647 560 L673 652 C650 658 622 661 597 661 C554 661 514 654 479 636 L474 633 C446 644 401 661 354 661 C303 661 255 649 217 621 C179 594 152 551 141 488 L134 452 L53 452 L41 380 L121 380 L56 12 C41 -76 17 -109 1 -128 C-40 -130 -78 -121 -108 -110 L-131 -194 C-103 -206 -59 -212 -25 -212 C4 -212 32 -198 56 -176 C88 -191 153 -212 212 -212 C303 -212 372 -87 388 10 L453 380 L590 380 L524 0 L619 0 Z M294 12 C279 -76 252 -112 236 -131 C190 -134 140 -120 108 -109 C129 -71 144 -28 151 10 L215 380 L359 380 L294 12 Z M233 479 C240 519 255 551 283 578 C296 580 309 580 321 579 C352 577 377 570 401 560 C391 539 382 516 378 488 L371 452 L228 452 L233 479 Z " />
<glyph glyph-name="f_f_l" unicode="&#xfb04;" horiz-adv-x="729" d="M619 0 L734 653 L648 653 C630 656 609 657 591 657 C548 657 507 649 473 629 C445 641 400 657 353 657 C302 657 254 646 216 618 C178 591 151 548 140 484 L134 452 L53 452 L41 380 L121 380 L56 12 C41 -76 17 -109 1 -128 C-40 -130 -78 -121 -108 -110 L-131 -194 C-103 -206 -59 -212 -25 -212 C5 -212 32 -198 56 -176 C88 -189 156 -212 213 -212 C303 -212 372 -87 389 10 L453 380 L545 380 L558 452 L466 452 L470 475 C477 515 490 544 518 571 C531 573 550 574 571 572 C588 570 607 567 624 562 L524 0 L619 0 Z M215 380 L359 380 L294 12 C279 -76 252 -112 236 -131 C190 -134 140 -120 108 -109 C129 -71 144 -28 151 10 L215 380 Z M232 475 C239 515 254 548 282 575 C303 577 323 576 341 573 C362 569 382 563 401 556 C391 535 383 512 378 484 L372 452 L228 452 L232 475 Z " />
</font>
</defs>
</svg>
