<svg xmlns="http://www.w3.org/2000/svg">
<defs>
<font id="Greta Sans Cnd Std SmBld">
<font-face  font-family="Greta Sans Condensed Std" units-per-em="1000" ascent="710" descent="-290" font-style="normal" font-weight="600" font-stretch="condensed" cap-height="583" x-height="452" underline-position="-75" underline-thickness="50" />

<glyph glyph-name="NULL" d="" />
<glyph glyph-name="CR" unicode="&#xd;" horiz-adv-x="250" d="" />
<glyph glyph-name="space" unicode="&#x20;" horiz-adv-x="175" d="" />
<glyph glyph-name="exclam" unicode="&#x21;" horiz-adv-x="213" d="M55 341 L66 195 L147 195 L157 340 L157 583 L55 583 L55 341 Z M108 -7 C145 -7 171 22 171 54 C171 89 146 119 108 119 C71 119 44 89 44 54 C44 22 71 -7 108 -7 L108 -7 Z " />
<glyph glyph-name="quotedbl" unicode="&#x22;" horiz-adv-x="300" d="M45 461 L120 461 L135 670 L45 670 L45 461 Z M177 461 L252 461 L267 670 L177 670 L177 461 Z " />
<glyph glyph-name="numbersign" unicode="&#x23;" horiz-adv-x="447" d="M54 371 L123 371 L98 206 L32 206 L23 141 L88 141 L66 0 L136 0 L158 141 L242 141 L220 0 L291 0 L313 141 L383 141 L392 206 L323 206 L348 371 L415 371 L424 436 L358 436 L381 583 L310 583 L287 436 L203 436 L226 583 L156 583 L133 436 L63 436 L54 371 Z M193 371 L277 371 L252 206 L168 206 L193 371 Z " />
<glyph glyph-name="dollar" unicode="&#x24;" horiz-adv-x="355" d="M203 -81 L203 -4 C280 10 328 67 328 166 C328 271 266 309 205 338 C156 362 128 385 128 434 C128 473 156 505 204 505 C243 505 280 495 310 476 L310 566 C284 580 248 588 203 590 L203 662 L152 662 L152 586 C76 571 30 510 30 430 C30 348 79 300 132 273 C190 243 231 223 231 161 C231 109 202 81 156 81 C113 81 69 94 36 111 L36 16 C73 1 114 -7 152 -8 L152 -81 L203 -81 Z " />
<glyph glyph-name="percent" unicode="&#x25;" horiz-adv-x="539" d="M130 283 C196 283 236 340 236 436 C236 543 195 592 130 592 C64 592 24 532 24 434 C24 332 64 283 130 283 L130 283 Z M132 339 C104 339 93 372 93 435 C93 505 103 535 129 535 C156 535 166 507 166 433 C166 369 156 339 132 339 L132 339 Z M279 360 L337 360 L442 566 L442 583 L362 583 L279 360 Z M409 -9 C475 -9 515 48 515 144 C515 250 474 300 409 300 C343 300 303 240 303 142 C303 40 343 -9 409 -9 L409 -9 Z M410 47 C383 47 372 80 372 143 C372 209 381 243 407 243 C435 243 445 215 445 141 C445 76 435 47 410 47 L410 47 Z M271 234 L212 234 L105 17 L105 0 L185 0 L271 234 Z " />
<glyph glyph-name="ampersand" unicode="&#x26;" horiz-adv-x="529" d="M497 335 L405 335 C394 269 374 212 347 168 C318 197 293 221 282 233 C267 248 253 263 240 278 C293 306 364 363 364 454 C364 536 308 592 220 592 C134 592 71 526 71 433 C71 388 90 343 117 299 C75 270 26 223 26 144 C26 48 90 -9 188 -9 C243 -9 294 14 338 50 C363 25 385 6 394 0 L507 0 L507 17 C492 26 446 70 400 115 C448 179 482 259 497 335 L497 335 Z M196 198 C210 182 249 141 289 100 C262 79 232 68 200 68 C151 68 121 98 121 159 C121 194 133 223 154 247 C168 230 182 213 196 198 L196 198 Z M164 433 C164 490 186 512 217 512 C252 512 268 484 268 443 C268 392 239 357 200 330 C178 365 164 400 164 433 L164 433 Z " />
<glyph glyph-name="quotesingle" unicode="&#x27;" horiz-adv-x="169" d="M45 461 L120 461 L135 670 L45 670 L45 461 Z " />
<glyph glyph-name="parenleft" unicode="&#x28;" horiz-adv-x="241" d="M228 -168 C195 -115 110 49 110 257 C110 458 190 601 225 649 L142 649 C110 605 30 453 30 256 C30 57 108 -115 144 -167 L228 -168 Z " />
<glyph glyph-name="parenright" unicode="&#x29;" horiz-adv-x="241" d="M15 649 C48 601 130 450 130 246 C130 41 47 -115 13 -167 L96 -167 C131 -120 211 48 211 247 C211 444 131 601 97 649 L15 649 Z " />
<glyph glyph-name="asterisk" unicode="&#x2a;" horiz-adv-x="333" d="M31 516 L133 472 L32 433 L63 377 L146 448 L134 330 L197 330 L181 448 L270 376 L301 433 L194 474 L301 516 L270 571 L179 500 L197 620 L134 620 L150 500 L64 571 L31 516 Z " />
<glyph glyph-name="plus" unicode="&#x2b;" horiz-adv-x="336" d="M28 263 L135 263 L135 112 L201 112 L201 263 L307 263 L307 336 L201 336 L201 484 L135 484 L135 336 L28 336 L28 263 Z " />
<glyph glyph-name="comma" unicode="&#x2c;" horiz-adv-x="204" d="M62 -166 C133 -96 167 -21 167 44 C167 89 138 117 99 117 C60 117 35 90 34 55 C58 40 65 18 65 -8 C65 -54 39 -104 11 -147 L62 -166 Z " />
<glyph glyph-name="&amp;#x2d;" unicode="&#x2d;" horiz-adv-x="279" d="M43 207 L235 207 L235 281 L43 281 L43 207 Z " />
<glyph glyph-name="&amp;#xad;" unicode="&#xad;" horiz-adv-x="279" d="M43 207 L235 207 L235 281 L43 281 L43 207 Z " />
<glyph glyph-name="period" unicode="&#x2e;" horiz-adv-x="206" d="M103 -8 C143 -8 170 18 170 56 C170 93 143 120 103 120 C64 120 36 94 36 56 C36 17 64 -8 103 -8 L103 -8 Z " />
<glyph glyph-name="slash" unicode="&#x2f;" horiz-adv-x="264" d="M20 -93 L97 -93 L245 674 L169 674 L20 -93 Z " />
<glyph glyph-name="zero" unicode="0" horiz-adv-x="409" d="M202 -9 C329 -9 373 101 373 296 C373 485 340 592 207 592 C87 592 36 496 36 280 C36 89 74 -9 202 -9 L202 -9 Z M204 75 C153 75 136 127 136 287 C136 449 154 507 204 507 C254 507 272 442 272 296 C272 133 257 75 204 75 L204 75 Z " />
<glyph glyph-name="one" unicode="1" horiz-adv-x="270" d="M216 0 L216 583 L146 583 L21 544 L21 461 L109 478 L109 0 L216 0 Z " />
<glyph glyph-name="two" unicode="2" horiz-adv-x="355" d="M31 0 L323 0 L323 91 L144 91 L143 95 C230 189 312 316 312 431 C312 542 252 592 162 592 C113 592 68 580 38 561 L38 470 C70 494 103 498 130 498 C173 498 205 469 205 403 C205 301 111 172 31 71 L31 0 Z " />
<glyph glyph-name="three" unicode="3" horiz-adv-x="334" d="M137 -8 C221 -8 302 45 302 171 C302 254 254 307 198 315 L198 319 C239 333 288 381 288 461 C288 540 240 592 150 592 C109 592 67 582 37 564 L37 473 C64 493 93 500 116 500 C159 500 182 469 182 426 C182 370 134 331 92 325 L92 261 C153 258 197 230 197 169 C197 117 166 80 123 80 C96 80 65 84 35 98 L35 9 C61 0 95 -8 137 -8 L137 -8 Z " />
<glyph glyph-name="four" unicode="4" horiz-adv-x="369" d="M295 0 L295 141 L342 141 L342 222 L295 222 L295 583 L181 583 L21 218 L21 141 L193 141 L193 0 L295 0 Z M97 222 L188 434 L193 434 L193 222 L97 222 Z " />
<glyph glyph-name="five" unicode="5" horiz-adv-x="338" d="M126 79 C101 79 64 84 36 95 L36 10 C65 0 104 -7 144 -7 C226 -7 307 59 307 179 C307 310 238 350 154 350 C148 350 143 350 137 349 L144 494 L296 494 L296 583 L59 583 L46 269 C62 272 88 274 103 274 C163 274 205 249 205 177 C205 110 165 79 126 79 L126 79 Z " />
<glyph glyph-name="six" unicode="6" horiz-adv-x="380" d="M325 491 L325 579 C300 588 265 592 237 592 C103 592 34 470 34 258 C34 85 80 -8 193 -8 C297 -8 351 71 351 201 C351 303 311 366 225 366 C187 366 158 355 135 342 C145 453 178 508 246 508 C268 508 293 505 325 491 L325 491 Z M196 291 C233 291 254 263 254 192 C254 111 232 73 193 73 C150 73 132 134 132 253 L132 274 C149 283 170 291 196 291 L196 291 Z " />
<glyph glyph-name="seven" unicode="7" horiz-adv-x="316" d="M151 0 L299 528 L299 583 L24 583 L24 494 L194 494 L55 5 L57 0 L151 0 Z " />
<glyph glyph-name="eight" unicode="8" horiz-adv-x="386" d="M352 161 C352 238 313 276 269 304 C312 337 345 388 345 450 C345 538 292 592 193 592 C100 592 42 520 42 435 C42 366 72 326 110 296 C69 265 33 210 33 149 C33 51 89 -9 188 -9 C287 -9 352 67 352 161 L352 161 Z M124 158 C124 200 138 241 154 266 C205 235 254 208 254 149 C254 89 222 69 190 69 C152 69 124 96 124 158 L124 158 Z M254 437 C254 401 242 362 219 333 C176 357 139 383 139 440 C139 486 162 511 195 511 C235 511 254 482 254 437 L254 437 Z " />
<glyph glyph-name="nine" unicode="9" horiz-adv-x="381" d="M54 92 L54 4 C79 -5 114 -9 142 -9 C276 -9 345 113 345 325 C345 498 299 591 186 591 C82 591 28 512 28 382 C28 280 68 217 154 217 C192 217 220 227 243 241 C233 129 201 75 133 75 C111 75 86 78 54 92 L54 92 Z M183 292 C146 292 125 320 125 391 C125 472 147 510 186 510 C229 510 247 449 247 330 L247 308 C230 299 208 292 183 292 L183 292 Z " />
<glyph glyph-name="colon" unicode="&#x3a;" horiz-adv-x="220" d="M110 -8 C150 -8 177 18 177 56 C177 93 150 120 110 120 C71 120 43 94 43 56 C43 17 71 -8 110 -8 L110 -8 Z M110 331 C150 331 177 357 177 395 C177 432 150 459 110 459 C71 459 43 433 43 395 C43 356 71 331 110 331 L110 331 Z " />
<glyph glyph-name="semicolon" unicode="&#x3b;" horiz-adv-x="225" d="M73 -166 C144 -96 178 -21 178 44 C178 89 149 117 110 117 C71 117 46 90 45 55 C69 40 76 18 76 -8 C76 -54 50 -104 22 -147 L73 -166 Z M114 331 C154 331 181 357 181 395 C181 432 154 459 114 459 C75 459 47 433 47 395 C47 356 75 331 114 331 L114 331 Z " />
<glyph glyph-name="less" unicode="&#x3c;" horiz-adv-x="339" d="M296 67 L296 149 L92 297 L92 300 L296 443 L296 523 L22 322 L22 268 L296 67 Z " />
<glyph glyph-name="equal" unicode="&#x3d;" horiz-adv-x="362" d="M44 171 L318 171 L318 240 L44 240 L44 171 Z M44 351 L318 351 L318 420 L44 420 L44 351 Z " />
<glyph glyph-name="greater" unicode="&#x3e;" horiz-adv-x="339" d="M317 268 L317 322 L43 523 L43 443 L244 299 L244 295 L43 149 L43 67 L317 268 Z " />
<glyph glyph-name="question" unicode="&#x3f;" horiz-adv-x="286" d="M82 190 L156 190 L156 264 C195 286 262 344 262 446 C262 546 208 591 130 591 C99 591 63 585 31 568 L31 490 C56 502 84 510 106 510 C141 510 161 488 161 434 C161 355 108 314 82 294 L82 190 Z M119 -7 C157 -7 182 22 182 54 C182 89 157 119 119 119 C82 119 55 89 55 54 C55 22 82 -7 119 -7 L119 -7 Z " />
<glyph glyph-name="at" unicode="&#x40;" horiz-adv-x="687" d="M361 9 L401 -5 C566 31 667 170 667 316 C667 520 544 642 380 642 C174 642 26 447 26 198 C26 -55 133 -205 331 -205 C422 -205 514 -181 579 -131 L579 -63 C506 -114 421 -137 347 -137 C189 -137 101 -27 101 201 C101 416 216 577 373 577 C526 577 594 472 594 308 C594 216 550 115 459 71 L449 78 L502 455 L427 455 L424 436 C403 447 381 454 365 454 C315 454 277 422 250 384 C211 325 191 213 191 118 C191 71 196 28 202 -4 L268 -4 L379 133 L361 9 Z M276 107 C275 129 273 151 273 173 C273 258 294 336 331 388 C336 389 342 390 348 390 C365 390 388 380 413 365 L392 218 L290 104 L276 107 Z " />
<glyph glyph-name="A" unicode="A" horiz-adv-x="408" d="M6 0 L110 0 L141 153 L259 153 L284 0 L392 0 L271 583 L146 583 L6 0 Z M174 317 L204 475 L209 475 L233 316 L245 240 L158 240 L174 317 Z " />
<glyph glyph-name="B" unicode="B" horiz-adv-x="422" d="M52 0 L238 0 C344 0 398 67 398 166 C398 269 336 302 292 308 L292 310 C342 324 374 366 374 442 C374 532 322 583 224 583 L52 583 L52 0 Z M191 259 C248 259 287 241 287 177 C287 105 254 85 205 85 L160 85 L160 259 L191 259 Z M190 498 C230 498 263 483 263 416 C263 369 240 336 191 336 L160 336 L160 498 L190 498 Z " />
<glyph glyph-name="C" unicode="C" horiz-adv-x="389" d="M240 -9 C290 -9 335 2 359 15 L359 104 C328 86 300 81 267 81 C182 81 142 147 142 295 C142 423 181 502 262 502 C295 502 324 497 359 477 L359 571 C334 582 299 592 244 592 C93 592 30 463 30 283 C30 88 98 -9 240 -9 L240 -9 Z " />
<glyph glyph-name="D" unicode="D" horiz-adv-x="475" d="M52 0 L222 0 C352 0 446 104 446 304 C446 520 336 583 221 583 L52 583 L52 0 Z M199 496 C282 496 335 461 335 294 C335 142 286 87 205 87 L160 87 L160 496 L199 496 Z " />
<glyph glyph-name="E" unicode="E" horiz-adv-x="364" d="M52 0 L337 0 L337 87 L160 87 L160 257 L307 257 L307 340 L160 340 L160 496 L333 496 L333 583 L52 583 L52 0 Z " />
<glyph glyph-name="F" unicode="F" horiz-adv-x="342" d="M52 0 L160 0 L160 226 L299 226 L299 310 L160 310 L160 496 L325 496 L325 583 L52 583 L52 0 Z " />
<glyph glyph-name="G" unicode="G" horiz-adv-x="451" d="M261 -9 C319 -9 363 3 412 29 L412 304 L309 304 L309 88 C293 83 277 81 259 81 C187 81 140 134 140 295 C140 437 202 499 286 499 C327 499 368 492 406 472 L407 567 C373 580 334 592 274 592 C113 592 30 465 30 283 C30 89 100 -9 261 -9 L261 -9 Z " />
<glyph glyph-name="H" unicode="H" horiz-adv-x="497" d="M337 0 L445 0 L445 583 L337 583 L337 342 L160 342 L160 583 L52 583 L52 0 L160 0 L160 255 L337 255 L337 0 Z " />
<glyph glyph-name="I" unicode="I" horiz-adv-x="212" d="M52 0 L160 0 L160 583 L52 583 L52 0 Z " />
<glyph glyph-name="J" unicode="J" horiz-adv-x="223" d="M77 -95 C136 -3 174 89 174 179 L174 583 L65 583 L65 177 C65 91 30 14 -12 -65 L77 -95 Z " />
<glyph glyph-name="K" unicode="K" horiz-adv-x="421" d="M294 0 L409 0 L270 315 L412 583 L303 583 L168 307 L168 291 L294 0 Z M52 0 L160 0 L160 583 L52 583 L52 0 Z " />
<glyph glyph-name="L" unicode="L" horiz-adv-x="336" d="M52 0 L325 0 L325 87 L160 87 L160 583 L52 583 L52 0 Z " />
<glyph glyph-name="M" unicode="M" horiz-adv-x="595" d="M34 0 L129 0 L142 257 L151 401 L155 401 L188 257 L245 0 L341 0 L402 259 L434 396 L438 396 L445 258 L458 0 L560 0 L525 583 L399 583 L330 289 L304 163 L299 163 L274 287 L206 583 L71 583 L34 0 Z " />
<glyph glyph-name="N" unicode="N" horiz-adv-x="487" d="M52 0 L154 0 L152 361 L155 361 L343 0 L435 0 L435 583 L331 583 L332 231 L330 231 L140 583 L52 583 L52 0 Z " />
<glyph glyph-name="O" unicode="O" horiz-adv-x="477" d="M234 -9 C380 -9 447 112 447 311 C447 471 389 592 245 592 C96 592 30 461 30 278 C30 102 93 -9 234 -9 L234 -9 Z M238 78 C172 78 141 146 141 294 C141 445 174 506 241 506 C305 506 336 444 336 295 C336 147 308 78 238 78 L238 78 Z " />
<glyph glyph-name="P" unicode="P" horiz-adv-x="407" d="M52 0 L160 0 L160 195 L195 195 C336 195 385 282 385 393 C385 523 334 583 218 583 L52 583 L52 0 Z M195 498 C248 498 276 469 276 391 C276 295 238 279 186 278 L160 278 L160 498 L195 498 Z " />
<glyph glyph-name="Q" unicode="Q" horiz-adv-x="477" d="M234 -9 C249 -9 264 -8 278 -5 L340 -111 L458 -111 L459 -95 L346 24 C415 72 447 173 447 311 C447 471 389 592 245 592 C96 592 30 461 30 278 C30 102 93 -9 234 -9 L234 -9 Z M238 78 C172 78 141 146 141 294 C141 445 174 506 241 506 C305 506 336 444 336 295 C336 147 308 78 238 78 L238 78 Z " />
<glyph glyph-name="R" unicode="R" horiz-adv-x="422" d="M52 0 L160 0 L160 202 L193 202 C202 202 210 203 219 204 L292 0 L409 0 L310 240 C353 272 383 325 383 396 C383 521 326 583 215 583 L52 583 L52 0 Z M193 498 C246 498 273 473 273 394 C273 298 236 286 184 286 L160 286 L160 498 L193 498 Z " />
<glyph glyph-name="S" unicode="S" horiz-adv-x="352" d="M34 14 C75 -1 117 -9 157 -9 C260 -9 326 51 326 167 C326 275 264 308 205 339 C160 364 132 385 132 434 C132 473 162 503 205 503 C244 503 280 492 308 474 L308 569 C280 584 242 592 192 592 C92 592 29 521 29 428 C29 346 75 300 126 273 C181 244 225 223 225 161 C225 109 196 83 151 83 C109 83 68 94 34 111 L34 14 Z " />
<glyph glyph-name="T" unicode="T" horiz-adv-x="384" d="M11 496 L139 496 L139 0 L248 0 L248 496 L373 496 L373 583 L11 583 L11 496 Z " />
<glyph glyph-name="U" unicode="U" horiz-adv-x="473" d="M239 -9 C343 -9 425 48 425 227 L425 583 L320 583 L320 220 C320 115 295 80 243 80 C191 80 156 107 156 211 L156 583 L48 583 L48 203 C48 38 133 -9 239 -9 L239 -9 Z " />
<glyph glyph-name="V" unicode="V" horiz-adv-x="419" d="M414 583 L307 583 L241 271 L213 125 L209 125 L182 271 L120 583 L13 583 L148 0 L264 0 L414 583 Z " />
<glyph glyph-name="W" unicode="W" horiz-adv-x="655" d="M646 583 L541 583 L487 285 L463 147 L459 147 L437 287 L387 583 L276 583 L220 285 L195 142 L191 142 L171 285 L129 583 L19 583 L121 0 L244 0 L302 298 L326 425 L330 425 L351 298 L402 0 L523 0 L646 583 Z " />
<glyph glyph-name="X" unicode="X" horiz-adv-x="406" d="M128 583 L17 583 L137 295 L7 0 L120 0 L196 218 L206 218 L278 0 L393 0 L271 299 L397 583 L286 583 L208 372 L201 372 L128 583 Z " />
<glyph glyph-name="Y" unicode="Y" horiz-adv-x="398" d="M393 583 L293 583 L236 400 L205 304 L202 304 L171 400 L113 583 L6 583 L144 209 L144 0 L253 0 L253 203 L393 583 Z " />
<glyph glyph-name="Z" unicode="Z" horiz-adv-x="359" d="M334 0 L334 87 L153 87 L343 580 L342 583 L25 583 L25 496 L200 496 L14 3 L16 0 L334 0 Z " />
<glyph glyph-name="bracketleft" unicode="&#x5b;" horiz-adv-x="213" d="M50 -191 L186 -191 L186 -122 L132 -122 L132 600 L186 600 L186 670 L50 670 L50 -191 Z " />
<glyph glyph-name="backslash" unicode="&#x5c;" horiz-adv-x="266" d="M96 674 L20 674 L169 -93 L246 -93 L96 674 Z " />
<glyph glyph-name="bracketright" unicode="&#x5d;" horiz-adv-x="214" d="M164 670 L28 670 L28 600 L81 600 L81 -122 L28 -122 L28 -191 L164 -191 L164 670 Z " />
<glyph glyph-name="asciicircum" unicode="&#x5e;" horiz-adv-x="317" d="M17 237 L92 237 L157 484 L161 484 L219 237 L298 237 L207 583 L113 583 L17 237 Z " />
<glyph glyph-name="underscore" unicode="&#x5f;" horiz-adv-x="516" d="M71 -159 L445 -159 L445 -88 L71 -88 L71 -159 Z " />
<glyph glyph-name="grave" unicode="&#x60;" horiz-adv-x="249" d="M203 526 L146 669 L49 669 L129 526 L203 526 Z " />
<glyph glyph-name="a" unicode="a" horiz-adv-x="372" d="M241 0 L342 0 L326 100 L326 326 C326 429 271 463 191 463 C145 463 90 455 45 438 L45 350 C73 361 121 371 157 371 C196 371 226 358 226 305 L226 252 L193 252 C88 252 20 210 20 115 C20 40 60 -7 125 -7 C172 -7 212 20 233 46 L241 0 Z M161 68 C135 68 121 86 121 130 C121 184 148 195 190 195 L226 195 L226 100 C206 80 183 68 161 68 L161 68 Z " />
<glyph glyph-name="b" unicode="b" horiz-adv-x="396" d="M177 -7 C289 -7 369 67 369 248 C369 397 322 463 236 463 C199 463 168 448 144 428 L144 653 L43 653 L43 14 C92 -1 134 -7 177 -7 L177 -7 Z M201 381 C247 381 266 348 266 238 C266 131 250 74 185 74 C172 74 157 75 144 77 L144 362 C161 373 182 381 201 381 L201 381 Z " />
<glyph glyph-name="c" unicode="c" horiz-adv-x="318" d="M191 -7 C228 -7 263 -2 289 13 L289 95 C268 85 243 80 223 80 C167 80 133 122 133 230 C133 333 170 374 220 374 C241 374 267 371 289 357 L289 449 C262 460 233 463 200 463 C89 463 27 366 27 221 C27 73 83 -7 191 -7 L191 -7 Z " />
<glyph glyph-name="d" unicode="d" horiz-adv-x="404" d="M270 0 L372 0 L357 98 L357 653 L256 653 L256 457 C238 460 214 463 196 463 C98 463 27 380 27 208 C27 54 87 -7 159 -7 C201 -7 236 16 261 51 L270 0 Z M193 78 C150 78 133 125 133 220 C133 332 159 383 211 383 C225 383 242 381 256 376 L256 108 C232 88 214 78 193 78 L193 78 Z " />
<glyph glyph-name="e" unicode="e" horiz-adv-x="380" d="M211 -7 C275 -7 313 2 347 19 L347 96 C309 83 271 76 236 76 C172 76 135 106 129 199 L351 199 L351 242 C351 380 311 463 200 463 C85 463 27 368 27 218 C27 57 95 -7 211 -7 L211 -7 Z M194 379 C236 379 251 331 252 259 L128 259 C132 347 156 379 194 379 L194 379 Z " />
<glyph glyph-name="f" unicode="f" horiz-adv-x="244" d="M18 368 L64 368 L64 0 L164 0 L164 368 L228 368 L228 452 L164 452 L164 481 C164 544 180 574 217 574 C232 574 245 573 260 568 L260 655 C246 659 227 661 208 661 C128 661 64 618 64 490 L64 452 L18 452 L18 368 Z " />
<glyph glyph-name="g" unicode="g" horiz-adv-x="383" d="M184 171 C264 171 336 233 336 315 C336 343 330 367 321 388 L377 388 L377 456 L275 440 C250 455 219 463 183 463 C95 463 30 401 30 311 C30 239 66 198 117 181 L43 105 L43 50 L100 42 C54 16 10 -23 10 -84 C10 -164 70 -214 176 -214 C292 -214 368 -135 368 -32 C368 41 332 94 234 106 L136 119 L173 171 L184 171 Z M197 29 C255 20 273 -4 273 -46 C273 -101 236 -140 185 -140 C134 -140 109 -113 109 -65 C109 -29 130 3 162 33 L197 29 Z M184 237 C147 237 130 266 130 317 C130 372 145 396 181 396 C216 396 234 371 234 315 C234 266 217 237 184 237 L184 237 Z " />
<glyph glyph-name="h" unicode="h" horiz-adv-x="411" d="M267 0 L369 0 L369 318 C369 425 329 461 263 461 C216 461 175 438 145 409 L145 653 L45 653 L45 0 L145 0 L145 333 C166 353 192 371 217 371 C259 371 267 341 267 268 L267 0 Z " />
<glyph glyph-name="i" unicode="i" horiz-adv-x="207" d="M17 368 L62 368 L62 0 L163 0 L163 452 L17 452 L17 368 Z M115 555 C151 555 175 577 175 612 C175 646 151 669 115 669 C80 669 54 647 54 612 C54 576 80 555 115 555 L115 555 Z " />
<glyph glyph-name="j" unicode="j" horiz-adv-x="208" d="M17 368 L62 368 L62 18 C62 -61 39 -135 15 -193 L98 -214 C138 -153 164 -59 164 28 L164 452 L17 452 L17 368 Z M115 555 C151 555 176 577 176 612 C176 646 151 669 115 669 C80 669 55 647 55 612 C55 576 80 555 115 555 L115 555 Z " />
<glyph glyph-name="k" unicode="k" horiz-adv-x="374" d="M249 0 L359 0 L253 249 L363 452 L256 452 L159 252 L159 235 L249 0 Z M45 0 L145 0 L145 653 L45 653 L45 0 Z " />
<glyph glyph-name="l" unicode="l" horiz-adv-x="196" d="M48 0 L148 0 L148 653 L48 653 L48 0 Z " />
<glyph glyph-name="m" unicode="m" horiz-adv-x="610" d="M467 0 L568 0 L568 318 C568 425 528 461 463 461 C415 461 373 435 344 404 C327 445 296 461 253 461 C207 461 168 438 139 409 L133 452 L33 452 L47 344 L47 0 L147 0 L147 341 C165 358 186 371 206 371 C248 371 257 349 257 268 L257 0 L357 0 L357 318 C357 326 357 334 356 341 C375 358 396 371 417 371 C458 371 467 349 467 268 L467 0 Z " />
<glyph glyph-name="n" unicode="n" horiz-adv-x="413" d="M47 0 L147 0 L147 333 C169 353 195 371 219 371 C261 371 269 341 269 268 L269 0 L370 0 L370 318 C370 425 331 461 265 461 C215 461 170 434 140 402 L133 452 L33 452 L47 344 L47 0 Z " />
<glyph glyph-name="o" unicode="o" horiz-adv-x="389" d="M192 -7 C304 -7 362 98 362 232 C362 392 311 463 197 463 C89 463 27 358 27 221 C27 64 85 -7 192 -7 L192 -7 Z M195 74 C143 74 129 118 129 227 C129 325 143 379 195 379 C252 379 260 326 260 227 C260 127 247 74 195 74 L195 74 Z " />
<glyph glyph-name="p" unicode="p" horiz-adv-x="400" d="M47 -207 L147 -207 L147 -1 C163 -5 181 -7 200 -7 C296 -7 372 59 372 247 C372 399 325 462 245 462 C201 462 166 442 139 412 L133 452 L33 452 L47 346 L47 -207 Z M206 379 C251 379 269 344 269 237 C269 131 251 74 190 74 C177 74 161 75 147 78 L147 352 C164 368 184 379 206 379 L206 379 Z " />
<glyph glyph-name="q" unicode="q" horiz-adv-x="398" d="M220 463 C108 463 27 384 27 209 C27 48 87 -7 166 -7 C200 -7 231 8 254 29 L254 -207 L354 -207 L354 444 C304 457 265 463 220 463 L220 463 Z M196 74 C152 74 129 104 129 220 C129 337 157 382 213 382 C227 382 241 380 254 377 L254 96 C234 82 214 74 196 74 L196 74 Z " />
<glyph glyph-name="r" unicode="r" horiz-adv-x="276" d="M47 0 L150 0 L150 301 C169 325 200 354 241 354 C248 354 256 354 264 352 L264 454 C254 458 246 459 236 459 C197 459 166 423 145 392 L136 452 L33 452 L47 344 L47 0 Z " />
<glyph glyph-name="s" unicode="s" horiz-adv-x="321" d="M145 -7 C233 -7 298 36 298 135 C298 221 242 246 185 267 C146 281 123 294 123 328 C123 360 149 379 185 379 C218 379 249 373 284 356 L284 442 C256 457 210 463 175 463 C88 463 27 411 27 324 C27 247 80 218 128 199 C172 183 203 170 203 133 C203 91 175 75 141 75 C109 75 75 82 31 100 L31 13 C64 -1 105 -7 145 -7 L145 -7 Z " />
<glyph glyph-name="t" unicode="t" horiz-adv-x="276" d="M17 368 L65 368 L65 119 C65 23 113 -7 178 -7 C207 -7 239 -2 262 9 L262 87 C247 82 230 77 212 77 C181 77 166 97 165 140 L165 368 L256 368 L256 452 L165 452 L165 574 L65 574 L65 452 L17 452 L17 368 Z " />
<glyph glyph-name="u" unicode="u" horiz-adv-x="410" d="M363 452 L263 452 L263 120 C242 100 218 82 194 82 C153 82 144 112 144 185 L144 452 L43 452 L43 136 C43 29 83 -9 148 -9 C198 -9 240 19 270 51 L278 0 L378 0 L363 109 L363 452 Z " />
<glyph glyph-name="v" unicode="v" horiz-adv-x="357" d="M115 0 L236 0 L349 452 L248 452 L203 226 L182 114 L178 114 L158 225 L114 452 L13 452 L115 0 Z " />
<glyph glyph-name="w" unicode="w" horiz-adv-x="547" d="M533 452 L445 452 L409 233 L391 116 L387 116 L366 231 L328 452 L231 452 L183 228 L162 116 L158 116 L142 228 L111 452 L18 452 L96 0 L206 0 L254 212 L271 304 L275 304 L292 211 L333 0 L447 0 L533 452 Z " />
<glyph glyph-name="x" unicode="x" horiz-adv-x="361" d="M116 452 L16 452 L117 230 L9 0 L108 0 L173 167 L186 167 L246 0 L349 0 L245 234 L347 452 L249 452 L188 286 L176 286 L116 452 Z " />
<glyph glyph-name="y" unicode="y" horiz-adv-x="359" d="M193 -207 L242 4 L350 452 L248 452 L202 222 L182 104 L178 104 L159 220 L114 452 L14 452 L112 0 L144 0 L88 -204 L90 -207 L193 -207 Z " />
<glyph glyph-name="z" unicode="z" horiz-adv-x="323" d="M17 3 L17 0 L303 0 L303 84 L158 84 L301 450 L299 452 L23 452 L23 369 L163 369 L17 3 Z " />
<glyph glyph-name="braceleft" unicode="&#x7b;" horiz-adv-x="244" d="M200 -179 L219 -178 L218 -114 L201 -114 C150 -114 137 -99 141 -33 L155 145 C159 195 143 240 104 252 C144 267 161 302 156 365 L143 541 C138 605 152 616 201 616 L218 616 L219 681 C219 681 192 682 191 682 C117 684 56 655 63 549 L77 355 C80 312 65 286 25 286 L25 224 C66 224 80 193 77 153 L63 -37 C54 -150 122 -183 200 -179 L200 -179 Z " />
<glyph glyph-name="bar" unicode="&#x7c;" horiz-adv-x="187" d="M51 -92 L136 -92 L136 675 L51 675 L51 -92 Z " />
<glyph glyph-name="braceright" unicode="&#x7d;" horiz-adv-x="244" d="M44 680 L25 679 L26 615 L43 615 C94 615 107 600 103 534 L89 356 C85 306 101 261 140 249 C100 234 83 199 88 136 L101 -40 C106 -104 92 -115 43 -115 L26 -115 L25 -180 C25 -180 52 -181 53 -181 C127 -183 188 -154 181 -48 L167 146 C164 189 179 215 219 215 L219 277 C178 277 164 308 167 348 L181 538 C190 651 122 684 44 680 L44 680 Z " />
<glyph glyph-name="asciitilde" unicode="&#x7e;" horiz-adv-x="396" d="M267 229 C310 229 344 267 362 299 L324 344 C307 318 291 302 265 302 C218 302 197 344 134 344 C92 344 53 310 36 282 L70 235 C88 255 107 271 137 271 C180 271 211 229 267 229 L267 229 Z " />
<glyph glyph-name="uni00A0" unicode="&#xa0;" horiz-adv-x="175" d="" />
<glyph glyph-name="exclamdown" unicode="&#xa1;" horiz-adv-x="204" d="M51 -128 L153 -128 L153 115 L143 260 L62 260 L51 114 L51 -128 Z M104 462 C67 462 40 433 40 401 C40 366 67 336 104 336 C142 336 167 366 167 401 C167 433 141 462 104 462 L104 462 Z " />
<glyph glyph-name="cent" unicode="&#xa2;" horiz-adv-x="326" d="M179 -90 L230 -90 L230 -5 C252 -2 272 3 289 13 L289 95 C268 85 243 80 223 80 C167 80 133 122 133 230 C133 333 170 374 220 374 C241 374 267 371 289 357 L289 449 C270 456 251 460 230 462 L230 542 L179 542 L179 462 C81 450 27 356 27 221 C27 78 79 -1 179 -7 L179 -90 Z " />
<glyph glyph-name="sterling" unicode="&#xa3;" horiz-adv-x="358" d="M180 177 C180 197 179 218 177 241 L272 241 L272 318 L168 318 C164 355 161 390 161 417 C161 473 187 506 229 506 C263 506 285 499 311 481 L311 571 C286 585 250 592 209 592 C135 592 62 543 62 423 C62 391 65 354 69 318 L35 318 L35 241 L78 241 C82 211 84 184 84 163 C84 134 79 108 72 81 L35 81 L35 0 L328 0 L328 81 L169 81 C176 112 180 145 180 177 L180 177 Z " />
<glyph glyph-name="currency" unicode="&#xa4;" horiz-adv-x="408" d="M70 481 L31 447 L94 377 C77 350 71 311 71 275 C71 240 78 202 95 172 L31 104 L67 68 L129 133 C151 115 177 105 204 105 C231 105 257 116 279 132 L342 66 L376 104 L315 170 C332 198 340 238 340 275 C340 313 333 350 317 376 L378 445 L341 483 L281 417 C258 437 233 446 206 446 C178 446 151 434 129 416 L70 481 Z M141 275 C141 333 159 376 204 376 C251 376 267 330 267 275 C267 217 250 174 204 174 C160 174 141 218 141 275 L141 275 Z " />
<glyph glyph-name="yen" unicode="&#xa5;" horiz-adv-x="433" d="M383 176 L269 176 L269 193 L285 239 L383 239 L383 310 L311 310 L408 583 L309 583 L223 287 L218 287 L130 583 L24 583 L122 310 L53 310 L53 239 L148 239 L162 200 L162 176 L53 176 L53 105 L162 105 L162 0 L269 0 L269 105 L383 105 L383 176 Z " />
<glyph glyph-name="brokenbar" unicode="&#xa6;" horiz-adv-x="171" d="M51 -92 L120 -92 L120 209 L51 209 L51 -92 Z M51 378 L120 378 L120 675 L51 675 L51 378 Z " />
<glyph glyph-name="section" unicode="&#xa7;" horiz-adv-x="380" d="M163 -110 C255 -110 352 -37 352 97 C352 174 324 236 265 300 L125 465 C150 498 191 511 227 511 C261 511 300 503 336 484 L336 569 C312 581 275 591 220 591 C119 591 29 512 29 383 C29 296 63 236 119 174 L253 17 C229 -17 189 -28 153 -28 C119 -28 80 -19 43 -4 L43 -88 C70 -98 112 -110 163 -110 L163 -110 Z M197 265 C245 208 274 160 275 99 L184 211 C144 261 102 311 101 384 L197 265 Z " />
<glyph glyph-name="dieresis" unicode="&#xa8;" horiz-adv-x="323" d="M87 558 C118 558 138 577 138 609 C138 642 118 662 87 662 C57 662 37 643 37 609 C37 577 57 558 87 558 L87 558 Z M233 558 C264 558 284 577 284 610 C284 642 264 662 233 662 C204 662 183 643 183 610 C183 577 204 558 233 558 L233 558 Z " />
<glyph glyph-name="copyright" unicode="&#xa9;" horiz-adv-x="492" d="M246 -10 C375 -10 459 109 459 289 C459 469 378 591 246 591 C118 591 33 469 33 289 C33 108 114 -10 246 -10 L246 -10 Z M246 24 C143 24 68 123 68 289 C68 451 141 557 246 557 C348 557 423 457 423 289 C423 126 353 24 246 24 L246 24 Z M257 111 C285 111 314 119 325 129 L325 189 C304 176 286 171 265 171 C218 171 193 212 193 291 C193 361 215 409 260 409 C281 409 301 406 325 392 L325 455 C312 463 289 471 257 471 C176 471 129 397 129 286 C129 160 182 111 257 111 L257 111 Z " />
<glyph glyph-name="ordfeminine" unicode="&#xaa;" horiz-adv-x="319" d="M201 271 L278 271 L266 344 L266 491 C266 567 227 592 168 592 C136 592 95 587 60 574 L60 507 C80 515 114 522 141 522 C171 522 189 510 189 471 L189 446 L168 446 C89 446 42 413 42 350 C42 297 69 265 116 265 C151 265 180 284 195 302 L201 271 Z M42 172 L280 172 L280 227 L42 227 L42 172 Z M148 320 C130 320 118 329 118 359 C118 393 138 403 169 403 L189 403 L189 339 C176 328 161 320 148 320 L148 320 Z " />
<glyph glyph-name="guillemotleft" unicode="&#xab;" horiz-adv-x="369" d="M104 46 L192 46 L135 226 L189 405 L104 405 L29 226 L104 46 Z M247 46 L335 46 L278 226 L332 405 L247 405 L172 226 L247 46 Z " />
<glyph glyph-name="logicalnot" unicode="&#xac;" horiz-adv-x="386" d="M263 129 L338 129 L338 328 L43 328 L43 254 L263 254 L263 129 Z " />
<glyph glyph-name="registered" unicode="&#xae;" horiz-adv-x="340" d="M170 265 C245 265 307 330 307 454 C307 578 247 645 170 645 C96 645 33 576 33 454 C33 329 96 265 170 265 L170 265 Z M170 292 C109 292 63 348 63 454 C63 560 107 617 170 617 C233 617 277 560 277 454 C277 343 233 292 170 292 L170 292 Z M115 358 L152 358 L152 422 L166 422 C170 422 174 422 177 423 L200 358 L240 358 L210 436 C224 449 232 468 232 492 C232 537 210 560 178 560 L115 560 L115 358 Z M164 524 C182 524 194 516 194 492 C194 462 180 457 162 457 L152 457 L152 524 L164 524 Z " />
<glyph glyph-name="macron" unicode="&#xaf;" horiz-adv-x="294" d="M43 561 L254 561 L254 637 L43 637 L43 561 Z " />
<glyph glyph-name="degree" unicode="&#xb0;" horiz-adv-x="297" d="M147 327 C222 327 265 385 265 461 C265 539 227 592 152 592 C76 592 32 537 32 460 C32 378 71 327 147 327 L147 327 Z M149 390 C123 390 107 408 107 459 C107 505 122 529 149 529 C175 529 190 508 190 460 C190 410 176 390 149 390 L149 390 Z " />
<glyph glyph-name="plusminus" unicode="&#xb1;" horiz-adv-x="352" d="M42 292 L146 292 L146 151 L207 151 L207 292 L311 292 L311 357 L207 357 L207 495 L146 495 L146 357 L42 357 L42 292 Z M41 28 L311 28 L311 99 L41 99 L41 28 Z " />
<glyph glyph-name="twosuperior" unicode="&#xb2;" horiz-adv-x="203" d="M106 616 C106 558 66 509 15 446 L15 400 L187 400 L187 457 L88 457 L88 460 C140 507 182 567 182 627 C182 690 144 716 96 716 C70 716 42 711 19 697 L21 644 C40 658 57 661 71 661 C90 661 106 646 106 616 L106 616 Z " />
<glyph glyph-name="threesuperior" unicode="&#xb3;" horiz-adv-x="195" d="M77 396 C132 396 178 421 178 491 C178 535 155 564 115 569 L115 571 C145 580 169 602 169 646 C169 693 134 716 88 716 C63 716 37 710 19 698 L19 645 C35 657 50 661 63 661 C82 661 96 651 96 626 C96 597 72 578 48 574 L48 538 C83 537 104 523 104 491 C104 463 89 449 67 449 C49 449 33 451 16 460 L16 405 C33 400 51 396 77 396 L77 396 Z " />
<glyph glyph-name="acute" unicode="&#xb4;" horiz-adv-x="249" d="M130 526 L211 669 L115 669 L57 526 L130 526 Z " />
<glyph glyph-name="mu" unicode="&#xb5;" horiz-adv-x="430" d="M49 -207 L149 -207 L149 22 C158 7 175 0 189 0 C219 2 246 24 266 54 C276 10 306 -7 345 -7 C365 -7 388 -3 409 7 L409 75 C400 74 390 74 384 74 C368 74 364 93 364 132 L364 452 L263 452 L263 124 C244 100 220 86 201 86 C166 86 149 107 149 166 L149 452 L49 452 L49 -207 Z " />
<glyph glyph-name="paragraph" unicode="&#xb6;" horiz-adv-x="482" d="M208 -207 L296 -207 L296 501 L342 501 L342 -207 L430 -207 L430 583 L211 583 C91 583 18 503 18 373 C18 232 104 164 208 162 L208 -207 Z " />
<glyph glyph-name="periodcentered" unicode="&#xb7;" horiz-adv-x="196" d="M98 252 C128 252 156 272 156 309 C156 345 128 366 98 366 C69 366 40 346 40 309 C40 273 69 252 98 252 L98 252 Z " />
<glyph glyph-name="cedilla" unicode="&#xb8;" horiz-adv-x="267" d="M129 -214 C189 -214 222 -176 222 -130 C222 -84 196 -58 154 -46 L174 12 L120 12 L91 -63 L91 -78 C130 -80 150 -99 150 -122 C150 -139 142 -155 114 -155 C99 -155 74 -148 61 -140 L59 -199 C77 -208 104 -214 129 -214 L129 -214 Z " />
<glyph glyph-name="onesuperior" unicode="&#xb9;" horiz-adv-x="161" d="M130 400 L130 714 L72 714 L8 688 L8 637 L55 650 L55 400 L130 400 Z " />
<glyph glyph-name="ordmasculine" unicode="&#xba;" horiz-adv-x="326" d="M160 265 C245 265 285 334 285 431 C285 542 246 592 164 592 C84 592 39 522 39 424 C39 316 81 265 160 265 L160 265 Z M43 172 L287 172 L287 227 L43 227 L43 172 Z M163 324 C130 324 119 352 119 429 C119 496 130 532 162 532 C198 532 206 497 206 428 C206 359 194 324 163 324 L163 324 Z " />
<glyph glyph-name="guillemotright" unicode="&#xbb;" horiz-adv-x="371" d="M121 408 L33 408 L90 228 L36 49 L121 49 L196 228 L121 408 Z M266 408 L178 408 L235 228 L181 49 L266 49 L341 228 L266 408 Z " />
<glyph glyph-name="onequarter" unicode="&#xbc;" horiz-adv-x="469" d="M143 260 L143 574 L85 574 L21 548 L21 497 L68 510 L68 260 L143 260 Z M346 0 L418 0 L418 71 L443 71 L443 120 L418 120 L418 314 L344 314 L254 118 L254 71 L346 71 L346 0 Z M297 120 L344 225 L346 225 L346 120 L297 120 Z M132 0 L372 552 L372 557 L323 557 L83 5 L83 0 L132 0 Z " />
<glyph glyph-name="onehalf" unicode="&#xbd;" horiz-adv-x="482" d="M143 260 L143 574 L85 574 L21 548 L21 497 L68 510 L68 260 L143 260 Z M373 216 C373 158 333 109 282 46 L282 0 L454 0 L454 57 L355 57 L355 60 C407 107 449 167 449 227 C449 290 411 316 363 316 C337 316 309 311 286 297 L288 244 C307 258 324 261 338 261 C357 261 373 246 373 216 L373 216 Z M131 0 L371 552 L371 557 L322 557 L82 5 L82 0 L131 0 Z " />
<glyph glyph-name="threequarters" unicode="&#xbe;" horiz-adv-x="475" d="M92 260 C147 260 193 285 193 355 C193 399 170 428 130 433 L130 435 C160 444 184 466 184 510 C184 557 149 580 103 580 C78 580 52 574 34 562 L34 509 C50 521 65 525 78 525 C97 525 111 515 111 490 C111 461 87 442 63 438 L63 402 C98 401 119 387 119 355 C119 327 104 313 82 313 C64 313 48 315 31 324 L31 269 C48 264 66 260 92 260 L92 260 Z M353 0 L425 0 L425 71 L450 71 L450 120 L425 120 L425 314 L351 314 L261 118 L261 71 L353 71 L353 0 Z M304 120 L351 225 L353 225 L353 120 L304 120 Z M142 0 L382 552 L382 557 L333 557 L93 5 L93 0 L142 0 Z " />
<glyph glyph-name="questiondown" unicode="&#xbf;" horiz-adv-x="282" d="M202 265 L128 265 L128 191 C89 169 22 111 22 9 C22 -91 76 -136 154 -136 C185 -136 221 -130 253 -113 L253 -35 C228 -47 200 -55 178 -55 C143 -55 123 -33 123 21 C123 100 176 141 202 161 L202 265 Z M165 462 C127 462 102 433 102 401 C102 366 127 336 165 336 C202 336 229 366 229 401 C229 433 202 462 165 462 L165 462 Z " />
<glyph glyph-name="Agrave" unicode="&#xc0;" horiz-adv-x="408" d="M6 0 L110 0 L141 153 L259 153 L284 0 L392 0 L271 583 L146 583 L6 0 Z M174 317 L204 475 L209 475 L233 316 L245 240 L158 240 L174 317 Z M247 630 L193 750 L94 750 L171 630 L247 630 Z " />
<glyph glyph-name="Aacute" unicode="&#xc1;" horiz-adv-x="408" d="M6 0 L110 0 L141 153 L259 153 L284 0 L392 0 L271 583 L146 583 L6 0 Z M174 317 L204 475 L209 475 L233 316 L245 240 L158 240 L174 317 Z M240 630 L317 750 L218 750 L164 630 L240 630 Z " />
<glyph glyph-name="Acircumflex" unicode="&#xc2;" horiz-adv-x="408" d="M6 0 L110 0 L141 153 L259 153 L284 0 L392 0 L271 583 L146 583 L6 0 Z M170 754 L90 627 L171 627 L207 702 L212 702 L247 627 L327 627 L251 754 L170 754 Z M174 317 L204 475 L209 475 L233 316 L245 240 L158 240 L174 317 Z " />
<glyph glyph-name="Atilde" unicode="&#xc3;" horiz-adv-x="408" d="M6 0 L110 0 L141 153 L259 153 L284 0 L392 0 L271 583 L146 583 L6 0 Z M311 735 C302 719 279 704 259 704 C228 704 208 736 169 736 C132 736 102 710 88 685 L110 634 C125 653 142 665 162 665 C194 665 217 633 256 633 C293 633 320 657 332 682 L311 735 Z M174 317 L204 475 L209 475 L233 316 L245 240 L158 240 L174 317 Z " />
<glyph glyph-name="Adieresis" unicode="&#xc4;" horiz-adv-x="408" d="M6 0 L110 0 L141 153 L259 153 L284 0 L392 0 L271 583 L146 583 L6 0 Z M174 317 L204 475 L209 475 L233 316 L245 240 L158 240 L174 317 Z M132 630 C163 630 183 648 183 680 C183 714 163 733 132 733 C103 733 82 714 82 680 C82 648 103 630 132 630 L132 630 Z M279 630 C309 630 329 648 329 681 C329 714 309 733 279 733 C249 733 229 714 229 681 C229 648 249 630 279 630 L279 630 Z " />
<glyph glyph-name="Aring" unicode="&#xc5;" horiz-adv-x="408" d="M6 0 L110 0 L141 153 L259 153 L284 0 L392 0 L271 583 L146 583 L6 0 Z M208 782 C163 782 125 756 125 697 C125 637 160 610 208 610 C256 610 291 638 291 697 C291 756 255 782 208 782 L208 782 Z M174 317 L204 475 L209 475 L233 316 L245 240 L158 240 L174 317 Z M208 735 C229 735 237 721 237 697 C237 673 229 657 208 657 C189 657 180 672 180 697 C180 719 188 735 208 735 L208 735 Z " />
<glyph glyph-name="AE" unicode="&#xc6;" horiz-adv-x="563" d="M249 0 L535 0 L535 87 L358 87 L358 257 L505 257 L505 340 L358 340 L358 496 L531 496 L531 583 L183 583 L3 0 L102 0 L146 153 L249 153 L249 0 Z M244 492 L249 492 L249 240 L171 240 L244 492 Z " />
<glyph glyph-name="Ccedilla" unicode="&#xc7;" horiz-adv-x="390" d="M218 -214 C278 -214 311 -176 311 -130 C311 -84 285 -58 243 -46 L256 -9 C300 -7 338 3 360 15 L360 104 C329 86 301 81 268 81 C183 81 143 147 143 295 C143 423 182 502 263 502 C296 502 325 497 360 477 L360 571 C335 582 300 592 245 592 C94 592 31 463 31 283 C31 107 86 11 202 -6 L180 -63 L180 -78 C219 -80 239 -99 239 -122 C239 -139 231 -155 203 -155 C188 -155 163 -148 150 -140 L148 -199 C166 -208 193 -214 218 -214 L218 -214 Z " />
<glyph glyph-name="Egrave" unicode="&#xc8;" horiz-adv-x="364" d="M52 0 L337 0 L337 87 L160 87 L160 257 L307 257 L307 340 L160 340 L160 496 L333 496 L333 583 L52 583 L52 0 Z M254 630 L200 750 L101 750 L178 630 L254 630 Z " />
<glyph glyph-name="Eacute" unicode="&#xc9;" horiz-adv-x="364" d="M52 0 L337 0 L337 87 L160 87 L160 257 L307 257 L307 340 L160 340 L160 496 L333 496 L333 583 L52 583 L52 0 Z M212 630 L289 750 L190 750 L136 630 L212 630 Z " />
<glyph glyph-name="Ecircumflex" unicode="&#xca;" horiz-adv-x="364" d="M52 0 L337 0 L337 87 L160 87 L160 257 L307 257 L307 340 L160 340 L160 496 L333 496 L333 583 L52 583 L52 0 Z M162 753 L82 626 L163 626 L199 701 L204 701 L239 626 L319 626 L243 753 L162 753 Z " />
<glyph glyph-name="Edieresis" unicode="&#xcb;" horiz-adv-x="364" d="M52 0 L337 0 L337 87 L160 87 L160 257 L307 257 L307 340 L160 340 L160 496 L333 496 L333 583 L52 583 L52 0 Z M120 631 C151 631 171 649 171 681 C171 715 151 734 120 734 C91 734 70 715 70 681 C70 649 91 631 120 631 L120 631 Z M267 631 C297 631 317 649 317 682 C317 715 297 734 267 734 C237 734 217 715 217 682 C217 649 237 631 267 631 L267 631 Z " />
<glyph glyph-name="Igrave" unicode="&#xcc;" horiz-adv-x="212" d="M149 630 L95 750 L-4 750 L73 630 L149 630 Z M52 0 L160 0 L160 583 L52 583 L52 0 Z " />
<glyph glyph-name="Iacute" unicode="&#xcd;" horiz-adv-x="212" d="M52 0 L160 0 L160 583 L52 583 L52 0 Z M139 630 L216 750 L117 750 L63 630 L139 630 Z " />
<glyph glyph-name="Icircumflex" unicode="&#xce;" horiz-adv-x="212" d="M52 0 L160 0 L160 583 L52 583 L52 0 Z M67 753 L-13 626 L68 626 L104 701 L109 701 L144 626 L224 626 L148 753 L67 753 Z " />
<glyph glyph-name="Idieresis" unicode="&#xcf;" horiz-adv-x="212" d="M52 0 L160 0 L160 583 L52 583 L52 0 Z M28 631 C59 631 79 649 79 681 C79 715 59 734 28 734 C-1 734 -22 715 -22 681 C-22 649 -1 631 28 631 L28 631 Z M175 631 C205 631 225 649 225 682 C225 715 205 734 175 734 C145 734 125 715 125 682 C125 649 145 631 175 631 L175 631 Z " />
<glyph glyph-name="Eth" unicode="&#xd0;" horiz-adv-x="478" d="M16 262 L54 262 L54 0 L224 0 C354 0 448 104 448 304 C448 520 338 583 223 583 L54 583 L54 336 L16 336 L16 262 Z M244 262 L244 336 L162 336 L162 496 L201 496 C284 496 337 461 337 294 C337 142 288 87 207 87 L162 87 L162 262 L244 262 Z " />
<glyph glyph-name="Ntilde" unicode="&#xd1;" horiz-adv-x="487" d="M346 735 C337 719 314 704 294 704 C263 704 243 736 204 736 C167 736 137 710 123 685 L145 634 C160 653 177 665 197 665 C229 665 252 633 291 633 C328 633 355 657 367 682 L346 735 Z M52 0 L154 0 L152 361 L155 361 L343 0 L435 0 L435 583 L331 583 L332 231 L330 231 L140 583 L52 583 L52 0 Z " />
<glyph glyph-name="Ograve" unicode="&#xd2;" horiz-adv-x="477" d="M278 630 L224 750 L125 750 L202 630 L278 630 Z M234 -9 C380 -9 447 112 447 311 C447 471 389 592 245 592 C96 592 30 461 30 278 C30 102 93 -9 234 -9 L234 -9 Z M238 78 C172 78 141 146 141 294 C141 445 174 506 241 506 C305 506 336 444 336 295 C336 147 308 78 238 78 L238 78 Z " />
<glyph glyph-name="Oacute" unicode="&#xd3;" horiz-adv-x="477" d="M262 630 L339 750 L240 750 L186 630 L262 630 Z M234 -9 C380 -9 447 112 447 311 C447 471 389 592 245 592 C96 592 30 461 30 278 C30 102 93 -9 234 -9 L234 -9 Z M238 78 C172 78 141 146 141 294 C141 445 174 506 241 506 C305 506 336 444 336 295 C336 147 308 78 238 78 L238 78 Z " />
<glyph glyph-name="Ocircumflex" unicode="&#xd4;" horiz-adv-x="477" d="M234 -9 C380 -9 447 112 447 311 C447 471 389 592 245 592 C96 592 30 461 30 278 C30 102 93 -9 234 -9 L234 -9 Z M238 78 C172 78 141 146 141 294 C141 445 174 506 241 506 C305 506 336 444 336 295 C336 147 308 78 238 78 L238 78 Z M201 754 L121 627 L202 627 L238 702 L243 702 L278 627 L358 627 L282 754 L201 754 Z " />
<glyph glyph-name="Otilde" unicode="&#xd5;" horiz-adv-x="477" d="M338 734 C329 718 306 703 286 703 C255 703 235 735 196 735 C159 735 129 709 115 684 L137 633 C152 652 169 664 189 664 C221 664 244 632 283 632 C320 632 347 656 359 681 L338 734 Z M234 -9 C380 -9 447 112 447 311 C447 471 389 592 245 592 C96 592 30 461 30 278 C30 102 93 -9 234 -9 L234 -9 Z M238 78 C172 78 141 146 141 294 C141 445 174 506 241 506 C305 506 336 444 336 295 C336 147 308 78 238 78 L238 78 Z " />
<glyph glyph-name="Odieresis" unicode="&#xd6;" horiz-adv-x="477" d="M166 630 C197 630 217 648 217 680 C217 714 197 733 166 733 C137 733 116 714 116 680 C116 648 137 630 166 630 L166 630 Z M313 630 C343 630 363 648 363 681 C363 714 343 733 313 733 C283 733 263 714 263 681 C263 648 283 630 313 630 L313 630 Z M234 -9 C380 -9 447 112 447 311 C447 471 389 592 245 592 C96 592 30 461 30 278 C30 102 93 -9 234 -9 L234 -9 Z M238 78 C172 78 141 146 141 294 C141 445 174 506 241 506 C305 506 336 444 336 295 C336 147 308 78 238 78 L238 78 Z " />
<glyph glyph-name="multiply" unicode="&#xd7;" horiz-adv-x="365" d="M80 121 L182 245 L285 121 L331 159 L221 292 L331 425 L286 465 L182 339 L78 465 L33 425 L143 292 L33 159 L80 121 Z " />
<glyph glyph-name="Oslash" unicode="&#xd8;" horiz-adv-x="478" d="M234 -9 C380 -9 447 112 447 311 C447 387 433 454 404 503 L461 592 L401 592 L371 546 C340 575 298 592 245 592 C96 592 30 461 30 278 C30 195 44 127 73 78 L18 -9 L78 -9 L107 36 C139 7 181 -9 234 -9 L234 -9 Z M141 294 C141 445 174 506 241 506 C273 506 298 490 313 454 L147 194 C143 222 141 255 141 294 L141 294 Z M238 78 C206 78 182 94 166 128 L330 387 C334 361 336 331 336 295 C336 147 308 78 238 78 L238 78 Z " />
<glyph glyph-name="Ugrave" unicode="&#xd9;" horiz-adv-x="473" d="M281 630 L227 750 L128 750 L205 630 L281 630 Z M239 -9 C343 -9 425 48 425 227 L425 583 L320 583 L320 220 C320 115 295 80 243 80 C191 80 156 107 156 211 L156 583 L48 583 L48 203 C48 38 133 -9 239 -9 L239 -9 Z " />
<glyph glyph-name="Uacute" unicode="&#xda;" horiz-adv-x="473" d="M267 630 L344 750 L245 750 L191 630 L267 630 Z M239 -9 C343 -9 425 48 425 227 L425 583 L320 583 L320 220 C320 115 295 80 243 80 C191 80 156 107 156 211 L156 583 L48 583 L48 203 C48 38 133 -9 239 -9 L239 -9 Z " />
<glyph glyph-name="Ucircumflex" unicode="&#xdb;" horiz-adv-x="473" d="M239 -9 C343 -9 425 48 425 227 L425 583 L320 583 L320 220 C320 115 295 80 243 80 C191 80 156 107 156 211 L156 583 L48 583 L48 203 C48 38 133 -9 239 -9 L239 -9 Z M203 753 L123 626 L204 626 L240 701 L245 701 L280 626 L360 626 L284 753 L203 753 Z " />
<glyph glyph-name="Udieresis" unicode="&#xdc;" horiz-adv-x="473" d="M164 630 C195 630 215 648 215 680 C215 714 195 733 164 733 C135 733 114 714 114 680 C114 648 135 630 164 630 L164 630 Z M311 630 C341 630 361 648 361 681 C361 714 341 733 311 733 C281 733 261 714 261 681 C261 648 281 630 311 630 L311 630 Z M239 -9 C343 -9 425 48 425 227 L425 583 L320 583 L320 220 C320 115 295 80 243 80 C191 80 156 107 156 211 L156 583 L48 583 L48 203 C48 38 133 -9 239 -9 L239 -9 Z " />
<glyph glyph-name="Yacute" unicode="&#xdd;" horiz-adv-x="398" d="M393 583 L293 583 L236 400 L205 304 L202 304 L171 400 L113 583 L6 583 L144 209 L144 0 L253 0 L253 203 L393 583 Z M233 630 L310 750 L211 750 L157 630 L233 630 Z " />
<glyph glyph-name="Thorn" unicode="&#xde;" horiz-adv-x="405" d="M52 0 L160 0 L160 104 L193 104 C335 104 383 196 383 301 C383 427 334 493 215 493 L160 493 L160 583 L52 583 L52 0 Z M193 408 C246 408 273 378 273 301 C273 204 235 190 184 189 L160 189 L160 408 L193 408 Z " />
<glyph glyph-name="germandbls" unicode="&#xdf;" horiz-adv-x="425" d="M218 661 C126 661 45 610 45 481 L45 0 L145 0 L145 471 C145 547 171 572 211 572 C251 572 271 547 271 500 C271 441 191 404 191 322 C191 261 220 230 253 209 C289 188 321 172 321 131 C321 95 295 75 263 75 C239 75 217 78 184 91 L184 5 C216 -4 238 -7 269 -7 C349 -7 409 40 409 131 C409 194 378 228 343 250 C305 274 281 290 281 335 C281 398 367 425 367 520 C367 609 313 661 218 661 L218 661 Z " />
<glyph glyph-name="agrave" unicode="&#xe0;" horiz-adv-x="372" d="M241 0 L342 0 L326 100 L326 326 C326 429 271 463 191 463 C145 463 90 455 45 438 L45 350 C73 361 121 371 157 371 C196 371 226 358 226 305 L226 252 L193 252 C88 252 20 210 20 115 C20 40 60 -7 125 -7 C172 -7 212 20 233 46 L241 0 Z M232 525 L175 668 L78 668 L158 525 L232 525 Z M161 68 C135 68 121 86 121 130 C121 184 148 195 190 195 L226 195 L226 100 C206 80 183 68 161 68 L161 68 Z " />
<glyph glyph-name="aacute" unicode="&#xe1;" horiz-adv-x="372" d="M241 0 L342 0 L326 100 L326 326 C326 429 271 463 191 463 C145 463 90 455 45 438 L45 350 C73 361 121 371 157 371 C196 371 226 358 226 305 L226 252 L193 252 C88 252 20 210 20 115 C20 40 60 -7 125 -7 C172 -7 212 20 233 46 L241 0 Z M218 526 L299 669 L203 669 L145 526 L218 526 Z M161 68 C135 68 121 86 121 130 C121 184 148 195 190 195 L226 195 L226 100 C206 80 183 68 161 68 L161 68 Z " />
<glyph glyph-name="acircumflex" unicode="&#xe2;" horiz-adv-x="372" d="M241 0 L342 0 L326 100 L326 326 C326 429 271 463 191 463 C145 463 90 455 45 438 L45 350 C73 361 121 371 157 371 C196 371 226 358 226 305 L226 252 L193 252 C88 252 20 210 20 115 C20 40 60 -7 125 -7 C172 -7 212 20 233 46 L241 0 Z M148 669 L70 526 L151 526 L184 616 L190 616 L222 526 L302 526 L229 669 L148 669 Z M161 68 C135 68 121 86 121 130 C121 184 148 195 190 195 L226 195 L226 100 C206 80 183 68 161 68 L161 68 Z " />
<glyph glyph-name="atilde" unicode="&#xe3;" horiz-adv-x="372" d="M241 0 L342 0 L326 100 L326 326 C326 429 271 463 191 463 C145 463 90 455 45 438 L45 350 C73 361 121 371 157 371 C196 371 226 358 226 305 L226 252 L193 252 C88 252 20 210 20 115 C20 40 60 -7 125 -7 C172 -7 212 20 233 46 L241 0 Z M287 650 C278 633 255 619 235 619 C204 619 184 651 145 651 C107 651 79 626 63 602 L86 552 C100 571 117 583 137 583 C169 583 193 551 231 551 C269 551 296 575 307 600 L287 650 Z M161 68 C135 68 121 86 121 130 C121 184 148 195 190 195 L226 195 L226 100 C206 80 183 68 161 68 L161 68 Z " />
<glyph glyph-name="adieresis" unicode="&#xe4;" horiz-adv-x="372" d="M241 0 L342 0 L326 100 L326 326 C326 429 271 463 191 463 C145 463 90 455 45 438 L45 350 C73 361 121 371 157 371 C196 371 226 358 226 305 L226 252 L193 252 C88 252 20 210 20 115 C20 40 60 -7 125 -7 C172 -7 212 20 233 46 L241 0 Z M161 68 C135 68 121 86 121 130 C121 184 148 195 190 195 L226 195 L226 100 C206 80 183 68 161 68 L161 68 Z M108 558 C139 558 159 577 159 609 C159 642 139 662 108 662 C78 662 58 643 58 609 C58 577 78 558 108 558 L108 558 Z M254 558 C285 558 305 577 305 610 C305 642 285 662 254 662 C225 662 204 643 204 610 C204 577 225 558 254 558 L254 558 Z " />
<glyph glyph-name="aring" unicode="&#xe5;" horiz-adv-x="372" d="M241 0 L342 0 L326 100 L326 326 C326 429 271 463 191 463 C145 463 90 455 45 438 L45 350 C73 361 121 371 157 371 C196 371 226 358 226 305 L226 252 L193 252 C88 252 20 210 20 115 C20 40 60 -7 125 -7 C172 -7 212 20 233 46 L241 0 Z M186 690 C141 690 103 664 103 605 C103 545 138 518 186 518 C234 518 270 547 270 605 C270 665 233 690 186 690 L186 690 Z M161 68 C135 68 121 86 121 130 C121 184 148 195 190 195 L226 195 L226 100 C206 80 183 68 161 68 L161 68 Z M186 643 C207 643 215 628 215 605 C215 581 207 564 186 564 C167 564 157 581 157 605 C157 626 166 643 186 643 L186 643 Z " />
<glyph glyph-name="ae" unicode="&#xe6;" horiz-adv-x="578" d="M412 -7 C469 -7 509 3 544 20 L544 97 C506 83 469 76 433 76 C370 76 332 107 326 196 L549 196 L549 243 C549 378 509 463 396 463 C355 463 321 449 295 424 C272 452 237 463 192 463 C149 463 94 455 45 437 L45 350 C73 360 121 371 157 371 C196 371 226 358 226 305 L226 254 L193 254 C87 254 21 210 21 115 C21 42 60 -7 126 -7 C191 -7 235 34 259 66 C290 15 342 -7 412 -7 L412 -7 Z M391 379 C433 379 449 329 450 257 L325 257 C330 344 354 379 391 379 L391 379 Z M162 68 C136 68 121 87 121 130 C121 184 148 197 191 197 L226 197 C228 164 232 136 239 112 C218 88 189 68 162 68 L162 68 Z " />
<glyph glyph-name="ccedilla" unicode="&#xe7;" horiz-adv-x="318" d="M174 -214 C234 -214 267 -176 267 -130 C267 -84 241 -58 199 -46 L212 -6 C241 -5 268 1 289 13 L289 95 C268 85 243 80 223 80 C167 80 133 122 133 230 C133 333 170 374 220 374 C241 374 267 371 289 357 L289 449 C262 460 233 463 200 463 C89 463 27 366 27 221 C27 88 71 10 158 -4 L136 -63 L136 -78 C175 -80 195 -99 195 -122 C195 -139 187 -155 159 -155 C144 -155 119 -148 106 -140 L104 -199 C122 -208 149 -214 174 -214 L174 -214 Z " />
<glyph glyph-name="egrave" unicode="&#xe8;" horiz-adv-x="380" d="M211 -7 C275 -7 313 2 347 19 L347 96 C309 83 271 76 236 76 C172 76 135 106 129 199 L351 199 L351 242 C351 380 311 463 200 463 C85 463 27 368 27 218 C27 57 95 -7 211 -7 L211 -7 Z M250 526 L193 669 L96 669 L176 526 L250 526 Z M194 379 C236 379 251 331 252 259 L128 259 C132 347 156 379 194 379 L194 379 Z " />
<glyph glyph-name="eacute" unicode="&#xe9;" horiz-adv-x="380" d="M211 -7 C275 -7 313 2 347 19 L347 96 C309 83 271 76 236 76 C172 76 135 106 129 199 L351 199 L351 242 C351 380 311 463 200 463 C85 463 27 368 27 218 C27 57 95 -7 211 -7 L211 -7 Z M194 379 C236 379 251 331 252 259 L128 259 C132 347 156 379 194 379 L194 379 Z M224 526 L305 669 L209 669 L151 526 L224 526 Z " />
<glyph glyph-name="ecircumflex" unicode="&#xea;" horiz-adv-x="380" d="M211 -7 C275 -7 313 2 347 19 L347 96 C309 83 271 76 236 76 C172 76 135 106 129 199 L351 199 L351 242 C351 380 311 463 200 463 C85 463 27 368 27 218 C27 57 95 -7 211 -7 L211 -7 Z M163 669 L85 526 L166 526 L199 616 L205 616 L237 526 L317 526 L244 669 L163 669 Z M194 379 C236 379 251 331 252 259 L128 259 C132 347 156 379 194 379 L194 379 Z " />
<glyph glyph-name="edieresis" unicode="&#xeb;" horiz-adv-x="380" d="M211 -7 C275 -7 313 2 347 19 L347 96 C309 83 271 76 236 76 C172 76 135 106 129 199 L351 199 L351 242 C351 380 311 463 200 463 C85 463 27 368 27 218 C27 57 95 -7 211 -7 L211 -7 Z M194 379 C236 379 251 331 252 259 L128 259 C132 347 156 379 194 379 L194 379 Z M124 558 C155 558 175 577 175 609 C175 642 155 662 124 662 C94 662 74 643 74 609 C74 577 94 558 124 558 L124 558 Z M270 558 C301 558 321 577 321 610 C321 642 301 662 270 662 C241 662 220 643 220 610 C220 577 241 558 270 558 L270 558 Z " />
<glyph glyph-name="igrave" unicode="&#xec;" horiz-adv-x="207" d="M17 368 L62 368 L62 0 L163 0 L163 452 L17 452 L17 368 Z M153 526 L96 669 L-1 669 L79 526 L153 526 Z " />
<glyph glyph-name="iacute" unicode="&#xed;" horiz-adv-x="207" d="M17 368 L62 368 L62 0 L163 0 L163 452 L17 452 L17 368 Z M142 526 L223 669 L127 669 L69 526 L142 526 Z " />
<glyph glyph-name="icircumflex" unicode="&#xee;" horiz-adv-x="207" d="M17 368 L62 368 L62 0 L163 0 L163 452 L17 452 L17 368 Z M71 669 L-7 526 L74 526 L107 616 L113 616 L145 526 L225 526 L152 669 L71 669 Z " />
<glyph glyph-name="idieresis" unicode="&#xef;" horiz-adv-x="207" d="M17 368 L62 368 L62 0 L163 0 L163 452 L17 452 L17 368 Z M36 558 C67 558 87 577 87 609 C87 642 67 662 36 662 C6 662 -14 643 -14 609 C-14 577 6 558 36 558 L36 558 Z M182 558 C213 558 233 577 233 610 C233 642 213 662 182 662 C153 662 132 643 132 610 C132 577 153 558 182 558 L182 558 Z " />
<glyph glyph-name="eth" unicode="&#xf0;" horiz-adv-x="395" d="M158 509 L199 545 C217 520 229 491 240 453 C228 461 211 464 192 464 C109 464 24 387 24 220 C24 62 90 -8 190 -8 C305 -8 360 96 360 246 C360 380 331 503 256 595 L301 635 L265 674 L220 634 C204 648 187 662 169 674 L119 624 C137 610 152 597 165 585 L124 548 L158 509 Z M257 227 C257 138 243 73 192 73 C143 73 127 125 127 227 C127 316 143 381 193 381 C215 381 231 377 252 364 C255 328 257 270 257 227 L257 227 Z " />
<glyph glyph-name="ntilde" unicode="&#xf1;" horiz-adv-x="413" d="M47 0 L147 0 L147 333 C169 353 195 371 219 371 C261 371 269 341 269 268 L269 0 L370 0 L370 318 C370 425 331 461 265 461 C215 461 170 434 140 402 L133 452 L33 452 L47 344 L47 0 Z M309 650 C300 633 277 619 257 619 C226 619 206 651 167 651 C129 651 101 626 85 602 L108 552 C122 571 139 583 159 583 C191 583 215 551 253 551 C291 551 318 575 329 600 L309 650 Z " />
<glyph glyph-name="ograve" unicode="&#xf2;" horiz-adv-x="389" d="M192 -7 C304 -7 362 98 362 232 C362 392 311 463 197 463 C89 463 27 358 27 221 C27 64 85 -7 192 -7 L192 -7 Z M195 74 C143 74 129 118 129 227 C129 325 143 379 195 379 C252 379 260 326 260 227 C260 127 247 74 195 74 L195 74 Z M232 526 L175 669 L78 669 L158 526 L232 526 Z " />
<glyph glyph-name="oacute" unicode="&#xf3;" horiz-adv-x="389" d="M229 526 L310 669 L214 669 L156 526 L229 526 Z M192 -7 C304 -7 362 98 362 232 C362 392 311 463 197 463 C89 463 27 358 27 221 C27 64 85 -7 192 -7 L192 -7 Z M195 74 C143 74 129 118 129 227 C129 325 143 379 195 379 C252 379 260 326 260 227 C260 127 247 74 195 74 L195 74 Z " />
<glyph glyph-name="ocircumflex" unicode="&#xf4;" horiz-adv-x="389" d="M162 664 L84 521 L165 521 L198 611 L204 611 L236 521 L316 521 L243 664 L162 664 Z M192 -7 C304 -7 362 98 362 232 C362 392 311 463 197 463 C89 463 27 358 27 221 C27 64 85 -7 192 -7 L192 -7 Z M195 74 C143 74 129 118 129 227 C129 325 143 379 195 379 C252 379 260 326 260 227 C260 127 247 74 195 74 L195 74 Z " />
<glyph glyph-name="otilde" unicode="&#xf5;" horiz-adv-x="389" d="M192 -7 C304 -7 362 98 362 232 C362 392 311 463 197 463 C89 463 27 358 27 221 C27 64 85 -7 192 -7 L192 -7 Z M195 74 C143 74 129 118 129 227 C129 325 143 379 195 379 C252 379 260 326 260 227 C260 127 247 74 195 74 L195 74 Z M297 650 C288 633 265 619 245 619 C214 619 194 651 155 651 C117 651 89 626 73 602 L96 552 C110 571 127 583 147 583 C179 583 203 551 241 551 C279 551 306 575 317 600 L297 650 Z " />
<glyph glyph-name="odieresis" unicode="&#xf6;" horiz-adv-x="389" d="M124 558 C155 558 175 577 175 609 C175 642 155 662 124 662 C94 662 74 643 74 609 C74 577 94 558 124 558 L124 558 Z M270 558 C301 558 321 577 321 610 C321 642 301 662 270 662 C241 662 220 643 220 610 C220 577 241 558 270 558 L270 558 Z M192 -7 C304 -7 362 98 362 232 C362 392 311 463 197 463 C89 463 27 358 27 221 C27 64 85 -7 192 -7 L192 -7 Z M195 74 C143 74 129 118 129 227 C129 325 143 379 195 379 C252 379 260 326 260 227 C260 127 247 74 195 74 L195 74 Z " />
<glyph glyph-name="divide" unicode="&#xf7;" horiz-adv-x="363" d="M36 258 L327 258 L327 331 L36 331 L36 258 Z M180 384 C210 384 238 404 238 441 C238 477 210 498 180 498 C151 498 122 478 122 441 C122 405 151 384 180 384 L180 384 Z M180 92 C210 92 238 112 238 149 C238 185 210 206 180 206 C151 206 122 186 122 149 C122 113 151 92 180 92 L180 92 Z " />
<glyph glyph-name="oslash" unicode="&#xf8;" horiz-adv-x="390" d="M192 -7 C304 -7 362 98 362 232 C362 304 351 358 330 395 L375 464 L323 464 L301 430 C275 452 241 463 197 463 C89 463 27 358 27 221 C27 150 38 97 61 60 L16 -9 L66 -9 L89 26 C115 3 150 -7 192 -7 L192 -7 Z M195 74 C169 74 153 85 143 109 L258 286 C259 268 260 249 260 227 C260 127 247 74 195 74 L195 74 Z M129 227 C129 325 143 379 195 379 C221 379 237 368 246 346 L131 168 C129 185 129 205 129 227 L129 227 Z " />
<glyph glyph-name="ugrave" unicode="&#xf9;" horiz-adv-x="410" d="M363 452 L263 452 L263 120 C242 100 218 82 194 82 C153 82 144 112 144 185 L144 452 L43 452 L43 136 C43 29 83 -9 148 -9 C198 -9 240 19 270 51 L278 0 L378 0 L363 109 L363 452 Z M254 526 L197 669 L100 669 L180 526 L254 526 Z " />
<glyph glyph-name="uacute" unicode="&#xfa;" horiz-adv-x="410" d="M363 452 L263 452 L263 120 C242 100 218 82 194 82 C153 82 144 112 144 185 L144 452 L43 452 L43 136 C43 29 83 -9 148 -9 C198 -9 240 19 270 51 L278 0 L378 0 L363 109 L363 452 Z M229 526 L310 669 L214 669 L156 526 L229 526 Z " />
<glyph glyph-name="ucircumflex" unicode="&#xfb;" horiz-adv-x="410" d="M363 452 L263 452 L263 120 C242 100 218 82 194 82 C153 82 144 112 144 185 L144 452 L43 452 L43 136 C43 29 83 -9 148 -9 C198 -9 240 19 270 51 L278 0 L378 0 L363 109 L363 452 Z M170 669 L92 526 L173 526 L206 616 L212 616 L244 526 L324 526 L251 669 L170 669 Z " />
<glyph glyph-name="udieresis" unicode="&#xfc;" horiz-adv-x="410" d="M363 452 L263 452 L263 120 C242 100 218 82 194 82 C153 82 144 112 144 185 L144 452 L43 452 L43 136 C43 29 83 -9 148 -9 C198 -9 240 19 270 51 L278 0 L378 0 L363 109 L363 452 Z M125 558 C156 558 176 577 176 609 C176 642 156 662 125 662 C95 662 75 643 75 609 C75 577 95 558 125 558 L125 558 Z M271 558 C302 558 322 577 322 610 C322 642 302 662 271 662 C242 662 221 643 221 610 C221 577 242 558 271 558 L271 558 Z " />
<glyph glyph-name="yacute" unicode="&#xfd;" horiz-adv-x="359" d="M193 -207 L242 4 L350 452 L248 452 L202 222 L182 104 L178 104 L159 220 L114 452 L14 452 L112 0 L144 0 L88 -204 L90 -207 L193 -207 Z M211 526 L292 669 L196 669 L138 526 L211 526 Z " />
<glyph glyph-name="thorn" unicode="&#xfe;" horiz-adv-x="398" d="M45 -207 L145 -207 L145 -1 C161 -5 179 -7 198 -7 C294 -7 370 58 370 246 C370 398 323 463 243 463 C203 463 171 446 145 421 L145 653 L45 653 L45 -207 Z M204 380 C249 380 267 343 267 236 C267 131 249 74 188 74 C175 74 159 75 145 78 L145 353 C162 369 182 380 204 380 L204 380 Z " />
<glyph glyph-name="ydieresis" unicode="&#xff;" horiz-adv-x="359" d="M193 -207 L242 4 L350 452 L248 452 L202 222 L182 104 L178 104 L159 220 L114 452 L14 452 L112 0 L144 0 L88 -204 L90 -207 L193 -207 Z M109 559 C140 559 160 578 160 610 C160 643 140 663 109 663 C79 663 59 644 59 610 C59 578 79 559 109 559 L109 559 Z M255 559 C286 559 306 578 306 611 C306 643 286 663 255 663 C226 663 205 644 205 611 C205 578 226 559 255 559 L255 559 Z " />
<glyph glyph-name="Amacron" unicode="&#x100;" horiz-adv-x="408" d="M6 0 L110 0 L141 153 L259 153 L284 0 L392 0 L271 583 L146 583 L6 0 Z M105 650 L315 650 L315 725 L105 725 L105 650 Z M174 317 L204 475 L209 475 L233 316 L245 240 L158 240 L174 317 Z " />
<glyph glyph-name="amacron" unicode="&#x101;" horiz-adv-x="372" d="M241 0 L342 0 L326 100 L326 326 C326 429 271 463 191 463 C145 463 90 455 45 438 L45 350 C73 361 121 371 157 371 C196 371 226 358 226 305 L226 252 L193 252 C88 252 20 210 20 115 C20 40 60 -7 125 -7 C172 -7 212 20 233 46 L241 0 Z M81 561 L292 561 L292 637 L81 637 L81 561 Z M161 68 C135 68 121 86 121 130 C121 184 148 195 190 195 L226 195 L226 100 C206 80 183 68 161 68 L161 68 Z " />
<glyph glyph-name="Abreve" unicode="&#x102;" horiz-adv-x="408" d="M6 0 L110 0 L141 153 L259 153 L284 0 L392 0 L271 583 L146 583 L6 0 Z M210 697 C181 697 159 714 147 748 L97 711 C110 663 148 631 209 631 C269 631 313 662 323 714 L278 749 C266 715 244 697 210 697 L210 697 Z M174 317 L204 475 L209 475 L233 316 L245 240 L158 240 L174 317 Z " />
<glyph glyph-name="abreve" unicode="&#x103;" horiz-adv-x="372" d="M241 0 L342 0 L326 100 L326 326 C326 429 271 463 191 463 C145 463 90 455 45 438 L45 350 C73 361 121 371 157 371 C196 371 226 358 226 305 L226 252 L193 252 C88 252 20 210 20 115 C20 40 60 -7 125 -7 C172 -7 212 20 233 46 L241 0 Z M182 600 C150 600 132 621 120 656 L70 619 C82 571 121 533 182 533 C241 533 284 570 296 621 L250 656 C238 623 219 600 182 600 L182 600 Z M161 68 C135 68 121 86 121 130 C121 184 148 195 190 195 L226 195 L226 100 C206 80 183 68 161 68 L161 68 Z " />
<glyph glyph-name="Aogonek" unicode="&#x104;" horiz-adv-x="408" d="M385 -197 L385 -136 C370 -143 352 -146 337 -146 C315 -146 297 -134 297 -106 C297 -71 315 -35 359 0 L392 0 L271 583 L146 583 L6 0 L110 0 L141 153 L259 153 L284 0 L291 0 C252 -30 221 -72 221 -124 C221 -180 255 -213 316 -213 C342 -213 367 -207 385 -197 L385 -197 Z M174 317 L204 475 L209 475 L233 316 L245 240 L158 240 L174 317 Z " />
<glyph glyph-name="aogonek" unicode="&#x105;" horiz-adv-x="372" d="M241 0 L245 0 C206 -30 175 -72 175 -124 C175 -180 209 -213 270 -213 C296 -213 321 -207 339 -197 L339 -136 C324 -143 306 -146 291 -146 C269 -146 251 -134 251 -106 C251 -71 269 -35 313 0 L342 0 L326 100 L326 326 C326 429 271 463 191 463 C145 463 90 455 45 438 L45 350 C73 361 121 371 157 371 C196 371 226 358 226 305 L226 252 L193 252 C88 252 20 210 20 115 C20 40 60 -7 125 -7 C172 -7 212 20 233 46 L241 0 Z M161 68 C135 68 121 86 121 130 C121 184 148 195 190 195 L226 195 L226 100 C206 80 183 68 161 68 L161 68 Z " />
<glyph glyph-name="Cacute" unicode="&#x106;" horiz-adv-x="389" d="M240 -9 C290 -9 335 2 359 15 L359 104 C328 86 300 81 267 81 C182 81 142 147 142 295 C142 423 181 502 262 502 C295 502 324 497 359 477 L359 571 C334 582 299 592 244 592 C93 592 30 463 30 283 C30 88 98 -9 240 -9 L240 -9 Z M260 630 L337 750 L238 750 L184 630 L260 630 Z " />
<glyph glyph-name="cacute" unicode="&#x107;" horiz-adv-x="318" d="M218 526 L299 669 L203 669 L145 526 L218 526 Z M191 -7 C228 -7 263 -2 289 13 L289 95 C268 85 243 80 223 80 C167 80 133 122 133 230 C133 333 170 374 220 374 C241 374 267 371 289 357 L289 449 C262 460 233 463 200 463 C89 463 27 366 27 221 C27 73 83 -7 191 -7 L191 -7 Z " />
<glyph glyph-name="Ccircumflex" unicode="&#x108;" horiz-adv-x="389" d="M240 -9 C290 -9 335 2 359 15 L359 104 C328 86 300 81 267 81 C182 81 142 147 142 295 C142 423 181 502 262 502 C295 502 324 497 359 477 L359 571 C334 582 299 592 244 592 C93 592 30 463 30 283 C30 88 98 -9 240 -9 L240 -9 Z M196 753 L116 626 L197 626 L233 701 L238 701 L273 626 L353 626 L277 753 L196 753 Z " />
<glyph glyph-name="ccircumflex" unicode="&#x109;" horiz-adv-x="318" d="M155 669 L77 526 L158 526 L191 616 L197 616 L229 526 L309 526 L236 669 L155 669 Z M191 -7 C228 -7 263 -2 289 13 L289 95 C268 85 243 80 223 80 C167 80 133 122 133 230 C133 333 170 374 220 374 C241 374 267 371 289 357 L289 449 C262 460 233 463 200 463 C89 463 27 366 27 221 C27 73 83 -7 191 -7 L191 -7 Z " />
<glyph glyph-name="Cdotaccent" unicode="&#x10a;" horiz-adv-x="389" d="M233 635 C267 635 290 655 290 688 C290 719 267 741 233 741 C201 741 178 720 178 688 C178 655 201 635 233 635 L233 635 Z M240 -9 C290 -9 335 2 359 15 L359 104 C328 86 300 81 267 81 C182 81 142 147 142 295 C142 423 181 502 262 502 C295 502 324 497 359 477 L359 571 C334 582 299 592 244 592 C93 592 30 463 30 283 C30 88 98 -9 240 -9 L240 -9 Z " />
<glyph glyph-name="cdotaccent" unicode="&#x10b;" horiz-adv-x="318" d="M191 -7 C228 -7 263 -2 289 13 L289 95 C268 85 243 80 223 80 C167 80 133 122 133 230 C133 333 170 374 220 374 C241 374 267 371 289 357 L289 449 C262 460 233 463 200 463 C89 463 27 366 27 221 C27 73 83 -7 191 -7 L191 -7 Z M191 555 C221 555 249 575 249 612 C249 648 221 669 191 669 C162 669 133 649 133 612 C133 576 162 555 191 555 L191 555 Z " />
<glyph glyph-name="Ccaron" unicode="&#x10c;" horiz-adv-x="389" d="M240 -9 C290 -9 335 2 359 15 L359 104 C328 86 300 81 267 81 C182 81 142 147 142 295 C142 423 181 502 262 502 C295 502 324 497 359 477 L359 571 C334 582 299 592 244 592 C93 592 30 463 30 283 C30 88 98 -9 240 -9 L240 -9 Z M274 624 L354 750 L274 750 L237 675 L232 675 L197 750 L118 750 L193 624 L274 624 Z " />
<glyph glyph-name="ccaron" unicode="&#x10d;" horiz-adv-x="318" d="M225 527 L303 669 L222 669 L189 582 L184 582 L151 669 L72 669 L144 527 L225 527 Z M191 -7 C228 -7 263 -2 289 13 L289 95 C268 85 243 80 223 80 C167 80 133 122 133 230 C133 333 170 374 220 374 C241 374 267 371 289 357 L289 449 C262 460 233 463 200 463 C89 463 27 366 27 221 C27 73 83 -7 191 -7 L191 -7 Z " />
<glyph glyph-name="Dcaron" unicode="&#x10e;" horiz-adv-x="475" d="M52 0 L222 0 C352 0 446 104 446 304 C446 520 336 583 221 583 L52 583 L52 0 Z M199 496 C282 496 335 461 335 294 C335 142 286 87 205 87 L160 87 L160 496 L199 496 Z M246 622 L326 748 L246 748 L209 673 L204 673 L169 748 L90 748 L165 622 L246 622 Z " />
<glyph glyph-name="dcaron" unicode="&#x10f;" horiz-adv-x="414" d="M270 0 L372 0 L357 98 L357 653 L256 653 L256 457 C238 460 214 463 196 463 C98 463 27 380 27 208 C27 54 87 -7 159 -7 C201 -7 236 16 261 51 L270 0 Z M193 78 C150 78 133 125 133 220 C133 332 159 383 211 383 C225 383 242 381 256 376 L256 108 C232 88 214 78 193 78 L193 78 Z M385 481 L439 481 L480 653 L398 653 L385 481 Z " />
<glyph glyph-name="Dcroat" unicode="&#x110;" horiz-adv-x="478" d="M16 262 L54 262 L54 0 L224 0 C354 0 448 104 448 304 C448 520 338 583 223 583 L54 583 L54 336 L16 336 L16 262 Z M244 262 L244 336 L162 336 L162 496 L201 496 C284 496 337 461 337 294 C337 142 288 87 207 87 L162 87 L162 262 L244 262 Z " />
<glyph glyph-name="dcroat" unicode="&#x111;" horiz-adv-x="404" d="M143 532 L256 532 L256 457 C238 460 214 463 196 463 C98 463 27 380 27 208 C27 54 87 -7 159 -7 C201 -7 236 16 261 51 L270 0 L372 0 L357 98 L357 532 L400 532 L400 599 L357 599 L357 653 L256 653 L256 599 L143 599 L143 532 Z M193 78 C150 78 133 125 133 220 C133 332 159 383 211 383 C225 383 242 381 256 376 L256 108 C232 88 214 78 193 78 L193 78 Z " />
<glyph glyph-name="Emacron" unicode="&#x112;" horiz-adv-x="364" d="M52 0 L337 0 L337 87 L160 87 L160 257 L307 257 L307 340 L160 340 L160 496 L333 496 L333 583 L52 583 L52 0 Z M93 651 L303 651 L303 726 L93 726 L93 651 Z " />
<glyph glyph-name="emacron" unicode="&#x113;" horiz-adv-x="380" d="M211 -7 C275 -7 313 2 347 19 L347 96 C309 83 271 76 236 76 C172 76 135 106 129 199 L351 199 L351 242 C351 380 311 463 200 463 C85 463 27 368 27 218 C27 57 95 -7 211 -7 L211 -7 Z M96 561 L307 561 L307 637 L96 637 L96 561 Z M194 379 C236 379 251 331 252 259 L128 259 C132 347 156 379 194 379 L194 379 Z " />
<glyph glyph-name="Ebreve" unicode="&#x114;" horiz-adv-x="364" d="M52 0 L337 0 L337 87 L160 87 L160 257 L307 257 L307 340 L160 340 L160 496 L333 496 L333 583 L52 583 L52 0 Z M199 697 C170 697 148 714 136 748 L86 711 C99 663 137 631 198 631 C258 631 302 662 312 714 L267 749 C255 715 233 697 199 697 L199 697 Z " />
<glyph glyph-name="ebreve" unicode="&#x115;" horiz-adv-x="380" d="M211 -7 C275 -7 313 2 347 19 L347 96 C309 83 271 76 236 76 C172 76 135 106 129 199 L351 199 L351 242 C351 380 311 463 200 463 C85 463 27 368 27 218 C27 57 95 -7 211 -7 L211 -7 Z M194 600 C162 600 144 621 132 656 L82 619 C94 571 133 533 194 533 C253 533 296 570 308 621 L262 656 C250 623 231 600 194 600 L194 600 Z M194 379 C236 379 251 331 252 259 L128 259 C132 347 156 379 194 379 L194 379 Z " />
<glyph glyph-name="Edotaccent" unicode="&#x116;" horiz-adv-x="364" d="M52 0 L337 0 L337 87 L160 87 L160 257 L307 257 L307 340 L160 340 L160 496 L333 496 L333 583 L52 583 L52 0 Z M203 634 C237 634 260 654 260 687 C260 718 237 740 203 740 C171 740 148 719 148 687 C148 654 171 634 203 634 L203 634 Z " />
<glyph glyph-name="edotaccent" unicode="&#x117;" horiz-adv-x="380" d="M211 -7 C275 -7 313 2 347 19 L347 96 C309 83 271 76 236 76 C172 76 135 106 129 199 L351 199 L351 242 C351 380 311 463 200 463 C85 463 27 368 27 218 C27 57 95 -7 211 -7 L211 -7 Z M194 379 C236 379 251 331 252 259 L128 259 C132 347 156 379 194 379 L194 379 Z M194 555 C224 555 252 575 252 612 C252 648 224 669 194 669 C165 669 136 649 136 612 C136 576 165 555 194 555 L194 555 Z " />
<glyph glyph-name="Eogonek" unicode="&#x118;" horiz-adv-x="364" d="M52 0 L248 0 C209 -30 178 -72 178 -124 C178 -180 212 -213 273 -213 C299 -213 324 -207 342 -197 L342 -136 C327 -143 309 -146 294 -146 C272 -146 254 -134 254 -106 C254 -71 272 -35 316 0 L337 0 L337 87 L160 87 L160 257 L307 257 L307 340 L160 340 L160 496 L333 496 L333 583 L52 583 L52 0 Z " />
<glyph glyph-name="eogonek" unicode="&#x119;" horiz-adv-x="380" d="M211 -7 L228 -7 C194 -36 167 -76 167 -124 C167 -180 201 -213 262 -213 C288 -213 313 -207 331 -197 L331 -136 C316 -143 298 -146 283 -146 C261 -146 243 -134 243 -106 C243 -69 263 -32 312 5 C325 9 336 13 347 19 L347 96 C309 83 271 76 236 76 C172 76 135 106 129 199 L351 199 L351 242 C351 380 311 463 200 463 C85 463 27 368 27 218 C27 57 95 -7 211 -7 L211 -7 Z M194 379 C236 379 251 331 252 259 L128 259 C132 347 156 379 194 379 L194 379 Z " />
<glyph glyph-name="Ecaron" unicode="&#x11a;" horiz-adv-x="364" d="M52 0 L337 0 L337 87 L160 87 L160 257 L307 257 L307 340 L160 340 L160 496 L333 496 L333 583 L52 583 L52 0 Z M236 624 L316 750 L236 750 L199 675 L194 675 L159 750 L80 750 L155 624 L236 624 Z " />
<glyph glyph-name="ecaron" unicode="&#x11b;" horiz-adv-x="380" d="M211 -7 C275 -7 313 2 347 19 L347 96 C309 83 271 76 236 76 C172 76 135 106 129 199 L351 199 L351 242 C351 380 311 463 200 463 C85 463 27 368 27 218 C27 57 95 -7 211 -7 L211 -7 Z M234 527 L312 669 L231 669 L198 582 L193 582 L160 669 L81 669 L153 527 L234 527 Z M194 379 C236 379 251 331 252 259 L128 259 C132 347 156 379 194 379 L194 379 Z " />
<glyph glyph-name="Gcircumflex" unicode="&#x11c;" horiz-adv-x="451" d="M261 -9 C319 -9 363 3 412 29 L412 304 L309 304 L309 88 C293 83 277 81 259 81 C187 81 140 134 140 295 C140 437 202 499 286 499 C327 499 368 492 406 472 L407 567 C373 580 334 592 274 592 C113 592 30 465 30 283 C30 89 100 -9 261 -9 L261 -9 Z M227 754 L147 627 L228 627 L264 702 L269 702 L304 627 L384 627 L308 754 L227 754 Z " />
<glyph glyph-name="gcircumflex" unicode="&#x11d;" horiz-adv-x="383" d="M184 171 C264 171 336 233 336 315 C336 343 330 367 321 388 L377 388 L377 456 L275 440 C250 455 219 463 183 463 C95 463 30 401 30 311 C30 239 66 198 117 181 L43 105 L43 50 L100 42 C54 16 10 -23 10 -84 C10 -164 70 -214 176 -214 C292 -214 368 -135 368 -32 C368 41 332 94 234 106 L136 119 L173 171 L184 171 Z M197 29 C255 20 273 -4 273 -46 C273 -101 236 -140 185 -140 C134 -140 109 -113 109 -65 C109 -29 130 3 162 33 L197 29 Z M147 669 L69 526 L150 526 L183 616 L189 616 L221 526 L301 526 L228 669 L147 669 Z M184 237 C147 237 130 266 130 317 C130 372 145 396 181 396 C216 396 234 371 234 315 C234 266 217 237 184 237 L184 237 Z " />
<glyph glyph-name="Gbreve" unicode="&#x11e;" horiz-adv-x="451" d="M261 -9 C319 -9 363 3 412 29 L412 304 L309 304 L309 88 C293 83 277 81 259 81 C187 81 140 134 140 295 C140 437 202 499 286 499 C327 499 368 492 406 472 L407 567 C373 580 334 592 274 592 C113 592 30 465 30 283 C30 89 100 -9 261 -9 L261 -9 Z M264 696 C235 696 213 713 201 747 L151 710 C164 662 202 630 263 630 C323 630 367 661 377 713 L332 748 C320 714 298 696 264 696 L264 696 Z " />
<glyph glyph-name="gbreve" unicode="&#x11f;" horiz-adv-x="383" d="M184 171 C264 171 336 233 336 315 C336 343 330 367 321 388 L377 388 L377 456 L275 440 C250 455 219 463 183 463 C95 463 30 401 30 311 C30 239 66 198 117 181 L43 105 L43 50 L100 42 C54 16 10 -23 10 -84 C10 -164 70 -214 176 -214 C292 -214 368 -135 368 -32 C368 41 332 94 234 106 L136 119 L173 171 L184 171 Z M197 29 C255 20 273 -4 273 -46 C273 -101 236 -140 185 -140 C134 -140 109 -113 109 -65 C109 -29 130 3 162 33 L197 29 Z M183 600 C151 600 133 621 121 656 L71 619 C83 571 122 533 183 533 C242 533 285 570 297 621 L251 656 C239 623 220 600 183 600 L183 600 Z M184 237 C147 237 130 266 130 317 C130 372 145 396 181 396 C216 396 234 371 234 315 C234 266 217 237 184 237 L184 237 Z " />
<glyph glyph-name="Gdotaccent" unicode="&#x120;" horiz-adv-x="451" d="M261 -9 C319 -9 363 3 412 29 L412 304 L309 304 L309 88 C293 83 277 81 259 81 C187 81 140 134 140 295 C140 437 202 499 286 499 C327 499 368 492 406 472 L407 567 C373 580 334 592 274 592 C113 592 30 465 30 283 C30 89 100 -9 261 -9 L261 -9 Z M262 635 C296 635 319 655 319 688 C319 719 296 741 262 741 C230 741 207 720 207 688 C207 655 230 635 262 635 L262 635 Z " />
<glyph glyph-name="gdotaccent" unicode="&#x121;" horiz-adv-x="383" d="M184 171 C264 171 336 233 336 315 C336 343 330 367 321 388 L377 388 L377 456 L275 440 C250 455 219 463 183 463 C95 463 30 401 30 311 C30 239 66 198 117 181 L43 105 L43 50 L100 42 C54 16 10 -23 10 -84 C10 -164 70 -214 176 -214 C292 -214 368 -135 368 -32 C368 41 332 94 234 106 L136 119 L173 171 L184 171 Z M197 29 C255 20 273 -4 273 -46 C273 -101 236 -140 185 -140 C134 -140 109 -113 109 -65 C109 -29 130 3 162 33 L197 29 Z M184 237 C147 237 130 266 130 317 C130 372 145 396 181 396 C216 396 234 371 234 315 C234 266 217 237 184 237 L184 237 Z M183 555 C213 555 241 575 241 612 C241 648 213 669 183 669 C154 669 125 649 125 612 C125 576 154 555 183 555 L183 555 Z " />
<glyph glyph-name="Gcommaaccent" unicode="&#x122;" horiz-adv-x="451" d="M261 -9 C319 -9 363 3 412 29 L412 304 L309 304 L309 88 C293 83 277 81 259 81 C187 81 140 134 140 295 C140 437 202 499 286 499 C327 499 368 492 406 472 L407 567 C373 580 334 592 274 592 C113 592 30 465 30 283 C30 89 100 -9 261 -9 L261 -9 Z M203 -236 L271 -236 L304 -62 L222 -62 L203 -236 Z " />
<glyph glyph-name="gcommaaccent" unicode="&#x123;" horiz-adv-x="383" d="M184 171 C264 171 336 233 336 315 C336 343 330 367 321 388 L377 388 L377 456 L275 440 C250 455 219 463 183 463 C95 463 30 401 30 311 C30 239 66 198 117 181 L43 105 L43 50 L100 42 C54 16 10 -23 10 -84 C10 -164 70 -214 176 -214 C292 -214 368 -135 368 -32 C368 41 332 94 234 106 L136 119 L173 171 L184 171 Z M197 29 C255 20 273 -4 273 -46 C273 -101 236 -140 185 -140 C134 -140 109 -113 109 -65 C109 -29 130 3 162 33 L197 29 Z M184 237 C147 237 130 266 130 317 C130 372 145 396 181 396 C216 396 234 371 234 315 C234 266 217 237 184 237 L184 237 Z M237 690 L169 690 L136 513 L218 513 L237 690 Z " />
<glyph glyph-name="Hcircumflex" unicode="&#x124;" horiz-adv-x="497" d="M337 0 L445 0 L445 583 L337 583 L337 342 L160 342 L160 583 L52 583 L52 0 L160 0 L160 255 L337 255 L337 0 Z M207 753 L127 626 L208 626 L244 701 L249 701 L284 626 L364 626 L288 753 L207 753 Z " />
<glyph glyph-name="hcircumflex" unicode="&#x125;" horiz-adv-x="411" d="M267 0 L369 0 L369 318 C369 425 329 461 263 461 C216 461 175 438 145 409 L145 653 L45 653 L45 0 L145 0 L145 333 C166 353 192 371 217 371 C259 371 267 341 267 268 L267 0 Z M57 801 L-23 674 L58 674 L94 749 L99 749 L134 674 L214 674 L138 801 L57 801 Z " />
<glyph glyph-name="Hbar" unicode="&#x126;" horiz-adv-x="501" d="M19 443 L53 443 L53 0 L161 0 L161 255 L338 255 L338 0 L446 0 L446 443 L482 443 L482 509 L446 509 L446 583 L338 583 L338 509 L161 509 L161 583 L53 583 L53 509 L19 509 L19 443 Z M161 443 L338 443 L338 342 L161 342 L161 443 Z " />
<glyph glyph-name="hbar" unicode="&#x127;" horiz-adv-x="411" d="M-10 529 L45 529 L45 0 L145 0 L145 333 C166 353 192 371 217 371 C259 371 267 341 267 268 L267 0 L369 0 L369 318 C369 425 329 461 263 461 C216 461 175 438 145 409 L145 529 L241 529 L241 595 L145 595 L145 653 L45 653 L45 595 L-10 595 L-10 529 Z " />
<glyph glyph-name="Itilde" unicode="&#x128;" horiz-adv-x="212" d="M52 0 L160 0 L160 583 L52 583 L52 0 Z M207 735 C198 719 175 704 155 704 C124 704 104 736 65 736 C28 736 -2 710 -16 685 L6 634 C21 653 38 665 58 665 C90 665 113 633 152 633 C189 633 216 657 228 682 L207 735 Z " />
<glyph glyph-name="itilde" unicode="&#x129;" horiz-adv-x="207" d="M17 368 L62 368 L62 0 L163 0 L163 452 L17 452 L17 368 Z M211 650 C202 633 179 619 159 619 C128 619 108 651 69 651 C31 651 3 626 -13 602 L10 552 C24 571 41 583 61 583 C93 583 117 551 155 551 C193 551 220 575 231 600 L211 650 Z " />
<glyph glyph-name="Imacron" unicode="&#x12a;" horiz-adv-x="212" d="M52 0 L160 0 L160 583 L52 583 L52 0 Z M2 651 L212 651 L212 726 L2 726 L2 651 Z " />
<glyph glyph-name="imacron" unicode="&#x12b;" horiz-adv-x="207" d="M17 368 L62 368 L62 0 L163 0 L163 452 L17 452 L17 368 Z M4 561 L215 561 L215 637 L4 637 L4 561 Z " />
<glyph glyph-name="Ibreve" unicode="&#x12c;" horiz-adv-x="212" d="M52 0 L160 0 L160 583 L52 583 L52 0 Z M106 697 C77 697 55 714 43 748 L-7 711 C6 663 44 631 105 631 C165 631 209 662 219 714 L174 749 C162 715 140 697 106 697 L106 697 Z " />
<glyph glyph-name="ibreve" unicode="&#x12d;" horiz-adv-x="207" d="M17 368 L62 368 L62 0 L163 0 L163 452 L17 452 L17 368 Z M108 600 C76 600 58 621 46 656 L-4 619 C8 571 47 533 108 533 C167 533 210 570 222 621 L176 656 C164 623 145 600 108 600 L108 600 Z " />
<glyph glyph-name="Iogonek" unicode="&#x12e;" horiz-adv-x="212" d="M52 0 L63 0 C24 -30 -7 -72 -7 -124 C-7 -180 27 -213 88 -213 C114 -213 139 -207 157 -197 L157 -136 C142 -143 124 -146 109 -146 C87 -146 69 -134 69 -106 C69 -71 87 -35 131 0 L160 0 L160 583 L52 583 L52 0 Z " />
<glyph glyph-name="iogonek" unicode="&#x12f;" horiz-adv-x="207" d="M17 368 L62 368 L62 0 L73 0 C34 -30 3 -72 3 -124 C3 -180 37 -213 98 -213 C124 -213 149 -207 167 -197 L167 -136 C152 -143 134 -146 119 -146 C97 -146 79 -134 79 -106 C79 -71 97 -35 141 0 L163 0 L163 452 L17 452 L17 368 Z M115 555 C145 555 173 575 173 612 C173 648 145 669 115 669 C86 669 57 649 57 612 C57 576 86 555 115 555 L115 555 Z " />
<glyph glyph-name="Idotaccent" unicode="&#x130;" horiz-adv-x="212" d="M104 635 C138 635 161 655 161 688 C161 719 138 741 104 741 C72 741 49 720 49 688 C49 655 72 635 104 635 L104 635 Z M52 0 L160 0 L160 583 L52 583 L52 0 Z " />
<glyph glyph-name="dotlessi" unicode="&#x131;" horiz-adv-x="207" d="M17 368 L62 368 L62 0 L163 0 L163 452 L17 452 L17 368 Z " />
<glyph glyph-name="IJ" unicode="&#x132;" horiz-adv-x="435" d="M52 0 L160 0 L160 583 L52 583 L52 0 Z M288 -95 C347 -3 385 89 385 179 L385 583 L276 583 L276 177 C276 91 241 14 199 -65 L288 -95 Z " />
<glyph glyph-name="ij" unicode="&#x133;" horiz-adv-x="416" d="M224 368 L269 368 L269 18 C269 -61 246 -135 222 -193 L305 -214 C345 -153 371 -59 371 28 L371 452 L224 452 L224 368 Z M17 368 L62 368 L62 0 L163 0 L163 452 L17 452 L17 368 Z M115 555 C151 555 175 577 175 612 C175 646 151 669 115 669 C80 669 54 647 54 612 C54 576 80 555 115 555 L115 555 Z M322 555 C358 555 383 577 383 612 C383 646 358 669 322 669 C287 669 262 647 262 612 C262 576 287 555 322 555 L322 555 Z " />
<glyph glyph-name="Jcircumflex" unicode="&#x134;" horiz-adv-x="223" d="M77 -95 C136 -3 174 89 174 179 L174 583 L65 583 L65 177 C65 91 30 14 -12 -65 L77 -95 Z M82 753 L2 626 L83 626 L119 701 L124 701 L159 626 L239 626 L163 753 L82 753 Z " />
<glyph glyph-name="jcircumflex" unicode="&#x135;" horiz-adv-x="208" d="M17 368 L62 368 L62 18 C62 -61 39 -135 15 -193 L98 -214 C138 -153 164 -59 164 28 L164 452 L17 452 L17 368 Z M68 669 L-10 526 L71 526 L104 616 L110 616 L142 526 L222 526 L149 669 L68 669 Z " />
<glyph glyph-name="Kcommaaccent" unicode="&#x136;" horiz-adv-x="421" d="M157 -236 L225 -236 L258 -62 L176 -62 L157 -236 Z M294 0 L409 0 L270 315 L412 583 L303 583 L168 307 L168 291 L294 0 Z M52 0 L160 0 L160 583 L52 583 L52 0 Z " />
<glyph glyph-name="kcommaaccent" unicode="&#x137;" horiz-adv-x="374" d="M134 -236 L202 -236 L235 -62 L153 -62 L134 -236 Z M249 0 L359 0 L253 249 L363 452 L256 452 L159 252 L159 235 L249 0 Z M45 0 L145 0 L145 653 L45 653 L45 0 Z " />
<glyph glyph-name="Lacute" unicode="&#x139;" horiz-adv-x="336" d="M52 0 L325 0 L325 87 L160 87 L160 583 L52 583 L52 0 Z M139 630 L216 750 L117 750 L63 630 L139 630 Z " />
<glyph glyph-name="lacute" unicode="&#x13a;" horiz-adv-x="196" d="M133 687 L210 807 L111 807 L57 687 L133 687 Z M48 0 L148 0 L148 653 L48 653 L48 0 Z " />
<glyph glyph-name="Lcommaaccent" unicode="&#x13b;" horiz-adv-x="336" d="M52 0 L325 0 L325 87 L160 87 L160 583 L52 583 L52 0 Z M140 -236 L208 -236 L241 -62 L159 -62 L140 -236 Z " />
<glyph glyph-name="lcommaaccent" unicode="&#x13c;" horiz-adv-x="196" d="M38 -236 L106 -236 L139 -62 L57 -62 L38 -236 Z M48 0 L148 0 L148 653 L48 653 L48 0 Z " />
<glyph glyph-name="Lcaron" unicode="&#x13d;" horiz-adv-x="340" d="M52 0 L325 0 L325 87 L160 87 L160 583 L52 583 L52 0 Z M221 465 L275 465 L316 637 L234 637 L221 465 Z " />
<glyph glyph-name="lcaron" unicode="&#x13e;" horiz-adv-x="206" d="M178 481 L232 481 L273 653 L191 653 L178 481 Z M48 0 L148 0 L148 653 L48 653 L48 0 Z " />
<glyph glyph-name="Ldot" unicode="&#x13f;" horiz-adv-x="369" d="M52 0 L325 0 L325 87 L160 87 L160 583 L52 583 L52 0 Z M292 262 C322 262 350 282 350 319 C350 355 322 376 292 376 C263 376 234 356 234 319 C234 283 263 262 292 262 L292 262 Z " />
<glyph glyph-name="ldot" unicode="&#x140;" horiz-adv-x="282" d="M238 259 C272 259 295 279 295 312 C295 343 272 365 238 365 C206 365 183 344 183 312 C183 279 206 259 238 259 L238 259 Z M48 0 L148 0 L148 653 L48 653 L48 0 Z " />
<glyph glyph-name="Lslash" unicode="&#x141;" horiz-adv-x="343" d="M14 195 L58 221 L58 0 L331 0 L331 87 L166 87 L166 287 L253 340 L253 418 L166 364 L166 583 L58 583 L58 296 L14 269 L14 195 Z " />
<glyph glyph-name="lslash" unicode="&#x142;" horiz-adv-x="225" d="M10 233 L60 266 L60 0 L160 0 L160 333 L216 371 L216 450 L160 412 L160 653 L60 653 L60 344 L10 310 L10 233 Z " />
<glyph glyph-name="Nacute" unicode="&#x143;" horiz-adv-x="487" d="M268 630 L345 750 L246 750 L192 630 L268 630 Z M52 0 L154 0 L152 361 L155 361 L343 0 L435 0 L435 583 L331 583 L332 231 L330 231 L140 583 L52 583 L52 0 Z " />
<glyph glyph-name="nacute" unicode="&#x144;" horiz-adv-x="413" d="M47 0 L147 0 L147 333 C169 353 195 371 219 371 C261 371 269 341 269 268 L269 0 L370 0 L370 318 C370 425 331 461 265 461 C215 461 170 434 140 402 L133 452 L33 452 L47 344 L47 0 Z M239 526 L320 669 L224 669 L166 526 L239 526 Z " />
<glyph glyph-name="Ncommaaccent" unicode="&#x145;" horiz-adv-x="487" d="M193 -236 L261 -236 L294 -62 L212 -62 L193 -236 Z M52 0 L154 0 L152 361 L155 361 L343 0 L435 0 L435 583 L331 583 L332 231 L330 231 L140 583 L52 583 L52 0 Z " />
<glyph glyph-name="ncommaaccent" unicode="&#x146;" horiz-adv-x="413" d="M47 0 L147 0 L147 333 C169 353 195 371 219 371 C261 371 269 341 269 268 L269 0 L370 0 L370 318 C370 425 331 461 265 461 C215 461 170 434 140 402 L133 452 L33 452 L47 344 L47 0 Z M150 -236 L218 -236 L251 -62 L169 -62 L150 -236 Z " />
<glyph glyph-name="Ncaron" unicode="&#x147;" horiz-adv-x="487" d="M281 624 L361 750 L281 750 L244 675 L239 675 L204 750 L125 750 L200 624 L281 624 Z M52 0 L154 0 L152 361 L155 361 L343 0 L435 0 L435 583 L331 583 L332 231 L330 231 L140 583 L52 583 L52 0 Z " />
<glyph glyph-name="ncaron" unicode="&#x148;" horiz-adv-x="413" d="M47 0 L147 0 L147 333 C169 353 195 371 219 371 C261 371 269 341 269 268 L269 0 L370 0 L370 318 C370 425 331 461 265 461 C215 461 170 434 140 402 L133 452 L33 452 L47 344 L47 0 Z M249 527 L327 669 L246 669 L213 582 L208 582 L175 669 L96 669 L168 527 L249 527 Z " />
<glyph glyph-name="napostrophe" unicode="&#x149;" horiz-adv-x="413" d="M47 0 L147 0 L147 333 C169 353 195 371 219 371 C261 371 269 341 269 268 L269 0 L370 0 L370 318 C370 425 331 461 265 461 C215 461 170 434 140 402 L133 452 L33 452 L47 344 L47 0 Z M63 507 C121 564 149 625 149 678 C149 714 125 737 94 737 C62 737 41 715 41 687 C60 674 66 657 66 636 C66 598 45 558 22 523 L63 507 Z " />
<glyph glyph-name="Eng" unicode="&#x14a;" horiz-adv-x="487" d="M52 0 L154 0 L152 361 L155 361 L334 17 C333 -48 318 -111 274 -188 L359 -215 C419 -124 435 -63 435 -4 L435 583 L331 583 L332 231 L330 231 L140 583 L52 583 L52 0 Z " />
<glyph glyph-name="eng" unicode="&#x14b;" horiz-adv-x="413" d="M370 318 C370 425 331 461 265 461 C215 461 170 434 140 402 L133 452 L33 452 L47 344 L47 0 L147 0 L147 333 C169 353 195 371 219 371 C261 371 269 341 269 268 L269 11 C269 -66 246 -138 223 -196 L304 -214 C343 -157 370 -74 370 20 L370 318 Z " />
<glyph glyph-name="Omacron" unicode="&#x14c;" horiz-adv-x="477" d="M131 651 L341 651 L341 726 L131 726 L131 651 Z M234 -9 C380 -9 447 112 447 311 C447 471 389 592 245 592 C96 592 30 461 30 278 C30 102 93 -9 234 -9 L234 -9 Z M238 78 C172 78 141 146 141 294 C141 445 174 506 241 506 C305 506 336 444 336 295 C336 147 308 78 238 78 L238 78 Z " />
<glyph glyph-name="omacron" unicode="&#x14d;" horiz-adv-x="389" d="M92 561 L303 561 L303 637 L92 637 L92 561 Z M192 -7 C304 -7 362 98 362 232 C362 392 311 463 197 463 C89 463 27 358 27 221 C27 64 85 -7 192 -7 L192 -7 Z M195 74 C143 74 129 118 129 227 C129 325 143 379 195 379 C252 379 260 326 260 227 C260 127 247 74 195 74 L195 74 Z " />
<glyph glyph-name="Obreve" unicode="&#x14e;" horiz-adv-x="477" d="M239 696 C210 696 188 713 176 747 L126 710 C139 662 177 630 238 630 C298 630 342 661 352 713 L307 748 C295 714 273 696 239 696 L239 696 Z M234 -9 C380 -9 447 112 447 311 C447 471 389 592 245 592 C96 592 30 461 30 278 C30 102 93 -9 234 -9 L234 -9 Z M238 78 C172 78 141 146 141 294 C141 445 174 506 241 506 C305 506 336 444 336 295 C336 147 308 78 238 78 L238 78 Z " />
<glyph glyph-name="obreve" unicode="&#x14f;" horiz-adv-x="389" d="M192 -7 C304 -7 362 98 362 232 C362 392 311 463 197 463 C89 463 27 358 27 221 C27 64 85 -7 192 -7 L192 -7 Z M195 74 C143 74 129 118 129 227 C129 325 143 379 195 379 C252 379 260 326 260 227 C260 127 247 74 195 74 L195 74 Z M194 600 C162 600 144 621 132 656 L82 619 C94 571 133 533 194 533 C253 533 296 570 308 621 L262 656 C250 623 231 600 194 600 L194 600 Z " />
<glyph glyph-name="Ohungarumlaut" unicode="&#x150;" horiz-adv-x="477" d="M234 -9 C380 -9 447 112 447 311 C447 471 389 592 245 592 C96 592 30 461 30 278 C30 102 93 -9 234 -9 L234 -9 Z M238 78 C172 78 141 146 141 294 C141 445 174 506 241 506 C305 506 336 444 336 295 C336 147 308 78 238 78 L238 78 Z M212 630 L278 750 L180 750 L136 630 L212 630 Z M333 630 L424 750 L325 750 L256 630 L333 630 Z " />
<glyph glyph-name="ohungarumlaut" unicode="&#x151;" horiz-adv-x="389" d="M161 526 L235 669 L140 669 L88 526 L161 526 Z M294 526 L383 669 L288 669 L220 526 L294 526 Z M192 -7 C304 -7 362 98 362 232 C362 392 311 463 197 463 C89 463 27 358 27 221 C27 64 85 -7 192 -7 L192 -7 Z M195 74 C143 74 129 118 129 227 C129 325 143 379 195 379 C252 379 260 326 260 227 C260 127 247 74 195 74 L195 74 Z " />
<glyph glyph-name="OE" unicode="&#x152;" horiz-adv-x="622" d="M305 0 L594 0 L594 87 L414 87 L414 257 L564 257 L564 340 L414 340 L414 496 L591 496 L591 583 L305 583 L305 569 C283 584 259 592 228 592 C100 592 31 467 31 278 C31 101 88 -9 212 -9 C246 -9 279 3 305 24 L305 0 Z M238 78 C174 78 143 157 143 294 C143 436 177 506 242 506 C267 506 288 496 305 474 L305 117 C289 90 266 78 238 78 L238 78 Z " />
<glyph glyph-name="oe" unicode="&#x153;" horiz-adv-x="615" d="M192 -7 C241 -7 279 13 307 47 C339 9 386 -7 445 -7 C509 -7 547 2 581 19 L581 96 C543 83 505 76 470 76 C406 76 369 106 363 199 L585 199 L585 242 C585 380 545 463 434 463 C384 463 346 445 317 413 C290 447 251 463 197 463 C89 463 27 358 27 221 C27 64 85 -7 192 -7 L192 -7 Z M195 74 C143 74 129 118 129 227 C129 325 143 379 195 379 C252 379 260 326 260 227 C260 127 247 74 195 74 L195 74 Z M428 379 C470 379 485 331 486 259 L362 259 C366 347 390 379 428 379 L428 379 Z " />
<glyph glyph-name="Racute" unicode="&#x154;" horiz-adv-x="422" d="M52 0 L160 0 L160 202 L193 202 C202 202 210 203 219 204 L292 0 L409 0 L310 240 C353 272 383 325 383 396 C383 521 326 583 215 583 L52 583 L52 0 Z M193 498 C246 498 273 473 273 394 C273 298 236 286 184 286 L160 286 L160 498 L193 498 Z M218 630 L295 750 L196 750 L142 630 L218 630 Z " />
<glyph glyph-name="racute" unicode="&#x155;" horiz-adv-x="276" d="M47 0 L150 0 L150 301 C169 325 200 354 241 354 C248 354 256 354 264 352 L264 454 C254 458 246 459 236 459 C197 459 166 423 145 392 L136 452 L33 452 L47 344 L47 0 Z M183 526 L264 669 L168 669 L110 526 L183 526 Z " />
<glyph glyph-name="Rcommaaccent" unicode="&#x156;" horiz-adv-x="422" d="M52 0 L160 0 L160 202 L193 202 C202 202 210 203 219 204 L292 0 L409 0 L310 240 C353 272 383 325 383 396 C383 521 326 583 215 583 L52 583 L52 0 Z M193 498 C246 498 273 473 273 394 C273 298 236 286 184 286 L160 286 L160 498 L193 498 Z M161 -236 L229 -236 L262 -62 L180 -62 L161 -236 Z " />
<glyph glyph-name="rcommaaccent" unicode="&#x157;" horiz-adv-x="276" d="M47 0 L150 0 L150 301 C169 325 200 354 241 354 C248 354 256 354 264 352 L264 454 C254 458 246 459 236 459 C197 459 166 423 145 392 L136 452 L33 452 L47 344 L47 0 Z M37 -236 L105 -236 L138 -62 L56 -62 L37 -236 Z " />
<glyph glyph-name="Rcaron" unicode="&#x158;" horiz-adv-x="422" d="M52 0 L160 0 L160 202 L193 202 C202 202 210 203 219 204 L292 0 L409 0 L310 240 C353 272 383 325 383 396 C383 521 326 583 215 583 L52 583 L52 0 Z M193 498 C246 498 273 473 273 394 C273 298 236 286 184 286 L160 286 L160 498 L193 498 Z M234 624 L314 750 L234 750 L197 675 L192 675 L157 750 L78 750 L153 624 L234 624 Z " />
<glyph glyph-name="rcaron" unicode="&#x159;" horiz-adv-x="276" d="M47 0 L150 0 L150 301 C169 325 200 354 241 354 C248 354 256 354 264 352 L264 454 C254 458 246 459 236 459 C197 459 166 423 145 392 L136 452 L33 452 L47 344 L47 0 Z M192 527 L270 669 L189 669 L156 582 L151 582 L118 669 L39 669 L111 527 L192 527 Z " />
<glyph glyph-name="Sacute" unicode="&#x15a;" horiz-adv-x="352" d="M34 14 C75 -1 117 -9 157 -9 C260 -9 326 51 326 167 C326 275 264 308 205 339 C160 364 132 385 132 434 C132 473 162 503 205 503 C244 503 280 492 308 474 L308 569 C280 584 242 592 192 592 C92 592 29 521 29 428 C29 346 75 300 126 273 C181 244 225 223 225 161 C225 109 196 83 151 83 C109 83 68 94 34 111 L34 14 Z M207 630 L284 750 L185 750 L131 630 L207 630 Z " />
<glyph glyph-name="sacute" unicode="&#x15b;" horiz-adv-x="321" d="M187 526 L268 669 L172 669 L114 526 L187 526 Z M145 -7 C233 -7 298 36 298 135 C298 221 242 246 185 267 C146 281 123 294 123 328 C123 360 149 379 185 379 C218 379 249 373 284 356 L284 442 C256 457 210 463 175 463 C88 463 27 411 27 324 C27 247 80 218 128 199 C172 183 203 170 203 133 C203 91 175 75 141 75 C109 75 75 82 31 100 L31 13 C64 -1 105 -7 145 -7 L145 -7 Z " />
<glyph glyph-name="Scircumflex" unicode="&#x15c;" horiz-adv-x="352" d="M34 14 C75 -1 117 -9 157 -9 C260 -9 326 51 326 167 C326 275 264 308 205 339 C160 364 132 385 132 434 C132 473 162 503 205 503 C244 503 280 492 308 474 L308 569 C280 584 242 592 192 592 C92 592 29 521 29 428 C29 346 75 300 126 273 C181 244 225 223 225 161 C225 109 196 83 151 83 C109 83 68 94 34 111 L34 14 Z M141 753 L61 626 L142 626 L178 701 L183 701 L218 626 L298 626 L222 753 L141 753 Z " />
<glyph glyph-name="scircumflex" unicode="&#x15d;" horiz-adv-x="321" d="M129 669 L51 526 L132 526 L165 616 L171 616 L203 526 L283 526 L210 669 L129 669 Z M145 -7 C233 -7 298 36 298 135 C298 221 242 246 185 267 C146 281 123 294 123 328 C123 360 149 379 185 379 C218 379 249 373 284 356 L284 442 C256 457 210 463 175 463 C88 463 27 411 27 324 C27 247 80 218 128 199 C172 183 203 170 203 133 C203 91 175 75 141 75 C109 75 75 82 31 100 L31 13 C64 -1 105 -7 145 -7 L145 -7 Z " />
<glyph glyph-name="Scedilla" unicode="&#x15e;" horiz-adv-x="352" d="M154 -213 C214 -213 247 -175 247 -129 C247 -83 221 -57 179 -45 L192 -6 C275 6 326 65 326 167 C326 275 264 308 205 339 C160 364 132 385 132 434 C132 473 162 503 205 503 C244 503 280 492 308 474 L308 569 C280 584 242 592 192 592 C92 592 29 521 29 428 C29 346 75 300 126 273 C181 244 225 223 225 161 C225 109 196 83 151 83 C109 83 68 94 34 111 L34 14 C68 1 103 -6 136 -8 L116 -62 L116 -77 C155 -79 175 -98 175 -121 C175 -138 167 -154 139 -154 C124 -154 99 -147 86 -139 L84 -198 C102 -207 129 -213 154 -213 L154 -213 Z " />
<glyph glyph-name="scedilla" unicode="&#x15f;" horiz-adv-x="322" d="M135 -213 C195 -213 228 -175 228 -129 C228 -83 202 -57 160 -45 L173 -5 C246 3 298 47 298 135 C298 221 242 246 185 267 C146 281 123 294 123 328 C123 360 149 379 185 379 C218 379 249 373 284 356 L284 442 C256 457 210 463 175 463 C88 463 27 411 27 324 C27 247 80 218 128 199 C172 183 203 170 203 133 C203 91 175 75 141 75 C109 75 75 82 31 100 L31 13 C56 2 87 -4 118 -6 L97 -62 L97 -77 C136 -79 156 -98 156 -121 C156 -138 148 -154 120 -154 C105 -154 80 -147 67 -139 L65 -198 C83 -207 110 -213 135 -213 L135 -213 Z " />
<glyph glyph-name="Scaron" unicode="&#x160;" horiz-adv-x="352" d="M34 14 C75 -1 117 -9 157 -9 C260 -9 326 51 326 167 C326 275 264 308 205 339 C160 364 132 385 132 434 C132 473 162 503 205 503 C244 503 280 492 308 474 L308 569 C280 584 242 592 192 592 C92 592 29 521 29 428 C29 346 75 300 126 273 C181 244 225 223 225 161 C225 109 196 83 151 83 C109 83 68 94 34 111 L34 14 Z M221 624 L301 750 L221 750 L184 675 L179 675 L144 750 L65 750 L140 624 L221 624 Z " />
<glyph glyph-name="scaron" unicode="&#x161;" horiz-adv-x="321" d="M209 527 L287 669 L206 669 L173 582 L168 582 L135 669 L56 669 L128 527 L209 527 Z M145 -7 C233 -7 298 36 298 135 C298 221 242 246 185 267 C146 281 123 294 123 328 C123 360 149 379 185 379 C218 379 249 373 284 356 L284 442 C256 457 210 463 175 463 C88 463 27 411 27 324 C27 247 80 218 128 199 C172 183 203 170 203 133 C203 91 175 75 141 75 C109 75 75 82 31 100 L31 13 C64 -1 105 -7 145 -7 L145 -7 Z " />
<glyph glyph-name="Tcommaaccent" unicode="&#x162;" horiz-adv-x="384" d="M11 496 L139 496 L139 0 L248 0 L248 496 L373 496 L373 583 L11 583 L11 496 Z M134 -236 L202 -236 L235 -62 L153 -62 L134 -236 Z " />
<glyph glyph-name="tcommaaccent" unicode="&#x163;" horiz-adv-x="276" d="M17 368 L65 368 L65 119 C65 23 113 -7 178 -7 C207 -7 239 -2 262 9 L262 87 C247 82 230 77 212 77 C181 77 166 97 165 140 L165 368 L256 368 L256 452 L165 452 L165 574 L65 574 L65 452 L17 452 L17 368 Z M104 -236 L172 -236 L205 -62 L123 -62 L104 -236 Z " />
<glyph glyph-name="Tcaron" unicode="&#x164;" horiz-adv-x="384" d="M11 496 L139 496 L139 0 L248 0 L248 496 L373 496 L373 583 L11 583 L11 496 Z M229 624 L309 750 L229 750 L192 675 L187 675 L152 750 L73 750 L148 624 L229 624 Z " />
<glyph glyph-name="tcaron" unicode="&#x165;" horiz-adv-x="276" d="M17 368 L65 368 L65 119 C65 23 113 -7 178 -7 C207 -7 239 -2 262 9 L262 87 C247 82 230 77 212 77 C181 77 166 97 165 140 L165 368 L256 368 L256 452 L165 452 L165 574 L65 574 L65 452 L17 452 L17 368 Z M203 516 L257 516 L298 688 L216 688 L203 516 Z " />
<glyph glyph-name="Tbar" unicode="&#x166;" horiz-adv-x="385" d="M11 496 L139 496 L139 312 L66 312 L66 244 L139 244 L139 0 L248 0 L248 244 L321 244 L321 312 L248 312 L248 496 L373 496 L373 583 L11 583 L11 496 Z " />
<glyph glyph-name="tbar" unicode="&#x167;" horiz-adv-x="277" d="M65 574 L65 452 L17 452 L17 368 L65 368 L65 287 L27 287 L27 224 L65 224 L65 119 C65 23 113 -7 178 -7 C207 -7 239 -2 262 9 L262 87 C247 82 230 77 212 77 C181 77 166 97 165 140 L165 224 L240 224 L240 287 L165 287 L165 368 L256 368 L256 452 L165 452 L165 574 L65 574 Z " />
<glyph glyph-name="Utilde" unicode="&#x168;" horiz-adv-x="473" d="M341 735 C332 719 309 704 289 704 C258 704 238 736 199 736 C162 736 132 710 118 685 L140 634 C155 653 172 665 192 665 C224 665 247 633 286 633 C323 633 350 657 362 682 L341 735 Z M239 -9 C343 -9 425 48 425 227 L425 583 L320 583 L320 220 C320 115 295 80 243 80 C191 80 156 107 156 211 L156 583 L48 583 L48 203 C48 38 133 -9 239 -9 L239 -9 Z " />
<glyph glyph-name="utilde" unicode="&#x169;" horiz-adv-x="410" d="M363 452 L263 452 L263 120 C242 100 218 82 194 82 C153 82 144 112 144 185 L144 452 L43 452 L43 136 C43 29 83 -9 148 -9 C198 -9 240 19 270 51 L278 0 L378 0 L363 109 L363 452 Z M308 650 C299 633 276 619 256 619 C225 619 205 651 166 651 C128 651 100 626 84 602 L107 552 C121 571 138 583 158 583 C190 583 214 551 252 551 C290 551 317 575 328 600 L308 650 Z " />
<glyph glyph-name="Umacron" unicode="&#x16a;" horiz-adv-x="473" d="M136 651 L346 651 L346 726 L136 726 L136 651 Z M239 -9 C343 -9 425 48 425 227 L425 583 L320 583 L320 220 C320 115 295 80 243 80 C191 80 156 107 156 211 L156 583 L48 583 L48 203 C48 38 133 -9 239 -9 L239 -9 Z " />
<glyph glyph-name="umacron" unicode="&#x16b;" horiz-adv-x="410" d="M363 452 L263 452 L263 120 C242 100 218 82 194 82 C153 82 144 112 144 185 L144 452 L43 452 L43 136 C43 29 83 -9 148 -9 C198 -9 240 19 270 51 L278 0 L378 0 L363 109 L363 452 Z M97 561 L308 561 L308 637 L97 637 L97 561 Z " />
<glyph glyph-name="Ubreve" unicode="&#x16c;" horiz-adv-x="473" d="M238 697 C209 697 187 714 175 748 L125 711 C138 663 176 631 237 631 C297 631 341 662 351 714 L306 749 C294 715 272 697 238 697 L238 697 Z M239 -9 C343 -9 425 48 425 227 L425 583 L320 583 L320 220 C320 115 295 80 243 80 C191 80 156 107 156 211 L156 583 L48 583 L48 203 C48 38 133 -9 239 -9 L239 -9 Z " />
<glyph glyph-name="ubreve" unicode="&#x16d;" horiz-adv-x="410" d="M363 452 L263 452 L263 120 C242 100 218 82 194 82 C153 82 144 112 144 185 L144 452 L43 452 L43 136 C43 29 83 -9 148 -9 C198 -9 240 19 270 51 L278 0 L378 0 L363 109 L363 452 Z M204 600 C172 600 154 621 142 656 L92 619 C104 571 143 533 204 533 C263 533 306 570 318 621 L272 656 C260 623 241 600 204 600 L204 600 Z " />
<glyph glyph-name="Uring" unicode="&#x16e;" horiz-adv-x="473" d="M239 -9 C343 -9 425 48 425 227 L425 583 L320 583 L320 220 C320 115 295 80 243 80 C191 80 156 107 156 211 L156 583 L48 583 L48 203 C48 38 133 -9 239 -9 L239 -9 Z M239 790 C194 790 156 764 156 705 C156 645 191 618 239 618 C287 618 322 646 322 705 C322 764 286 790 239 790 L239 790 Z M239 743 C260 743 268 729 268 705 C268 681 260 665 239 665 C220 665 211 680 211 705 C211 727 219 743 239 743 L239 743 Z " />
<glyph glyph-name="uring" unicode="&#x16f;" horiz-adv-x="410" d="M363 452 L263 452 L263 120 C242 100 218 82 194 82 C153 82 144 112 144 185 L144 452 L43 452 L43 136 C43 29 83 -9 148 -9 C198 -9 240 19 270 51 L278 0 L378 0 L363 109 L363 452 Z M205 690 C160 690 122 664 122 605 C122 545 157 518 205 518 C253 518 289 547 289 605 C289 665 252 690 205 690 L205 690 Z M205 643 C226 643 234 628 234 605 C234 581 226 564 205 564 C186 564 176 581 176 605 C176 626 185 643 205 643 L205 643 Z " />
<glyph glyph-name="Uhungarumlaut" unicode="&#x170;" horiz-adv-x="473" d="M239 -9 C343 -9 425 48 425 227 L425 583 L320 583 L320 220 C320 115 295 80 243 80 C191 80 156 107 156 211 L156 583 L48 583 L48 203 C48 38 133 -9 239 -9 L239 -9 Z M211 630 L277 750 L179 750 L135 630 L211 630 Z M332 630 L423 750 L324 750 L255 630 L332 630 Z " />
<glyph glyph-name="uhungarumlaut" unicode="&#x171;" horiz-adv-x="410" d="M363 452 L263 452 L263 120 C242 100 218 82 194 82 C153 82 144 112 144 185 L144 452 L43 452 L43 136 C43 29 83 -9 148 -9 C198 -9 240 19 270 51 L278 0 L378 0 L363 109 L363 452 Z M301 526 L390 669 L295 669 L227 526 L301 526 Z M168 526 L242 669 L147 669 L95 526 L168 526 Z " />
<glyph glyph-name="Uogonek" unicode="&#x172;" horiz-adv-x="473" d="M328 -197 L328 -136 C313 -143 295 -146 280 -146 C258 -146 240 -134 240 -106 C240 -71 258 -36 302 0 C374 21 425 86 425 227 L425 583 L320 583 L320 220 C320 115 295 80 243 80 C191 80 156 107 156 211 L156 583 L48 583 L48 203 C48 46 125 -4 223 -8 C190 -37 164 -76 164 -124 C164 -180 198 -213 259 -213 C285 -213 310 -207 328 -197 L328 -197 Z " />
<glyph glyph-name="uogonek" unicode="&#x173;" horiz-adv-x="410" d="M363 452 L263 452 L263 120 C242 100 218 82 194 82 C153 82 144 112 144 185 L144 452 L43 452 L43 136 C43 29 83 -9 148 -9 C198 -9 240 19 270 51 L278 0 L288 0 C249 -30 218 -72 218 -124 C218 -180 252 -213 313 -213 C339 -213 364 -207 382 -197 L382 -136 C367 -143 349 -146 334 -146 C312 -146 294 -134 294 -106 C294 -71 312 -35 356 0 L378 0 L363 109 L363 452 Z " />
<glyph glyph-name="Wcircumflex" unicode="&#x174;" horiz-adv-x="655" d="M646 583 L541 583 L487 285 L463 147 L459 147 L437 287 L387 583 L276 583 L220 285 L195 142 L191 142 L171 285 L129 583 L19 583 L121 0 L244 0 L302 298 L326 425 L330 425 L351 298 L402 0 L523 0 L646 583 Z M288 754 L208 627 L289 627 L325 702 L330 702 L365 627 L445 627 L369 754 L288 754 Z " />
<glyph glyph-name="wcircumflex" unicode="&#x175;" horiz-adv-x="547" d="M243 669 L165 526 L246 526 L279 616 L285 616 L317 526 L397 526 L324 669 L243 669 Z M533 452 L445 452 L409 233 L391 116 L387 116 L366 231 L328 452 L231 452 L183 228 L162 116 L158 116 L142 228 L111 452 L18 452 L96 0 L206 0 L254 212 L271 304 L275 304 L292 211 L333 0 L447 0 L533 452 Z " />
<glyph glyph-name="Ycircumflex" unicode="&#x176;" horiz-adv-x="398" d="M393 583 L293 583 L236 400 L205 304 L202 304 L171 400 L113 583 L6 583 L144 209 L144 0 L253 0 L253 203 L393 583 Z M161 753 L81 626 L162 626 L198 701 L203 701 L238 626 L318 626 L242 753 L161 753 Z " />
<glyph glyph-name="ycircumflex" unicode="&#x177;" horiz-adv-x="359" d="M193 -207 L242 4 L350 452 L248 452 L202 222 L182 104 L178 104 L159 220 L114 452 L14 452 L112 0 L144 0 L88 -204 L90 -207 L193 -207 Z M147 669 L69 526 L150 526 L183 616 L189 616 L221 526 L301 526 L228 669 L147 669 Z " />
<glyph glyph-name="Ydieresis" unicode="&#x178;" horiz-adv-x="398" d="M393 583 L293 583 L236 400 L205 304 L202 304 L171 400 L113 583 L6 583 L144 209 L144 0 L253 0 L253 203 L393 583 Z M131 631 C162 631 182 649 182 681 C182 715 162 734 131 734 C102 734 81 715 81 681 C81 649 102 631 131 631 L131 631 Z M278 631 C308 631 328 649 328 682 C328 715 308 734 278 734 C248 734 228 715 228 682 C228 649 248 631 278 631 L278 631 Z " />
<glyph glyph-name="Zacute" unicode="&#x179;" horiz-adv-x="359" d="M334 0 L334 87 L153 87 L343 580 L342 583 L25 583 L25 496 L200 496 L14 3 L16 0 L334 0 Z M214 630 L291 750 L192 750 L138 630 L214 630 Z " />
<glyph glyph-name="zacute" unicode="&#x17a;" horiz-adv-x="323" d="M17 3 L17 0 L303 0 L303 84 L158 84 L301 450 L299 452 L23 452 L23 369 L163 369 L17 3 Z M193 526 L274 669 L178 669 L120 526 L193 526 Z " />
<glyph glyph-name="Zdotaccent" unicode="&#x17b;" horiz-adv-x="359" d="M334 0 L334 87 L153 87 L343 580 L342 583 L25 583 L25 496 L200 496 L14 3 L16 0 L334 0 Z M190 634 C224 634 247 654 247 687 C247 718 224 740 190 740 C158 740 135 719 135 687 C135 654 158 634 190 634 L190 634 Z " />
<glyph glyph-name="zdotaccent" unicode="&#x17c;" horiz-adv-x="323" d="M17 3 L17 0 L303 0 L303 84 L158 84 L301 450 L299 452 L23 452 L23 369 L163 369 L17 3 Z M166 555 C196 555 224 575 224 612 C224 648 196 669 166 669 C137 669 108 649 108 612 C108 576 137 555 166 555 L166 555 Z " />
<glyph glyph-name="Zcaron" unicode="&#x17d;" horiz-adv-x="359" d="M334 0 L334 87 L153 87 L343 580 L342 583 L25 583 L25 496 L200 496 L14 3 L16 0 L334 0 Z M224 624 L304 750 L224 750 L187 675 L182 675 L147 750 L68 750 L143 624 L224 624 Z " />
<glyph glyph-name="zcaron" unicode="&#x17e;" horiz-adv-x="323" d="M17 3 L17 0 L303 0 L303 84 L158 84 L301 450 L299 452 L23 452 L23 369 L163 369 L17 3 Z M204 527 L282 669 L201 669 L168 582 L163 582 L130 669 L51 669 L123 527 L204 527 Z " />
<glyph glyph-name="uni018F" unicode="&#x18f;" horiz-adv-x="465" d="M51 562 L51 472 C93 493 144 505 195 505 C269 505 321 465 322 336 L31 336 C28 313 25 288 25 264 C25 105 92 -9 225 -9 C374 -9 435 138 435 308 C435 520 342 592 209 592 C159 592 101 581 51 562 L51 562 Z M227 78 C172 78 139 137 137 251 L323 251 C319 133 290 78 227 78 L227 78 Z " />
<glyph glyph-name="florin" unicode="&#x192;" horiz-adv-x="336" d="M112 28 C107 -34 91 -59 58 -59 C45 -59 36 -58 24 -54 L18 -134 C34 -138 52 -141 70 -141 C155 -141 202 -80 209 26 L217 243 L290 243 L290 320 L220 320 L223 407 C225 483 243 504 276 504 C289 504 299 503 312 499 L316 586 C301 589 286 591 268 591 C178 591 129 535 125 429 L121 320 L64 320 L64 243 L119 243 L112 28 Z " />
<glyph glyph-name="uni01C4" unicode="&#x1c4;" horiz-adv-x="834" d="M52 0 L222 0 C352 0 446 104 446 304 C446 520 336 583 221 583 L52 583 L52 0 Z M809 0 L809 87 L628 87 L818 580 L817 583 L500 583 L500 496 L675 496 L489 3 L491 0 L809 0 Z M199 496 C282 496 335 461 335 294 C335 142 286 87 205 87 L160 87 L160 496 L199 496 Z M699 624 L779 750 L699 750 L662 675 L657 675 L622 750 L543 750 L618 624 L699 624 Z " />
<glyph glyph-name="uni01C5" unicode="&#x1c5;" horiz-adv-x="799" d="M52 0 L222 0 C352 0 446 104 446 304 C446 520 336 583 221 583 L52 583 L52 0 Z M492 3 L492 0 L778 0 L778 84 L633 84 L776 450 L774 452 L498 452 L498 369 L638 369 L492 3 Z M199 496 C282 496 335 461 335 294 C335 142 286 87 205 87 L160 87 L160 496 L199 496 Z M678 527 L756 669 L675 669 L642 582 L637 582 L604 669 L525 669 L597 527 L678 527 Z " />
<glyph glyph-name="uni01C6" unicode="&#x1c6;" horiz-adv-x="727" d="M270 0 L372 0 L357 98 L357 653 L256 653 L256 457 C238 460 214 463 196 463 C98 463 27 380 27 208 C27 54 87 -7 159 -7 C201 -7 236 16 261 51 L270 0 Z M420 3 L420 0 L706 0 L706 84 L561 84 L704 450 L702 452 L426 452 L426 369 L566 369 L420 3 Z M193 78 C150 78 133 125 133 220 C133 332 159 383 211 383 C225 383 242 381 256 376 L256 108 C232 88 214 78 193 78 L193 78 Z M607 527 L685 669 L604 669 L571 582 L566 582 L533 669 L454 669 L526 527 L607 527 Z " />
<glyph glyph-name="uni01C7" unicode="&#x1c7;" horiz-adv-x="559" d="M52 0 L325 0 L325 87 L160 87 L160 583 L52 583 L52 0 Z M412 -95 C471 -3 509 89 509 179 L509 583 L400 583 L400 177 C400 91 365 14 323 -65 L412 -95 Z " />
<glyph glyph-name="uni01C8" unicode="&#x1c8;" horiz-adv-x="544" d="M52 0 L325 0 L325 87 L160 87 L160 583 L52 583 L52 0 Z M352 368 L397 368 L397 18 C397 -61 374 -135 350 -193 L433 -214 C473 -153 499 -59 499 28 L499 452 L352 452 L352 368 Z M450 555 C486 555 511 577 511 612 C511 646 486 669 450 669 C415 669 390 647 390 612 C390 576 415 555 450 555 L450 555 Z " />
<glyph glyph-name="uni01C9" unicode="&#x1c9;" horiz-adv-x="404" d="M212 368 L257 368 L257 18 C257 -61 234 -135 210 -193 L293 -214 C333 -153 359 -59 359 28 L359 452 L212 452 L212 368 Z M48 0 L148 0 L148 653 L48 653 L48 0 Z M310 555 C346 555 371 577 371 612 C371 646 346 669 310 669 C275 669 250 647 250 612 C250 576 275 555 310 555 L310 555 Z " />
<glyph glyph-name="uni01CA" unicode="&#x1ca;" horiz-adv-x="710" d="M563 -95 C622 -3 660 89 660 179 L660 583 L551 583 L551 177 C551 91 516 14 474 -65 L563 -95 Z M52 0 L154 0 L152 361 L155 361 L343 0 L435 0 L435 583 L331 583 L332 231 L330 231 L140 583 L52 583 L52 0 Z " />
<glyph glyph-name="uni01CB" unicode="&#x1cb;" horiz-adv-x="695" d="M52 0 L154 0 L152 361 L155 361 L343 0 L435 0 L435 583 L331 583 L332 231 L330 231 L140 583 L52 583 L52 0 Z M503 368 L548 368 L548 18 C548 -61 525 -135 501 -193 L584 -214 C624 -153 650 -59 650 28 L650 452 L503 452 L503 368 Z M601 555 C637 555 662 577 662 612 C662 646 637 669 601 669 C566 669 541 647 541 612 C541 576 566 555 601 555 L601 555 Z " />
<glyph glyph-name="uni01CC" unicode="&#x1cc;" horiz-adv-x="621" d="M47 0 L147 0 L147 333 C169 353 195 371 219 371 C261 371 269 341 269 268 L269 0 L370 0 L370 318 C370 425 331 461 265 461 C215 461 170 434 140 402 L133 452 L33 452 L47 344 L47 0 Z M429 368 L474 368 L474 18 C474 -61 451 -135 427 -193 L510 -214 C550 -153 576 -59 576 28 L576 452 L429 452 L429 368 Z M527 555 C563 555 588 577 588 612 C588 646 563 669 527 669 C492 669 467 647 467 612 C467 576 492 555 527 555 L527 555 Z " />
<glyph glyph-name="uni01D3" unicode="&#x1d3;" horiz-adv-x="473" d="M275 625 L355 751 L275 751 L238 676 L233 676 L198 751 L119 751 L194 625 L275 625 Z M239 -9 C343 -9 425 48 425 227 L425 583 L320 583 L320 220 C320 115 295 80 243 80 C191 80 156 107 156 211 L156 583 L48 583 L48 203 C48 38 133 -9 239 -9 L239 -9 Z " />
<glyph glyph-name="uni01D4" unicode="&#x1d4;" horiz-adv-x="410" d="M363 452 L263 452 L263 120 C242 100 218 82 194 82 C153 82 144 112 144 185 L144 452 L43 452 L43 136 C43 29 83 -9 148 -9 C198 -9 240 19 270 51 L278 0 L378 0 L363 109 L363 452 Z M245 527 L323 669 L242 669 L209 582 L204 582 L171 669 L92 669 L164 527 L245 527 Z " />
<glyph glyph-name="uni01E2" unicode="&#x1e2;" horiz-adv-x="563" d="M249 0 L535 0 L535 87 L358 87 L358 257 L505 257 L505 340 L358 340 L358 496 L531 496 L531 583 L183 583 L3 0 L102 0 L146 153 L249 153 L249 0 Z M266 650 L476 650 L476 725 L266 725 L266 650 Z M244 492 L249 492 L249 240 L171 240 L244 492 Z " />
<glyph glyph-name="uni01E3" unicode="&#x1e3;" horiz-adv-x="578" d="M412 -7 C469 -7 509 3 544 20 L544 97 C506 83 469 76 433 76 C370 76 332 107 326 196 L549 196 L549 243 C549 378 509 463 396 463 C355 463 321 449 295 424 C272 452 237 463 192 463 C149 463 94 455 45 437 L45 350 C73 360 121 371 157 371 C196 371 226 358 226 305 L226 254 L193 254 C87 254 21 210 21 115 C21 42 60 -7 126 -7 C191 -7 235 34 259 66 C290 15 342 -7 412 -7 L412 -7 Z M190 561 L401 561 L401 637 L190 637 L190 561 Z M391 379 C433 379 449 329 450 257 L325 257 C330 344 354 379 391 379 L391 379 Z M162 68 C136 68 121 87 121 130 C121 184 148 197 191 197 L226 197 C228 164 232 136 239 112 C218 88 189 68 162 68 L162 68 Z " />
<glyph glyph-name="uni01F1" unicode="&#x1f1;" horiz-adv-x="825" d="M52 0 L222 0 C352 0 446 104 446 304 C446 520 336 583 221 583 L52 583 L52 0 Z M799 0 L799 87 L618 87 L808 580 L807 583 L490 583 L490 496 L665 496 L479 3 L481 0 L799 0 Z M199 496 C282 496 335 461 335 294 C335 142 286 87 205 87 L160 87 L160 496 L199 496 Z " />
<glyph glyph-name="uni01F2" unicode="&#x1f2;" horiz-adv-x="799" d="M52 0 L222 0 C352 0 446 104 446 304 C446 520 336 583 221 583 L52 583 L52 0 Z M492 3 L492 0 L778 0 L778 84 L633 84 L776 450 L774 452 L498 452 L498 369 L638 369 L492 3 Z M199 496 C282 496 335 461 335 294 C335 142 286 87 205 87 L160 87 L160 496 L199 496 Z " />
<glyph glyph-name="uni01F3" unicode="&#x1f3;" horiz-adv-x="727" d="M270 0 L372 0 L357 98 L357 653 L256 653 L256 457 C238 460 214 463 196 463 C98 463 27 380 27 208 C27 54 87 -7 159 -7 C201 -7 236 16 261 51 L270 0 Z M420 3 L420 0 L706 0 L706 84 L561 84 L704 450 L702 452 L426 452 L426 369 L566 369 L420 3 Z M193 78 C150 78 133 125 133 220 C133 332 159 383 211 383 C225 383 242 381 256 376 L256 108 C232 88 214 78 193 78 L193 78 Z " />
<glyph glyph-name="AEacute" unicode="&#x1fc;" horiz-adv-x="563" d="M249 0 L535 0 L535 87 L358 87 L358 257 L505 257 L505 340 L358 340 L358 496 L531 496 L531 583 L183 583 L3 0 L102 0 L146 153 L249 153 L249 0 Z M391 631 L468 751 L369 751 L315 631 L391 631 Z M244 492 L249 492 L249 240 L171 240 L244 492 Z " />
<glyph glyph-name="aeacute" unicode="&#x1fd;" horiz-adv-x="578" d="M412 -7 C469 -7 509 3 544 20 L544 97 C506 83 469 76 433 76 C370 76 332 107 326 196 L549 196 L549 243 C549 378 509 463 396 463 C355 463 321 449 295 424 C272 452 237 463 192 463 C149 463 94 455 45 437 L45 350 C73 360 121 371 157 371 C196 371 226 358 226 305 L226 254 L193 254 C87 254 21 210 21 115 C21 42 60 -7 126 -7 C191 -7 235 34 259 66 C290 15 342 -7 412 -7 L412 -7 Z M391 379 C433 379 449 329 450 257 L325 257 C330 344 354 379 391 379 L391 379 Z M162 68 C136 68 121 87 121 130 C121 184 148 197 191 197 L226 197 C228 164 232 136 239 112 C218 88 189 68 162 68 L162 68 Z M328 526 L409 669 L313 669 L255 526 L328 526 Z " />
<glyph glyph-name="Oslashacute" unicode="&#x1fe;" horiz-adv-x="478" d="M234 -9 C380 -9 447 112 447 311 C447 387 433 454 404 503 L461 592 L401 592 L371 546 C340 575 298 592 245 592 C96 592 30 461 30 278 C30 195 44 127 73 78 L18 -9 L78 -9 L107 36 C139 7 181 -9 234 -9 L234 -9 Z M141 294 C141 445 174 506 241 506 C273 506 298 490 313 454 L147 194 C143 222 141 255 141 294 L141 294 Z M238 78 C206 78 182 94 166 128 L330 387 C334 361 336 331 336 295 C336 147 308 78 238 78 L238 78 Z M262 630 L339 750 L240 750 L186 630 L262 630 Z " />
<glyph glyph-name="oslashacute" unicode="&#x1ff;" horiz-adv-x="390" d="M192 -7 C304 -7 362 98 362 232 C362 304 351 358 330 395 L375 464 L323 464 L301 430 C275 452 241 463 197 463 C89 463 27 358 27 221 C27 150 38 97 61 60 L16 -9 L66 -9 L89 26 C115 3 150 -7 192 -7 L192 -7 Z M195 74 C169 74 153 85 143 109 L258 286 C259 268 260 249 260 227 C260 127 247 74 195 74 L195 74 Z M129 227 C129 325 143 379 195 379 C221 379 237 368 246 346 L131 168 C129 185 129 205 129 227 L129 227 Z M234 526 L315 669 L219 669 L161 526 L234 526 Z " />
<glyph glyph-name="Scommaaccent" unicode="&#x218;" horiz-adv-x="352" d="M117 -236 L185 -236 L218 -62 L136 -62 L117 -236 Z M34 14 C75 -1 117 -9 157 -9 C260 -9 326 51 326 167 C326 275 264 308 205 339 C160 364 132 385 132 434 C132 473 162 503 205 503 C244 503 280 492 308 474 L308 569 C280 584 242 592 192 592 C92 592 29 521 29 428 C29 346 75 300 126 273 C181 244 225 223 225 161 C225 109 196 83 151 83 C109 83 68 94 34 111 L34 14 Z " />
<glyph glyph-name="scommaaccent" unicode="&#x219;" horiz-adv-x="321" d="M102 -236 L170 -236 L203 -62 L121 -62 L102 -236 Z M145 -7 C233 -7 298 36 298 135 C298 221 242 246 185 267 C146 281 123 294 123 328 C123 360 149 379 185 379 C218 379 249 373 284 356 L284 442 C256 457 210 463 175 463 C88 463 27 411 27 324 C27 247 80 218 128 199 C172 183 203 170 203 133 C203 91 175 75 141 75 C109 75 75 82 31 100 L31 13 C64 -1 105 -7 145 -7 L145 -7 Z " />
<glyph glyph-name="uni021A" unicode="&#x21a;" horiz-adv-x="384" d="M11 496 L139 496 L139 0 L248 0 L248 496 L373 496 L373 583 L11 583 L11 496 Z M134 -236 L202 -236 L235 -62 L153 -62 L134 -236 Z " />
<glyph glyph-name="uni021B" unicode="&#x21b;" horiz-adv-x="276" d="M17 368 L65 368 L65 119 C65 23 113 -7 178 -7 C207 -7 239 -2 262 9 L262 87 C247 82 230 77 212 77 C181 77 166 97 165 140 L165 368 L256 368 L256 452 L165 452 L165 574 L65 574 L65 452 L17 452 L17 368 Z M104 -236 L172 -236 L205 -62 L123 -62 L104 -236 Z " />
<glyph glyph-name="uni0232" unicode="&#x232;" horiz-adv-x="398" d="M393 583 L293 583 L236 400 L205 304 L202 304 L171 400 L113 583 L6 583 L144 209 L144 0 L253 0 L253 203 L393 583 Z M98 650 L308 650 L308 725 L98 725 L98 650 Z " />
<glyph glyph-name="uni0233" unicode="&#x233;" horiz-adv-x="359" d="M193 -207 L242 4 L350 452 L248 452 L202 222 L182 104 L178 104 L159 220 L114 452 L14 452 L112 0 L144 0 L88 -204 L90 -207 L193 -207 Z M80 561 L291 561 L291 637 L80 637 L80 561 Z " />
<glyph glyph-name="uni0237" unicode="&#x237;" horiz-adv-x="208" d="M17 368 L62 368 L62 18 C62 -61 39 -135 15 -193 L98 -214 C138 -153 164 -59 164 28 L164 452 L17 452 L17 368 Z " />
<glyph glyph-name="uni0259" unicode="&#x259;" horiz-adv-x="380" d="M169 461 C105 461 67 452 33 435 L33 358 C71 371 109 378 144 378 C208 378 244 348 251 255 L29 255 L29 212 C29 74 69 -9 180 -9 C295 -9 353 86 353 236 C353 397 285 461 169 461 L169 461 Z M186 75 C143 75 129 123 128 195 L251 195 C247 106 223 75 186 75 L186 75 Z " />
<glyph glyph-name="circumflex" unicode="&#x2c6;" horiz-adv-x="318" d="M123 669 L45 526 L126 526 L159 616 L165 616 L197 526 L277 526 L204 669 L123 669 Z " />
<glyph glyph-name="caron" unicode="&#x2c7;" horiz-adv-x="368" d="M226 527 L304 669 L223 669 L190 582 L185 582 L152 669 L73 669 L145 527 L226 527 Z " />
<glyph glyph-name="breve" unicode="&#x2d8;" horiz-adv-x="294" d="M147 600 C115 600 97 621 85 656 L35 619 C47 571 86 533 147 533 C206 533 249 570 261 621 L215 656 C203 623 184 600 147 600 L147 600 Z " />
<glyph glyph-name="dotaccent" unicode="&#x2d9;" horiz-adv-x="240" d="M122 555 C152 555 180 575 180 612 C180 648 152 669 122 669 C93 669 64 649 64 612 C64 576 93 555 122 555 L122 555 Z " />
<glyph glyph-name="ring" unicode="&#x2da;" horiz-adv-x="260" d="M130 690 C85 690 47 664 47 605 C47 545 82 518 130 518 C178 518 214 547 214 605 C214 665 177 690 130 690 L130 690 Z M130 643 C151 643 159 628 159 605 C159 581 151 564 130 564 C111 564 101 581 101 605 C101 626 110 643 130 643 L130 643 Z " />
<glyph glyph-name="ogonek" unicode="&#x2db;" horiz-adv-x="307" d="M260 -197 L260 -136 C245 -143 227 -146 212 -146 C190 -146 172 -134 172 -106 C172 -69 193 -31 244 7 L209 28 C155 -1 96 -53 96 -124 C96 -180 130 -213 191 -213 C217 -213 242 -207 260 -197 L260 -197 Z " />
<glyph glyph-name="tilde" unicode="&#x2dc;" horiz-adv-x="331" d="M267 650 C258 633 235 619 215 619 C184 619 164 651 125 651 C87 651 59 626 43 602 L66 552 C80 571 97 583 117 583 C149 583 173 551 211 551 C249 551 276 575 287 600 L267 650 Z " />
<glyph glyph-name="hungarumlaut" unicode="&#x2dd;" horiz-adv-x="387" d="M118 526 L192 669 L97 669 L45 526 L118 526 Z M251 526 L340 669 L245 669 L177 526 L251 526 Z " />
<glyph glyph-name="dotbelowcmb" unicode="&#x323;" d="M-131 -198 C-102 -198 -75 -179 -75 -143 C-75 -108 -102 -88 -131 -88 C-159 -88 -187 -108 -187 -143 C-187 -179 -159 -198 -131 -198 L-131 -198 Z " />
<glyph glyph-name="uni0394" unicode="&#x394;" horiz-adv-x="439" d="M420 0 L420 77 L284 583 L169 583 L19 76 L20 0 L420 0 Z M217 456 L222 456 L301 88 L127 88 L217 456 Z " />
<glyph glyph-name="Sigma" unicode="&#x3a3;" horiz-adv-x="350" d="M33 0 L317 0 L317 90 L140 90 L220 293 L142 495 L310 495 L310 583 L34 583 L34 503 L116 291 L33 82 L33 0 Z " />
<glyph glyph-name="pi" unicode="&#x3c0;" horiz-adv-x="443" d="M363 368 L403 368 L403 452 L27 452 L27 368 L67 368 L67 0 L165 0 L165 368 L265 368 L265 69 C265 20 291 -7 345 -7 C369 -7 390 -4 411 7 L411 75 C401 74 392 73 385 73 C369 73 363 89 363 128 L363 368 Z " />
<glyph glyph-name="uni1E46" unicode="&#x1e46;" horiz-adv-x="487" d="M238 -198 C267 -198 294 -179 294 -143 C294 -108 267 -88 238 -88 C210 -88 182 -108 182 -143 C182 -179 210 -198 238 -198 L238 -198 Z M52 0 L154 0 L152 361 L155 361 L343 0 L435 0 L435 583 L331 583 L332 231 L330 231 L140 583 L52 583 L52 0 Z " />
<glyph glyph-name="uni1E47" unicode="&#x1e47;" horiz-adv-x="413" d="M47 0 L147 0 L147 333 C169 353 195 371 219 371 C261 371 269 341 269 268 L269 0 L370 0 L370 318 C370 425 331 461 265 461 C215 461 170 434 140 402 L133 452 L33 452 L47 344 L47 0 Z M205 -198 C234 -198 261 -179 261 -143 C261 -108 234 -88 205 -88 C177 -88 149 -108 149 -143 C149 -179 177 -198 205 -198 L205 -198 Z " />
<glyph glyph-name="uni1E62" unicode="&#x1e62;" horiz-adv-x="352" d="M161 -198 C190 -198 217 -179 217 -143 C217 -108 190 -88 161 -88 C133 -88 105 -108 105 -143 C105 -179 133 -198 161 -198 L161 -198 Z M34 14 C75 -1 117 -9 157 -9 C260 -9 326 51 326 167 C326 275 264 308 205 339 C160 364 132 385 132 434 C132 473 162 503 205 503 C244 503 280 492 308 474 L308 569 C280 584 242 592 192 592 C92 592 29 521 29 428 C29 346 75 300 126 273 C181 244 225 223 225 161 C225 109 196 83 151 83 C109 83 68 94 34 111 L34 14 Z " />
<glyph glyph-name="uni1E63" unicode="&#x1e63;" horiz-adv-x="321" d="M152 -198 C181 -198 208 -179 208 -143 C208 -108 181 -88 152 -88 C124 -88 96 -108 96 -143 C96 -179 124 -198 152 -198 L152 -198 Z M145 -7 C233 -7 298 36 298 135 C298 221 242 246 185 267 C146 281 123 294 123 328 C123 360 149 379 185 379 C218 379 249 373 284 356 L284 442 C256 457 210 463 175 463 C88 463 27 411 27 324 C27 247 80 218 128 199 C172 183 203 170 203 133 C203 91 175 75 141 75 C109 75 75 82 31 100 L31 13 C64 -1 105 -7 145 -7 L145 -7 Z " />
<glyph glyph-name="Wgrave" unicode="&#x1e80;" horiz-adv-x="655" d="M375 630 L321 750 L222 750 L299 630 L375 630 Z M646 583 L541 583 L487 285 L463 147 L459 147 L437 287 L387 583 L276 583 L220 285 L195 142 L191 142 L171 285 L129 583 L19 583 L121 0 L244 0 L302 298 L326 425 L330 425 L351 298 L402 0 L523 0 L646 583 Z " />
<glyph glyph-name="wgrave" unicode="&#x1e81;" horiz-adv-x="547" d="M533 452 L445 452 L409 233 L391 116 L387 116 L366 231 L328 452 L231 452 L183 228 L162 116 L158 116 L142 228 L111 452 L18 452 L96 0 L206 0 L254 212 L271 304 L275 304 L292 211 L333 0 L447 0 L533 452 Z M314 526 L257 669 L160 669 L240 526 L314 526 Z " />
<glyph glyph-name="Wacute" unicode="&#x1e82;" horiz-adv-x="655" d="M363 628 L440 748 L341 748 L287 628 L363 628 Z M646 583 L541 583 L487 285 L463 147 L459 147 L437 287 L387 583 L276 583 L220 285 L195 142 L191 142 L171 285 L129 583 L19 583 L121 0 L244 0 L302 298 L326 425 L330 425 L351 298 L402 0 L523 0 L646 583 Z " />
<glyph glyph-name="wacute" unicode="&#x1e83;" horiz-adv-x="547" d="M317 526 L398 669 L302 669 L244 526 L317 526 Z M533 452 L445 452 L409 233 L391 116 L387 116 L366 231 L328 452 L231 452 L183 228 L162 116 L158 116 L142 228 L111 452 L18 452 L96 0 L206 0 L254 212 L271 304 L275 304 L292 211 L333 0 L447 0 L533 452 Z " />
<glyph glyph-name="Wdieresis" unicode="&#x1e84;" horiz-adv-x="655" d="M253 631 C284 631 304 649 304 681 C304 715 284 734 253 734 C224 734 203 715 203 681 C203 649 224 631 253 631 L253 631 Z M400 631 C430 631 450 649 450 682 C450 715 430 734 400 734 C370 734 350 715 350 682 C350 649 370 631 400 631 L400 631 Z M646 583 L541 583 L487 285 L463 147 L459 147 L437 287 L387 583 L276 583 L220 285 L195 142 L191 142 L171 285 L129 583 L19 583 L121 0 L244 0 L302 298 L326 425 L330 425 L351 298 L402 0 L523 0 L646 583 Z " />
<glyph glyph-name="wdieresis" unicode="&#x1e85;" horiz-adv-x="547" d="M200 558 C231 558 251 577 251 609 C251 642 231 662 200 662 C170 662 150 643 150 609 C150 577 170 558 200 558 L200 558 Z M346 558 C377 558 397 577 397 610 C397 642 377 662 346 662 C317 662 296 643 296 610 C296 577 317 558 346 558 L346 558 Z M533 452 L445 452 L409 233 L391 116 L387 116 L366 231 L328 452 L231 452 L183 228 L162 116 L158 116 L142 228 L111 452 L18 452 L96 0 L206 0 L254 212 L271 304 L275 304 L292 211 L333 0 L447 0 L533 452 Z " />
<glyph glyph-name="uni1EBC" unicode="&#x1ebc;" horiz-adv-x="364" d="M52 0 L337 0 L337 87 L160 87 L160 257 L307 257 L307 340 L160 340 L160 496 L333 496 L333 583 L52 583 L52 0 Z M297 735 C288 719 265 704 245 704 C214 704 194 736 155 736 C118 736 88 710 74 685 L96 634 C111 653 128 665 148 665 C180 665 203 633 242 633 C279 633 306 657 318 682 L297 735 Z " />
<glyph glyph-name="uni1EBD" unicode="&#x1ebd;" horiz-adv-x="380" d="M211 -7 C275 -7 313 2 347 19 L347 96 C309 83 271 76 236 76 C172 76 135 106 129 199 L351 199 L351 242 C351 380 311 463 200 463 C85 463 27 368 27 218 C27 57 95 -7 211 -7 L211 -7 Z M303 650 C294 633 271 619 251 619 C220 619 200 651 161 651 C123 651 95 626 79 602 L102 552 C116 571 133 583 153 583 C185 583 209 551 247 551 C285 551 312 575 323 600 L303 650 Z M194 379 C236 379 251 331 252 259 L128 259 C132 347 156 379 194 379 L194 379 Z " />
<glyph glyph-name="Ygrave" unicode="&#x1ef2;" horiz-adv-x="398" d="M393 583 L293 583 L236 400 L205 304 L202 304 L171 400 L113 583 L6 583 L144 209 L144 0 L253 0 L253 203 L393 583 Z M251 630 L197 750 L98 750 L175 630 L251 630 Z " />
<glyph glyph-name="ygrave" unicode="&#x1ef3;" horiz-adv-x="359" d="M193 -207 L242 4 L350 452 L248 452 L202 222 L182 104 L178 104 L159 220 L114 452 L14 452 L112 0 L144 0 L88 -204 L90 -207 L193 -207 Z M229 520 L172 663 L75 663 L155 520 L229 520 Z " />
<glyph glyph-name="uni2004" unicode="&#x2004;" horiz-adv-x="286" d="" />
<glyph glyph-name="uni2007" unicode="&#x2007;" horiz-adv-x="400" d="" />
<glyph glyph-name="uni2009" unicode="&#x2009;" horiz-adv-x="160" d="" />
<glyph glyph-name="uni200A" unicode="&#x200a;" horiz-adv-x="102" d="" />
<glyph glyph-name="uni200B" unicode="&#x200b;" d="" />
<glyph glyph-name="uni2012" unicode="&#x2012;" horiz-adv-x="378" d="M388 220 L388 309 L-10 309 L-10 220 L388 220 Z " />
<glyph glyph-name="endash" unicode="&#x2013;" horiz-adv-x="355" d="M44 215 L311 215 L311 282 L44 282 L44 215 Z " />
<glyph glyph-name="emdash" unicode="&#x2014;" horiz-adv-x="687" d="M44 215 L643 215 L643 282 L44 282 L44 215 Z " />
<glyph glyph-name="quoteleft" unicode="&#x2018;" horiz-adv-x="187" d="M129 676 C65 613 35 546 35 487 C35 447 61 422 96 422 C131 422 154 446 154 478 C133 491 127 511 127 534 C127 576 150 621 175 659 L129 676 Z " />
<glyph glyph-name="quoteright" unicode="&#x2019;" horiz-adv-x="188" d="M76 442 C140 505 170 572 170 631 C170 671 144 696 109 696 C74 696 51 672 51 640 C72 627 78 607 78 584 C78 542 55 497 30 459 L76 442 Z " />
<glyph glyph-name="quotesinglbase" unicode="&#x201a;" horiz-adv-x="193" d="M59 -140 C123 -77 154 -9 154 50 C154 91 128 116 93 116 C57 116 35 91 34 60 C55 46 62 26 62 3 C62 -39 38 -84 13 -123 L59 -140 Z " />
<glyph glyph-name="quotedblleft" unicode="&#x201c;" horiz-adv-x="331" d="M129 676 C65 613 35 546 35 487 C35 447 61 422 96 422 C131 422 154 446 154 478 C133 491 127 511 127 534 C127 576 150 621 175 659 L129 676 Z M274 676 C210 613 180 546 180 487 C180 447 206 422 241 422 C276 422 299 446 299 478 C278 491 272 511 272 534 C272 576 295 621 320 659 L274 676 Z " />
<glyph glyph-name="quotedblright" unicode="&#x201d;" horiz-adv-x="337" d="M75 433 C139 496 169 563 169 622 C169 662 143 687 108 687 C73 687 50 663 50 631 C71 618 77 598 77 575 C77 533 54 488 29 450 L75 433 Z M222 433 C286 496 316 563 316 622 C316 662 290 687 255 687 C220 687 197 663 197 631 C218 618 224 598 224 575 C224 533 201 488 176 450 L222 433 Z " />
<glyph glyph-name="quotedblbase" unicode="&#x201e;" horiz-adv-x="341" d="M59 -140 C123 -77 154 -9 154 50 C154 91 128 116 93 116 C57 116 35 91 34 60 C55 46 62 26 62 3 C62 -39 38 -84 13 -123 L59 -140 Z M206 -140 C270 -77 301 -9 301 50 C301 91 275 116 240 116 C204 116 182 91 181 60 C202 46 209 26 209 3 C209 -39 185 -84 160 -123 L206 -140 Z " />
<glyph glyph-name="dagger" unicode="&#x2020;" horiz-adv-x="349" d="M20 382 L135 382 L135 0 L214 0 L214 382 L329 382 L329 456 L214 456 L214 653 L135 653 L135 456 L20 456 L20 382 Z " />
<glyph glyph-name="daggerdbl" unicode="&#x2021;" horiz-adv-x="375" d="M33 391 L149 391 L149 249 L33 249 L33 176 L149 176 L149 0 L227 0 L227 176 L342 176 L342 249 L227 249 L227 391 L342 391 L342 464 L227 464 L227 653 L149 653 L149 464 L33 464 L33 391 Z " />
<glyph glyph-name="bullet" unicode="&#x2022;" horiz-adv-x="371" d="M185 161 C262 161 321 220 321 298 C321 374 262 432 185 432 C109 432 50 374 50 298 C50 220 109 161 185 161 L185 161 Z " />
<glyph glyph-name="ellipsis" unicode="&#x2026;" horiz-adv-x="580" d="M103 -8 C143 -8 170 18 170 56 C170 93 143 120 103 120 C64 120 36 94 36 56 C36 17 64 -8 103 -8 L103 -8 Z M290 -8 C330 -8 357 18 357 56 C357 93 330 120 290 120 C251 120 223 94 223 56 C223 17 251 -8 290 -8 L290 -8 Z M476 -8 C516 -8 543 18 543 56 C543 93 516 120 476 120 C437 120 409 94 409 56 C409 17 437 -8 476 -8 L476 -8 Z " />
<glyph glyph-name="perthousand" unicode="&#x2030;" horiz-adv-x="764" d="M130 284 C196 284 236 340 236 436 C236 543 195 592 130 592 C64 592 24 533 24 434 C24 332 64 284 130 284 L130 284 Z M278 360 L336 360 L441 566 L441 583 L362 583 L278 360 Z M132 340 C104 340 93 373 93 435 C93 506 103 536 129 536 C156 536 166 507 166 433 C166 369 156 340 132 340 L132 340 Z M409 -9 C475 -9 515 48 515 144 C515 250 474 300 409 300 C343 300 303 240 303 142 C303 40 343 -9 409 -9 L409 -9 Z M410 47 C383 47 372 80 372 143 C372 209 381 243 407 243 C435 243 445 215 445 141 C445 76 435 47 410 47 L410 47 Z M272 234 L214 234 L107 17 L107 0 L187 0 L272 234 Z M635 -9 C701 -9 741 48 741 144 C741 250 700 300 635 300 C569 300 530 240 530 142 C530 40 569 -9 635 -9 L635 -9 Z M637 47 C609 47 598 80 598 143 C598 209 608 243 633 243 C661 243 672 215 672 141 C672 76 661 47 637 47 L637 47 Z " />
<glyph glyph-name="guilsinglleft" unicode="&#x2039;" horiz-adv-x="226" d="M104 46 L192 46 L135 226 L189 405 L104 405 L29 226 L104 46 Z " />
<glyph glyph-name="guilsinglright" unicode="&#x203a;" horiz-adv-x="226" d="M121 408 L33 408 L90 228 L36 49 L121 49 L196 228 L121 408 Z " />
<glyph glyph-name="uni203D" unicode="&#x203d;" horiz-adv-x="289" d="M73 311 L90 191 L148 198 L147 263 C192 287 265 345 265 447 C265 545 213 591 130 591 C99 591 57 581 32 567 L32 494 C57 506 89 514 115 514 C157 514 185 488 185 435 C185 388 168 355 145 331 L135 446 L61 440 L73 311 Z M118 -7 C156 -7 181 22 181 54 C181 89 156 119 118 119 C81 119 54 89 54 54 C54 22 81 -7 118 -7 L118 -7 Z " />
<glyph glyph-name="fraction" unicode="&#x2044;" horiz-adv-x="95" d="M-50 0 L190 552 L190 557 L141 557 L-99 5 L-99 0 L-50 0 Z " />
<glyph glyph-name="zerosuperior" unicode="&#x2070;" horiz-adv-x="253" d="M124 396 C197 396 236 451 236 558 C236 650 205 716 128 716 C59 716 17 659 17 549 C17 448 52 396 124 396 L124 396 Z M127 447 C98 447 92 476 92 552 C92 628 98 664 125 664 C154 664 160 627 160 556 C160 480 155 447 127 447 L127 447 Z " />
<glyph glyph-name="i.superior" unicode="&#x2071;" horiz-adv-x="152" d="M15 648 L44 648 L44 400 L121 400 L121 711 L15 711 L15 648 Z M83 778 C111 778 130 795 130 822 C130 847 111 865 83 865 C55 865 35 848 35 822 C35 795 55 778 83 778 L83 778 Z " />
<glyph glyph-name="foursuperior" unicode="&#x2074;" horiz-adv-x="211" d="M99 400 L171 400 L171 471 L196 471 L196 520 L171 520 L171 714 L97 714 L7 518 L7 471 L99 471 L99 400 Z M50 520 L97 625 L99 625 L99 520 L50 520 Z " />
<glyph glyph-name="fivesuperior" unicode="&#x2075;" horiz-adv-x="194" d="M82 396 C131 396 179 425 179 498 C179 569 139 592 88 592 L77 592 L80 658 L172 658 L172 711 L33 711 L24 540 C34 542 42 543 51 543 C87 543 106 534 106 496 C106 464 89 449 66 449 C49 449 33 453 18 460 L18 407 C36 401 56 396 82 396 L82 396 Z " />
<glyph glyph-name="sixsuperior" unicode="&#x2076;" horiz-adv-x="228" d="M114 396 C180 396 214 441 214 506 C214 565 188 599 136 599 C116 599 100 594 87 585 C93 639 109 663 145 663 C158 663 175 662 195 651 L195 706 C176 712 158 716 138 716 C62 716 16 647 16 535 C16 448 47 396 114 396 L114 396 Z M117 553 C137 553 146 538 146 502 C146 464 137 446 115 446 C92 446 85 477 85 535 L85 544 C93 549 104 553 117 553 L117 553 Z " />
<glyph glyph-name="sevensuperior" unicode="&#x2077;" horiz-adv-x="181" d="M85 400 L179 678 L179 711 L9 711 L9 658 L106 658 L19 404 L20 400 L85 400 Z " />
<glyph glyph-name="eightsuperior" unicode="&#x2078;" horiz-adv-x="230" d="M212 486 C212 529 188 549 161 564 C186 581 208 604 208 638 C208 687 174 716 114 716 C54 716 23 676 23 629 C23 591 42 569 65 553 C41 538 16 512 16 478 C16 423 55 396 111 396 C177 396 212 435 212 486 L212 486 Z M80 486 C80 508 86 524 94 536 C121 521 145 507 145 481 C145 449 130 442 113 442 C94 442 80 456 80 486 L80 486 Z M144 629 C144 611 138 595 128 580 C105 592 87 605 87 632 C87 657 97 666 114 666 C136 666 144 652 144 629 L144 629 Z " />
<glyph glyph-name="ninesuperior" unicode="&#x2079;" horiz-adv-x="228" d="M32 405 C51 398 72 396 89 396 C166 396 211 463 211 577 C211 660 181 716 114 716 C48 716 14 672 14 606 C14 548 40 513 92 513 C112 513 128 518 141 527 C135 473 117 448 83 448 C70 448 52 449 32 460 L32 405 Z M111 559 C90 559 81 574 81 610 C81 650 91 667 112 667 C136 667 143 635 143 577 L143 568 C134 563 124 559 111 559 L111 559 Z " />
<glyph glyph-name="plussuperior" unicode="&#x207a;" horiz-adv-x="240" d="M14 527 L91 527 L91 439 L149 439 L149 527 L226 527 L226 590 L149 590 L149 678 L91 678 L91 590 L14 590 L14 527 Z " />
<glyph glyph-name="minussuperior" unicode="&#x207b;" horiz-adv-x="261" d="M25 529 L235 529 L235 591 L25 591 L25 529 Z " />
<glyph glyph-name="equalsuperior" unicode="&#x207c;" horiz-adv-x="253" d="M25 462 L228 462 L228 526 L25 526 L25 462 Z M25 599 L228 599 L228 662 L25 662 L25 599 Z " />
<glyph glyph-name="parenleftsuperior" unicode="&#x207d;" horiz-adv-x="151" d="M157 308 C133 342 74 439 74 585 C74 727 130 817 154 850 L94 850 C69 819 11 727 11 583 C11 440 59 355 94 308 L157 308 Z " />
<glyph glyph-name="parenrightsuperior" unicode="&#x207e;" horiz-adv-x="150" d="M58 308 C90 352 139 437 139 580 C139 725 83 816 56 850 L-7 850 C18 818 76 723 76 578 C76 435 19 343 -5 308 L58 308 Z " />
<glyph glyph-name="n.superior" unicode="&#x207f;" horiz-adv-x="293" d="M33 400 L110 400 L110 627 C124 639 141 649 154 649 C182 649 187 628 187 573 L187 400 L264 400 L264 607 C264 686 239 717 192 717 C157 717 126 698 105 678 L101 711 L24 711 L33 637 L33 400 Z " />
<glyph glyph-name="zeroinferior" unicode="&#x2080;" horiz-adv-x="253" d="M124 -4 C197 -4 236 51 236 158 C236 250 205 316 128 316 C59 316 17 259 17 149 C17 48 52 -4 124 -4 L124 -4 Z M127 47 C98 47 92 76 92 152 C92 228 98 264 125 264 C154 264 160 227 160 156 C160 80 155 47 127 47 L127 47 Z " />
<glyph glyph-name="oneinferior" unicode="&#x2081;" horiz-adv-x="162" d="M130 0 L130 314 L72 314 L8 288 L8 237 L55 250 L55 0 L130 0 Z " />
<glyph glyph-name="twoinferior" unicode="&#x2082;" horiz-adv-x="203" d="M106 216 C106 158 66 109 15 46 L15 0 L187 0 L187 57 L88 57 L88 60 C140 107 182 167 182 227 C182 290 144 316 96 316 C70 316 42 311 19 297 L21 244 C40 258 57 261 71 261 C90 261 106 246 106 216 L106 216 Z " />
<glyph glyph-name="threeinferior" unicode="&#x2083;" horiz-adv-x="194" d="M77 -4 C132 -4 178 21 178 91 C178 135 155 164 115 169 L115 171 C145 180 169 202 169 246 C169 293 134 316 88 316 C63 316 37 310 19 298 L19 245 C35 257 50 261 63 261 C82 261 96 251 96 226 C96 197 72 178 48 174 L48 138 C83 137 104 123 104 91 C104 63 89 49 67 49 C49 49 33 51 16 60 L16 5 C33 0 51 -4 77 -4 L77 -4 Z " />
<glyph glyph-name="fourinferior" unicode="&#x2084;" horiz-adv-x="210" d="M99 0 L171 0 L171 71 L196 71 L196 120 L171 120 L171 314 L97 314 L7 118 L7 71 L99 71 L99 0 Z M50 120 L97 225 L99 225 L99 120 L50 120 Z " />
<glyph glyph-name="fiveinferior" unicode="&#x2085;" horiz-adv-x="195" d="M82 -4 C131 -4 179 25 179 98 C179 169 139 192 88 192 L77 192 L80 258 L172 258 L172 311 L33 311 L24 140 C34 142 42 143 51 143 C87 143 106 134 106 96 C106 64 89 49 66 49 C49 49 33 53 18 60 L18 7 C36 1 56 -4 82 -4 L82 -4 Z " />
<glyph glyph-name="sixinferior" unicode="&#x2086;" horiz-adv-x="228" d="M114 -4 C180 -4 214 41 214 106 C214 165 188 199 136 199 C116 199 100 194 87 185 C93 239 109 263 145 263 C158 263 175 262 195 251 L195 306 C176 312 158 316 138 316 C62 316 16 247 16 135 C16 48 47 -4 114 -4 L114 -4 Z M117 153 C137 153 146 138 146 102 C146 64 137 46 115 46 C92 46 85 77 85 135 L85 144 C93 149 104 153 117 153 L117 153 Z " />
<glyph glyph-name="seveninferior" unicode="&#x2087;" horiz-adv-x="181" d="M85 0 L179 278 L179 311 L9 311 L9 258 L106 258 L19 4 L20 0 L85 0 Z " />
<glyph glyph-name="eightinferior" unicode="&#x2088;" horiz-adv-x="230" d="M212 86 C212 129 188 149 161 164 C186 181 208 204 208 238 C208 287 174 316 114 316 C54 316 23 276 23 229 C23 191 42 169 65 153 C41 138 16 112 16 78 C16 23 55 -4 111 -4 C177 -4 212 35 212 86 L212 86 Z M80 86 C80 108 86 124 94 136 C121 121 145 107 145 81 C145 49 130 42 113 42 C94 42 80 56 80 86 L80 86 Z M144 229 C144 211 138 195 128 180 C105 192 87 205 87 232 C87 257 97 266 114 266 C136 266 144 252 144 229 L144 229 Z " />
<glyph glyph-name="nineinferior" unicode="&#x2089;" horiz-adv-x="228" d="M32 5 C51 -2 72 -4 89 -4 C166 -4 211 63 211 177 C211 260 181 316 114 316 C48 316 14 272 14 206 C14 148 40 113 92 113 C112 113 128 118 141 127 C135 73 117 48 83 48 C70 48 52 49 32 60 L32 5 Z M111 159 C90 159 81 174 81 210 C81 250 91 267 112 267 C136 267 143 235 143 177 L143 168 C134 163 124 159 111 159 L111 159 Z " />
<glyph glyph-name="plus.inferior" unicode="&#x208a;" horiz-adv-x="240" d="M14 127 L91 127 L91 39 L149 39 L149 127 L226 127 L226 190 L149 190 L149 278 L91 278 L91 190 L14 190 L14 127 Z " />
<glyph glyph-name="minus.inferior" unicode="&#x208b;" horiz-adv-x="261" d="M25 129 L235 129 L235 191 L25 191 L25 129 Z " />
<glyph glyph-name="equal.inferior" unicode="&#x208c;" horiz-adv-x="253" d="M25 62 L228 62 L228 126 L25 126 L25 62 Z M25 199 L228 199 L228 262 L25 262 L25 199 Z " />
<glyph glyph-name="parenleft.inferior" unicode="&#x208d;" horiz-adv-x="150" d="M157 -92 C133 -58 74 39 74 185 C74 327 130 417 154 450 L94 450 C69 419 11 327 11 183 C11 40 59 -45 94 -92 L157 -92 Z " />
<glyph glyph-name="parenright.inferior" unicode="&#x208e;" horiz-adv-x="150" d="M58 -92 C90 -48 139 37 139 180 C139 325 83 416 56 450 L-7 450 C18 418 76 323 76 178 C76 35 19 -57 -5 -92 L58 -92 Z " />
<glyph glyph-name="a.inferior" unicode="&#x2090;" horiz-adv-x="264" d="M165 0 L242 0 L232 71 L232 216 C232 293 193 318 134 318 C103 318 64 313 28 299 L28 234 C47 241 82 249 107 249 C135 249 155 238 155 200 L155 173 L135 173 C58 173 13 141 13 79 C13 27 40 -5 85 -5 C119 -5 145 13 160 31 L165 0 Z M114 49 C97 49 89 62 89 89 C89 120 104 129 132 129 L155 129 L155 72 C142 60 127 49 114 49 L114 49 Z " />
<glyph glyph-name="e.inferior" unicode="&#x2091;" horiz-adv-x="266" d="M243 14 L243 73 C216 62 190 58 164 58 C124 58 98 76 93 135 L248 135 L248 165 C248 260 218 318 137 318 C61 318 16 253 16 150 C16 39 64 -5 149 -5 C188 -5 219 2 243 14 L243 14 Z M134 257 C160 257 170 226 171 180 L93 180 C97 235 114 257 134 257 L134 257 Z " />
<glyph glyph-name="o.inferior" unicode="&#x2092;" horiz-adv-x="276" d="M136 -5 C216 -5 259 62 259 159 C259 271 218 318 139 318 C63 318 16 248 16 151 C16 42 61 -5 136 -5 L136 -5 Z M139 55 C104 55 95 85 95 156 C95 219 103 255 139 255 C176 255 181 220 181 156 C181 90 173 55 139 55 L139 55 Z " />
<glyph glyph-name="x.inferior" unicode="&#x2093;" horiz-adv-x="256" d="M86 311 L10 311 L78 157 L5 0 L80 0 L124 112 L131 112 L170 0 L248 0 L178 161 L247 311 L173 311 L134 199 L134 201 L126 201 L86 311 Z " />
<glyph glyph-name="h.inferior" unicode="&#x2095;" horiz-adv-x="291" d="M185 0 L262 0 L262 207 C262 286 236 317 188 317 C157 317 129 301 108 282 L108 469 L31 469 L31 0 L108 0 L108 226 C121 238 139 249 153 249 C179 249 185 228 185 173 L185 0 Z " />
<glyph glyph-name="k.inferior" unicode="&#x2096;" horiz-adv-x="268" d="M175 0 L259 0 L190 171 L262 311 L179 311 L117 174 L117 161 L175 0 Z M31 0 L108 0 L108 469 L31 469 L31 0 Z " />
<glyph glyph-name="l.inferior" unicode="&#x2097;" horiz-adv-x="148" d="M35 0 L112 0 L112 469 L35 469 L35 0 Z " />
<glyph glyph-name="m.inferior" unicode="&#x2098;" horiz-adv-x="435" d="M329 0 L405 0 L405 208 C405 286 380 317 332 317 C298 317 268 298 247 275 C235 304 214 317 185 317 C153 317 126 301 105 280 L101 311 L24 311 L33 237 L33 0 L110 0 L110 228 C122 239 136 249 148 249 C176 249 182 233 182 173 L182 0 L258 0 L258 207 C258 215 258 222 257 229 C270 240 283 249 295 249 C322 249 329 233 329 173 L329 0 Z " />
<glyph glyph-name="n.inferior" unicode="&#x2099;" horiz-adv-x="293" d="M33 0 L110 0 L110 227 C124 239 141 249 154 249 C182 249 187 228 187 173 L187 0 L264 0 L264 207 C264 286 239 317 192 317 C157 317 126 298 105 278 L101 311 L24 311 L33 237 L33 0 Z " />
<glyph glyph-name="p.inferior" unicode="&#x209a;" horiz-adv-x="283" d="M33 -143 L110 -143 L110 -1 C121 -3 133 -5 146 -5 C215 -5 267 49 267 170 C267 264 233 318 180 318 C148 318 124 304 104 285 L101 311 L24 311 L33 237 L33 -143 Z M148 255 C178 255 188 226 188 162 C188 98 179 56 137 56 C129 56 119 57 110 59 L110 239 C122 249 135 255 148 255 L148 255 Z " />
<glyph glyph-name="s.inferior" unicode="&#x209b;" horiz-adv-x="226" d="M104 -5 C167 -5 211 25 211 93 C211 157 169 172 130 185 C106 192 90 199 90 224 C90 245 107 255 129 255 C153 255 175 251 200 237 L200 301 C180 314 146 318 122 318 C61 318 17 282 17 220 C17 165 54 148 87 134 C117 124 138 116 138 92 C138 66 121 55 100 55 C76 55 54 61 20 74 L20 10 C44 0 73 -5 104 -5 L104 -5 Z " />
<glyph glyph-name="t.inferior" unicode="&#x209c;" horiz-adv-x="201" d="M11 248 L42 248 L42 92 C42 17 78 -5 125 -5 C146 -5 169 -2 186 6 L186 66 C176 62 163 58 151 58 C130 58 119 73 119 109 L119 248 L179 248 L179 311 L119 311 L119 393 L42 393 L42 311 L11 311 L11 248 Z " />
<glyph glyph-name="colonsign" unicode="&#x20a1;" horiz-adv-x="447" d="M201 -81 L254 -81 L271 -8 C309 -3 344 8 358 22 L358 105 C335 91 314 83 292 81 L430 666 L378 666 L356 575 C346 579 335 583 321 586 L340 666 L287 666 L269 591 C262 592 254 592 246 592 C95 592 29 466 29 282 C29 146 62 56 133 15 L110 -81 L163 -81 L181 -3 C193 -6 205 -8 218 -9 L201 -81 Z M141 295 C141 418 177 491 248 501 L164 147 C148 182 141 231 141 295 L141 295 Z M205 96 L300 499 C312 497 324 493 336 489 L240 82 C227 85 215 90 205 96 L205 96 Z " />
<glyph glyph-name="cruzeiro" unicode="&#x20a2;" horiz-adv-x="443" d="M268 -9 C326 -9 376 4 398 19 L398 105 C369 88 333 81 296 81 L296 211 C316 239 344 266 379 266 C387 266 394 265 402 262 L402 354 C392 357 384 359 374 359 C341 359 311 324 292 293 L285 352 L200 352 L212 252 L212 96 C158 123 134 186 134 295 C134 430 181 503 283 503 C323 503 363 496 398 476 L398 568 C375 579 334 592 273 592 C107 592 32 466 32 283 C32 103 108 -9 268 -9 L268 -9 Z " />
<glyph glyph-name="franc" unicode="&#x20a3;" horiz-adv-x="509" d="M54 0 L160 0 L160 254 L272 254 L275 228 L275 0 L370 0 L370 180 C391 209 421 236 460 236 C468 236 476 234 484 232 L484 337 C474 341 465 342 455 342 C419 342 387 302 366 270 L358 336 L160 336 L160 498 L378 498 L378 583 L54 583 L54 0 Z " />
<glyph glyph-name="lira" unicode="&#x20a4;" horiz-adv-x="360" d="M277 366 L166 366 C164 384 163 402 163 417 C163 473 190 506 231 506 C265 506 288 499 314 481 L314 571 C289 585 252 592 211 592 C137 592 65 543 65 423 C65 405 66 386 68 366 L38 366 L38 297 L74 297 L81 243 L38 243 L38 174 L87 174 L87 163 C87 134 83 108 75 81 L38 81 L38 0 L331 0 L331 81 L171 81 C178 111 182 143 183 174 L277 174 L277 243 L179 243 C178 261 175 279 173 297 L277 297 L277 366 Z " />
<glyph glyph-name="mill" unicode="&#x20a5;" horiz-adv-x="602" d="M466 0 L567 0 L567 318 C567 425 527 461 462 461 C438 461 416 455 396 444 L429 574 L359 574 L324 435 C306 453 282 461 252 461 C206 461 167 438 138 409 L132 452 L32 452 L46 344 L46 0 L146 0 L146 341 C164 358 185 371 205 371 C247 371 256 349 256 268 L256 168 L183 -120 L252 -120 L282 0 L356 0 L356 288 L373 355 C387 365 402 371 416 371 C457 371 466 349 466 268 L466 0 Z " />
<glyph glyph-name="naira" unicode="&#x20a6;" horiz-adv-x="536" d="M74 0 L176 0 L175 213 L254 213 L365 0 L457 0 L457 213 L505 213 L505 276 L457 276 L457 315 L505 315 L505 377 L457 377 L457 583 L353 583 L353 377 L273 377 L162 583 L74 583 L74 377 L32 377 L32 315 L74 315 L74 276 L32 276 L32 213 L74 213 L74 0 Z M174 315 L201 315 L221 276 L174 276 L174 315 Z M306 315 L353 315 L353 276 L327 276 L306 315 Z " />
<glyph glyph-name="pesetas" unicode="&#x20a7;" horiz-adv-x="970" d="M54 0 L162 0 L162 195 L197 195 C338 195 387 282 387 393 C387 523 336 583 220 583 L54 583 L54 0 Z M405 368 L453 368 L453 119 C453 23 501 -7 566 -7 C595 -7 627 -2 650 9 L650 87 C635 82 618 77 600 77 C569 77 554 97 553 140 L553 368 L644 368 L644 452 L553 452 L553 574 L453 574 L453 452 L405 452 L405 368 Z M786 -7 C874 -7 939 36 939 135 C939 221 883 246 826 267 C787 281 764 294 764 328 C764 360 790 379 826 379 C859 379 890 373 925 356 L925 442 C897 457 851 463 816 463 C729 463 668 411 668 324 C668 247 721 218 769 199 C813 183 844 170 844 133 C844 91 816 75 782 75 C750 75 716 82 672 100 L672 13 C705 -1 746 -7 786 -7 L786 -7 Z M197 498 C250 498 278 469 278 391 C278 295 240 279 188 278 L162 278 L162 498 L197 498 Z " />
<glyph glyph-name="rupee" unicode="&#x20a8;" horiz-adv-x="695" d="M490 72 C440 72 387 94 341 187 C337 195 323 219 313 240 C355 272 385 324 385 396 C385 521 329 583 218 583 L54 583 L54 0 L162 0 L162 202 L196 202 C206 202 216 203 226 204 C239 178 258 143 260 139 C313 28 374 -7 490 -7 C589 -7 666 34 666 135 C666 222 610 244 553 267 C516 282 491 296 491 329 C491 360 514 381 550 381 C583 381 615 373 650 356 L650 440 C620 458 573 464 538 464 C449 464 395 409 395 325 C395 248 447 222 496 201 C539 183 570 168 570 134 C570 88 531 72 490 72 L490 72 Z M195 498 C249 498 275 473 275 394 C275 298 238 286 186 286 L162 286 L162 498 L195 498 Z " />
<glyph glyph-name="won" unicode="&#x20a9;" horiz-adv-x="706" d="M667 583 L562 583 L529 403 L438 403 L408 583 L297 583 L263 403 L175 403 L150 583 L40 583 L71 403 L32 403 L32 343 L82 343 L91 289 L32 289 L32 229 L102 229 L142 0 L265 0 L309 229 L384 229 L423 0 L544 0 L592 229 L674 229 L674 289 L605 289 L616 343 L674 343 L674 403 L629 403 L667 583 Z M448 343 L518 343 L508 289 L457 289 L448 343 Z M184 343 L252 343 L242 289 L191 289 L184 343 Z M323 298 L331 343 L364 343 L373 289 L321 289 L323 298 Z M212 142 L200 229 L231 229 L216 142 L212 142 Z M480 147 L467 229 L498 229 L484 147 L480 147 Z M347 425 L351 425 L354 403 L343 403 L347 425 Z " />
<glyph glyph-name="sheqel" unicode="&#x20aa;" horiz-adv-x="531" d="M54 0 L123 0 L123 472 L205 472 C276 472 291 440 291 356 L291 249 L357 249 L357 356 C357 522 349 583 182 583 L54 583 L54 0 Z M174 0 L291 0 C463 0 480 72 480 251 L480 583 L411 583 L411 256 C411 145 397 113 309 113 L244 113 L244 333 L174 333 L174 0 Z " />
<glyph glyph-name="dong" unicode="&#x20ab;" horiz-adv-x="392" d="M152 555 L240 555 L240 494 C222 499 199 502 180 502 C98 502 32 444 32 292 C32 161 89 114 147 114 C184 114 217 131 244 163 L249 120 L335 120 L325 206 L325 555 L359 555 L359 615 L325 615 L325 681 L240 681 L240 615 L152 615 L152 555 Z M178 186 C138 186 119 221 119 303 C119 401 147 432 194 432 C210 432 226 428 240 423 L240 216 C217 197 200 186 178 186 L178 186 Z M38 0 L343 0 L343 74 L38 74 L38 0 Z " />
<glyph glyph-name="Euro" unicode="&#x20ac;" horiz-adv-x="402" d="M28 320 L66 320 C65 307 65 295 65 282 L65 256 L28 256 L28 192 L70 192 C89 57 152 -9 255 -9 C299 -9 341 -1 367 14 L367 101 C339 85 314 82 285 82 C233 82 200 119 186 192 L307 192 L307 256 L179 256 C178 268 178 281 178 295 L178 320 L307 320 L307 384 L185 384 C199 460 234 502 281 502 C307 502 332 500 364 484 L364 575 C339 586 310 592 264 592 C164 592 95 519 73 384 L28 384 L28 320 Z " />
<glyph glyph-name="uni20AD" unicode="&#x20ad;" horiz-adv-x="454" d="M64 0 L172 0 L172 262 L192 262 L306 0 L421 0 L305 262 L408 262 L408 339 L294 339 L424 583 L315 583 L195 339 L172 339 L172 583 L64 583 L64 339 L31 339 L31 262 L64 262 L64 0 Z " />
<glyph glyph-name="uni20AE" unicode="&#x20ae;" horiz-adv-x="406" d="M22 496 L150 496 L150 313 L84 278 L84 202 L150 237 L150 185 L84 150 L84 74 L150 109 L150 0 L259 0 L259 168 L332 208 L332 283 L259 244 L259 296 L332 336 L332 411 L259 372 L259 496 L384 496 L384 583 L22 583 L22 496 Z " />
<glyph glyph-name="uni20B1" unicode="&#x20b1;" horiz-adv-x="475" d="M71 0 L179 0 L179 195 L214 195 C322 195 376 246 395 320 L448 320 L448 367 L403 367 C403 375 404 384 404 393 C404 400 404 408 403 415 L448 415 L448 463 L398 463 C381 544 329 583 237 583 L71 583 L71 463 L34 463 L34 415 L71 415 L71 367 L34 367 L34 320 L71 320 L71 0 Z M295 391 C295 382 294 374 294 367 L179 367 L179 415 L294 415 C294 407 295 399 295 391 L295 391 Z M205 278 L179 278 L179 320 L283 320 C268 286 240 278 205 278 L205 278 Z M214 498 C245 498 268 488 281 463 L179 463 L179 498 L214 498 Z " />
<glyph glyph-name="uni20B4" unicode="&#x20b4;" horiz-adv-x="417" d="M384 388 L350 388 C356 404 360 422 360 442 C360 535 303 592 203 592 C152 592 110 584 77 569 L77 476 C108 493 146 503 185 503 C228 503 257 476 257 437 C257 418 253 402 245 388 L31 388 L31 323 L170 323 C149 311 129 297 112 280 L31 280 L31 215 L71 215 C65 197 62 176 62 153 C62 38 125 -9 228 -9 C268 -9 311 -1 352 15 L352 112 C318 94 276 83 235 83 C190 83 161 106 161 158 C161 180 165 199 174 215 L384 215 L384 280 L247 280 C266 292 286 306 304 323 L384 323 L384 388 Z " />
<glyph glyph-name="uni20B9" unicode="&#x20b9;" horiz-adv-x="399" d="M373 420 L310 420 C304 454 288 479 265 498 L354 498 L373 583 L40 583 L40 498 L124 498 C168 495 194 472 202 420 L40 420 L40 343 L200 343 C190 286 157 267 104 267 L39 267 L39 189 L124 189 C130 189 137 189 143 190 L222 0 L336 0 L234 222 C272 247 301 288 310 343 L354 343 L373 420 Z " />
<glyph glyph-name="uni2113" unicode="&#x2113;" horiz-adv-x="317" d="M15 200 L33 147 C38 150 49 159 64 169 L64 151 C64 41 100 -7 168 -7 C212 -7 247 3 280 24 L266 94 C241 80 217 74 197 74 C163 74 154 102 154 176 L154 234 C163 242 171 248 176 253 C253 325 302 390 302 472 C302 567 258 592 190 592 C101 592 64 518 64 407 L64 238 C41 220 21 204 15 200 L15 200 Z M154 427 C154 486 166 514 188 514 C211 514 220 491 220 452 C220 408 198 358 154 312 L154 427 Z " />
<glyph glyph-name="uni2116" unicode="&#x2116;" horiz-adv-x="718" d="M488 164 L680 164 L680 224 L488 224 L488 164 Z M582 265 C651 265 683 332 683 431 C683 546 650 588 585 588 C522 588 484 529 484 421 C484 313 517 265 582 265 L582 265 Z M584 328 C551 328 544 361 544 426 C544 485 550 523 584 523 C620 523 624 485 624 426 C624 366 617 328 584 328 L584 328 Z M54 0 L156 0 L154 361 L157 361 L345 0 L437 0 L437 583 L333 583 L334 231 L332 231 L142 583 L54 583 L54 0 Z " />
<glyph glyph-name="uni2117" unicode="&#x2117;" horiz-adv-x="492" d="M246 -9 C375 -9 459 109 459 289 C459 469 378 591 246 591 C118 591 33 469 33 289 C33 108 114 -9 246 -9 L246 -9 Z M246 25 C143 25 68 123 68 289 C68 451 141 557 246 557 C348 557 423 457 423 289 C423 126 353 25 246 25 L246 25 Z M165 99 L227 99 L227 213 L249 213 C330 213 364 269 364 343 C364 423 327 464 264 464 L165 464 L165 99 Z M247 405 C282 404 301 386 301 342 C301 285 276 273 242 273 L227 273 L227 405 L247 405 Z " />
<glyph glyph-name="servicemark" unicode="&#x2120;" horiz-adv-x="513" d="M206 291 L262 291 L273 471 L276 471 L310 291 L360 291 L396 470 L398 470 L409 291 L472 291 L453 583 L379 583 L341 401 L339 401 L303 583 L226 583 L206 291 Z M44 300 C65 289 85 285 109 285 C156 285 190 309 190 375 C190 431 148 451 124 466 C106 476 99 487 99 504 C99 525 112 534 129 534 C146 534 164 530 180 521 L180 575 C165 583 145 587 122 587 C76 587 42 556 42 498 C42 450 75 428 97 415 C118 402 134 392 134 368 C134 345 124 338 105 338 C82 338 57 348 44 355 L44 300 Z " />
<glyph glyph-name="trademark" unicode="&#x2122;" horiz-adv-x="534" d="M227 291 L283 291 L295 471 L297 471 L331 291 L381 291 L417 470 L419 470 L430 291 L493 291 L475 583 L399 583 L363 401 L359 401 L325 583 L247 583 L227 291 Z M47 530 L101 530 L101 291 L163 291 L163 530 L217 530 L217 583 L47 583 L47 530 Z " />
<glyph glyph-name="Omega" unicode="&#x2126;" horiz-adv-x="512" d="M253 592 C114 592 39 460 39 316 C39 204 86 128 130 90 L130 88 L39 88 L39 0 L222 0 L222 84 C177 134 150 194 150 302 C150 442 190 505 254 505 C318 505 361 442 361 302 C361 194 335 136 290 84 L290 0 L474 0 L474 88 L381 88 L381 90 C428 132 472 213 472 326 C472 473 395 592 253 592 L253 592 Z " />
<glyph glyph-name="estimated" unicode="&#x212e;" horiz-adv-x="475" d="M250 -8 C319 -8 388 17 432 86 L402 119 C364 64 312 43 251 43 C184 43 145 97 145 177 L145 207 L445 207 L445 265 C445 385 369 465 245 465 C110 465 31 357 31 217 C31 55 133 -8 250 -8 L250 -8 Z M145 257 L145 274 C145 363 177 422 244 422 C306 422 327 359 327 285 L327 257 L145 257 Z " />
<glyph glyph-name="onethird" unicode="&#x2153;" horiz-adv-x="474" d="M143 265 L143 579 L85 579 L21 553 L21 502 L68 515 L68 265 L143 265 Z M346 -4 C401 -4 447 21 447 91 C447 135 424 164 384 169 L384 171 C414 180 438 202 438 246 C438 293 403 316 357 316 C332 316 306 310 288 298 L288 245 C304 257 319 261 332 261 C351 261 365 251 365 226 C365 197 341 178 317 174 L317 138 C352 137 373 123 373 91 C373 63 358 49 336 49 C318 49 302 51 285 60 L285 5 C302 0 320 -4 346 -4 L346 -4 Z M135 0 L375 552 L375 557 L326 557 L86 5 L86 0 L135 0 Z " />
<glyph glyph-name="twothirds" unicode="&#x2154;" horiz-adv-x="488" d="M120 482 C120 424 80 375 29 312 L29 266 L201 266 L201 323 L102 323 L102 326 C154 373 196 433 196 493 C196 556 158 582 110 582 C84 582 56 577 33 563 L35 510 C54 524 71 527 85 527 C104 527 120 512 120 482 L120 482 Z M360 -4 C415 -4 461 21 461 91 C461 135 438 164 398 169 L398 171 C428 180 452 202 452 246 C452 293 417 316 371 316 C346 316 320 310 302 298 L302 245 C318 257 333 261 346 261 C365 261 379 251 379 226 C379 197 355 178 331 174 L331 138 C366 137 387 123 387 91 C387 63 372 49 350 49 C332 49 316 51 299 60 L299 5 C316 0 334 -4 360 -4 L360 -4 Z M155 0 L395 552 L395 557 L346 557 L106 5 L106 0 L155 0 Z " />
<glyph glyph-name="uni215B" unicode="&#x215b;" horiz-adv-x="497" d="M469 86 C469 129 445 149 418 164 C443 181 465 204 465 238 C465 287 431 316 371 316 C311 316 280 276 280 229 C280 191 299 169 322 153 C298 138 273 112 273 78 C273 23 312 -4 368 -4 C434 -4 469 35 469 86 L469 86 Z M130 0 L370 552 L370 557 L321 557 L81 5 L81 0 L130 0 Z M144 260 L144 574 L86 574 L22 548 L22 497 L69 510 L69 260 L144 260 Z M337 86 C337 108 343 124 351 136 C378 121 402 107 402 81 C402 49 387 42 370 42 C351 42 337 56 337 86 L337 86 Z M401 229 C401 211 395 195 385 180 C362 192 344 205 344 232 C344 257 354 266 371 266 C393 266 401 252 401 229 L401 229 Z " />
<glyph glyph-name="arrowleft" unicode="&#x2190;" horiz-adv-x="551" d="M260 91 L167 220 L551 220 L551 309 L168 309 L260 439 L163 439 L35 264 L163 91 L260 91 Z " />
<glyph glyph-name="arrowup" unicode="&#x2191;" horiz-adv-x="484" d="M415 440 L242 569 L67 441 L67 343 L197 436 L197 53 L286 53 L286 437 L415 343 L415 440 Z " />
<glyph glyph-name="arrowright" unicode="&#x2192;" horiz-adv-x="549" d="M387 91 L516 264 L388 439 L290 439 L383 309 L0 309 L0 220 L384 220 L290 91 L387 91 Z " />
<glyph glyph-name="arrowdown" unicode="&#x2193;" horiz-adv-x="484" d="M67 181 L241 53 L415 182 L415 278 L285 185 L285 569 L197 569 L197 185 L67 278 L67 181 Z " />
<glyph glyph-name="uni2196" unicode="&#x2196;" horiz-adv-x="484" d="M271 526 L58 494 L25 280 L94 211 L120 369 L391 98 L454 161 L182 432 L340 457 L271 526 Z " />
<glyph glyph-name="uni2197" unicode="&#x2197;" horiz-adv-x="484" d="M453 279 L420 493 L207 525 L138 457 L296 431 L24 160 L87 97 L358 368 L384 211 L453 279 Z " />
<glyph glyph-name="uni2198" unicode="&#x2198;" horiz-adv-x="484" d="M210 96 L424 128 L456 342 L387 411 L361 253 L90 525 L27 462 L298 191 L141 165 L210 96 Z " />
<glyph glyph-name="uni2199" unicode="&#x2199;" horiz-adv-x="484" d="M30 342 L62 129 L276 96 L345 165 L187 191 L458 462 L395 525 L124 253 L99 411 L30 342 Z " />
<glyph glyph-name="partialdiff" unicode="&#x2202;" horiz-adv-x="393" d="M193 464 C110 464 25 387 25 220 C25 62 91 -8 191 -8 C306 -8 361 96 361 246 C361 423 311 581 170 674 L120 624 C190 570 218 533 241 453 C229 461 212 464 193 464 L193 464 Z M258 227 C258 138 244 73 194 73 C144 73 128 125 128 227 C128 316 144 381 195 381 C216 381 233 377 253 364 C256 328 258 270 258 227 L258 227 Z " />
<glyph glyph-name="Delta" unicode="&#x2206;" horiz-adv-x="441" d="M421 0 L421 77 L285 583 L170 583 L20 76 L21 0 L421 0 Z M218 456 L223 456 L302 88 L128 88 L218 456 Z " />
<glyph glyph-name="product" unicode="&#x220f;" horiz-adv-x="518" d="M178 -207 L178 495 L339 495 L339 -207 L443 -207 L443 495 L497 495 L497 583 L22 583 L22 495 L73 495 L73 -207 L178 -207 Z " />
<glyph glyph-name="summation" unicode="&#x2211;" horiz-adv-x="347" d="M28 -207 L322 -207 L322 -118 L139 -118 L245 208 L143 495 L309 495 L309 583 L30 583 L30 503 L136 207 L28 -125 L28 -207 Z " />
<glyph glyph-name="minus" unicode="&#x2212;" horiz-adv-x="346" d="M44 260 L301 260 L301 332 L44 332 L44 260 Z " />
<glyph glyph-name="radical" unicode="&#x221a;" horiz-adv-x="414" d="M125 0 L235 0 L407 653 L302 653 L186 128 L181 128 L118 452 L16 452 L125 0 Z " />
<glyph glyph-name="infinity" unicode="&#x221e;" horiz-adv-x="627" d="M162 505 C83 505 35 408 35 293 C35 173 78 81 162 81 C231 81 281 151 314 232 C346 155 398 81 465 81 C549 81 593 178 593 293 C593 406 544 505 465 505 C399 505 348 437 314 357 C280 438 231 505 162 505 L162 505 Z M170 151 C131 151 107 208 107 293 C107 378 131 436 170 436 C214 436 253 356 279 294 C255 234 217 151 170 151 L170 151 Z M458 151 C411 151 375 235 350 294 C375 354 411 436 458 436 C497 436 521 378 521 293 C521 208 497 151 458 151 L458 151 Z " />
<glyph glyph-name="integral" unicode="&#x222b;" horiz-adv-x="313" d="M113 -17 C113 -97 100 -133 60 -133 C43 -133 31 -131 13 -128 L13 -207 C27 -211 54 -213 74 -213 C164 -213 204 -156 204 -43 L204 457 C204 540 216 576 256 576 C271 576 283 574 300 571 L300 655 C286 658 274 661 254 661 C165 661 113 604 113 491 L113 -17 Z " />
<glyph glyph-name="approxequal" unicode="&#x2248;" horiz-adv-x="409" d="M272 312 C315 312 349 350 367 382 L329 427 C312 401 296 385 270 385 C223 385 202 427 139 427 C97 427 58 393 41 365 L75 318 C93 338 112 354 142 354 C185 354 216 312 272 312 L272 312 Z M273 138 C316 138 350 176 368 208 L330 253 C313 227 297 211 271 211 C224 211 203 253 140 253 C98 253 59 219 42 191 L76 144 C94 164 113 180 143 180 C186 180 217 138 273 138 L273 138 Z " />
<glyph glyph-name="notequal" unicode="&#x2260;" horiz-adv-x="359" d="M41 351 L174 351 L129 240 L41 240 L41 171 L101 171 L42 24 L105 24 L165 171 L320 171 L320 240 L193 240 L238 351 L320 351 L320 420 L266 420 L326 566 L262 566 L202 420 L41 420 L41 351 Z " />
<glyph glyph-name="lessequal" unicode="&#x2264;" horiz-adv-x="372" d="M37 22 L333 22 L333 94 L37 94 L37 22 Z M325 124 L325 204 L127 329 L127 333 L325 458 L325 536 L38 355 L38 304 L325 124 Z " />
<glyph glyph-name="greaterequal" unicode="&#x2265;" horiz-adv-x="372" d="M335 94 L38 94 L38 22 L335 22 L335 94 Z M335 304 L335 355 L48 536 L48 455 L245 333 L245 329 L48 204 L48 124 L335 304 Z " />
<glyph glyph-name="uni2460" unicode="&#x2460;" horiz-adv-x="691" d="M345 0 C506 0 637 130 637 291 C637 452 506 583 345 583 C184 583 54 452 54 291 C54 130 184 0 345 0 L345 0 Z M345 36 C206 36 94 152 94 291 C94 430 206 547 345 547 C484 547 597 430 597 291 C597 152 484 36 345 36 L345 36 Z M388 139 L388 452 L340 452 L235 422 L235 369 L305 380 L305 139 L388 139 Z " />
<glyph glyph-name="uni2461" unicode="&#x2461;" horiz-adv-x="691" d="M345 0 C506 0 637 130 637 291 C637 452 506 583 345 583 C184 583 54 452 54 291 C54 130 184 0 345 0 L345 0 Z M345 36 C206 36 94 152 94 291 C94 430 206 547 345 547 C484 547 597 430 597 291 C597 152 484 36 345 36 L345 36 Z M229 139 L463 139 L463 199 L335 199 L335 202 C410 258 455 309 455 364 C455 428 400 454 339 454 C303 454 261 445 235 424 L235 366 C270 391 301 396 327 396 C354 396 377 383 377 355 C377 300 308 248 229 185 L229 139 Z " />
<glyph glyph-name="uni2462" unicode="&#x2462;" horiz-adv-x="691" d="M345 0 C506 0 637 130 637 291 C637 452 506 583 345 583 C184 583 54 452 54 291 C54 130 184 0 345 0 L345 0 Z M345 36 C206 36 94 152 94 291 C94 430 206 547 345 547 C484 547 597 430 597 291 C597 152 484 36 345 36 L345 36 Z M331 135 C402 135 462 166 462 233 C462 270 437 303 390 308 L390 310 C418 317 449 340 449 380 C449 428 401 454 341 454 C305 454 271 444 247 425 L247 367 C277 389 306 394 328 394 C354 394 372 384 372 362 C372 335 339 317 296 314 L296 272 C359 270 387 259 387 229 C387 206 367 191 334 191 C306 191 277 194 244 210 L244 150 C263 142 290 135 331 135 L331 135 Z " />
<glyph glyph-name="uni2463" unicode="&#x2463;" horiz-adv-x="691" d="M345 0 C506 0 637 130 637 291 C637 452 506 583 345 583 C184 583 54 452 54 291 C54 130 184 0 345 0 L345 0 Z M345 36 C206 36 94 152 94 291 C94 430 206 547 345 547 C484 547 597 430 597 291 C597 152 484 36 345 36 L345 36 Z M329 139 L409 139 L409 211 L452 211 L452 264 L409 264 L409 452 L334 452 L190 262 L190 211 L329 211 L329 139 Z M254 264 L329 365 L329 264 L254 264 Z " />
<glyph glyph-name="uni2464" unicode="&#x2464;" horiz-adv-x="691" d="M345 0 C506 0 637 130 637 291 C637 452 506 583 345 583 C184 583 54 452 54 291 C54 130 184 0 345 0 L345 0 Z M345 36 C206 36 94 152 94 291 C94 430 206 547 345 547 C484 547 597 430 597 291 C597 152 484 36 345 36 L345 36 Z M323 135 C379 135 453 162 453 238 C453 305 403 335 323 335 L309 335 L315 393 L446 393 L446 449 L260 449 L245 280 C260 282 278 284 294 284 C352 284 378 268 378 236 C378 209 355 190 323 190 C296 190 267 195 235 210 L235 150 C259 142 287 135 323 135 L323 135 Z " />
<glyph glyph-name="uni2465" unicode="&#x2465;" horiz-adv-x="691" d="M345 0 C506 0 637 130 637 291 C637 452 506 583 345 583 C184 583 54 452 54 291 C54 130 184 0 345 0 L345 0 Z M345 36 C206 36 94 152 94 291 C94 430 206 547 345 547 C484 547 597 430 597 291 C597 152 484 36 345 36 L345 36 Z M366 399 C387 399 408 396 437 382 L437 442 C413 450 384 454 363 454 C264 454 206 374 206 273 C206 191 246 135 330 135 C411 135 459 187 459 248 C459 312 414 341 355 341 C326 341 304 334 288 326 C296 375 319 399 366 399 L366 399 Z M333 291 C365 291 381 275 381 242 C381 209 365 188 333 188 C296 188 284 217 284 269 L284 280 C297 286 312 291 333 291 L333 291 Z " />
<glyph glyph-name="uni2466" unicode="&#x2466;" horiz-adv-x="691" d="M345 0 C506 0 637 130 637 291 C637 452 506 583 345 583 C184 583 54 452 54 291 C54 130 184 0 345 0 L345 0 Z M345 36 C206 36 94 152 94 291 C94 430 206 547 345 547 C484 547 597 430 597 291 C597 152 484 36 345 36 L345 36 Z M326 136 L458 409 L458 446 L235 446 L235 390 L382 390 L254 139 L255 136 L326 136 Z " />
<glyph glyph-name="uni2467" unicode="&#x2467;" horiz-adv-x="691" d="M345 0 C506 0 637 130 637 291 C637 452 506 583 345 583 C184 583 54 452 54 291 C54 130 184 0 345 0 L345 0 Z M345 36 C206 36 94 152 94 291 C94 430 206 547 345 547 C484 547 597 430 597 291 C597 152 484 36 345 36 L345 36 Z M467 223 C467 259 442 280 411 296 C440 314 460 342 460 374 C460 426 406 451 340 451 C275 451 223 413 223 364 C223 332 241 309 266 293 C235 275 214 245 214 216 C214 162 259 132 336 132 C404 132 467 170 467 223 L467 223 Z M389 363 C389 348 382 330 367 314 C330 328 297 341 297 367 C297 390 315 397 340 397 C374 397 389 383 389 363 L389 363 Z M286 225 C286 245 291 257 304 272 C346 252 389 241 389 216 C389 190 364 182 339 182 C310 182 286 195 286 225 L286 225 Z " />
<glyph glyph-name="uni2468" unicode="&#x2468;" horiz-adv-x="691" d="M345 0 C506 0 637 130 637 291 C637 452 506 583 345 583 C184 583 54 452 54 291 C54 130 184 0 345 0 L345 0 Z M345 36 C206 36 94 152 94 291 C94 430 206 547 345 547 C484 547 597 430 597 291 C597 152 484 36 345 36 L345 36 Z M312 186 C291 186 269 190 240 204 L240 145 C265 135 294 132 315 132 C415 132 472 210 472 313 C472 396 432 451 348 451 C267 451 220 399 220 338 C220 272 266 244 323 244 C351 244 373 251 390 259 C382 210 358 186 312 186 L312 186 Z M345 294 C313 294 296 310 296 345 C296 382 314 398 344 398 C381 398 394 369 395 316 L395 305 C382 299 366 294 345 294 L345 294 Z " />
<glyph glyph-name="uni2469" unicode="&#x2469;" horiz-adv-x="691" d="M345 0 C506 0 637 130 637 291 C637 452 506 583 345 583 C184 583 54 452 54 291 C54 130 184 0 345 0 L345 0 Z M345 36 C206 36 94 152 94 291 C94 430 206 547 345 547 C484 547 597 430 597 291 C597 152 484 36 345 36 L345 36 Z M280 142 L280 444 L238 444 L141 415 L141 365 L207 376 L207 142 L280 142 Z M432 138 C510 138 556 195 556 293 C556 376 526 445 437 445 C357 445 313 385 313 284 C313 194 350 138 432 138 L432 138 Z M435 190 C391 190 384 238 384 288 C384 338 390 392 432 392 C476 392 484 336 484 291 C484 241 481 190 435 190 L435 190 Z " />
<glyph glyph-name="uni24CA" unicode="&#x24ca;" horiz-adv-x="492" d="M246 -10 C375 -10 459 109 459 289 C459 469 378 591 246 591 C118 591 33 469 33 289 C33 108 114 -10 246 -10 L246 -10 Z M249 99 C308 99 354 144 354 250 L354 439 L297 439 L297 257 C297 188 280 161 249 161 C216 161 199 184 199 252 L199 439 L142 439 L142 238 C142 139 188 99 249 99 L249 99 Z M246 24 C143 24 68 123 68 289 C68 451 141 557 246 557 C348 557 423 457 423 289 C423 126 353 24 246 24 L246 24 Z " />
<glyph glyph-name="uni25B2" unicode="&#x25b2;" horiz-adv-x="590" d="M563 21 L295 449 L27 21 L563 21 Z " />
<glyph glyph-name="uni25B6" unicode="&#x25b6;" horiz-adv-x="538" d="M84 -33 L512 235 L84 503 L84 -33 Z " />
<glyph glyph-name="uni25B8" unicode="&#x25b8;" horiz-adv-x="378" d="M352 218 L85 486 L85 -50 L352 218 Z " />
<glyph glyph-name="uni25BA" unicode="&#x25ba;" horiz-adv-x="838" d="M806 218 L84 486 L84 -50 L806 218 Z " />
<glyph glyph-name="uni25BC" unicode="&#x25bc;" horiz-adv-x="610" d="M37 448 L305 20 L573 448 L37 448 Z " />
<glyph glyph-name="uni25C0" unicode="&#x25c0;" horiz-adv-x="538" d="M454 -33 L454 503 L26 235 L454 -33 Z " />
<glyph glyph-name="uni25C2" unicode="&#x25c2;" horiz-adv-x="379" d="M294 -50 L294 486 L27 219 L294 -50 Z " />
<glyph glyph-name="uni25C4" unicode="&#x25c4;" horiz-adv-x="838" d="M754 -50 L754 486 L32 218 L754 -50 Z " />
<glyph glyph-name="lozenge" unicode="&#x25ca;" horiz-adv-x="372" d="M141 0 L233 0 L352 286 L234 583 L142 583 L18 286 L141 0 Z M188 84 L110 288 L186 494 L262 285 L188 84 Z " />
<glyph glyph-name="uni2610" unicode="&#x2610;" horiz-adv-x="753" d="M85 0 L668 0 L668 583 L85 583 L85 0 Z M156 68 L156 512 L597 512 L597 68 L156 68 Z " />
<glyph glyph-name="uni2611" unicode="&#x2611;" horiz-adv-x="753" d="M85 0 L668 0 L668 583 L85 583 L85 0 Z M156 68 L156 512 L597 512 L597 68 L156 68 Z M262 93 L281 93 C399 219 497 366 570 475 L563 483 C534 480 488 461 476 444 C427 367 339 228 293 172 C270 222 267 286 266 321 L245 327 C232 324 202 295 193 283 C189 260 226 121 262 93 L262 93 Z " />
<glyph glyph-name="uni261A" unicode="&#x261a;" horiz-adv-x="973" d="M44 453 C27 391 81 386 81 386 L287 400 L342 365 C342 365 266 272 262 246 C262 246 278 200 315 186 C315 186 325 129 367 126 C367 126 376 88 422 74 L498 101 C498 101 574 88 718 140 L907 126 L907 365 L730 401 C730 401 680 443 617 459 L315 509 L44 453 Z " />
<glyph glyph-name="uni261B" unicode="&#x261b;" horiz-adv-x="973" d="M658 509 L356 459 C293 443 243 401 243 401 L66 365 L66 126 L255 140 C399 88 475 101 475 101 L551 74 C597 88 606 126 606 126 C648 129 658 186 658 186 C695 200 711 246 711 246 C707 272 631 365 631 365 L686 400 L892 386 C892 386 946 391 929 453 L658 509 Z " />
<glyph glyph-name="uni261C" unicode="&#x261c;" horiz-adv-x="973" d="M44 453 C27 391 81 386 81 386 L287 400 L342 365 C342 365 266 272 262 246 C262 246 278 200 315 186 C315 186 325 129 367 126 C367 126 376 88 422 74 L498 101 C498 101 574 88 718 140 L907 126 L907 365 L730 401 C730 401 680 443 617 459 L315 509 L44 453 Z M668 186 C596 157 493 154 493 154 L424 127 C400 129 396 157 396 157 L447 196 L511 215 L492 255 L428 231 L374 184 C360 186 356 208 356 208 L423 269 L473 291 L456 326 L404 300 L339 232 C328 231 317 249 317 249 L370 318 L422 369 L311 426 L125 418 C125 418 105 428 115 442 L314 467 L597 414 C642 398 690 360 690 360 L852 326 L852 178 L668 186 Z " />
<glyph glyph-name="uni261D" unicode="&#x261d;" horiz-adv-x="510" d="M45 473 L95 171 C111 108 153 58 153 58 L189 -119 L428 -119 L414 70 C466 214 453 290 453 290 L480 366 C466 412 428 421 428 421 C425 463 368 473 368 473 C354 510 308 526 308 526 C282 522 189 446 189 446 L154 501 L168 707 C168 707 163 761 101 744 L45 473 Z M376 -64 L228 -64 L194 98 C194 98 156 146 140 191 L87 474 L112 673 C126 683 136 663 136 663 L128 477 L185 366 L236 418 L305 471 C305 471 323 460 322 449 L254 384 L228 332 L263 315 L285 365 L346 432 C346 432 368 428 370 414 L323 360 L299 296 L339 277 L358 341 L397 392 C397 392 425 388 427 364 L400 295 C400 295 397 192 368 120 L376 -64 Z " />
<glyph glyph-name="uni261E" unicode="&#x261e;" horiz-adv-x="973" d="M658 509 L356 459 C293 443 243 401 243 401 L66 365 L66 126 L255 140 C399 88 475 101 475 101 L551 74 C597 88 606 126 606 126 C648 129 658 186 658 186 C695 200 711 246 711 246 C707 272 631 365 631 365 L686 400 L892 386 C892 386 946 391 929 453 L658 509 Z M121 178 L121 326 L283 360 C283 360 331 398 376 414 L659 467 L858 442 C868 428 848 418 848 418 L662 426 L551 369 L603 318 L656 249 C656 249 645 231 634 232 L569 300 L517 326 L500 291 L550 269 L617 208 C617 208 613 186 599 184 L545 231 L481 255 L462 215 L526 196 L577 157 C577 157 573 129 549 127 L480 154 C480 154 377 157 305 186 L121 178 Z " />
<glyph glyph-name="uni261F" unicode="&#x261f;" horiz-adv-x="509" d="M465 169 L415 471 C399 534 357 584 357 584 L321 761 L82 761 L96 572 C44 428 57 352 57 352 L30 276 C44 230 82 221 82 221 C85 179 142 169 142 169 C156 132 202 116 202 116 C228 120 321 196 321 196 L356 141 L342 -65 C342 -65 347 -119 409 -102 L465 169 Z M134 706 L282 706 L316 544 C316 544 354 496 370 451 L423 168 L398 -31 C384 -41 374 -21 374 -21 L382 165 L325 276 L274 224 L205 171 C205 171 187 182 188 193 L256 258 L282 310 L247 327 L225 277 L164 210 C164 210 142 214 140 228 L187 282 L211 346 L171 365 L152 301 L113 250 C113 250 85 254 83 278 L110 347 C110 347 113 450 142 522 L134 706 Z " />
<glyph glyph-name="uni267E" unicode="&#x267e;" horiz-adv-x="492" d="M246 -10 C375 -10 459 109 459 289 C459 469 378 591 246 591 C118 591 33 469 33 289 C33 108 114 -10 246 -10 L246 -10 Z M246 24 C143 24 68 123 68 289 C68 451 141 557 246 557 C348 557 423 457 423 289 C423 126 353 24 246 24 L246 24 Z M181 407 C144 407 121 351 121 289 C121 227 140 171 181 171 C209 171 231 208 247 249 C264 207 285 171 315 171 C355 171 374 229 374 289 C374 350 353 407 315 407 C286 407 264 370 247 330 C230 371 210 407 181 407 L181 407 Z M183 220 C165 220 159 252 159 289 C159 326 165 358 183 358 C202 358 218 324 231 289 C218 255 201 220 183 220 L183 220 Z M312 220 C294 220 277 255 264 289 C277 324 293 358 312 358 C329 358 336 326 336 289 C336 252 329 220 312 220 L312 220 Z " />
<glyph glyph-name="uni2713" unicode="&#x2713;" horiz-adv-x="457" d="M114 93 L133 93 C251 219 349 366 422 475 L415 483 C386 480 340 461 328 444 C279 367 191 228 145 172 C122 222 119 286 118 321 L97 327 C84 324 54 295 45 283 C41 260 78 121 114 93 L114 93 Z " />
<glyph glyph-name="uni2776" unicode="&#x2776;" horiz-adv-x="691" d="M345 0 C506 0 637 130 637 291 C637 452 506 583 345 583 C184 583 54 452 54 291 C54 130 184 0 345 0 L345 0 Z M305 139 L305 380 L235 369 L235 422 L340 452 L388 452 L388 139 L305 139 Z " />
<glyph glyph-name="uni2777" unicode="&#x2777;" horiz-adv-x="691" d="M345 0 C506 0 637 130 637 291 C637 452 506 583 345 583 C184 583 54 452 54 291 C54 130 184 0 345 0 L345 0 Z M229 185 C308 248 377 300 377 355 C377 383 354 396 327 396 C301 396 270 391 235 366 L235 424 C261 445 303 454 339 454 C400 454 455 428 455 364 C455 310 410 258 336 203 C336 202 335 200 335 199 L463 199 L463 139 L229 139 L229 185 Z " />
<glyph glyph-name="uni2778" unicode="&#x2778;" horiz-adv-x="691" d="M345 0 C506 0 637 130 637 291 C637 452 506 583 345 583 C184 583 54 452 54 291 C54 130 184 0 345 0 L345 0 Z M331 135 C290 135 263 142 244 150 L244 210 C277 194 306 191 334 191 C367 191 387 206 387 229 C387 259 359 270 296 272 L296 314 C339 317 372 335 372 362 C372 384 354 394 328 394 C306 394 277 389 247 367 L247 425 C271 444 305 454 341 454 C401 454 449 428 449 380 C449 340 418 317 390 310 L390 308 C437 303 462 270 462 233 C462 166 402 135 331 135 L331 135 Z " />
<glyph glyph-name="uni2779" unicode="&#x2779;" horiz-adv-x="691" d="M345 0 C506 0 637 130 637 291 C637 452 506 583 345 583 C184 583 54 452 54 291 C54 130 184 0 345 0 L345 0 Z M329 211 L190 211 L190 262 L334 452 L409 452 L409 264 L452 264 L452 211 L409 211 L409 139 L329 139 L329 211 Z M329 264 L329 365 L254 264 L329 264 Z " />
<glyph glyph-name="uni277A" unicode="&#x277a;" horiz-adv-x="691" d="M345 0 C506 0 637 130 637 291 C637 452 506 583 345 583 C184 583 54 452 54 291 C54 130 184 0 345 0 L345 0 Z M323 135 C287 135 259 142 235 150 L235 210 C267 195 296 190 323 190 C355 190 378 209 378 236 C378 268 352 284 294 284 C278 284 260 282 245 280 L260 449 L446 449 L446 393 L315 393 L309 335 L323 335 C403 335 453 305 453 238 C453 162 379 135 323 135 L323 135 Z " />
<glyph glyph-name="uni277B" unicode="&#x277b;" horiz-adv-x="691" d="M345 0 C506 0 637 130 637 291 C637 452 506 583 345 583 C184 583 54 452 54 291 C54 130 184 0 345 0 L345 0 Z M366 399 C319 399 296 375 288 326 C304 334 326 341 355 341 C414 341 459 312 459 248 C459 187 411 135 330 135 C246 135 206 191 206 273 C206 374 264 454 363 454 C384 454 413 450 437 442 L437 382 C408 396 387 399 366 399 L366 399 Z M333 291 C312 291 297 286 284 280 L284 270 C284 217 296 188 333 188 C365 188 381 209 381 242 C381 275 365 291 333 291 L333 291 Z " />
<glyph glyph-name="uni277C" unicode="&#x277c;" horiz-adv-x="691" d="M345 0 C506 0 637 130 637 291 C637 452 506 583 345 583 C184 583 54 452 54 291 C54 130 184 0 345 0 L345 0 Z M255 136 L254 139 L382 390 L235 390 L235 446 L458 446 L458 409 L326 136 L255 136 Z " />
<glyph glyph-name="uni277D" unicode="&#x277d;" horiz-adv-x="691" d="M345 0 C506 0 637 130 637 291 C637 452 506 583 345 583 C184 583 54 452 54 291 C54 130 184 0 345 0 L345 0 Z M467 223 C467 170 404 132 336 132 C259 132 214 162 214 216 C214 245 235 275 266 293 C241 309 223 332 223 364 C223 413 275 451 340 451 C406 451 460 426 460 374 C460 342 440 314 411 296 C442 280 467 259 467 223 L467 223 Z M389 363 C389 383 374 397 340 397 C315 397 297 390 297 367 C297 341 330 328 367 314 C382 330 389 348 389 363 L389 363 Z M286 225 C286 195 310 182 339 182 C364 182 389 190 389 216 C389 241 346 252 304 272 C291 257 286 245 286 225 L286 225 Z " />
<glyph glyph-name="uni277E" unicode="&#x277e;" horiz-adv-x="691" d="M345 0 C506 0 637 130 637 291 C637 452 506 583 345 583 C184 583 54 452 54 291 C54 130 184 0 345 0 L345 0 Z M312 186 C358 186 382 210 390 259 C373 251 351 244 323 244 C266 244 220 272 220 338 C220 399 267 451 348 451 C432 451 472 396 472 313 C472 210 415 132 315 132 C294 132 265 135 240 145 L240 204 C269 190 291 186 312 186 L312 186 Z M345 294 C366 294 382 299 395 305 L395 316 C395 369 382 398 344 398 C314 398 296 382 296 345 C296 310 313 294 345 294 L345 294 Z " />
<glyph glyph-name="uni277F" unicode="&#x277f;" horiz-adv-x="691" d="M345 0 C506 0 637 130 637 291 C637 452 506 583 345 583 C184 583 54 452 54 291 C54 130 184 0 345 0 L345 0 Z M207 142 L207 376 L141 365 L141 415 L238 444 L280 444 L280 142 L207 142 Z M432 138 C350 138 313 194 313 284 C313 385 357 445 437 445 C526 445 556 376 556 293 C556 195 510 138 432 138 L432 138 Z M435 190 C481 190 484 241 484 291 C484 336 476 392 432 392 C390 392 384 338 384 288 C384 238 391 190 435 190 L435 190 Z " />
<glyph glyph-name="uni2780" unicode="&#x2780;" horiz-adv-x="691" d="M345 0 C506 0 637 130 637 291 C637 452 506 583 345 583 C184 583 54 452 54 291 C54 130 184 0 345 0 L345 0 Z M345 36 C206 36 94 152 94 291 C94 430 206 547 345 547 C484 547 597 430 597 291 C597 152 484 36 345 36 L345 36 Z M392 141 L392 445 L347 445 L245 416 L245 366 L314 376 L314 141 L392 141 Z " />
<glyph glyph-name="uni2781" unicode="&#x2781;" horiz-adv-x="691" d="M345 0 C506 0 637 130 637 291 C637 452 506 583 345 583 C184 583 54 452 54 291 C54 130 184 0 345 0 L345 0 Z M345 36 C206 36 94 152 94 291 C94 430 206 547 345 547 C484 547 597 430 597 291 C597 152 484 36 345 36 L345 36 Z M232 141 L459 141 L459 198 L333 198 C334 199 335 200 335 201 C407 255 452 307 452 360 C452 421 398 447 339 447 C304 447 264 438 238 418 L238 362 C272 387 303 392 328 392 C354 392 377 379 377 351 C377 298 310 246 232 184 L232 141 Z " />
<glyph glyph-name="uni2782" unicode="&#x2782;" horiz-adv-x="691" d="M345 0 C506 0 637 130 637 291 C637 452 506 583 345 583 C184 583 54 452 54 291 C54 130 184 0 345 0 L345 0 Z M345 36 C206 36 94 152 94 291 C94 430 206 547 345 547 C484 547 597 430 597 291 C597 152 484 36 345 36 L345 36 Z M331 136 C401 136 459 166 459 232 C459 268 434 299 389 304 L389 307 C415 313 445 336 445 375 C445 421 400 447 342 447 C307 447 274 437 251 418 L251 362 C280 384 308 390 329 390 C354 390 373 379 373 358 C373 331 340 313 298 310 L298 270 C359 268 386 257 386 228 C386 205 367 190 335 190 C307 190 280 193 248 209 L248 152 C266 143 291 136 331 136 L331 136 Z " />
<glyph glyph-name="uni2783" unicode="&#x2783;" horiz-adv-x="691" d="M345 0 C506 0 637 130 637 291 C637 452 506 583 345 583 C184 583 54 452 54 291 C54 130 184 0 345 0 L345 0 Z M345 36 C206 36 94 152 94 291 C94 430 206 547 345 547 C484 547 597 430 597 291 C597 152 484 36 345 36 L345 36 Z M329 142 L406 142 L406 212 L448 212 L448 263 L406 263 L406 446 L334 446 L194 261 L194 212 L329 212 L329 142 Z M256 263 L329 362 L329 263 L256 263 Z " />
<glyph glyph-name="uni2784" unicode="&#x2784;" horiz-adv-x="691" d="M345 0 C506 0 637 130 637 291 C637 452 506 583 345 583 C184 583 54 452 54 291 C54 130 184 0 345 0 L345 0 Z M345 36 C206 36 94 152 94 291 C94 430 206 547 345 547 C484 547 597 430 597 291 C597 152 484 36 345 36 L345 36 Z M325 137 C380 137 451 163 451 237 C451 302 403 332 325 332 C323 332 314 332 312 331 L318 388 L444 388 L444 442 L265 442 L250 278 C265 281 282 282 297 282 C354 282 379 267 379 235 C379 208 357 190 325 190 C300 190 271 195 241 209 L241 152 C263 143 290 137 325 137 L325 137 Z " />
<glyph glyph-name="uni2785" unicode="&#x2785;" horiz-adv-x="691" d="M345 0 C506 0 637 130 637 291 C637 452 506 583 345 583 C184 583 54 452 54 291 C54 130 184 0 345 0 L345 0 Z M345 36 C206 36 94 152 94 291 C94 430 206 547 345 547 C484 547 597 430 597 291 C597 152 484 36 345 36 L345 36 Z M367 394 C387 394 407 391 436 378 L436 435 C412 443 384 447 364 447 C268 447 212 369 212 271 C212 191 251 137 332 137 C410 137 457 188 457 247 C457 309 413 337 356 337 C327 337 306 330 290 322 C299 371 320 394 367 394 L367 394 Z M335 289 C367 289 382 272 382 240 C382 209 366 188 335 188 C298 188 287 217 286 267 L286 278 C299 284 314 289 335 289 L335 289 Z " />
<glyph glyph-name="uni2786" unicode="&#x2786;" horiz-adv-x="691" d="M345 0 C506 0 637 130 637 291 C637 452 506 583 345 583 C184 583 54 452 54 291 C54 130 184 0 345 0 L345 0 Z M345 36 C206 36 94 152 94 291 C94 430 206 547 345 547 C484 547 597 430 597 291 C597 152 484 36 345 36 L345 36 Z M328 140 L457 405 L457 442 L241 442 L241 388 L384 388 L259 143 L260 140 L328 140 Z " />
<glyph glyph-name="uni2787" unicode="&#x2787;" horiz-adv-x="691" d="M345 0 C506 0 637 130 637 291 C637 452 506 583 345 583 C184 583 54 452 54 291 C54 130 184 0 345 0 L345 0 Z M345 36 C206 36 94 152 94 291 C94 430 206 547 345 547 C484 547 597 430 597 291 C597 152 484 36 345 36 L345 36 Z M464 225 C464 260 439 280 410 295 C437 313 457 341 457 371 C457 422 405 447 341 447 C279 447 229 410 229 362 C229 331 246 309 270 293 C240 275 220 246 220 218 C220 166 263 137 337 137 C403 137 464 174 464 225 L464 225 Z M389 361 C389 346 382 328 367 313 C331 327 298 339 298 365 C298 388 316 395 341 395 C374 395 389 381 389 361 L389 361 Z M288 227 C288 246 293 258 306 273 C347 254 389 243 389 218 C389 193 365 185 341 185 C312 185 288 197 288 227 L288 227 Z " />
<glyph glyph-name="uni2788" unicode="&#x2788;" horiz-adv-x="691" d="M345 0 C506 0 637 130 637 291 C637 452 506 583 345 583 C184 583 54 452 54 291 C54 130 184 0 345 0 L345 0 Z M345 36 C206 36 94 152 94 291 C94 430 206 547 345 547 C484 547 597 430 597 291 C597 152 484 36 345 36 L345 36 Z M314 189 C293 189 272 192 244 206 L244 149 C268 140 295 137 316 137 C413 137 468 212 468 313 C468 392 429 447 348 447 C270 447 224 396 224 336 C224 273 269 246 324 246 C351 246 373 252 390 260 C382 212 358 189 314 189 L314 189 Z M345 293 C313 293 297 309 297 343 C297 380 314 396 344 396 C381 396 394 367 394 316 L394 305 C381 298 365 293 345 293 L345 293 Z " />
<glyph glyph-name="uni278A" unicode="&#x278a;" horiz-adv-x="691" d="M345 0 C506 0 637 130 637 291 C637 452 506 583 345 583 C184 583 54 452 54 291 C54 130 184 0 345 0 L345 0 Z M305 142 L305 377 L236 367 L236 417 L338 446 L383 446 L383 142 L305 142 Z " />
<glyph glyph-name="uni278B" unicode="&#x278b;" horiz-adv-x="691" d="M345 0 C506 0 637 130 637 291 C637 452 506 583 345 583 C184 583 54 452 54 291 C54 130 184 0 345 0 L345 0 Z M232 184 C310 246 377 297 377 350 C377 378 354 391 328 391 C303 391 272 386 238 361 L238 417 C264 437 304 446 339 446 C398 446 452 421 452 359 C452 306 408 256 337 202 C336 201 335 198 334 198 L459 198 L459 140 L232 140 L232 184 Z " />
<glyph glyph-name="uni278C" unicode="&#x278c;" horiz-adv-x="691" d="M345 0 C506 0 637 130 637 291 C637 452 506 583 345 583 C184 583 54 452 54 291 C54 130 184 0 345 0 L345 0 Z M331 136 C291 136 266 143 248 152 L248 209 C280 193 307 190 335 190 C367 190 386 205 386 228 C386 257 359 268 298 270 L298 310 C340 313 373 331 373 358 C373 379 354 390 329 390 C308 390 280 384 251 362 L251 418 C274 437 307 447 342 447 C400 447 445 421 445 375 C445 336 415 313 389 307 L389 304 C434 299 459 268 459 232 C459 166 401 136 331 136 L331 136 Z " />
<glyph glyph-name="uni278D" unicode="&#x278d;" horiz-adv-x="691" d="M345 0 C506 0 637 130 637 291 C637 452 506 583 345 583 C184 583 54 452 54 291 C54 130 184 0 345 0 L345 0 Z M329 211 L194 211 L194 261 L334 445 L406 445 L406 262 L448 262 L448 211 L406 211 L406 141 L329 141 L329 211 Z M329 262 L329 361 L256 262 L329 262 Z " />
<glyph glyph-name="uni278E" unicode="&#x278e;" horiz-adv-x="691" d="M345 0 C506 0 637 130 637 291 C637 452 506 583 345 583 C184 583 54 452 54 291 C54 130 184 0 345 0 L345 0 Z M326 137 C291 137 263 144 241 152 L241 209 C271 195 300 190 326 190 C358 190 380 208 380 235 C380 267 354 282 297 282 C282 282 265 281 250 279 L265 443 L445 443 L445 389 L318 389 L312 332 L325 332 C403 332 452 302 452 237 C452 164 380 137 326 137 L326 137 Z " />
<glyph glyph-name="uni278F" unicode="&#x278f;" horiz-adv-x="691" d="M345 0 C506 0 637 130 637 291 C637 452 506 583 345 583 C184 583 54 452 54 291 C54 130 184 0 345 0 L345 0 Z M367 394 C320 394 299 370 290 322 C306 329 327 337 356 337 C413 337 457 308 457 247 C457 187 410 136 332 136 C251 136 212 191 212 270 C212 368 268 447 364 447 C384 447 412 443 436 434 L436 377 C407 391 387 394 367 394 L367 394 Z M335 289 C314 289 299 284 286 277 L286 268 C287 216 298 187 335 187 C366 187 382 208 382 240 C382 272 367 289 335 289 L335 289 Z " />
<glyph glyph-name="uni2790" unicode="&#x2790;" horiz-adv-x="691" d="M345 0 C506 0 637 130 637 291 C637 452 506 583 345 583 C184 583 54 452 54 291 C54 130 184 0 345 0 L345 0 Z M259 141 L258 144 L383 388 L240 388 L240 442 L455 442 L455 406 L327 141 L259 141 Z " />
<glyph glyph-name="uni2791" unicode="&#x2791;" horiz-adv-x="691" d="M345 0 C506 0 637 130 637 291 C637 452 506 583 345 583 C184 583 54 452 54 291 C54 130 184 0 345 0 L345 0 Z M463 225 C463 174 402 137 336 137 C262 137 219 166 219 218 C219 246 239 275 269 293 C245 309 228 331 228 362 C228 410 278 447 341 447 C404 447 456 422 456 371 C456 341 437 313 409 295 C438 280 463 260 463 225 L463 225 Z M388 361 C388 381 374 395 340 395 C315 395 298 388 298 365 C298 339 331 327 366 313 C381 328 388 346 388 361 L388 361 Z M287 227 C287 197 312 185 340 185 C364 185 389 193 389 218 C389 243 346 254 305 273 C292 258 287 246 287 227 L287 227 Z " />
<glyph glyph-name="uni2792" unicode="&#x2792;" horiz-adv-x="691" d="M345 0 C506 0 637 130 637 291 C637 452 506 583 345 583 C184 583 54 452 54 291 C54 130 184 0 345 0 L345 0 Z M314 189 C358 189 382 212 390 260 C373 252 352 246 324 246 C270 246 224 273 224 336 C224 396 270 447 348 447 C429 447 468 392 468 313 C468 212 413 137 317 137 C295 137 268 140 244 149 L244 206 C273 192 293 189 314 189 L314 189 Z M346 293 C366 293 382 298 394 305 L394 315 C394 367 381 396 345 396 C314 396 297 380 297 343 C297 309 314 293 346 293 L346 293 Z " />
<glyph glyph-name="uni301A" unicode="&#x301a;" horiz-adv-x="331" d="M50 -181 L303 -181 L303 -112 L253 -112 L253 609 L303 609 L303 679 L50 679 L50 -181 Z M132 609 L171 609 L171 -112 L132 -112 L132 609 Z " />
<glyph glyph-name="uni301B" unicode="&#x301b;" horiz-adv-x="331" d="M281 679 L28 679 L28 609 L77 609 L77 -112 L28 -112 L28 -181 L281 -181 L281 679 Z M199 609 L199 -112 L159 -112 L159 609 L199 609 Z " />
<glyph glyph-name="apple" unicode="&#xf8ff;" horiz-adv-x="1241" d="M390 318 L401 318 L401 328 L411 328 L411 338 L421 338 L421 347 L431 347 L431 388 L420 388 L420 348 L401 348 L401 388 L390 388 L390 347 L400 347 L400 329 L390 329 L390 318 Z M350 338 L371 338 L371 348 L351 348 L351 377 L371 377 L371 388 L351 388 L351 398 L340 398 L340 388 L330 388 L330 377 L340 377 L340 347 L350 347 L350 338 Z M590 338 L611 338 L611 348 L591 348 L591 377 L611 377 L611 388 L591 388 L591 398 L580 398 L580 388 L570 388 L570 377 L580 377 L580 347 L590 347 L590 338 Z M700 338 L731 338 L731 348 L701 348 L701 357 L731 357 L731 378 L721 378 L721 388 L700 388 L700 378 L690 378 L690 347 L700 347 L700 338 Z M880 338 L911 338 L911 348 L881 348 L881 357 L911 357 L911 378 L901 378 L901 388 L880 388 L880 378 L870 378 L870 347 L880 347 L880 338 Z M110 347 L121 347 L121 357 L131 357 L131 368 L121 368 L121 378 L110 378 L110 368 L100 368 L100 357 L110 357 L110 347 Z M180 347 L191 347 L191 357 L201 357 L201 368 L191 368 L191 378 L180 378 L180 368 L170 368 L170 357 L180 357 L180 347 Z M270 347 L281 347 L281 357 L291 357 L291 368 L281 368 L281 378 L270 378 L270 368 L260 368 L260 357 L270 357 L270 347 Z M520 338 L541 338 L541 347 L551 347 L551 378 L541 378 L541 388 L520 388 L520 378 L510 378 L510 347 L520 347 L520 338 Z M630 338 L641 338 L641 377 L660 377 L660 338 L671 338 L671 378 L661 378 L661 388 L641 388 L641 408 L630 408 L630 338 Z M960 347 L971 347 L971 357 L981 357 L981 368 L971 368 L971 378 L960 378 L960 368 L950 368 L950 357 L960 357 L960 347 Z M1050 347 L1061 347 L1061 357 L1071 357 L1071 368 L1061 368 L1061 378 L1050 378 L1050 368 L1040 368 L1040 357 L1050 357 L1050 347 Z M1120 347 L1131 347 L1131 357 L1141 357 L1141 368 L1131 368 L1131 378 L1120 378 L1120 368 L1110 368 L1110 357 L1120 357 L1120 347 Z M450 318 L461 318 L461 338 L481 338 L481 347 L491 347 L491 378 L481 378 L481 388 L450 388 L450 318 Z M780 318 L791 318 L791 388 L760 388 L760 378 L750 378 L750 347 L760 347 L760 338 L780 338 L780 318 Z M820 338 L851 338 L851 388 L840 388 L840 348 L821 348 L821 388 L810 388 L810 347 L820 347 L820 338 Z M240 328 L251 328 L251 338 L261 338 L261 348 L250 348 L250 338 L240 338 L240 328 Z M250 377 L261 377 L261 388 L251 388 L251 398 L240 398 L240 387 L250 387 L250 377 Z M300 328 L311 328 L311 338 L301 338 L301 348 L290 348 L290 338 L300 338 L300 328 Z M290 377 L301 377 L301 387 L311 387 L311 398 L300 398 L300 388 L290 388 L290 377 Z M930 328 L941 328 L941 338 L951 338 L951 348 L940 348 L940 338 L930 338 L930 328 Z M940 377 L951 377 L951 388 L941 388 L941 398 L930 398 L930 387 L940 387 L940 377 Z M990 328 L1001 328 L1001 338 L991 338 L991 348 L980 348 L980 338 L990 338 L990 328 Z M980 377 L991 377 L991 387 L1001 387 L1001 398 L990 398 L990 388 L980 388 L980 377 Z M160 338 L171 338 L171 348 L160 348 L160 338 Z M160 377 L171 377 L171 388 L160 388 L160 377 Z M200 338 L211 338 L211 348 L200 348 L200 338 Z M200 377 L211 377 L211 388 L200 388 L200 377 Z M461 348 L461 377 L480 377 L480 348 L461 348 Z M521 348 L521 377 L540 377 L540 348 L521 348 Z M701 368 L701 377 L720 377 L720 368 L701 368 Z M761 348 L761 377 L780 377 L780 348 L761 348 Z M881 368 L881 377 L900 377 L900 368 L881 368 Z M1030 338 L1041 338 L1041 348 L1030 348 L1030 338 Z M1030 377 L1041 377 L1041 388 L1030 388 L1030 377 Z M1070 338 L1081 338 L1081 348 L1070 348 L1070 338 Z M1070 377 L1081 377 L1081 388 L1070 388 L1070 377 Z " />
<glyph glyph-name="f_f" unicode="&#xfb00;" horiz-adv-x="458" d="M163 369 L278 369 L278 0 L379 0 L379 369 L441 369 L441 452 L379 452 L379 480 C379 542 391 571 430 571 C444 571 456 570 469 566 L469 654 C454 659 434 661 416 661 C337 661 278 618 278 490 L278 452 L163 452 L163 480 C163 543 176 576 217 576 C233 576 246 575 262 572 L275 648 C252 656 231 660 202 660 C123 660 62 612 62 496 L62 452 L18 452 L18 369 L62 369 L62 0 L163 0 L163 369 Z " />
<glyph glyph-name="fi" unicode="&#xfb01;" horiz-adv-x="424" d="M18 368 L62 368 L62 0 L163 0 L163 368 L279 368 L279 0 L380 0 L380 452 L163 452 L163 480 C163 544 177 573 232 573 C248 573 262 572 280 568 L280 655 C262 659 242 661 220 661 C125 661 62 605 62 499 L62 452 L18 452 L18 368 Z " />
<glyph glyph-name="fl" unicode="&#xfb02;" horiz-adv-x="430" d="M18 369 L62 369 L62 0 L163 0 L163 369 L222 369 L222 452 L163 452 L163 480 C163 542 175 571 214 571 C229 571 241 570 254 566 L254 654 C239 659 219 661 201 661 C121 661 62 618 62 490 L62 452 L18 452 L18 369 Z M282 0 L383 0 L383 653 L282 653 L282 0 Z " />
<glyph glyph-name="f_f_i" unicode="&#xfb03;" horiz-adv-x="639" d="M163 368 L278 368 L278 0 L379 0 L379 368 L495 368 L495 0 L595 0 L595 452 L379 452 L379 480 C379 544 393 573 448 573 C465 573 478 572 495 568 L495 655 C477 659 458 661 436 661 C341 661 278 605 278 499 L278 452 L163 452 L163 486 C163 547 176 571 211 571 C226 571 238 570 251 566 L251 654 C236 659 219 661 201 661 C121 661 62 618 62 490 L62 452 L18 452 L18 368 L62 368 L62 0 L163 0 L163 368 Z " />
<glyph glyph-name="f_f_l" unicode="&#xfb04;" horiz-adv-x="643" d="M163 369 L279 369 L279 0 L379 0 L379 369 L439 369 L439 452 L379 452 L379 480 C379 542 392 571 431 571 C444 571 456 570 470 566 L470 654 C455 659 435 661 417 661 C338 661 279 618 279 490 L279 452 L163 452 L163 486 C163 547 176 571 211 571 C226 571 238 570 251 566 L251 654 C236 659 219 661 201 661 C121 661 62 618 62 490 L62 452 L18 452 L18 369 L62 369 L62 0 L163 0 L163 369 Z M495 0 L596 0 L596 653 L495 653 L495 0 Z " />
</font>
</defs>
</svg>
