<svg xmlns="http://www.w3.org/2000/svg">
<defs>
<font id="Greta Sans Cnd Std ExLt">
<font-face  font-family="Greta Sans Condensed Std" units-per-em="1000" ascent="710" descent="-290" font-style="normal" font-weight="100" font-stretch="condensed" cap-height="583" x-height="450" underline-position="-75" underline-thickness="50" />

<glyph glyph-name="NULL" d="" />
<glyph glyph-name="CR" unicode="&#xd;" horiz-adv-x="250" d="" />
<glyph glyph-name="space" unicode="&#x20;" horiz-adv-x="174" d="" />
<glyph glyph-name="exclam" unicode="&#x21;" horiz-adv-x="166" d="M63 346 L67 209 L98 209 L101 347 L101 583 L63 583 L63 346 Z M61 -2 L103 -2 L103 105 L61 105 L61 -2 Z " />
<glyph glyph-name="quotedbl" unicode="&#x22;" horiz-adv-x="252" d="M53 456 L84 456 L89 655 L53 655 L53 456 Z M166 456 L198 456 L203 655 L166 655 L166 456 Z " />
<glyph glyph-name="numbersign" unicode="&#x23;" horiz-adv-x="431" d="M59 393 L145 393 L117 201 L34 201 L29 173 L113 173 L87 0 L116 0 L142 173 L249 173 L223 0 L253 0 L279 173 L368 173 L372 201 L283 201 L312 393 L397 393 L401 422 L316 422 L341 583 L312 583 L287 422 L180 422 L205 583 L174 583 L150 422 L63 422 L59 393 Z M176 393 L283 393 L254 201 L147 201 L176 393 Z " />
<glyph glyph-name="dollar" unicode="&#x24;" horiz-adv-x="317" d="M175 -71 L175 -3 C238 8 284 58 284 155 C284 254 227 291 164 322 C107 351 73 380 73 447 C73 501 106 555 169 555 C201 555 236 547 267 530 L267 568 C243 581 211 588 175 589 L175 651 L145 651 L145 587 C78 576 37 517 37 442 C37 357 86 320 146 289 C207 258 248 231 248 153 C248 72 207 31 147 31 C110 31 73 40 42 55 L42 15 C77 1 108 -6 145 -6 L145 -71 L175 -71 Z " />
<glyph glyph-name="percent" unicode="&#x25;" horiz-adv-x="499" d="M121 285 C176 285 210 342 210 436 C210 539 175 590 121 590 C65 590 30 529 30 433 C30 335 65 285 121 285 L121 285 Z M121 313 C77 313 61 364 61 434 C61 511 80 561 120 561 C161 561 179 516 179 435 C179 364 163 313 121 313 L121 313 Z M268 370 L297 370 L380 573 L380 583 L348 583 L268 370 Z M379 -7 C435 -7 469 51 469 145 C469 248 434 299 379 299 C324 299 289 238 289 143 C289 44 324 -7 379 -7 L379 -7 Z M380 22 C336 22 320 73 320 143 C320 217 338 270 378 270 C420 270 438 225 438 144 C438 73 422 22 380 22 L380 22 Z M240 221 L212 221 L127 10 L127 0 L160 0 L240 221 Z " />
<glyph glyph-name="ampersand" unicode="&#x26;" horiz-adv-x="467" d="M431 352 L392 352 C377 261 352 186 320 131 L237 220 C217 242 195 265 176 289 C233 325 300 379 300 466 C300 535 267 590 190 590 C109 590 68 523 68 443 C68 393 91 346 123 300 C77 266 35 219 35 140 C35 49 82 -6 169 -6 C231 -6 280 25 319 73 C353 35 383 4 390 0 L433 0 L433 14 C424 19 384 61 343 106 C388 177 416 271 431 352 L431 352 Z M197 210 C206 199 252 147 297 98 C262 53 219 29 171 29 C114 29 73 62 73 146 C73 210 106 249 141 276 C159 254 177 232 197 210 L197 210 Z M105 442 C105 531 149 556 189 556 C246 556 262 509 262 463 C262 390 207 345 159 313 C128 356 105 401 105 442 L105 442 Z " />
<glyph glyph-name="quotesingle" unicode="&#x27;" horiz-adv-x="138" d="M53 456 L84 456 L89 655 L53 655 L53 456 Z " />
<glyph glyph-name="parenleft" unicode="&#x28;" horiz-adv-x="193" d="M172 -151 C153 -117 72 41 72 260 C72 476 150 617 172 649 L134 649 C115 623 37 478 37 259 C37 40 114 -116 135 -150 L172 -151 Z " />
<glyph glyph-name="parenright" unicode="&#x29;" horiz-adv-x="193" d="M21 649 C41 616 121 463 121 244 C121 27 42 -118 21 -150 L58 -150 C77 -124 156 26 156 245 C156 464 78 615 58 649 L21 649 Z " />
<glyph glyph-name="asterisk" unicode="&#x2a;" horiz-adv-x="321" d="M42 533 L144 480 L42 428 L57 402 L149 463 L145 341 L174 341 L169 463 L264 401 L279 427 L173 481 L279 534 L264 560 L169 497 L174 624 L145 624 L150 497 L57 558 L42 533 Z " />
<glyph glyph-name="plus" unicode="&#x2b;" horiz-adv-x="358" d="M35 281 L163 281 L163 97 L194 97 L194 281 L323 281 L323 313 L194 313 L194 495 L163 495 L163 313 L35 313 L35 281 Z " />
<glyph glyph-name="comma" unicode="&#x2c;" horiz-adv-x="159" d="M32 -153 C87 -103 115 -43 115 14 C115 50 99 83 73 101 C60 101 44 86 44 72 C63 47 71 25 71 -10 C71 -59 45 -100 12 -138 L32 -153 Z " />
<glyph glyph-name="&amp;#x2d;" unicode="&#x2d;" horiz-adv-x="262" d="M49 226 L214 226 L214 261 L49 261 L49 226 Z " />
<glyph glyph-name="&amp;#xad;" unicode="&#xad;" horiz-adv-x="262" d="M49 226 L214 226 L214 261 L49 261 L49 226 Z " />
<glyph glyph-name="period" unicode="&#x2e;" horiz-adv-x="152" d="M53 -2 L95 -2 L95 105 L53 105 L53 -2 Z " />
<glyph glyph-name="slash" unicode="&#x2f;" horiz-adv-x="232" d="M26 -92 L61 -92 L207 674 L172 674 L26 -92 Z " />
<glyph glyph-name="zero" unicode="0" horiz-adv-x="382" d="M187 -6 C295 -6 338 105 338 299 C338 474 308 590 193 590 C88 590 44 487 44 283 C44 98 74 -6 187 -6 L187 -6 Z M189 29 C120 29 83 85 83 284 C83 484 124 555 192 555 C260 555 298 483 298 298 C298 100 259 29 189 29 L189 29 Z " />
<glyph glyph-name="one" unicode="1" horiz-adv-x="222" d="M160 0 L160 583 L135 583 L25 544 L25 510 L120 538 L120 0 L160 0 Z " />
<glyph glyph-name="two" unicode="2" horiz-adv-x="327" d="M32 0 L291 0 L291 36 L79 36 L79 37 C165 130 277 302 277 431 C277 545 227 590 152 590 C112 590 76 579 44 558 L44 520 C83 547 113 554 145 554 C205 554 237 515 237 426 C237 305 129 140 32 31 L32 0 Z " />
<glyph glyph-name="three" unicode="3" horiz-adv-x="310" d="M130 -6 C199 -6 270 37 270 160 C270 253 216 306 164 311 L164 313 C194 323 252 372 252 462 C252 544 213 590 141 590 C105 590 73 580 43 560 L43 522 C76 546 104 554 134 554 C190 554 213 509 213 453 C213 380 161 327 111 319 L111 288 C183 285 232 240 232 158 C232 83 198 31 132 31 C104 31 72 35 41 50 L41 11 C63 2 92 -6 130 -6 L130 -6 Z " />
<glyph glyph-name="four" unicode="4" horiz-adv-x="324" d="M241 0 L241 158 L295 158 L295 192 L241 192 L241 583 L203 583 L25 191 L25 158 L203 158 L203 0 L241 0 Z M59 192 L200 504 L203 504 L203 192 L59 192 Z " />
<glyph glyph-name="five" unicode="5" horiz-adv-x="310" d="M131 30 C102 30 71 35 40 48 L40 11 C64 2 94 -6 132 -6 C202 -6 269 46 269 170 C269 298 207 339 125 339 C114 339 103 338 93 337 L102 548 L264 548 L264 583 L69 583 L55 299 C74 303 94 305 112 305 C184 305 231 269 231 168 C231 70 186 30 131 30 L131 30 Z " />
<glyph glyph-name="six" unicode="6" horiz-adv-x="335" d="M279 542 L279 579 C258 587 232 590 211 590 C100 590 43 469 43 254 C43 91 78 -6 168 -6 C253 -6 297 68 297 193 C297 307 256 349 184 349 C141 349 106 330 83 312 C91 471 133 555 212 555 C231 555 252 553 279 542 L279 542 Z M178 315 C232 315 259 283 259 189 C259 84 229 29 169 29 C107 29 82 114 82 253 L82 279 C106 297 139 315 178 315 L178 315 Z " />
<glyph glyph-name="seven" unicode="7" horiz-adv-x="276" d="M94 0 L256 558 L256 583 L29 583 L29 548 L217 548 L58 3 L60 0 L94 0 Z " />
<glyph glyph-name="eight" unicode="8" horiz-adv-x="334" d="M292 154 C292 233 252 268 208 296 C249 328 284 387 284 453 C284 534 250 590 165 590 C93 590 50 528 50 445 C50 373 83 336 123 307 C83 283 42 222 42 147 C42 56 81 -6 161 -6 C242 -6 292 63 292 154 L292 154 Z M80 149 C80 220 113 268 145 292 C198 258 254 230 254 151 C254 60 207 29 164 29 C113 29 80 73 80 149 L80 149 Z M246 449 C246 396 222 344 184 311 C134 340 87 370 87 446 C87 514 118 555 165 555 C224 555 246 509 246 449 L246 449 Z " />
<glyph glyph-name="nine" unicode="9" horiz-adv-x="335" d="M55 41 L55 4 C76 -4 102 -7 123 -7 C234 -7 291 114 291 329 C291 492 256 589 166 589 C81 589 37 515 37 390 C37 276 78 234 150 234 C192 234 227 253 250 270 C242 112 200 28 122 28 C103 28 82 30 55 41 L55 41 Z M156 268 C102 268 75 300 75 394 C75 499 105 554 165 554 C227 554 252 469 252 330 L252 304 C228 285 194 268 156 268 L156 268 Z " />
<glyph glyph-name="colon" unicode="&#x3a;" horiz-adv-x="157" d="M55 -2 L97 -2 L97 105 L55 105 L55 -2 Z M55 341 L97 341 L97 448 L55 448 L55 341 Z " />
<glyph glyph-name="semicolon" unicode="&#x3b;" horiz-adv-x="176" d="M40 -153 C95 -103 123 -43 123 14 C123 50 107 83 81 101 C68 101 52 86 52 72 C71 47 79 25 79 -10 C79 -59 53 -100 20 -138 L40 -153 Z M67 341 L109 341 L109 448 L67 448 L67 341 Z " />
<glyph glyph-name="less" unicode="&#x3c;" horiz-adv-x="336" d="M289 82 L289 125 L62 295 L62 297 L289 467 L289 509 L27 308 L27 281 L289 82 Z " />
<glyph glyph-name="equal" unicode="&#x3d;" horiz-adv-x="369" d="M52 190 L317 190 L317 224 L52 224 L52 190 Z M52 368 L317 368 L317 402 L52 402 L52 368 Z " />
<glyph glyph-name="greater" unicode="&#x3e;" horiz-adv-x="335" d="M309 281 L309 308 L46 509 L46 467 L272 296 L272 294 L46 125 L46 82 L309 281 Z " />
<glyph glyph-name="question" unicode="&#x3f;" horiz-adv-x="268" d="M96 189 L129 189 L129 268 C164 287 238 337 238 450 C238 551 192 590 122 590 C94 590 59 584 32 569 L32 533 C60 548 91 555 118 555 C168 555 199 523 199 447 C199 341 125 300 96 284 L96 189 Z M90 -2 L132 -2 L132 105 L90 105 L90 -2 Z " />
<glyph glyph-name="at" unicode="&#x40;" horiz-adv-x="616" d="M340 7 L377 -6 C505 32 588 161 588 316 C588 504 495 642 347 642 C161 642 35 447 35 198 C35 -69 124 -198 297 -198 C377 -198 461 -173 514 -133 L514 -97 C461 -139 383 -165 303 -165 C157 -165 70 -58 70 199 C70 414 173 610 345 610 C482 610 555 480 555 312 C555 172 484 66 394 31 L377 38 L429 457 L397 457 L393 430 C368 445 340 456 321 456 C289 456 268 436 250 412 C208 355 181 234 181 110 C181 65 186 25 191 -6 L234 -6 L358 154 L340 7 Z M220 44 C218 73 215 97 215 128 C215 244 242 373 297 423 C300 424 305 425 309 425 C331 425 362 411 389 395 L364 202 L238 43 L220 44 Z " />
<glyph glyph-name="A" unicode="A" horiz-adv-x="365" d="M13 0 L52 0 L101 194 L258 194 L299 0 L340 0 L209 583 L166 583 L13 0 Z M144 365 L186 534 L189 534 L222 365 L250 230 L110 230 L144 365 Z " />
<glyph glyph-name="B" unicode="B" horiz-adv-x="364" d="M61 0 L176 0 C283 0 331 62 331 166 C331 268 267 301 225 305 L225 307 C267 320 303 364 303 440 C303 534 255 583 158 583 L61 583 L61 0 Z M165 284 C236 284 290 255 290 169 C290 61 232 36 167 36 L101 36 L101 284 L165 284 Z M149 547 C200 547 261 533 261 432 C261 375 231 318 166 318 L101 318 L101 547 L149 547 Z " />
<glyph glyph-name="C" unicode="C" horiz-adv-x="362" d="M229 -6 C272 -6 308 4 330 16 L330 53 C297 36 270 31 235 31 C134 31 82 105 82 292 C82 467 136 554 235 554 C264 554 292 550 330 531 L330 571 C307 581 278 590 234 590 C96 590 39 464 39 287 C39 98 91 -6 229 -6 L229 -6 Z " />
<glyph glyph-name="D" unicode="D" horiz-adv-x="429" d="M61 0 L164 0 C301 0 390 101 390 302 C390 517 290 583 161 583 L61 583 L61 0 Z M156 547 C263 547 349 500 349 299 C349 113 272 36 165 36 L101 36 L101 547 L156 547 Z " />
<glyph glyph-name="E" unicode="E" horiz-adv-x="337" d="M61 0 L306 0 L306 36 L101 36 L101 283 L270 283 L270 318 L101 318 L101 547 L301 547 L301 583 L61 583 L61 0 Z " />
<glyph glyph-name="F" unicode="F" horiz-adv-x="312" d="M61 0 L101 0 L101 258 L265 258 L265 293 L101 293 L101 547 L296 547 L296 583 L61 583 L61 0 Z " />
<glyph glyph-name="G" unicode="G" horiz-adv-x="404" d="M231 -6 C277 -6 316 4 358 26 L358 296 L318 296 L318 46 C294 36 271 31 235 31 C143 31 81 89 81 292 C81 470 147 554 243 554 C280 554 317 548 354 529 L355 569 C327 580 294 590 243 590 C105 590 39 457 39 287 C39 99 91 -6 231 -6 L231 -6 Z " />
<glyph glyph-name="H" unicode="H" horiz-adv-x="451" d="M349 0 L389 0 L389 583 L349 583 L349 318 L101 318 L101 583 L61 583 L61 0 L101 0 L101 282 L349 282 L349 0 Z " />
<glyph glyph-name="I" unicode="I" horiz-adv-x="162" d="M61 0 L101 0 L101 583 L61 583 L61 0 Z " />
<glyph glyph-name="J" unicode="J" horiz-adv-x="175" d="M23 -83 C81 5 117 89 117 179 L117 583 L76 583 L76 181 C76 84 33 7 -11 -65 L23 -83 Z " />
<glyph glyph-name="K" unicode="K" horiz-adv-x="355" d="M292 0 L338 0 L160 306 L344 583 L299 583 L123 310 L123 295 L292 0 Z M61 0 L101 0 L101 583 L61 583 L61 0 Z " />
<glyph glyph-name="L" unicode="L" horiz-adv-x="305" d="M61 0 L294 0 L294 36 L101 36 L101 583 L61 583 L61 0 Z " />
<glyph glyph-name="M" unicode="M" horiz-adv-x="530" d="M42 0 L80 0 L102 345 L114 507 L117 507 L157 345 L242 0 L283 0 L371 342 L413 504 L415 504 L426 341 L448 0 L488 0 L447 583 L398 583 L302 209 L265 62 L263 62 L228 208 L136 583 L83 583 L42 0 Z " />
<glyph glyph-name="N" unicode="N" horiz-adv-x="441" d="M61 0 L101 0 L100 503 L101 503 L337 0 L380 0 L380 583 L341 583 L342 83 L340 83 L103 583 L61 583 L61 0 Z " />
<glyph glyph-name="O" unicode="O" horiz-adv-x="437" d="M214 -6 C347 -6 396 121 396 307 C396 458 355 590 225 590 C91 590 39 458 39 282 C39 112 87 -6 214 -6 L214 -6 Z M217 30 C130 30 82 112 82 287 C82 479 136 554 223 554 C306 554 355 475 355 302 C355 119 308 30 217 30 L217 30 Z " />
<glyph glyph-name="P" unicode="P" horiz-adv-x="353" d="M61 0 L101 0 L101 216 L155 216 C271 216 323 292 323 403 C323 534 268 583 182 583 L61 583 L61 0 Z M170 547 C247 547 283 497 283 402 C283 280 216 252 151 251 L101 251 L101 547 L170 547 Z " />
<glyph glyph-name="Q" unicode="Q" horiz-adv-x="437" d="M214 -6 C234 -6 252 -3 269 2 L373 -108 L421 -108 L421 -96 L299 17 C368 62 396 168 396 307 C396 458 355 590 225 590 C91 590 39 458 39 282 C39 112 87 -6 214 -6 L214 -6 Z M217 30 C130 30 82 112 82 287 C82 479 136 554 223 554 C306 554 355 475 355 302 C355 119 308 30 217 30 L217 30 Z " />
<glyph glyph-name="R" unicode="R" horiz-adv-x="369" d="M61 0 L101 0 L101 236 L153 236 C169 236 184 237 198 240 L305 0 L352 0 L236 252 C292 278 321 334 321 412 C321 535 269 583 179 583 L61 583 L61 0 Z M167 547 C245 547 279 509 279 411 C279 288 214 271 149 271 L101 271 L101 547 L167 547 Z " />
<glyph glyph-name="S" unicode="S" horiz-adv-x="316" d="M39 13 C75 -1 107 -6 142 -6 C221 -6 283 43 283 155 C283 256 226 290 164 323 C108 352 75 380 75 447 C75 507 107 554 170 554 C205 554 238 544 269 528 L269 569 C243 583 209 590 169 590 C84 590 36 526 36 442 C36 357 83 320 142 289 C201 259 243 231 243 153 C243 70 202 32 142 32 C107 32 71 39 39 54 L39 13 Z " />
<glyph glyph-name="T" unicode="T" horiz-adv-x="353" d="M10 547 L156 547 L156 0 L197 0 L197 547 L343 547 L343 583 L10 583 L10 547 Z " />
<glyph glyph-name="U" unicode="U" horiz-adv-x="424" d="M215 -6 C294 -6 367 45 367 219 L367 583 L327 583 L327 215 C327 84 287 31 217 31 C144 31 98 68 98 202 L98 583 L57 583 L57 196 C57 34 131 -6 215 -6 L215 -6 Z " />
<glyph glyph-name="V" unicode="V" horiz-adv-x="377" d="M364 583 L323 583 L232 235 L188 59 L186 59 L145 235 L62 583 L21 583 L163 0 L206 0 L364 583 Z " />
<glyph glyph-name="W" unicode="W" horiz-adv-x="600" d="M584 583 L542 583 L467 236 L428 59 L426 59 L392 237 L325 583 L278 583 L204 236 L167 56 L164 56 L132 236 L69 583 L27 583 L140 0 L187 0 L265 362 L298 518 L302 518 L332 362 L401 0 L449 0 L584 583 Z " />
<glyph glyph-name="X" unicode="X" horiz-adv-x="353" d="M69 583 L24 583 L153 297 L12 0 L57 0 L173 260 L175 260 L288 0 L334 0 L198 298 L336 583 L292 583 L178 334 L176 334 L69 583 Z " />
<glyph glyph-name="Y" unicode="Y" horiz-adv-x="356" d="M343 583 L303 583 L224 373 L181 259 L179 259 L135 373 L54 583 L13 583 L157 221 L157 0 L198 0 L198 215 L343 583 Z " />
<glyph glyph-name="Z" unicode="Z" horiz-adv-x="325" d="M296 0 L296 36 L71 36 L306 580 L305 583 L31 583 L31 547 L250 547 L18 3 L19 0 L296 0 Z " />
<glyph glyph-name="bracketleft" unicode="&#x5b;" horiz-adv-x="192" d="M57 -183 L162 -183 L162 -151 L92 -151 L92 646 L162 646 L162 678 L57 678 L57 -183 Z " />
<glyph glyph-name="backslash" unicode="&#x5c;" horiz-adv-x="233" d="M60 674 L25 674 L171 -92 L207 -92 L60 674 Z " />
<glyph glyph-name="bracketright" unicode="&#x5d;" horiz-adv-x="192" d="M135 678 L29 678 L29 646 L99 646 L99 -151 L29 -151 L29 -183 L135 -183 L135 678 Z " />
<glyph glyph-name="asciicircum" unicode="&#x5e;" horiz-adv-x="311" d="M21 241 L56 241 L155 543 L157 543 L250 241 L286 241 L177 583 L136 583 L21 241 Z " />
<glyph glyph-name="underscore" unicode="&#x5f;" horiz-adv-x="452" d="M76 -120 L376 -120 L376 -87 L76 -87 L76 -120 Z " />
<glyph glyph-name="grave" unicode="&#x60;" horiz-adv-x="211" d="M166 528 L97 671 L59 671 L133 528 L166 528 Z " />
<glyph glyph-name="a" unicode="a" horiz-adv-x="325" d="M247 0 L286 0 L272 84 L272 349 C272 433 234 458 170 458 C131 458 81 449 51 436 L51 400 C79 412 126 422 163 422 C218 422 234 394 234 337 L234 242 L178 242 C92 242 29 208 29 112 C29 38 58 -6 123 -6 C170 -6 211 23 238 55 L247 0 Z M129 29 C91 29 68 48 68 115 C68 193 113 211 175 211 L234 211 L234 88 C205 55 168 29 129 29 L129 29 Z " />
<glyph glyph-name="b" unicode="b" horiz-adv-x="352" d="M156 -6 C256 -6 316 75 316 246 C316 398 274 458 195 458 C155 458 119 439 90 416 L90 653 L52 653 L52 12 C91 -1 121 -6 156 -6 L156 -6 Z M186 423 C248 423 276 373 276 240 C276 109 244 28 159 28 C135 28 111 31 90 37 L90 381 C115 403 150 423 186 423 L186 423 Z " />
<glyph glyph-name="c" unicode="c" horiz-adv-x="299" d="M179 -6 C213 -6 242 1 267 15 L267 48 C241 36 215 29 187 29 C123 29 76 76 76 224 C76 353 117 422 190 422 C216 422 238 419 267 404 L267 443 C242 455 217 458 188 458 C86 458 36 363 36 221 C36 74 81 -6 179 -6 L179 -6 Z " />
<glyph glyph-name="d" unicode="d" horiz-adv-x="353" d="M274 0 L312 0 L298 93 L298 653 L260 653 L260 447 C238 454 214 458 188 458 C95 458 36 379 36 211 C36 67 79 -6 155 -6 C199 -6 237 23 264 59 L274 0 Z M161 31 C100 31 77 101 77 216 C77 355 114 424 189 424 C214 424 238 420 260 411 L260 93 C232 60 200 31 161 31 L161 31 Z " />
<glyph glyph-name="e" unicode="e" horiz-adv-x="342" d="M190 -6 C238 -6 272 2 302 18 L302 52 C267 35 232 29 195 29 C117 29 75 81 75 217 L305 217 L305 244 C305 369 275 458 178 458 C78 458 36 357 36 216 C36 62 86 -6 190 -6 L190 -6 Z M176 423 C250 423 266 336 266 254 L266 249 L75 249 C80 365 115 423 176 423 L176 423 Z " />
<glyph glyph-name="f" unicode="f" horiz-adv-x="204" d="M17 415 L69 415 L69 0 L107 0 L107 415 L191 415 L191 450 L107 450 L107 510 C107 595 133 626 182 626 C200 626 210 624 227 620 L227 655 C216 658 201 660 185 660 C116 660 69 621 69 511 L69 450 L17 450 L17 415 Z " />
<glyph glyph-name="g" unicode="g" horiz-adv-x="327" d="M160 176 C233 176 273 249 273 316 C273 357 265 391 248 416 L324 416 L324 447 L224 440 C207 452 186 458 160 458 C81 458 43 393 43 312 C43 246 65 201 111 184 L50 95 L50 66 L99 57 C59 28 18 -14 18 -81 C18 -167 64 -213 152 -213 C251 -213 307 -139 307 -48 C307 30 269 67 187 79 L88 96 L140 177 C146 176 153 176 160 176 L160 176 Z M175 45 C243 34 270 7 270 -53 C270 -127 226 -180 155 -180 C95 -180 55 -152 55 -76 C55 -20 92 22 130 52 L175 45 Z M160 208 C102 208 80 251 81 314 C81 388 106 426 158 426 C210 426 234 387 234 316 C234 251 206 208 160 208 L160 208 Z " />
<glyph glyph-name="h" unicode="h" horiz-adv-x="367" d="M278 0 L316 0 L316 322 C316 421 292 458 222 458 C168 458 122 425 91 392 L91 653 L53 653 L53 0 L91 0 L91 354 C121 388 164 422 210 422 C270 422 278 384 278 311 L278 0 Z " />
<glyph glyph-name="i" unicode="i" horiz-adv-x="159" d="M17 415 L68 415 L68 0 L106 0 L106 450 L17 450 L17 415 Z M68 573 L106 573 L106 660 L68 660 L68 573 Z " />
<glyph glyph-name="j" unicode="j" horiz-adv-x="159" d="M17 415 L68 415 L68 18 C68 -68 39 -144 12 -199 L42 -213 C78 -154 106 -68 106 22 L106 450 L17 450 L17 415 Z M68 573 L106 573 L106 660 L68 660 L68 573 Z " />
<glyph glyph-name="k" unicode="k" horiz-adv-x="311" d="M248 0 L292 0 L150 251 L297 450 L252 450 L112 256 L112 243 L248 0 Z M53 0 L91 0 L91 653 L53 653 L53 0 Z " />
<glyph glyph-name="l" unicode="l" horiz-adv-x="154" d="M58 0 L96 0 L96 653 L58 653 L58 0 Z " />
<glyph glyph-name="m" unicode="m" horiz-adv-x="565" d="M476 0 L514 0 L514 323 C514 420 493 458 422 458 C372 458 328 427 298 393 C287 440 262 458 213 458 C161 458 118 425 88 390 L79 450 L41 450 L55 349 L55 0 L93 0 L93 357 C122 391 160 422 201 422 C260 422 266 386 266 312 L266 0 L304 0 L304 322 C304 336 303 349 302 361 C331 393 370 422 411 422 C471 422 476 386 476 312 L476 0 Z " />
<glyph glyph-name="n" unicode="n" horiz-adv-x="369" d="M55 0 L93 0 L93 351 C123 386 166 422 213 422 C273 422 280 385 280 312 L280 0 L318 0 L318 322 C318 421 293 458 223 458 C167 458 118 420 88 385 L79 450 L41 450 L55 349 L55 0 Z " />
<glyph glyph-name="o" unicode="o" horiz-adv-x="347" d="M173 -6 C266 -6 312 103 312 227 C312 390 272 458 177 458 C87 458 36 357 36 224 C36 61 85 -6 173 -6 L173 -6 Z M174 29 C108 29 75 83 75 225 C75 348 110 423 175 423 C253 423 272 355 272 225 C272 106 242 29 174 29 L174 29 Z " />
<glyph glyph-name="p" unicode="p" horiz-adv-x="356" d="M55 -207 L93 -207 L93 4 C114 -3 139 -6 164 -6 C254 -6 319 54 319 243 C319 395 280 458 200 458 C154 458 117 428 88 393 L79 450 L41 450 L55 353 L55 -207 Z M190 422 C253 422 280 372 280 238 C280 91 244 28 164 28 C140 28 115 32 93 40 L93 361 C118 391 151 422 190 422 L190 422 Z " />
<glyph glyph-name="q" unicode="q" horiz-adv-x="352" d="M195 458 C96 458 36 378 36 207 C36 51 85 -6 160 -6 C201 -6 236 12 262 38 L262 -207 L299 -207 L299 443 C257 454 230 458 195 458 L195 458 Z M166 29 C104 29 76 78 76 214 C76 355 114 425 192 425 C218 425 241 421 262 415 L262 74 C236 49 205 29 166 29 L166 29 Z " />
<glyph glyph-name="r" unicode="r" horiz-adv-x="237" d="M55 0 L93 0 L93 341 C119 378 152 419 201 419 C209 419 218 418 227 416 L227 454 C218 457 210 457 200 457 C151 457 115 416 90 381 L80 450 L41 450 L55 349 L55 0 Z " />
<glyph glyph-name="s" unicode="s" horiz-adv-x="287" d="M132 -6 C199 -6 257 30 257 127 C257 202 208 228 153 249 C104 269 71 285 71 338 C71 392 105 423 154 423 C184 423 208 419 243 404 L243 442 C217 454 184 458 155 458 C83 458 34 412 34 336 C34 262 82 238 134 218 C182 199 221 180 221 126 C221 60 190 30 135 30 C103 30 73 34 37 50 L37 12 C65 0 96 -6 132 -6 L132 -6 Z " />
<glyph glyph-name="t" unicode="t" horiz-adv-x="235" d="M18 415 L69 415 L69 99 C69 21 106 -6 157 -6 C184 -6 209 -2 228 9 L228 41 C209 33 190 29 167 29 C130 29 108 50 107 108 L107 415 L222 415 L222 450 L107 450 L107 569 L69 569 L69 450 L18 450 L18 415 Z " />
<glyph glyph-name="u" unicode="u" horiz-adv-x="363" d="M307 450 L270 450 L270 101 C239 65 203 29 160 29 C101 29 89 65 89 138 L89 450 L51 450 L51 129 C51 30 79 -7 149 -7 C200 -7 244 29 274 66 L283 0 L321 0 L307 102 L307 450 Z " />
<glyph glyph-name="v" unicode="v" horiz-adv-x="311" d="M131 0 L176 0 L295 450 L254 450 L193 199 L157 52 L154 52 L120 198 L61 450 L20 450 L131 0 Z " />
<glyph glyph-name="w" unicode="w" horiz-adv-x="501" d="M481 450 L442 450 L390 193 L361 52 L358 52 L328 192 L276 450 L234 450 L171 188 L140 52 L136 52 L112 188 L66 450 L26 450 L113 0 L158 0 L227 284 L251 387 L254 387 L276 283 L336 0 L382 0 L481 450 Z " />
<glyph glyph-name="x" unicode="x" horiz-adv-x="317" d="M65 450 L23 450 L136 229 L13 0 L56 0 L155 197 L159 197 L256 0 L300 0 L182 232 L297 450 L256 450 L161 264 L158 264 L65 450 Z " />
<glyph glyph-name="y" unicode="y" horiz-adv-x="313" d="M125 -207 L180 5 L295 450 L255 450 L187 177 L157 46 L154 46 L126 175 L62 450 L21 450 L129 0 L142 0 L85 -204 L87 -207 L125 -207 Z " />
<glyph glyph-name="z" unicode="z" horiz-adv-x="275" d="M21 3 L21 0 L251 0 L251 35 L74 35 L249 448 L247 450 L29 450 L29 416 L196 416 L21 3 Z " />
<glyph glyph-name="braceleft" unicode="&#x7b;" horiz-adv-x="221" d="M178 -179 L193 -178 L192 -149 L177 -149 C123 -149 90 -132 97 -41 L109 142 C113 198 99 242 67 253 C97 264 115 299 109 368 L99 549 C94 636 119 652 177 652 L192 652 L193 681 C193 681 172 682 171 682 C110 684 60 661 63 552 L76 358 C79 309 66 268 30 268 L30 239 C66 239 79 196 76 150 L63 -40 C55 -151 109 -180 178 -179 L178 -179 Z " />
<glyph glyph-name="bar" unicode="&#x7c;" horiz-adv-x="153" d="M58 -92 L95 -92 L95 675 L58 675 L58 -92 Z " />
<glyph glyph-name="braceright" unicode="&#x7d;" horiz-adv-x="221" d="M43 680 L28 679 L29 650 L44 650 C98 650 131 633 124 542 L112 359 C108 303 122 259 154 248 C124 237 106 202 112 133 L122 -48 C127 -135 102 -151 44 -151 L29 -151 L28 -180 C28 -180 49 -181 50 -181 C111 -183 161 -160 158 -51 L145 143 C142 192 155 233 191 233 L191 262 C155 262 142 305 145 351 L158 541 C166 652 112 681 43 680 L43 680 Z " />
<glyph glyph-name="asciitilde" unicode="&#x7e;" horiz-adv-x="372" d="M253 271 C284 271 309 296 324 326 L304 344 C291 321 277 305 254 305 C208 305 179 345 129 345 C95 345 65 319 50 296 L67 274 C79 289 98 311 130 311 C171 311 207 271 253 271 L253 271 Z " />
<glyph glyph-name="uni00A0" unicode="&#xa0;" horiz-adv-x="174" d="" />
<glyph glyph-name="exclamdown" unicode="&#xa1;" horiz-adv-x="156" d="M58 -132 L96 -132 L96 104 L93 242 L62 242 L58 105 L58 -132 Z M56 346 L98 346 L98 453 L56 453 L56 346 Z " />
<glyph glyph-name="cent" unicode="&#xa2;" horiz-adv-x="312" d="M168 -83 L198 -83 L198 -5 C224 -3 247 3 267 15 L267 48 C241 36 215 29 187 29 C123 29 76 76 76 224 C76 353 117 422 190 422 C216 422 238 419 267 404 L267 443 C245 453 223 457 198 458 L198 536 L168 536 L168 457 C79 445 36 353 36 221 C36 79 77 0 168 -6 L168 -83 Z " />
<glyph glyph-name="sterling" unicode="&#xa3;" horiz-adv-x="343" d="M132 166 C132 197 128 233 123 270 L249 270 L249 303 L118 303 C112 345 107 387 107 422 C107 511 141 553 200 553 C235 553 256 548 287 529 L287 569 C261 583 236 590 198 590 C132 590 69 547 69 423 C69 386 74 344 79 303 L38 303 L38 270 L84 270 C90 229 95 191 95 161 C95 120 84 77 67 35 L38 35 L38 0 L307 0 L307 35 L107 35 C123 77 132 120 132 166 L132 166 Z " />
<glyph glyph-name="currency" unicode="&#xa4;" horiz-adv-x="382" d="M58 467 L39 451 L97 382 C80 351 72 310 72 272 C72 232 81 190 99 160 L39 90 L58 73 L115 138 C135 117 161 104 191 104 C220 104 247 118 267 138 L325 73 L342 91 L284 160 C302 190 311 232 311 272 C311 312 302 352 286 381 L343 450 L324 467 L269 403 C248 428 221 441 191 441 C160 441 133 426 113 404 L58 467 Z M103 272 C103 348 135 408 191 408 C247 408 279 347 279 272 C279 197 247 136 191 136 C136 136 103 198 103 272 L103 272 Z " />
<glyph glyph-name="yen" unicode="&#xa5;" horiz-adv-x="393" d="M345 172 L216 172 L216 202 L240 267 L345 267 L345 298 L252 298 L360 583 L320 583 L199 244 L197 244 L73 583 L31 583 L140 298 L51 298 L51 267 L152 267 L176 205 L176 172 L51 172 L51 141 L176 141 L176 0 L216 0 L216 141 L345 141 L345 172 Z " />
<glyph glyph-name="brokenbar" unicode="&#xa6;" horiz-adv-x="153" d="M59 -92 L95 -92 L95 201 L59 201 L59 -92 Z M59 388 L95 388 L95 675 L59 675 L59 388 Z " />
<glyph glyph-name="section" unicode="&#xa7;" horiz-adv-x="353" d="M159 -99 C239 -99 317 -35 317 77 C317 144 291 191 232 278 L85 490 C110 535 157 556 200 556 C233 556 273 549 307 532 L307 570 C284 580 249 590 199 590 C112 590 35 524 35 409 C35 339 60 284 121 196 L264 -3 C241 -46 198 -64 158 -64 C122 -64 81 -56 48 -40 L48 -78 C72 -88 108 -99 159 -99 L159 -99 Z M205 257 C264 169 283 128 283 76 C283 59 281 43 278 30 L145 221 C87 306 67 354 67 412 C67 427 68 440 71 452 L205 257 Z " />
<glyph glyph-name="dieresis" unicode="&#xa8;" horiz-adv-x="271" d="M50 573 L88 573 L88 650 L50 650 L50 573 Z M178 573 L216 573 L216 650 L178 650 L178 573 Z " />
<glyph glyph-name="copyright" unicode="&#xa9;" horiz-adv-x="504" d="M252 -7 C375 -7 464 111 464 289 C464 468 375 590 252 590 C129 590 40 468 40 289 C40 109 128 -7 252 -7 L252 -7 Z M252 13 C145 13 60 120 60 289 C60 458 145 570 252 570 C359 570 444 461 444 289 C444 120 359 13 252 13 L252 13 Z M258 109 C286 109 307 115 321 123 L321 151 C300 141 283 137 260 137 C201 137 172 180 172 289 C172 389 203 444 260 444 C279 444 298 442 321 430 L321 460 C307 467 289 472 261 472 C177 472 141 392 141 288 C141 165 177 109 258 109 L258 109 Z " />
<glyph glyph-name="ordfeminine" unicode="&#xaa;" horiz-adv-x="292" d="M207 272 L239 272 L229 332 L229 502 C229 572 199 590 154 590 C127 590 92 584 70 574 L70 543 C89 551 121 559 148 559 C188 559 198 533 198 489 L198 442 L160 442 C95 442 53 412 53 349 C53 297 75 266 119 266 C153 266 182 288 200 310 L207 272 Z M127 294 C102 294 84 308 84 351 C84 400 115 416 160 416 L198 416 L198 336 C179 316 153 294 127 294 L127 294 Z M48 198 L245 198 L245 227 L48 227 L48 198 Z " />
<glyph glyph-name="guillemotleft" unicode="&#xab;" horiz-adv-x="295" d="M107 46 L141 46 L78 226 L140 405 L106 405 L36 226 L107 46 Z M220 46 L254 46 L191 226 L253 405 L219 405 L149 226 L220 46 Z " />
<glyph glyph-name="logicalnot" unicode="&#xac;" horiz-adv-x="373" d="M285 137 L319 137 L319 316 L57 316 L57 282 L285 282 L285 137 Z " />
<glyph glyph-name="registered" unicode="&#xae;" horiz-adv-x="349" d="M174 268 C249 268 308 334 308 454 C308 574 249 642 174 642 C100 642 41 574 41 454 C41 333 101 268 174 268 L174 268 Z M174 284 C111 284 58 340 58 454 C58 569 112 625 174 625 C238 625 292 568 292 453 C292 336 237 284 174 284 L174 284 Z M126 357 L145 357 L145 437 L165 437 C171 437 177 437 182 438 L218 357 L239 357 L200 444 C218 454 229 473 229 500 C229 544 207 562 174 562 L126 562 L126 357 Z M169 544 C197 544 210 530 210 500 C210 460 186 454 163 454 L145 454 L145 544 L169 544 Z " />
<glyph glyph-name="macron" unicode="&#xaf;" horiz-adv-x="250" d="M38 577 L215 577 L215 612 L38 612 L38 577 Z " />
<glyph glyph-name="degree" unicode="&#xb0;" horiz-adv-x="263" d="M130 355 C190 355 223 408 223 474 C223 542 193 592 135 592 C75 592 40 540 40 473 C40 401 71 355 130 355 L130 355 Z M131 383 C94 383 73 416 73 472 C73 528 95 563 133 563 C170 563 190 530 190 473 C190 419 169 383 131 383 L131 383 Z " />
<glyph glyph-name="plusminus" unicode="&#xb1;" horiz-adv-x="375" d="M53 313 L172 313 L172 150 L203 150 L203 313 L323 313 L323 345 L203 345 L203 512 L172 512 L172 345 L53 345 L53 313 Z M52 48 L323 48 L323 82 L52 82 L52 48 Z " />
<glyph glyph-name="twosuperior" unicode="&#xb2;" horiz-adv-x="182" d="M128 622 C128 555 70 486 14 424 L14 400 L163 400 L163 428 L50 428 L50 429 C99 480 158 554 158 624 C158 686 127 712 85 712 C62 712 39 706 20 693 L21 667 C46 683 62 686 80 686 C111 686 128 663 128 622 L128 622 Z " />
<glyph glyph-name="threesuperior" unicode="&#xb3;" horiz-adv-x="172" d="M71 396 C114 396 151 420 151 487 C151 536 122 561 92 563 L92 564 C108 569 140 593 140 643 C140 687 119 712 79 712 C58 712 37 706 20 695 L20 668 C41 682 56 686 74 686 C100 686 111 668 111 638 C111 601 85 572 57 568 L57 548 C98 546 121 528 121 486 C121 449 107 422 72 422 C54 422 37 424 17 433 L17 407 C30 401 47 396 71 396 L71 396 Z " />
<glyph glyph-name="acute" unicode="&#xb4;" horiz-adv-x="211" d="M96 528 L171 671 L133 671 L65 528 L96 528 Z " />
<glyph glyph-name="mu" unicode="&#xb5;" horiz-adv-x="387" d="M56 -207 L93 -207 L93 39 C105 7 129 -6 162 -6 C206 -6 243 30 270 69 C273 18 288 -5 320 -5 C332 -5 347 -4 362 5 L362 33 C349 29 338 28 331 28 C311 28 306 55 306 95 L306 450 L269 450 L269 105 C239 64 202 31 167 31 C112 31 93 71 93 149 L93 450 L56 450 L56 -207 Z " />
<glyph glyph-name="paragraph" unicode="&#xb6;" horiz-adv-x="401" d="M202 -207 L240 -207 L240 548 L305 548 L305 -207 L343 -207 L343 583 L205 583 C94 583 23 506 23 376 C23 235 101 171 202 167 L202 -207 Z " />
<glyph glyph-name="periodcentered" unicode="&#xb7;" horiz-adv-x="149" d="M55 270 L93 270 L93 347 L55 347 L55 270 Z " />
<glyph glyph-name="cedilla" unicode="&#xb8;" horiz-adv-x="207" d="M111 -213 C166 -213 189 -177 189 -135 C189 -89 158 -64 123 -54 L138 8 L110 8 L92 -61 L92 -73 C134 -80 157 -99 157 -134 C157 -164 140 -184 107 -184 C92 -184 68 -177 55 -169 L55 -201 C69 -208 93 -213 111 -213 L111 -213 Z " />
<glyph glyph-name="onesuperior" unicode="&#xb9;" horiz-adv-x="124" d="M89 400 L89 711 L68 711 L6 687 L6 662 L60 680 L60 400 L89 400 Z " />
<glyph glyph-name="ordmasculine" unicode="&#xba;" horiz-adv-x="297" d="M149 268 C214 268 246 341 246 429 C246 541 217 590 152 590 C89 590 52 518 52 427 C52 316 86 268 149 268 L149 268 Z M50 198 L247 198 L247 227 L50 227 L50 198 Z M149 296 C108 296 85 330 85 428 C85 512 109 562 150 562 C199 562 214 517 214 428 C214 346 191 296 149 296 L149 296 Z " />
<glyph glyph-name="guillemotright" unicode="&#xbb;" horiz-adv-x="296" d="M74 408 L40 408 L103 228 L41 49 L75 49 L145 228 L74 408 Z M189 408 L155 408 L218 228 L156 49 L190 49 L260 228 L189 408 Z " />
<glyph glyph-name="onequarter" unicode="&#xbc;" horiz-adv-x="421" d="M108 266 L108 577 L87 577 L25 553 L25 528 L79 546 L79 266 L108 266 Z M334 0 L362 0 L362 84 L392 84 L392 108 L362 108 L362 311 L332 311 L234 109 L234 84 L334 84 L334 0 Z M259 108 L332 264 L334 264 L334 108 L259 108 Z M99 0 L336 560 L336 563 L311 563 L74 3 L74 0 L99 0 Z " />
<glyph glyph-name="onehalf" unicode="&#xbd;" horiz-adv-x="432" d="M109 266 L109 577 L88 577 L26 553 L26 528 L80 546 L80 266 L109 266 Z M363 222 C363 155 305 86 249 24 L249 0 L398 0 L398 28 L285 28 L285 29 C334 80 393 154 393 224 C393 286 362 312 320 312 C297 312 274 306 255 293 L256 267 C281 283 297 286 315 286 C346 286 363 263 363 222 L363 222 Z M89 0 L326 560 L326 563 L301 563 L64 3 L64 0 L89 0 Z " />
<glyph glyph-name="threequarters" unicode="&#xbe;" horiz-adv-x="431" d="M91 266 C134 266 171 290 171 357 C171 406 142 431 112 433 L112 434 C128 439 160 463 160 513 C160 557 139 582 99 582 C78 582 57 576 40 565 L40 538 C61 552 76 556 94 556 C120 556 131 538 131 508 C131 471 105 442 77 438 L77 418 C118 416 141 398 141 356 C141 319 127 292 92 292 C74 292 57 294 37 303 L37 277 C50 271 67 266 91 266 L91 266 Z M343 0 L371 0 L371 84 L401 84 L401 108 L371 108 L371 311 L341 311 L243 109 L243 84 L343 84 L343 0 Z M268 108 L341 264 L343 264 L343 108 L268 108 Z M116 0 L353 560 L353 563 L328 563 L91 3 L91 0 L116 0 Z " />
<glyph glyph-name="questiondown" unicode="&#xbf;" horiz-adv-x="264" d="M170 262 L137 262 L137 183 C102 164 28 114 28 1 C28 -100 74 -139 144 -139 C172 -139 207 -133 234 -118 L234 -82 C206 -97 175 -104 148 -104 C98 -104 67 -72 67 4 C67 110 141 151 170 167 L170 262 Z M176 453 L134 453 L134 346 L176 346 L176 453 Z " />
<glyph glyph-name="Agrave" unicode="&#xc0;" horiz-adv-x="365" d="M13 0 L52 0 L101 194 L258 194 L299 0 L340 0 L209 583 L166 583 L13 0 Z M144 365 L186 534 L189 534 L222 365 L250 230 L110 230 L144 365 Z M206 630 L146 731 L107 731 L173 630 L206 630 Z " />
<glyph glyph-name="Aacute" unicode="&#xc1;" horiz-adv-x="365" d="M13 0 L52 0 L101 194 L258 194 L299 0 L340 0 L209 583 L166 583 L13 0 Z M144 365 L186 534 L189 534 L222 365 L250 230 L110 230 L144 365 Z M201 630 L267 731 L228 731 L168 630 L201 630 Z " />
<glyph glyph-name="Acircumflex" unicode="&#xc2;" horiz-adv-x="365" d="M13 0 L52 0 L101 194 L258 194 L299 0 L340 0 L209 583 L166 583 L13 0 Z M144 365 L186 534 L189 534 L222 365 L250 230 L110 230 L144 365 Z M173 733 L100 628 L135 628 L188 705 L190 705 L242 628 L276 628 L206 733 L173 733 Z " />
<glyph glyph-name="Atilde" unicode="&#xc3;" horiz-adv-x="365" d="M13 0 L52 0 L101 194 L258 194 L299 0 L340 0 L209 583 L166 583 L13 0 Z M144 365 L186 534 L189 534 L222 365 L250 230 L110 230 L144 365 Z M273 712 C265 690 250 679 232 679 C206 679 186 712 150 712 C125 712 104 695 91 672 L106 650 C119 670 131 680 149 680 C179 680 199 647 232 647 C257 647 278 662 289 691 L273 712 Z " />
<glyph glyph-name="Adieresis" unicode="&#xc4;" horiz-adv-x="365" d="M13 0 L52 0 L101 194 L258 194 L299 0 L340 0 L209 583 L166 583 L13 0 Z M144 365 L186 534 L189 534 L222 365 L250 230 L110 230 L144 365 Z M106 639 L144 639 L144 716 L106 716 L106 639 Z M234 639 L272 639 L272 716 L234 716 L234 639 Z " />
<glyph glyph-name="Aring" unicode="&#xc5;" horiz-adv-x="365" d="M13 0 L52 0 L101 194 L258 194 L299 0 L340 0 L209 583 L166 583 L13 0 Z M144 365 L186 534 L189 534 L222 365 L250 230 L110 230 L144 365 Z M189 764 C157 764 128 740 128 691 C128 642 153 617 189 617 C224 617 249 643 249 691 C249 741 222 764 189 764 L189 764 Z M189 740 C209 740 223 723 223 691 C223 661 212 641 189 641 C165 641 154 660 154 691 C154 722 168 740 189 740 L189 740 Z " />
<glyph glyph-name="AE" unicode="&#xc6;" horiz-adv-x="523" d="M248 0 L492 0 L492 36 L288 36 L288 283 L457 283 L457 318 L288 318 L288 547 L488 547 L488 583 L227 583 L7 0 L46 0 L118 194 L248 194 L248 0 Z M247 543 L248 543 L248 230 L131 230 L247 543 Z " />
<glyph glyph-name="Ccedilla" unicode="&#xc7;" horiz-adv-x="363" d="M212 -213 C267 -213 290 -177 290 -135 C290 -89 259 -64 224 -54 L235 -6 C276 -5 310 4 331 16 L331 53 C298 36 271 31 236 31 C135 31 83 105 83 292 C83 467 137 554 236 554 C265 554 293 550 331 531 L331 571 C308 581 279 590 235 590 C97 590 40 464 40 287 C40 109 86 6 207 -5 L193 -61 L193 -73 C235 -80 258 -99 258 -134 C258 -164 241 -184 208 -184 C193 -184 169 -177 156 -169 L156 -201 C170 -208 194 -213 212 -213 L212 -213 Z " />
<glyph glyph-name="Egrave" unicode="&#xc8;" horiz-adv-x="337" d="M61 0 L306 0 L306 36 L101 36 L101 283 L270 283 L270 318 L101 318 L101 547 L301 547 L301 583 L61 583 L61 0 Z M223 630 L163 731 L124 731 L190 630 L223 630 Z " />
<glyph glyph-name="Eacute" unicode="&#xc9;" horiz-adv-x="337" d="M61 0 L306 0 L306 36 L101 36 L101 283 L270 283 L270 318 L101 318 L101 547 L301 547 L301 583 L61 583 L61 0 Z M176 630 L242 731 L203 731 L143 630 L176 630 Z " />
<glyph glyph-name="Ecircumflex" unicode="&#xca;" horiz-adv-x="337" d="M61 0 L306 0 L306 36 L101 36 L101 283 L270 283 L270 318 L101 318 L101 547 L301 547 L301 583 L61 583 L61 0 Z M169 732 L96 627 L131 627 L184 704 L186 704 L238 627 L272 627 L202 732 L169 732 Z " />
<glyph glyph-name="Edieresis" unicode="&#xcb;" horiz-adv-x="337" d="M61 0 L306 0 L306 36 L101 36 L101 283 L270 283 L270 318 L101 318 L101 547 L301 547 L301 583 L61 583 L61 0 Z M229 640 L267 640 L267 717 L229 717 L229 640 Z M101 640 L139 640 L139 717 L101 717 L101 640 Z " />
<glyph glyph-name="Igrave" unicode="&#xcc;" horiz-adv-x="162" d="M98 630 L38 731 L-1 731 L65 630 L98 630 Z M61 0 L101 0 L101 583 L61 583 L61 0 Z " />
<glyph glyph-name="Iacute" unicode="&#xcd;" horiz-adv-x="162" d="M61 0 L101 0 L101 583 L61 583 L61 0 Z M92 630 L158 731 L119 731 L59 630 L92 630 Z " />
<glyph glyph-name="Icircumflex" unicode="&#xce;" horiz-adv-x="162" d="M61 0 L101 0 L101 583 L61 583 L61 0 Z M65 732 L-8 627 L27 627 L80 704 L82 704 L134 627 L168 627 L98 732 L65 732 Z " />
<glyph glyph-name="Idieresis" unicode="&#xcf;" horiz-adv-x="162" d="M61 0 L101 0 L101 583 L61 583 L61 0 Z M-1 640 L37 640 L37 717 L-1 717 L-1 640 Z M127 640 L165 640 L165 717 L127 717 L127 640 Z " />
<glyph glyph-name="Eth" unicode="&#xd0;" horiz-adv-x="430" d="M16 283 L62 283 L62 0 L165 0 C302 0 391 101 391 302 C391 517 291 583 162 583 L62 583 L62 317 L16 317 L16 283 Z M206 283 L206 317 L102 317 L102 547 L157 547 C264 547 350 500 350 299 C350 113 273 36 166 36 L102 36 L102 283 L206 283 Z " />
<glyph glyph-name="Ntilde" unicode="&#xd1;" horiz-adv-x="441" d="M308 712 C300 690 285 679 267 679 C241 679 221 712 185 712 C160 712 139 695 126 672 L141 650 C154 670 166 680 184 680 C214 680 234 647 267 647 C292 647 313 662 324 691 L308 712 Z M61 0 L101 0 L100 503 L101 503 L337 0 L380 0 L380 583 L341 583 L342 83 L340 83 L103 583 L61 583 L61 0 Z " />
<glyph glyph-name="Ograve" unicode="&#xd2;" horiz-adv-x="437" d="M236 630 L176 731 L137 731 L203 630 L236 630 Z M214 -6 C347 -6 396 121 396 307 C396 458 355 590 225 590 C91 590 39 458 39 282 C39 112 87 -6 214 -6 L214 -6 Z M217 30 C130 30 82 112 82 287 C82 479 136 554 223 554 C306 554 355 475 355 302 C355 119 308 30 217 30 L217 30 Z " />
<glyph glyph-name="Oacute" unicode="&#xd3;" horiz-adv-x="437" d="M218 630 L284 731 L245 731 L185 630 L218 630 Z M214 -6 C347 -6 396 121 396 307 C396 458 355 590 225 590 C91 590 39 458 39 282 C39 112 87 -6 214 -6 L214 -6 Z M217 30 C130 30 82 112 82 287 C82 479 136 554 223 554 C306 554 355 475 355 302 C355 119 308 30 217 30 L217 30 Z " />
<glyph glyph-name="Ocircumflex" unicode="&#xd4;" horiz-adv-x="437" d="M214 -6 C347 -6 396 121 396 307 C396 458 355 590 225 590 C91 590 39 458 39 282 C39 112 87 -6 214 -6 L214 -6 Z M217 30 C130 30 82 112 82 287 C82 479 136 554 223 554 C306 554 355 475 355 302 C355 119 308 30 217 30 L217 30 Z M206 733 L133 628 L168 628 L221 705 L223 705 L275 628 L309 628 L239 733 L206 733 Z " />
<glyph glyph-name="Otilde" unicode="&#xd5;" horiz-adv-x="437" d="M303 711 C295 689 280 678 262 678 C236 678 216 711 180 711 C155 711 134 694 121 671 L136 649 C149 669 161 679 179 679 C209 679 229 646 262 646 C287 646 308 661 319 690 L303 711 Z M214 -6 C347 -6 396 121 396 307 C396 458 355 590 225 590 C91 590 39 458 39 282 C39 112 87 -6 214 -6 L214 -6 Z M217 30 C130 30 82 112 82 287 C82 479 136 554 223 554 C306 554 355 475 355 302 C355 119 308 30 217 30 L217 30 Z " />
<glyph glyph-name="Odieresis" unicode="&#xd6;" horiz-adv-x="437" d="M135 639 L173 639 L173 716 L135 716 L135 639 Z M263 639 L301 639 L301 716 L263 716 L263 639 Z M214 -6 C347 -6 396 121 396 307 C396 458 355 590 225 590 C91 590 39 458 39 282 C39 112 87 -6 214 -6 L214 -6 Z M217 30 C130 30 82 112 82 287 C82 479 136 554 223 554 C306 554 355 475 355 302 C355 119 308 30 217 30 L217 30 Z " />
<glyph glyph-name="multiply" unicode="&#xd7;" horiz-adv-x="343" d="M67 126 L172 271 L277 126 L301 143 L190 297 L301 450 L276 468 L172 323 L67 469 L42 450 L153 297 L42 143 L67 126 Z " />
<glyph glyph-name="Oslash" unicode="&#xd8;" horiz-adv-x="437" d="M214 -6 C347 -6 396 121 396 307 C396 382 386 453 359 505 L409 590 L374 590 L341 534 C315 569 277 590 225 590 C91 590 39 458 39 282 C39 198 51 128 77 77 L29 -6 L63 -6 L95 49 C122 14 161 -6 214 -6 L214 -6 Z M82 287 C82 479 136 554 223 554 C264 554 296 535 319 495 L104 123 C89 163 82 218 82 287 L82 287 Z M217 30 C174 30 141 49 118 90 L334 461 C347 421 355 368 355 302 C355 119 308 30 217 30 L217 30 Z " />
<glyph glyph-name="Ugrave" unicode="&#xd9;" horiz-adv-x="424" d="M237 630 L177 731 L138 731 L204 630 L237 630 Z M215 -6 C294 -6 367 45 367 219 L367 583 L327 583 L327 215 C327 84 287 31 217 31 C144 31 98 68 98 202 L98 583 L57 583 L57 196 C57 34 131 -6 215 -6 L215 -6 Z " />
<glyph glyph-name="Uacute" unicode="&#xda;" horiz-adv-x="424" d="M213 630 L279 731 L240 731 L180 630 L213 630 Z M215 -6 C294 -6 367 45 367 219 L367 583 L327 583 L327 215 C327 84 287 31 217 31 C144 31 98 68 98 202 L98 583 L57 583 L57 196 C57 34 131 -6 215 -6 L215 -6 Z " />
<glyph glyph-name="Ucircumflex" unicode="&#xdb;" horiz-adv-x="424" d="M215 -6 C294 -6 367 45 367 219 L367 583 L327 583 L327 215 C327 84 287 31 217 31 C144 31 98 68 98 202 L98 583 L57 583 L57 196 C57 34 131 -6 215 -6 L215 -6 Z M201 732 L128 627 L163 627 L216 704 L218 704 L270 627 L304 627 L234 732 L201 732 Z " />
<glyph glyph-name="Udieresis" unicode="&#xdc;" horiz-adv-x="424" d="M133 639 L171 639 L171 716 L133 716 L133 639 Z M261 639 L299 639 L299 716 L261 716 L261 639 Z M215 -6 C294 -6 367 45 367 219 L367 583 L327 583 L327 215 C327 84 287 31 217 31 C144 31 98 68 98 202 L98 583 L57 583 L57 196 C57 34 131 -6 215 -6 L215 -6 Z " />
<glyph glyph-name="Yacute" unicode="&#xdd;" horiz-adv-x="356" d="M343 583 L303 583 L224 373 L181 259 L179 259 L135 373 L54 583 L13 583 L157 221 L157 0 L198 0 L198 215 L343 583 Z M190 630 L256 731 L217 731 L157 630 L190 630 Z " />
<glyph glyph-name="Thorn" unicode="&#xde;" horiz-adv-x="349" d="M61 0 L101 0 L101 117 L151 117 C270 117 320 200 320 304 C320 427 268 484 177 484 L101 484 L101 583 L61 583 L61 0 Z M166 448 C243 448 278 398 278 303 C278 180 212 153 147 152 L101 152 L101 448 L166 448 Z " />
<glyph glyph-name="germandbls" unicode="&#xdf;" horiz-adv-x="372" d="M188 660 C114 660 53 614 53 499 L53 0 L91 0 L91 497 C91 595 134 624 185 624 C240 624 266 587 266 527 C266 445 162 415 162 331 C162 269 194 242 240 221 C286 199 313 179 313 123 C313 64 288 30 236 30 C212 30 189 32 159 44 L159 6 C186 -3 205 -6 234 -6 C302 -6 348 35 348 124 C348 191 319 223 273 244 C223 268 199 285 199 333 C199 408 305 433 305 532 C305 612 267 660 188 660 L188 660 Z " />
<glyph glyph-name="agrave" unicode="&#xe0;" horiz-adv-x="325" d="M247 0 L286 0 L272 84 L272 349 C272 433 234 458 170 458 C131 458 81 449 51 436 L51 400 C79 412 126 422 163 422 C218 422 234 394 234 337 L234 242 L178 242 C92 242 29 208 29 112 C29 38 58 -6 123 -6 C170 -6 211 23 238 55 L247 0 Z M129 29 C91 29 68 48 68 115 C68 193 113 211 175 211 L234 211 L234 88 C205 55 168 29 129 29 L129 29 Z M195 527 L126 670 L88 670 L162 527 L195 527 Z " />
<glyph glyph-name="aacute" unicode="&#xe1;" horiz-adv-x="325" d="M247 0 L286 0 L272 84 L272 349 C272 433 234 458 170 458 C131 458 81 449 51 436 L51 400 C79 412 126 422 163 422 C218 422 234 394 234 337 L234 242 L178 242 C92 242 29 208 29 112 C29 38 58 -6 123 -6 C170 -6 211 23 238 55 L247 0 Z M129 29 C91 29 68 48 68 115 C68 193 113 211 175 211 L234 211 L234 88 C205 55 168 29 129 29 L129 29 Z M171 528 L246 671 L208 671 L140 528 L171 528 Z " />
<glyph glyph-name="acircumflex" unicode="&#xe2;" horiz-adv-x="325" d="M247 0 L286 0 L272 84 L272 349 C272 433 234 458 170 458 C131 458 81 449 51 436 L51 400 C79 412 126 422 163 422 C218 422 234 394 234 337 L234 242 L178 242 C92 242 29 208 29 112 C29 38 58 -6 123 -6 C170 -6 211 23 238 55 L247 0 Z M129 29 C91 29 68 48 68 115 C68 193 113 211 175 211 L234 211 L234 88 C205 55 168 29 129 29 L129 29 Z M148 668 L71 528 L107 528 L161 639 L164 639 L218 528 L252 528 L180 668 L148 668 Z " />
<glyph glyph-name="atilde" unicode="&#xe3;" horiz-adv-x="325" d="M247 0 L286 0 L272 84 L272 349 C272 433 234 458 170 458 C131 458 81 449 51 436 L51 400 C79 412 126 422 163 422 C218 422 234 394 234 337 L234 242 L178 242 C92 242 29 208 29 112 C29 38 58 -6 123 -6 C170 -6 211 23 238 55 L247 0 Z M129 29 C91 29 68 48 68 115 C68 193 113 211 175 211 L234 211 L234 88 C205 55 168 29 129 29 L129 29 Z M245 623 C236 600 221 590 204 590 C177 590 151 623 116 623 C90 623 71 606 56 584 L72 563 C85 583 97 592 115 592 C144 592 170 559 204 559 C228 559 249 575 261 604 L245 623 Z " />
<glyph glyph-name="adieresis" unicode="&#xe4;" horiz-adv-x="325" d="M247 0 L286 0 L272 84 L272 349 C272 433 234 458 170 458 C131 458 81 449 51 436 L51 400 C79 412 126 422 163 422 C218 422 234 394 234 337 L234 242 L178 242 C92 242 29 208 29 112 C29 38 58 -6 123 -6 C170 -6 211 23 238 55 L247 0 Z M129 29 C91 29 68 48 68 115 C68 193 113 211 175 211 L234 211 L234 88 C205 55 168 29 129 29 L129 29 Z M78 573 L116 573 L116 650 L78 650 L78 573 Z M206 573 L244 573 L244 650 L206 650 L206 573 Z " />
<glyph glyph-name="aring" unicode="&#xe5;" horiz-adv-x="325" d="M247 0 L286 0 L272 84 L272 349 C272 433 234 458 170 458 C131 458 81 449 51 436 L51 400 C79 412 126 422 163 422 C218 422 234 394 234 337 L234 242 L178 242 C92 242 29 208 29 112 C29 38 58 -6 123 -6 C170 -6 211 23 238 55 L247 0 Z M129 29 C91 29 68 48 68 115 C68 193 113 211 175 211 L234 211 L234 88 C205 55 168 29 129 29 L129 29 Z M162 678 C128 678 97 651 97 600 C97 549 124 521 162 521 C200 521 227 550 227 600 C227 653 198 678 162 678 L162 678 Z M162 653 C185 653 202 635 202 600 C202 567 189 545 162 545 C136 545 122 567 122 600 C122 634 140 653 162 653 L162 653 Z " />
<glyph glyph-name="ae" unicode="&#xe6;" horiz-adv-x="538" d="M385 -6 C433 -6 467 1 497 18 L497 51 C463 35 428 29 391 29 C316 29 272 83 271 217 L502 217 L502 245 C502 369 471 459 374 459 C324 459 289 432 266 388 C255 441 220 459 170 459 C133 459 83 450 51 437 L51 401 C79 413 126 423 163 423 C217 423 234 395 234 338 L234 245 L178 245 C91 245 29 210 29 113 C29 41 58 -6 123 -6 C185 -6 232 34 260 68 C285 18 327 -6 385 -6 L385 -6 Z M373 424 C446 424 462 338 462 255 L462 248 L271 248 C276 365 310 424 373 424 L373 424 Z M129 29 C91 29 68 50 68 117 C68 195 113 214 175 214 L234 214 C234 167 239 127 249 96 C221 63 179 29 129 29 L129 29 Z " />
<glyph glyph-name="ccedilla" unicode="&#xe7;" horiz-adv-x="299" d="M170 -213 C225 -213 248 -177 248 -135 C248 -89 217 -64 182 -54 L193 -5 C221 -4 245 3 267 15 L267 48 C241 36 215 29 187 29 C123 29 76 76 76 224 C76 353 117 422 190 422 C216 422 238 419 267 404 L267 443 C242 455 217 458 188 458 C86 458 36 363 36 221 C36 81 76 1 165 -5 L151 -61 L151 -73 C193 -80 216 -99 216 -134 C216 -164 199 -184 166 -184 C151 -184 127 -177 114 -169 L114 -201 C128 -208 152 -213 170 -213 L170 -213 Z " />
<glyph glyph-name="egrave" unicode="&#xe8;" horiz-adv-x="342" d="M190 -6 C238 -6 272 2 302 18 L302 52 C267 35 232 29 195 29 C117 29 75 81 75 217 L305 217 L305 244 C305 369 275 458 178 458 C78 458 36 357 36 216 C36 62 86 -6 190 -6 L190 -6 Z M176 423 C250 423 266 336 266 254 L266 249 L75 249 C80 365 115 423 176 423 L176 423 Z M205 528 L136 671 L98 671 L172 528 L205 528 Z " />
<glyph glyph-name="eacute" unicode="&#xe9;" horiz-adv-x="342" d="M190 -6 C238 -6 272 2 302 18 L302 52 C267 35 232 29 195 29 C117 29 75 81 75 217 L305 217 L305 244 C305 369 275 458 178 458 C78 458 36 357 36 216 C36 62 86 -6 190 -6 L190 -6 Z M176 423 C250 423 266 336 266 254 L266 249 L75 249 C80 365 115 423 176 423 L176 423 Z M182 528 L257 671 L219 671 L151 528 L182 528 Z " />
<glyph glyph-name="ecircumflex" unicode="&#xea;" horiz-adv-x="342" d="M190 -6 C238 -6 272 2 302 18 L302 52 C267 35 232 29 195 29 C117 29 75 81 75 217 L305 217 L305 244 C305 369 275 458 178 458 C78 458 36 357 36 216 C36 62 86 -6 190 -6 L190 -6 Z M176 423 C250 423 266 336 266 254 L266 249 L75 249 C80 365 115 423 176 423 L176 423 Z M166 668 L89 528 L125 528 L179 639 L182 639 L236 528 L270 528 L198 668 L166 668 Z " />
<glyph glyph-name="edieresis" unicode="&#xeb;" horiz-adv-x="342" d="M190 -6 C238 -6 272 2 302 18 L302 52 C267 35 232 29 195 29 C117 29 75 81 75 217 L305 217 L305 244 C305 369 275 458 178 458 C78 458 36 357 36 216 C36 62 86 -6 190 -6 L190 -6 Z M176 423 C250 423 266 336 266 254 L266 249 L75 249 C80 365 115 423 176 423 L176 423 Z M221 573 L259 573 L259 650 L221 650 L221 573 Z M93 573 L131 573 L131 650 L93 650 L93 573 Z " />
<glyph glyph-name="igrave" unicode="&#xec;" horiz-adv-x="159" d="M17 415 L68 415 L68 0 L106 0 L106 450 L17 450 L17 415 Z M111 528 L42 671 L4 671 L78 528 L111 528 Z " />
<glyph glyph-name="iacute" unicode="&#xed;" horiz-adv-x="159" d="M17 415 L68 415 L68 0 L106 0 L106 450 L17 450 L17 415 Z M91 528 L166 671 L128 671 L60 528 L91 528 Z " />
<glyph glyph-name="icircumflex" unicode="&#xee;" horiz-adv-x="159" d="M17 415 L68 415 L68 0 L106 0 L106 450 L17 450 L17 415 Z M68 668 L-9 528 L27 528 L81 639 L84 639 L138 528 L172 528 L100 668 L68 668 Z " />
<glyph glyph-name="idieresis" unicode="&#xef;" horiz-adv-x="159" d="M17 415 L68 415 L68 0 L106 0 L106 450 L17 450 L17 415 Z M131 573 L169 573 L169 650 L131 650 L131 573 Z M3 573 L41 573 L41 650 L3 650 L3 573 Z " />
<glyph glyph-name="eth" unicode="&#xf0;" horiz-adv-x="353" d="M143 515 L199 563 C222 531 239 491 254 434 C232 453 206 460 179 460 C100 460 34 375 34 223 C34 62 86 -8 171 -8 C263 -8 310 101 310 229 C310 363 295 487 224 585 L288 641 L269 662 L206 607 C186 630 164 651 137 670 L114 645 C141 624 163 606 181 585 L124 536 L143 515 Z M271 224 C271 107 237 27 172 27 C110 27 74 78 74 224 C74 344 114 425 181 425 C209 425 235 415 261 393 C266 348 271 282 271 224 L271 224 Z " />
<glyph glyph-name="ntilde" unicode="&#xf1;" horiz-adv-x="369" d="M55 0 L93 0 L93 351 C123 386 166 422 213 422 C273 422 280 385 280 312 L280 0 L318 0 L318 322 C318 421 293 458 223 458 C167 458 118 420 88 385 L79 450 L41 450 L55 349 L55 0 Z M270 623 C261 600 246 590 229 590 C202 590 176 623 141 623 C115 623 96 606 81 584 L97 563 C110 583 122 592 140 592 C169 592 195 559 229 559 C253 559 274 575 286 604 L270 623 Z " />
<glyph glyph-name="ograve" unicode="&#xf2;" horiz-adv-x="347" d="M173 -6 C266 -6 312 103 312 227 C312 390 272 458 177 458 C87 458 36 357 36 224 C36 61 85 -6 173 -6 L173 -6 Z M174 29 C108 29 75 83 75 225 C75 348 110 423 175 423 C253 423 272 355 272 225 C272 106 242 29 174 29 L174 29 Z M197 528 L128 671 L90 671 L164 528 L197 528 Z " />
<glyph glyph-name="oacute" unicode="&#xf3;" horiz-adv-x="347" d="M182 528 L257 671 L219 671 L151 528 L182 528 Z M173 -6 C266 -6 312 103 312 227 C312 390 272 458 177 458 C87 458 36 357 36 224 C36 61 85 -6 173 -6 L173 -6 Z M174 29 C108 29 75 83 75 225 C75 348 110 423 175 423 C253 423 272 355 272 225 C272 106 242 29 174 29 L174 29 Z " />
<glyph glyph-name="ocircumflex" unicode="&#xf4;" horiz-adv-x="347" d="M162 663 L85 523 L121 523 L175 634 L178 634 L232 523 L266 523 L194 663 L162 663 Z M173 -6 C266 -6 312 103 312 227 C312 390 272 458 177 458 C87 458 36 357 36 224 C36 61 85 -6 173 -6 L173 -6 Z M174 29 C108 29 75 83 75 225 C75 348 110 423 175 423 C253 423 272 355 272 225 C272 106 242 29 174 29 L174 29 Z " />
<glyph glyph-name="otilde" unicode="&#xf5;" horiz-adv-x="347" d="M173 -6 C266 -6 312 103 312 227 C312 390 272 458 177 458 C87 458 36 357 36 224 C36 61 85 -6 173 -6 L173 -6 Z M174 29 C108 29 75 83 75 225 C75 348 110 423 175 423 C253 423 272 355 272 225 C272 106 242 29 174 29 L174 29 Z M262 623 C253 600 238 590 221 590 C194 590 168 623 133 623 C107 623 88 606 73 584 L89 563 C102 583 114 592 132 592 C161 592 187 559 221 559 C245 559 266 575 278 604 L262 623 Z " />
<glyph glyph-name="odieresis" unicode="&#xf6;" horiz-adv-x="347" d="M96 573 L134 573 L134 650 L96 650 L96 573 Z M224 573 L262 573 L262 650 L224 650 L224 573 Z M173 -6 C266 -6 312 103 312 227 C312 390 272 458 177 458 C87 458 36 357 36 224 C36 61 85 -6 173 -6 L173 -6 Z M174 29 C108 29 75 83 75 225 C75 348 110 423 175 423 C253 423 272 355 272 225 C272 106 242 29 174 29 L174 29 Z " />
<glyph glyph-name="divide" unicode="&#xf7;" horiz-adv-x="372" d="M49 278 L323 278 L323 312 L49 312 L49 278 Z M167 406 L205 406 L205 483 L167 483 L167 406 Z M167 101 L205 101 L205 178 L167 178 L167 101 Z " />
<glyph glyph-name="oslash" unicode="&#xf8;" horiz-adv-x="348" d="M173 -6 C266 -6 312 103 312 227 C312 301 303 356 285 394 L323 459 L292 459 L269 419 C248 445 217 458 177 458 C87 458 36 357 36 224 C36 151 46 98 64 61 L26 -6 L56 -6 L80 36 C103 7 134 -6 173 -6 L173 -6 Z M75 225 C75 348 110 423 175 423 C210 423 233 409 248 382 L88 102 C79 132 75 173 75 225 L75 225 Z M174 29 C141 29 117 42 101 72 L260 350 C269 319 272 276 272 225 C272 106 242 29 174 29 L174 29 Z " />
<glyph glyph-name="ugrave" unicode="&#xf9;" horiz-adv-x="363" d="M307 450 L270 450 L270 101 C239 65 203 29 160 29 C101 29 89 65 89 138 L89 450 L51 450 L51 129 C51 30 79 -7 149 -7 C200 -7 244 29 274 66 L283 0 L321 0 L307 102 L307 450 Z M210 528 L141 671 L103 671 L177 528 L210 528 Z " />
<glyph glyph-name="uacute" unicode="&#xfa;" horiz-adv-x="363" d="M307 450 L270 450 L270 101 C239 65 203 29 160 29 C101 29 89 65 89 138 L89 450 L51 450 L51 129 C51 30 79 -7 149 -7 C200 -7 244 29 274 66 L283 0 L321 0 L307 102 L307 450 Z M181 528 L256 671 L218 671 L150 528 L181 528 Z " />
<glyph glyph-name="ucircumflex" unicode="&#xfb;" horiz-adv-x="363" d="M307 450 L270 450 L270 101 C239 65 203 29 160 29 C101 29 89 65 89 138 L89 450 L51 450 L51 129 C51 30 79 -7 149 -7 C200 -7 244 29 274 66 L283 0 L321 0 L307 102 L307 450 Z M167 668 L90 528 L126 528 L180 639 L183 639 L237 528 L271 528 L199 668 L167 668 Z " />
<glyph glyph-name="udieresis" unicode="&#xfc;" horiz-adv-x="363" d="M307 450 L270 450 L270 101 C239 65 203 29 160 29 C101 29 89 65 89 138 L89 450 L51 450 L51 129 C51 30 79 -7 149 -7 C200 -7 244 29 274 66 L283 0 L321 0 L307 102 L307 450 Z M221 573 L259 573 L259 650 L221 650 L221 573 Z M93 573 L131 573 L131 650 L93 650 L93 573 Z " />
<glyph glyph-name="yacute" unicode="&#xfd;" horiz-adv-x="313" d="M125 -207 L180 5 L295 450 L255 450 L187 177 L157 46 L154 46 L126 175 L62 450 L21 450 L129 0 L142 0 L85 -204 L87 -207 L125 -207 Z M163 528 L238 671 L200 671 L132 528 L163 528 Z " />
<glyph glyph-name="thorn" unicode="&#xfe;" horiz-adv-x="354" d="M53 -207 L91 -207 L91 4 C111 -3 135 -6 161 -6 C252 -6 317 51 317 241 C317 393 278 458 198 458 C155 458 119 432 91 401 L91 653 L53 653 L53 -207 Z M188 423 C251 423 278 371 278 237 C278 92 241 29 162 29 C138 29 113 32 91 40 L91 364 C116 393 149 423 188 423 L188 423 Z " />
<glyph glyph-name="ydieresis" unicode="&#xff;" horiz-adv-x="313" d="M125 -207 L180 5 L295 450 L255 450 L187 177 L157 46 L154 46 L126 175 L62 450 L21 450 L129 0 L142 0 L85 -204 L87 -207 L125 -207 Z M205 574 L243 574 L243 651 L205 651 L205 574 Z M77 574 L115 574 L115 651 L77 651 L77 574 Z " />
<glyph glyph-name="Amacron" unicode="&#x100;" horiz-adv-x="365" d="M13 0 L52 0 L101 194 L258 194 L299 0 L340 0 L209 583 L166 583 L13 0 Z M144 365 L186 534 L189 534 L222 365 L250 230 L110 230 L144 365 Z M111 663 L270 663 L270 697 L111 697 L111 663 Z " />
<glyph glyph-name="amacron" unicode="&#x101;" horiz-adv-x="325" d="M247 0 L286 0 L272 84 L272 349 C272 433 234 458 170 458 C131 458 81 449 51 436 L51 400 C79 412 126 422 163 422 C218 422 234 394 234 337 L234 242 L178 242 C92 242 29 208 29 112 C29 38 58 -6 123 -6 C170 -6 211 23 238 55 L247 0 Z M129 29 C91 29 68 48 68 115 C68 193 113 211 175 211 L234 211 L234 88 C205 55 168 29 129 29 L129 29 Z M70 577 L247 577 L247 612 L70 612 L70 577 Z " />
<glyph glyph-name="Abreve" unicode="&#x102;" horiz-adv-x="365" d="M13 0 L52 0 L101 194 L258 194 L299 0 L340 0 L209 583 L166 583 L13 0 Z M144 365 L186 534 L189 534 L222 365 L250 230 L110 230 L144 365 Z M189 667 C156 667 137 694 131 729 L104 721 C111 667 141 639 189 639 C237 639 269 667 275 723 L249 730 C244 694 226 667 189 667 L189 667 Z " />
<glyph glyph-name="abreve" unicode="&#x103;" horiz-adv-x="325" d="M247 0 L286 0 L272 84 L272 349 C272 433 234 458 170 458 C131 458 81 449 51 436 L51 400 C79 412 126 422 163 422 C218 422 234 394 234 337 L234 242 L178 242 C92 242 29 208 29 112 C29 38 58 -6 123 -6 C170 -6 211 23 238 55 L247 0 Z M129 29 C91 29 68 48 68 115 C68 193 113 211 175 211 L234 211 L234 88 C205 55 168 29 129 29 L129 29 Z M159 565 C121 565 108 600 101 636 L74 627 C82 573 107 535 159 535 C211 535 238 573 246 629 L219 636 C213 600 200 565 159 565 L159 565 Z " />
<glyph glyph-name="Aogonek" unicode="&#x104;" horiz-adv-x="365" d="M348 -197 L348 -168 C332 -175 315 -179 300 -179 C275 -179 253 -158 253 -121 C253 -76 284 -31 321 0 L340 0 L209 583 L166 583 L13 0 L52 0 L101 194 L258 194 L297 8 C259 -20 218 -71 218 -125 C218 -185 250 -210 293 -210 C311 -210 331 -205 348 -197 L348 -197 Z M144 365 L186 534 L189 534 L222 365 L250 230 L110 230 L144 365 Z " />
<glyph glyph-name="aogonek" unicode="&#x105;" horiz-adv-x="325" d="M295 -197 L295 -168 C279 -175 262 -179 247 -179 C222 -179 200 -158 200 -121 C200 -76 231 -31 268 0 L286 0 L272 84 L272 349 C272 433 234 458 170 458 C131 458 81 449 51 436 L51 400 C79 412 126 422 163 422 C218 422 234 394 234 337 L234 242 L178 242 C92 242 29 208 29 112 C29 38 58 -6 123 -6 C170 -6 211 23 238 55 L245 9 C207 -19 165 -71 165 -125 C165 -185 197 -210 240 -210 C258 -210 278 -205 295 -197 L295 -197 Z M129 29 C91 29 68 48 68 115 C68 193 113 211 175 211 L234 211 L234 88 C205 55 168 29 129 29 L129 29 Z " />
<glyph glyph-name="Cacute" unicode="&#x106;" horiz-adv-x="362" d="M229 -6 C272 -6 308 4 330 16 L330 53 C297 36 270 31 235 31 C134 31 82 105 82 292 C82 467 136 554 235 554 C264 554 292 550 330 531 L330 571 C307 581 278 590 234 590 C96 590 39 464 39 287 C39 98 91 -6 229 -6 L229 -6 Z M226 630 L292 731 L253 731 L193 630 L226 630 Z " />
<glyph glyph-name="cacute" unicode="&#x107;" horiz-adv-x="299" d="M179 528 L254 671 L216 671 L148 528 L179 528 Z M179 -6 C213 -6 242 1 267 15 L267 48 C241 36 215 29 187 29 C123 29 76 76 76 224 C76 353 117 422 190 422 C216 422 238 419 267 404 L267 443 C242 455 217 458 188 458 C86 458 36 363 36 221 C36 74 81 -6 179 -6 L179 -6 Z " />
<glyph glyph-name="Ccircumflex" unicode="&#x108;" horiz-adv-x="362" d="M229 -6 C272 -6 308 4 330 16 L330 53 C297 36 270 31 235 31 C134 31 82 105 82 292 C82 467 136 554 235 554 C264 554 292 550 330 531 L330 571 C307 581 278 590 234 590 C96 590 39 464 39 287 C39 98 91 -6 229 -6 L229 -6 Z M207 732 L134 627 L169 627 L222 704 L224 704 L276 627 L310 627 L240 732 L207 732 Z " />
<glyph glyph-name="ccircumflex" unicode="&#x109;" horiz-adv-x="299" d="M165 668 L88 528 L124 528 L178 639 L181 639 L235 528 L269 528 L197 668 L165 668 Z M179 -6 C213 -6 242 1 267 15 L267 48 C241 36 215 29 187 29 C123 29 76 76 76 224 C76 353 117 422 190 422 C216 422 238 419 267 404 L267 443 C242 455 217 458 188 458 C86 458 36 363 36 221 C36 74 81 -6 179 -6 L179 -6 Z " />
<glyph glyph-name="Cdotaccent" unicode="&#x10a;" horiz-adv-x="362" d="M204 640 L242 640 L242 717 L204 717 L204 640 Z M229 -6 C272 -6 308 4 330 16 L330 53 C297 36 270 31 235 31 C134 31 82 105 82 292 C82 467 136 554 235 554 C264 554 292 550 330 531 L330 571 C307 581 278 590 234 590 C96 590 39 464 39 287 C39 98 91 -6 229 -6 L229 -6 Z " />
<glyph glyph-name="cdotaccent" unicode="&#x10b;" horiz-adv-x="299" d="M179 -6 C213 -6 242 1 267 15 L267 48 C241 36 215 29 187 29 C123 29 76 76 76 224 C76 353 117 422 190 422 C216 422 238 419 267 404 L267 443 C242 455 217 458 188 458 C86 458 36 363 36 221 C36 74 81 -6 179 -6 L179 -6 Z M158 573 L196 573 L196 650 L158 650 L158 573 Z " />
<glyph glyph-name="Ccaron" unicode="&#x10c;" horiz-adv-x="362" d="M229 -6 C272 -6 308 4 330 16 L330 53 C297 36 270 31 235 31 C134 31 82 105 82 292 C82 467 136 554 235 554 C264 554 292 550 330 531 L330 571 C307 581 278 590 234 590 C96 590 39 464 39 287 C39 98 91 -6 229 -6 L229 -6 Z M239 624 L312 729 L277 729 L224 652 L222 652 L170 729 L135 729 L206 624 L239 624 Z " />
<glyph glyph-name="ccaron" unicode="&#x10d;" horiz-adv-x="299" d="M192 528 L266 668 L231 668 L177 559 L175 559 L120 668 L86 668 L159 528 L192 528 Z M179 -6 C213 -6 242 1 267 15 L267 48 C241 36 215 29 187 29 C123 29 76 76 76 224 C76 353 117 422 190 422 C216 422 238 419 267 404 L267 443 C242 455 217 458 188 458 C86 458 36 363 36 221 C36 74 81 -6 179 -6 L179 -6 Z " />
<glyph glyph-name="Dcaron" unicode="&#x10e;" horiz-adv-x="429" d="M61 0 L164 0 C301 0 390 101 390 302 C390 517 290 583 161 583 L61 583 L61 0 Z M156 547 C263 547 349 500 349 299 C349 113 272 36 165 36 L101 36 L101 547 L156 547 Z M196 622 L269 727 L234 727 L181 650 L179 650 L127 727 L92 727 L163 622 L196 622 Z " />
<glyph glyph-name="dcaron" unicode="&#x10f;" horiz-adv-x="359" d="M274 0 L312 0 L298 93 L298 653 L260 653 L260 447 C238 454 214 458 188 458 C95 458 36 379 36 211 C36 67 79 -6 155 -6 C199 -6 237 23 264 59 L274 0 Z M161 31 C100 31 77 101 77 216 C77 355 114 424 189 424 C214 424 238 420 260 411 L260 93 C232 60 200 31 161 31 L161 31 Z M344 487 L373 487 L395 653 L359 653 L344 487 Z " />
<glyph glyph-name="Dcroat" unicode="&#x110;" horiz-adv-x="430" d="M16 283 L62 283 L62 0 L165 0 C302 0 391 101 391 302 C391 517 291 583 162 583 L62 583 L62 317 L16 317 L16 283 Z M206 283 L206 317 L102 317 L102 547 L157 547 C264 547 350 500 350 299 C350 113 273 36 166 36 L102 36 L102 283 L206 283 Z " />
<glyph glyph-name="dcroat" unicode="&#x111;" horiz-adv-x="353" d="M142 551 L260 551 L260 447 C238 454 214 458 188 458 C95 458 36 379 36 211 C36 67 79 -6 155 -6 C199 -6 237 23 264 59 L274 0 L312 0 L298 93 L298 551 L347 551 L347 584 L298 584 L298 653 L260 653 L260 584 L142 584 L142 551 Z M161 31 C100 31 77 101 77 216 C77 355 114 424 189 424 C214 424 238 420 260 411 L260 93 C232 60 200 31 161 31 L161 31 Z " />
<glyph glyph-name="Emacron" unicode="&#x112;" horiz-adv-x="337" d="M61 0 L306 0 L306 36 L101 36 L101 283 L270 283 L270 318 L101 318 L101 547 L301 547 L301 583 L61 583 L61 0 Z M105 664 L264 664 L264 698 L105 698 L105 664 Z " />
<glyph glyph-name="emacron" unicode="&#x113;" horiz-adv-x="342" d="M190 -6 C238 -6 272 2 302 18 L302 52 C267 35 232 29 195 29 C117 29 75 81 75 217 L305 217 L305 244 C305 369 275 458 178 458 C78 458 36 357 36 216 C36 62 86 -6 190 -6 L190 -6 Z M176 423 C250 423 266 336 266 254 L266 249 L75 249 C80 365 115 423 176 423 L176 423 Z M92 577 L269 577 L269 612 L92 612 L92 577 Z " />
<glyph glyph-name="Ebreve" unicode="&#x114;" horiz-adv-x="337" d="M61 0 L306 0 L306 36 L101 36 L101 283 L270 283 L270 318 L101 318 L101 547 L301 547 L301 583 L61 583 L61 0 Z M187 667 C154 667 135 694 129 729 L102 721 C109 667 139 639 187 639 C235 639 267 667 273 723 L247 730 C242 694 224 667 187 667 L187 667 Z " />
<glyph glyph-name="ebreve" unicode="&#x115;" horiz-adv-x="342" d="M190 -6 C238 -6 272 2 302 18 L302 52 C267 35 232 29 195 29 C117 29 75 81 75 217 L305 217 L305 244 C305 369 275 458 178 458 C78 458 36 357 36 216 C36 62 86 -6 190 -6 L190 -6 Z M176 423 C250 423 266 336 266 254 L266 249 L75 249 C80 365 115 423 176 423 L176 423 Z M174 565 C136 565 123 600 116 636 L89 627 C97 573 122 535 174 535 C226 535 253 573 261 629 L234 636 C228 600 215 565 174 565 L174 565 Z " />
<glyph glyph-name="Edotaccent" unicode="&#x116;" horiz-adv-x="337" d="M61 0 L306 0 L306 36 L101 36 L101 283 L270 283 L270 318 L101 318 L101 547 L301 547 L301 583 L61 583 L61 0 Z M168 639 L206 639 L206 716 L168 716 L168 639 Z " />
<glyph glyph-name="edotaccent" unicode="&#x117;" horiz-adv-x="342" d="M190 -6 C238 -6 272 2 302 18 L302 52 C267 35 232 29 195 29 C117 29 75 81 75 217 L305 217 L305 244 C305 369 275 458 178 458 C78 458 36 357 36 216 C36 62 86 -6 190 -6 L190 -6 Z M176 423 C250 423 266 336 266 254 L266 249 L75 249 C80 365 115 423 176 423 L176 423 Z M151 573 L189 573 L189 650 L151 650 L151 573 Z " />
<glyph glyph-name="Eogonek" unicode="&#x118;" horiz-adv-x="337" d="M61 0 L257 0 C222 -29 188 -76 188 -125 C188 -185 220 -210 263 -210 C281 -210 301 -205 318 -197 L318 -168 C302 -175 285 -179 270 -179 C245 -179 223 -158 223 -121 C223 -76 254 -31 291 0 L306 0 L306 36 L101 36 L101 283 L270 283 L270 318 L101 318 L101 547 L301 547 L301 583 L61 583 L61 0 Z " />
<glyph glyph-name="eogonek" unicode="&#x119;" horiz-adv-x="341" d="M190 -6 C197 -6 203 -6 209 -5 C177 -35 147 -79 147 -125 C147 -185 179 -210 222 -210 C240 -210 260 -205 277 -197 L277 -168 C261 -175 244 -179 229 -179 C204 -179 182 -158 182 -121 C182 -76 213 -31 249 0 C269 3 286 9 302 18 L302 52 C267 35 232 29 195 29 C117 29 75 81 75 217 L305 217 L305 244 C305 369 275 458 178 458 C78 458 36 357 36 216 C36 62 86 -6 190 -6 L190 -6 Z M176 423 C250 423 266 336 266 254 L266 249 L75 249 C80 365 115 423 176 423 L176 423 Z " />
<glyph glyph-name="Ecaron" unicode="&#x11a;" horiz-adv-x="337" d="M61 0 L306 0 L306 36 L101 36 L101 283 L270 283 L270 318 L101 318 L101 547 L301 547 L301 583 L61 583 L61 0 Z M198 624 L271 729 L236 729 L183 652 L181 652 L129 729 L94 729 L165 624 L198 624 Z " />
<glyph glyph-name="ecaron" unicode="&#x11b;" horiz-adv-x="342" d="M190 -6 C238 -6 272 2 302 18 L302 52 C267 35 232 29 195 29 C117 29 75 81 75 217 L305 217 L305 244 C305 369 275 458 178 458 C78 458 36 357 36 216 C36 62 86 -6 190 -6 L190 -6 Z M176 423 C250 423 266 336 266 254 L266 249 L75 249 C80 365 115 423 176 423 L176 423 Z M191 528 L265 668 L230 668 L176 559 L174 559 L119 668 L85 668 L158 528 L191 528 Z " />
<glyph glyph-name="Gcircumflex" unicode="&#x11c;" horiz-adv-x="404" d="M231 -6 C277 -6 316 4 358 26 L358 296 L318 296 L318 46 C294 36 271 31 235 31 C143 31 81 89 81 292 C81 470 147 554 243 554 C280 554 317 548 354 529 L355 569 C327 580 294 590 243 590 C105 590 39 457 39 287 C39 99 91 -6 231 -6 L231 -6 Z M221 733 L148 628 L183 628 L236 705 L238 705 L290 628 L324 628 L254 733 L221 733 Z " />
<glyph glyph-name="gcircumflex" unicode="&#x11d;" horiz-adv-x="327" d="M160 176 C233 176 273 249 273 316 C273 357 265 391 248 416 L324 416 L324 447 L224 440 C207 452 186 458 160 458 C81 458 43 393 43 312 C43 246 65 201 111 184 L50 95 L50 66 L99 57 C59 28 18 -14 18 -81 C18 -167 64 -213 152 -213 C251 -213 307 -139 307 -48 C307 30 269 67 187 79 L88 96 L140 177 C146 176 153 176 160 176 L160 176 Z M175 45 C243 34 270 7 270 -53 C270 -127 226 -180 155 -180 C95 -180 55 -152 55 -76 C55 -20 92 22 130 52 L175 45 Z M160 208 C102 208 80 251 81 314 C81 388 106 426 158 426 C210 426 234 387 234 316 C234 251 206 208 160 208 L160 208 Z M144 668 L67 528 L103 528 L157 639 L160 639 L214 528 L248 528 L176 668 L144 668 Z " />
<glyph glyph-name="Gbreve" unicode="&#x11e;" horiz-adv-x="404" d="M231 -6 C277 -6 316 4 358 26 L358 296 L318 296 L318 46 C294 36 271 31 235 31 C143 31 81 89 81 292 C81 470 147 554 243 554 C280 554 317 548 354 529 L355 569 C327 580 294 590 243 590 C105 590 39 457 39 287 C39 99 91 -6 231 -6 L231 -6 Z M233 666 C200 666 181 693 175 728 L148 720 C155 666 185 638 233 638 C281 638 313 666 319 722 L293 729 C288 693 270 666 233 666 L233 666 Z " />
<glyph glyph-name="gbreve" unicode="&#x11f;" horiz-adv-x="327" d="M160 176 C233 176 273 249 273 316 C273 357 265 391 248 416 L324 416 L324 447 L224 440 C207 452 186 458 160 458 C81 458 43 393 43 312 C43 246 65 201 111 184 L50 95 L50 66 L99 57 C59 28 18 -14 18 -81 C18 -167 64 -213 152 -213 C251 -213 307 -139 307 -48 C307 30 269 67 187 79 L88 96 L140 177 C146 176 153 176 160 176 L160 176 Z M175 45 C243 34 270 7 270 -53 C270 -127 226 -180 155 -180 C95 -180 55 -152 55 -76 C55 -20 92 22 130 52 L175 45 Z M160 208 C102 208 80 251 81 314 C81 388 106 426 158 426 C210 426 234 387 234 316 C234 251 206 208 160 208 L160 208 Z M155 565 C117 565 104 600 97 636 L70 627 C78 573 103 535 155 535 C207 535 234 573 242 629 L215 636 C209 600 196 565 155 565 L155 565 Z " />
<glyph glyph-name="Gdotaccent" unicode="&#x120;" horiz-adv-x="404" d="M231 -6 C277 -6 316 4 358 26 L358 296 L318 296 L318 46 C294 36 271 31 235 31 C143 31 81 89 81 292 C81 470 147 554 243 554 C280 554 317 548 354 529 L355 569 C327 580 294 590 243 590 C105 590 39 457 39 287 C39 99 91 -6 231 -6 L231 -6 Z M214 640 L252 640 L252 717 L214 717 L214 640 Z " />
<glyph glyph-name="gdotaccent" unicode="&#x121;" horiz-adv-x="327" d="M160 176 C233 176 273 249 273 316 C273 357 265 391 248 416 L324 416 L324 447 L224 440 C207 452 186 458 160 458 C81 458 43 393 43 312 C43 246 65 201 111 184 L50 95 L50 66 L99 57 C59 28 18 -14 18 -81 C18 -167 64 -213 152 -213 C251 -213 307 -139 307 -48 C307 30 269 67 187 79 L88 96 L140 177 C146 176 153 176 160 176 L160 176 Z M175 45 C243 34 270 7 270 -53 C270 -127 226 -180 155 -180 C95 -180 55 -152 55 -76 C55 -20 92 22 130 52 L175 45 Z M160 208 C102 208 80 251 81 314 C81 388 106 426 158 426 C210 426 234 387 234 316 C234 251 206 208 160 208 L160 208 Z M137 573 L175 573 L175 650 L137 650 L137 573 Z " />
<glyph glyph-name="Gcommaaccent" unicode="&#x122;" horiz-adv-x="404" d="M231 -6 C277 -6 316 4 358 26 L358 296 L318 296 L318 46 C294 36 271 31 235 31 C143 31 81 89 81 292 C81 470 147 554 243 554 C280 554 317 548 354 529 L355 569 C327 580 294 590 243 590 C105 590 39 457 39 287 C39 99 91 -6 231 -6 L231 -6 Z M207 -209 L235 -209 L257 -62 L223 -62 L207 -209 Z " />
<glyph glyph-name="gcommaaccent" unicode="&#x123;" horiz-adv-x="327" d="M160 176 C233 176 273 249 273 316 C273 357 265 391 248 416 L324 416 L324 447 L224 440 C207 452 186 458 160 458 C81 458 43 393 43 312 C43 246 65 201 111 184 L50 95 L50 66 L99 57 C59 28 18 -14 18 -81 C18 -167 64 -213 152 -213 C251 -213 307 -139 307 -48 C307 30 269 67 187 79 L88 96 L140 177 C146 176 153 176 160 176 L160 176 Z M175 45 C243 34 270 7 270 -53 C270 -127 226 -180 155 -180 C95 -180 55 -152 55 -76 C55 -20 92 22 130 52 L175 45 Z M160 208 C102 208 80 251 81 314 C81 388 106 426 158 426 C210 426 234 387 234 316 C234 251 206 208 160 208 L160 208 Z M185 662 L157 662 L135 513 L169 513 L185 662 Z " />
<glyph glyph-name="Hcircumflex" unicode="&#x124;" horiz-adv-x="451" d="M349 0 L389 0 L389 583 L349 583 L349 318 L101 318 L101 583 L61 583 L61 0 L101 0 L101 282 L349 282 L349 0 Z M211 732 L138 627 L173 627 L226 704 L228 704 L280 627 L314 627 L244 732 L211 732 Z " />
<glyph glyph-name="hcircumflex" unicode="&#x125;" horiz-adv-x="367" d="M278 0 L316 0 L316 322 C316 421 292 458 222 458 C168 458 122 425 91 392 L91 653 L53 653 L53 0 L91 0 L91 354 C121 388 164 422 210 422 C270 422 278 384 278 311 L278 0 Z M58 779 L-15 674 L20 674 L73 751 L75 751 L127 674 L161 674 L91 779 L58 779 Z " />
<glyph glyph-name="Hbar" unicode="&#x126;" horiz-adv-x="452" d="M23 460 L61 460 L61 0 L101 0 L101 282 L349 282 L349 0 L389 0 L389 460 L430 460 L430 493 L389 493 L389 583 L349 583 L349 493 L101 493 L101 583 L61 583 L61 493 L23 493 L23 460 Z M101 460 L349 460 L349 318 L101 318 L101 460 Z " />
<glyph glyph-name="hbar" unicode="&#x127;" horiz-adv-x="367" d="M-3 551 L53 551 L53 0 L91 0 L91 354 C121 388 164 422 210 422 C270 422 278 384 278 311 L278 0 L316 0 L316 322 C316 421 292 458 222 458 C168 458 122 425 91 392 L91 551 L198 551 L198 583 L91 583 L91 653 L53 653 L53 583 L-3 583 L-3 551 Z " />
<glyph glyph-name="Itilde" unicode="&#x128;" horiz-adv-x="162" d="M61 0 L101 0 L101 583 L61 583 L61 0 Z M164 712 C156 690 141 679 123 679 C97 679 77 712 41 712 C16 712 -5 695 -18 672 L-3 650 C10 670 22 680 40 680 C70 680 90 647 123 647 C148 647 169 662 180 691 L164 712 Z " />
<glyph glyph-name="itilde" unicode="&#x129;" horiz-adv-x="159" d="M17 415 L68 415 L68 0 L106 0 L106 450 L17 450 L17 415 Z M171 623 C162 600 147 590 130 590 C103 590 77 623 42 623 C16 623 -3 606 -18 584 L-2 563 C11 583 23 592 41 592 C70 592 96 559 130 559 C154 559 175 575 187 604 L171 623 Z " />
<glyph glyph-name="Imacron" unicode="&#x12a;" horiz-adv-x="162" d="M61 0 L101 0 L101 583 L61 583 L61 0 Z M2 664 L161 664 L161 698 L2 698 L2 664 Z " />
<glyph glyph-name="imacron" unicode="&#x12b;" horiz-adv-x="159" d="M17 415 L68 415 L68 0 L106 0 L106 450 L17 450 L17 415 Z M-3 577 L174 577 L174 612 L-3 612 L-3 577 Z " />
<glyph glyph-name="Ibreve" unicode="&#x12c;" horiz-adv-x="162" d="M61 0 L101 0 L101 583 L61 583 L61 0 Z M80 667 C47 667 28 694 22 729 L-5 721 C2 667 32 639 80 639 C128 639 160 667 166 723 L140 730 C135 694 117 667 80 667 L80 667 Z " />
<glyph glyph-name="ibreve" unicode="&#x12d;" horiz-adv-x="159" d="M17 415 L68 415 L68 0 L106 0 L106 450 L17 450 L17 415 Z M84 565 C46 565 33 600 26 636 L-1 627 C7 573 32 535 84 535 C136 535 163 573 171 629 L144 636 C138 600 125 565 84 565 L84 565 Z " />
<glyph glyph-name="Iogonek" unicode="&#x12e;" horiz-adv-x="162" d="M115 -197 L115 -168 C99 -175 82 -179 67 -179 C42 -179 20 -158 20 -121 C20 -76 51 -31 88 0 L101 0 L101 583 L61 583 L61 5 C24 -23 -15 -73 -15 -125 C-15 -185 17 -210 60 -210 C78 -210 98 -205 115 -197 L115 -197 Z " />
<glyph glyph-name="iogonek" unicode="&#x12f;" horiz-adv-x="159" d="M17 415 L68 415 L68 6 C30 -22 -9 -72 -9 -125 C-9 -185 23 -210 66 -210 C84 -210 104 -205 121 -197 L121 -168 C105 -175 88 -179 73 -179 C48 -179 26 -158 26 -121 C26 -76 57 -31 94 0 L106 0 L106 450 L17 450 L17 415 Z M69 573 L107 573 L107 650 L69 650 L69 573 Z " />
<glyph glyph-name="Idotaccent" unicode="&#x130;" horiz-adv-x="162" d="M61 640 L99 640 L99 717 L61 717 L61 640 Z M61 0 L101 0 L101 583 L61 583 L61 0 Z " />
<glyph glyph-name="dotlessi" unicode="&#x131;" horiz-adv-x="159" d="M17 415 L68 415 L68 0 L106 0 L106 450 L17 450 L17 415 Z " />
<glyph glyph-name="IJ" unicode="&#x132;" horiz-adv-x="337" d="M61 0 L101 0 L101 583 L61 583 L61 0 Z M185 -83 C243 5 279 89 279 179 L279 583 L238 583 L238 181 C238 84 195 7 151 -65 L185 -83 Z " />
<glyph glyph-name="ij" unicode="&#x133;" horiz-adv-x="318" d="M175 415 L226 415 L226 18 C226 -68 197 -144 170 -199 L200 -213 C236 -154 264 -68 264 22 L264 450 L175 450 L175 415 Z M17 415 L68 415 L68 0 L106 0 L106 450 L17 450 L17 415 Z M226 573 L264 573 L264 660 L226 660 L226 573 Z M68 573 L106 573 L106 660 L68 660 L68 573 Z " />
<glyph glyph-name="Jcircumflex" unicode="&#x134;" horiz-adv-x="175" d="M23 -83 C81 5 117 89 117 179 L117 583 L76 583 L76 181 C76 84 33 7 -11 -65 L23 -83 Z M83 732 L10 627 L45 627 L98 704 L100 704 L152 627 L186 627 L116 732 L83 732 Z " />
<glyph glyph-name="jcircumflex" unicode="&#x135;" horiz-adv-x="159" d="M17 415 L68 415 L68 18 C68 -68 39 -144 12 -199 L42 -213 C78 -154 106 -68 106 22 L106 450 L17 450 L17 415 Z M68 668 L-9 528 L27 528 L81 639 L84 639 L138 528 L172 528 L100 668 L68 668 Z " />
<glyph glyph-name="Kcommaaccent" unicode="&#x136;" horiz-adv-x="355" d="M145 -209 L173 -209 L195 -62 L161 -62 L145 -209 Z M292 0 L338 0 L160 306 L344 583 L299 583 L123 310 L123 295 L292 0 Z M61 0 L101 0 L101 583 L61 583 L61 0 Z " />
<glyph glyph-name="kcommaaccent" unicode="&#x137;" horiz-adv-x="311" d="M123 -209 L151 -209 L173 -62 L139 -62 L123 -209 Z M248 0 L292 0 L150 251 L297 450 L252 450 L112 256 L112 243 L248 0 Z M53 0 L91 0 L91 653 L53 653 L53 0 Z " />
<glyph glyph-name="Lacute" unicode="&#x139;" horiz-adv-x="305" d="M61 0 L294 0 L294 36 L101 36 L101 583 L61 583 L61 0 Z M97 630 L163 731 L124 731 L64 630 L97 630 Z " />
<glyph glyph-name="lacute" unicode="&#x13a;" horiz-adv-x="154" d="M93 690 L159 791 L120 791 L60 690 L93 690 Z M58 0 L96 0 L96 653 L58 653 L58 0 Z " />
<glyph glyph-name="Lcommaaccent" unicode="&#x13b;" horiz-adv-x="305" d="M61 0 L294 0 L294 36 L101 36 L101 583 L61 583 L61 0 Z M152 -209 L180 -209 L202 -62 L168 -62 L152 -209 Z " />
<glyph glyph-name="lcommaaccent" unicode="&#x13c;" horiz-adv-x="154" d="M42 -209 L70 -209 L92 -62 L58 -62 L42 -209 Z M58 0 L96 0 L96 653 L58 653 L58 0 Z " />
<glyph glyph-name="Lcaron" unicode="&#x13d;" horiz-adv-x="305" d="M61 0 L294 0 L294 36 L101 36 L101 583 L61 583 L61 0 Z M186 463 L215 463 L237 629 L201 629 L186 463 Z " />
<glyph glyph-name="lcaron" unicode="&#x13e;" horiz-adv-x="159" d="M146 487 L175 487 L197 653 L161 653 L146 487 Z M58 0 L96 0 L96 653 L58 653 L58 0 Z " />
<glyph glyph-name="Ldot" unicode="&#x13f;" horiz-adv-x="319" d="M61 0 L294 0 L294 36 L101 36 L101 583 L61 583 L61 0 Z M228 284 L266 284 L266 361 L228 361 L228 284 Z " />
<glyph glyph-name="ldot" unicode="&#x140;" horiz-adv-x="209" d="M162 276 L200 276 L200 353 L162 353 L162 276 Z M58 0 L96 0 L96 653 L58 653 L58 0 Z " />
<glyph glyph-name="Lslash" unicode="&#x141;" horiz-adv-x="309" d="M18 217 L64 249 L64 0 L297 0 L297 36 L104 36 L104 277 L208 349 L208 387 L104 313 L104 583 L64 583 L64 285 L18 253 L18 217 Z " />
<glyph glyph-name="lslash" unicode="&#x142;" horiz-adv-x="177" d="M12 262 L66 301 L66 0 L104 0 L104 329 L165 374 L165 414 L104 368 L104 653 L66 653 L66 339 L12 299 L12 262 Z " />
<glyph glyph-name="Nacute" unicode="&#x143;" horiz-adv-x="441" d="M220 630 L286 731 L247 731 L187 630 L220 630 Z M61 0 L101 0 L100 503 L101 503 L337 0 L380 0 L380 583 L341 583 L342 83 L340 83 L103 583 L61 583 L61 0 Z " />
<glyph glyph-name="nacute" unicode="&#x144;" horiz-adv-x="369" d="M55 0 L93 0 L93 351 C123 386 166 422 213 422 C273 422 280 385 280 312 L280 0 L318 0 L318 322 C318 421 293 458 223 458 C167 458 118 420 88 385 L79 450 L41 450 L55 349 L55 0 Z M190 528 L265 671 L227 671 L159 528 L190 528 Z " />
<glyph glyph-name="Ncommaaccent" unicode="&#x145;" horiz-adv-x="441" d="M197 -209 L225 -209 L247 -62 L213 -62 L197 -209 Z M61 0 L101 0 L100 503 L101 503 L337 0 L380 0 L380 583 L341 583 L342 83 L340 83 L103 583 L61 583 L61 0 Z " />
<glyph glyph-name="ncommaaccent" unicode="&#x146;" horiz-adv-x="369" d="M55 0 L93 0 L93 351 C123 386 166 422 213 422 C273 422 280 385 280 312 L280 0 L318 0 L318 322 C318 421 293 458 223 458 C167 458 118 420 88 385 L79 450 L41 450 L55 349 L55 0 Z M153 -209 L181 -209 L203 -62 L169 -62 L153 -209 Z " />
<glyph glyph-name="Ncaron" unicode="&#x147;" horiz-adv-x="441" d="M239 624 L312 729 L277 729 L224 652 L222 652 L170 729 L135 729 L206 624 L239 624 Z M61 0 L101 0 L100 503 L101 503 L337 0 L380 0 L380 583 L341 583 L342 83 L340 83 L103 583 L61 583 L61 0 Z " />
<glyph glyph-name="ncaron" unicode="&#x148;" horiz-adv-x="369" d="M55 0 L93 0 L93 351 C123 386 166 422 213 422 C273 422 280 385 280 312 L280 0 L318 0 L318 322 C318 421 293 458 223 458 C167 458 118 420 88 385 L79 450 L41 450 L55 349 L55 0 Z M201 528 L275 668 L240 668 L186 559 L184 559 L129 668 L95 668 L168 528 L201 528 Z " />
<glyph glyph-name="napostrophe" unicode="&#x149;" horiz-adv-x="369" d="M55 0 L93 0 L93 351 C123 386 166 422 213 422 C273 422 280 385 280 312 L280 0 L318 0 L318 322 C318 421 293 458 223 458 C167 458 118 420 88 385 L79 450 L41 450 L55 349 L55 0 Z M32 514 C77 554 100 603 100 649 C100 679 87 705 65 720 C55 720 42 708 42 696 C57 676 64 658 64 630 C64 590 43 557 16 526 L32 514 Z " />
<glyph glyph-name="Eng" unicode="&#x14a;" horiz-adv-x="441" d="M61 0 L101 0 L100 503 L101 503 L337 0 L341 0 L341 -1 C341 -73 327 -121 281 -196 L311 -211 C369 -123 380 -72 380 -2 L380 583 L341 583 L342 83 L340 83 L103 583 L61 583 L61 0 Z " />
<glyph glyph-name="eng" unicode="&#x14b;" horiz-adv-x="369" d="M318 322 C318 421 293 458 223 458 C166 458 117 420 88 385 L79 450 L41 450 L55 349 L55 0 L93 0 L93 351 C123 386 166 422 213 422 C273 422 280 385 280 312 L280 2 C280 -83 252 -145 224 -200 L254 -213 C290 -155 318 -84 318 5 L318 322 Z " />
<glyph glyph-name="Omacron" unicode="&#x14c;" horiz-adv-x="437" d="M141 664 L300 664 L300 698 L141 698 L141 664 Z M214 -6 C347 -6 396 121 396 307 C396 458 355 590 225 590 C91 590 39 458 39 282 C39 112 87 -6 214 -6 L214 -6 Z M217 30 C130 30 82 112 82 287 C82 479 136 554 223 554 C306 554 355 475 355 302 C355 119 308 30 217 30 L217 30 Z " />
<glyph glyph-name="omacron" unicode="&#x14d;" horiz-adv-x="347" d="M87 577 L264 577 L264 612 L87 612 L87 577 Z M173 -6 C266 -6 312 103 312 227 C312 390 272 458 177 458 C87 458 36 357 36 224 C36 61 85 -6 173 -6 L173 -6 Z M174 29 C108 29 75 83 75 225 C75 348 110 423 175 423 C253 423 272 355 272 225 C272 106 242 29 174 29 L174 29 Z " />
<glyph glyph-name="Obreve" unicode="&#x14e;" horiz-adv-x="437" d="M219 666 C186 666 167 693 161 728 L134 720 C141 666 171 638 219 638 C267 638 299 666 305 722 L279 729 C274 693 256 666 219 666 L219 666 Z M214 -6 C347 -6 396 121 396 307 C396 458 355 590 225 590 C91 590 39 458 39 282 C39 112 87 -6 214 -6 L214 -6 Z M217 30 C130 30 82 112 82 287 C82 479 136 554 223 554 C306 554 355 475 355 302 C355 119 308 30 217 30 L217 30 Z " />
<glyph glyph-name="obreve" unicode="&#x14f;" horiz-adv-x="347" d="M173 -6 C266 -6 312 103 312 227 C312 390 272 458 177 458 C87 458 36 357 36 224 C36 61 85 -6 173 -6 L173 -6 Z M174 29 C108 29 75 83 75 225 C75 348 110 423 175 423 C253 423 272 355 272 225 C272 106 242 29 174 29 L174 29 Z M173 565 C135 565 122 600 115 636 L88 627 C96 573 121 535 173 535 C225 535 252 573 260 629 L233 636 C227 600 214 565 173 565 L173 565 Z " />
<glyph glyph-name="Ohungarumlaut" unicode="&#x150;" horiz-adv-x="437" d="M214 -6 C347 -6 396 121 396 307 C396 458 355 590 225 590 C91 590 39 458 39 282 C39 112 87 -6 214 -6 L214 -6 Z M217 30 C130 30 82 112 82 287 C82 479 136 554 223 554 C306 554 355 475 355 302 C355 119 308 30 217 30 L217 30 Z M188 630 L249 731 L210 731 L155 630 L188 630 Z M276 630 L347 731 L308 731 L242 630 L276 630 Z " />
<glyph glyph-name="ohungarumlaut" unicode="&#x151;" horiz-adv-x="347" d="M126 529 L202 678 L165 678 L95 529 L126 529 Z M241 529 L319 678 L282 678 L209 529 L241 529 Z M173 -6 C266 -6 312 103 312 227 C312 390 272 458 177 458 C87 458 36 357 36 224 C36 61 85 -6 173 -6 L173 -6 Z M174 29 C108 29 75 83 75 225 C75 348 110 423 175 423 C253 423 272 355 272 225 C272 106 242 29 174 29 L174 29 Z " />
<glyph glyph-name="OE" unicode="&#x152;" horiz-adv-x="593" d="M315 0 L562 0 L562 36 L356 36 L356 283 L526 283 L526 318 L356 318 L356 547 L558 547 L558 583 L315 583 L315 556 C291 579 262 590 225 590 C100 590 40 466 40 282 C40 107 91 -6 212 -6 C254 -6 289 11 315 41 L315 0 Z M216 30 C132 30 83 114 83 287 C83 477 139 554 224 554 C260 554 291 540 315 508 L315 87 C291 47 256 30 216 30 L216 30 Z " />
<glyph glyph-name="oe" unicode="&#x153;" horiz-adv-x="578" d="M173 -6 C228 -6 266 32 289 89 C311 24 357 -6 426 -6 C474 -6 508 2 538 18 L538 52 C503 35 468 29 431 29 C356 29 314 78 311 202 C311 207 312 212 312 217 L541 217 L541 244 C541 369 511 458 414 458 C356 458 317 424 295 368 C275 430 237 458 177 458 C87 458 36 357 36 224 C36 61 85 -6 173 -6 L173 -6 Z M174 29 C108 29 75 83 75 225 C75 348 110 423 175 423 C252 423 272 355 272 226 L272 225 C272 106 242 29 174 29 L174 29 Z M412 423 C486 423 502 336 502 254 L502 249 L311 249 C316 365 351 423 412 423 L412 423 Z " />
<glyph glyph-name="Racute" unicode="&#x154;" horiz-adv-x="369" d="M61 0 L101 0 L101 236 L153 236 C169 236 184 237 198 240 L305 0 L352 0 L236 252 C292 278 321 334 321 412 C321 535 269 583 179 583 L61 583 L61 0 Z M167 547 C245 547 279 509 279 411 C279 288 214 271 149 271 L101 271 L101 547 L167 547 Z M173 630 L239 731 L200 731 L140 630 L173 630 Z " />
<glyph glyph-name="racute" unicode="&#x155;" horiz-adv-x="237" d="M55 0 L93 0 L93 341 C119 378 152 419 201 419 C209 419 218 418 227 416 L227 454 C218 457 210 457 200 457 C151 457 115 416 90 381 L80 450 L41 450 L55 349 L55 0 Z M144 528 L219 671 L181 671 L113 528 L144 528 Z " />
<glyph glyph-name="Rcommaaccent" unicode="&#x156;" horiz-adv-x="369" d="M61 0 L101 0 L101 236 L153 236 C169 236 184 237 198 240 L305 0 L352 0 L236 252 C292 278 321 334 321 412 C321 535 269 583 179 583 L61 583 L61 0 Z M167 547 C245 547 279 509 279 411 C279 288 214 271 149 271 L101 271 L101 547 L167 547 Z M157 -209 L185 -209 L207 -62 L173 -62 L157 -209 Z " />
<glyph glyph-name="rcommaaccent" unicode="&#x157;" horiz-adv-x="237" d="M55 0 L93 0 L93 341 C119 378 152 419 201 419 C209 419 218 418 227 416 L227 454 C218 457 210 457 200 457 C151 457 115 416 90 381 L80 450 L41 450 L55 349 L55 0 Z M41 -209 L69 -209 L91 -62 L57 -62 L41 -209 Z " />
<glyph glyph-name="Rcaron" unicode="&#x158;" horiz-adv-x="369" d="M61 0 L101 0 L101 236 L153 236 C169 236 184 237 198 240 L305 0 L352 0 L236 252 C292 278 321 334 321 412 C321 535 269 583 179 583 L61 583 L61 0 Z M167 547 C245 547 279 509 279 411 C279 288 214 271 149 271 L101 271 L101 547 L167 547 Z M187 624 L260 729 L225 729 L172 652 L170 652 L118 729 L83 729 L154 624 L187 624 Z " />
<glyph glyph-name="rcaron" unicode="&#x159;" horiz-adv-x="237" d="M55 0 L93 0 L93 341 C119 378 152 419 201 419 C209 419 218 418 227 416 L227 454 C218 457 210 457 200 457 C151 457 115 416 90 381 L80 450 L41 450 L55 349 L55 0 Z M152 528 L226 668 L191 668 L137 559 L135 559 L80 668 L46 668 L119 528 L152 528 Z " />
<glyph glyph-name="Sacute" unicode="&#x15a;" horiz-adv-x="316" d="M39 13 C75 -1 107 -6 142 -6 C221 -6 283 43 283 155 C283 256 226 290 164 323 C108 352 75 380 75 447 C75 507 107 554 170 554 C205 554 238 544 269 528 L269 569 C243 583 209 590 169 590 C84 590 36 526 36 442 C36 357 83 320 142 289 C201 259 243 231 243 153 C243 70 202 32 142 32 C107 32 71 39 39 54 L39 13 Z M161 630 L227 731 L188 731 L128 630 L161 630 Z " />
<glyph glyph-name="sacute" unicode="&#x15b;" horiz-adv-x="287" d="M144 528 L219 671 L181 671 L113 528 L144 528 Z M132 -6 C199 -6 257 30 257 127 C257 202 208 228 153 249 C104 269 71 285 71 338 C71 392 105 423 154 423 C184 423 208 419 243 404 L243 442 C217 454 184 458 155 458 C83 458 34 412 34 336 C34 262 82 238 134 218 C182 199 221 180 221 126 C221 60 190 30 135 30 C103 30 73 34 37 50 L37 12 C65 0 96 -6 132 -6 L132 -6 Z " />
<glyph glyph-name="Scircumflex" unicode="&#x15c;" horiz-adv-x="316" d="M39 13 C75 -1 107 -6 142 -6 C221 -6 283 43 283 155 C283 256 226 290 164 323 C108 352 75 380 75 447 C75 507 107 554 170 554 C205 554 238 544 269 528 L269 569 C243 583 209 590 169 590 C84 590 36 526 36 442 C36 357 83 320 142 289 C201 259 243 231 243 153 C243 70 202 32 142 32 C107 32 71 39 39 54 L39 13 Z M147 732 L74 627 L109 627 L162 704 L164 704 L216 627 L250 627 L180 732 L147 732 Z " />
<glyph glyph-name="scircumflex" unicode="&#x15d;" horiz-adv-x="287" d="M133 668 L56 528 L92 528 L146 639 L149 639 L203 528 L237 528 L165 668 L133 668 Z M132 -6 C199 -6 257 30 257 127 C257 202 208 228 153 249 C104 269 71 285 71 338 C71 392 105 423 154 423 C184 423 208 419 243 404 L243 442 C217 454 184 458 155 458 C83 458 34 412 34 336 C34 262 82 238 134 218 C182 199 221 180 221 126 C221 60 190 30 135 30 C103 30 73 34 37 50 L37 12 C65 0 96 -6 132 -6 L132 -6 Z " />
<glyph glyph-name="Scedilla" unicode="&#x15e;" horiz-adv-x="316" d="M140 -212 C195 -212 218 -176 218 -134 C218 -88 187 -63 152 -53 L163 -4 C232 4 283 53 283 155 C283 256 226 290 164 323 C108 352 75 380 75 447 C75 507 107 554 170 554 C205 554 238 544 269 528 L269 569 C243 583 209 590 169 590 C84 590 36 526 36 442 C36 357 83 320 142 289 C201 259 243 231 243 153 C243 70 202 32 142 32 C107 32 71 39 39 54 L39 13 C72 0 102 -5 135 -6 L121 -60 L121 -72 C163 -79 186 -98 186 -133 C186 -163 169 -183 136 -183 C121 -183 97 -176 84 -168 L84 -200 C98 -207 122 -212 140 -212 L140 -212 Z " />
<glyph glyph-name="scedilla" unicode="&#x15f;" horiz-adv-x="287" d="M127 -212 C182 -212 205 -176 205 -134 C205 -88 174 -63 139 -53 L150 -5 C209 1 257 39 257 127 C257 202 208 228 153 249 C104 269 71 285 71 338 C71 392 105 423 154 423 C184 423 208 419 243 404 L243 442 C217 454 184 458 155 458 C83 458 34 412 34 336 C34 262 82 238 134 218 C182 199 221 180 221 126 C221 60 190 30 135 30 C103 30 73 34 37 50 L37 12 C62 1 90 -5 122 -6 L108 -60 L108 -72 C150 -79 173 -98 173 -133 C173 -163 156 -183 123 -183 C108 -183 84 -176 71 -168 L71 -200 C85 -207 109 -212 127 -212 L127 -212 Z " />
<glyph glyph-name="Scaron" unicode="&#x160;" horiz-adv-x="316" d="M39 13 C75 -1 107 -6 142 -6 C221 -6 283 43 283 155 C283 256 226 290 164 323 C108 352 75 380 75 447 C75 507 107 554 170 554 C205 554 238 544 269 528 L269 569 C243 583 209 590 169 590 C84 590 36 526 36 442 C36 357 83 320 142 289 C201 259 243 231 243 153 C243 70 202 32 142 32 C107 32 71 39 39 54 L39 13 Z M178 624 L251 729 L216 729 L163 652 L161 652 L109 729 L74 729 L145 624 L178 624 Z " />
<glyph glyph-name="scaron" unicode="&#x161;" horiz-adv-x="287" d="M166 528 L240 668 L205 668 L151 559 L149 559 L94 668 L60 668 L133 528 L166 528 Z M132 -6 C199 -6 257 30 257 127 C257 202 208 228 153 249 C104 269 71 285 71 338 C71 392 105 423 154 423 C184 423 208 419 243 404 L243 442 C217 454 184 458 155 458 C83 458 34 412 34 336 C34 262 82 238 134 218 C182 199 221 180 221 126 C221 60 190 30 135 30 C103 30 73 34 37 50 L37 12 C65 0 96 -6 132 -6 L132 -6 Z " />
<glyph glyph-name="Tcommaaccent" unicode="&#x162;" horiz-adv-x="353" d="M10 547 L156 547 L156 0 L197 0 L197 547 L343 547 L343 583 L10 583 L10 547 Z M144 -209 L172 -209 L194 -62 L160 -62 L144 -209 Z " />
<glyph glyph-name="tcommaaccent" unicode="&#x163;" horiz-adv-x="235" d="M18 415 L69 415 L69 99 C69 21 106 -6 157 -6 C184 -6 209 -2 228 9 L228 41 C209 33 190 29 167 29 C130 29 108 50 107 108 L107 415 L222 415 L222 450 L107 450 L107 569 L69 569 L69 450 L18 450 L18 415 Z M114 -209 L142 -209 L164 -62 L130 -62 L114 -209 Z " />
<glyph glyph-name="Tcaron" unicode="&#x164;" horiz-adv-x="353" d="M10 547 L156 547 L156 0 L197 0 L197 547 L343 547 L343 583 L10 583 L10 547 Z M190 624 L263 729 L228 729 L175 652 L173 652 L121 729 L86 729 L157 624 L190 624 Z " />
<glyph glyph-name="tcaron" unicode="&#x165;" horiz-adv-x="235" d="M18 415 L69 415 L69 99 C69 21 106 -6 157 -6 C184 -6 209 -2 228 9 L228 41 C209 33 190 29 167 29 C130 29 108 50 107 108 L107 415 L222 415 L222 450 L107 450 L107 569 L69 569 L69 450 L18 450 L18 415 Z M168 523 L197 523 L219 689 L183 689 L168 523 Z " />
<glyph glyph-name="Tbar" unicode="&#x166;" horiz-adv-x="354" d="M10 547 L156 547 L156 311 L65 311 L65 277 L156 277 L156 0 L197 0 L197 277 L289 277 L289 311 L197 311 L197 547 L343 547 L343 583 L10 583 L10 547 Z " />
<glyph glyph-name="tbar" unicode="&#x167;" horiz-adv-x="237" d="M70 569 L70 450 L19 450 L19 415 L70 415 L70 282 L29 282 L29 251 L70 251 L70 99 C70 21 107 -6 158 -6 C185 -6 210 -2 229 9 L229 41 C210 33 191 29 168 29 C131 29 109 50 108 108 L108 251 L200 251 L200 282 L108 282 L108 415 L223 415 L223 450 L108 450 L108 569 L70 569 Z " />
<glyph glyph-name="Utilde" unicode="&#x168;" horiz-adv-x="424" d="M297 712 C289 690 274 679 256 679 C230 679 210 712 174 712 C149 712 128 695 115 672 L130 650 C143 670 155 680 173 680 C203 680 223 647 256 647 C281 647 302 662 313 691 L297 712 Z M215 -6 C294 -6 367 45 367 219 L367 583 L327 583 L327 215 C327 84 287 31 217 31 C144 31 98 68 98 202 L98 583 L57 583 L57 196 C57 34 131 -6 215 -6 L215 -6 Z " />
<glyph glyph-name="utilde" unicode="&#x169;" horiz-adv-x="363" d="M307 450 L270 450 L270 101 C239 65 203 29 160 29 C101 29 89 65 89 138 L89 450 L51 450 L51 129 C51 30 79 -7 149 -7 C200 -7 244 29 274 66 L283 0 L321 0 L307 102 L307 450 Z M268 623 C259 600 244 590 227 590 C200 590 174 623 139 623 C113 623 94 606 79 584 L95 563 C108 583 120 592 138 592 C167 592 193 559 227 559 C251 559 272 575 284 604 L268 623 Z " />
<glyph glyph-name="Umacron" unicode="&#x16a;" horiz-adv-x="424" d="M136 664 L295 664 L295 698 L136 698 L136 664 Z M215 -6 C294 -6 367 45 367 219 L367 583 L327 583 L327 215 C327 84 287 31 217 31 C144 31 98 68 98 202 L98 583 L57 583 L57 196 C57 34 131 -6 215 -6 L215 -6 Z " />
<glyph glyph-name="umacron" unicode="&#x16b;" horiz-adv-x="363" d="M307 450 L270 450 L270 101 C239 65 203 29 160 29 C101 29 89 65 89 138 L89 450 L51 450 L51 129 C51 30 79 -7 149 -7 C200 -7 244 29 274 66 L283 0 L321 0 L307 102 L307 450 Z M88 577 L265 577 L265 612 L88 612 L88 577 Z " />
<glyph glyph-name="Ubreve" unicode="&#x16c;" horiz-adv-x="424" d="M213 667 C180 667 161 694 155 729 L128 721 C135 667 165 639 213 639 C261 639 293 667 299 723 L273 730 C268 694 250 667 213 667 L213 667 Z M215 -6 C294 -6 367 45 367 219 L367 583 L327 583 L327 215 C327 84 287 31 217 31 C144 31 98 68 98 202 L98 583 L57 583 L57 196 C57 34 131 -6 215 -6 L215 -6 Z " />
<glyph glyph-name="ubreve" unicode="&#x16d;" horiz-adv-x="363" d="M307 450 L270 450 L270 101 C239 65 203 29 160 29 C101 29 89 65 89 138 L89 450 L51 450 L51 129 C51 30 79 -7 149 -7 C200 -7 244 29 274 66 L283 0 L321 0 L307 102 L307 450 Z M178 565 C140 565 127 600 120 636 L93 627 C101 573 126 535 178 535 C230 535 257 573 265 629 L238 636 C232 600 219 565 178 565 L178 565 Z " />
<glyph glyph-name="Uring" unicode="&#x16e;" horiz-adv-x="424" d="M215 -6 C294 -6 367 45 367 219 L367 583 L327 583 L327 215 C327 84 287 31 217 31 C144 31 98 68 98 202 L98 583 L57 583 L57 196 C57 34 131 -6 215 -6 L215 -6 Z M214 772 C182 772 153 748 153 699 C153 650 178 625 214 625 C249 625 274 651 274 699 C274 749 247 772 214 772 L214 772 Z M214 748 C234 748 248 731 248 699 C248 669 237 649 214 649 C190 649 179 668 179 699 C179 730 193 748 214 748 L214 748 Z " />
<glyph glyph-name="uring" unicode="&#x16f;" horiz-adv-x="363" d="M307 450 L270 450 L270 101 C239 65 203 29 160 29 C101 29 89 65 89 138 L89 450 L51 450 L51 129 C51 30 79 -7 149 -7 C200 -7 244 29 274 66 L283 0 L321 0 L307 102 L307 450 Z M182 678 C148 678 117 651 117 600 C117 549 144 521 182 521 C220 521 247 550 247 600 C247 653 218 678 182 678 L182 678 Z M182 653 C205 653 222 635 222 600 C222 567 209 545 182 545 C156 545 142 567 142 600 C142 634 160 653 182 653 L182 653 Z " />
<glyph glyph-name="Uhungarumlaut" unicode="&#x170;" horiz-adv-x="424" d="M215 -6 C294 -6 367 45 367 219 L367 583 L327 583 L327 215 C327 84 287 31 217 31 C144 31 98 68 98 202 L98 583 L57 583 L57 196 C57 34 131 -6 215 -6 L215 -6 Z M176 630 L237 731 L198 731 L143 630 L176 630 Z M264 630 L335 731 L296 731 L230 630 L264 630 Z " />
<glyph glyph-name="uhungarumlaut" unicode="&#x171;" horiz-adv-x="363" d="M307 450 L270 450 L270 101 C239 65 203 29 160 29 C101 29 89 65 89 138 L89 450 L51 450 L51 129 C51 30 79 -7 149 -7 C200 -7 244 29 274 66 L283 0 L321 0 L307 102 L307 450 Z M242 529 L320 678 L283 678 L210 529 L242 529 Z M127 529 L203 678 L166 678 L96 529 L127 529 Z " />
<glyph glyph-name="Uogonek" unicode="&#x172;" horiz-adv-x="424" d="M215 -6 L216 -6 C184 -35 154 -79 154 -125 C154 -185 186 -210 229 -210 C247 -210 267 -205 284 -197 L284 -168 C268 -175 251 -179 236 -179 C211 -179 189 -158 189 -121 C189 -77 220 -32 256 -1 C317 15 367 76 367 219 L367 583 L327 583 L327 215 C327 84 287 31 217 31 C144 31 98 68 98 202 L98 583 L57 583 L57 196 C57 34 131 -6 215 -6 L215 -6 Z " />
<glyph glyph-name="uogonek" unicode="&#x173;" horiz-adv-x="363" d="M307 450 L270 450 L270 101 C239 65 203 29 160 29 C101 29 89 65 89 138 L89 450 L51 450 L51 129 C51 30 79 -7 149 -7 C200 -7 244 29 274 66 L282 6 C244 -22 205 -72 205 -125 C205 -185 237 -210 280 -210 C298 -210 318 -205 335 -197 L335 -168 C319 -175 302 -179 287 -179 C262 -179 240 -158 240 -121 C240 -76 271 -31 308 0 L321 0 L307 102 L307 450 Z " />
<glyph glyph-name="Wcircumflex" unicode="&#x174;" horiz-adv-x="600" d="M584 583 L542 583 L467 236 L428 59 L426 59 L392 237 L325 583 L278 583 L204 236 L167 56 L164 56 L132 236 L69 583 L27 583 L140 0 L187 0 L265 362 L298 518 L302 518 L332 362 L401 0 L449 0 L584 583 Z M280 733 L207 628 L242 628 L295 705 L297 705 L349 628 L383 628 L313 733 L280 733 Z " />
<glyph glyph-name="wcircumflex" unicode="&#x175;" horiz-adv-x="501" d="M237 668 L160 528 L196 528 L250 639 L253 639 L307 528 L341 528 L269 668 L237 668 Z M481 450 L442 450 L390 193 L361 52 L358 52 L328 192 L276 450 L234 450 L171 188 L140 52 L136 52 L112 188 L66 450 L26 450 L113 0 L158 0 L227 284 L251 387 L254 387 L276 283 L336 0 L382 0 L481 450 Z " />
<glyph glyph-name="Ycircumflex" unicode="&#x176;" horiz-adv-x="356" d="M343 583 L303 583 L224 373 L181 259 L179 259 L135 373 L54 583 L13 583 L157 221 L157 0 L198 0 L198 215 L343 583 Z M161 732 L88 627 L123 627 L176 704 L178 704 L230 627 L264 627 L194 732 L161 732 Z " />
<glyph glyph-name="ycircumflex" unicode="&#x177;" horiz-adv-x="313" d="M125 -207 L180 5 L295 450 L255 450 L187 177 L157 46 L154 46 L126 175 L62 450 L21 450 L129 0 L142 0 L85 -204 L87 -207 L125 -207 Z M147 668 L70 528 L106 528 L160 639 L163 639 L217 528 L251 528 L179 668 L147 668 Z " />
<glyph glyph-name="Ydieresis" unicode="&#x178;" horiz-adv-x="356" d="M343 583 L303 583 L224 373 L181 259 L179 259 L135 373 L54 583 L13 583 L157 221 L157 0 L198 0 L198 215 L343 583 Z M226 640 L264 640 L264 717 L226 717 L226 640 Z M98 640 L136 640 L136 717 L98 717 L98 640 Z " />
<glyph glyph-name="Zacute" unicode="&#x179;" horiz-adv-x="325" d="M296 0 L296 36 L71 36 L306 580 L305 583 L31 583 L31 547 L250 547 L18 3 L19 0 L296 0 Z M174 630 L240 731 L201 731 L141 630 L174 630 Z " />
<glyph glyph-name="zacute" unicode="&#x17a;" horiz-adv-x="275" d="M21 3 L21 0 L251 0 L251 35 L74 35 L249 448 L247 450 L29 450 L29 416 L196 416 L21 3 Z M146 528 L221 671 L183 671 L115 528 L146 528 Z " />
<glyph glyph-name="Zdotaccent" unicode="&#x17b;" horiz-adv-x="325" d="M296 0 L296 36 L71 36 L306 580 L305 583 L31 583 L31 547 L250 547 L18 3 L19 0 L296 0 Z M153 639 L191 639 L191 716 L153 716 L153 639 Z " />
<glyph glyph-name="zdotaccent" unicode="&#x17c;" horiz-adv-x="275" d="M21 3 L21 0 L251 0 L251 35 L74 35 L249 448 L247 450 L29 450 L29 416 L196 416 L21 3 Z M119 573 L157 573 L157 650 L119 650 L119 573 Z " />
<glyph glyph-name="Zcaron" unicode="&#x17d;" horiz-adv-x="325" d="M296 0 L296 36 L71 36 L306 580 L305 583 L31 583 L31 547 L250 547 L18 3 L19 0 L296 0 Z M184 624 L257 729 L222 729 L169 652 L167 652 L115 729 L80 729 L151 624 L184 624 Z " />
<glyph glyph-name="zcaron" unicode="&#x17e;" horiz-adv-x="275" d="M21 3 L21 0 L251 0 L251 35 L74 35 L249 448 L247 450 L29 450 L29 416 L196 416 L21 3 Z M158 528 L232 668 L197 668 L143 559 L141 559 L86 668 L52 668 L125 528 L158 528 Z " />
<glyph glyph-name="uni018F" unicode="&#x18f;" horiz-adv-x="426" d="M61 564 L61 526 C105 545 147 554 190 554 C277 554 343 499 345 316 L36 316 C35 306 33 291 33 277 C33 123 82 -6 205 -6 C341 -6 386 147 386 305 C386 513 312 590 193 590 C153 590 106 582 61 564 L61 564 Z M206 30 C124 30 76 112 75 282 L345 282 C341 108 292 30 206 30 L206 30 Z " />
<glyph glyph-name="florin" unicode="&#x192;" horiz-adv-x="322" d="M132 19 C127 -73 105 -103 60 -103 C48 -103 37 -101 24 -98 L20 -134 C32 -137 45 -139 58 -139 C128 -139 164 -88 170 17 L181 282 L272 282 L272 316 L183 316 L188 431 C192 524 214 553 260 553 C272 553 284 552 297 549 L300 585 C288 589 275 590 262 590 C191 590 155 540 150 436 L145 316 L72 316 L72 282 L143 282 L132 19 Z " />
<glyph glyph-name="uni01C4" unicode="&#x1c4;" horiz-adv-x="754" d="M61 0 L164 0 C301 0 390 101 390 302 C390 517 290 583 161 583 L61 583 L61 0 Z M156 547 C263 547 349 500 349 299 C349 113 272 36 165 36 L101 36 L101 547 L156 547 Z M725 0 L725 36 L500 36 L735 580 L734 583 L460 583 L460 547 L679 547 L447 3 L448 0 L725 0 Z M613 624 L686 729 L651 729 L598 652 L596 652 L544 729 L509 729 L580 624 L613 624 Z " />
<glyph glyph-name="uni01C5" unicode="&#x1c5;" horiz-adv-x="704" d="M61 0 L164 0 C301 0 390 101 390 302 C390 517 290 583 161 583 L61 583 L61 0 Z M156 547 C263 547 349 500 349 299 C349 113 272 36 165 36 L101 36 L101 547 L156 547 Z M450 3 L450 0 L680 0 L680 35 L503 35 L678 448 L676 450 L458 450 L458 416 L625 416 L450 3 Z M587 528 L661 668 L626 668 L572 559 L570 559 L515 668 L481 668 L554 528 L587 528 Z " />
<glyph glyph-name="uni01C6" unicode="&#x1c6;" horiz-adv-x="628" d="M274 0 L312 0 L298 93 L298 653 L260 653 L260 447 C238 454 214 458 188 458 C95 458 36 379 36 211 C36 67 79 -6 155 -6 C199 -6 237 23 264 59 L274 0 Z M161 31 C100 31 77 101 77 216 C77 355 114 424 189 424 C214 424 238 420 260 411 L260 93 C232 60 200 31 161 31 L161 31 Z M374 3 L374 0 L604 0 L604 35 L427 35 L602 448 L600 450 L382 450 L382 416 L549 416 L374 3 Z M511 528 L585 668 L550 668 L496 559 L494 559 L439 668 L405 668 L478 528 L511 528 Z " />
<glyph glyph-name="uni01C7" unicode="&#x1c7;" horiz-adv-x="480" d="M61 0 L294 0 L294 36 L101 36 L101 583 L61 583 L61 0 Z M328 -83 C386 5 422 89 422 179 L422 583 L381 583 L381 181 C381 84 338 7 294 -65 L328 -83 Z " />
<glyph glyph-name="uni01C8" unicode="&#x1c8;" horiz-adv-x="464" d="M61 0 L294 0 L294 36 L101 36 L101 583 L61 583 L61 0 Z M322 415 L373 415 L373 18 C373 -68 344 -144 317 -199 L347 -213 C383 -154 411 -68 411 22 L411 450 L322 450 L322 415 Z M373 573 L411 573 L411 660 L373 660 L373 573 Z " />
<glyph glyph-name="uni01C9" unicode="&#x1c9;" horiz-adv-x="314" d="M171 415 L222 415 L222 18 C222 -68 193 -144 166 -199 L196 -213 C232 -154 260 -68 260 22 L260 450 L171 450 L171 415 Z M58 0 L96 0 L96 653 L58 653 L58 0 Z M222 573 L260 573 L260 660 L222 660 L222 573 Z " />
<glyph glyph-name="uni01CA" unicode="&#x1ca;" horiz-adv-x="616" d="M464 -83 C522 5 558 89 558 179 L558 583 L517 583 L517 181 C517 84 474 7 430 -65 L464 -83 Z M61 0 L101 0 L100 503 L101 503 L337 0 L380 0 L380 583 L341 583 L342 83 L340 83 L103 583 L61 583 L61 0 Z " />
<glyph glyph-name="uni01CB" unicode="&#x1cb;" horiz-adv-x="600" d="M61 0 L101 0 L100 503 L101 503 L337 0 L380 0 L380 583 L341 583 L342 83 L340 83 L103 583 L61 583 L61 0 Z M458 415 L509 415 L509 18 C509 -68 480 -144 453 -199 L483 -213 C519 -154 547 -68 547 22 L547 450 L458 450 L458 415 Z M509 573 L547 573 L547 660 L509 660 L509 573 Z " />
<glyph glyph-name="uni01CC" unicode="&#x1cc;" horiz-adv-x="529" d="M55 0 L93 0 L93 351 C123 386 166 422 213 422 C273 422 280 385 280 312 L280 0 L318 0 L318 322 C318 421 293 458 223 458 C167 458 118 420 88 385 L79 450 L41 450 L55 349 L55 0 Z M386 415 L437 415 L437 18 C437 -68 408 -144 381 -199 L411 -213 C447 -154 475 -68 475 22 L475 450 L386 450 L386 415 Z M437 573 L475 573 L475 660 L437 660 L437 573 Z " />
<glyph glyph-name="uni01D3" unicode="&#x1d3;" horiz-adv-x="424" d="M227 625 L300 730 L265 730 L212 653 L210 653 L158 730 L123 730 L194 625 L227 625 Z M215 -6 C294 -6 367 45 367 219 L367 583 L327 583 L327 215 C327 84 287 31 217 31 C144 31 98 68 98 202 L98 583 L57 583 L57 196 C57 34 131 -6 215 -6 L215 -6 Z " />
<glyph glyph-name="uni01D4" unicode="&#x1d4;" horiz-adv-x="363" d="M307 450 L270 450 L270 101 C239 65 203 29 160 29 C101 29 89 65 89 138 L89 450 L51 450 L51 129 C51 30 79 -7 149 -7 C200 -7 244 29 274 66 L283 0 L321 0 L307 102 L307 450 Z M195 528 L269 668 L234 668 L180 559 L178 559 L123 668 L89 668 L162 528 L195 528 Z " />
<glyph glyph-name="uni01E2" unicode="&#x1e2;" horiz-adv-x="523" d="M248 0 L492 0 L492 36 L288 36 L288 283 L457 283 L457 318 L288 318 L288 547 L488 547 L488 583 L227 583 L7 0 L46 0 L118 194 L248 194 L248 0 Z M247 543 L248 543 L248 230 L131 230 L247 543 Z M288 663 L447 663 L447 697 L288 697 L288 663 Z " />
<glyph glyph-name="uni01E3" unicode="&#x1e3;" horiz-adv-x="538" d="M385 -6 C433 -6 467 1 497 18 L497 51 C463 35 428 29 391 29 C316 29 272 83 271 217 L502 217 L502 245 C502 369 471 459 374 459 C324 459 289 432 266 388 C255 441 220 459 170 459 C133 459 83 450 51 437 L51 401 C79 413 126 423 163 423 C217 423 234 395 234 338 L234 245 L178 245 C91 245 29 210 29 113 C29 41 58 -6 123 -6 C185 -6 232 34 260 68 C285 18 327 -6 385 -6 L385 -6 Z M373 424 C446 424 462 338 462 255 L462 248 L271 248 C276 365 310 424 373 424 L373 424 Z M129 29 C91 29 68 50 68 117 C68 195 113 214 175 214 L234 214 C234 167 239 127 249 96 C221 63 179 29 129 29 L129 29 Z M176 577 L353 577 L353 612 L176 612 L176 577 Z " />
<glyph glyph-name="uni01F1" unicode="&#x1f1;" horiz-adv-x="742" d="M61 0 L164 0 C301 0 390 101 390 302 C390 517 290 583 161 583 L61 583 L61 0 Z M156 547 C263 547 349 500 349 299 C349 113 272 36 165 36 L101 36 L101 547 L156 547 Z M712 0 L712 36 L487 36 L722 580 L721 583 L447 583 L447 547 L666 547 L434 3 L435 0 L712 0 Z " />
<glyph glyph-name="uni01F2" unicode="&#x1f2;" horiz-adv-x="704" d="M61 0 L164 0 C301 0 390 101 390 302 C390 517 290 583 161 583 L61 583 L61 0 Z M156 547 C263 547 349 500 349 299 C349 113 272 36 165 36 L101 36 L101 547 L156 547 Z M450 3 L450 0 L680 0 L680 35 L503 35 L678 448 L676 450 L458 450 L458 416 L625 416 L450 3 Z " />
<glyph glyph-name="uni01F3" unicode="&#x1f3;" horiz-adv-x="628" d="M274 0 L312 0 L298 93 L298 653 L260 653 L260 447 C238 454 214 458 188 458 C95 458 36 379 36 211 C36 67 79 -6 155 -6 C199 -6 237 23 264 59 L274 0 Z M161 31 C100 31 77 101 77 216 C77 355 114 424 189 424 C214 424 238 420 260 411 L260 93 C232 60 200 31 161 31 L161 31 Z M374 3 L374 0 L604 0 L604 35 L427 35 L602 448 L600 450 L382 450 L382 416 L549 416 L374 3 Z " />
<glyph glyph-name="AEacute" unicode="&#x1fc;" horiz-adv-x="523" d="M248 0 L492 0 L492 36 L288 36 L288 283 L457 283 L457 318 L288 318 L288 547 L488 547 L488 583 L227 583 L7 0 L46 0 L118 194 L248 194 L248 0 Z M247 543 L248 543 L248 230 L131 230 L247 543 Z M367 631 L433 732 L394 732 L334 631 L367 631 Z " />
<glyph glyph-name="aeacute" unicode="&#x1fd;" horiz-adv-x="538" d="M385 -6 C433 -6 467 1 497 18 L497 51 C463 35 428 29 391 29 C316 29 272 83 271 217 L502 217 L502 245 C502 369 471 459 374 459 C324 459 289 432 266 388 C255 441 220 459 170 459 C133 459 83 450 51 437 L51 401 C79 413 126 423 163 423 C217 423 234 395 234 338 L234 245 L178 245 C91 245 29 210 29 113 C29 41 58 -6 123 -6 C185 -6 232 34 260 68 C285 18 327 -6 385 -6 L385 -6 Z M373 424 C446 424 462 338 462 255 L462 248 L271 248 C276 365 310 424 373 424 L373 424 Z M129 29 C91 29 68 50 68 117 C68 195 113 214 175 214 L234 214 C234 167 239 127 249 96 C221 63 179 29 129 29 L129 29 Z M284 528 L359 671 L321 671 L253 528 L284 528 Z " />
<glyph glyph-name="Oslashacute" unicode="&#x1fe;" horiz-adv-x="437" d="M214 -6 C347 -6 396 121 396 307 C396 382 386 453 359 505 L409 590 L374 590 L341 534 C315 569 277 590 225 590 C91 590 39 458 39 282 C39 198 51 128 77 77 L29 -6 L63 -6 L95 49 C122 14 161 -6 214 -6 L214 -6 Z M82 287 C82 479 136 554 223 554 C264 554 296 535 319 495 L104 123 C89 163 82 218 82 287 L82 287 Z M217 30 C174 30 141 49 118 90 L334 461 C347 421 355 368 355 302 C355 119 308 30 217 30 L217 30 Z M222 630 L288 731 L249 731 L189 630 L222 630 Z " />
<glyph glyph-name="oslashacute" unicode="&#x1ff;" horiz-adv-x="348" d="M173 -6 C266 -6 312 103 312 227 C312 301 303 356 285 394 L323 459 L292 459 L269 419 C248 445 217 458 177 458 C87 458 36 357 36 224 C36 151 46 98 64 61 L26 -6 L56 -6 L80 36 C103 7 134 -6 173 -6 L173 -6 Z M75 225 C75 348 110 423 175 423 C210 423 233 409 248 382 L88 102 C79 132 75 173 75 225 L75 225 Z M174 29 C141 29 117 42 101 72 L260 350 C269 319 272 276 272 225 C272 106 242 29 174 29 L174 29 Z M187 528 L262 671 L224 671 L156 528 L187 528 Z " />
<glyph glyph-name="Scommaaccent" unicode="&#x218;" horiz-adv-x="316" d="M125 -209 L153 -209 L175 -62 L141 -62 L125 -209 Z M39 13 C75 -1 107 -6 142 -6 C221 -6 283 43 283 155 C283 256 226 290 164 323 C108 352 75 380 75 447 C75 507 107 554 170 554 C205 554 238 544 269 528 L269 569 C243 583 209 590 169 590 C84 590 36 526 36 442 C36 357 83 320 142 289 C201 259 243 231 243 153 C243 70 202 32 142 32 C107 32 71 39 39 54 L39 13 Z " />
<glyph glyph-name="scommaaccent" unicode="&#x219;" horiz-adv-x="287" d="M110 -209 L138 -209 L160 -62 L126 -62 L110 -209 Z M132 -6 C199 -6 257 30 257 127 C257 202 208 228 153 249 C104 269 71 285 71 338 C71 392 105 423 154 423 C184 423 208 419 243 404 L243 442 C217 454 184 458 155 458 C83 458 34 412 34 336 C34 262 82 238 134 218 C182 199 221 180 221 126 C221 60 190 30 135 30 C103 30 73 34 37 50 L37 12 C65 0 96 -6 132 -6 L132 -6 Z " />
<glyph glyph-name="uni021A" unicode="&#x21a;" horiz-adv-x="353" d="M10 547 L156 547 L156 0 L197 0 L197 547 L343 547 L343 583 L10 583 L10 547 Z M144 -209 L172 -209 L194 -62 L160 -62 L144 -209 Z " />
<glyph glyph-name="uni021B" unicode="&#x21b;" horiz-adv-x="235" d="M18 415 L69 415 L69 99 C69 21 106 -6 157 -6 C184 -6 209 -2 228 9 L228 41 C209 33 190 29 167 29 C130 29 108 50 107 108 L107 415 L222 415 L222 450 L107 450 L107 569 L69 569 L69 450 L18 450 L18 415 Z M114 -209 L142 -209 L164 -62 L130 -62 L114 -209 Z " />
<glyph glyph-name="uni0232" unicode="&#x232;" horiz-adv-x="356" d="M343 583 L303 583 L224 373 L181 259 L179 259 L135 373 L54 583 L13 583 L157 221 L157 0 L198 0 L198 215 L343 583 Z M101 663 L260 663 L260 697 L101 697 L101 663 Z " />
<glyph glyph-name="uni0233" unicode="&#x233;" horiz-adv-x="313" d="M125 -207 L180 5 L295 450 L255 450 L187 177 L157 46 L154 46 L126 175 L62 450 L21 450 L129 0 L142 0 L85 -204 L87 -207 L125 -207 Z M73 577 L250 577 L250 612 L73 612 L73 577 Z " />
<glyph glyph-name="uni0237" unicode="&#x237;" horiz-adv-x="159" d="M17 415 L68 415 L68 18 C68 -68 39 -144 12 -199 L42 -213 C78 -154 106 -68 106 22 L106 450 L17 450 L17 415 Z " />
<glyph glyph-name="uni0259" unicode="&#x259;" horiz-adv-x="341" d="M151 457 C103 457 69 449 39 433 L39 399 C74 416 109 422 146 422 C223 422 265 369 266 234 L36 234 L36 207 C36 82 66 -7 163 -7 C263 -7 305 94 305 235 C305 389 255 457 151 457 L151 457 Z M165 28 C91 28 75 115 75 197 L75 202 L265 202 C260 86 226 28 165 28 L165 28 Z " />
<glyph glyph-name="circumflex" unicode="&#x2c6;" horiz-adv-x="270" d="M124 668 L47 528 L83 528 L137 639 L140 639 L194 528 L228 528 L156 668 L124 668 Z " />
<glyph glyph-name="caron" unicode="&#x2c7;" horiz-adv-x="318" d="M177 528 L251 668 L216 668 L162 559 L160 559 L105 668 L71 668 L144 528 L177 528 Z " />
<glyph glyph-name="breve" unicode="&#x2d8;" horiz-adv-x="239" d="M119 565 C81 565 68 600 61 636 L34 627 C42 573 67 535 119 535 C171 535 198 573 206 629 L179 636 C173 600 160 565 119 565 L119 565 Z " />
<glyph glyph-name="dotaccent" unicode="&#x2d9;" horiz-adv-x="213" d="M88 573 L126 573 L126 650 L88 650 L88 573 Z " />
<glyph glyph-name="ring" unicode="&#x2da;" horiz-adv-x="222" d="M112 678 C78 678 47 651 47 600 C47 549 74 521 112 521 C150 521 177 550 177 600 C177 653 148 678 112 678 L112 678 Z M112 653 C135 653 152 635 152 600 C152 567 139 545 112 545 C86 545 72 567 72 600 C72 634 90 653 112 653 L112 653 Z " />
<glyph glyph-name="ogonek" unicode="&#x2db;" horiz-adv-x="221" d="M172 -197 L172 -168 C156 -175 139 -179 124 -179 C99 -179 77 -158 77 -121 C77 -74 112 -26 151 5 L137 19 C96 -6 42 -64 42 -125 C42 -185 74 -210 117 -210 C135 -210 155 -205 172 -197 L172 -197 Z " />
<glyph glyph-name="tilde" unicode="&#x2dc;" horiz-adv-x="289" d="M232 623 C223 600 208 590 191 590 C164 590 138 623 103 623 C77 623 58 606 43 584 L59 563 C72 583 84 592 102 592 C131 592 157 559 191 559 C215 559 236 575 248 604 L232 623 Z " />
<glyph glyph-name="hungarumlaut" unicode="&#x2dd;" horiz-adv-x="324" d="M80 529 L156 678 L119 678 L49 529 L80 529 Z M195 529 L273 678 L236 678 L163 529 L195 529 Z " />
<glyph glyph-name="dotbelowcmb" unicode="&#x323;" d="M-175 -181 L-137 -181 L-137 -104 L-175 -104 L-175 -181 Z " />
<glyph glyph-name="uni0394" unicode="&#x394;" horiz-adv-x="373" d="M351 0 L351 32 L218 583 L173 583 L22 32 L22 0 L351 0 Z M192 529 L195 529 L308 36 L62 36 L192 529 Z " />
<glyph glyph-name="Sigma" unicode="&#x3a3;" horiz-adv-x="362" d="M32 0 L326 0 L326 37 L76 37 L181 290 L78 547 L313 547 L313 583 L35 583 L35 550 L140 289 L32 31 L32 0 Z " />
<glyph glyph-name="pi" unicode="&#x3c0;" horiz-adv-x="394" d="M297 415 L357 415 L357 450 L26 450 L26 415 L83 415 L83 0 L120 0 L120 415 L261 415 L261 68 C261 19 273 -6 313 -6 C328 -6 342 -4 357 5 L357 33 C343 28 332 28 324 28 C303 28 297 46 297 88 L297 415 Z " />
<glyph glyph-name="uni1E46" unicode="&#x1e46;" horiz-adv-x="441" d="M198 -181 L236 -181 L236 -104 L198 -104 L198 -181 Z M61 0 L101 0 L100 503 L101 503 L337 0 L380 0 L380 583 L341 583 L342 83 L340 83 L103 583 L61 583 L61 0 Z " />
<glyph glyph-name="uni1E47" unicode="&#x1e47;" horiz-adv-x="369" d="M55 0 L93 0 L93 351 C123 386 166 422 213 422 C273 422 280 385 280 312 L280 0 L318 0 L318 322 C318 421 293 458 223 458 C167 458 118 420 88 385 L79 450 L41 450 L55 349 L55 0 Z M161 -181 L199 -181 L199 -104 L161 -104 L161 -181 Z " />
<glyph glyph-name="uni1E62" unicode="&#x1e62;" horiz-adv-x="316" d="M125 -181 L163 -181 L163 -104 L125 -104 L125 -181 Z M39 13 C75 -1 107 -6 142 -6 C221 -6 283 43 283 155 C283 256 226 290 164 323 C108 352 75 380 75 447 C75 507 107 554 170 554 C205 554 238 544 269 528 L269 569 C243 583 209 590 169 590 C84 590 36 526 36 442 C36 357 83 320 142 289 C201 259 243 231 243 153 C243 70 202 32 142 32 C107 32 71 39 39 54 L39 13 Z " />
<glyph glyph-name="uni1E63" unicode="&#x1e63;" horiz-adv-x="287" d="M116 -181 L154 -181 L154 -104 L116 -104 L116 -181 Z M132 -6 C199 -6 257 30 257 127 C257 202 208 228 153 249 C104 269 71 285 71 338 C71 392 105 423 154 423 C184 423 208 419 243 404 L243 442 C217 454 184 458 155 458 C83 458 34 412 34 336 C34 262 82 238 134 218 C182 199 221 180 221 126 C221 60 190 30 135 30 C103 30 73 34 37 50 L37 12 C65 0 96 -6 132 -6 L132 -6 Z " />
<glyph glyph-name="Wgrave" unicode="&#x1e80;" horiz-adv-x="600" d="M330 630 L270 731 L231 731 L297 630 L330 630 Z M584 583 L542 583 L467 236 L428 59 L426 59 L392 237 L325 583 L278 583 L204 236 L167 56 L164 56 L132 236 L69 583 L27 583 L140 0 L187 0 L265 362 L298 518 L302 518 L332 362 L401 0 L449 0 L584 583 Z " />
<glyph glyph-name="wgrave" unicode="&#x1e81;" horiz-adv-x="501" d="M481 450 L442 450 L390 193 L361 52 L358 52 L328 192 L276 450 L234 450 L171 188 L140 52 L136 52 L112 188 L66 450 L26 450 L113 0 L158 0 L227 284 L251 387 L254 387 L276 283 L336 0 L382 0 L481 450 Z M273 528 L204 671 L166 671 L240 528 L273 528 Z " />
<glyph glyph-name="Wacute" unicode="&#x1e82;" horiz-adv-x="600" d="M313 626 L379 727 L340 727 L280 626 L313 626 Z M584 583 L542 583 L467 236 L428 59 L426 59 L392 237 L325 583 L278 583 L204 236 L167 56 L164 56 L132 236 L69 583 L27 583 L140 0 L187 0 L265 362 L298 518 L302 518 L332 362 L401 0 L449 0 L584 583 Z " />
<glyph glyph-name="wacute" unicode="&#x1e83;" horiz-adv-x="501" d="M269 528 L344 671 L306 671 L238 528 L269 528 Z M481 450 L442 450 L390 193 L361 52 L358 52 L328 192 L276 450 L234 450 L171 188 L140 52 L136 52 L112 188 L66 450 L26 450 L113 0 L158 0 L227 284 L251 387 L254 387 L276 283 L336 0 L382 0 L481 450 Z " />
<glyph glyph-name="Wdieresis" unicode="&#x1e84;" horiz-adv-x="600" d="M216 640 L254 640 L254 717 L216 717 L216 640 Z M344 640 L382 640 L382 717 L344 717 L344 640 Z M584 583 L542 583 L467 236 L428 59 L426 59 L392 237 L325 583 L278 583 L204 236 L167 56 L164 56 L132 236 L69 583 L27 583 L140 0 L187 0 L265 362 L298 518 L302 518 L332 362 L401 0 L449 0 L584 583 Z " />
<glyph glyph-name="wdieresis" unicode="&#x1e85;" horiz-adv-x="501" d="M169 573 L207 573 L207 650 L169 650 L169 573 Z M297 573 L335 573 L335 650 L297 650 L297 573 Z M481 450 L442 450 L390 193 L361 52 L358 52 L328 192 L276 450 L234 450 L171 188 L140 52 L136 52 L112 188 L66 450 L26 450 L113 0 L158 0 L227 284 L251 387 L254 387 L276 283 L336 0 L382 0 L481 450 Z " />
<glyph glyph-name="uni1EBC" unicode="&#x1ebc;" horiz-adv-x="337" d="M61 0 L306 0 L306 36 L101 36 L101 283 L270 283 L270 318 L101 318 L101 547 L301 547 L301 583 L61 583 L61 0 Z M263 712 C255 690 240 679 222 679 C196 679 176 712 140 712 C115 712 94 695 81 672 L96 650 C109 670 121 680 139 680 C169 680 189 647 222 647 C247 647 268 662 279 691 L263 712 Z " />
<glyph glyph-name="uni1EBD" unicode="&#x1ebd;" horiz-adv-x="342" d="M190 -6 C238 -6 272 2 302 18 L302 52 C267 35 232 29 195 29 C117 29 75 81 75 217 L305 217 L305 244 C305 369 275 458 178 458 C78 458 36 357 36 216 C36 62 86 -6 190 -6 L190 -6 Z M176 423 C250 423 266 336 266 254 L266 249 L75 249 C80 365 115 423 176 423 L176 423 Z M267 623 C258 600 243 590 226 590 C199 590 173 623 138 623 C112 623 93 606 78 584 L94 563 C107 583 119 592 137 592 C166 592 192 559 226 559 C250 559 271 575 283 604 L267 623 Z " />
<glyph glyph-name="Ygrave" unicode="&#x1ef2;" horiz-adv-x="356" d="M343 583 L303 583 L224 373 L181 259 L179 259 L135 373 L54 583 L13 583 L157 221 L157 0 L198 0 L198 215 L343 583 Z M211 630 L151 731 L112 731 L178 630 L211 630 Z " />
<glyph glyph-name="ygrave" unicode="&#x1ef3;" horiz-adv-x="313" d="M125 -207 L180 5 L295 450 L255 450 L187 177 L157 46 L154 46 L126 175 L62 450 L21 450 L129 0 L142 0 L85 -204 L87 -207 L125 -207 Z M188 513 L119 656 L81 656 L155 513 L188 513 Z " />
<glyph glyph-name="uni2004" unicode="&#x2004;" horiz-adv-x="333" d="" />
<glyph glyph-name="uni2007" unicode="&#x2007;" horiz-adv-x="400" d="" />
<glyph glyph-name="uni2009" unicode="&#x2009;" horiz-adv-x="160" d="" />
<glyph glyph-name="uni200A" unicode="&#x200a;" horiz-adv-x="80" d="" />
<glyph glyph-name="uni200B" unicode="&#x200b;" d="" />
<glyph glyph-name="uni2012" unicode="&#x2012;" horiz-adv-x="346" d="M356 246 L356 283 L-10 283 L-10 246 L356 246 Z " />
<glyph glyph-name="endash" unicode="&#x2013;" horiz-adv-x="329" d="M49 229 L280 229 L280 261 L49 261 L49 229 Z " />
<glyph glyph-name="emdash" unicode="&#x2014;" horiz-adv-x="615" d="M49 229 L566 229 L566 261 L49 261 L49 229 Z " />
<glyph glyph-name="quoteleft" unicode="&#x2018;" horiz-adv-x="149" d="M118 665 C69 620 44 566 44 514 C44 482 58 452 81 436 C93 436 107 450 107 462 C90 485 83 505 83 536 C83 580 107 617 136 651 L118 665 Z " />
<glyph glyph-name="quoteright" unicode="&#x2019;" horiz-adv-x="165" d="M58 453 C107 498 132 552 132 604 C132 636 118 666 95 682 C83 682 69 668 69 656 C86 633 93 613 93 582 C93 538 69 501 40 467 L58 453 Z " />
<glyph glyph-name="quotesinglbase" unicode="&#x201a;" horiz-adv-x="154" d="M33 -128 C83 -83 108 -29 108 23 C108 55 94 85 70 101 C58 101 44 88 44 75 C61 53 68 33 68 1 C68 -43 45 -80 15 -115 L33 -128 Z " />
<glyph glyph-name="quotedblleft" unicode="&#x201c;" horiz-adv-x="267" d="M118 665 C69 620 44 566 44 514 C44 482 58 452 81 436 C93 436 107 450 107 462 C90 485 83 505 83 536 C83 580 107 617 136 651 L118 665 Z M236 665 C187 620 162 566 162 514 C162 482 176 452 199 436 C211 436 225 450 225 462 C208 485 201 505 201 536 C201 580 225 617 254 651 L236 665 Z " />
<glyph glyph-name="quotedblright" unicode="&#x201d;" horiz-adv-x="286" d="M56 444 C105 489 130 543 130 595 C130 627 116 657 93 673 C81 673 67 659 67 647 C84 624 91 604 91 573 C91 529 67 492 38 458 L56 444 Z M177 444 C226 489 251 543 251 595 C251 627 237 657 214 673 C202 673 188 659 188 647 C205 624 212 604 212 573 C212 529 188 492 159 458 L177 444 Z " />
<glyph glyph-name="quotedblbase" unicode="&#x201e;" horiz-adv-x="275" d="M33 -128 C83 -83 108 -29 108 23 C108 55 94 85 70 101 C58 101 44 88 44 75 C61 53 68 33 68 1 C68 -43 45 -80 15 -115 L33 -128 Z M154 -128 C204 -83 229 -29 229 23 C229 55 215 85 191 101 C179 101 165 88 165 75 C182 53 189 33 189 1 C189 -43 166 -80 136 -115 L154 -128 Z " />
<glyph glyph-name="dagger" unicode="&#x2020;" horiz-adv-x="345" d="M26 419 L155 419 L155 0 L187 0 L187 419 L318 419 L318 450 L187 450 L187 653 L155 653 L155 450 L26 450 L26 419 Z " />
<glyph glyph-name="daggerdbl" unicode="&#x2021;" horiz-adv-x="375" d="M41 407 L170 407 L170 233 L41 233 L41 202 L170 202 L170 0 L201 0 L201 202 L333 202 L333 233 L201 233 L201 407 L333 407 L333 438 L201 438 L201 653 L170 653 L170 438 L41 438 L41 407 Z " />
<glyph glyph-name="bullet" unicode="&#x2022;" horiz-adv-x="375" d="M187 166 C261 166 317 223 317 296 C317 369 261 425 187 425 C114 425 58 369 58 296 C58 223 114 166 187 166 L187 166 Z " />
<glyph glyph-name="ellipsis" unicode="&#x2026;" horiz-adv-x="467" d="M53 -2 L95 -2 L95 105 L53 105 L53 -2 Z M211 -2 L253 -2 L253 105 L211 105 L211 -2 Z M367 -2 L409 -2 L409 105 L367 105 L367 -2 Z " />
<glyph glyph-name="perthousand" unicode="&#x2030;" horiz-adv-x="694" d="M121 285 C176 285 210 342 210 436 C210 539 175 590 121 590 C65 590 30 529 30 434 C30 335 65 285 121 285 L121 285 Z M268 370 L296 370 L380 573 L380 583 L347 583 L268 370 Z M121 313 C77 313 61 365 61 434 C61 511 80 562 120 562 C161 562 179 516 179 435 C179 364 163 313 121 313 L121 313 Z M379 -7 C435 -7 469 51 469 145 C469 248 434 299 379 299 C324 299 289 238 289 143 C289 44 324 -7 379 -7 L379 -7 Z M380 22 C336 22 320 73 320 143 C320 217 338 270 378 270 C420 270 438 225 438 144 C438 73 422 22 380 22 L380 22 Z M241 221 L212 221 L128 10 L128 0 L160 0 L241 221 Z M575 -7 C631 -7 665 51 665 145 C665 248 630 299 575 299 C520 299 485 238 485 143 C485 44 520 -7 575 -7 L575 -7 Z M576 22 C532 22 516 73 516 143 C516 217 534 270 574 270 C616 270 634 225 634 144 C634 73 618 22 576 22 L576 22 Z " />
<glyph glyph-name="guilsinglleft" unicode="&#x2039;" horiz-adv-x="181" d="M107 46 L141 46 L78 226 L140 405 L106 405 L36 226 L107 46 Z " />
<glyph glyph-name="guilsinglright" unicode="&#x203a;" horiz-adv-x="181" d="M74 408 L40 408 L103 228 L41 49 L75 49 L145 228 L74 408 Z " />
<glyph glyph-name="uni203D" unicode="&#x203d;" horiz-adv-x="265" d="M90 321 L96 192 L124 193 L124 268 C160 287 236 340 236 451 C236 552 189 590 119 590 C91 590 56 583 30 569 L30 536 C58 551 89 558 117 558 C169 558 200 524 200 450 C200 368 158 322 124 299 L124 323 L120 468 L85 466 L90 321 Z M86 -2 L128 -2 L128 105 L86 105 L86 -2 Z " />
<glyph glyph-name="fraction" unicode="&#x2044;" horiz-adv-x="91" d="M-62 0 L175 560 L175 563 L150 563 L-87 3 L-87 0 L-62 0 Z " />
<glyph glyph-name="zerosuperior" unicode="&#x2070;" horiz-adv-x="216" d="M106 396 C163 396 193 449 193 556 C193 644 173 712 109 712 C52 712 23 653 23 547 C23 447 46 396 106 396 L106 396 Z M108 421 C72 421 53 451 53 548 C53 643 72 687 108 687 C144 687 163 647 163 556 C163 462 144 421 108 421 L108 421 Z " />
<glyph glyph-name="i.superior" unicode="&#x2071;" horiz-adv-x="113" d="M14 678 L48 678 L48 400 L78 400 L78 707 L14 707 L14 678 Z M48 791 L78 791 L78 852 L48 852 L48 791 Z " />
<glyph glyph-name="foursuperior" unicode="&#x2074;" horiz-adv-x="180" d="M108 400 L136 400 L136 484 L166 484 L166 508 L136 508 L136 711 L106 711 L8 509 L8 484 L108 484 L108 400 Z M33 508 L106 664 L108 664 L108 508 L33 508 Z " />
<glyph glyph-name="fivesuperior" unicode="&#x2075;" horiz-adv-x="172" d="M74 396 C114 396 151 426 151 493 C151 564 117 582 69 582 C63 582 58 581 53 581 L58 681 L148 681 L148 707 L36 707 L28 553 C38 555 49 556 59 556 C99 556 122 545 122 491 C122 446 102 422 73 422 C54 422 37 425 18 434 L18 407 C32 401 49 396 74 396 L74 396 Z " />
<glyph glyph-name="sixsuperior" unicode="&#x2076;" horiz-adv-x="189" d="M94 396 C145 396 170 438 170 500 C170 564 147 589 106 589 C86 589 66 581 52 569 C57 648 78 687 118 687 C129 687 142 685 157 677 L157 704 C144 709 129 712 117 712 C56 712 22 644 22 531 C22 449 44 396 94 396 L94 396 Z M100 565 C130 565 141 546 141 498 C141 447 128 421 95 421 C63 421 51 465 51 531 L51 546 C63 556 80 565 100 565 L100 565 Z " />
<glyph glyph-name="sevensuperior" unicode="&#x2077;" horiz-adv-x="148" d="M50 400 L143 689 L143 707 L10 707 L10 681 L114 681 L22 402 L23 400 L50 400 Z " />
<glyph glyph-name="eightsuperior" unicode="&#x2078;" horiz-adv-x="190" d="M167 483 C167 526 145 544 121 557 C144 573 163 599 163 635 C163 681 138 712 93 712 C52 712 27 676 27 630 C27 592 43 572 63 559 C41 545 21 516 21 480 C21 429 46 396 91 396 C138 396 167 433 167 483 L167 483 Z M49 482 C49 515 63 537 79 550 C108 535 140 524 140 482 C140 433 116 420 93 420 C66 420 49 441 49 482 L49 482 Z M135 633 C135 605 123 582 103 566 C77 579 53 592 53 631 C53 668 69 687 93 687 C124 687 135 664 135 633 L135 633 Z " />
<glyph glyph-name="ninesuperior" unicode="&#x2079;" horiz-adv-x="189" d="M31 404 C44 398 59 396 72 396 C133 396 168 463 168 577 C168 654 146 712 94 712 C44 712 19 670 19 608 C19 545 42 519 83 519 C103 519 124 529 138 541 C133 460 111 422 71 422 C60 422 48 423 31 431 L31 404 Z M89 543 C59 543 47 561 47 610 C47 662 62 688 93 688 C126 688 139 643 139 577 L139 563 C126 553 108 543 89 543 L89 543 Z " />
<glyph glyph-name="plussuperior" unicode="&#x207a;" horiz-adv-x="237" d="M17 538 L104 538 L104 442 L131 442 L131 538 L220 538 L220 566 L131 566 L131 663 L104 663 L104 566 L17 566 L17 538 Z " />
<glyph glyph-name="minussuperior" unicode="&#x207b;" horiz-adv-x="261" d="M30 539 L231 539 L231 567 L30 567 L30 539 Z " />
<glyph glyph-name="equalsuperior" unicode="&#x207c;" horiz-adv-x="246" d="M30 476 L216 476 L216 505 L30 505 L30 476 Z M30 603 L216 603 L216 632 L30 632 L30 603 Z " />
<glyph glyph-name="parenleftsuperior" unicode="&#x207d;" horiz-adv-x="117" d="M117 305 C101 329 45 428 45 578 C45 725 99 819 116 839 L88 839 C72 821 16 731 16 577 C16 425 65 338 87 305 L117 305 Z " />
<glyph glyph-name="parenrightsuperior" unicode="&#x207e;" horiz-adv-x="117" d="M31 305 C52 331 101 417 101 570 C101 724 48 815 30 839 L1 839 C17 816 73 719 73 569 C73 421 18 326 1 305 L31 305 Z " />
<glyph glyph-name="n.superior" unicode="&#x207f;" horiz-adv-x="251" d="M38 400 L68 400 L68 640 C89 662 117 683 144 683 C183 683 187 653 187 595 L187 400 L217 400 L217 601 C217 678 204 712 155 712 C117 712 84 688 64 666 L59 707 L28 707 L38 638 L38 400 Z " />
<glyph glyph-name="zeroinferior" unicode="&#x2080;" horiz-adv-x="216" d="M106 -4 C163 -4 193 49 193 156 C193 244 173 312 109 312 C52 312 23 253 23 147 C23 47 46 -4 106 -4 L106 -4 Z M108 21 C72 21 53 51 53 148 C53 243 72 287 108 287 C144 287 163 247 163 156 C163 62 144 21 108 21 L108 21 Z " />
<glyph glyph-name="oneinferior" unicode="&#x2081;" horiz-adv-x="125" d="M89 0 L89 311 L68 311 L6 287 L6 262 L60 280 L60 0 L89 0 Z " />
<glyph glyph-name="twoinferior" unicode="&#x2082;" horiz-adv-x="181" d="M128 222 C128 155 70 86 14 24 L14 0 L163 0 L163 28 L50 28 L50 29 C99 80 158 154 158 224 C158 286 127 312 85 312 C62 312 39 306 20 293 L21 267 C46 283 62 286 80 286 C111 286 128 263 128 222 L128 222 Z " />
<glyph glyph-name="threeinferior" unicode="&#x2083;" horiz-adv-x="171" d="M71 -4 C114 -4 151 20 151 87 C151 136 122 161 92 163 L92 164 C108 169 140 193 140 243 C140 287 119 312 79 312 C58 312 37 306 20 295 L20 268 C41 282 56 286 74 286 C100 286 111 268 111 238 C111 201 85 172 57 168 L57 148 C98 146 121 128 121 86 C121 49 107 22 72 22 C54 22 37 24 17 33 L17 7 C30 1 47 -4 71 -4 L71 -4 Z " />
<glyph glyph-name="fourinferior" unicode="&#x2084;" horiz-adv-x="180" d="M108 0 L136 0 L136 84 L166 84 L166 108 L136 108 L136 311 L106 311 L8 109 L8 84 L108 84 L108 0 Z M33 108 L106 264 L108 264 L108 108 L33 108 Z " />
<glyph glyph-name="fiveinferior" unicode="&#x2085;" horiz-adv-x="171" d="M74 -4 C114 -4 151 26 151 93 C151 164 117 182 69 182 C63 182 58 181 53 181 L58 281 L148 281 L148 307 L36 307 L28 153 C38 155 49 156 59 156 C99 156 122 145 122 91 C122 46 102 22 73 22 C54 22 37 25 18 34 L18 7 C32 1 49 -4 74 -4 L74 -4 Z " />
<glyph glyph-name="sixinferior" unicode="&#x2086;" horiz-adv-x="189" d="M94 -4 C145 -4 170 38 170 100 C170 164 147 189 106 189 C86 189 66 181 52 169 C57 248 78 287 118 287 C129 287 142 285 157 277 L157 304 C144 309 129 312 117 312 C56 312 22 244 22 131 C22 49 44 -4 94 -4 L94 -4 Z M100 165 C130 165 141 146 141 98 C141 47 128 21 95 21 C63 21 51 65 51 131 L51 146 C63 156 80 165 100 165 L100 165 Z " />
<glyph glyph-name="seveninferior" unicode="&#x2087;" horiz-adv-x="147" d="M50 0 L143 289 L143 307 L10 307 L10 281 L114 281 L22 2 L23 0 L50 0 Z " />
<glyph glyph-name="eightinferior" unicode="&#x2088;" horiz-adv-x="190" d="M167 83 C167 126 145 144 121 157 C144 173 163 199 163 235 C163 281 138 312 93 312 C52 312 27 276 27 230 C27 192 43 172 63 159 C41 145 21 116 21 80 C21 29 46 -4 91 -4 C138 -4 167 33 167 83 L167 83 Z M49 82 C49 115 63 137 79 150 C108 135 140 124 140 82 C140 33 116 20 93 20 C66 20 49 41 49 82 L49 82 Z M135 233 C135 205 123 182 103 166 C77 179 53 192 53 231 C53 268 69 287 93 287 C124 287 135 264 135 233 L135 233 Z " />
<glyph glyph-name="nineinferior" unicode="&#x2089;" horiz-adv-x="189" d="M31 4 C44 -2 59 -4 72 -4 C133 -4 168 63 168 177 C168 254 146 312 94 312 C44 312 19 270 19 208 C19 145 42 119 83 119 C103 119 124 129 138 141 C133 60 111 22 71 22 C60 22 48 23 31 31 L31 4 Z M89 143 C59 143 47 161 47 210 C47 262 62 288 93 288 C126 288 139 243 139 177 L139 163 C126 153 108 143 89 143 L89 143 Z " />
<glyph glyph-name="plus.inferior" unicode="&#x208a;" horiz-adv-x="237" d="M17 138 L104 138 L104 42 L131 42 L131 138 L220 138 L220 166 L131 166 L131 263 L104 263 L104 166 L17 166 L17 138 Z " />
<glyph glyph-name="minus.inferior" unicode="&#x208b;" horiz-adv-x="261" d="M30 139 L231 139 L231 167 L30 167 L30 139 Z " />
<glyph glyph-name="equal.inferior" unicode="&#x208c;" horiz-adv-x="246" d="M30 76 L216 76 L216 105 L30 105 L30 76 Z M30 203 L216 203 L216 232 L30 232 L30 203 Z " />
<glyph glyph-name="parenleft.inferior" unicode="&#x208d;" horiz-adv-x="117" d="M117 -95 C101 -71 45 28 45 178 C45 325 99 419 116 439 L88 439 C72 421 16 331 16 177 C16 25 65 -62 87 -95 L117 -95 Z " />
<glyph glyph-name="parenright.inferior" unicode="&#x208e;" horiz-adv-x="117" d="M31 -95 C52 -69 101 17 101 170 C101 324 48 415 30 439 L1 439 C17 416 73 319 73 169 C73 21 18 -74 1 -95 L31 -95 Z " />
<glyph glyph-name="a.inferior" unicode="&#x2090;" horiz-adv-x="221" d="M163 0 L194 0 L185 59 L185 227 C185 293 158 313 113 313 C87 313 53 307 30 296 L30 267 C48 275 81 283 106 283 C146 283 155 256 155 215 L155 165 L119 165 C56 165 18 138 18 76 C18 26 37 -5 79 -5 C113 -5 141 16 158 37 L163 0 Z M86 22 C62 22 48 37 48 78 C48 125 74 140 116 140 L155 140 L155 63 C135 44 111 22 86 22 L86 22 Z " />
<glyph glyph-name="e.inferior" unicode="&#x2091;" horiz-adv-x="227" d="M200 12 L200 40 C177 28 153 23 128 23 C81 23 52 55 52 148 L205 148 L205 166 C205 257 182 313 117 313 C54 313 22 251 22 148 C22 41 56 -5 124 -5 C156 -5 180 0 200 12 L200 12 Z M116 284 C163 284 173 229 173 174 L173 173 L52 173 C56 249 79 284 116 284 L116 284 Z " />
<glyph glyph-name="o.inferior" unicode="&#x2092;" horiz-adv-x="236" d="M117 -5 C180 -5 214 65 214 154 C214 266 183 313 120 313 C61 313 21 243 21 152 C21 40 59 -5 117 -5 L117 -5 Z M119 23 C75 23 53 61 53 153 C53 233 76 284 119 284 C170 284 184 237 184 153 C184 75 162 23 119 23 L119 23 Z " />
<glyph glyph-name="x.inferior" unicode="&#x2093;" horiz-adv-x="215" d="M48 307 L14 307 L89 156 L7 0 L40 0 L107 136 L171 0 L205 0 L128 159 L204 307 L171 307 L110 179 L48 307 Z " />
<glyph glyph-name="h.inferior" unicode="&#x2095;" horiz-adv-x="249" d="M185 0 L215 0 L215 201 C215 277 203 313 152 313 C118 313 87 292 67 272 L67 477 L36 477 L36 0 L67 0 L67 243 C88 264 115 283 142 283 C181 283 185 253 185 195 L185 0 Z " />
<glyph glyph-name="k.inferior" unicode="&#x2096;" horiz-adv-x="211" d="M168 0 L204 0 L111 172 L207 307 L171 307 L80 175 L80 165 L168 0 Z M36 0 L67 0 L67 477 L36 477 L36 0 Z " />
<glyph glyph-name="l.inferior" unicode="&#x2097;" horiz-adv-x="111" d="M40 0 L71 0 L71 477 L40 477 L40 0 Z " />
<glyph glyph-name="m.inferior" unicode="&#x2098;" horiz-adv-x="390" d="M326 0 L356 0 L356 202 C356 278 344 312 294 312 C259 312 230 291 208 267 C200 298 183 312 151 312 C117 312 87 290 66 267 L60 307 L29 307 L38 238 L38 0 L69 0 L69 241 C89 262 114 283 141 283 C181 283 184 254 184 195 L184 0 L214 0 L214 203 C214 217 213 230 212 241 C232 262 256 283 283 283 C323 283 326 254 326 195 L326 0 Z " />
<glyph glyph-name="n.inferior" unicode="&#x2099;" horiz-adv-x="251" d="M38 0 L68 0 L68 240 C89 262 117 283 144 283 C183 283 187 253 187 195 L187 0 L217 0 L217 201 C217 278 204 312 155 312 C117 312 84 288 64 266 L59 307 L28 307 L38 238 L38 0 Z " />
<glyph glyph-name="p.inferior" unicode="&#x209a;" horiz-adv-x="242" d="M38 -141 L68 -141 L68 1 C82 -3 98 -5 114 -5 C180 -5 221 49 221 166 C221 259 195 312 141 312 C110 312 85 291 64 269 L59 307 L28 307 L38 239 L38 -141 Z M68 244 C86 264 108 284 132 284 C174 284 189 239 189 161 C189 74 168 23 114 23 C99 23 82 25 68 31 L68 244 Z " />
<glyph glyph-name="s.inferior" unicode="&#x209b;" horiz-adv-x="192" d="M89 -4 C134 -4 173 17 173 86 C173 144 137 159 101 171 C70 182 50 191 50 229 C50 270 75 284 103 284 C124 284 140 282 165 270 L165 300 C148 309 124 312 104 312 C58 312 21 285 21 226 C21 172 54 158 89 145 C122 134 145 121 145 85 C145 43 126 23 91 23 C69 23 51 27 24 39 L24 9 C43 0 63 -4 89 -4 L89 -4 Z " />
<glyph glyph-name="t.inferior" unicode="&#x209c;" horiz-adv-x="169" d="M11 278 L44 278 L44 83 C44 15 69 -5 105 -5 C124 -5 142 -2 154 5 L154 32 C142 27 129 23 114 23 C88 23 74 38 74 90 L74 278 L148 278 L148 307 L74 307 L74 387 L44 387 L44 307 L11 307 L11 278 Z " />
<glyph glyph-name="colonsign" unicode="&#x20a1;" horiz-adv-x="421" d="M163 -90 L191 -90 L214 -7 C221 -7 228 -8 235 -8 C285 -8 325 4 346 17 L346 54 C313 35 279 28 241 28 C235 28 230 28 224 29 L403 664 L374 664 L348 571 C336 576 321 581 302 585 L325 664 L296 664 L274 588 C264 589 252 590 240 590 C102 590 37 456 37 290 C37 174 63 83 118 33 L84 -90 L113 -90 L142 16 C156 8 171 1 187 -2 L163 -90 Z M79 295 C79 459 144 553 242 553 C249 553 257 553 264 552 L132 80 C98 124 79 195 79 295 L79 295 Z M154 57 L292 549 C308 546 323 542 338 535 L198 34 C182 39 167 46 154 57 L154 57 Z " />
<glyph glyph-name="cruzeiro" unicode="&#x20a2;" horiz-adv-x="411" d="M242 -8 C293 -8 334 5 356 17 L356 54 C322 35 285 29 247 29 L233 29 L233 216 C261 261 293 301 338 301 C347 301 356 299 365 296 L365 334 C355 338 347 339 336 339 C290 339 254 295 230 258 L221 330 L185 330 L198 230 L198 36 C124 59 81 142 81 293 C81 456 142 554 243 554 C280 554 318 549 356 529 L356 568 C333 578 300 590 243 590 C103 590 41 451 41 289 C41 113 103 -8 242 -8 L242 -8 Z " />
<glyph glyph-name="franc" unicode="&#x20a3;" horiz-adv-x="475" d="M62 0 L101 0 L101 289 L262 289 L271 223 L271 0 L309 0 L309 207 C337 252 370 293 416 293 C425 293 434 291 443 287 L443 327 C432 331 424 332 414 332 C367 332 331 287 306 249 L297 324 L101 324 L101 547 L308 547 L308 583 L62 583 L62 0 Z " />
<glyph glyph-name="lira" unicode="&#x20a4;" horiz-adv-x="358" d="M269 346 L115 346 C111 373 109 399 109 422 C109 511 149 553 207 553 C244 553 269 547 300 527 L300 568 C275 581 245 590 205 590 C140 590 72 547 72 423 C72 399 74 373 77 346 L43 346 L43 313 L81 313 L94 219 L43 219 L43 185 L97 185 C98 176 98 168 98 161 C98 120 87 77 69 35 L41 35 L41 0 L322 0 L322 35 L108 35 C125 77 135 120 135 166 C135 172 135 178 134 185 L269 185 L269 219 L132 219 C129 249 124 281 119 313 L269 313 L269 346 Z " />
<glyph glyph-name="mill" unicode="&#x20a5;" horiz-adv-x="554" d="M263 0 L301 0 L301 297 L320 381 C345 404 376 422 408 422 C468 422 473 386 473 312 L473 0 L511 0 L511 323 C511 420 490 458 419 458 C386 458 355 444 330 425 L364 574 L331 574 L292 404 C280 442 255 458 210 458 C158 458 115 425 85 390 L76 450 L38 450 L52 349 L52 0 L90 0 L90 357 C119 391 157 422 198 422 C257 422 263 386 263 312 L263 275 L173 -120 L206 -120 L263 130 L263 0 Z " />
<glyph glyph-name="naira" unicode="&#x20a6;" horiz-adv-x="485" d="M81 0 L121 0 L120 222 L252 222 L357 0 L400 0 L400 222 L450 222 L450 253 L400 253 L400 328 L450 328 L450 359 L400 359 L400 583 L361 583 L361 359 L229 359 L123 583 L81 583 L81 359 L36 359 L36 328 L81 328 L81 253 L36 253 L36 222 L81 222 L81 0 Z M120 328 L203 328 L238 253 L120 253 L120 328 Z M244 328 L361 328 L361 253 L279 253 L244 328 Z M121 503 L188 359 L120 359 L120 503 L121 503 Z M362 83 L360 83 L294 222 L361 222 L362 83 Z " />
<glyph glyph-name="pesetas" unicode="&#x20a7;" horiz-adv-x="827" d="M61 0 L101 0 L101 216 L155 216 C271 216 323 292 323 403 C323 534 268 583 182 583 L61 583 L61 0 Z M170 547 C247 547 283 497 283 402 C283 280 216 252 151 251 L101 251 L101 547 L170 547 Z M338 415 L389 415 L389 99 C389 21 426 -6 477 -6 C504 -6 529 -2 548 9 L548 41 C529 33 510 29 487 29 C450 29 428 50 427 108 L427 415 L542 415 L542 450 L427 450 L427 569 L389 569 L389 450 L338 450 L338 415 Z M664 -6 C731 -6 789 30 789 127 C789 202 740 228 685 249 C636 269 603 285 603 338 C603 392 637 423 686 423 C716 423 740 419 775 404 L775 442 C749 454 716 458 687 458 C615 458 566 412 566 336 C566 262 614 238 666 218 C714 199 753 180 753 126 C753 60 722 30 667 30 C635 30 605 34 569 50 L569 12 C597 0 628 -6 664 -6 L664 -6 Z " />
<glyph glyph-name="rupee" unicode="&#x20a8;" horiz-adv-x="607" d="M441 27 C392 27 348 64 282 177 C272 193 251 228 237 254 C292 280 321 334 321 415 C321 538 268 583 179 583 L62 583 L62 0 L102 0 L102 238 L153 238 C170 238 186 239 201 242 C216 214 241 173 250 157 C315 44 361 -5 440 -5 C510 -5 570 28 570 126 C570 201 521 227 467 249 C418 270 384 287 384 338 C384 392 416 425 465 425 C495 425 521 420 556 404 L556 441 C528 455 494 460 465 460 C393 460 347 411 347 337 C347 262 396 241 448 219 C496 200 535 177 535 125 C535 57 501 27 441 27 L441 27 Z M167 547 C245 547 280 512 280 414 C280 291 214 273 149 273 L102 273 L102 547 L167 547 Z " />
<glyph glyph-name="won" unicode="&#x20a9;" horiz-adv-x="641" d="M601 583 L559 583 L513 372 L383 372 L342 583 L295 583 L250 372 L124 372 L86 583 L44 583 L85 372 L40 372 L40 340 L91 340 L109 248 L40 248 L40 216 L115 216 L157 0 L204 0 L250 216 L376 216 L418 0 L466 0 L516 216 L600 216 L600 248 L523 248 L545 340 L600 340 L600 372 L552 372 L601 583 Z M389 340 L506 340 L486 248 L407 248 L389 340 Z M130 340 L243 340 L223 248 L147 248 L130 340 Z M277 340 L353 340 L370 248 L257 248 L277 340 Z M181 56 L152 216 L217 216 L184 56 L181 56 Z M443 59 L413 216 L479 216 L445 59 L443 59 Z M315 518 L319 518 L347 372 L284 372 L315 518 Z " />
<glyph glyph-name="sheqel" unicode="&#x20aa;" horiz-adv-x="501" d="M62 0 L95 0 L95 542 L195 542 C281 542 295 497 295 334 L295 257 L327 257 L327 332 C327 522 312 583 184 583 L62 583 L62 0 Z M181 0 L277 0 C434 0 443 122 443 257 L443 583 L410 583 L410 255 C410 116 388 41 285 41 L215 41 L215 347 L181 347 L181 0 Z " />
<glyph glyph-name="dong" unicode="&#x20ab;" horiz-adv-x="367" d="M154 574 L257 574 L257 474 C234 482 210 485 184 485 C104 485 40 439 40 286 C40 151 91 106 152 106 C195 106 232 138 260 174 L269 113 L304 113 L292 202 L292 574 L332 574 L332 606 L292 606 L292 684 L257 684 L257 606 L154 606 L154 574 Z M159 139 C105 139 76 181 76 292 C76 425 126 453 185 453 C212 453 235 447 257 440 L257 205 C229 173 197 139 159 139 L159 139 Z M41 0 L308 0 L308 34 L41 34 L41 0 Z " />
<glyph glyph-name="Euro" unicode="&#x20ac;" horiz-adv-x="409" d="M34 340 L82 340 C80 323 80 306 80 288 C80 271 80 255 81 240 L34 240 L34 208 L83 208 C98 69 153 -6 264 -6 C309 -6 344 4 366 17 L366 55 C333 35 306 31 271 31 C193 31 143 85 128 208 L292 208 L292 240 L124 240 C123 256 123 274 123 293 C123 309 123 325 124 340 L292 340 L292 372 L128 372 C144 490 197 553 270 553 C299 553 325 552 362 533 L362 572 C339 582 316 589 270 589 C164 589 102 501 85 372 L34 372 L34 340 Z " />
<glyph glyph-name="uni20AD" unicode="&#x20ad;" horiz-adv-x="388" d="M73 0 L113 0 L113 288 L139 288 L304 0 L350 0 L182 288 L332 288 L332 321 L182 321 L356 583 L311 583 L142 321 L113 321 L113 583 L73 583 L73 321 L33 321 L33 288 L73 288 L73 0 Z " />
<glyph glyph-name="uni20AE" unicode="&#x20ae;" horiz-adv-x="386" d="M27 547 L173 547 L173 328 L89 280 L89 244 L173 293 L173 206 L89 158 L89 122 L173 171 L173 0 L214 0 L214 195 L301 246 L301 281 L214 230 L214 317 L301 368 L301 403 L214 352 L214 547 L360 547 L360 583 L27 583 L27 547 Z " />
<glyph glyph-name="uni20B1" unicode="&#x20b1;" horiz-adv-x="435" d="M81 0 L121 0 L121 216 L175 216 C262 216 313 259 333 328 L399 328 L399 358 L340 358 C342 372 343 387 343 403 C343 418 342 432 341 445 L399 445 L399 474 L336 474 C319 552 270 583 202 583 L81 583 L81 474 L38 474 L38 445 L81 445 L81 358 L38 358 L38 328 L81 328 L81 0 Z M303 402 C303 385 301 371 299 358 L121 358 L121 445 L300 445 C302 432 303 417 303 402 L303 402 Z M171 251 L121 251 L121 328 L292 328 C270 268 220 252 171 251 L171 251 Z M190 547 C244 547 278 522 293 474 L121 474 L121 547 L190 547 Z " />
<glyph glyph-name="uni20B4" unicode="&#x20b4;" horiz-adv-x="385" d="M346 365 L293 365 C308 387 317 415 317 450 C317 530 269 590 187 590 C148 590 115 583 87 570 L87 530 C118 546 152 554 185 554 C247 554 278 507 278 452 C278 414 267 387 249 365 L37 365 L37 333 L211 333 C204 328 197 324 189 320 C159 304 131 286 109 261 L37 261 L37 228 L87 228 C77 206 71 179 71 146 C71 36 130 -6 209 -6 C245 -6 275 0 312 14 L312 56 C280 40 245 32 209 32 C149 32 109 67 109 148 C109 181 116 207 129 228 L346 228 L346 261 L159 261 C173 272 189 282 207 292 C228 304 249 317 266 333 L346 333 L346 365 Z " />
<glyph glyph-name="uni20B9" unicode="&#x20b9;" horiz-adv-x="360" d="M327 424 L274 424 C271 487 251 526 217 547 L317 547 L327 583 L48 583 L48 547 L122 547 C194 545 228 508 232 424 L48 424 L48 390 L232 390 C227 285 165 263 96 263 L47 263 L47 228 L106 228 C121 228 135 229 148 232 L256 0 L303 0 L185 243 C240 267 270 318 274 390 L317 390 L327 424 Z " />
<glyph glyph-name="uni2113" unicode="&#x2113;" horiz-adv-x="268" d="M17 186 L33 164 C45 174 58 186 71 198 L71 133 C71 30 96 -6 149 -6 C184 -6 208 6 231 28 L219 53 C202 36 183 26 157 26 C126 26 107 49 107 141 L107 233 C133 259 157 286 175 309 C224 370 247 419 247 475 C247 560 214 589 165 589 C97 589 71 521 71 422 L71 237 L17 186 Z M107 428 C107 525 128 558 164 558 C199 558 213 524 213 472 C213 427 193 379 153 329 C141 313 125 294 107 275 L107 428 Z " />
<glyph glyph-name="uni2116" unicode="&#x2116;" horiz-adv-x="673" d="M440 194 L631 194 L631 224 L440 224 L440 194 Z M534 270 C596 270 629 341 629 429 C629 542 598 588 537 588 C479 588 441 522 441 427 C441 316 477 270 534 270 L534 270 Z M535 298 C492 298 472 337 472 428 C472 506 493 559 536 559 C586 559 599 510 599 427 C599 351 579 298 535 298 L535 298 Z M61 0 L101 0 L100 503 L101 503 L337 0 L380 0 L380 583 L341 583 L342 83 L340 83 L103 583 L61 583 L61 0 Z " />
<glyph glyph-name="uni2117" unicode="&#x2117;" horiz-adv-x="504" d="M252 -6 C375 -6 464 111 464 289 C464 469 375 590 252 590 C129 590 40 469 40 289 C40 111 128 -6 252 -6 L252 -6 Z M252 14 C145 14 60 120 60 289 C60 458 145 570 252 570 C359 570 444 461 444 289 C444 120 359 14 252 14 L252 14 Z M182 90 L211 90 L211 227 L246 227 C326 227 364 280 364 352 C364 435 325 469 264 469 L182 469 L182 90 Z M256 442 C307 442 333 413 333 352 C333 273 288 254 243 254 L211 254 L211 442 L256 442 Z " />
<glyph glyph-name="servicemark" unicode="&#x2120;" horiz-adv-x="469" d="M193 300 L219 300 L235 535 L237 535 L291 300 L320 300 L377 535 L378 535 L394 300 L422 300 L401 583 L364 583 L308 346 L306 346 L252 583 L214 583 L193 300 Z M52 307 C70 300 84 296 102 296 C140 296 171 322 171 375 C171 422 140 442 112 460 C88 474 76 490 76 516 C76 548 91 565 117 565 C132 565 147 561 163 553 L163 579 C150 586 134 589 115 589 C78 589 51 564 51 514 C51 474 75 454 101 438 C127 421 146 406 146 374 C146 338 129 321 101 321 C83 321 67 326 52 334 L52 307 Z " />
<glyph glyph-name="trademark" unicode="&#x2122;" horiz-adv-x="495" d="M219 300 L245 300 L262 535 L263 535 L317 300 L347 300 L403 535 L405 535 L421 300 L447 300 L427 583 L390 583 L334 346 L332 346 L278 583 L240 583 L219 300 Z M50 558 L117 558 L117 300 L144 300 L144 558 L211 558 L211 583 L50 583 L50 558 Z " />
<glyph glyph-name="Omega" unicode="&#x2126;" horiz-adv-x="468" d="M232 592 C97 592 44 436 44 297 C44 175 88 84 139 38 L139 36 L47 36 L47 0 L183 0 L183 32 C126 90 86 169 86 294 C86 463 145 556 233 556 C320 556 382 463 382 294 C382 169 342 90 285 32 L285 0 L420 0 L420 36 L329 36 L329 38 C380 87 423 179 423 301 C423 440 369 592 232 592 L232 592 Z " />
<glyph glyph-name="estimated" unicode="&#x212e;" horiz-adv-x="388" d="M202 -7 C262 -7 309 18 344 87 L326 101 C295 40 256 20 203 20 C124 20 86 88 84 195 L84 216 L347 216 L347 273 C347 371 300 465 203 465 C96 465 40 357 40 217 C40 71 99 -7 202 -7 L202 -7 Z M84 241 L84 255 C86 370 131 442 203 442 C276 442 303 356 303 285 L303 241 L84 241 Z " />
<glyph glyph-name="onethird" unicode="&#x2153;" horiz-adv-x="422" d="M109 267 L109 578 L88 578 L26 554 L26 529 L80 547 L80 267 L109 267 Z M309 -4 C352 -4 389 20 389 87 C389 136 360 161 330 163 L330 164 C346 169 378 193 378 243 C378 287 357 312 317 312 C296 312 275 306 258 295 L258 268 C279 282 294 286 312 286 C338 286 349 268 349 238 C349 201 323 172 295 168 L295 148 C336 146 359 128 359 86 C359 49 345 22 310 22 C292 22 275 24 255 33 L255 7 C268 1 285 -4 309 -4 L309 -4 Z M94 0 L331 560 L331 563 L306 563 L69 3 L69 0 L94 0 Z " />
<glyph glyph-name="twothirds" unicode="&#x2154;" horiz-adv-x="433" d="M148 494 C148 427 90 358 34 296 L34 272 L183 272 L183 300 L70 300 L70 301 C119 352 178 426 178 496 C178 558 147 584 105 584 C82 584 59 578 40 565 L41 539 C66 555 82 558 100 558 C131 558 148 535 148 494 L148 494 Z M319 -4 C362 -4 399 20 399 87 C399 136 370 161 340 163 L340 164 C356 169 388 193 388 243 C388 287 367 312 327 312 C306 312 285 306 268 295 L268 268 C289 282 304 286 322 286 C348 286 359 268 359 238 C359 201 333 172 305 168 L305 148 C346 146 369 128 369 86 C369 49 355 22 320 22 C302 22 285 24 265 33 L265 7 C278 1 295 -4 319 -4 L319 -4 Z M118 0 L355 560 L355 563 L330 563 L93 3 L93 0 L118 0 Z " />
<glyph glyph-name="uni215B" unicode="&#x215b;" horiz-adv-x="433" d="M398 83 C398 126 376 144 352 157 C375 173 394 199 394 235 C394 281 369 312 324 312 C283 312 258 276 258 230 C258 192 274 172 294 159 C272 145 252 116 252 80 C252 29 277 -4 322 -4 C369 -4 398 33 398 83 L398 83 Z M93 0 L330 560 L330 563 L305 563 L68 3 L68 0 L93 0 Z M109 266 L109 577 L88 577 L26 553 L26 528 L80 546 L80 266 L109 266 Z M280 82 C280 115 294 137 310 150 C339 135 371 124 371 82 C371 33 347 20 324 20 C297 20 280 41 280 82 L280 82 Z M366 233 C366 205 354 182 334 166 C308 179 284 192 284 231 C284 268 300 287 324 287 C355 287 366 264 366 233 L366 233 Z " />
<glyph glyph-name="arrowleft" unicode="&#x2190;" horiz-adv-x="532" d="M205 94 L92 246 L532 246 L532 283 L92 283 L205 435 L159 435 L32 264 L159 94 L205 94 Z " />
<glyph glyph-name="arrowup" unicode="&#x2191;" horiz-adv-x="427" d="M391 457 L221 583 L49 457 L49 411 L201 524 L201 84 L239 84 L239 524 L391 411 L391 457 Z " />
<glyph glyph-name="arrowright" unicode="&#x2192;" horiz-adv-x="531" d="M373 94 L500 264 L373 435 L328 435 L440 283 L0 283 L0 246 L440 246 L328 94 L373 94 Z " />
<glyph glyph-name="arrowdown" unicode="&#x2193;" horiz-adv-x="427" d="M49 210 L221 84 L391 210 L391 256 L240 143 L240 583 L202 583 L202 143 L49 256 L49 210 Z " />
<glyph glyph-name="uni2196" unicode="&#x2196;" horiz-adv-x="436" d="M253 541 L44 510 L12 300 L45 268 L72 455 L383 143 L410 170 L99 481 L286 509 L253 541 Z " />
<glyph glyph-name="uni2197" unicode="&#x2197;" horiz-adv-x="452" d="M426 300 L395 510 L185 541 L152 509 L340 482 L28 171 L55 144 L366 455 L394 268 L426 300 Z " />
<glyph glyph-name="uni2198" unicode="&#x2198;" horiz-adv-x="436" d="M168 134 L378 165 L409 374 L377 407 L350 220 L39 532 L12 505 L323 194 L136 165 L168 134 Z " />
<glyph glyph-name="uni2199" unicode="&#x2199;" horiz-adv-x="436" d="M26 378 L57 168 L267 136 L299 169 L112 197 L424 508 L397 534 L86 223 L58 411 L26 378 Z " />
<glyph glyph-name="partialdiff" unicode="&#x2202;" horiz-adv-x="347" d="M175 460 C97 460 31 375 31 223 C31 62 83 -8 169 -8 C261 -8 307 101 307 229 C307 407 281 566 134 670 L111 645 C188 587 223 543 251 433 C229 453 203 460 175 460 L175 460 Z M268 224 C268 107 234 27 170 27 C108 27 71 78 71 224 C71 344 111 425 178 425 C206 425 232 415 258 393 C264 348 268 282 268 224 L268 224 Z " />
<glyph glyph-name="Delta" unicode="&#x2206;" horiz-adv-x="374" d="M351 0 L351 32 L218 583 L173 583 L22 32 L22 0 L351 0 Z M192 529 L195 529 L308 36 L62 36 L192 529 Z " />
<glyph glyph-name="product" unicode="&#x220f;" horiz-adv-x="497" d="M135 -207 L135 547 L359 547 L359 -207 L398 -207 L398 547 L477 547 L477 583 L20 583 L20 547 L95 547 L95 -208 L135 -207 Z " />
<glyph glyph-name="summation" unicode="&#x2211;" horiz-adv-x="353" d="M27 -207 L325 -207 L325 -170 L72 -170 L219 218 L75 547 L308 547 L308 583 L29 583 L29 550 L176 217 L27 -176 L27 -207 Z " />
<glyph glyph-name="minus" unicode="&#x2212;" horiz-adv-x="387" d="M52 278 L336 278 L336 313 L52 313 L52 278 Z " />
<glyph glyph-name="radical" unicode="&#x221a;" horiz-adv-x="384" d="M142 0 L185 0 L371 653 L331 653 L167 54 L164 54 L64 450 L23 450 L142 0 Z " />
<glyph glyph-name="infinity" unicode="&#x221e;" horiz-adv-x="607" d="M157 506 C83 506 42 399 42 294 C42 179 80 82 157 82 C224 82 275 189 306 267 C340 189 381 82 449 82 C526 82 565 182 565 294 C565 399 524 506 449 506 C383 506 340 403 306 326 C271 403 228 506 157 506 L157 506 Z M158 115 C117 115 75 173 75 294 C75 411 117 473 158 473 C215 473 258 362 288 296 C259 226 213 115 158 115 L158 115 Z M448 115 C394 115 353 229 322 296 C352 362 394 473 448 473 C490 473 533 411 533 294 C533 173 490 115 448 115 L448 115 Z " />
<glyph glyph-name="integral" unicode="&#x222b;" horiz-adv-x="298" d="M127 -38 C127 -136 112 -178 62 -178 C43 -178 35 -177 17 -173 L17 -207 C29 -210 46 -213 62 -213 C136 -213 163 -156 163 -43 L163 483 C163 582 187 624 237 624 C255 624 264 623 281 619 L281 654 C270 657 255 660 239 660 C165 660 127 603 127 490 L127 -38 Z " />
<glyph glyph-name="approxequal" unicode="&#x2248;" horiz-adv-x="381" d="M257 359 C288 359 313 384 328 414 L308 432 C295 409 281 393 258 393 C212 393 183 433 133 433 C99 433 69 407 54 384 L71 362 C83 377 102 399 134 399 C175 399 211 359 257 359 L257 359 Z M258 181 C289 181 314 206 329 236 L309 254 C296 231 282 215 259 215 C213 215 184 255 134 255 C100 255 70 229 55 206 L72 184 C84 199 103 221 135 221 C176 221 212 181 258 181 L258 181 Z " />
<glyph glyph-name="notequal" unicode="&#x2260;" horiz-adv-x="363" d="M50 368 L203 368 L138 224 L50 224 L50 190 L123 190 L48 21 L79 21 L155 190 L316 190 L316 224 L170 224 L234 368 L316 368 L316 402 L250 402 L320 558 L288 558 L218 402 L50 402 L50 368 Z " />
<glyph glyph-name="lessequal" unicode="&#x2264;" horiz-adv-x="373" d="M49 45 L325 45 L325 79 L49 79 L49 45 Z M316 134 L316 174 L92 332 L92 334 L316 491 L316 531 L49 344 L49 319 L316 134 Z " />
<glyph glyph-name="greaterequal" unicode="&#x2265;" horiz-adv-x="374" d="M326 79 L49 79 L49 45 L326 45 L326 79 Z M325 319 L325 344 L57 531 L57 490 L281 334 L281 331 L57 174 L57 134 L325 319 Z " />
<glyph glyph-name="uni2460" unicode="&#x2460;" horiz-adv-x="707" d="M353 -8 C518 -8 653 126 653 291 C653 456 518 591 353 591 C187 591 53 456 53 291 C53 126 187 -8 353 -8 L353 -8 Z M353 16 C202 16 79 140 79 291 C79 442 202 567 353 567 C504 567 627 442 627 291 C627 140 504 16 353 16 L353 16 Z M370 139 L370 450 L348 450 L262 421 L262 396 L337 416 L337 139 L370 139 Z " />
<glyph glyph-name="uni2461" unicode="&#x2461;" horiz-adv-x="707" d="M353 -8 C518 -8 653 126 653 291 C653 456 518 591 353 591 C187 591 53 456 53 291 C53 126 187 -8 353 -8 L353 -8 Z M353 16 C202 16 79 140 79 291 C79 442 202 567 353 567 C504 567 627 442 627 291 C627 140 504 16 353 16 L353 16 Z M241 139 L452 139 L452 167 L286 167 C286 167 287 168 288 168 C361 224 440 295 440 363 C440 424 397 450 341 450 C311 450 277 441 251 422 L251 394 C287 419 312 423 338 423 C381 423 407 402 407 361 C407 296 321 225 241 162 L241 139 Z " />
<glyph glyph-name="uni2462" unicode="&#x2462;" horiz-adv-x="707" d="M353 -8 C518 -8 653 126 653 291 C653 456 518 591 353 591 C187 591 53 456 53 291 C53 126 187 -8 353 -8 L353 -8 Z M353 16 C202 16 79 140 79 291 C79 442 202 567 353 567 C504 567 627 442 627 291 C627 140 504 16 353 16 L353 16 Z M335 135 C393 135 448 160 448 227 C448 274 406 299 366 301 L366 303 C385 307 433 331 433 381 C433 424 399 450 346 450 C317 450 288 441 264 423 L264 394 C293 416 317 423 344 423 C380 423 400 405 400 376 C400 340 358 311 318 307 L318 285 C378 283 415 265 415 223 C415 188 390 161 342 161 C316 161 288 165 261 178 L261 149 C277 141 301 135 335 135 L335 135 Z " />
<glyph glyph-name="uni2463" unicode="&#x2463;" horiz-adv-x="707" d="M353 -8 C518 -8 653 126 653 291 C653 456 518 591 353 591 C187 591 53 456 53 291 C53 126 187 -8 353 -8 L353 -8 Z M353 16 C202 16 79 140 79 291 C79 442 202 567 353 567 C504 567 627 442 627 291 C627 140 504 16 353 16 L353 16 Z M353 139 L386 139 L386 224 L432 224 L432 249 L386 249 L386 450 L356 450 L211 250 L211 224 L353 224 L353 139 Z M243 249 L353 403 L353 249 L243 249 Z " />
<glyph glyph-name="uni2464" unicode="&#x2464;" horiz-adv-x="707" d="M353 -8 C518 -8 653 126 653 291 C653 456 518 591 353 591 C187 591 53 456 53 291 C53 126 187 -8 353 -8 L353 -8 Z M353 16 C202 16 79 140 79 291 C79 442 202 567 353 567 C504 567 627 442 627 291 C627 140 504 16 353 16 L353 16 Z M330 135 C382 135 439 165 439 232 C439 301 390 323 320 323 C312 323 301 322 295 321 L303 419 L433 419 L433 445 L277 445 L265 294 C280 296 295 297 309 297 C371 297 406 281 406 230 C406 187 374 161 332 161 C305 161 278 166 251 178 L251 149 C269 142 294 135 330 135 L330 135 Z " />
<glyph glyph-name="uni2465" unicode="&#x2465;" horiz-adv-x="707" d="M353 -8 C518 -8 653 126 653 291 C653 456 518 591 353 591 C187 591 53 456 53 291 C53 126 187 -8 353 -8 L353 -8 Z M353 16 C202 16 79 140 79 291 C79 442 202 567 353 567 C504 567 627 442 627 291 C627 140 504 16 353 16 L353 16 Z M366 423 C381 423 399 422 422 412 L422 441 C404 447 383 450 366 450 C284 450 232 378 232 269 C232 193 265 135 334 135 C400 135 440 180 440 240 C440 305 401 330 348 330 C317 330 285 315 268 302 C274 383 307 423 366 423 L366 423 Z M341 304 C386 304 406 284 406 237 C406 189 382 161 336 161 C287 161 266 205 266 269 L266 277 C283 289 311 304 341 304 L341 304 Z " />
<glyph glyph-name="uni2466" unicode="&#x2466;" horiz-adv-x="707" d="M353 -8 C518 -8 653 126 653 291 C653 456 518 591 353 591 C187 591 53 456 53 291 C53 126 187 -8 353 -8 L353 -8 Z M353 16 C202 16 79 140 79 291 C79 442 202 567 353 567 C504 567 627 442 627 291 C627 140 504 16 353 16 L353 16 Z M307 139 L443 425 L443 445 L255 445 L255 419 L409 419 L275 141 L276 139 L307 139 Z " />
<glyph glyph-name="uni2467" unicode="&#x2467;" horiz-adv-x="707" d="M353 -8 C518 -8 653 126 653 291 C653 456 518 591 353 591 C187 591 53 456 53 291 C53 126 187 -8 353 -8 L353 -8 Z M353 16 C202 16 79 140 79 291 C79 442 202 567 353 567 C504 567 627 442 627 291 C627 140 504 16 353 16 L353 16 Z M450 221 C450 262 422 281 389 294 C419 311 444 339 444 374 C444 421 406 450 347 450 C294 450 255 414 255 369 C255 332 276 313 303 300 C272 284 247 253 247 219 C247 168 282 135 344 135 C405 135 450 171 450 221 L450 221 Z M411 371 C411 344 394 322 365 304 C325 317 286 330 286 370 C286 405 312 423 346 423 C392 423 411 400 411 371 L411 371 Z M279 220 C279 253 298 275 322 290 C366 272 417 262 417 219 C417 174 380 161 347 161 C308 161 279 180 279 220 L279 220 Z " />
<glyph glyph-name="uni2468" unicode="&#x2468;" horiz-adv-x="707" d="M353 -8 C518 -8 653 126 653 291 C653 456 518 591 353 591 C187 591 53 456 53 291 C53 126 187 -8 353 -8 L353 -8 Z M353 16 C202 16 79 140 79 291 C79 442 202 567 353 567 C504 567 627 442 627 291 C627 140 504 16 353 16 L353 16 Z M321 161 C305 161 287 163 264 173 L264 144 C282 138 303 135 320 135 C403 135 454 206 454 316 C454 392 421 450 352 450 C286 450 246 405 246 344 C246 280 285 255 338 255 C368 255 400 269 418 283 C412 202 378 161 321 161 L321 161 Z M345 281 C300 281 280 300 280 348 C280 399 304 424 351 424 C400 424 420 380 420 316 L420 308 C403 296 376 281 345 281 L345 281 Z " />
<glyph glyph-name="uni2469" unicode="&#x2469;" horiz-adv-x="707" d="M353 -8 C518 -8 653 126 653 291 C653 456 518 591 353 591 C187 591 53 456 53 291 C53 126 187 -8 353 -8 L353 -8 Z M353 16 C202 16 79 140 79 291 C79 442 202 567 353 567 C504 567 627 442 627 291 C627 140 504 16 353 16 L353 16 Z M263 139 L263 450 L241 450 L156 421 L156 396 L230 416 L230 139 L263 139 Z M422 135 C501 135 542 198 542 295 C542 373 516 450 427 450 C347 450 309 381 309 286 C309 196 340 135 422 135 L422 135 Z M424 161 C372 161 343 201 343 287 C343 370 371 423 424 423 C478 423 508 374 508 294 C508 210 479 161 424 161 L424 161 Z " />
<glyph glyph-name="uni24CA" unicode="&#x24ca;" horiz-adv-x="503" d="M251 -7 C375 -7 463 117 463 289 C463 461 375 590 251 590 C128 590 40 461 40 289 C40 117 127 -7 251 -7 L251 -7 Z M255 95 C311 95 357 142 357 256 L357 453 L327 453 L327 256 C327 167 300 124 255 124 C207 124 179 158 179 248 L179 453 L151 453 L151 243 C151 133 196 95 255 95 L255 95 Z M251 14 C145 14 60 125 60 289 C60 453 144 570 251 570 C359 570 443 456 443 289 C443 126 359 14 251 14 L251 14 Z " />
<glyph glyph-name="uni25B2" unicode="&#x25b2;" horiz-adv-x="590" d="M563 21 L295 449 L27 21 L563 21 Z " />
<glyph glyph-name="uni25B6" unicode="&#x25b6;" horiz-adv-x="538" d="M84 -33 L512 235 L84 503 L84 -33 Z " />
<glyph glyph-name="uni25B8" unicode="&#x25b8;" horiz-adv-x="378" d="M352 218 L85 486 L85 -50 L352 218 Z " />
<glyph glyph-name="uni25BA" unicode="&#x25ba;" horiz-adv-x="838" d="M806 218 L84 486 L84 -50 L806 218 Z " />
<glyph glyph-name="uni25BC" unicode="&#x25bc;" horiz-adv-x="610" d="M37 448 L305 20 L573 448 L37 448 Z " />
<glyph glyph-name="uni25C0" unicode="&#x25c0;" horiz-adv-x="538" d="M454 -33 L454 503 L26 235 L454 -33 Z " />
<glyph glyph-name="uni25C2" unicode="&#x25c2;" horiz-adv-x="379" d="M294 -50 L294 486 L27 219 L294 -50 Z " />
<glyph glyph-name="uni25C4" unicode="&#x25c4;" horiz-adv-x="838" d="M754 -50 L754 486 L32 218 L754 -50 Z " />
<glyph glyph-name="lozenge" unicode="&#x25ca;" horiz-adv-x="352" d="M159 0 L195 0 L331 286 L193 583 L158 583 L21 286 L159 0 Z M177 38 L59 288 L175 543 L294 285 L177 38 Z " />
<glyph glyph-name="uni2610" unicode="&#x2610;" horiz-adv-x="753" d="M85 0 L668 0 L668 583 L85 583 L85 0 Z M116 31 L116 552 L637 552 L637 31 L116 31 Z " />
<glyph glyph-name="uni2611" unicode="&#x2611;" horiz-adv-x="753" d="M85 0 L668 0 L668 583 L85 583 L85 0 Z M116 31 L116 552 L637 552 L637 31 L116 31 Z M257 78 L275 78 C378 180 510 368 589 490 L581 499 C559 492 535 474 522 455 C467 369 338 177 275 117 C247 170 224 260 223 306 L208 311 C201 309 185 293 181 287 C177 262 217 125 257 78 L257 78 Z " />
<glyph glyph-name="uni261A" unicode="&#x261a;" horiz-adv-x="973" d="M44 453 C27 391 81 386 81 386 L287 400 L342 365 C342 365 266 272 262 246 C262 246 278 200 315 186 C315 186 325 129 367 126 C367 126 376 88 422 74 L498 101 C498 101 574 88 718 140 L907 126 L907 365 L730 401 C730 401 680 443 617 459 L315 509 L44 453 Z " />
<glyph glyph-name="uni261B" unicode="&#x261b;" horiz-adv-x="973" d="M658 509 L356 459 C293 443 243 401 243 401 L66 365 L66 126 L255 140 C399 88 475 101 475 101 L551 74 C597 88 606 126 606 126 C648 129 658 186 658 186 C695 200 711 246 711 246 C707 272 631 365 631 365 L686 400 L892 386 C892 386 946 391 929 453 L658 509 Z " />
<glyph glyph-name="uni261C" unicode="&#x261c;" horiz-adv-x="974" d="M45 453 C28 391 82 386 82 386 L288 400 L365 359 C365 359 268 273 261 248 C261 248 272 203 313 189 C313 189 323 133 368 126 C368 126 377 88 423 74 L499 101 C499 101 575 88 719 140 L908 126 L908 365 L731 401 C731 401 681 443 618 459 L316 509 L45 453 Z M692 168 C626 136 495 131 495 131 L423 107 C399 109 387 145 387 145 L448 196 L510 216 L499 241 L438 219 L371 159 C349 164 336 200 336 200 L421 271 L480 290 L468 313 L408 292 L326 217 C303 223 292 250 292 250 L383 335 L407 366 L299 420 L99 408 C99 408 72 423 84 442 L315 482 L609 431 C654 415 708 376 708 376 L875 342 L875 159 L692 168 Z " />
<glyph glyph-name="uni261D" unicode="&#x261d;" horiz-adv-x="509" d="M44 472 L94 170 C110 107 152 57 152 57 L188 -120 L427 -120 L413 69 C465 213 452 289 452 289 L479 365 C465 411 427 420 427 420 C421 465 365 475 365 475 C350 516 306 527 306 527 C280 520 194 417 194 417 L153 500 L167 706 C167 706 162 760 100 743 L44 472 Z M394 -87 L212 -87 L178 80 C178 80 138 134 122 179 L71 473 L111 704 C130 716 146 689 146 689 L133 489 L187 376 L219 399 L304 496 C304 496 330 485 337 462 L262 380 L241 320 L263 308 L283 367 L354 452 C354 452 389 439 394 417 L334 350 L312 289 L338 278 L357 340 L409 401 C409 401 444 389 446 365 L422 293 C422 293 417 162 386 96 L394 -87 Z " />
<glyph glyph-name="uni261E" unicode="&#x261e;" horiz-adv-x="973" d="M658 509 L356 459 C293 443 243 401 243 401 L66 365 L66 126 L255 140 C399 88 475 101 475 101 L551 74 C597 88 606 126 606 126 C651 133 661 189 661 189 C702 203 712 248 712 248 C706 273 603 359 603 359 L686 400 L892 386 C892 386 946 391 929 453 L658 509 Z M99 159 L99 342 L265 376 C265 376 319 415 364 431 L658 482 L890 442 C902 423 874 408 874 408 L674 420 L561 366 L585 335 L682 250 C682 250 670 223 648 217 L565 292 L505 313 L494 290 L552 271 L637 200 C637 200 625 164 602 159 L536 219 L474 241 L463 216 L526 196 L587 145 C587 145 575 109 551 107 L479 131 C479 131 347 136 281 168 L99 159 Z " />
<glyph glyph-name="uni261F" unicode="&#x261f;" horiz-adv-x="509" d="M465 168 L415 470 C399 533 357 583 357 583 L321 760 L82 760 L96 571 C44 427 57 351 57 351 L30 275 C44 229 82 220 82 220 C89 176 145 166 145 166 C159 125 204 114 204 114 C229 121 315 223 315 223 L356 140 L342 -66 C342 -66 347 -120 409 -103 L465 168 Z M115 728 L298 728 L332 561 C332 561 371 507 387 462 L438 168 L398 -63 C379 -75 364 -48 364 -48 L376 152 L322 265 L291 242 L206 145 C206 145 179 156 173 178 L248 261 L269 321 L246 333 L227 274 L156 189 C156 189 120 202 115 224 L175 290 L197 352 L172 363 L152 300 L101 240 C101 240 65 252 63 276 L87 348 C87 348 92 479 124 545 L115 728 Z " />
<glyph glyph-name="uni267E" unicode="&#x267e;" horiz-adv-x="504" d="M252 -7 C375 -7 464 111 464 289 C464 467 375 590 252 590 C129 590 40 467 40 289 C40 111 128 -7 252 -7 L252 -7 Z M252 13 C142 13 60 121 60 289 C60 457 142 570 252 570 C361 570 444 460 444 289 C444 121 362 13 252 13 L252 13 Z M185 404 C146 404 124 349 124 291 C124 235 142 178 185 178 C216 178 237 218 253 268 C271 216 291 178 323 178 C365 178 383 237 383 291 C383 347 363 404 323 404 C293 404 271 367 253 316 C235 367 216 404 185 404 L185 404 Z M185 205 C158 205 147 248 147 291 C147 333 159 376 185 376 C211 376 228 335 244 292 C227 248 210 205 185 205 L185 205 Z M322 205 C298 205 280 248 264 292 C280 335 297 376 322 376 C348 376 360 333 360 291 C360 248 349 205 322 205 L322 205 Z " />
<glyph glyph-name="uni2713" unicode="&#x2713;" horiz-adv-x="484" d="M119 78 L137 78 C240 180 372 368 451 490 L443 499 C421 492 397 474 384 455 C329 369 200 177 137 117 C109 170 86 260 85 306 L70 311 C63 309 47 293 43 287 C39 262 79 125 119 78 L119 78 Z " />
<glyph glyph-name="uni2776" unicode="&#x2776;" horiz-adv-x="707" d="M353 -8 C518 -8 653 126 653 291 C653 456 518 591 353 591 C187 591 53 456 53 291 C53 126 187 -8 353 -8 L353 -8 Z M337 139 L337 416 L262 396 L262 421 L348 450 L370 450 L370 139 L337 139 Z " />
<glyph glyph-name="uni2777" unicode="&#x2777;" horiz-adv-x="707" d="M353 -8 C518 -8 653 126 653 291 C653 456 518 591 353 591 C187 591 53 456 53 291 C53 126 187 -8 353 -8 L353 -8 Z M241 162 C321 225 407 296 407 361 C407 402 381 423 338 423 C312 423 287 419 251 394 L251 422 C277 441 311 450 341 450 C397 450 440 424 440 363 C440 296 360 224 288 169 L286 167 L452 167 L452 139 L241 139 L241 162 Z " />
<glyph glyph-name="uni2778" unicode="&#x2778;" horiz-adv-x="707" d="M353 -8 C518 -8 653 126 653 291 C653 456 518 591 353 591 C187 591 53 456 53 291 C53 126 187 -8 353 -8 L353 -8 Z M335 135 C301 135 277 141 261 149 L261 178 C288 165 316 161 342 161 C390 161 415 188 415 223 C415 265 378 283 318 285 L318 307 C358 311 400 340 400 376 C400 405 380 423 344 423 C317 423 293 416 264 394 L264 423 C288 441 317 450 346 450 C399 450 433 424 433 381 C433 331 385 307 366 303 L366 301 C406 299 448 274 448 227 C448 160 393 135 335 135 L335 135 Z " />
<glyph glyph-name="uni2779" unicode="&#x2779;" horiz-adv-x="707" d="M353 -8 C518 -8 653 126 653 291 C653 456 518 591 353 591 C187 591 53 456 53 291 C53 126 187 -8 353 -8 L353 -8 Z M353 224 L211 224 L211 250 L356 450 L386 450 L386 249 L432 249 L432 224 L386 224 L386 139 L353 139 L353 224 Z M353 249 L353 403 L243 249 L353 249 Z " />
<glyph glyph-name="uni277A" unicode="&#x277a;" horiz-adv-x="707" d="M353 -8 C518 -8 653 126 653 291 C653 456 518 591 353 591 C187 591 53 456 53 291 C53 126 187 -8 353 -8 L353 -8 Z M330 135 C294 135 269 142 251 149 L251 178 C278 166 305 161 332 161 C374 161 406 187 406 230 C406 281 371 297 309 297 C295 297 280 296 265 294 L277 445 L433 445 L433 419 L303 419 L295 321 C301 322 312 323 320 323 C390 323 439 301 439 232 C439 165 382 135 330 135 L330 135 Z " />
<glyph glyph-name="uni277B" unicode="&#x277b;" horiz-adv-x="707" d="M353 -8 C518 -8 653 126 653 291 C653 456 518 591 353 591 C187 591 53 456 53 291 C53 126 187 -8 353 -8 L353 -8 Z M366 423 C307 423 274 383 268 302 C285 315 317 330 348 330 C401 330 440 305 440 240 C440 180 400 135 334 135 C265 135 232 193 232 269 C232 378 284 450 366 450 C383 450 404 447 422 441 L422 412 C399 422 381 423 366 423 L366 423 Z M341 304 C311 304 283 289 266 277 L266 269 C266 205 287 161 336 161 C382 161 406 189 406 237 C406 284 386 304 341 304 L341 304 Z " />
<glyph glyph-name="uni277C" unicode="&#x277c;" horiz-adv-x="707" d="M353 -8 C518 -8 653 126 653 291 C653 456 518 591 353 591 C187 591 53 456 53 291 C53 126 187 -8 353 -8 L353 -8 Z M276 139 L275 141 L409 419 L255 419 L255 445 L443 445 L443 425 L307 139 L276 139 Z " />
<glyph glyph-name="uni277D" unicode="&#x277d;" horiz-adv-x="707" d="M353 -8 C518 -8 653 126 653 291 C653 456 518 591 353 591 C187 591 53 456 53 291 C53 126 187 -8 353 -8 L353 -8 Z M450 221 C450 171 405 135 344 135 C282 135 247 168 247 219 C247 253 272 284 303 300 C276 313 255 332 255 369 C255 414 294 450 347 450 C406 450 444 421 444 374 C444 339 419 311 389 294 C422 281 450 262 450 221 L450 221 Z M411 371 C411 400 392 423 346 423 C312 423 286 405 286 370 C286 330 325 317 365 304 C394 322 411 344 411 371 L411 371 Z M279 220 C279 180 308 161 347 161 C380 161 417 174 417 219 C417 262 366 272 322 290 C298 275 279 253 279 220 L279 220 Z " />
<glyph glyph-name="uni277E" unicode="&#x277e;" horiz-adv-x="707" d="M353 -8 C518 -8 653 126 653 291 C653 456 518 591 353 591 C187 591 53 456 53 291 C53 126 187 -8 353 -8 L353 -8 Z M321 161 C378 161 412 202 418 283 C400 269 368 255 338 255 C285 255 246 280 246 344 C246 405 286 450 352 450 C421 450 454 392 454 316 C454 206 403 135 320 135 C303 135 282 138 264 144 L264 173 C287 163 305 161 321 161 L321 161 Z M345 281 C376 281 403 296 420 308 L420 316 C420 380 400 424 351 424 C304 424 280 399 280 348 C280 300 300 281 345 281 L345 281 Z " />
<glyph glyph-name="uni277F" unicode="&#x277f;" horiz-adv-x="707" d="M353 -8 C518 -8 653 126 653 291 C653 456 518 591 353 591 C187 591 53 456 53 291 C53 126 187 -8 353 -8 L353 -8 Z M230 139 L230 416 L156 396 L156 421 L241 450 L263 450 L263 139 L230 139 Z M422 135 C340 135 309 196 309 286 C309 381 347 450 427 450 C516 450 542 373 542 295 C542 198 501 135 422 135 L422 135 Z M424 161 C479 161 508 210 508 294 C508 374 478 423 424 423 C371 423 343 370 343 287 C343 201 372 161 424 161 L424 161 Z " />
<glyph glyph-name="uni2780" unicode="&#x2780;" horiz-adv-x="707" d="M353 -8 C518 -8 653 126 653 291 C653 456 518 591 353 591 C187 591 53 456 53 291 C53 126 187 -8 353 -8 L353 -8 Z M353 16 C202 16 79 140 79 291 C79 442 202 567 353 567 C504 567 627 442 627 291 C627 140 504 16 353 16 L353 16 Z M373 139 L373 450 L352 450 L266 421 L266 396 L340 416 L340 139 L373 139 Z " />
<glyph glyph-name="uni2781" unicode="&#x2781;" horiz-adv-x="707" d="M353 -8 C518 -8 653 126 653 291 C653 456 518 591 353 591 C187 591 53 456 53 291 C53 126 187 -8 353 -8 L353 -8 Z M353 16 C202 16 79 140 79 291 C79 442 202 567 353 567 C504 567 627 442 627 291 C627 140 504 16 353 16 L353 16 Z M241 139 L452 139 L452 167 L286 167 L288 169 C360 224 440 296 440 363 C440 424 397 450 341 450 C311 450 277 441 251 422 L251 394 C287 419 312 423 338 423 C381 423 407 402 407 361 C407 296 321 225 241 162 L241 139 Z " />
<glyph glyph-name="uni2782" unicode="&#x2782;" horiz-adv-x="707" d="M353 -8 C518 -8 653 126 653 291 C653 456 518 591 353 591 C187 591 53 456 53 291 C53 126 187 -8 353 -8 L353 -8 Z M353 16 C202 16 79 140 79 291 C79 442 202 567 353 567 C504 567 627 442 627 291 C627 140 504 16 353 16 L353 16 Z M335 135 C393 135 448 160 448 227 C448 274 406 299 366 301 L366 303 C385 307 433 331 433 381 C433 424 399 450 346 450 C317 450 288 441 264 423 L264 394 C293 416 317 423 344 423 C380 423 400 405 400 376 C400 340 358 311 318 307 L318 285 C378 283 415 265 415 223 C415 188 390 161 342 161 C316 161 288 165 261 178 L261 149 C277 141 301 135 335 135 L335 135 Z " />
<glyph glyph-name="uni2783" unicode="&#x2783;" horiz-adv-x="707" d="M353 -8 C518 -8 653 126 653 291 C653 456 518 591 353 591 C187 591 53 456 53 291 C53 126 187 -8 353 -8 L353 -8 Z M353 16 C202 16 79 140 79 291 C79 442 202 567 353 567 C504 567 627 442 627 291 C627 140 504 16 353 16 L353 16 Z M353 139 L386 139 L386 224 L432 224 L432 249 L386 249 L386 450 L356 450 L211 250 L211 224 L353 224 L353 139 Z M243 249 L353 403 L353 249 L243 249 Z " />
<glyph glyph-name="uni2784" unicode="&#x2784;" horiz-adv-x="707" d="M353 -8 C518 -8 653 126 653 291 C653 456 518 591 353 591 C187 591 53 456 53 291 C53 126 187 -8 353 -8 L353 -8 Z M353 16 C202 16 79 140 79 291 C79 442 202 567 353 567 C504 567 627 442 627 291 C627 140 504 16 353 16 L353 16 Z M330 135 C382 135 439 165 439 232 C439 301 390 323 320 323 C312 323 301 322 295 321 L303 419 L433 419 L433 445 L277 445 L265 294 C280 296 295 297 309 297 C371 297 406 281 406 230 C406 187 374 161 332 161 C305 161 278 166 251 178 L251 149 C269 142 294 135 330 135 L330 135 Z " />
<glyph glyph-name="uni2785" unicode="&#x2785;" horiz-adv-x="707" d="M353 -8 C518 -8 653 126 653 291 C653 456 518 591 353 591 C187 591 53 456 53 291 C53 126 187 -8 353 -8 L353 -8 Z M353 16 C202 16 79 140 79 291 C79 442 202 567 353 567 C504 567 627 442 627 291 C627 140 504 16 353 16 L353 16 Z M366 423 C381 423 399 422 422 412 L422 441 C404 447 383 450 366 450 C284 450 232 378 232 269 C232 193 265 135 334 135 C400 135 440 180 440 240 C440 305 401 330 348 330 C317 330 285 315 268 302 C274 383 307 423 366 423 L366 423 Z M341 304 C386 304 406 284 406 237 C406 189 382 161 336 161 C287 161 266 205 266 269 L266 277 C283 289 311 304 341 304 L341 304 Z " />
<glyph glyph-name="uni2786" unicode="&#x2786;" horiz-adv-x="707" d="M353 -8 C518 -8 653 126 653 291 C653 456 518 591 353 591 C187 591 53 456 53 291 C53 126 187 -8 353 -8 L353 -8 Z M353 16 C202 16 79 140 79 291 C79 442 202 567 353 567 C504 567 627 442 627 291 C627 140 504 16 353 16 L353 16 Z M307 139 L443 425 L443 445 L255 445 L255 419 L409 419 L275 141 L276 139 L307 139 Z " />
<glyph glyph-name="uni2787" unicode="&#x2787;" horiz-adv-x="707" d="M353 -8 C518 -8 653 126 653 291 C653 456 518 591 353 591 C187 591 53 456 53 291 C53 126 187 -8 353 -8 L353 -8 Z M353 16 C202 16 79 140 79 291 C79 442 202 567 353 567 C504 567 627 442 627 291 C627 140 504 16 353 16 L353 16 Z M450 221 C450 262 422 281 389 294 C419 311 444 339 444 374 C444 421 406 450 347 450 C294 450 255 414 255 369 C255 332 276 313 303 300 C272 284 247 253 247 219 C247 168 282 135 344 135 C405 135 450 171 450 221 L450 221 Z M411 371 C411 344 394 322 365 304 C325 317 286 330 286 370 C286 405 312 423 346 423 C392 423 411 400 411 371 L411 371 Z M279 220 C279 253 298 275 322 290 C366 272 417 262 417 219 C417 174 380 161 347 161 C308 161 279 180 279 220 L279 220 Z " />
<glyph glyph-name="uni2788" unicode="&#x2788;" horiz-adv-x="707" d="M353 -8 C518 -8 653 126 653 291 C653 456 518 591 353 591 C187 591 53 456 53 291 C53 126 187 -8 353 -8 L353 -8 Z M353 16 C202 16 79 140 79 291 C79 442 202 567 353 567 C504 567 627 442 627 291 C627 140 504 16 353 16 L353 16 Z M321 161 C305 161 287 163 264 173 L264 144 C282 138 303 135 320 135 C403 135 454 206 454 316 C454 392 421 450 352 450 C286 450 246 405 246 344 C246 280 285 255 338 255 C368 255 400 269 418 283 C412 202 378 161 321 161 L321 161 Z M345 281 C300 281 280 300 280 348 C280 399 304 424 351 424 C400 424 420 380 420 316 L420 308 C403 296 376 281 345 281 L345 281 Z " />
<glyph glyph-name="uni278A" unicode="&#x278a;" horiz-adv-x="707" d="M353 -8 C518 -8 653 126 653 291 C653 456 518 591 353 591 C187 591 53 456 53 291 C53 126 187 -8 353 -8 L353 -8 Z M335 139 L335 416 L260 396 L260 421 L346 450 L367 450 L367 139 L335 139 Z " />
<glyph glyph-name="uni278B" unicode="&#x278b;" horiz-adv-x="707" d="M353 -8 C518 -8 653 126 653 291 C653 456 518 591 353 591 C187 591 53 456 53 291 C53 126 187 -8 353 -8 L353 -8 Z M241 162 C321 225 407 296 407 361 C407 402 381 423 338 423 C312 423 287 419 251 394 L251 422 C277 441 311 450 341 450 C397 450 440 424 440 363 C440 296 362 225 290 170 L286 167 L452 167 L452 139 L241 139 L241 162 Z " />
<glyph glyph-name="uni278C" unicode="&#x278c;" horiz-adv-x="707" d="M353 -8 C518 -8 653 126 653 291 C653 456 518 591 353 591 C187 591 53 456 53 291 C53 126 187 -8 353 -8 L353 -8 Z M335 135 C301 135 277 141 261 149 L261 178 C288 165 316 161 342 161 C390 161 415 188 415 223 C415 265 378 283 318 285 L318 307 C358 311 400 340 400 376 C400 405 380 423 344 423 C317 423 293 416 264 394 L264 423 C288 441 317 450 346 450 C399 450 433 424 433 381 C433 331 385 307 366 303 L366 301 C406 299 448 274 448 227 C448 160 393 135 335 135 L335 135 Z " />
<glyph glyph-name="uni278D" unicode="&#x278d;" horiz-adv-x="707" d="M353 -8 C518 -8 653 126 653 291 C653 456 518 591 353 591 C187 591 53 456 53 291 C53 126 187 -8 353 -8 L353 -8 Z M353 224 L211 224 L211 250 L356 450 L386 450 L386 249 L432 249 L432 224 L386 224 L386 139 L353 139 L353 224 Z M353 249 L353 403 L243 249 L353 249 Z " />
<glyph glyph-name="uni278E" unicode="&#x278e;" horiz-adv-x="707" d="M353 -8 C518 -8 653 126 653 291 C653 456 518 591 353 591 C187 591 53 456 53 291 C53 126 187 -8 353 -8 L353 -8 Z M330 135 C294 135 269 142 251 149 L251 178 C278 166 305 161 332 161 C374 161 406 187 406 230 C406 281 371 297 309 297 C295 297 280 296 265 294 L277 445 L433 445 L433 419 L303 419 L295 321 C301 322 312 323 320 323 C390 323 439 301 439 232 C439 165 382 135 330 135 L330 135 Z " />
<glyph glyph-name="uni278F" unicode="&#x278f;" horiz-adv-x="707" d="M353 -8 C518 -8 653 126 653 291 C653 456 518 591 353 591 C187 591 53 456 53 291 C53 126 187 -8 353 -8 L353 -8 Z M366 423 C307 423 274 383 268 302 C285 315 317 330 348 330 C401 330 440 305 440 240 C440 180 400 135 334 135 C265 135 232 193 232 269 C232 378 284 450 366 450 C383 450 404 447 422 441 L422 412 C399 422 381 423 366 423 L366 423 Z M341 304 C311 304 283 289 266 277 L266 269 C266 205 287 161 336 161 C382 161 406 189 406 237 C406 284 386 304 341 304 L341 304 Z " />
<glyph glyph-name="uni2790" unicode="&#x2790;" horiz-adv-x="707" d="M353 -8 C518 -8 653 126 653 291 C653 456 518 591 353 591 C187 591 53 456 53 291 C53 126 187 -8 353 -8 L353 -8 Z M276 139 L275 141 L409 419 L255 419 L255 445 L443 445 L443 425 L307 139 L276 139 Z " />
<glyph glyph-name="uni2791" unicode="&#x2791;" horiz-adv-x="707" d="M353 -8 C518 -8 653 126 653 291 C653 456 518 591 353 591 C187 591 53 456 53 291 C53 126 187 -8 353 -8 L353 -8 Z M450 221 C450 171 405 135 344 135 C282 135 247 168 247 219 C247 253 272 284 303 300 C276 313 255 332 255 369 C255 414 294 450 347 450 C406 450 444 421 444 374 C444 339 419 311 389 294 C422 281 450 262 450 221 L450 221 Z M411 371 C411 400 392 423 346 423 C312 423 286 405 286 370 C286 330 325 317 365 304 C394 322 411 344 411 371 L411 371 Z M279 220 C279 180 308 161 347 161 C380 161 417 174 417 219 C417 262 366 272 322 290 C298 275 279 253 279 220 L279 220 Z " />
<glyph glyph-name="uni2792" unicode="&#x2792;" horiz-adv-x="707" d="M353 -8 C518 -8 653 126 653 291 C653 456 518 591 353 591 C187 591 53 456 53 291 C53 126 187 -8 353 -8 L353 -8 Z M321 161 C378 161 412 202 418 283 C400 269 368 255 338 255 C285 255 246 280 246 344 C246 405 286 450 352 450 C421 450 454 392 454 316 C454 206 403 135 320 135 C303 135 282 138 264 144 L264 173 C287 163 305 161 321 161 L321 161 Z M345 281 C376 281 403 296 420 308 L420 316 C420 380 400 424 351 424 C304 424 280 399 280 348 C280 300 300 281 345 281 L345 281 Z " />
<glyph glyph-name="uni301A" unicode="&#x301a;" horiz-adv-x="282" d="M57 -181 L252 -181 L252 -149 L183 -149 L183 647 L252 647 L252 679 L57 679 L57 -181 Z M92 647 L148 647 L148 -149 L92 -149 L92 647 Z " />
<glyph glyph-name="uni301B" unicode="&#x301b;" horiz-adv-x="282" d="M225 679 L29 679 L29 647 L99 647 L99 -149 L29 -149 L29 -181 L225 -181 L225 679 Z M190 647 L190 -149 L134 -149 L134 647 L190 647 Z " />
<glyph glyph-name="apple" unicode="&#xf8ff;" horiz-adv-x="1241" d="M390 318 L401 318 L401 328 L411 328 L411 338 L421 338 L421 347 L431 347 L431 388 L420 388 L420 348 L401 348 L401 388 L390 388 L390 347 L400 347 L400 329 L390 329 L390 318 Z M350 338 L371 338 L371 348 L351 348 L351 377 L371 377 L371 388 L351 388 L351 398 L340 398 L340 388 L330 388 L330 377 L340 377 L340 347 L350 347 L350 338 Z M590 338 L611 338 L611 348 L591 348 L591 377 L611 377 L611 388 L591 388 L591 398 L580 398 L580 388 L570 388 L570 377 L580 377 L580 347 L590 347 L590 338 Z M700 338 L731 338 L731 348 L701 348 L701 357 L731 357 L731 378 L721 378 L721 388 L700 388 L700 378 L690 378 L690 347 L700 347 L700 338 Z M880 338 L911 338 L911 348 L881 348 L881 357 L911 357 L911 378 L901 378 L901 388 L880 388 L880 378 L870 378 L870 347 L880 347 L880 338 Z M110 347 L121 347 L121 357 L131 357 L131 368 L121 368 L121 378 L110 378 L110 368 L100 368 L100 357 L110 357 L110 347 Z M180 347 L191 347 L191 357 L201 357 L201 368 L191 368 L191 378 L180 378 L180 368 L170 368 L170 357 L180 357 L180 347 Z M270 347 L281 347 L281 357 L291 357 L291 368 L281 368 L281 378 L270 378 L270 368 L260 368 L260 357 L270 357 L270 347 Z M520 338 L541 338 L541 347 L551 347 L551 378 L541 378 L541 388 L520 388 L520 378 L510 378 L510 347 L520 347 L520 338 Z M630 338 L641 338 L641 377 L660 377 L660 338 L671 338 L671 378 L661 378 L661 388 L641 388 L641 408 L630 408 L630 338 Z M960 347 L971 347 L971 357 L981 357 L981 368 L971 368 L971 378 L960 378 L960 368 L950 368 L950 357 L960 357 L960 347 Z M1050 347 L1061 347 L1061 357 L1071 357 L1071 368 L1061 368 L1061 378 L1050 378 L1050 368 L1040 368 L1040 357 L1050 357 L1050 347 Z M1120 347 L1131 347 L1131 357 L1141 357 L1141 368 L1131 368 L1131 378 L1120 378 L1120 368 L1110 368 L1110 357 L1120 357 L1120 347 Z M450 318 L461 318 L461 338 L481 338 L481 347 L491 347 L491 378 L481 378 L481 388 L450 388 L450 318 Z M780 318 L791 318 L791 388 L760 388 L760 378 L750 378 L750 347 L760 347 L760 338 L780 338 L780 318 Z M820 338 L851 338 L851 388 L840 388 L840 348 L821 348 L821 388 L810 388 L810 347 L820 347 L820 338 Z M240 328 L251 328 L251 338 L261 338 L261 348 L250 348 L250 338 L240 338 L240 328 Z M250 377 L261 377 L261 388 L251 388 L251 398 L240 398 L240 387 L250 387 L250 377 Z M300 328 L311 328 L311 338 L301 338 L301 348 L290 348 L290 338 L300 338 L300 328 Z M290 377 L301 377 L301 387 L311 387 L311 398 L300 398 L300 388 L290 388 L290 377 Z M930 328 L941 328 L941 338 L951 338 L951 348 L940 348 L940 338 L930 338 L930 328 Z M940 377 L951 377 L951 388 L941 388 L941 398 L930 398 L930 387 L940 387 L940 377 Z M990 328 L1001 328 L1001 338 L991 338 L991 348 L980 348 L980 338 L990 338 L990 328 Z M980 377 L991 377 L991 387 L1001 387 L1001 398 L990 398 L990 388 L980 388 L980 377 Z M160 338 L171 338 L171 348 L160 348 L160 338 Z M160 377 L171 377 L171 388 L160 388 L160 377 Z M200 338 L211 338 L211 348 L200 348 L200 338 Z M200 377 L211 377 L211 388 L200 388 L200 377 Z M461 348 L461 377 L480 377 L480 348 L461 348 Z M521 348 L521 377 L540 377 L540 348 L521 348 Z M701 368 L701 377 L720 377 L720 368 L701 368 Z M761 348 L761 377 L780 377 L780 348 L761 348 Z M881 368 L881 377 L900 377 L900 368 L881 368 Z M1030 338 L1041 338 L1041 348 L1030 348 L1030 338 Z M1030 377 L1041 377 L1041 388 L1030 388 L1030 377 Z M1070 338 L1081 338 L1081 348 L1070 348 L1070 338 Z M1070 377 L1081 377 L1081 388 L1070 388 L1070 377 Z " />
<glyph glyph-name="f_f" unicode="&#xfb00;" horiz-adv-x="404" d="M107 416 L268 416 L268 0 L307 0 L307 416 L390 416 L390 450 L307 450 L307 510 C307 594 331 624 380 624 C398 624 407 622 424 618 L424 654 C412 657 397 660 381 660 C313 660 268 621 268 511 L268 450 L107 450 L107 510 C107 594 130 624 180 624 C198 624 207 622 224 618 L224 654 C212 657 196 660 181 660 C112 660 68 621 68 511 L68 450 L17 450 L17 416 L68 416 L68 0 L107 0 L107 416 Z " />
<glyph glyph-name="fi" unicode="&#xfb01;" horiz-adv-x="360" d="M17 415 L68 415 L68 0 L107 0 L107 415 L270 415 L270 0 L308 0 L308 450 L107 450 L107 510 C107 595 131 625 183 625 C201 625 210 624 228 619 L228 654 C216 657 199 660 184 660 C112 660 68 618 68 513 L68 450 L17 450 L17 415 Z " />
<glyph glyph-name="fl" unicode="&#xfb02;" horiz-adv-x="368" d="M17 416 L68 416 L68 0 L107 0 L107 416 L190 416 L190 450 L107 450 L107 510 C107 594 130 624 180 624 C198 624 207 622 224 618 L224 654 C212 657 196 660 181 660 C112 660 68 621 68 511 L68 450 L17 450 L17 416 Z M272 0 L309 0 L309 653 L272 653 L272 0 Z " />
<glyph glyph-name="f_f_i" unicode="&#xfb03;" horiz-adv-x="561" d="M107 415 L269 415 L269 0 L307 0 L307 415 L471 415 L471 0 L509 0 L509 450 L307 450 L307 510 C307 595 332 625 384 625 C402 625 411 624 428 619 L428 654 C416 657 400 660 384 660 C312 660 269 618 269 513 L269 450 L107 450 L107 510 C107 594 130 624 180 624 C198 624 207 622 224 618 L224 654 C212 657 196 660 181 660 C112 660 68 621 68 511 L68 450 L17 450 L17 415 L68 415 L68 0 L107 0 L107 415 Z " />
<glyph glyph-name="f_f_l" unicode="&#xfb04;" horiz-adv-x="568" d="M107 416 L269 416 L269 0 L307 0 L307 416 L391 416 L391 450 L307 450 L307 510 C307 594 331 624 381 624 C399 624 407 622 424 618 L424 654 C413 657 397 660 382 660 C313 660 269 621 269 511 L269 450 L107 450 L107 510 C107 594 130 624 180 624 C198 624 207 622 224 618 L224 654 C212 657 196 660 181 660 C112 660 68 621 68 511 L68 450 L17 450 L17 416 L68 416 L68 0 L107 0 L107 416 Z M471 0 L509 0 L509 653 L471 653 L471 0 Z " />
</font>
</defs>
</svg>
