<svg xmlns="http://www.w3.org/2000/svg">
<defs>
<font id="Greta Sans Std ExLt Ita">
<font-face  font-family="Greta Sans Std" units-per-em="1000" ascent="710" descent="-290" font-style="italic" font-weight="100" font-stretch="normal" slope="-9" cap-height="583" x-height="452" underline-position="-75" underline-thickness="50" />

<glyph glyph-name="NULL" d="" />
<glyph glyph-name="CR" unicode="&#xd;" horiz-adv-x="250" d="" />
<glyph glyph-name="space" unicode="&#x20;" horiz-adv-x="250" d="" />
<glyph glyph-name="exclam" unicode="&#x21;" horiz-adv-x="212" d="M101 340 L82 210 L114 210 L141 341 L183 583 L143 583 L101 340 Z M38 -3 L78 -8 L105 111 L61 113 L38 -3 Z " />
<glyph glyph-name="quotedbl" unicode="&#x22;" horiz-adv-x="341" d="M105 439 L142 439 L182 639 L140 639 L105 439 Z M260 439 L298 439 L338 639 L295 639 L260 439 Z " />
<glyph glyph-name="numbersign" unicode="&#x23;" horiz-adv-x="595" d="M108 394 L230 394 L158 207 L35 207 L30 175 L146 175 L79 0 L111 0 L178 175 L329 175 L263 0 L294 0 L361 175 L497 175 L502 207 L373 207 L445 394 L575 394 L580 426 L457 426 L518 583 L485 583 L425 426 L274 426 L335 583 L303 583 L243 426 L113 426 L108 394 Z M262 394 L413 394 L341 207 L190 207 L262 394 Z " />
<glyph glyph-name="dollar" unicode="&#x24;" horiz-adv-x="430" d="M15 19 C63 1 103 -8 153 -8 L158 -8 L146 -78 L181 -78 L193 -5 C282 5 366 53 366 160 C366 229 307 267 248 301 L289 537 C331 535 370 523 406 503 L413 545 C383 560 343 571 296 573 L308 642 L274 642 L262 573 C171 568 82 519 82 417 C82 351 143 313 204 277 L208 274 L165 29 L162 29 C112 29 61 41 23 62 L15 19 Z M124 426 C124 489 177 532 255 537 L216 319 C167 349 124 379 124 426 L124 426 Z M325 153 C325 81 269 41 200 31 L239 256 C286 228 325 198 325 153 L325 153 Z " />
<glyph glyph-name="percent" unicode="&#x25;" horiz-adv-x="694" d="M171 288 C250 288 322 351 322 474 C322 547 280 592 221 592 C142 592 69 525 69 404 C69 331 111 288 171 288 L171 288 Z M177 317 C127 317 103 355 103 409 C103 509 156 562 217 562 C264 562 289 528 289 471 C289 377 243 317 177 317 L177 317 Z M430 369 L577 571 L579 583 L542 583 L396 369 L430 369 Z M302 222 L149 12 L146 0 L183 0 L335 222 L302 222 Z M485 -8 C564 -8 637 55 637 178 C637 251 596 296 536 296 C458 296 383 227 383 110 C383 36 427 -8 485 -8 L485 -8 Z M491 21 C441 21 418 60 418 114 C418 207 470 267 531 267 C578 267 602 231 602 175 C602 80 556 21 491 21 L491 21 Z " />
<glyph glyph-name="ampersand" unicode="&#x26;" horiz-adv-x="666" d="M643 325 L648 359 L638 362 C574 339 495 327 421 327 C390 327 362 328 336 333 C385 356 437 400 437 461 C437 524 393 592 290 592 C184 592 106 515 106 429 C106 386 127 341 168 310 C100 284 40 229 40 142 C40 53 115 -8 224 -8 C366 -8 484 112 514 293 C562 298 607 309 643 325 L643 325 Z M301 308 C340 297 392 290 446 290 L474 290 C456 157 354 29 231 29 C141 29 85 79 85 155 C85 229 144 279 209 300 L209 323 C166 354 148 395 148 432 C148 506 209 556 288 556 C359 556 394 500 394 452 C394 395 349 356 296 331 L301 308 Z " />
<glyph glyph-name="quotesingle" unicode="&#x27;" horiz-adv-x="185" d="M105 439 L142 439 L182 639 L140 639 L105 439 Z " />
<glyph glyph-name="parenleft" unicode="&#x28;" horiz-adv-x="259" d="M156 -153 C141 -128 77 -23 77 133 C77 381 215 582 300 648 L250 648 C179 585 40 387 40 132 C40 -21 99 -129 115 -153 L156 -153 Z " />
<glyph glyph-name="parenright" unicode="&#x29;" horiz-adv-x="261" d="M101 648 C116 624 179 512 179 356 C179 107 42 -87 -43 -153 L7 -153 C78 -89 216 101 216 357 C216 509 157 624 141 648 L101 648 Z " />
<glyph glyph-name="asterisk" unicode="&#x2a;" horiz-adv-x="375" d="M108 539 L208 481 L88 424 L98 394 L212 463 L185 341 L217 341 L233 462 L323 394 L344 424 L241 482 L364 539 L353 568 L240 500 L268 626 L236 626 L219 499 L129 568 L108 539 Z " />
<glyph glyph-name="plus" unicode="&#x2b;" horiz-adv-x="505" d="M52 280 L239 280 L205 87 L239 87 L273 280 L461 280 L467 313 L279 313 L313 505 L279 505 L245 313 L59 313 L52 280 Z " />
<glyph glyph-name="comma" unicode="&#x2c;" horiz-adv-x="197" d="M-15 -156 C49 -101 80 -42 89 21 C91 44 89 68 80 89 L40 88 C48 68 52 50 50 30 C43 -36 9 -88 -43 -140 L-15 -156 Z " />
<glyph glyph-name="&amp;#x2d;" unicode="&#x2d;" horiz-adv-x="363" d="M62 225 L289 225 L296 262 L69 262 L62 225 Z " />
<glyph glyph-name="&amp;#xad;" unicode="&#xad;" horiz-adv-x="363" d="M62 225 L289 225 L296 262 L69 262 L62 225 Z " />
<glyph glyph-name="period" unicode="&#x2e;" horiz-adv-x="186" d="M25 -3 L64 -8 L92 111 L47 113 L25 -3 Z " />
<glyph glyph-name="slash" unicode="&#x2f;" horiz-adv-x="342" d="M-13 -91 L25 -91 L372 673 L334 673 L-13 -91 Z " />
<glyph glyph-name="zero" unicode="0" horiz-adv-x="493" d="M447 398 C447 497 420 592 301 592 C123 592 59 363 59 191 C59 76 101 -8 205 -8 C394 -8 447 245 447 398 L447 398 Z M209 28 C130 28 100 96 100 198 C100 390 171 555 294 555 C373 555 405 505 405 392 C405 237 355 28 209 28 L209 28 Z " />
<glyph glyph-name="one" unicode="1" horiz-adv-x="295" d="M163 0 L266 583 L243 583 L81 528 L75 494 L218 539 L124 0 L163 0 Z " />
<glyph glyph-name="two" unicode="2" horiz-adv-x="435" d="M357 37 L83 37 C227 151 393 362 393 479 C393 534 333 592 250 592 C189 592 141 577 92 539 L90 500 C142 541 187 555 236 555 C301 555 339 520 358 478 C345 364 188 157 31 31 L25 0 L349 0 L357 37 Z " />
<glyph glyph-name="three" unicode="3" horiz-adv-x="441" d="M22 17 C47 5 80 -8 148 -8 C267 -8 377 73 377 164 C377 222 283 283 225 304 L225 308 C293 332 403 433 403 482 C403 551 337 592 259 592 C199 592 145 573 102 546 L104 512 C150 539 198 554 243 554 C311 554 353 530 368 476 C342 427 253 337 167 315 L162 290 C243 268 321 208 340 163 C333 77 230 28 154 28 C114 28 78 33 30 56 L22 17 Z " />
<glyph glyph-name="four" unicode="4" horiz-adv-x="473" d="M390 583 L347 583 L28 213 L22 177 L278 177 L247 0 L286 0 L317 177 L422 177 L428 211 L323 211 L390 583 Z M67 211 L337 527 L339 527 L284 211 L67 211 Z " />
<glyph glyph-name="five" unicode="5" horiz-adv-x="421" d="M20 16 C49 5 98 -8 150 -8 C280 -8 354 110 354 202 C354 274 310 332 248 351 C205 351 151 336 118 319 L180 544 L401 544 L408 583 L153 583 L74 283 L92 278 C135 298 181 311 233 318 C279 297 314 257 314 195 C314 99 239 28 156 28 C108 28 66 38 27 55 L20 16 Z " />
<glyph glyph-name="six" unicode="6" horiz-adv-x="447" d="M421 577 C389 588 360 592 327 592 C177 592 52 371 52 198 C52 72 114 -8 184 -8 C267 -8 390 97 390 205 C390 279 360 335 300 362 C244 362 162 330 100 290 C115 359 147 428 184 473 C221 523 265 556 315 556 C350 556 372 555 411 541 L421 577 Z M288 326 C330 294 349 257 349 201 C349 113 259 36 193 24 C138 37 91 102 91 206 C91 221 92 237 94 253 C153 291 246 326 288 326 L288 326 Z " />
<glyph glyph-name="seven" unicode="7" horiz-adv-x="388" d="M84 544 L365 544 L61 7 L65 0 L100 0 L414 563 L406 583 L91 583 L84 544 Z " />
<glyph glyph-name="eight" unicode="8" horiz-adv-x="463" d="M433 472 C433 526 371 592 280 592 C196 592 100 516 100 452 C100 416 153 360 211 304 C115 267 29 187 29 121 C29 72 87 -8 182 -8 C302 -8 392 59 392 144 C392 182 333 243 272 303 C354 345 433 428 433 472 L433 472 Z M356 132 C336 77 293 28 193 28 C126 28 78 80 62 127 C83 189 145 246 230 286 C293 225 355 167 356 132 L356 132 Z M135 462 C146 497 195 556 268 556 C335 556 383 516 394 468 C380 427 326 367 250 324 C192 380 138 433 135 462 L135 462 Z " />
<glyph glyph-name="nine" unicode="9" horiz-adv-x="448" d="M39 7 C71 -4 100 -8 133 -8 C283 -8 408 213 408 386 C408 512 346 592 276 592 C193 592 70 487 70 379 C70 305 100 249 160 222 C216 222 297 253 359 294 C344 225 313 155 276 111 C239 61 195 28 145 28 C110 28 88 29 49 43 L39 7 Z M172 258 C130 290 111 327 111 383 C111 471 201 548 267 560 C322 547 369 482 369 378 C369 362 368 346 366 330 C307 292 214 258 172 258 L172 258 Z " />
<glyph glyph-name="colon" unicode="&#x3a;" horiz-adv-x="189" d="M26 -3 L65 -8 L93 111 L48 113 L26 -3 Z M85 341 L124 336 L152 455 L107 457 L85 341 Z " />
<glyph glyph-name="semicolon" unicode="&#x3b;" horiz-adv-x="221" d="M-11 -156 C53 -101 84 -42 93 21 C95 44 93 68 84 89 L44 88 C52 68 56 50 54 30 C47 -36 13 -88 -39 -140 L-11 -156 Z M114 341 L153 336 L181 455 L136 457 L114 341 Z " />
<glyph glyph-name="less" unicode="&#x3c;" horiz-adv-x="473" d="M377 77 L384 117 L86 295 L447 473 L455 514 L47 313 L41 279 L377 77 Z " />
<glyph glyph-name="equal" unicode="&#x3d;" horiz-adv-x="522" d="M60 188 L437 188 L443 222 L66 222 L60 188 Z M92 373 L469 373 L476 407 L99 407 L92 373 Z " />
<glyph glyph-name="greater" unicode="&#x3e;" horiz-adv-x="473" d="M439 278 L445 311 L109 514 L102 474 L401 295 L39 118 L32 77 L439 278 Z " />
<glyph glyph-name="question" unicode="&#x3f;" horiz-adv-x="319" d="M313 460 C313 506 229 578 108 594 L98 559 C171 546 256 508 282 460 C252 410 144 333 110 285 C101 274 96 264 97 255 C99 228 106 205 114 177 L143 183 L131 264 L224 349 C272 394 313 430 313 460 L313 460 Z M70 -3 L110 -8 L137 111 L93 113 L70 -3 Z " />
<glyph glyph-name="at" unicode="&#x40;" horiz-adv-x="850" d="M516 -8 C695 35 816 155 816 326 C816 504 691 642 495 642 C235 642 43 440 43 179 C43 -52 156 -197 387 -197 C499 -197 630 -157 701 -104 L704 -65 C637 -114 517 -162 399 -162 C199 -162 82 -51 82 184 C82 409 242 607 489 607 C676 607 779 479 779 320 C779 174 686 73 537 30 L511 38 L586 459 L550 459 L544 429 C504 447 460 458 430 458 C388 458 361 433 335 404 C280 350 242 221 242 97 C242 58 247 23 253 -4 L313 -4 L495 161 L467 5 L516 -8 Z M287 38 C283 62 281 81 281 108 C281 229 319 372 396 421 C404 423 411 423 420 423 C453 422 497 410 538 394 L504 207 L311 35 L287 38 Z " />
<glyph glyph-name="A" unicode="A" horiz-adv-x="506" d="M-22 0 L22 0 L135 209 L359 209 L386 0 L431 0 L347 583 L303 583 L-22 0 Z M314 538 L317 538 L355 242 L153 242 L314 538 Z " />
<glyph glyph-name="B" unicode="B" horiz-adv-x="499" d="M43 0 L186 0 C334 0 438 65 438 188 C438 263 374 299 319 306 L319 308 C379 322 444 375 444 458 C444 543 384 583 260 583 L145 583 L43 0 Z M224 283 C328 283 394 256 394 179 C394 55 274 37 183 37 L90 37 L133 283 L224 283 Z M249 546 C316 546 399 539 399 452 C399 384 343 320 233 320 L140 320 L179 546 L249 546 Z " />
<glyph glyph-name="C" unicode="C" horiz-adv-x="521" d="M284 -8 C354 -8 412 12 440 26 L446 66 C396 42 349 29 294 29 C165 29 101 92 101 226 C101 425 223 556 393 556 C431 556 473 551 513 529 L521 569 C492 582 450 592 398 592 C173 592 54 407 54 223 C54 86 124 -8 284 -8 L284 -8 Z " />
<glyph glyph-name="D" unicode="D" horiz-adv-x="601" d="M43 0 L171 0 C384 0 558 120 558 352 C558 514 432 583 263 583 L145 583 L43 0 Z M249 546 C404 546 511 494 511 347 C511 143 368 37 177 37 L90 37 L179 546 L249 546 Z " />
<glyph glyph-name="E" unicode="E" horiz-adv-x="470" d="M43 0 L381 0 L387 37 L90 37 L133 281 L378 281 L384 318 L139 318 L179 546 L472 546 L478 583 L145 583 L43 0 Z " />
<glyph glyph-name="F" unicode="F" horiz-adv-x="443" d="M43 0 L84 0 L130 264 L371 264 L378 300 L136 300 L179 546 L468 546 L474 583 L145 583 L43 0 Z " />
<glyph glyph-name="G" unicode="G" horiz-adv-x="562" d="M283 -8 C356 -8 415 11 456 29 L503 294 L461 294 L418 51 C380 38 339 29 292 29 C170 29 101 86 101 225 C101 429 224 553 393 556 C453 556 499 542 540 520 L547 562 C510 580 462 592 399 592 C174 592 54 406 54 222 C54 86 123 -8 283 -8 L283 -8 Z " />
<glyph glyph-name="H" unicode="H" horiz-adv-x="609" d="M436 0 L478 0 L580 583 L538 583 L492 320 L140 320 L187 583 L145 583 L43 0 L84 0 L134 283 L485 283 L436 0 Z " />
<glyph glyph-name="I" unicode="I" horiz-adv-x="216" d="M43 0 L84 0 L186 583 L145 583 L43 0 Z " />
<glyph glyph-name="J" unicode="J" horiz-adv-x="231" d="M-44 -81 C56 6 119 89 135 179 L206 583 L165 583 L94 179 C78 87 1 13 -73 -58 L-44 -81 Z " />
<glyph glyph-name="K" unicode="K" horiz-adv-x="488" d="M369 0 L420 0 L214 304 L529 583 L473 583 L173 313 L171 298 L369 0 Z M43 0 L84 0 L186 583 L145 583 L43 0 Z " />
<glyph glyph-name="L" unicode="L" horiz-adv-x="424" d="M43 0 L371 0 L377 37 L90 37 L186 583 L145 583 L43 0 Z " />
<glyph glyph-name="M" unicode="M" horiz-adv-x="731" d="M13 0 L56 0 L198 517 L202 517 L296 0 L335 0 L619 514 L623 514 L582 0 L628 0 L670 583 L614 583 L329 65 L325 65 L232 583 L176 583 L13 0 Z " />
<glyph glyph-name="N" unicode="N" horiz-adv-x="610" d="M43 0 L85 0 L176 517 L178 517 L436 0 L478 0 L581 583 L539 583 L449 72 L446 72 L188 583 L145 583 L43 0 Z " />
<glyph glyph-name="O" unicode="O" horiz-adv-x="631" d="M265 -8 C476 -8 590 184 590 364 C590 491 526 592 382 592 C166 592 54 407 54 220 C54 95 120 -8 265 -8 L265 -8 Z M271 29 C161 29 99 99 99 223 C99 399 199 556 374 556 C478 556 545 492 545 365 C545 193 446 29 271 29 L271 29 Z " />
<glyph glyph-name="P" unicode="P" horiz-adv-x="485" d="M43 0 L84 0 L122 220 L200 220 C367 220 472 293 472 435 C472 527 398 583 299 583 L145 583 L43 0 Z M281 546 C388 546 428 498 428 424 C428 284 301 257 201 257 L129 257 L179 546 L281 546 Z " />
<glyph glyph-name="Q" unicode="Q" horiz-adv-x="631" d="M265 -8 C293 -8 320 -4 345 2 L478 -108 L537 -108 L539 -94 L381 14 C518 69 590 220 590 364 C590 491 526 592 382 592 C166 592 54 407 54 220 C54 95 120 -8 265 -8 L265 -8 Z M271 29 C161 29 99 99 99 223 C99 399 199 556 374 556 C478 556 545 492 545 365 C545 193 446 29 271 29 L271 29 Z " />
<glyph glyph-name="R" unicode="R" horiz-adv-x="511" d="M43 0 L84 0 L126 244 L205 244 C230 244 254 245 276 248 L397 0 L445 0 L318 256 C416 281 475 342 475 445 C475 534 403 583 301 583 L145 583 L43 0 Z M283 546 C384 546 431 511 431 435 C431 299 306 281 205 281 L133 281 L179 546 L283 546 Z " />
<glyph glyph-name="S" unicode="S" horiz-adv-x="448" d="M11 21 C61 2 104 -8 158 -8 C275 -8 385 44 385 175 C385 250 312 283 244 316 C178 348 132 376 132 435 C132 506 194 556 289 556 C340 556 381 543 422 523 L433 562 C397 579 347 592 291 592 C187 592 87 535 87 422 C87 352 151 313 216 283 C284 251 342 226 342 163 C342 72 260 29 173 29 C120 29 70 39 23 61 L11 21 Z " />
<glyph glyph-name="T" unicode="T" horiz-adv-x="501" d="M63 546 L280 546 L185 0 L227 0 L322 546 L540 546 L546 583 L69 583 L63 546 Z " />
<glyph glyph-name="U" unicode="U" horiz-adv-x="595" d="M256 -8 C369 -8 482 65 512 238 L573 583 L532 583 L470 234 C446 101 365 29 261 29 C170 29 112 70 112 167 C112 183 114 201 117 221 L181 583 L139 583 L75 216 C71 196 70 177 70 160 C70 36 159 -8 256 -8 L256 -8 Z " />
<glyph glyph-name="V" unicode="V" horiz-adv-x="529" d="M564 583 L516 583 L223 56 L220 56 L130 583 L83 583 L190 0 L233 0 L564 583 Z " />
<glyph glyph-name="W" unicode="W" horiz-adv-x="846" d="M876 583 L830 583 L566 54 L563 54 L504 583 L452 583 L191 54 L187 54 L140 583 L91 583 L153 0 L206 0 L462 516 L466 516 L526 0 L579 0 L876 583 Z " />
<glyph glyph-name="X" unicode="X" horiz-adv-x="498" d="M95 583 L234 296 L-29 0 L26 0 L251 262 L376 0 L426 0 L280 297 L533 583 L480 583 L263 332 L142 583 L95 583 Z " />
<glyph glyph-name="Y" unicode="Y" horiz-adv-x="494" d="M534 583 L485 583 L249 261 L246 261 L119 583 L72 583 L218 222 L179 0 L220 0 L258 215 L534 583 Z " />
<glyph glyph-name="Z" unicode="Z" horiz-adv-x="467" d="M380 0 L386 38 L54 38 L498 580 L496 583 L102 583 L95 545 L420 545 L-20 3 L-18 0 L380 0 Z " />
<glyph glyph-name="bracketleft" unicode="&#x5b;" horiz-adv-x="258" d="M3 -181 L141 -181 L147 -147 L46 -147 L186 645 L287 645 L292 679 L154 679 L3 -181 Z " />
<glyph glyph-name="backslash" unicode="&#x5c;" horiz-adv-x="561" d="M148 673 L110 673 L425 -91 L464 -91 L148 673 Z " />
<glyph glyph-name="bracketright" unicode="&#x5d;" horiz-adv-x="259" d="M253 679 L115 679 L109 645 L211 645 L71 -147 L-31 -147 L-36 -181 L102 -181 L253 679 Z " />
<glyph glyph-name="asciicircum" unicode="&#x5e;" horiz-adv-x="435" d="M60 241 L100 241 L296 549 L375 241 L413 241 L324 583 L279 583 L60 241 Z " />
<glyph glyph-name="underscore" unicode="&#x5f;" horiz-adv-x="624" d="M45 -121 L447 -121 L453 -86 L51 -86 L45 -121 Z " />
<glyph glyph-name="grave" unicode="&#x60;" horiz-adv-x="258" d="M284 529 L165 682 L124 682 L249 529 L284 529 Z " />
<glyph glyph-name="a" unicode="a" horiz-adv-x="419" d="M302 0 L383 458 L345 458 L339 425 C292 447 247 458 222 458 C184 458 163 439 140 413 C77 355 37 207 37 93 C37 59 41 26 46 0 L98 0 L295 174 L265 0 L302 0 Z M81 42 C79 57 77 81 77 105 C77 218 120 369 187 422 C193 422 200 423 207 423 C244 421 286 409 333 390 L303 220 L95 39 L81 42 Z " />
<glyph glyph-name="b" unicode="b" horiz-adv-x="423" d="M28 16 C71 -1 112 -8 161 -8 C284 -8 372 131 372 273 C372 366 349 458 273 458 C228 458 174 416 128 370 L179 653 L140 653 L28 16 Z M258 423 L280 423 C316 395 332 346 332 272 C332 120 242 27 173 27 C127 27 95 33 70 42 L120 324 C167 373 226 417 258 423 L258 423 Z " />
<glyph glyph-name="c" unicode="c" horiz-adv-x="365" d="M286 136 C234 90 170 48 123 32 L95 38 C84 68 78 105 78 144 C78 253 120 378 186 420 C195 421 203 422 213 422 C254 422 301 410 335 394 L351 432 C322 446 264 458 223 458 C187 458 161 439 137 414 C68 361 40 230 38 139 C38 89 46 40 63 -1 L113 -8 C201 23 266 78 303 111 L286 136 Z " />
<glyph glyph-name="d" unicode="d" horiz-adv-x="420" d="M303 0 L418 653 L379 653 L339 425 C292 447 247 458 222 458 C184 458 163 439 140 413 C77 355 37 207 37 93 C37 59 41 26 46 0 L98 0 L294 173 L264 0 L303 0 Z M81 42 C79 57 77 81 77 105 C77 218 120 369 187 422 C194 422 202 423 209 422 C245 420 287 408 332 390 L302 219 L95 39 L81 42 Z " />
<glyph glyph-name="e" unicode="e" horiz-adv-x="377" d="M311 110 L294 134 C235 86 164 47 114 32 L96 38 C84 70 78 109 79 161 C79 169 79 177 80 185 C171 224 292 288 345 331 L345 421 C305 446 262 458 227 458 C183 458 158 437 137 413 C67 354 39 245 39 145 C39 89 47 40 64 -1 L106 -8 C203 27 274 77 311 110 L311 110 Z M187 422 C195 423 204 424 212 424 C248 424 284 412 308 397 L308 347 C260 305 150 250 83 221 C96 313 139 393 187 422 L187 422 Z " />
<glyph glyph-name="f" unicode="f" horiz-adv-x="280" d="M51 418 L140 418 L63 -21 C46 -113 12 -160 -9 -178 C-48 -184 -85 -171 -112 -159 L-124 -194 C-96 -206 -64 -212 -31 -212 C35 -212 86 -102 100 -23 L178 418 L292 418 L297 450 L183 450 L191 493 C203 563 222 597 254 625 C267 628 279 628 291 628 C315 628 341 624 367 614 L378 648 C359 656 330 662 305 662 C281 662 263 659 247 651 C204 631 169 582 154 496 L146 450 L56 450 L51 418 Z " />
<glyph glyph-name="g" unicode="g" horiz-adv-x="419" d="M111 -213 C145 -213 183 -206 206 -191 C262 -153 291 -64 304 11 L383 458 L345 458 L339 425 C292 447 247 458 222 458 C184 458 163 439 140 413 C77 355 37 207 37 93 C37 59 41 26 46 0 L98 0 L295 173 L274 56 C253 -66 227 -135 195 -163 C166 -173 140 -176 116 -176 C76 -176 43 -165 8 -149 L-3 -188 C33 -205 78 -213 111 -213 L111 -213 Z M81 42 C79 57 77 81 77 105 C77 218 120 369 187 422 L213 422 C249 419 289 408 333 390 L303 220 L95 39 L81 42 Z " />
<glyph glyph-name="h" unicode="h" horiz-adv-x="447" d="M64 0 L115 293 C194 363 272 414 318 421 L342 415 C347 403 350 387 350 359 C350 332 347 296 338 244 L296 0 L333 0 L377 246 C386 300 391 342 391 374 C391 434 374 458 335 458 C272 458 197 403 123 337 L179 653 L141 653 L27 0 L64 0 Z " />
<glyph glyph-name="i" unicode="i" horiz-adv-x="181" d="M64 0 L144 450 L105 450 L27 0 L64 0 Z M160 557 L183 657 L142 658 L125 566 L160 557 Z " />
<glyph glyph-name="j" unicode="j" horiz-adv-x="182" d="M25 -10 C16 -62 -21 -122 -73 -185 L-49 -202 C17 -134 53 -65 64 -3 L144 450 L106 450 L25 -10 Z M161 557 L183 657 L142 658 L126 566 L161 557 Z " />
<glyph glyph-name="k" unicode="k" horiz-adv-x="401" d="M64 0 L115 292 C173 346 250 406 298 425 L335 418 C331 349 300 279 216 206 L213 189 L278 0 L323 0 L251 195 C327 264 366 318 374 409 C375 420 375 433 375 444 L296 458 C255 442 182 394 123 337 L179 653 L141 653 L27 0 L64 0 Z " />
<glyph glyph-name="l" unicode="l" horiz-adv-x="194" d="M71 0 L186 653 L148 653 L34 0 L71 0 Z " />
<glyph glyph-name="m" unicode="m" horiz-adv-x="667" d="M516 0 L553 0 L597 246 C606 294 610 334 610 366 C610 427 593 458 553 458 C495 458 437 409 369 344 C373 419 357 458 313 458 C254 458 193 406 125 340 L144 450 L105 450 L27 0 L65 0 L117 295 C191 366 257 414 299 420 L322 414 C326 402 329 386 329 360 C329 333 326 296 317 244 L275 0 L313 0 L357 246 C360 266 364 285 366 303 C438 371 498 414 540 420 L562 414 C566 402 570 387 570 360 C570 334 566 296 557 244 L516 0 Z " />
<glyph glyph-name="n" unicode="n" horiz-adv-x="447" d="M65 0 L116 294 C194 363 272 414 318 421 L342 415 C346 403 350 387 350 360 C350 333 346 296 337 244 L296 0 L333 0 L377 246 C386 300 391 342 391 374 C391 434 374 458 335 458 C272 458 198 403 124 338 L144 450 L105 450 L27 0 L65 0 Z " />
<glyph glyph-name="o" unicode="o" horiz-adv-x="419" d="M179 26 C156 27 130 32 113 43 C87 77 79 117 79 171 C78 284 139 401 219 426 C249 423 273 418 290 409 C315 384 331 340 331 286 C330 177 268 61 179 26 L179 26 Z M153 -8 C213 -8 268 33 308 88 C347 144 372 216 372 277 C372 413 318 458 249 458 C188 458 135 421 97 365 C60 310 38 236 38 162 C38 47 82 -8 153 -8 L153 -8 Z " />
<glyph glyph-name="p" unicode="p" horiz-adv-x="452" d="M56 -207 L93 5 C122 -4 152 -8 186 -8 C314 -8 402 128 402 273 C402 366 375 458 307 458 C278 458 220 432 161 399 L170 450 L132 450 L119 374 C82 351 47 328 23 309 L30 279 C49 295 79 316 112 337 L18 -207 L56 -207 Z M288 423 L309 423 C343 400 361 346 361 272 C361 130 279 27 203 27 C160 27 130 31 99 41 L155 362 C205 391 256 416 288 423 L288 423 Z " />
<glyph glyph-name="q" unicode="q" horiz-adv-x="418" d="M265 -207 L382 458 L344 458 L338 425 C292 447 247 458 222 458 C184 458 163 439 140 413 C77 355 37 207 37 93 C37 59 41 26 46 0 L98 0 L294 173 L227 -207 L265 -207 Z M81 42 C79 57 77 81 77 105 C77 218 120 369 187 422 C194 422 202 423 209 422 C246 420 286 408 332 390 L302 219 L95 39 L81 42 Z " />
<glyph glyph-name="r" unicode="r" horiz-adv-x="306" d="M65 0 L114 281 C169 348 228 403 260 422 L301 390 L324 423 C310 440 289 458 269 458 C242 458 180 403 123 333 L144 450 L105 450 L27 0 L65 0 Z " />
<glyph glyph-name="s" unicode="s" horiz-adv-x="340" d="M316 437 C281 455 245 458 218 458 C127 458 63 404 63 337 C63 280 106 243 160 205 C197 179 233 147 237 100 C238 87 232 75 229 67 C211 42 164 27 120 27 C91 27 48 35 11 54 L2 18 C38 -1 79 -8 118 -8 C160 -8 211 6 239 33 C262 54 274 84 274 116 C274 166 226 212 175 246 C131 276 103 309 102 348 C102 364 107 377 115 392 C137 410 175 423 216 422 C250 421 276 414 305 400 L316 437 Z " />
<glyph glyph-name="t" unicode="t" horiz-adv-x="307" d="M50 418 L120 418 L47 5 L94 -8 C163 14 247 78 273 107 L258 132 C227 102 168 60 115 38 L93 47 L158 418 L296 418 L301 450 L163 450 L184 567 L146 567 L125 450 L56 450 L50 418 Z " />
<glyph glyph-name="u" unicode="u" horiz-adv-x="443" d="M367 450 L315 157 C239 88 158 35 113 30 L91 34 C88 45 86 59 86 82 C86 108 89 146 99 206 L141 450 L103 450 L58 195 C49 143 44 102 44 70 C44 17 59 -8 95 -8 C160 -8 239 50 307 112 L288 0 L326 0 L405 450 L367 450 Z " />
<glyph glyph-name="v" unicode="v" horiz-adv-x="394" d="M358 450 L165 52 L160 52 C127 158 106 267 106 367 C106 395 108 422 112 450 L71 450 C68 424 67 398 67 372 C67 246 100 108 137 0 L176 0 L400 450 L358 450 Z " />
<glyph glyph-name="w" unicode="w" horiz-adv-x="647" d="M610 450 L417 52 L412 52 C380 158 359 267 359 367 C359 395 361 422 365 450 L324 450 C321 424 319 398 319 372 L319 360 L165 52 L160 52 C127 158 106 267 106 367 C106 395 108 422 112 450 L71 450 C68 424 67 398 67 372 C67 246 100 108 137 0 L175 0 L323 292 C333 190 360 85 390 0 L428 0 L652 450 L610 450 Z " />
<glyph glyph-name="x" unicode="x" horiz-adv-x="385" d="M354 450 L192 255 L112 450 L70 450 L167 224 L-25 0 L21 0 L180 191 L258 0 L300 0 L206 222 L400 450 L354 450 Z " />
<glyph glyph-name="y" unicode="y" horiz-adv-x="396" d="M87 -207 L212 73 L402 450 L359 450 L166 52 L161 52 C128 158 107 267 107 367 C107 395 109 422 113 450 L72 450 C69 424 68 398 68 372 C68 246 99 108 136 0 L141 0 L40 -200 L45 -207 L87 -207 Z " />
<glyph glyph-name="z" unicode="z" horiz-adv-x="355" d="M61 416 L295 416 L-2 23 L-1 0 L279 0 L284 35 L48 35 L345 424 L345 450 L66 450 L61 416 Z " />
<glyph glyph-name="braceleft" unicode="&#x7b;" horiz-adv-x="299" d="M164 -179 L184 -178 L188 -147 L167 -147 C105 -147 62 -134 62 -83 C62 -71 64 -58 69 -42 L118 142 C122 157 124 171 124 184 C124 219 110 245 85 253 C124 266 154 299 158 368 L175 550 C184 634 225 650 307 650 L329 650 L336 681 C336 681 308 682 307 682 C223 684 151 656 140 552 L122 358 C118 309 92 269 42 269 L37 237 C75 237 90 214 90 183 C90 172 88 161 85 149 L35 -40 C30 -58 28 -74 28 -88 C28 -160 89 -181 164 -179 L164 -179 Z " />
<glyph glyph-name="bar" unicode="&#x7c;" horiz-adv-x="200" d="M20 -92 L57 -92 L193 675 L156 675 L20 -92 Z " />
<glyph glyph-name="braceright" unicode="&#x7d;" horiz-adv-x="299" d="M133 679 L113 678 L109 647 L130 647 C192 647 235 634 235 583 C235 571 233 558 228 542 L179 358 C175 343 173 329 173 316 C173 281 187 255 212 247 C173 234 143 201 139 132 L122 -50 C113 -134 72 -150 -10 -150 L-32 -150 L-39 -181 C-39 -181 -11 -182 -10 -182 C74 -184 146 -156 157 -52 L175 142 C179 191 205 231 255 231 L260 263 C222 263 207 286 207 317 C207 328 209 339 212 351 L262 540 C267 558 269 574 269 588 C269 660 208 681 133 679 L133 679 Z " />
<glyph glyph-name="asciitilde" unicode="&#x7e;" horiz-adv-x="494" d="M337 264 C372 264 411 285 438 315 L423 340 C400 319 378 301 349 301 C280 301 256 345 185 345 C142 345 98 319 74 298 L86 272 C105 285 135 309 178 309 C238 309 272 264 337 264 L337 264 Z " />
<glyph glyph-name="uni00A0" unicode="&#xa0;" horiz-adv-x="250" d="" />
<glyph glyph-name="exclamdown" unicode="&#xa1;" horiz-adv-x="197" d="M92 112 L111 242 L79 242 L52 111 L10 -131 L50 -131 L92 112 Z M155 455 L115 460 L88 341 L132 339 L155 455 Z " />
<glyph glyph-name="cent" unicode="&#xa2;" horiz-adv-x="382" d="M294 136 C263 108 228 83 195 63 L257 419 C288 414 319 405 343 394 L359 432 C337 442 299 452 264 456 L278 535 L245 535 L231 458 C195 458 169 439 145 414 C76 361 48 230 46 139 C46 89 54 40 71 -1 L121 -8 L150 3 L137 -73 L171 -73 L187 21 C242 51 284 87 311 111 L294 136 Z M131 32 L103 38 C92 68 86 105 86 144 C86 253 128 378 194 420 C203 421 211 422 221 422 L225 422 L157 42 C148 38 139 35 131 32 L131 32 Z " />
<glyph glyph-name="sterling" unicode="&#xa3;" horiz-adv-x="499" d="M160 167 C163 186 164 206 164 228 C164 242 164 256 163 270 L374 270 L380 304 L161 304 C160 320 160 337 160 352 C160 363 160 373 161 383 C165 480 231 539 325 539 C385 539 425 526 464 496 L472 544 C438 564 395 577 332 577 C238 577 129 526 120 377 C119 364 118 349 118 335 C118 325 119 314 119 304 L65 304 L58 270 L120 270 C122 237 123 207 121 185 C118 132 98 88 57 36 L16 36 L10 0 L404 0 L410 36 L100 36 C130 78 152 121 160 167 L160 167 Z " />
<glyph glyph-name="currency" unicode="&#xa4;" horiz-adv-x="507" d="M112 465 L90 445 L147 374 C111 340 88 293 88 238 C88 206 96 175 112 154 L26 81 L43 60 L127 134 C151 110 190 97 229 97 C268 97 307 112 340 135 L397 63 L418 83 L362 155 C399 189 423 240 423 298 C423 326 416 354 403 373 L482 443 L467 464 L387 394 C362 421 322 435 282 435 C241 435 202 418 169 394 L112 465 Z M276 400 C349 400 388 350 388 291 C388 215 327 132 235 132 C165 132 121 178 121 242 C121 329 198 400 276 400 L276 400 Z " />
<glyph glyph-name="yen" unicode="&#xa5;" horiz-adv-x="553" d="M470 177 L283 177 L288 207 L334 270 L486 270 L492 302 L357 302 L552 568 L508 568 L278 246 L275 246 L148 568 L102 568 L207 302 L77 302 L71 270 L220 270 L245 207 L240 177 L55 177 L49 144 L234 144 L209 0 L252 0 L277 144 L464 144 L470 177 Z " />
<glyph glyph-name="brokenbar" unicode="&#xa6;" horiz-adv-x="206" d="M21 -92 L62 -92 L114 199 L73 199 L21 -92 Z M106 390 L147 390 L198 675 L157 675 L106 390 Z " />
<glyph glyph-name="section" unicode="&#xa7;" horiz-adv-x="480" d="M155 -104 C276 -104 396 -20 396 125 C396 186 368 249 267 356 L149 477 C191 531 263 559 319 559 C370 559 428 545 468 523 L476 563 C447 575 400 592 324 592 C201 592 77 507 77 362 C77 302 106 236 201 134 L321 6 C280 -45 213 -71 159 -71 C109 -71 51 -58 10 -35 L3 -75 C32 -87 79 -104 155 -104 L155 -104 Z M232 155 C138 257 114 319 114 372 C114 399 119 423 129 444 L233 338 C333 233 359 167 359 116 C359 87 352 61 342 39 C312 69 247 137 232 155 L232 155 Z " />
<glyph glyph-name="dieresis" unicode="&#xa8;" horiz-adv-x="316" d="M135 575 L170 566 L193 656 L152 657 L135 575 Z M299 575 L335 566 L357 656 L317 657 L299 575 Z " />
<glyph glyph-name="copyright" unicode="&#xa9;" horiz-adv-x="722" d="M367 -14 C534 -14 670 122 670 289 C670 456 534 592 367 592 C200 592 64 456 64 289 C64 122 200 -14 367 -14 L367 -14 Z M367 7 C217 7 86 132 86 289 C86 447 217 571 367 571 C517 571 649 448 649 289 C649 132 517 7 367 7 L367 7 Z M374 108 C417 108 452 118 470 128 L470 163 C438 146 413 141 377 141 C290 141 242 184 242 290 C242 384 291 440 374 440 C405 440 433 437 470 418 L470 456 C451 463 423 473 376 473 C257 473 202 390 202 288 C202 169 259 108 374 108 L374 108 Z " />
<glyph glyph-name="ordfeminine" unicode="&#xaa;" horiz-adv-x="400" d="M325 385 L384 704 L354 704 L350 682 C315 697 282 704 264 704 C236 704 217 691 201 674 C155 633 125 530 125 450 C125 426 128 404 132 385 L172 385 L317 506 L295 385 L325 385 Z M159 416 C158 428 156 443 156 460 C156 539 188 640 238 677 C270 679 304 670 344 654 L324 542 L170 415 L159 416 Z M85 312 L342 312 L348 342 L91 342 L85 312 Z " />
<glyph glyph-name="guillemotleft" unicode="&#xab;" horiz-adv-x="393" d="M111 46 L147 46 L92 226 L210 405 L173 405 L45 226 L111 46 Z M263 46 L299 46 L244 226 L362 405 L325 405 L197 226 L263 46 Z " />
<glyph glyph-name="logicalnot" unicode="&#xac;" horiz-adv-x="506" d="M369 100 L406 100 L444 319 L86 319 L80 285 L402 285 L369 100 Z " />
<glyph glyph-name="registered" unicode="&#xae;" horiz-adv-x="488" d="M277 268 C383 268 464 348 464 454 C464 560 383 641 277 641 C171 641 90 560 90 454 C90 348 171 268 277 268 L277 268 Z M277 285 C186 285 109 354 109 454 C109 555 186 624 277 624 C368 624 445 554 445 453 C445 352 368 285 277 285 L277 285 Z M212 358 L234 358 L234 436 L262 436 C271 436 279 437 287 438 L339 358 L365 358 L309 443 C334 452 349 471 349 500 C349 543 320 560 276 560 L212 560 L212 358 Z M270 541 C309 541 327 529 327 499 C327 460 294 455 260 455 L234 455 L234 541 L270 541 Z " />
<glyph glyph-name="macron" unicode="&#xaf;" horiz-adv-x="332" d="M140 580 L359 580 L365 616 L147 616 L140 580 Z " />
<glyph glyph-name="degree" unicode="&#xb0;" horiz-adv-x="353" d="M196 355 C279 355 336 414 336 492 C336 545 298 592 232 592 C149 592 92 535 92 456 C92 402 128 355 196 355 L196 355 Z M201 383 C155 383 126 413 126 459 C126 525 169 564 226 564 C273 564 301 533 301 488 C301 420 259 383 201 383 L201 383 Z " />
<glyph glyph-name="plusminus" unicode="&#xb1;" horiz-adv-x="531" d="M89 315 L261 315 L231 144 L265 144 L295 315 L469 315 L476 348 L301 348 L332 522 L298 522 L267 348 L95 348 L89 315 Z M38 49 L424 49 L430 84 L45 84 L38 49 Z " />
<glyph glyph-name="twosuperior" unicode="&#xb2;" horiz-adv-x="233" d="M244 400 L249 426 L95 426 C178 490 265 584 265 649 C265 680 229 712 182 712 C152 712 123 704 92 683 L90 656 C120 676 146 686 174 686 C210 686 226 666 236 647 C228 584 150 493 60 422 L56 400 L244 400 Z " />
<glyph glyph-name="threesuperior" unicode="&#xb3;" horiz-adv-x="241" d="M54 410 C68 403 87 396 126 396 C195 396 257 437 257 488 C257 520 204 550 171 562 L171 564 C209 578 269 623 269 651 C269 689 232 712 187 712 C153 712 121 702 97 687 L98 662 C124 677 152 686 177 686 C216 686 233 675 242 646 C227 619 180 584 136 572 L133 552 C178 539 219 513 230 487 C225 439 173 421 130 421 C107 421 87 424 59 438 L54 410 Z " />
<glyph glyph-name="acute" unicode="&#xb4;" horiz-adv-x="258" d="M188 529 L313 682 L272 682 L153 529 L188 529 Z " />
<glyph glyph-name="mu" unicode="&#xb5;" horiz-adv-x="506" d="M-1 -207 L36 -207 L77 22 C85 1 100 -7 123 -5 C184 2 254 54 318 113 C318 108 313 80 313 76 C307 18 324 -7 368 -7 C385 -7 406 -2 428 9 L430 34 C408 28 391 27 380 27 C359 27 350 37 350 62 C350 71 351 81 353 94 L415 450 L378 450 L327 157 C249 88 169 36 123 30 L101 34 C98 45 96 59 96 81 C96 107 99 145 110 206 L152 450 L114 450 L-1 -207 Z " />
<glyph glyph-name="paragraph" unicode="&#xb6;" horiz-adv-x="546" d="M202 -207 L241 -207 L374 546 L473 546 L341 -207 L380 -207 L519 583 L345 583 C177 583 50 489 50 334 C50 223 142 171 268 168 L202 -207 Z " />
<glyph glyph-name="periodcentered" unicode="&#xb7;" horiz-adv-x="183" d="M73 276 L108 268 L131 360 L90 361 L73 276 Z " />
<glyph glyph-name="cedilla" unicode="&#xb8;" horiz-adv-x="266" d="M78 -214 C160 -214 194 -167 194 -118 C194 -78 155 -52 118 -45 L148 11 L119 11 L83 -55 L81 -66 C135 -71 160 -93 160 -121 C160 -163 122 -184 79 -184 C58 -184 25 -174 10 -163 L4 -195 C19 -205 55 -214 78 -214 L78 -214 Z " />
<glyph glyph-name="onesuperior" unicode="&#xb9;" horiz-adv-x="159" d="M136 400 L192 712 L173 712 L81 681 L77 655 L158 680 L107 400 L136 400 Z " />
<glyph glyph-name="ordmasculine" unicode="&#xba;" horiz-adv-x="413" d="M82 312 L353 312 L359 342 L88 342 L82 312 Z M235 403 C218 404 202 407 189 415 C169 439 163 468 163 507 C163 585 206 664 264 682 C286 679 301 677 314 670 C331 654 343 624 344 586 C344 509 301 428 235 403 L235 403 Z M216 380 C262 380 302 409 331 447 C360 486 376 535 376 578 C376 673 337 704 286 704 C240 704 201 678 174 639 C147 601 131 549 131 498 C131 417 164 380 216 380 L216 380 Z " />
<glyph glyph-name="guillemotright" unicode="&#xbb;" horiz-adv-x="395" d="M119 408 L83 408 L138 228 L20 49 L57 49 L185 228 L119 408 Z M273 408 L237 408 L292 228 L174 49 L211 49 L339 228 L273 408 Z " />
<glyph glyph-name="onequarter" unicode="&#xbc;" horiz-adv-x="592" d="M139 262 L195 574 L176 574 L84 543 L80 517 L161 542 L110 262 L139 262 Z M526 94 L529 118 L475 118 L510 312 L479 312 L300 119 L297 94 L442 94 L425 0 L454 0 L471 94 L526 94 Z M329 118 L474 273 L446 118 L329 118 Z M84 0 L523 564 L523 568 L492 568 L54 3 L54 0 L84 0 Z " />
<glyph glyph-name="onehalf" unicode="&#xbd;" horiz-adv-x="601" d="M141 262 L197 574 L178 574 L86 543 L82 517 L163 542 L112 262 L141 262 Z M519 0 L524 26 L370 26 C453 90 540 184 540 249 C540 280 504 312 457 312 C427 312 398 304 367 283 L365 256 C395 276 421 286 449 286 C485 286 501 266 511 247 C503 184 425 93 335 22 L331 0 L519 0 Z M75 0 L514 564 L514 568 L483 568 L45 3 L45 0 L75 0 Z " />
<glyph glyph-name="threequarters" unicode="&#xbe;" horiz-adv-x="616" d="M57 272 C71 265 90 258 129 258 C198 258 260 299 260 350 C260 382 207 412 174 424 L174 426 C212 440 272 485 272 513 C272 551 235 574 190 574 C156 574 124 564 100 549 L101 524 C127 539 155 548 180 548 C219 548 236 537 245 508 C230 481 183 446 139 434 L136 414 C181 401 222 375 233 349 C228 301 176 283 133 283 C110 283 90 286 62 300 L57 272 Z M550 94 L553 118 L499 118 L534 312 L503 312 L324 119 L321 94 L466 94 L449 0 L478 0 L495 94 L550 94 Z M353 118 L498 273 L470 118 L353 118 Z M119 0 L558 564 L558 568 L527 568 L89 3 L89 0 L119 0 Z " />
<glyph glyph-name="questiondown" unicode="&#xbf;" horiz-adv-x="321" d="M-2 -9 C-2 -55 82 -127 203 -143 L213 -108 C140 -95 55 -57 29 -9 C59 41 167 118 201 166 C210 177 215 187 214 196 C212 223 205 246 197 274 L168 268 L180 187 L87 102 C39 57 -2 21 -2 -9 L-2 -9 Z M241 454 L201 459 L174 340 L218 338 L241 454 Z " />
<glyph glyph-name="Agrave" unicode="&#xc0;" horiz-adv-x="506" d="M-22 0 L22 0 L135 209 L359 209 L386 0 L431 0 L347 583 L303 583 L-22 0 Z M314 538 L317 538 L355 242 L153 242 L314 538 Z M357 632 L296 742 L254 742 L320 632 L357 632 Z " />
<glyph glyph-name="Aacute" unicode="&#xc1;" horiz-adv-x="506" d="M-22 0 L22 0 L135 209 L359 209 L386 0 L431 0 L347 583 L303 583 L-22 0 Z M314 538 L317 538 L355 242 L153 242 L314 538 Z M333 632 L437 742 L394 742 L296 632 L333 632 Z " />
<glyph glyph-name="Acircumflex" unicode="&#xc2;" horiz-adv-x="506" d="M-22 0 L22 0 L135 209 L359 209 L386 0 L431 0 L347 583 L303 583 L-22 0 Z M314 538 L317 538 L355 242 L153 242 L314 538 Z M336 744 L209 628 L251 628 L344 714 L346 714 L405 628 L446 628 L367 744 L336 744 Z " />
<glyph glyph-name="Atilde" unicode="&#xc3;" horiz-adv-x="506" d="M-22 0 L22 0 L135 209 L359 209 L386 0 L431 0 L347 583 L303 583 L-22 0 Z M314 538 L317 538 L355 242 L153 242 L314 538 Z M455 711 C438 691 416 676 393 676 C358 676 327 712 285 712 C258 712 232 697 206 672 L220 652 C244 672 259 681 283 681 C319 681 350 645 389 645 C422 645 448 665 472 693 L455 711 Z " />
<glyph glyph-name="Adieresis" unicode="&#xc4;" horiz-adv-x="506" d="M-22 0 L22 0 L135 209 L359 209 L386 0 L431 0 L347 583 L303 583 L-22 0 Z M314 538 L317 538 L355 242 L153 242 L314 538 Z M230 642 L265 633 L287 722 L246 724 L230 642 Z M394 642 L429 633 L451 722 L411 724 L394 642 Z " />
<glyph glyph-name="Aring" unicode="&#xc5;" horiz-adv-x="506" d="M-22 0 L22 0 L135 209 L359 209 L386 0 L431 0 L347 583 L303 583 L-22 0 Z M314 538 L317 538 L355 242 L153 242 L314 538 Z M357 772 C309 772 260 742 260 681 C260 641 291 613 331 613 C379 613 429 641 429 704 C429 746 396 772 357 772 L357 772 Z M352 748 C382 748 401 730 401 700 C401 661 375 637 335 637 C303 637 287 657 287 683 C287 726 318 748 352 748 L352 748 Z " />
<glyph glyph-name="AE" unicode="&#xc6;" horiz-adv-x="741" d="M313 0 L651 0 L657 37 L360 37 L403 281 L648 281 L654 318 L409 318 L449 546 L742 546 L748 583 L398 583 L-33 0 L14 0 L157 197 L347 197 L313 0 Z M402 532 L406 532 L354 234 L184 234 L402 532 Z " />
<glyph glyph-name="Ccedilla" unicode="&#xc7;" horiz-adv-x="522" d="M242 -214 C324 -214 358 -167 358 -118 C358 -78 319 -52 282 -45 L302 -7 C364 -4 415 13 441 26 L447 66 C397 42 350 29 295 29 C166 29 102 92 102 226 C102 425 224 556 394 556 C432 556 474 551 514 529 L522 569 C493 582 451 592 399 592 C174 592 55 407 55 223 C55 89 121 -3 272 -8 L247 -55 L245 -66 C299 -71 324 -93 324 -121 C324 -163 286 -184 243 -184 C222 -184 189 -174 174 -163 L168 -195 C183 -205 219 -214 242 -214 L242 -214 Z " />
<glyph glyph-name="Egrave" unicode="&#xc8;" horiz-adv-x="470" d="M43 0 L381 0 L387 37 L90 37 L133 281 L378 281 L384 318 L139 318 L179 546 L472 546 L478 583 L145 583 L43 0 Z M363 632 L302 742 L260 742 L326 632 L363 632 Z " />
<glyph glyph-name="Eacute" unicode="&#xc9;" horiz-adv-x="470" d="M43 0 L381 0 L387 37 L90 37 L133 281 L378 281 L384 318 L139 318 L179 546 L472 546 L478 583 L145 583 L43 0 Z M298 632 L402 742 L359 742 L261 632 L298 632 Z " />
<glyph glyph-name="Ecircumflex" unicode="&#xca;" horiz-adv-x="470" d="M43 0 L381 0 L387 37 L90 37 L133 281 L378 281 L384 318 L139 318 L179 546 L472 546 L478 583 L145 583 L43 0 Z M332 744 L205 628 L247 628 L340 714 L342 714 L401 628 L442 628 L363 744 L332 744 Z " />
<glyph glyph-name="Edieresis" unicode="&#xcb;" horiz-adv-x="470" d="M43 0 L381 0 L387 37 L90 37 L133 281 L378 281 L384 318 L139 318 L179 546 L472 546 L478 583 L145 583 L43 0 Z M221 643 L256 634 L278 723 L237 725 L221 643 Z M385 643 L420 634 L442 723 L402 725 L385 643 Z " />
<glyph glyph-name="Igrave" unicode="&#xcc;" horiz-adv-x="216" d="M191 632 L130 742 L88 742 L154 632 L191 632 Z M43 0 L84 0 L186 583 L145 583 L43 0 Z " />
<glyph glyph-name="Iacute" unicode="&#xcd;" horiz-adv-x="216" d="M43 0 L84 0 L186 583 L145 583 L43 0 Z M182 632 L286 742 L243 742 L145 632 L182 632 Z " />
<glyph glyph-name="Icircumflex" unicode="&#xce;" horiz-adv-x="216" d="M43 0 L84 0 L186 583 L145 583 L43 0 Z M180 744 L53 628 L95 628 L188 714 L190 714 L249 628 L290 628 L211 744 L180 744 Z " />
<glyph glyph-name="Idieresis" unicode="&#xcf;" horiz-adv-x="216" d="M43 0 L84 0 L186 583 L145 583 L43 0 Z M75 643 L110 634 L132 723 L91 725 L75 643 Z M239 643 L274 634 L296 723 L256 725 L239 643 Z " />
<glyph glyph-name="Eth" unicode="&#xd0;" horiz-adv-x="602" d="M40 281 L93 281 L44 0 L172 0 C385 0 559 120 559 352 C559 514 433 583 264 583 L146 583 L99 317 L46 317 L40 281 Z M298 281 L305 317 L140 317 L180 546 L250 546 C405 546 512 494 512 347 C512 143 369 37 178 37 L91 37 L134 281 L298 281 Z " />
<glyph glyph-name="Ntilde" unicode="&#xd1;" horiz-adv-x="610" d="M496 711 C479 691 457 676 434 676 C399 676 368 712 326 712 C299 712 273 697 247 672 L261 652 C285 672 300 681 324 681 C360 681 391 645 430 645 C463 645 489 665 513 693 L496 711 Z M43 0 L85 0 L176 517 L178 517 L436 0 L478 0 L581 583 L539 583 L449 72 L446 72 L188 583 L145 583 L43 0 Z " />
<glyph glyph-name="Ograve" unicode="&#xd2;" horiz-adv-x="631" d="M390 632 L329 742 L287 742 L353 632 L390 632 Z M265 -8 C476 -8 590 184 590 364 C590 491 526 592 382 592 C166 592 54 407 54 220 C54 95 120 -8 265 -8 L265 -8 Z M271 29 C161 29 99 99 99 223 C99 399 199 556 374 556 C478 556 545 492 545 365 C545 193 446 29 271 29 L271 29 Z " />
<glyph glyph-name="Oacute" unicode="&#xd3;" horiz-adv-x="631" d="M376 632 L480 742 L437 742 L339 632 L376 632 Z M265 -8 C476 -8 590 184 590 364 C590 491 526 592 382 592 C166 592 54 407 54 220 C54 95 120 -8 265 -8 L265 -8 Z M271 29 C161 29 99 99 99 223 C99 399 199 556 374 556 C478 556 545 492 545 365 C545 193 446 29 271 29 L271 29 Z " />
<glyph glyph-name="Ocircumflex" unicode="&#xd4;" horiz-adv-x="631" d="M265 -8 C476 -8 590 184 590 364 C590 491 526 592 382 592 C166 592 54 407 54 220 C54 95 120 -8 265 -8 L265 -8 Z M271 29 C161 29 99 99 99 223 C99 399 199 556 374 556 C478 556 545 492 545 365 C545 193 446 29 271 29 L271 29 Z M395 745 L268 629 L310 629 L403 715 L405 715 L464 629 L505 629 L426 745 L395 745 Z " />
<glyph glyph-name="Otilde" unicode="&#xd5;" horiz-adv-x="631" d="M505 710 C488 690 466 675 443 675 C408 675 377 711 335 711 C308 711 282 696 256 671 L270 651 C294 671 309 680 333 680 C369 680 400 644 439 644 C472 644 498 664 522 692 L505 710 Z M265 -8 C476 -8 590 184 590 364 C590 491 526 592 382 592 C166 592 54 407 54 220 C54 95 120 -8 265 -8 L265 -8 Z M271 29 C161 29 99 99 99 223 C99 399 199 556 374 556 C478 556 545 492 545 365 C545 193 446 29 271 29 L271 29 Z " />
<glyph glyph-name="Odieresis" unicode="&#xd6;" horiz-adv-x="631" d="M271 642 L306 633 L328 722 L287 724 L271 642 Z M435 642 L470 633 L492 722 L452 724 L435 642 Z M265 -8 C476 -8 590 184 590 364 C590 491 526 592 382 592 C166 592 54 407 54 220 C54 95 120 -8 265 -8 L265 -8 Z M271 29 C161 29 99 99 99 223 C99 399 199 556 374 556 C478 556 545 492 545 365 C545 193 446 29 271 29 L271 29 Z " />
<glyph glyph-name="multiply" unicode="&#xd7;" horiz-adv-x="462" d="M57 118 L233 270 L355 118 L384 143 L262 295 L438 448 L418 473 L242 320 L119 474 L91 449 L213 295 L37 143 L57 118 Z " />
<glyph glyph-name="Oslash" unicode="&#xd8;" horiz-adv-x="631" d="M265 -8 C476 -8 590 184 590 364 C590 422 576 476 547 516 L617 592 L576 592 L528 539 C494 572 446 592 382 592 C166 592 54 407 54 220 C54 162 68 109 98 68 L28 -8 L69 -8 L118 45 C152 12 201 -8 265 -8 L265 -8 Z M99 223 C99 399 199 556 374 556 C426 556 469 539 499 507 L128 101 C109 132 99 173 99 223 L99 223 Z M271 29 C217 29 175 45 146 76 L517 483 C535 453 545 413 545 365 C545 193 446 29 271 29 L271 29 Z " />
<glyph glyph-name="Ugrave" unicode="&#xd9;" horiz-adv-x="595" d="M391 632 L330 742 L288 742 L354 632 L391 632 Z M256 -8 C369 -8 482 65 512 238 L573 583 L532 583 L470 234 C446 101 365 29 261 29 C170 29 112 70 112 167 C112 183 114 201 117 221 L181 583 L139 583 L75 216 C71 196 70 177 70 160 C70 36 159 -8 256 -8 L256 -8 Z " />
<glyph glyph-name="Uacute" unicode="&#xda;" horiz-adv-x="595" d="M359 632 L463 742 L420 742 L322 632 L359 632 Z M256 -8 C369 -8 482 65 512 238 L573 583 L532 583 L470 234 C446 101 365 29 261 29 C170 29 112 70 112 167 C112 183 114 201 117 221 L181 583 L139 583 L75 216 C71 196 70 177 70 160 C70 36 159 -8 256 -8 L256 -8 Z " />
<glyph glyph-name="Ucircumflex" unicode="&#xdb;" horiz-adv-x="595" d="M256 -8 C369 -8 482 65 512 238 L573 583 L532 583 L470 234 C446 101 365 29 261 29 C170 29 112 70 112 167 C112 183 114 201 117 221 L181 583 L139 583 L75 216 C71 196 70 177 70 160 C70 36 159 -8 256 -8 L256 -8 Z M370 744 L243 628 L285 628 L378 714 L380 714 L439 628 L480 628 L401 744 L370 744 Z " />
<glyph glyph-name="Udieresis" unicode="&#xdc;" horiz-adv-x="595" d="M259 642 L294 633 L316 722 L275 724 L259 642 Z M423 642 L458 633 L480 722 L440 724 L423 642 Z M256 -8 C369 -8 482 65 512 238 L573 583 L532 583 L470 234 C446 101 365 29 261 29 C170 29 112 70 112 167 C112 183 114 201 117 221 L181 583 L139 583 L75 216 C71 196 70 177 70 160 C70 36 159 -8 256 -8 L256 -8 Z " />
<glyph glyph-name="Yacute" unicode="&#xdd;" horiz-adv-x="494" d="M534 583 L485 583 L249 261 L246 261 L119 583 L72 583 L218 222 L179 0 L220 0 L258 215 L534 583 Z M304 632 L408 742 L365 742 L267 632 L304 632 Z " />
<glyph glyph-name="Thorn" unicode="&#xde;" horiz-adv-x="491" d="M43 0 L84 0 L103 110 L188 110 C355 110 460 182 460 324 C460 417 386 473 287 473 L166 473 L186 583 L145 583 L43 0 Z M269 436 C375 436 416 387 416 313 C416 173 289 147 189 147 L109 147 L160 436 L269 436 Z " />
<glyph glyph-name="germandbls" unicode="&#xdf;" horiz-adv-x="529" d="M51 418 L140 418 L63 -21 C55 -65 41 -101 26 -126 C14 -152 2 -166 -8 -174 C-47 -177 -85 -168 -112 -156 L-124 -194 C-96 -206 -64 -212 -31 -212 C35 -212 88 -93 100 -23 L190 488 C202 558 238 593 270 621 C288 624 303 626 318 626 C385 626 448 605 448 530 C448 434 270 424 270 322 C270 265 306 243 360 205 C395 180 431 148 436 103 C437 89 432 75 429 67 C411 42 364 27 320 27 C291 27 248 35 211 54 L202 18 C238 -1 278 -8 317 -8 C360 -8 411 6 439 33 C462 54 473 84 473 116 C473 166 426 212 375 246 C331 276 309 297 309 330 C309 417 488 421 488 541 C488 618 418 661 334 661 C299 661 270 655 246 638 C212 615 167 569 153 491 L145 450 L56 450 L51 418 Z " />
<glyph glyph-name="agrave" unicode="&#xe0;" horiz-adv-x="419" d="M302 0 L383 458 L345 458 L339 425 C292 447 247 458 222 458 C184 458 163 439 140 413 C77 355 37 207 37 93 C37 59 41 26 46 0 L98 0 L295 174 L265 0 L302 0 Z M81 42 C79 57 77 81 77 105 C77 218 120 369 187 422 C193 422 200 423 207 423 C244 421 286 409 333 390 L303 220 L95 39 L81 42 Z M300 528 L181 681 L140 681 L265 528 L300 528 Z " />
<glyph glyph-name="aacute" unicode="&#xe1;" horiz-adv-x="419" d="M302 0 L383 458 L345 458 L339 425 C292 447 247 458 222 458 C184 458 163 439 140 413 C77 355 37 207 37 93 C37 59 41 26 46 0 L98 0 L295 174 L265 0 L302 0 Z M81 42 C79 57 77 81 77 105 C77 218 120 369 187 422 C193 422 200 423 207 423 C244 421 286 409 333 390 L303 220 L95 39 L81 42 Z M272 529 L397 682 L356 682 L237 529 L272 529 Z " />
<glyph glyph-name="acircumflex" unicode="&#xe2;" horiz-adv-x="419" d="M302 0 L383 458 L345 458 L339 425 C292 447 247 458 222 458 C184 458 163 439 140 413 C77 355 37 207 37 93 C37 59 41 26 46 0 L98 0 L295 174 L265 0 L302 0 Z M81 42 C79 57 77 81 77 105 C77 218 120 369 187 422 C193 422 200 423 207 423 C244 421 286 409 333 390 L303 220 L95 39 L81 42 Z M280 676 L146 529 L188 529 L287 644 L289 644 L346 529 L385 529 L310 676 L280 676 Z " />
<glyph glyph-name="atilde" unicode="&#xe3;" horiz-adv-x="419" d="M302 0 L383 458 L345 458 L339 425 C292 447 247 458 222 458 C184 458 163 439 140 413 C77 355 37 207 37 93 C37 59 41 26 46 0 L98 0 L295 174 L265 0 L302 0 Z M81 42 C79 57 77 81 77 105 C77 218 120 369 187 422 C193 422 200 423 207 423 C244 421 286 409 333 390 L303 220 L95 39 L81 42 Z M397 621 C380 602 362 590 339 590 C304 590 284 621 243 621 C215 621 190 605 163 580 L178 560 C201 581 218 589 241 589 C277 589 297 558 336 558 C369 558 389 576 413 603 L397 621 Z " />
<glyph glyph-name="adieresis" unicode="&#xe4;" horiz-adv-x="419" d="M302 0 L383 458 L345 458 L339 425 C292 447 247 458 222 458 C184 458 163 439 140 413 C77 355 37 207 37 93 C37 59 41 26 46 0 L98 0 L295 174 L265 0 L302 0 Z M81 42 C79 57 77 81 77 105 C77 218 120 369 187 422 C193 422 200 423 207 423 C244 421 286 409 333 390 L303 220 L95 39 L81 42 Z M171 575 L206 566 L229 656 L188 657 L171 575 Z M335 575 L371 566 L393 656 L353 657 L335 575 Z " />
<glyph glyph-name="aring" unicode="&#xe5;" horiz-adv-x="419" d="M302 0 L383 458 L345 458 L339 425 C292 447 247 458 222 458 C184 458 163 439 140 413 C77 355 37 207 37 93 C37 59 41 26 46 0 L98 0 L295 174 L265 0 L302 0 Z M81 42 C79 57 77 81 77 105 C77 218 120 369 187 422 C193 422 200 423 207 423 C244 421 286 409 333 390 L303 220 L95 39 L81 42 Z M300 683 C253 683 203 654 203 593 C203 552 234 524 274 524 C323 524 373 552 373 615 C373 657 339 683 300 683 L300 683 Z M296 659 C325 659 344 641 344 612 C344 573 318 549 279 549 C247 549 231 568 231 595 C231 637 262 659 296 659 L296 659 Z " />
<glyph glyph-name="ae" unicode="&#xe6;" horiz-adv-x="634" d="M567 110 L551 134 C492 86 420 47 371 32 L352 38 C341 68 336 105 335 156 L335 185 C426 224 549 287 602 331 L602 421 C559 447 518 456 488 456 C476 456 465 454 457 452 C428 442 405 427 385 408 C334 433 256 458 222 458 C184 458 163 439 140 413 C77 355 37 207 37 93 C37 59 41 26 46 0 L98 0 L296 160 L296 145 C296 89 304 40 321 -1 L363 -8 C459 27 530 77 567 110 L567 110 Z M81 42 C79 57 77 81 77 105 C77 218 120 369 187 422 C199 423 212 423 224 421 C270 417 317 399 360 378 C354 370 348 362 343 353 C320 313 305 257 299 202 L95 39 L81 42 Z M444 422 C451 423 459 424 467 424 C504 424 540 413 565 397 L565 347 C516 305 408 250 339 221 C353 313 396 393 444 422 L444 422 Z " />
<glyph glyph-name="ccedilla" unicode="&#xe7;" horiz-adv-x="365" d="M78 -213 C160 -213 194 -166 194 -117 C194 -77 155 -51 118 -44 L143 4 C216 36 270 82 303 111 L286 136 C234 90 170 48 123 32 L95 38 C84 68 78 105 78 144 C78 253 120 378 186 420 C195 421 203 422 213 422 C254 422 301 410 335 394 L351 432 C322 446 264 458 223 458 C187 458 161 439 137 414 C68 361 40 230 38 139 C38 89 46 40 63 -1 L108 -7 L83 -54 L81 -65 C135 -70 160 -92 160 -120 C160 -162 122 -183 79 -183 C58 -183 25 -173 10 -162 L4 -194 C19 -204 55 -213 78 -213 L78 -213 Z " />
<glyph glyph-name="egrave" unicode="&#xe8;" horiz-adv-x="377" d="M311 110 L294 134 C235 86 164 47 114 32 L96 38 C84 70 78 109 79 161 C79 169 79 177 80 185 C171 224 292 288 345 331 L345 421 C305 446 262 458 227 458 C183 458 158 437 137 413 C67 354 39 245 39 145 C39 89 47 40 64 -1 L106 -8 C203 27 274 77 311 110 L311 110 Z M187 422 C195 423 204 424 212 424 C248 424 284 412 308 397 L308 347 C260 305 150 250 83 221 C96 313 139 393 187 422 L187 422 Z M291 529 L172 682 L131 682 L256 529 L291 529 Z " />
<glyph glyph-name="eacute" unicode="&#xe9;" horiz-adv-x="377" d="M311 110 L294 134 C235 86 164 47 114 32 L96 38 C84 70 78 109 79 161 C79 169 79 177 80 185 C171 224 292 288 345 331 L345 421 C305 446 262 458 227 458 C183 458 158 437 137 413 C67 354 39 245 39 145 C39 89 47 40 64 -1 L106 -8 C203 27 274 77 311 110 L311 110 Z M187 422 C195 423 204 424 212 424 C248 424 284 412 308 397 L308 347 C260 305 150 250 83 221 C96 313 139 393 187 422 L187 422 Z M250 529 L375 682 L334 682 L215 529 L250 529 Z " />
<glyph glyph-name="ecircumflex" unicode="&#xea;" horiz-adv-x="377" d="M311 110 L294 134 C235 86 164 47 114 32 L96 38 C84 70 78 109 79 161 C79 169 79 177 80 185 C171 224 292 288 345 331 L345 421 C305 446 262 458 227 458 C183 458 158 437 137 413 C67 354 39 245 39 145 C39 89 47 40 64 -1 L106 -8 C203 27 274 77 311 110 L311 110 Z M187 422 C195 423 204 424 212 424 C248 424 284 412 308 397 L308 347 C260 305 150 250 83 221 C96 313 139 393 187 422 L187 422 Z M268 676 L134 529 L176 529 L275 644 L277 644 L334 529 L373 529 L298 676 L268 676 Z " />
<glyph glyph-name="edieresis" unicode="&#xeb;" horiz-adv-x="377" d="M311 110 L294 134 C235 86 164 47 114 32 L96 38 C84 70 78 109 79 161 C79 169 79 177 80 185 C171 224 292 288 345 331 L345 421 C305 446 262 458 227 458 C183 458 158 437 137 413 C67 354 39 245 39 145 C39 89 47 40 64 -1 L106 -8 C203 27 274 77 311 110 L311 110 Z M187 422 C195 423 204 424 212 424 C248 424 284 412 308 397 L308 347 C260 305 150 250 83 221 C96 313 139 393 187 422 L187 422 Z M311 574 L347 565 L369 655 L329 656 L311 574 Z M147 574 L182 565 L205 655 L164 656 L147 574 Z " />
<glyph glyph-name="igrave" unicode="&#xec;" horiz-adv-x="181" d="M65 0 L144 450 L105 450 L27 0 L65 0 Z M147 529 L28 682 L-13 682 L112 529 L147 529 Z " />
<glyph glyph-name="iacute" unicode="&#xed;" horiz-adv-x="181" d="M158 529 L283 682 L242 682 L123 529 L158 529 Z M65 0 L144 450 L105 450 L27 0 L65 0 Z " />
<glyph glyph-name="icircumflex" unicode="&#xee;" horiz-adv-x="181" d="M154 676 L20 529 L62 529 L161 644 L163 644 L220 529 L259 529 L184 676 L154 676 Z M65 0 L144 450 L105 450 L27 0 L65 0 Z " />
<glyph glyph-name="idieresis" unicode="&#xef;" horiz-adv-x="181" d="M39 575 L74 566 L97 656 L56 657 L39 575 Z M203 575 L239 566 L261 656 L221 657 L203 575 Z M65 0 L144 450 L105 450 L27 0 L65 0 Z " />
<glyph glyph-name="eth" unicode="&#xf0;" horiz-adv-x="419" d="M185 516 L257 571 C295 529 318 483 328 431 C304 448 277 458 249 458 C178 458 118 408 81 337 C53 288 38 225 38 162 C38 47 82 -8 153 -8 C217 -8 272 29 311 93 C349 157 373 240 373 346 C373 435 359 517 288 595 L359 648 L342 672 L268 616 C246 636 221 656 191 676 L168 646 C194 628 217 610 236 592 L167 539 L185 516 Z M334 346 C334 173 271 67 182 26 C159 27 130 32 113 43 C86 77 79 118 79 172 C79 285 139 401 219 426 C223 425 247 425 251 424 C269 421 308 404 333 388 C334 374 334 360 334 346 L334 346 Z " />
<glyph glyph-name="ntilde" unicode="&#xf1;" horiz-adv-x="447" d="M65 0 L116 294 C194 363 272 414 318 421 L342 415 C346 403 350 387 350 360 C350 333 346 296 337 244 L296 0 L333 0 L377 246 C386 300 391 342 391 374 C391 434 374 458 335 458 C272 458 198 403 124 338 L144 450 L105 450 L27 0 L65 0 Z M386 621 C369 602 351 590 328 590 C293 590 273 621 232 621 C204 621 179 605 152 580 L167 560 C190 581 207 589 230 589 C266 589 286 558 325 558 C358 558 378 576 402 603 L386 621 Z " />
<glyph glyph-name="ograve" unicode="&#xf2;" horiz-adv-x="419" d="M179 26 C156 27 130 32 113 43 C87 77 79 117 79 171 C78 284 139 401 219 426 C249 423 273 418 290 409 C315 384 331 340 331 286 C330 177 268 61 179 26 L179 26 Z M153 -8 C213 -8 268 33 308 88 C347 144 372 216 372 277 C372 413 318 458 249 458 C188 458 135 421 97 365 C60 310 38 236 38 162 C38 47 82 -8 153 -8 L153 -8 Z M272 529 L153 682 L112 682 L237 529 L272 529 Z " />
<glyph glyph-name="oacute" unicode="&#xf3;" horiz-adv-x="419" d="M252 529 L377 682 L336 682 L217 529 L252 529 Z M179 26 C156 27 130 32 113 43 C87 77 79 117 79 171 C78 284 139 401 219 426 C249 423 273 418 290 409 C315 384 331 340 331 286 C330 177 268 61 179 26 L179 26 Z M153 -8 C213 -8 268 33 308 88 C347 144 372 216 372 277 C372 413 318 458 249 458 C188 458 135 421 97 365 C60 310 38 236 38 162 C38 47 82 -8 153 -8 L153 -8 Z " />
<glyph glyph-name="ocircumflex" unicode="&#xf4;" horiz-adv-x="419" d="M271 671 L137 524 L179 524 L278 639 L280 639 L337 524 L376 524 L301 671 L271 671 Z M179 26 C156 27 130 32 113 43 C87 77 79 117 79 171 C78 284 139 401 219 426 C249 423 273 418 290 409 C315 384 331 340 331 286 C330 177 268 61 179 26 L179 26 Z M153 -8 C213 -8 268 33 308 88 C347 144 372 216 372 277 C372 413 318 458 249 458 C188 458 135 421 97 365 C60 310 38 236 38 162 C38 47 82 -8 153 -8 L153 -8 Z " />
<glyph glyph-name="otilde" unicode="&#xf5;" horiz-adv-x="419" d="M179 26 C156 27 130 32 113 43 C87 77 79 117 79 171 C78 284 139 401 219 426 C249 423 273 418 290 409 C315 384 331 340 331 286 C330 177 268 61 179 26 L179 26 Z M153 -8 C213 -8 268 33 308 88 C347 144 372 216 372 277 C372 413 318 458 249 458 C188 458 135 421 97 365 C60 310 38 236 38 162 C38 47 82 -8 153 -8 L153 -8 Z M375 621 C358 602 340 590 317 590 C282 590 262 621 221 621 C193 621 168 605 141 580 L156 560 C179 581 196 589 219 589 C255 589 275 558 314 558 C347 558 367 576 391 603 L375 621 Z " />
<glyph glyph-name="odieresis" unicode="&#xf6;" horiz-adv-x="419" d="M147 575 L182 566 L205 656 L164 657 L147 575 Z M311 575 L347 566 L369 656 L329 657 L311 575 Z M179 26 C156 27 130 32 113 43 C87 77 79 117 79 171 C78 284 139 401 219 426 C249 423 273 418 290 409 C315 384 331 340 331 286 C330 177 268 61 179 26 L179 26 Z M153 -8 C213 -8 268 33 308 88 C347 144 372 216 372 277 C372 413 318 458 249 458 C188 458 135 421 97 365 C60 310 38 236 38 162 C38 47 82 -8 153 -8 L153 -8 Z " />
<glyph glyph-name="divide" unicode="&#xf7;" horiz-adv-x="520" d="M71 279 L455 279 L462 312 L78 312 L71 279 Z M263 419 L298 411 L321 503 L280 504 L263 419 Z M206 94 L241 86 L264 178 L223 179 L206 94 Z " />
<glyph glyph-name="oslash" unicode="&#xf8;" horiz-adv-x="420" d="M153 -8 C213 -8 268 33 308 88 C347 144 372 216 372 277 C372 326 365 363 353 391 L408 459 L373 459 L338 416 C316 446 284 458 249 458 C188 458 135 421 97 365 C60 310 38 236 38 162 C38 122 43 89 53 64 L-5 -8 L29 -8 L66 38 C86 7 115 -8 153 -8 L153 -8 Z M179 26 C156 27 130 32 113 43 C105 52 99 63 95 73 L322 353 C328 333 331 310 331 286 C330 177 268 61 179 26 L179 26 Z M79 171 C78 284 139 401 219 426 C249 423 273 418 290 409 C297 401 304 392 310 381 L85 104 C80 124 79 146 79 171 L79 171 Z " />
<glyph glyph-name="ugrave" unicode="&#xf9;" horiz-adv-x="443" d="M367 450 L315 157 C239 88 158 35 113 30 L91 34 C88 45 86 59 86 82 C86 108 89 146 99 206 L141 450 L103 450 L58 195 C49 143 44 102 44 70 C44 17 59 -8 95 -8 C160 -8 239 50 307 112 L288 0 L326 0 L405 450 L367 450 Z M292 529 L173 682 L132 682 L257 529 L292 529 Z " />
<glyph glyph-name="uacute" unicode="&#xfa;" horiz-adv-x="443" d="M367 450 L315 157 C239 88 158 35 113 30 L91 34 C88 45 86 59 86 82 C86 108 89 146 99 206 L141 450 L103 450 L58 195 C49 143 44 102 44 70 C44 17 59 -8 95 -8 C160 -8 239 50 307 112 L288 0 L326 0 L405 450 L367 450 Z M254 529 L379 682 L338 682 L219 529 L254 529 Z " />
<glyph glyph-name="ucircumflex" unicode="&#xfb;" horiz-adv-x="443" d="M367 450 L315 157 C239 88 158 35 113 30 L91 34 C88 45 86 59 86 82 C86 108 89 146 99 206 L141 450 L103 450 L58 195 C49 143 44 102 44 70 C44 17 59 -8 95 -8 C160 -8 239 50 307 112 L288 0 L326 0 L405 450 L367 450 Z M276 676 L142 529 L184 529 L283 644 L285 644 L342 529 L381 529 L306 676 L276 676 Z " />
<glyph glyph-name="udieresis" unicode="&#xfc;" horiz-adv-x="443" d="M367 450 L315 157 C239 88 158 35 113 30 L91 34 C88 45 86 59 86 82 C86 108 89 146 99 206 L141 450 L103 450 L58 195 C49 143 44 102 44 70 C44 17 59 -8 95 -8 C160 -8 239 50 307 112 L288 0 L326 0 L405 450 L367 450 Z M332 575 L368 566 L390 656 L350 657 L332 575 Z M168 575 L203 566 L226 656 L185 657 L168 575 Z " />
<glyph glyph-name="yacute" unicode="&#xfd;" horiz-adv-x="396" d="M87 -207 L212 73 L402 450 L359 450 L166 52 L161 52 C128 158 107 267 107 367 C107 395 109 422 113 450 L72 450 C69 424 68 398 68 372 C68 246 99 108 136 0 L141 0 L40 -200 L45 -207 L87 -207 Z M237 529 L362 682 L321 682 L202 529 L237 529 Z " />
<glyph glyph-name="thorn" unicode="&#xfe;" horiz-adv-x="425" d="M29 -207 L66 5 C95 -4 125 -8 159 -8 C287 -8 375 128 375 273 C375 366 348 458 280 458 C251 458 193 432 135 399 L179 653 L141 653 L-9 -207 L29 -207 Z M261 423 L282 423 C316 400 334 346 334 272 C334 130 252 27 176 27 C133 27 103 31 72 41 L128 363 C178 391 229 416 261 423 L261 423 Z " />
<glyph glyph-name="ydieresis" unicode="&#xff;" horiz-adv-x="396" d="M149 576 L184 567 L207 657 L166 658 L149 576 Z M313 576 L349 567 L371 657 L331 658 L313 576 Z M87 -207 L212 73 L402 450 L359 450 L166 52 L161 52 C128 158 107 267 107 367 C107 395 109 422 113 450 L72 450 C69 424 68 398 68 372 C68 246 99 108 136 0 L141 0 L40 -200 L45 -207 L87 -207 Z " />
<glyph glyph-name="Amacron" unicode="&#x100;" horiz-adv-x="506" d="M-22 0 L22 0 L135 209 L359 209 L386 0 L431 0 L347 583 L303 583 L-22 0 Z M314 538 L317 538 L355 242 L153 242 L314 538 Z M226 667 L444 667 L451 702 L233 702 L226 667 Z " />
<glyph glyph-name="amacron" unicode="&#x101;" horiz-adv-x="419" d="M302 0 L383 458 L345 458 L339 425 C292 447 247 458 222 458 C184 458 163 439 140 413 C77 355 37 207 37 93 C37 59 41 26 46 0 L98 0 L295 174 L265 0 L302 0 Z M81 42 C79 57 77 81 77 105 C77 218 120 369 187 422 C193 422 200 423 207 423 C244 421 286 409 333 390 L303 220 L95 39 L81 42 Z M174 580 L393 580 L399 616 L181 616 L174 580 Z " />
<glyph glyph-name="Abreve" unicode="&#x102;" horiz-adv-x="506" d="M-22 0 L22 0 L135 209 L359 209 L386 0 L431 0 L347 583 L303 583 L-22 0 Z M314 538 L317 538 L355 242 L153 242 L314 538 Z M335 662 C291 662 273 690 271 726 L240 719 C241 665 276 632 331 632 C389 632 435 661 456 721 L428 727 C415 692 384 662 335 662 L335 662 Z " />
<glyph glyph-name="abreve" unicode="&#x103;" horiz-adv-x="419" d="M302 0 L383 458 L345 458 L339 425 C292 447 247 458 222 458 C184 458 163 439 140 413 C77 355 37 207 37 93 C37 59 41 26 46 0 L98 0 L295 174 L265 0 L302 0 Z M81 42 C79 57 77 81 77 105 C77 218 120 369 187 422 C193 422 200 423 207 423 C244 421 286 409 333 390 L303 220 L95 39 L81 42 Z M276 561 C224 561 214 602 213 636 L182 630 C183 576 206 532 271 532 C335 532 377 572 398 631 L370 637 C357 602 333 561 276 561 L276 561 Z " />
<glyph glyph-name="Aogonek" unicode="&#x104;" horiz-adv-x="506" d="M424 -190 L428 -160 C404 -170 376 -177 354 -177 C325 -177 298 -168 298 -130 C298 -79 356 -28 411 0 L431 0 L347 583 L303 583 L-22 0 L22 0 L135 209 L359 209 L384 11 C327 -18 263 -76 263 -139 C263 -189 298 -209 345 -209 C369 -209 401 -202 424 -190 L424 -190 Z M314 538 L317 538 L355 242 L153 242 L314 538 Z " />
<glyph glyph-name="aogonek" unicode="&#x105;" horiz-adv-x="419" d="M298 -190 L302 -160 C278 -170 250 -177 228 -177 C199 -177 172 -168 172 -130 C172 -79 230 -28 285 0 L302 0 L383 458 L345 458 L339 425 C292 447 247 458 222 458 C184 458 163 439 140 413 C77 355 37 207 37 93 C37 59 41 26 46 0 L98 0 L295 174 L267 15 C207 -12 137 -72 137 -139 C137 -189 172 -209 219 -209 C243 -209 275 -202 298 -190 L298 -190 Z M81 42 C79 57 77 81 77 105 C77 218 120 369 187 422 C193 422 200 423 207 423 C244 421 286 409 333 390 L303 220 L95 39 L81 42 Z " />
<glyph glyph-name="Cacute" unicode="&#x106;" horiz-adv-x="521" d="M284 -8 C354 -8 412 12 440 26 L446 66 C396 42 349 29 294 29 C165 29 101 92 101 226 C101 425 223 556 393 556 C431 556 473 551 513 529 L521 569 C492 582 450 592 398 592 C173 592 54 407 54 223 C54 86 124 -8 284 -8 L284 -8 Z M365 632 L469 742 L426 742 L328 632 L365 632 Z " />
<glyph glyph-name="cacute" unicode="&#x107;" horiz-adv-x="365" d="M247 529 L372 682 L331 682 L212 529 L247 529 Z M286 136 C234 90 170 48 123 32 L95 38 C84 68 78 105 78 144 C78 253 120 378 186 420 C195 421 203 422 213 422 C254 422 301 410 335 394 L351 432 C322 446 264 458 223 458 C187 458 161 439 137 414 C68 361 40 230 38 139 C38 89 46 40 63 -1 L113 -8 C201 23 266 78 303 111 L286 136 Z " />
<glyph glyph-name="Ccircumflex" unicode="&#x108;" horiz-adv-x="521" d="M284 -8 C354 -8 412 12 440 26 L446 66 C396 42 349 29 294 29 C165 29 101 92 101 226 C101 425 223 556 393 556 C431 556 473 551 513 529 L521 569 C492 582 450 592 398 592 C173 592 54 407 54 223 C54 86 124 -8 284 -8 L284 -8 Z M398 744 L271 628 L313 628 L406 714 L408 714 L467 628 L508 628 L429 744 L398 744 Z " />
<glyph glyph-name="ccircumflex" unicode="&#x109;" horiz-adv-x="365" d="M261 676 L127 529 L169 529 L268 644 L270 644 L327 529 L366 529 L291 676 L261 676 Z M286 136 C234 90 170 48 123 32 L95 38 C84 68 78 105 78 144 C78 253 120 378 186 420 C195 421 203 422 213 422 C254 422 301 410 335 394 L351 432 C322 446 264 458 223 458 C187 458 161 439 137 414 C68 361 40 230 38 139 C38 89 46 40 63 -1 L113 -8 C201 23 266 78 303 111 L286 136 Z " />
<glyph glyph-name="Cdotaccent" unicode="&#x10a;" horiz-adv-x="521" d="M366 642 L401 633 L423 723 L382 724 L366 642 Z M284 -8 C354 -8 412 12 440 26 L446 66 C396 42 349 29 294 29 C165 29 101 92 101 226 C101 425 223 556 393 556 C431 556 473 551 513 529 L521 569 C492 582 450 592 398 592 C173 592 54 407 54 223 C54 86 124 -8 284 -8 L284 -8 Z " />
<glyph glyph-name="cdotaccent" unicode="&#x10b;" horiz-adv-x="365" d="M286 136 C234 90 170 48 123 32 L95 38 C84 68 78 105 78 144 C78 253 120 378 186 420 C195 421 203 422 213 422 C254 422 301 410 335 394 L351 432 C322 446 264 458 223 458 C187 458 161 439 137 414 C68 361 40 230 38 139 C38 89 46 40 63 -1 L113 -8 C201 23 266 78 303 111 L286 136 Z M226 579 L261 571 L284 663 L243 664 L226 579 Z " />
<glyph glyph-name="Ccaron" unicode="&#x10c;" horiz-adv-x="521" d="M284 -8 C354 -8 412 12 440 26 L446 66 C396 42 349 29 294 29 C165 29 101 92 101 226 C101 425 223 556 393 556 C431 556 473 551 513 529 L521 569 C492 582 450 592 398 592 C173 592 54 407 54 223 C54 86 124 -8 284 -8 L284 -8 Z M405 626 L532 742 L490 742 L399 654 L396 654 L335 742 L295 742 L374 626 L405 626 Z " />
<glyph glyph-name="ccaron" unicode="&#x10d;" horiz-adv-x="365" d="M264 529 L395 676 L354 676 L255 560 L253 560 L195 676 L156 676 L232 529 L264 529 Z M286 136 C234 90 170 48 123 32 L95 38 C84 68 78 105 78 144 C78 253 120 378 186 420 C195 421 203 422 213 422 C254 422 301 410 335 394 L351 432 C322 446 264 458 223 458 C187 458 161 439 137 414 C68 361 40 230 38 139 C38 89 46 40 63 -1 L113 -8 C201 23 266 78 303 111 L286 136 Z " />
<glyph glyph-name="Dcaron" unicode="&#x10e;" horiz-adv-x="601" d="M43 0 L171 0 C384 0 558 120 558 352 C558 514 432 583 263 583 L145 583 L43 0 Z M249 546 C404 546 511 494 511 347 C511 143 368 37 177 37 L90 37 L179 546 L249 546 Z M318 624 L445 740 L403 740 L312 652 L309 652 L248 740 L208 740 L287 624 L318 624 Z " />
<glyph glyph-name="dcaron" unicode="&#x10f;" horiz-adv-x="423" d="M303 0 L418 653 L379 653 L339 425 C292 447 247 458 222 458 C184 458 163 439 140 413 C77 355 37 207 37 93 C37 59 41 26 46 0 L98 0 L294 173 L264 0 L303 0 Z M81 42 C79 57 77 81 77 105 C77 218 120 369 187 422 C194 422 202 423 209 422 C245 420 287 408 332 390 L302 219 L95 39 L81 42 Z M438 492 L469 492 L531 666 L492 666 L438 492 Z " />
<glyph glyph-name="Dcroat" unicode="&#x110;" horiz-adv-x="603" d="M39 281 L93 281 L44 0 L172 0 C385 0 559 120 559 352 C559 514 433 583 264 583 L146 583 L99 317 L45 317 L39 281 Z M297 281 L303 317 L140 317 L180 546 L250 546 C405 546 512 494 512 347 C512 143 369 37 178 37 L91 37 L134 281 L297 281 Z " />
<glyph glyph-name="dcroat" unicode="&#x111;" horiz-adv-x="419" d="M212 555 L361 555 L338 425 C292 447 247 458 222 458 C184 458 163 439 140 413 C77 355 37 207 37 93 C37 59 41 26 46 0 L98 0 L294 173 L264 0 L303 0 L401 555 L465 555 L471 587 L406 587 L418 653 L379 653 L367 587 L218 587 L212 555 Z M81 42 C79 57 77 81 77 105 C77 218 120 369 187 422 C194 422 202 423 209 422 C245 420 287 408 332 390 L302 219 L95 39 L81 42 Z " />
<glyph glyph-name="Emacron" unicode="&#x112;" horiz-adv-x="470" d="M43 0 L381 0 L387 37 L90 37 L133 281 L378 281 L384 318 L139 318 L179 546 L472 546 L478 583 L145 583 L43 0 Z M222 668 L440 668 L447 703 L229 703 L222 668 Z " />
<glyph glyph-name="emacron" unicode="&#x113;" horiz-adv-x="377" d="M311 110 L294 134 C235 86 164 47 114 32 L96 38 C84 70 78 109 79 161 C79 169 79 177 80 185 C171 224 292 288 345 331 L345 421 C305 446 262 458 227 458 C183 458 158 437 137 413 C67 354 39 245 39 145 C39 89 47 40 64 -1 L106 -8 C203 27 274 77 311 110 L311 110 Z M187 422 C195 423 204 424 212 424 C248 424 284 412 308 397 L308 347 C260 305 150 250 83 221 C96 313 139 393 187 422 L187 422 Z M130 580 L349 580 L355 616 L137 616 L130 580 Z " />
<glyph glyph-name="Ebreve" unicode="&#x114;" horiz-adv-x="470" d="M43 0 L381 0 L387 37 L90 37 L133 281 L378 281 L384 318 L139 318 L179 546 L472 546 L478 583 L145 583 L43 0 Z M329 662 C285 662 267 690 265 726 L234 719 C235 665 270 632 325 632 C383 632 429 661 450 721 L422 727 C409 692 378 662 329 662 L329 662 Z " />
<glyph glyph-name="ebreve" unicode="&#x115;" horiz-adv-x="377" d="M311 110 L294 134 C235 86 164 47 114 32 L96 38 C84 70 78 109 79 161 C79 169 79 177 80 185 C171 224 292 288 345 331 L345 421 C305 446 262 458 227 458 C183 458 158 437 137 413 C67 354 39 245 39 145 C39 89 47 40 64 -1 L106 -8 C203 27 274 77 311 110 L311 110 Z M187 422 C195 423 204 424 212 424 C248 424 284 412 308 397 L308 347 C260 305 150 250 83 221 C96 313 139 393 187 422 L187 422 Z M242 561 C190 561 180 602 179 636 L148 630 C149 576 172 532 237 532 C301 532 343 572 364 631 L336 637 C323 602 299 561 242 561 L242 561 Z " />
<glyph glyph-name="Edotaccent" unicode="&#x116;" horiz-adv-x="470" d="M43 0 L381 0 L387 37 L90 37 L133 281 L378 281 L384 318 L139 318 L179 546 L472 546 L478 583 L145 583 L43 0 Z M299 641 L334 632 L356 722 L315 723 L299 641 Z " />
<glyph glyph-name="edotaccent" unicode="&#x117;" horiz-adv-x="377" d="M311 110 L294 134 C235 86 164 47 114 32 L96 38 C84 70 78 109 79 161 C79 169 79 177 80 185 C171 224 292 288 345 331 L345 421 C305 446 262 458 227 458 C183 458 158 437 137 413 C67 354 39 245 39 145 C39 89 47 40 64 -1 L106 -8 C203 27 274 77 311 110 L311 110 Z M187 422 C195 423 204 424 212 424 C248 424 284 412 308 397 L308 347 C260 305 150 250 83 221 C96 313 139 393 187 422 L187 422 Z M220 579 L255 571 L278 663 L237 664 L220 579 Z " />
<glyph glyph-name="Eogonek" unicode="&#x118;" horiz-adv-x="470" d="M43 0 L317 0 C266 -31 216 -83 216 -139 C216 -189 251 -209 298 -209 C322 -209 354 -202 377 -190 L381 -160 C357 -170 329 -177 307 -177 C278 -177 251 -168 251 -130 C251 -79 309 -28 364 0 L381 0 L387 37 L90 37 L133 281 L378 281 L384 318 L139 318 L179 546 L472 546 L478 583 L145 583 L43 0 Z " />
<glyph glyph-name="eogonek" unicode="&#x119;" horiz-adv-x="378" d="M311 110 L294 134 C235 86 164 47 114 32 L96 38 C84 70 78 109 79 161 C79 169 79 177 80 185 C171 224 292 288 345 331 L345 421 C305 446 262 458 227 458 C183 458 158 437 137 413 C67 354 39 245 39 145 C39 89 47 40 64 -1 L99 -7 C62 -41 36 -80 36 -124 C36 -174 70 -197 118 -197 C141 -197 169 -190 192 -178 L196 -147 C172 -158 148 -164 126 -164 C97 -164 73 -153 73 -116 C73 -74 109 -26 157 13 C228 45 281 83 311 110 L311 110 Z M187 422 C195 423 204 424 212 424 C248 424 284 412 308 397 L308 347 C260 305 150 250 83 221 C96 313 139 393 187 422 L187 422 Z " />
<glyph glyph-name="Ecaron" unicode="&#x11a;" horiz-adv-x="470" d="M43 0 L381 0 L387 37 L90 37 L133 281 L378 281 L384 318 L139 318 L179 546 L472 546 L478 583 L145 583 L43 0 Z M336 626 L463 742 L421 742 L330 654 L327 654 L266 742 L226 742 L305 626 L336 626 Z " />
<glyph glyph-name="ecaron" unicode="&#x11b;" horiz-adv-x="377" d="M311 110 L294 134 C235 86 164 47 114 32 L96 38 C84 70 78 109 79 161 C79 169 79 177 80 185 C171 224 292 288 345 331 L345 421 C305 446 262 458 227 458 C183 458 158 437 137 413 C67 354 39 245 39 145 C39 89 47 40 64 -1 L106 -8 C203 27 274 77 311 110 L311 110 Z M187 422 C195 423 204 424 212 424 C248 424 284 412 308 397 L308 347 C260 305 150 250 83 221 C96 313 139 393 187 422 L187 422 Z M256 529 L387 676 L346 676 L247 560 L245 560 L187 676 L148 676 L224 529 L256 529 Z " />
<glyph glyph-name="Gcircumflex" unicode="&#x11c;" horiz-adv-x="562" d="M283 -8 C356 -8 415 11 456 29 L503 294 L461 294 L418 51 C380 38 339 29 292 29 C170 29 101 86 101 225 C101 429 224 553 393 556 C453 556 499 542 540 520 L547 562 C510 580 462 592 399 592 C174 592 54 406 54 222 C54 86 123 -8 283 -8 L283 -8 Z M392 744 L265 628 L307 628 L400 714 L402 714 L461 628 L502 628 L423 744 L392 744 Z " />
<glyph glyph-name="gcircumflex" unicode="&#x11d;" horiz-adv-x="419" d="M111 -213 C145 -213 183 -206 206 -191 C262 -153 291 -64 304 11 L383 458 L345 458 L339 425 C292 447 247 458 222 458 C184 458 163 439 140 413 C77 355 37 207 37 93 C37 59 41 26 46 0 L98 0 L295 173 L274 56 C253 -66 227 -135 195 -163 C166 -173 140 -176 116 -176 C76 -176 43 -165 8 -149 L-3 -188 C33 -205 78 -213 111 -213 L111 -213 Z M81 42 C79 57 77 81 77 105 C77 218 120 369 187 422 L213 422 C249 419 289 408 333 390 L303 220 L95 39 L81 42 Z M283 676 L149 529 L191 529 L290 644 L292 644 L349 529 L388 529 L313 676 L283 676 Z " />
<glyph glyph-name="Gbreve" unicode="&#x11e;" horiz-adv-x="562" d="M283 -8 C356 -8 415 11 456 29 L503 294 L461 294 L418 51 C380 38 339 29 292 29 C170 29 101 86 101 225 C101 429 224 553 393 556 C453 556 499 542 540 520 L547 562 C510 580 462 592 399 592 C174 592 54 406 54 222 C54 86 123 -8 283 -8 L283 -8 Z M399 661 C355 661 337 689 335 725 L304 718 C305 664 340 631 395 631 C453 631 499 660 520 720 L492 726 C479 691 448 661 399 661 L399 661 Z " />
<glyph glyph-name="gbreve" unicode="&#x11f;" horiz-adv-x="419" d="M111 -213 C145 -213 183 -206 206 -191 C262 -153 291 -64 304 11 L383 458 L345 458 L339 425 C292 447 247 458 222 458 C184 458 163 439 140 413 C77 355 37 207 37 93 C37 59 41 26 46 0 L98 0 L295 173 L274 56 C253 -66 227 -135 195 -163 C166 -173 140 -176 116 -176 C76 -176 43 -165 8 -149 L-3 -188 C33 -205 78 -213 111 -213 L111 -213 Z M81 42 C79 57 77 81 77 105 C77 218 120 369 187 422 L213 422 C249 419 289 408 333 390 L303 220 L95 39 L81 42 Z M259 561 C207 561 197 602 196 636 L165 630 C166 576 189 532 254 532 C318 532 360 572 381 631 L353 637 C340 602 316 561 259 561 L259 561 Z " />
<glyph glyph-name="Gdotaccent" unicode="&#x120;" horiz-adv-x="562" d="M283 -8 C356 -8 415 11 456 29 L503 294 L461 294 L418 51 C380 38 339 29 292 29 C170 29 101 86 101 225 C101 429 224 553 393 556 C453 556 499 542 540 520 L547 562 C510 580 462 592 399 592 C174 592 54 406 54 222 C54 86 123 -8 283 -8 L283 -8 Z M367 642 L402 633 L424 723 L383 724 L367 642 Z " />
<glyph glyph-name="gdotaccent" unicode="&#x121;" horiz-adv-x="419" d="M111 -213 C145 -213 183 -206 206 -191 C262 -153 291 -64 304 11 L383 458 L345 458 L339 425 C292 447 247 458 222 458 C184 458 163 439 140 413 C77 355 37 207 37 93 C37 59 41 26 46 0 L98 0 L295 173 L274 56 C253 -66 227 -135 195 -163 C166 -173 140 -176 116 -176 C76 -176 43 -165 8 -149 L-3 -188 C33 -205 78 -213 111 -213 L111 -213 Z M81 42 C79 57 77 81 77 105 C77 218 120 369 187 422 L213 422 C249 419 289 408 333 390 L303 220 L95 39 L81 42 Z M255 579 L290 571 L313 663 L272 664 L255 579 Z " />
<glyph glyph-name="Gcommaaccent" unicode="&#x122;" horiz-adv-x="562" d="M283 -8 C356 -8 415 11 456 29 L503 294 L461 294 L418 51 C380 38 339 29 292 29 C170 29 101 86 101 225 C101 429 224 553 393 556 C453 556 499 542 540 520 L547 562 C510 580 462 592 399 592 C174 592 54 406 54 222 C54 86 123 -8 283 -8 L283 -8 Z M219 -208 L248 -208 L304 -62 L265 -62 L219 -208 Z " />
<glyph glyph-name="gcommaaccent" unicode="&#x123;" horiz-adv-x="419" d="M111 -213 C145 -213 183 -206 206 -191 C262 -153 291 -64 304 11 L383 458 L345 458 L339 425 C292 447 247 458 222 458 C184 458 163 439 140 413 C77 355 37 207 37 93 C37 59 41 26 46 0 L98 0 L295 173 L274 56 C253 -66 227 -135 195 -163 C166 -173 140 -176 116 -176 C76 -176 43 -165 8 -149 L-3 -188 C33 -205 78 -213 111 -213 L111 -213 Z M81 42 C79 57 77 81 77 105 C77 218 120 369 187 422 L213 422 C249 419 289 408 333 390 L303 220 L95 39 L81 42 Z M339 693 L310 693 L254 545 L293 545 L339 693 Z " />
<glyph glyph-name="Hcircumflex" unicode="&#x124;" horiz-adv-x="609" d="M436 0 L478 0 L580 583 L538 583 L492 320 L140 320 L187 583 L145 583 L43 0 L84 0 L134 283 L485 283 L436 0 Z M371 744 L244 628 L286 628 L379 714 L381 714 L440 628 L481 628 L402 744 L371 744 Z " />
<glyph glyph-name="hcircumflex" unicode="&#x125;" horiz-adv-x="447" d="M64 0 L115 293 C194 363 272 414 318 421 L342 415 C347 403 350 387 350 359 C350 332 347 296 338 244 L296 0 L333 0 L377 246 C386 300 391 342 391 374 C391 434 374 458 335 458 C272 458 197 403 123 337 L179 653 L141 653 L27 0 L64 0 Z M177 794 L50 678 L92 678 L185 764 L187 764 L246 678 L287 678 L208 794 L177 794 Z " />
<glyph glyph-name="Hbar" unicode="&#x126;" horiz-adv-x="612" d="M74 463 L125 463 L44 0 L85 0 L135 283 L486 283 L437 0 L479 0 L560 463 L614 463 L620 496 L566 496 L581 583 L539 583 L524 496 L173 496 L188 583 L146 583 L131 496 L81 496 L74 463 Z M167 463 L518 463 L493 320 L141 320 L167 463 Z " />
<glyph glyph-name="hbar" unicode="&#x127;" horiz-adv-x="447" d="M59 533 L120 533 L27 0 L64 0 L115 293 C194 363 272 414 318 421 L342 415 C347 403 350 387 350 359 C350 332 347 296 338 244 L296 0 L333 0 L377 246 C386 300 391 342 391 374 C391 434 374 458 335 458 C272 458 197 403 123 337 L158 533 L329 533 L335 566 L164 566 L179 653 L141 653 L126 566 L65 566 L59 533 Z " />
<glyph glyph-name="Itilde" unicode="&#x128;" horiz-adv-x="216" d="M43 0 L84 0 L186 583 L145 583 L43 0 Z M298 711 C281 691 259 676 236 676 C201 676 170 712 128 712 C101 712 75 697 49 672 L63 652 C87 672 102 681 126 681 C162 681 193 645 232 645 C265 645 291 665 315 693 L298 711 Z " />
<glyph glyph-name="itilde" unicode="&#x129;" horiz-adv-x="181" d="M65 0 L144 450 L105 450 L27 0 L65 0 Z M253 621 C236 602 218 590 195 590 C160 590 140 621 99 621 C71 621 46 605 19 580 L34 560 C57 581 74 589 97 589 C133 589 153 558 192 558 C225 558 245 576 269 603 L253 621 Z " />
<glyph glyph-name="Imacron" unicode="&#x12a;" horiz-adv-x="216" d="M43 0 L84 0 L186 583 L145 583 L43 0 Z M67 668 L285 668 L292 703 L74 703 L67 668 Z " />
<glyph glyph-name="imacron" unicode="&#x12b;" horiz-adv-x="181" d="M65 0 L144 450 L105 450 L27 0 L65 0 Z M38 580 L257 580 L263 616 L45 616 L38 580 Z " />
<glyph glyph-name="Ibreve" unicode="&#x12c;" horiz-adv-x="216" d="M43 0 L84 0 L186 583 L145 583 L43 0 Z M177 662 C133 662 115 690 113 726 L82 719 C83 665 118 632 173 632 C231 632 277 661 298 721 L270 727 C257 692 226 662 177 662 L177 662 Z " />
<glyph glyph-name="ibreve" unicode="&#x12d;" horiz-adv-x="181" d="M65 0 L144 450 L105 450 L27 0 L65 0 Z M141 561 C89 561 79 602 78 636 L47 630 C48 576 71 532 136 532 C200 532 242 572 263 631 L235 637 C222 602 198 561 141 561 L141 561 Z " />
<glyph glyph-name="Iogonek" unicode="&#x12e;" horiz-adv-x="215" d="M85 -190 L89 -160 C65 -170 37 -177 15 -177 C-14 -177 -41 -168 -41 -130 C-41 -79 17 -28 72 0 L84 0 L186 583 L145 583 L45 11 C-12 -18 -76 -76 -76 -139 C-76 -189 -41 -209 6 -209 C30 -209 62 -202 85 -190 L85 -190 Z " />
<glyph glyph-name="iogonek" unicode="&#x12f;" horiz-adv-x="182" d="M65 0 L65 2 C66 2 66 3 67 3 L66 4 L144 450 L105 450 L28 8 C-28 -22 -88 -78 -88 -139 C-88 -189 -53 -209 -6 -209 C18 -209 50 -202 73 -190 L77 -160 C53 -170 25 -177 3 -177 C-26 -177 -53 -168 -53 -130 C-53 -79 5 -28 60 0 L65 0 Z M124 579 L159 571 L182 663 L141 664 L124 579 Z " />
<glyph glyph-name="Idotaccent" unicode="&#x130;" horiz-adv-x="216" d="M152 642 L187 633 L209 723 L168 724 L152 642 Z M43 0 L84 0 L186 583 L145 583 L43 0 Z " />
<glyph glyph-name="dotlessi" unicode="&#x131;" horiz-adv-x="181" d="M65 0 L144 450 L105 450 L27 0 L65 0 Z " />
<glyph glyph-name="IJ" unicode="&#x132;" horiz-adv-x="447" d="M43 0 L84 0 L186 583 L145 583 L43 0 Z M172 -81 C272 6 335 89 351 179 L422 583 L381 583 L310 179 C294 87 217 13 143 -58 L172 -81 Z " />
<glyph glyph-name="ij" unicode="&#x133;" horiz-adv-x="363" d="M64 0 L144 450 L105 450 L27 0 L64 0 Z M160 557 L183 657 L142 658 L125 566 L160 557 Z M206 -10 C197 -62 160 -122 108 -185 L132 -202 C198 -134 234 -65 245 -3 L325 450 L287 450 L206 -10 Z M342 557 L364 657 L323 658 L307 566 L342 557 Z " />
<glyph glyph-name="Jcircumflex" unicode="&#x134;" horiz-adv-x="231" d="M-44 -81 C56 6 119 89 135 179 L206 583 L165 583 L94 179 C78 87 1 13 -73 -58 L-44 -81 Z M196 744 L69 628 L111 628 L204 714 L206 714 L265 628 L306 628 L227 744 L196 744 Z " />
<glyph glyph-name="jcircumflex" unicode="&#x135;" horiz-adv-x="182" d="M152 676 L18 529 L60 529 L159 644 L161 644 L218 529 L257 529 L182 676 L152 676 Z M26 -10 C17 -62 -20 -122 -73 -185 L-49 -202 C18 -134 54 -65 65 -3 L143 450 L105 450 L26 -10 Z " />
<glyph glyph-name="Kcommaaccent" unicode="&#x136;" horiz-adv-x="488" d="M141 -208 L170 -208 L226 -62 L187 -62 L141 -208 Z M369 0 L420 0 L214 304 L529 583 L473 583 L173 313 L171 298 L369 0 Z M43 0 L84 0 L186 583 L145 583 L43 0 Z " />
<glyph glyph-name="kcommaaccent" unicode="&#x137;" horiz-adv-x="401" d="M64 0 L115 292 C173 346 250 406 298 425 L335 418 C331 349 300 279 216 206 L213 189 L278 0 L323 0 L251 195 C327 264 366 318 374 409 C375 420 375 433 375 444 L296 458 C255 442 182 394 123 337 L179 653 L141 653 L27 0 L64 0 Z M90 -208 L119 -208 L175 -62 L136 -62 L90 -208 Z " />
<glyph glyph-name="Lacute" unicode="&#x139;" horiz-adv-x="424" d="M43 0 L371 0 L377 37 L90 37 L186 583 L145 583 L43 0 Z M190 632 L294 742 L251 742 L153 632 L190 632 Z " />
<glyph glyph-name="lacute" unicode="&#x13a;" horiz-adv-x="194" d="M181 686 L285 796 L242 796 L144 686 L181 686 Z M71 0 L186 653 L148 653 L34 0 L71 0 Z " />
<glyph glyph-name="Lcommaaccent" unicode="&#x13b;" horiz-adv-x="424" d="M43 0 L371 0 L377 37 L90 37 L186 583 L145 583 L43 0 Z M146 -208 L175 -208 L231 -62 L192 -62 L146 -208 Z " />
<glyph glyph-name="lcommaaccent" unicode="&#x13c;" horiz-adv-x="194" d="M-21 -208 L8 -208 L64 -62 L25 -62 L-21 -208 Z M71 0 L186 653 L148 653 L34 0 L71 0 Z " />
<glyph glyph-name="Lcaron" unicode="&#x13d;" horiz-adv-x="425" d="M43 0 L371 0 L377 37 L90 37 L186 583 L145 583 L43 0 Z M267 459 L298 459 L360 633 L321 633 L267 459 Z " />
<glyph glyph-name="lcaron" unicode="&#x13e;" horiz-adv-x="198" d="M204 480 L235 480 L297 654 L258 654 L204 480 Z M71 0 L186 653 L148 653 L34 0 L71 0 Z " />
<glyph glyph-name="Ldot" unicode="&#x13f;" horiz-adv-x="439" d="M43 0 L371 0 L377 37 L90 37 L186 583 L145 583 L43 0 Z M308 290 L343 282 L366 374 L325 375 L308 290 Z " />
<glyph glyph-name="ldot" unicode="&#x140;" horiz-adv-x="224" d="M191 280 L226 271 L248 361 L207 362 L191 280 Z M71 0 L186 653 L148 653 L34 0 L71 0 Z " />
<glyph glyph-name="Lslash" unicode="&#x141;" horiz-adv-x="430" d="M15 206 L92 247 L49 0 L377 0 L383 37 L96 37 L137 272 L282 350 L290 390 L144 310 L192 583 L151 583 L99 285 L22 243 L15 206 Z " />
<glyph glyph-name="lslash" unicode="&#x142;" horiz-adv-x="234" d="M16 259 L95 302 L43 0 L80 0 L137 324 L234 376 L241 415 L143 362 L195 653 L157 653 L102 339 L23 296 L16 259 Z " />
<glyph glyph-name="Nacute" unicode="&#x143;" horiz-adv-x="610" d="M365 632 L469 742 L426 742 L328 632 L365 632 Z M43 0 L85 0 L176 517 L178 517 L436 0 L478 0 L581 583 L539 583 L449 72 L446 72 L188 583 L145 583 L43 0 Z " />
<glyph glyph-name="nacute" unicode="&#x144;" horiz-adv-x="447" d="M65 0 L116 294 C194 363 272 414 318 421 L342 415 C346 403 350 387 350 360 C350 333 346 296 337 244 L296 0 L333 0 L377 246 C386 300 391 342 391 374 C391 434 374 458 335 458 C272 458 198 403 124 338 L144 450 L105 450 L27 0 L65 0 Z M262 529 L387 682 L346 682 L227 529 L262 529 Z " />
<glyph glyph-name="Ncommaaccent" unicode="&#x145;" horiz-adv-x="610" d="M206 -208 L235 -208 L291 -62 L252 -62 L206 -208 Z M43 0 L85 0 L176 517 L178 517 L436 0 L478 0 L581 583 L539 583 L449 72 L446 72 L188 583 L145 583 L43 0 Z " />
<glyph glyph-name="ncommaaccent" unicode="&#x146;" horiz-adv-x="447" d="M65 0 L116 294 C194 363 272 414 318 421 L342 415 C346 403 350 387 350 360 C350 333 346 296 337 244 L296 0 L333 0 L377 246 C386 300 391 342 391 374 C391 434 374 458 335 458 C272 458 198 403 124 338 L144 450 L105 450 L27 0 L65 0 Z M115 -208 L144 -208 L200 -62 L161 -62 L115 -208 Z " />
<glyph glyph-name="Ncaron" unicode="&#x147;" horiz-adv-x="610" d="M373 626 L500 742 L458 742 L367 654 L364 654 L303 742 L263 742 L342 626 L373 626 Z M43 0 L85 0 L176 517 L178 517 L436 0 L478 0 L581 583 L539 583 L449 72 L446 72 L188 583 L145 583 L43 0 Z " />
<glyph glyph-name="ncaron" unicode="&#x148;" horiz-adv-x="447" d="M65 0 L116 294 C194 363 272 414 318 421 L342 415 C346 403 350 387 350 360 C350 333 346 296 337 244 L296 0 L333 0 L377 246 C386 300 391 342 391 374 C391 434 374 458 335 458 C272 458 198 403 124 338 L144 450 L105 450 L27 0 L65 0 Z M287 529 L418 676 L377 676 L278 560 L276 560 L218 676 L179 676 L255 529 L287 529 Z " />
<glyph glyph-name="napostrophe" unicode="&#x149;" horiz-adv-x="447" d="M65 0 L116 294 C194 363 272 414 318 421 L342 415 C346 403 350 387 350 360 C350 333 346 296 337 244 L296 0 L333 0 L377 246 C386 300 391 342 391 374 C391 434 374 458 335 458 C272 458 198 403 124 338 L144 450 L105 450 L27 0 L65 0 Z M69 511 C121 556 146 604 153 655 C155 674 153 693 146 710 L114 709 C120 693 123 679 122 662 C116 609 88 567 46 524 L69 511 Z " />
<glyph glyph-name="Eng" unicode="&#x14a;" horiz-adv-x="611" d="M43 0 L85 0 L176 517 L178 517 L429 4 L436 4 L435 -6 C424 -70 398 -117 321 -190 L349 -213 C446 -126 465 -74 478 -1 L581 583 L539 583 L448 64 L446 64 L188 583 L145 583 L43 0 Z " />
<glyph glyph-name="eng" unicode="&#x14b;" horiz-adv-x="447" d="M65 0 L116 294 C194 363 272 414 318 421 L342 415 C346 403 350 387 350 360 C350 333 346 296 337 244 L293 -10 C284 -62 247 -122 195 -185 L218 -202 C285 -134 321 -66 332 -4 L377 246 C386 300 391 342 391 374 C391 434 374 458 335 458 C272 458 198 403 124 338 L144 450 L105 450 L27 0 L65 0 Z " />
<glyph glyph-name="Omacron" unicode="&#x14c;" horiz-adv-x="631" d="M285 668 L503 668 L510 703 L292 703 L285 668 Z M265 -8 C476 -8 590 184 590 364 C590 491 526 592 382 592 C166 592 54 407 54 220 C54 95 120 -8 265 -8 L265 -8 Z M271 29 C161 29 99 99 99 223 C99 399 199 556 374 556 C478 556 545 492 545 365 C545 193 446 29 271 29 L271 29 Z " />
<glyph glyph-name="omacron" unicode="&#x14d;" horiz-adv-x="419" d="M154 580 L373 580 L379 616 L161 616 L154 580 Z M179 26 C156 27 130 32 113 43 C87 77 79 117 79 171 C78 284 139 401 219 426 C249 423 273 418 290 409 C315 384 331 340 331 286 C330 177 268 61 179 26 L179 26 Z M153 -8 C213 -8 268 33 308 88 C347 144 372 216 372 277 C372 413 318 458 249 458 C188 458 135 421 97 365 C60 310 38 236 38 162 C38 47 82 -8 153 -8 L153 -8 Z " />
<glyph glyph-name="Obreve" unicode="&#x14e;" horiz-adv-x="631" d="M383 661 C339 661 321 689 319 725 L288 718 C289 664 324 631 379 631 C437 631 483 660 504 720 L476 726 C463 691 432 661 383 661 L383 661 Z M265 -8 C476 -8 590 184 590 364 C590 491 526 592 382 592 C166 592 54 407 54 220 C54 95 120 -8 265 -8 L265 -8 Z M271 29 C161 29 99 99 99 223 C99 399 199 556 374 556 C478 556 545 492 545 365 C545 193 446 29 271 29 L271 29 Z " />
<glyph glyph-name="obreve" unicode="&#x14f;" horiz-adv-x="419" d="M179 26 C156 27 130 32 113 43 C87 77 79 117 79 171 C78 284 139 401 219 426 C249 423 273 418 290 409 C315 384 331 340 331 286 C330 177 268 61 179 26 L179 26 Z M153 -8 C213 -8 268 33 308 88 C347 144 372 216 372 277 C372 413 318 458 249 458 C188 458 135 421 97 365 C60 310 38 236 38 162 C38 47 82 -8 153 -8 L153 -8 Z M257 561 C205 561 195 602 194 636 L163 630 C164 576 187 532 252 532 C316 532 358 572 379 631 L351 637 C338 602 314 561 257 561 L257 561 Z " />
<glyph glyph-name="Ohungarumlaut" unicode="&#x150;" horiz-adv-x="631" d="M265 -8 C476 -8 590 184 590 364 C590 491 526 592 382 592 C166 592 54 407 54 220 C54 95 120 -8 265 -8 L265 -8 Z M271 29 C161 29 99 99 99 223 C99 399 199 556 374 556 C478 556 545 492 545 365 C545 193 446 29 271 29 L271 29 Z M312 632 L409 742 L366 742 L276 632 L312 632 Z M429 632 L536 742 L493 742 L393 632 L429 632 Z " />
<glyph glyph-name="ohungarumlaut" unicode="&#x151;" horiz-adv-x="419" d="M180 529 L306 682 L264 682 L145 529 L180 529 Z M337 529 L463 682 L421 682 L302 529 L337 529 Z M179 26 C156 27 130 32 113 43 C87 77 79 117 79 171 C78 284 139 401 219 426 C249 423 273 418 290 409 C315 384 331 340 331 286 C330 177 268 61 179 26 L179 26 Z M153 -8 C213 -8 268 33 308 88 C347 144 372 216 372 277 C372 413 318 458 249 458 C188 458 135 421 97 365 C60 310 38 236 38 162 C38 47 82 -8 153 -8 L153 -8 Z " />
<glyph glyph-name="OE" unicode="&#x152;" horiz-adv-x="843" d="M415 0 L753 0 L760 37 L463 37 L506 281 L750 281 L757 318 L512 318 L552 546 L845 546 L851 583 L517 583 L512 556 C479 579 435 592 381 592 C179 592 54 418 54 224 C54 101 122 -8 266 -8 C327 -8 378 8 421 37 L415 0 Z M273 29 C162 29 101 102 101 226 C101 394 195 556 375 556 C430 556 474 540 504 508 L430 86 C386 49 333 29 273 29 L273 29 Z " />
<glyph glyph-name="oe" unicode="&#x153;" horiz-adv-x="660" d="M153 -8 C213 -8 268 33 308 88 L322 109 C325 68 332 31 346 -1 L388 -8 C485 27 556 77 593 110 L576 134 C517 86 446 47 396 32 L378 38 C366 70 360 109 361 161 C361 169 361 177 362 185 C453 224 574 288 627 331 L627 421 C587 446 544 458 509 458 C465 458 440 437 419 413 C397 395 380 372 366 346 C350 428 304 458 249 458 C188 458 135 421 97 365 C60 310 38 236 38 162 C38 47 82 -8 153 -8 L153 -8 Z M179 26 C156 27 130 32 113 43 C87 77 79 117 79 171 C78 284 139 401 219 426 C249 423 273 418 290 409 C315 384 331 340 331 286 C330 177 268 61 179 26 L179 26 Z M469 422 C477 423 486 424 494 424 C530 424 566 412 590 397 L590 347 C542 305 433 251 366 221 C368 231 370 241 371 251 C388 331 426 396 469 422 L469 422 Z " />
<glyph glyph-name="Racute" unicode="&#x154;" horiz-adv-x="511" d="M43 0 L84 0 L126 244 L205 244 C230 244 254 245 276 248 L397 0 L445 0 L318 256 C416 281 475 342 475 445 C475 534 403 583 301 583 L145 583 L43 0 Z M283 546 C384 546 431 511 431 435 C431 299 306 281 205 281 L133 281 L179 546 L283 546 Z M283 632 L387 742 L344 742 L246 632 L283 632 Z " />
<glyph glyph-name="racute" unicode="&#x155;" horiz-adv-x="306" d="M65 0 L114 281 C169 348 228 403 260 422 L301 390 L324 423 C310 440 289 458 269 458 C242 458 180 403 123 333 L144 450 L105 450 L27 0 L65 0 Z M230 529 L355 682 L314 682 L195 529 L230 529 Z " />
<glyph glyph-name="Rcommaaccent" unicode="&#x156;" horiz-adv-x="511" d="M43 0 L84 0 L126 244 L205 244 C230 244 254 245 276 248 L397 0 L445 0 L318 256 C416 281 475 342 475 445 C475 534 403 583 301 583 L145 583 L43 0 Z M283 546 C384 546 431 511 431 435 C431 299 306 281 205 281 L133 281 L179 546 L283 546 Z M146 -208 L175 -208 L231 -62 L192 -62 L146 -208 Z " />
<glyph glyph-name="rcommaaccent" unicode="&#x157;" horiz-adv-x="306" d="M65 0 L114 281 C169 348 228 403 260 422 L301 390 L324 423 C310 440 289 458 269 458 C242 458 180 403 123 333 L144 450 L105 450 L27 0 L65 0 Z M-26 -208 L3 -208 L59 -62 L20 -62 L-26 -208 Z " />
<glyph glyph-name="Rcaron" unicode="&#x158;" horiz-adv-x="511" d="M43 0 L84 0 L126 244 L205 244 C230 244 254 245 276 248 L397 0 L445 0 L318 256 C416 281 475 342 475 445 C475 534 403 583 301 583 L145 583 L43 0 Z M283 546 C384 546 431 511 431 435 C431 299 306 281 205 281 L133 281 L179 546 L283 546 Z M314 626 L441 742 L399 742 L308 654 L305 654 L244 742 L204 742 L283 626 L314 626 Z " />
<glyph glyph-name="rcaron" unicode="&#x159;" horiz-adv-x="306" d="M65 0 L114 281 C169 348 228 403 260 422 L301 390 L324 423 C310 440 289 458 269 458 C242 458 180 403 123 333 L144 450 L105 450 L27 0 L65 0 Z M236 529 L367 676 L326 676 L227 560 L225 560 L167 676 L128 676 L204 529 L236 529 Z " />
<glyph glyph-name="Sacute" unicode="&#x15a;" horiz-adv-x="448" d="M11 21 C61 2 104 -8 158 -8 C275 -8 385 44 385 175 C385 250 312 283 244 316 C178 348 132 376 132 435 C132 506 194 556 289 556 C340 556 381 543 422 523 L433 562 C397 579 347 592 291 592 C187 592 87 535 87 422 C87 352 151 313 216 283 C284 251 342 226 342 163 C342 72 260 29 173 29 C120 29 70 39 23 61 L11 21 Z M294 632 L398 742 L355 742 L257 632 L294 632 Z " />
<glyph glyph-name="sacute" unicode="&#x15b;" horiz-adv-x="340" d="M218 529 L343 682 L302 682 L183 529 L218 529 Z M316 437 C281 455 245 458 218 458 C127 458 63 404 63 337 C63 280 106 243 160 205 C197 179 233 147 237 100 C238 87 232 75 229 67 C211 42 164 27 120 27 C91 27 48 35 11 54 L2 18 C38 -1 79 -8 118 -8 C160 -8 211 6 239 33 C262 54 274 84 274 116 C274 166 226 212 175 246 C131 276 103 309 102 348 C102 364 107 377 115 392 C137 410 175 423 216 422 C250 421 276 414 305 400 L316 437 Z " />
<glyph glyph-name="Scircumflex" unicode="&#x15c;" horiz-adv-x="448" d="M11 21 C61 2 104 -8 158 -8 C275 -8 385 44 385 175 C385 250 312 283 244 316 C178 348 132 376 132 435 C132 506 194 556 289 556 C340 556 381 543 422 523 L433 562 C397 579 347 592 291 592 C187 592 87 535 87 422 C87 352 151 313 216 283 C284 251 342 226 342 163 C342 72 260 29 173 29 C120 29 70 39 23 61 L11 21 Z M298 744 L171 628 L213 628 L306 714 L308 714 L367 628 L408 628 L329 744 L298 744 Z " />
<glyph glyph-name="scircumflex" unicode="&#x15d;" horiz-adv-x="340" d="M241 676 L107 529 L149 529 L248 644 L250 644 L307 529 L346 529 L271 676 L241 676 Z M316 437 C281 455 245 458 218 458 C127 458 63 404 63 337 C63 280 106 243 160 205 C197 179 233 147 237 100 C238 87 232 75 229 67 C211 42 164 27 120 27 C91 27 48 35 11 54 L2 18 C38 -1 79 -8 118 -8 C160 -8 211 6 239 33 C262 54 274 84 274 116 C274 166 226 212 175 246 C131 276 103 309 102 348 C102 364 107 377 115 392 C137 410 175 423 216 422 C250 421 276 414 305 400 L316 437 Z " />
<glyph glyph-name="Scedilla" unicode="&#x15e;" horiz-adv-x="449" d="M133 -213 C215 -213 249 -166 249 -117 C249 -77 210 -51 173 -44 L193 -6 C296 3 385 57 385 175 C385 250 312 283 244 316 C178 348 132 376 132 435 C132 506 194 556 289 556 C340 556 381 543 422 523 L433 562 C397 579 347 592 291 592 C187 592 87 535 87 422 C87 352 151 313 216 283 C284 251 342 226 342 163 C342 72 260 29 173 29 C120 29 70 39 23 61 L11 21 C61 2 104 -8 158 -8 L163 -8 L138 -54 L136 -65 C190 -70 215 -92 215 -120 C215 -162 177 -183 134 -183 C113 -183 80 -173 65 -162 L59 -194 C74 -204 110 -213 133 -213 L133 -213 Z " />
<glyph glyph-name="scedilla" unicode="&#x15f;" horiz-adv-x="341" d="M88 -213 C170 -213 204 -166 204 -117 C204 -77 165 -51 128 -44 L148 -6 C182 -1 217 12 239 33 C262 54 274 84 274 116 C274 166 226 212 175 246 C131 276 103 309 102 348 C102 364 107 377 115 392 C137 410 175 423 216 422 C250 421 276 414 305 400 L316 437 C281 455 245 458 218 458 C127 458 63 404 63 337 C63 280 106 243 160 205 C197 179 233 147 237 100 C238 87 232 75 229 67 C211 42 164 27 120 27 C91 27 48 35 11 54 L2 18 C38 -1 79 -8 118 -8 L93 -54 L91 -65 C145 -70 170 -92 170 -120 C170 -162 132 -183 89 -183 C68 -183 35 -173 20 -162 L14 -194 C29 -204 65 -213 88 -213 L88 -213 Z " />
<glyph glyph-name="Scaron" unicode="&#x160;" horiz-adv-x="448" d="M11 21 C61 2 104 -8 158 -8 C275 -8 385 44 385 175 C385 250 312 283 244 316 C178 348 132 376 132 435 C132 506 194 556 289 556 C340 556 381 543 422 523 L433 562 C397 579 347 592 291 592 C187 592 87 535 87 422 C87 352 151 313 216 283 C284 251 342 226 342 163 C342 72 260 29 173 29 C120 29 70 39 23 61 L11 21 Z M306 626 L433 742 L391 742 L300 654 L297 654 L236 742 L196 742 L275 626 L306 626 Z " />
<glyph glyph-name="scaron" unicode="&#x161;" horiz-adv-x="340" d="M240 529 L371 676 L330 676 L231 560 L229 560 L171 676 L132 676 L208 529 L240 529 Z M316 437 C281 455 245 458 218 458 C127 458 63 404 63 337 C63 280 106 243 160 205 C197 179 233 147 237 100 C238 87 232 75 229 67 C211 42 164 27 120 27 C91 27 48 35 11 54 L2 18 C38 -1 79 -8 118 -8 C160 -8 211 6 239 33 C262 54 274 84 274 116 C274 166 226 212 175 246 C131 276 103 309 102 348 C102 364 107 377 115 392 C137 410 175 423 216 422 C250 421 276 414 305 400 L316 437 Z " />
<glyph glyph-name="Tcommaaccent" unicode="&#x162;" horiz-adv-x="501" d="M63 546 L280 546 L185 0 L227 0 L322 546 L540 546 L546 583 L69 583 L63 546 Z M130 -208 L159 -208 L215 -62 L176 -62 L130 -208 Z " />
<glyph glyph-name="tcommaaccent" unicode="&#x163;" horiz-adv-x="307" d="M50 418 L120 418 L47 5 L94 -8 C163 14 247 78 273 107 L258 132 C227 102 168 60 115 38 L93 47 L158 418 L296 418 L301 450 L163 450 L184 567 L146 567 L125 450 L56 450 L50 418 Z M39 -208 L68 -208 L124 -62 L85 -62 L39 -208 Z " />
<glyph glyph-name="Tcaron" unicode="&#x164;" horiz-adv-x="501" d="M63 546 L280 546 L185 0 L227 0 L322 546 L540 546 L546 583 L69 583 L63 546 Z M327 626 L454 742 L412 742 L321 654 L318 654 L257 742 L217 742 L296 626 L327 626 Z " />
<glyph glyph-name="tcaron" unicode="&#x165;" horiz-adv-x="307" d="M50 418 L120 418 L47 5 L94 -8 C163 14 247 78 273 107 L258 132 C227 102 168 60 115 38 L93 47 L158 418 L296 418 L301 450 L163 450 L184 567 L146 567 L125 450 L56 450 L50 418 Z M224 520 L255 520 L317 694 L278 694 L224 520 Z " />
<glyph glyph-name="Tbar" unicode="&#x166;" horiz-adv-x="501" d="M63 546 L280 546 L239 310 L116 310 L110 276 L233 276 L185 0 L227 0 L275 276 L415 276 L421 310 L281 310 L322 546 L540 546 L546 583 L69 583 L63 546 Z " />
<glyph glyph-name="tbar" unicode="&#x167;" horiz-adv-x="308" d="M51 418 L121 418 L98 290 L48 290 L42 260 L93 260 L48 5 L95 -8 C164 14 248 78 274 107 L259 132 C228 102 169 60 116 38 L94 47 L131 260 L241 260 L246 290 L136 290 L159 418 L297 418 L302 450 L164 450 L185 567 L147 567 L126 450 L57 450 L51 418 Z " />
<glyph glyph-name="Utilde" unicode="&#x168;" horiz-adv-x="595" d="M483 711 C466 691 444 676 421 676 C386 676 355 712 313 712 C286 712 260 697 234 672 L248 652 C272 672 287 681 311 681 C347 681 378 645 417 645 C450 645 476 665 500 693 L483 711 Z M256 -8 C369 -8 482 65 512 238 L573 583 L532 583 L470 234 C446 101 365 29 261 29 C170 29 112 70 112 167 C112 183 114 201 117 221 L181 583 L139 583 L75 216 C71 196 70 177 70 160 C70 36 159 -8 256 -8 L256 -8 Z " />
<glyph glyph-name="utilde" unicode="&#x169;" horiz-adv-x="443" d="M367 450 L315 157 C239 88 158 35 113 30 L91 34 C88 45 86 59 86 82 C86 108 89 146 99 206 L141 450 L103 450 L58 195 C49 143 44 102 44 70 C44 17 59 -8 95 -8 C160 -8 239 50 307 112 L288 0 L326 0 L405 450 L367 450 Z M378 621 C361 602 343 590 320 590 C285 590 265 621 224 621 C196 621 171 605 144 580 L159 560 C182 581 199 589 222 589 C258 589 278 558 317 558 C350 558 370 576 394 603 L378 621 Z " />
<glyph glyph-name="Umacron" unicode="&#x16a;" horiz-adv-x="595" d="M260 668 L478 668 L485 703 L267 703 L260 668 Z M256 -8 C369 -8 482 65 512 238 L573 583 L532 583 L470 234 C446 101 365 29 261 29 C170 29 112 70 112 167 C112 183 114 201 117 221 L181 583 L139 583 L75 216 C71 196 70 177 70 160 C70 36 159 -8 256 -8 L256 -8 Z " />
<glyph glyph-name="umacron" unicode="&#x16b;" horiz-adv-x="443" d="M367 450 L315 157 C239 88 158 35 113 30 L91 34 C88 45 86 59 86 82 C86 108 89 146 99 206 L141 450 L103 450 L58 195 C49 143 44 102 44 70 C44 17 59 -8 95 -8 C160 -8 239 50 307 112 L288 0 L326 0 L405 450 L367 450 Z M168 580 L387 580 L393 616 L175 616 L168 580 Z " />
<glyph glyph-name="Ubreve" unicode="&#x16c;" horiz-adv-x="595" d="M359 662 C315 662 297 690 295 726 L264 719 C265 665 300 632 355 632 C413 632 459 661 480 721 L452 727 C439 692 408 662 359 662 L359 662 Z M256 -8 C369 -8 482 65 512 238 L573 583 L532 583 L470 234 C446 101 365 29 261 29 C170 29 112 70 112 167 C112 183 114 201 117 221 L181 583 L139 583 L75 216 C71 196 70 177 70 160 C70 36 159 -8 256 -8 L256 -8 Z " />
<glyph glyph-name="ubreve" unicode="&#x16d;" horiz-adv-x="443" d="M367 450 L315 157 C239 88 158 35 113 30 L91 34 C88 45 86 59 86 82 C86 108 89 146 99 206 L141 450 L103 450 L58 195 C49 143 44 102 44 70 C44 17 59 -8 95 -8 C160 -8 239 50 307 112 L288 0 L326 0 L405 450 L367 450 Z M272 561 C220 561 210 602 209 636 L178 630 C179 576 202 532 267 532 C331 532 373 572 394 631 L366 637 C353 602 329 561 272 561 L272 561 Z " />
<glyph glyph-name="Uring" unicode="&#x16e;" horiz-adv-x="595" d="M256 -8 C369 -8 482 65 512 238 L573 583 L532 583 L470 234 C446 101 365 29 261 29 C170 29 112 70 112 167 C112 183 114 201 117 221 L181 583 L139 583 L75 216 C71 196 70 177 70 160 C70 36 159 -8 256 -8 L256 -8 Z M373 740 C403 740 422 722 422 692 C422 653 396 629 356 629 C324 629 308 649 308 675 C308 718 339 740 373 740 L373 740 Z M378 764 C330 764 281 734 281 673 C281 633 312 605 352 605 C400 605 450 633 450 696 C450 738 417 764 378 764 L378 764 Z " />
<glyph glyph-name="uring" unicode="&#x16f;" horiz-adv-x="443" d="M367 450 L315 157 C239 88 158 35 113 30 L91 34 C88 45 86 59 86 82 C86 108 89 146 99 206 L141 450 L103 450 L58 195 C49 143 44 102 44 70 C44 17 59 -8 95 -8 C160 -8 239 50 307 112 L288 0 L326 0 L405 450 L367 450 Z M290 683 C243 683 193 654 193 593 C193 552 224 524 264 524 C313 524 363 552 363 615 C363 657 329 683 290 683 L290 683 Z M286 659 C315 659 334 641 334 612 C334 573 308 549 269 549 C237 549 221 568 221 595 C221 637 252 659 286 659 L286 659 Z " />
<glyph glyph-name="Uhungarumlaut" unicode="&#x170;" horiz-adv-x="595" d="M256 -8 C369 -8 482 65 512 238 L573 583 L532 583 L470 234 C446 101 365 29 261 29 C170 29 112 70 112 167 C112 183 114 201 117 221 L181 583 L139 583 L75 216 C71 196 70 177 70 160 C70 36 159 -8 256 -8 L256 -8 Z M302 632 L399 742 L356 742 L266 632 L302 632 Z M419 632 L526 742 L483 742 L383 632 L419 632 Z " />
<glyph glyph-name="uhungarumlaut" unicode="&#x171;" horiz-adv-x="443" d="M367 450 L315 157 C239 88 158 35 113 30 L91 34 C88 45 86 59 86 82 C86 108 89 146 99 206 L141 450 L103 450 L58 195 C49 143 44 102 44 70 C44 17 59 -8 95 -8 C160 -8 239 50 307 112 L288 0 L326 0 L405 450 L367 450 Z M343 529 L469 682 L427 682 L308 529 L343 529 Z M186 529 L312 682 L270 682 L151 529 L186 529 Z " />
<glyph glyph-name="Uogonek" unicode="&#x172;" horiz-adv-x="596" d="M322 -190 L326 -160 C302 -170 274 -177 252 -177 C223 -177 196 -168 196 -130 C196 -81 249 -32 302 -3 C398 14 486 89 512 238 L573 583 L532 583 L470 234 C446 101 365 29 261 29 C170 29 112 70 112 167 C112 183 114 201 117 221 L181 583 L139 583 L75 216 C71 195 69 176 69 159 C69 38 155 -6 250 -8 C203 -40 161 -87 161 -139 C161 -189 196 -209 243 -209 C267 -209 299 -202 322 -190 L322 -190 Z " />
<glyph glyph-name="uogonek" unicode="&#x173;" horiz-adv-x="443" d="M367 450 L315 157 C239 88 158 35 113 30 L91 34 C88 45 86 59 86 82 C86 108 89 146 99 206 L141 450 L103 450 L58 195 C49 143 44 102 44 70 C44 17 59 -8 95 -8 C160 -8 239 50 307 112 L290 12 C231 -16 166 -75 166 -139 C166 -189 201 -209 248 -209 C272 -209 304 -202 327 -190 L331 -160 C307 -170 279 -177 257 -177 C228 -177 201 -168 201 -130 C201 -79 259 -28 314 0 L326 0 L405 450 L367 450 Z " />
<glyph glyph-name="Wcircumflex" unicode="&#x174;" horiz-adv-x="846" d="M876 583 L830 583 L566 54 L563 54 L504 583 L452 583 L191 54 L187 54 L140 583 L91 583 L153 0 L206 0 L462 516 L466 516 L526 0 L579 0 L876 583 Z M492 744 L365 628 L407 628 L500 714 L502 714 L561 628 L602 628 L523 744 L492 744 Z " />
<glyph glyph-name="wcircumflex" unicode="&#x175;" horiz-adv-x="647" d="M610 450 L417 52 L412 52 C380 158 359 267 359 367 C359 395 361 422 365 450 L324 450 C321 424 319 398 319 372 L319 360 L165 52 L160 52 C127 158 106 267 106 367 C106 395 108 422 112 450 L71 450 C68 424 67 398 67 372 C67 246 100 108 137 0 L175 0 L323 292 C333 190 360 85 390 0 L428 0 L652 450 L610 450 Z M367 676 L233 529 L275 529 L374 644 L376 644 L433 529 L472 529 L397 676 L367 676 Z " />
<glyph glyph-name="Ycircumflex" unicode="&#x176;" horiz-adv-x="494" d="M534 583 L485 583 L249 261 L246 261 L119 583 L72 583 L218 222 L179 0 L220 0 L258 215 L534 583 Z M312 744 L185 628 L227 628 L320 714 L322 714 L381 628 L422 628 L343 744 L312 744 Z " />
<glyph glyph-name="ycircumflex" unicode="&#x177;" horiz-adv-x="396" d="M260 676 L126 529 L168 529 L267 644 L269 644 L326 529 L365 529 L290 676 L260 676 Z M87 -207 L212 73 L402 450 L359 450 L166 52 L161 52 C128 158 107 267 107 367 C107 395 109 422 113 450 L72 450 C69 424 68 398 68 372 C68 246 99 108 136 0 L141 0 L40 -200 L45 -207 L87 -207 Z " />
<glyph glyph-name="Ydieresis" unicode="&#x178;" horiz-adv-x="494" d="M534 583 L485 583 L249 261 L246 261 L119 583 L72 583 L218 222 L179 0 L220 0 L258 215 L534 583 Z M209 643 L244 634 L266 723 L225 725 L209 643 Z M373 643 L408 634 L430 723 L390 725 L373 643 Z " />
<glyph glyph-name="Zacute" unicode="&#x179;" horiz-adv-x="467" d="M380 0 L386 38 L54 38 L498 580 L496 583 L102 583 L95 545 L420 545 L-20 3 L-18 0 L380 0 Z M279 632 L383 742 L340 742 L242 632 L279 632 Z " />
<glyph glyph-name="zacute" unicode="&#x17a;" horiz-adv-x="355" d="M209 529 L334 682 L293 682 L174 529 L209 529 Z M61 416 L295 416 L-2 23 L-1 0 L279 0 L284 35 L48 35 L345 424 L345 450 L66 450 L61 416 Z " />
<glyph glyph-name="Zdotaccent" unicode="&#x17b;" horiz-adv-x="467" d="M380 0 L386 38 L54 38 L498 580 L496 583 L102 583 L95 545 L420 545 L-20 3 L-18 0 L380 0 Z M277 641 L312 632 L334 722 L293 723 L277 641 Z " />
<glyph glyph-name="zdotaccent" unicode="&#x17c;" horiz-adv-x="355" d="M61 416 L295 416 L-2 23 L-1 0 L279 0 L284 35 L48 35 L345 424 L345 450 L66 450 L61 416 Z M203 579 L238 571 L261 663 L220 664 L203 579 Z " />
<glyph glyph-name="Zcaron" unicode="&#x17d;" horiz-adv-x="467" d="M380 0 L386 38 L54 38 L498 580 L496 583 L102 583 L95 545 L420 545 L-20 3 L-18 0 L380 0 Z M315 626 L442 742 L400 742 L309 654 L306 654 L245 742 L205 742 L284 626 L315 626 Z " />
<glyph glyph-name="zcaron" unicode="&#x17e;" horiz-adv-x="355" d="M232 529 L363 676 L322 676 L223 560 L221 560 L163 676 L124 676 L200 529 L232 529 Z M61 416 L295 416 L-2 23 L-1 0 L279 0 L284 35 L48 35 L345 424 L345 450 L66 450 L61 416 Z " />
<glyph glyph-name="uni018F" unicode="&#x18f;" horiz-adv-x="592" d="M139 561 L132 518 C196 541 258 553 316 553 C433 553 508 500 508 380 C508 362 507 341 503 319 L60 319 C48 285 40 239 40 201 C40 79 103 -8 237 -8 C442 -8 553 199 553 378 C553 521 467 592 325 592 C266 592 204 583 139 561 L139 561 Z M246 30 C135 30 83 95 83 202 C83 226 86 253 92 281 L496 281 C467 127 365 30 246 30 L246 30 Z " />
<glyph glyph-name="florin" unicode="&#x192;" horiz-adv-x="406" d="M150 32 C136 -57 100 -101 36 -101 C18 -101 1 -99 -17 -95 L-28 -133 C-12 -137 4 -139 23 -139 C113 -139 172 -76 190 31 L224 281 L356 281 L360 315 L228 315 L243 420 C254 510 290 554 355 554 C374 554 390 552 410 548 L419 586 C402 590 385 592 367 592 C275 592 218 529 203 422 L188 315 L77 315 L74 281 L184 281 L150 32 Z " />
<glyph glyph-name="uni01C4" unicode="&#x1c4;" horiz-adv-x="1067" d="M43 0 L171 0 C384 0 558 120 558 352 C558 514 432 583 263 583 L145 583 L43 0 Z M249 546 C404 546 511 494 511 347 C511 143 368 37 177 37 L90 37 L179 546 L249 546 Z M980 0 L986 38 L654 38 L1098 580 L1096 583 L702 583 L695 545 L1020 545 L580 3 L582 0 L980 0 Z M916 626 L1043 742 L1001 742 L910 654 L907 654 L846 742 L806 742 L885 626 L916 626 Z " />
<glyph glyph-name="uni01C5" unicode="&#x1c5;" horiz-adv-x="956" d="M43 0 L171 0 C384 0 558 120 558 352 C558 514 432 583 263 583 L145 583 L43 0 Z M249 546 C404 546 511 494 511 347 C511 143 368 37 177 37 L90 37 L179 546 L249 546 Z M661 416 L895 416 L598 23 L599 0 L879 0 L884 35 L648 35 L945 424 L945 450 L666 450 L661 416 Z M832 529 L963 676 L922 676 L823 560 L821 560 L763 676 L724 676 L800 529 L832 529 Z " />
<glyph glyph-name="uni01C6" unicode="&#x1c6;" horiz-adv-x="775" d="M303 0 L418 653 L379 653 L339 425 C292 447 247 458 222 458 C184 458 163 439 140 413 C77 355 37 207 37 93 C37 59 41 26 46 0 L98 0 L294 173 L264 0 L303 0 Z M81 42 C79 57 77 81 77 105 C77 218 120 369 187 422 C194 422 202 423 209 422 C245 420 287 408 332 390 L302 219 L95 39 L81 42 Z M480 416 L714 416 L417 23 L418 0 L698 0 L703 35 L467 35 L764 424 L764 450 L485 450 L480 416 Z M651 529 L782 676 L741 676 L642 560 L640 560 L582 676 L543 676 L619 529 L651 529 Z " />
<glyph glyph-name="uni01C7" unicode="&#x1c7;" horiz-adv-x="655" d="M43 0 L371 0 L377 37 L90 37 L186 583 L145 583 L43 0 Z M380 -81 C480 6 543 89 559 179 L630 583 L589 583 L518 179 C502 87 425 13 351 -58 L380 -81 Z " />
<glyph glyph-name="uni01C8" unicode="&#x1c8;" horiz-adv-x="606" d="M43 0 L371 0 L377 37 L90 37 L186 583 L145 583 L43 0 Z M449 -10 C440 -62 403 -122 351 -185 L375 -202 C441 -134 477 -65 488 -3 L568 450 L530 450 L449 -10 Z M585 557 L607 657 L566 658 L550 566 L585 557 Z " />
<glyph glyph-name="uni01C9" unicode="&#x1c9;" horiz-adv-x="376" d="M219 -10 C210 -62 173 -122 121 -185 L145 -202 C211 -134 247 -65 258 -3 L338 450 L300 450 L219 -10 Z M355 557 L377 657 L336 658 L320 566 L355 557 Z M71 0 L186 653 L148 653 L34 0 L71 0 Z " />
<glyph glyph-name="uni01CA" unicode="&#x1ca;" horiz-adv-x="841" d="M566 -81 C666 6 729 89 745 179 L816 583 L775 583 L704 179 C688 87 611 13 537 -58 L566 -81 Z M43 0 L85 0 L176 517 L178 517 L436 0 L478 0 L581 583 L539 583 L449 72 L446 72 L188 583 L145 583 L43 0 Z " />
<glyph glyph-name="uni01CB" unicode="&#x1cb;" horiz-adv-x="792" d="M635 -10 C626 -62 589 -122 537 -185 L561 -202 C627 -134 663 -65 674 -3 L754 450 L716 450 L635 -10 Z M771 557 L793 657 L752 658 L736 566 L771 557 Z M43 0 L85 0 L176 517 L178 517 L436 0 L478 0 L581 583 L539 583 L449 72 L446 72 L188 583 L145 583 L43 0 Z " />
<glyph glyph-name="uni01CC" unicode="&#x1cc;" horiz-adv-x="629" d="M65 0 L116 294 C194 363 272 414 318 421 L342 415 C346 403 350 387 350 360 C350 333 346 296 337 244 L296 0 L333 0 L377 246 C386 300 391 342 391 374 C391 434 374 458 335 458 C272 458 198 403 124 338 L144 450 L105 450 L27 0 L65 0 Z M472 -10 C463 -62 426 -122 374 -185 L398 -202 C464 -134 500 -65 511 -3 L591 450 L553 450 L472 -10 Z M608 557 L630 657 L589 658 L573 566 L608 557 Z " />
<glyph glyph-name="uni01D3" unicode="&#x1d3;" horiz-adv-x="595" d="M367 616 L494 732 L452 732 L361 644 L358 644 L297 732 L257 732 L336 616 L367 616 Z M256 -8 C369 -8 482 65 512 238 L573 583 L532 583 L470 234 C446 101 365 29 261 29 C170 29 112 70 112 167 C112 183 114 201 117 221 L181 583 L139 583 L75 216 C71 196 70 177 70 160 C70 36 159 -8 256 -8 L256 -8 Z " />
<glyph glyph-name="uni01D4" unicode="&#x1d4;" horiz-adv-x="443" d="M367 450 L315 157 C239 88 158 35 113 30 L91 34 C88 45 86 59 86 82 C86 108 89 146 99 206 L141 450 L103 450 L58 195 C49 143 44 102 44 70 C44 17 59 -8 95 -8 C160 -8 239 50 307 112 L288 0 L326 0 L405 450 L367 450 Z M280 529 L411 676 L370 676 L271 560 L269 560 L211 676 L172 676 L248 529 L280 529 Z " />
<glyph glyph-name="uni01E2" unicode="&#x1e2;" horiz-adv-x="741" d="M313 0 L651 0 L657 37 L360 37 L403 281 L648 281 L654 318 L409 318 L449 546 L742 546 L748 583 L398 583 L-33 0 L14 0 L157 197 L347 197 L313 0 Z M402 532 L406 532 L354 234 L184 234 L402 532 Z M494 667 L712 667 L719 702 L501 702 L494 667 Z " />
<glyph glyph-name="uni01E3" unicode="&#x1e3;" horiz-adv-x="634" d="M567 110 L551 134 C492 86 420 47 371 32 L352 38 C341 68 336 105 335 156 L335 185 C426 224 549 287 602 331 L602 421 C559 447 518 456 488 456 C476 456 465 454 457 452 C428 442 405 427 385 408 C334 433 256 458 222 458 C184 458 163 439 140 413 C77 355 37 207 37 93 C37 59 41 26 46 0 L98 0 L296 160 L296 145 C296 89 304 40 321 -1 L363 -8 C459 27 530 77 567 110 L567 110 Z M81 42 C79 57 77 81 77 105 C77 218 120 369 187 422 C199 423 212 423 224 421 C270 417 317 399 360 378 C354 370 348 362 343 353 C320 313 305 257 299 202 L95 39 L81 42 Z M444 422 C451 423 459 424 467 424 C504 424 540 413 565 397 L565 347 C516 305 408 250 339 221 C353 313 396 393 444 422 L444 422 Z M281 580 L500 580 L506 616 L288 616 L281 580 Z " />
<glyph glyph-name="uni01F1" unicode="&#x1f1;" horiz-adv-x="1052" d="M43 0 L171 0 C384 0 558 120 558 352 C558 514 432 583 263 583 L145 583 L43 0 Z M249 546 C404 546 511 494 511 347 C511 143 368 37 177 37 L90 37 L179 546 L249 546 Z M965 0 L971 38 L639 38 L1083 580 L1081 583 L687 583 L680 545 L1005 545 L565 3 L567 0 L965 0 Z " />
<glyph glyph-name="uni01F2" unicode="&#x1f2;" horiz-adv-x="956" d="M43 0 L171 0 C384 0 558 120 558 352 C558 514 432 583 263 583 L145 583 L43 0 Z M249 546 C404 546 511 494 511 347 C511 143 368 37 177 37 L90 37 L179 546 L249 546 Z M661 416 L895 416 L598 23 L599 0 L879 0 L884 35 L648 35 L945 424 L945 450 L666 450 L661 416 Z " />
<glyph glyph-name="uni01F3" unicode="&#x1f3;" horiz-adv-x="775" d="M303 0 L418 653 L379 653 L339 425 C292 447 247 458 222 458 C184 458 163 439 140 413 C77 355 37 207 37 93 C37 59 41 26 46 0 L98 0 L294 173 L264 0 L303 0 Z M81 42 C79 57 77 81 77 105 C77 218 120 369 187 422 C194 422 202 423 209 422 C245 420 287 408 332 390 L302 219 L95 39 L81 42 Z M480 416 L714 416 L417 23 L418 0 L698 0 L703 35 L467 35 L764 424 L764 450 L485 450 L480 416 Z " />
<glyph glyph-name="AEacute" unicode="&#x1fc;" horiz-adv-x="741" d="M313 0 L651 0 L657 37 L360 37 L403 281 L648 281 L654 318 L409 318 L449 546 L742 546 L748 583 L398 583 L-33 0 L14 0 L157 197 L347 197 L313 0 Z M402 532 L406 532 L354 234 L184 234 L402 532 Z M565 633 L669 743 L626 743 L528 633 L565 633 Z " />
<glyph glyph-name="aeacute" unicode="&#x1fd;" horiz-adv-x="634" d="M567 110 L551 134 C492 86 420 47 371 32 L352 38 C341 68 336 105 335 156 L335 185 C426 224 549 287 602 331 L602 421 C559 447 518 456 488 456 C476 456 465 454 457 452 C428 442 405 427 385 408 C334 433 256 458 222 458 C184 458 163 439 140 413 C77 355 37 207 37 93 C37 59 41 26 46 0 L98 0 L296 160 L296 145 C296 89 304 40 321 -1 L363 -8 C459 27 530 77 567 110 L567 110 Z M81 42 C79 57 77 81 77 105 C77 218 120 369 187 422 C199 423 212 423 224 421 C270 417 317 399 360 378 C354 370 348 362 343 353 C320 313 305 257 299 202 L95 39 L81 42 Z M444 422 C451 423 459 424 467 424 C504 424 540 413 565 397 L565 347 C516 305 408 250 339 221 C353 313 396 393 444 422 L444 422 Z M387 529 L512 682 L471 682 L352 529 L387 529 Z " />
<glyph glyph-name="Oslashacute" unicode="&#x1fe;" horiz-adv-x="631" d="M265 -8 C476 -8 590 184 590 364 C590 422 576 476 547 516 L617 592 L576 592 L528 539 C494 572 446 592 382 592 C166 592 54 407 54 220 C54 162 68 109 98 68 L28 -8 L69 -8 L118 45 C152 12 201 -8 265 -8 L265 -8 Z M99 223 C99 399 199 556 374 556 C426 556 469 539 499 507 L128 101 C109 132 99 173 99 223 L99 223 Z M271 29 C217 29 175 45 146 76 L517 483 C535 453 545 413 545 365 C545 193 446 29 271 29 L271 29 Z M360 632 L464 742 L421 742 L323 632 L360 632 Z " />
<glyph glyph-name="oslashacute" unicode="&#x1ff;" horiz-adv-x="420" d="M153 -8 C213 -8 268 33 308 88 C347 144 372 216 372 277 C372 326 365 363 353 391 L408 459 L373 459 L338 416 C316 446 284 458 249 458 C188 458 135 421 97 365 C60 310 38 236 38 162 C38 122 43 89 53 64 L-5 -8 L29 -8 L66 38 C86 7 115 -8 153 -8 L153 -8 Z M179 26 C156 27 130 32 113 43 C105 52 99 63 95 73 L322 353 C328 333 331 310 331 286 C330 177 268 61 179 26 L179 26 Z M79 171 C78 284 139 401 219 426 C249 423 273 418 290 409 C297 401 304 392 310 381 L85 104 C80 124 79 146 79 171 L79 171 Z M253 529 L378 682 L337 682 L218 529 L253 529 Z " />
<glyph glyph-name="Scommaaccent" unicode="&#x218;" horiz-adv-x="448" d="M112 -208 L141 -208 L197 -62 L158 -62 L112 -208 Z M11 21 C61 2 104 -8 158 -8 C275 -8 385 44 385 175 C385 250 312 283 244 316 C178 348 132 376 132 435 C132 506 194 556 289 556 C340 556 381 543 422 523 L433 562 C397 579 347 592 291 592 C187 592 87 535 87 422 C87 352 151 313 216 283 C284 251 342 226 342 163 C342 72 260 29 173 29 C120 29 70 39 23 61 L11 21 Z " />
<glyph glyph-name="scommaaccent" unicode="&#x219;" horiz-adv-x="340" d="M53 -208 L82 -208 L138 -62 L99 -62 L53 -208 Z M316 437 C281 455 245 458 218 458 C127 458 63 404 63 337 C63 280 106 243 160 205 C197 179 233 147 237 100 C238 87 232 75 229 67 C211 42 164 27 120 27 C91 27 48 35 11 54 L2 18 C38 -1 79 -8 118 -8 C160 -8 211 6 239 33 C262 54 274 84 274 116 C274 166 226 212 175 246 C131 276 103 309 102 348 C102 364 107 377 115 392 C137 410 175 423 216 422 C250 421 276 414 305 400 L316 437 Z " />
<glyph glyph-name="uni021A" unicode="&#x21a;" horiz-adv-x="501" d="M63 546 L280 546 L185 0 L227 0 L322 546 L540 546 L546 583 L69 583 L63 546 Z M133 -208 L162 -208 L218 -62 L179 -62 L133 -208 Z " />
<glyph glyph-name="uni021B" unicode="&#x21b;" horiz-adv-x="307" d="M50 418 L120 418 L47 5 L94 -8 C163 14 247 78 273 107 L258 132 C227 102 168 60 115 38 L93 47 L158 418 L296 418 L301 450 L163 450 L184 567 L146 567 L125 450 L56 450 L50 418 Z M39 -208 L68 -208 L124 -62 L85 -62 L39 -208 Z " />
<glyph glyph-name="uni0232" unicode="&#x232;" horiz-adv-x="494" d="M534 583 L485 583 L249 261 L246 261 L119 583 L72 583 L218 222 L179 0 L220 0 L258 215 L534 583 Z M202 667 L420 667 L427 702 L209 702 L202 667 Z " />
<glyph glyph-name="uni0233" unicode="&#x233;" horiz-adv-x="396" d="M87 -207 L212 73 L402 450 L359 450 L166 52 L161 52 C128 158 107 267 107 367 C107 395 109 422 113 450 L72 450 C69 424 68 398 68 372 C68 246 99 108 136 0 L141 0 L40 -200 L45 -207 L87 -207 Z M142 580 L361 580 L367 616 L149 616 L142 580 Z " />
<glyph glyph-name="uni0237" unicode="&#x237;" horiz-adv-x="182" d="M26 -10 C17 -62 -20 -122 -73 -185 L-49 -202 C18 -134 54 -65 65 -3 L143 450 L105 450 L26 -10 Z " />
<glyph glyph-name="uni0259" unicode="&#x259;" horiz-adv-x="377" d="M55 341 L72 317 C131 365 202 404 252 419 L270 413 C282 381 288 342 287 290 C287 282 286 273 286 265 C195 226 73 163 21 120 L21 30 C61 5 104 -7 139 -7 C183 -7 208 14 229 38 C299 97 327 206 327 306 C327 362 319 411 302 452 L260 459 C163 424 92 374 55 341 L55 341 Z M179 29 C171 28 162 27 154 27 C118 27 82 39 58 54 L58 104 C106 145 215 200 283 230 C269 137 227 58 179 29 L179 29 Z " />
<glyph glyph-name="circumflex" unicode="&#x2c6;" horiz-adv-x="343" d="M263 676 L129 529 L171 529 L270 644 L272 644 L329 529 L368 529 L293 676 L263 676 Z " />
<glyph glyph-name="caron" unicode="&#x2c7;" horiz-adv-x="408" d="M294 529 L425 676 L384 676 L285 560 L283 560 L225 676 L186 676 L262 529 L294 529 Z " />
<glyph glyph-name="breve" unicode="&#x2d8;" horiz-adv-x="298" d="M229 561 C177 561 167 602 166 636 L135 630 C136 576 159 532 224 532 C288 532 330 572 351 631 L323 637 C310 602 286 561 229 561 L229 561 Z " />
<glyph glyph-name="dotaccent" unicode="&#x2d9;" horiz-adv-x="250" d="M187 579 L222 571 L245 663 L204 664 L187 579 Z " />
<glyph glyph-name="ring" unicode="&#x2da;" horiz-adv-x="287" d="M239 659 C268 659 287 641 287 612 C287 573 261 549 222 549 C190 549 174 568 174 595 C174 637 205 659 239 659 L239 659 Z M243 683 C196 683 146 654 146 593 C146 552 177 524 217 524 C266 524 316 552 316 615 C316 657 282 683 243 683 L243 683 Z " />
<glyph glyph-name="ogonek" unicode="&#x2db;" horiz-adv-x="275" d="M180 -190 L184 -160 C160 -170 132 -177 110 -177 C81 -177 54 -168 54 -130 C54 -77 117 -24 174 3 L162 21 C100 -4 19 -68 19 -139 C19 -189 54 -209 101 -209 C125 -209 157 -202 180 -190 L180 -190 Z " />
<glyph glyph-name="tilde" unicode="&#x2dc;" horiz-adv-x="375" d="M384 621 C367 602 349 590 326 590 C291 590 271 621 230 621 C202 621 177 605 150 580 L165 560 C188 581 205 589 228 589 C264 589 284 558 323 558 C356 558 376 576 400 603 L384 621 Z " />
<glyph glyph-name="hungarumlaut" unicode="&#x2dd;" horiz-adv-x="410" d="M156 529 L282 682 L240 682 L121 529 L156 529 Z M313 529 L439 682 L397 682 L278 529 L313 529 Z " />
<glyph glyph-name="dotbelowcmb" unicode="&#x323;" horiz-adv-x="-37" d="M-310 -186 L-275 -195 L-253 -103 L-294 -101 L-310 -186 Z " />
<glyph glyph-name="uni0394" unicode="&#x394;" horiz-adv-x="501" d="M429 0 L434 32 L344 583 L301 583 L-8 32 L-13 0 L429 0 Z M309 532 L313 532 L389 38 L34 38 L309 532 Z " />
<glyph glyph-name="Sigma" unicode="&#x3a3;" horiz-adv-x="511" d="M0 0 L417 0 L423 40 L57 40 L253 290 L150 545 L494 545 L500 583 L106 583 L100 549 L207 287 L5 31 L0 0 Z " />
<glyph glyph-name="pi" unicode="&#x3c0;" horiz-adv-x="543" d="M432 413 L518 413 L525 450 L68 450 L61 413 L143 413 L71 0 L108 0 L180 413 L395 413 L334 72 C326 22 337 -7 388 -7 C405 -7 428 -2 451 9 L452 34 C430 28 413 27 402 27 C381 27 372 36 372 59 C372 68 373 79 376 92 L432 413 Z " />
<glyph glyph-name="uni1E46" unicode="&#x1e46;" horiz-adv-x="610" d="M216 -186 L251 -195 L273 -103 L232 -101 L216 -186 Z M43 0 L85 0 L176 517 L178 517 L436 0 L478 0 L581 583 L539 583 L449 72 L446 72 L188 583 L145 583 L43 0 Z " />
<glyph glyph-name="uni1E47" unicode="&#x1e47;" horiz-adv-x="447" d="M65 0 L116 294 C194 363 272 414 318 421 L342 415 C346 403 350 387 350 360 C350 333 346 296 337 244 L296 0 L333 0 L377 246 C386 300 391 342 391 374 C391 434 374 458 335 458 C272 458 198 403 124 338 L144 450 L105 450 L27 0 L65 0 Z M140 -186 L175 -195 L197 -103 L156 -101 L140 -186 Z " />
<glyph glyph-name="uni1E62" unicode="&#x1e62;" horiz-adv-x="448" d="M135 -186 L170 -195 L192 -103 L151 -101 L135 -186 Z M11 21 C61 2 104 -8 158 -8 C275 -8 385 44 385 175 C385 250 312 283 244 316 C178 348 132 376 132 435 C132 506 194 556 289 556 C340 556 381 543 422 523 L433 562 C397 579 347 592 291 592 C187 592 87 535 87 422 C87 352 151 313 216 283 C284 251 342 226 342 163 C342 72 260 29 173 29 C120 29 70 39 23 61 L11 21 Z " />
<glyph glyph-name="uni1E63" unicode="&#x1e63;" horiz-adv-x="340" d="M85 -186 L120 -195 L142 -103 L101 -101 L85 -186 Z M316 437 C281 455 245 458 218 458 C127 458 63 404 63 337 C63 280 106 243 160 205 C197 179 233 147 237 100 C238 87 232 75 229 67 C211 42 164 27 120 27 C91 27 48 35 11 54 L2 18 C38 -1 79 -8 118 -8 C160 -8 211 6 239 33 C262 54 274 84 274 116 C274 166 226 212 175 246 C131 276 103 309 102 348 C102 364 107 377 115 392 C137 410 175 423 216 422 C250 421 276 414 305 400 L316 437 Z " />
<glyph glyph-name="Wgrave" unicode="&#x1e80;" horiz-adv-x="846" d="M496 632 L435 742 L393 742 L459 632 L496 632 Z M876 583 L830 583 L566 54 L563 54 L504 583 L452 583 L191 54 L187 54 L140 583 L91 583 L153 0 L206 0 L462 516 L466 516 L526 0 L579 0 L876 583 Z " />
<glyph glyph-name="wgrave" unicode="&#x1e81;" horiz-adv-x="647" d="M610 450 L417 52 L412 52 C380 158 359 267 359 367 C359 395 361 422 365 450 L324 450 C321 424 319 398 319 372 L319 360 L165 52 L160 52 C127 158 106 267 106 367 C106 395 108 422 112 450 L71 450 C68 424 67 398 67 372 C67 246 100 108 137 0 L175 0 L323 292 C333 190 360 85 390 0 L428 0 L652 450 L610 450 Z M363 529 L244 682 L203 682 L328 529 L363 529 Z " />
<glyph glyph-name="Wacute" unicode="&#x1e82;" horiz-adv-x="846" d="M502 627 L606 737 L563 737 L465 627 L502 627 Z M876 583 L830 583 L566 54 L563 54 L504 583 L452 583 L191 54 L187 54 L140 583 L91 583 L153 0 L206 0 L462 516 L466 516 L526 0 L579 0 L876 583 Z " />
<glyph glyph-name="wacute" unicode="&#x1e83;" horiz-adv-x="647" d="M610 450 L417 52 L412 52 C380 158 359 267 359 367 C359 395 361 422 365 450 L324 450 C321 424 319 398 319 372 L319 360 L165 52 L160 52 C127 158 106 267 106 367 C106 395 108 422 112 450 L71 450 C68 424 67 398 67 372 C67 246 100 108 137 0 L175 0 L323 292 C333 190 360 85 390 0 L428 0 L652 450 L610 450 Z M363 529 L488 682 L447 682 L328 529 L363 529 Z " />
<glyph glyph-name="Wdieresis" unicode="&#x1e84;" horiz-adv-x="846" d="M381 643 L416 634 L438 723 L397 725 L381 643 Z M545 643 L580 634 L602 723 L562 725 L545 643 Z M876 583 L830 583 L566 54 L563 54 L504 583 L452 583 L191 54 L187 54 L140 583 L91 583 L153 0 L206 0 L462 516 L466 516 L526 0 L579 0 L876 583 Z " />
<glyph glyph-name="wdieresis" unicode="&#x1e85;" horiz-adv-x="647" d="M610 450 L417 52 L412 52 C380 158 359 267 359 367 C359 395 361 422 365 450 L324 450 C321 424 319 398 319 372 L319 360 L165 52 L160 52 C127 158 106 267 106 367 C106 395 108 422 112 450 L71 450 C68 424 67 398 67 372 C67 246 100 108 137 0 L175 0 L323 292 C333 190 360 85 390 0 L428 0 L652 450 L610 450 Z M419 575 L455 566 L477 656 L437 657 L419 575 Z M255 575 L290 566 L313 656 L272 657 L255 575 Z " />
<glyph glyph-name="uni1EBC" unicode="&#x1ebc;" horiz-adv-x="470" d="M43 0 L381 0 L387 37 L90 37 L133 281 L378 281 L384 318 L139 318 L179 546 L472 546 L478 583 L145 583 L43 0 Z M446 711 C429 691 407 676 384 676 C349 676 318 712 276 712 C249 712 223 697 197 672 L211 652 C235 672 250 681 274 681 C310 681 341 645 380 645 C413 645 439 665 463 693 L446 711 Z " />
<glyph glyph-name="uni1EBD" unicode="&#x1ebd;" horiz-adv-x="377" d="M311 110 L294 134 C235 86 164 47 114 32 L96 38 C84 70 78 109 79 161 C79 169 79 177 80 185 C171 224 292 288 345 331 L345 421 C305 446 262 458 227 458 C183 458 158 437 137 413 C67 354 39 245 39 145 C39 89 47 40 64 -1 L106 -8 C203 27 274 77 311 110 L311 110 Z M187 422 C195 423 204 424 212 424 C248 424 284 412 308 397 L308 347 C260 305 150 250 83 221 C96 313 139 393 187 422 L187 422 Z M357 621 C340 602 322 590 299 590 C264 590 244 621 203 621 C175 621 150 605 123 580 L138 560 C161 581 178 589 201 589 C237 589 257 558 296 558 C329 558 349 576 373 603 L357 621 Z " />
<glyph glyph-name="Ygrave" unicode="&#x1ef2;" horiz-adv-x="494" d="M534 583 L485 583 L249 261 L246 261 L119 583 L72 583 L218 222 L179 0 L220 0 L258 215 L534 583 Z M339 632 L278 742 L236 742 L302 632 L339 632 Z " />
<glyph glyph-name="ygrave" unicode="&#x1ef3;" horiz-adv-x="396" d="M87 -207 L212 73 L402 450 L359 450 L166 52 L161 52 C128 158 107 267 107 367 C107 395 109 422 113 450 L72 450 C69 424 68 398 68 372 C68 246 99 108 136 0 L141 0 L40 -200 L45 -207 L87 -207 Z M281 518 L162 671 L121 671 L246 518 L281 518 Z " />
<glyph glyph-name="uni2004" unicode="&#x2004;" horiz-adv-x="333" d="" />
<glyph glyph-name="uni2007" unicode="&#x2007;" horiz-adv-x="500" d="" />
<glyph glyph-name="uni2009" unicode="&#x2009;" horiz-adv-x="160" d="" />
<glyph glyph-name="uni200A" unicode="&#x200a;" horiz-adv-x="80" d="" />
<glyph glyph-name="uni200B" unicode="&#x200b;" d="" />
<glyph glyph-name="uni2012" unicode="&#x2012;" horiz-adv-x="346" d="M356 246 L356 283 L-10 283 L-10 246 L356 246 Z " />
<glyph glyph-name="endash" unicode="&#x2013;" horiz-adv-x="453" d="M63 229 L379 229 L386 264 L70 264 L63 229 Z " />
<glyph glyph-name="emdash" unicode="&#x2014;" horiz-adv-x="846" d="M63 229 L773 229 L779 264 L70 264 L63 229 Z " />
<glyph glyph-name="quoteleft" unicode="&#x2018;" horiz-adv-x="189" d="M203 667 C146 618 118 565 110 508 C108 487 110 466 118 447 L154 448 C147 466 143 482 145 500 C151 559 182 606 229 653 L203 667 Z " />
<glyph glyph-name="quoteright" unicode="&#x2019;" horiz-adv-x="207" d="M121 451 C178 500 206 553 214 610 C216 631 214 652 206 671 L170 670 C177 652 181 636 179 618 C173 559 142 512 95 465 L121 451 Z " />
<glyph glyph-name="quotesinglbase" unicode="&#x201a;" horiz-adv-x="194" d="M-9 -131 C49 -81 77 -28 86 29 C87 50 86 72 77 91 L41 90 C48 72 52 55 50 37 C44 -23 13 -70 -34 -117 L-9 -131 Z " />
<glyph glyph-name="quotedblleft" unicode="&#x201c;" horiz-adv-x="349" d="M203 667 C146 618 118 565 110 508 C108 487 110 466 118 447 L154 448 C147 466 143 482 145 500 C151 559 182 606 229 653 L203 667 Z M363 667 C306 618 278 565 270 508 C268 487 270 466 278 447 L314 448 C307 466 303 482 305 500 C311 559 342 606 389 653 L363 667 Z " />
<glyph glyph-name="quotedblright" unicode="&#x201d;" horiz-adv-x="371" d="M118 442 C175 491 203 544 211 601 C213 622 211 643 203 662 L167 661 C174 643 178 627 176 609 C170 550 139 503 92 456 L118 442 Z M282 442 C339 491 367 544 375 601 C377 622 375 643 367 662 L331 661 C338 643 342 627 340 609 C334 550 303 503 256 456 L282 442 Z " />
<glyph glyph-name="quotedblbase" unicode="&#x201e;" horiz-adv-x="356" d="M-9 -131 C49 -81 77 -28 86 29 C87 50 86 72 77 91 L41 90 C48 72 52 55 50 37 C44 -23 13 -70 -34 -117 L-9 -131 Z M153 -131 C211 -81 239 -28 248 29 C249 50 248 72 239 91 L203 90 C210 72 214 55 212 37 C206 -23 175 -70 128 -117 L153 -131 Z " />
<glyph glyph-name="dagger" unicode="&#x2020;" horiz-adv-x="494" d="M65 413 L255 413 L183 0 L218 0 L290 413 L483 413 L489 448 L296 448 L332 653 L297 653 L261 448 L71 448 L65 413 Z " />
<glyph glyph-name="daggerdbl" unicode="&#x2021;" horiz-adv-x="534" d="M84 403 L274 403 L244 236 L55 236 L49 201 L238 201 L203 0 L238 0 L273 201 L467 201 L473 236 L279 236 L309 403 L502 403 L509 439 L315 439 L353 653 L318 653 L280 439 L91 439 L84 403 Z " />
<glyph glyph-name="bullet" unicode="&#x2022;" horiz-adv-x="400" d="M189 167 C264 167 330 221 330 305 C330 366 292 424 222 424 C145 424 82 367 82 283 C82 223 122 167 189 167 L189 167 Z " />
<glyph glyph-name="ellipsis" unicode="&#x2026;" horiz-adv-x="606" d="M25 -3 L64 -8 L92 111 L47 113 L25 -3 Z M236 -3 L275 -8 L303 111 L258 113 L236 -3 Z M444 -3 L483 -8 L511 111 L466 113 L444 -3 Z " />
<glyph glyph-name="perthousand" unicode="&#x2030;" horiz-adv-x="972" d="M171 288 C251 288 323 351 323 474 C323 547 281 592 222 592 C142 592 70 525 70 404 C70 331 111 288 171 288 L171 288 Z M302 222 L149 12 L147 0 L184 0 L336 222 L302 222 Z M491 21 C441 21 419 60 419 114 C419 207 470 267 531 267 C579 267 603 231 603 175 C603 80 557 21 491 21 L491 21 Z M430 369 L577 571 L580 583 L543 583 L396 369 L430 369 Z M177 317 C127 317 104 355 104 409 C104 509 157 562 218 562 C264 562 289 528 289 471 C289 377 243 317 177 317 L177 317 Z M486 -8 C565 -8 638 55 638 178 C638 251 596 296 536 296 C458 296 384 227 384 110 C384 36 427 -8 486 -8 L486 -8 Z M777 21 C727 21 705 60 705 114 C705 207 756 267 817 267 C865 267 889 231 889 175 C889 80 843 21 777 21 L777 21 Z M772 -8 C851 -8 924 55 924 178 C924 251 882 296 822 296 C744 296 670 227 670 110 C670 36 713 -8 772 -8 L772 -8 Z " />
<glyph glyph-name="guilsinglleft" unicode="&#x2039;" horiz-adv-x="241" d="M111 46 L147 46 L92 226 L210 405 L173 405 L45 226 L111 46 Z " />
<glyph glyph-name="guilsinglright" unicode="&#x203a;" horiz-adv-x="241" d="M119 408 L83 408 L138 228 L20 49 L57 49 L185 228 L119 408 Z " />
<glyph glyph-name="uni203D" unicode="&#x203d;" horiz-adv-x="320" d="M118 300 L111 172 L142 174 L154 272 C175 292 214 332 227 345 C268 388 314 430 314 460 C314 506 230 578 109 594 L99 559 C172 546 255 508 281 460 C256 421 199 368 159 323 L169 444 L130 441 L118 300 Z M71 -3 L111 -8 L138 111 L94 113 L71 -3 Z " />
<glyph glyph-name="fraction" unicode="&#x2044;" horiz-adv-x="149" d="M-127 0 L312 564 L312 568 L281 568 L-157 3 L-157 0 L-127 0 Z " />
<glyph glyph-name="zerosuperior" unicode="&#x2070;" horiz-adv-x="277" d="M304 603 C304 659 286 712 218 712 C125 712 87 620 80 534 C79 523 78 511 78 501 C78 436 107 396 162 396 C258 396 295 491 302 574 C303 583 304 593 304 603 L304 603 Z M166 421 C127 421 109 447 109 505 C109 515 109 526 110 536 C116 614 148 686 213 686 C257 686 272 661 272 600 C272 590 271 579 270 569 C264 495 234 421 166 421 L166 421 Z " />
<glyph glyph-name="i.superior" unicode="&#x2071;" horiz-adv-x="127" d="M103 400 L159 706 L129 706 L73 400 L103 400 Z M171 779 L188 846 L156 847 L144 785 L171 779 Z " />
<glyph glyph-name="foursuperior" unicode="&#x2074;" horiz-adv-x="254" d="M283 494 L286 518 L232 518 L267 712 L236 712 L57 519 L54 494 L199 494 L182 400 L211 400 L228 494 L283 494 Z M86 518 L231 673 L203 518 L86 518 Z " />
<glyph glyph-name="fivesuperior" unicode="&#x2075;" horiz-adv-x="235" d="M58 409 C74 403 105 396 135 396 C209 396 251 451 251 508 C251 552 225 583 189 594 C165 594 136 586 118 576 L147 679 L272 679 L276 707 L127 707 L85 552 L98 549 C122 560 151 566 181 570 C203 559 220 539 220 504 C220 450 185 421 138 421 C110 421 84 426 62 436 L58 409 Z " />
<glyph glyph-name="sixsuperior" unicode="&#x2076;" horiz-adv-x="250" d="M289 704 C271 709 255 712 236 712 C145 712 74 605 74 508 C74 438 113 396 153 396 C201 396 269 449 269 509 C269 551 254 580 220 595 C188 595 143 578 108 555 C116 591 133 622 154 646 C176 671 203 686 229 686 C249 686 261 686 284 678 L289 704 Z M210 571 C234 553 239 538 239 507 C239 458 196 425 159 419 C127 426 104 454 104 512 C104 518 104 524 105 530 C138 552 186 571 210 571 L210 571 Z " />
<glyph glyph-name="sevensuperior" unicode="&#x2077;" horiz-adv-x="200" d="M79 680 L234 680 L73 404 L76 400 L100 400 L270 696 L264 707 L83 707 L79 680 Z " />
<glyph glyph-name="eightsuperior" unicode="&#x2078;" horiz-adv-x="260" d="M293 645 C293 676 257 712 205 712 C153 712 104 669 104 633 C104 613 132 586 164 559 C109 540 63 505 63 467 C63 440 95 396 153 396 C221 396 271 429 271 480 C271 501 238 531 205 561 C250 582 293 621 293 645 L293 645 Z M244 473 C236 447 214 421 157 421 C121 421 98 444 88 469 C100 502 129 529 176 549 C210 520 243 492 244 473 L244 473 Z M130 640 C139 658 161 687 200 687 C238 687 258 668 264 642 C256 620 232 593 191 573 C160 599 132 624 130 640 L130 640 Z " />
<glyph glyph-name="ninesuperior" unicode="&#x2079;" horiz-adv-x="250" d="M66 403 C84 398 100 395 119 395 C210 395 281 502 281 599 C281 669 242 711 202 711 C154 711 86 658 86 598 C86 556 101 527 135 512 C166 512 211 529 246 551 C238 516 222 484 201 461 C179 436 152 421 126 421 C106 421 94 421 71 429 L66 403 Z M145 536 C121 554 116 569 116 600 C116 649 159 682 196 688 C228 681 251 653 251 595 C251 588 250 582 250 576 C216 555 168 536 145 536 L145 536 Z " />
<glyph glyph-name="plussuperior" unicode="&#x207a;" horiz-adv-x="318" d="M67 538 L193 538 L171 409 L198 409 L220 538 L350 538 L355 565 L225 565 L248 693 L221 693 L198 565 L72 565 L67 538 Z " />
<glyph glyph-name="minussuperior" unicode="&#x207b;" horiz-adv-x="361" d="M88 538 L371 538 L376 565 L93 565 L88 538 Z " />
<glyph glyph-name="equalsuperior" unicode="&#x207c;" horiz-adv-x="340" d="M78 474 L339 474 L344 503 L83 503 L78 474 Z M101 601 L362 601 L367 630 L106 630 L101 601 Z " />
<glyph glyph-name="parenleftsuperior" unicode="&#x207d;" horiz-adv-x="149" d="M158 305 C145 324 104 401 104 506 C104 698 223 817 250 837 L216 837 C191 819 72 706 72 501 C72 389 113 325 127 305 L158 305 Z " />
<glyph glyph-name="parenrightsuperior" unicode="&#x207e;" horiz-adv-x="149" d="M103 837 C116 817 157 749 157 644 C157 452 36 325 10 305 L44 305 C68 322 188 445 188 647 C188 761 148 816 133 837 L103 837 Z " />
<glyph glyph-name="n.superior" unicode="&#x207f;" horiz-adv-x="315" d="M103 400 L139 598 C195 646 250 679 283 683 L300 679 C303 672 305 663 305 648 C305 631 302 605 295 566 L265 400 L295 400 L326 567 C333 604 337 632 337 654 C337 695 324 711 295 711 C250 711 198 674 145 630 L159 706 L129 706 L73 400 L103 400 Z " />
<glyph glyph-name="zeroinferior" unicode="&#x2080;" horiz-adv-x="278" d="M234 203 C234 259 216 312 148 312 C55 312 17 220 10 134 C9 123 8 111 8 101 C8 36 37 -4 92 -4 C188 -4 225 91 232 174 C233 183 234 193 234 203 L234 203 Z M96 21 C57 21 39 47 39 105 C39 115 39 126 40 136 C46 214 78 286 143 286 C187 286 202 261 202 200 C202 190 201 179 200 169 C194 95 164 21 96 21 L96 21 Z " />
<glyph glyph-name="oneinferior" unicode="&#x2081;" horiz-adv-x="159" d="M65 0 L121 312 L102 312 L10 281 L6 255 L87 280 L36 0 L65 0 Z " />
<glyph glyph-name="twoinferior" unicode="&#x2082;" horiz-adv-x="233" d="M174 0 L179 26 L25 26 C108 90 195 184 195 249 C195 280 159 312 112 312 C82 312 53 304 22 283 L20 256 C50 276 76 286 104 286 C140 286 156 266 166 247 C158 184 80 93 -10 22 L-14 0 L174 0 Z " />
<glyph glyph-name="threeinferior" unicode="&#x2083;" horiz-adv-x="241" d="M-17 10 C-3 3 16 -4 55 -4 C124 -4 186 37 186 88 C186 120 133 150 100 162 L100 164 C138 178 198 223 198 251 C198 289 161 312 116 312 C82 312 50 302 26 287 L27 262 C53 277 81 286 106 286 C145 286 162 275 171 246 C156 219 109 184 65 172 L62 152 C107 139 148 113 159 87 C154 39 102 21 59 21 C36 21 16 24 -12 38 L-17 10 Z " />
<glyph glyph-name="fourinferior" unicode="&#x2084;" horiz-adv-x="254" d="M212 94 L215 118 L161 118 L196 312 L165 312 L-14 119 L-17 94 L128 94 L111 0 L140 0 L157 94 L212 94 Z M15 118 L160 273 L132 118 L15 118 Z " />
<glyph glyph-name="fiveinferior" unicode="&#x2085;" horiz-adv-x="235" d="M-12 9 C4 3 35 -4 65 -4 C139 -4 181 51 181 108 C181 152 155 183 119 194 C95 194 66 186 48 176 L77 279 L202 279 L206 307 L57 307 L15 152 L28 149 C52 160 81 166 111 170 C133 159 150 139 150 104 C150 50 115 21 68 21 C40 21 14 26 -8 36 L-12 9 Z " />
<glyph glyph-name="sixinferior" unicode="&#x2086;" horiz-adv-x="250" d="M219 304 C201 309 185 312 166 312 C75 312 4 205 4 108 C4 38 43 -4 83 -4 C131 -4 199 49 199 109 C199 151 184 180 150 195 C118 195 73 178 38 155 C46 191 63 222 84 246 C106 271 133 286 159 286 C179 286 191 286 214 278 L219 304 Z M140 171 C164 153 169 138 169 107 C169 58 126 25 89 19 C57 26 34 54 34 112 C34 118 34 124 35 130 C68 152 116 171 140 171 L140 171 Z " />
<glyph glyph-name="seveninferior" unicode="&#x2087;" horiz-adv-x="200" d="M9 280 L164 280 L3 4 L6 0 L30 0 L200 296 L194 307 L13 307 L9 280 Z " />
<glyph glyph-name="eightinferior" unicode="&#x2088;" horiz-adv-x="260" d="M223 245 C223 276 187 312 135 312 C83 312 34 269 34 233 C34 213 62 186 94 159 C39 140 -7 105 -7 67 C-7 40 25 -4 83 -4 C151 -4 201 29 201 80 C201 101 168 131 135 161 C180 182 223 221 223 245 L223 245 Z M174 73 C166 47 144 21 87 21 C51 21 28 44 18 69 C30 102 59 129 106 149 C140 120 173 92 174 73 L174 73 Z M60 240 C69 258 91 287 130 287 C168 287 188 268 194 242 C186 220 162 193 121 173 C90 199 62 224 60 240 L60 240 Z " />
<glyph glyph-name="nineinferior" unicode="&#x2089;" horiz-adv-x="250" d="M-5 3 C13 -2 29 -5 48 -5 C139 -5 210 102 210 199 C210 269 171 311 131 311 C83 311 15 258 15 198 C15 156 30 127 64 112 C95 112 140 129 175 151 C167 116 151 84 130 61 C108 36 81 21 55 21 C35 21 23 21 0 29 L-5 3 Z M74 136 C50 154 45 169 45 200 C45 249 88 282 125 288 C157 281 180 253 180 195 C180 188 179 182 179 176 C145 155 97 136 74 136 L74 136 Z " />
<glyph glyph-name="plus.inferior" unicode="&#x208a;" horiz-adv-x="318" d="M-3 138 L123 138 L101 9 L128 9 L150 138 L280 138 L285 165 L155 165 L178 293 L151 293 L128 165 L2 165 L-3 138 Z " />
<glyph glyph-name="minus.inferior" unicode="&#x208b;" horiz-adv-x="362" d="M19 138 L302 138 L307 165 L24 165 L19 138 Z " />
<glyph glyph-name="equal.inferior" unicode="&#x208c;" horiz-adv-x="341" d="M8 74 L269 74 L274 103 L13 103 L8 74 Z M31 201 L292 201 L297 230 L36 230 L31 201 Z " />
<glyph glyph-name="parenleft.inferior" unicode="&#x208d;" horiz-adv-x="150" d="M88 -95 C75 -76 34 1 34 106 C34 298 153 417 180 437 L146 437 C121 419 2 306 2 101 C2 -11 43 -75 57 -95 L88 -95 Z " />
<glyph glyph-name="parenright.inferior" unicode="&#x208e;" horiz-adv-x="149" d="M33 437 C46 417 87 349 87 244 C87 52 -34 -75 -60 -95 L-26 -95 C-2 -78 118 45 118 247 C118 361 78 416 63 437 L33 437 Z " />
<glyph glyph-name="a.inferior" unicode="&#x2090;" horiz-adv-x="299" d="M204 0 L261 311 L231 311 L227 289 C193 304 162 311 144 311 C116 311 98 298 82 281 C37 241 8 141 8 63 C8 40 11 18 15 0 L54 0 L195 118 L174 0 L204 0 Z M42 31 C41 42 39 56 39 73 C39 150 70 248 119 284 C149 286 184 277 222 262 L201 152 L53 30 L42 31 Z " />
<glyph glyph-name="e.inferior" unicode="&#x2091;" horiz-adv-x="264" d="M206 75 L194 94 C152 62 101 35 65 25 L52 27 C44 51 39 80 40 116 L40 123 C105 149 195 195 234 224 L234 286 C205 303 171 311 146 311 C125 311 110 307 99 299 C73 283 56 264 43 240 C20 203 9 148 9 99 C9 61 15 27 27 -1 L59 -5 C129 18 179 52 206 75 L206 75 Z M118 284 C149 289 182 280 204 267 L204 236 C169 208 91 169 42 149 C51 212 83 264 118 284 L118 284 Z " />
<glyph glyph-name="o.inferior" unicode="&#x2092;" horiz-adv-x="287" d="M107 18 C91 19 75 22 63 29 C44 53 38 81 38 118 C38 195 79 272 136 289 C157 287 172 284 184 278 C201 261 214 231 214 194 C213 120 171 42 107 18 L107 18 Z M89 -5 C135 -5 173 23 202 60 C229 98 246 147 246 188 C246 281 207 311 158 311 C113 311 75 286 48 248 C22 210 6 160 6 110 C6 32 39 -5 89 -5 L89 -5 Z " />
<glyph glyph-name="x.inferior" unicode="&#x2093;" horiz-adv-x="268" d="M234 306 L119 174 L61 306 L30 306 L99 152 L-35 0 L0 0 L110 128 L165 0 L198 0 L129 150 L270 306 L234 306 Z " />
<glyph glyph-name="h.inferior" unicode="&#x2095;" horiz-adv-x="316" d="M32 0 L68 197 C124 245 179 279 213 283 L230 279 C233 272 235 263 235 249 C235 232 232 206 225 166 L196 0 L225 0 L256 167 C263 204 267 233 267 255 C267 295 254 311 226 311 C180 311 127 274 74 229 L121 478 L91 478 L3 0 L32 0 Z " />
<glyph glyph-name="k.inferior" unicode="&#x2096;" horiz-adv-x="284" d="M32 0 L69 198 C110 235 167 275 201 287 L223 282 C220 235 198 189 138 140 L135 129 L182 0 L216 0 L165 132 C221 180 249 217 253 281 C254 287 254 295 254 302 L197 311 C168 300 117 268 75 230 L121 478 L91 478 L2 0 L32 0 Z " />
<glyph glyph-name="l.inferior" unicode="&#x2097;" horiz-adv-x="135" d="M36 0 L125 478 L95 478 L6 0 L36 0 Z " />
<glyph glyph-name="m.inferior" unicode="&#x2098;" horiz-adv-x="477" d="M356 0 L385 0 L417 167 C423 198 426 225 426 246 C426 289 413 311 384 311 C342 311 300 278 252 234 C254 285 241 311 210 311 C167 311 124 277 75 231 L89 306 L59 306 L3 0 L33 0 L69 198 C122 246 169 278 199 283 L214 279 C218 271 221 260 221 241 C221 224 218 200 212 166 L182 0 L211 0 L243 167 L249 203 C300 249 342 278 372 283 L389 279 C392 271 395 260 395 242 C395 225 392 201 386 166 L356 0 Z " />
<glyph glyph-name="n.inferior" unicode="&#x2099;" horiz-adv-x="317" d="M33 0 L69 198 C125 246 180 279 213 283 L230 279 C233 272 235 263 235 248 C235 231 232 205 225 166 L195 0 L225 0 L256 167 C263 204 267 232 267 254 C267 295 254 311 225 311 C180 311 128 274 75 230 L89 306 L59 306 L3 0 L33 0 Z " />
<glyph glyph-name="p.inferior" unicode="&#x209a;" horiz-adv-x="319" d="M28 -141 L55 3 C76 -3 98 -5 122 -5 C213 -5 276 87 276 186 C276 249 257 311 208 311 C188 311 146 293 104 271 L111 306 L81 306 L71 253 C46 238 22 223 5 210 L11 187 C24 197 44 210 66 224 L-1 -141 L28 -141 Z M195 285 L208 285 C231 269 244 235 244 185 C244 88 187 19 132 19 C102 19 81 22 60 29 L99 243 C135 263 172 280 195 285 L195 285 Z " />
<glyph glyph-name="s.inferior" unicode="&#x209b;" horiz-adv-x="233" d="M206 297 C181 309 156 311 137 311 C71 311 26 274 26 230 C26 190 56 163 95 137 C122 120 145 99 148 67 C148 59 145 50 142 46 C130 29 98 21 67 21 C46 21 15 26 -11 39 L-17 12 C8 -1 37 -5 65 -5 C95 -5 132 4 152 22 C169 37 177 57 177 79 C177 112 144 142 106 167 C74 188 56 211 57 237 C57 247 60 256 66 267 C82 279 107 286 136 285 C160 284 179 279 199 269 L206 297 Z " />
<glyph glyph-name="t.inferior" unicode="&#x209c;" horiz-adv-x="227" d="M21 284 L68 284 L16 3 L52 -5 C101 10 162 53 180 73 L169 92 C147 73 105 44 67 30 L52 35 L98 284 L196 284 L200 306 L102 306 L117 386 L87 386 L72 306 L24 306 L21 284 Z " />
<glyph glyph-name="colonsign" unicode="&#x20a1;" horiz-adv-x="605" d="M168 -92 L204 -92 L255 -5 C268 -7 282 -8 297 -8 C374 -8 447 12 478 29 L485 69 C432 41 368 30 307 30 C297 30 287 30 277 31 L645 649 L609 649 L549 548 C533 555 513 563 485 569 L533 649 L497 649 L452 574 C436 576 417 577 395 577 C191 577 56 420 56 227 C56 150 83 84 136 42 L56 -92 L92 -92 L161 24 C179 14 200 6 223 0 L168 -92 Z M101 234 C101 434 240 539 386 539 C401 539 416 538 430 537 L158 80 C121 114 101 165 101 234 L101 234 Z M183 61 L463 532 C485 528 506 521 527 512 L244 36 C222 41 201 50 183 61 L183 61 Z " />
<glyph glyph-name="cruzeiro" unicode="&#x20a2;" horiz-adv-x="581" d="M521 307 C508 325 486 342 466 342 C439 342 376 287 320 217 L341 334 L303 334 L250 35 C159 53 102 117 102 228 C102 434 241 539 387 539 C442 539 498 531 550 501 L558 545 C530 557 487 577 396 577 C187 577 57 417 57 229 C57 88 146 -8 298 -8 C374 -8 440 12 470 29 L477 69 C424 41 369 30 308 30 L287 30 L311 165 C366 232 424 283 457 302 L498 270 L521 307 Z " />
<glyph glyph-name="franc" unicode="&#x20a3;" horiz-adv-x="629" d="M42 0 L85 0 L135 283 L376 283 L326 0 L363 0 L390 150 C445 218 503 270 536 289 L577 257 L601 294 C588 311 566 329 546 329 C519 329 456 273 399 203 L421 321 L141 321 L179 534 L474 534 L480 572 L143 572 L42 0 Z " />
<glyph glyph-name="lira" unicode="&#x20a4;" horiz-adv-x="504" d="M334 577 C240 577 132 526 122 377 C121 368 120 358 120 348 L78 348 L71 314 L120 314 C121 282 124 250 124 223 L56 223 L49 188 L123 188 L123 185 C120 132 100 88 59 36 L22 36 L16 0 L410 0 L416 36 L103 36 C133 78 154 121 163 167 C164 174 165 180 165 188 L364 188 L371 223 L167 223 C167 253 164 284 163 314 L387 314 L394 348 L162 348 C162 360 162 372 163 383 C167 480 233 539 328 539 C387 539 428 526 466 496 L474 544 C440 564 397 577 334 577 L334 577 Z " />
<glyph glyph-name="mill" unicode="&#x20a5;" horiz-adv-x="652" d="M307 0 L337 170 L433 366 C473 397 507 416 534 420 L556 414 C560 402 564 387 564 360 C564 334 560 296 551 244 L510 0 L547 0 L591 246 C600 294 604 334 604 366 C604 427 587 458 547 458 C519 458 491 447 463 428 L534 574 L498 574 L404 382 L363 344 C367 419 351 458 307 458 C248 458 187 406 119 340 L138 450 L99 450 L21 0 L59 0 L111 295 C185 366 251 414 293 420 L316 414 C320 402 323 386 323 360 C323 333 320 296 311 244 L296 160 L160 -120 L196 -120 L277 46 L269 0 L307 0 Z M360 303 C364 306 367 310 371 314 L357 285 L360 303 Z " />
<glyph glyph-name="naira" unicode="&#x20a6;" horiz-adv-x="670" d="M74 0 L117 0 L157 224 L346 224 L459 0 L504 0 L544 224 L614 224 L620 258 L550 258 L564 339 L635 339 L641 373 L570 373 L605 568 L563 568 L527 373 L319 373 L220 568 L176 568 L140 373 L72 373 L66 339 L134 339 L120 258 L52 258 L46 224 L114 224 L74 0 Z M337 339 L521 339 L507 258 L378 258 L337 339 Z M178 339 L289 339 L329 258 L163 258 L178 339 Z M473 73 L396 224 L501 224 L474 73 L473 73 Z M207 500 L208 500 L272 373 L184 373 L207 500 Z " />
<glyph glyph-name="pesetas" unicode="&#x20a7;" horiz-adv-x="1045" d="M43 0 L84 0 L122 220 L200 220 C367 220 472 293 472 435 C472 527 398 583 299 583 L145 583 L43 0 Z M281 546 C388 546 428 498 428 424 C428 284 301 257 201 257 L129 257 L179 546 L281 546 Z M493 418 L563 418 L490 5 L537 -8 C606 14 690 78 716 107 L701 132 C670 102 611 60 558 38 L536 47 L601 418 L739 418 L744 450 L606 450 L627 567 L589 567 L568 450 L499 450 L493 418 Z M1009 437 C974 455 938 458 911 458 C820 458 756 404 756 337 C756 280 799 243 853 205 C890 179 926 147 930 100 C931 87 925 75 922 67 C904 42 857 27 813 27 C784 27 741 35 704 54 L695 18 C731 -1 772 -8 811 -8 C853 -8 904 6 932 33 C955 54 967 84 967 116 C967 166 919 212 868 246 C824 276 796 309 795 348 C795 364 800 377 808 392 C830 410 868 423 909 422 C943 421 969 414 998 400 L1009 437 Z " />
<glyph glyph-name="rupee" unicode="&#x20a8;" horiz-adv-x="761" d="M41 0 L84 0 L125 231 L203 231 C230 231 254 232 277 236 L340 103 C370 41 420 -8 532 -8 C575 -8 622 6 650 33 C673 54 684 84 684 116 C684 166 636 212 585 246 C541 276 513 309 512 348 C512 363 517 377 525 392 C547 410 585 423 625 422 C660 421 686 414 715 400 L725 437 C690 455 655 458 628 458 C537 458 473 404 473 337 C473 280 516 243 570 205 C606 180 642 147 647 102 C647 88 642 75 639 67 C621 42 575 27 531 27 C478 27 421 43 383 114 L320 245 C419 272 470 336 470 430 C470 520 407 572 303 572 L144 572 L41 0 Z M279 534 C383 534 426 497 426 423 C426 287 303 269 206 269 L132 269 L180 534 L279 534 Z " />
<glyph glyph-name="won" unicode="&#x20a9;" horiz-adv-x="890" d="M885 568 L840 568 L738 366 L544 366 L521 568 L471 568 L370 366 L183 366 L165 568 L118 568 L139 366 L74 366 L68 332 L142 332 L151 245 L53 245 L47 211 L155 211 L177 0 L229 0 L335 211 L517 211 L542 0 L593 0 L701 211 L823 211 L829 245 L719 245 L763 332 L845 332 L851 366 L781 366 L885 568 Z M548 332 L721 332 L678 245 L557 245 L548 332 Z M186 332 L353 332 L310 245 L194 245 L186 332 Z M395 332 L503 332 L513 245 L352 245 L395 332 Z M579 54 L561 211 L661 211 L582 54 L579 54 Z M212 54 L197 211 L293 211 L215 54 L212 54 Z M480 500 L483 500 L499 366 L412 366 L480 500 Z " />
<glyph glyph-name="sheqel" unicode="&#x20aa;" horiz-adv-x="708" d="M43 0 L76 0 L168 522 L327 522 C422 522 453 496 453 421 C453 385 446 337 435 276 L432 259 L466 259 L470 285 C482 351 490 404 490 445 C490 534 450 568 318 568 L142 568 L43 0 Z M220 0 L348 0 C579 0 607 138 632 281 L683 568 L649 568 L597 273 C571 125 535 46 369 46 L262 46 L315 349 L281 349 L220 0 Z " />
<glyph glyph-name="dong" unicode="&#x20ab;" horiz-adv-x="483" d="M249 605 L394 605 L368 485 C322 503 283 512 256 512 C215 512 192 495 167 473 C103 424 62 299 62 203 C62 174 66 147 71 125 L127 125 L322 269 L291 125 L333 125 L438 605 L497 605 L503 639 L445 639 L463 719 L419 719 L402 639 L254 639 L249 605 Z M110 160 C107 174 105 194 105 213 C105 309 149 435 219 480 C263 483 306 472 361 453 L331 310 L124 158 L110 160 Z M10 0 L373 0 L379 39 L17 39 L10 0 Z " />
<glyph glyph-name="Euro" unicode="&#x20ac;" horiz-adv-x="633" d="M63 342 L127 342 C117 310 112 276 111 241 L46 241 L39 208 L111 208 C120 79 213 -8 361 -8 C430 -8 493 9 533 29 L540 69 C488 43 425 30 364 30 C251 30 167 90 157 208 L438 208 L445 241 L156 241 C157 278 162 312 171 342 L462 342 L468 375 L183 375 C231 484 334 539 441 539 C496 539 552 530 604 500 L612 545 C584 557 541 576 450 576 C297 576 187 495 138 375 L69 375 L63 342 Z " />
<glyph glyph-name="uni20AD" unicode="&#x20ad;" horiz-adv-x="541" d="M386 0 L440 0 L242 275 L461 275 L468 310 L245 310 L549 568 L497 568 L199 310 L159 310 L205 568 L162 568 L116 310 L56 310 L49 275 L110 275 L62 0 L105 0 L153 275 L193 275 L386 0 Z " />
<glyph glyph-name="uni20AE" unicode="&#x20ae;" horiz-adv-x="547" d="M84 530 L297 530 L263 332 L124 277 L118 242 L257 297 L242 212 L103 157 L97 122 L236 177 L205 0 L247 0 L281 195 L416 249 L423 284 L287 230 L302 315 L438 369 L444 404 L308 350 L340 530 L554 530 L561 568 L91 568 L84 530 Z " />
<glyph glyph-name="uni20B1" unicode="&#x20b1;" horiz-adv-x="601" d="M85 431 L149 431 L133 344 L71 344 L65 312 L128 312 L73 0 L116 0 L151 204 L228 204 C347 204 429 245 469 312 L560 312 L566 344 L484 344 C493 367 497 392 497 420 C497 423 496 427 496 431 L580 431 L586 463 L491 463 C473 529 411 568 327 568 L173 568 L154 463 L91 463 L85 431 Z M452 413 C452 386 447 363 440 344 L176 344 L191 431 L451 431 C451 425 452 419 452 413 L452 413 Z M230 242 L158 242 L170 312 L422 312 C379 255 297 242 230 242 L230 242 Z M306 530 C378 530 424 506 443 463 L196 463 L208 530 L306 530 Z " />
<glyph glyph-name="uni20B4" unicode="&#x20b4;" horiz-adv-x="535" d="M503 377 L441 377 C461 401 474 430 474 469 C474 543 408 592 321 592 C265 592 206 579 163 562 L172 526 C220 546 261 556 311 556 C389 556 431 512 431 464 C431 426 415 398 390 377 L75 377 L68 343 L336 343 C308 330 278 319 247 308 C211 294 176 280 146 262 L54 262 L48 228 L103 228 C79 202 63 168 63 122 C63 38 143 -8 239 -8 C293 -8 341 3 399 22 L391 58 C336 36 288 29 235 29 C164 29 106 67 106 127 C106 172 127 204 160 228 L477 228 L483 262 L222 262 L259 277 C308 297 361 315 402 343 L497 343 L503 377 Z " />
<glyph glyph-name="uni20B9" unicode="&#x20b9;" horiz-adv-x="532" d="M420 0 L293 249 C375 270 430 318 445 394 L502 394 L514 428 L450 428 L450 440 C450 491 426 528 387 549 L526 549 L539 583 L123 583 L117 549 L258 549 C359 549 406 507 406 431 L406 428 L99 428 L93 394 L402 394 C381 290 271 272 181 272 L71 272 L65 236 L180 236 C205 236 228 237 250 240 L372 0 L420 0 Z " />
<glyph glyph-name="uni2113" unicode="&#x2113;" horiz-adv-x="366" d="M153 -8 C203 -8 227 7 266 39 L253 64 C230 44 204 24 167 24 C136 24 118 44 118 89 C118 110 121 136 127 168 L137 226 L202 271 C330 362 379 419 379 494 C379 555 337 590 285 590 C196 590 146 514 128 413 L96 231 L12 180 L21 156 C30 160 82 192 90 197 C90 197 75 103 75 80 C75 22 109 -8 153 -8 L153 -8 Z M144 263 L172 424 C188 516 226 557 278 557 C321 557 338 522 338 487 C338 417 287 370 195 301 L144 263 Z " />
<glyph glyph-name="uni2116" unicode="&#x2116;" horiz-adv-x="914" d="M573 179 L842 179 L848 211 L579 211 L573 179 Z M720 258 C821 258 886 350 886 456 C886 530 848 575 780 575 C680 575 611 484 611 380 C611 303 657 258 720 258 L720 258 Z M727 287 C676 287 646 321 646 378 C646 468 696 544 772 544 C829 544 851 507 851 456 C851 363 804 287 727 287 L727 287 Z M42 0 L84 0 L176 517 L178 517 L436 0 L478 0 L580 583 L538 583 L448 72 L446 72 L188 583 L145 583 L42 0 Z " />
<glyph glyph-name="uni2117" unicode="&#x2117;" horiz-adv-x="722" d="M367 -14 C534 -14 670 122 670 289 C670 456 534 592 367 592 C200 592 64 456 64 289 C64 122 200 -14 367 -14 L367 -14 Z M367 7 C217 7 86 132 86 289 C86 447 217 571 367 571 C517 571 649 448 649 289 C649 132 517 7 367 7 L367 7 Z M271 92 L307 92 L307 229 L359 229 C469 229 523 278 523 353 C523 434 467 469 386 469 L271 469 L271 92 Z M372 438 C447 438 486 411 486 352 C486 278 421 261 355 260 L307 260 L307 438 L372 438 Z " />
<glyph glyph-name="servicemark" unicode="&#x2120;" horiz-adv-x="638" d="M273 301 L300 301 L367 546 L369 546 L407 301 L442 301 L569 545 L571 545 L552 301 L580 301 L601 583 L561 583 L434 339 L431 339 L392 583 L351 583 L273 301 Z M83 313 C107 304 127 299 152 299 C212 299 259 328 259 385 C259 458 144 460 144 511 C144 544 169 564 210 564 C234 564 257 558 277 546 L282 575 C266 584 242 590 214 590 C164 590 116 562 116 511 C116 436 231 440 231 384 C231 343 199 326 159 326 C133 326 107 333 88 343 L83 313 Z " />
<glyph glyph-name="trademark" unicode="&#x2122;" horiz-adv-x="668" d="M302 301 L330 301 L397 546 L399 546 L437 301 L472 301 L598 545 L600 545 L581 301 L609 301 L630 583 L590 583 L464 339 L461 339 L421 583 L381 583 L302 301 Z M111 556 L208 556 L164 301 L193 301 L237 556 L338 556 L342 583 L115 583 L111 556 Z " />
<glyph glyph-name="Omega" unicode="&#x2126;" horiz-adv-x="657" d="M383 592 C171 592 65 401 65 255 C65 164 107 79 161 40 L161 38 L27 38 L22 0 L211 0 L217 34 C154 84 109 165 109 257 C109 420 220 556 376 556 C492 556 563 476 563 351 C563 199 474 103 363 34 L357 0 L547 0 L553 38 L420 38 L421 40 C518 98 610 212 610 356 C610 473 541 592 383 592 L383 592 Z " />
<glyph glyph-name="estimated" unicode="&#x212e;" horiz-adv-x="546" d="M275 -8 C359 -8 423 21 473 92 L451 108 C407 49 351 21 277 21 C168 21 107 92 105 188 L105 218 L477 218 L477 271 C476 376 407 465 279 465 C136 465 52 357 52 217 C52 74 135 -8 275 -8 L275 -8 Z M105 244 L105 262 C108 370 177 440 279 440 C381 440 424 356 424 285 L424 244 L105 244 Z " />
<glyph glyph-name="onethird" unicode="&#x2153;" horiz-adv-x="611" d="M140 262 L196 574 L177 574 L85 543 L81 517 L162 542 L111 262 L140 262 Z M336 10 C350 3 369 -4 408 -4 C477 -4 539 37 539 88 C539 120 486 150 453 162 L453 164 C491 178 551 223 551 251 C551 289 514 312 469 312 C435 312 403 302 379 287 L380 262 C406 277 434 286 459 286 C498 286 515 275 524 246 C509 219 462 184 418 172 L415 152 C460 139 501 113 512 87 C507 39 455 21 412 21 C389 21 369 24 341 38 L336 10 Z M76 0 L515 564 L515 568 L484 568 L46 3 L46 0 L76 0 Z " />
<glyph glyph-name="twothirds" unicode="&#x2154;" horiz-adv-x="640" d="M247 264 L252 290 L98 290 C181 354 268 448 268 513 C268 544 232 576 185 576 C155 576 126 568 95 547 L93 520 C123 540 149 550 177 550 C213 550 229 530 239 511 C231 448 153 357 63 286 L59 264 L247 264 Z M364 10 C378 3 397 -4 436 -4 C505 -4 567 37 567 88 C567 120 514 150 481 162 L481 164 C519 178 579 223 579 251 C579 289 542 312 497 312 C463 312 431 302 407 287 L408 262 C434 277 462 286 487 286 C526 286 543 275 552 246 C537 219 490 184 446 172 L443 152 C488 139 529 113 540 87 C535 39 483 21 440 21 C417 21 397 24 369 38 L364 10 Z M130 0 L569 564 L569 568 L538 568 L100 3 L100 0 L130 0 Z " />
<glyph glyph-name="uni215B" unicode="&#x215b;" horiz-adv-x="606" d="M551 245 C551 276 515 312 463 312 C411 312 362 269 362 233 C362 213 390 186 422 159 C367 140 321 105 321 67 C321 40 353 -4 411 -4 C479 -4 529 29 529 80 C529 101 496 131 463 161 C508 182 551 221 551 245 L551 245 Z M81 0 L520 564 L520 568 L489 568 L51 3 L51 0 L81 0 Z M502 73 C494 47 472 21 415 21 C379 21 356 44 346 69 C358 102 387 129 434 149 C468 120 501 92 502 73 L502 73 Z M141 262 L197 574 L178 574 L86 543 L82 517 L163 542 L112 262 L141 262 Z M388 240 C397 258 419 287 458 287 C496 287 516 268 522 242 C514 220 490 193 449 173 C418 199 390 224 388 240 L388 240 Z " />
<glyph glyph-name="arrowleft" unicode="&#x2190;" horiz-adv-x="532" d="M205 94 L92 246 L532 246 L532 283 L92 283 L205 435 L159 435 L32 264 L159 94 L205 94 Z " />
<glyph glyph-name="arrowup" unicode="&#x2191;" horiz-adv-x="427" d="M391 457 L221 583 L49 457 L49 411 L201 524 L201 84 L239 84 L239 524 L391 411 L391 457 Z " />
<glyph glyph-name="arrowright" unicode="&#x2192;" horiz-adv-x="531" d="M373 94 L500 264 L373 435 L328 435 L440 283 L0 283 L0 246 L440 246 L328 94 L373 94 Z " />
<glyph glyph-name="arrowdown" unicode="&#x2193;" horiz-adv-x="427" d="M49 210 L221 84 L391 210 L391 256 L240 143 L240 583 L202 583 L202 143 L49 256 L49 210 Z " />
<glyph glyph-name="uni2196" unicode="&#x2196;" horiz-adv-x="436" d="M253 541 L44 510 L12 300 L45 268 L72 455 L383 143 L410 170 L99 481 L286 509 L253 541 Z " />
<glyph glyph-name="uni2197" unicode="&#x2197;" horiz-adv-x="452" d="M426 300 L395 510 L185 541 L152 509 L340 482 L28 171 L55 144 L366 455 L394 268 L426 300 Z " />
<glyph glyph-name="uni2198" unicode="&#x2198;" horiz-adv-x="436" d="M168 134 L378 165 L409 374 L377 407 L350 220 L39 532 L12 505 L323 194 L136 165 L168 134 Z " />
<glyph glyph-name="uni2199" unicode="&#x2199;" horiz-adv-x="436" d="M26 378 L57 168 L267 136 L299 169 L112 197 L424 508 L397 534 L86 223 L58 411 L26 378 Z " />
<glyph glyph-name="partialdiff" unicode="&#x2202;" horiz-adv-x="417" d="M151 -8 C214 -8 269 29 308 93 C347 157 370 248 370 354 C370 474 343 591 184 686 L161 656 C253 599 310 524 326 430 C302 448 275 458 246 458 C207 458 170 442 140 417 C75 363 35 262 35 162 C35 47 79 -8 151 -8 L151 -8 Z M332 369 C332 231 295 74 179 26 C156 27 127 32 110 43 C83 77 76 118 76 172 C76 285 136 401 216 426 L247 424 C265 422 307 405 331 388 C332 381 332 375 332 369 L332 369 Z " />
<glyph glyph-name="Delta" unicode="&#x2206;" horiz-adv-x="519" d="M439 0 L444 32 L354 583 L311 583 L2 32 L-3 0 L439 0 Z M319 532 L323 532 L399 38 L44 38 L319 532 Z " />
<glyph glyph-name="product" unicode="&#x220f;" horiz-adv-x="707" d="M106 -207 L238 545 L562 545 L430 -207 L473 -207 L605 545 L724 545 L730 583 L89 583 L83 545 L196 545 L63 -208 L106 -207 Z " />
<glyph glyph-name="summation" unicode="&#x2211;" horiz-adv-x="497" d="M-45 -207 L378 -207 L385 -167 L14 -167 L294 220 L145 545 L486 545 L493 583 L98 583 L93 549 L245 217 L-39 -176 L-45 -207 Z " />
<glyph glyph-name="minus" unicode="&#x2212;" horiz-adv-x="554" d="M75 278 L484 278 L491 313 L82 313 L75 278 Z " />
<glyph glyph-name="radical" unicode="&#x221a;" horiz-adv-x="534" d="M64 450 L157 0 L198 0 L587 666 L546 666 L192 54 L188 54 L108 450 L64 450 Z " />
<glyph glyph-name="infinity" unicode="&#x221e;" horiz-adv-x="847" d="M259 506 C139 506 60 367 60 248 C60 158 104 82 194 82 C285 82 371 190 428 267 C465 193 511 82 604 82 C729 82 799 220 799 338 C799 423 758 506 673 506 C580 506 503 402 439 325 C403 398 353 506 259 506 L259 506 Z M201 119 C150 119 97 162 97 251 C97 376 173 469 252 469 C334 469 383 361 414 296 C361 227 278 119 201 119 L201 119 Z M611 119 C532 119 484 229 453 296 C507 361 589 469 666 469 C716 469 763 424 763 337 C763 200 682 119 611 119 L611 119 Z " />
<glyph glyph-name="integral" unicode="&#x222b;" horiz-adv-x="417" d="M127 -43 C111 -136 80 -176 11 -176 C-15 -176 -26 -174 -51 -169 L-57 -207 C-43 -210 -22 -213 0 -213 C94 -213 147 -156 167 -43 L262 490 C278 584 325 624 394 624 C420 624 432 623 456 618 L464 655 C448 659 428 661 406 661 C311 661 242 604 222 491 L127 -43 Z " />
<glyph glyph-name="approxequal" unicode="&#x2248;" horiz-adv-x="506" d="M358 357 C393 357 432 378 459 408 L444 433 C421 412 399 394 370 394 C301 394 277 438 206 438 C163 438 119 412 95 391 L107 365 C126 378 156 402 199 402 C259 402 293 357 358 357 L358 357 Z M328 171 C363 171 402 192 429 222 L414 247 C391 226 369 208 340 208 C271 208 247 252 176 252 C133 252 89 226 65 205 L77 179 C96 192 126 216 169 216 C229 216 263 171 328 171 L328 171 Z " />
<glyph glyph-name="notequal" unicode="&#x2260;" horiz-adv-x="510" d="M88 373 L315 373 L194 222 L62 222 L56 188 L166 188 L32 20 L67 20 L202 188 L432 188 L439 222 L229 222 L350 373 L465 373 L472 407 L378 407 L504 564 L468 564 L342 407 L95 407 L88 373 Z " />
<glyph glyph-name="lessequal" unicode="&#x2264;" horiz-adv-x="546" d="M37 47 L438 47 L445 84 L44 84 L37 47 Z M442 147 L452 184 L138 338 L506 491 L510 529 L91 352 L86 323 L442 147 Z " />
<glyph glyph-name="greaterequal" unicode="&#x2265;" horiz-adv-x="543" d="M443 84 L42 84 L35 47 L436 47 L443 84 Z M486 323 L491 352 L135 529 L125 491 L438 339 L70 184 L67 147 L486 323 Z " />
<glyph glyph-name="uni2460" unicode="&#x2460;" horiz-adv-x="707" d="M353 -8 C518 -8 653 126 653 291 C653 456 518 591 353 591 C187 591 53 456 53 291 C53 126 187 -8 353 -8 L353 -8 Z M353 16 C202 16 79 140 79 291 C79 442 202 567 353 567 C504 567 627 442 627 291 C627 140 504 16 353 16 L353 16 Z M372 139 L372 450 L350 450 L265 421 L265 396 L339 416 L339 139 L372 139 Z " />
<glyph glyph-name="uni2461" unicode="&#x2461;" horiz-adv-x="707" d="M353 -8 C518 -8 653 126 653 291 C653 456 518 591 353 591 C187 591 53 456 53 291 C53 126 187 -8 353 -8 L353 -8 Z M353 16 C202 16 79 140 79 291 C79 442 202 567 353 567 C504 567 627 442 627 291 C627 140 504 16 353 16 L353 16 Z M241 139 L452 139 L452 167 L286 167 C286 167 287 168 288 168 C361 224 440 295 440 363 C440 424 397 450 341 450 C311 450 277 441 251 422 L251 394 C287 419 312 423 338 423 C381 423 407 402 407 361 C407 296 321 225 241 162 L241 139 Z " />
<glyph glyph-name="uni2462" unicode="&#x2462;" horiz-adv-x="707" d="M353 -8 C518 -8 653 126 653 291 C653 456 518 591 353 591 C187 591 53 456 53 291 C53 126 187 -8 353 -8 L353 -8 Z M353 16 C202 16 79 140 79 291 C79 442 202 567 353 567 C504 567 627 442 627 291 C627 140 504 16 353 16 L353 16 Z M335 135 C393 135 448 160 448 227 C448 274 406 299 366 301 L366 303 C385 307 433 331 433 381 C433 424 399 450 346 450 C317 450 288 441 264 423 L264 394 C293 416 317 423 344 423 C380 423 400 405 400 376 C400 340 358 311 318 307 L318 285 C378 283 415 265 415 223 C415 188 390 161 342 161 C316 161 288 165 261 178 L261 149 C277 141 301 135 335 135 L335 135 Z " />
<glyph glyph-name="uni2463" unicode="&#x2463;" horiz-adv-x="707" d="M353 -8 C518 -8 653 126 653 291 C653 456 518 591 353 591 C187 591 53 456 53 291 C53 126 187 -8 353 -8 L353 -8 Z M353 16 C202 16 79 140 79 291 C79 442 202 567 353 567 C504 567 627 442 627 291 C627 140 504 16 353 16 L353 16 Z M353 139 L386 139 L386 224 L432 224 L432 249 L386 249 L386 450 L356 450 L211 250 L211 224 L353 224 L353 139 Z M243 249 L353 403 L353 249 L243 249 Z " />
<glyph glyph-name="uni2464" unicode="&#x2464;" horiz-adv-x="707" d="M353 -8 C518 -8 653 126 653 291 C653 456 518 591 353 591 C187 591 53 456 53 291 C53 126 187 -8 353 -8 L353 -8 Z M353 16 C202 16 79 140 79 291 C79 442 202 567 353 567 C504 567 627 442 627 291 C627 140 504 16 353 16 L353 16 Z M330 135 C382 135 439 165 439 232 C439 301 390 323 320 323 C312 323 301 322 295 321 L303 419 L433 419 L433 445 L277 445 L265 294 C280 296 295 297 309 297 C371 297 406 281 406 230 C406 187 374 161 332 161 C305 161 278 166 251 178 L251 149 C269 142 294 135 330 135 L330 135 Z " />
<glyph glyph-name="uni2465" unicode="&#x2465;" horiz-adv-x="707" d="M353 -8 C518 -8 653 126 653 291 C653 456 518 591 353 591 C187 591 53 456 53 291 C53 126 187 -8 353 -8 L353 -8 Z M353 16 C202 16 79 140 79 291 C79 442 202 567 353 567 C504 567 627 442 627 291 C627 140 504 16 353 16 L353 16 Z M366 423 C381 423 399 422 422 412 L422 441 C404 447 383 450 366 450 C284 450 232 378 232 269 C232 193 265 135 334 135 C400 135 440 180 440 240 C440 305 401 330 348 330 C317 330 285 315 268 302 C274 383 307 423 366 423 L366 423 Z M341 304 C386 304 406 284 406 237 C406 189 382 161 336 161 C287 161 266 205 266 269 L266 277 C283 289 311 304 341 304 L341 304 Z " />
<glyph glyph-name="uni2466" unicode="&#x2466;" horiz-adv-x="707" d="M353 -8 C518 -8 653 126 653 291 C653 456 518 591 353 591 C187 591 53 456 53 291 C53 126 187 -8 353 -8 L353 -8 Z M353 16 C202 16 79 140 79 291 C79 442 202 567 353 567 C504 567 627 442 627 291 C627 140 504 16 353 16 L353 16 Z M307 139 L443 425 L443 445 L255 445 L255 419 L409 419 L275 141 L276 139 L307 139 Z " />
<glyph glyph-name="uni2467" unicode="&#x2467;" horiz-adv-x="707" d="M353 -8 C518 -8 653 126 653 291 C653 456 518 591 353 591 C187 591 53 456 53 291 C53 126 187 -8 353 -8 L353 -8 Z M353 16 C202 16 79 140 79 291 C79 442 202 567 353 567 C504 567 627 442 627 291 C627 140 504 16 353 16 L353 16 Z M450 221 C450 262 422 281 389 294 C419 311 444 339 444 374 C444 421 406 450 347 450 C294 450 255 414 255 369 C255 332 276 313 303 300 C272 284 247 253 247 219 C247 168 282 135 344 135 C405 135 450 171 450 221 L450 221 Z M411 371 C411 344 394 322 365 304 C325 317 286 330 286 370 C286 405 312 423 346 423 C392 423 411 400 411 371 L411 371 Z M279 220 C279 253 298 275 322 290 C366 272 417 262 417 219 C417 174 380 161 347 161 C308 161 279 180 279 220 L279 220 Z " />
<glyph glyph-name="uni2468" unicode="&#x2468;" horiz-adv-x="707" d="M353 -8 C518 -8 653 126 653 291 C653 456 518 591 353 591 C187 591 53 456 53 291 C53 126 187 -8 353 -8 L353 -8 Z M353 16 C202 16 79 140 79 291 C79 442 202 567 353 567 C504 567 627 442 627 291 C627 140 504 16 353 16 L353 16 Z M321 161 C305 161 287 163 264 173 L264 144 C282 138 303 135 320 135 C403 135 454 206 454 316 C454 392 421 450 352 450 C286 450 246 405 246 344 C246 280 285 255 338 255 C368 255 400 269 418 283 C412 202 378 161 321 161 L321 161 Z M345 281 C300 281 280 300 280 348 C280 399 304 424 351 424 C400 424 420 380 420 316 L420 308 C403 296 376 281 345 281 L345 281 Z " />
<glyph glyph-name="uni2469" unicode="&#x2469;" horiz-adv-x="707" d="M353 -8 C518 -8 653 126 653 291 C653 456 518 591 353 591 C187 591 53 456 53 291 C53 126 187 -8 353 -8 L353 -8 Z M353 16 C202 16 79 140 79 291 C79 442 202 567 353 567 C504 567 627 442 627 291 C627 140 504 16 353 16 L353 16 Z M263 139 L263 450 L241 450 L156 421 L156 396 L230 416 L230 139 L263 139 Z M422 135 C501 135 542 198 542 295 C542 373 516 450 427 450 C347 450 309 381 309 286 C309 196 340 135 422 135 L422 135 Z M424 161 C372 161 343 201 343 287 C343 370 371 423 424 423 C478 423 508 374 508 294 C508 210 479 161 424 161 L424 161 Z " />
<glyph glyph-name="uni24CA" unicode="&#x24ca;" horiz-adv-x="722" d="M367 -14 C534 -14 670 122 670 289 C670 456 534 592 367 592 C200 592 64 456 64 289 C64 122 200 -14 367 -14 L367 -14 Z M367 7 C217 7 86 132 86 289 C86 447 217 571 367 571 C517 571 649 448 649 289 C649 132 517 7 367 7 L367 7 Z M370 98 C443 98 519 147 519 261 L519 446 L482 446 L482 262 C482 177 437 133 370 133 C300 133 254 167 254 254 L254 446 L217 446 L217 248 C217 139 290 98 370 98 L370 98 Z " />
<glyph glyph-name="uni25B2" unicode="&#x25b2;" horiz-adv-x="594" d="M526 21 L258 449 L-10 21 L526 21 Z " />
<glyph glyph-name="uni25B6" unicode="&#x25b6;" horiz-adv-x="551" d="M94 -33 L522 235 L94 503 L94 -33 Z " />
<glyph glyph-name="uni25B8" unicode="&#x25b8;" horiz-adv-x="392" d="M360 218 L93 486 L93 -50 L360 218 Z " />
<glyph glyph-name="uni25BA" unicode="&#x25ba;" horiz-adv-x="848" d="M812 218 L90 486 L90 -50 L812 218 Z " />
<glyph glyph-name="uni25BC" unicode="&#x25bc;" horiz-adv-x="608" d="M67 448 L335 20 L603 448 L67 448 Z " />
<glyph glyph-name="uni25C0" unicode="&#x25c0;" horiz-adv-x="551" d="M450 -33 L450 503 L22 235 L450 -33 Z " />
<glyph glyph-name="uni25C2" unicode="&#x25c2;" horiz-adv-x="392" d="M287 -50 L287 486 L20 219 L287 -50 Z " />
<glyph glyph-name="uni25C4" unicode="&#x25c4;" horiz-adv-x="847" d="M744 -50 L744 486 L22 218 L744 -50 Z " />
<glyph glyph-name="lozenge" unicode="&#x25ca;" horiz-adv-x="479" d="M180 0 L211 0 L456 286 L312 583 L281 583 L35 286 L180 0 Z M202 37 L76 286 L290 546 L417 286 L202 37 Z " />
<glyph glyph-name="uni2610" unicode="&#x2610;" horiz-adv-x="780" d="M105 0 L688 0 L688 583 L105 583 L105 0 Z M136 31 L136 552 L657 552 L657 31 L136 31 Z " />
<glyph glyph-name="uni2611" unicode="&#x2611;" horiz-adv-x="781" d="M105 -4 L688 -4 L688 579 L105 579 L105 -4 Z M136 27 L136 548 L657 548 L657 27 L136 27 Z M272 78 L289 78 C393 180 525 368 604 490 L596 499 C574 492 550 474 537 455 C482 369 353 177 290 117 C262 170 239 260 238 306 L222 311 C216 309 200 293 196 287 C192 262 232 125 272 78 L272 78 Z " />
<glyph glyph-name="uni261A" unicode="&#x261a;" horiz-adv-x="1007" d="M73 453 C56 391 110 386 110 386 L316 400 L371 365 C371 365 295 272 291 246 C291 246 307 200 344 186 C344 186 354 129 396 126 C396 126 405 88 451 74 L527 101 C527 101 603 88 747 140 L936 126 L936 365 L759 401 C759 401 709 443 646 459 L344 509 L73 453 Z " />
<glyph glyph-name="uni261B" unicode="&#x261b;" horiz-adv-x="942" d="M659 509 L357 459 C294 443 244 401 244 401 L67 365 L67 126 L256 140 C400 88 476 101 476 101 L552 74 C598 88 607 126 607 126 C649 129 659 186 659 186 C696 200 712 246 712 246 C708 272 632 365 632 365 L687 400 L893 386 C893 386 947 391 930 453 L659 509 Z " />
<glyph glyph-name="uni261C" unicode="&#x261c;" horiz-adv-x="1007" d="M73 453 C56 391 110 386 110 386 L316 400 L393 359 C393 359 296 273 290 248 C290 248 300 203 341 189 C341 189 351 133 396 126 C396 126 405 88 451 74 L527 101 C527 101 603 88 747 140 L936 126 L936 365 L759 401 C759 401 709 443 646 459 L344 509 L73 453 Z M721 168 C655 136 523 131 523 131 L451 107 C427 109 415 145 415 145 L476 196 L539 216 L528 241 L466 219 L400 159 C377 164 365 200 365 200 L450 271 L508 290 L497 313 L437 292 L354 217 C332 223 320 250 320 250 L412 335 L435 366 L328 420 L128 408 C128 408 100 423 112 442 L344 482 L638 431 C683 415 737 376 737 376 L903 342 L903 159 L721 168 Z " />
<glyph glyph-name="uni261D" unicode="&#x261d;" horiz-adv-x="555" d="M78 472 L128 170 C144 107 186 57 186 57 L222 -120 L461 -120 L447 69 C499 213 486 289 486 289 L513 365 C499 411 461 420 461 420 C455 465 399 475 399 475 C384 516 340 527 340 527 C314 520 228 417 228 417 L187 500 L201 706 C201 706 196 760 134 743 L78 472 Z M428 -87 L246 -87 L212 80 C212 80 172 134 156 179 L105 473 L145 704 C164 716 180 689 180 689 L167 489 L221 376 L253 399 L338 496 C338 496 364 485 371 462 L296 380 L275 320 L297 308 L317 367 L388 452 C388 452 423 439 428 417 L368 350 L346 289 L372 278 L391 340 L443 401 C443 401 478 389 480 365 L456 293 C456 293 451 162 420 96 L428 -87 Z " />
<glyph glyph-name="uni261E" unicode="&#x261e;" horiz-adv-x="943" d="M659 509 L357 459 C294 443 244 401 244 401 L67 365 L67 126 L256 140 C400 88 476 101 476 101 L552 74 C598 88 607 126 607 126 C652 133 662 189 662 189 C703 203 713 248 713 248 C707 273 604 359 604 359 L687 400 L893 386 C893 386 947 391 930 453 L659 509 Z M100 159 L100 342 L266 376 C266 376 320 415 365 431 L659 482 L891 442 C903 423 875 408 875 408 L675 420 L562 366 L586 335 L683 250 C683 250 671 223 649 217 L566 292 L506 313 L495 290 L553 271 L638 200 C638 200 626 164 603 159 L537 219 L475 241 L464 216 L527 196 L588 145 C588 145 576 109 552 107 L480 131 C480 131 348 136 282 168 L100 159 Z " />
<glyph glyph-name="uni261F" unicode="&#x261f;" horiz-adv-x="555" d="M499 168 L449 470 C433 533 391 583 391 583 L355 760 L116 760 L130 571 C78 427 91 351 91 351 L64 275 C78 229 116 220 116 220 C123 176 179 166 179 166 C193 125 238 114 238 114 C263 121 349 223 349 223 L390 140 L376 -66 C376 -66 381 -120 443 -103 L499 168 Z M149 728 L332 728 L366 561 C366 561 405 507 421 462 L472 168 L432 -63 C413 -75 398 -48 398 -48 L410 152 L356 265 L325 242 L240 145 C240 145 213 156 207 178 L282 261 L303 321 L280 333 L261 274 L190 189 C190 189 154 202 149 224 L209 290 L231 352 L206 363 L186 300 L135 240 C135 240 99 252 97 276 L121 348 C121 348 126 479 158 545 L149 728 Z " />
<glyph glyph-name="uni267E" unicode="&#x267e;" horiz-adv-x="722" d="M367 -14 C534 -14 670 122 670 289 C670 456 534 592 367 592 C200 592 64 456 64 289 C64 122 200 -14 367 -14 L367 -14 Z M367 8 C212 8 86 134 86 289 C86 444 212 570 367 570 C522 570 649 444 649 289 C649 134 522 8 367 8 L367 8 Z M267 403 C213 403 179 344 179 291 C179 238 209 179 267 179 C311 179 343 228 367 271 C393 226 421 179 468 179 C527 179 556 238 556 291 C556 344 523 403 468 403 C424 403 393 355 367 313 C342 357 313 403 267 403 L267 403 Z M267 209 C229 209 209 250 209 291 C209 332 230 373 267 373 C304 373 332 331 354 292 C331 252 302 209 267 209 L267 209 Z M468 209 C433 209 405 252 381 292 C404 332 432 373 468 373 C504 373 526 332 526 291 C526 250 506 209 468 209 L468 209 Z " />
<glyph glyph-name="uni2713" unicode="&#x2713;" horiz-adv-x="444" d="M120 78 L137 78 C241 180 373 368 452 490 L444 499 C422 492 398 474 385 455 C330 369 201 177 138 117 C110 170 87 260 86 306 L70 311 C64 309 48 293 44 287 C40 262 80 125 120 78 L120 78 Z " />
<glyph glyph-name="uni2776" unicode="&#x2776;" horiz-adv-x="707" d="M353 -8 C518 -8 653 126 653 291 C653 456 518 591 353 591 C187 591 53 456 53 291 C53 126 187 -8 353 -8 L353 -8 Z M339 139 L339 416 L265 396 L265 421 L350 450 L372 450 L372 139 L339 139 Z " />
<glyph glyph-name="uni2777" unicode="&#x2777;" horiz-adv-x="707" d="M353 -8 C518 -8 653 126 653 291 C653 456 518 591 353 591 C187 591 53 456 53 291 C53 126 187 -8 353 -8 L353 -8 Z M241 162 C321 225 407 296 407 361 C407 402 381 423 338 423 C312 423 287 419 251 394 L251 422 C277 441 311 450 341 450 C397 450 440 424 440 363 C440 296 360 224 288 169 L286 167 L452 167 L452 139 L241 139 L241 162 Z " />
<glyph glyph-name="uni2778" unicode="&#x2778;" horiz-adv-x="707" d="M353 -8 C518 -8 653 126 653 291 C653 456 518 591 353 591 C187 591 53 456 53 291 C53 126 187 -8 353 -8 L353 -8 Z M335 135 C301 135 277 141 261 149 L261 178 C288 165 316 161 342 161 C390 161 415 188 415 223 C415 265 378 283 318 285 L318 307 C358 311 400 340 400 376 C400 405 380 423 344 423 C317 423 293 416 264 394 L264 423 C288 441 317 450 346 450 C399 450 433 424 433 381 C433 331 385 307 366 303 L366 301 C406 299 448 274 448 227 C448 160 393 135 335 135 L335 135 Z " />
<glyph glyph-name="uni2779" unicode="&#x2779;" horiz-adv-x="707" d="M353 -8 C518 -8 653 126 653 291 C653 456 518 591 353 591 C187 591 53 456 53 291 C53 126 187 -8 353 -8 L353 -8 Z M353 224 L211 224 L211 250 L356 450 L386 450 L386 249 L432 249 L432 224 L386 224 L386 139 L353 139 L353 224 Z M353 249 L353 403 L243 249 L353 249 Z " />
<glyph glyph-name="uni277A" unicode="&#x277a;" horiz-adv-x="707" d="M353 -8 C518 -8 653 126 653 291 C653 456 518 591 353 591 C187 591 53 456 53 291 C53 126 187 -8 353 -8 L353 -8 Z M330 135 C294 135 269 142 251 149 L251 178 C278 166 305 161 332 161 C374 161 406 187 406 230 C406 281 371 297 309 297 C295 297 280 296 265 294 L277 445 L433 445 L433 419 L303 419 L295 321 C301 322 312 323 320 323 C390 323 439 301 439 232 C439 165 382 135 330 135 L330 135 Z " />
<glyph glyph-name="uni277B" unicode="&#x277b;" horiz-adv-x="707" d="M353 -8 C518 -8 653 126 653 291 C653 456 518 591 353 591 C187 591 53 456 53 291 C53 126 187 -8 353 -8 L353 -8 Z M366 423 C307 423 274 383 268 302 C285 315 317 330 348 330 C401 330 440 305 440 240 C440 180 400 135 334 135 C265 135 232 193 232 269 C232 378 284 450 366 450 C383 450 404 447 422 441 L422 412 C399 422 381 423 366 423 L366 423 Z M341 304 C311 304 283 289 266 277 L266 269 C266 205 287 161 336 161 C382 161 406 189 406 237 C406 284 386 304 341 304 L341 304 Z " />
<glyph glyph-name="uni277C" unicode="&#x277c;" horiz-adv-x="707" d="M353 -8 C518 -8 653 126 653 291 C653 456 518 591 353 591 C187 591 53 456 53 291 C53 126 187 -8 353 -8 L353 -8 Z M276 139 L275 141 L409 419 L255 419 L255 445 L443 445 L443 425 L307 139 L276 139 Z " />
<glyph glyph-name="uni277D" unicode="&#x277d;" horiz-adv-x="707" d="M353 -8 C518 -8 653 126 653 291 C653 456 518 591 353 591 C187 591 53 456 53 291 C53 126 187 -8 353 -8 L353 -8 Z M450 221 C450 171 405 135 344 135 C282 135 247 168 247 219 C247 253 272 284 303 300 C276 313 255 332 255 369 C255 414 294 450 347 450 C406 450 444 421 444 374 C444 339 419 311 389 294 C422 281 450 262 450 221 L450 221 Z M411 371 C411 400 392 423 346 423 C312 423 286 405 286 370 C286 330 325 317 365 304 C394 322 411 344 411 371 L411 371 Z M279 220 C279 180 308 161 347 161 C380 161 417 174 417 219 C417 262 366 272 322 290 C298 275 279 253 279 220 L279 220 Z " />
<glyph glyph-name="uni277E" unicode="&#x277e;" horiz-adv-x="707" d="M353 -8 C518 -8 653 126 653 291 C653 456 518 591 353 591 C187 591 53 456 53 291 C53 126 187 -8 353 -8 L353 -8 Z M321 161 C378 161 412 202 418 283 C400 269 368 255 338 255 C285 255 246 280 246 344 C246 405 286 450 352 450 C421 450 454 392 454 316 C454 206 403 135 320 135 C303 135 282 138 264 144 L264 173 C287 163 305 161 321 161 L321 161 Z M345 281 C376 281 403 296 420 308 L420 316 C420 380 400 424 351 424 C304 424 280 399 280 348 C280 300 300 281 345 281 L345 281 Z " />
<glyph glyph-name="uni277F" unicode="&#x277f;" horiz-adv-x="707" d="M353 -8 C518 -8 653 126 653 291 C653 456 518 591 353 591 C187 591 53 456 53 291 C53 126 187 -8 353 -8 L353 -8 Z M230 139 L230 416 L156 396 L156 421 L241 450 L263 450 L263 139 L230 139 Z M422 135 C340 135 309 196 309 286 C309 381 347 450 427 450 C516 450 542 373 542 295 C542 198 501 135 422 135 L422 135 Z M424 161 C479 161 508 210 508 294 C508 374 478 423 424 423 C371 423 343 370 343 287 C343 201 372 161 424 161 L424 161 Z " />
<glyph glyph-name="uni2780" unicode="&#x2780;" horiz-adv-x="707" d="M353 -8 C518 -8 653 126 653 291 C653 456 518 591 353 591 C187 591 53 456 53 291 C53 126 187 -8 353 -8 L353 -8 Z M353 16 C202 16 79 140 79 291 C79 442 202 567 353 567 C504 567 627 442 627 291 C627 140 504 16 353 16 L353 16 Z M373 139 L373 450 L352 450 L266 421 L266 396 L340 416 L340 139 L373 139 Z " />
<glyph glyph-name="uni2781" unicode="&#x2781;" horiz-adv-x="707" d="M353 -8 C518 -8 653 126 653 291 C653 456 518 591 353 591 C187 591 53 456 53 291 C53 126 187 -8 353 -8 L353 -8 Z M353 16 C202 16 79 140 79 291 C79 442 202 567 353 567 C504 567 627 442 627 291 C627 140 504 16 353 16 L353 16 Z M241 139 L452 139 L452 167 L286 167 L288 169 C360 224 440 296 440 363 C440 424 397 450 341 450 C311 450 277 441 251 422 L251 394 C287 419 312 423 338 423 C381 423 407 402 407 361 C407 296 321 225 241 162 L241 139 Z " />
<glyph glyph-name="uni2782" unicode="&#x2782;" horiz-adv-x="707" d="M353 -8 C518 -8 653 126 653 291 C653 456 518 591 353 591 C187 591 53 456 53 291 C53 126 187 -8 353 -8 L353 -8 Z M353 16 C202 16 79 140 79 291 C79 442 202 567 353 567 C504 567 627 442 627 291 C627 140 504 16 353 16 L353 16 Z M335 135 C393 135 448 160 448 227 C448 274 406 299 366 301 L366 303 C385 307 433 331 433 381 C433 424 399 450 346 450 C317 450 288 441 264 423 L264 394 C293 416 317 423 344 423 C380 423 400 405 400 376 C400 340 358 311 318 307 L318 285 C378 283 415 265 415 223 C415 188 390 161 342 161 C316 161 288 165 261 178 L261 149 C277 141 301 135 335 135 L335 135 Z " />
<glyph glyph-name="uni2783" unicode="&#x2783;" horiz-adv-x="707" d="M353 -8 C518 -8 653 126 653 291 C653 456 518 591 353 591 C187 591 53 456 53 291 C53 126 187 -8 353 -8 L353 -8 Z M353 16 C202 16 79 140 79 291 C79 442 202 567 353 567 C504 567 627 442 627 291 C627 140 504 16 353 16 L353 16 Z M353 139 L386 139 L386 224 L432 224 L432 249 L386 249 L386 450 L356 450 L211 250 L211 224 L353 224 L353 139 Z M243 249 L353 403 L353 249 L243 249 Z " />
<glyph glyph-name="uni2784" unicode="&#x2784;" horiz-adv-x="707" d="M353 -8 C518 -8 653 126 653 291 C653 456 518 591 353 591 C187 591 53 456 53 291 C53 126 187 -8 353 -8 L353 -8 Z M353 16 C202 16 79 140 79 291 C79 442 202 567 353 567 C504 567 627 442 627 291 C627 140 504 16 353 16 L353 16 Z M330 135 C382 135 439 165 439 232 C439 301 390 323 320 323 C312 323 301 322 295 321 L303 419 L433 419 L433 445 L277 445 L265 294 C280 296 295 297 309 297 C371 297 406 281 406 230 C406 187 374 161 332 161 C305 161 278 166 251 178 L251 149 C269 142 294 135 330 135 L330 135 Z " />
<glyph glyph-name="uni2785" unicode="&#x2785;" horiz-adv-x="707" d="M353 -8 C518 -8 653 126 653 291 C653 456 518 591 353 591 C187 591 53 456 53 291 C53 126 187 -8 353 -8 L353 -8 Z M353 16 C202 16 79 140 79 291 C79 442 202 567 353 567 C504 567 627 442 627 291 C627 140 504 16 353 16 L353 16 Z M366 423 C381 423 399 422 422 412 L422 441 C404 447 383 450 366 450 C284 450 232 378 232 269 C232 193 265 135 334 135 C400 135 440 180 440 240 C440 305 401 330 348 330 C317 330 285 315 268 302 C274 383 307 423 366 423 L366 423 Z M341 304 C386 304 406 284 406 237 C406 189 382 161 336 161 C287 161 266 205 266 269 L266 277 C283 289 311 304 341 304 L341 304 Z " />
<glyph glyph-name="uni2786" unicode="&#x2786;" horiz-adv-x="707" d="M353 -8 C518 -8 653 126 653 291 C653 456 518 591 353 591 C187 591 53 456 53 291 C53 126 187 -8 353 -8 L353 -8 Z M353 16 C202 16 79 140 79 291 C79 442 202 567 353 567 C504 567 627 442 627 291 C627 140 504 16 353 16 L353 16 Z M307 139 L443 425 L443 445 L255 445 L255 419 L409 419 L275 141 L276 139 L307 139 Z " />
<glyph glyph-name="uni2787" unicode="&#x2787;" horiz-adv-x="707" d="M353 -8 C518 -8 653 126 653 291 C653 456 518 591 353 591 C187 591 53 456 53 291 C53 126 187 -8 353 -8 L353 -8 Z M353 16 C202 16 79 140 79 291 C79 442 202 567 353 567 C504 567 627 442 627 291 C627 140 504 16 353 16 L353 16 Z M450 221 C450 262 422 281 389 294 C419 311 444 339 444 374 C444 421 406 450 347 450 C294 450 255 414 255 369 C255 332 276 313 303 300 C272 284 247 253 247 219 C247 168 282 135 344 135 C405 135 450 171 450 221 L450 221 Z M411 371 C411 344 394 322 365 304 C325 317 286 330 286 370 C286 405 312 423 346 423 C392 423 411 400 411 371 L411 371 Z M279 220 C279 253 298 275 322 290 C366 272 417 262 417 219 C417 174 380 161 347 161 C308 161 279 180 279 220 L279 220 Z " />
<glyph glyph-name="uni2788" unicode="&#x2788;" horiz-adv-x="707" d="M353 -8 C518 -8 653 126 653 291 C653 456 518 591 353 591 C187 591 53 456 53 291 C53 126 187 -8 353 -8 L353 -8 Z M353 16 C202 16 79 140 79 291 C79 442 202 567 353 567 C504 567 627 442 627 291 C627 140 504 16 353 16 L353 16 Z M321 161 C305 161 287 163 264 173 L264 144 C282 138 303 135 320 135 C403 135 454 206 454 316 C454 392 421 450 352 450 C286 450 246 405 246 344 C246 280 285 255 338 255 C368 255 400 269 418 283 C412 202 378 161 321 161 L321 161 Z M345 281 C300 281 280 300 280 348 C280 399 304 424 351 424 C400 424 420 380 420 316 L420 308 C403 296 376 281 345 281 L345 281 Z " />
<glyph glyph-name="uni278A" unicode="&#x278a;" horiz-adv-x="707" d="M353 -8 C518 -8 653 126 653 291 C653 456 518 591 353 591 C187 591 53 456 53 291 C53 126 187 -8 353 -8 L353 -8 Z M335 139 L335 416 L260 396 L260 421 L346 450 L367 450 L367 139 L335 139 Z " />
<glyph glyph-name="uni278B" unicode="&#x278b;" horiz-adv-x="707" d="M353 -8 C518 -8 653 126 653 291 C653 456 518 591 353 591 C187 591 53 456 53 291 C53 126 187 -8 353 -8 L353 -8 Z M241 162 C321 225 407 296 407 361 C407 402 381 423 338 423 C312 423 287 419 251 394 L251 422 C277 441 311 450 341 450 C397 450 440 424 440 363 C440 296 362 225 290 170 L286 167 L452 167 L452 139 L241 139 L241 162 Z " />
<glyph glyph-name="uni278C" unicode="&#x278c;" horiz-adv-x="707" d="M353 -8 C518 -8 653 126 653 291 C653 456 518 591 353 591 C187 591 53 456 53 291 C53 126 187 -8 353 -8 L353 -8 Z M335 135 C301 135 277 141 261 149 L261 178 C288 165 316 161 342 161 C390 161 415 188 415 223 C415 265 378 283 318 285 L318 307 C358 311 400 340 400 376 C400 405 380 423 344 423 C317 423 293 416 264 394 L264 423 C288 441 317 450 346 450 C399 450 433 424 433 381 C433 331 385 307 366 303 L366 301 C406 299 448 274 448 227 C448 160 393 135 335 135 L335 135 Z " />
<glyph glyph-name="uni278D" unicode="&#x278d;" horiz-adv-x="707" d="M353 -8 C518 -8 653 126 653 291 C653 456 518 591 353 591 C187 591 53 456 53 291 C53 126 187 -8 353 -8 L353 -8 Z M353 224 L211 224 L211 250 L356 450 L386 450 L386 249 L432 249 L432 224 L386 224 L386 139 L353 139 L353 224 Z M353 249 L353 403 L243 249 L353 249 Z " />
<glyph glyph-name="uni278E" unicode="&#x278e;" horiz-adv-x="707" d="M353 -8 C518 -8 653 126 653 291 C653 456 518 591 353 591 C187 591 53 456 53 291 C53 126 187 -8 353 -8 L353 -8 Z M330 135 C294 135 269 142 251 149 L251 178 C278 166 305 161 332 161 C374 161 406 187 406 230 C406 281 371 297 309 297 C295 297 280 296 265 294 L277 445 L433 445 L433 419 L303 419 L295 321 C301 322 312 323 320 323 C390 323 439 301 439 232 C439 165 382 135 330 135 L330 135 Z " />
<glyph glyph-name="uni278F" unicode="&#x278f;" horiz-adv-x="707" d="M353 -8 C518 -8 653 126 653 291 C653 456 518 591 353 591 C187 591 53 456 53 291 C53 126 187 -8 353 -8 L353 -8 Z M366 423 C307 423 274 383 268 302 C285 315 317 330 348 330 C401 330 440 305 440 240 C440 180 400 135 334 135 C265 135 232 193 232 269 C232 378 284 450 366 450 C383 450 404 447 422 441 L422 412 C399 422 381 423 366 423 L366 423 Z M341 304 C311 304 283 289 266 277 L266 269 C266 205 287 161 336 161 C382 161 406 189 406 237 C406 284 386 304 341 304 L341 304 Z " />
<glyph glyph-name="uni2790" unicode="&#x2790;" horiz-adv-x="707" d="M353 -8 C518 -8 653 126 653 291 C653 456 518 591 353 591 C187 591 53 456 53 291 C53 126 187 -8 353 -8 L353 -8 Z M276 139 L275 141 L409 419 L255 419 L255 445 L443 445 L443 425 L307 139 L276 139 Z " />
<glyph glyph-name="uni2791" unicode="&#x2791;" horiz-adv-x="707" d="M353 -8 C518 -8 653 126 653 291 C653 456 518 591 353 591 C187 591 53 456 53 291 C53 126 187 -8 353 -8 L353 -8 Z M450 221 C450 171 405 135 344 135 C282 135 247 168 247 219 C247 253 272 284 303 300 C276 313 255 332 255 369 C255 414 294 450 347 450 C406 450 444 421 444 374 C444 339 419 311 389 294 C422 281 450 262 450 221 L450 221 Z M411 371 C411 400 392 423 346 423 C312 423 286 405 286 370 C286 330 325 317 365 304 C394 322 411 344 411 371 L411 371 Z M279 220 C279 180 308 161 347 161 C380 161 417 174 417 219 C417 262 366 272 322 290 C298 275 279 253 279 220 L279 220 Z " />
<glyph glyph-name="uni2792" unicode="&#x2792;" horiz-adv-x="707" d="M353 -8 C518 -8 653 126 653 291 C653 456 518 591 353 591 C187 591 53 456 53 291 C53 126 187 -8 353 -8 L353 -8 Z M321 161 C378 161 412 202 418 283 C400 269 368 255 338 255 C285 255 246 280 246 344 C246 405 286 450 352 450 C421 450 454 392 454 316 C454 206 403 135 320 135 C303 135 282 138 264 144 L264 173 C287 163 305 161 321 161 L321 161 Z M345 281 C376 281 403 296 420 308 L420 316 C420 380 400 424 351 424 C304 424 280 399 280 348 C280 300 300 281 345 281 L345 281 Z " />
<glyph glyph-name="uni301A" unicode="&#x301a;" horiz-adv-x="376" d="M3 -181 L259 -181 L264 -147 L163 -147 L303 645 L404 645 L410 679 L154 679 L3 -181 Z M186 645 L266 645 L127 -147 L46 -147 L186 645 Z " />
<glyph glyph-name="uni301B" unicode="&#x301b;" horiz-adv-x="376" d="M370 679 L115 679 L109 645 L210 645 L70 -147 L-31 -147 L-36 -181 L219 -181 L370 679 Z M328 645 L188 -147 L108 -147 L247 645 L328 645 Z " />
<glyph glyph-name="apple" unicode="&#xf8ff;" horiz-adv-x="1241" d="M390 318 L401 318 L401 328 L411 328 L411 338 L421 338 L421 347 L431 347 L431 388 L420 388 L420 348 L401 348 L401 388 L390 388 L390 347 L400 347 L400 329 L390 329 L390 318 Z M350 338 L371 338 L371 348 L351 348 L351 377 L371 377 L371 388 L351 388 L351 398 L340 398 L340 388 L330 388 L330 377 L340 377 L340 347 L350 347 L350 338 Z M590 338 L611 338 L611 348 L591 348 L591 377 L611 377 L611 388 L591 388 L591 398 L580 398 L580 388 L570 388 L570 377 L580 377 L580 347 L590 347 L590 338 Z M700 338 L731 338 L731 348 L701 348 L701 357 L731 357 L731 378 L721 378 L721 388 L700 388 L700 378 L690 378 L690 347 L700 347 L700 338 Z M880 338 L911 338 L911 348 L881 348 L881 357 L911 357 L911 378 L901 378 L901 388 L880 388 L880 378 L870 378 L870 347 L880 347 L880 338 Z M110 347 L121 347 L121 357 L131 357 L131 368 L121 368 L121 378 L110 378 L110 368 L100 368 L100 357 L110 357 L110 347 Z M180 347 L191 347 L191 357 L201 357 L201 368 L191 368 L191 378 L180 378 L180 368 L170 368 L170 357 L180 357 L180 347 Z M270 347 L281 347 L281 357 L291 357 L291 368 L281 368 L281 378 L270 378 L270 368 L260 368 L260 357 L270 357 L270 347 Z M520 338 L541 338 L541 347 L551 347 L551 378 L541 378 L541 388 L520 388 L520 378 L510 378 L510 347 L520 347 L520 338 Z M630 338 L641 338 L641 377 L660 377 L660 338 L671 338 L671 378 L661 378 L661 388 L641 388 L641 408 L630 408 L630 338 Z M960 347 L971 347 L971 357 L981 357 L981 368 L971 368 L971 378 L960 378 L960 368 L950 368 L950 357 L960 357 L960 347 Z M1050 347 L1061 347 L1061 357 L1071 357 L1071 368 L1061 368 L1061 378 L1050 378 L1050 368 L1040 368 L1040 357 L1050 357 L1050 347 Z M1120 347 L1131 347 L1131 357 L1141 357 L1141 368 L1131 368 L1131 378 L1120 378 L1120 368 L1110 368 L1110 357 L1120 357 L1120 347 Z M450 318 L461 318 L461 338 L481 338 L481 347 L491 347 L491 378 L481 378 L481 388 L450 388 L450 318 Z M780 318 L791 318 L791 388 L760 388 L760 378 L750 378 L750 347 L760 347 L760 338 L780 338 L780 318 Z M820 338 L851 338 L851 388 L840 388 L840 348 L821 348 L821 388 L810 388 L810 347 L820 347 L820 338 Z M240 328 L251 328 L251 338 L261 338 L261 348 L250 348 L250 338 L240 338 L240 328 Z M250 377 L261 377 L261 388 L251 388 L251 398 L240 398 L240 387 L250 387 L250 377 Z M300 328 L311 328 L311 338 L301 338 L301 348 L290 348 L290 338 L300 338 L300 328 Z M290 377 L301 377 L301 387 L311 387 L311 398 L300 398 L300 388 L290 388 L290 377 Z M930 328 L941 328 L941 338 L951 338 L951 348 L940 348 L940 338 L930 338 L930 328 Z M940 377 L951 377 L951 388 L941 388 L941 398 L930 398 L930 387 L940 387 L940 377 Z M990 328 L1001 328 L1001 338 L991 338 L991 348 L980 348 L980 338 L990 338 L990 328 Z M980 377 L991 377 L991 387 L1001 387 L1001 398 L990 398 L990 388 L980 388 L980 377 Z M160 338 L171 338 L171 348 L160 348 L160 338 Z M160 377 L171 377 L171 388 L160 388 L160 377 Z M200 338 L211 338 L211 348 L200 348 L200 338 Z M200 377 L211 377 L211 388 L200 388 L200 377 Z M461 348 L461 377 L480 377 L480 348 L461 348 Z M521 348 L521 377 L540 377 L540 348 L521 348 Z M701 368 L701 377 L720 377 L720 368 L701 368 Z M761 348 L761 377 L780 377 L780 348 L761 348 Z M881 368 L881 377 L900 377 L900 368 L881 368 Z M1030 338 L1041 338 L1041 348 L1030 348 L1030 338 Z M1030 377 L1041 377 L1041 388 L1030 388 L1030 377 Z M1070 338 L1081 338 L1081 348 L1070 348 L1070 338 Z M1070 377 L1081 377 L1081 388 L1070 388 L1070 377 Z " />
<glyph glyph-name="f_f" unicode="&#xfb00;" horiz-adv-x="495" d="M51 418 L141 418 L63 -21 C47 -110 13 -156 -8 -174 C-47 -177 -85 -168 -112 -156 L-124 -194 C-96 -206 -64 -212 -31 -212 C-9 -212 11 -199 29 -179 C62 -192 136 -212 184 -212 C250 -212 303 -93 315 -23 L393 418 L507 418 L512 450 L398 450 L405 488 C417 557 437 591 469 619 C483 622 498 623 514 622 C535 621 558 617 581 608 L592 647 C577 653 554 659 533 659 C498 659 469 653 445 636 L437 630 C412 639 353 654 317 654 C282 654 253 648 229 631 C195 609 167 563 153 486 L146 450 L56 450 L51 418 Z M205 -177 C157 -179 86 -162 51 -150 C76 -110 93 -60 100 -23 L177 418 L356 418 L277 -21 C262 -110 226 -159 205 -177 L205 -177 Z M369 491 L361 450 L183 450 L189 483 C202 552 223 588 255 616 C276 620 294 620 311 617 C341 615 383 607 408 599 C391 574 377 538 369 491 L369 491 Z " />
<glyph glyph-name="fi" unicode="&#xfb01;" horiz-adv-x="436" d="M51 418 L140 418 L63 -21 C47 -110 13 -156 -8 -174 C-47 -177 -85 -168 -112 -156 L-124 -194 C-96 -206 -64 -212 -31 -212 C35 -212 88 -93 100 -23 L178 418 L354 418 L282 0 L320 0 L399 450 L183 450 L191 491 C203 560 222 594 254 622 C266 625 278 626 291 626 C314 626 341 622 367 611 L378 650 C363 656 339 662 318 662 C283 662 255 656 230 639 C196 617 168 571 154 494 L146 450 L56 450 L51 418 Z " />
<glyph glyph-name="fl" unicode="&#xfb02;" horiz-adv-x="442" d="M318 0 L433 653 L397 653 C380 657 358 659 336 659 C297 658 258 651 231 633 C196 611 168 564 154 487 L147 450 L56 450 L51 418 L141 418 L63 -21 C47 -110 13 -156 -8 -174 C-47 -177 -85 -168 -112 -156 L-124 -194 C-96 -206 -64 -212 -31 -212 C35 -212 88 -93 100 -23 L178 418 L291 418 L296 450 L184 450 L190 484 C202 553 222 587 254 615 C277 620 302 623 329 622 C350 621 370 618 388 614 L281 0 L318 0 Z " />
<glyph glyph-name="f_f_i" unicode="&#xfb03;" horiz-adv-x="650" d="M534 0 L613 450 L399 450 L406 489 C418 558 438 592 470 620 C484 623 499 624 515 623 C536 622 559 618 582 609 L593 648 C578 655 555 660 534 660 C504 660 481 656 459 645 C451 641 445 636 438 631 C414 640 353 655 317 655 C282 655 253 649 229 633 C195 610 167 564 153 487 L146 450 L56 450 L51 418 L141 418 L63 -21 C47 -110 13 -156 -8 -174 C-47 -177 -85 -168 -112 -156 L-124 -194 C-96 -206 -64 -212 -31 -212 C-9 -212 11 -199 29 -179 C63 -191 137 -212 185 -212 C251 -212 304 -93 316 -23 L393 418 L569 418 L497 0 L534 0 Z M279 -21 C263 -110 227 -159 206 -177 C158 -179 85 -162 51 -149 C76 -110 93 -60 100 -23 L177 418 L357 418 L279 -21 Z M189 484 C202 553 223 589 255 617 C268 620 280 621 292 621 C331 620 381 611 410 600 C392 574 378 538 370 492 L362 450 L183 450 L189 484 Z " />
<glyph glyph-name="f_f_l" unicode="&#xfb04;" horiz-adv-x="657" d="M533 0 L648 652 L619 652 C600 657 572 658 548 658 C508 658 470 651 444 633 L436 627 C411 636 352 650 316 650 C281 650 252 644 228 628 C194 606 166 560 152 482 L146 450 L56 450 L51 418 L140 418 L63 -21 C47 -110 13 -156 -8 -174 C-47 -177 -85 -168 -112 -156 L-124 -194 C-96 -206 -64 -212 -31 -212 C-9 -212 11 -199 29 -179 C62 -192 136 -212 184 -212 C250 -212 303 -93 315 -23 L392 418 L507 418 L512 450 L398 450 L404 484 C416 554 436 588 468 616 C489 620 511 622 534 622 C558 622 581 619 603 614 L495 0 L533 0 Z M277 -21 C262 -110 226 -159 205 -177 C157 -179 86 -162 51 -150 C76 -110 93 -60 100 -23 L177 418 L355 418 L277 -21 Z M188 479 C201 549 222 585 254 613 C272 616 288 616 303 615 C335 613 380 606 407 597 C390 571 376 535 368 487 L361 450 L183 450 L188 479 Z " />
</font>
</defs>
</svg>
