<svg xmlns="http://www.w3.org/2000/svg">
<defs>
<font id="Greta Sans Std SmBld">
<font-face  font-family="Greta Sans Std" units-per-em="1000" ascent="710" descent="-290" font-style="normal" font-weight="600" font-stretch="normal" cap-height="583" x-height="452" underline-position="-75" underline-thickness="50" />

<glyph glyph-name="NULL" d="" />
<glyph glyph-name="CR" unicode="&#xd;" horiz-adv-x="250" d="" />
<glyph glyph-name="space" unicode="&#x20;" horiz-adv-x="250" d="" />
<glyph glyph-name="exclam" unicode="&#x21;" horiz-adv-x="264" d="M78 330 L90 196 L173 196 L184 330 L184 583 L78 583 L78 330 Z M133 -8 C175 -8 205 25 205 61 C205 100 175 133 133 133 C92 133 61 99 61 61 C61 25 92 -8 133 -8 L133 -8 Z " />
<glyph glyph-name="quotedbl" unicode="&#x22;" horiz-adv-x="390" d="M65 460 L151 460 L166 672 L65 672 L65 460 Z M234 460 L320 460 L337 672 L234 672 L234 460 Z " />
<glyph glyph-name="numbersign" unicode="&#x23;" horiz-adv-x="630" d="M75 366 L181 366 L149 213 L45 213 L33 143 L135 143 L105 0 L180 0 L210 143 L350 143 L320 0 L395 0 L425 143 L543 143 L555 213 L439 213 L471 366 L585 366 L597 436 L486 436 L517 583 L442 583 L411 436 L271 436 L302 583 L227 583 L196 436 L87 436 L75 366 Z M256 366 L396 366 L364 213 L224 213 L256 366 Z " />
<glyph glyph-name="dollar" unicode="&#x24;" horiz-adv-x="474" d="M264 -86 L264 -3 C361 8 437 62 437 166 C437 273 348 308 264 340 L264 505 C320 502 375 483 415 459 L415 557 C381 575 326 589 264 592 L264 668 L201 668 L201 589 C113 575 43 517 43 423 C43 326 118 285 192 258 L201 254 L201 83 C142 88 84 107 48 128 L48 28 C96 8 149 -3 201 -5 L201 -86 L264 -86 Z M334 156 C334 117 306 92 264 84 L264 230 C305 212 334 191 334 156 L334 156 Z M146 440 C146 470 169 490 201 500 L201 365 C164 383 146 402 146 440 L146 440 Z " />
<glyph glyph-name="percent" unicode="&#x25;" horiz-adv-x="699" d="M165 290 C238 290 295 345 295 440 C295 544 238 593 165 593 C90 593 33 534 33 437 C33 338 90 290 165 290 L165 290 Z M169 346 C130 346 107 375 107 439 C107 511 125 534 162 534 C199 534 222 511 222 436 C222 369 201 346 169 346 L169 346 Z M358 370 L425 370 L555 563 L555 583 L477 583 L358 370 Z M535 -8 C608 -8 666 48 666 142 C666 246 608 295 535 295 C460 295 403 236 403 139 C403 41 460 -8 535 -8 L535 -8 Z M538 48 C500 48 477 77 477 141 C477 206 494 237 531 237 C570 237 591 213 591 138 C591 71 571 48 538 48 L538 48 Z M355 236 L289 236 L152 20 L152 0 L230 0 L355 236 Z " />
<glyph glyph-name="ampersand" unicode="&#x26;" horiz-adv-x="723" d="M660 340 L552 340 C537 280 506 221 465 174 C434 196 402 220 372 243 C354 256 337 269 321 282 C402 311 473 364 473 446 C473 524 400 593 291 593 C175 593 94 519 94 429 C94 390 114 351 146 313 C82 281 39 227 39 151 C39 56 122 -10 251 -10 C335 -10 406 16 465 57 C501 34 533 14 561 0 L700 0 L700 20 C652 48 597 83 540 122 C597 186 637 264 660 340 L660 340 Z M274 196 C310 166 349 137 387 110 C351 88 309 76 265 76 C185 76 145 119 145 173 C145 201 164 235 199 259 C222 238 247 217 274 196 L274 196 Z M200 433 C200 481 230 509 285 509 C335 509 366 479 366 436 C366 392 327 359 261 332 C225 367 200 402 200 433 L200 433 Z " />
<glyph glyph-name="quotesingle" unicode="&#x27;" horiz-adv-x="220" d="M65 460 L151 460 L167 672 L65 672 L65 460 Z " />
<glyph glyph-name="parenleft" unicode="&#x28;" horiz-adv-x="304" d="M283 -158 C248 -113 130 49 130 260 C130 466 243 605 280 646 L189 646 C153 608 42 458 42 259 C42 60 150 -111 190 -157 L283 -158 Z " />
<glyph glyph-name="parenright" unicode="&#x29;" horiz-adv-x="303" d="M22 646 C58 604 173 458 173 249 C173 41 59 -114 21 -157 L113 -157 C152 -117 262 51 262 250 C262 448 152 602 115 645 L22 646 Z " />
<glyph glyph-name="asterisk" unicode="&#x2a;" horiz-adv-x="383" d="M47 518 L154 474 L47 433 L82 371 L171 447 L156 330 L226 330 L208 446 L301 371 L337 434 L224 475 L336 518 L302 580 L207 504 L227 623 L157 623 L175 504 L83 580 L47 518 Z " />
<glyph glyph-name="plus" unicode="&#x2b;" horiz-adv-x="497" d="M38 260 L211 260 L211 87 L286 87 L286 260 L459 260 L459 332 L286 332 L286 505 L211 505 L211 332 L38 332 L38 260 Z " />
<glyph glyph-name="comma" unicode="&#x2c;" horiz-adv-x="257" d="M78 -185 C156 -120 202 -30 202 46 C202 92 170 122 124 122 C82 122 52 88 51 51 C78 36 85 15 85 -13 C85 -57 59 -114 24 -161 L78 -185 Z " />
<glyph glyph-name="&amp;#x2d;" unicode="&#x2d;" horiz-adv-x="355" d="M61 204 L293 204 L293 282 L61 282 L61 204 Z " />
<glyph glyph-name="&amp;#xad;" unicode="&#xad;" horiz-adv-x="355" d="M61 204 L293 204 L293 282 L61 282 L61 204 Z " />
<glyph glyph-name="period" unicode="&#x2e;" horiz-adv-x="250" d="M125 -8 C167 -8 197 25 197 61 C197 100 167 133 125 133 C84 133 53 99 53 61 C53 25 84 -8 125 -8 L125 -8 Z " />
<glyph glyph-name="slash" unicode="&#x2f;" horiz-adv-x="342" d="M30 -93 L112 -93 L313 674 L231 674 L30 -93 Z " />
<glyph glyph-name="zero" unicode="0" horiz-adv-x="539" d="M264 -8 C413 -8 489 113 489 299 C489 465 439 593 272 593 C122 593 49 473 49 283 C49 103 109 -8 264 -8 L264 -8 Z M270 77 C187 77 158 160 158 289 C158 409 183 506 266 506 C351 506 378 409 378 297 C378 170 356 77 270 77 L270 77 Z " />
<glyph glyph-name="one" unicode="1" horiz-adv-x="350" d="M272 0 L272 583 L210 583 L30 530 L30 448 L159 470 L159 0 L272 0 Z " />
<glyph glyph-name="two" unicode="2" horiz-adv-x="482" d="M44 0 L438 0 L438 93 L193 93 L193 96 C321 194 422 323 422 428 C422 541 332 593 230 593 C170 593 103 577 56 541 L56 451 C117 496 165 503 210 503 C264 503 314 469 314 413 C314 311 182 185 44 72 L44 0 Z " />
<glyph glyph-name="three" unicode="3" horiz-adv-x="458" d="M194 -8 C307 -8 413 52 413 172 C413 243 363 304 285 312 L285 317 C329 327 389 380 389 453 C389 537 326 593 213 593 C153 593 95 574 54 542 L54 450 C106 489 154 501 194 501 C252 501 285 470 285 425 C285 373 216 328 141 322 L141 257 C249 254 309 224 309 166 C309 118 264 79 202 79 C153 79 105 85 51 113 L51 20 C82 6 126 -8 194 -8 L194 -8 Z " />
<glyph glyph-name="four" unicode="4" horiz-adv-x="498" d="M382 0 L382 140 L465 140 L465 223 L382 223 L382 583 L277 583 L30 222 L30 140 L272 140 L272 0 L382 0 Z M117 223 L266 448 L272 448 L272 223 L117 223 Z " />
<glyph glyph-name="five" unicode="5" horiz-adv-x="456" d="M196 78 C149 78 98 89 48 114 L48 19 C85 5 133 -8 194 -8 C296 -8 409 52 409 179 C409 305 319 358 184 358 C174 358 165 358 156 357 L168 496 L399 496 L399 583 L92 583 L66 272 C91 275 121 278 147 278 C250 278 306 243 306 174 C306 118 259 78 196 78 L196 78 Z " />
<glyph glyph-name="six" unicode="6" horiz-adv-x="506" d="M431 480 L431 573 C392 587 345 593 309 593 C140 593 48 452 48 262 C48 96 111 -8 253 -8 C386 -8 467 86 467 198 C467 316 388 370 293 370 C237 370 193 353 160 336 C173 455 223 507 311 507 C346 507 384 503 431 480 L431 480 Z M261 292 C322 292 359 256 359 188 C359 116 319 75 259 75 C188 75 156 139 156 262 L156 265 C184 279 219 292 261 292 L261 292 Z " />
<glyph glyph-name="seven" unicode="7" horiz-adv-x="426" d="M173 0 L403 525 L403 583 L34 583 L34 496 L299 496 L72 5 L75 0 L173 0 Z " />
<glyph glyph-name="eight" unicode="8" horiz-adv-x="509" d="M462 161 C462 231 416 270 360 298 C413 331 451 384 451 446 C451 534 367 593 253 593 C141 593 62 512 62 431 C62 369 96 330 140 301 C86 269 47 210 47 155 C47 59 115 -9 246 -9 C368 -9 462 73 462 161 L462 161 Z M147 162 C147 206 167 239 198 269 C274 234 354 211 354 156 C354 98 304 71 253 71 C197 71 147 103 147 162 L147 162 Z M350 432 C350 400 332 360 294 326 C226 354 164 378 164 435 C164 481 205 509 253 509 C317 509 350 475 350 432 L350 432 Z " />
<glyph glyph-name="nine" unicode="9" horiz-adv-x="506" d="M75 105 L75 12 C114 -2 161 -8 197 -8 C366 -8 458 133 458 323 C458 489 395 593 253 593 C120 593 39 499 39 387 C39 269 118 215 213 215 C268 215 312 231 346 249 C332 129 282 78 195 78 C160 78 122 82 75 105 L75 105 Z M245 293 C184 293 147 329 147 397 C147 469 187 510 247 510 C318 510 350 446 350 323 L350 319 C321 305 286 293 245 293 L245 293 Z " />
<glyph glyph-name="colon" unicode="&#x3a;" horiz-adv-x="267" d="M133 -8 C175 -8 205 25 205 61 C205 100 175 133 133 133 C92 133 61 99 61 61 C61 25 92 -8 133 -8 L133 -8 Z M133 320 C175 320 205 353 205 389 C205 428 175 461 133 461 C92 461 61 427 61 389 C61 353 92 320 133 320 L133 320 Z " />
<glyph glyph-name="semicolon" unicode="&#x3b;" horiz-adv-x="279" d="M90 -185 C168 -120 214 -30 214 46 C214 92 182 122 136 122 C94 122 64 88 63 51 C90 36 97 15 97 -13 C97 -57 71 -114 36 -161 L90 -185 Z M139 320 C181 320 211 353 211 389 C211 428 181 461 139 461 C98 461 67 427 67 389 C67 353 98 320 139 320 L139 320 Z " />
<glyph glyph-name="less" unicode="&#x3c;" horiz-adv-x="490" d="M430 59 L430 142 L127 295 L127 298 L430 449 L431 531 L33 327 L33 263 L430 59 Z " />
<glyph glyph-name="equal" unicode="&#x3d;" horiz-adv-x="522" d="M62 164 L460 164 L460 238 L62 238 L62 164 Z M62 355 L460 355 L460 428 L62 428 L62 355 Z " />
<glyph glyph-name="greater" unicode="&#x3e;" horiz-adv-x="490" d="M457 263 L457 327 L59 531 L60 449 L359 298 L359 294 L60 142 L60 59 L457 263 Z " />
<glyph glyph-name="question" unicode="&#x3f;" horiz-adv-x="404" d="M127 196 L211 196 L211 265 C263 284 371 347 371 448 C371 548 292 592 191 592 C150 592 84 581 39 559 L39 473 C84 494 133 509 176 509 C224 509 262 490 262 438 C262 362 174 320 127 302 L127 196 Z M171 -8 C213 -8 243 25 243 61 C243 100 213 133 171 133 C131 133 99 99 99 61 C99 25 131 -8 171 -8 L171 -8 Z " />
<glyph glyph-name="at" unicode="&#x40;" horiz-adv-x="896" d="M476 5 L523 -9 C720 32 867 157 867 316 C867 515 709 647 504 647 C245 647 38 447 38 198 C38 -48 177 -202 427 -202 C542 -202 672 -165 745 -109 L745 -36 C665 -90 541 -131 449 -131 C238 -131 121 -14 121 202 C121 417 292 578 495 578 C684 578 788 468 788 303 C788 212 721 126 585 75 L575 82 L640 459 L555 459 L551 438 C520 450 487 458 467 458 C404 458 362 416 327 370 C287 317 264 200 264 103 C264 60 269 20 277 -8 L340 -8 L499 139 L476 5 Z M354 113 C353 127 352 142 352 156 C352 250 382 336 421 386 C426 388 433 388 440 388 C468 387 504 374 537 359 L514 226 L369 108 L354 113 Z " />
<glyph glyph-name="A" unicode="A" horiz-adv-x="560" d="M4 0 L114 0 L170 157 L370 157 L415 0 L539 0 L346 583 L231 583 L4 0 Z M225 310 L279 460 L284 460 L327 309 L344 248 L202 248 L225 310 Z " />
<glyph glyph-name="B" unicode="B" horiz-adv-x="549" d="M74 0 L287 0 C442 0 514 69 514 166 C514 273 432 302 382 309 L382 311 C439 330 477 374 477 439 C477 534 399 583 267 583 L74 583 L74 0 Z M231 256 C330 256 393 243 393 177 C393 112 342 88 263 88 L191 88 L191 256 L231 256 Z M240 495 C306 495 356 473 356 414 C356 363 318 339 234 339 L191 339 L191 495 L240 495 Z " />
<glyph glyph-name="C" unicode="C" horiz-adv-x="564" d="M341 -10 C419 -10 490 10 520 29 L520 127 C464 94 418 83 356 83 C239 83 164 154 164 300 C164 431 239 500 343 500 C406 500 460 490 520 454 L520 560 C484 574 437 593 344 593 C150 593 41 463 41 284 C41 93 155 -10 341 -10 L341 -10 Z " />
<glyph glyph-name="D" unicode="D" horiz-adv-x="638" d="M74 0 L263 0 C456 2 597 103 597 303 C597 519 444 582 259 583 L74 583 L74 0 Z M246 492 C388 492 473 440 473 291 C473 165 394 91 256 91 L191 91 L191 492 L246 492 Z " />
<glyph glyph-name="E" unicode="E" horiz-adv-x="496" d="M74 0 L457 0 L457 91 L191 91 L191 253 L404 253 L404 341 L191 341 L191 492 L450 492 L450 583 L74 583 L74 0 Z " />
<glyph glyph-name="F" unicode="F" horiz-adv-x="476" d="M74 0 L191 0 L191 226 L404 226 L404 314 L191 314 L191 492 L450 492 L450 583 L74 583 L74 0 Z " />
<glyph glyph-name="G" unicode="G" horiz-adv-x="604" d="M341 -10 C419 -10 484 10 548 45 L548 301 L432 301 L432 91 C408 86 384 83 357 83 C234 83 163 159 163 300 C163 431 249 500 353 500 C415 500 487 487 546 450 L546 556 C511 570 447 593 354 593 C159 593 41 463 41 284 C41 93 154 -10 341 -10 L341 -10 Z " />
<glyph glyph-name="H" unicode="H" horiz-adv-x="671" d="M480 0 L596 0 L596 583 L480 583 L480 344 L191 344 L191 583 L74 583 L74 0 L191 0 L191 253 L480 253 L480 0 Z " />
<glyph glyph-name="I" unicode="I" horiz-adv-x="265" d="M74 0 L191 0 L191 583 L74 583 L74 0 Z " />
<glyph glyph-name="J" unicode="J" horiz-adv-x="282" d="M80 -94 C167 2 212 89 212 179 L212 583 L96 583 L96 175 C96 96 49 37 -9 -46 L80 -94 Z " />
<glyph glyph-name="K" unicode="K" horiz-adv-x="562" d="M411 0 L549 0 L311 313 L553 583 L430 583 L199 308 L199 291 L411 0 Z M74 0 L191 0 L191 583 L74 583 L74 0 Z " />
<glyph glyph-name="L" unicode="L" horiz-adv-x="459" d="M74 0 L442 0 L442 91 L191 91 L191 583 L74 583 L74 0 Z " />
<glyph glyph-name="M" unicode="M" horiz-adv-x="790" d="M44 0 L154 0 L177 236 L194 405 L199 405 L256 238 L339 0 L433 0 L522 237 L582 399 L587 399 L603 235 L625 0 L745 0 L683 583 L549 583 L449 307 L403 183 L398 183 L355 303 L257 583 L109 583 L44 0 Z " />
<glyph glyph-name="N" unicode="N" horiz-adv-x="660" d="M74 0 L183 0 L183 398 L185 398 L483 0 L585 0 L585 583 L477 583 L477 195 L475 195 L175 583 L74 583 L74 0 Z " />
<glyph glyph-name="O" unicode="O" horiz-adv-x="651" d="M318 -10 C510 -10 610 143 610 311 C610 469 516 593 335 593 C151 593 41 459 41 278 C41 114 139 -10 318 -10 L318 -10 Z M324 81 C215 81 164 177 164 297 C164 420 219 503 327 503 C434 503 487 418 487 293 C487 177 439 81 324 81 L324 81 Z " />
<glyph glyph-name="P" unicode="P" horiz-adv-x="521" d="M74 0 L191 0 L191 201 L246 201 C412 201 492 290 492 396 C492 520 407 583 285 583 L74 583 L74 0 Z M236 495 C323 494 372 462 372 393 C372 309 314 292 226 290 L191 290 L191 495 L236 495 Z " />
<glyph glyph-name="Q" unicode="Q" horiz-adv-x="651" d="M318 -10 C337 -10 356 -8 374 -5 L486 -110 L639 -110 L641 -92 L462 25 C559 80 610 192 610 311 C610 469 516 593 335 593 C151 593 41 459 41 278 C41 114 139 -10 318 -10 L318 -10 Z M324 81 C215 81 164 177 164 297 C164 420 219 503 327 503 C434 503 487 418 487 293 C487 177 439 81 324 81 L324 81 Z " />
<glyph glyph-name="R" unicode="R" horiz-adv-x="548" d="M74 0 L191 0 L191 201 L246 201 C260 201 274 201 287 203 L403 0 L537 0 L390 231 C458 266 492 327 492 396 C492 520 407 583 285 583 L74 583 L74 0 Z M236 495 C323 494 372 462 372 393 C372 309 315 290 226 290 L191 290 L191 495 L236 495 Z " />
<glyph glyph-name="S" unicode="S" horiz-adv-x="485" d="M50 25 C106 3 165 -10 224 -10 C345 -10 447 47 447 166 C447 282 347 318 260 348 C191 372 155 390 155 435 C155 477 205 499 256 499 C317 499 382 480 424 454 L424 557 C385 577 323 593 249 593 C139 593 45 528 45 418 C45 319 115 280 192 252 C269 224 337 209 337 155 C337 110 293 83 234 83 C171 83 95 103 50 128 L50 25 Z " />
<glyph glyph-name="T" unicode="T" horiz-adv-x="553" d="M17 492 L217 492 L217 0 L333 0 L333 492 L536 492 L536 583 L17 583 L17 492 Z " />
<glyph glyph-name="U" unicode="U" horiz-adv-x="643" d="M324 -10 C447 -10 576 64 576 238 L576 583 L459 583 L459 240 C459 133 415 84 331 84 C245 84 185 124 185 230 L185 583 L68 583 L68 215 C68 53 189 -10 324 -10 L324 -10 Z " />
<glyph glyph-name="V" unicode="V" horiz-adv-x="586" d="M583 583 L462 583 L347 262 L299 127 L294 127 L250 266 L147 583 L19 583 L227 0 L344 0 L583 583 Z " />
<glyph glyph-name="W" unicode="W" horiz-adv-x="901" d="M893 583 L774 583 L692 299 L647 137 L642 137 L599 302 L523 583 L398 583 L312 299 L263 135 L258 135 L222 301 L156 583 L30 583 L178 0 L312 0 L396 268 L444 423 L449 423 L492 267 L565 0 L702 0 L893 583 Z " />
<glyph glyph-name="X" unicode="X" horiz-adv-x="566" d="M164 583 L25 583 L212 287 L4 0 L134 0 L269 210 L278 210 L399 0 L545 0 L350 305 L559 583 L429 583 L291 381 L284 381 L164 583 Z " />
<glyph glyph-name="Y" unicode="Y" horiz-adv-x="560" d="M556 583 L435 583 L347 415 L290 305 L286 305 L229 415 L139 583 L8 583 L221 212 L221 0 L337 0 L337 210 L556 583 Z " />
<glyph glyph-name="Z" unicode="Z" horiz-adv-x="518" d="M482 0 L482 91 L191 91 L498 580 L496 583 L39 583 L39 492 L319 492 L19 3 L21 0 L482 0 Z " />
<glyph glyph-name="bracketleft" unicode="&#x5b;" horiz-adv-x="270" d="M71 -181 L231 -181 L231 -109 L157 -109 L157 606 L231 606 L231 679 L71 679 L71 -181 Z " />
<glyph glyph-name="backslash" unicode="&#x5c;" horiz-adv-x="342" d="M111 674 L29 674 L230 -93 L312 -93 L111 674 Z " />
<glyph glyph-name="bracketright" unicode="&#x5d;" horiz-adv-x="271" d="M200 679 L39 679 L39 606 L114 606 L114 -109 L39 -109 L39 -181 L200 -181 L200 679 Z " />
<glyph glyph-name="asciicircum" unicode="&#x5e;" horiz-adv-x="448" d="M21 238 L122 238 L226 496 L230 496 L321 238 L423 238 L287 583 L173 583 L21 238 Z " />
<glyph glyph-name="underscore" unicode="&#x5f;" horiz-adv-x="639" d="M102 -163 L537 -163 L537 -86 L102 -86 L102 -163 Z " />
<glyph glyph-name="grave" unicode="&#x60;" horiz-adv-x="295" d="M248 529 L154 679 L46 679 L165 529 L248 529 Z " />
<glyph glyph-name="a" unicode="a" horiz-adv-x="469" d="M317 0 L425 0 L407 106 L407 317 C407 428 334 462 233 462 C175 462 99 448 59 433 L59 342 C102 356 166 369 214 369 C264 369 300 355 300 295 L300 253 L246 253 C116 253 32 208 32 116 C32 41 82 -8 163 -8 C223 -8 276 21 308 45 L317 0 Z M203 69 C162 69 139 90 139 130 C139 176 176 192 242 192 L300 192 L300 101 C270 83 235 69 203 69 L203 69 Z " />
<glyph glyph-name="b" unicode="b" horiz-adv-x="509" d="M236 -8 C363 -8 471 78 471 248 C471 383 408 462 301 462 C251 462 208 444 169 421 L169 653 L62 653 L62 16 C131 -2 180 -8 236 -8 L236 -8 Z M254 376 C327 376 360 330 360 234 C360 149 332 78 229 78 C210 78 189 80 169 83 L169 353 C195 365 225 376 254 376 L254 376 Z " />
<glyph glyph-name="c" unicode="c" horiz-adv-x="434" d="M253 -8 C311 -8 360 2 393 21 L393 106 C357 90 321 83 288 83 C203 83 148 127 148 228 C148 340 209 370 278 370 C316 370 354 364 394 342 L394 441 C360 457 317 462 266 462 C119 462 37 355 37 217 C37 77 109 -8 253 -8 L253 -8 Z " />
<glyph glyph-name="d" unicode="d" horiz-adv-x="521" d="M363 0 L472 0 L455 101 L455 653 L347 653 L347 455 C323 459 289 462 265 462 C145 462 37 367 37 205 C37 50 132 -8 213 -8 C271 -8 317 17 354 48 L363 0 Z M253 78 C182 78 148 128 148 221 C148 331 194 377 279 377 C300 377 326 373 347 368 L347 112 C310 90 285 78 253 78 L253 78 Z " />
<glyph glyph-name="e" unicode="e" horiz-adv-x="488" d="M261 -8 C333 -8 395 3 438 26 L438 106 C393 88 333 78 283 78 C203 78 153 115 146 201 L450 201 L450 241 C450 372 385 462 248 462 C118 462 38 362 38 217 C38 70 117 -8 261 -8 L261 -8 Z M247 376 C307 376 334 332 337 266 L147 266 C156 348 196 376 247 376 L247 376 Z " />
<glyph glyph-name="f" unicode="f" horiz-adv-x="324" d="M23 364 L90 364 L90 0 L198 0 L198 364 L304 364 L304 452 L198 452 L198 475 C198 545 231 572 282 572 C307 572 327 570 352 565 L352 654 C336 658 308 661 283 661 C158 661 90 598 90 481 L90 452 L23 452 L23 364 Z " />
<glyph glyph-name="g" unicode="g" horiz-adv-x="501" d="M239 167 C337 167 428 234 428 314 C428 340 421 363 411 383 L493 383 L493 458 L356 436 C323 453 282 462 237 462 C130 462 45 392 45 309 C45 243 83 203 138 183 L57 106 L57 43 L114 36 C65 8 21 -32 21 -82 C21 -161 97 -214 223 -214 C369 -214 474 -127 474 -28 C474 49 425 95 301 106 L159 119 L202 169 C214 168 226 167 239 167 L239 167 Z M262 20 C349 10 366 -10 366 -48 C366 -92 317 -137 241 -137 C161 -137 128 -102 128 -64 C128 -32 157 0 199 27 L262 20 Z M238 236 C188 236 152 263 152 316 C152 362 182 391 232 391 C284 391 318 363 318 313 C318 268 285 236 238 236 L238 236 Z " />
<glyph glyph-name="h" unicode="h" horiz-adv-x="529" d="M361 0 L469 0 L469 297 C469 415 417 461 331 461 C271 461 213 434 170 406 L170 653 L63 653 L63 0 L170 0 L170 331 C204 349 245 368 278 368 C344 368 361 336 361 262 L361 0 Z " />
<glyph glyph-name="i" unicode="i" horiz-adv-x="262" d="M24 364 L92 364 L92 0 L199 0 L199 452 L24 452 L24 364 Z M149 554 C188 554 219 577 219 617 C219 657 189 680 149 680 C109 680 78 657 78 617 C78 577 109 554 149 554 L149 554 Z " />
<glyph glyph-name="j" unicode="j" horiz-adv-x="263" d="M24 364 L92 364 L92 18 C92 -53 55 -130 24 -181 L102 -214 C166 -150 199 -51 199 32 L199 452 L24 452 L24 364 Z M148 554 C188 554 218 577 218 617 C218 657 188 680 148 680 C109 680 78 657 78 617 C78 577 109 554 148 554 L148 554 Z " />
<glyph glyph-name="k" unicode="k" horiz-adv-x="480" d="M334 0 L462 0 L300 255 L468 452 L347 452 L190 256 L190 235 L334 0 Z M63 0 L170 0 L170 653 L63 653 L63 0 Z " />
<glyph glyph-name="l" unicode="l" horiz-adv-x="241" d="M67 0 L174 0 L174 653 L67 653 L67 0 Z " />
<glyph glyph-name="m" unicode="m" horiz-adv-x="798" d="M630 0 L738 0 L738 297 C738 415 687 461 600 461 C534 461 478 429 436 398 C414 442 373 461 318 461 C257 461 204 433 164 405 L154 452 L48 452 L67 343 L67 0 L174 0 L174 336 C204 353 236 368 266 368 C332 368 348 336 348 262 L348 0 L456 0 L456 297 C456 310 455 323 454 334 C485 352 518 368 549 368 C615 368 630 336 630 262 L630 0 Z " />
<glyph glyph-name="n" unicode="n" horiz-adv-x="532" d="M67 0 L174 0 L174 331 C208 350 249 368 281 368 C347 368 364 336 364 262 L364 0 L472 0 L472 297 C472 415 420 461 334 461 C270 461 208 430 165 400 L154 452 L48 452 L67 343 L67 0 Z " />
<glyph glyph-name="o" unicode="o" horiz-adv-x="510" d="M249 -8 C387 -8 473 98 473 230 C473 390 399 462 258 462 C125 462 37 354 37 221 C37 65 115 -8 249 -8 L249 -8 Z M256 77 C173 77 148 142 148 227 C148 306 171 375 255 375 C345 375 362 303 362 226 C362 145 340 77 256 77 L256 77 Z " />
<glyph glyph-name="p" unicode="p" horiz-adv-x="514" d="M67 -207 L174 -207 L174 -3 C194 -6 217 -8 241 -8 C368 -8 476 78 476 248 C476 383 413 462 306 462 C251 462 204 441 162 413 L154 452 L48 452 L67 343 L67 -207 Z M259 376 C332 376 365 330 365 234 C365 149 337 78 234 78 C216 78 193 80 174 83 L174 353 C200 365 230 376 259 376 L259 376 Z " />
<glyph glyph-name="q" unicode="q" horiz-adv-x="517" d="M273 462 C145 462 37 368 37 208 C37 49 131 -8 216 -8 C268 -8 313 19 347 47 L347 -207 L455 -207 L455 440 C383 456 341 462 273 462 L273 462 Z M257 78 C182 78 148 123 148 226 C148 327 193 377 279 377 C302 377 326 374 347 369 L347 112 C316 94 286 78 257 78 L257 78 Z " />
<glyph glyph-name="r" unicode="r" horiz-adv-x="357" d="M67 0 L174 0 L174 314 C206 338 248 362 301 362 C314 362 327 361 341 357 L341 456 C325 460 311 461 295 461 C251 461 202 431 165 396 L154 452 L48 452 L67 343 L67 0 Z " />
<glyph glyph-name="s" unicode="s" horiz-adv-x="427" d="M202 -8 C301 -8 392 38 392 135 C392 233 312 256 243 272 C190 283 145 294 145 331 C145 359 179 377 222 377 C267 377 309 372 375 343 L375 434 C333 454 273 462 223 462 C126 462 40 410 40 321 C40 233 113 206 184 189 C240 175 291 165 291 128 C291 94 254 75 210 75 C161 75 113 84 44 109 L44 20 C89 4 141 -8 202 -8 L202 -8 Z " />
<glyph glyph-name="t" unicode="t" horiz-adv-x="388" d="M22 364 L100 364 L100 139 C99 43 160 -8 245 -8 C294 -8 338 -2 366 12 L366 93 C344 87 315 81 289 81 C241 81 208 94 207 155 L207 364 L357 364 L357 452 L207 452 L207 572 L100 572 L100 452 L22 452 L22 364 Z " />
<glyph glyph-name="u" unicode="u" horiz-adv-x="525" d="M458 452 L351 452 L351 120 C316 100 279 81 247 81 C185 81 168 111 168 179 L168 452 L60 452 L60 156 C60 38 111 -8 198 -8 C262 -8 317 23 359 52 L370 0 L477 0 L458 111 L458 452 Z " />
<glyph glyph-name="v" unicode="v" horiz-adv-x="482" d="M176 0 L298 0 L472 452 L359 452 L280 219 L245 114 L239 114 L208 218 L138 452 L18 452 L176 0 Z " />
<glyph glyph-name="w" unicode="w" horiz-adv-x="764" d="M749 452 L636 452 L578 250 L540 112 L535 112 L498 247 L441 452 L339 452 L271 242 L230 113 L225 113 L194 242 L142 452 L21 452 L161 0 L277 0 L346 213 L378 316 L385 316 L415 210 L475 0 L598 0 L749 452 Z " />
<glyph glyph-name="x" unicode="x" horiz-adv-x="494" d="M148 452 L21 452 L185 227 L9 0 L129 0 L240 159 L248 159 L351 0 L481 0 L315 236 L476 452 L364 452 L258 297 L249 297 L148 452 Z " />
<glyph glyph-name="y" unicode="y" horiz-adv-x="482" d="M224 -207 L305 18 L473 452 L359 452 L280 216 L246 114 L240 114 L211 213 L138 452 L18 452 L176 0 L198 0 L110 -204 L113 -207 L224 -207 Z " />
<glyph glyph-name="z" unicode="z" horiz-adv-x="449" d="M25 3 L26 0 L419 0 L419 88 L187 88 L417 450 L415 452 L35 452 L35 364 L253 364 L25 3 Z " />
<glyph glyph-name="braceleft" unicode="&#x7b;" horiz-adv-x="309" d="M242 -179 L272 -178 L271 -111 L250 -111 C177 -111 159 -91 165 -35 L181 144 C186 196 165 240 123 252 C167 268 189 301 182 366 L166 543 C160 600 184 613 250 613 L271 613 L272 681 C272 681 233 682 232 682 C143 683 73 651 83 550 L99 355 C104 311 85 287 36 287 L36 221 C86 221 104 194 99 152 L83 -38 C71 -150 152 -184 242 -179 L242 -179 Z " />
<glyph glyph-name="bar" unicode="&#x7c;" horiz-adv-x="237" d="M73 -92 L164 -92 L164 675 L73 675 L73 -92 Z " />
<glyph glyph-name="braceright" unicode="&#x7d;" horiz-adv-x="309" d="M67 679 L37 678 L38 611 L59 611 C132 611 150 591 144 535 L128 356 C123 304 144 260 186 248 C142 232 120 199 127 134 L143 -43 C149 -100 125 -113 59 -113 L38 -113 L37 -181 C37 -181 76 -182 77 -182 C166 -183 236 -151 226 -50 L210 145 C205 189 224 213 273 213 L273 279 C223 279 205 306 210 348 L226 538 C238 650 157 684 67 679 L67 679 Z " />
<glyph glyph-name="asciitilde" unicode="&#x7e;" horiz-adv-x="501" d="M332 218 C383 218 424 249 449 282 L409 336 C387 312 367 296 338 296 C272 296 244 343 167 343 C116 343 72 311 52 285 L87 232 C107 249 126 266 160 266 C221 266 266 218 332 218 L332 218 Z " />
<glyph glyph-name="uni00A0" unicode="&#xa0;" horiz-adv-x="250" d="" />
<glyph glyph-name="exclamdown" unicode="&#xa1;" horiz-adv-x="252" d="M72 -129 L178 -129 L178 124 L167 258 L84 258 L72 124 L72 -129 Z M127 462 C86 462 55 429 55 393 C55 355 86 321 127 321 C169 321 199 354 199 393 C199 429 169 462 127 462 L127 462 Z " />
<glyph glyph-name="cent" unicode="&#xa2;" horiz-adv-x="452" d="M245 -78 L309 -78 L309 -5 C345 -1 375 8 398 21 L398 106 C368 92 337 85 309 83 L309 369 C338 366 368 359 399 342 L399 441 C374 453 343 459 309 461 L309 540 L245 540 L245 460 C114 448 42 346 42 217 C42 81 110 -3 245 -8 L245 -78 Z M245 89 C188 104 153 147 153 228 C153 319 193 356 245 366 L245 89 Z " />
<glyph glyph-name="sterling" unicode="&#xa3;" horiz-adv-x="507" d="M224 187 C224 204 222 223 220 243 L384 243 L384 324 L206 324 C199 360 193 394 193 420 C193 468 236 504 293 504 C349 504 392 489 437 454 L437 557 C402 579 352 593 288 593 C202 593 90 540 90 420 C90 390 95 357 101 324 L47 324 L47 243 L118 243 C124 214 128 187 128 167 C128 138 120 112 106 84 L49 84 L49 0 L466 0 L466 84 L204 84 C216 118 224 154 224 187 L224 187 Z " />
<glyph glyph-name="currency" unicode="&#xa4;" horiz-adv-x="514" d="M88 496 L46 458 L117 387 C98 363 87 324 87 286 C87 249 101 210 118 185 L46 116 L86 76 L157 145 C185 124 222 115 257 115 C294 115 330 126 359 143 L429 73 L467 115 L398 183 C419 208 430 247 430 286 C430 324 420 363 400 387 L469 456 L428 499 L359 429 C330 450 294 458 257 458 C223 458 184 444 156 427 L88 496 Z M162 286 C162 339 189 384 257 384 C327 384 352 332 352 286 C352 236 327 188 257 188 C192 188 162 239 162 286 L162 286 Z " />
<glyph glyph-name="yen" unicode="&#xa5;" horiz-adv-x="622" d="M546 184 L364 184 L364 200 L389 244 L545 244 L545 317 L431 317 L584 583 L463 583 L317 295 L313 295 L167 583 L36 583 L184 317 L75 317 L75 244 L225 244 L248 203 L248 184 L75 184 L75 110 L248 110 L248 0 L364 0 L364 110 L546 110 L546 184 Z " />
<glyph glyph-name="brokenbar" unicode="&#xa6;" horiz-adv-x="241" d="M75 -92 L167 -92 L167 206 L75 206 L75 -92 Z M75 381 L167 381 L167 675 L75 675 L75 381 Z " />
<glyph glyph-name="section" unicode="&#xa7;" horiz-adv-x="487" d="M217 -118 C324 -118 440 -41 440 100 C440 196 409 263 323 337 L163 466 C194 495 241 506 274 506 C325 506 385 490 432 465 L432 560 C399 575 344 592 266 592 C159 592 47 514 47 380 C47 287 79 216 163 141 L319 6 C289 -22 245 -31 211 -31 C159 -31 100 -13 53 10 L53 -87 C84 -99 139 -118 217 -118 L217 -118 Z M243 292 C325 225 353 170 353 93 L353 86 L241 185 C175 244 130 308 130 385 L243 292 Z " />
<glyph glyph-name="dieresis" unicode="&#xa8;" horiz-adv-x="388" d="M101 555 C136 555 162 577 162 614 C162 652 137 673 101 673 C66 673 40 652 40 614 C40 577 66 555 101 555 L101 555 Z M290 555 C325 555 351 577 351 614 C351 652 325 673 290 673 C256 673 229 652 229 614 C229 577 256 555 290 555 L290 555 Z " />
<glyph glyph-name="copyright" unicode="&#xa9;" horiz-adv-x="695" d="M348 -14 C515 -14 651 117 651 289 C651 460 515 592 348 592 C181 592 45 460 45 289 C45 117 181 -14 348 -14 L348 -14 Z M348 21 C198 21 80 139 80 289 C80 439 198 557 348 557 C498 557 615 439 615 289 C615 139 498 21 348 21 L348 21 Z M358 114 C407 114 453 126 472 137 L472 206 C436 186 407 180 368 180 C300 180 256 216 256 292 C256 360 299 401 360 401 C399 401 434 395 472 375 L472 448 C449 456 419 467 360 467 C238 467 167 391 167 287 C167 166 248 114 358 114 L358 114 Z " />
<glyph glyph-name="ordfeminine" unicode="&#xaa;" horiz-adv-x="409" d="M261 273 L348 273 L335 346 L335 491 C335 570 281 593 206 593 C163 593 108 583 79 573 L79 501 C111 510 156 519 190 519 C226 519 249 509 249 468 L249 448 L219 448 C125 448 59 418 59 353 C59 301 92 267 153 267 C197 267 233 287 255 304 L261 273 Z M60 170 L354 170 L354 228 L60 228 L60 170 Z M193 326 C164 326 147 336 147 364 C147 395 176 405 223 405 L249 405 L249 345 C231 334 214 326 193 326 L193 326 Z " />
<glyph glyph-name="guillemotleft" unicode="&#xab;" horiz-adv-x="453" d="M137 46 L230 46 L159 226 L230 405 L139 405 L42 226 L137 46 Z M309 46 L402 46 L331 226 L402 405 L311 405 L214 226 L309 46 Z " />
<glyph glyph-name="logicalnot" unicode="&#xac;" horiz-adv-x="498" d="M353 100 L432 100 L432 332 L59 332 L59 256 L353 256 L353 100 Z " />
<glyph glyph-name="registered" unicode="&#xae;" horiz-adv-x="471" d="M235 265 C341 265 425 343 425 454 C425 564 341 644 235 644 C129 644 46 563 46 454 C46 344 129 265 235 265 L235 265 Z M235 295 C142 295 77 363 77 454 C77 545 142 614 235 614 C329 614 393 545 393 454 C393 359 326 295 235 295 L235 295 Z M160 360 L210 360 L210 420 L244 420 L278 360 L334 360 L288 433 C308 445 320 465 320 491 C320 534 289 558 242 558 L160 558 L160 360 Z M223 519 C253 519 268 513 268 490 C268 463 249 459 220 459 L210 459 L210 519 L223 519 Z " />
<glyph glyph-name="macron" unicode="&#xaf;" horiz-adv-x="374" d="M59 558 L324 558 L324 643 L59 643 L59 558 Z " />
<glyph glyph-name="degree" unicode="&#xb0;" horiz-adv-x="403" d="M199 302 C294 302 358 366 358 448 C358 533 300 593 205 593 C111 593 46 531 46 447 C46 362 105 302 199 302 L199 302 Z M202 364 C162 364 126 385 126 446 C126 500 161 531 201 531 C243 531 276 506 276 448 C276 387 244 364 202 364 L202 364 Z " />
<glyph glyph-name="plusminus" unicode="&#xb1;" horiz-adv-x="520" d="M61 295 L223 295 L223 142 L298 142 L298 295 L461 295 L461 368 L298 368 L298 526 L223 526 L223 368 L61 368 L61 295 Z M55 26 L464 26 L464 101 L55 101 L55 26 Z " />
<glyph glyph-name="twosuperior" unicode="&#xb2;" horiz-adv-x="281" d="M171 616 C171 561 103 509 23 446 L23 400 L257 400 L257 460 L131 460 L130 463 C205 519 250 571 250 625 C250 689 195 715 134 715 C98 715 56 706 29 685 L29 627 C64 652 96 657 122 657 C149 657 171 644 171 616 L171 616 Z " />
<glyph glyph-name="threesuperior" unicode="&#xb3;" horiz-adv-x="268" d="M113 396 C185 396 245 427 245 494 C245 531 220 564 173 569 L173 571 C201 578 231 601 231 641 C231 689 184 715 124 715 C87 715 54 705 30 686 L30 628 C60 650 88 655 110 655 C136 655 155 645 155 623 C155 595 122 578 78 575 L78 533 C142 531 169 520 169 490 C169 467 149 452 116 452 C88 452 60 455 27 471 L27 411 C46 403 72 396 113 396 L113 396 Z " />
<glyph glyph-name="acute" unicode="&#xb4;" horiz-adv-x="295" d="M149 529 L270 679 L163 679 L66 529 L149 529 Z " />
<glyph glyph-name="mu" unicode="&#xb5;" horiz-adv-x="578" d="M71 -207 L179 -207 L179 4 C193 -4 217 -8 233 -7 C281 -6 324 18 361 50 C376 8 418 -6 463 -6 C494 -6 521 0 546 11 L546 77 C528 75 511 75 500 75 C472 75 463 92 463 132 L463 452 L356 452 L356 120 C326 100 286 83 258 83 C208 83 179 103 179 173 L179 452 L71 452 L71 -207 Z " />
<glyph glyph-name="paragraph" unicode="&#xb6;" horiz-adv-x="618" d="M283 -207 L377 -207 L377 498 L448 498 L448 -207 L542 -207 L542 583 L287 583 C129 583 27 504 27 374 C27 233 138 167 283 163 L283 -207 Z " />
<glyph glyph-name="periodcentered" unicode="&#xb7;" horiz-adv-x="256" d="M128 251 C168 251 198 274 198 314 C198 354 168 377 128 377 C89 377 58 354 58 314 C58 274 89 251 128 251 L128 251 Z " />
<glyph glyph-name="cedilla" unicode="&#xb8;" horiz-adv-x="307" d="M151 -219 C224 -219 267 -180 267 -131 C267 -85 233 -53 184 -43 L205 13 L143 13 L111 -61 L111 -76 C161 -75 188 -98 188 -124 C188 -143 176 -158 140 -158 C121 -158 86 -147 71 -137 L64 -199 C82 -211 123 -219 151 -219 L151 -219 Z " />
<glyph glyph-name="onesuperior" unicode="&#xb9;" horiz-adv-x="208" d="M163 400 L163 713 L116 713 L10 683 L10 631 L81 641 L81 400 L163 400 Z " />
<glyph glyph-name="ordmasculine" unicode="&#xba;" horiz-adv-x="433" d="M213 265 C315 265 378 331 378 432 C378 543 324 593 220 593 C121 593 56 525 56 425 C56 317 113 265 213 265 L213 265 Z M59 170 L374 170 L374 228 L59 228 L59 170 Z M218 328 C168 328 149 371 149 430 C149 483 166 530 217 530 C272 530 287 481 287 429 C287 374 269 328 218 328 L218 328 Z " />
<glyph glyph-name="guillemotright" unicode="&#xbb;" horiz-adv-x="453" d="M142 408 L49 408 L120 228 L49 49 L140 49 L237 228 L142 408 Z M315 408 L222 408 L293 228 L222 49 L313 49 L410 228 L315 408 Z " />
<glyph glyph-name="onequarter" unicode="&#xbc;" horiz-adv-x="652" d="M186 255 L186 568 L139 568 L33 538 L33 486 L104 496 L104 255 L186 255 Z M494 0 L575 0 L575 72 L618 72 L618 125 L575 125 L575 313 L495 313 L355 123 L355 72 L494 72 L494 0 Z M418 125 L490 230 L494 230 L494 125 L418 125 Z M166 0 L525 543 L525 548 L456 548 L98 5 L98 0 L166 0 Z " />
<glyph glyph-name="onehalf" unicode="&#xbd;" horiz-adv-x="672" d="M186 255 L186 568 L139 568 L33 538 L33 486 L104 496 L104 255 L186 255 Z M546 216 C546 161 478 109 398 46 L398 0 L632 0 L632 60 L506 60 L505 63 C580 119 625 171 625 225 C625 289 570 315 509 315 C473 315 431 306 404 285 L404 227 C439 252 471 257 497 257 C524 257 546 244 546 216 L546 216 Z M165 0 L524 543 L524 548 L455 548 L97 5 L97 0 L165 0 Z " />
<glyph glyph-name="threequarters" unicode="&#xbe;" horiz-adv-x="661" d="M132 252 C204 252 264 283 264 350 C264 387 239 420 192 425 L192 427 C220 434 250 457 250 497 C250 545 203 571 143 571 C106 571 73 561 49 542 L49 484 C79 506 107 511 129 511 C155 511 174 501 174 479 C174 451 141 434 97 431 L97 389 C161 387 188 376 188 346 C188 323 168 308 135 308 C107 308 79 311 46 327 L46 267 C65 259 91 252 132 252 L132 252 Z M502 0 L583 0 L583 72 L626 72 L626 125 L583 125 L583 313 L503 313 L363 123 L363 72 L502 72 L502 0 Z M426 125 L498 230 L502 230 L502 125 L426 125 Z M186 0 L545 543 L545 548 L476 548 L118 5 L118 0 L186 0 Z " />
<glyph glyph-name="questiondown" unicode="&#xbf;" horiz-adv-x="398" d="M274 258 L190 258 L190 189 C138 170 30 107 30 6 C30 -94 109 -138 210 -138 C251 -138 317 -127 362 -105 L362 -19 C317 -40 268 -55 225 -55 C177 -55 139 -36 139 16 C139 92 227 134 274 152 L274 258 Z M230 462 C188 462 158 429 158 393 C158 354 188 321 230 321 C270 321 302 355 302 393 C302 429 270 462 230 462 L230 462 Z " />
<glyph glyph-name="Agrave" unicode="&#xc0;" horiz-adv-x="560" d="M4 0 L114 0 L170 157 L370 157 L415 0 L539 0 L346 583 L231 583 L4 0 Z M225 310 L279 460 L284 460 L327 309 L344 248 L202 248 L225 310 Z M331 633 L244 766 L137 766 L248 633 L331 633 Z " />
<glyph glyph-name="Aacute" unicode="&#xc1;" horiz-adv-x="560" d="M4 0 L114 0 L170 157 L370 157 L415 0 L539 0 L346 583 L231 583 L4 0 Z M225 310 L279 460 L284 460 L327 309 L344 248 L202 248 L225 310 Z M320 633 L431 766 L324 766 L237 633 L320 633 Z " />
<glyph glyph-name="Acircumflex" unicode="&#xc2;" horiz-adv-x="560" d="M4 0 L114 0 L170 157 L370 157 L415 0 L539 0 L346 583 L231 583 L4 0 Z M249 774 L129 633 L231 633 L287 708 L290 708 L344 633 L446 633 L336 774 L249 774 Z M225 310 L279 460 L284 460 L327 309 L344 248 L202 248 L225 310 Z " />
<glyph glyph-name="Atilde" unicode="&#xc3;" horiz-adv-x="560" d="M4 0 L114 0 L170 157 L370 157 L415 0 L539 0 L346 583 L231 583 L4 0 Z M412 741 C401 727 379 710 352 710 C316 710 282 743 239 743 C195 743 160 714 142 690 L170 634 C188 655 207 665 231 665 C268 665 302 632 346 632 C388 632 424 661 441 682 L412 741 Z M225 310 L279 460 L284 460 L327 309 L344 248 L202 248 L225 310 Z " />
<glyph glyph-name="Adieresis" unicode="&#xc4;" horiz-adv-x="560" d="M4 0 L114 0 L170 157 L370 157 L415 0 L539 0 L346 583 L231 583 L4 0 Z M225 310 L279 460 L284 460 L327 309 L344 248 L202 248 L225 310 Z M190 630 C225 630 251 651 251 688 C251 726 225 748 190 748 C155 748 129 727 129 688 C129 651 155 630 190 630 L190 630 Z M379 630 C414 630 440 651 440 688 C440 726 414 748 379 748 C345 748 318 727 318 688 C318 651 345 630 379 630 L379 630 Z " />
<glyph glyph-name="Aring" unicode="&#xc5;" horiz-adv-x="560" d="M4 0 L114 0 L170 157 L370 157 L415 0 L539 0 L346 583 L231 583 L4 0 Z M289 791 C241 791 188 760 188 700 C188 640 237 608 289 608 C342 608 393 643 393 700 C393 760 342 791 289 791 L289 791 Z M225 310 L279 460 L284 460 L327 309 L344 248 L202 248 L225 310 Z M289 659 C262 659 251 674 251 700 C251 722 262 740 289 740 C317 740 330 724 330 700 C330 675 317 659 289 659 L289 659 Z " />
<glyph glyph-name="AE" unicode="&#xc6;" horiz-adv-x="775" d="M354 0 L737 0 L737 91 L470 91 L470 253 L684 253 L684 341 L470 341 L470 492 L730 492 L730 583 L307 583 L-2 0 L111 0 L191 157 L354 157 L354 0 Z M345 460 L354 460 L354 248 L237 248 L345 460 Z " />
<glyph glyph-name="Ccedilla" unicode="&#xc7;" horiz-adv-x="564" d="M308 -218 C381 -218 424 -179 424 -130 C424 -84 390 -52 341 -42 L353 -10 C426 -8 491 11 520 29 L520 127 C464 94 418 83 356 83 C239 83 164 154 164 300 C164 431 239 500 343 500 C406 500 460 490 520 454 L520 560 C484 574 437 593 344 593 C150 593 41 463 41 284 C41 111 135 10 291 -7 L268 -60 L268 -75 C318 -74 345 -97 345 -123 C345 -142 333 -157 297 -157 C278 -157 243 -146 228 -136 L221 -198 C239 -210 280 -218 308 -218 L308 -218 Z " />
<glyph glyph-name="Egrave" unicode="&#xc8;" horiz-adv-x="496" d="M74 0 L457 0 L457 91 L191 91 L191 253 L404 253 L404 341 L191 341 L191 492 L450 492 L450 583 L74 583 L74 0 Z M349 633 L262 766 L155 766 L266 633 L349 633 Z " />
<glyph glyph-name="Eacute" unicode="&#xc9;" horiz-adv-x="496" d="M74 0 L457 0 L457 91 L191 91 L191 253 L404 253 L404 341 L191 341 L191 492 L450 492 L450 583 L74 583 L74 0 Z M281 633 L392 766 L285 766 L198 633 L281 633 Z " />
<glyph glyph-name="Ecircumflex" unicode="&#xca;" horiz-adv-x="496" d="M74 0 L457 0 L457 91 L191 91 L191 253 L404 253 L404 341 L191 341 L191 492 L450 492 L450 583 L74 583 L74 0 Z M238 773 L118 632 L220 632 L276 707 L279 707 L333 632 L435 632 L325 773 L238 773 Z " />
<glyph glyph-name="Edieresis" unicode="&#xcb;" horiz-adv-x="496" d="M74 0 L457 0 L457 91 L191 91 L191 253 L404 253 L404 341 L191 341 L191 492 L450 492 L450 583 L74 583 L74 0 Z M174 631 C209 631 235 652 235 689 C235 727 209 749 174 749 C139 749 113 728 113 689 C113 652 139 631 174 631 L174 631 Z M363 631 C398 631 424 652 424 689 C424 727 398 749 363 749 C329 749 302 728 302 689 C302 652 329 631 363 631 L363 631 Z " />
<glyph glyph-name="Igrave" unicode="&#xcc;" horiz-adv-x="265" d="M185 633 L98 766 L-9 766 L102 633 L185 633 Z M74 0 L191 0 L191 583 L74 583 L74 0 Z " />
<glyph glyph-name="Iacute" unicode="&#xcd;" horiz-adv-x="265" d="M74 0 L191 0 L191 583 L74 583 L74 0 Z M165 633 L276 766 L169 766 L82 633 L165 633 Z " />
<glyph glyph-name="Icircumflex" unicode="&#xce;" horiz-adv-x="265" d="M74 0 L191 0 L191 583 L74 583 L74 0 Z M91 773 L-29 632 L73 632 L129 707 L132 707 L186 632 L288 632 L178 773 L91 773 Z " />
<glyph glyph-name="Idieresis" unicode="&#xcf;" horiz-adv-x="265" d="M74 0 L191 0 L191 583 L74 583 L74 0 Z M40 631 C75 631 101 652 101 689 C101 727 75 749 40 749 C5 749 -21 728 -21 689 C-21 652 5 631 40 631 L40 631 Z M229 631 C264 631 290 652 290 689 C290 727 264 749 229 749 C195 749 168 728 168 689 C168 652 195 631 229 631 L229 631 Z " />
<glyph glyph-name="Eth" unicode="&#xd0;" horiz-adv-x="642" d="M21 259 L78 259 L78 0 L267 0 C460 2 601 103 601 303 C601 519 448 582 263 583 L78 583 L78 333 L21 333 L21 259 Z M320 259 L320 333 L195 333 L195 492 L250 492 C392 492 477 440 477 291 C477 165 398 91 260 91 L195 91 L195 259 L320 259 Z " />
<glyph glyph-name="Ntilde" unicode="&#xd1;" horiz-adv-x="660" d="M464 741 C453 727 431 710 404 710 C368 710 334 743 291 743 C247 743 212 714 194 690 L222 634 C240 655 259 665 283 665 C320 665 354 632 398 632 C440 632 476 661 493 682 L464 741 Z M74 0 L183 0 L183 398 L185 398 L483 0 L585 0 L585 583 L477 583 L477 195 L475 195 L175 583 L74 583 L74 0 Z " />
<glyph glyph-name="Ograve" unicode="&#xd2;" horiz-adv-x="651" d="M367 633 L280 766 L173 766 L284 633 L367 633 Z M318 -10 C510 -10 610 143 610 311 C610 469 516 593 335 593 C151 593 41 459 41 278 C41 114 139 -10 318 -10 L318 -10 Z M324 81 C215 81 164 177 164 297 C164 420 219 503 327 503 C434 503 487 418 487 293 C487 177 439 81 324 81 L324 81 Z " />
<glyph glyph-name="Oacute" unicode="&#xd3;" horiz-adv-x="651" d="M351 633 L462 766 L355 766 L268 633 L351 633 Z M318 -10 C510 -10 610 143 610 311 C610 469 516 593 335 593 C151 593 41 459 41 278 C41 114 139 -10 318 -10 L318 -10 Z M324 81 C215 81 164 177 164 297 C164 420 219 503 327 503 C434 503 487 418 487 293 C487 177 439 81 324 81 L324 81 Z " />
<glyph glyph-name="Ocircumflex" unicode="&#xd4;" horiz-adv-x="651" d="M318 -10 C510 -10 610 143 610 311 C610 469 516 593 335 593 C151 593 41 459 41 278 C41 114 139 -10 318 -10 L318 -10 Z M324 81 C215 81 164 177 164 297 C164 420 219 503 327 503 C434 503 487 418 487 293 C487 177 439 81 324 81 L324 81 Z M291 774 L171 633 L273 633 L329 708 L332 708 L386 633 L488 633 L378 774 L291 774 Z " />
<glyph glyph-name="Otilde" unicode="&#xd5;" horiz-adv-x="651" d="M456 740 C445 726 423 709 396 709 C360 709 326 742 283 742 C239 742 204 713 186 689 L214 633 C232 654 251 664 275 664 C312 664 346 631 390 631 C432 631 468 660 485 681 L456 740 Z M318 -10 C510 -10 610 143 610 311 C610 469 516 593 335 593 C151 593 41 459 41 278 C41 114 139 -10 318 -10 L318 -10 Z M324 81 C215 81 164 177 164 297 C164 420 219 503 327 503 C434 503 487 418 487 293 C487 177 439 81 324 81 L324 81 Z " />
<glyph glyph-name="Odieresis" unicode="&#xd6;" horiz-adv-x="651" d="M231 630 C266 630 292 651 292 688 C292 726 266 748 231 748 C196 748 170 727 170 688 C170 651 196 630 231 630 L231 630 Z M420 630 C455 630 481 651 481 688 C481 726 455 748 420 748 C386 748 359 727 359 688 C359 651 386 630 420 630 L420 630 Z M318 -10 C510 -10 610 143 610 311 C610 469 516 593 335 593 C151 593 41 459 41 278 C41 114 139 -10 318 -10 L318 -10 Z M324 81 C215 81 164 177 164 297 C164 420 219 503 327 503 C434 503 487 418 487 293 C487 177 439 81 324 81 L324 81 Z " />
<glyph glyph-name="multiply" unicode="&#xd7;" horiz-adv-x="488" d="M98 98 L244 244 L390 98 L442 150 L296 296 L442 442 L390 494 L244 348 L98 494 L46 442 L192 296 L46 150 L98 98 Z " />
<glyph glyph-name="Oslash" unicode="&#xd8;" horiz-adv-x="651" d="M318 -10 C510 -10 610 143 610 311 C610 386 588 453 547 503 L624 593 L547 593 L504 543 C461 575 404 593 335 593 C151 593 41 459 41 278 C41 200 63 131 105 80 L28 -10 L105 -10 L148 40 C192 8 249 -10 318 -10 L318 -10 Z M164 297 C164 420 219 503 327 503 C372 503 407 488 433 461 L186 174 C171 209 164 251 164 297 L164 297 Z M324 81 C280 81 245 97 220 123 L466 410 C480 377 487 338 487 293 C487 177 439 81 324 81 L324 81 Z " />
<glyph glyph-name="Ugrave" unicode="&#xd9;" horiz-adv-x="643" d="M368 633 L281 766 L174 766 L285 633 L368 633 Z M324 -10 C447 -10 576 64 576 238 L576 583 L459 583 L459 240 C459 133 415 84 331 84 C245 84 185 124 185 230 L185 583 L68 583 L68 215 C68 53 189 -10 324 -10 L324 -10 Z " />
<glyph glyph-name="Uacute" unicode="&#xda;" horiz-adv-x="643" d="M357 633 L468 766 L361 766 L274 633 L357 633 Z M324 -10 C447 -10 576 64 576 238 L576 583 L459 583 L459 240 C459 133 415 84 331 84 C245 84 185 124 185 230 L185 583 L68 583 L68 215 C68 53 189 -10 324 -10 L324 -10 Z " />
<glyph glyph-name="Ucircumflex" unicode="&#xdb;" horiz-adv-x="643" d="M324 -10 C447 -10 576 64 576 238 L576 583 L459 583 L459 240 C459 133 415 84 331 84 C245 84 185 124 185 230 L185 583 L68 583 L68 215 C68 53 189 -10 324 -10 L324 -10 Z M292 773 L172 632 L274 632 L330 707 L333 707 L387 632 L489 632 L379 773 L292 773 Z " />
<glyph glyph-name="Udieresis" unicode="&#xdc;" horiz-adv-x="643" d="M235 630 C270 630 296 651 296 688 C296 726 270 748 235 748 C200 748 174 727 174 688 C174 651 200 630 235 630 L235 630 Z M424 630 C459 630 485 651 485 688 C485 726 459 748 424 748 C390 748 363 727 363 688 C363 651 390 630 424 630 L424 630 Z M324 -10 C447 -10 576 64 576 238 L576 583 L459 583 L459 240 C459 133 415 84 331 84 C245 84 185 124 185 230 L185 583 L68 583 L68 215 C68 53 189 -10 324 -10 L324 -10 Z " />
<glyph glyph-name="Yacute" unicode="&#xdd;" horiz-adv-x="560" d="M556 583 L435 583 L347 415 L290 305 L286 305 L229 415 L139 583 L8 583 L221 212 L221 0 L337 0 L337 210 L556 583 Z M312 633 L423 766 L316 766 L229 633 L312 633 Z " />
<glyph glyph-name="Thorn" unicode="&#xde;" horiz-adv-x="521" d="M74 0 L191 0 L191 105 L246 105 C412 105 492 194 492 299 C492 424 407 487 285 487 L191 487 L191 583 L74 583 L74 0 Z M236 399 C323 398 372 366 372 297 C372 212 314 196 226 194 L191 194 L191 399 L236 399 Z " />
<glyph glyph-name="germandbls" unicode="&#xdf;" horiz-adv-x="552" d="M275 661 C151 661 63 589 63 475 L63 0 L170 0 L170 465 C170 539 217 567 266 567 C321 567 357 543 357 500 C357 438 243 399 243 313 C243 242 292 210 338 193 C386 175 431 162 431 124 C431 93 396 75 355 75 C318 75 296 77 236 98 L236 10 C279 -4 309 -7 347 -7 C443 -7 530 33 530 131 C530 218 468 248 423 263 C376 280 344 289 344 329 C344 389 465 422 465 519 C465 610 397 661 275 661 L275 661 Z " />
<glyph glyph-name="agrave" unicode="&#xe0;" horiz-adv-x="469" d="M317 0 L425 0 L407 106 L407 317 C407 428 334 462 233 462 C175 462 99 448 59 433 L59 342 C102 356 166 369 214 369 C264 369 300 355 300 295 L300 253 L246 253 C116 253 32 208 32 116 C32 41 82 -8 163 -8 C223 -8 276 21 308 45 L317 0 Z M203 69 C162 69 139 90 139 130 C139 176 176 192 242 192 L300 192 L300 101 C270 83 235 69 203 69 L203 69 Z M296 528 L202 678 L94 678 L213 528 L296 528 Z " />
<glyph glyph-name="aacute" unicode="&#xe1;" horiz-adv-x="469" d="M317 0 L425 0 L407 106 L407 317 C407 428 334 462 233 462 C175 462 99 448 59 433 L59 342 C102 356 166 369 214 369 C264 369 300 355 300 295 L300 253 L246 253 C116 253 32 208 32 116 C32 41 82 -8 163 -8 C223 -8 276 21 308 45 L317 0 Z M203 69 C162 69 139 90 139 130 C139 176 176 192 242 192 L300 192 L300 101 C270 83 235 69 203 69 L203 69 Z M261 529 L382 679 L275 679 L178 529 L261 529 Z " />
<glyph glyph-name="acircumflex" unicode="&#xe2;" horiz-adv-x="469" d="M317 0 L425 0 L407 106 L407 317 C407 428 334 462 233 462 C175 462 99 448 59 433 L59 342 C102 356 166 369 214 369 C264 369 300 355 300 295 L300 253 L246 253 C116 253 32 208 32 116 C32 41 82 -8 163 -8 C223 -8 276 21 308 45 L317 0 Z M203 682 L89 528 L187 528 L237 617 L240 617 L288 527 L387 527 L284 682 L203 682 Z M203 69 C162 69 139 90 139 130 C139 176 176 192 242 192 L300 192 L300 101 C270 83 235 69 203 69 L203 69 Z " />
<glyph glyph-name="atilde" unicode="&#xe3;" horiz-adv-x="469" d="M317 0 L425 0 L407 106 L407 317 C407 428 334 462 233 462 C175 462 99 448 59 433 L59 342 C102 356 166 369 214 369 C264 369 300 355 300 295 L300 253 L246 253 C116 253 32 208 32 116 C32 41 82 -8 163 -8 C223 -8 276 21 308 45 L317 0 Z M357 651 C346 637 325 621 298 621 C262 621 227 653 184 653 C140 653 105 624 87 601 L115 547 C134 569 152 579 177 579 C214 579 248 545 291 545 C333 545 369 575 386 595 L357 651 Z M203 69 C162 69 139 90 139 130 C139 176 176 192 242 192 L300 192 L300 101 C270 83 235 69 203 69 L203 69 Z " />
<glyph glyph-name="adieresis" unicode="&#xe4;" horiz-adv-x="469" d="M317 0 L425 0 L407 106 L407 317 C407 428 334 462 233 462 C175 462 99 448 59 433 L59 342 C102 356 166 369 214 369 C264 369 300 355 300 295 L300 253 L246 253 C116 253 32 208 32 116 C32 41 82 -8 163 -8 C223 -8 276 21 308 45 L317 0 Z M203 69 C162 69 139 90 139 130 C139 176 176 192 242 192 L300 192 L300 101 C270 83 235 69 203 69 L203 69 Z M133 555 C168 555 194 577 194 614 C194 652 169 673 133 673 C98 673 72 652 72 614 C72 577 98 555 133 555 L133 555 Z M322 555 C357 555 383 577 383 614 C383 652 357 673 322 673 C288 673 261 652 261 614 C261 577 288 555 322 555 L322 555 Z " />
<glyph glyph-name="aring" unicode="&#xe5;" horiz-adv-x="469" d="M317 0 L425 0 L407 106 L407 317 C407 428 334 462 233 462 C175 462 99 448 59 433 L59 342 C102 356 166 369 214 369 C264 369 300 355 300 295 L300 253 L246 253 C116 253 32 208 32 116 C32 41 82 -8 163 -8 C223 -8 276 21 308 45 L317 0 Z M235 702 C186 702 134 671 134 611 C134 552 183 519 235 519 C288 519 339 554 339 611 C339 671 288 702 235 702 L235 702 Z M203 69 C162 69 139 90 139 130 C139 176 176 192 242 192 L300 192 L300 101 C270 83 235 69 203 69 L203 69 Z M235 651 C263 651 276 636 276 611 C276 586 263 570 235 570 C208 570 197 585 197 611 C197 633 208 651 235 651 L235 651 Z " />
<glyph glyph-name="ae" unicode="&#xe6;" horiz-adv-x="746" d="M519 -8 C591 -8 653 3 696 26 L696 106 C651 88 591 78 541 78 C464 78 414 113 405 196 L708 196 L708 241 C708 372 644 462 507 462 C452 462 406 444 372 413 C344 449 295 462 233 462 C175 462 99 448 59 433 L59 342 C102 356 166 369 214 369 C264 369 300 355 300 295 L300 258 L247 258 C117 258 32 212 32 120 C32 45 80 -8 164 -8 C247 -8 305 35 340 67 C376 17 436 -8 519 -8 L519 -8 Z M203 69 C162 69 139 94 139 134 C139 180 177 196 245 196 L299 196 C301 165 306 138 315 114 C283 93 242 69 203 69 L203 69 Z M505 376 C567 376 594 329 596 260 L405 260 C413 346 453 376 505 376 L505 376 Z " />
<glyph glyph-name="ccedilla" unicode="&#xe7;" horiz-adv-x="435" d="M239 -219 C312 -219 355 -180 355 -131 C355 -85 321 -53 272 -43 L285 -7 C329 -4 366 5 393 21 L393 106 C357 90 321 83 288 83 C203 83 148 127 148 228 C148 340 209 370 278 370 C316 370 354 364 394 342 L394 441 C360 457 317 462 266 462 C119 462 37 355 37 217 C37 87 99 5 222 -6 L199 -61 L199 -76 C249 -75 276 -98 276 -124 C276 -143 264 -158 228 -158 C209 -158 174 -147 159 -137 L152 -199 C170 -211 211 -219 239 -219 L239 -219 Z " />
<glyph glyph-name="egrave" unicode="&#xe8;" horiz-adv-x="488" d="M261 -8 C333 -8 395 3 438 26 L438 106 C393 88 333 78 283 78 C203 78 153 115 146 201 L450 201 L450 241 C450 372 385 462 248 462 C118 462 38 362 38 217 C38 70 117 -8 261 -8 L261 -8 Z M247 376 C307 376 334 332 337 266 L147 266 C156 348 196 376 247 376 L247 376 Z M317 529 L223 679 L115 679 L234 529 L317 529 Z " />
<glyph glyph-name="eacute" unicode="&#xe9;" horiz-adv-x="488" d="M261 -8 C333 -8 395 3 438 26 L438 106 C393 88 333 78 283 78 C203 78 153 115 146 201 L450 201 L450 241 C450 372 385 462 248 462 C118 462 38 362 38 217 C38 70 117 -8 261 -8 L261 -8 Z M247 376 C307 376 334 332 337 266 L147 266 C156 348 196 376 247 376 L247 376 Z M276 529 L397 679 L290 679 L193 529 L276 529 Z " />
<glyph glyph-name="ecircumflex" unicode="&#xea;" horiz-adv-x="488" d="M261 -8 C333 -8 395 3 438 26 L438 106 C393 88 333 78 283 78 C203 78 153 115 146 201 L450 201 L450 241 C450 372 385 462 248 462 C118 462 38 362 38 217 C38 70 117 -8 261 -8 L261 -8 Z M222 682 L108 528 L206 528 L256 617 L259 617 L307 527 L406 527 L303 682 L222 682 Z M247 376 C307 376 334 332 337 266 L147 266 C156 348 196 376 247 376 L247 376 Z " />
<glyph glyph-name="edieresis" unicode="&#xeb;" horiz-adv-x="488" d="M261 -8 C333 -8 395 3 438 26 L438 106 C393 88 333 78 283 78 C203 78 153 115 146 201 L450 201 L450 241 C450 372 385 462 248 462 C118 462 38 362 38 217 C38 70 117 -8 261 -8 L261 -8 Z M247 376 C307 376 334 332 337 266 L147 266 C156 348 196 376 247 376 L247 376 Z M160 555 C195 555 221 577 221 614 C221 652 196 673 160 673 C125 673 99 652 99 614 C99 577 125 555 160 555 L160 555 Z M349 555 C384 555 410 577 410 614 C410 652 384 673 349 673 C315 673 288 652 288 614 C288 577 315 555 349 555 L349 555 Z " />
<glyph glyph-name="igrave" unicode="&#xec;" horiz-adv-x="262" d="M24 364 L92 364 L92 0 L199 0 L199 452 L24 452 L24 364 Z M181 529 L87 679 L-21 679 L98 529 L181 529 Z " />
<glyph glyph-name="iacute" unicode="&#xed;" horiz-adv-x="262" d="M24 364 L92 364 L92 0 L199 0 L199 452 L24 452 L24 364 Z M181 529 L302 679 L195 679 L98 529 L181 529 Z " />
<glyph glyph-name="icircumflex" unicode="&#xee;" horiz-adv-x="262" d="M24 364 L92 364 L92 0 L199 0 L199 452 L24 452 L24 364 Z M99 682 L-15 528 L83 528 L133 617 L136 617 L184 527 L283 527 L180 682 L99 682 Z " />
<glyph glyph-name="idieresis" unicode="&#xef;" horiz-adv-x="262" d="M24 364 L92 364 L92 0 L199 0 L199 452 L24 452 L24 364 Z M49 555 C84 555 110 577 110 614 C110 652 85 673 49 673 C14 673 -12 652 -12 614 C-12 577 14 555 49 555 L49 555 Z M238 555 C273 555 299 577 299 614 C299 652 273 673 238 673 C204 673 177 652 177 614 C177 577 204 555 238 555 L238 555 Z " />
<glyph glyph-name="eth" unicode="&#xf0;" horiz-adv-x="518" d="M203 496 L259 549 C295 521 317 491 332 449 C314 457 290 460 260 460 C127 460 37 354 37 221 C37 69 115 -8 249 -8 C393 -8 474 108 474 240 C474 375 450 515 328 614 L376 659 L329 701 L275 650 C251 663 226 676 197 687 L147 618 C169 606 188 596 206 585 L155 538 L203 496 Z M362 226 C362 145 340 77 256 77 C173 77 148 142 148 227 C148 306 171 375 255 375 C290 375 320 372 354 356 C358 322 362 263 362 226 L362 226 Z " />
<glyph glyph-name="ntilde" unicode="&#xf1;" horiz-adv-x="532" d="M67 0 L174 0 L174 331 C208 350 249 368 281 368 C347 368 364 336 364 262 L364 0 L472 0 L472 297 C472 415 420 461 334 461 C270 461 208 430 165 400 L154 452 L48 452 L67 343 L67 0 Z M389 651 C378 637 357 621 330 621 C294 621 259 653 216 653 C172 653 137 624 119 601 L147 547 C166 569 184 579 209 579 C246 579 280 545 323 545 C365 545 401 575 418 595 L389 651 Z " />
<glyph glyph-name="ograve" unicode="&#xf2;" horiz-adv-x="510" d="M249 -8 C387 -8 473 98 473 230 C473 390 399 462 258 462 C125 462 37 354 37 221 C37 65 115 -8 249 -8 L249 -8 Z M256 77 C173 77 148 142 148 227 C148 306 171 375 255 375 C345 375 362 303 362 226 C362 145 340 77 256 77 L256 77 Z M308 529 L214 679 L106 679 L225 529 L308 529 Z " />
<glyph glyph-name="oacute" unicode="&#xf3;" horiz-adv-x="510" d="M285 529 L406 679 L299 679 L202 529 L285 529 Z M249 -8 C387 -8 473 98 473 230 C473 390 399 462 258 462 C125 462 37 354 37 221 C37 65 115 -8 249 -8 L249 -8 Z M256 77 C173 77 148 142 148 227 C148 306 171 375 255 375 C345 375 362 303 362 226 C362 145 340 77 256 77 L256 77 Z " />
<glyph glyph-name="ocircumflex" unicode="&#xf4;" horiz-adv-x="510" d="M222 677 L108 523 L206 523 L256 612 L259 612 L307 522 L406 522 L303 677 L222 677 Z M249 -8 C387 -8 473 98 473 230 C473 390 399 462 258 462 C125 462 37 354 37 221 C37 65 115 -8 249 -8 L249 -8 Z M256 77 C173 77 148 142 148 227 C148 306 171 375 255 375 C345 375 362 303 362 226 C362 145 340 77 256 77 L256 77 Z " />
<glyph glyph-name="otilde" unicode="&#xf5;" horiz-adv-x="510" d="M249 -8 C387 -8 473 98 473 230 C473 390 399 462 258 462 C125 462 37 354 37 221 C37 65 115 -8 249 -8 L249 -8 Z M256 77 C173 77 148 142 148 227 C148 306 171 375 255 375 C345 375 362 303 362 226 C362 145 340 77 256 77 L256 77 Z M377 651 C366 637 345 621 318 621 C282 621 247 653 204 653 C160 653 125 624 107 601 L135 547 C154 569 172 579 197 579 C234 579 268 545 311 545 C353 545 389 575 406 595 L377 651 Z " />
<glyph glyph-name="odieresis" unicode="&#xf6;" horiz-adv-x="510" d="M166 555 C201 555 227 577 227 614 C227 652 202 673 166 673 C131 673 105 652 105 614 C105 577 131 555 166 555 L166 555 Z M355 555 C390 555 416 577 416 614 C416 652 390 673 355 673 C321 673 294 652 294 614 C294 577 321 555 355 555 L355 555 Z M249 -8 C387 -8 473 98 473 230 C473 390 399 462 258 462 C125 462 37 354 37 221 C37 65 115 -8 249 -8 L249 -8 Z M256 77 C173 77 148 142 148 227 C148 306 171 375 255 375 C345 375 362 303 362 226 C362 145 340 77 256 77 L256 77 Z " />
<glyph glyph-name="divide" unicode="&#xf7;" horiz-adv-x="493" d="M48 257 L446 257 L446 332 L48 332 L48 257 Z M245 395 C285 395 315 418 315 458 C315 498 285 521 245 521 C206 521 175 498 175 458 C175 418 206 395 245 395 L245 395 Z M245 70 C285 70 315 93 315 133 C315 173 285 196 245 196 C206 196 175 173 175 133 C175 93 206 70 245 70 L245 70 Z " />
<glyph glyph-name="oslash" unicode="&#xf8;" horiz-adv-x="512" d="M250 -8 C388 -8 474 98 474 230 C474 301 459 354 430 392 L489 462 L420 462 L392 429 C358 451 313 462 259 462 C126 462 38 354 38 221 C38 151 53 98 82 61 L23 -10 L90 -10 L120 26 C154 3 198 -8 250 -8 L250 -8 Z M257 77 C225 77 202 86 185 103 L354 302 C361 279 363 253 363 226 C363 145 341 77 257 77 L257 77 Z M149 227 C149 306 172 375 256 375 C288 375 310 366 326 351 L158 151 C152 173 149 199 149 227 L149 227 Z " />
<glyph glyph-name="ugrave" unicode="&#xf9;" horiz-adv-x="525" d="M458 452 L351 452 L351 120 C316 100 279 81 247 81 C185 81 168 111 168 179 L168 452 L60 452 L60 156 C60 38 111 -8 198 -8 C262 -8 317 23 359 52 L370 0 L477 0 L458 111 L458 452 Z M320 529 L226 679 L118 679 L237 529 L320 529 Z " />
<glyph glyph-name="uacute" unicode="&#xfa;" horiz-adv-x="525" d="M458 452 L351 452 L351 120 C316 100 279 81 247 81 C185 81 168 111 168 179 L168 452 L60 452 L60 156 C60 38 111 -8 198 -8 C262 -8 317 23 359 52 L370 0 L477 0 L458 111 L458 452 Z M292 529 L413 679 L306 679 L209 529 L292 529 Z " />
<glyph glyph-name="ucircumflex" unicode="&#xfb;" horiz-adv-x="525" d="M458 452 L351 452 L351 120 C316 100 279 81 247 81 C185 81 168 111 168 179 L168 452 L60 452 L60 156 C60 38 111 -8 198 -8 C262 -8 317 23 359 52 L370 0 L477 0 L458 111 L458 452 Z M233 682 L119 528 L217 528 L267 617 L270 617 L318 527 L417 527 L314 682 L233 682 Z " />
<glyph glyph-name="udieresis" unicode="&#xfc;" horiz-adv-x="525" d="M458 452 L351 452 L351 120 C316 100 279 81 247 81 C185 81 168 111 168 179 L168 452 L60 452 L60 156 C60 38 111 -8 198 -8 C262 -8 317 23 359 52 L370 0 L477 0 L458 111 L458 452 Z M167 555 C202 555 228 577 228 614 C228 652 203 673 167 673 C132 673 106 652 106 614 C106 577 132 555 167 555 L167 555 Z M356 555 C391 555 417 577 417 614 C417 652 391 673 356 673 C322 673 295 652 295 614 C295 577 322 555 356 555 L356 555 Z " />
<glyph glyph-name="yacute" unicode="&#xfd;" horiz-adv-x="482" d="M224 -207 L305 18 L473 452 L359 452 L280 216 L246 114 L240 114 L211 213 L138 452 L18 452 L176 0 L198 0 L110 -204 L113 -207 L224 -207 Z M286 529 L407 679 L300 679 L203 529 L286 529 Z " />
<glyph glyph-name="thorn" unicode="&#xfe;" horiz-adv-x="511" d="M63 -207 L170 -207 L170 -3 C191 -6 214 -8 238 -8 C365 -8 473 78 473 248 C473 383 410 462 303 462 C253 462 210 444 170 420 L170 653 L63 653 L63 -207 Z M256 376 C329 376 362 330 362 234 C362 149 334 78 231 78 C213 78 190 80 170 83 L170 352 C196 364 227 376 256 376 L256 376 Z " />
<glyph glyph-name="ydieresis" unicode="&#xff;" horiz-adv-x="482" d="M224 -207 L305 18 L473 452 L359 452 L280 216 L246 114 L240 114 L211 213 L138 452 L18 452 L176 0 L198 0 L110 -204 L113 -207 L224 -207 Z M161 556 C196 556 222 578 222 615 C222 653 197 674 161 674 C126 674 100 653 100 615 C100 578 126 556 161 556 L161 556 Z M350 556 C385 556 411 578 411 615 C411 653 385 674 350 674 C316 674 289 653 289 615 C289 578 316 556 350 556 L350 556 Z " />
<glyph glyph-name="Amacron" unicode="&#x100;" horiz-adv-x="560" d="M4 0 L114 0 L170 157 L370 157 L415 0 L539 0 L346 583 L231 583 L4 0 Z M160 652 L425 652 L425 734 L160 734 L160 652 Z M225 310 L279 460 L284 460 L327 309 L344 248 L202 248 L225 310 Z " />
<glyph glyph-name="amacron" unicode="&#x101;" horiz-adv-x="469" d="M317 0 L425 0 L407 106 L407 317 C407 428 334 462 233 462 C175 462 99 448 59 433 L59 342 C102 356 166 369 214 369 C264 369 300 355 300 295 L300 253 L246 253 C116 253 32 208 32 116 C32 41 82 -8 163 -8 C223 -8 276 21 308 45 L317 0 Z M102 558 L367 558 L367 643 L102 643 L102 558 Z M203 69 C162 69 139 90 139 130 C139 176 176 192 242 192 L300 192 L300 101 C270 83 235 69 203 69 L203 69 Z " />
<glyph glyph-name="Abreve" unicode="&#x102;" horiz-adv-x="560" d="M4 0 L114 0 L170 157 L370 157 L415 0 L539 0 L346 583 L231 583 L4 0 Z M292 709 C250 709 219 737 210 763 L152 728 C165 683 207 628 290 628 C371 628 419 673 432 729 L379 764 C371 736 340 709 292 709 L292 709 Z M225 310 L279 460 L284 460 L327 309 L344 248 L202 248 L225 310 Z " />
<glyph glyph-name="abreve" unicode="&#x103;" horiz-adv-x="469" d="M317 0 L425 0 L407 106 L407 317 C407 428 334 462 233 462 C175 462 99 448 59 433 L59 342 C102 356 166 369 214 369 C264 369 300 355 300 295 L300 253 L246 253 C116 253 32 208 32 116 C32 41 82 -8 163 -8 C223 -8 276 21 308 45 L317 0 Z M230 599 C181 599 157 635 148 661 L90 625 C103 580 145 526 228 526 C308 526 356 571 370 627 L317 662 C309 634 284 599 230 599 L230 599 Z M203 69 C162 69 139 90 139 130 C139 176 176 192 242 192 L300 192 L300 101 C270 83 235 69 203 69 L203 69 Z " />
<glyph glyph-name="Aogonek" unicode="&#x104;" horiz-adv-x="560" d="M535 -194 L532 -134 C515 -142 491 -149 470 -149 C445 -149 424 -138 424 -105 C424 -68 451 -28 500 0 L539 0 L346 583 L231 583 L4 0 L114 0 L170 157 L370 157 L414 1 C374 -27 340 -68 340 -122 C340 -182 382 -214 445 -214 C476 -214 513 -206 535 -194 L535 -194 Z M225 310 L279 460 L284 460 L327 309 L344 248 L202 248 L225 310 Z " />
<glyph glyph-name="aogonek" unicode="&#x105;" horiz-adv-x="469" d="M429 -194 L426 -134 C409 -142 385 -149 364 -149 C339 -149 318 -138 318 -105 C318 -68 345 -28 394 0 L425 0 L407 106 L407 317 C407 428 334 462 233 462 C175 462 99 448 59 433 L59 342 C102 356 166 369 214 369 C264 369 300 355 300 295 L300 253 L246 253 C116 253 32 208 32 116 C32 41 82 -8 163 -8 C223 -8 276 21 308 45 L316 6 C272 -22 234 -64 234 -122 C234 -182 276 -214 339 -214 C370 -214 407 -206 429 -194 L429 -194 Z M203 69 C162 69 139 90 139 130 C139 176 176 192 242 192 L300 192 L300 101 C270 83 235 69 203 69 L203 69 Z " />
<glyph glyph-name="Cacute" unicode="&#x106;" horiz-adv-x="564" d="M341 -10 C419 -10 490 10 520 29 L520 127 C464 94 418 83 356 83 C239 83 164 154 164 300 C164 431 239 500 343 500 C406 500 460 490 520 454 L520 560 C484 574 437 593 344 593 C150 593 41 463 41 284 C41 93 155 -10 341 -10 L341 -10 Z M350 633 L461 766 L354 766 L267 633 L350 633 Z " />
<glyph glyph-name="cacute" unicode="&#x107;" horiz-adv-x="434" d="M282 529 L403 679 L296 679 L199 529 L282 529 Z M253 -8 C311 -8 360 2 393 21 L393 106 C357 90 321 83 288 83 C203 83 148 127 148 228 C148 340 209 370 278 370 C316 370 354 364 394 342 L394 441 C360 457 317 462 266 462 C119 462 37 355 37 217 C37 77 109 -8 253 -8 L253 -8 Z " />
<glyph glyph-name="Ccircumflex" unicode="&#x108;" horiz-adv-x="564" d="M341 -10 C419 -10 490 10 520 29 L520 127 C464 94 418 83 356 83 C239 83 164 154 164 300 C164 431 239 500 343 500 C406 500 460 490 520 454 L520 560 C484 574 437 593 344 593 C150 593 41 463 41 284 C41 93 155 -10 341 -10 L341 -10 Z M291 773 L171 632 L273 632 L329 707 L332 707 L386 632 L488 632 L378 773 L291 773 Z " />
<glyph glyph-name="ccircumflex" unicode="&#x109;" horiz-adv-x="434" d="M221 682 L107 528 L205 528 L255 617 L258 617 L306 527 L405 527 L302 682 L221 682 Z M253 -8 C311 -8 360 2 393 21 L393 106 C357 90 321 83 288 83 C203 83 148 127 148 228 C148 340 209 370 278 370 C316 370 354 364 394 342 L394 441 C360 457 317 462 266 462 C119 462 37 355 37 217 C37 77 109 -8 253 -8 L253 -8 Z " />
<glyph glyph-name="Cdotaccent" unicode="&#x10a;" horiz-adv-x="564" d="M331 639 C368 639 397 660 397 698 C397 736 369 758 331 758 C294 758 265 737 265 698 C265 660 294 639 331 639 L331 639 Z M341 -10 C419 -10 490 10 520 29 L520 127 C464 94 418 83 356 83 C239 83 164 154 164 300 C164 431 239 500 343 500 C406 500 460 490 520 454 L520 560 C484 574 437 593 344 593 C150 593 41 463 41 284 C41 93 155 -10 341 -10 L341 -10 Z " />
<glyph glyph-name="cdotaccent" unicode="&#x10b;" horiz-adv-x="434" d="M253 -8 C311 -8 360 2 393 21 L393 106 C357 90 321 83 288 83 C203 83 148 127 148 228 C148 340 209 370 278 370 C316 370 354 364 394 342 L394 441 C360 457 317 462 266 462 C119 462 37 355 37 217 C37 77 109 -8 253 -8 L253 -8 Z M256 554 C296 554 326 577 326 617 C326 657 296 680 256 680 C217 680 186 657 186 617 C186 577 217 554 256 554 L256 554 Z " />
<glyph glyph-name="Ccaron" unicode="&#x10c;" horiz-adv-x="564" d="M341 -10 C419 -10 490 10 520 29 L520 127 C464 94 418 83 356 83 C239 83 164 154 164 300 C164 431 239 500 343 500 C406 500 460 490 520 454 L520 560 C484 574 437 593 344 593 C150 593 41 463 41 284 C41 93 155 -10 341 -10 L341 -10 Z M370 625 L491 766 L389 766 L333 691 L329 691 L276 767 L173 767 L283 625 L370 625 Z " />
<glyph glyph-name="ccaron" unicode="&#x10d;" horiz-adv-x="434" d="M287 528 L400 682 L303 682 L253 593 L249 593 L202 683 L103 683 L206 528 L287 528 Z M253 -8 C311 -8 360 2 393 21 L393 106 C357 90 321 83 288 83 C203 83 148 127 148 228 C148 340 209 370 278 370 C316 370 354 364 394 342 L394 441 C360 457 317 462 266 462 C119 462 37 355 37 217 C37 77 109 -8 253 -8 L253 -8 Z " />
<glyph glyph-name="Dcaron" unicode="&#x10e;" horiz-adv-x="638" d="M74 0 L263 0 C456 2 597 103 597 303 C597 519 444 582 259 583 L74 583 L74 0 Z M246 492 C388 492 473 440 473 291 C473 165 394 91 256 91 L191 91 L191 492 L246 492 Z M319 623 L440 764 L338 764 L282 689 L278 689 L225 765 L122 765 L232 623 L319 623 Z " />
<glyph glyph-name="dcaron" unicode="&#x10f;" horiz-adv-x="532" d="M363 0 L472 0 L455 101 L455 653 L347 653 L347 455 C323 459 289 462 265 462 C145 462 37 367 37 205 C37 50 132 -8 213 -8 C271 -8 317 17 354 48 L363 0 Z M253 78 C182 78 148 128 148 221 C148 331 194 377 279 377 C300 377 326 373 347 368 L347 112 C310 90 285 78 253 78 L253 78 Z M486 475 L549 475 L596 653 L504 653 L486 475 Z " />
<glyph glyph-name="Dcroat" unicode="&#x110;" horiz-adv-x="642" d="M21 259 L78 259 L78 0 L267 0 C460 2 601 103 601 303 C601 519 448 582 263 583 L78 583 L78 333 L21 333 L21 259 Z M320 259 L320 333 L195 333 L195 492 L250 492 C392 492 477 440 477 291 C477 165 398 91 260 91 L195 91 L195 259 L320 259 Z " />
<glyph glyph-name="dcroat" unicode="&#x111;" horiz-adv-x="521" d="M189 525 L347 525 L347 455 C323 459 289 462 265 462 C145 462 37 367 37 205 C37 50 132 -8 213 -8 C271 -8 317 17 354 48 L363 0 L472 0 L455 101 L455 525 L514 525 L514 596 L455 596 L455 653 L347 653 L347 596 L189 596 L189 525 Z M253 78 C182 78 148 128 148 221 C148 331 194 377 279 377 C300 377 326 373 347 368 L347 112 C310 90 285 78 253 78 L253 78 Z " />
<glyph glyph-name="Emacron" unicode="&#x112;" horiz-adv-x="496" d="M74 0 L457 0 L457 91 L191 91 L191 253 L404 253 L404 341 L191 341 L191 492 L450 492 L450 583 L74 583 L74 0 Z M140 653 L405 653 L405 735 L140 735 L140 653 Z " />
<glyph glyph-name="emacron" unicode="&#x113;" horiz-adv-x="488" d="M261 -8 C333 -8 395 3 438 26 L438 106 C393 88 333 78 283 78 C203 78 153 115 146 201 L450 201 L450 241 C450 372 385 462 248 462 C118 462 38 362 38 217 C38 70 117 -8 261 -8 L261 -8 Z M124 558 L389 558 L389 643 L124 643 L124 558 Z M247 376 C307 376 334 332 337 266 L147 266 C156 348 196 376 247 376 L247 376 Z " />
<glyph glyph-name="Ebreve" unicode="&#x114;" horiz-adv-x="496" d="M74 0 L457 0 L457 91 L191 91 L191 253 L404 253 L404 341 L191 341 L191 492 L450 492 L450 583 L74 583 L74 0 Z M276 709 C234 709 203 737 194 763 L136 728 C149 683 191 628 274 628 C355 628 403 673 416 729 L363 764 C355 736 324 709 276 709 L276 709 Z " />
<glyph glyph-name="ebreve" unicode="&#x115;" horiz-adv-x="488" d="M261 -8 C333 -8 395 3 438 26 L438 106 C393 88 333 78 283 78 C203 78 153 115 146 201 L450 201 L450 241 C450 372 385 462 248 462 C118 462 38 362 38 217 C38 70 117 -8 261 -8 L261 -8 Z M252 599 C203 599 179 635 170 661 L112 625 C125 580 167 526 250 526 C330 526 378 571 392 627 L339 662 C331 634 306 599 252 599 L252 599 Z M247 376 C307 376 334 332 337 266 L147 266 C156 348 196 376 247 376 L247 376 Z " />
<glyph glyph-name="Edotaccent" unicode="&#x116;" horiz-adv-x="496" d="M74 0 L457 0 L457 91 L191 91 L191 253 L404 253 L404 341 L191 341 L191 492 L450 492 L450 583 L74 583 L74 0 Z M278 638 C315 638 344 659 344 697 C344 735 316 757 278 757 C241 757 212 736 212 697 C212 659 241 638 278 638 L278 638 Z " />
<glyph glyph-name="edotaccent" unicode="&#x117;" horiz-adv-x="488" d="M261 -8 C333 -8 395 3 438 26 L438 106 C393 88 333 78 283 78 C203 78 153 115 146 201 L450 201 L450 241 C450 372 385 462 248 462 C118 462 38 362 38 217 C38 70 117 -8 261 -8 L261 -8 Z M247 376 C307 376 334 332 337 266 L147 266 C156 348 196 376 247 376 L247 376 Z M245 554 C285 554 315 577 315 617 C315 657 285 680 245 680 C206 680 175 657 175 617 C175 577 206 554 245 554 L245 554 Z " />
<glyph glyph-name="Eogonek" unicode="&#x118;" horiz-adv-x="496" d="M74 0 L339 0 C299 -28 266 -68 266 -122 C266 -182 308 -214 371 -214 C402 -214 439 -206 461 -194 L458 -134 C441 -142 417 -149 396 -149 C371 -149 350 -138 350 -105 C350 -68 377 -28 426 0 L457 0 L457 91 L191 91 L191 253 L404 253 L404 341 L191 341 L191 492 L450 492 L450 583 L74 583 L74 0 Z " />
<glyph glyph-name="eogonek" unicode="&#x119;" horiz-adv-x="488" d="M261 -8 L272 -8 C237 -35 210 -73 210 -122 C210 -182 252 -214 315 -214 C346 -214 383 -206 405 -194 L402 -134 C385 -142 361 -149 340 -149 C315 -149 294 -138 294 -105 C294 -67 323 -25 376 3 C400 9 420 16 438 26 L438 106 C393 88 333 78 283 78 C203 78 153 115 146 201 L450 201 L450 241 C450 372 385 462 248 462 C118 462 38 362 38 217 C38 70 117 -8 261 -8 L261 -8 Z M247 376 C307 376 334 332 337 266 L147 266 C156 348 196 376 247 376 L247 376 Z " />
<glyph glyph-name="Ecaron" unicode="&#x11a;" horiz-adv-x="496" d="M74 0 L457 0 L457 91 L191 91 L191 253 L404 253 L404 341 L191 341 L191 492 L450 492 L450 583 L74 583 L74 0 Z M310 625 L431 766 L329 766 L273 691 L269 691 L216 767 L113 767 L223 625 L310 625 Z " />
<glyph glyph-name="ecaron" unicode="&#x11b;" horiz-adv-x="488" d="M261 -8 C333 -8 395 3 438 26 L438 106 C393 88 333 78 283 78 C203 78 153 115 146 201 L450 201 L450 241 C450 372 385 462 248 462 C118 462 38 362 38 217 C38 70 117 -8 261 -8 L261 -8 Z M285 528 L398 682 L301 682 L251 593 L247 593 L200 683 L101 683 L204 528 L285 528 Z M247 376 C307 376 334 332 337 266 L147 266 C156 348 196 376 247 376 L247 376 Z " />
<glyph glyph-name="Gcircumflex" unicode="&#x11c;" horiz-adv-x="604" d="M341 -10 C419 -10 484 10 548 45 L548 301 L432 301 L432 91 C408 86 384 83 357 83 C234 83 163 159 163 300 C163 431 249 500 353 500 C415 500 487 487 546 450 L546 556 C511 570 447 593 354 593 C159 593 41 463 41 284 C41 93 154 -10 341 -10 L341 -10 Z M311 773 L191 632 L293 632 L349 707 L352 707 L406 632 L508 632 L398 773 L311 773 Z " />
<glyph glyph-name="gcircumflex" unicode="&#x11d;" horiz-adv-x="501" d="M239 167 C337 167 428 234 428 314 C428 340 421 363 411 383 L493 383 L493 458 L356 436 C323 453 282 462 237 462 C130 462 45 392 45 309 C45 243 83 203 138 183 L57 106 L57 43 L114 36 C65 8 21 -32 21 -82 C21 -161 97 -214 223 -214 C369 -214 474 -127 474 -28 C474 49 425 95 301 106 L159 119 L202 169 C214 168 226 167 239 167 L239 167 Z M262 20 C349 10 366 -10 366 -48 C366 -92 317 -137 241 -137 C161 -137 128 -102 128 -64 C128 -32 157 0 199 27 L262 20 Z M206 682 L92 528 L190 528 L240 617 L243 617 L291 527 L390 527 L287 682 L206 682 Z M238 236 C188 236 152 263 152 316 C152 362 182 391 232 391 C284 391 318 363 318 313 C318 268 285 236 238 236 L238 236 Z " />
<glyph glyph-name="Gbreve" unicode="&#x11e;" horiz-adv-x="604" d="M341 -10 C419 -10 484 10 548 45 L548 301 L432 301 L432 91 C408 86 384 83 357 83 C234 83 163 159 163 300 C163 431 249 500 353 500 C415 500 487 487 546 450 L546 556 C511 570 447 593 354 593 C159 593 41 463 41 284 C41 93 154 -10 341 -10 L341 -10 Z M344 708 C302 708 271 736 262 762 L204 727 C217 682 259 627 342 627 C423 627 471 672 484 728 L431 763 C423 735 392 708 344 708 L344 708 Z " />
<glyph glyph-name="gbreve" unicode="&#x11f;" horiz-adv-x="501" d="M239 167 C337 167 428 234 428 314 C428 340 421 363 411 383 L493 383 L493 458 L356 436 C323 453 282 462 237 462 C130 462 45 392 45 309 C45 243 83 203 138 183 L57 106 L57 43 L114 36 C65 8 21 -32 21 -82 C21 -161 97 -214 223 -214 C369 -214 474 -127 474 -28 C474 49 425 95 301 106 L159 119 L202 169 C214 168 226 167 239 167 L239 167 Z M262 20 C349 10 366 -10 366 -48 C366 -92 317 -137 241 -137 C161 -137 128 -102 128 -64 C128 -32 157 0 199 27 L262 20 Z M240 599 C191 599 167 635 158 661 L100 625 C113 580 155 526 238 526 C318 526 366 571 380 627 L327 662 C319 634 294 599 240 599 L240 599 Z M238 236 C188 236 152 263 152 316 C152 362 182 391 232 391 C284 391 318 363 318 313 C318 268 285 236 238 236 L238 236 Z " />
<glyph glyph-name="Gdotaccent" unicode="&#x120;" horiz-adv-x="604" d="M341 -10 C419 -10 484 10 548 45 L548 301 L432 301 L432 91 C408 86 384 83 357 83 C234 83 163 159 163 300 C163 431 249 500 353 500 C415 500 487 487 546 450 L546 556 C511 570 447 593 354 593 C159 593 41 463 41 284 C41 93 154 -10 341 -10 L341 -10 Z M347 639 C384 639 413 660 413 698 C413 736 385 758 347 758 C310 758 281 737 281 698 C281 660 310 639 347 639 L347 639 Z " />
<glyph glyph-name="gdotaccent" unicode="&#x121;" horiz-adv-x="501" d="M239 167 C337 167 428 234 428 314 C428 340 421 363 411 383 L493 383 L493 458 L356 436 C323 453 282 462 237 462 C130 462 45 392 45 309 C45 243 83 203 138 183 L57 106 L57 43 L114 36 C65 8 21 -32 21 -82 C21 -161 97 -214 223 -214 C369 -214 474 -127 474 -28 C474 49 425 95 301 106 L159 119 L202 169 C214 168 226 167 239 167 L239 167 Z M262 20 C349 10 366 -10 366 -48 C366 -92 317 -137 241 -137 C161 -137 128 -102 128 -64 C128 -32 157 0 199 27 L262 20 Z M238 236 C188 236 152 263 152 316 C152 362 182 391 232 391 C284 391 318 363 318 313 C318 268 285 236 238 236 L238 236 Z M235 554 C275 554 305 577 305 617 C305 657 275 680 235 680 C196 680 165 657 165 617 C165 577 196 554 235 554 L235 554 Z " />
<glyph glyph-name="Gcommaaccent" unicode="&#x122;" horiz-adv-x="604" d="M341 -10 C419 -10 484 10 548 45 L548 301 L432 301 L432 91 C408 86 384 83 357 83 C234 83 163 159 163 300 C163 431 249 500 353 500 C415 500 487 487 546 450 L546 556 C511 570 447 593 354 593 C159 593 41 463 41 284 C41 93 154 -10 341 -10 L341 -10 Z M277 -249 L352 -249 L398 -62 L304 -62 L277 -249 Z " />
<glyph glyph-name="gcommaaccent" unicode="&#x123;" horiz-adv-x="501" d="M239 167 C337 167 428 234 428 314 C428 340 421 363 411 383 L493 383 L493 458 L356 436 C323 453 282 462 237 462 C130 462 45 392 45 309 C45 243 83 203 138 183 L57 106 L57 43 L114 36 C65 8 21 -32 21 -82 C21 -161 97 -214 223 -214 C369 -214 474 -127 474 -28 C474 49 425 95 301 106 L159 119 L202 169 C214 168 226 167 239 167 L239 167 Z M262 20 C349 10 366 -10 366 -48 C366 -92 317 -137 241 -137 C161 -137 128 -102 128 -64 C128 -32 157 0 199 27 L262 20 Z M238 236 C188 236 152 263 152 316 C152 362 182 391 232 391 C284 391 318 363 318 313 C318 268 285 236 238 236 L238 236 Z M307 703 L232 703 L186 513 L280 513 L307 703 Z " />
<glyph glyph-name="Hcircumflex" unicode="&#x124;" horiz-adv-x="671" d="M480 0 L596 0 L596 583 L480 583 L480 344 L191 344 L191 583 L74 583 L74 0 L191 0 L191 253 L480 253 L480 0 Z M292 773 L172 632 L274 632 L330 707 L333 707 L387 632 L489 632 L379 773 L292 773 Z " />
<glyph glyph-name="hcircumflex" unicode="&#x125;" horiz-adv-x="529" d="M361 0 L469 0 L469 297 C469 415 417 461 331 461 C271 461 213 434 170 406 L170 653 L63 653 L63 0 L170 0 L170 331 C204 349 245 368 278 368 C344 368 361 336 361 262 L361 0 Z M76 818 L-44 677 L58 677 L114 752 L117 752 L171 677 L273 677 L163 818 L76 818 Z " />
<glyph glyph-name="Hbar" unicode="&#x126;" horiz-adv-x="674" d="M30 444 L75 444 L75 0 L192 0 L192 253 L481 253 L481 0 L597 0 L597 444 L644 444 L644 515 L597 515 L597 583 L481 583 L481 515 L192 515 L192 583 L75 583 L75 515 L30 515 L30 444 Z M192 444 L481 444 L481 344 L192 344 L192 444 Z " />
<glyph glyph-name="hbar" unicode="&#x127;" horiz-adv-x="529" d="M-16 520 L63 520 L63 0 L170 0 L170 331 C204 349 245 368 278 368 C344 368 361 336 361 262 L361 0 L469 0 L469 297 C469 415 417 461 331 461 C271 461 213 434 170 406 L170 520 L310 520 L310 591 L170 591 L170 653 L63 653 L63 591 L-16 591 L-16 520 Z " />
<glyph glyph-name="Itilde" unicode="&#x128;" horiz-adv-x="265" d="M74 0 L191 0 L191 583 L74 583 L74 0 Z M258 741 C247 727 225 710 198 710 C162 710 128 743 85 743 C41 743 6 714 -12 690 L16 634 C34 655 53 665 77 665 C114 665 148 632 192 632 C234 632 270 661 287 682 L258 741 Z " />
<glyph glyph-name="itilde" unicode="&#x129;" horiz-adv-x="262" d="M24 364 L92 364 L92 0 L199 0 L199 452 L24 452 L24 364 Z M262 651 C251 637 230 621 203 621 C167 621 132 653 89 653 C45 653 10 624 -8 601 L20 547 C39 569 57 579 82 579 C119 579 153 545 196 545 C238 545 274 575 291 595 L262 651 Z " />
<glyph glyph-name="Imacron" unicode="&#x12a;" horiz-adv-x="265" d="M74 0 L191 0 L191 583 L74 583 L74 0 Z M1 653 L266 653 L266 735 L1 735 L1 653 Z " />
<glyph glyph-name="imacron" unicode="&#x12b;" horiz-adv-x="262" d="M24 364 L92 364 L92 0 L199 0 L199 452 L24 452 L24 364 Z M8 558 L273 558 L273 643 L8 643 L8 558 Z " />
<glyph glyph-name="Ibreve" unicode="&#x12c;" horiz-adv-x="265" d="M74 0 L191 0 L191 583 L74 583 L74 0 Z M134 709 C92 709 61 737 52 763 L-6 728 C7 683 49 628 132 628 C213 628 261 673 274 729 L221 764 C213 736 182 709 134 709 L134 709 Z " />
<glyph glyph-name="ibreve" unicode="&#x12d;" horiz-adv-x="262" d="M24 364 L92 364 L92 0 L199 0 L199 452 L24 452 L24 364 Z M142 599 C93 599 69 635 60 661 L2 625 C15 580 57 526 140 526 C220 526 268 571 282 627 L229 662 C221 634 196 599 142 599 L142 599 Z " />
<glyph glyph-name="Iogonek" unicode="&#x12e;" horiz-adv-x="266" d="M194 -194 L191 -134 C174 -142 150 -149 129 -149 C104 -149 83 -138 83 -105 C83 -68 110 -28 159 0 L191 0 L191 583 L74 583 L74 1 C33 -27 -1 -68 -1 -122 C-1 -182 41 -214 104 -214 C135 -214 172 -206 194 -194 L194 -194 Z " />
<glyph glyph-name="iogonek" unicode="&#x12f;" horiz-adv-x="264" d="M25 364 L93 364 L93 5 C50 -23 12 -65 12 -122 C12 -182 54 -214 117 -214 C148 -214 185 -206 207 -194 L204 -134 C187 -142 163 -149 142 -149 C117 -149 96 -138 96 -105 C96 -68 123 -28 172 0 L200 0 L200 452 L25 452 L25 364 Z M151 554 C191 554 221 577 221 617 C221 657 191 680 151 680 C112 680 81 657 81 617 C81 577 112 554 151 554 L151 554 Z " />
<glyph glyph-name="Idotaccent" unicode="&#x130;" horiz-adv-x="265" d="M133 639 C170 639 199 660 199 698 C199 736 171 758 133 758 C96 758 67 737 67 698 C67 660 96 639 133 639 L133 639 Z M74 0 L191 0 L191 583 L74 583 L74 0 Z " />
<glyph glyph-name="dotlessi" unicode="&#x131;" horiz-adv-x="262" d="M24 364 L92 364 L92 0 L199 0 L199 452 L24 452 L24 364 Z " />
<glyph glyph-name="IJ" unicode="&#x132;" horiz-adv-x="547" d="M74 0 L191 0 L191 583 L74 583 L74 0 Z M345 -94 C432 2 477 89 477 179 L477 583 L361 583 L361 175 C361 96 314 37 256 -46 L345 -94 Z " />
<glyph glyph-name="ij" unicode="&#x133;" horiz-adv-x="525" d="M286 364 L354 364 L354 18 C354 -53 317 -130 286 -181 L364 -214 C428 -150 461 -51 461 32 L461 452 L286 452 L286 364 Z M24 364 L92 364 L92 0 L199 0 L199 452 L24 452 L24 364 Z M149 554 C188 554 219 577 219 617 C219 657 189 680 149 680 C109 680 78 657 78 617 C78 577 109 554 149 554 L149 554 Z M410 554 C450 554 480 577 480 617 C480 657 450 680 410 680 C371 680 340 657 340 617 C340 577 371 554 410 554 L410 554 Z " />
<glyph glyph-name="Jcircumflex" unicode="&#x134;" horiz-adv-x="282" d="M80 -94 C167 2 212 89 212 179 L212 583 L96 583 L96 175 C96 96 49 37 -9 -46 L80 -94 Z M118 773 L-2 632 L100 632 L156 707 L159 707 L213 632 L315 632 L205 773 L118 773 Z " />
<glyph glyph-name="jcircumflex" unicode="&#x135;" horiz-adv-x="263" d="M24 364 L92 364 L92 18 C92 -53 55 -130 24 -181 L102 -214 C166 -150 199 -51 199 32 L199 452 L24 452 L24 364 Z M93 682 L-21 528 L77 528 L127 617 L130 617 L178 527 L277 527 L174 682 L93 682 Z " />
<glyph glyph-name="Kcommaaccent" unicode="&#x136;" horiz-adv-x="562" d="M217 -249 L292 -249 L338 -62 L244 -62 L217 -249 Z M411 0 L549 0 L311 313 L553 583 L430 583 L199 308 L199 291 L411 0 Z M74 0 L191 0 L191 583 L74 583 L74 0 Z " />
<glyph glyph-name="kcommaaccent" unicode="&#x137;" horiz-adv-x="480" d="M169 -249 L244 -249 L290 -62 L196 -62 L169 -249 Z M334 0 L462 0 L300 255 L468 452 L347 452 L190 256 L190 235 L334 0 Z M63 0 L170 0 L170 653 L63 653 L63 0 Z " />
<glyph glyph-name="Lacute" unicode="&#x139;" horiz-adv-x="459" d="M74 0 L442 0 L442 91 L191 91 L191 583 L74 583 L74 0 Z M167 633 L278 766 L171 766 L84 633 L167 633 Z " />
<glyph glyph-name="lacute" unicode="&#x13a;" horiz-adv-x="241" d="M152 684 L263 817 L156 817 L69 684 L152 684 Z M67 0 L174 0 L174 653 L67 653 L67 0 Z " />
<glyph glyph-name="Lcommaaccent" unicode="&#x13b;" horiz-adv-x="459" d="M74 0 L442 0 L442 91 L191 91 L191 583 L74 583 L74 0 Z M202 -249 L277 -249 L323 -62 L229 -62 L202 -249 Z " />
<glyph glyph-name="lcommaaccent" unicode="&#x13c;" horiz-adv-x="241" d="M41 -249 L116 -249 L162 -62 L68 -62 L41 -249 Z M67 0 L174 0 L174 653 L67 653 L67 0 Z " />
<glyph glyph-name="Lcaron" unicode="&#x13d;" horiz-adv-x="459" d="M74 0 L442 0 L442 91 L191 91 L191 583 L74 583 L74 0 Z M276 460 L339 460 L386 638 L294 638 L276 460 Z " />
<glyph glyph-name="lcaron" unicode="&#x13e;" horiz-adv-x="252" d="M209 475 L272 475 L319 653 L227 653 L209 475 Z M67 0 L174 0 L174 653 L67 653 L67 0 Z " />
<glyph glyph-name="Ldot" unicode="&#x13f;" horiz-adv-x="483" d="M74 0 L442 0 L442 91 L191 91 L191 583 L74 583 L74 0 Z M371 265 C411 265 441 288 441 328 C441 368 411 391 371 391 C332 391 301 368 301 328 C301 288 332 265 371 265 L371 265 Z " />
<glyph glyph-name="ldot" unicode="&#x140;" horiz-adv-x="325" d="M285 277 C322 277 351 298 351 336 C351 374 323 396 285 396 C248 396 219 375 219 336 C219 298 248 277 285 277 L285 277 Z M67 0 L174 0 L174 653 L67 653 L67 0 Z " />
<glyph glyph-name="Lslash" unicode="&#x141;" horiz-adv-x="468" d="M20 186 L83 221 L83 0 L451 0 L451 91 L200 91 L200 287 L327 358 L327 439 L200 366 L200 583 L83 583 L83 299 L20 263 L20 186 Z " />
<glyph glyph-name="lslash" unicode="&#x142;" horiz-adv-x="280" d="M14 235 L88 279 L88 0 L195 0 L195 342 L274 389 L274 472 L195 424 L195 653 L88 653 L88 359 L14 315 L14 235 Z " />
<glyph glyph-name="Nacute" unicode="&#x143;" horiz-adv-x="660" d="M358 633 L469 766 L362 766 L275 633 L358 633 Z M74 0 L183 0 L183 398 L185 398 L483 0 L585 0 L585 583 L477 583 L477 195 L475 195 L175 583 L74 583 L74 0 Z " />
<glyph glyph-name="nacute" unicode="&#x144;" horiz-adv-x="532" d="M67 0 L174 0 L174 331 C208 350 249 368 281 368 C347 368 364 336 364 262 L364 0 L472 0 L472 297 C472 415 420 461 334 461 C270 461 208 430 165 400 L154 452 L48 452 L67 343 L67 0 Z M301 529 L422 679 L315 679 L218 529 L301 529 Z " />
<glyph glyph-name="Ncommaaccent" unicode="&#x145;" horiz-adv-x="660" d="M266 -249 L341 -249 L387 -62 L293 -62 L266 -249 Z M74 0 L183 0 L183 398 L185 398 L483 0 L585 0 L585 583 L477 583 L477 195 L475 195 L175 583 L74 583 L74 0 Z " />
<glyph glyph-name="ncommaaccent" unicode="&#x146;" horiz-adv-x="532" d="M67 0 L174 0 L174 331 C208 350 249 368 281 368 C347 368 364 336 364 262 L364 0 L472 0 L472 297 C472 415 420 461 334 461 C270 461 208 430 165 400 L154 452 L48 452 L67 343 L67 0 Z M193 -249 L268 -249 L314 -62 L220 -62 L193 -249 Z " />
<glyph glyph-name="Ncaron" unicode="&#x147;" horiz-adv-x="660" d="M373 625 L494 766 L392 766 L336 691 L332 691 L279 767 L176 767 L286 625 L373 625 Z M74 0 L183 0 L183 398 L185 398 L483 0 L585 0 L585 583 L477 583 L477 195 L475 195 L175 583 L74 583 L74 0 Z " />
<glyph glyph-name="ncaron" unicode="&#x148;" horiz-adv-x="532" d="M67 0 L174 0 L174 331 C208 350 249 368 281 368 C347 368 364 336 364 262 L364 0 L472 0 L472 297 C472 415 420 461 334 461 C270 461 208 430 165 400 L154 452 L48 452 L67 343 L67 0 Z M304 528 L417 682 L320 682 L270 593 L266 593 L219 683 L120 683 L223 528 L304 528 Z " />
<glyph glyph-name="napostrophe" unicode="&#x149;" horiz-adv-x="532" d="M67 0 L174 0 L174 331 C208 350 249 368 281 368 C347 368 364 336 364 262 L364 0 L472 0 L472 297 C472 415 420 461 334 461 C270 461 208 430 165 400 L154 452 L48 452 L67 343 L67 0 Z M63 488 C127 541 164 614 164 675 C164 713 138 737 101 737 C67 737 42 709 41 679 C63 667 69 650 69 627 C69 592 48 545 20 507 L63 488 Z " />
<glyph glyph-name="Eng" unicode="&#x14a;" horiz-adv-x="660" d="M74 0 L183 0 L183 398 L185 398 L477 8 L477 -4 C477 -51 466 -103 395 -187 L477 -237 C565 -141 585 -81 585 -4 L585 583 L477 583 L477 195 L475 195 L175 583 L74 583 L74 0 Z " />
<glyph glyph-name="eng" unicode="&#x14b;" horiz-adv-x="531" d="M472 297 C472 415 420 461 334 461 C270 461 208 430 165 400 L154 452 L48 452 L67 343 L67 0 L174 0 L174 331 C208 350 249 368 281 368 C347 368 364 336 364 262 L364 18 C364 -53 327 -130 296 -181 L374 -214 C438 -150 472 -51 472 32 L472 297 Z " />
<glyph glyph-name="Omacron" unicode="&#x14c;" horiz-adv-x="651" d="M194 653 L459 653 L459 735 L194 735 L194 653 Z M318 -10 C510 -10 610 143 610 311 C610 469 516 593 335 593 C151 593 41 459 41 278 C41 114 139 -10 318 -10 L318 -10 Z M324 81 C215 81 164 177 164 297 C164 420 219 503 327 503 C434 503 487 418 487 293 C487 177 439 81 324 81 L324 81 Z " />
<glyph glyph-name="omacron" unicode="&#x14d;" horiz-adv-x="510" d="M122 558 L387 558 L387 643 L122 643 L122 558 Z M249 -8 C387 -8 473 98 473 230 C473 390 399 462 258 462 C125 462 37 354 37 221 C37 65 115 -8 249 -8 L249 -8 Z M256 77 C173 77 148 142 148 227 C148 306 171 375 255 375 C345 375 362 303 362 226 C362 145 340 77 256 77 L256 77 Z " />
<glyph glyph-name="Obreve" unicode="&#x14e;" horiz-adv-x="651" d="M327 708 C285 708 254 736 245 762 L187 727 C200 682 242 627 325 627 C406 627 454 672 467 728 L414 763 C406 735 375 708 327 708 L327 708 Z M318 -10 C510 -10 610 143 610 311 C610 469 516 593 335 593 C151 593 41 459 41 278 C41 114 139 -10 318 -10 L318 -10 Z M324 81 C215 81 164 177 164 297 C164 420 219 503 327 503 C434 503 487 418 487 293 C487 177 439 81 324 81 L324 81 Z " />
<glyph glyph-name="obreve" unicode="&#x14f;" horiz-adv-x="510" d="M249 -8 C387 -8 473 98 473 230 C473 390 399 462 258 462 C125 462 37 354 37 221 C37 65 115 -8 249 -8 L249 -8 Z M256 77 C173 77 148 142 148 227 C148 306 171 375 255 375 C345 375 362 303 362 226 C362 145 340 77 256 77 L256 77 Z M255 599 C206 599 182 635 173 661 L115 625 C128 580 170 526 253 526 C333 526 381 571 395 627 L342 662 C334 634 309 599 255 599 L255 599 Z " />
<glyph glyph-name="Ohungarumlaut" unicode="&#x150;" horiz-adv-x="651" d="M318 -10 C510 -10 610 143 610 311 C610 469 516 593 335 593 C151 593 41 459 41 278 C41 114 139 -10 318 -10 L318 -10 Z M324 81 C215 81 164 177 164 297 C164 420 219 503 327 503 C434 503 487 418 487 293 C487 177 439 81 324 81 L324 81 Z M290 633 L388 766 L284 766 L210 633 L290 633 Z M440 633 L561 766 L456 766 L360 633 L440 633 Z " />
<glyph glyph-name="ohungarumlaut" unicode="&#x151;" horiz-adv-x="510" d="M198 529 L316 679 L211 679 L118 529 L198 529 Z M362 529 L488 679 L384 679 L282 529 L362 529 Z M249 -8 C387 -8 473 98 473 230 C473 390 399 462 258 462 C125 462 37 354 37 221 C37 65 115 -8 249 -8 L249 -8 Z M256 77 C173 77 148 142 148 227 C148 306 171 375 255 375 C345 375 362 303 362 226 C362 145 340 77 256 77 L256 77 Z " />
<glyph glyph-name="OE" unicode="&#x152;" horiz-adv-x="858" d="M430 0 L820 0 L820 91 L546 91 L546 253 L767 253 L767 341 L546 341 L546 492 L813 492 L813 583 L430 583 L430 577 C401 587 370 593 335 593 C151 593 41 459 41 278 C41 114 139 -10 318 -10 C360 -10 397 -2 430 13 L430 0 Z M324 81 C215 81 164 177 164 297 C164 420 219 503 327 503 C370 503 404 488 430 460 L430 127 C404 99 369 81 324 81 L324 81 Z " />
<glyph glyph-name="oe" unicode="&#x153;" horiz-adv-x="815" d="M249 -8 C317 -8 373 18 412 60 C449 15 509 -8 588 -8 C660 -8 722 3 765 26 L765 106 C720 88 660 78 610 78 C530 78 480 115 473 201 L777 201 L777 241 C777 372 712 462 575 462 C512 462 461 438 425 398 C389 441 333 462 258 462 C125 462 37 354 37 221 C37 65 115 -8 249 -8 L249 -8 Z M256 77 C173 77 148 142 148 227 C148 306 171 375 255 375 C345 375 362 303 362 226 C362 145 340 77 256 77 L256 77 Z M574 376 C634 376 661 332 664 266 L474 266 C483 348 523 376 574 376 L574 376 Z " />
<glyph glyph-name="Racute" unicode="&#x154;" horiz-adv-x="548" d="M74 0 L191 0 L191 201 L246 201 C260 201 274 201 287 203 L403 0 L537 0 L390 231 C458 266 492 327 492 396 C492 520 407 583 285 583 L74 583 L74 0 Z M236 495 C323 494 372 462 372 393 C372 309 315 290 226 290 L191 290 L191 495 L236 495 Z M283 633 L394 766 L287 766 L200 633 L283 633 Z " />
<glyph glyph-name="racute" unicode="&#x155;" horiz-adv-x="357" d="M67 0 L174 0 L174 314 C206 338 248 362 301 362 C314 362 327 361 341 357 L341 456 C325 460 311 461 295 461 C251 461 202 431 165 396 L154 452 L48 452 L67 343 L67 0 Z M234 529 L355 679 L248 679 L151 529 L234 529 Z " />
<glyph glyph-name="Rcommaaccent" unicode="&#x156;" horiz-adv-x="548" d="M74 0 L191 0 L191 201 L246 201 C260 201 274 201 287 203 L403 0 L537 0 L390 231 C458 266 492 327 492 396 C492 520 407 583 285 583 L74 583 L74 0 Z M236 495 C323 494 372 462 372 393 C372 309 315 290 226 290 L191 290 L191 495 L236 495 Z M214 -249 L289 -249 L335 -62 L241 -62 L214 -249 Z " />
<glyph glyph-name="rcommaaccent" unicode="&#x157;" horiz-adv-x="357" d="M67 0 L174 0 L174 314 C206 338 248 362 301 362 C314 362 327 361 341 357 L341 456 C325 460 311 461 295 461 C251 461 202 431 165 396 L154 452 L48 452 L67 343 L67 0 Z M45 -249 L120 -249 L166 -62 L72 -62 L45 -249 Z " />
<glyph glyph-name="Rcaron" unicode="&#x158;" horiz-adv-x="548" d="M74 0 L191 0 L191 201 L246 201 C260 201 274 201 287 203 L403 0 L537 0 L390 231 C458 266 492 327 492 396 C492 520 407 583 285 583 L74 583 L74 0 Z M236 495 C323 494 372 462 372 393 C372 309 315 290 226 290 L191 290 L191 495 L236 495 Z M298 625 L419 766 L317 766 L261 691 L257 691 L204 767 L101 767 L211 625 L298 625 Z " />
<glyph glyph-name="rcaron" unicode="&#x159;" horiz-adv-x="357" d="M67 0 L174 0 L174 314 C206 338 248 362 301 362 C314 362 327 361 341 357 L341 456 C325 460 311 461 295 461 C251 461 202 431 165 396 L154 452 L48 452 L67 343 L67 0 Z M231 528 L344 682 L247 682 L197 593 L193 593 L146 683 L47 683 L150 528 L231 528 Z " />
<glyph glyph-name="Sacute" unicode="&#x15a;" horiz-adv-x="485" d="M50 25 C106 3 165 -10 224 -10 C345 -10 447 47 447 166 C447 282 347 318 260 348 C191 372 155 390 155 435 C155 477 205 499 256 499 C317 499 382 480 424 454 L424 557 C385 577 323 593 249 593 C139 593 45 528 45 418 C45 319 115 280 192 252 C269 224 337 209 337 155 C337 110 293 83 234 83 C171 83 95 103 50 128 L50 25 Z M262 633 L373 766 L266 766 L179 633 L262 633 Z " />
<glyph glyph-name="sacute" unicode="&#x15b;" horiz-adv-x="427" d="M238 529 L359 679 L252 679 L155 529 L238 529 Z M202 -8 C301 -8 392 38 392 135 C392 233 312 256 243 272 C190 283 145 294 145 331 C145 359 179 377 222 377 C267 377 309 372 375 343 L375 434 C333 454 273 462 223 462 C126 462 40 410 40 321 C40 233 113 206 184 189 C240 175 291 165 291 128 C291 94 254 75 210 75 C161 75 113 84 44 109 L44 20 C89 4 141 -8 202 -8 L202 -8 Z " />
<glyph glyph-name="Scircumflex" unicode="&#x15c;" horiz-adv-x="485" d="M50 25 C106 3 165 -10 224 -10 C345 -10 447 47 447 166 C447 282 347 318 260 348 C191 372 155 390 155 435 C155 477 205 499 256 499 C317 499 382 480 424 454 L424 557 C385 577 323 593 249 593 C139 593 45 528 45 418 C45 319 115 280 192 252 C269 224 337 209 337 155 C337 110 293 83 234 83 C171 83 95 103 50 128 L50 25 Z M210 773 L90 632 L192 632 L248 707 L251 707 L305 632 L407 632 L297 773 L210 773 Z " />
<glyph glyph-name="scircumflex" unicode="&#x15d;" horiz-adv-x="427" d="M185 682 L71 528 L169 528 L219 617 L222 617 L270 527 L369 527 L266 682 L185 682 Z M202 -8 C301 -8 392 38 392 135 C392 233 312 256 243 272 C190 283 145 294 145 331 C145 359 179 377 222 377 C267 377 309 372 375 343 L375 434 C333 454 273 462 223 462 C126 462 40 410 40 321 C40 233 113 206 184 189 C240 175 291 165 291 128 C291 94 254 75 210 75 C161 75 113 84 44 109 L44 20 C89 4 141 -8 202 -8 L202 -8 Z " />
<glyph glyph-name="Scedilla" unicode="&#x15e;" horiz-adv-x="485" d="M221 -218 C294 -218 337 -179 337 -130 C337 -84 303 -52 254 -42 L267 -7 C368 4 447 61 447 166 C447 282 347 318 260 348 C191 372 155 390 155 435 C155 477 205 499 256 499 C317 499 382 480 424 454 L424 557 C385 577 323 593 249 593 C139 593 45 528 45 418 C45 319 115 280 192 252 C269 224 337 209 337 155 C337 110 293 83 234 83 C171 83 95 103 50 128 L50 25 C99 5 151 -7 203 -9 L181 -60 L181 -75 C231 -74 258 -97 258 -123 C258 -142 246 -157 210 -157 C191 -157 156 -146 141 -136 L134 -198 C152 -210 193 -218 221 -218 L221 -218 Z " />
<glyph glyph-name="scedilla" unicode="&#x15f;" horiz-adv-x="428" d="M191 -218 C264 -218 307 -179 307 -130 C307 -84 273 -52 224 -42 L237 -6 C321 4 392 50 392 135 C392 233 312 256 243 272 C190 283 145 294 145 331 C145 359 179 377 222 377 C267 377 309 372 375 343 L375 434 C333 454 273 462 223 462 C126 462 40 410 40 321 C40 233 113 206 184 189 C240 175 291 165 291 128 C291 94 254 75 210 75 C161 75 113 84 44 109 L44 20 C82 6 125 -4 174 -7 L151 -60 L151 -75 C201 -74 228 -97 228 -123 C228 -142 216 -157 180 -157 C161 -157 126 -146 111 -136 L104 -198 C122 -210 163 -218 191 -218 L191 -218 Z " />
<glyph glyph-name="Scaron" unicode="&#x160;" horiz-adv-x="485" d="M50 25 C106 3 165 -10 224 -10 C345 -10 447 47 447 166 C447 282 347 318 260 348 C191 372 155 390 155 435 C155 477 205 499 256 499 C317 499 382 480 424 454 L424 557 C385 577 323 593 249 593 C139 593 45 528 45 418 C45 319 115 280 192 252 C269 224 337 209 337 155 C337 110 293 83 234 83 C171 83 95 103 50 128 L50 25 Z M286 625 L407 766 L305 766 L249 691 L245 691 L192 767 L89 767 L199 625 L286 625 Z " />
<glyph glyph-name="scaron" unicode="&#x161;" horiz-adv-x="427" d="M256 528 L369 682 L272 682 L222 593 L218 593 L171 683 L72 683 L175 528 L256 528 Z M202 -8 C301 -8 392 38 392 135 C392 233 312 256 243 272 C190 283 145 294 145 331 C145 359 179 377 222 377 C267 377 309 372 375 343 L375 434 C333 454 273 462 223 462 C126 462 40 410 40 321 C40 233 113 206 184 189 C240 175 291 165 291 128 C291 94 254 75 210 75 C161 75 113 84 44 109 L44 20 C89 4 141 -8 202 -8 L202 -8 Z " />
<glyph glyph-name="Tcommaaccent" unicode="&#x162;" horiz-adv-x="553" d="M17 492 L217 492 L217 0 L333 0 L333 492 L536 492 L536 583 L17 583 L17 492 Z M201 -249 L276 -249 L322 -62 L228 -62 L201 -249 Z " />
<glyph glyph-name="tcommaaccent" unicode="&#x163;" horiz-adv-x="388" d="M22 364 L100 364 L100 139 C99 43 160 -8 245 -8 C294 -8 338 -2 366 12 L366 93 C344 87 315 81 289 81 C241 81 208 94 207 155 L207 364 L357 364 L357 452 L207 452 L207 572 L100 572 L100 452 L22 452 L22 364 Z M169 -249 L244 -249 L290 -62 L196 -62 L169 -249 Z " />
<glyph glyph-name="Tcaron" unicode="&#x164;" horiz-adv-x="553" d="M17 492 L217 492 L217 0 L333 0 L333 492 L536 492 L536 583 L17 583 L17 492 Z M311 625 L432 766 L330 766 L274 691 L270 691 L217 767 L114 767 L224 625 L311 625 Z " />
<glyph glyph-name="tcaron" unicode="&#x165;" horiz-adv-x="388" d="M22 364 L100 364 L100 139 C99 43 160 -8 245 -8 C294 -8 338 -2 366 12 L366 93 C344 87 315 81 289 81 C241 81 208 94 207 155 L207 364 L357 364 L357 452 L207 452 L207 572 L100 572 L100 452 L22 452 L22 364 Z M253 532 L316 532 L363 710 L271 710 L253 532 Z " />
<glyph glyph-name="Tbar" unicode="&#x166;" horiz-adv-x="553" d="M17 492 L217 492 L217 315 L99 315 L99 244 L217 244 L217 0 L333 0 L333 244 L453 244 L453 315 L333 315 L333 492 L536 492 L536 583 L17 583 L17 492 Z " />
<glyph glyph-name="tbar" unicode="&#x167;" horiz-adv-x="391" d="M102 572 L102 452 L24 452 L24 364 L102 364 L102 286 L42 286 L42 218 L102 218 L102 139 C101 43 162 -8 247 -8 C296 -8 340 -2 368 12 L368 93 C346 87 317 81 291 81 C243 81 210 94 209 155 L209 218 L324 218 L324 286 L209 286 L209 364 L359 364 L359 452 L209 452 L209 572 L102 572 Z " />
<glyph glyph-name="Utilde" unicode="&#x168;" horiz-adv-x="643" d="M449 741 C438 727 416 710 389 710 C353 710 319 743 276 743 C232 743 197 714 179 690 L207 634 C225 655 244 665 268 665 C305 665 339 632 383 632 C425 632 461 661 478 682 L449 741 Z M324 -10 C447 -10 576 64 576 238 L576 583 L459 583 L459 240 C459 133 415 84 331 84 C245 84 185 124 185 230 L185 583 L68 583 L68 215 C68 53 189 -10 324 -10 L324 -10 Z " />
<glyph glyph-name="utilde" unicode="&#x169;" horiz-adv-x="525" d="M458 452 L351 452 L351 120 C316 100 279 81 247 81 C185 81 168 111 168 179 L168 452 L60 452 L60 156 C60 38 111 -8 198 -8 C262 -8 317 23 359 52 L370 0 L477 0 L458 111 L458 452 Z M386 651 C375 637 354 621 327 621 C291 621 256 653 213 653 C169 653 134 624 116 601 L144 547 C163 569 181 579 206 579 C243 579 277 545 320 545 C362 545 398 575 415 595 L386 651 Z " />
<glyph glyph-name="Umacron" unicode="&#x16a;" horiz-adv-x="643" d="M193 653 L458 653 L458 735 L193 735 L193 653 Z M324 -10 C447 -10 576 64 576 238 L576 583 L459 583 L459 240 C459 133 415 84 331 84 C245 84 185 124 185 230 L185 583 L68 583 L68 215 C68 53 189 -10 324 -10 L324 -10 Z " />
<glyph glyph-name="umacron" unicode="&#x16b;" horiz-adv-x="525" d="M458 452 L351 452 L351 120 C316 100 279 81 247 81 C185 81 168 111 168 179 L168 452 L60 452 L60 156 C60 38 111 -8 198 -8 C262 -8 317 23 359 52 L370 0 L477 0 L458 111 L458 452 Z M130 558 L395 558 L395 643 L130 643 L130 558 Z " />
<glyph glyph-name="Ubreve" unicode="&#x16c;" horiz-adv-x="643" d="M321 709 C279 709 248 737 239 763 L181 728 C194 683 236 628 319 628 C400 628 448 673 461 729 L408 764 C400 736 369 709 321 709 L321 709 Z M324 -10 C447 -10 576 64 576 238 L576 583 L459 583 L459 240 C459 133 415 84 331 84 C245 84 185 124 185 230 L185 583 L68 583 L68 215 C68 53 189 -10 324 -10 L324 -10 Z " />
<glyph glyph-name="ubreve" unicode="&#x16d;" horiz-adv-x="525" d="M458 452 L351 452 L351 120 C316 100 279 81 247 81 C185 81 168 111 168 179 L168 452 L60 452 L60 156 C60 38 111 -8 198 -8 C262 -8 317 23 359 52 L370 0 L477 0 L458 111 L458 452 Z M265 599 C216 599 192 635 183 661 L125 625 C138 580 180 526 263 526 C343 526 391 571 405 627 L352 662 C344 634 319 599 265 599 L265 599 Z " />
<glyph glyph-name="Uring" unicode="&#x16e;" horiz-adv-x="643" d="M324 -10 C447 -10 576 64 576 238 L576 583 L459 583 L459 240 C459 133 415 84 331 84 C245 84 185 124 185 230 L185 583 L68 583 L68 215 C68 53 189 -10 324 -10 L324 -10 Z M324 799 C276 799 223 768 223 708 C223 648 272 616 324 616 C377 616 428 651 428 708 C428 768 377 799 324 799 L324 799 Z M324 667 C297 667 286 682 286 708 C286 730 297 748 324 748 C352 748 365 732 365 708 C365 683 352 667 324 667 L324 667 Z " />
<glyph glyph-name="uring" unicode="&#x16f;" horiz-adv-x="525" d="M458 452 L351 452 L351 120 C316 100 279 81 247 81 C185 81 168 111 168 179 L168 452 L60 452 L60 156 C60 38 111 -8 198 -8 C262 -8 317 23 359 52 L370 0 L477 0 L458 111 L458 452 Z M264 702 C215 702 163 671 163 611 C163 552 212 519 264 519 C317 519 368 554 368 611 C368 671 317 702 264 702 L264 702 Z M264 651 C292 651 305 636 305 611 C305 586 292 570 264 570 C237 570 226 585 226 611 C226 633 237 651 264 651 L264 651 Z " />
<glyph glyph-name="Uhungarumlaut" unicode="&#x170;" horiz-adv-x="643" d="M324 -10 C447 -10 576 64 576 238 L576 583 L459 583 L459 240 C459 133 415 84 331 84 C245 84 185 124 185 230 L185 583 L68 583 L68 215 C68 53 189 -10 324 -10 L324 -10 Z M275 633 L373 766 L269 766 L195 633 L275 633 Z M425 633 L546 766 L441 766 L345 633 L425 633 Z " />
<glyph glyph-name="uhungarumlaut" unicode="&#x171;" horiz-adv-x="525" d="M458 452 L351 452 L351 120 C316 100 279 81 247 81 C185 81 168 111 168 179 L168 452 L60 452 L60 156 C60 38 111 -8 198 -8 C262 -8 317 23 359 52 L370 0 L477 0 L458 111 L458 452 Z M203 529 L321 679 L216 679 L123 529 L203 529 Z M367 529 L493 679 L389 679 L287 529 L367 529 Z " />
<glyph glyph-name="Uogonek" unicode="&#x172;" horiz-adv-x="644" d="M439 -194 L436 -134 C419 -142 395 -149 374 -149 C349 -149 328 -138 328 -105 C328 -68 356 -27 407 1 C499 28 576 103 576 238 L576 583 L459 583 L459 240 C459 133 415 84 331 84 C245 84 185 124 185 230 L185 583 L68 583 L68 215 C68 60 178 -3 305 -9 C271 -37 244 -74 244 -122 C244 -182 286 -214 349 -214 C380 -214 417 -206 439 -194 L439 -194 Z " />
<glyph glyph-name="uogonek" unicode="&#x173;" horiz-adv-x="525" d="M458 452 L351 452 L351 120 C316 100 279 81 247 81 C185 81 168 111 168 179 L168 452 L60 452 L60 156 C60 38 111 -8 198 -8 C262 -8 317 23 359 52 L370 0 L371 0 C331 -28 298 -68 298 -122 C298 -182 340 -214 403 -214 C434 -214 471 -206 493 -194 L490 -134 C473 -142 449 -149 428 -149 C403 -149 382 -138 382 -105 C382 -68 409 -28 458 0 L477 0 L458 111 L458 452 Z " />
<glyph glyph-name="Wcircumflex" unicode="&#x174;" horiz-adv-x="901" d="M893 583 L774 583 L692 299 L647 137 L642 137 L599 302 L523 583 L398 583 L312 299 L263 135 L258 135 L222 301 L156 583 L30 583 L178 0 L312 0 L396 268 L444 423 L449 423 L492 267 L565 0 L702 0 L893 583 Z M414 773 L294 632 L396 632 L452 707 L455 707 L509 632 L611 632 L501 773 L414 773 Z " />
<glyph glyph-name="wcircumflex" unicode="&#x175;" horiz-adv-x="764" d="M353 682 L239 528 L337 528 L387 617 L390 617 L438 527 L537 527 L434 682 L353 682 Z M749 452 L636 452 L578 250 L540 112 L535 112 L498 247 L441 452 L339 452 L271 242 L230 113 L225 113 L194 242 L142 452 L21 452 L161 0 L277 0 L346 213 L378 316 L385 316 L415 210 L475 0 L598 0 L749 452 Z " />
<glyph glyph-name="Ycircumflex" unicode="&#x176;" horiz-adv-x="560" d="M556 583 L435 583 L347 415 L290 305 L286 305 L229 415 L139 583 L8 583 L221 212 L221 0 L337 0 L337 210 L556 583 Z M242 773 L122 632 L224 632 L280 707 L283 707 L337 632 L439 632 L329 773 L242 773 Z " />
<glyph glyph-name="ycircumflex" unicode="&#x177;" horiz-adv-x="482" d="M224 -207 L305 18 L473 452 L359 452 L280 216 L246 114 L240 114 L211 213 L138 452 L18 452 L176 0 L198 0 L110 -204 L113 -207 L224 -207 Z M214 682 L100 528 L198 528 L248 617 L251 617 L299 527 L398 527 L295 682 L214 682 Z " />
<glyph glyph-name="Ydieresis" unicode="&#x178;" horiz-adv-x="560" d="M556 583 L435 583 L347 415 L290 305 L286 305 L229 415 L139 583 L8 583 L221 212 L221 0 L337 0 L337 210 L556 583 Z M193 631 C228 631 254 652 254 689 C254 727 228 749 193 749 C158 749 132 728 132 689 C132 652 158 631 193 631 L193 631 Z M382 631 C417 631 443 652 443 689 C443 727 417 749 382 749 C348 749 321 728 321 689 C321 652 348 631 382 631 L382 631 Z " />
<glyph glyph-name="Zacute" unicode="&#x179;" horiz-adv-x="518" d="M482 0 L482 91 L191 91 L498 580 L496 583 L39 583 L39 492 L319 492 L19 3 L21 0 L482 0 Z M291 633 L402 766 L295 766 L208 633 L291 633 Z " />
<glyph glyph-name="zacute" unicode="&#x17a;" horiz-adv-x="449" d="M25 3 L26 0 L419 0 L419 88 L187 88 L417 450 L415 452 L35 452 L35 364 L253 364 L25 3 Z M261 529 L382 679 L275 679 L178 529 L261 529 Z " />
<glyph glyph-name="Zdotaccent" unicode="&#x17b;" horiz-adv-x="518" d="M482 0 L482 91 L191 91 L498 580 L496 583 L39 583 L39 492 L319 492 L19 3 L21 0 L482 0 Z M271 638 C308 638 337 659 337 697 C337 735 309 757 271 757 C234 757 205 736 205 697 C205 659 234 638 271 638 L271 638 Z " />
<glyph glyph-name="zdotaccent" unicode="&#x17c;" horiz-adv-x="449" d="M25 3 L26 0 L419 0 L419 88 L187 88 L417 450 L415 452 L35 452 L35 364 L253 364 L25 3 Z M228 554 C268 554 298 577 298 617 C298 657 268 680 228 680 C189 680 158 657 158 617 C158 577 189 554 228 554 L228 554 Z " />
<glyph glyph-name="Zcaron" unicode="&#x17d;" horiz-adv-x="518" d="M482 0 L482 91 L191 91 L498 580 L496 583 L39 583 L39 492 L319 492 L19 3 L21 0 L482 0 Z M304 625 L425 766 L323 766 L267 691 L263 691 L210 767 L107 767 L217 625 L304 625 Z " />
<glyph glyph-name="zcaron" unicode="&#x17e;" horiz-adv-x="449" d="M25 3 L26 0 L419 0 L419 88 L187 88 L417 450 L415 452 L35 452 L35 364 L253 364 L25 3 Z M263 528 L376 682 L279 682 L229 593 L225 593 L178 683 L79 683 L182 528 L263 528 Z " />
<glyph glyph-name="uni018F" unicode="&#x18f;" horiz-adv-x="627" d="M77 555 L77 455 C133 484 200 499 262 499 C372 499 453 451 458 335 L44 335 C37 311 33 289 33 261 C33 95 142 -10 300 -10 C491 -10 585 130 585 304 C585 509 454 593 273 593 C215 593 138 579 77 555 L77 555 Z M303 81 C215 81 154 141 151 251 L459 251 C453 145 405 81 303 81 L303 81 Z " />
<glyph glyph-name="florin" unicode="&#x192;" horiz-adv-x="517" d="M193 48 C181 -25 151 -56 102 -56 C78 -56 60 -53 37 -48 L25 -133 C46 -138 68 -141 94 -141 C196 -141 275 -83 292 31 L312 237 L436 237 L436 319 L320 319 L327 395 C334 467 360 503 415 503 C438 503 457 501 481 495 L488 586 C469 590 449 592 424 592 C319 592 238 534 228 422 L218 319 L113 319 L113 237 L210 237 L193 48 Z " />
<glyph glyph-name="uni01C4" unicode="&#x1c4;" horiz-adv-x="1156" d="M74 0 L263 0 C456 2 597 103 597 303 C597 519 444 582 259 583 L74 583 L74 0 Z M1120 0 L1120 91 L829 91 L1136 580 L1134 583 L677 583 L677 492 L957 492 L657 3 L659 0 L1120 0 Z M246 492 C388 492 473 440 473 291 C473 165 394 91 256 91 L191 91 L191 492 L246 492 Z M942 625 L1063 766 L961 766 L905 691 L901 691 L848 767 L745 767 L855 625 L942 625 Z " />
<glyph glyph-name="uni01C5" unicode="&#x1c5;" horiz-adv-x="1088" d="M74 0 L263 0 C456 2 597 103 597 303 C597 519 444 582 259 583 L74 583 L74 0 Z M246 492 C388 492 473 440 473 291 C473 165 394 91 256 91 L191 91 L191 492 L246 492 Z M663 3 L664 0 L1057 0 L1057 88 L825 88 L1055 450 L1053 452 L673 452 L673 364 L891 364 L663 3 Z M902 528 L1015 682 L918 682 L868 593 L864 593 L817 683 L718 683 L821 528 L902 528 Z " />
<glyph glyph-name="uni01C6" unicode="&#x1c6;" horiz-adv-x="970" d="M363 0 L472 0 L455 101 L455 653 L347 653 L347 455 C323 459 289 462 265 462 C145 462 37 367 37 205 C37 50 132 -8 213 -8 C271 -8 317 17 354 48 L363 0 Z M545 3 L546 0 L939 0 L939 88 L707 88 L937 450 L935 452 L555 452 L555 364 L773 364 L545 3 Z M253 78 C182 78 148 128 148 221 C148 331 194 377 279 377 C300 377 326 373 347 368 L347 112 C310 90 285 78 253 78 L253 78 Z M784 528 L897 682 L800 682 L750 593 L746 593 L699 683 L600 683 L703 528 L784 528 Z " />
<glyph glyph-name="uni01C7" unicode="&#x1c7;" horiz-adv-x="740" d="M74 0 L442 0 L442 91 L191 91 L191 583 L74 583 L74 0 Z M538 -94 C625 2 670 89 670 179 L670 583 L554 583 L554 175 C554 96 507 37 449 -46 L538 -94 Z " />
<glyph glyph-name="uni01C8" unicode="&#x1c8;" horiz-adv-x="721" d="M74 0 L442 0 L442 91 L191 91 L191 583 L74 583 L74 0 Z M482 364 L550 364 L550 18 C550 -53 513 -130 482 -181 L560 -214 C624 -150 657 -51 657 32 L657 452 L482 452 L482 364 Z M606 554 C646 554 676 577 676 617 C676 657 646 680 606 680 C567 680 536 657 536 617 C536 577 567 554 606 554 L606 554 Z " />
<glyph glyph-name="uni01C9" unicode="&#x1c9;" horiz-adv-x="504" d="M264 364 L332 364 L332 18 C332 -53 295 -130 264 -181 L342 -214 C406 -150 439 -51 439 32 L439 452 L264 452 L264 364 Z M67 0 L174 0 L174 653 L67 653 L67 0 Z M388 554 C428 554 458 577 458 617 C458 657 428 680 388 680 C349 680 318 657 318 617 C318 577 349 554 388 554 L388 554 Z " />
<glyph glyph-name="uni01CA" unicode="&#x1ca;" horiz-adv-x="942" d="M739 -94 C826 2 871 89 871 179 L871 583 L755 583 L755 175 C755 96 708 37 650 -46 L739 -94 Z M74 0 L183 0 L183 398 L185 398 L483 0 L585 0 L585 583 L477 583 L477 195 L475 195 L175 583 L74 583 L74 0 Z " />
<glyph glyph-name="uni01CB" unicode="&#x1cb;" horiz-adv-x="923" d="M74 0 L183 0 L183 398 L185 398 L483 0 L585 0 L585 583 L477 583 L477 195 L475 195 L175 583 L74 583 L74 0 Z M683 364 L751 364 L751 18 C751 -53 714 -130 683 -181 L761 -214 C825 -150 858 -51 858 32 L858 452 L683 452 L683 364 Z M807 554 C847 554 877 577 877 617 C877 657 847 680 807 680 C768 680 737 657 737 617 C737 577 768 554 807 554 L807 554 Z " />
<glyph glyph-name="uni01CC" unicode="&#x1cc;" horiz-adv-x="795" d="M67 0 L174 0 L174 331 C208 350 249 368 281 368 C347 368 364 336 364 262 L364 0 L472 0 L472 297 C472 415 420 461 334 461 C270 461 208 430 165 400 L154 452 L48 452 L67 343 L67 0 Z M555 364 L623 364 L623 18 C623 -53 586 -130 555 -181 L633 -214 C697 -150 730 -51 730 32 L730 452 L555 452 L555 364 Z M679 554 C719 554 749 577 749 617 C749 657 719 680 679 680 C640 680 609 657 609 617 C609 577 640 554 679 554 L679 554 Z " />
<glyph glyph-name="uni01D3" unicode="&#x1d3;" horiz-adv-x="643" d="M363 626 L484 767 L382 767 L326 692 L322 692 L269 768 L166 768 L276 626 L363 626 Z M324 -10 C447 -10 576 64 576 238 L576 583 L459 583 L459 240 C459 133 415 84 331 84 C245 84 185 124 185 230 L185 583 L68 583 L68 215 C68 53 189 -10 324 -10 L324 -10 Z " />
<glyph glyph-name="uni01D4" unicode="&#x1d4;" horiz-adv-x="525" d="M458 452 L351 452 L351 120 C316 100 279 81 247 81 C185 81 168 111 168 179 L168 452 L60 452 L60 156 C60 38 111 -8 198 -8 C262 -8 317 23 359 52 L370 0 L477 0 L458 111 L458 452 Z M300 528 L413 682 L316 682 L266 593 L262 593 L215 683 L116 683 L219 528 L300 528 Z " />
<glyph glyph-name="uni01E2" unicode="&#x1e2;" horiz-adv-x="775" d="M354 0 L737 0 L737 91 L470 91 L470 253 L684 253 L684 341 L470 341 L470 492 L730 492 L730 583 L307 583 L-2 0 L111 0 L191 157 L354 157 L354 0 Z M402 652 L667 652 L667 734 L402 734 L402 652 Z M345 460 L354 460 L354 248 L237 248 L345 460 Z " />
<glyph glyph-name="uni01E3" unicode="&#x1e3;" horiz-adv-x="746" d="M519 -8 C591 -8 653 3 696 26 L696 106 C651 88 591 78 541 78 C464 78 414 113 405 196 L708 196 L708 241 C708 372 644 462 507 462 C452 462 406 444 372 413 C344 449 295 462 233 462 C175 462 99 448 59 433 L59 342 C102 356 166 369 214 369 C264 369 300 355 300 295 L300 258 L247 258 C117 258 32 212 32 120 C32 45 80 -8 164 -8 C247 -8 305 35 340 67 C376 17 436 -8 519 -8 L519 -8 Z M245 558 L510 558 L510 643 L245 643 L245 558 Z M203 69 C162 69 139 94 139 134 C139 180 177 196 245 196 L299 196 C301 165 306 138 315 114 C283 93 242 69 203 69 L203 69 Z M505 376 C567 376 594 329 596 260 L405 260 C413 346 453 376 505 376 L505 376 Z " />
<glyph glyph-name="uni01F1" unicode="&#x1f1;" horiz-adv-x="1145" d="M74 0 L263 0 C456 2 597 103 597 303 C597 519 444 582 259 583 L74 583 L74 0 Z M1108 0 L1108 91 L817 91 L1124 580 L1122 583 L665 583 L665 492 L945 492 L645 3 L647 0 L1108 0 Z M246 492 C388 492 473 440 473 291 C473 165 394 91 256 91 L191 91 L191 492 L246 492 Z " />
<glyph glyph-name="uni01F2" unicode="&#x1f2;" horiz-adv-x="1088" d="M74 0 L263 0 C456 2 597 103 597 303 C597 519 444 582 259 583 L74 583 L74 0 Z M246 492 C388 492 473 440 473 291 C473 165 394 91 256 91 L191 91 L191 492 L246 492 Z M663 3 L664 0 L1057 0 L1057 88 L825 88 L1055 450 L1053 452 L673 452 L673 364 L891 364 L663 3 Z " />
<glyph glyph-name="uni01F3" unicode="&#x1f3;" horiz-adv-x="970" d="M363 0 L472 0 L455 101 L455 653 L347 653 L347 455 C323 459 289 462 265 462 C145 462 37 367 37 205 C37 50 132 -8 213 -8 C271 -8 317 17 354 48 L363 0 Z M545 3 L546 0 L939 0 L939 88 L707 88 L937 450 L935 452 L555 452 L555 364 L773 364 L545 3 Z M253 78 C182 78 148 128 148 221 C148 331 194 377 279 377 C300 377 326 373 347 368 L347 112 C310 90 285 78 253 78 L253 78 Z " />
<glyph glyph-name="AEacute" unicode="&#x1fc;" horiz-adv-x="775" d="M354 0 L737 0 L737 91 L470 91 L470 253 L684 253 L684 341 L470 341 L470 492 L730 492 L730 583 L307 583 L-2 0 L111 0 L191 157 L354 157 L354 0 Z M345 460 L354 460 L354 248 L237 248 L345 460 Z M544 634 L655 767 L548 767 L461 634 L544 634 Z " />
<glyph glyph-name="aeacute" unicode="&#x1fd;" horiz-adv-x="746" d="M519 -8 C591 -8 653 3 696 26 L696 106 C651 88 591 78 541 78 C464 78 414 113 405 196 L708 196 L708 241 C708 372 644 462 507 462 C452 462 406 444 372 413 C344 449 295 462 233 462 C175 462 99 448 59 433 L59 342 C102 356 166 369 214 369 C264 369 300 355 300 295 L300 258 L247 258 C117 258 32 212 32 120 C32 45 80 -8 164 -8 C247 -8 305 35 340 67 C376 17 436 -8 519 -8 L519 -8 Z M203 69 C162 69 139 94 139 134 C139 180 177 196 245 196 L299 196 C301 165 306 138 315 114 C283 93 242 69 203 69 L203 69 Z M505 376 C567 376 594 329 596 260 L405 260 C413 346 453 376 505 376 L505 376 Z M406 529 L527 679 L420 679 L323 529 L406 529 Z " />
<glyph glyph-name="Oslashacute" unicode="&#x1fe;" horiz-adv-x="651" d="M318 -10 C510 -10 610 143 610 311 C610 386 588 453 547 503 L624 593 L547 593 L504 543 C461 575 404 593 335 593 C151 593 41 459 41 278 C41 200 63 131 105 80 L28 -10 L105 -10 L148 40 C192 8 249 -10 318 -10 L318 -10 Z M164 297 C164 420 219 503 327 503 C372 503 407 488 433 461 L186 174 C171 209 164 251 164 297 L164 297 Z M324 81 C280 81 245 97 220 123 L466 410 C480 377 487 338 487 293 C487 177 439 81 324 81 L324 81 Z M344 633 L455 766 L348 766 L261 633 L344 633 Z " />
<glyph glyph-name="oslashacute" unicode="&#x1ff;" horiz-adv-x="512" d="M250 -8 C388 -8 474 98 474 230 C474 301 459 354 430 392 L489 462 L420 462 L392 429 C358 451 313 462 259 462 C126 462 38 354 38 221 C38 151 53 98 82 61 L23 -10 L90 -10 L120 26 C154 3 198 -8 250 -8 L250 -8 Z M257 77 C225 77 202 86 185 103 L354 302 C361 279 363 253 363 226 C363 145 341 77 257 77 L257 77 Z M149 227 C149 306 172 375 256 375 C288 375 310 366 326 351 L158 151 C152 173 149 199 149 227 L149 227 Z M296 529 L417 679 L310 679 L213 529 L296 529 Z " />
<glyph glyph-name="Scommaaccent" unicode="&#x218;" horiz-adv-x="485" d="M177 -249 L252 -249 L298 -62 L204 -62 L177 -249 Z M50 25 C106 3 165 -10 224 -10 C345 -10 447 47 447 166 C447 282 347 318 260 348 C191 372 155 390 155 435 C155 477 205 499 256 499 C317 499 382 480 424 454 L424 557 C385 577 323 593 249 593 C139 593 45 528 45 418 C45 319 115 280 192 252 C269 224 337 209 337 155 C337 110 293 83 234 83 C171 83 95 103 50 128 L50 25 Z " />
<glyph glyph-name="scommaaccent" unicode="&#x219;" horiz-adv-x="427" d="M144 -249 L219 -249 L265 -62 L171 -62 L144 -249 Z M202 -8 C301 -8 392 38 392 135 C392 233 312 256 243 272 C190 283 145 294 145 331 C145 359 179 377 222 377 C267 377 309 372 375 343 L375 434 C333 454 273 462 223 462 C126 462 40 410 40 321 C40 233 113 206 184 189 C240 175 291 165 291 128 C291 94 254 75 210 75 C161 75 113 84 44 109 L44 20 C89 4 141 -8 202 -8 L202 -8 Z " />
<glyph glyph-name="uni021A" unicode="&#x21a;" horiz-adv-x="553" d="M17 492 L217 492 L217 0 L333 0 L333 492 L536 492 L536 583 L17 583 L17 492 Z M200 -249 L275 -249 L321 -62 L227 -62 L200 -249 Z " />
<glyph glyph-name="uni021B" unicode="&#x21b;" horiz-adv-x="388" d="M22 364 L100 364 L100 139 C99 43 160 -8 245 -8 C294 -8 338 -2 366 12 L366 93 C344 87 315 81 289 81 C241 81 208 94 207 155 L207 364 L357 364 L357 452 L207 452 L207 572 L100 572 L100 452 L22 452 L22 364 Z M169 -249 L244 -249 L290 -62 L196 -62 L169 -249 Z " />
<glyph glyph-name="uni0232" unicode="&#x232;" horiz-adv-x="560" d="M556 583 L435 583 L347 415 L290 305 L286 305 L229 415 L139 583 L8 583 L221 212 L221 0 L337 0 L337 210 L556 583 Z M156 652 L421 652 L421 734 L156 734 L156 652 Z " />
<glyph glyph-name="uni0233" unicode="&#x233;" horiz-adv-x="482" d="M224 -207 L305 18 L473 452 L359 452 L280 216 L246 114 L240 114 L211 213 L138 452 L18 452 L176 0 L198 0 L110 -204 L113 -207 L224 -207 Z M121 558 L386 558 L386 643 L121 643 L121 558 Z " />
<glyph glyph-name="uni0237" unicode="&#x237;" horiz-adv-x="263" d="M24 364 L92 364 L92 18 C92 -53 55 -130 24 -181 L102 -214 C166 -150 199 -51 199 32 L199 452 L24 452 L24 364 Z " />
<glyph glyph-name="uni0259" unicode="&#x259;" horiz-adv-x="488" d="M226 462 C154 462 92 451 49 428 L49 348 C94 366 154 376 204 376 C283 376 333 339 341 253 L37 253 L37 213 C37 82 102 -8 239 -8 C369 -8 449 92 449 237 C449 384 370 462 226 462 L226 462 Z M240 78 C179 78 153 122 149 188 L340 188 C330 106 290 78 240 78 L240 78 Z " />
<glyph glyph-name="circumflex" unicode="&#x2c6;" horiz-adv-x="395" d="M167 682 L53 528 L151 528 L201 617 L204 617 L252 527 L351 527 L248 682 L167 682 Z " />
<glyph glyph-name="caron" unicode="&#x2c7;" horiz-adv-x="445" d="M261 528 L374 682 L277 682 L227 593 L223 593 L176 683 L77 683 L180 528 L261 528 Z " />
<glyph glyph-name="breve" unicode="&#x2d8;" horiz-adv-x="352" d="M187 599 C138 599 114 635 105 661 L47 625 C60 580 102 526 185 526 C265 526 313 571 327 627 L274 662 C266 634 241 599 187 599 L187 599 Z " />
<glyph glyph-name="dotaccent" unicode="&#x2d9;" horiz-adv-x="301" d="M158 554 C198 554 228 577 228 617 C228 657 198 680 158 680 C119 680 88 657 88 617 C88 577 119 554 158 554 L158 554 Z " />
<glyph glyph-name="ring" unicode="&#x2da;" horiz-adv-x="322" d="M167 702 C118 702 66 671 66 611 C66 552 115 519 167 519 C220 519 271 554 271 611 C271 671 220 702 167 702 L167 702 Z M167 651 C195 651 208 636 208 611 C208 586 195 570 167 570 C140 570 129 585 129 611 C129 633 140 651 167 651 L167 651 Z " />
<glyph glyph-name="ogonek" unicode="&#x2db;" horiz-adv-x="340" d="M292 -194 L289 -134 C272 -142 248 -149 227 -149 C202 -149 181 -138 181 -105 C181 -66 212 -23 268 6 L239 37 C180 13 97 -38 97 -122 C97 -182 139 -214 202 -214 C233 -214 270 -206 292 -194 L292 -194 Z " />
<glyph glyph-name="tilde" unicode="&#x2dc;" horiz-adv-x="416" d="M333 651 C322 637 301 621 274 621 C238 621 203 653 160 653 C116 653 81 624 63 601 L91 547 C110 569 128 579 153 579 C190 579 224 545 267 545 C309 545 345 575 362 595 L333 651 Z " />
<glyph glyph-name="hungarumlaut" unicode="&#x2dd;" horiz-adv-x="456" d="M123 529 L241 679 L136 679 L43 529 L123 529 Z M287 529 L413 679 L309 679 L207 529 L287 529 Z " />
<glyph glyph-name="dotbelowcmb" unicode="&#x323;" d="M-224 -204 C-187 -204 -158 -183 -158 -145 C-158 -107 -187 -85 -224 -85 C-262 -85 -290 -106 -290 -145 C-290 -183 -262 -204 -224 -204 L-224 -204 Z " />
<glyph glyph-name="uni0394" unicode="&#x394;" horiz-adv-x="577" d="M550 0 L550 77 L353 583 L239 583 L27 75 L28 0 L550 0 Z M285 459 L290 459 L424 91 L141 91 L285 459 Z " />
<glyph glyph-name="Sigma" unicode="&#x3a3;" horiz-adv-x="516" d="M47 0 L469 0 L469 94 L177 94 L309 292 L181 492 L458 492 L458 583 L50 583 L50 502 L189 288 L47 84 L47 0 Z " />
<glyph glyph-name="pi" unicode="&#x3c0;" horiz-adv-x="605" d="M479 364 L543 364 L543 452 L39 452 L39 364 L104 364 L104 0 L207 0 L207 364 L377 364 L377 68 C377 16 414 -6 479 -6 C511 -6 538 0 563 11 L563 77 C545 75 528 75 516 75 C488 75 479 89 479 130 L479 364 Z " />
<glyph glyph-name="uni1E46" unicode="&#x1e46;" horiz-adv-x="660" d="M330 -204 C367 -204 396 -183 396 -145 C396 -107 367 -85 330 -85 C292 -85 264 -106 264 -145 C264 -183 292 -204 330 -204 L330 -204 Z M74 0 L183 0 L183 398 L185 398 L483 0 L585 0 L585 583 L477 583 L477 195 L475 195 L175 583 L74 583 L74 0 Z " />
<glyph glyph-name="uni1E47" unicode="&#x1e47;" horiz-adv-x="532" d="M67 0 L174 0 L174 331 C208 350 249 368 281 368 C347 368 364 336 364 262 L364 0 L472 0 L472 297 C472 415 420 461 334 461 C270 461 208 430 165 400 L154 452 L48 452 L67 343 L67 0 Z M271 -204 C308 -204 337 -183 337 -145 C337 -107 308 -85 271 -85 C233 -85 205 -106 205 -145 C205 -183 233 -204 271 -204 L271 -204 Z " />
<glyph glyph-name="uni1E62" unicode="&#x1e62;" horiz-adv-x="485" d="M226 -204 C263 -204 292 -183 292 -145 C292 -107 263 -85 226 -85 C188 -85 160 -106 160 -145 C160 -183 188 -204 226 -204 L226 -204 Z M50 25 C106 3 165 -10 224 -10 C345 -10 447 47 447 166 C447 282 347 318 260 348 C191 372 155 390 155 435 C155 477 205 499 256 499 C317 499 382 480 424 454 L424 557 C385 577 323 593 249 593 C139 593 45 528 45 418 C45 319 115 280 192 252 C269 224 337 209 337 155 C337 110 293 83 234 83 C171 83 95 103 50 128 L50 25 Z " />
<glyph glyph-name="uni1E63" unicode="&#x1e63;" horiz-adv-x="427" d="M207 -204 C244 -204 273 -183 273 -145 C273 -107 244 -85 207 -85 C169 -85 141 -106 141 -145 C141 -183 169 -204 207 -204 L207 -204 Z M202 -8 C301 -8 392 38 392 135 C392 233 312 256 243 272 C190 283 145 294 145 331 C145 359 179 377 222 377 C267 377 309 372 375 343 L375 434 C333 454 273 462 223 462 C126 462 40 410 40 321 C40 233 113 206 184 189 C240 175 291 165 291 128 C291 94 254 75 210 75 C161 75 113 84 44 109 L44 20 C89 4 141 -8 202 -8 L202 -8 Z " />
<glyph glyph-name="Wgrave" unicode="&#x1e80;" horiz-adv-x="901" d="M522 633 L435 766 L328 766 L439 633 L522 633 Z M893 583 L774 583 L692 299 L647 137 L642 137 L599 302 L523 583 L398 583 L312 299 L263 135 L258 135 L222 301 L156 583 L30 583 L178 0 L312 0 L396 268 L444 423 L449 423 L492 267 L565 0 L702 0 L893 583 Z " />
<glyph glyph-name="wgrave" unicode="&#x1e81;" horiz-adv-x="764" d="M749 452 L636 452 L578 250 L540 112 L535 112 L498 247 L441 452 L339 452 L271 242 L230 113 L225 113 L194 242 L142 452 L21 452 L161 0 L277 0 L346 213 L378 316 L385 316 L415 210 L475 0 L598 0 L749 452 Z M429 529 L335 679 L227 679 L346 529 L429 529 Z " />
<glyph glyph-name="Wacute" unicode="&#x1e82;" horiz-adv-x="901" d="M493 628 L604 761 L497 761 L410 628 L493 628 Z M893 583 L774 583 L692 299 L647 137 L642 137 L599 302 L523 583 L398 583 L312 299 L263 135 L258 135 L222 301 L156 583 L30 583 L178 0 L312 0 L396 268 L444 423 L449 423 L492 267 L565 0 L702 0 L893 583 Z " />
<glyph glyph-name="wacute" unicode="&#x1e83;" horiz-adv-x="764" d="M429 529 L550 679 L443 679 L346 529 L429 529 Z M749 452 L636 452 L578 250 L540 112 L535 112 L498 247 L441 452 L339 452 L271 242 L230 113 L225 113 L194 242 L142 452 L21 452 L161 0 L277 0 L346 213 L378 316 L385 316 L415 210 L475 0 L598 0 L749 452 Z " />
<glyph glyph-name="Wdieresis" unicode="&#x1e84;" horiz-adv-x="901" d="M365 631 C400 631 426 652 426 689 C426 727 400 749 365 749 C330 749 304 728 304 689 C304 652 330 631 365 631 L365 631 Z M554 631 C589 631 615 652 615 689 C615 727 589 749 554 749 C520 749 493 728 493 689 C493 652 520 631 554 631 L554 631 Z M893 583 L774 583 L692 299 L647 137 L642 137 L599 302 L523 583 L398 583 L312 299 L263 135 L258 135 L222 301 L156 583 L30 583 L178 0 L312 0 L396 268 L444 423 L449 423 L492 267 L565 0 L702 0 L893 583 Z " />
<glyph glyph-name="wdieresis" unicode="&#x1e85;" horiz-adv-x="764" d="M301 555 C336 555 362 577 362 614 C362 652 337 673 301 673 C266 673 240 652 240 614 C240 577 266 555 301 555 L301 555 Z M490 555 C525 555 551 577 551 614 C551 652 525 673 490 673 C456 673 429 652 429 614 C429 577 456 555 490 555 L490 555 Z M749 452 L636 452 L578 250 L540 112 L535 112 L498 247 L441 452 L339 452 L271 242 L230 113 L225 113 L194 242 L142 452 L21 452 L161 0 L277 0 L346 213 L378 316 L385 316 L415 210 L475 0 L598 0 L749 452 Z " />
<glyph glyph-name="uni1EBC" unicode="&#x1ebc;" horiz-adv-x="496" d="M74 0 L457 0 L457 91 L191 91 L191 253 L404 253 L404 341 L191 341 L191 492 L450 492 L450 583 L74 583 L74 0 Z M395 741 C384 727 362 710 335 710 C299 710 265 743 222 743 C178 743 143 714 125 690 L153 634 C171 655 190 665 214 665 C251 665 285 632 329 632 C371 632 407 661 424 682 L395 741 Z " />
<glyph glyph-name="uni1EBD" unicode="&#x1ebd;" horiz-adv-x="488" d="M261 -8 C333 -8 395 3 438 26 L438 106 C393 88 333 78 283 78 C203 78 153 115 146 201 L450 201 L450 241 C450 372 385 462 248 462 C118 462 38 362 38 217 C38 70 117 -8 261 -8 L261 -8 Z M373 651 C362 637 341 621 314 621 C278 621 243 653 200 653 C156 653 121 624 103 601 L131 547 C150 569 168 579 193 579 C230 579 264 545 307 545 C349 545 385 575 402 595 L373 651 Z M247 376 C307 376 334 332 337 266 L147 266 C156 348 196 376 247 376 L247 376 Z " />
<glyph glyph-name="Ygrave" unicode="&#x1ef2;" horiz-adv-x="560" d="M556 583 L435 583 L347 415 L290 305 L286 305 L229 415 L139 583 L8 583 L221 212 L221 0 L337 0 L337 210 L556 583 Z M351 633 L264 766 L157 766 L268 633 L351 633 Z " />
<glyph glyph-name="ygrave" unicode="&#x1ef3;" horiz-adv-x="482" d="M224 -207 L305 18 L473 452 L359 452 L280 216 L246 114 L240 114 L211 213 L138 452 L18 452 L176 0 L198 0 L110 -204 L113 -207 L224 -207 Z M309 515 L215 665 L107 665 L226 515 L309 515 Z " />
<glyph glyph-name="uni2004" unicode="&#x2004;" horiz-adv-x="333" d="" />
<glyph glyph-name="uni2007" unicode="&#x2007;" horiz-adv-x="500" d="" />
<glyph glyph-name="uni2009" unicode="&#x2009;" horiz-adv-x="160" d="" />
<glyph glyph-name="uni200A" unicode="&#x200a;" horiz-adv-x="80" d="" />
<glyph glyph-name="uni200B" unicode="&#x200b;" d="" />
<glyph glyph-name="uni2012" unicode="&#x2012;" horiz-adv-x="378" d="M388 220 L388 309 L-10 309 L-10 220 L388 220 Z " />
<glyph glyph-name="endash" unicode="&#x2013;" horiz-adv-x="446" d="M61 212 L384 212 L384 286 L61 286 L61 212 Z " />
<glyph glyph-name="emdash" unicode="&#x2014;" horiz-adv-x="848" d="M61 212 L786 212 L786 286 L61 286 L61 212 Z " />
<glyph glyph-name="quoteleft" unicode="&#x2018;" horiz-adv-x="238" d="M165 693 C95 635 53 554 53 486 C53 444 82 417 123 417 C161 417 188 448 189 481 C165 495 159 514 159 539 C159 578 182 630 213 672 L165 693 Z " />
<glyph glyph-name="quoteright" unicode="&#x2019;" horiz-adv-x="237" d="M95 425 C165 483 207 564 207 632 C207 674 178 701 137 701 C99 701 72 670 71 637 C95 623 101 604 101 579 C101 540 78 488 47 446 L95 425 Z " />
<glyph glyph-name="quotesinglbase" unicode="&#x201a;" horiz-adv-x="244" d="M76 -157 C146 -99 188 -17 188 52 C188 93 159 120 117 120 C79 120 52 90 51 56 C76 43 82 24 82 -2 C82 -42 58 -93 27 -136 L76 -157 Z " />
<glyph glyph-name="quotedblleft" unicode="&#x201c;" horiz-adv-x="413" d="M165 693 C95 635 53 554 53 486 C53 444 82 417 123 417 C161 417 188 448 189 481 C165 495 159 514 159 539 C159 578 182 630 213 672 L165 693 Z M340 693 C270 635 228 554 228 486 C228 444 257 417 298 417 C336 417 363 448 364 481 C340 495 334 514 334 539 C334 578 357 630 388 672 L340 693 Z " />
<glyph glyph-name="quotedblright" unicode="&#x201d;" horiz-adv-x="416" d="M93 416 C163 474 205 555 205 623 C205 665 176 692 135 692 C97 692 70 661 69 628 C93 614 99 595 99 570 C99 531 76 479 45 437 L93 416 Z M271 416 C341 474 383 555 383 623 C383 665 354 692 313 692 C275 692 248 661 247 628 C271 614 277 595 277 570 C277 531 254 479 223 437 L271 416 Z " />
<glyph glyph-name="quotedblbase" unicode="&#x201e;" horiz-adv-x="423" d="M76 -157 C146 -99 188 -17 188 52 C188 93 159 120 117 120 C79 120 52 90 51 56 C76 43 82 24 82 -2 C82 -42 58 -93 27 -136 L76 -157 Z M254 -157 C324 -99 366 -17 366 52 C366 93 337 120 295 120 C257 120 230 90 229 56 C254 43 260 24 260 -2 C260 -42 236 -93 205 -136 L254 -157 Z " />
<glyph glyph-name="dagger" unicode="&#x2020;" horiz-adv-x="479" d="M30 376 L198 376 L198 0 L281 0 L281 376 L448 376 L448 456 L281 456 L281 653 L198 653 L198 456 L30 456 L30 376 Z " />
<glyph glyph-name="daggerdbl" unicode="&#x2021;" horiz-adv-x="514" d="M48 386 L215 386 L215 254 L48 254 L48 174 L215 174 L215 0 L299 0 L299 174 L466 174 L466 254 L299 254 L299 386 L466 386 L466 465 L299 465 L299 653 L215 653 L215 465 L48 465 L48 386 Z " />
<glyph glyph-name="bullet" unicode="&#x2022;" horiz-adv-x="400" d="M199 163 C275 163 333 221 333 297 C333 372 275 430 199 430 C124 430 66 372 66 297 C66 221 124 163 199 163 L199 163 Z " />
<glyph glyph-name="ellipsis" unicode="&#x2026;" horiz-adv-x="705" d="M125 -8 C167 -8 197 25 197 61 C197 100 167 133 125 133 C84 133 53 99 53 61 C53 25 84 -8 125 -8 L125 -8 Z M353 -8 C395 -8 425 25 425 61 C425 100 395 133 353 133 C312 133 281 99 281 61 C281 25 312 -8 353 -8 L353 -8 Z M579 -8 C621 -8 651 25 651 61 C651 100 621 133 579 133 C538 133 507 99 507 61 C507 25 538 -8 579 -8 L579 -8 Z " />
<glyph glyph-name="perthousand" unicode="&#x2030;" horiz-adv-x="981" d="M165 290 C238 290 295 346 295 441 C295 544 238 594 165 594 C90 594 33 534 33 438 C33 339 90 290 165 290 L165 290 Z M358 370 L425 370 L555 563 L555 583 L477 583 L358 370 Z M169 346 C130 346 107 376 107 440 C107 511 125 535 162 535 C199 535 222 511 222 436 C222 370 201 346 169 346 L169 346 Z M535 -8 C608 -8 666 48 666 142 C666 246 608 295 535 295 C460 295 403 236 403 139 C403 41 460 -8 535 -8 L535 -8 Z M538 48 C500 48 477 77 477 141 C477 206 494 237 531 237 C570 237 591 213 591 138 C591 71 571 48 538 48 L538 48 Z M355 236 L289 236 L152 20 L152 0 L230 0 L355 236 Z M818 -8 C892 -8 949 48 949 142 C949 246 892 295 818 295 C743 295 686 236 686 139 C686 41 743 -8 818 -8 L818 -8 Z M821 48 C783 48 761 77 761 141 C761 206 777 237 814 237 C853 237 875 213 875 138 C875 71 854 48 821 48 L821 48 Z " />
<glyph glyph-name="guilsinglleft" unicode="&#x2039;" horiz-adv-x="280" d="M137 46 L230 46 L159 226 L230 405 L139 405 L42 226 L137 46 Z " />
<glyph glyph-name="guilsinglright" unicode="&#x203a;" horiz-adv-x="280" d="M142 408 L49 408 L120 228 L49 49 L140 49 L237 228 L142 408 Z " />
<glyph glyph-name="uni203D" unicode="&#x203d;" horiz-adv-x="406" d="M119 311 L132 193 L206 198 L207 265 C265 285 374 346 374 448 C374 548 290 592 189 592 C148 592 82 581 38 559 L38 477 C81 495 132 509 174 509 C236 509 274 488 274 436 C274 387 243 355 208 334 L203 441 L113 436 L119 311 Z M170 -8 C211 -8 241 25 241 61 C241 100 212 133 170 133 C129 133 98 99 98 61 C98 25 129 -8 170 -8 L170 -8 Z " />
<glyph glyph-name="fraction" unicode="&#x2044;" horiz-adv-x="100" d="M-100 0 L259 543 L259 548 L190 548 L-168 5 L-168 0 L-100 0 Z " />
<glyph glyph-name="zerosuperior" unicode="&#x2070;" horiz-adv-x="313" d="M153 396 C238 396 288 455 288 557 C288 644 255 715 159 715 C73 715 25 653 25 548 C25 453 66 396 153 396 L153 396 Z M157 451 C111 451 103 500 103 552 C103 604 111 658 154 658 C200 658 208 602 208 555 C208 503 204 451 157 451 L157 451 Z " />
<glyph glyph-name="i.superior" unicode="&#x2071;" horiz-adv-x="199" d="M20 641 L66 641 L66 400 L154 400 L154 709 L20 709 L20 641 Z M55 821 C55 789 80 772 112 772 C144 772 169 789 169 821 C169 853 144 872 112 872 C80 872 55 853 55 821 L55 821 Z " />
<glyph glyph-name="foursuperior" unicode="&#x2074;" horiz-adv-x="293" d="M150 400 L231 400 L231 472 L274 472 L274 525 L231 525 L231 713 L151 713 L11 523 L11 472 L150 472 L150 400 Z M74 525 L146 630 L150 630 L150 525 L74 525 Z " />
<glyph glyph-name="fivesuperior" unicode="&#x2075;" horiz-adv-x="267" d="M112 396 C169 396 243 423 243 499 C243 566 193 596 113 596 L99 596 L104 653 L236 653 L236 710 L50 710 L34 541 C50 543 68 544 83 544 C141 544 168 529 168 497 C168 470 145 451 112 451 C86 451 56 456 25 471 L25 411 C48 402 77 396 112 396 L112 396 Z " />
<glyph glyph-name="sixsuperior" unicode="&#x2076;" horiz-adv-x="299" d="M148 396 C229 396 278 448 278 509 C278 572 232 602 173 602 C144 602 122 595 105 587 C114 636 137 660 184 660 C205 660 227 657 256 643 L256 702 C231 711 203 715 181 715 C82 715 24 635 24 534 C24 452 64 396 148 396 L148 396 Z M151 552 C183 552 200 536 200 503 C200 470 183 449 152 449 C114 449 102 479 102 535 L102 541 C115 547 131 552 151 552 L151 552 Z " />
<glyph glyph-name="sevensuperior" unicode="&#x2077;" horiz-adv-x="244" d="M106 400 L238 672 L238 710 L15 710 L15 653 L162 653 L34 403 L35 400 L106 400 Z " />
<glyph glyph-name="eightsuperior" unicode="&#x2078;" horiz-adv-x="301" d="M277 487 C277 524 252 545 221 559 C250 578 271 605 271 637 C271 690 216 715 151 715 C86 715 34 677 34 628 C34 594 52 572 76 556 C46 538 25 509 25 480 C25 425 69 396 146 396 C214 396 277 434 277 487 L277 487 Z M96 489 C96 508 101 522 113 537 C155 519 199 508 199 482 C199 455 177 446 150 446 C121 446 96 459 96 489 L96 489 Z M199 626 C199 611 192 592 176 577 C140 590 107 602 107 629 C107 653 125 661 150 661 C184 661 199 646 199 626 L199 626 Z " />
<glyph glyph-name="ninesuperior" unicode="&#x2079;" horiz-adv-x="299" d="M42 409 C67 399 96 396 118 396 C218 396 274 473 274 577 C274 659 234 715 150 715 C70 715 22 663 22 601 C22 536 69 508 125 508 C153 508 175 514 193 522 C184 474 160 450 115 450 C93 450 72 454 42 468 L42 409 Z M148 558 C115 558 98 573 98 608 C98 645 116 662 146 662 C185 662 197 632 197 576 L197 568 C184 562 167 558 148 558 L148 558 Z " />
<glyph glyph-name="plussuperior" unicode="&#x207a;" horiz-adv-x="332" d="M17 524 L136 524 L136 409 L196 409 L196 524 L314 524 L314 581 L196 581 L196 694 L136 694 L136 581 L17 581 L17 524 Z " />
<glyph glyph-name="minussuperior" unicode="&#x207b;" horiz-adv-x="368" d="M36 524 L333 524 L333 581 L36 581 L36 524 Z " />
<glyph glyph-name="equalsuperior" unicode="&#x207c;" horiz-adv-x="354" d="M36 458 L318 458 L318 515 L36 515 L36 458 Z M36 589 L318 589 L318 646 L36 646 L36 589 Z " />
<glyph glyph-name="parenleftsuperior" unicode="&#x207d;" horiz-adv-x="188" d="M193 308 C167 337 87 435 87 583 C87 727 164 817 191 847 L126 847 C100 820 17 730 17 581 C17 436 79 360 125 308 L193 308 Z " />
<glyph glyph-name="parenrightsuperior" unicode="&#x207e;" horiz-adv-x="188" d="M66 308 C108 359 172 436 172 581 C172 730 93 818 65 847 L-3 847 C24 819 103 726 103 580 C103 434 23 339 -3 308 L66 308 Z " />
<glyph glyph-name="n.superior" unicode="&#x207f;" horiz-adv-x="383" d="M47 400 L135 400 L135 624 C156 634 180 642 197 642 C240 642 254 623 254 574 L254 400 L342 400 L342 603 C342 685 301 715 243 715 C200 715 158 696 128 677 L121 709 L33 709 L47 633 L47 400 Z " />
<glyph glyph-name="zeroinferior" unicode="&#x2080;" horiz-adv-x="313" d="M153 -4 C238 -4 288 55 288 157 C288 244 255 315 159 315 C73 315 25 253 25 148 C25 53 66 -4 153 -4 L153 -4 Z M157 51 C111 51 103 100 103 152 C103 204 111 258 154 258 C200 258 208 202 208 155 C208 103 204 51 157 51 L157 51 Z " />
<glyph glyph-name="oneinferior" unicode="&#x2081;" horiz-adv-x="208" d="M163 0 L163 313 L116 313 L10 283 L10 231 L81 241 L81 0 L163 0 Z " />
<glyph glyph-name="twoinferior" unicode="&#x2082;" horiz-adv-x="282" d="M171 216 C171 161 103 109 23 46 L23 0 L257 0 L257 60 L131 60 L130 63 C205 119 250 171 250 225 C250 289 195 315 134 315 C98 315 56 306 29 285 L29 227 C64 252 96 257 122 257 C149 257 171 244 171 216 L171 216 Z " />
<glyph glyph-name="threeinferior" unicode="&#x2083;" horiz-adv-x="269" d="M113 -4 C185 -4 245 27 245 94 C245 131 220 164 173 169 L173 171 C201 178 231 201 231 241 C231 289 184 315 124 315 C87 315 54 305 30 286 L30 228 C60 250 88 255 110 255 C136 255 155 245 155 223 C155 195 122 178 78 175 L78 133 C142 131 169 120 169 90 C169 67 149 52 116 52 C88 52 60 55 27 71 L27 11 C46 3 72 -4 113 -4 L113 -4 Z " />
<glyph glyph-name="fourinferior" unicode="&#x2084;" horiz-adv-x="292" d="M150 0 L231 0 L231 72 L274 72 L274 125 L231 125 L231 313 L151 313 L11 123 L11 72 L150 72 L150 0 Z M74 125 L146 230 L150 230 L150 125 L74 125 Z " />
<glyph glyph-name="fiveinferior" unicode="&#x2085;" horiz-adv-x="268" d="M112 -4 C169 -4 243 23 243 99 C243 166 193 196 113 196 L99 196 L104 253 L236 253 L236 310 L50 310 L34 141 C50 143 68 144 83 144 C141 144 168 129 168 97 C168 70 145 51 112 51 C86 51 56 56 25 71 L25 11 C48 2 77 -4 112 -4 L112 -4 Z " />
<glyph glyph-name="sixinferior" unicode="&#x2086;" horiz-adv-x="300" d="M148 -4 C229 -4 278 48 278 109 C278 172 232 202 173 202 C144 202 122 195 105 187 C114 236 137 260 184 260 C205 260 227 257 256 243 L256 302 C231 311 203 315 181 315 C82 315 24 235 24 134 C24 52 64 -4 148 -4 L148 -4 Z M151 152 C183 152 200 136 200 103 C200 70 183 49 152 49 C114 49 102 79 102 135 L102 141 C115 147 131 152 151 152 L151 152 Z " />
<glyph glyph-name="seveninferior" unicode="&#x2087;" horiz-adv-x="245" d="M106 0 L238 272 L238 310 L15 310 L15 253 L162 253 L34 3 L35 0 L106 0 Z " />
<glyph glyph-name="eightinferior" unicode="&#x2088;" horiz-adv-x="302" d="M277 87 C277 124 252 145 221 159 C250 178 271 205 271 237 C271 290 216 315 151 315 C86 315 34 277 34 228 C34 194 52 172 76 156 C46 138 25 109 25 80 C25 25 69 -4 146 -4 C214 -4 277 34 277 87 L277 87 Z M96 89 C96 108 101 122 113 137 C155 119 199 108 199 82 C199 55 177 46 150 46 C121 46 96 59 96 89 L96 89 Z M199 226 C199 211 192 192 176 177 C140 190 107 202 107 229 C107 253 125 261 150 261 C184 261 199 246 199 226 L199 226 Z " />
<glyph glyph-name="nineinferior" unicode="&#x2089;" horiz-adv-x="300" d="M43 9 C68 -1 97 -4 119 -4 C219 -4 275 73 275 177 C275 259 235 315 151 315 C71 315 23 263 23 201 C23 136 70 108 126 108 C154 108 176 114 194 122 C185 74 161 50 116 50 C94 50 73 54 43 68 L43 9 Z M149 158 C116 158 99 173 99 208 C99 245 117 262 147 262 C186 262 198 232 198 176 L198 168 C185 162 168 158 149 158 L149 158 Z " />
<glyph glyph-name="plus.inferior" unicode="&#x208a;" horiz-adv-x="332" d="M17 124 L136 124 L136 9 L196 9 L196 124 L314 124 L314 181 L196 181 L196 294 L136 294 L136 181 L17 181 L17 124 Z " />
<glyph glyph-name="minus.inferior" unicode="&#x208b;" horiz-adv-x="368" d="M36 124 L333 124 L333 181 L36 181 L36 124 Z " />
<glyph glyph-name="equal.inferior" unicode="&#x208c;" horiz-adv-x="354" d="M36 58 L318 58 L318 115 L36 115 L36 58 Z M36 189 L318 189 L318 246 L36 246 L36 189 Z " />
<glyph glyph-name="parenleft.inferior" unicode="&#x208d;" horiz-adv-x="189" d="M193 -92 C167 -63 87 35 87 183 C87 327 164 417 191 447 L126 447 C100 420 17 330 17 181 C17 36 79 -40 125 -92 L193 -92 Z " />
<glyph glyph-name="parenright.inferior" unicode="&#x208e;" horiz-adv-x="190" d="M66 -92 C108 -41 172 36 172 181 C172 330 93 418 65 447 L-3 447 C24 419 103 326 103 180 C103 34 23 -61 -3 -92 L66 -92 Z " />
<glyph glyph-name="a.inferior" unicode="&#x2090;" horiz-adv-x="339" d="M219 0 L308 0 L295 75 L295 214 C295 292 239 316 164 316 C123 316 69 307 41 296 L41 225 C72 235 116 243 149 243 C179 243 207 238 207 197 L207 174 L178 174 C77 174 21 142 21 80 C21 26 58 -5 114 -5 C156 -5 192 12 213 28 L219 0 Z M150 54 C123 54 109 68 109 91 C109 118 133 128 176 128 L207 128 L207 70 C188 60 168 54 150 54 L150 54 Z " />
<glyph glyph-name="e.inferior" unicode="&#x2091;" horiz-adv-x="347" d="M313 18 L313 79 C284 68 241 60 206 60 C154 60 119 82 112 135 L322 135 L322 164 C322 255 272 316 175 316 C84 316 23 247 23 147 C23 44 87 -6 186 -6 C238 -6 282 3 313 18 L313 18 Z M174 249 C209 249 227 224 230 183 L113 183 C119 233 144 249 174 249 L174 249 Z " />
<glyph glyph-name="o.inferior" unicode="&#x2092;" horiz-adv-x="364" d="M177 -5 C277 -5 340 66 340 158 C340 265 286 316 184 316 C86 316 23 242 23 151 C23 45 81 -5 177 -5 L177 -5 Z M183 61 C127 61 115 105 115 156 C115 203 125 248 181 248 C241 248 249 200 249 155 C249 104 239 61 183 61 L183 61 Z " />
<glyph glyph-name="x.inferior" unicode="&#x2093;" horiz-adv-x="352" d="M113 309 L10 309 L124 155 L2 0 L99 0 L171 100 L178 100 L241 0 L347 0 L231 162 L343 309 L253 309 L186 212 L178 212 L113 309 Z " />
<glyph glyph-name="h.inferior" unicode="&#x2095;" horiz-adv-x="381" d="M251 0 L339 0 L339 203 C339 285 299 315 241 315 C201 315 162 299 133 281 L133 480 L45 480 L45 0 L133 0 L133 223 C154 233 178 242 196 242 C238 242 251 223 251 174 L251 0 Z " />
<glyph glyph-name="k.inferior" unicode="&#x2096;" horiz-adv-x="350" d="M235 0 L339 0 L233 175 L343 309 L245 309 L144 174 L144 159 L235 0 Z M45 0 L133 0 L133 480 L45 480 L45 0 Z " />
<glyph glyph-name="l.inferior" unicode="&#x2097;" horiz-adv-x="186" d="M49 0 L137 0 L137 480 L49 480 L49 0 Z " />
<glyph glyph-name="m.inferior" unicode="&#x2098;" horiz-adv-x="569" d="M439 0 L527 0 L527 203 C527 285 486 315 428 315 C383 315 343 294 314 274 C297 303 267 315 231 315 C190 315 155 298 127 280 L121 309 L33 309 L47 233 L47 0 L135 0 L135 226 C153 235 171 242 187 242 C230 242 242 223 242 174 L242 0 L330 0 L330 203 C330 211 330 218 329 225 C348 234 367 242 383 242 C427 242 439 223 439 174 L439 0 Z " />
<glyph glyph-name="n.inferior" unicode="&#x2099;" horiz-adv-x="383" d="M47 0 L135 0 L135 224 C156 234 180 242 197 242 C240 242 254 223 254 174 L254 0 L342 0 L342 203 C342 285 301 315 243 315 C200 315 158 296 128 277 L121 309 L33 309 L47 233 L47 0 Z " />
<glyph glyph-name="p.inferior" unicode="&#x209a;" horiz-adv-x="369" d="M47 -142 L135 -142 L135 -3 C148 -4 162 -5 176 -5 C265 -5 345 51 345 170 C345 263 299 316 224 316 C187 316 155 304 126 286 L121 309 L33 309 L47 233 L47 -142 Z M184 249 C233 249 254 222 254 159 C254 108 238 62 168 62 C159 62 146 62 135 64 L135 239 C151 244 169 249 184 249 L184 249 Z " />
<glyph glyph-name="s.inferior" unicode="&#x209b;" horiz-adv-x="307" d="M145 -5 C218 -5 285 25 285 94 C285 163 227 179 179 189 C144 196 113 203 113 225 C113 239 134 250 161 250 C192 250 223 246 271 226 L271 296 C241 310 194 316 161 316 C88 316 27 280 27 217 C27 156 79 138 129 127 C166 118 201 112 201 89 C201 69 176 59 149 59 C111 59 72 67 29 83 L29 14 C63 3 101 -5 145 -5 L145 -5 Z " />
<glyph glyph-name="t.inferior" unicode="&#x209c;" horiz-adv-x="290" d="M12 241 L68 241 L68 97 C68 20 125 -6 183 -6 C215 -6 245 -1 266 8 L266 72 C251 68 231 63 214 63 C180 63 157 72 157 110 L157 241 L260 241 L260 309 L157 309 L157 391 L68 391 L68 309 L12 309 L12 241 Z " />
<glyph glyph-name="colonsign" unicode="&#x20a1;" horiz-adv-x="640" d="M225 -92 L299 -92 L332 -10 L343 -10 C421 -10 492 10 522 29 L522 127 C470 96 427 84 371 83 L617 681 L543 681 L497 569 C482 575 465 580 444 584 L484 681 L410 681 L373 592 C365 593 355 593 346 593 C145 593 43 461 43 285 C43 174 79 92 147 43 L92 -92 L166 -92 L208 11 C225 5 242 0 261 -3 L225 -92 Z M166 301 C166 428 237 497 336 501 L197 163 C176 198 166 244 166 301 L166 301 Z M249 110 L408 496 C426 493 443 488 461 481 L299 89 C281 94 264 101 249 110 L249 110 Z " />
<glyph glyph-name="cruzeiro" unicode="&#x20a2;" horiz-adv-x="586" d="M346 -10 C425 -10 495 10 525 29 L525 127 C473 96 431 85 377 83 L377 204 C407 228 443 254 488 254 C499 254 511 253 524 249 L524 342 C510 345 498 346 485 346 C444 346 403 319 369 283 L359 337 L259 337 L277 232 L277 97 C206 125 166 192 166 300 C166 431 242 500 349 500 C411 500 465 490 525 454 L525 560 C490 574 443 593 350 593 C155 593 46 464 46 286 C46 95 160 -10 346 -10 L346 -10 Z " />
<glyph glyph-name="franc" unicode="&#x20a3;" horiz-adv-x="670" d="M78 0 L194 0 L194 254 L368 254 L372 232 L372 0 L479 0 L479 202 C510 226 547 251 595 251 C608 251 621 249 636 245 L636 344 C621 347 608 348 594 348 C549 348 506 320 471 285 L460 342 L194 342 L194 492 L472 492 L472 583 L78 583 L78 0 Z " />
<glyph glyph-name="lira" unicode="&#x20a4;" horiz-adv-x="497" d="M378 369 L200 369 C197 388 195 405 195 420 C195 469 238 504 293 504 C349 504 394 488 431 458 L431 557 C396 579 346 593 282 593 C196 593 92 540 92 420 C92 404 93 386 96 369 L55 369 L55 295 L108 295 C111 279 115 264 118 250 L55 250 L55 176 L130 176 L130 167 C130 138 122 112 108 84 L53 84 L53 0 L456 0 L456 84 L206 84 C216 114 224 146 226 176 L378 176 L378 250 L221 250 C219 265 216 280 213 295 L378 295 L378 369 Z " />
<glyph glyph-name="mill" unicode="&#x20a5;" horiz-adv-x="783" d="M626 0 L734 0 L734 297 C734 415 683 461 596 461 C565 461 536 454 509 443 L551 574 L463 574 L415 423 C392 449 357 461 314 461 C253 461 200 433 160 405 L150 452 L44 452 L63 343 L63 0 L170 0 L170 336 C200 353 232 368 262 368 C328 368 344 336 344 262 L344 198 L243 -120 L331 -120 L369 0 L452 0 L452 262 L480 350 C502 360 524 368 545 368 C611 368 626 336 626 262 L626 0 Z " />
<glyph glyph-name="naira" unicode="&#x20a6;" horiz-adv-x="739" d="M110 0 L219 0 L219 196 L372 196 L519 0 L621 0 L621 196 L695 196 L695 267 L621 267 L621 327 L695 327 L695 397 L621 397 L621 583 L513 583 L513 397 L355 397 L211 583 L110 583 L110 397 L46 397 L46 327 L110 327 L110 267 L46 267 L46 196 L110 196 L110 0 Z M409 327 L513 327 L513 267 L455 267 L409 327 Z M219 327 L274 327 L319 267 L219 267 L219 327 Z M511 195 L510 196 L513 196 L513 195 L511 195 Z M219 398 L221 398 L221 397 L219 397 L219 398 Z " />
<glyph glyph-name="pesetas" unicode="&#x20a7;" horiz-adv-x="1278" d="M77 0 L194 0 L194 201 L249 201 C415 201 495 290 495 396 C495 520 410 583 288 583 L77 583 L77 0 Z M1045 -8 C1144 -8 1235 38 1235 135 C1235 233 1155 256 1086 272 C1033 283 988 294 988 331 C988 359 1022 377 1065 377 C1110 377 1152 372 1218 343 L1218 434 C1176 454 1116 462 1066 462 C969 462 883 410 883 321 C883 233 956 206 1027 189 C1083 175 1134 165 1134 128 C1134 94 1097 75 1053 75 C1004 75 956 84 887 109 L887 20 C932 4 984 -8 1045 -8 L1045 -8 Z M514 364 L592 364 L592 139 C591 43 652 -8 737 -8 C786 -8 830 -2 858 12 L858 93 C836 87 807 81 781 81 C733 81 700 94 699 155 L699 364 L849 364 L849 452 L699 452 L699 572 L592 572 L592 452 L514 452 L514 364 Z M239 495 C326 494 375 462 375 393 C375 309 317 292 229 290 L194 290 L194 495 L239 495 Z " />
<glyph glyph-name="rupee" unicode="&#x20a8;" horiz-adv-x="902" d="M641 71 C562 71 489 97 431 177 C429 178 407 212 392 236 C460 270 494 330 494 398 C494 522 410 583 288 583 L78 583 L78 0 L194 0 L194 207 L249 207 C263 207 277 207 291 209 L340 131 C395 46 466 -8 636 -8 C735 -8 860 27 860 135 C860 233 780 256 710 272 C658 283 612 294 612 331 C612 359 647 377 690 377 C734 377 777 372 842 343 L842 434 C800 454 741 462 691 462 C594 462 508 410 508 321 C508 233 581 206 652 189 C708 175 758 166 758 129 C758 88 698 71 641 71 L641 71 Z M239 497 C326 496 374 464 374 396 C374 312 317 293 229 293 L194 293 L194 497 L239 497 Z " />
<glyph glyph-name="won" unicode="&#x20a9;" horiz-adv-x="986" d="M928 583 L809 583 L757 405 L606 405 L558 583 L433 583 L379 405 L232 405 L191 583 L65 583 L110 405 L44 405 L44 337 L127 337 L138 296 L44 296 L44 228 L155 228 L213 0 L347 0 L418 228 L537 228 L600 0 L737 0 L811 228 L941 228 L941 296 L834 296 L847 337 L941 337 L941 405 L870 405 L928 583 Z M726 296 L635 296 L634 302 L624 337 L738 337 L727 299 L726 296 Z M346 296 L258 296 L257 301 L248 337 L358 337 L347 299 L346 296 Z M452 337 L507 337 L519 296 L439 296 L452 337 Z M677 137 L653 228 L707 228 L682 137 L677 137 Z M293 135 L273 228 L326 228 L298 135 L293 135 Z M479 423 L484 423 L489 405 L473 405 L479 423 Z " />
<glyph glyph-name="sheqel" unicode="&#x20aa;" horiz-adv-x="722" d="M78 0 L157 0 L157 468 L285 468 C397 468 409 435 409 342 L409 248 L486 248 L486 344 C486 529 440 583 248 583 L78 583 L78 0 Z M244 0 L376 0 C602 0 653 71 653 289 L653 583 L574 583 L574 298 C574 147 543 116 402 116 L323 116 L323 331 L244 331 L244 0 Z " />
<glyph glyph-name="dong" unicode="&#x20ab;" horiz-adv-x="531" d="M192 576 L338 576 L338 519 C315 522 282 525 259 525 C144 525 43 454 43 308 C43 173 133 128 210 128 C266 128 309 149 345 176 L354 134 L452 134 L436 220 L436 576 L488 576 L488 641 L436 641 L436 708 L338 708 L338 641 L192 641 L192 576 Z M244 202 C177 202 144 242 144 321 C144 416 189 452 270 452 C291 452 317 448 338 444 L338 230 C301 210 276 202 244 202 L244 202 Z M57 0 L463 0 L463 81 L57 81 L57 0 Z " />
<glyph glyph-name="Euro" unicode="&#x20ac;" horiz-adv-x="581" d="M40 323 L99 323 C98 310 98 296 98 283 L98 262 L40 262 L40 194 L105 194 C130 62 216 -10 366 -10 C437 -10 498 5 528 24 L528 118 C478 88 437 80 386 80 C310 80 257 116 233 194 L415 194 L415 262 L221 262 C220 273 220 286 220 299 L220 323 L415 323 L415 391 L234 391 C259 463 315 502 380 502 C429 502 472 494 528 465 L528 565 C493 581 449 592 375 592 C234 592 144 510 111 391 L40 391 L40 323 Z " />
<glyph glyph-name="uni20AD" unicode="&#x20ad;" horiz-adv-x="616" d="M96 0 L213 0 L213 262 L242 262 L433 0 L571 0 L372 262 L542 262 L542 343 L360 343 L575 583 L452 583 L250 343 L213 343 L213 583 L96 583 L96 343 L43 343 L43 262 L96 262 L96 0 Z " />
<glyph glyph-name="uni20AE" unicode="&#x20ae;" horiz-adv-x="582" d="M32 492 L232 492 L232 321 L126 277 L126 199 L232 243 L232 196 L126 152 L126 74 L232 118 L232 0 L348 0 L348 167 L458 214 L458 292 L348 245 L348 292 L458 339 L458 417 L348 370 L348 492 L551 492 L551 583 L32 583 L32 492 Z " />
<glyph glyph-name="uni20B1" unicode="&#x20b1;" horiz-adv-x="618" d="M101 0 L218 0 L218 201 L273 201 C397 201 473 251 504 321 L581 321 L581 374 L517 374 C518 381 519 388 519 396 C519 402 519 407 518 413 L581 413 L581 465 L508 465 C482 543 409 583 312 583 L101 583 L101 465 L47 465 L47 413 L101 413 L101 374 L47 374 L47 321 L101 321 L101 0 Z M399 393 C399 386 398 380 398 374 L218 374 L218 413 L397 413 C398 406 399 400 399 393 L399 393 Z M253 290 L218 290 L218 321 L373 321 C348 298 306 291 253 290 L253 290 Z M263 495 C310 494 346 485 369 465 L218 465 L218 495 L263 495 Z " />
<glyph glyph-name="uni20B4" unicode="&#x20b4;" horiz-adv-x="558" d="M511 389 L473 389 C479 405 482 422 482 442 C482 553 388 593 278 593 C204 593 142 577 103 557 L103 456 C145 483 210 502 271 502 C322 502 371 485 371 443 C371 422 363 404 348 389 L45 389 L45 321 L220 321 C194 309 169 296 148 280 L45 280 L45 213 L96 213 C88 194 84 171 84 146 C84 26 182 -10 303 -10 C362 -10 420 3 476 25 L476 128 C432 103 355 83 292 83 C233 83 190 106 190 150 C190 175 200 195 218 213 L511 213 L511 280 L354 280 C379 291 403 304 423 321 L511 321 L511 389 Z " />
<glyph glyph-name="uni20B9" unicode="&#x20b9;" horiz-adv-x="510" d="M462 414 L391 414 C384 448 365 476 337 497 L447 497 L471 583 L58 583 L58 497 L153 497 C220 495 262 461 276 414 L58 414 L58 338 L276 338 C261 281 210 259 136 259 L57 259 L57 176 L155 176 C169 176 183 177 197 178 L305 0 L439 0 L297 209 C350 239 380 286 390 338 L440 338 L462 414 Z " />
<glyph glyph-name="uni2113" unicode="&#x2113;" horiz-adv-x="426" d="M21 193 L45 134 C56 141 74 152 96 164 L96 158 C96 46 135 -8 226 -8 C288 -8 330 6 370 32 L345 102 C327 88 296 74 266 74 C221 74 204 100 204 183 L204 230 C223 243 241 255 254 267 C352 332 404 394 404 471 C404 567 331 593 259 593 C160 593 96 521 96 399 L96 236 C63 218 34 202 21 193 L21 193 Z M204 427 C204 480 222 513 255 513 C291 513 303 488 303 456 C303 402 265 355 217 315 L204 304 L204 427 Z " />
<glyph glyph-name="uni2116" unicode="&#x2116;" horiz-adv-x="1017" d="M658 165 L964 165 L964 230 L658 230 L658 165 Z M806 271 C906 271 969 343 969 434 C969 543 915 592 813 592 C715 592 652 519 652 427 C652 321 707 271 806 271 L806 271 Z M812 337 C756 337 744 382 744 432 C744 479 753 525 810 525 C870 525 878 476 878 431 C878 381 868 337 812 337 L812 337 Z M77 0 L186 0 L186 398 L188 398 L486 0 L588 0 L588 583 L480 583 L480 195 L478 195 L178 583 L77 583 L77 0 Z " />
<glyph glyph-name="uni2117" unicode="&#x2117;" horiz-adv-x="695" d="M348 -14 C515 -14 651 117 651 289 C651 460 515 592 348 592 C181 592 45 460 45 289 C45 117 181 -14 348 -14 L348 -14 Z M348 21 C198 21 80 139 80 289 C80 439 198 557 348 557 C498 557 615 439 615 289 C615 139 498 21 348 21 L348 21 Z M236 111 L318 111 L318 219 L352 219 C462 219 515 266 515 343 C515 418 460 456 378 456 L236 456 L236 111 Z M344 391 C399 390 430 381 430 341 C430 293 395 283 338 284 L318 284 L318 391 L344 391 Z " />
<glyph glyph-name="servicemark" unicode="&#x2120;" horiz-adv-x="712" d="M282 294 L350 294 L369 486 L372 486 L428 294 L500 294 L561 484 L563 484 L582 294 L656 294 L625 583 L536 583 L474 391 L471 391 L412 583 L316 583 L282 294 Z M62 306 C91 294 121 288 151 288 C213 288 266 311 266 377 C266 435 216 454 172 469 C138 480 128 489 128 504 C128 523 145 532 170 532 C200 532 234 522 254 509 L254 569 C235 579 203 587 165 587 C108 587 60 555 60 499 C60 449 94 427 132 414 C171 400 198 392 198 370 C198 350 185 345 157 345 C125 345 85 355 62 367 L62 306 Z " />
<glyph glyph-name="trademark" unicode="&#x2122;" horiz-adv-x="757" d="M326 294 L394 294 L414 486 L416 486 L472 294 L545 294 L605 484 L607 484 L627 294 L700 294 L670 583 L580 583 L519 391 L515 391 L456 583 L360 583 L326 294 Z M57 527 L152 527 L152 294 L224 294 L224 527 L320 527 L320 583 L57 583 L57 527 Z " />
<glyph glyph-name="Omega" unicode="&#x2126;" horiz-adv-x="712" d="M353 593 C164 593 54 457 54 318 C54 217 111 131 189 93 L189 91 L52 91 L52 0 L303 0 L303 87 C228 139 178 209 178 306 C178 430 249 502 354 502 C460 502 535 430 535 306 C535 209 487 141 412 87 L412 0 L660 0 L660 91 L518 91 L518 93 C602 138 659 231 659 332 C659 470 546 593 353 593 L353 593 Z " />
<glyph glyph-name="estimated" unicode="&#x212e;" horiz-adv-x="576" d="M301 -8 C385 -8 465 21 516 92 L479 127 C435 74 378 49 304 49 C225 49 173 103 173 166 L173 210 L534 210 L534 261 C533 392 439 465 298 465 C145 465 45 357 45 217 C45 60 161 -8 301 -8 L301 -8 Z M173 263 L173 285 C173 363 216 418 298 418 C373 418 403 358 403 285 L403 263 L173 263 Z " />
<glyph glyph-name="onethird" unicode="&#x2153;" horiz-adv-x="661" d="M185 255 L185 568 L138 568 L32 538 L32 486 L103 496 L103 255 L185 255 Z M492 -4 C564 -4 624 27 624 94 C624 131 599 164 552 169 L552 171 C580 178 610 201 610 241 C610 289 563 315 503 315 C466 315 433 305 409 286 L409 228 C439 250 467 255 489 255 C515 255 534 245 534 223 C534 195 501 178 457 175 L457 133 C521 131 548 120 548 90 C548 67 528 52 495 52 C467 52 439 55 406 71 L406 11 C425 3 451 -4 492 -4 L492 -4 Z M171 0 L530 543 L530 548 L461 548 L103 5 L103 0 L171 0 Z " />
<glyph glyph-name="twothirds" unicode="&#x2154;" horiz-adv-x="694" d="M192 475 C192 420 124 368 44 305 L44 259 L278 259 L278 319 L152 319 L151 322 C226 378 271 430 271 484 C271 548 216 574 155 574 C119 574 77 565 50 544 L50 486 C85 511 117 516 143 516 C170 516 192 503 192 475 L192 475 Z M524 -4 C596 -4 656 27 656 94 C656 131 631 164 584 169 L584 171 C612 178 642 201 642 241 C642 289 595 315 535 315 C498 315 465 305 441 286 L441 228 C471 250 499 255 521 255 C547 255 566 245 566 223 C566 195 533 178 489 175 L489 133 C553 131 580 120 580 90 C580 67 560 52 527 52 C499 52 471 55 438 71 L438 11 C457 3 483 -4 524 -4 L524 -4 Z M211 0 L570 543 L570 548 L501 548 L143 5 L143 0 L211 0 Z " />
<glyph glyph-name="uni215B" unicode="&#x215b;" horiz-adv-x="682" d="M643 87 C643 124 618 145 587 159 C616 178 637 205 637 237 C637 290 582 315 517 315 C452 315 400 277 400 228 C400 194 418 172 442 156 C412 138 391 109 391 80 C391 25 435 -4 512 -4 C580 -4 643 34 643 87 L643 87 Z M165 0 L524 543 L524 548 L455 548 L97 5 L97 0 L165 0 Z M186 255 L186 568 L139 568 L33 538 L33 486 L104 496 L104 255 L186 255 Z M462 89 C462 108 467 122 479 137 C521 119 565 108 565 82 C565 55 543 46 516 46 C487 46 462 59 462 89 L462 89 Z M565 226 C565 211 558 192 542 177 C506 190 473 202 473 229 C473 253 491 261 516 261 C550 261 565 246 565 226 L565 226 Z " />
<glyph glyph-name="arrowleft" unicode="&#x2190;" horiz-adv-x="551" d="M260 91 L167 220 L551 220 L551 309 L168 309 L260 439 L163 439 L35 264 L163 91 L260 91 Z " />
<glyph glyph-name="arrowup" unicode="&#x2191;" horiz-adv-x="484" d="M415 440 L242 569 L67 441 L67 343 L197 436 L197 53 L286 53 L286 437 L415 343 L415 440 Z " />
<glyph glyph-name="arrowright" unicode="&#x2192;" horiz-adv-x="549" d="M387 91 L516 264 L388 439 L290 439 L383 309 L0 309 L0 220 L384 220 L290 91 L387 91 Z " />
<glyph glyph-name="arrowdown" unicode="&#x2193;" horiz-adv-x="484" d="M67 181 L241 53 L415 182 L415 278 L285 185 L285 569 L197 569 L197 185 L67 278 L67 181 Z " />
<glyph glyph-name="uni2196" unicode="&#x2196;" horiz-adv-x="484" d="M271 526 L58 494 L25 280 L94 211 L120 369 L391 98 L454 161 L182 432 L340 457 L271 526 Z " />
<glyph glyph-name="uni2197" unicode="&#x2197;" horiz-adv-x="484" d="M453 279 L420 493 L207 525 L138 457 L296 431 L24 160 L87 97 L358 368 L384 211 L453 279 Z " />
<glyph glyph-name="uni2198" unicode="&#x2198;" horiz-adv-x="484" d="M210 96 L424 128 L456 342 L387 411 L361 253 L90 525 L27 462 L298 191 L141 165 L210 96 Z " />
<glyph glyph-name="uni2199" unicode="&#x2199;" horiz-adv-x="484" d="M30 342 L62 129 L276 96 L345 165 L187 191 L458 462 L395 525 L124 253 L99 411 L30 342 Z " />
<glyph glyph-name="partialdiff" unicode="&#x2202;" horiz-adv-x="517" d="M255 462 C121 462 33 354 33 221 C33 69 112 -8 246 -8 C389 -8 470 108 470 240 C470 425 437 587 197 679 L148 611 C267 552 297 521 326 451 C308 459 284 462 255 462 L255 462 Z M358 226 C358 145 336 77 252 77 C170 77 144 142 144 227 C144 306 167 375 251 375 C287 375 316 371 351 356 C354 321 358 263 358 226 L358 226 Z " />
<glyph glyph-name="Delta" unicode="&#x2206;" horiz-adv-x="585" d="M554 0 L554 77 L357 583 L243 583 L31 75 L32 0 L554 0 Z M289 459 L294 459 L428 91 L145 91 L289 459 Z " />
<glyph glyph-name="product" unicode="&#x220f;" horiz-adv-x="729" d="M232 -207 L232 492 L494 492 L494 -207 L611 -207 L611 492 L700 492 L700 583 L29 583 L29 492 L116 492 L116 -207 L232 -207 Z " />
<glyph glyph-name="summation" unicode="&#x2211;" horiz-adv-x="504" d="M38 -207 L469 -207 L469 -113 L166 -113 L341 211 L174 492 L449 492 L449 583 L41 583 L41 502 L217 207 L38 -123 L38 -207 Z " />
<glyph glyph-name="minus" unicode="&#x2212;" horiz-adv-x="544" d="M62 260 L482 260 L482 332 L62 332 L62 260 Z " />
<glyph glyph-name="radical" unicode="&#x221a;" horiz-adv-x="545" d="M181 0 L291 0 L536 653 L427 653 L245 128 L241 128 L132 452 L23 452 L181 0 Z " />
<glyph glyph-name="infinity" unicode="&#x221e;" horiz-adv-x="845" d="M218 505 C113 505 48 402 48 293 C48 185 105 81 218 81 C307 81 372 160 422 232 C473 161 540 81 628 81 C740 81 797 186 797 293 C797 400 731 505 628 505 C539 505 473 425 422 355 C373 425 307 505 218 505 L218 505 Z M218 157 C162 157 130 222 130 293 C130 365 162 429 218 429 C281 429 339 351 379 293 C339 236 281 157 218 157 L218 157 Z M628 157 C564 157 506 236 466 293 C506 351 564 429 628 429 C682 429 715 365 715 293 C715 222 682 157 628 157 L628 157 Z " />
<glyph glyph-name="integral" unicode="&#x222b;" horiz-adv-x="419" d="M161 -26 C161 -97 136 -128 81 -128 C59 -128 42 -127 18 -122 L18 -207 C34 -211 61 -213 86 -213 C188 -213 261 -156 261 -43 L261 467 C261 541 282 573 339 573 C362 573 378 571 401 567 L401 655 C385 659 358 661 333 661 C231 661 161 604 161 491 L161 -26 Z " />
<glyph glyph-name="approxequal" unicode="&#x2248;" horiz-adv-x="515" d="M338 308 C389 308 430 339 455 372 L415 426 C393 402 373 386 344 386 C278 386 250 433 173 433 C122 433 78 401 58 375 L93 322 C113 339 132 356 166 356 C227 356 272 308 338 308 L338 308 Z M339 123 C390 123 431 154 456 187 L416 241 C394 217 374 201 345 201 C279 201 251 248 174 248 C123 248 79 216 59 190 L94 137 C114 154 133 171 167 171 C228 171 273 123 339 123 L339 123 Z " />
<glyph glyph-name="notequal" unicode="&#x2260;" horiz-adv-x="504" d="M57 355 L259 355 L190 238 L57 238 L57 164 L146 164 L63 23 L134 23 L218 164 L448 164 L448 238 L262 238 L332 355 L448 355 L448 428 L376 428 L458 565 L384 565 L303 428 L57 428 L57 355 Z " />
<glyph glyph-name="lessequal" unicode="&#x2264;" horiz-adv-x="519" d="M54 26 L456 26 L456 102 L54 102 L54 26 Z M456 135 L456 214 L171 334 L171 338 L456 455 L456 535 L55 363 L55 307 L456 135 Z " />
<glyph glyph-name="greaterequal" unicode="&#x2265;" horiz-adv-x="520" d="M465 102 L63 102 L63 26 L465 26 L465 102 Z M465 307 L465 363 L64 535 L64 455 L347 337 L347 334 L64 214 L64 135 L465 307 Z " />
<glyph glyph-name="uni2460" unicode="&#x2460;" horiz-adv-x="691" d="M345 0 C506 0 637 130 637 291 C637 452 506 583 345 583 C184 583 54 452 54 291 C54 130 184 0 345 0 L345 0 Z M345 36 C206 36 94 152 94 291 C94 430 206 547 345 547 C484 547 597 430 597 291 C597 152 484 36 345 36 L345 36 Z M391 139 L391 452 L344 452 L238 422 L238 369 L309 380 L309 139 L391 139 Z " />
<glyph glyph-name="uni2461" unicode="&#x2461;" horiz-adv-x="691" d="M345 0 C506 0 637 130 637 291 C637 452 506 583 345 583 C184 583 54 452 54 291 C54 130 184 0 345 0 L345 0 Z M345 36 C206 36 94 152 94 291 C94 430 206 547 345 547 C484 547 597 430 597 291 C597 152 484 36 345 36 L345 36 Z M229 139 L463 139 L463 199 L335 199 L335 202 C410 258 455 309 455 364 C455 428 400 454 339 454 C303 454 261 445 235 424 L235 366 C270 391 301 396 327 396 C354 396 377 383 377 355 C377 300 308 248 229 185 L229 139 Z " />
<glyph glyph-name="uni2462" unicode="&#x2462;" horiz-adv-x="691" d="M345 0 C506 0 637 130 637 291 C637 452 506 583 345 583 C184 583 54 452 54 291 C54 130 184 0 345 0 L345 0 Z M345 36 C206 36 94 152 94 291 C94 430 206 547 345 547 C484 547 597 430 597 291 C597 152 484 36 345 36 L345 36 Z M331 135 C402 135 462 166 462 233 C462 270 437 303 390 308 L390 310 C418 317 449 340 449 380 C449 428 401 454 341 454 C305 454 271 444 247 425 L247 367 C277 389 306 394 328 394 C354 394 372 384 372 362 C372 335 339 317 296 314 L296 272 C359 270 387 259 387 229 C387 206 367 191 334 191 C306 191 277 194 244 210 L244 150 C263 142 290 135 331 135 L331 135 Z " />
<glyph glyph-name="uni2463" unicode="&#x2463;" horiz-adv-x="691" d="M345 0 C506 0 637 130 637 291 C637 452 506 583 345 583 C184 583 54 452 54 291 C54 130 184 0 345 0 L345 0 Z M345 36 C206 36 94 152 94 291 C94 430 206 547 345 547 C484 547 597 430 597 291 C597 152 484 36 345 36 L345 36 Z M329 139 L409 139 L409 211 L452 211 L452 264 L409 264 L409 452 L334 452 L190 262 L190 211 L329 211 L329 139 Z M254 264 L329 365 L329 264 L254 264 Z " />
<glyph glyph-name="uni2464" unicode="&#x2464;" horiz-adv-x="691" d="M345 0 C506 0 637 130 637 291 C637 452 506 583 345 583 C184 583 54 452 54 291 C54 130 184 0 345 0 L345 0 Z M345 36 C206 36 94 152 94 291 C94 430 206 547 345 547 C484 547 597 430 597 291 C597 152 484 36 345 36 L345 36 Z M323 135 C379 135 453 162 453 238 C453 305 403 335 323 335 L309 335 L315 393 L446 393 L446 449 L260 449 L245 280 C260 282 278 284 294 284 C352 284 378 268 378 236 C378 209 355 190 323 190 C296 190 267 195 235 210 L235 150 C259 142 287 135 323 135 L323 135 Z " />
<glyph glyph-name="uni2465" unicode="&#x2465;" horiz-adv-x="691" d="M345 0 C506 0 637 130 637 291 C637 452 506 583 345 583 C184 583 54 452 54 291 C54 130 184 0 345 0 L345 0 Z M345 36 C206 36 94 152 94 291 C94 430 206 547 345 547 C484 547 597 430 597 291 C597 152 484 36 345 36 L345 36 Z M366 399 C387 399 408 396 437 382 L437 442 C413 450 384 454 363 454 C264 454 206 374 206 273 C206 191 246 135 330 135 C411 135 459 187 459 248 C459 312 414 341 355 341 C326 341 304 334 288 326 C296 375 319 399 366 399 L366 399 Z M333 291 C365 291 381 275 381 242 C381 209 365 188 333 188 C296 188 284 217 284 269 L284 280 C297 286 312 291 333 291 L333 291 Z " />
<glyph glyph-name="uni2466" unicode="&#x2466;" horiz-adv-x="691" d="M345 0 C506 0 637 130 637 291 C637 452 506 583 345 583 C184 583 54 452 54 291 C54 130 184 0 345 0 L345 0 Z M345 36 C206 36 94 152 94 291 C94 430 206 547 345 547 C484 547 597 430 597 291 C597 152 484 36 345 36 L345 36 Z M326 136 L458 409 L458 446 L235 446 L235 390 L382 390 L254 139 L255 136 L326 136 Z " />
<glyph glyph-name="uni2467" unicode="&#x2467;" horiz-adv-x="691" d="M345 0 C506 0 637 130 637 291 C637 452 506 583 345 583 C184 583 54 452 54 291 C54 130 184 0 345 0 L345 0 Z M345 36 C206 36 94 152 94 291 C94 430 206 547 345 547 C484 547 597 430 597 291 C597 152 484 36 345 36 L345 36 Z M467 223 C467 259 442 280 411 296 C440 314 460 342 460 374 C460 426 406 451 340 451 C275 451 223 413 223 364 C223 332 241 309 266 293 C235 275 214 245 214 216 C214 162 259 132 336 132 C404 132 467 170 467 223 L467 223 Z M389 363 C389 348 382 330 367 314 C330 328 297 341 297 367 C297 390 315 397 340 397 C374 397 389 383 389 363 L389 363 Z M286 225 C286 245 291 257 304 272 C346 252 389 241 389 216 C389 190 364 182 339 182 C310 182 286 195 286 225 L286 225 Z " />
<glyph glyph-name="uni2468" unicode="&#x2468;" horiz-adv-x="691" d="M345 0 C506 0 637 130 637 291 C637 452 506 583 345 583 C184 583 54 452 54 291 C54 130 184 0 345 0 L345 0 Z M345 36 C206 36 94 152 94 291 C94 430 206 547 345 547 C484 547 597 430 597 291 C597 152 484 36 345 36 L345 36 Z M312 186 C291 186 269 190 240 204 L240 145 C265 135 294 132 315 132 C415 132 472 210 472 313 C472 396 432 451 348 451 C267 451 220 399 220 338 C220 272 266 244 323 244 C351 244 373 251 390 259 C382 210 358 186 312 186 L312 186 Z M345 294 C313 294 296 310 296 345 C296 382 314 398 344 398 C381 398 394 369 395 316 L395 305 C382 299 366 294 345 294 L345 294 Z " />
<glyph glyph-name="uni2469" unicode="&#x2469;" horiz-adv-x="691" d="M345 0 C506 0 637 130 637 291 C637 452 506 583 345 583 C184 583 54 452 54 291 C54 130 184 0 345 0 L345 0 Z M345 36 C206 36 94 152 94 291 C94 430 206 547 345 547 C484 547 597 430 597 291 C597 152 484 36 345 36 L345 36 Z M280 142 L280 444 L238 444 L141 415 L141 365 L207 376 L207 142 L280 142 Z M432 138 C510 138 556 195 556 293 C556 376 526 445 437 445 C357 445 313 385 313 284 C313 194 350 138 432 138 L432 138 Z M435 190 C391 190 384 238 384 288 C384 338 390 392 432 392 C476 392 484 336 484 291 C484 241 481 190 435 190 L435 190 Z " />
<glyph glyph-name="uni24CA" unicode="&#x24ca;" horiz-adv-x="695" d="M348 -14 C515 -14 651 117 651 289 C651 460 515 592 348 592 C181 592 45 460 45 289 C45 117 181 -14 348 -14 L348 -14 Z M350 108 C430 108 509 156 509 259 L509 424 L429 424 L429 267 C429 206 399 178 350 178 C299 178 271 202 271 262 L271 424 L190 424 L190 248 C190 153 263 108 350 108 L350 108 Z M348 21 C198 21 80 139 80 289 C80 439 198 557 348 557 C498 557 615 439 615 289 C615 139 498 21 348 21 L348 21 Z " />
<glyph glyph-name="uni25B2" unicode="&#x25b2;" horiz-adv-x="590" d="M563 21 L295 449 L27 21 L563 21 Z " />
<glyph glyph-name="uni25B6" unicode="&#x25b6;" horiz-adv-x="538" d="M84 -33 L512 235 L84 503 L84 -33 Z " />
<glyph glyph-name="uni25B8" unicode="&#x25b8;" horiz-adv-x="378" d="M352 218 L85 486 L85 -50 L352 218 Z " />
<glyph glyph-name="uni25BA" unicode="&#x25ba;" horiz-adv-x="838" d="M806 218 L84 486 L84 -50 L806 218 Z " />
<glyph glyph-name="uni25BC" unicode="&#x25bc;" horiz-adv-x="610" d="M37 448 L305 20 L573 448 L37 448 Z " />
<glyph glyph-name="uni25C0" unicode="&#x25c0;" horiz-adv-x="538" d="M454 -33 L454 503 L26 235 L454 -33 Z " />
<glyph glyph-name="uni25C2" unicode="&#x25c2;" horiz-adv-x="379" d="M294 -50 L294 486 L27 219 L294 -50 Z " />
<glyph glyph-name="uni25C4" unicode="&#x25c4;" horiz-adv-x="838" d="M754 -50 L754 486 L32 218 L754 -50 Z " />
<glyph glyph-name="lozenge" unicode="&#x25ca;" horiz-adv-x="511" d="M211 0 L301 0 L486 286 L302 583 L212 583 L25 286 L211 0 Z M257 82 L128 288 L255 498 L385 285 L257 82 Z " />
<glyph glyph-name="uni2610" unicode="&#x2610;" horiz-adv-x="753" d="M85 0 L668 0 L668 583 L85 583 L85 0 Z M156 68 L156 512 L597 512 L597 68 L156 68 Z " />
<glyph glyph-name="uni2611" unicode="&#x2611;" horiz-adv-x="753" d="M85 0 L668 0 L668 583 L85 583 L85 0 Z M156 68 L156 512 L597 512 L597 68 L156 68 Z M262 93 L281 93 C399 219 497 366 570 475 L563 483 C534 480 488 461 476 444 C427 367 339 228 293 172 C270 222 267 286 266 321 L245 327 C232 324 202 295 193 283 C189 260 226 121 262 93 L262 93 Z " />
<glyph glyph-name="uni261A" unicode="&#x261a;" horiz-adv-x="973" d="M44 453 C27 391 81 386 81 386 L287 400 L342 365 C342 365 266 272 262 246 C262 246 278 200 315 186 C315 186 325 129 367 126 C367 126 376 88 422 74 L498 101 C498 101 574 88 718 140 L907 126 L907 365 L730 401 C730 401 680 443 617 459 L315 509 L44 453 Z " />
<glyph glyph-name="uni261B" unicode="&#x261b;" horiz-adv-x="973" d="M658 509 L356 459 C293 443 243 401 243 401 L66 365 L66 126 L255 140 C399 88 475 101 475 101 L551 74 C597 88 606 126 606 126 C648 129 658 186 658 186 C695 200 711 246 711 246 C707 272 631 365 631 365 L686 400 L892 386 C892 386 946 391 929 453 L658 509 Z " />
<glyph glyph-name="uni261C" unicode="&#x261c;" horiz-adv-x="973" d="M44 453 C27 391 81 386 81 386 L287 400 L342 365 C342 365 266 272 262 246 C262 246 278 200 315 186 C315 186 325 129 367 126 C367 126 376 88 422 74 L498 101 C498 101 574 88 718 140 L907 126 L907 365 L730 401 C730 401 680 443 617 459 L315 509 L44 453 Z M668 186 C596 157 493 154 493 154 L424 127 C400 129 396 157 396 157 L447 196 L511 215 L492 255 L428 231 L374 184 C360 186 356 208 356 208 L423 269 L473 291 L456 326 L404 300 L339 232 C328 231 317 249 317 249 L370 318 L422 369 L311 426 L125 418 C125 418 105 428 115 442 L314 467 L597 414 C642 398 690 360 690 360 L852 326 L852 178 L668 186 Z " />
<glyph glyph-name="uni261D" unicode="&#x261d;" horiz-adv-x="510" d="M45 473 L95 171 C111 108 153 58 153 58 L189 -119 L428 -119 L414 70 C466 214 453 290 453 290 L480 366 C466 412 428 421 428 421 C425 463 368 473 368 473 C354 510 308 526 308 526 C282 522 189 446 189 446 L154 501 L168 707 C168 707 163 761 101 744 L45 473 Z M376 -64 L228 -64 L194 98 C194 98 156 146 140 191 L87 474 L112 673 C126 683 136 663 136 663 L128 477 L185 366 L236 418 L305 471 C305 471 323 460 322 449 L254 384 L228 332 L263 315 L285 365 L346 432 C346 432 368 428 370 414 L323 360 L299 296 L339 277 L358 341 L397 392 C397 392 425 388 427 364 L400 295 C400 295 397 192 368 120 L376 -64 Z " />
<glyph glyph-name="uni261E" unicode="&#x261e;" horiz-adv-x="973" d="M658 509 L356 459 C293 443 243 401 243 401 L66 365 L66 126 L255 140 C399 88 475 101 475 101 L551 74 C597 88 606 126 606 126 C648 129 658 186 658 186 C695 200 711 246 711 246 C707 272 631 365 631 365 L686 400 L892 386 C892 386 946 391 929 453 L658 509 Z M121 178 L121 326 L283 360 C283 360 331 398 376 414 L659 467 L858 442 C868 428 848 418 848 418 L662 426 L551 369 L603 318 L656 249 C656 249 645 231 634 232 L569 300 L517 326 L500 291 L550 269 L617 208 C617 208 613 186 599 184 L545 231 L481 255 L462 215 L526 196 L577 157 C577 157 573 129 549 127 L480 154 C480 154 377 157 305 186 L121 178 Z " />
<glyph glyph-name="uni261F" unicode="&#x261f;" horiz-adv-x="509" d="M465 169 L415 471 C399 534 357 584 357 584 L321 761 L82 761 L96 572 C44 428 57 352 57 352 L30 276 C44 230 82 221 82 221 C85 179 142 169 142 169 C156 132 202 116 202 116 C228 120 321 196 321 196 L356 141 L342 -65 C342 -65 347 -119 409 -102 L465 169 Z M134 706 L282 706 L316 544 C316 544 354 496 370 451 L423 168 L398 -31 C384 -41 374 -21 374 -21 L382 165 L325 276 L274 224 L205 171 C205 171 187 182 188 193 L256 258 L282 310 L247 327 L225 277 L164 210 C164 210 142 214 140 228 L187 282 L211 346 L171 365 L152 301 L113 250 C113 250 85 254 83 278 L110 347 C110 347 113 450 142 522 L134 706 Z " />
<glyph glyph-name="uni267E" unicode="&#x267e;" horiz-adv-x="695" d="M348 -14 C515 -14 651 117 651 289 C651 460 515 592 348 592 C181 592 45 460 45 289 C45 117 181 -14 348 -14 L348 -14 Z M348 21 C198 21 80 139 80 289 C80 439 198 557 348 557 C498 557 615 439 615 289 C615 139 498 21 348 21 L348 21 Z M247 410 C192 410 157 353 157 292 C157 231 188 173 247 173 C288 173 323 218 347 254 C372 216 404 173 448 173 C508 173 538 232 538 292 C538 352 503 410 448 410 C406 410 371 366 347 330 C321 368 291 410 247 410 L247 410 Z M247 228 C223 228 209 257 209 292 C209 326 223 356 247 356 C273 356 302 321 322 292 C303 264 272 228 247 228 L247 228 Z M448 228 C422 228 392 264 372 292 C392 321 422 356 448 356 C471 356 485 326 485 292 C485 257 471 228 448 228 L448 228 Z " />
<glyph glyph-name="uni2713" unicode="&#x2713;" horiz-adv-x="457" d="M114 93 L133 93 C251 219 349 366 422 475 L415 483 C386 480 340 461 328 444 C279 367 191 228 145 172 C122 222 119 286 118 321 L97 327 C84 324 54 295 45 283 C41 260 78 121 114 93 L114 93 Z " />
<glyph glyph-name="uni2776" unicode="&#x2776;" horiz-adv-x="691" d="M345 0 C506 0 637 130 637 291 C637 452 506 583 345 583 C184 583 54 452 54 291 C54 130 184 0 345 0 L345 0 Z M309 139 L309 380 L238 369 L238 422 L344 452 L391 452 L391 139 L309 139 Z " />
<glyph glyph-name="uni2777" unicode="&#x2777;" horiz-adv-x="691" d="M345 0 C506 0 637 130 637 291 C637 452 506 583 345 583 C184 583 54 452 54 291 C54 130 184 0 345 0 L345 0 Z M229 185 C308 248 377 300 377 355 C377 383 354 396 327 396 C301 396 270 391 235 366 L235 424 C261 445 303 454 339 454 C400 454 455 428 455 364 C455 310 410 258 336 203 C336 202 335 200 335 199 L463 199 L463 139 L229 139 L229 185 Z " />
<glyph glyph-name="uni2778" unicode="&#x2778;" horiz-adv-x="691" d="M345 0 C506 0 637 130 637 291 C637 452 506 583 345 583 C184 583 54 452 54 291 C54 130 184 0 345 0 L345 0 Z M331 135 C290 135 263 142 244 150 L244 210 C277 194 306 191 334 191 C367 191 387 206 387 229 C387 259 359 270 296 272 L296 314 C339 317 372 335 372 362 C372 384 354 394 328 394 C306 394 277 389 247 367 L247 425 C271 444 305 454 341 454 C401 454 449 428 449 380 C449 340 418 317 390 310 L390 308 C437 303 462 270 462 233 C462 166 402 135 331 135 L331 135 Z " />
<glyph glyph-name="uni2779" unicode="&#x2779;" horiz-adv-x="691" d="M345 0 C506 0 637 130 637 291 C637 452 506 583 345 583 C184 583 54 452 54 291 C54 130 184 0 345 0 L345 0 Z M329 211 L190 211 L190 262 L334 452 L409 452 L409 264 L452 264 L452 211 L409 211 L409 139 L329 139 L329 211 Z M329 264 L329 365 L254 264 L329 264 Z " />
<glyph glyph-name="uni277A" unicode="&#x277a;" horiz-adv-x="691" d="M345 0 C506 0 637 130 637 291 C637 452 506 583 345 583 C184 583 54 452 54 291 C54 130 184 0 345 0 L345 0 Z M323 135 C287 135 259 142 235 150 L235 210 C267 195 296 190 323 190 C355 190 378 209 378 236 C378 268 352 284 294 284 C278 284 260 282 245 280 L260 449 L446 449 L446 393 L315 393 L309 335 L323 335 C403 335 453 305 453 238 C453 162 379 135 323 135 L323 135 Z " />
<glyph glyph-name="uni277B" unicode="&#x277b;" horiz-adv-x="691" d="M345 0 C506 0 637 130 637 291 C637 452 506 583 345 583 C184 583 54 452 54 291 C54 130 184 0 345 0 L345 0 Z M366 399 C319 399 296 375 288 326 C304 334 326 341 355 341 C414 341 459 312 459 248 C459 187 411 135 330 135 C246 135 206 191 206 273 C206 374 264 454 363 454 C384 454 413 450 437 442 L437 382 C408 396 387 399 366 399 L366 399 Z M333 291 C312 291 297 286 284 280 L284 270 C284 217 296 188 333 188 C365 188 381 209 381 242 C381 275 365 291 333 291 L333 291 Z " />
<glyph glyph-name="uni277C" unicode="&#x277c;" horiz-adv-x="691" d="M345 0 C506 0 637 130 637 291 C637 452 506 583 345 583 C184 583 54 452 54 291 C54 130 184 0 345 0 L345 0 Z M255 136 L254 139 L382 390 L235 390 L235 446 L458 446 L458 409 L326 136 L255 136 Z " />
<glyph glyph-name="uni277D" unicode="&#x277d;" horiz-adv-x="691" d="M345 0 C506 0 637 130 637 291 C637 452 506 583 345 583 C184 583 54 452 54 291 C54 130 184 0 345 0 L345 0 Z M467 223 C467 170 404 132 336 132 C259 132 214 162 214 216 C214 245 235 275 266 293 C241 309 223 332 223 364 C223 413 275 451 340 451 C406 451 460 426 460 374 C460 342 440 314 411 296 C442 280 467 259 467 223 L467 223 Z M389 363 C389 383 374 397 340 397 C315 397 297 390 297 367 C297 341 330 328 367 314 C382 330 389 348 389 363 L389 363 Z M286 225 C286 195 310 182 339 182 C364 182 389 190 389 216 C389 241 346 252 304 272 C291 257 286 245 286 225 L286 225 Z " />
<glyph glyph-name="uni277E" unicode="&#x277e;" horiz-adv-x="691" d="M345 0 C506 0 637 130 637 291 C637 452 506 583 345 583 C184 583 54 452 54 291 C54 130 184 0 345 0 L345 0 Z M312 186 C358 186 382 210 390 259 C373 251 351 244 323 244 C266 244 220 272 220 338 C220 399 267 451 348 451 C432 451 472 396 472 313 C472 210 415 132 315 132 C294 132 265 135 240 145 L240 204 C269 190 291 186 312 186 L312 186 Z M345 294 C366 294 382 299 395 305 L395 316 C395 369 382 398 344 398 C314 398 296 382 296 345 C296 310 313 294 345 294 L345 294 Z " />
<glyph glyph-name="uni277F" unicode="&#x277f;" horiz-adv-x="691" d="M345 0 C506 0 637 130 637 291 C637 452 506 583 345 583 C184 583 54 452 54 291 C54 130 184 0 345 0 L345 0 Z M207 142 L207 376 L141 365 L141 415 L238 444 L280 444 L280 142 L207 142 Z M432 138 C350 138 313 194 313 284 C313 385 357 445 437 445 C526 445 556 376 556 293 C556 195 510 138 432 138 L432 138 Z M435 190 C481 190 484 241 484 291 C484 336 476 392 432 392 C390 392 384 338 384 288 C384 238 391 190 435 190 L435 190 Z " />
<glyph glyph-name="uni2780" unicode="&#x2780;" horiz-adv-x="691" d="M345 0 C506 0 637 130 637 291 C637 452 506 583 345 583 C184 583 54 452 54 291 C54 130 184 0 345 0 L345 0 Z M345 36 C206 36 94 152 94 291 C94 430 206 547 345 547 C484 547 597 430 597 291 C597 152 484 36 345 36 L345 36 Z M392 141 L392 445 L347 445 L245 416 L245 366 L314 376 L314 141 L392 141 Z " />
<glyph glyph-name="uni2781" unicode="&#x2781;" horiz-adv-x="691" d="M345 0 C506 0 637 130 637 291 C637 452 506 583 345 583 C184 583 54 452 54 291 C54 130 184 0 345 0 L345 0 Z M345 36 C206 36 94 152 94 291 C94 430 206 547 345 547 C484 547 597 430 597 291 C597 152 484 36 345 36 L345 36 Z M232 141 L459 141 L459 198 L333 198 C334 199 335 200 335 201 C407 255 452 307 452 360 C452 421 398 447 339 447 C304 447 264 438 238 418 L238 362 C272 387 303 392 328 392 C354 392 377 379 377 351 C377 298 310 246 232 184 L232 141 Z " />
<glyph glyph-name="uni2782" unicode="&#x2782;" horiz-adv-x="691" d="M345 0 C506 0 637 130 637 291 C637 452 506 583 345 583 C184 583 54 452 54 291 C54 130 184 0 345 0 L345 0 Z M345 36 C206 36 94 152 94 291 C94 430 206 547 345 547 C484 547 597 430 597 291 C597 152 484 36 345 36 L345 36 Z M331 136 C401 136 459 166 459 232 C459 268 434 299 389 304 L389 307 C415 313 445 336 445 375 C445 421 400 447 342 447 C307 447 274 437 251 418 L251 362 C280 384 308 390 329 390 C354 390 373 379 373 358 C373 331 340 313 298 310 L298 270 C359 268 386 257 386 228 C386 205 367 190 335 190 C307 190 280 193 248 209 L248 152 C266 143 291 136 331 136 L331 136 Z " />
<glyph glyph-name="uni2783" unicode="&#x2783;" horiz-adv-x="691" d="M345 0 C506 0 637 130 637 291 C637 452 506 583 345 583 C184 583 54 452 54 291 C54 130 184 0 345 0 L345 0 Z M345 36 C206 36 94 152 94 291 C94 430 206 547 345 547 C484 547 597 430 597 291 C597 152 484 36 345 36 L345 36 Z M329 142 L406 142 L406 212 L448 212 L448 263 L406 263 L406 446 L334 446 L194 261 L194 212 L329 212 L329 142 Z M256 263 L329 362 L329 263 L256 263 Z " />
<glyph glyph-name="uni2784" unicode="&#x2784;" horiz-adv-x="691" d="M345 0 C506 0 637 130 637 291 C637 452 506 583 345 583 C184 583 54 452 54 291 C54 130 184 0 345 0 L345 0 Z M345 36 C206 36 94 152 94 291 C94 430 206 547 345 547 C484 547 597 430 597 291 C597 152 484 36 345 36 L345 36 Z M325 137 C380 137 451 163 451 237 C451 302 403 332 325 332 C323 332 314 332 312 331 L318 388 L444 388 L444 442 L265 442 L250 278 C265 281 282 282 297 282 C354 282 379 267 379 235 C379 208 357 190 325 190 C300 190 271 195 241 209 L241 152 C263 143 290 137 325 137 L325 137 Z " />
<glyph glyph-name="uni2785" unicode="&#x2785;" horiz-adv-x="691" d="M345 0 C506 0 637 130 637 291 C637 452 506 583 345 583 C184 583 54 452 54 291 C54 130 184 0 345 0 L345 0 Z M345 36 C206 36 94 152 94 291 C94 430 206 547 345 547 C484 547 597 430 597 291 C597 152 484 36 345 36 L345 36 Z M367 394 C387 394 407 391 436 378 L436 435 C412 443 384 447 364 447 C268 447 212 369 212 271 C212 191 251 137 332 137 C410 137 457 188 457 247 C457 309 413 337 356 337 C327 337 306 330 290 322 C299 371 320 394 367 394 L367 394 Z M335 289 C367 289 382 272 382 240 C382 209 366 188 335 188 C298 188 287 217 286 267 L286 278 C299 284 314 289 335 289 L335 289 Z " />
<glyph glyph-name="uni2786" unicode="&#x2786;" horiz-adv-x="691" d="M345 0 C506 0 637 130 637 291 C637 452 506 583 345 583 C184 583 54 452 54 291 C54 130 184 0 345 0 L345 0 Z M345 36 C206 36 94 152 94 291 C94 430 206 547 345 547 C484 547 597 430 597 291 C597 152 484 36 345 36 L345 36 Z M328 140 L457 405 L457 442 L241 442 L241 388 L384 388 L259 143 L260 140 L328 140 Z " />
<glyph glyph-name="uni2787" unicode="&#x2787;" horiz-adv-x="691" d="M345 0 C506 0 637 130 637 291 C637 452 506 583 345 583 C184 583 54 452 54 291 C54 130 184 0 345 0 L345 0 Z M345 36 C206 36 94 152 94 291 C94 430 206 547 345 547 C484 547 597 430 597 291 C597 152 484 36 345 36 L345 36 Z M464 225 C464 260 439 280 410 295 C437 313 457 341 457 371 C457 422 405 447 341 447 C279 447 229 410 229 362 C229 331 246 309 270 293 C240 275 220 246 220 218 C220 166 263 137 337 137 C403 137 464 174 464 225 L464 225 Z M389 361 C389 346 382 328 367 313 C331 327 298 339 298 365 C298 388 316 395 341 395 C374 395 389 381 389 361 L389 361 Z M288 227 C288 246 293 258 306 273 C347 254 389 243 389 218 C389 193 365 185 341 185 C312 185 288 197 288 227 L288 227 Z " />
<glyph glyph-name="uni2788" unicode="&#x2788;" horiz-adv-x="691" d="M345 0 C506 0 637 130 637 291 C637 452 506 583 345 583 C184 583 54 452 54 291 C54 130 184 0 345 0 L345 0 Z M345 36 C206 36 94 152 94 291 C94 430 206 547 345 547 C484 547 597 430 597 291 C597 152 484 36 345 36 L345 36 Z M314 189 C293 189 272 192 244 206 L244 149 C268 140 295 137 316 137 C413 137 468 212 468 313 C468 392 429 447 348 447 C270 447 224 396 224 336 C224 273 269 246 324 246 C351 246 373 252 390 260 C382 212 358 189 314 189 L314 189 Z M345 293 C313 293 297 309 297 343 C297 380 314 396 344 396 C381 396 394 367 394 316 L394 305 C381 298 365 293 345 293 L345 293 Z " />
<glyph glyph-name="uni278A" unicode="&#x278a;" horiz-adv-x="691" d="M345 0 C506 0 637 130 637 291 C637 452 506 583 345 583 C184 583 54 452 54 291 C54 130 184 0 345 0 L345 0 Z M305 142 L305 377 L236 367 L236 417 L338 446 L383 446 L383 142 L305 142 Z " />
<glyph glyph-name="uni278B" unicode="&#x278b;" horiz-adv-x="691" d="M345 0 C506 0 637 130 637 291 C637 452 506 583 345 583 C184 583 54 452 54 291 C54 130 184 0 345 0 L345 0 Z M232 184 C310 246 377 297 377 350 C377 378 354 391 328 391 C303 391 272 386 238 361 L238 417 C264 437 304 446 339 446 C398 446 452 421 452 359 C452 306 408 256 337 202 C336 201 335 198 334 198 L459 198 L459 140 L232 140 L232 184 Z " />
<glyph glyph-name="uni278C" unicode="&#x278c;" horiz-adv-x="691" d="M345 0 C506 0 637 130 637 291 C637 452 506 583 345 583 C184 583 54 452 54 291 C54 130 184 0 345 0 L345 0 Z M331 136 C291 136 266 143 248 152 L248 209 C280 193 307 190 335 190 C367 190 386 205 386 228 C386 257 359 268 298 270 L298 310 C340 313 373 331 373 358 C373 379 354 390 329 390 C308 390 280 384 251 362 L251 418 C274 437 307 447 342 447 C400 447 445 421 445 375 C445 336 415 313 389 307 L389 304 C434 299 459 268 459 232 C459 166 401 136 331 136 L331 136 Z " />
<glyph glyph-name="uni278D" unicode="&#x278d;" horiz-adv-x="691" d="M345 0 C506 0 637 130 637 291 C637 452 506 583 345 583 C184 583 54 452 54 291 C54 130 184 0 345 0 L345 0 Z M329 211 L194 211 L194 261 L334 445 L406 445 L406 262 L448 262 L448 211 L406 211 L406 141 L329 141 L329 211 Z M329 262 L329 361 L256 262 L329 262 Z " />
<glyph glyph-name="uni278E" unicode="&#x278e;" horiz-adv-x="691" d="M345 0 C506 0 637 130 637 291 C637 452 506 583 345 583 C184 583 54 452 54 291 C54 130 184 0 345 0 L345 0 Z M326 137 C291 137 263 144 241 152 L241 209 C271 195 300 190 326 190 C358 190 380 208 380 235 C380 267 354 282 297 282 C282 282 265 281 250 279 L265 443 L445 443 L445 389 L318 389 L312 332 L325 332 C403 332 452 302 452 237 C452 164 380 137 326 137 L326 137 Z " />
<glyph glyph-name="uni278F" unicode="&#x278f;" horiz-adv-x="691" d="M345 0 C506 0 637 130 637 291 C637 452 506 583 345 583 C184 583 54 452 54 291 C54 130 184 0 345 0 L345 0 Z M367 394 C320 394 299 370 290 322 C306 329 327 337 356 337 C413 337 457 308 457 247 C457 187 410 136 332 136 C251 136 212 191 212 270 C212 368 268 447 364 447 C384 447 412 443 436 434 L436 377 C407 391 387 394 367 394 L367 394 Z M335 289 C314 289 299 284 286 277 L286 268 C287 216 298 187 335 187 C366 187 382 208 382 240 C382 272 367 289 335 289 L335 289 Z " />
<glyph glyph-name="uni2790" unicode="&#x2790;" horiz-adv-x="691" d="M345 0 C506 0 637 130 637 291 C637 452 506 583 345 583 C184 583 54 452 54 291 C54 130 184 0 345 0 L345 0 Z M259 141 L258 144 L383 388 L240 388 L240 442 L455 442 L455 406 L327 141 L259 141 Z " />
<glyph glyph-name="uni2791" unicode="&#x2791;" horiz-adv-x="691" d="M345 0 C506 0 637 130 637 291 C637 452 506 583 345 583 C184 583 54 452 54 291 C54 130 184 0 345 0 L345 0 Z M463 225 C463 174 402 137 336 137 C262 137 219 166 219 218 C219 246 239 275 269 293 C245 309 228 331 228 362 C228 410 278 447 341 447 C404 447 456 422 456 371 C456 341 437 313 409 295 C438 280 463 260 463 225 L463 225 Z M388 361 C388 381 374 395 340 395 C315 395 298 388 298 365 C298 339 331 327 366 313 C381 328 388 346 388 361 L388 361 Z M287 227 C287 197 312 185 340 185 C364 185 389 193 389 218 C389 243 346 254 305 273 C292 258 287 246 287 227 L287 227 Z " />
<glyph glyph-name="uni2792" unicode="&#x2792;" horiz-adv-x="691" d="M345 0 C506 0 637 130 637 291 C637 452 506 583 345 583 C184 583 54 452 54 291 C54 130 184 0 345 0 L345 0 Z M314 189 C358 189 382 212 390 260 C373 252 352 246 324 246 C270 246 224 273 224 336 C224 396 270 447 348 447 C429 447 468 392 468 313 C468 212 413 137 317 137 C295 137 268 140 244 149 L244 206 C273 192 293 189 314 189 L314 189 Z M346 293 C366 293 382 298 394 305 L394 315 C394 367 381 396 345 396 C314 396 297 380 297 343 C297 309 314 293 346 293 L346 293 Z " />
<glyph glyph-name="uni301A" unicode="&#x301a;" horiz-adv-x="407" d="M71 -181 L367 -181 L367 -109 L299 -109 L299 606 L367 606 L367 679 L71 679 L71 -181 Z M157 606 L212 606 L212 -109 L157 -109 L157 606 Z " />
<glyph glyph-name="uni301B" unicode="&#x301b;" horiz-adv-x="407" d="M336 679 L40 679 L40 606 L108 606 L108 -109 L40 -109 L40 -181 L336 -181 L336 679 Z M250 606 L250 -109 L195 -109 L195 606 L250 606 Z " />
<glyph glyph-name="apple" unicode="&#xf8ff;" horiz-adv-x="1241" d="M390 318 L401 318 L401 328 L411 328 L411 338 L421 338 L421 347 L431 347 L431 388 L420 388 L420 348 L401 348 L401 388 L390 388 L390 347 L400 347 L400 329 L390 329 L390 318 Z M350 338 L371 338 L371 348 L351 348 L351 377 L371 377 L371 388 L351 388 L351 398 L340 398 L340 388 L330 388 L330 377 L340 377 L340 347 L350 347 L350 338 Z M590 338 L611 338 L611 348 L591 348 L591 377 L611 377 L611 388 L591 388 L591 398 L580 398 L580 388 L570 388 L570 377 L580 377 L580 347 L590 347 L590 338 Z M700 338 L731 338 L731 348 L701 348 L701 357 L731 357 L731 378 L721 378 L721 388 L700 388 L700 378 L690 378 L690 347 L700 347 L700 338 Z M880 338 L911 338 L911 348 L881 348 L881 357 L911 357 L911 378 L901 378 L901 388 L880 388 L880 378 L870 378 L870 347 L880 347 L880 338 Z M110 347 L121 347 L121 357 L131 357 L131 368 L121 368 L121 378 L110 378 L110 368 L100 368 L100 357 L110 357 L110 347 Z M180 347 L191 347 L191 357 L201 357 L201 368 L191 368 L191 378 L180 378 L180 368 L170 368 L170 357 L180 357 L180 347 Z M270 347 L281 347 L281 357 L291 357 L291 368 L281 368 L281 378 L270 378 L270 368 L260 368 L260 357 L270 357 L270 347 Z M520 338 L541 338 L541 347 L551 347 L551 378 L541 378 L541 388 L520 388 L520 378 L510 378 L510 347 L520 347 L520 338 Z M630 338 L641 338 L641 377 L660 377 L660 338 L671 338 L671 378 L661 378 L661 388 L641 388 L641 408 L630 408 L630 338 Z M960 347 L971 347 L971 357 L981 357 L981 368 L971 368 L971 378 L960 378 L960 368 L950 368 L950 357 L960 357 L960 347 Z M1050 347 L1061 347 L1061 357 L1071 357 L1071 368 L1061 368 L1061 378 L1050 378 L1050 368 L1040 368 L1040 357 L1050 357 L1050 347 Z M1120 347 L1131 347 L1131 357 L1141 357 L1141 368 L1131 368 L1131 378 L1120 378 L1120 368 L1110 368 L1110 357 L1120 357 L1120 347 Z M450 318 L461 318 L461 338 L481 338 L481 347 L491 347 L491 378 L481 378 L481 388 L450 388 L450 318 Z M780 318 L791 318 L791 388 L760 388 L760 378 L750 378 L750 347 L760 347 L760 338 L780 338 L780 318 Z M820 338 L851 338 L851 388 L840 388 L840 348 L821 348 L821 388 L810 388 L810 347 L820 347 L820 338 Z M240 328 L251 328 L251 338 L261 338 L261 348 L250 348 L250 338 L240 338 L240 328 Z M250 377 L261 377 L261 388 L251 388 L251 398 L240 398 L240 387 L250 387 L250 377 Z M300 328 L311 328 L311 338 L301 338 L301 348 L290 348 L290 338 L300 338 L300 328 Z M290 377 L301 377 L301 387 L311 387 L311 398 L300 398 L300 388 L290 388 L290 377 Z M930 328 L941 328 L941 338 L951 338 L951 348 L940 348 L940 338 L930 338 L930 328 Z M940 377 L951 377 L951 388 L941 388 L941 398 L930 398 L930 387 L940 387 L940 377 Z M990 328 L1001 328 L1001 338 L991 338 L991 348 L980 348 L980 338 L990 338 L990 328 Z M980 377 L991 377 L991 387 L1001 387 L1001 398 L990 398 L990 388 L980 388 L980 377 Z M160 338 L171 338 L171 348 L160 348 L160 338 Z M160 377 L171 377 L171 388 L160 388 L160 377 Z M200 338 L211 338 L211 348 L200 348 L200 338 Z M200 377 L211 377 L211 388 L200 388 L200 377 Z M461 348 L461 377 L480 377 L480 348 L461 348 Z M521 348 L521 377 L540 377 L540 348 L521 348 Z M701 368 L701 377 L720 377 L720 368 L701 368 Z M761 348 L761 377 L780 377 L780 348 L761 348 Z M881 368 L881 377 L900 377 L900 368 L881 368 Z M1030 338 L1041 338 L1041 348 L1030 348 L1030 338 Z M1030 377 L1041 377 L1041 388 L1030 388 L1030 377 Z M1070 338 L1081 338 L1081 348 L1070 348 L1070 338 Z M1070 377 L1081 377 L1081 388 L1070 388 L1070 377 Z " />
<glyph glyph-name="f_f" unicode="&#xfb00;" horiz-adv-x="622" d="M198 364 L389 364 L389 0 L496 0 L496 364 L602 364 L602 452 L496 452 L496 475 C496 545 529 572 580 572 C605 572 625 570 650 565 L650 654 C634 658 606 661 581 661 C456 661 389 598 389 481 L389 452 L198 452 L198 475 C198 545 225 572 276 572 C302 572 321 570 346 565 L346 654 C330 658 303 661 278 661 C153 661 90 598 90 481 L90 452 L23 452 L23 364 L90 364 L90 0 L198 0 L198 364 Z " />
<glyph glyph-name="fi" unicode="&#xfb01;" horiz-adv-x="560" d="M23 364 L90 364 L90 0 L198 0 L198 364 L390 364 L390 0 L498 0 L498 452 L198 452 L198 475 C198 545 231 572 282 572 C307 572 327 570 352 565 L352 654 C336 658 308 661 283 661 C158 661 90 598 90 481 L90 452 L23 452 L23 364 Z " />
<glyph glyph-name="fl" unicode="&#xfb02;" horiz-adv-x="570" d="M23 364 L90 364 L90 0 L198 0 L198 364 L298 364 L298 452 L198 452 L198 475 C198 545 231 572 282 572 C307 572 327 570 352 565 L352 654 C336 658 308 661 283 661 C158 661 90 598 90 481 L90 452 L23 452 L23 364 Z M396 0 L503 0 L503 653 L396 653 L396 0 Z " />
<glyph glyph-name="f_f_i" unicode="&#xfb03;" horiz-adv-x="859" d="M389 0 L496 0 L496 364 L689 364 L689 0 L796 0 L796 452 L496 452 L496 475 C496 545 529 572 581 572 C606 572 626 570 650 565 L650 654 C634 658 607 661 582 661 C457 661 389 598 389 481 L389 452 L198 452 L198 475 C198 545 225 572 276 572 C302 572 321 570 346 565 L346 654 C330 658 303 661 278 661 C153 661 90 598 90 481 L90 452 L23 452 L23 364 L90 364 L90 0 L198 0 L198 364 L389 364 L389 0 Z " />
<glyph glyph-name="f_f_l" unicode="&#xfb04;" horiz-adv-x="864" d="M389 0 L496 0 L496 364 L597 364 L597 452 L496 452 L496 475 C496 545 529 572 581 572 C606 572 626 570 650 565 L650 654 C634 658 607 661 582 661 C457 661 389 598 389 481 L389 452 L198 452 L198 475 C198 545 225 572 276 572 C302 572 321 570 346 565 L346 654 C330 658 303 661 278 661 C153 661 90 598 90 481 L90 452 L23 452 L23 364 L90 364 L90 0 L198 0 L198 364 L389 364 L389 0 Z M690 0 L797 0 L797 653 L690 653 L690 0 Z " />
</font>
</defs>
</svg>
