<svg xmlns="http://www.w3.org/2000/svg">
<defs>
<font id="Greta Sans Cnd Std Med Ita">
<font-face  font-family="Greta Sans Condensed Std" units-per-em="1000" ascent="710" descent="-290" font-style="italic" font-weight="500" font-stretch="condensed" slope="-3.51999" cap-height="583" x-height="452" underline-position="-75" underline-thickness="50" />

<glyph glyph-name="NULL" d="" />
<glyph glyph-name="CR" unicode="&#xd;" horiz-adv-x="250" d="" />
<glyph glyph-name="space" unicode="&#x20;" horiz-adv-x="178" d="" />
<glyph glyph-name="exclam" unicode="&#x21;" horiz-adv-x="188" d="M69 339 L55 206 L116 206 L148 339 L191 583 L111 583 L69 339 Z M9 1 L82 -7 L114 118 L33 119 L9 1 Z " />
<glyph glyph-name="quotedbl" unicode="&#x22;" horiz-adv-x="283" d="M78 431 L141 431 L189 642 L115 642 L78 431 Z M199 431 L262 431 L312 642 L236 642 L199 431 Z " />
<glyph glyph-name="numbersign" unicode="&#x23;" horiz-adv-x="420" d="M72 380 L142 380 L92 210 L21 210 L10 154 L75 154 L30 0 L88 0 L134 154 L214 154 L169 0 L228 0 L273 154 L350 154 L361 210 L290 210 L340 380 L414 380 L424 436 L357 436 L401 583 L342 583 L298 436 L218 436 L262 583 L203 583 L159 436 L83 436 L72 380 Z M201 380 L281 380 L231 210 L150 210 L201 380 Z " />
<glyph glyph-name="dollar" unicode="&#x24;" horiz-adv-x="335" d="M-1 16 C31 1 66 -7 101 -8 L90 -72 L139 -72 L151 -4 C226 10 288 66 288 188 C288 253 252 284 213 314 C174 341 139 366 139 412 C139 466 177 500 228 500 C264 500 298 490 324 471 L337 550 C317 562 288 571 252 573 L265 640 L216 640 L203 571 C126 559 61 496 61 395 C61 335 94 301 137 270 C178 242 212 218 212 169 C212 100 167 67 121 67 C79 67 39 80 13 97 L-1 16 Z " />
<glyph glyph-name="percent" unicode="&#x25;" horiz-adv-x="516" d="M130 284 C209 284 258 393 258 490 C258 554 228 591 180 591 C106 591 52 493 52 382 C52 317 83 284 130 284 L130 284 Z M139 334 C119 334 108 352 108 383 C108 454 141 540 172 540 C191 540 202 523 202 493 C202 426 171 334 139 334 L139 334 Z M343 364 L474 567 L476 583 L409 583 L290 364 L343 364 Z M206 231 L67 16 L64 0 L132 0 L258 231 L206 231 Z M347 -8 C427 -8 477 102 477 199 C477 263 445 300 398 300 C324 300 270 199 270 92 C270 27 302 -8 347 -8 L347 -8 Z M356 43 C336 43 326 61 326 91 C326 160 357 249 389 249 C409 249 419 232 419 203 C419 133 388 43 356 43 L356 43 Z " />
<glyph glyph-name="ampersand" unicode="&#x26;" horiz-adv-x="503" d="M493 305 L499 371 L492 375 C447 352 395 340 347 340 C331 340 317 341 303 344 C338 371 366 414 366 473 C366 534 323 591 240 591 C137 591 73 503 73 410 C73 372 89 332 114 307 C74 284 19 226 19 132 C19 41 84 -7 172 -7 C289 -7 377 96 409 277 C440 281 469 290 493 305 L493 305 Z M239 299 C262 285 297 277 333 274 C315 153 251 63 185 63 C137 63 102 87 102 153 C102 227 146 275 180 294 L181 328 C160 351 149 380 149 408 C149 478 184 525 231 525 C266 525 289 495 289 455 C289 401 266 358 234 332 L239 299 Z " />
<glyph glyph-name="quotesingle" unicode="&#x27;" horiz-adv-x="161" d="M78 431 L141 431 L190 642 L115 642 L78 431 Z " />
<glyph glyph-name="parenleft" unicode="&#x28;" horiz-adv-x="235" d="M145 -167 C128 -134 77 -35 81 99 C85 281 164 516 291 649 L215 649 C100 511 20 293 17 98 C13 -29 59 -135 78 -167 L145 -167 Z " />
<glyph glyph-name="parenright" unicode="&#x29;" horiz-adv-x="236" d="M87 649 C105 618 156 521 152 390 C148 194 61 -34 -62 -167 L15 -167 C130 -26 211 196 215 388 C218 515 172 618 154 649 L87 649 Z " />
<glyph glyph-name="asterisk" unicode="&#x2a;" horiz-adv-x="323" d="M81 521 L170 475 L66 433 L83 384 L178 452 L147 333 L200 333 L208 452 L283 383 L318 433 L222 477 L333 521 L316 569 L216 501 L252 622 L198 622 L190 501 L116 569 L81 521 Z " />
<glyph glyph-name="plus" unicode="&#x2b;" horiz-adv-x="334" d="M31 272 L142 272 L115 119 L172 119 L199 272 L308 272 L319 329 L209 329 L235 475 L178 475 L152 329 L42 329 L31 272 Z " />
<glyph glyph-name="comma" unicode="&#x2c;" horiz-adv-x="171" d="M5 -161 C45 -105 70 -39 85 25 C90 45 92 70 94 90 L19 94 C18 77 16 56 13 39 C-1 -27 -22 -81 -53 -135 L5 -161 Z " />
<glyph glyph-name="&amp;#x2d;" unicode="&#x2d;" horiz-adv-x="272" d="M37 212 L218 212 L231 276 L50 276 L37 212 Z " />
<glyph glyph-name="&amp;#xad;" unicode="&#xad;" horiz-adv-x="272" d="M37 212 L218 212 L231 276 L50 276 L37 212 Z " />
<glyph glyph-name="period" unicode="&#x2e;" horiz-adv-x="175" d="M1 -2 L74 -10 L108 118 L25 119 L1 -2 Z " />
<glyph glyph-name="slash" unicode="&#x2f;" horiz-adv-x="270" d="M-29 -89 L32 -89 L315 669 L254 669 L-29 -89 Z " />
<glyph glyph-name="zero" unicode="0" horiz-adv-x="390" d="M372 426 C372 527 343 589 251 589 C102 589 30 330 30 145 C30 47 63 -6 152 -6 C308 -6 372 265 372 426 L372 426 Z M162 66 C120 66 106 95 109 171 C115 327 165 518 240 518 C281 518 293 487 292 411 C290 275 243 66 162 66 L162 66 Z " />
<glyph glyph-name="one" unicode="1" horiz-adv-x="250" d="M147 0 L249 583 L197 583 L70 535 L57 466 L155 495 L70 0 L147 0 Z " />
<glyph glyph-name="two" unicode="2" horiz-adv-x="336" d="M275 71 L92 71 C199 180 327 383 327 487 C327 543 271 589 201 589 C155 589 114 582 81 558 L73 486 C102 506 137 515 165 515 C206 515 241 502 254 466 C231 362 127 191 9 65 L-1 0 L264 0 L275 71 Z " />
<glyph glyph-name="three" unicode="3" horiz-adv-x="330" d="M-5 14 C16 4 47 -5 93 -5 C192 -5 284 86 284 185 C284 240 235 287 195 308 L195 312 C249 351 327 427 327 490 C327 554 267 589 199 589 C156 589 114 578 84 560 L81 490 C110 505 140 513 169 513 C211 513 246 497 254 472 C235 421 165 338 113 315 L107 276 C151 254 195 220 213 174 C201 114 146 67 96 67 C67 67 41 72 11 86 L-5 14 Z " />
<glyph glyph-name="four" unicode="4" horiz-adv-x="360" d="M336 583 L256 583 L16 216 L5 156 L183 156 L156 0 L234 0 L260 156 L317 156 L329 223 L272 223 L336 583 Z M84 223 L234 458 L237 458 L195 223 L84 223 Z " />
<glyph glyph-name="five" unicode="5" horiz-adv-x="326" d="M1 13 C26 2 69 -7 107 -7 C202 -7 282 92 285 204 C287 286 248 343 205 361 C179 361 147 349 127 337 L166 510 L319 510 L333 583 L116 583 L48 275 L67 260 C96 276 130 290 165 296 C195 277 207 245 204 192 C201 112 151 64 106 64 C74 64 40 73 12 84 L1 13 Z " />
<glyph glyph-name="six" unicode="6" horiz-adv-x="355" d="M352 574 C321 587 298 589 270 589 C118 589 30 340 30 172 C30 61 71 -5 135 -5 C221 -5 319 119 319 219 C319 298 288 349 247 371 C213 371 164 349 122 317 C128 343 136 369 145 393 C171 466 211 521 260 521 C284 521 305 519 337 506 L352 574 Z M212 302 C231 280 242 250 242 218 C242 169 203 77 150 59 C120 70 102 122 102 175 C102 196 104 221 108 247 C144 278 185 300 212 302 L212 302 Z " />
<glyph glyph-name="seven" unicode="7" horiz-adv-x="304" d="M66 508 L248 508 L28 12 L31 0 L103 0 L339 550 L335 583 L78 583 L66 508 Z " />
<glyph glyph-name="eight" unicode="8" horiz-adv-x="366" d="M361 475 C361 536 311 589 237 589 C156 589 76 506 76 434 C76 399 107 350 142 300 C74 257 8 187 8 115 C8 62 51 -5 131 -5 C235 -5 313 66 313 155 C313 196 276 253 237 308 C300 349 361 418 361 475 L361 475 Z M244 127 C223 86 189 64 147 64 C116 64 87 89 75 127 C91 180 123 228 167 265 C206 212 242 161 244 127 L244 127 Z M144 470 C155 498 186 523 217 523 C251 523 281 503 288 465 C279 430 250 384 210 346 C175 395 145 440 144 470 L144 470 Z " />
<glyph glyph-name="nine" unicode="9" horiz-adv-x="356" d="M15 9 C46 -4 69 -6 97 -6 C249 -6 337 243 337 411 C337 522 296 588 232 588 C146 588 48 464 48 364 C48 285 79 234 120 212 C153 212 203 233 245 265 C238 239 231 214 222 190 C196 117 156 62 107 62 C83 62 62 64 30 77 L15 9 Z M155 281 C136 303 125 333 125 365 C125 414 164 506 217 524 C247 513 265 461 265 408 C265 387 263 362 259 335 C222 305 181 282 155 281 L155 281 Z " />
<glyph glyph-name="colon" unicode="&#x3a;" horiz-adv-x="180" d="M3 -2 L76 -10 L110 118 L27 119 L3 -2 Z M61 340 L134 332 L168 460 L85 461 L61 340 Z " />
<glyph glyph-name="semicolon" unicode="&#x3b;" horiz-adv-x="194" d="M12 -161 C52 -105 77 -39 92 25 C97 45 99 70 101 90 L26 94 C25 77 23 56 20 39 C6 -27 -15 -81 -46 -135 L12 -161 Z M76 340 L149 332 L183 460 L100 461 L76 340 Z " />
<glyph glyph-name="less" unicode="&#x3c;" horiz-adv-x="333" d="M257 69 L270 144 L94 294 L324 445 L337 521 L35 319 L26 271 L257 69 Z " />
<glyph glyph-name="equal" unicode="&#x3d;" horiz-adv-x="362" d="M32 177 L300 177 L312 238 L44 238 L32 177 Z M65 357 L331 357 L343 417 L76 417 L65 357 Z " />
<glyph glyph-name="greater" unicode="&#x3e;" horiz-adv-x="333" d="M313 271 L322 319 L90 521 L77 446 L253 296 L24 146 L10 69 L313 271 Z " />
<glyph glyph-name="question" unicode="&#x3f;" horiz-adv-x="253" d="M261 456 C261 518 203 579 101 596 L79 531 C130 519 172 499 196 459 C168 412 105 347 73 300 C63 289 59 278 59 268 C59 243 70 210 77 184 L132 192 L125 266 C129 276 189 337 194 346 C231 390 261 423 261 456 L261 456 Z M32 1 L105 -7 L138 118 L56 119 L32 1 Z " />
<glyph glyph-name="at" unicode="&#x40;" horiz-adv-x="657" d="M374 -9 C562 44 646 202 646 364 C646 529 548 642 408 642 C176 642 16 388 16 115 C16 -84 106 -203 265 -203 C347 -203 437 -177 499 -133 L502 -77 C436 -119 353 -146 284 -146 C150 -146 76 -58 76 118 C76 340 201 589 396 589 C523 589 588 493 588 362 C588 253 549 117 424 58 L415 65 L484 459 L420 459 L415 435 C389 450 364 458 344 458 C298 458 263 426 237 390 C199 337 172 211 167 98 C166 88 166 78 166 69 C166 41 168 16 173 -4 L242 -4 L361 136 L338 5 L374 -9 Z M236 80 C236 101 235 109 237 131 C241 237 269 349 311 399 C318 401 326 400 334 400 C354 400 378 391 405 375 L377 224 L250 77 L236 80 Z " />
<glyph glyph-name="A" unicode="A" horiz-adv-x="395" d="M-33 0 L51 0 L122 179 L247 179 L249 0 L335 0 L310 583 L219 583 L-33 0 Z M241 476 L245 476 L247 248 L150 248 L241 476 Z " />
<glyph glyph-name="B" unicode="B" horiz-adv-x="402" d="M12 0 L170 0 C290 0 363 93 363 199 C363 265 315 303 281 307 L281 309 C333 326 380 380 380 469 C380 542 336 583 246 583 L114 583 L12 0 Z M179 266 C241 266 276 250 276 193 C276 120 231 73 155 73 L109 73 L142 266 L179 266 Z M215 511 C257 511 291 505 291 452 C291 382 253 333 189 333 L154 333 L185 511 L215 511 Z " />
<glyph glyph-name="C" unicode="C" horiz-adv-x="385" d="M199 -6 C253 -6 300 10 321 21 L332 92 C303 77 265 68 230 68 C158 68 122 103 122 193 C122 357 194 515 315 515 C342 515 371 512 391 498 L404 572 C381 583 348 589 311 589 C129 589 34 378 34 181 C34 59 85 -6 199 -6 L199 -6 Z " />
<glyph glyph-name="D" unicode="D" horiz-adv-x="467" d="M12 0 L167 0 C326 0 446 183 446 391 C446 531 367 583 261 583 L114 583 L12 0 Z M229 510 C316 510 359 480 359 387 C359 235 286 74 162 74 L109 74 L185 510 L229 510 Z " />
<glyph glyph-name="E" unicode="E" horiz-adv-x="350" d="M12 0 L276 0 L288 74 L109 74 L142 264 L290 264 L302 335 L154 335 L185 510 L362 510 L375 583 L113 583 L12 0 Z " />
<glyph glyph-name="F" unicode="F" horiz-adv-x="332" d="M12 0 L96 0 L138 241 L282 241 L294 312 L150 312 L185 510 L358 510 L370 583 L113 583 L12 0 Z " />
<glyph glyph-name="G" unicode="G" horiz-adv-x="434" d="M215 -6 C273 -6 321 10 353 26 L402 301 L319 301 L279 75 C259 69 238 67 224 67 C157 67 118 99 118 192 C118 338 196 511 329 514 C370 515 404 503 428 488 L442 565 C412 582 371 589 330 589 C138 589 31 371 31 185 C31 61 89 -6 215 -6 L215 -6 Z " />
<glyph glyph-name="H" unicode="H" horiz-adv-x="467" d="M283 0 L367 0 L469 583 L384 583 L341 336 L155 336 L198 583 L114 583 L12 0 L96 0 L142 263 L328 263 L283 0 Z " />
<glyph glyph-name="I" unicode="I" horiz-adv-x="197" d="M12 0 L96 0 L198 583 L114 583 L12 0 Z " />
<glyph glyph-name="J" unicode="J" horiz-adv-x="206" d="M-3 -91 C73 0 124 89 140 179 L211 583 L126 583 L56 178 C41 91 -13 16 -66 -59 L-3 -91 Z " />
<glyph glyph-name="K" unicode="K" horiz-adv-x="394" d="M245 0 L336 0 L246 311 L439 583 L346 583 L161 312 L159 296 L245 0 Z M12 0 L96 0 L198 583 L114 583 L12 0 Z " />
<glyph glyph-name="L" unicode="L" horiz-adv-x="324" d="M12 0 L270 0 L282 74 L109 74 L198 583 L113 583 L12 0 Z " />
<glyph glyph-name="M" unicode="M" horiz-adv-x="570" d="M-8 0 L68 0 L167 420 L171 420 L198 0 L273 0 L449 412 L453 412 L404 0 L488 0 L552 583 L451 583 L266 141 L262 141 L235 583 L133 583 L-8 0 Z " />
<glyph glyph-name="N" unicode="N" horiz-adv-x="472" d="M12 0 L94 0 L162 389 L164 389 L300 0 L371 0 L474 583 L391 583 L324 200 L321 200 L185 583 L114 583 L12 0 Z " />
<glyph glyph-name="O" unicode="O" horiz-adv-x="478" d="M193 -6 C368 -6 462 235 462 405 C462 519 411 589 300 589 C117 589 28 342 28 175 C28 62 85 -6 193 -6 L193 -6 Z M205 66 C146 66 114 100 114 174 C114 296 179 517 286 517 C344 517 377 487 377 413 C377 286 307 66 205 66 L205 66 Z " />
<glyph glyph-name="P" unicode="P" horiz-adv-x="384" d="M12 0 L97 0 L132 204 L171 204 C314 204 391 320 391 457 C391 537 336 583 254 583 L114 583 L12 0 Z M227 511 C279 511 304 490 304 439 C304 340 248 276 175 276 L145 276 L185 511 L227 511 Z " />
<glyph glyph-name="Q" unicode="Q" horiz-adv-x="478" d="M193 -6 C204 -6 216 -4 227 -2 L288 -110 L369 -110 L372 -95 L285 19 C401 85 462 268 462 405 C462 519 411 589 300 589 C117 589 28 342 28 175 C28 62 85 -6 193 -6 L193 -6 Z M205 66 C146 66 114 100 114 174 C114 296 179 517 286 517 C344 517 377 487 377 413 C377 286 307 66 205 66 L205 66 Z " />
<glyph glyph-name="R" unicode="R" horiz-adv-x="398" d="M12 0 L96 0 L134 221 L170 221 C178 221 186 221 194 222 L251 0 L342 0 L271 246 C342 285 389 363 389 458 C389 535 341 583 252 583 L113 583 L12 0 Z M224 511 C277 511 302 493 302 445 C302 372 264 291 173 291 L147 291 L185 511 L224 511 Z " />
<glyph glyph-name="S" unicode="S" horiz-adv-x="342" d="M-10 19 C26 3 65 -6 105 -6 C213 -6 305 49 305 186 C305 259 253 292 209 326 C177 351 148 378 148 420 C148 481 190 516 245 516 C283 516 311 506 335 491 L351 565 C325 580 287 589 241 589 C144 589 65 521 65 408 C65 341 105 305 144 275 C183 243 224 218 224 167 C224 98 169 67 120 67 C79 67 45 75 8 94 L-10 19 Z " />
<glyph glyph-name="T" unicode="T" horiz-adv-x="376" d="M57 510 L192 510 L103 0 L188 0 L277 510 L411 510 L423 583 L69 583 L57 510 Z " />
<glyph glyph-name="U" unicode="U" horiz-adv-x="455" d="M184 -6 C280 -6 367 49 399 227 L462 583 L380 583 L316 221 C296 109 254 67 196 67 C150 67 123 88 123 150 C123 167 125 187 129 210 L194 583 L111 583 L43 203 C39 179 37 157 37 138 C37 27 104 -6 184 -6 L184 -6 Z " />
<glyph glyph-name="V" unicode="V" horiz-adv-x="411" d="M457 583 L370 583 L180 119 L176 119 L157 583 L70 583 L111 0 L199 0 L457 583 Z " />
<glyph glyph-name="W" unicode="W" horiz-adv-x="644" d="M687 583 L600 583 L431 134 L428 134 L427 583 L334 583 L162 129 L159 129 L167 583 L77 583 L84 0 L181 0 L351 443 L354 443 L359 0 L454 0 L687 583 Z " />
<glyph glyph-name="X" unicode="X" horiz-adv-x="392" d="M80 583 L152 298 L-36 0 L58 0 L192 234 L239 0 L331 0 L255 297 L438 583 L346 583 L215 359 L167 583 L80 583 Z " />
<glyph glyph-name="Y" unicode="Y" horiz-adv-x="386" d="M435 583 L352 583 L202 294 L199 294 L150 583 L63 583 L141 214 L103 0 L188 0 L222 198 L435 583 Z " />
<glyph glyph-name="Z" unicode="Z" horiz-adv-x="355" d="M283 0 L295 74 L101 74 L394 580 L393 583 L85 583 L73 510 L261 510 L-28 3 L-27 0 L283 0 Z " />
<glyph glyph-name="bracketleft" unicode="&#x5b;" horiz-adv-x="199" d="M-26 -188 L92 -188 L101 -131 L49 -131 L181 615 L234 615 L243 673 L126 673 L-26 -188 Z " />
<glyph glyph-name="backslash" unicode="&#x5c;" horiz-adv-x="497" d="M159 669 L98 669 L350 -89 L412 -89 L159 669 Z " />
<glyph glyph-name="bracketright" unicode="&#x5d;" horiz-adv-x="200" d="M220 673 L102 673 L92 615 L145 615 L14 -131 L-40 -131 L-49 -188 L68 -188 L220 673 Z " />
<glyph glyph-name="asciicircum" unicode="&#x5e;" horiz-adv-x="333" d="M32 239 L105 239 L227 509 L243 239 L319 239 L291 583 L188 583 L32 239 Z " />
<glyph glyph-name="underscore" unicode="&#x5f;" horiz-adv-x="491" d="M7 -141 L348 -141 L356 -78 L14 -78 L7 -141 Z " />
<glyph glyph-name="grave" unicode="&#x60;" horiz-adv-x="272" d="M299 527 L214 678 L136 678 L239 527 L299 527 Z " />
<glyph glyph-name="a" unicode="a" horiz-adv-x="355" d="M264 0 L343 456 L268 456 L263 430 C237 447 209 458 187 458 C138 458 103 421 80 385 C37 310 15 164 15 64 C15 42 17 17 18 0 L97 0 L213 142 L188 0 L264 0 Z M95 92 L95 130 C96 207 125 338 163 394 C169 394 175 393 182 393 C203 389 226 380 252 363 L229 233 L105 88 L95 92 Z " />
<glyph glyph-name="b" unicode="b" horiz-adv-x="353" d="M5 25 C36 8 84 -6 129 -6 C250 -6 326 158 326 317 C326 394 310 456 252 456 C218 456 178 424 143 387 L190 653 L115 653 L5 25 Z M217 382 L233 382 C241 361 247 330 247 285 C246 169 189 61 145 61 C124 61 105 66 88 73 L130 309 C161 346 196 373 217 382 L217 382 Z " />
<glyph glyph-name="c" unicode="c" horiz-adv-x="296" d="M218 161 C179 119 144 86 112 70 L101 75 C97 92 97 110 96 129 C96 220 119 329 161 385 C168 386 176 387 184 387 C213 387 248 376 271 363 L296 433 C273 446 228 456 197 456 C149 456 112 429 86 391 C31 321 16 179 16 83 C16 55 19 27 27 4 L99 -6 C168 25 229 85 255 122 L218 161 Z " />
<glyph glyph-name="d" unicode="d" horiz-adv-x="355" d="M264 0 L378 653 L302 653 L263 429 C237 446 209 456 187 456 C138 456 103 419 80 384 C37 309 15 164 15 64 C15 42 17 17 18 0 L97 0 L213 142 L188 0 L264 0 Z M95 92 L95 130 C96 207 125 336 163 392 C170 392 176 392 182 391 C203 388 225 378 251 362 L229 232 L105 88 L95 92 Z " />
<glyph glyph-name="e" unicode="e" horiz-adv-x="322" d="M273 112 L245 157 C198 117 147 86 110 71 L99 76 C96 93 94 113 95 132 C95 147 95 163 96 179 C164 214 264 271 306 313 L311 414 C278 444 239 456 201 456 C139 456 92 405 65 351 C32 276 15 185 15 90 C15 60 18 29 27 3 L94 -6 C163 23 237 77 273 112 L273 112 Z M163 391 C168 392 174 392 179 392 C200 392 225 384 238 372 L235 329 C201 293 146 263 104 239 C115 302 135 359 163 391 L163 391 Z " />
<glyph glyph-name="f" unicode="f" horiz-adv-x="226" d="M41 390 L93 390 L24 -7 C9 -90 -12 -128 -25 -148 C-50 -152 -73 -143 -92 -134 L-109 -199 C-87 -209 -57 -213 -33 -213 C33 -213 81 -109 98 -9 L167 390 L236 390 L247 451 L177 451 L183 481 C192 537 205 563 226 590 C234 592 243 592 252 592 C270 591 287 588 303 580 L321 648 C300 655 280 658 260 658 C245 658 226 654 212 648 C164 628 127 579 111 490 L104 451 L52 451 L41 390 Z " />
<glyph glyph-name="g" unicode="g" horiz-adv-x="354" d="M89 -213 C133 -213 164 -202 184 -182 C225 -144 251 -67 264 5 L342 455 L268 455 L263 428 C237 445 209 456 187 456 C138 456 103 419 80 384 C37 309 15 164 15 64 C15 42 17 17 18 0 L97 0 L213 143 L201 71 C180 -47 162 -111 144 -133 C126 -141 109 -143 91 -143 C55 -143 24 -134 -6 -119 L-22 -191 C10 -205 55 -213 89 -213 L89 -213 Z M95 92 L95 130 C96 207 125 336 163 392 C169 392 175 392 181 391 C203 388 226 378 252 362 L229 233 L105 88 L95 92 Z " />
<glyph glyph-name="h" unicode="h" horiz-adv-x="368" d="M76 0 L124 277 C171 335 222 370 243 379 L257 374 C260 351 258 317 244 236 L205 0 L279 0 L324 260 C332 309 337 348 337 377 C337 433 321 456 287 456 C245 456 190 420 139 362 L190 653 L116 653 L2 0 L76 0 Z " />
<glyph glyph-name="i" unicode="i" horiz-adv-x="169" d="M77 0 L155 451 L81 451 L2 0 L77 0 Z M171 549 L197 663 L118 665 L101 567 L171 549 Z " />
<glyph glyph-name="j" unicode="j" horiz-adv-x="168" d="M1 -8 C-8 -60 -36 -113 -78 -177 L-25 -210 C31 -143 64 -72 77 0 L155 451 L81 451 L1 -8 Z M171 549 L197 663 L118 665 L101 567 L171 549 Z " />
<glyph glyph-name="k" unicode="k" horiz-adv-x="348" d="M77 0 L124 274 C164 324 217 373 243 388 L257 382 C249 320 228 265 178 203 L173 180 L198 0 L280 0 L251 192 C304 261 329 325 336 407 C337 418 337 433 337 444 L248 458 C223 444 178 409 140 364 L190 653 L116 653 L2 0 L77 0 Z " />
<glyph glyph-name="l" unicode="l" horiz-adv-x="175" d="M81 0 L194 653 L119 653 L6 0 L81 0 Z " />
<glyph glyph-name="m" unicode="m" horiz-adv-x="543" d="M381 0 L455 0 L499 260 C507 304 512 341 512 371 C512 427 496 456 462 456 C420 456 371 422 324 363 C325 424 310 456 275 456 C234 456 187 424 141 369 L155 451 L81 451 L3 0 L77 0 L126 283 C169 339 211 371 233 379 L245 373 C248 350 247 317 233 236 L193 0 L268 0 L312 260 L316 287 C359 341 399 371 420 379 L432 373 C436 350 434 317 420 236 L381 0 Z " />
<glyph glyph-name="n" unicode="n" horiz-adv-x="369" d="M77 0 L125 278 C172 335 222 370 244 379 L258 374 C261 351 259 317 245 236 L206 0 L280 0 L325 260 C333 310 338 349 338 379 C338 434 323 456 289 456 C247 456 191 419 139 360 L155 451 L81 451 L3 0 L77 0 Z " />
<glyph glyph-name="o" unicode="o" horiz-adv-x="348" d="M147 56 C131 57 113 63 105 72 C97 92 93 115 93 140 C93 229 132 363 184 395 C203 393 223 386 233 380 C242 359 246 335 245 308 C244 219 207 111 147 56 L147 56 Z M121 -5 C181 -5 230 37 263 92 C301 156 322 239 323 299 C325 411 283 456 217 456 C153 456 103 415 70 357 C33 291 17 211 16 143 C15 46 55 -5 121 -5 L121 -5 Z " />
<glyph glyph-name="p" unicode="p" horiz-adv-x="372" d="M59 -207 L95 3 C114 -3 136 -6 155 -6 C273 -6 345 167 345 316 C345 393 320 456 271 456 C250 456 210 440 166 418 L172 451 L98 451 L84 372 C58 355 34 338 18 323 L31 274 L72 304 L-17 -207 L59 -207 Z M234 386 L246 385 C256 367 266 338 266 294 C265 184 217 61 163 61 C146 61 128 64 107 72 L155 353 C183 367 210 379 234 386 L234 386 Z " />
<glyph glyph-name="q" unicode="q" horiz-adv-x="354" d="M227 -207 L342 455 L268 455 L263 428 C237 445 209 456 187 456 C138 456 103 418 80 383 C37 309 15 164 15 64 C15 42 17 17 18 0 L97 0 L212 142 L151 -207 L227 -207 Z M95 92 L95 130 C96 207 125 335 163 391 C170 392 176 392 182 390 C203 388 225 378 251 362 L228 232 L105 88 L95 92 Z " />
<glyph glyph-name="r" unicode="r" horiz-adv-x="266" d="M77 0 L123 267 C159 320 195 358 216 374 L254 344 L288 421 C278 438 259 456 240 456 C218 456 177 415 138 356 L155 451 L81 451 L3 0 L77 0 Z " />
<glyph glyph-name="s" unicode="s" horiz-adv-x="273" d="M267 440 C242 452 215 456 184 456 C97 456 42 386 42 324 C42 275 64 245 94 211 C122 179 142 149 152 112 C154 103 155 95 155 85 C142 70 114 62 88 62 C64 62 28 71 2 84 L-12 15 C14 3 41 -5 83 -5 C127 -5 164 11 188 35 C212 60 225 92 225 125 C225 175 192 211 162 247 C136 276 117 308 116 341 C116 353 118 364 123 377 C139 385 161 389 181 388 C205 388 230 381 253 370 L267 440 Z " />
<glyph glyph-name="t" unicode="t" horiz-adv-x="259" d="M40 390 L88 390 L22 12 L88 -7 C139 17 207 73 232 103 L208 150 C184 122 150 95 120 81 L111 87 L163 390 L250 390 L260 451 L173 451 L194 572 L120 572 L98 451 L50 451 L40 390 Z " />
<glyph glyph-name="u" unicode="u" horiz-adv-x="364" d="M276 451 L228 173 C183 116 130 82 109 74 L97 79 C97 104 100 137 114 217 L153 451 L78 451 L33 184 C24 136 19 97 19 67 C19 18 33 -6 63 -6 C106 -6 165 33 213 87 L198 0 L272 0 L351 451 L276 451 Z " />
<glyph glyph-name="v" unicode="v" horiz-adv-x="332" d="M272 451 L140 85 L134 85 C123 142 118 191 119 239 C119 311 124 381 135 451 L58 451 C47 391 43 332 43 273 C43 180 61 76 78 0 L178 0 L350 451 L272 451 Z " />
<glyph glyph-name="w" unicode="w" horiz-adv-x="532" d="M471 451 L340 85 L333 85 C323 142 318 191 318 239 C319 312 323 380 335 451 L257 451 C251 414 247 378 245 342 L139 85 L133 85 C123 142 118 191 119 239 C119 312 124 380 135 451 L58 451 C47 391 43 333 43 274 C43 181 61 77 78 0 L160 0 L246 207 C252 134 266 59 280 0 L378 0 L550 451 L471 451 Z " />
<glyph glyph-name="x" unicode="x" horiz-adv-x="328" d="M271 451 L172 281 L137 451 L56 451 L105 226 L-34 0 L49 0 L143 169 L176 0 L258 0 L209 222 L354 451 L271 451 Z " />
<glyph glyph-name="y" unicode="y" horiz-adv-x="333" d="M110 -207 L211 71 L351 451 L273 451 L141 85 L135 85 C124 137 119 195 119 239 C120 312 124 380 136 451 L59 451 C49 390 44 330 44 269 C44 178 60 75 77 0 L106 0 L27 -192 L29 -207 L110 -207 Z " />
<glyph glyph-name="z" unicode="z" horiz-adv-x="284" d="M52 385 L194 385 L-15 46 L-17 0 L216 0 L225 67 L77 67 L287 407 L290 451 L61 451 L52 385 Z " />
<glyph glyph-name="braceleft" unicode="&#x7b;" horiz-adv-x="227" d="M108 -179 L124 -178 L133 -125 L117 -125 C81 -125 65 -116 65 -86 C65 -73 68 -57 73 -36 L117 144 C121 160 123 174 123 188 C123 219 112 244 90 253 C127 266 150 302 156 366 L176 543 C183 613 201 628 249 628 L266 628 L276 681 L252 682 C181 683 127 657 114 550 L92 356 C88 311 69 280 31 280 L22 229 C50 229 61 210 61 183 C61 173 60 163 57 152 L11 -38 C5 -59 3 -78 3 -94 C3 -161 49 -181 108 -179 L108 -179 Z " />
<glyph glyph-name="bar" unicode="&#x7c;" horiz-adv-x="172" d="M-8 -92 L57 -92 L193 675 L128 675 L-8 -92 Z " />
<glyph glyph-name="braceright" unicode="&#x7d;" horiz-adv-x="227" d="M116 680 L100 679 L91 626 L107 626 C143 626 159 617 159 587 C159 574 156 558 151 537 L107 357 C103 341 101 327 101 313 C101 282 112 257 134 248 C97 235 74 199 68 135 L48 -42 C41 -112 23 -127 -25 -127 L-42 -127 L-52 -180 L-28 -181 C43 -182 97 -156 110 -49 L132 145 C136 190 155 221 193 221 L202 272 C174 272 163 291 163 318 C163 328 164 338 167 349 L213 539 C219 560 221 579 221 595 C221 662 175 682 116 680 L116 680 Z " />
<glyph glyph-name="asciitilde" unicode="&#x7e;" horiz-adv-x="379" d="M251 240 C290 240 327 266 349 295 L325 342 C306 321 284 310 266 310 C217 312 198 347 142 347 C101 347 64 318 45 292 L64 246 C82 262 105 277 130 277 C174 277 201 240 251 240 L251 240 Z " />
<glyph glyph-name="uni00A0" unicode="&#xa0;" horiz-adv-x="178" d="" />
<glyph glyph-name="exclamdown" unicode="&#xa1;" horiz-adv-x="179" d="M104 113 L118 246 L57 246 L25 113 L-18 -131 L62 -131 L104 113 Z M164 451 L91 459 L59 334 L140 333 L164 451 Z " />
<glyph glyph-name="cent" unicode="&#xa2;" horiz-adv-x="306" d="M221 161 C182 119 147 86 115 70 L104 75 C100 92 100 110 99 129 C99 220 122 329 164 385 C171 386 179 387 187 387 C216 387 251 376 274 363 L299 433 C284 441 260 448 236 452 L252 540 L203 540 L188 455 C146 451 113 425 89 391 C34 321 19 179 19 83 C19 55 22 27 30 4 L102 -6 L108 -3 L95 -75 L144 -75 L162 29 C205 59 240 96 258 122 L221 161 Z " />
<glyph glyph-name="sterling" unicode="&#xa3;" horiz-adv-x="346" d="M152 172 C156 195 158 222 160 251 L262 251 L273 316 L164 316 C166 357 168 396 173 424 C184 486 217 516 259 516 C292 516 314 507 337 486 L351 566 C327 580 297 589 254 589 C191 589 116 546 95 426 C89 393 86 354 84 316 L46 316 L35 251 L81 251 C79 215 76 182 72 158 C67 126 57 100 42 70 L7 70 L-4 0 L271 0 L282 70 L120 70 C134 103 145 137 152 172 L152 172 Z " />
<glyph glyph-name="currency" unicode="&#xa4;" horiz-adv-x="393" d="M104 469 L66 438 L114 369 C84 328 67 261 67 216 C67 196 70 174 77 159 L5 92 L31 60 L100 124 C117 106 139 95 167 95 C196 95 222 107 246 123 L293 58 L328 91 L282 158 C314 201 330 272 330 318 C330 337 327 356 320 368 L390 437 L364 470 L296 405 C279 425 256 435 229 435 C200 435 173 422 148 404 L104 469 Z M218 377 C256 377 270 346 270 310 C270 232 235 152 178 152 C139 152 124 185 126 228 C128 292 167 377 218 377 L218 377 Z " />
<glyph glyph-name="yen" unicode="&#xa5;" horiz-adv-x="420" d="M354 178 L235 178 L239 197 L267 248 L366 248 L376 309 L301 309 L453 583 L369 583 L218 290 L215 290 L167 583 L80 583 L138 309 L61 309 L51 248 L151 248 L158 215 L151 178 L38 178 L28 116 L140 116 L120 0 L205 0 L225 116 L343 116 L354 178 Z " />
<glyph glyph-name="brokenbar" unicode="&#xa6;" horiz-adv-x="178" d="M-8 -92 L63 -92 L116 207 L46 207 L-8 -92 Z M77 381 L146 381 L199 675 L129 675 L77 381 Z " />
<glyph glyph-name="section" unicode="&#xa7;" horiz-adv-x="368" d="M96 -108 C220 -108 312 4 312 135 C312 183 290 235 260 282 L150 465 C179 503 221 526 263 526 C298 526 333 517 365 499 L378 571 C357 581 324 591 271 591 C144 591 52 481 52 348 C52 290 78 236 108 189 L213 17 C184 -20 141 -42 100 -42 C65 -42 31 -32 -3 -17 L-16 -87 C9 -98 48 -108 96 -108 L96 -108 Z M116 356 C116 370 118 383 120 396 L201 254 C227 209 248 169 248 125 C248 110 246 96 243 83 L163 225 C138 268 116 306 116 356 L116 356 Z " />
<glyph glyph-name="dieresis" unicode="&#xa8;" horiz-adv-x="343" d="M134 562 L197 546 L223 647 L152 649 L134 562 Z M275 562 L339 546 L365 647 L293 649 L275 562 Z " />
<glyph glyph-name="copyright" unicode="&#xa9;" horiz-adv-x="505" d="M258 -10 C382 -10 472 118 472 289 C472 460 383 590 258 590 C137 590 45 460 45 289 C45 118 134 -10 258 -10 L258 -10 Z M258 20 C158 20 77 132 77 289 C77 447 157 560 258 560 C358 560 440 448 440 289 C440 134 362 20 258 20 L258 20 Z M267 110 C297 110 327 119 340 130 L340 183 C317 167 297 162 273 162 C222 162 196 205 196 291 C196 368 220 419 269 419 C293 419 314 414 340 398 L340 455 C326 463 303 472 267 472 C183 472 138 392 138 287 C138 161 190 110 267 110 L267 110 Z " />
<glyph glyph-name="ordfeminine" unicode="&#xaa;" horiz-adv-x="316" d="M273 390 L330 704 L272 704 L269 687 C249 698 228 705 212 705 C177 705 150 678 135 654 C109 612 91 525 87 451 C86 428 87 407 89 390 L152 390 L232 483 L215 390 L273 390 Z M147 451 C148 464 148 476 150 492 C154 555 173 624 198 657 C217 659 236 653 260 638 L244 550 L154 449 L147 451 Z M63 292 L279 292 L288 342 L71 342 L63 292 Z " />
<glyph glyph-name="guillemotleft" unicode="&#xab;" horiz-adv-x="336" d="M65 46 L136 46 L113 226 L196 405 L128 405 L26 226 L65 46 Z M192 46 L263 46 L240 226 L323 405 L255 405 L153 226 L192 46 Z " />
<glyph glyph-name="logicalnot" unicode="&#xac;" horiz-adv-x="370" d="M235 135 L300 135 L334 326 L56 326 L45 262 L257 262 L235 135 Z " />
<glyph glyph-name="registered" unicode="&#xae;" horiz-adv-x="340" d="M203 266 C279 266 335 344 335 454 C335 564 280 644 203 644 C128 644 71 563 71 454 C71 344 127 266 203 266 L203 266 Z M203 290 C140 290 96 358 96 454 C96 550 138 619 203 619 C267 619 310 550 310 454 C310 354 267 290 203 290 L203 290 Z M150 358 L183 358 L183 426 L208 426 L234 358 L271 358 L238 438 C253 450 261 469 261 494 C261 539 241 560 209 560 L150 560 L150 358 Z M197 529 C218 529 228 520 228 494 C228 461 213 456 193 456 L183 456 L183 529 L197 529 Z " />
<glyph glyph-name="macron" unicode="&#xaf;" horiz-adv-x="337" d="M125 571 L330 571 L341 634 L137 634 L125 571 Z " />
<glyph glyph-name="degree" unicode="&#xb0;" horiz-adv-x="271" d="M151 341 C226 341 277 418 277 504 C277 552 251 592 196 592 C119 592 67 514 67 428 C67 378 93 341 151 341 L151 341 Z M159 394 C137 394 127 407 128 437 C128 497 156 538 186 538 C209 538 216 523 216 495 C215 435 190 394 159 394 L159 394 Z " />
<glyph glyph-name="plusminus" unicode="&#xb1;" horiz-adv-x="354" d="M55 302 L159 302 L134 159 L190 159 L215 302 L320 302 L330 360 L226 360 L251 498 L194 498 L169 360 L66 360 L55 302 Z M6 36 L273 36 L284 98 L17 98 L6 36 Z " />
<glyph glyph-name="twosuperior" unicode="&#xb2;" horiz-adv-x="198" d="M209 400 L215 445 L109 445 C171 505 244 595 244 654 C244 691 211 716 167 716 C143 716 116 709 91 696 L86 650 C104 662 125 667 140 667 C165 667 179 654 185 639 C172 583 121 511 51 442 L45 400 L209 400 Z " />
<glyph glyph-name="threesuperior" unicode="&#xb3;" horiz-adv-x="196" d="M44 408 C55 402 78 395 105 395 C166 395 220 436 222 491 C223 525 189 554 166 565 L166 568 C193 581 240 619 241 655 C242 695 205 716 165 716 C139 716 112 709 94 698 L91 652 C108 661 125 667 142 667 C167 667 179 659 184 640 C172 616 143 584 113 571 L109 548 C136 536 156 511 165 486 C158 452 131 442 103 442 C87 442 71 445 53 453 L44 408 Z " />
<glyph glyph-name="acute" unicode="&#xb4;" horiz-adv-x="272" d="M203 527 L306 678 L228 678 L143 527 L203 527 Z " />
<glyph glyph-name="mu" unicode="&#xb5;" horiz-adv-x="399" d="M-28 -207 L47 -207 L85 2 C94 0 102 -1 112 2 C148 11 190 52 222 94 C221 87 218 65 218 58 C216 9 238 -7 275 -7 C293 -7 311 -3 331 6 L340 60 C329 58 319 57 313 57 C297 57 293 72 299 106 L359 451 L285 451 L236 165 C190 109 138 79 117 71 L105 77 C104 103 108 137 121 217 L161 451 L87 451 C72 365 -28 -207 -28 -207 L-28 -207 Z " />
<glyph glyph-name="paragraph" unicode="&#xb6;" horiz-adv-x="450" d="M123 -207 L193 -207 L320 513 L368 513 L242 -207 L312 -207 L451 583 L265 583 C141 583 38 481 38 316 C38 217 101 166 188 164 L123 -207 Z " />
<glyph glyph-name="periodcentered" unicode="&#xb7;" horiz-adv-x="173" d="M48 264 L118 246 L145 356 L66 358 L48 264 Z " />
<glyph glyph-name="cedilla" unicode="&#xb8;" horiz-adv-x="290" d="M80 -213 C149 -213 183 -166 183 -111 C183 -78 161 -49 129 -42 L152 16 L107 16 L74 -56 L74 -73 C109 -76 122 -94 122 -117 C122 -136 109 -159 78 -159 C63 -159 42 -153 29 -144 L18 -198 C33 -207 59 -213 80 -213 L80 -213 Z " />
<glyph glyph-name="onesuperior" unicode="&#xb9;" horiz-adv-x="149" d="M139 400 L197 713 L153 713 L80 686 L72 640 L130 656 L82 400 L139 400 Z " />
<glyph glyph-name="ordmasculine" unicode="&#xba;" horiz-adv-x="321" d="M56 292 L282 292 L290 342 L65 342 L56 292 Z M194 428 C182 429 171 434 166 439 C159 460 157 478 159 507 C163 573 187 639 221 662 C234 661 246 656 254 652 C261 635 264 615 262 587 C258 520 230 458 194 428 L194 428 Z M174 385 C218 385 259 413 282 450 C305 489 319 535 322 583 C328 672 296 705 245 705 C195 705 158 676 135 636 C114 597 102 551 98 499 C94 424 124 385 174 385 L174 385 Z " />
<glyph glyph-name="guillemotright" unicode="&#xbb;" horiz-adv-x="337" d="M132 408 L61 408 L84 228 L1 49 L69 49 L171 228 L132 408 Z M262 408 L191 408 L214 228 L131 49 L199 49 L301 228 L262 408 Z " />
<glyph glyph-name="onequarter" unicode="&#xbc;" horiz-adv-x="470" d="M131 262 L189 575 L145 575 L72 548 L64 502 L122 518 L74 262 L131 262 Z M414 80 L421 123 L393 123 L428 312 L369 312 L228 120 L221 80 L328 80 L314 0 L370 0 L385 80 L414 80 Z M275 123 L358 240 L336 123 L275 123 Z M82 0 L423 564 L423 568 L376 568 L36 4 L36 0 L82 0 Z " />
<glyph glyph-name="onehalf" unicode="&#xbd;" horiz-adv-x="486" d="M132 262 L190 575 L146 575 L73 548 L65 502 L123 518 L75 262 L132 262 Z M415 0 L421 45 L315 45 C377 105 450 195 450 254 C450 291 417 316 373 316 C349 316 322 309 297 296 L292 250 C310 262 331 267 346 267 C371 267 385 254 391 239 C378 183 327 111 257 42 L251 0 L415 0 Z M79 0 L420 564 L420 568 L373 568 L33 4 L33 0 L79 0 Z " />
<glyph glyph-name="threequarters" unicode="&#xbe;" horiz-adv-x="490" d="M34 271 C45 265 68 258 95 258 C156 258 210 299 212 354 C213 388 179 417 156 428 L156 431 C183 444 230 482 231 518 C232 558 195 579 155 579 C129 579 102 572 84 561 L81 515 C98 524 115 530 132 530 C157 530 169 522 174 503 C162 479 133 447 103 434 L99 411 C126 399 146 374 155 349 C148 315 121 305 93 305 C77 305 61 308 43 316 L34 271 Z M434 80 L441 123 L413 123 L448 312 L389 312 L248 120 L241 80 L348 80 L334 0 L390 0 L405 80 L434 80 Z M295 123 L378 240 L356 123 L295 123 Z M110 0 L451 564 L451 568 L404 568 L64 4 L64 0 L110 0 Z " />
<glyph glyph-name="questiondown" unicode="&#xbf;" horiz-adv-x="251" d="M-19 -4 C-19 -66 39 -127 141 -144 L163 -79 C112 -67 70 -47 46 -7 C74 40 137 105 169 152 C179 163 183 174 183 184 C183 209 172 242 165 268 L110 260 L117 186 C113 176 53 115 48 106 C11 62 -19 29 -19 -4 L-19 -4 Z M210 451 L137 459 L104 334 L186 333 L210 451 Z " />
<glyph glyph-name="Agrave" unicode="&#xc0;" horiz-adv-x="395" d="M-33 0 L51 0 L122 179 L247 179 L249 0 L335 0 L310 583 L219 583 L-33 0 Z M241 476 L245 476 L247 248 L150 248 L241 476 Z M308 634 L240 748 L158 748 L242 634 L308 634 Z " />
<glyph glyph-name="Aacute" unicode="&#xc1;" horiz-adv-x="395" d="M-33 0 L51 0 L122 179 L247 179 L249 0 L335 0 L310 583 L219 583 L-33 0 Z M241 476 L245 476 L247 248 L150 248 L241 476 Z M297 634 L400 748 L318 748 L232 634 L297 634 Z " />
<glyph glyph-name="Acircumflex" unicode="&#xc2;" horiz-adv-x="395" d="M-33 0 L51 0 L122 179 L247 179 L249 0 L335 0 L310 583 L219 583 L-33 0 Z M265 753 L162 631 L229 631 L285 706 L289 706 L316 631 L384 631 L330 753 L265 753 Z M241 476 L245 476 L247 248 L150 248 L241 476 Z " />
<glyph glyph-name="Atilde" unicode="&#xc3;" horiz-adv-x="395" d="M-33 0 L51 0 L122 179 L247 179 L249 0 L335 0 L310 583 L219 583 L-33 0 Z M375 731 C363 713 342 699 322 699 C294 699 276 732 239 732 C204 732 175 704 156 679 L174 639 C191 660 208 671 226 671 C255 671 278 638 314 638 C352 638 377 665 392 690 L375 731 Z M241 476 L245 476 L247 248 L150 248 L241 476 Z " />
<glyph glyph-name="Adieresis" unicode="&#xc4;" horiz-adv-x="395" d="M-33 0 L51 0 L122 179 L247 179 L249 0 L335 0 L310 583 L219 583 L-33 0 Z M241 476 L245 476 L247 248 L150 248 L241 476 Z M165 648 L229 631 L254 732 L183 733 L165 648 Z M306 648 L369 631 L395 732 L323 733 L306 648 Z " />
<glyph glyph-name="Aring" unicode="&#xc5;" horiz-adv-x="395" d="M-33 0 L51 0 L122 179 L247 179 L249 0 L335 0 L310 583 L219 583 L-33 0 Z M297 776 C253 776 204 744 204 674 C204 633 230 611 267 611 C314 611 362 643 362 715 C362 756 335 776 297 776 L297 776 Z M241 476 L245 476 L247 248 L150 248 L241 476 Z M290 735 C307 735 315 727 315 711 C315 681 300 652 274 652 C258 652 251 662 251 679 C251 713 266 735 290 735 L290 735 Z " />
<glyph glyph-name="AE" unicode="&#xc6;" horiz-adv-x="550" d="M211 0 L476 0 L488 74 L309 74 L341 261 L491 261 L502 332 L353 332 L384 510 L564 510 L576 583 L272 583 L-39 0 L45 0 L128 166 L240 166 L211 0 Z M291 488 L296 488 L253 240 L166 240 L291 488 Z " />
<glyph glyph-name="Ccedilla" unicode="&#xc7;" horiz-adv-x="386" d="M154 -213 C223 -213 257 -166 257 -111 C257 -78 235 -49 203 -42 L217 -5 C263 -2 302 11 321 21 L332 92 C303 77 265 68 230 68 C158 68 122 103 122 193 C122 357 194 515 315 515 C342 515 371 512 391 498 L404 572 C381 583 348 589 311 589 C129 589 34 378 34 181 C34 69 77 5 171 -4 L148 -56 L148 -73 C183 -76 196 -94 196 -117 C196 -136 183 -159 152 -159 C137 -159 116 -153 103 -144 L92 -198 C107 -207 133 -213 154 -213 L154 -213 Z " />
<glyph glyph-name="Egrave" unicode="&#xc8;" horiz-adv-x="350" d="M12 0 L276 0 L288 74 L109 74 L142 264 L290 264 L302 335 L154 335 L185 510 L362 510 L375 583 L113 583 L12 0 Z M308 634 L240 748 L158 748 L242 634 L308 634 Z " />
<glyph glyph-name="Eacute" unicode="&#xc9;" horiz-adv-x="350" d="M12 0 L276 0 L288 74 L109 74 L142 264 L290 264 L302 335 L154 335 L185 510 L362 510 L375 583 L113 583 L12 0 Z M259 634 L362 748 L280 748 L194 634 L259 634 Z " />
<glyph glyph-name="Ecircumflex" unicode="&#xca;" horiz-adv-x="350" d="M12 0 L276 0 L288 74 L109 74 L142 264 L290 264 L302 335 L154 335 L185 510 L362 510 L375 583 L113 583 L12 0 Z M246 752 L143 630 L210 630 L266 705 L270 705 L297 630 L365 630 L311 752 L246 752 Z " />
<glyph glyph-name="Edieresis" unicode="&#xcb;" horiz-adv-x="350" d="M12 0 L276 0 L288 74 L109 74 L142 264 L290 264 L302 335 L154 335 L185 510 L362 510 L375 583 L113 583 L12 0 Z M293 649 L356 632 L382 733 L310 734 L293 649 Z M152 649 L216 632 L241 733 L170 734 L152 649 Z " />
<glyph glyph-name="Igrave" unicode="&#xcc;" horiz-adv-x="197" d="M189 634 L121 748 L39 748 L123 634 L189 634 Z M12 0 L96 0 L198 583 L114 583 L12 0 Z " />
<glyph glyph-name="Iacute" unicode="&#xcd;" horiz-adv-x="197" d="M12 0 L96 0 L198 583 L114 583 L12 0 Z M189 634 L292 748 L210 748 L124 634 L189 634 Z " />
<glyph glyph-name="Icircumflex" unicode="&#xce;" horiz-adv-x="197" d="M12 0 L96 0 L198 583 L114 583 L12 0 Z M152 752 L49 630 L116 630 L172 705 L176 705 L203 630 L271 630 L217 752 L152 752 Z " />
<glyph glyph-name="Idieresis" unicode="&#xcf;" horiz-adv-x="197" d="M12 0 L96 0 L198 583 L114 583 L12 0 Z M60 649 L124 632 L149 733 L78 734 L60 649 Z M201 649 L264 632 L290 733 L218 734 L201 649 Z " />
<glyph glyph-name="Eth" unicode="&#xd0;" horiz-adv-x="469" d="M22 268 L60 268 L13 0 L168 0 C327 0 447 183 447 391 C447 531 368 583 262 583 L115 583 L71 331 L34 331 L22 268 Z M229 268 L241 331 L155 331 L186 510 L230 510 C317 510 360 480 360 387 C360 235 287 74 163 74 L110 74 L144 268 L229 268 Z " />
<glyph glyph-name="Ntilde" unicode="&#xd1;" horiz-adv-x="472" d="M411 731 C399 713 378 699 358 699 C330 699 312 732 275 732 C240 732 211 704 192 679 L210 639 C227 660 244 671 262 671 C291 671 314 638 350 638 C388 638 413 665 428 690 L411 731 Z M12 0 L94 0 L162 389 L164 389 L300 0 L371 0 L474 583 L391 583 L324 200 L321 200 L185 583 L114 583 L12 0 Z " />
<glyph glyph-name="Ograve" unicode="&#xd2;" horiz-adv-x="478" d="M332 634 L264 748 L182 748 L266 634 L332 634 Z M193 -6 C368 -6 462 235 462 405 C462 519 411 589 300 589 C117 589 28 342 28 175 C28 62 85 -6 193 -6 L193 -6 Z M205 66 C146 66 114 100 114 174 C114 296 179 517 286 517 C344 517 377 487 377 413 C377 286 307 66 205 66 L205 66 Z " />
<glyph glyph-name="Oacute" unicode="&#xd3;" horiz-adv-x="478" d="M321 634 L424 748 L342 748 L256 634 L321 634 Z M193 -6 C368 -6 462 235 462 405 C462 519 411 589 300 589 C117 589 28 342 28 175 C28 62 85 -6 193 -6 L193 -6 Z M205 66 C146 66 114 100 114 174 C114 296 179 517 286 517 C344 517 377 487 377 413 C377 286 307 66 205 66 L205 66 Z " />
<glyph glyph-name="Ocircumflex" unicode="&#xd4;" horiz-adv-x="478" d="M193 -6 C368 -6 462 235 462 405 C462 519 411 589 300 589 C117 589 28 342 28 175 C28 62 85 -6 193 -6 L193 -6 Z M205 66 C146 66 114 100 114 174 C114 296 179 517 286 517 C344 517 377 487 377 413 C377 286 307 66 205 66 L205 66 Z M299 753 L196 631 L263 631 L319 706 L323 706 L350 631 L418 631 L364 753 L299 753 Z " />
<glyph glyph-name="Otilde" unicode="&#xd5;" horiz-adv-x="478" d="M412 730 C400 712 379 698 359 698 C331 698 313 731 276 731 C241 731 212 703 193 678 L211 638 C228 659 245 670 263 670 C292 670 315 637 351 637 C389 637 414 664 429 689 L412 730 Z M193 -6 C368 -6 462 235 462 405 C462 519 411 589 300 589 C117 589 28 342 28 175 C28 62 85 -6 193 -6 L193 -6 Z M205 66 C146 66 114 100 114 174 C114 296 179 517 286 517 C344 517 377 487 377 413 C377 286 307 66 205 66 L205 66 Z " />
<glyph glyph-name="Odieresis" unicode="&#xd6;" horiz-adv-x="478" d="M195 648 L259 631 L284 732 L213 733 L195 648 Z M336 648 L399 631 L425 732 L353 733 L336 648 Z M193 -6 C368 -6 462 235 462 405 C462 519 411 589 300 589 C117 589 28 342 28 175 C28 62 85 -6 193 -6 L193 -6 Z M205 66 C146 66 114 100 114 174 C114 296 179 517 286 517 C344 517 377 487 377 413 C377 286 307 66 205 66 L205 66 Z " />
<glyph glyph-name="multiply" unicode="&#xd7;" horiz-adv-x="353" d="M55 128 L175 249 L252 127 L301 164 L219 294 L346 423 L311 459 L191 338 L114 460 L65 423 L147 293 L19 164 L55 128 Z " />
<glyph glyph-name="Oslash" unicode="&#xd8;" horiz-adv-x="478" d="M193 -6 C368 -6 462 235 462 405 C462 447 455 483 440 512 L498 589 L438 589 L410 552 C384 576 347 589 300 589 C117 589 28 342 28 175 C28 135 34 102 48 74 L-13 -6 L49 -6 L78 33 C106 7 144 -6 193 -6 L193 -6 Z M205 66 C170 66 145 77 130 102 L376 428 C377 423 377 418 377 413 C377 286 307 66 205 66 L205 66 Z M114 174 C114 296 179 517 286 517 C319 517 343 507 359 485 L114 161 L114 174 Z " />
<glyph glyph-name="Ugrave" unicode="&#xd9;" horiz-adv-x="455" d="M330 634 L262 748 L180 748 L264 634 L330 634 Z M184 -6 C280 -6 367 49 399 227 L462 583 L380 583 L316 221 C296 109 254 67 196 67 C150 67 123 88 123 150 C123 167 125 187 129 210 L194 583 L111 583 L43 203 C39 179 37 157 37 138 C37 27 104 -6 184 -6 L184 -6 Z " />
<glyph glyph-name="Uacute" unicode="&#xda;" horiz-adv-x="455" d="M312 634 L415 748 L333 748 L247 634 L312 634 Z M184 -6 C280 -6 367 49 399 227 L462 583 L380 583 L316 221 C296 109 254 67 196 67 C150 67 123 88 123 150 C123 167 125 187 129 210 L194 583 L111 583 L43 203 C39 179 37 157 37 138 C37 27 104 -6 184 -6 L184 -6 Z " />
<glyph glyph-name="Ucircumflex" unicode="&#xdb;" horiz-adv-x="455" d="M184 -6 C280 -6 367 49 399 227 L462 583 L380 583 L316 221 C296 109 254 67 196 67 C150 67 123 88 123 150 C123 167 125 187 129 210 L194 583 L111 583 L43 203 C39 179 37 157 37 138 C37 27 104 -6 184 -6 L184 -6 Z M280 752 L177 630 L244 630 L300 705 L304 705 L331 630 L399 630 L345 752 L280 752 Z " />
<glyph glyph-name="Udieresis" unicode="&#xdc;" horiz-adv-x="455" d="M187 648 L251 631 L276 732 L205 733 L187 648 Z M328 648 L391 631 L417 732 L345 733 L328 648 Z M184 -6 C280 -6 367 49 399 227 L462 583 L380 583 L316 221 C296 109 254 67 196 67 C150 67 123 88 123 150 C123 167 125 187 129 210 L194 583 L111 583 L43 203 C39 179 37 157 37 138 C37 27 104 -6 184 -6 L184 -6 Z " />
<glyph glyph-name="Yacute" unicode="&#xdd;" horiz-adv-x="386" d="M435 583 L352 583 L202 294 L199 294 L150 583 L63 583 L141 214 L103 0 L188 0 L222 198 L435 583 Z M274 634 L377 748 L295 748 L209 634 L274 634 Z " />
<glyph glyph-name="Thorn" unicode="&#xde;" horiz-adv-x="388" d="M12 0 L97 0 L114 99 L157 99 C300 99 377 224 377 353 C377 433 326 478 245 478 L180 478 L199 583 L114 583 L12 0 Z M217 407 C269 407 289 387 289 335 C289 248 233 171 161 171 L127 171 L168 407 L217 407 Z " />
<glyph glyph-name="germandbls" unicode="&#xdf;" horiz-adv-x="432" d="M41 390 L93 390 L24 -7 C18 -42 11 -69 5 -91 C-6 -120 -17 -133 -24 -144 C-49 -145 -73 -139 -92 -130 L-110 -198 C-85 -208 -57 -212 -32 -212 C34 -212 83 -100 98 -9 L182 477 C192 532 204 561 225 588 C237 591 250 591 262 591 C306 590 333 576 333 515 C333 428 218 398 218 311 C218 260 239 235 272 199 C292 177 312 150 317 116 C318 105 320 94 317 82 C304 65 273 60 247 60 C225 60 192 69 169 81 L155 13 C180 1 210 -7 253 -7 C300 -7 335 11 359 38 C381 62 393 92 393 124 C393 172 359 211 326 246 C304 273 291 294 291 324 C291 401 409 420 409 539 C409 608 365 658 282 658 C247 658 216 649 191 630 C143 602 121 546 110 486 L104 451 L52 451 L41 390 Z " />
<glyph glyph-name="agrave" unicode="&#xe0;" horiz-adv-x="355" d="M264 0 L343 456 L268 456 L263 430 C237 447 209 458 187 458 C138 458 103 421 80 385 C37 310 15 164 15 64 C15 42 17 17 18 0 L97 0 L213 142 L188 0 L264 0 Z M95 92 L95 130 C96 207 125 338 163 394 C169 394 175 393 182 393 C203 389 226 380 252 363 L229 233 L105 88 L95 92 Z M276 526 L191 677 L113 677 L216 526 L276 526 Z " />
<glyph glyph-name="aacute" unicode="&#xe1;" horiz-adv-x="355" d="M264 0 L343 456 L268 456 L263 430 C237 447 209 458 187 458 C138 458 103 421 80 385 C37 310 15 164 15 64 C15 42 17 17 18 0 L97 0 L213 142 L188 0 L264 0 Z M95 92 L95 130 C96 207 125 338 163 394 C169 394 175 393 182 393 C203 389 226 380 252 363 L229 233 L105 88 L95 92 Z M258 527 L361 678 L283 678 L198 527 L258 527 Z " />
<glyph glyph-name="acircumflex" unicode="&#xe2;" horiz-adv-x="355" d="M264 0 L343 456 L268 456 L263 430 C237 447 209 458 187 458 C138 458 103 421 80 385 C37 310 15 164 15 64 C15 42 17 17 18 0 L97 0 L213 142 L188 0 L264 0 Z M95 92 L95 130 C96 207 125 338 163 394 C169 394 175 393 182 393 C203 389 226 380 252 363 L229 233 L105 88 L95 92 Z M230 676 L128 527 L196 527 L250 622 L254 622 L273 527 L339 527 L296 676 L230 676 Z " />
<glyph glyph-name="atilde" unicode="&#xe3;" horiz-adv-x="355" d="M264 0 L343 456 L268 456 L263 430 C237 447 209 458 187 458 C138 458 103 421 80 385 C37 310 15 164 15 64 C15 42 17 17 18 0 L97 0 L213 142 L188 0 L264 0 Z M95 92 L95 130 C96 207 125 338 163 394 C169 394 175 393 182 393 C203 389 226 380 252 363 L229 233 L105 88 L95 92 Z M348 646 C337 629 314 614 294 614 C267 614 249 647 212 647 C177 647 148 620 129 594 L147 554 C164 574 181 586 199 586 C229 586 251 553 287 553 C325 553 350 581 364 606 L348 646 Z " />
<glyph glyph-name="adieresis" unicode="&#xe4;" horiz-adv-x="355" d="M264 0 L343 456 L268 456 L263 430 C237 447 209 458 187 458 C138 458 103 421 80 385 C37 310 15 164 15 64 C15 42 17 17 18 0 L97 0 L213 142 L188 0 L264 0 Z M95 92 L95 130 C96 207 125 338 163 394 C169 394 175 393 182 393 C203 389 226 380 252 363 L229 233 L105 88 L95 92 Z M275 562 L339 546 L365 647 L293 649 L275 562 Z M134 562 L197 546 L223 647 L152 649 L134 562 Z " />
<glyph glyph-name="aring" unicode="&#xe5;" horiz-adv-x="355" d="M264 0 L343 456 L268 456 L263 430 C237 447 209 458 187 458 C138 458 103 421 80 385 C37 310 15 164 15 64 C15 42 17 17 18 0 L97 0 L213 142 L188 0 L264 0 Z M95 92 L95 130 C96 207 125 338 163 394 C169 394 175 393 182 393 C203 389 226 380 252 363 L229 233 L105 88 L95 92 Z M262 687 C217 687 169 655 169 585 C169 545 195 522 232 522 C279 522 327 554 327 626 C327 667 300 687 262 687 L262 687 Z M255 647 C271 647 279 638 279 622 C279 593 264 564 239 564 C224 564 217 574 217 590 C217 625 231 647 255 647 L255 647 Z " />
<glyph glyph-name="ae" unicode="&#xe6;" horiz-adv-x="522" d="M474 110 L445 156 C400 115 348 84 310 69 L301 74 C297 89 296 107 295 124 C295 142 295 161 297 180 C365 215 466 272 506 315 L512 414 C479 444 440 456 403 456 C364 456 329 435 302 405 C270 429 219 456 188 456 C139 456 104 417 81 382 C46 321 16 191 16 83 C16 53 17 24 20 0 L98 0 L217 141 C216 123 216 106 216 89 C216 58 220 27 227 1 L295 -8 C363 22 439 75 474 110 L474 110 Z M96 91 C96 108 95 121 95 135 C96 224 130 344 164 392 C173 393 182 392 191 389 C216 384 239 371 265 351 C248 312 235 269 227 223 L106 87 L96 91 Z M364 391 C368 392 374 392 379 392 C400 392 425 385 440 372 L435 331 C402 295 346 265 305 242 C317 304 337 359 364 391 L364 391 Z " />
<glyph glyph-name="ccedilla" unicode="&#xe7;" horiz-adv-x="296" d="M53 -213 C122 -213 156 -166 156 -111 C156 -78 134 -49 102 -42 L120 4 C180 37 231 89 255 122 L218 161 C179 119 144 86 112 70 L101 75 C97 92 97 110 96 129 C96 220 119 329 161 385 C168 386 176 387 184 387 C213 387 248 376 271 363 L296 433 C273 446 228 456 197 456 C149 456 112 429 86 391 C31 321 16 179 16 83 C16 55 19 27 27 4 L71 -2 L47 -56 L47 -73 C82 -76 95 -94 95 -117 C95 -136 82 -159 51 -159 C36 -159 15 -153 2 -144 L-9 -198 C6 -207 32 -213 53 -213 L53 -213 Z " />
<glyph glyph-name="egrave" unicode="&#xe8;" horiz-adv-x="322" d="M273 112 L245 157 C198 117 147 86 110 71 L99 76 C96 93 94 113 95 132 C95 147 95 163 96 179 C164 214 264 271 306 313 L311 414 C278 444 239 456 201 456 C139 456 92 405 65 351 C32 276 15 185 15 90 C15 60 18 29 27 3 L94 -6 C163 23 237 77 273 112 L273 112 Z M163 391 C168 392 174 392 179 392 C200 392 225 384 238 372 L235 329 C201 293 146 263 104 239 C115 302 135 359 163 391 L163 391 Z M262 527 L177 678 L99 678 L202 527 L262 527 Z " />
<glyph glyph-name="eacute" unicode="&#xe9;" horiz-adv-x="322" d="M273 112 L245 157 C198 117 147 86 110 71 L99 76 C96 93 94 113 95 132 C95 147 95 163 96 179 C164 214 264 271 306 313 L311 414 C278 444 239 456 201 456 C139 456 92 405 65 351 C32 276 15 185 15 90 C15 60 18 29 27 3 L94 -6 C163 23 237 77 273 112 L273 112 Z M163 391 C168 392 174 392 179 392 C200 392 225 384 238 372 L235 329 C201 293 146 263 104 239 C115 302 135 359 163 391 L163 391 Z M232 527 L335 678 L257 678 L172 527 L232 527 Z " />
<glyph glyph-name="ecircumflex" unicode="&#xea;" horiz-adv-x="322" d="M273 112 L245 157 C198 117 147 86 110 71 L99 76 C96 93 94 113 95 132 C95 147 95 163 96 179 C164 214 264 271 306 313 L311 414 C278 444 239 456 201 456 C139 456 92 405 65 351 C32 276 15 185 15 90 C15 60 18 29 27 3 L94 -6 C163 23 237 77 273 112 L273 112 Z M212 676 L110 527 L178 527 L232 622 L236 622 L255 527 L321 527 L278 676 L212 676 Z M163 391 C168 392 174 392 179 392 C200 392 225 384 238 372 L235 329 C201 293 146 263 104 239 C115 302 135 359 163 391 L163 391 Z " />
<glyph glyph-name="edieresis" unicode="&#xeb;" horiz-adv-x="322" d="M273 112 L245 157 C198 117 147 86 110 71 L99 76 C96 93 94 113 95 132 C95 147 95 163 96 179 C164 214 264 271 306 313 L311 414 C278 444 239 456 201 456 C139 456 92 405 65 351 C32 276 15 185 15 90 C15 60 18 29 27 3 L94 -6 C163 23 237 77 273 112 L273 112 Z M163 391 C168 392 174 392 179 392 C200 392 225 384 238 372 L235 329 C201 293 146 263 104 239 C115 302 135 359 163 391 L163 391 Z M253 562 L317 546 L343 647 L271 649 L253 562 Z M112 562 L175 546 L201 647 L130 649 L112 562 Z " />
<glyph glyph-name="igrave" unicode="&#xec;" horiz-adv-x="169" d="M77 0 L155 451 L81 451 L3 0 L77 0 Z M157 527 L72 678 L-6 678 L97 527 L157 527 Z " />
<glyph glyph-name="iacute" unicode="&#xed;" horiz-adv-x="169" d="M163 527 L266 678 L188 678 L103 527 L163 527 Z M77 0 L155 451 L81 451 L3 0 L77 0 Z " />
<glyph glyph-name="icircumflex" unicode="&#xee;" horiz-adv-x="169" d="M131 676 L29 527 L97 527 L151 622 L155 622 L174 527 L240 527 L197 676 L131 676 Z M77 0 L155 451 L81 451 L3 0 L77 0 Z " />
<glyph glyph-name="idieresis" unicode="&#xef;" horiz-adv-x="169" d="M25 562 L88 546 L114 647 L43 649 L25 562 Z M166 562 L230 546 L256 647 L184 649 L166 562 Z M77 0 L155 451 L81 451 L3 0 L77 0 Z " />
<glyph glyph-name="eth" unicode="&#xf0;" horiz-adv-x="349" d="M164 510 L210 549 C228 519 240 488 247 452 C238 455 228 456 218 456 C146 456 89 407 56 334 C29 272 16 205 15 137 C13 41 53 -5 118 -5 C178 -5 230 30 262 91 C302 171 327 270 327 360 C327 452 311 528 264 594 L309 632 L277 669 L234 632 C220 647 205 661 188 675 L146 624 C159 612 171 600 181 588 L133 547 L164 510 Z M149 56 C135 57 114 63 105 72 C97 92 93 116 93 140 C94 220 127 351 185 395 C191 394 200 392 205 390 C219 386 237 380 253 370 C251 250 219 127 149 56 L149 56 Z " />
<glyph glyph-name="ntilde" unicode="&#xf1;" horiz-adv-x="369" d="M77 0 L125 278 C172 335 222 370 244 379 L258 374 C261 351 259 317 245 236 L206 0 L280 0 L325 260 C333 310 338 349 338 379 C338 434 323 456 289 456 C247 456 191 419 139 360 L155 451 L81 451 L3 0 L77 0 Z M340 646 C329 629 306 614 286 614 C259 614 241 647 204 647 C169 647 140 620 121 594 L139 554 C156 574 173 586 191 586 C221 586 243 553 279 553 C317 553 342 581 356 606 L340 646 Z " />
<glyph glyph-name="ograve" unicode="&#xf2;" horiz-adv-x="348" d="M147 56 C131 57 113 63 105 72 C97 92 93 115 93 140 C93 229 132 363 184 395 C203 393 223 386 233 380 C242 359 246 335 245 308 C244 219 207 111 147 56 L147 56 Z M121 -5 C181 -5 230 37 263 92 C301 156 322 239 323 299 C325 411 283 456 217 456 C153 456 103 415 70 357 C33 291 17 211 16 143 C15 46 55 -5 121 -5 L121 -5 Z M255 527 L170 678 L92 678 L195 527 L255 527 Z " />
<glyph glyph-name="oacute" unicode="&#xf3;" horiz-adv-x="348" d="M242 527 L345 678 L267 678 L182 527 L242 527 Z M147 56 C131 57 113 63 105 72 C97 92 93 115 93 140 C93 229 132 363 184 395 C203 393 223 386 233 380 C242 359 246 335 245 308 C244 219 207 111 147 56 L147 56 Z M121 -5 C181 -5 230 37 263 92 C301 156 322 239 323 299 C325 411 283 456 217 456 C153 456 103 415 70 357 C33 291 17 211 16 143 C15 46 55 -5 121 -5 L121 -5 Z " />
<glyph glyph-name="ocircumflex" unicode="&#xf4;" horiz-adv-x="348" d="M220 671 L118 522 L186 522 L240 617 L244 617 L263 522 L329 522 L286 671 L220 671 Z M147 56 C131 57 113 63 105 72 C97 92 93 115 93 140 C93 229 132 363 184 395 C203 393 223 386 233 380 C242 359 246 335 245 308 C244 219 207 111 147 56 L147 56 Z M121 -5 C181 -5 230 37 263 92 C301 156 322 239 323 299 C325 411 283 456 217 456 C153 456 103 415 70 357 C33 291 17 211 16 143 C15 46 55 -5 121 -5 L121 -5 Z " />
<glyph glyph-name="otilde" unicode="&#xf5;" horiz-adv-x="348" d="M147 56 C131 57 113 63 105 72 C97 92 93 115 93 140 C93 229 132 363 184 395 C203 393 223 386 233 380 C242 359 246 335 245 308 C244 219 207 111 147 56 L147 56 Z M121 -5 C181 -5 230 37 263 92 C301 156 322 239 323 299 C325 411 283 456 217 456 C153 456 103 415 70 357 C33 291 17 211 16 143 C15 46 55 -5 121 -5 L121 -5 Z M335 646 C324 629 301 614 281 614 C254 614 236 647 199 647 C164 647 135 620 116 594 L134 554 C151 574 168 586 186 586 C216 586 238 553 274 553 C312 553 337 581 351 606 L335 646 Z " />
<glyph glyph-name="odieresis" unicode="&#xf6;" horiz-adv-x="348" d="M115 562 L178 546 L204 647 L133 649 L115 562 Z M256 562 L320 546 L346 647 L274 649 L256 562 Z M147 56 C131 57 113 63 105 72 C97 92 93 115 93 140 C93 229 132 363 184 395 C203 393 223 386 233 380 C242 359 246 335 245 308 C244 219 207 111 147 56 L147 56 Z M121 -5 C181 -5 230 37 263 92 C301 156 322 239 323 299 C325 411 283 456 217 456 C153 456 103 415 70 357 C33 291 17 211 16 143 C15 46 55 -5 121 -5 L121 -5 Z " />
<glyph glyph-name="divide" unicode="&#xf7;" horiz-adv-x="353" d="M39 265 L318 265 L329 327 L50 327 L39 265 Z M158 392 L228 374 L255 484 L176 486 L158 392 Z M109 107 L179 89 L206 199 L127 201 L109 107 Z " />
<glyph glyph-name="oslash" unicode="&#xf8;" horiz-adv-x="351" d="M123 -5 C183 -5 232 37 265 92 C303 156 324 239 325 299 C325 332 322 359 316 381 L373 456 L320 456 L295 422 C276 445 250 456 219 456 C155 456 105 415 72 357 C35 291 19 211 18 143 C17 114 21 89 27 69 L-29 -6 L23 -6 L49 28 C67 6 92 -5 123 -5 L123 -5 Z M186 395 C205 393 225 386 235 380 C238 372 241 363 243 354 L95 159 C100 247 137 365 186 395 L186 395 Z M149 56 C133 57 115 63 107 72 C104 79 101 87 99 95 L246 288 C240 203 204 107 149 56 L149 56 Z " />
<glyph glyph-name="ugrave" unicode="&#xf9;" horiz-adv-x="364" d="M276 451 L228 173 C183 116 130 82 109 74 L97 79 C97 104 100 137 114 217 L153 451 L78 451 L33 184 C24 136 19 97 19 67 C19 18 33 -6 63 -6 C106 -6 165 33 213 87 L198 0 L272 0 L351 451 L276 451 Z M265 527 L180 678 L102 678 L205 527 L265 527 Z " />
<glyph glyph-name="uacute" unicode="&#xfa;" horiz-adv-x="364" d="M276 451 L228 173 C183 116 130 82 109 74 L97 79 C97 104 100 137 114 217 L153 451 L78 451 L33 184 C24 136 19 97 19 67 C19 18 33 -6 63 -6 C106 -6 165 33 213 87 L198 0 L272 0 L351 451 L276 451 Z M240 527 L343 678 L265 678 L180 527 L240 527 Z " />
<glyph glyph-name="ucircumflex" unicode="&#xfb;" horiz-adv-x="364" d="M276 451 L228 173 C183 116 130 82 109 74 L97 79 C97 104 100 137 114 217 L153 451 L78 451 L33 184 C24 136 19 97 19 67 C19 18 33 -6 63 -6 C106 -6 165 33 213 87 L198 0 L272 0 L351 451 L276 451 Z M219 676 L117 527 L185 527 L239 622 L243 622 L262 527 L328 527 L285 676 L219 676 Z " />
<glyph glyph-name="udieresis" unicode="&#xfc;" horiz-adv-x="364" d="M276 451 L228 173 C183 116 130 82 109 74 L97 79 C97 104 100 137 114 217 L153 451 L78 451 L33 184 C24 136 19 97 19 67 C19 18 33 -6 63 -6 C106 -6 165 33 213 87 L198 0 L272 0 L351 451 L276 451 Z M259 562 L323 546 L349 647 L277 649 L259 562 Z M118 562 L181 546 L207 647 L136 649 L118 562 Z " />
<glyph glyph-name="yacute" unicode="&#xfd;" horiz-adv-x="333" d="M110 -207 L211 71 L351 451 L273 451 L141 85 L135 85 C124 137 119 195 119 239 C120 312 124 380 136 451 L59 451 C49 390 44 330 44 269 C44 178 60 75 77 0 L106 0 L27 -192 L29 -207 L110 -207 Z M235 527 L338 678 L260 678 L175 527 L235 527 Z " />
<glyph glyph-name="thorn" unicode="&#xfe;" horiz-adv-x="355" d="M42 -207 L78 3 C98 -3 119 -6 138 -6 C255 -6 328 159 328 310 C328 387 307 456 256 456 C235 456 194 441 150 419 L191 653 L116 653 L-34 -207 L42 -207 Z M217 383 L231 382 C240 364 249 334 249 289 C248 176 199 61 146 61 C129 61 112 63 90 72 L138 350 C166 364 194 376 217 383 L217 383 Z " />
<glyph glyph-name="ydieresis" unicode="&#xff;" horiz-adv-x="333" d="M115 563 L178 547 L204 648 L133 650 L115 563 Z M256 563 L320 547 L346 648 L274 650 L256 563 Z M110 -207 L211 71 L351 451 L273 451 L141 85 L135 85 C124 137 119 195 119 239 C120 312 124 380 136 451 L59 451 C49 390 44 330 44 269 C44 178 60 75 77 0 L106 0 L27 -192 L29 -207 L110 -207 Z " />
<glyph glyph-name="Amacron" unicode="&#x100;" horiz-adv-x="395" d="M-33 0 L51 0 L122 179 L247 179 L249 0 L335 0 L310 583 L219 583 L-33 0 Z M177 661 L380 661 L392 725 L188 725 L177 661 Z M241 476 L245 476 L247 248 L150 248 L241 476 Z " />
<glyph glyph-name="amacron" unicode="&#x101;" horiz-adv-x="355" d="M264 0 L343 456 L268 456 L263 430 C237 447 209 458 187 458 C138 458 103 421 80 385 C37 310 15 164 15 64 C15 42 17 17 18 0 L97 0 L213 142 L188 0 L264 0 Z M95 92 L95 130 C96 207 125 338 163 394 C169 394 175 393 182 393 C203 389 226 380 252 363 L229 233 L105 88 L95 92 Z M142 571 L347 571 L358 634 L154 634 L142 571 Z " />
<glyph glyph-name="Abreve" unicode="&#x102;" horiz-adv-x="395" d="M-33 0 L51 0 L122 179 L247 179 L249 0 L335 0 L310 583 L219 583 L-33 0 Z M276 687 C248 687 236 707 231 743 L181 717 C184 669 210 628 267 628 C323 628 367 666 389 721 L350 744 C335 710 309 687 276 687 L276 687 Z M241 476 L245 476 L247 248 L150 248 L241 476 Z " />
<glyph glyph-name="abreve" unicode="&#x103;" horiz-adv-x="355" d="M264 0 L343 456 L268 456 L263 430 C237 447 209 458 187 458 C138 458 103 421 80 385 C37 310 15 164 15 64 C15 42 17 17 18 0 L97 0 L213 142 L188 0 L264 0 Z M95 92 L95 130 C96 207 125 338 163 394 C169 394 175 393 182 393 C203 389 226 380 252 363 L229 233 L105 88 L95 92 Z M245 591 C214 591 202 613 198 647 L148 621 C150 572 176 532 234 532 C289 532 334 569 355 624 L316 648 C301 614 281 591 245 591 L245 591 Z " />
<glyph glyph-name="Aogonek" unicode="&#x104;" horiz-adv-x="395" d="M309 -185 L317 -131 C301 -138 281 -143 266 -143 C248 -143 234 -136 234 -115 C234 -77 266 -28 312 0 L335 0 L310 583 L219 583 L-33 0 L51 0 L122 179 L247 179 L249 0 L253 0 C211 -32 171 -82 171 -137 C171 -180 198 -202 242 -202 C266 -202 292 -196 309 -185 L309 -185 Z M241 476 L245 476 L247 248 L150 248 L241 476 Z " />
<glyph glyph-name="aogonek" unicode="&#x105;" horiz-adv-x="355" d="M238 -185 L246 -131 C230 -138 210 -143 195 -143 C177 -143 163 -136 163 -115 C163 -77 195 -28 241 0 L264 0 L343 456 L268 456 L263 430 C237 447 209 458 187 458 C138 458 103 421 80 385 C37 310 15 164 15 64 C15 42 17 17 18 0 L97 0 L213 142 L189 5 C144 -26 100 -79 100 -137 C100 -180 127 -202 171 -202 C195 -202 221 -196 238 -185 L238 -185 Z M95 92 L95 130 C96 207 125 338 163 394 C169 394 175 393 182 393 C203 389 226 380 252 363 L229 233 L105 88 L95 92 Z " />
<glyph glyph-name="Cacute" unicode="&#x106;" horiz-adv-x="385" d="M199 -6 C253 -6 300 10 321 21 L332 92 C303 77 265 68 230 68 C158 68 122 103 122 193 C122 357 194 515 315 515 C342 515 371 512 391 498 L404 572 C381 583 348 589 311 589 C129 589 34 378 34 181 C34 59 85 -6 199 -6 L199 -6 Z M308 634 L411 748 L329 748 L243 634 L308 634 Z " />
<glyph glyph-name="cacute" unicode="&#x107;" horiz-adv-x="296" d="M227 527 L330 678 L252 678 L167 527 L227 527 Z M218 161 C179 119 144 86 112 70 L101 75 C97 92 97 110 96 129 C96 220 119 329 161 385 C168 386 176 387 184 387 C213 387 248 376 271 363 L296 433 C273 446 228 456 197 456 C149 456 112 429 86 391 C31 321 16 179 16 83 C16 55 19 27 27 4 L99 -6 C168 25 229 85 255 122 L218 161 Z " />
<glyph glyph-name="Ccircumflex" unicode="&#x108;" horiz-adv-x="385" d="M199 -6 C253 -6 300 10 321 21 L332 92 C303 77 265 68 230 68 C158 68 122 103 122 193 C122 357 194 515 315 515 C342 515 371 512 391 498 L404 572 C381 583 348 589 311 589 C129 589 34 378 34 181 C34 59 85 -6 199 -6 L199 -6 Z M296 752 L193 630 L260 630 L316 705 L320 705 L347 630 L415 630 L361 752 L296 752 Z " />
<glyph glyph-name="ccircumflex" unicode="&#x109;" horiz-adv-x="296" d="M210 676 L108 527 L176 527 L230 622 L234 622 L253 527 L319 527 L276 676 L210 676 Z M218 161 C179 119 144 86 112 70 L101 75 C97 92 97 110 96 129 C96 220 119 329 161 385 C168 386 176 387 184 387 C213 387 248 376 271 363 L296 433 C273 446 228 456 197 456 C149 456 112 429 86 391 C31 321 16 179 16 83 C16 55 19 27 27 4 L99 -6 C168 25 229 85 255 122 L218 161 Z " />
<glyph glyph-name="Cdotaccent" unicode="&#x10a;" horiz-adv-x="385" d="M266 648 L336 630 L363 738 L283 740 L266 648 Z M199 -6 C253 -6 300 10 321 21 L332 92 C303 77 265 68 230 68 C158 68 122 103 122 193 C122 357 194 515 315 515 C342 515 371 512 391 498 L404 572 C381 583 348 589 311 589 C129 589 34 378 34 181 C34 59 85 -6 199 -6 L199 -6 Z " />
<glyph glyph-name="cdotaccent" unicode="&#x10b;" horiz-adv-x="296" d="M218 161 C179 119 144 86 112 70 L101 75 C97 92 97 110 96 129 C96 220 119 329 161 385 C168 386 176 387 184 387 C213 387 248 376 271 363 L296 433 C273 446 228 456 197 456 C149 456 112 429 86 391 C31 321 16 179 16 83 C16 55 19 27 27 4 L99 -6 C168 25 229 85 255 122 L218 161 Z M170 567 L240 549 L267 659 L188 661 L170 567 Z " />
<glyph glyph-name="Ccaron" unicode="&#x10c;" horiz-adv-x="385" d="M199 -6 C253 -6 300 10 321 21 L332 92 C303 77 265 68 230 68 C158 68 122 103 122 193 C122 357 194 515 315 515 C342 515 371 512 391 498 L404 572 C381 583 348 589 311 589 C129 589 34 378 34 181 C34 59 85 -6 199 -6 L199 -6 Z M336 627 L439 748 L372 748 L316 674 L313 674 L285 748 L217 748 L271 627 L336 627 Z " />
<glyph glyph-name="ccaron" unicode="&#x10d;" horiz-adv-x="296" d="M241 527 L342 676 L275 676 L220 581 L216 581 L198 676 L131 676 L174 527 L241 527 Z M218 161 C179 119 144 86 112 70 L101 75 C97 92 97 110 96 129 C96 220 119 329 161 385 C168 386 176 387 184 387 C213 387 248 376 271 363 L296 433 C273 446 228 456 197 456 C149 456 112 429 86 391 C31 321 16 179 16 83 C16 55 19 27 27 4 L99 -6 C168 25 229 85 255 122 L218 161 Z " />
<glyph glyph-name="Dcaron" unicode="&#x10e;" horiz-adv-x="467" d="M12 0 L167 0 C326 0 446 183 446 391 C446 531 367 583 261 583 L114 583 L12 0 Z M229 510 C316 510 359 480 359 387 C359 235 286 74 162 74 L109 74 L185 510 L229 510 Z M298 625 L401 746 L334 746 L278 672 L275 672 L247 746 L179 746 L233 625 L298 625 Z " />
<glyph glyph-name="dcaron" unicode="&#x10f;" horiz-adv-x="365" d="M264 0 L378 653 L302 653 L263 429 C237 446 209 456 187 456 C138 456 103 419 80 384 C37 309 15 164 15 64 C15 42 17 17 18 0 L97 0 L213 142 L188 0 L264 0 Z M95 92 L95 130 C96 207 125 336 163 392 C170 392 176 392 182 391 C203 388 225 378 251 362 L229 232 L105 88 L95 92 Z M378 484 L429 484 L501 653 L430 653 L378 484 Z " />
<glyph glyph-name="Dcroat" unicode="&#x110;" horiz-adv-x="469" d="M22 268 L60 268 L13 0 L168 0 C327 0 447 183 447 391 C447 531 368 583 262 583 L115 583 L71 331 L33 331 L22 268 Z M228 268 L240 331 L155 331 L186 510 L230 510 C317 510 360 480 360 387 C360 235 287 74 163 74 L110 74 L144 268 L228 268 Z " />
<glyph glyph-name="dcroat" unicode="&#x111;" horiz-adv-x="355" d="M177 543 L283 543 L263 429 C237 446 209 456 187 456 C138 456 103 419 80 384 C37 309 15 164 15 64 C15 42 17 17 18 0 L97 0 L213 142 L188 0 L264 0 L358 543 L404 543 L415 599 L368 599 L378 653 L302 653 L292 599 L187 599 L177 543 Z M95 92 L95 130 C96 207 125 336 163 392 C170 392 176 392 182 391 C203 388 225 378 251 362 L229 232 L105 88 L95 92 Z " />
<glyph glyph-name="Emacron" unicode="&#x112;" horiz-adv-x="350" d="M12 0 L276 0 L288 74 L109 74 L142 264 L290 264 L302 335 L154 335 L185 510 L362 510 L375 583 L113 583 L12 0 Z M156 662 L359 662 L371 726 L167 726 L156 662 Z " />
<glyph glyph-name="emacron" unicode="&#x113;" horiz-adv-x="322" d="M273 112 L245 157 C198 117 147 86 110 71 L99 76 C96 93 94 113 95 132 C95 147 95 163 96 179 C164 214 264 271 306 313 L311 414 C278 444 239 456 201 456 C139 456 92 405 65 351 C32 276 15 185 15 90 C15 60 18 29 27 3 L94 -6 C163 23 237 77 273 112 L273 112 Z M115 571 L320 571 L331 634 L127 634 L115 571 Z M163 391 C168 392 174 392 179 392 C200 392 225 384 238 372 L235 329 C201 293 146 263 104 239 C115 302 135 359 163 391 L163 391 Z " />
<glyph glyph-name="Ebreve" unicode="&#x114;" horiz-adv-x="350" d="M12 0 L276 0 L288 74 L109 74 L142 264 L290 264 L302 335 L154 335 L185 510 L362 510 L375 583 L113 583 L12 0 Z M262 687 C234 687 222 707 217 743 L167 717 C170 669 196 628 253 628 C309 628 353 666 375 721 L336 744 C321 710 295 687 262 687 L262 687 Z " />
<glyph glyph-name="ebreve" unicode="&#x115;" horiz-adv-x="322" d="M273 112 L245 157 C198 117 147 86 110 71 L99 76 C96 93 94 113 95 132 C95 147 95 163 96 179 C164 214 264 271 306 313 L311 414 C278 444 239 456 201 456 C139 456 92 405 65 351 C32 276 15 185 15 90 C15 60 18 29 27 3 L94 -6 C163 23 237 77 273 112 L273 112 Z M221 591 C190 591 178 613 174 647 L124 621 C126 572 152 532 210 532 C265 532 310 569 331 624 L292 648 C277 614 257 591 221 591 L221 591 Z M163 391 C168 392 174 392 179 392 C200 392 225 384 238 372 L235 329 C201 293 146 263 104 239 C115 302 135 359 163 391 L163 391 Z " />
<glyph glyph-name="Edotaccent" unicode="&#x116;" horiz-adv-x="350" d="M12 0 L276 0 L288 74 L109 74 L142 264 L290 264 L302 335 L154 335 L185 510 L362 510 L375 583 L113 583 L12 0 Z M216 647 L286 629 L313 737 L233 739 L216 647 Z " />
<glyph glyph-name="edotaccent" unicode="&#x117;" horiz-adv-x="322" d="M273 112 L245 157 C198 117 147 86 110 71 L99 76 C96 93 94 113 95 132 C95 147 95 163 96 179 C164 214 264 271 306 313 L311 414 C278 444 239 456 201 456 C139 456 92 405 65 351 C32 276 15 185 15 90 C15 60 18 29 27 3 L94 -6 C163 23 237 77 273 112 L273 112 Z M163 391 C168 392 174 392 179 392 C200 392 225 384 238 372 L235 329 C201 293 146 263 104 239 C115 302 135 359 163 391 L163 391 Z M173 567 L243 549 L270 659 L191 661 L173 567 Z " />
<glyph glyph-name="Eogonek" unicode="&#x118;" horiz-adv-x="350" d="M12 0 L200 0 C158 -32 118 -82 118 -137 C118 -180 145 -202 189 -202 C213 -202 239 -196 256 -185 L264 -131 C248 -138 228 -143 213 -143 C195 -143 181 -136 181 -115 C181 -77 213 -28 259 0 L276 0 L288 74 L109 74 L142 264 L290 264 L302 335 L154 335 L185 510 L362 510 L375 583 L113 583 L12 0 Z " />
<glyph glyph-name="eogonek" unicode="&#x119;" horiz-adv-x="322" d="M273 112 L245 157 C198 117 147 86 110 71 L99 76 C96 93 94 113 95 132 C95 147 95 163 96 179 C164 214 264 271 306 313 L311 414 C278 444 239 456 201 456 C139 456 92 405 65 351 C32 276 15 185 15 90 C15 60 18 29 27 3 L69 -2 C34 -38 8 -81 8 -133 C8 -176 33 -200 82 -200 C105 -200 126 -196 144 -185 L150 -137 C134 -144 118 -147 104 -147 C83 -147 70 -134 70 -110 C70 -76 91 -27 132 12 C189 42 243 83 273 112 L273 112 Z M163 391 C168 392 174 392 179 392 C200 392 225 384 238 372 L235 329 C201 293 146 263 104 239 C115 302 135 359 163 391 L163 391 Z " />
<glyph glyph-name="Ecaron" unicode="&#x11a;" horiz-adv-x="350" d="M12 0 L276 0 L288 74 L109 74 L142 264 L290 264 L302 335 L154 335 L185 510 L362 510 L375 583 L113 583 L12 0 Z M286 627 L389 748 L322 748 L266 674 L263 674 L235 748 L167 748 L221 627 L286 627 Z " />
<glyph glyph-name="ecaron" unicode="&#x11b;" horiz-adv-x="322" d="M273 112 L245 157 C198 117 147 86 110 71 L99 76 C96 93 94 113 95 132 C95 147 95 163 96 179 C164 214 264 271 306 313 L311 414 C278 444 239 456 201 456 C139 456 92 405 65 351 C32 276 15 185 15 90 C15 60 18 29 27 3 L94 -6 C163 23 237 77 273 112 L273 112 Z M245 527 L346 676 L279 676 L224 581 L220 581 L202 676 L135 676 L178 527 L245 527 Z M163 391 C168 392 174 392 179 392 C200 392 225 384 238 372 L235 329 C201 293 146 263 104 239 C115 302 135 359 163 391 L163 391 Z " />
<glyph glyph-name="Gcircumflex" unicode="&#x11c;" horiz-adv-x="434" d="M215 -6 C273 -6 321 10 353 26 L402 301 L319 301 L279 75 C259 69 238 67 224 67 C157 67 118 99 118 192 C118 338 196 511 329 514 C370 515 404 503 428 488 L442 565 C412 582 371 589 330 589 C138 589 31 371 31 185 C31 61 89 -6 215 -6 L215 -6 Z M309 752 L206 630 L273 630 L329 705 L333 705 L360 630 L428 630 L374 752 L309 752 Z " />
<glyph glyph-name="gcircumflex" unicode="&#x11d;" horiz-adv-x="354" d="M89 -213 C133 -213 164 -202 184 -182 C225 -144 251 -67 264 5 L342 455 L268 455 L263 428 C237 445 209 456 187 456 C138 456 103 419 80 384 C37 309 15 164 15 64 C15 42 17 17 18 0 L97 0 L213 143 L201 71 C180 -47 162 -111 144 -133 C126 -141 109 -143 91 -143 C55 -143 24 -134 -6 -119 L-22 -191 C10 -205 55 -213 89 -213 L89 -213 Z M95 92 L95 130 C96 207 125 336 163 392 C169 392 175 392 181 391 C203 388 226 378 252 362 L229 233 L105 88 L95 92 Z M231 676 L129 527 L197 527 L251 622 L255 622 L274 527 L340 527 L297 676 L231 676 Z " />
<glyph glyph-name="Gbreve" unicode="&#x11e;" horiz-adv-x="434" d="M215 -6 C273 -6 321 10 353 26 L402 301 L319 301 L279 75 C259 69 238 67 224 67 C157 67 118 99 118 192 C118 338 196 511 329 514 C370 515 404 503 428 488 L442 565 C412 582 371 589 330 589 C138 589 31 371 31 185 C31 61 89 -6 215 -6 L215 -6 Z M330 686 C302 686 290 706 285 742 L235 716 C238 668 264 627 321 627 C377 627 421 665 443 720 L404 743 C389 709 363 686 330 686 L330 686 Z " />
<glyph glyph-name="gbreve" unicode="&#x11f;" horiz-adv-x="354" d="M89 -213 C133 -213 164 -202 184 -182 C225 -144 251 -67 264 5 L342 455 L268 455 L263 428 C237 445 209 456 187 456 C138 456 103 419 80 384 C37 309 15 164 15 64 C15 42 17 17 18 0 L97 0 L213 143 L201 71 C180 -47 162 -111 144 -133 C126 -141 109 -143 91 -143 C55 -143 24 -134 -6 -119 L-22 -191 C10 -205 55 -213 89 -213 L89 -213 Z M95 92 L95 130 C96 207 125 336 163 392 C169 392 175 392 181 391 C203 388 226 378 252 362 L229 233 L105 88 L95 92 Z M235 591 C204 591 192 613 188 647 L138 621 C140 572 166 532 224 532 C279 532 324 569 345 624 L306 648 C291 614 271 591 235 591 L235 591 Z " />
<glyph glyph-name="Gdotaccent" unicode="&#x120;" horiz-adv-x="434" d="M215 -6 C273 -6 321 10 353 26 L402 301 L319 301 L279 75 C259 69 238 67 224 67 C157 67 118 99 118 192 C118 338 196 511 329 514 C370 515 404 503 428 488 L442 565 C412 582 371 589 330 589 C138 589 31 371 31 185 C31 61 89 -6 215 -6 L215 -6 Z M281 648 L351 630 L378 738 L298 740 L281 648 Z " />
<glyph glyph-name="gdotaccent" unicode="&#x121;" horiz-adv-x="354" d="M89 -213 C133 -213 164 -202 184 -182 C225 -144 251 -67 264 5 L342 455 L268 455 L263 428 C237 445 209 456 187 456 C138 456 103 419 80 384 C37 309 15 164 15 64 C15 42 17 17 18 0 L97 0 L213 143 L201 71 C180 -47 162 -111 144 -133 C126 -141 109 -143 91 -143 C55 -143 24 -134 -6 -119 L-22 -191 C10 -205 55 -213 89 -213 L89 -213 Z M95 92 L95 130 C96 207 125 336 163 392 C169 392 175 392 181 391 C203 388 226 378 252 362 L229 233 L105 88 L95 92 Z M192 567 L262 549 L289 659 L210 661 L192 567 Z " />
<glyph glyph-name="Gcommaaccent" unicode="&#x122;" horiz-adv-x="434" d="M215 -6 C273 -6 321 10 353 26 L402 301 L319 301 L279 75 C259 69 238 67 224 67 C157 67 118 99 118 192 C118 338 196 511 329 514 C370 515 404 503 428 488 L442 565 C412 582 371 589 330 589 C138 589 31 371 31 185 C31 61 89 -6 215 -6 L215 -6 Z M130 -223 L188 -223 L246 -62 L174 -62 L130 -223 Z " />
<glyph glyph-name="gcommaaccent" unicode="&#x123;" horiz-adv-x="354" d="M89 -213 C133 -213 164 -202 184 -182 C225 -144 251 -67 264 5 L342 455 L268 455 L263 428 C237 445 209 456 187 456 C138 456 103 419 80 384 C37 309 15 164 15 64 C15 42 17 17 18 0 L97 0 L213 143 L201 71 C180 -47 162 -111 144 -133 C126 -141 109 -143 91 -143 C55 -143 24 -134 -6 -119 L-22 -191 C10 -205 55 -213 89 -213 L89 -213 Z M95 92 L95 130 C96 207 125 336 163 392 C169 392 175 392 181 391 C203 388 226 378 252 362 L229 233 L105 88 L95 92 Z M312 699 L254 699 L196 535 L268 535 L312 699 Z " />
<glyph glyph-name="Hcircumflex" unicode="&#x124;" horiz-adv-x="467" d="M283 0 L367 0 L469 583 L384 583 L341 336 L155 336 L198 583 L114 583 L12 0 L96 0 L142 263 L328 263 L283 0 Z M285 752 L182 630 L249 630 L305 705 L309 705 L336 630 L404 630 L350 752 L285 752 Z " />
<glyph glyph-name="hcircumflex" unicode="&#x125;" horiz-adv-x="368" d="M76 0 L124 277 C171 335 222 370 243 379 L257 374 C260 351 258 317 244 236 L205 0 L279 0 L324 260 C332 309 337 348 337 377 C337 433 321 456 287 456 C245 456 190 420 139 362 L190 653 L116 653 L2 0 L76 0 Z M153 797 L50 675 L117 675 L173 750 L177 750 L204 675 L272 675 L218 797 L153 797 Z " />
<glyph glyph-name="Hbar" unicode="&#x126;" horiz-adv-x="471" d="M52 453 L93 453 L14 0 L98 0 L144 263 L330 263 L285 0 L369 0 L448 453 L488 453 L497 508 L458 508 L471 583 L386 583 L373 508 L187 508 L200 583 L116 583 L103 508 L62 508 L52 453 Z M177 453 L363 453 L343 336 L157 336 L177 453 Z " />
<glyph glyph-name="hbar" unicode="&#x127;" horiz-adv-x="368" d="M50 532 L95 532 L2 0 L76 0 L124 277 C171 334 221 370 243 379 L257 374 C260 351 258 317 244 236 L205 0 L279 0 L324 260 C332 309 337 348 337 377 C337 433 321 456 287 456 C245 456 190 420 138 361 L168 532 L278 532 L289 588 L178 588 L190 653 L116 653 L104 588 L60 588 L50 532 Z " />
<glyph glyph-name="Itilde" unicode="&#x128;" horiz-adv-x="197" d="M12 0 L96 0 L198 583 L114 583 L12 0 Z M272 731 C260 713 239 699 219 699 C191 699 173 732 136 732 C101 732 72 704 53 679 L71 639 C88 660 105 671 123 671 C152 671 175 638 211 638 C249 638 274 665 289 690 L272 731 Z " />
<glyph glyph-name="itilde" unicode="&#x129;" horiz-adv-x="169" d="M77 0 L155 451 L81 451 L3 0 L77 0 Z M244 646 C233 629 210 614 190 614 C163 614 145 647 108 647 C73 647 44 620 25 594 L43 554 C60 574 77 586 95 586 C125 586 147 553 183 553 C221 553 246 581 260 606 L244 646 Z " />
<glyph glyph-name="Imacron" unicode="&#x12a;" horiz-adv-x="197" d="M12 0 L96 0 L198 583 L114 583 L12 0 Z M63 662 L266 662 L278 726 L74 726 L63 662 Z " />
<glyph glyph-name="imacron" unicode="&#x12b;" horiz-adv-x="169" d="M77 0 L155 451 L81 451 L3 0 L77 0 Z M36 571 L241 571 L252 634 L48 634 L36 571 Z " />
<glyph glyph-name="Ibreve" unicode="&#x12c;" horiz-adv-x="197" d="M12 0 L96 0 L198 583 L114 583 L12 0 Z M171 687 C143 687 131 707 126 743 L76 717 C79 669 105 628 162 628 C218 628 262 666 284 721 L245 744 C230 710 204 687 171 687 L171 687 Z " />
<glyph glyph-name="ibreve" unicode="&#x12d;" horiz-adv-x="169" d="M77 0 L155 451 L81 451 L3 0 L77 0 Z M140 591 C109 591 97 613 93 647 L43 621 C45 572 71 532 129 532 C184 532 229 569 250 624 L211 648 C196 614 176 591 140 591 L140 591 Z " />
<glyph glyph-name="Iogonek" unicode="&#x12e;" horiz-adv-x="197" d="M68 -185 L76 -131 C60 -138 40 -143 25 -143 C7 -143 -7 -136 -7 -115 C-7 -77 25 -28 71 0 L96 0 L198 583 L114 583 L12 0 C-30 -32 -70 -82 -70 -137 C-70 -180 -43 -202 1 -202 C25 -202 51 -196 68 -185 L68 -185 Z " />
<glyph glyph-name="iogonek" unicode="&#x12f;" horiz-adv-x="168" d="M77 0 L155 451 L81 451 L3 0 L4 0 C-38 -32 -78 -82 -78 -137 C-78 -180 -51 -202 -7 -202 C17 -202 43 -196 60 -185 L68 -131 C52 -138 32 -143 17 -143 C-1 -143 -15 -136 -15 -115 C-15 -77 17 -28 63 0 L77 0 Z M98 567 L168 549 L195 659 L116 661 L98 567 Z " />
<glyph glyph-name="Idotaccent" unicode="&#x130;" horiz-adv-x="197" d="M126 648 L196 630 L223 738 L143 740 L126 648 Z M12 0 L96 0 L198 583 L114 583 L12 0 Z " />
<glyph glyph-name="dotlessi" unicode="&#x131;" horiz-adv-x="169" d="M77 0 L155 451 L81 451 L3 0 L77 0 Z " />
<glyph glyph-name="IJ" unicode="&#x132;" horiz-adv-x="402" d="M12 0 L96 0 L198 583 L114 583 L12 0 Z M192 -91 C268 0 319 89 335 179 L406 583 L321 583 L251 178 C236 91 182 16 129 -59 L192 -91 Z " />
<glyph glyph-name="ij" unicode="&#x133;" horiz-adv-x="336" d="M77 0 L155 451 L81 451 L2 0 L77 0 Z M171 549 L197 663 L118 665 L101 567 L171 549 Z M168 -8 C159 -60 131 -113 89 -177 L142 -210 C198 -143 231 -72 244 0 L322 451 L248 451 L168 -8 Z M338 549 L364 663 L285 665 L268 567 L338 549 Z " />
<glyph glyph-name="Jcircumflex" unicode="&#x134;" horiz-adv-x="206" d="M-3 -91 C73 0 124 89 140 179 L211 583 L126 583 L56 178 C41 91 -13 16 -66 -59 L-3 -91 Z M162 752 L59 630 L126 630 L182 705 L186 705 L213 630 L281 630 L227 752 L162 752 Z " />
<glyph glyph-name="jcircumflex" unicode="&#x135;" horiz-adv-x="169" d="M125 676 L23 527 L91 527 L145 622 L149 622 L168 527 L234 527 L191 676 L125 676 Z M2 -8 C-7 -60 -35 -113 -77 -177 L-21 -212 C33 -144 65 -75 78 -3 L155 451 L80 451 L2 -8 Z " />
<glyph glyph-name="Kcommaaccent" unicode="&#x136;" horiz-adv-x="394" d="M82 -223 L140 -223 L198 -62 L126 -62 L82 -223 Z M245 0 L336 0 L246 311 L439 583 L346 583 L161 312 L159 296 L245 0 Z M12 0 L96 0 L198 583 L114 583 L12 0 Z " />
<glyph glyph-name="kcommaaccent" unicode="&#x137;" horiz-adv-x="348" d="M77 0 L124 274 C164 324 217 373 243 388 L257 382 C249 320 228 265 178 203 L173 180 L198 0 L280 0 L251 192 C304 261 329 325 336 407 C337 418 337 433 337 444 L248 458 C223 444 178 409 140 364 L190 653 L116 653 L2 0 L77 0 Z M49 -223 L107 -223 L165 -62 L93 -62 L49 -223 Z " />
<glyph glyph-name="Lacute" unicode="&#x139;" horiz-adv-x="324" d="M12 0 L270 0 L282 74 L109 74 L198 583 L113 583 L12 0 Z M188 634 L291 748 L209 748 L123 634 L188 634 Z " />
<glyph glyph-name="lacute" unicode="&#x13a;" horiz-adv-x="175" d="M191 687 L294 801 L212 801 L126 687 L191 687 Z M81 0 L194 653 L119 653 L6 0 L81 0 Z " />
<glyph glyph-name="Lcommaaccent" unicode="&#x13b;" horiz-adv-x="324" d="M12 0 L270 0 L282 74 L109 74 L198 583 L113 583 L12 0 Z M62 -223 L120 -223 L178 -62 L106 -62 L62 -223 Z " />
<glyph glyph-name="lcommaaccent" unicode="&#x13c;" horiz-adv-x="175" d="M-45 -223 L13 -223 L71 -62 L-1 -62 L-45 -223 Z M81 0 L194 653 L119 653 L6 0 L81 0 Z " />
<glyph glyph-name="Lcaron" unicode="&#x13d;" horiz-adv-x="328" d="M12 0 L270 0 L282 74 L109 74 L198 583 L113 583 L12 0 Z M233 465 L284 465 L356 634 L285 634 L233 465 Z " />
<glyph glyph-name="lcaron" unicode="&#x13e;" horiz-adv-x="183" d="M191 484 L242 484 L314 653 L243 653 L191 484 Z M81 0 L194 653 L119 653 L6 0 L81 0 Z " />
<glyph glyph-name="Ldot" unicode="&#x13f;" horiz-adv-x="350" d="M12 0 L270 0 L282 74 L109 74 L198 583 L113 583 L12 0 Z M240 274 L310 256 L337 366 L258 368 L240 274 Z " />
<glyph glyph-name="ldot" unicode="&#x140;" horiz-adv-x="253" d="M177 275 L247 257 L274 365 L194 367 L177 275 Z M81 0 L194 653 L119 653 L6 0 L81 0 Z " />
<glyph glyph-name="Lslash" unicode="&#x141;" horiz-adv-x="330" d="M7 206 L60 236 L19 0 L277 0 L289 74 L116 74 L153 289 L244 341 L256 412 L165 358 L205 583 L120 583 L71 302 L18 270 L7 206 Z " />
<glyph glyph-name="lslash" unicode="&#x142;" horiz-adv-x="200" d="M5 234 L62 268 L16 0 L91 0 L146 317 L208 354 L220 423 L158 385 L204 653 L129 653 L74 335 L18 302 L5 234 Z " />
<glyph glyph-name="Nacute" unicode="&#x143;" horiz-adv-x="472" d="M322 634 L425 748 L343 748 L257 634 L322 634 Z M12 0 L94 0 L162 389 L164 389 L300 0 L371 0 L474 583 L391 583 L324 200 L321 200 L185 583 L114 583 L12 0 Z " />
<glyph glyph-name="nacute" unicode="&#x144;" horiz-adv-x="369" d="M77 0 L125 278 C172 335 222 370 244 379 L258 374 C261 351 259 317 245 236 L206 0 L280 0 L325 260 C333 310 338 349 338 379 C338 434 323 456 289 456 C247 456 191 419 139 360 L155 451 L81 451 L3 0 L77 0 Z M249 527 L352 678 L274 678 L189 527 L249 527 Z " />
<glyph glyph-name="Ncommaaccent" unicode="&#x145;" horiz-adv-x="472" d="M119 -223 L177 -223 L235 -62 L163 -62 L119 -223 Z M12 0 L94 0 L162 389 L164 389 L300 0 L371 0 L474 583 L391 583 L324 200 L321 200 L185 583 L114 583 L12 0 Z " />
<glyph glyph-name="ncommaaccent" unicode="&#x146;" horiz-adv-x="369" d="M77 0 L125 278 C172 335 222 370 244 379 L258 374 C261 351 259 317 245 236 L206 0 L280 0 L325 260 C333 310 338 349 338 379 C338 434 323 456 289 456 C247 456 191 419 139 360 L155 451 L81 451 L3 0 L77 0 Z M60 -223 L118 -223 L176 -62 L104 -62 L60 -223 Z " />
<glyph glyph-name="Ncaron" unicode="&#x147;" horiz-adv-x="472" d="M323 627 L426 748 L359 748 L303 674 L300 674 L272 748 L204 748 L258 627 L323 627 Z M12 0 L94 0 L162 389 L164 389 L300 0 L371 0 L474 583 L391 583 L324 200 L321 200 L185 583 L114 583 L12 0 Z " />
<glyph glyph-name="ncaron" unicode="&#x148;" horiz-adv-x="369" d="M77 0 L125 278 C172 335 222 370 244 379 L258 374 C261 351 259 317 245 236 L206 0 L280 0 L325 260 C333 310 338 349 338 379 C338 434 323 456 289 456 C247 456 191 419 139 360 L155 451 L81 451 L3 0 L77 0 Z M260 527 L361 676 L294 676 L239 581 L235 581 L217 676 L150 676 L193 527 L260 527 Z " />
<glyph glyph-name="napostrophe" unicode="&#x149;" horiz-adv-x="369" d="M77 0 L125 278 C172 335 222 370 244 379 L258 374 C261 351 259 317 245 236 L206 0 L280 0 L325 260 C333 310 338 349 338 379 C338 434 323 456 289 456 C247 456 191 419 139 360 L155 451 L81 451 L3 0 L77 0 Z M89 509 C122 555 142 608 154 660 C158 677 160 697 161 713 L100 716 C100 703 98 685 96 672 C84 618 67 574 42 530 L89 509 Z " />
<glyph glyph-name="Eng" unicode="&#x14a;" horiz-adv-x="473" d="M12 0 L94 0 L162 389 L164 389 L290 4 L299 4 C299 3 296 -14 296 -14 C283 -67 260 -113 206 -183 L262 -215 C335 -126 362 -57 376 20 L475 583 L392 583 L323 192 L321 192 L186 583 L114 583 L12 0 Z " />
<glyph glyph-name="eng" unicode="&#x14b;" horiz-adv-x="369" d="M77 0 L125 278 C172 335 222 370 244 379 L258 374 C261 351 259 317 245 236 L204 -6 C195 -58 167 -112 126 -176 L181 -210 C235 -143 267 -73 279 -1 L325 260 C333 310 338 349 338 379 C338 434 323 456 289 456 C246 456 192 420 139 361 L155 451 L81 451 L3 0 L77 0 Z " />
<glyph glyph-name="Omacron" unicode="&#x14c;" horiz-adv-x="478" d="M212 662 L415 662 L427 726 L223 726 L212 662 Z M193 -6 C368 -6 462 235 462 405 C462 519 411 589 300 589 C117 589 28 342 28 175 C28 62 85 -6 193 -6 L193 -6 Z M205 66 C146 66 114 100 114 174 C114 296 179 517 286 517 C344 517 377 487 377 413 C377 286 307 66 205 66 L205 66 Z " />
<glyph glyph-name="omacron" unicode="&#x14d;" horiz-adv-x="348" d="M125 571 L330 571 L341 634 L137 634 L125 571 Z M147 56 C131 57 113 63 105 72 C97 92 93 115 93 140 C93 229 132 363 184 395 C203 393 223 386 233 380 C242 359 246 335 245 308 C244 219 207 111 147 56 L147 56 Z M121 -5 C181 -5 230 37 263 92 C301 156 322 239 323 299 C325 411 283 456 217 456 C153 456 103 415 70 357 C33 291 17 211 16 143 C15 46 55 -5 121 -5 L121 -5 Z " />
<glyph glyph-name="Obreve" unicode="&#x14e;" horiz-adv-x="478" d="M313 686 C285 686 273 706 268 742 L218 716 C221 668 247 627 304 627 C360 627 404 665 426 720 L387 743 C372 709 346 686 313 686 L313 686 Z M193 -6 C368 -6 462 235 462 405 C462 519 411 589 300 589 C117 589 28 342 28 175 C28 62 85 -6 193 -6 L193 -6 Z M205 66 C146 66 114 100 114 174 C114 296 179 517 286 517 C344 517 377 487 377 413 C377 286 307 66 205 66 L205 66 Z " />
<glyph glyph-name="obreve" unicode="&#x14f;" horiz-adv-x="348" d="M147 56 C131 57 113 63 105 72 C97 92 93 115 93 140 C93 229 132 363 184 395 C203 393 223 386 233 380 C242 359 246 335 245 308 C244 219 207 111 147 56 L147 56 Z M121 -5 C181 -5 230 37 263 92 C301 156 322 239 323 299 C325 411 283 456 217 456 C153 456 103 415 70 357 C33 291 17 211 16 143 C15 46 55 -5 121 -5 L121 -5 Z M230 591 C199 591 187 613 183 647 L133 621 C135 572 161 532 219 532 C274 532 319 569 340 624 L301 648 C286 614 266 591 230 591 L230 591 Z " />
<glyph glyph-name="Ohungarumlaut" unicode="&#x150;" horiz-adv-x="478" d="M193 -6 C368 -6 462 235 462 405 C462 519 411 589 300 589 C117 589 28 342 28 175 C28 62 85 -6 193 -6 L193 -6 Z M205 66 C146 66 114 100 114 174 C114 296 179 517 286 517 C344 517 377 487 377 413 C377 286 307 66 205 66 L205 66 Z M267 634 L353 748 L271 748 L201 634 L267 634 Z M378 634 L487 748 L403 748 L312 634 L378 634 Z " />
<glyph glyph-name="ohungarumlaut" unicode="&#x151;" horiz-adv-x="348" d="M187 527 L285 678 L207 678 L127 527 L187 527 Z M310 527 L417 678 L339 678 L249 527 L310 527 Z M147 56 C131 57 113 63 105 72 C97 92 93 115 93 140 C93 229 132 363 184 395 C203 393 223 386 233 380 C242 359 246 335 245 308 C244 219 207 111 147 56 L147 56 Z M121 -5 C181 -5 230 37 263 92 C301 156 322 239 323 299 C325 411 283 456 217 456 C153 456 103 415 70 357 C33 291 17 211 16 143 C15 46 55 -5 121 -5 L121 -5 Z " />
<glyph glyph-name="OE" unicode="&#x152;" horiz-adv-x="613" d="M274 0 L538 0 L551 74 L371 74 L403 261 L552 261 L565 332 L416 332 L447 510 L625 510 L638 583 L375 583 L372 566 C350 581 324 589 291 589 C125 589 30 347 30 169 C30 64 78 -6 177 -6 C212 -6 248 4 278 25 L274 0 Z M206 67 C149 67 118 104 118 175 C118 302 188 517 290 517 C319 517 342 509 358 485 L292 104 C267 77 238 67 206 67 L206 67 Z " />
<glyph glyph-name="oe" unicode="&#x153;" horiz-adv-x="535" d="M121 -5 C163 -5 200 16 230 48 C232 32 235 17 240 3 L307 -6 C376 23 450 77 486 112 L458 157 C411 117 360 86 323 71 L312 76 C309 93 307 113 308 132 C308 147 308 163 309 179 C377 214 477 271 519 313 L524 414 C491 444 452 456 414 456 C370 456 334 431 307 398 C290 438 258 456 217 456 C153 456 103 415 70 357 C33 291 17 211 16 143 C15 46 55 -5 121 -5 L121 -5 Z M147 56 C131 57 113 63 105 72 C97 92 93 115 93 140 C93 229 132 363 184 395 C203 393 223 386 233 380 C242 359 246 335 245 308 C244 219 207 111 147 56 L147 56 Z M376 391 C381 392 387 392 392 392 C413 392 438 384 451 372 L448 329 C414 293 359 263 317 239 C328 302 348 359 376 391 L376 391 Z " />
<glyph glyph-name="Racute" unicode="&#x154;" horiz-adv-x="398" d="M12 0 L96 0 L134 221 L170 221 C178 221 186 221 194 222 L251 0 L342 0 L271 246 C342 285 389 363 389 458 C389 535 341 583 252 583 L113 583 L12 0 Z M224 511 C277 511 302 493 302 445 C302 372 264 291 173 291 L147 291 L185 511 L224 511 Z M282 634 L385 748 L303 748 L217 634 L282 634 Z " />
<glyph glyph-name="racute" unicode="&#x155;" horiz-adv-x="266" d="M77 0 L123 267 C159 320 195 358 216 374 L254 344 L288 421 C278 438 259 456 240 456 C218 456 177 415 138 356 L155 451 L81 451 L3 0 L77 0 Z M219 527 L322 678 L244 678 L159 527 L219 527 Z " />
<glyph glyph-name="Rcommaaccent" unicode="&#x156;" horiz-adv-x="398" d="M12 0 L96 0 L134 221 L170 221 C178 221 186 221 194 222 L251 0 L342 0 L271 246 C342 285 389 363 389 458 C389 535 341 583 252 583 L113 583 L12 0 Z M224 511 C277 511 302 493 302 445 C302 372 264 291 173 291 L147 291 L185 511 L224 511 Z M78 -223 L136 -223 L194 -62 L122 -62 L78 -223 Z " />
<glyph glyph-name="rcommaaccent" unicode="&#x157;" horiz-adv-x="266" d="M77 0 L123 267 C159 320 195 358 216 374 L254 344 L288 421 C278 438 259 456 240 456 C218 456 177 415 138 356 L155 451 L81 451 L3 0 L77 0 Z M-48 -223 L10 -223 L68 -62 L-4 -62 L-48 -223 Z " />
<glyph glyph-name="Rcaron" unicode="&#x158;" horiz-adv-x="398" d="M12 0 L96 0 L134 221 L170 221 C178 221 186 221 194 222 L251 0 L342 0 L271 246 C342 285 389 363 389 458 C389 535 341 583 252 583 L113 583 L12 0 Z M224 511 C277 511 302 493 302 445 C302 372 264 291 173 291 L147 291 L185 511 L224 511 Z M281 627 L384 748 L317 748 L261 674 L258 674 L230 748 L162 748 L216 627 L281 627 Z " />
<glyph glyph-name="rcaron" unicode="&#x159;" horiz-adv-x="266" d="M77 0 L123 267 C159 320 195 358 216 374 L254 344 L288 421 C278 438 259 456 240 456 C218 456 177 415 138 356 L155 451 L81 451 L3 0 L77 0 Z M225 527 L326 676 L259 676 L204 581 L200 581 L182 676 L115 676 L158 527 L225 527 Z " />
<glyph glyph-name="Sacute" unicode="&#x15a;" horiz-adv-x="342" d="M-10 19 C26 3 65 -6 105 -6 C213 -6 305 49 305 186 C305 259 253 292 209 326 C177 351 148 378 148 420 C148 481 190 516 245 516 C283 516 311 506 335 491 L351 565 C325 580 287 589 241 589 C144 589 65 521 65 408 C65 341 105 305 144 275 C183 243 224 218 224 167 C224 98 169 67 120 67 C79 67 45 75 8 94 L-10 19 Z M267 634 L370 748 L288 748 L202 634 L267 634 Z " />
<glyph glyph-name="sacute" unicode="&#x15b;" horiz-adv-x="273" d="M203 527 L306 678 L228 678 L143 527 L203 527 Z M267 440 C242 452 215 456 184 456 C97 456 42 386 42 324 C42 275 64 245 94 211 C122 179 142 149 152 112 C154 103 155 95 155 85 C142 70 114 62 88 62 C64 62 28 71 2 84 L-12 15 C14 3 41 -5 83 -5 C127 -5 164 11 188 35 C212 60 225 92 225 125 C225 175 192 211 162 247 C136 276 117 308 116 341 C116 353 118 364 123 377 C139 385 161 389 181 388 C205 388 230 381 253 370 L267 440 Z " />
<glyph glyph-name="Scircumflex" unicode="&#x15c;" horiz-adv-x="342" d="M-10 19 C26 3 65 -6 105 -6 C213 -6 305 49 305 186 C305 259 253 292 209 326 C177 351 148 378 148 420 C148 481 190 516 245 516 C283 516 311 506 335 491 L351 565 C325 580 287 589 241 589 C144 589 65 521 65 408 C65 341 105 305 144 275 C183 243 224 218 224 167 C224 98 169 67 120 67 C79 67 45 75 8 94 L-10 19 Z M233 752 L130 630 L197 630 L253 705 L257 705 L284 630 L352 630 L298 752 L233 752 Z " />
<glyph glyph-name="scircumflex" unicode="&#x15d;" horiz-adv-x="273" d="M187 676 L85 527 L153 527 L207 622 L211 622 L230 527 L296 527 L253 676 L187 676 Z M267 440 C242 452 215 456 184 456 C97 456 42 386 42 324 C42 275 64 245 94 211 C122 179 142 149 152 112 C154 103 155 95 155 85 C142 70 114 62 88 62 C64 62 28 71 2 84 L-12 15 C14 3 41 -5 83 -5 C127 -5 164 11 188 35 C212 60 225 92 225 125 C225 175 192 211 162 247 C136 276 117 308 116 341 C116 353 118 364 123 377 C139 385 161 389 181 388 C205 388 230 381 253 370 L267 440 Z " />
<glyph glyph-name="Scedilla" unicode="&#x15e;" horiz-adv-x="343" d="M79 -212 C148 -212 182 -165 182 -110 C182 -77 160 -48 128 -41 L143 -3 C233 8 305 65 305 186 C305 259 253 292 209 326 C177 351 148 378 148 420 C148 481 190 516 245 516 C283 516 311 506 335 491 L351 565 C325 580 287 589 241 589 C144 589 65 521 65 408 C65 341 105 305 144 275 C183 243 224 218 224 167 C224 98 169 67 120 67 C79 67 45 75 8 94 L-10 19 C23 4 59 -4 95 -6 L73 -55 L73 -72 C108 -75 121 -93 121 -116 C121 -135 108 -158 77 -158 C62 -158 41 -152 28 -143 L17 -197 C32 -206 58 -212 79 -212 L79 -212 Z " />
<glyph glyph-name="scedilla" unicode="&#x15f;" horiz-adv-x="274" d="M58 -212 C127 -212 161 -165 161 -110 C161 -77 139 -48 107 -41 L123 0 C149 6 171 18 188 35 C212 60 225 92 225 125 C225 175 192 211 162 247 C136 276 117 308 116 341 C116 353 118 364 123 377 C139 385 161 389 181 388 C205 388 230 381 253 370 L267 440 C242 452 215 456 184 456 C97 456 42 386 42 324 C42 275 64 245 94 211 C122 179 142 149 152 112 C154 103 155 95 155 85 C142 70 114 62 88 62 C64 62 28 71 2 84 L-12 15 C12 4 37 -4 75 -5 L52 -55 L52 -72 C87 -75 100 -93 100 -116 C100 -135 87 -158 56 -158 C41 -158 20 -152 7 -143 L-4 -197 C11 -206 37 -212 58 -212 L58 -212 Z " />
<glyph glyph-name="Scaron" unicode="&#x160;" horiz-adv-x="342" d="M-10 19 C26 3 65 -6 105 -6 C213 -6 305 49 305 186 C305 259 253 292 209 326 C177 351 148 378 148 420 C148 481 190 516 245 516 C283 516 311 506 335 491 L351 565 C325 580 287 589 241 589 C144 589 65 521 65 408 C65 341 105 305 144 275 C183 243 224 218 224 167 C224 98 169 67 120 67 C79 67 45 75 8 94 L-10 19 Z M275 627 L378 748 L311 748 L255 674 L252 674 L224 748 L156 748 L210 627 L275 627 Z " />
<glyph glyph-name="scaron" unicode="&#x161;" horiz-adv-x="273" d="M220 527 L321 676 L254 676 L199 581 L195 581 L177 676 L110 676 L153 527 L220 527 Z M267 440 C242 452 215 456 184 456 C97 456 42 386 42 324 C42 275 64 245 94 211 C122 179 142 149 152 112 C154 103 155 95 155 85 C142 70 114 62 88 62 C64 62 28 71 2 84 L-12 15 C14 3 41 -5 83 -5 C127 -5 164 11 188 35 C212 60 225 92 225 125 C225 175 192 211 162 247 C136 276 117 308 116 341 C116 353 118 364 123 377 C139 385 161 389 181 388 C205 388 230 381 253 370 L267 440 Z " />
<glyph glyph-name="Tcommaaccent" unicode="&#x162;" horiz-adv-x="376" d="M57 510 L192 510 L103 0 L188 0 L277 510 L411 510 L423 583 L69 583 L57 510 Z M54 -223 L112 -223 L170 -62 L98 -62 L54 -223 Z " />
<glyph glyph-name="tcommaaccent" unicode="&#x163;" horiz-adv-x="259" d="M40 390 L88 390 L22 12 L88 -7 C139 17 207 73 232 103 L208 150 C184 122 150 95 120 81 L111 87 L163 390 L250 390 L260 451 L173 451 L194 572 L120 572 L98 451 L50 451 L40 390 Z M26 -223 L84 -223 L142 -62 L70 -62 L26 -223 Z " />
<glyph glyph-name="Tcaron" unicode="&#x164;" horiz-adv-x="376" d="M57 510 L192 510 L103 0 L188 0 L277 510 L411 510 L423 583 L69 583 L57 510 Z M283 627 L386 748 L319 748 L263 674 L260 674 L232 748 L164 748 L218 627 L283 627 Z " />
<glyph glyph-name="tcaron" unicode="&#x165;" horiz-adv-x="259" d="M40 390 L88 390 L22 12 L88 -7 C139 17 207 73 232 103 L208 150 C184 122 150 95 120 81 L111 87 L163 390 L250 390 L260 451 L173 451 L194 572 L120 572 L98 451 L50 451 L40 390 Z M211 505 L262 505 L334 674 L263 674 L211 505 Z " />
<glyph glyph-name="Tbar" unicode="&#x166;" horiz-adv-x="377" d="M57 510 L192 510 L157 312 L82 312 L73 255 L147 255 L103 0 L188 0 L232 255 L314 255 L324 312 L242 312 L277 510 L411 510 L423 583 L69 583 L57 510 Z " />
<glyph glyph-name="tbar" unicode="&#x167;" horiz-adv-x="259" d="M40 390 L88 390 L72 299 L35 299 L25 247 L63 247 L22 12 L88 -7 C139 17 207 73 232 103 L208 150 C184 122 150 95 120 81 L111 87 L138 247 L211 247 L221 299 L147 299 L163 390 L250 390 L260 451 L173 451 L194 572 L120 572 L98 451 L50 451 L40 390 Z " />
<glyph glyph-name="Utilde" unicode="&#x168;" horiz-adv-x="455" d="M400 731 C388 713 367 699 347 699 C319 699 301 732 264 732 C229 732 200 704 181 679 L199 639 C216 660 233 671 251 671 C280 671 303 638 339 638 C377 638 402 665 417 690 L400 731 Z M184 -6 C280 -6 367 49 399 227 L462 583 L380 583 L316 221 C296 109 254 67 196 67 C150 67 123 88 123 150 C123 167 125 187 129 210 L194 583 L111 583 L43 203 C39 179 37 157 37 138 C37 27 104 -6 184 -6 L184 -6 Z " />
<glyph glyph-name="utilde" unicode="&#x169;" horiz-adv-x="364" d="M276 451 L228 173 C183 116 130 82 109 74 L97 79 C97 104 100 137 114 217 L153 451 L78 451 L33 184 C24 136 19 97 19 67 C19 18 33 -6 63 -6 C106 -6 165 33 213 87 L198 0 L272 0 L351 451 L276 451 Z M334 646 C323 629 300 614 280 614 C253 614 235 647 198 647 C163 647 134 620 115 594 L133 554 C150 574 167 586 185 586 C215 586 237 553 273 553 C311 553 336 581 350 606 L334 646 Z " />
<glyph glyph-name="Umacron" unicode="&#x16a;" horiz-adv-x="455" d="M194 662 L397 662 L409 726 L205 726 L194 662 Z M184 -6 C280 -6 367 49 399 227 L462 583 L380 583 L316 221 C296 109 254 67 196 67 C150 67 123 88 123 150 C123 167 125 187 129 210 L194 583 L111 583 L43 203 C39 179 37 157 37 138 C37 27 104 -6 184 -6 L184 -6 Z " />
<glyph glyph-name="umacron" unicode="&#x16b;" horiz-adv-x="364" d="M276 451 L228 173 C183 116 130 82 109 74 L97 79 C97 104 100 137 114 217 L153 451 L78 451 L33 184 C24 136 19 97 19 67 C19 18 33 -6 63 -6 C106 -6 165 33 213 87 L198 0 L272 0 L351 451 L276 451 Z M132 571 L337 571 L348 634 L144 634 L132 571 Z " />
<glyph glyph-name="Ubreve" unicode="&#x16c;" horiz-adv-x="455" d="M296 687 C268 687 256 707 251 743 L201 717 C204 669 230 628 287 628 C343 628 387 666 409 721 L370 744 C355 710 329 687 296 687 L296 687 Z M184 -6 C280 -6 367 49 399 227 L462 583 L380 583 L316 221 C296 109 254 67 196 67 C150 67 123 88 123 150 C123 167 125 187 129 210 L194 583 L111 583 L43 203 C39 179 37 157 37 138 C37 27 104 -6 184 -6 L184 -6 Z " />
<glyph glyph-name="ubreve" unicode="&#x16d;" horiz-adv-x="364" d="M276 451 L228 173 C183 116 130 82 109 74 L97 79 C97 104 100 137 114 217 L153 451 L78 451 L33 184 C24 136 19 97 19 67 C19 18 33 -6 63 -6 C106 -6 165 33 213 87 L198 0 L272 0 L351 451 L276 451 Z M238 591 C207 591 195 613 191 647 L141 621 C143 572 169 532 227 532 C282 532 327 569 348 624 L309 648 C294 614 274 591 238 591 L238 591 Z " />
<glyph glyph-name="Uring" unicode="&#x16e;" horiz-adv-x="455" d="M184 -6 C280 -6 367 49 399 227 L462 583 L380 583 L316 221 C296 109 254 67 196 67 C150 67 123 88 123 150 C123 167 125 187 129 210 L194 583 L111 583 L43 203 C39 179 37 157 37 138 C37 27 104 -6 184 -6 L184 -6 Z M306 727 C323 727 331 719 331 703 C331 673 316 644 290 644 C274 644 267 654 267 671 C267 705 282 727 306 727 L306 727 Z M313 768 C269 768 220 736 220 666 C220 625 246 603 283 603 C330 603 378 635 378 707 C378 748 351 768 313 768 L313 768 Z " />
<glyph glyph-name="uring" unicode="&#x16f;" horiz-adv-x="364" d="M276 451 L228 173 C183 116 130 82 109 74 L97 79 C97 104 100 137 114 217 L153 451 L78 451 L33 184 C24 136 19 97 19 67 C19 18 33 -6 63 -6 C106 -6 165 33 213 87 L198 0 L272 0 L351 451 L276 451 Z M253 687 C208 687 160 655 160 585 C160 545 186 522 223 522 C270 522 318 554 318 626 C318 667 291 687 253 687 L253 687 Z M246 647 C262 647 270 638 270 622 C270 593 255 564 230 564 C215 564 208 574 208 590 C208 625 222 647 246 647 L246 647 Z " />
<glyph glyph-name="Uhungarumlaut" unicode="&#x170;" horiz-adv-x="455" d="M184 -6 C280 -6 367 49 399 227 L462 583 L380 583 L316 221 C296 109 254 67 196 67 C150 67 123 88 123 150 C123 167 125 187 129 210 L194 583 L111 583 L43 203 C39 179 37 157 37 138 C37 27 104 -6 184 -6 L184 -6 Z M253 634 L339 748 L257 748 L187 634 L253 634 Z M364 634 L473 748 L389 748 L298 634 L364 634 Z " />
<glyph glyph-name="uhungarumlaut" unicode="&#x171;" horiz-adv-x="364" d="M276 451 L228 173 C183 116 130 82 109 74 L97 79 C97 104 100 137 114 217 L153 451 L78 451 L33 184 C24 136 19 97 19 67 C19 18 33 -6 63 -6 C106 -6 165 33 213 87 L198 0 L272 0 L351 451 L276 451 Z M311 527 L418 678 L340 678 L250 527 L311 527 Z M188 527 L286 678 L208 678 L128 527 L188 527 Z " />
<glyph glyph-name="Uogonek" unicode="&#x172;" horiz-adv-x="455" d="M232 -185 L240 -131 C224 -138 204 -143 189 -143 C171 -143 157 -136 157 -115 C157 -77 188 -28 234 0 C309 18 372 81 399 227 L462 583 L380 583 L316 221 C296 109 254 67 196 67 C150 67 123 88 123 150 C123 167 125 187 129 210 L194 583 L111 583 L43 203 C39 179 37 157 37 138 C37 34 96 -1 169 -5 C129 -37 94 -85 94 -137 C94 -180 121 -202 165 -202 C189 -202 215 -196 232 -185 L232 -185 Z " />
<glyph glyph-name="uogonek" unicode="&#x173;" horiz-adv-x="364" d="M276 451 L228 173 C183 116 130 82 109 74 L97 79 C97 104 100 137 114 217 L153 451 L78 451 L33 184 C24 136 19 97 19 67 C19 18 33 -6 63 -6 C106 -6 165 33 213 87 L198 0 C156 -32 116 -82 116 -137 C116 -180 143 -202 187 -202 C211 -202 237 -196 254 -185 L262 -131 C246 -138 226 -143 211 -143 C193 -143 179 -136 179 -115 C179 -77 211 -28 257 0 L272 0 L351 451 L276 451 Z " />
<glyph glyph-name="Wcircumflex" unicode="&#x174;" horiz-adv-x="644" d="M687 583 L600 583 L431 134 L428 134 L427 583 L334 583 L162 129 L159 129 L167 583 L77 583 L84 0 L181 0 L351 443 L354 443 L359 0 L454 0 L687 583 Z M378 753 L275 631 L342 631 L398 706 L402 706 L429 631 L497 631 L443 753 L378 753 Z " />
<glyph glyph-name="wcircumflex" unicode="&#x175;" horiz-adv-x="532" d="M471 451 L340 85 L333 85 C323 142 318 191 318 239 C319 312 323 380 335 451 L257 451 C251 414 247 378 245 342 L139 85 L133 85 C123 142 118 191 119 239 C119 312 124 380 135 451 L58 451 C47 391 43 333 43 274 C43 181 61 77 78 0 L160 0 L246 207 C252 134 266 59 280 0 L378 0 L550 451 L471 451 Z M299 676 L197 527 L265 527 L319 622 L323 622 L342 527 L408 527 L365 676 L299 676 Z " />
<glyph glyph-name="Ycircumflex" unicode="&#x176;" horiz-adv-x="386" d="M435 583 L352 583 L202 294 L199 294 L150 583 L63 583 L141 214 L103 0 L188 0 L222 198 L435 583 Z M246 752 L143 630 L210 630 L266 705 L270 705 L297 630 L365 630 L311 752 L246 752 Z " />
<glyph glyph-name="ycircumflex" unicode="&#x177;" horiz-adv-x="333" d="M212 676 L110 527 L178 527 L232 622 L236 622 L255 527 L321 527 L278 676 L212 676 Z M110 -207 L211 71 L351 451 L273 451 L141 85 L135 85 C124 137 119 195 119 239 C120 312 124 380 136 451 L59 451 C49 390 44 330 44 269 C44 178 60 75 77 0 L106 0 L27 -192 L29 -207 L110 -207 Z " />
<glyph glyph-name="Ydieresis" unicode="&#x178;" horiz-adv-x="386" d="M435 583 L352 583 L202 294 L199 294 L150 583 L63 583 L141 214 L103 0 L188 0 L222 198 L435 583 Z M153 649 L217 632 L242 733 L171 734 L153 649 Z M294 649 L357 632 L383 733 L311 734 L294 649 Z " />
<glyph glyph-name="Zacute" unicode="&#x179;" horiz-adv-x="355" d="M283 0 L295 74 L101 74 L394 580 L393 583 L85 583 L73 510 L261 510 L-28 3 L-27 0 L283 0 Z M253 634 L356 748 L274 748 L188 634 L253 634 Z " />
<glyph glyph-name="zacute" unicode="&#x17a;" horiz-adv-x="284" d="M203 527 L306 678 L228 678 L143 527 L203 527 Z M52 385 L194 385 L-15 46 L-17 0 L216 0 L225 67 L77 67 L287 407 L290 451 L61 451 L52 385 Z " />
<glyph glyph-name="Zdotaccent" unicode="&#x17b;" horiz-adv-x="355" d="M283 0 L295 74 L101 74 L394 580 L393 583 L85 583 L73 510 L261 510 L-28 3 L-27 0 L283 0 Z M201 647 L271 629 L298 737 L218 739 L201 647 Z " />
<glyph glyph-name="zdotaccent" unicode="&#x17c;" horiz-adv-x="284" d="M52 385 L194 385 L-15 46 L-17 0 L216 0 L225 67 L77 67 L287 407 L290 451 L61 451 L52 385 Z M152 567 L222 549 L249 659 L170 661 L152 567 Z " />
<glyph glyph-name="Zcaron" unicode="&#x17d;" horiz-adv-x="355" d="M283 0 L295 74 L101 74 L394 580 L393 583 L85 583 L73 510 L261 510 L-28 3 L-27 0 L283 0 Z M274 627 L377 748 L310 748 L254 674 L251 674 L223 748 L155 748 L209 627 L274 627 Z " />
<glyph glyph-name="zcaron" unicode="&#x17e;" horiz-adv-x="284" d="M219 527 L320 676 L253 676 L198 581 L194 581 L176 676 L109 676 L152 527 L219 527 Z M52 385 L194 385 L-15 46 L-17 0 L216 0 L225 67 L77 67 L287 407 L290 451 L61 451 L52 385 Z " />
<glyph glyph-name="uni018F" unicode="&#x18f;" horiz-adv-x="446" d="M107 559 L93 479 C138 501 190 514 236 514 C307 514 343 481 343 410 C343 390 342 365 337 333 L46 333 C31 274 18 213 18 162 C18 57 70 -6 170 -6 C343 -6 430 238 430 408 C430 533 364 589 259 589 C208 589 159 580 107 559 L107 559 Z M183 69 C128 69 104 102 104 159 C104 186 109 221 117 262 L322 262 C298 155 254 69 183 69 L183 69 Z " />
<glyph glyph-name="florin" unicode="&#x192;" horiz-adv-x="320" d="M79 28 C62 -42 42 -68 7 -68 C-6 -68 -16 -67 -29 -63 L-45 -135 C-33 -138 -17 -140 0 -140 C78 -140 134 -82 157 25 L199 254 L277 254 L287 318 L211 318 L229 413 C243 492 266 513 301 513 C314 513 326 512 339 509 L354 583 C342 586 328 588 311 588 C229 588 172 534 153 427 L133 318 L68 318 L58 254 L121 254 L79 28 Z " />
<glyph glyph-name="uni01C4" unicode="&#x1c4;" horiz-adv-x="821" d="M12 0 L167 0 C326 0 446 183 446 391 C446 531 367 583 261 583 L114 583 L12 0 Z M749 0 L761 74 L567 74 L860 580 L859 583 L551 583 L539 510 L727 510 L438 3 L439 0 L749 0 Z M229 510 C316 510 359 480 359 387 C359 235 286 74 162 74 L109 74 L185 510 L229 510 Z M739 627 L842 748 L775 748 L719 674 L716 674 L688 748 L620 748 L674 627 L739 627 Z " />
<glyph glyph-name="uni01C5" unicode="&#x1c5;" horiz-adv-x="751" d="M12 0 L167 0 C326 0 446 183 446 391 C446 531 367 583 261 583 L114 583 L12 0 Z M229 510 C316 510 359 480 359 387 C359 235 286 74 162 74 L109 74 L185 510 L229 510 Z M518 385 L660 385 L451 46 L449 0 L682 0 L691 67 L543 67 L753 407 L756 451 L527 451 L518 385 Z M685 527 L786 676 L719 676 L664 581 L660 581 L642 676 L575 676 L618 527 L685 527 Z " />
<glyph glyph-name="uni01C6" unicode="&#x1c6;" horiz-adv-x="639" d="M264 0 L378 653 L302 653 L263 429 C237 446 209 456 187 456 C138 456 103 419 80 384 C37 309 15 164 15 64 C15 42 17 17 18 0 L97 0 L213 142 L188 0 L264 0 Z M406 385 L548 385 L339 46 L337 0 L570 0 L579 67 L431 67 L641 407 L644 451 L415 451 L406 385 Z M95 92 L95 130 C96 207 125 336 163 392 C170 392 176 392 182 391 C203 388 225 378 251 362 L229 232 L105 88 L95 92 Z M573 527 L674 676 L607 676 L552 581 L548 581 L530 676 L463 676 L506 527 L573 527 Z " />
<glyph glyph-name="uni01C7" unicode="&#x1c7;" horiz-adv-x="529" d="M12 0 L270 0 L282 74 L109 74 L198 583 L113 583 L12 0 Z M319 -91 C395 0 446 89 462 179 L533 583 L448 583 L378 178 C363 91 309 16 256 -59 L319 -91 Z " />
<glyph glyph-name="uni01C8" unicode="&#x1c8;" horiz-adv-x="491" d="M12 0 L270 0 L282 74 L109 74 L198 583 L113 583 L12 0 Z M323 -8 C314 -60 286 -113 244 -177 L297 -210 C353 -143 386 -72 399 0 L477 451 L403 451 L323 -8 Z M493 549 L519 663 L440 665 L423 567 L493 549 Z " />
<glyph glyph-name="uni01C9" unicode="&#x1c9;" horiz-adv-x="343" d="M175 -8 C166 -60 138 -113 96 -177 L149 -210 C205 -143 238 -72 251 0 L329 451 L255 451 L175 -8 Z M345 549 L371 663 L292 665 L275 567 L345 549 Z M81 0 L194 653 L119 653 L6 0 L81 0 Z " />
<glyph glyph-name="uni01CA" unicode="&#x1ca;" horiz-adv-x="677" d="M468 -91 C544 0 595 89 611 179 L682 583 L597 583 L527 178 C512 91 458 16 405 -59 L468 -91 Z M12 0 L94 0 L162 389 L164 389 L300 0 L371 0 L474 583 L391 583 L324 200 L321 200 L185 583 L114 583 L12 0 Z " />
<glyph glyph-name="uni01CB" unicode="&#x1cb;" horiz-adv-x="640" d="M472 -8 C463 -60 435 -113 393 -177 L446 -210 C502 -143 535 -72 548 0 L626 451 L552 451 L472 -8 Z M642 549 L668 663 L589 665 L572 567 L642 549 Z M12 0 L94 0 L162 389 L164 389 L300 0 L371 0 L474 583 L391 583 L324 200 L321 200 L185 583 L114 583 L12 0 Z " />
<glyph glyph-name="uni01CC" unicode="&#x1cc;" horiz-adv-x="536" d="M77 0 L125 278 C172 335 222 370 244 379 L258 374 C261 351 259 317 245 236 L206 0 L280 0 L325 260 C333 310 338 349 338 379 C338 434 323 456 289 456 C247 456 191 419 139 360 L155 451 L81 451 L3 0 L77 0 Z M368 -8 C359 -60 331 -113 289 -177 L342 -210 C398 -143 431 -72 444 0 L522 451 L448 451 L368 -8 Z M538 549 L564 663 L485 665 L468 567 L538 549 Z " />
<glyph glyph-name="uni01D3" unicode="&#x1d3;" horiz-adv-x="455" d="M317 618 L420 739 L353 739 L297 665 L294 665 L266 739 L198 739 L252 618 L317 618 Z M184 -6 C280 -6 367 49 399 227 L462 583 L380 583 L316 221 C296 109 254 67 196 67 C150 67 123 88 123 150 C123 167 125 187 129 210 L194 583 L111 583 L43 203 C39 179 37 157 37 138 C37 27 104 -6 184 -6 L184 -6 Z " />
<glyph glyph-name="uni01D4" unicode="&#x1d4;" horiz-adv-x="364" d="M276 451 L228 173 C183 116 130 82 109 74 L97 79 C97 104 100 137 114 217 L153 451 L78 451 L33 184 C24 136 19 97 19 67 C19 18 33 -6 63 -6 C106 -6 165 33 213 87 L198 0 L272 0 L351 451 L276 451 Z M260 527 L361 676 L294 676 L239 581 L235 581 L217 676 L150 676 L193 527 L260 527 Z " />
<glyph glyph-name="uni01E2" unicode="&#x1e2;" horiz-adv-x="550" d="M211 0 L476 0 L488 74 L309 74 L341 261 L491 261 L502 332 L353 332 L384 510 L564 510 L576 583 L272 583 L-39 0 L45 0 L128 166 L240 166 L211 0 Z M345 661 L548 661 L560 725 L356 725 L345 661 Z M291 488 L296 488 L253 240 L166 240 L291 488 Z " />
<glyph glyph-name="uni01E3" unicode="&#x1e3;" horiz-adv-x="522" d="M474 110 L445 156 C400 115 348 84 310 69 L301 74 C297 89 296 107 295 124 C295 142 295 161 297 180 C365 215 466 272 506 315 L512 414 C479 444 440 456 403 456 C364 456 329 435 302 405 C270 429 219 456 188 456 C139 456 104 417 81 382 C46 321 16 191 16 83 C16 53 17 24 20 0 L98 0 L217 141 C216 123 216 106 216 89 C216 58 220 27 227 1 L295 -8 C363 22 439 75 474 110 L474 110 Z M96 91 C96 108 95 121 95 135 C96 224 130 344 164 392 C173 393 182 392 191 389 C216 384 239 371 265 351 C248 312 235 269 227 223 L106 87 L96 91 Z M216 571 L421 571 L432 634 L228 634 L216 571 Z M364 391 C368 392 374 392 379 392 C400 392 425 385 440 372 L435 331 C402 295 346 265 305 242 C317 304 337 359 364 391 L364 391 Z " />
<glyph glyph-name="uni01F1" unicode="&#x1f1;" horiz-adv-x="811" d="M12 0 L167 0 C326 0 446 183 446 391 C446 531 367 583 261 583 L114 583 L12 0 Z M738 0 L750 74 L556 74 L849 580 L848 583 L540 583 L528 510 L716 510 L427 3 L428 0 L738 0 Z M229 510 C316 510 359 480 359 387 C359 235 286 74 162 74 L109 74 L185 510 L229 510 Z " />
<glyph glyph-name="uni01F2" unicode="&#x1f2;" horiz-adv-x="751" d="M12 0 L167 0 C326 0 446 183 446 391 C446 531 367 583 261 583 L114 583 L12 0 Z M229 510 C316 510 359 480 359 387 C359 235 286 74 162 74 L109 74 L185 510 L229 510 Z M518 385 L660 385 L451 46 L449 0 L682 0 L691 67 L543 67 L753 407 L756 451 L527 451 L518 385 Z " />
<glyph glyph-name="uni01F3" unicode="&#x1f3;" horiz-adv-x="639" d="M264 0 L378 653 L302 653 L263 429 C237 446 209 456 187 456 C138 456 103 419 80 384 C37 309 15 164 15 64 C15 42 17 17 18 0 L97 0 L213 142 L188 0 L264 0 Z M406 385 L548 385 L339 46 L337 0 L570 0 L579 67 L431 67 L641 407 L644 451 L415 451 L406 385 Z M95 92 L95 130 C96 207 125 336 163 392 C170 392 176 392 182 391 C203 388 225 378 251 362 L229 232 L105 88 L95 92 Z " />
<glyph glyph-name="AEacute" unicode="&#x1fc;" horiz-adv-x="550" d="M211 0 L476 0 L488 74 L309 74 L341 261 L491 261 L502 332 L353 332 L384 510 L564 510 L576 583 L272 583 L-39 0 L45 0 L128 166 L240 166 L211 0 Z M291 488 L296 488 L253 240 L166 240 L291 488 Z M448 635 L551 749 L469 749 L383 635 L448 635 Z " />
<glyph glyph-name="aeacute" unicode="&#x1fd;" horiz-adv-x="522" d="M474 110 L445 156 C400 115 348 84 310 69 L301 74 C297 89 296 107 295 124 C295 142 295 161 297 180 C365 215 466 272 506 315 L512 414 C479 444 440 456 403 456 C364 456 329 435 302 405 C270 429 219 456 188 456 C139 456 104 417 81 382 C46 321 16 191 16 83 C16 53 17 24 20 0 L98 0 L217 141 C216 123 216 106 216 89 C216 58 220 27 227 1 L295 -8 C363 22 439 75 474 110 L474 110 Z M96 91 C96 108 95 121 95 135 C96 224 130 344 164 392 C173 393 182 392 191 389 C216 384 239 371 265 351 C248 312 235 269 227 223 L106 87 L96 91 Z M364 391 C368 392 374 392 379 392 C400 392 425 385 440 372 L435 331 C402 295 346 265 305 242 C317 304 337 359 364 391 L364 391 Z M333 527 L436 678 L358 678 L273 527 L333 527 Z " />
<glyph glyph-name="Oslashacute" unicode="&#x1fe;" horiz-adv-x="478" d="M193 -6 C368 -6 462 235 462 405 C462 447 455 483 440 512 L498 589 L438 589 L410 552 C384 576 347 589 300 589 C117 589 28 342 28 175 C28 135 34 102 48 74 L-13 -6 L49 -6 L78 33 C106 7 144 -6 193 -6 L193 -6 Z M205 66 C170 66 145 77 130 102 L376 428 C377 423 377 418 377 413 C377 286 307 66 205 66 L205 66 Z M114 174 C114 296 179 517 286 517 C319 517 343 507 359 485 L114 161 L114 174 Z M319 634 L422 748 L340 748 L254 634 L319 634 Z " />
<glyph glyph-name="oslashacute" unicode="&#x1ff;" horiz-adv-x="351" d="M123 -5 C183 -5 232 37 265 92 C303 156 324 239 325 299 C325 332 322 359 316 381 L373 456 L320 456 L295 422 C276 445 250 456 219 456 C155 456 105 415 72 357 C35 291 19 211 18 143 C17 114 21 89 27 69 L-29 -6 L23 -6 L49 28 C67 6 92 -5 123 -5 L123 -5 Z M186 395 C205 393 225 386 235 380 C238 372 241 363 243 354 L95 159 C100 247 137 365 186 395 L186 395 Z M149 56 C133 57 115 63 107 72 C104 79 101 87 99 95 L246 288 C240 203 204 107 149 56 L149 56 Z M247 527 L350 678 L272 678 L187 527 L247 527 Z " />
<glyph glyph-name="Scommaaccent" unicode="&#x218;" horiz-adv-x="342" d="M47 -223 L105 -223 L163 -62 L91 -62 L47 -223 Z M-10 19 C26 3 65 -6 105 -6 C213 -6 305 49 305 186 C305 259 253 292 209 326 C177 351 148 378 148 420 C148 481 190 516 245 516 C283 516 311 506 335 491 L351 565 C325 580 287 589 241 589 C144 589 65 521 65 408 C65 341 105 305 144 275 C183 243 224 218 224 167 C224 98 169 67 120 67 C79 67 45 75 8 94 L-10 19 Z " />
<glyph glyph-name="scommaaccent" unicode="&#x219;" horiz-adv-x="273" d="M17 -223 L75 -223 L133 -62 L61 -62 L17 -223 Z M267 440 C242 452 215 456 184 456 C97 456 42 386 42 324 C42 275 64 245 94 211 C122 179 142 149 152 112 C154 103 155 95 155 85 C142 70 114 62 88 62 C64 62 28 71 2 84 L-12 15 C14 3 41 -5 83 -5 C127 -5 164 11 188 35 C212 60 225 92 225 125 C225 175 192 211 162 247 C136 276 117 308 116 341 C116 353 118 364 123 377 C139 385 161 389 181 388 C205 388 230 381 253 370 L267 440 Z " />
<glyph glyph-name="uni021A" unicode="&#x21a;" horiz-adv-x="376" d="M57 510 L192 510 L103 0 L188 0 L277 510 L411 510 L423 583 L69 583 L57 510 Z M56 -223 L114 -223 L172 -62 L100 -62 L56 -223 Z " />
<glyph glyph-name="uni021B" unicode="&#x21b;" horiz-adv-x="259" d="M40 390 L88 390 L22 12 L88 -7 C139 17 207 73 232 103 L208 150 C184 122 150 95 120 81 L111 87 L163 390 L250 390 L260 451 L173 451 L194 572 L120 572 L98 451 L50 451 L40 390 Z M26 -223 L84 -223 L142 -62 L70 -62 L26 -223 Z " />
<glyph glyph-name="uni0232" unicode="&#x232;" horiz-adv-x="386" d="M435 583 L352 583 L202 294 L199 294 L150 583 L63 583 L141 214 L103 0 L188 0 L222 198 L435 583 Z M155 661 L358 661 L370 725 L166 725 L155 661 Z " />
<glyph glyph-name="uni0233" unicode="&#x233;" horiz-adv-x="333" d="M110 -207 L211 71 L351 451 L273 451 L141 85 L135 85 C124 137 119 195 119 239 C120 312 124 380 136 451 L59 451 C49 390 44 330 44 269 C44 178 60 75 77 0 L106 0 L27 -192 L29 -207 L110 -207 Z M119 571 L324 571 L335 634 L131 634 L119 571 Z " />
<glyph glyph-name="uni0237" unicode="&#x237;" horiz-adv-x="169" d="M2 -8 C-7 -60 -35 -113 -77 -177 L-21 -212 C33 -144 65 -75 78 -3 L155 451 L80 451 L2 -8 Z " />
<glyph glyph-name="uni0259" unicode="&#x259;" horiz-adv-x="320" d="M37 339 L65 294 C112 334 163 365 200 380 L211 375 C214 358 216 338 215 319 C215 303 214 288 213 272 C145 237 45 179 4 138 L-1 37 C32 7 71 -5 109 -5 C171 -5 218 46 245 100 C278 175 295 266 295 361 C295 391 292 422 283 448 L216 457 C147 428 73 374 37 339 L37 339 Z M147 60 C142 59 136 59 131 59 C110 59 85 67 72 79 L75 122 C108 157 164 188 205 211 C194 149 174 92 147 60 L147 60 Z " />
<glyph glyph-name="circumflex" unicode="&#x2c6;" horiz-adv-x="355" d="M248 676 L146 527 L214 527 L268 622 L272 622 L291 527 L357 527 L314 676 L248 676 Z " />
<glyph glyph-name="caron" unicode="&#x2c7;" horiz-adv-x="417" d="M313 527 L414 676 L347 676 L292 581 L288 581 L270 676 L203 676 L246 527 L313 527 Z " />
<glyph glyph-name="breve" unicode="&#x2d8;" horiz-adv-x="320" d="M242 591 C211 591 199 613 195 647 L145 621 C147 572 173 532 231 532 C286 532 331 569 352 624 L313 648 C298 614 278 591 242 591 L242 591 Z " />
<glyph glyph-name="dotaccent" unicode="&#x2d9;" horiz-adv-x="261" d="M169 567 L239 549 L266 659 L187 661 L169 567 Z " />
<glyph glyph-name="ring" unicode="&#x2da;" horiz-adv-x="294" d="M242 647 C258 647 266 638 266 622 C266 593 251 564 226 564 C211 564 204 574 204 590 C204 625 218 647 242 647 L242 647 Z M249 687 C204 687 156 655 156 585 C156 545 182 522 219 522 C266 522 314 554 314 626 C314 667 287 687 249 687 L249 687 Z " />
<glyph glyph-name="ogonek" unicode="&#x2db;" horiz-adv-x="267" d="M177 -185 L185 -131 C169 -138 149 -143 134 -143 C116 -143 102 -136 102 -115 C102 -75 138 -22 189 5 L159 24 C107 -2 39 -65 39 -137 C39 -180 66 -202 110 -202 C134 -202 160 -196 177 -185 L177 -185 Z " />
<glyph glyph-name="tilde" unicode="&#x2dc;" horiz-adv-x="378" d="M364 646 C353 629 330 614 310 614 C283 614 265 647 228 647 C193 647 164 620 145 594 L163 554 C180 574 197 586 215 586 C245 586 267 553 303 553 C341 553 366 581 380 606 L364 646 Z " />
<glyph glyph-name="hungarumlaut" unicode="&#x2dd;" horiz-adv-x="429" d="M188 527 L286 678 L208 678 L128 527 L188 527 Z M311 527 L418 678 L340 678 L250 527 L311 527 Z " />
<glyph glyph-name="dotbelowcmb" unicode="&#x323;" d="M-239 -177 L-169 -195 L-142 -86 L-221 -84 L-239 -177 Z " />
<glyph glyph-name="uni0394" unicode="&#x394;" horiz-adv-x="409" d="M346 0 L357 62 L317 583 L226 583 L-13 61 L-23 0 L346 0 Z M247 489 L251 489 L265 72 L75 72 L247 489 Z " />
<glyph glyph-name="Sigma" unicode="&#x3a3;" horiz-adv-x="347" d="M-11 0 L271 0 L283 74 L90 74 L215 292 L171 512 L352 512 L365 583 L94 583 L83 519 L129 289 L0 65 L-11 0 Z " />
<glyph glyph-name="pi" unicode="&#x3c0;" horiz-adv-x="414" d="M353 382 L399 382 L411 451 L60 451 L49 382 L93 382 L27 0 L100 0 L167 382 L279 382 L222 60 C214 17 231 -5 277 -5 C295 -5 316 -2 336 8 L345 61 C334 59 324 59 317 59 C301 59 298 72 304 106 L353 382 Z " />
<glyph glyph-name="uni1E46" unicode="&#x1e46;" horiz-adv-x="472" d="M129 -177 L199 -195 L226 -86 L147 -84 L129 -177 Z M12 0 L94 0 L162 389 L164 389 L300 0 L371 0 L474 583 L391 583 L324 200 L321 200 L185 583 L114 583 L12 0 Z " />
<glyph glyph-name="uni1E47" unicode="&#x1e47;" horiz-adv-x="369" d="M77 0 L125 278 C172 335 222 370 244 379 L258 374 C261 351 259 317 245 236 L206 0 L280 0 L325 260 C333 310 338 349 338 379 C338 434 323 456 289 456 C247 456 191 419 139 360 L155 451 L81 451 L3 0 L77 0 Z M78 -177 L148 -195 L175 -86 L96 -84 L78 -177 Z " />
<glyph glyph-name="uni1E62" unicode="&#x1e62;" horiz-adv-x="342" d="M60 -177 L130 -195 L157 -86 L78 -84 L60 -177 Z M-10 19 C26 3 65 -6 105 -6 C213 -6 305 49 305 186 C305 259 253 292 209 326 C177 351 148 378 148 420 C148 481 190 516 245 516 C283 516 311 506 335 491 L351 565 C325 580 287 589 241 589 C144 589 65 521 65 408 C65 341 105 305 144 275 C183 243 224 218 224 167 C224 98 169 67 120 67 C79 67 45 75 8 94 L-10 19 Z " />
<glyph glyph-name="uni1E63" unicode="&#x1e63;" horiz-adv-x="273" d="M31 -177 L101 -195 L128 -86 L49 -84 L31 -177 Z M267 440 C242 452 215 456 184 456 C97 456 42 386 42 324 C42 275 64 245 94 211 C122 179 142 149 152 112 C154 103 155 95 155 85 C142 70 114 62 88 62 C64 62 28 71 2 84 L-12 15 C14 3 41 -5 83 -5 C127 -5 164 11 188 35 C212 60 225 92 225 125 C225 175 192 211 162 247 C136 276 117 308 116 341 C116 353 118 364 123 377 C139 385 161 389 181 388 C205 388 230 381 253 370 L267 440 Z " />
<glyph glyph-name="Wgrave" unicode="&#x1e80;" horiz-adv-x="644" d="M410 634 L342 748 L260 748 L344 634 L410 634 Z M687 583 L600 583 L431 134 L428 134 L427 583 L334 583 L162 129 L159 129 L167 583 L77 583 L84 0 L181 0 L351 443 L354 443 L359 0 L454 0 L687 583 Z " />
<glyph glyph-name="wgrave" unicode="&#x1e81;" horiz-adv-x="532" d="M471 451 L340 85 L333 85 C323 142 318 191 318 239 C319 312 323 380 335 451 L257 451 C251 414 247 378 245 342 L139 85 L133 85 C123 142 118 191 119 239 C119 312 124 380 135 451 L58 451 C47 391 43 333 43 274 C43 181 61 77 78 0 L160 0 L246 207 C252 134 266 59 280 0 L378 0 L550 451 L471 451 Z M331 527 L246 678 L168 678 L271 527 L331 527 Z " />
<glyph glyph-name="Wacute" unicode="&#x1e82;" horiz-adv-x="644" d="M413 631 L516 745 L434 745 L348 631 L413 631 Z M687 583 L600 583 L431 134 L428 134 L427 583 L334 583 L162 129 L159 129 L167 583 L77 583 L84 0 L181 0 L351 443 L354 443 L359 0 L454 0 L687 583 Z " />
<glyph glyph-name="wacute" unicode="&#x1e83;" horiz-adv-x="532" d="M471 451 L340 85 L333 85 C323 142 318 191 318 239 C319 312 323 380 335 451 L257 451 C251 414 247 378 245 342 L139 85 L133 85 C123 142 118 191 119 239 C119 312 124 380 135 451 L58 451 C47 391 43 333 43 274 C43 181 61 77 78 0 L160 0 L246 207 C252 134 266 59 280 0 L378 0 L550 451 L471 451 Z M332 527 L435 678 L357 678 L272 527 L332 527 Z " />
<glyph glyph-name="Wdieresis" unicode="&#x1e84;" horiz-adv-x="644" d="M283 649 L347 632 L372 733 L301 734 L283 649 Z M424 649 L487 632 L513 733 L441 734 L424 649 Z M687 583 L600 583 L431 134 L428 134 L427 583 L334 583 L162 129 L159 129 L167 583 L77 583 L84 0 L181 0 L351 443 L354 443 L359 0 L454 0 L687 583 Z " />
<glyph glyph-name="wdieresis" unicode="&#x1e85;" horiz-adv-x="532" d="M471 451 L340 85 L333 85 C323 142 318 191 318 239 C319 312 323 380 335 451 L257 451 C251 414 247 378 245 342 L139 85 L133 85 C123 142 118 191 119 239 C119 312 124 380 135 451 L58 451 C47 391 43 333 43 274 C43 181 61 77 78 0 L160 0 L246 207 C252 134 266 59 280 0 L378 0 L550 451 L471 451 Z M342 562 L406 546 L432 647 L360 649 L342 562 Z M201 562 L264 546 L290 647 L219 649 L201 562 Z " />
<glyph glyph-name="uni1EBC" unicode="&#x1ebc;" horiz-adv-x="350" d="M12 0 L276 0 L288 74 L109 74 L142 264 L290 264 L302 335 L154 335 L185 510 L362 510 L375 583 L113 583 L12 0 Z M366 731 C354 713 333 699 313 699 C285 699 267 732 230 732 C195 732 166 704 147 679 L165 639 C182 660 199 671 217 671 C246 671 269 638 305 638 C343 638 368 665 383 690 L366 731 Z " />
<glyph glyph-name="uni1EBD" unicode="&#x1ebd;" horiz-adv-x="322" d="M273 112 L245 157 C198 117 147 86 110 71 L99 76 C96 93 94 113 95 132 C95 147 95 163 96 179 C164 214 264 271 306 313 L311 414 C278 444 239 456 201 456 C139 456 92 405 65 351 C32 276 15 185 15 90 C15 60 18 29 27 3 L94 -6 C163 23 237 77 273 112 L273 112 Z M323 646 C312 629 289 614 269 614 C242 614 224 647 187 647 C152 647 123 620 104 594 L122 554 C139 574 156 586 174 586 C204 586 226 553 262 553 C300 553 325 581 339 606 L323 646 Z M163 391 C168 392 174 392 179 392 C200 392 225 384 238 372 L235 329 C201 293 146 263 104 239 C115 302 135 359 163 391 L163 391 Z " />
<glyph glyph-name="Ygrave" unicode="&#x1ef2;" horiz-adv-x="386" d="M435 583 L352 583 L202 294 L199 294 L150 583 L63 583 L141 214 L103 0 L188 0 L222 198 L435 583 Z M295 634 L227 748 L145 748 L229 634 L295 634 Z " />
<glyph glyph-name="ygrave" unicode="&#x1ef3;" horiz-adv-x="333" d="M110 -207 L211 71 L351 451 L273 451 L141 85 L135 85 C124 137 119 195 119 239 C120 312 124 380 136 451 L59 451 C49 390 44 330 44 269 C44 178 60 75 77 0 L106 0 L27 -192 L29 -207 L110 -207 Z M254 521 L169 672 L91 672 L194 521 L254 521 Z " />
<glyph glyph-name="uni2004" unicode="&#x2004;" horiz-adv-x="333" d="" />
<glyph glyph-name="uni2007" unicode="&#x2007;" horiz-adv-x="600" d="" />
<glyph glyph-name="uni2009" unicode="&#x2009;" horiz-adv-x="160" d="" />
<glyph glyph-name="uni200A" unicode="&#x200a;" horiz-adv-x="80" d="" />
<glyph glyph-name="uni200B" unicode="&#x200b;" d="" />
<glyph glyph-name="uni2012" unicode="&#x2012;" horiz-adv-x="378" d="M388 226 L388 303 L-10 303 L-10 226 L388 226 Z " />
<glyph glyph-name="endash" unicode="&#x2013;" horiz-adv-x="347" d="M42 219 L294 219 L301 278 L50 278 L42 219 Z " />
<glyph glyph-name="emdash" unicode="&#x2014;" horiz-adv-x="660" d="M42 219 L607 219 L614 278 L50 278 L42 219 Z " />
<glyph glyph-name="quoteleft" unicode="&#x2018;" horiz-adv-x="164" d="M160 672 C124 621 101 562 88 505 C83 487 81 464 79 446 L147 442 C148 458 150 477 152 492 C165 551 184 600 212 648 L160 672 Z " />
<glyph glyph-name="quoteright" unicode="&#x2019;" horiz-adv-x="167" d="M124 446 C160 497 183 556 196 613 C201 631 203 654 205 672 L137 676 C136 660 134 641 132 626 C119 567 100 518 72 470 L124 446 Z " />
<glyph glyph-name="quotesinglbase" unicode="&#x201a;" horiz-adv-x="166" d="M7 -136 C43 -85 65 -25 79 33 C83 51 85 73 87 91 L19 95 L14 45 C1 -14 -18 -63 -46 -112 L7 -136 Z " />
<glyph glyph-name="quotedblleft" unicode="&#x201c;" horiz-adv-x="295" d="M160 672 C124 621 101 562 88 505 C83 487 81 464 79 446 L147 442 C148 458 150 477 152 492 C165 551 184 600 212 648 L160 672 Z M290 672 C254 621 231 562 218 505 C213 487 211 464 209 446 L277 442 C278 458 280 477 282 492 C295 551 314 600 342 648 L290 672 Z " />
<glyph glyph-name="quotedblright" unicode="&#x201d;" horiz-adv-x="301" d="M121 437 C157 488 180 547 193 604 C198 622 200 645 202 663 L134 667 C133 651 131 632 129 617 C116 558 97 509 69 461 L121 437 Z M255 437 C291 488 314 547 327 604 C332 622 334 645 336 663 L268 667 C267 651 265 632 263 617 C250 558 231 509 203 461 L255 437 Z " />
<glyph glyph-name="quotedblbase" unicode="&#x201e;" horiz-adv-x="298" d="M7 -136 C43 -85 65 -25 79 33 C83 51 85 73 87 91 L19 95 L14 45 C1 -14 -18 -63 -46 -112 L7 -136 Z M139 -136 C175 -85 197 -25 211 33 C215 51 217 73 219 91 L151 95 L146 45 C133 -14 114 -63 86 -112 L139 -136 Z " />
<glyph glyph-name="dagger" unicode="&#x2020;" horiz-adv-x="348" d="M46 391 L166 391 L98 0 L163 0 L231 391 L351 391 L361 454 L242 454 L277 653 L212 653 L177 454 L57 454 L46 391 Z " />
<glyph glyph-name="daggerdbl" unicode="&#x2021;" horiz-adv-x="374" d="M59 394 L179 394 L153 246 L33 246 L22 184 L142 184 L110 0 L175 0 L207 184 L327 184 L338 246 L218 246 L244 394 L364 394 L375 456 L255 456 L289 653 L224 653 L190 456 L71 456 L59 394 Z " />
<glyph glyph-name="bullet" unicode="&#x2022;" horiz-adv-x="360" d="M169 165 C245 165 314 221 314 307 C314 369 276 427 204 427 C126 427 60 368 60 283 C60 221 100 165 169 165 L169 165 Z " />
<glyph glyph-name="ellipsis" unicode="&#x2026;" horiz-adv-x="528" d="M1 -2 L74 -10 L108 118 L25 119 L1 -2 Z M177 -2 L250 -10 L284 118 L201 119 L177 -2 Z M352 -2 L425 -10 L459 118 L376 119 L352 -2 Z " />
<glyph glyph-name="perthousand" unicode="&#x2030;" horiz-adv-x="729" d="M130 284 C209 284 258 393 258 490 C258 554 228 591 180 591 C106 591 52 493 52 382 C52 317 83 284 130 284 L130 284 Z M139 334 C119 334 108 352 108 383 C108 454 141 540 172 540 C191 540 202 523 202 493 C202 426 171 334 139 334 L139 334 Z M290 364 L343 364 L474 567 L476 583 L409 583 L290 364 Z M258 231 L206 231 L67 16 L64 0 L132 0 L258 231 Z M347 -8 C427 -8 477 102 477 199 C477 263 445 300 398 300 C324 300 270 199 270 92 C270 27 302 -8 347 -8 L347 -8 Z M356 43 C336 43 326 61 326 91 C326 160 357 249 389 249 C409 249 419 232 419 203 C419 133 388 43 356 43 L356 43 Z M562 -8 C642 -8 692 102 692 199 C692 263 660 300 613 300 C539 300 485 199 485 92 C485 27 517 -8 562 -8 L562 -8 Z M571 43 C551 43 541 61 541 91 C541 160 572 249 604 249 C624 249 634 232 634 203 C634 133 603 43 571 43 L571 43 Z " />
<glyph glyph-name="guilsinglleft" unicode="&#x2039;" horiz-adv-x="208" d="M65 46 L136 46 L113 226 L196 405 L128 405 L26 226 L65 46 Z " />
<glyph glyph-name="guilsinglright" unicode="&#x203a;" horiz-adv-x="208" d="M132 408 L61 408 L84 228 L1 49 L69 49 L171 228 L132 408 Z " />
<glyph glyph-name="uni203D" unicode="&#x203d;" horiz-adv-x="274" d="M90 296 L115 183 L163 197 L155 286 C175 305 210 339 214 346 C254 390 281 423 281 456 C282 513 231 578 122 596 L102 532 C154 521 205 497 229 457 C205 421 177 385 148 347 L129 460 L66 443 L90 296 Z M53 1 L126 -7 L159 118 L77 119 L53 1 Z " />
<glyph glyph-name="fraction" unicode="&#x2044;" horiz-adv-x="131" d="M-79 0 L262 564 L262 568 L215 568 L-125 4 L-125 0 L-79 0 Z " />
<glyph glyph-name="zerosuperior" unicode="&#x2070;" horiz-adv-x="241" d="M282 625 C282 676 258 716 203 716 C119 716 76 625 66 524 C64 510 64 496 64 484 C64 430 91 395 145 395 C232 395 273 496 280 590 C282 602 282 615 282 625 L282 625 Z M152 441 C130 441 121 455 121 491 C121 501 123 510 124 525 C131 601 155 670 194 670 C216 670 223 655 223 618 C223 607 222 598 221 581 C212 510 191 441 152 441 L152 441 Z " />
<glyph glyph-name="i.superior" unicode="&#x2071;" horiz-adv-x="124" d="M115 400 L171 710 L114 710 L57 400 L115 400 Z M183 777 L203 855 L142 857 L129 790 L183 777 Z " />
<glyph glyph-name="foursuperior" unicode="&#x2074;" horiz-adv-x="214" d="M239 480 L246 523 L218 523 L253 712 L194 712 L53 520 L46 480 L153 480 L139 400 L195 400 L210 480 L239 480 Z M100 523 L183 640 L161 523 L100 523 Z " />
<glyph glyph-name="fivesuperior" unicode="&#x2075;" horiz-adv-x="197" d="M49 408 C64 402 92 395 114 395 C178 395 225 443 227 510 C227 558 199 587 174 597 C159 597 142 590 130 583 L149 664 L242 664 L250 710 L112 710 L73 542 L87 536 C104 545 125 550 145 554 C159 544 168 529 167 500 C165 457 139 441 113 441 C94 441 73 447 56 453 L49 408 Z " />
<glyph glyph-name="sixsuperior" unicode="&#x2076;" horiz-adv-x="219" d="M267 707 C249 713 230 716 214 716 C125 716 67 603 63 508 C60 441 91 395 135 395 C190 395 247 450 250 512 C252 555 229 585 204 598 C185 598 154 586 129 568 C135 593 144 615 154 633 C168 656 186 670 208 670 C224 670 238 670 257 663 L267 707 Z M178 555 C191 541 193 530 192 506 C189 470 167 445 144 437 C125 444 117 462 119 504 C119 511 120 518 121 525 C141 541 163 553 178 555 L178 555 Z " />
<glyph glyph-name="sevensuperior" unicode="&#x2077;" horiz-adv-x="176" d="M78 663 L180 663 L55 407 L57 400 L109 400 L248 692 L246 710 L85 710 L78 663 Z " />
<glyph glyph-name="eightsuperior" unicode="&#x2078;" horiz-adv-x="226" d="M272 649 C273 683 237 716 189 716 C132 716 91 670 90 632 C89 610 109 585 132 559 C92 540 54 505 53 468 C52 438 82 395 137 395 C200 395 246 429 247 481 C247 505 223 535 198 564 C234 584 271 618 272 649 L272 649 Z M194 471 C183 452 167 439 143 439 C124 439 110 452 105 469 C112 497 127 519 151 538 C173 513 193 489 194 471 L194 471 Z M142 644 C151 659 165 673 180 673 C201 673 213 664 216 643 C212 623 200 603 178 586 C159 608 143 629 142 644 L142 644 Z " />
<glyph glyph-name="ninesuperior" unicode="&#x2079;" horiz-adv-x="219" d="M57 403 C75 397 94 394 110 394 C199 394 257 507 261 602 C264 669 233 715 189 715 C134 715 77 660 74 598 C72 555 95 525 120 512 C139 512 169 524 195 542 C188 517 179 494 170 477 C156 454 138 440 116 440 C100 440 86 440 67 447 L57 403 Z M146 555 C133 569 131 580 132 604 C135 640 157 665 180 673 C199 666 207 648 205 606 L203 584 C183 568 161 556 146 555 L146 555 Z " />
<glyph glyph-name="plussuperior" unicode="&#x207a;" horiz-adv-x="234" d="M62 529 L140 529 L124 439 L173 439 L189 529 L267 529 L277 583 L198 583 L215 673 L166 673 L149 583 L71 583 L62 529 Z " />
<glyph glyph-name="minussuperior" unicode="&#x207b;" horiz-adv-x="254" d="M75 531 L277 531 L286 585 L84 585 L75 531 Z " />
<glyph glyph-name="equalsuperior" unicode="&#x207c;" horiz-adv-x="246" d="M63 465 L257 465 L266 521 L73 521 L63 465 Z M87 599 L280 599 L290 654 L97 654 L87 599 Z " />
<glyph glyph-name="parenleftsuperior" unicode="&#x207d;" horiz-adv-x="140" d="M156 307 C142 329 112 388 115 479 C118 670 219 814 248 846 L193 846 C167 819 62 676 59 479 C57 382 88 331 102 307 L156 307 Z " />
<glyph glyph-name="parenrightsuperior" unicode="&#x207e;" horiz-adv-x="139" d="M97 846 C110 824 140 764 137 674 C134 481 34 338 4 307 L59 307 C86 334 190 478 193 675 C195 771 165 822 151 846 L97 846 Z " />
<glyph glyph-name="n.superior" unicode="&#x207f;" horiz-adv-x="268" d="M116 400 L150 592 C183 631 218 653 233 659 L244 654 C246 639 243 617 234 562 L205 400 L263 400 L295 579 C301 612 304 638 304 659 C304 699 292 717 268 717 C236 717 197 689 160 647 L172 710 L115 710 L57 400 L116 400 Z " />
<glyph glyph-name="zeroinferior" unicode="&#x2080;" horiz-adv-x="241" d="M212 225 C212 276 188 316 133 316 C49 316 6 225 -4 124 C-6 110 -6 96 -6 84 C-6 30 21 -5 75 -5 C162 -5 203 96 210 190 C212 202 212 215 212 225 L212 225 Z M82 41 C60 41 51 55 51 91 C51 101 53 110 54 125 C61 201 85 270 124 270 C146 270 153 255 153 218 C153 207 152 198 151 181 C142 110 121 41 82 41 L82 41 Z " />
<glyph glyph-name="oneinferior" unicode="&#x2081;" horiz-adv-x="148" d="M69 0 L127 313 L83 313 L10 286 L2 240 L60 256 L12 0 L69 0 Z " />
<glyph glyph-name="twoinferior" unicode="&#x2082;" horiz-adv-x="197" d="M139 0 L145 45 L39 45 C101 105 174 195 174 254 C174 291 141 316 97 316 C73 316 46 309 21 296 L16 250 C34 262 55 267 70 267 C95 267 109 254 115 239 C102 183 51 111 -19 42 L-25 0 L139 0 Z " />
<glyph glyph-name="threeinferior" unicode="&#x2083;" horiz-adv-x="196" d="M-27 8 C-16 2 7 -5 34 -5 C95 -5 149 36 151 91 C152 125 118 154 95 165 L95 168 C122 181 169 219 170 255 C171 295 134 316 94 316 C68 316 41 309 23 298 L20 252 C37 261 54 267 71 267 C96 267 108 259 113 240 C101 216 72 184 42 171 L38 148 C65 136 85 111 94 86 C87 52 60 42 32 42 C16 42 0 45 -18 53 L-27 8 Z " />
<glyph glyph-name="fourinferior" unicode="&#x2084;" horiz-adv-x="214" d="M169 80 L176 123 L148 123 L183 312 L124 312 L-17 120 L-24 80 L83 80 L69 0 L125 0 L140 80 L169 80 Z M30 123 L113 240 L91 123 L30 123 Z " />
<glyph glyph-name="fiveinferior" unicode="&#x2085;" horiz-adv-x="198" d="M-21 8 C-6 2 22 -5 44 -5 C108 -5 155 43 157 110 C157 158 129 187 104 197 C89 197 72 190 60 183 L79 264 L172 264 L180 310 L42 310 L3 142 L17 136 C34 145 55 150 75 154 C89 144 98 129 97 100 C95 57 69 41 43 41 C24 41 3 47 -14 53 L-21 8 Z " />
<glyph glyph-name="sixinferior" unicode="&#x2086;" horiz-adv-x="219" d="M197 307 C179 313 160 316 144 316 C55 316 -3 203 -7 108 C-10 41 21 -5 65 -5 C120 -5 177 50 180 112 C182 155 159 185 134 198 C115 198 84 186 59 168 C65 193 74 215 84 233 C98 256 116 270 138 270 C154 270 168 270 187 263 L197 307 Z M108 155 C121 141 123 130 122 106 C119 70 97 45 74 37 C55 44 47 62 49 104 C49 111 50 118 51 125 C71 141 93 153 108 155 L108 155 Z " />
<glyph glyph-name="seveninferior" unicode="&#x2087;" horiz-adv-x="176" d="M8 263 L110 263 L-15 7 L-13 0 L39 0 L178 292 L176 310 L15 310 L8 263 Z " />
<glyph glyph-name="eightinferior" unicode="&#x2088;" horiz-adv-x="226" d="M202 249 C203 283 167 316 119 316 C62 316 21 270 20 232 C19 210 39 185 62 159 C22 140 -16 105 -17 68 C-18 38 12 -5 67 -5 C130 -5 176 29 177 81 C177 105 153 135 128 164 C164 184 201 218 202 249 L202 249 Z M124 71 C113 52 97 39 73 39 C54 39 40 52 35 69 C42 97 57 119 81 138 C103 113 123 89 124 71 L124 71 Z M72 244 C81 259 95 273 110 273 C131 273 143 264 146 243 C142 223 130 203 108 186 C89 208 73 229 72 244 L72 244 Z " />
<glyph glyph-name="nineinferior" unicode="&#x2089;" horiz-adv-x="219" d="M-14 3 C4 -3 23 -6 39 -6 C128 -6 186 107 190 202 C193 269 162 315 118 315 C63 315 6 260 3 198 C1 155 24 125 49 112 C68 112 98 124 124 142 C117 117 108 94 99 77 C85 54 67 40 45 40 C29 40 15 40 -4 47 L-14 3 Z M75 155 C62 169 60 180 61 204 C64 240 86 265 109 273 C128 266 136 248 134 206 L132 184 C112 168 90 156 75 155 L75 155 Z " />
<glyph glyph-name="plus.inferior" unicode="&#x208a;" horiz-adv-x="234" d="M-8 129 L70 129 L54 39 L103 39 L119 129 L197 129 L207 183 L128 183 L145 273 L96 273 L79 183 L1 183 L-8 129 Z " />
<glyph glyph-name="minus.inferior" unicode="&#x208b;" horiz-adv-x="254" d="M5 131 L207 131 L216 185 L14 185 L5 131 Z " />
<glyph glyph-name="equal.inferior" unicode="&#x208c;" horiz-adv-x="247" d="M-7 65 L187 65 L196 121 L3 121 L-7 65 Z M17 199 L210 199 L220 254 L27 254 L17 199 Z " />
<glyph glyph-name="parenleft.inferior" unicode="&#x208d;" horiz-adv-x="140" d="M86 -93 C72 -71 42 -12 45 79 C48 270 149 414 178 446 L123 446 C97 419 -8 276 -11 79 C-13 -18 18 -69 32 -93 L86 -93 Z " />
<glyph glyph-name="parenright.inferior" unicode="&#x208e;" horiz-adv-x="140" d="M27 446 C40 424 70 364 67 274 C64 81 -36 -62 -66 -93 L-11 -93 C16 -66 120 78 123 275 C125 371 95 422 81 446 L27 446 Z " />
<glyph glyph-name="a.inferior" unicode="&#x2090;" horiz-adv-x="261" d="M182 0 L239 315 L182 315 L179 297 C159 310 138 317 121 317 C86 317 62 296 46 272 C20 231 1 136 -4 62 C-5 40 -4 18 -3 0 L59 0 L141 93 L124 0 L182 0 Z M56 66 C56 80 57 96 59 112 C63 176 81 235 106 267 C125 269 145 262 169 246 L153 161 L63 64 L56 66 Z " />
<glyph glyph-name="e.inferior" unicode="&#x2091;" horiz-adv-x="234" d="M185 74 L167 115 C134 86 94 60 67 50 L61 53 C57 75 57 95 58 122 C107 146 181 190 211 219 L217 286 C193 306 157 317 130 317 C108 317 80 305 70 296 C55 282 43 267 32 247 C14 211 2 153 -3 99 C-4 89 -4 79 -4 69 C-4 44 -2 20 4 0 L57 -5 C106 14 160 51 185 74 L185 74 Z M106 269 C124 272 146 266 158 255 L157 230 C134 206 94 185 65 169 C74 213 89 250 106 269 L106 269 Z " />
<glyph glyph-name="o.inferior" unicode="&#x2092;" horiz-adv-x="249" d="M91 39 C79 40 68 45 63 50 C56 70 54 89 56 117 C59 183 84 249 117 273 C131 271 143 267 151 262 C157 245 160 224 158 196 C153 130 126 69 91 39 L91 39 Z M70 -5 C115 -5 156 24 179 61 C202 99 216 146 219 194 C224 283 192 317 142 317 C92 317 54 287 31 247 C11 208 -2 162 -6 110 C-10 35 21 -5 70 -5 L70 -5 Z " />
<glyph glyph-name="x.inferior" unicode="&#x2093;" horiz-adv-x="238" d="M182 310 L111 192 L84 310 L25 310 L61 153 L-38 0 L25 0 L89 112 L111 0 L174 0 L139 151 L245 310 L182 310 Z " />
<glyph glyph-name="h.inferior" unicode="&#x2095;" horiz-adv-x="268" d="M46 0 L81 192 C113 231 148 253 163 259 L174 254 C176 239 173 217 164 162 L135 0 L193 0 L225 179 C231 212 234 238 234 259 C234 299 222 317 198 317 C166 317 127 289 91 247 L130 463 L72 463 L-13 0 L46 0 Z " />
<glyph glyph-name="k.inferior" unicode="&#x2096;" horiz-adv-x="253" d="M46 0 L80 190 C109 224 145 253 163 263 L171 259 C165 217 151 184 115 141 L112 125 L130 0 L192 0 L172 134 C208 178 227 220 234 280 C234 287 235 298 235 307 L168 317 C150 307 119 284 92 254 L130 463 L72 463 L-13 0 L46 0 Z " />
<glyph glyph-name="l.inferior" unicode="&#x2097;" horiz-adv-x="132" d="M50 0 L134 463 L75 463 L-9 0 L50 0 Z " />
<glyph glyph-name="m.inferior" unicode="&#x2098;" horiz-adv-x="398" d="M265 0 L322 0 L355 179 C360 206 363 230 363 250 C363 293 350 317 324 317 C294 317 259 292 225 250 C226 293 213 317 188 317 C157 317 125 293 92 254 L102 310 L44 310 L-13 0 L46 0 L81 196 C112 234 141 253 156 259 L164 256 C167 240 166 217 157 162 L128 0 L184 0 L217 179 L220 198 C250 234 277 253 292 259 L301 256 C303 240 303 217 293 162 L265 0 Z " />
<glyph glyph-name="n.inferior" unicode="&#x2099;" horiz-adv-x="269" d="M46 0 L80 192 C113 231 148 253 163 259 L174 254 C176 239 173 217 164 162 L135 0 L193 0 L225 179 C231 212 234 238 234 259 C234 299 222 317 198 317 C166 317 127 289 90 247 L102 310 L45 310 L-13 0 L46 0 Z " />
<glyph glyph-name="p.inferior" unicode="&#x209a;" horiz-adv-x="271" d="M33 -142 L59 1 C74 -3 90 -5 103 -5 C182 -5 234 90 240 194 C244 255 229 317 188 317 C173 317 144 306 112 291 L116 310 L58 310 L48 256 C29 245 13 233 3 224 L12 188 C19 194 28 201 39 207 L-25 -142 L33 -142 Z M159 263 L166 261 C175 247 181 224 179 183 C174 104 141 42 106 42 C94 42 83 45 68 51 L103 242 C123 251 142 258 159 263 L159 263 Z " />
<glyph glyph-name="s.inferior" unicode="&#x209b;" horiz-adv-x="195" d="M179 306 C160 314 141 317 118 317 C52 317 16 270 15 226 C13 193 32 168 55 145 C71 127 83 108 87 82 C89 74 87 65 88 58 C77 46 59 44 41 44 C25 44 3 49 -14 58 L-24 9 C-6 1 19 -5 49 -5 C81 -5 108 6 125 22 C139 36 148 60 149 83 C150 117 128 144 103 170 C86 191 75 212 75 236 C76 250 78 254 81 261 C93 267 109 269 125 269 C140 268 154 263 169 256 L179 306 Z " />
<glyph glyph-name="t.inferior" unicode="&#x209c;" horiz-adv-x="194" d="M14 267 L47 267 L0 7 L51 -5 C88 12 136 50 153 70 L141 111 C122 92 97 71 77 61 L70 65 L106 267 L168 267 L176 310 L113 310 L128 392 L70 392 L55 310 L22 310 L14 267 Z " />
<glyph glyph-name="colonsign" unicode="&#x20a1;" horiz-adv-x="450" d="M123 -85 L175 -85 L211 -6 C261 -4 306 11 325 23 L336 93 C309 78 276 68 244 67 L498 629 L444 629 L417 570 C407 574 396 578 383 581 L405 629 L352 629 L334 588 C328 589 321 589 315 589 C133 589 37 380 37 181 C37 115 52 66 84 34 L30 -85 L84 -85 L125 7 C136 2 147 0 160 -2 L123 -85 Z M122 191 C122 347 187 499 300 514 L129 134 C124 150 122 168 122 191 L122 191 Z M161 85 L352 512 C364 510 376 506 386 501 L193 71 C181 74 170 79 161 85 L161 85 Z " />
<glyph glyph-name="cruzeiro" unicode="&#x20a2;" horiz-adv-x="431" d="M413 333 C403 346 389 357 371 357 C346 357 306 314 271 263 L286 348 L217 348 L169 79 C134 96 118 133 118 195 C118 362 193 515 321 515 C348 515 383 511 403 497 L416 571 C394 583 357 589 320 589 C132 589 34 384 34 185 C34 63 85 -6 207 -6 C262 -6 314 11 333 23 L344 93 C315 77 271 67 236 67 L257 188 C293 234 325 263 347 272 C349 272 383 252 384 250 L413 333 Z " />
<glyph glyph-name="franc" unicode="&#x20a3;" horiz-adv-x="500" d="M13 0 L96 0 L142 259 L270 259 L224 0 L299 0 L326 157 C363 205 396 238 419 248 C421 248 458 227 458 225 L489 314 C479 328 463 339 445 339 C419 339 378 294 341 240 L357 331 L154 331 L186 509 L397 509 L409 583 L116 583 L13 0 Z " />
<glyph glyph-name="lira" unicode="&#x20a4;" horiz-adv-x="347" d="M258 589 C195 589 118 545 97 425 C93 405 91 383 89 361 L60 361 L49 300 L84 300 C83 279 83 258 81 239 L39 239 L28 178 L76 178 L73 158 C68 126 58 100 43 70 L8 70 L-3 0 L272 0 L283 70 L121 70 C135 103 146 137 152 172 C152 174 152 176 153 178 L255 178 L266 239 L161 239 C163 259 164 279 165 300 L276 300 L287 361 L170 361 C172 384 174 406 177 424 C188 485 221 516 262 516 C295 516 317 507 340 486 L353 566 C330 580 299 589 258 589 L258 589 Z " />
<glyph glyph-name="mill" unicode="&#x20a5;" horiz-adv-x="530" d="M263 0 L301 223 L343 324 C373 355 400 373 415 379 L427 373 C431 350 429 317 415 236 L376 0 L450 0 L494 260 C502 304 507 341 507 371 C507 427 491 456 457 456 C435 456 412 447 388 430 L449 574 L392 574 L318 397 C313 436 298 456 270 456 C229 456 182 424 136 369 L150 451 L76 451 L-2 0 L72 0 L121 283 C164 339 206 371 228 379 L240 373 C243 350 242 317 228 236 L213 149 L100 -120 L156 -120 L206 0 L263 0 Z " />
<glyph glyph-name="naira" unicode="&#x20a6;" horiz-adv-x="520" d="M33 0 L115 0 L151 208 L250 208 L321 0 L393 0 L429 208 L478 208 L487 264 L439 264 L448 313 L497 313 L506 369 L457 369 L495 583 L412 583 L374 369 L279 369 L207 583 L135 583 L97 369 L55 369 L46 313 L88 313 L79 264 L36 264 L27 208 L69 208 L33 0 Z M169 313 L214 313 L231 264 L161 264 L169 313 Z M298 313 L365 313 L356 264 L314 264 L298 313 Z M184 396 L186 396 L195 369 L179 369 L184 396 Z M340 188 L333 208 L346 208 L343 188 L340 188 Z " />
<glyph glyph-name="pesetas" unicode="&#x20a7;" horiz-adv-x="847" d="M12 0 L97 0 L132 204 L171 204 C314 204 391 320 391 457 C391 537 336 583 254 583 L114 583 L12 0 Z M390 390 L438 390 L372 12 L438 -7 C489 17 557 73 582 103 L558 150 C534 122 500 95 470 81 L461 87 L513 390 L600 390 L610 451 L523 451 L544 572 L470 572 L448 451 L400 451 L390 390 Z M833 440 C808 452 781 456 750 456 C663 456 608 386 608 324 C608 275 630 245 660 211 C688 179 708 149 718 112 C720 103 721 95 721 85 C708 70 680 62 654 62 C630 62 594 71 568 84 L554 15 C580 3 607 -5 649 -5 C693 -5 730 11 754 35 C778 60 791 92 791 125 C791 175 758 211 728 247 C702 276 683 308 682 341 C682 353 684 364 689 377 C705 385 727 389 747 388 C771 388 796 381 819 370 L833 440 Z M227 511 C279 511 304 490 304 439 C304 340 248 276 175 276 L145 276 L185 511 L227 511 Z " />
<glyph glyph-name="rupee" unicode="&#x20a8;" horiz-adv-x="628" d="M14 0 L98 0 L132 200 L170 200 C181 200 192 201 203 202 L230 107 C255 44 296 -9 416 -9 C461 -9 501 3 528 24 C554 45 571 80 572 120 C574 170 541 213 508 248 C485 276 467 308 467 343 C468 363 471 371 475 382 C491 391 514 395 536 395 C557 395 579 389 599 379 L612 444 C587 457 560 461 529 461 C438 461 389 394 388 330 C386 281 414 246 445 213 C467 186 487 157 492 120 C493 107 494 94 491 81 C479 63 448 53 419 53 C363 53 329 79 306 132 L279 230 C345 271 385 349 385 436 C385 515 341 583 259 583 L114 583 L14 0 Z M227 510 C282 510 297 478 297 430 C297 345 252 273 175 273 L145 273 L186 510 L227 510 Z " />
<glyph glyph-name="won" unicode="&#x20a9;" horiz-adv-x="676" d="M701 583 L614 583 L544 397 L441 397 L441 583 L347 583 L277 397 L178 397 L181 583 L90 583 L93 397 L59 397 L49 342 L94 342 L95 282 L39 282 L29 227 L96 227 L99 0 L194 0 L281 227 L371 227 L374 0 L467 0 L558 227 L635 227 L643 282 L580 282 L604 342 L655 342 L664 397 L626 397 L701 583 Z M441 342 L523 342 L501 282 L441 282 L441 342 Z M177 342 L256 342 L234 282 L176 282 L177 342 Z M325 342 L369 342 L370 282 L302 282 L325 342 Z M173 127 L175 227 L213 227 L176 127 L173 127 Z M442 133 L441 227 L480 227 L445 133 L442 133 Z M364 441 L368 441 L368 397 L347 397 L364 441 Z " />
<glyph glyph-name="sheqel" unicode="&#x20aa;" horiz-adv-x="538" d="M12 0 L74 0 L159 491 L254 491 C309 491 327 466 327 414 C327 377 318 326 306 261 L303 248 L363 248 L368 275 C382 354 392 416 392 463 C392 548 358 583 248 583 L113 583 L12 0 Z M142 0 L251 0 C426 0 461 109 494 298 L542 583 L480 583 L432 298 C408 159 395 93 284 93 L220 93 L262 333 L200 333 L142 0 Z " />
<glyph glyph-name="dong" unicode="&#x20ab;" horiz-adv-x="369" d="M205 590 L290 590 L272 505 C247 519 223 527 202 527 C154 527 124 499 101 470 C66 418 40 304 34 213 C33 185 35 158 37 136 L112 136 L221 252 L198 136 L270 136 L361 590 L397 590 L407 647 L373 647 L388 722 L317 722 L301 647 L214 647 L205 590 Z M108 210 C108 227 108 240 111 260 C116 340 144 432 179 473 C206 474 229 465 261 447 L237 331 L117 207 L108 210 Z M-4 0 L273 0 L284 62 L7 62 L-4 0 Z " />
<glyph glyph-name="Euro" unicode="&#x20ac;" horiz-adv-x="428" d="M43 327 L84 327 C78 302 74 276 71 251 L29 251 L20 196 L67 196 L67 182 C67 58 118 -6 228 -6 C282 -6 328 10 350 22 L361 93 C333 78 295 68 261 68 C188 68 154 101 154 190 L154 196 L300 196 L310 251 L157 251 C160 277 165 302 171 327 L324 327 L333 383 L190 383 C222 460 275 515 345 515 C372 515 400 511 420 498 L433 572 C409 584 377 589 341 589 C225 589 143 500 101 383 L53 383 L43 327 Z " />
<glyph glyph-name="uni20AD" unicode="&#x20ad;" horiz-adv-x="430" d="M23 0 L106 0 L152 263 L179 263 L257 0 L348 0 L269 263 L380 263 L392 323 L265 323 L452 583 L358 583 L181 323 L162 323 L208 583 L125 583 L79 323 L46 323 L34 263 L69 263 L23 0 Z " />
<glyph glyph-name="uni20AE" unicode="&#x20ae;" horiz-adv-x="398" d="M64 511 L200 511 L167 322 L89 281 L78 215 L156 255 L145 197 L67 156 L56 91 L134 131 L111 0 L195 0 L226 179 L310 223 L321 288 L238 245 L248 304 L332 348 L343 413 L260 370 L284 511 L419 511 L431 583 L76 583 L64 511 Z " />
<glyph glyph-name="uni20B1" unicode="&#x20b1;" horiz-adv-x="451" d="M65 428 L106 428 L96 374 L56 374 L47 324 L87 324 L31 0 L115 0 L150 206 L191 206 C283 206 347 254 381 324 L430 324 L439 374 L400 374 C405 391 408 409 409 428 L448 428 L457 479 L409 479 C400 546 348 583 274 583 L133 583 L115 479 L74 479 L65 428 Z M315 374 L179 374 L189 428 L323 428 C322 408 320 390 315 374 L315 374 Z M195 277 L163 277 L171 324 L289 324 C266 294 233 277 195 277 L195 277 Z M246 512 C282 512 306 502 317 479 L198 479 L203 512 L246 512 Z " />
<glyph glyph-name="uni20B4" unicode="&#x20b4;" horiz-adv-x="416" d="M405 386 L355 386 C370 411 380 439 380 474 C380 547 328 589 254 589 C210 589 162 577 134 561 L144 490 C170 506 200 517 238 517 C280 517 304 496 304 462 C304 431 292 407 274 386 L54 386 L45 326 L203 326 L174 305 L127 269 L35 269 L26 209 L73 209 C54 180 42 146 42 103 C42 23 104 -6 185 -6 C223 -6 269 3 307 21 L296 88 C264 71 222 64 183 64 C143 64 116 84 116 120 C116 154 132 183 157 209 L377 209 L386 269 L226 269 C227 269 227 269 228 270 C253 288 279 306 303 326 L396 326 L405 386 Z " />
<glyph glyph-name="uni20B9" unicode="&#x20b9;" horiz-adv-x="420" d="M334 0 L238 237 C291 263 330 309 350 367 L401 367 L421 426 L362 426 C362 431 363 436 363 442 C364 475 351 500 329 518 L417 518 L439 583 L97 583 L84 518 L199 518 C252 518 277 489 276 437 C276 433 276 429 275 426 L70 426 L61 367 L262 367 C241 317 198 277 134 277 L45 277 L33 213 L132 213 C141 213 151 213 160 214 L243 0 L334 0 Z " />
<glyph glyph-name="uni2113" unicode="&#x2113;" horiz-adv-x="303" d="M115 -7 C161 -7 192 6 228 36 L221 91 C196 71 170 60 147 60 C124 60 116 74 117 108 C117 125 119 150 126 187 L134 229 C135 229 190 283 191 283 C275 363 324 419 326 495 C328 563 294 591 240 591 C159 591 108 517 89 407 L58 231 L5 191 L13 148 L48 172 C43 156 39 100 39 92 C38 25 69 -7 115 -7 L115 -7 Z M145 294 L168 426 C180 493 200 526 227 526 C246 526 253 505 252 477 C250 421 231 394 183 337 C183 337 146 294 145 294 L145 294 Z " />
<glyph glyph-name="uni2116" unicode="&#x2116;" horiz-adv-x="693" d="M451 168 L638 168 L648 224 L461 224 L451 168 Z M561 266 C643 266 697 380 697 497 C697 556 668 588 619 588 C534 588 483 463 483 363 C483 303 515 266 561 266 L561 266 Z M572 323 C547 323 538 338 538 362 C538 426 560 530 608 530 C634 530 643 512 643 489 C643 424 619 323 572 323 L572 323 Z M13 0 L94 0 L163 389 L165 389 L301 0 L372 0 L474 583 L392 583 L324 200 L322 200 L186 583 L114 583 L13 0 Z " />
<glyph glyph-name="uni2117" unicode="&#x2117;" horiz-adv-x="506" d="M259 -10 C382 -10 472 118 472 289 C472 460 384 590 259 590 C137 590 46 460 46 289 C46 118 135 -10 259 -10 L259 -10 Z M259 20 C159 20 77 132 77 289 C77 447 157 560 259 560 C359 560 441 448 441 289 C441 134 363 20 259 20 L259 20 Z M180 98 L235 98 L235 219 L260 219 C342 219 378 271 378 346 C378 426 340 465 277 465 L180 465 L180 98 Z M261 414 C300 413 321 393 321 345 C321 284 293 271 255 271 L235 271 L235 414 L261 414 Z " />
<glyph glyph-name="servicemark" unicode="&#x2120;" horiz-adv-x="488" d="M204 295 L250 295 L296 485 L298 485 L302 295 L348 295 L421 484 L424 484 L402 295 L453 295 L485 583 L422 583 L347 389 L345 389 L339 583 L273 583 L204 295 Z M54 305 C72 293 90 289 113 289 C164 289 203 330 203 386 C203 451 135 467 135 501 C135 525 149 542 170 542 C186 542 205 537 219 526 L228 572 C215 582 195 586 173 586 C126 586 87 545 87 492 C87 428 155 418 155 380 C155 355 141 334 118 334 C98 334 76 343 63 352 L54 305 Z " />
<glyph glyph-name="trademark" unicode="&#x2122;" horiz-adv-x="512" d="M226 295 L273 295 L319 485 L320 485 L324 295 L371 295 L444 484 L446 484 L425 295 L475 295 L508 583 L444 583 L370 389 L368 389 L362 583 L295 583 L226 295 Z M96 538 L153 538 L111 295 L161 295 L204 538 L262 538 L269 583 L104 583 L96 538 Z " />
<glyph glyph-name="Omega" unicode="&#x2126;" horiz-adv-x="492" d="M303 593 C139 593 42 373 42 229 C42 162 66 105 97 77 L97 75 L7 75 L-6 0 L164 0 L175 71 C143 111 124 159 129 231 C134 371 204 520 291 520 C353 520 381 478 381 404 C381 284 325 143 251 71 L239 0 L408 0 L420 75 L329 75 L330 77 C395 130 471 261 471 408 C471 512 414 593 303 593 L303 593 Z " />
<glyph glyph-name="estimated" unicode="&#x212e;" horiz-adv-x="461" d="M234 -8 C301 -8 363 17 404 87 L376 116 C339 59 295 38 236 38 C169 38 130 96 130 179 L130 211 L417 211 L417 266 C416 383 346 465 231 465 C106 465 31 357 31 217 C31 62 121 -8 234 -8 L234 -8 Z M130 254 L130 272 C130 365 164 427 231 427 C294 427 316 358 316 285 L316 254 L130 254 Z " />
<glyph glyph-name="onethird" unicode="&#x2153;" horiz-adv-x="497" d="M131 263 L189 576 L145 576 L72 549 L64 503 L122 519 L74 263 L131 263 Z M264 8 C275 2 298 -5 325 -5 C386 -5 440 36 442 91 C443 125 409 154 386 165 L386 168 C413 181 460 219 461 255 C462 295 425 316 385 316 C359 316 332 309 314 298 L311 252 C328 261 345 267 362 267 C387 267 399 259 404 240 C392 216 363 184 333 171 L329 148 C356 136 376 111 385 86 C378 52 351 42 323 42 C307 42 291 45 273 53 L264 8 Z M81 0 L422 564 L422 568 L375 568 L35 4 L35 0 L81 0 Z " />
<glyph glyph-name="twothirds" unicode="&#x2154;" horiz-adv-x="517" d="M200 265 L206 310 L100 310 C162 370 235 460 235 519 C235 556 202 581 158 581 C134 581 107 574 82 561 L77 515 C95 527 116 532 131 532 C156 532 170 519 176 504 C163 448 112 376 42 307 L36 265 L200 265 Z M284 8 C295 2 318 -5 345 -5 C406 -5 460 36 462 91 C463 125 429 154 406 165 L406 168 C433 181 480 219 481 255 C482 295 445 316 405 316 C379 316 352 309 334 298 L331 252 C348 261 365 267 382 267 C407 267 419 259 424 240 C412 216 383 184 353 171 L349 148 C376 136 396 111 405 86 C398 52 371 42 343 42 C327 42 311 45 293 53 L284 8 Z M122 0 L463 564 L463 568 L416 568 L76 4 L76 0 L122 0 Z " />
<glyph glyph-name="uni215B" unicode="&#x215b;" horiz-adv-x="505" d="M472 249 C473 283 437 316 389 316 C332 316 291 270 290 232 C289 210 309 185 332 159 C292 140 254 105 253 68 C252 38 282 -5 337 -5 C400 -5 446 29 447 81 C447 105 423 135 398 164 C434 184 471 218 472 249 L472 249 Z M86 0 L427 564 L427 568 L380 568 L40 4 L40 0 L86 0 Z M131 262 L189 575 L145 575 L72 548 L64 502 L122 518 L74 262 L131 262 Z M394 71 C383 52 367 39 343 39 C324 39 310 52 305 69 C312 97 327 119 351 138 C373 113 393 89 394 71 L394 71 Z M342 244 C351 259 365 273 380 273 C401 273 413 264 416 243 C412 223 400 203 378 186 C359 208 343 229 342 244 L342 244 Z " />
<glyph glyph-name="arrowleft" unicode="&#x2190;" horiz-adv-x="545" d="M257 91 L155 226 L545 226 L545 303 L156 303 L257 439 L167 439 L37 264 L168 91 L257 91 Z " />
<glyph glyph-name="arrowup" unicode="&#x2191;" horiz-adv-x="464" d="M406 436 L233 567 L58 436 L58 346 L194 448 L194 59 L270 59 L270 449 L406 346 L406 436 Z " />
<glyph glyph-name="arrowright" unicode="&#x2192;" horiz-adv-x="543" d="M377 91 L508 264 L377 439 L287 439 L389 303 L0 303 L0 226 L390 226 L287 91 L377 91 Z " />
<glyph glyph-name="arrowdown" unicode="&#x2193;" horiz-adv-x="464" d="M58 190 L232 59 L406 191 L406 280 L270 178 L270 567 L194 567 L194 179 L58 280 L58 190 Z " />
<glyph glyph-name="uni2196" unicode="&#x2196;" horiz-adv-x="464" d="M267 523 L52 494 L21 277 L84 214 L109 382 L384 107 L438 161 L163 436 L330 460 L267 523 Z " />
<glyph glyph-name="uni2197" unicode="&#x2197;" horiz-adv-x="464" d="M438 277 L407 493 L192 523 L129 460 L296 436 L21 161 L75 106 L350 381 L375 214 L438 277 Z " />
<glyph glyph-name="uni2198" unicode="&#x2198;" horiz-adv-x="464" d="M195 103 L412 134 L441 349 L378 413 L354 245 L80 520 L25 466 L300 191 L132 167 L195 103 Z " />
<glyph glyph-name="uni2199" unicode="&#x2199;" horiz-adv-x="464" d="M26 349 L56 134 L272 103 L335 167 L168 191 L442 466 L388 521 L113 245 L89 413 L26 349 Z " />
<glyph glyph-name="partialdiff" unicode="&#x2202;" horiz-adv-x="347" d="M116 -7 C175 -7 230 29 262 89 C295 151 319 246 323 337 C327 482 291 595 182 685 L139 635 C193 584 226 526 240 454 C232 457 223 458 214 458 C139 458 80 406 49 328 C30 279 18 220 13 157 C7 48 48 -7 116 -7 L116 -7 Z M144 55 C129 56 110 62 102 72 C95 93 92 114 92 141 C92 150 92 160 93 170 C98 267 134 363 182 397 C183 397 199 395 199 395 C215 392 234 381 249 369 L249 355 C240 192 203 111 144 55 L144 55 Z " />
<glyph glyph-name="Delta" unicode="&#x2206;" horiz-adv-x="422" d="M353 0 L364 62 L324 583 L233 583 L-6 61 L-16 0 L353 0 Z M254 489 L258 489 L272 72 L82 72 L254 489 Z " />
<glyph glyph-name="product" unicode="&#x220f;" horiz-adv-x="511" d="M86 -207 L212 508 L387 508 L261 -207 L346 -207 L472 508 L530 508 L543 583 L85 583 L72 508 L128 508 L2 -208 L86 -207 Z " />
<glyph glyph-name="summation" unicode="&#x2211;" horiz-adv-x="342" d="M-53 -207 L236 -207 L249 -131 L51 -131 L226 213 L169 508 L348 508 L361 583 L88 583 L77 515 L136 210 L-41 -138 L-53 -207 Z " />
<glyph glyph-name="minus" unicode="&#x2212;" horiz-adv-x="357" d="M48 263 L310 263 L322 329 L59 329 L48 263 Z " />
<glyph glyph-name="radical" unicode="&#x221a;" horiz-adv-x="406" d="M52 451 L80 0 L167 0 L467 653 L385 653 L145 98 L142 98 L133 451 L52 451 Z " />
<glyph glyph-name="infinity" unicode="&#x221e;" horiz-adv-x="606" d="M202 506 C109 506 36 348 36 220 C36 145 64 82 127 82 C193 82 254 161 300 234 C321 163 353 82 418 82 C509 82 582 221 582 362 C582 439 553 506 493 506 C429 506 368 429 321 356 C300 430 268 506 202 506 L202 506 Z M143 146 C114 146 98 178 98 221 C98 300 143 441 195 441 C239 441 264 357 279 295 C244 232 189 146 143 146 L143 146 Z M425 146 C377 146 358 233 342 295 C380 356 430 441 477 441 C506 441 521 410 521 367 C521 287 476 146 425 146 L425 146 Z " />
<glyph glyph-name="integral" unicode="&#x222b;" horiz-adv-x="302" d="M64 -29 C50 -111 29 -147 -12 -147 C-28 -147 -39 -146 -55 -141 L-67 -207 C-55 -211 -34 -213 -15 -213 C66 -213 116 -156 136 -43 L228 474 C243 559 264 595 303 595 C319 595 331 594 346 590 L359 658 C346 661 335 664 316 664 C236 664 177 607 157 494 L64 -29 Z " />
<glyph glyph-name="approxequal" unicode="&#x2248;" horiz-adv-x="393" d="M271 323 C310 323 347 349 369 378 L345 425 C326 404 304 393 286 393 C237 395 218 430 162 430 C121 430 84 401 65 375 L84 329 C102 345 125 360 150 360 C194 360 221 323 271 323 L271 323 Z M244 152 C283 152 320 178 342 207 L318 254 C299 233 277 222 259 222 C210 224 191 259 135 259 C94 259 57 230 38 204 L57 158 C75 174 98 189 123 189 C167 189 194 152 244 152 L244 152 Z " />
<glyph glyph-name="notequal" unicode="&#x2260;" horiz-adv-x="353" d="M61 357 L196 357 L127 238 L40 238 L29 177 L92 177 L3 23 L58 23 L147 177 L298 177 L310 238 L182 238 L251 357 L330 357 L341 417 L286 417 L372 565 L317 565 L231 417 L72 417 L61 357 Z " />
<glyph glyph-name="lessequal" unicode="&#x2264;" horiz-adv-x="379" d="M1 26 L300 26 L310 92 L13 92 L1 26 Z M302 125 L315 199 L131 331 L363 464 L375 537 L60 353 L53 309 L302 125 Z " />
<glyph glyph-name="greaterequal" unicode="&#x2265;" horiz-adv-x="377" d="M309 92 L10 92 L0 26 L297 26 L309 92 Z M346 309 L354 353 L105 537 L91 461 L275 332 L44 199 L32 125 L346 309 Z " />
<glyph glyph-name="uni2460" unicode="&#x2460;" horiz-adv-x="698" d="M355 0 C516 0 647 130 647 291 C647 452 516 583 355 583 C194 583 64 452 64 291 C64 130 194 0 355 0 L355 0 Z M355 36 C216 36 104 152 104 291 C104 430 216 547 355 547 C494 547 607 430 607 291 C607 152 494 36 355 36 L355 36 Z M389 138 L389 450 L351 450 L250 421 L250 375 L321 386 L321 138 L389 138 Z " />
<glyph glyph-name="uni2461" unicode="&#x2461;" horiz-adv-x="698" d="M355 0 C516 0 647 130 647 291 C647 452 516 583 355 583 C194 583 64 452 64 291 C64 130 194 0 355 0 L355 0 Z M355 36 C216 36 104 152 104 291 C104 430 216 547 355 547 C494 547 607 430 607 291 C607 152 494 36 355 36 L355 36 Z M242 138 L468 138 L468 190 L333 190 L333 192 C410 251 459 306 459 363 C459 425 407 451 349 451 C314 451 274 442 250 422 L250 370 C284 397 314 401 340 401 C367 401 392 388 392 357 C392 300 321 244 242 178 L242 138 Z " />
<glyph glyph-name="uni2462" unicode="&#x2462;" horiz-adv-x="698" d="M355 0 C516 0 647 130 647 291 C647 452 516 583 355 583 C194 583 64 452 64 291 C64 130 194 0 355 0 L355 0 Z M355 36 C216 36 104 152 104 291 C104 430 216 547 355 547 C494 547 607 430 607 291 C607 152 494 36 355 36 L355 36 Z M340 134 C409 134 468 164 468 231 C468 271 438 300 397 305 L397 307 C418 313 453 336 453 379 C453 425 410 451 352 451 C320 451 287 442 263 422 L263 370 C292 394 321 400 343 400 C368 400 388 389 388 365 C388 336 351 314 312 311 L312 273 C372 271 403 258 403 225 C403 199 380 182 350 182 C321 182 292 186 260 202 L260 149 C278 141 300 134 340 134 L340 134 Z " />
<glyph glyph-name="uni2463" unicode="&#x2463;" horiz-adv-x="698" d="M355 0 C516 0 647 130 647 291 C647 452 516 583 355 583 C194 583 64 452 64 291 C64 130 194 0 355 0 L355 0 Z M355 36 C216 36 104 152 104 291 C104 430 216 547 355 547 C494 547 607 430 607 291 C607 152 494 36 355 36 L355 36 Z M343 138 L410 138 L410 215 L453 215 L453 261 L410 261 L410 450 L347 450 L207 261 L207 215 L343 215 L343 138 Z M265 261 L343 367 L343 261 L265 261 Z " />
<glyph glyph-name="uni2464" unicode="&#x2464;" horiz-adv-x="698" d="M355 0 C516 0 647 130 647 291 C647 452 516 583 355 583 C194 583 64 452 64 291 C64 130 194 0 355 0 L355 0 Z M355 36 C216 36 104 152 104 291 C104 430 216 547 355 547 C494 547 607 430 607 291 C607 152 494 36 355 36 L355 36 Z M335 134 C389 134 459 164 459 236 C459 302 411 333 330 333 L320 333 L326 398 L451 398 L451 446 L277 446 L263 284 C277 286 292 287 306 287 C368 287 395 269 395 233 C395 203 370 182 337 182 C311 182 282 188 252 202 L252 149 C272 141 299 134 335 134 L335 134 Z " />
<glyph glyph-name="uni2465" unicode="&#x2465;" horiz-adv-x="698" d="M355 0 C516 0 647 130 647 291 C647 452 516 583 355 583 C194 583 64 452 64 291 C64 130 194 0 355 0 L355 0 Z M355 36 C216 36 104 152 104 291 C104 430 216 547 355 547 C494 547 607 430 607 291 C607 152 494 36 355 36 L355 36 Z M374 402 C393 402 412 400 441 386 L441 440 C417 447 393 451 372 451 C277 451 223 369 223 270 C223 191 259 134 340 134 C418 134 462 188 462 247 C462 311 417 339 361 339 C330 339 309 331 293 322 C302 376 324 402 374 402 L374 402 Z M343 293 C379 293 395 274 395 240 C395 205 378 181 344 181 C303 181 290 214 290 268 L290 280 C304 287 320 293 343 293 L343 293 Z " />
<glyph glyph-name="uni2466" unicode="&#x2466;" horiz-adv-x="698" d="M355 0 C516 0 647 130 647 291 C647 452 516 583 355 583 C194 583 64 452 64 291 C64 130 194 0 355 0 L355 0 Z M355 36 C216 36 104 152 104 291 C104 430 216 547 355 547 C494 547 607 430 607 291 C607 152 494 36 355 36 L355 36 Z M329 137 L463 412 L463 445 L250 445 L250 397 L397 397 L267 140 L268 137 L329 137 Z " />
<glyph glyph-name="uni2467" unicode="&#x2467;" horiz-adv-x="698" d="M355 0 C516 0 647 130 647 291 C647 452 516 583 355 583 C194 583 64 452 64 291 C64 130 194 0 355 0 L355 0 Z M355 36 C216 36 104 152 104 291 C104 430 216 547 355 547 C494 547 607 430 607 291 C607 152 494 36 355 36 L355 36 Z M469 222 C469 258 445 279 415 294 C442 312 462 341 462 373 C462 424 412 450 350 450 C288 450 242 411 242 365 C242 333 259 311 282 296 C252 277 231 246 231 217 C231 165 272 133 345 133 C411 133 469 171 469 222 L469 222 Z M400 364 C400 347 392 328 375 311 C338 325 304 339 304 368 C304 393 322 402 348 402 C385 402 400 385 400 364 L400 364 Z M293 223 C293 246 299 260 314 277 C357 257 402 245 402 216 C402 187 376 179 350 179 C321 179 293 191 293 223 L293 223 Z " />
<glyph glyph-name="uni2468" unicode="&#x2468;" horiz-adv-x="698" d="M355 0 C516 0 647 130 647 291 C647 452 516 583 355 583 C194 583 64 452 64 291 C64 130 194 0 355 0 L355 0 Z M355 36 C216 36 104 152 104 291 C104 430 216 547 355 547 C494 547 607 430 607 291 C607 152 494 36 355 36 L355 36 Z M323 181 C303 181 284 183 255 198 L255 145 C279 136 303 133 324 133 C420 133 474 212 474 314 C474 393 437 450 356 450 C279 450 235 397 235 337 C235 272 281 245 335 245 C365 245 386 252 403 261 C395 208 370 181 323 181 L323 181 Z M353 290 C317 290 301 308 301 345 C301 385 319 403 352 403 C393 403 407 371 407 316 L407 303 C394 296 376 290 353 290 L353 290 Z " />
<glyph glyph-name="uni2469" unicode="&#x2469;" horiz-adv-x="698" d="M355 0 C516 0 647 130 647 291 C647 452 516 583 355 583 C194 583 64 452 64 291 C64 130 194 0 355 0 L355 0 Z M355 36 C216 36 104 152 104 291 C104 430 216 547 355 547 C494 547 607 430 607 291 C607 152 494 36 355 36 L355 36 Z M287 140 L287 447 L250 447 L154 418 L154 374 L223 384 L223 140 L287 140 Z M441 136 C520 136 563 194 563 294 C563 374 535 447 446 447 C366 447 325 384 325 285 C325 195 359 136 441 136 L441 136 Z M444 182 C396 182 389 235 389 287 C389 337 393 399 440 399 C490 399 497 335 497 291 C497 239 495 182 444 182 L444 182 Z " />
<glyph glyph-name="uni24CA" unicode="&#x24ca;" horiz-adv-x="505" d="M258 -14 C381 -14 471 118 471 289 C471 460 383 592 258 592 C136 592 45 460 45 289 C45 118 134 -14 258 -14 L258 -14 Z M258 16 C158 16 77 132 77 289 C77 447 157 562 258 562 C358 562 440 448 440 289 C440 134 362 16 258 16 L258 16 Z M262 100 C320 100 370 148 370 257 L370 440 L317 440 L317 262 C317 189 297 154 261 154 C225 154 204 184 204 256 L204 440 L152 440 L152 244 C152 142 201 100 262 100 L262 100 Z " />
<glyph glyph-name="uni25B2" unicode="&#x25b2;" horiz-adv-x="595" d="M526 21 L258 449 L-10 21 L526 21 Z " />
<glyph glyph-name="uni25B6" unicode="&#x25b6;" horiz-adv-x="551" d="M94 -33 L522 235 L94 503 L94 -33 Z " />
<glyph glyph-name="uni25B8" unicode="&#x25b8;" horiz-adv-x="392" d="M360 218 L93 486 L93 -50 L360 218 Z " />
<glyph glyph-name="uni25BA" unicode="&#x25ba;" horiz-adv-x="849" d="M813 218 L91 486 L91 -50 L813 218 Z " />
<glyph glyph-name="uni25BC" unicode="&#x25bc;" horiz-adv-x="609" d="M68 448 L336 20 L604 448 L68 448 Z " />
<glyph glyph-name="uni25C0" unicode="&#x25c0;" horiz-adv-x="551" d="M450 -33 L450 503 L22 235 L450 -33 Z " />
<glyph glyph-name="uni25C2" unicode="&#x25c2;" horiz-adv-x="392" d="M287 -50 L287 486 L20 219 L287 -50 Z " />
<glyph glyph-name="uni25C4" unicode="&#x25c4;" horiz-adv-x="848" d="M745 -50 L745 486 L23 218 L745 -50 Z " />
<glyph glyph-name="lozenge" unicode="&#x25ca;" horiz-adv-x="357" d="M98 0 L171 0 L343 286 L273 583 L200 583 L25 286 L98 0 Z M146 64 L98 288 L224 517 L271 285 L146 64 Z " />
<glyph glyph-name="uni2610" unicode="&#x2610;" horiz-adv-x="781" d="M106 0 L689 0 L689 583 L106 583 L106 0 Z M166 59 L166 523 L629 523 L629 59 L166 59 Z " />
<glyph glyph-name="uni2611" unicode="&#x2611;" horiz-adv-x="782" d="M106 -4 L689 -4 L689 579 L106 579 L106 -4 Z M166 55 L166 519 L629 519 L629 55 L166 55 Z M278 85 L298 85 C422 216 525 369 602 483 L594 492 C564 489 520 469 508 450 C455 370 357 220 309 162 C283 214 277 283 276 319 L255 326 C242 322 214 296 205 283 C201 259 240 114 278 85 L278 85 Z " />
<glyph glyph-name="uni261A" unicode="&#x261a;" horiz-adv-x="1008" d="M74 453 C57 391 111 386 111 386 L317 400 L372 365 C372 365 296 272 292 246 C292 246 308 200 345 186 C345 186 355 129 397 126 C397 126 406 88 452 74 L528 101 C528 101 604 88 748 140 L937 126 L937 365 L760 401 C760 401 710 443 647 459 L345 509 L74 453 Z " />
<glyph glyph-name="uni261B" unicode="&#x261b;" horiz-adv-x="943" d="M660 509 L358 459 C295 443 245 401 245 401 L68 365 L68 126 L257 140 C401 88 477 101 477 101 L553 74 C599 88 608 126 608 126 C650 129 660 186 660 186 C697 200 713 246 713 246 C709 272 633 365 633 365 L688 400 L894 386 C894 386 948 391 931 453 L660 509 Z " />
<glyph glyph-name="uni261C" unicode="&#x261c;" horiz-adv-x="1008" d="M74 453 C57 391 111 386 111 386 L317 400 L372 365 C372 365 296 272 292 246 C292 246 308 200 345 186 C345 186 355 129 397 126 C397 126 406 88 452 74 L528 101 C528 101 604 88 748 140 L937 126 L937 365 L760 401 C760 401 710 443 647 459 L345 509 L74 453 Z M698 186 C626 157 523 154 523 154 L454 127 C430 129 426 157 426 157 L477 196 L541 215 L522 255 L458 231 L404 184 C390 186 386 208 386 208 L453 269 L503 291 L486 326 L434 300 L369 232 C358 231 347 249 347 249 L400 318 L452 369 L341 426 L155 418 C155 418 135 428 145 442 L344 467 L627 414 C672 398 720 360 720 360 L882 326 L882 178 L698 186 Z " />
<glyph glyph-name="uni261D" unicode="&#x261d;" horiz-adv-x="557" d="M80 473 L130 171 C146 108 188 58 188 58 L224 -119 L463 -119 L449 70 C501 214 488 290 488 290 L515 366 C501 412 463 421 463 421 C460 463 403 473 403 473 C389 510 343 526 343 526 C317 522 224 446 224 446 L189 501 L203 707 C203 707 198 761 136 744 L80 473 Z M411 -64 L263 -64 L229 98 C229 98 191 146 175 191 L122 474 L147 673 C161 683 171 663 171 663 L163 477 L220 366 L271 418 L340 471 C340 471 358 460 357 449 L289 384 L263 332 L298 315 L320 365 L381 432 C381 432 403 428 405 414 L358 360 L334 296 L374 277 L393 341 L432 392 C432 392 460 388 462 364 L435 295 C435 295 432 192 403 120 L411 -64 Z " />
<glyph glyph-name="uni261E" unicode="&#x261e;" horiz-adv-x="943" d="M660 509 L358 459 C295 443 245 401 245 401 L68 365 L68 126 L257 140 C401 88 477 101 477 101 L553 74 C599 88 608 126 608 126 C650 129 660 186 660 186 C697 200 713 246 713 246 C709 272 633 365 633 365 L688 400 L894 386 C894 386 948 391 931 453 L660 509 Z M123 178 L123 326 L285 360 C285 360 333 398 378 414 L661 467 L860 442 C870 428 850 418 850 418 L664 426 L553 369 L605 318 L658 249 C658 249 647 231 636 232 L571 300 L519 326 L502 291 L552 269 L619 208 C619 208 615 186 601 184 L547 231 L483 255 L464 215 L528 196 L579 157 C579 157 575 129 551 127 L482 154 C482 154 379 157 307 186 L123 178 Z " />
<glyph glyph-name="uni261F" unicode="&#x261f;" horiz-adv-x="555" d="M500 169 L450 471 C434 534 392 584 392 584 L356 761 L117 761 L131 572 C79 428 92 352 92 352 L65 276 C79 230 117 221 117 221 C120 179 177 169 177 169 C191 132 237 116 237 116 C263 120 356 196 356 196 L391 141 L377 -65 C377 -65 382 -119 444 -102 L500 169 Z M169 706 L317 706 L351 544 C351 544 389 496 405 451 L458 168 L433 -31 C419 -41 409 -21 409 -21 L417 165 L360 276 L309 224 L240 171 C240 171 222 182 223 193 L291 258 L317 310 L282 327 L260 277 L199 210 C199 210 177 214 175 228 L222 282 L246 346 L206 365 L187 301 L148 250 C148 250 120 254 118 278 L145 347 C145 347 148 450 177 522 L169 706 Z " />
<glyph glyph-name="uni267E" unicode="&#x267e;" horiz-adv-x="506" d="M259 -10 C382 -10 472 118 472 289 C472 460 384 590 259 590 C137 590 46 460 46 289 C46 118 135 -10 259 -10 L259 -10 Z M259 20 C159 20 77 132 77 289 C77 447 157 560 259 560 C359 560 441 448 441 289 C441 134 363 20 259 20 L259 20 Z M191 406 C153 406 130 349 130 289 C130 231 149 174 191 174 C221 174 244 212 260 253 C278 210 299 174 330 174 C372 174 391 232 391 289 C391 348 370 406 330 406 C301 406 278 368 260 328 C243 369 222 406 191 406 L191 406 Z M193 220 C174 220 167 252 167 289 C167 328 174 360 193 360 C213 360 231 326 245 290 C231 255 212 220 193 220 L193 220 Z M329 220 C310 220 291 255 277 290 C291 326 309 360 329 360 C347 360 355 328 355 289 C355 252 347 220 329 220 L329 220 Z " />
<glyph glyph-name="uni2713" unicode="&#x2713;" horiz-adv-x="437" d="M117 85 L137 85 C261 216 364 369 441 483 L433 492 C403 489 359 469 347 450 C294 370 196 220 148 162 C122 214 116 283 115 319 L94 326 C81 322 53 296 44 283 C40 259 79 114 117 85 L117 85 Z " />
<glyph glyph-name="uni2776" unicode="&#x2776;" horiz-adv-x="698" d="M355 0 C516 0 647 130 647 291 C647 452 516 583 355 583 C194 583 64 452 64 291 C64 130 194 0 355 0 L355 0 Z M321 138 L321 386 L250 375 L250 421 L351 450 L389 450 L389 138 L321 138 Z " />
<glyph glyph-name="uni2777" unicode="&#x2777;" horiz-adv-x="698" d="M355 0 C516 0 647 130 647 291 C647 452 516 583 355 583 C194 583 64 452 64 291 C64 130 194 0 355 0 L355 0 Z M242 178 C321 244 392 300 392 357 C392 388 367 401 340 401 C314 401 284 397 250 370 L250 422 C274 442 314 451 349 451 C407 451 459 425 459 363 C459 307 410 251 334 193 C334 192 333 191 333 190 L468 190 L468 138 L242 138 L242 178 Z " />
<glyph glyph-name="uni2778" unicode="&#x2778;" horiz-adv-x="698" d="M355 0 C516 0 647 130 647 291 C647 452 516 583 355 583 C194 583 64 452 64 291 C64 130 194 0 355 0 L355 0 Z M340 134 C300 134 278 141 260 149 L260 202 C292 186 321 182 350 182 C380 182 403 199 403 225 C403 258 372 271 312 273 L312 311 C351 314 388 336 388 365 C388 389 368 400 343 400 C321 400 292 394 263 370 L263 422 C287 442 320 451 352 451 C410 451 453 425 453 379 C453 336 418 313 397 307 L397 305 C438 300 468 271 468 231 C468 164 409 134 340 134 L340 134 Z " />
<glyph glyph-name="uni2779" unicode="&#x2779;" horiz-adv-x="698" d="M355 0 C516 0 647 130 647 291 C647 452 516 583 355 583 C194 583 64 452 64 291 C64 130 194 0 355 0 L355 0 Z M343 215 L207 215 L207 261 L347 450 L410 450 L410 261 L453 261 L453 215 L410 215 L410 138 L343 138 L343 215 Z M343 261 L343 367 L265 261 L343 261 Z " />
<glyph glyph-name="uni277A" unicode="&#x277a;" horiz-adv-x="698" d="M355 0 C516 0 647 130 647 291 C647 452 516 583 355 583 C194 583 64 452 64 291 C64 130 194 0 355 0 L355 0 Z M335 134 C299 134 272 141 252 149 L252 202 C282 188 311 182 337 182 C370 182 395 203 395 233 C395 269 368 287 306 287 C292 287 277 286 263 284 L277 446 L451 446 L451 398 L326 398 L320 333 L330 333 C411 333 459 302 459 236 C459 164 389 134 335 134 L335 134 Z " />
<glyph glyph-name="uni277B" unicode="&#x277b;" horiz-adv-x="698" d="M355 0 C516 0 647 130 647 291 C647 452 516 583 355 583 C194 583 64 452 64 291 C64 130 194 0 355 0 L355 0 Z M374 402 C324 402 302 376 293 322 C309 331 330 339 361 339 C417 339 462 311 462 247 C462 188 418 134 340 134 C259 134 223 191 223 270 C223 369 277 451 372 451 C393 451 417 447 441 440 L441 386 C412 400 393 402 374 402 L374 402 Z M343 293 C320 293 304 287 290 280 L290 269 C290 214 303 181 344 181 C378 181 395 205 395 240 C395 274 379 293 343 293 L343 293 Z " />
<glyph glyph-name="uni277C" unicode="&#x277c;" horiz-adv-x="698" d="M355 0 C516 0 647 130 647 291 C647 452 516 583 355 583 C194 583 64 452 64 291 C64 130 194 0 355 0 L355 0 Z M268 137 L267 140 L397 397 L250 397 L250 445 L463 445 L463 412 L329 137 L268 137 Z " />
<glyph glyph-name="uni277D" unicode="&#x277d;" horiz-adv-x="698" d="M355 0 C516 0 647 130 647 291 C647 452 516 583 355 583 C194 583 64 452 64 291 C64 130 194 0 355 0 L355 0 Z M469 222 C469 171 411 133 345 133 C272 133 231 165 231 217 C231 246 252 277 282 296 C259 311 242 333 242 365 C242 411 288 450 350 450 C412 450 462 424 462 373 C462 341 442 312 415 294 C445 279 469 258 469 222 L469 222 Z M400 364 C400 385 385 402 348 402 C322 402 304 393 304 368 C304 339 338 325 375 311 C392 328 400 347 400 364 L400 364 Z M293 223 C293 191 321 179 350 179 C376 179 402 187 402 216 C402 245 357 257 314 277 C299 260 293 246 293 223 L293 223 Z " />
<glyph glyph-name="uni277E" unicode="&#x277e;" horiz-adv-x="698" d="M355 0 C516 0 647 130 647 291 C647 452 516 583 355 583 C194 583 64 452 64 291 C64 130 194 0 355 0 L355 0 Z M323 181 C370 181 395 208 403 261 C386 252 365 245 335 245 C281 245 235 272 235 337 C235 397 279 450 356 450 C437 450 474 393 474 314 C474 212 420 133 324 133 C303 133 279 136 255 145 L255 198 C284 183 303 181 323 181 L323 181 Z M353 290 C376 290 394 296 407 303 L407 315 C407 371 394 403 352 403 C319 403 301 385 301 345 C301 308 317 290 353 290 L353 290 Z " />
<glyph glyph-name="uni277F" unicode="&#x277f;" horiz-adv-x="698" d="M355 0 C516 0 647 130 647 291 C647 452 516 583 355 583 C194 583 64 452 64 291 C64 130 194 0 355 0 L355 0 Z M223 140 L223 384 L154 374 L154 418 L250 447 L287 447 L287 140 L223 140 Z M441 136 C359 136 325 195 325 285 C325 384 366 447 446 447 C535 447 563 374 563 294 C563 194 520 136 441 136 L441 136 Z M444 182 C495 182 497 239 497 291 C497 335 490 399 440 399 C393 399 389 337 389 287 C389 235 396 182 444 182 L444 182 Z " />
<glyph glyph-name="uni2780" unicode="&#x2780;" horiz-adv-x="698" d="M355 0 C516 0 647 130 647 291 C647 452 516 583 355 583 C194 583 64 452 64 291 C64 130 194 0 355 0 L355 0 Z M355 36 C216 36 104 152 104 291 C104 430 216 547 355 547 C494 547 607 430 607 291 C607 152 494 36 355 36 L355 36 Z M396 139 L396 447 L358 447 L260 418 L260 374 L330 385 L330 139 L396 139 Z " />
<glyph glyph-name="uni2781" unicode="&#x2781;" horiz-adv-x="698" d="M355 0 C516 0 647 130 647 291 C647 452 516 583 355 583 C194 583 64 452 64 291 C64 130 194 0 355 0 L355 0 Z M355 36 C216 36 104 152 104 291 C104 430 216 547 355 547 C494 547 607 430 607 291 C607 152 494 36 355 36 L355 36 Z M243 139 L467 139 L467 190 L332 190 C333 191 334 191 334 192 C409 250 457 305 457 361 C457 422 406 448 349 448 C315 448 276 439 251 420 L251 369 C285 395 315 399 340 399 C367 399 392 386 392 356 C392 299 322 243 243 178 L243 139 Z " />
<glyph glyph-name="uni2782" unicode="&#x2782;" horiz-adv-x="698" d="M355 0 C516 0 647 130 647 291 C647 452 516 583 355 583 C194 583 64 452 64 291 C64 130 194 0 355 0 L355 0 Z M355 36 C216 36 104 152 104 291 C104 430 216 547 355 547 C494 547 607 430 607 291 C607 152 494 36 355 36 L355 36 Z M340 135 C409 135 466 164 466 231 C466 270 437 299 396 303 L396 305 C417 311 452 334 452 377 C452 422 409 448 352 448 C321 448 289 439 265 419 L265 368 C293 392 322 398 344 398 C369 398 388 387 388 363 C388 334 352 312 313 309 L313 272 C372 270 403 258 403 225 C403 199 380 182 351 182 C322 182 293 185 262 201 L262 150 C279 141 301 135 340 135 L340 135 Z " />
<glyph glyph-name="uni2783" unicode="&#x2783;" horiz-adv-x="698" d="M355 0 C516 0 647 130 647 291 C647 452 516 583 355 583 C194 583 64 452 64 291 C64 130 194 0 355 0 L355 0 Z M355 36 C216 36 104 152 104 291 C104 430 216 547 355 547 C494 547 607 430 607 291 C607 152 494 36 355 36 L355 36 Z M343 140 L409 140 L409 215 L451 215 L451 261 L409 261 L409 448 L347 448 L209 260 L209 215 L343 215 L343 140 Z M266 261 L343 365 L343 261 L266 261 Z " />
<glyph glyph-name="uni2784" unicode="&#x2784;" horiz-adv-x="698" d="M355 0 C516 0 647 130 647 291 C647 452 516 583 355 583 C194 583 64 452 64 291 C64 130 194 0 355 0 L355 0 Z M355 36 C216 36 104 152 104 291 C104 430 216 547 355 547 C494 547 607 430 607 291 C607 152 494 36 355 36 L355 36 Z M336 135 C389 135 458 164 458 236 C458 301 411 331 331 331 L321 331 L327 396 L450 396 L450 443 L279 443 L265 283 C279 285 294 286 307 286 C369 286 395 269 395 233 C395 203 371 182 338 182 C312 182 284 188 254 202 L254 150 C274 142 301 135 336 135 L336 135 Z " />
<glyph glyph-name="uni2785" unicode="&#x2785;" horiz-adv-x="698" d="M355 0 C516 0 647 130 647 291 C647 452 516 583 355 583 C194 583 64 452 64 291 C64 130 194 0 355 0 L355 0 Z M355 36 C216 36 104 152 104 291 C104 430 216 547 355 547 C494 547 607 430 607 291 C607 152 494 36 355 36 L355 36 Z M374 400 C393 400 412 398 440 384 L440 437 C417 444 393 448 373 448 C279 448 225 367 225 269 C225 192 261 135 341 135 C417 135 461 188 461 246 C461 310 416 337 361 337 C330 337 310 329 295 320 C303 374 325 400 374 400 L374 400 Z M344 292 C380 292 395 273 395 239 C395 204 379 181 344 181 C304 181 291 214 291 268 L291 279 C305 286 321 292 344 292 L344 292 Z " />
<glyph glyph-name="uni2786" unicode="&#x2786;" horiz-adv-x="698" d="M355 0 C516 0 647 130 647 291 C647 452 516 583 355 583 C194 583 64 452 64 291 C64 130 194 0 355 0 L355 0 Z M355 36 C216 36 104 152 104 291 C104 430 216 547 355 547 C494 547 607 430 607 291 C607 152 494 36 355 36 L355 36 Z M330 139 L462 410 L462 443 L253 443 L253 396 L398 396 L269 141 L270 139 L330 139 Z " />
<glyph glyph-name="uni2787" unicode="&#x2787;" horiz-adv-x="698" d="M355 0 C516 0 647 130 647 291 C647 452 516 583 355 583 C194 583 64 452 64 291 C64 130 194 0 355 0 L355 0 Z M355 36 C216 36 104 152 104 291 C104 430 216 547 355 547 C494 547 607 430 607 291 C607 152 494 36 355 36 L355 36 Z M467 223 C467 259 444 279 415 294 C441 312 460 340 460 372 C460 423 412 448 350 448 C290 448 244 410 244 364 C244 333 261 311 284 296 C254 277 234 247 234 218 C234 166 273 135 346 135 C410 135 467 173 467 223 L467 223 Z M400 363 C400 347 392 327 375 311 C339 325 305 338 305 367 C305 392 323 401 349 401 C385 401 400 384 400 363 L400 363 Z M294 224 C294 247 300 260 315 278 C357 257 402 246 402 217 C402 188 377 180 351 180 C322 180 294 192 294 224 L294 224 Z " />
<glyph glyph-name="uni2788" unicode="&#x2788;" horiz-adv-x="698" d="M355 0 C516 0 647 130 647 291 C647 452 516 583 355 583 C194 583 64 452 64 291 C64 130 194 0 355 0 L355 0 Z M355 36 C216 36 104 152 104 291 C104 430 216 547 355 547 C494 547 607 430 607 291 C607 152 494 36 355 36 L355 36 Z M324 182 C304 182 285 184 257 199 L257 147 C280 138 304 135 324 135 C419 135 472 213 472 314 C472 392 436 448 356 448 C280 448 237 395 237 336 C237 272 282 245 336 245 C365 245 386 253 403 261 C395 209 370 182 324 182 L324 182 Z M353 290 C317 290 301 308 301 344 C301 384 319 402 352 402 C393 402 407 370 407 315 L407 303 C393 295 376 290 353 290 L353 290 Z " />
<glyph glyph-name="uni278A" unicode="&#x278a;" horiz-adv-x="698" d="M355 0 C516 0 647 130 647 291 C647 452 516 583 355 583 C194 583 64 452 64 291 C64 130 194 0 355 0 L355 0 Z M318 140 L318 385 L248 374 L248 419 L347 448 L384 448 L384 140 L318 140 Z " />
<glyph glyph-name="uni278B" unicode="&#x278b;" horiz-adv-x="698" d="M355 0 C516 0 647 130 647 291 C647 452 516 583 355 583 C194 583 64 452 64 291 C64 130 194 0 355 0 L355 0 Z M243 177 C322 243 392 299 392 355 C392 385 367 399 340 399 C315 399 285 395 251 368 L251 419 C276 439 315 448 349 448 C406 448 457 422 457 361 C457 305 410 252 336 194 C336 193 334 190 332 189 L467 189 L467 139 L243 139 L243 177 Z " />
<glyph glyph-name="uni278C" unicode="&#x278c;" horiz-adv-x="698" d="M355 0 C516 0 647 130 647 291 C647 452 516 583 355 583 C194 583 64 452 64 291 C64 130 194 0 355 0 L355 0 Z M340 135 C301 135 279 141 262 150 L262 201 C293 185 322 182 351 182 C380 182 403 199 403 225 C403 258 372 270 313 272 L313 309 C352 312 388 334 388 363 C388 387 369 398 344 398 C322 398 293 392 265 368 L265 419 C289 439 321 448 352 448 C409 448 452 422 452 377 C452 334 417 311 396 305 L396 303 C437 299 466 270 466 231 C466 164 409 135 340 135 L340 135 Z " />
<glyph glyph-name="uni278D" unicode="&#x278d;" horiz-adv-x="698" d="M355 0 C516 0 647 130 647 291 C647 452 516 583 355 583 C194 583 64 452 64 291 C64 130 194 0 355 0 L355 0 Z M343 215 L209 215 L209 260 L347 447 L409 447 L409 260 L451 260 L451 215 L409 215 L409 139 L343 139 L343 215 Z M343 260 L343 365 L266 260 L343 260 Z " />
<glyph glyph-name="uni278E" unicode="&#x278e;" horiz-adv-x="698" d="M355 0 C516 0 647 130 647 291 C647 452 516 583 355 583 C194 583 64 452 64 291 C64 130 194 0 355 0 L355 0 Z M336 135 C301 135 274 142 254 150 L254 202 C284 188 312 182 339 182 C371 182 395 203 395 233 C395 269 369 287 307 287 C294 287 280 285 265 283 L280 443 L450 443 L450 396 L327 396 L321 331 L331 331 C411 331 458 301 458 236 C458 164 390 135 336 135 L336 135 Z " />
<glyph glyph-name="uni278F" unicode="&#x278f;" horiz-adv-x="698" d="M355 0 C516 0 647 130 647 291 C647 452 516 583 355 583 C194 583 64 452 64 291 C64 130 194 0 355 0 L355 0 Z M374 400 C325 400 303 373 295 320 C310 329 330 337 361 337 C416 337 461 310 461 246 C461 188 417 135 341 135 C261 135 225 192 225 269 C225 367 279 448 373 448 C393 448 417 444 440 436 L440 384 C412 398 393 400 374 400 L374 400 Z M344 292 C321 292 305 286 291 279 L291 268 C291 213 304 181 344 181 C379 181 395 204 395 239 C395 273 380 292 344 292 L344 292 Z " />
<glyph glyph-name="uni2790" unicode="&#x2790;" horiz-adv-x="698" d="M355 0 C516 0 647 130 647 291 C647 452 516 583 355 583 C194 583 64 452 64 291 C64 130 194 0 355 0 L355 0 Z M270 139 L269 142 L398 396 L252 396 L252 443 L462 443 L462 410 L329 139 L270 139 Z " />
<glyph glyph-name="uni2791" unicode="&#x2791;" horiz-adv-x="698" d="M355 0 C516 0 647 130 647 291 C647 452 516 583 355 583 C194 583 64 452 64 291 C64 130 194 0 355 0 L355 0 Z M467 223 C467 173 410 135 345 135 C273 135 233 166 233 218 C233 247 254 277 283 296 C261 311 244 333 244 364 C244 410 290 448 350 448 C411 448 460 423 460 372 C460 340 441 312 414 294 C443 279 467 259 467 223 L467 223 Z M399 363 C399 384 385 401 348 401 C322 401 305 392 305 367 C305 338 339 325 375 311 C392 327 399 347 399 363 L399 363 Z M294 224 C294 192 321 180 351 180 C376 180 402 188 402 217 C402 246 357 257 315 278 C300 260 294 247 294 224 L294 224 Z " />
<glyph glyph-name="uni2792" unicode="&#x2792;" horiz-adv-x="698" d="M355 0 C516 0 647 130 647 291 C647 452 516 583 355 583 C194 583 64 452 64 291 C64 130 194 0 355 0 L355 0 Z M324 182 C370 182 395 209 403 261 C386 253 365 245 336 245 C282 245 237 272 237 336 C237 395 280 448 356 448 C436 448 472 392 472 314 C472 213 419 135 325 135 C304 135 280 138 257 147 L257 199 C286 184 304 182 324 182 L324 182 Z M353 290 C376 290 394 295 407 303 L407 315 C407 370 393 402 353 402 C319 402 301 384 301 344 C301 308 317 290 353 290 L353 290 Z " />
<glyph glyph-name="uni301A" unicode="&#x301a;" horiz-adv-x="299" d="M-24 -181 L194 -181 L204 -125 L154 -125 L285 622 L336 622 L345 679 L128 679 L-24 -181 Z M182 622 L220 622 L89 -125 L50 -125 L182 622 Z " />
<glyph glyph-name="uni301B" unicode="&#x301b;" horiz-adv-x="300" d="M321 679 L103 679 L93 622 L144 622 L12 -125 L-39 -125 L-48 -181 L170 -181 L321 679 Z M247 622 L115 -125 L77 -125 L208 622 L247 622 Z " />
<glyph glyph-name="apple" unicode="&#xf8ff;" horiz-adv-x="1241" d="M390 318 L401 318 L401 328 L411 328 L411 338 L421 338 L421 347 L431 347 L431 388 L420 388 L420 348 L401 348 L401 388 L390 388 L390 347 L400 347 L400 329 L390 329 L390 318 Z M350 338 L371 338 L371 348 L351 348 L351 377 L371 377 L371 388 L351 388 L351 398 L340 398 L340 388 L330 388 L330 377 L340 377 L340 347 L350 347 L350 338 Z M590 338 L611 338 L611 348 L591 348 L591 377 L611 377 L611 388 L591 388 L591 398 L580 398 L580 388 L570 388 L570 377 L580 377 L580 347 L590 347 L590 338 Z M700 338 L731 338 L731 348 L701 348 L701 357 L731 357 L731 378 L721 378 L721 388 L700 388 L700 378 L690 378 L690 347 L700 347 L700 338 Z M880 338 L911 338 L911 348 L881 348 L881 357 L911 357 L911 378 L901 378 L901 388 L880 388 L880 378 L870 378 L870 347 L880 347 L880 338 Z M110 347 L121 347 L121 357 L131 357 L131 368 L121 368 L121 378 L110 378 L110 368 L100 368 L100 357 L110 357 L110 347 Z M180 347 L191 347 L191 357 L201 357 L201 368 L191 368 L191 378 L180 378 L180 368 L170 368 L170 357 L180 357 L180 347 Z M270 347 L281 347 L281 357 L291 357 L291 368 L281 368 L281 378 L270 378 L270 368 L260 368 L260 357 L270 357 L270 347 Z M520 338 L541 338 L541 347 L551 347 L551 378 L541 378 L541 388 L520 388 L520 378 L510 378 L510 347 L520 347 L520 338 Z M630 338 L641 338 L641 377 L660 377 L660 338 L671 338 L671 378 L661 378 L661 388 L641 388 L641 408 L630 408 L630 338 Z M960 347 L971 347 L971 357 L981 357 L981 368 L971 368 L971 378 L960 378 L960 368 L950 368 L950 357 L960 357 L960 347 Z M1050 347 L1061 347 L1061 357 L1071 357 L1071 368 L1061 368 L1061 378 L1050 378 L1050 368 L1040 368 L1040 357 L1050 357 L1050 347 Z M1120 347 L1131 347 L1131 357 L1141 357 L1141 368 L1131 368 L1131 378 L1120 378 L1120 368 L1110 368 L1110 357 L1120 357 L1120 347 Z M450 318 L461 318 L461 338 L481 338 L481 347 L491 347 L491 378 L481 378 L481 388 L450 388 L450 318 Z M780 318 L791 318 L791 388 L760 388 L760 378 L750 378 L750 347 L760 347 L760 338 L780 338 L780 318 Z M820 338 L851 338 L851 388 L840 388 L840 348 L821 348 L821 388 L810 388 L810 347 L820 347 L820 338 Z M240 328 L251 328 L251 338 L261 338 L261 348 L250 348 L250 338 L240 338 L240 328 Z M250 377 L261 377 L261 388 L251 388 L251 398 L240 398 L240 387 L250 387 L250 377 Z M300 328 L311 328 L311 338 L301 338 L301 348 L290 348 L290 338 L300 338 L300 328 Z M290 377 L301 377 L301 387 L311 387 L311 398 L300 398 L300 388 L290 388 L290 377 Z M930 328 L941 328 L941 338 L951 338 L951 348 L940 348 L940 338 L930 338 L930 328 Z M940 377 L951 377 L951 388 L941 388 L941 398 L930 398 L930 387 L940 387 L940 377 Z M990 328 L1001 328 L1001 338 L991 338 L991 348 L980 348 L980 338 L990 338 L990 328 Z M980 377 L991 377 L991 387 L1001 387 L1001 398 L990 398 L990 388 L980 388 L980 377 Z M160 338 L171 338 L171 348 L160 348 L160 338 Z M160 377 L171 377 L171 388 L160 388 L160 377 Z M200 338 L211 338 L211 348 L200 348 L200 338 Z M200 377 L211 377 L211 388 L200 388 L200 377 Z M461 348 L461 377 L480 377 L480 348 L461 348 Z M521 348 L521 377 L540 377 L540 348 L521 348 Z M701 368 L701 377 L720 377 L720 368 L701 368 Z M761 348 L761 377 L780 377 L780 348 L761 348 Z M881 368 L881 377 L900 377 L900 368 L881 368 Z M1030 338 L1041 338 L1041 348 L1030 348 L1030 338 Z M1030 377 L1041 377 L1041 388 L1030 388 L1030 377 Z M1070 338 L1081 338 L1081 348 L1070 348 L1070 338 Z M1070 377 L1081 377 L1081 388 L1070 388 L1070 377 Z " />
<glyph glyph-name="f_f" unicode="&#xfb00;" horiz-adv-x="402" d="M41 390 L94 390 L24 -7 C10 -88 -10 -125 -23 -144 C-48 -145 -73 -139 -90 -130 L-109 -198 C-84 -208 -55 -212 -30 -212 C36 -212 83 -100 98 -9 L167 390 L269 390 L200 -7 C186 -88 164 -126 152 -146 C119 -149 82 -136 64 -126 L30 -186 C54 -197 100 -212 143 -212 C209 -212 257 -107 274 -9 L343 390 L411 390 L422 451 L354 451 L359 479 C368 534 379 560 400 587 C409 590 421 590 434 588 C449 587 463 584 477 577 L497 649 C480 656 462 658 446 658 C420 658 392 652 371 638 L368 636 C347 646 312 658 276 658 C240 658 202 647 176 624 C147 599 123 557 111 487 L104 451 L52 451 L41 390 Z M286 487 L279 451 L178 451 L183 479 C192 534 206 562 226 590 C244 592 265 591 280 589 C292 587 305 583 316 579 C303 555 292 525 286 487 L286 487 Z " />
<glyph glyph-name="fi" unicode="&#xfb01;" horiz-adv-x="364" d="M41 390 L94 390 L24 -7 C10 -88 -12 -125 -25 -144 C-50 -145 -74 -139 -92 -130 L-109 -198 C-84 -208 -57 -212 -32 -212 C34 -212 83 -100 98 -9 L168 390 L267 390 L199 0 L274 0 L352 451 L178 451 L183 477 C192 533 204 560 225 587 C233 589 249 590 260 589 C277 588 296 585 312 577 L330 649 C313 656 292 658 276 658 C240 658 201 645 175 623 C146 597 122 556 111 486 L105 451 L52 451 L41 390 Z " />
<glyph glyph-name="fl" unicode="&#xfb02;" horiz-adv-x="369" d="M274 0 L387 653 L320 653 C306 656 290 658 279 658 C243 658 204 644 177 622 C147 597 122 554 111 485 L105 451 L52 451 L41 390 L94 390 L24 -7 C10 -88 -12 -125 -25 -144 C-50 -145 -74 -139 -92 -130 L-109 -198 C-84 -208 -58 -211 -33 -211 C33 -211 83 -100 98 -9 L168 390 L231 390 L241 451 L178 451 L183 476 C192 532 204 558 225 586 C234 588 256 589 272 588 C282 587 291 585 300 583 L199 0 L274 0 Z " />
<glyph glyph-name="f_f_i" unicode="&#xfb03;" horiz-adv-x="539" d="M200 -7 C186 -88 164 -126 152 -146 C120 -149 82 -136 64 -126 L31 -185 C57 -196 99 -212 144 -212 C209 -212 259 -100 274 -9 L343 390 L441 390 L375 0 L448 0 L527 451 L354 451 L359 480 C368 536 380 559 401 587 C410 589 428 590 443 588 C458 586 474 583 486 577 L506 649 C489 655 468 658 452 658 C423 658 392 650 369 636 C348 646 312 658 276 658 C240 658 201 646 174 623 C146 599 123 559 111 488 L104 451 L52 451 L42 390 L94 390 L24 -7 C10 -88 -10 -125 -23 -144 C-48 -145 -73 -139 -90 -130 L-109 -198 C-84 -208 -55 -212 -30 -212 C36 -212 83 -100 98 -9 L167 390 L270 390 L200 -7 Z M183 480 C192 536 206 562 226 589 C236 591 251 591 261 591 C282 590 300 585 316 578 C303 555 293 526 287 488 L280 451 L178 451 L183 480 Z " />
<glyph glyph-name="f_f_l" unicode="&#xfb04;" horiz-adv-x="544" d="M449 0 L563 652 L500 652 C484 656 464 657 451 657 C422 657 391 650 366 636 C345 645 310 657 276 657 C241 657 203 646 177 625 C147 601 123 558 111 486 L105 451 L52 451 L41 390 L94 390 L24 -7 C10 -88 -10 -125 -23 -144 C-48 -145 -73 -139 -90 -130 L-109 -198 C-84 -208 -55 -212 -30 -212 C36 -212 83 -100 98 -9 L167 390 L269 390 L200 -7 C186 -88 164 -126 152 -146 C119 -149 82 -136 64 -126 L31 -185 C55 -196 100 -212 144 -212 C210 -212 259 -100 274 -9 L343 390 L407 390 L417 451 L354 451 L359 478 C367 533 380 559 401 586 C410 589 429 589 444 588 C455 587 466 585 476 582 L374 0 L449 0 Z M183 478 C192 533 206 561 226 589 C241 591 260 590 273 589 C288 587 303 583 315 578 C302 555 292 524 286 486 L280 451 L178 451 L183 478 Z " />
</font>
</defs>
</svg>
