<svg xmlns="http://www.w3.org/2000/svg">
<defs>
<font id="Greta Sans Cnd Std Reg">
<font-face  font-family="Greta Sans Condensed Std" units-per-em="1000" ascent="710" descent="-290" font-style="normal" font-weight="400" font-stretch="condensed" cap-height="583" x-height="450" underline-position="-75" underline-thickness="50" />

<glyph glyph-name="NULL" d="" />
<glyph glyph-name="CR" unicode="&#xd;" horiz-adv-x="250" d="" />
<glyph glyph-name="space" unicode="&#x20;" horiz-adv-x="180" d="" />
<glyph glyph-name="exclam" unicode="&#x21;" horiz-adv-x="197" d="M63 338 L71 191 L125 191 L132 338 L132 583 L63 583 L63 338 Z M99 -7 C130 -7 154 18 154 48 C154 79 130 105 99 105 C68 105 44 79 44 48 C44 18 68 -7 99 -7 L99 -7 Z " />
<glyph glyph-name="quotedbl" unicode="&#x22;" horiz-adv-x="282" d="M51 462 L108 462 L117 658 L51 658 L51 462 Z M172 462 L229 462 L239 658 L172 658 L172 462 Z " />
<glyph glyph-name="numbersign" unicode="&#x23;" horiz-adv-x="448" d="M57 381 L137 381 L109 205 L33 205 L25 158 L101 158 L76 0 L126 0 L151 158 L251 158 L226 0 L276 0 L301 158 L384 158 L391 205 L309 205 L337 381 L416 381 L423 428 L345 428 L370 583 L320 583 L295 428 L195 428 L220 583 L170 583 L145 428 L64 428 L57 381 Z M187 381 L287 381 L259 205 L159 205 L187 381 Z " />
<glyph glyph-name="dollar" unicode="&#x24;" horiz-adv-x="342" d="M195 -79 L195 -2 C264 11 312 63 312 159 C312 263 247 303 182 333 C127 358 98 386 98 443 C98 489 128 528 182 528 C221 528 261 517 294 496 L294 564 C269 577 235 585 195 587 L195 660 L144 660 L144 584 C76 569 34 509 34 435 C34 348 89 304 147 277 C208 248 247 224 247 155 C247 90 213 58 161 58 C118 58 71 72 39 90 L39 19 C72 5 108 -3 144 -5 L144 -79 L195 -79 Z " />
<glyph glyph-name="percent" unicode="&#x25;" horiz-adv-x="521" d="M125 285 C184 285 222 342 222 437 C222 541 183 591 125 591 C65 591 27 530 27 434 C27 335 65 285 125 285 L125 285 Z M127 330 C94 330 79 367 79 435 C79 510 92 544 123 544 C155 544 169 513 169 434 C169 365 156 330 127 330 L127 330 Z M271 368 L321 368 L418 568 L418 583 L358 583 L271 368 Z M396 -8 C456 -8 494 50 494 144 C494 248 455 298 396 298 C337 298 299 238 299 142 C299 43 337 -8 396 -8 L396 -8 Z M398 38 C366 38 351 75 351 143 C351 213 363 252 394 252 C427 252 441 221 441 141 C441 72 428 38 398 38 L398 38 Z M261 228 L211 228 L113 15 L113 0 L173 0 L261 228 Z " />
<glyph glyph-name="ampersand" unicode="&#x26;" horiz-adv-x="512" d="M472 348 L401 348 C389 275 366 209 336 158 C308 185 284 211 268 227 C249 246 230 266 213 286 C270 320 335 378 335 460 C335 532 292 591 208 591 C124 591 72 521 72 438 C72 393 89 349 117 307 C74 274 32 224 32 146 C32 53 90 -7 182 -7 C242 -7 293 20 335 62 C364 33 391 9 405 0 L488 0 L488 17 C466 30 422 72 378 115 C425 184 456 271 472 348 L472 348 Z M199 204 C218 182 256 142 294 103 C264 72 228 54 190 54 C133 54 100 90 100 158 C100 202 118 238 148 264 C164 244 181 224 199 204 L199 204 Z M139 440 C139 506 166 530 205 530 C248 530 266 499 266 454 C266 394 227 357 182 327 C156 366 139 404 139 440 L139 440 Z " />
<glyph glyph-name="quotesingle" unicode="&#x27;" horiz-adv-x="161" d="M51 462 L108 462 L117 658 L51 658 L51 462 Z " />
<glyph glyph-name="parenleft" unicode="&#x28;" horiz-adv-x="237" d="M220 -153 C194 -116 97 44 97 261 C97 473 190 612 218 647 L151 647 C125 617 34 470 34 260 C34 49 124 -114 152 -152 L220 -153 Z " />
<glyph glyph-name="parenright" unicode="&#x29;" horiz-adv-x="237" d="M18 648 C44 612 139 462 139 247 C139 33 45 -116 18 -152 L84 -152 C111 -121 203 37 203 248 C203 458 112 611 85 647 L18 648 Z " />
<glyph glyph-name="asterisk" unicode="&#x2a;" horiz-adv-x="330" d="M37 525 L138 478 L37 433 L61 390 L149 456 L140 336 L188 336 L177 456 L268 389 L292 433 L186 479 L292 526 L268 568 L176 501 L188 624 L140 624 L151 501 L62 567 L37 525 Z " />
<glyph glyph-name="plus" unicode="&#x2b;" horiz-adv-x="358" d="M32 271 L153 271 L153 110 L206 110 L206 271 L326 271 L326 327 L206 327 L206 483 L153 483 L153 327 L32 327 L32 271 Z " />
<glyph glyph-name="comma" unicode="&#x2c;" horiz-adv-x="193" d="M46 -163 C116 -104 150 -29 150 37 C150 72 124 99 94 99 C64 99 41 75 41 44 C62 30 69 9 69 -17 C69 -61 41 -103 13 -137 L46 -163 Z " />
<glyph glyph-name="&amp;#x2d;" unicode="&#x2d;" horiz-adv-x="273" d="M48 213 L225 213 L225 276 L48 276 L48 213 Z " />
<glyph glyph-name="&amp;#xad;" unicode="&#xad;" horiz-adv-x="273" d="M48 213 L225 213 L225 276 L48 276 L48 213 Z " />
<glyph glyph-name="period" unicode="&#x2e;" horiz-adv-x="194" d="M97 -8 C128 -8 152 17 152 47 C152 78 128 104 97 104 C66 104 42 78 42 47 C42 17 66 -8 97 -8 L97 -8 Z " />
<glyph glyph-name="slash" unicode="&#x2f;" horiz-adv-x="251" d="M23 -93 L84 -93 L229 674 L169 674 L23 -93 Z " />
<glyph glyph-name="zero" unicode="0" horiz-adv-x="395" d="M194 -7 C308 -7 354 101 354 298 C354 480 322 591 200 591 C89 591 41 492 41 282 C41 92 77 -7 194 -7 L194 -7 Z M197 55 C134 55 111 115 111 286 C111 455 134 528 196 528 C259 528 283 451 283 297 C283 125 262 55 197 55 L197 55 Z " />
<glyph glyph-name="one" unicode="1" horiz-adv-x="254" d="M194 0 L194 583 L155 583 L23 540 L23 481 L122 502 L122 0 L194 0 Z " />
<glyph glyph-name="two" unicode="2" horiz-adv-x="348" d="M32 0 L314 0 L314 64 L119 64 L119 66 C210 165 299 310 299 429 C299 540 241 591 161 591 C117 591 74 579 43 558 L43 491 C81 520 116 525 147 525 C194 525 229 491 229 417 C229 306 127 161 32 51 L32 0 Z " />
<glyph glyph-name="three" unicode="3" horiz-adv-x="329" d="M134 -7 C211 -7 292 46 292 167 C292 254 243 305 191 311 L191 314 C221 325 274 374 274 459 C274 538 230 591 147 591 C108 591 72 580 41 559 L41 490 C73 516 106 525 132 525 C182 525 205 487 205 440 C205 377 150 329 103 323 L103 271 C173 268 223 234 223 163 C223 102 188 58 139 58 C107 58 73 62 39 80 L39 12 C62 2 89 -7 134 -7 L134 -7 Z " />
<glyph glyph-name="four" unicode="4" horiz-adv-x="351" d="M269 0 L269 147 L324 147 L324 207 L269 207 L269 583 L204 583 L23 202 L23 147 L200 147 L200 0 L269 0 Z M84 207 L196 444 L200 444 L200 207 L84 207 Z " />
<glyph glyph-name="five" unicode="5" horiz-adv-x="328" d="M137 56 C107 56 72 63 38 77 L38 11 C63 2 98 -6 138 -6 C214 -6 292 58 292 177 C292 303 225 347 132 347 C127 347 122 347 117 346 L126 521 L283 521 L283 583 L67 583 L52 283 C71 286 91 287 106 287 C181 287 224 258 224 172 C224 95 183 56 137 56 L137 56 Z " />
<glyph glyph-name="six" unicode="6" horiz-adv-x="365" d="M308 511 L308 578 C283 587 253 591 228 591 C102 591 39 465 39 258 C39 85 82 -7 184 -7 C280 -7 331 74 331 198 C331 310 282 361 204 361 C163 361 134 348 111 335 C121 464 157 528 230 528 C253 528 275 526 308 511 L308 511 Z M190 302 C238 302 262 268 262 190 C262 96 235 55 186 55 C132 55 109 120 109 256 L109 280 C130 292 156 302 190 302 L190 302 Z " />
<glyph glyph-name="seven" unicode="7" horiz-adv-x="301" d="M119 0 L282 543 L282 583 L27 583 L27 522 L212 522 L53 4 L55 0 L119 0 Z " />
<glyph glyph-name="eight" unicode="8" horiz-adv-x="366" d="M327 159 C327 232 290 269 247 297 C288 330 319 387 319 451 C319 536 274 591 182 591 C101 591 49 522 49 439 C49 373 78 334 115 305 C73 276 38 215 38 151 C38 57 81 -7 177 -7 C266 -7 327 67 327 159 L327 159 Z M106 156 C106 211 125 253 150 280 C203 245 258 217 258 152 C258 77 219 55 182 55 C139 55 106 86 106 156 L106 156 Z M250 441 C250 398 235 354 205 323 C158 351 116 379 116 443 C116 499 143 528 181 528 C230 528 250 493 250 441 L250 441 Z " />
<glyph glyph-name="nine" unicode="9" horiz-adv-x="366" d="M57 72 L57 5 C82 -4 112 -8 137 -8 C263 -8 326 118 326 325 C326 498 283 590 181 590 C85 590 34 509 34 385 C34 273 83 222 161 222 C201 222 231 234 253 247 C244 119 208 55 135 55 C112 55 90 57 57 72 L57 72 Z M175 281 C127 281 103 315 103 393 C103 487 130 528 179 528 C233 528 256 463 256 327 L256 302 C235 291 208 281 175 281 L175 281 Z " />
<glyph glyph-name="colon" unicode="&#x3a;" horiz-adv-x="206" d="M103 -8 C134 -8 158 17 158 47 C158 78 134 104 103 104 C72 104 48 78 48 47 C48 17 72 -8 103 -8 L103 -8 Z M103 346 C134 346 158 371 158 401 C158 432 134 458 103 458 C72 458 48 432 48 401 C48 371 72 346 103 346 L103 346 Z " />
<glyph glyph-name="semicolon" unicode="&#x3b;" horiz-adv-x="214" d="M56 -163 C126 -104 160 -29 160 37 C160 72 134 99 104 99 C74 99 51 75 51 44 C72 30 79 9 79 -17 C79 -61 51 -103 23 -137 L56 -163 Z M111 346 C142 346 166 371 166 401 C166 432 142 458 111 458 C80 458 56 432 56 401 C56 371 80 346 111 346 L111 346 Z " />
<glyph glyph-name="less" unicode="&#x3c;" horiz-adv-x="352" d="M304 71 L304 143 L88 296 L88 299 L304 449 L305 520 L24 317 L24 273 L304 71 Z " />
<glyph glyph-name="equal" unicode="&#x3d;" horiz-adv-x="378" d="M49 178 L329 178 L329 237 L49 237 L49 178 Z M49 356 L329 356 L329 415 L49 415 L49 356 Z " />
<glyph glyph-name="greater" unicode="&#x3e;" horiz-adv-x="351" d="M327 273 L327 317 L47 520 L47 449 L261 298 L261 295 L47 143 L47 71 L327 273 Z " />
<glyph glyph-name="question" unicode="&#x3f;" horiz-adv-x="286" d="M92 185 L150 185 L150 267 C187 289 259 346 259 449 C259 547 209 591 131 591 C101 591 62 583 32 567 L32 504 C61 518 95 529 122 529 C163 529 188 506 188 444 C188 351 121 310 92 293 L92 185 Z M121 -7 C152 -7 176 18 176 48 C176 79 152 105 121 105 C90 105 66 79 66 48 C66 18 90 -7 121 -7 L121 -7 Z " />
<glyph glyph-name="at" unicode="&#x40;" horiz-adv-x="659" d="M353 10 L390 -4 C537 36 636 175 636 316 C636 508 525 642 369 642 C173 642 30 447 30 198 C30 -58 131 -200 315 -200 C398 -200 490 -174 552 -127 L552 -68 C482 -119 397 -143 329 -143 C179 -143 91 -32 91 201 C91 416 211 586 363 586 C502 586 577 474 577 307 C577 215 528 114 428 63 L419 70 L470 454 L414 454 L411 432 C388 445 364 453 347 453 C302 453 272 423 248 388 C209 326 192 218 192 123 C192 75 197 31 203 -3 L252 -3 L371 142 L353 10 Z M254 92 C253 116 251 141 251 166 C251 255 274 343 313 396 C317 397 322 398 327 398 C347 398 375 386 402 370 L381 217 L268 89 L254 92 Z " />
<glyph glyph-name="A" unicode="A" horiz-adv-x="394" d="M9 0 L79 0 L122 176 L263 176 L298 0 L374 0 L238 583 L167 583 L9 0 Z M160 332 L198 488 L202 488 L232 331 L250 239 L137 239 L160 332 Z " />
<glyph glyph-name="B" unicode="B" horiz-adv-x="399" d="M59 0 L206 0 C316 0 370 64 370 166 C370 270 307 302 266 307 L266 309 C311 326 341 369 341 441 C341 534 287 583 187 583 L59 583 L59 0 Z M172 269 C243 269 294 251 294 173 C294 85 250 63 191 63 L132 63 L132 269 L172 269 Z M172 520 C221 520 264 506 264 424 C264 369 235 329 174 329 L132 329 L132 520 L172 520 Z " />
<glyph glyph-name="C" unicode="C" horiz-adv-x="394" d="M244 -7 C296 -7 339 6 361 19 L361 85 C327 65 295 58 256 58 C161 58 112 132 112 296 C112 440 159 526 248 526 C288 526 321 520 361 497 L361 568 C337 579 307 591 245 591 C100 591 35 454 35 286 C35 97 101 -7 244 -7 L244 -7 Z " />
<glyph glyph-name="D" unicode="D" horiz-adv-x="465" d="M59 0 L197 0 C336 0 430 102 430 303 C430 518 324 583 194 583 L59 583 L59 0 Z M185 520 C288 520 354 475 354 295 C354 134 294 63 194 63 L132 63 L132 520 L185 520 Z " />
<glyph glyph-name="E" unicode="E" horiz-adv-x="355" d="M59 0 L326 0 L326 63 L132 63 L132 270 L290 270 L290 331 L132 331 L132 520 L321 520 L321 583 L59 583 L59 0 Z " />
<glyph glyph-name="F" unicode="F" horiz-adv-x="336" d="M59 0 L132 0 L132 241 L287 241 L287 303 L132 303 L132 520 L317 520 L317 583 L59 583 L59 0 Z " />
<glyph glyph-name="G" unicode="G" horiz-adv-x="442" d="M249 -7 C304 -7 350 7 397 32 L397 298 L325 298 L325 68 C303 62 282 58 257 58 C169 58 111 120 111 296 C111 449 176 525 264 525 C307 525 353 517 394 494 L395 566 C367 576 329 591 265 591 C117 591 35 455 35 286 C35 98 100 -7 249 -7 L249 -7 Z " />
<glyph glyph-name="H" unicode="H" horiz-adv-x="487" d="M355 0 L428 0 L428 583 L355 583 L355 330 L132 330 L132 583 L59 583 L59 0 L132 0 L132 267 L355 267 L355 0 Z " />
<glyph glyph-name="I" unicode="I" horiz-adv-x="191" d="M59 0 L132 0 L132 583 L59 583 L59 0 Z " />
<glyph glyph-name="J" unicode="J" horiz-adv-x="205" d="M52 -86 C112 3 149 89 149 179 L149 583 L75 583 L75 178 C75 91 34 18 -9 -56 L52 -86 Z " />
<glyph glyph-name="K" unicode="K" horiz-adv-x="395" d="M299 0 L382 0 L214 309 L387 583 L308 583 L145 309 L145 293 L299 0 Z M59 0 L132 0 L132 583 L59 583 L59 0 Z " />
<glyph glyph-name="L" unicode="L" horiz-adv-x="328" d="M59 0 L316 0 L316 63 L132 63 L132 583 L59 583 L59 0 Z " />
<glyph glyph-name="M" unicode="M" horiz-adv-x="570" d="M39 0 L107 0 L123 282 L134 435 L138 435 L179 281 L252 0 L315 0 L392 284 L432 429 L435 429 L444 283 L460 0 L531 0 L490 583 L411 583 L322 252 L289 117 L285 117 L254 249 L167 583 L81 583 L39 0 Z " />
<glyph glyph-name="N" unicode="N" horiz-adv-x="477" d="M59 0 L131 0 L129 420 L131 420 L352 0 L418 0 L418 583 L347 583 L349 170 L347 170 L125 583 L59 583 L59 0 Z " />
<glyph glyph-name="O" unicode="O" horiz-adv-x="470" d="M230 -7 C372 -7 434 117 434 309 C434 465 379 591 242 591 C101 591 35 459 35 280 C35 105 97 -7 230 -7 L230 -7 Z M234 57 C150 57 112 141 112 292 C112 453 154 527 238 527 C318 527 358 450 358 298 C358 145 323 57 234 57 L234 57 Z " />
<glyph glyph-name="P" unicode="P" horiz-adv-x="381" d="M59 0 L132 0 L132 211 L176 211 C301 211 354 290 354 401 C354 531 298 583 202 583 L59 583 L59 0 Z M182 520 C247 520 280 483 280 399 C280 293 232 274 170 272 L132 272 L132 520 L182 520 Z " />
<glyph glyph-name="Q" unicode="Q" horiz-adv-x="470" d="M230 -7 C246 -7 261 -5 275 -2 L362 -109 L457 -109 L458 -94 L330 20 C402 67 434 170 434 309 C434 465 379 591 242 591 C101 591 35 459 35 280 C35 105 97 -7 230 -7 L230 -7 Z M234 57 C150 57 112 141 112 292 C112 453 154 527 238 527 C318 527 358 450 358 298 C358 145 323 57 234 57 L234 57 Z " />
<glyph glyph-name="R" unicode="R" horiz-adv-x="398" d="M59 0 L132 0 L132 221 L173 221 C184 221 195 221 206 223 L300 0 L384 0 L272 246 C322 276 351 331 351 405 C351 529 296 583 199 583 L59 583 L59 0 Z M179 520 C244 520 276 489 276 403 C276 297 229 283 167 283 L132 283 L132 520 L179 520 Z " />
<glyph glyph-name="S" unicode="S" horiz-adv-x="341" d="M38 16 C77 1 114 -7 154 -7 C243 -7 311 49 311 160 C311 268 246 302 184 334 C133 361 105 386 105 443 C105 489 137 525 185 525 C224 525 262 513 293 493 L293 568 C265 582 228 591 182 591 C92 591 34 519 34 433 C34 346 85 304 140 277 C197 249 240 224 240 155 C240 91 206 61 155 61 C113 61 71 72 38 90 L38 16 Z " />
<glyph glyph-name="T" unicode="T" horiz-adv-x="384" d="M12 520 L155 520 L155 0 L229 0 L229 520 L372 520 L372 583 L12 583 L12 520 Z " />
<glyph glyph-name="U" unicode="U" horiz-adv-x="460" d="M232 -7 C320 -7 405 47 405 222 L405 583 L333 583 L333 218 C333 102 301 59 237 59 C173 59 128 89 128 206 L128 583 L55 583 L55 199 C55 36 141 -7 232 -7 L232 -7 Z " />
<glyph glyph-name="V" unicode="V" horiz-adv-x="410" d="M402 583 L328 583 L244 268 L207 109 L204 109 L169 269 L92 583 L17 583 L166 0 L235 0 L402 583 Z " />
<glyph glyph-name="W" unicode="W" horiz-adv-x="641" d="M630 583 L557 583 L489 265 L458 116 L454 116 L426 267 L365 583 L284 583 L215 265 L184 110 L180 110 L154 265 L100 583 L23 583 L139 0 L217 0 L289 328 L319 466 L324 466 L350 328 L413 0 L490 0 L630 583 Z " />
<glyph glyph-name="X" unicode="X" horiz-adv-x="389" d="M101 583 L21 583 L153 295 L7 0 L88 0 L190 235 L192 235 L288 0 L372 0 L236 300 L379 583 L299 583 L198 357 L195 357 L101 583 Z " />
<glyph glyph-name="Y" unicode="Y" horiz-adv-x="387" d="M379 583 L308 583 L237 387 L199 284 L196 284 L157 387 L84 583 L9 583 L156 218 L156 0 L230 0 L230 214 L379 583 Z " />
<glyph glyph-name="Z" unicode="Z" horiz-adv-x="356" d="M328 0 L328 63 L112 63 L338 580 L337 583 L29 583 L29 520 L236 520 L16 3 L18 0 L328 0 Z " />
<glyph glyph-name="bracketleft" unicode="&#x5b;" horiz-adv-x="204" d="M56 -185 L174 -185 L174 -131 L118 -131 L118 621 L174 621 L174 676 L56 676 L56 -185 Z " />
<glyph glyph-name="backslash" unicode="&#x5c;" horiz-adv-x="253" d="M83 674 L22 674 L169 -93 L230 -93 L83 674 Z " />
<glyph glyph-name="bracketright" unicode="&#x5d;" horiz-adv-x="205" d="M149 676 L30 676 L30 621 L86 621 L86 -131 L30 -131 L30 -185 L149 -185 L149 676 Z " />
<glyph glyph-name="asciicircum" unicode="&#x5e;" horiz-adv-x="322" d="M19 240 L80 240 L161 508 L165 508 L237 240 L299 240 L199 583 L128 583 L19 240 Z " />
<glyph glyph-name="underscore" unicode="&#x5f;" horiz-adv-x="483" d="M78 -141 L405 -141 L405 -83 L78 -83 L78 -141 Z " />
<glyph glyph-name="grave" unicode="&#x60;" horiz-adv-x="227" d="M183 528 L117 668 L48 668 L129 528 L183 528 Z " />
<glyph glyph-name="a" unicode="a" horiz-adv-x="350" d="M245 0 L314 0 L298 94 L298 339 C298 430 246 460 178 460 C134 460 80 450 49 436 L49 373 C78 385 127 396 162 396 C201 396 230 382 230 323 L230 252 L187 252 C90 252 26 212 26 116 C26 42 62 -6 129 -6 C175 -6 213 19 237 46 L245 0 Z M143 55 C111 55 95 75 95 124 C95 185 127 199 181 199 L230 199 L230 99 C202 71 173 55 143 55 L143 55 Z " />
<glyph glyph-name="b" unicode="b" horiz-adv-x="376" d="M170 -7 C275 -7 343 73 343 247 C343 395 298 460 214 460 C176 460 144 446 117 428 L117 653 L49 653 L49 13 C96 -2 131 -7 170 -7 L170 -7 Z M194 398 C249 398 272 360 272 237 C272 126 254 54 176 54 C158 54 136 56 117 59 L117 371 C140 387 167 398 194 398 L194 398 Z " />
<glyph glyph-name="c" unicode="c" horiz-adv-x="316" d="M190 -7 C229 -7 259 -1 284 14 L284 72 C258 60 231 54 207 54 C144 54 104 103 104 226 C104 346 145 396 203 396 C229 396 257 392 284 375 L284 445 C259 457 229 460 199 460 C90 460 32 361 32 220 C32 74 84 -7 190 -7 L190 -7 Z " />
<glyph glyph-name="d" unicode="d" horiz-adv-x="382" d="M275 0 L344 0 L329 97 L329 653 L261 653 L261 454 C244 457 218 460 198 460 C102 460 32 375 32 208 C32 57 91 -6 163 -6 C207 -6 242 16 267 48 L275 0 Z M178 60 C127 60 104 111 104 218 C104 346 138 399 200 399 C219 399 243 396 261 389 L261 101 C230 73 206 60 178 60 L178 60 Z " />
<glyph glyph-name="e" unicode="e" horiz-adv-x="365" d="M203 -7 C259 -7 297 3 327 21 L327 78 C291 62 251 54 214 54 C144 54 106 96 102 205 L331 205 L331 246 C331 376 292 460 190 460 C84 460 32 363 32 217 C32 62 92 -7 203 -7 L203 -7 Z M186 397 C241 397 259 335 260 259 L103 259 C108 360 140 397 186 397 L186 397 Z " />
<glyph glyph-name="f" unicode="f" horiz-adv-x="228" d="M18 389 L70 389 L70 0 L138 0 L138 389 L211 389 L211 450 L138 450 L138 502 C138 574 160 601 199 601 C218 601 232 599 250 594 L250 656 C239 659 225 661 207 661 C133 661 70 620 70 505 L70 450 L18 450 L18 389 Z " />
<glyph glyph-name="g" unicode="g" horiz-adv-x="358" d="M172 171 C248 171 304 242 304 314 C304 347 298 375 286 398 L351 398 L351 451 L250 439 C229 453 203 460 172 460 C89 460 37 389 37 310 C37 242 65 200 111 181 L48 104 L48 56 L96 49 C54 20 15 -21 15 -82 C15 -164 70 -214 165 -214 C271 -214 343 -135 343 -37 C343 36 305 82 214 95 L115 110 L162 171 L172 171 Z M188 35 C255 24 277 0 277 -48 C277 -110 233 -156 172 -156 C112 -156 82 -127 82 -71 C82 -29 110 9 150 41 L188 35 Z M172 225 C128 225 105 258 105 315 C105 375 124 405 169 405 C213 405 235 373 235 314 C235 258 212 225 172 225 L172 225 Z " />
<glyph glyph-name="h" unicode="h" horiz-adv-x="393" d="M275 0 L344 0 L344 319 C344 423 307 459 240 459 C193 459 149 434 119 406 L119 653 L51 653 L51 0 L119 0 L119 344 C147 371 182 396 215 396 C265 396 275 366 275 298 L275 0 Z " />
<glyph glyph-name="i" unicode="i" horiz-adv-x="188" d="M17 389 L69 389 L69 0 L137 0 L137 450 L17 450 L17 389 Z M59 613 C59 587 79 567 105 567 C131 567 152 587 152 613 C152 639 131 659 105 659 C79 659 59 639 59 613 L59 613 Z " />
<glyph glyph-name="j" unicode="j" horiz-adv-x="189" d="M17 389 L69 389 L69 18 C69 -64 41 -136 17 -189 L70 -214 C112 -155 138 -61 138 27 L138 450 L17 450 L17 389 Z M105 567 C131 567 152 587 152 613 C152 639 131 659 105 659 C79 659 59 639 59 613 C59 587 79 567 105 567 L105 567 Z " />
<glyph glyph-name="k" unicode="k" horiz-adv-x="346" d="M251 0 L330 0 L205 252 L335 450 L258 450 L138 256 L138 240 L251 0 Z M51 0 L119 0 L119 653 L51 653 L51 0 Z " />
<glyph glyph-name="l" unicode="l" horiz-adv-x="178" d="M55 0 L123 0 L123 653 L55 653 L55 0 Z " />
<glyph glyph-name="m" unicode="m" horiz-adv-x="589" d="M472 0 L540 0 L540 319 C540 423 504 459 437 459 C390 459 347 433 318 403 C302 443 272 459 228 459 C181 459 142 434 113 406 L106 450 L38 450 L53 345 L53 0 L121 0 L121 353 C146 377 174 396 202 396 C252 396 262 369 262 298 L262 0 L330 0 L330 319 C330 331 329 342 328 352 C354 376 384 396 412 396 C462 396 472 369 472 298 L472 0 Z " />
<glyph glyph-name="n" unicode="n" horiz-adv-x="394" d="M53 0 L121 0 L121 345 C149 371 184 396 217 396 C267 396 277 366 277 298 L277 0 L345 0 L345 319 C345 423 309 459 242 459 C190 459 144 430 114 400 L106 450 L38 450 L53 345 L53 0 Z " />
<glyph glyph-name="o" unicode="o" horiz-adv-x="371" d="M184 -7 C285 -7 339 101 339 228 C339 388 297 460 188 460 C91 460 32 353 32 223 C32 60 84 -7 184 -7 L184 -7 Z M187 55 C120 55 102 108 102 226 C102 330 120 397 186 397 C260 397 269 332 269 225 C269 121 253 55 187 55 L187 55 Z " />
<glyph glyph-name="p" unicode="p" horiz-adv-x="380" d="M53 -207 L121 -207 L121 0 C138 -4 158 -7 180 -7 C275 -7 347 57 347 245 C347 397 304 459 220 459 C179 459 143 439 113 409 L106 450 L38 450 L53 347 L53 -207 Z M200 396 C254 396 276 359 276 236 C276 117 255 54 182 54 C164 54 140 56 121 61 L121 360 C144 381 171 396 200 396 L200 396 Z " />
<glyph glyph-name="q" unicode="q" horiz-adv-x="379" d="M206 460 C102 460 32 373 32 208 C32 44 95 -7 170 -7 C205 -7 236 8 261 27 L261 -207 L329 -207 L329 443 C280 455 248 460 206 460 L206 460 Z M183 54 C130 54 102 89 102 219 C102 345 136 400 202 400 C223 400 243 396 261 392 L261 84 C234 66 208 54 183 54 L183 54 Z " />
<glyph glyph-name="r" unicode="r" horiz-adv-x="257" d="M53 0 L121 0 L121 326 C143 354 175 388 219 388 C227 388 236 388 245 385 L245 454 C235 457 226 458 216 458 C177 458 141 424 116 392 L107 450 L38 450 L53 345 L53 0 Z " />
<glyph glyph-name="s" unicode="s" horiz-adv-x="310" d="M140 -7 C214 -7 282 32 282 131 C282 215 225 241 170 261 C126 277 97 292 97 334 C97 374 126 398 167 398 C200 398 227 393 269 374 L269 440 C242 454 201 460 169 460 C92 460 32 412 32 329 C32 253 86 223 137 205 C183 189 219 172 219 128 C219 75 187 56 147 56 C112 56 78 63 35 81 L35 14 C65 1 100 -7 140 -7 L140 -7 Z " />
<glyph glyph-name="t" unicode="t" horiz-adv-x="266" d="M18 389 L73 389 L73 107 C73 24 118 -7 174 -7 C204 -7 233 -3 253 9 L253 65 C236 59 216 54 197 54 C162 54 142 72 141 121 L141 389 L247 389 L247 450 L141 450 L141 570 L73 570 L73 450 L18 450 L18 389 Z " />
<glyph glyph-name="u" unicode="u" horiz-adv-x="390" d="M337 450 L269 450 L269 106 C242 80 211 55 178 55 C128 55 118 85 118 153 L118 450 L49 450 L49 132 C49 28 86 -9 153 -9 C203 -9 246 20 276 51 L284 0 L352 0 L337 106 L337 450 Z " />
<glyph glyph-name="v" unicode="v" horiz-adv-x="341" d="M131 0 L205 0 L330 450 L257 450 L200 211 L174 94 L170 94 L145 210 L90 450 L16 450 L131 0 Z " />
<glyph glyph-name="w" unicode="w" horiz-adv-x="536" d="M520 450 L452 450 L407 215 L383 93 L379 93 L354 213 L307 450 L240 450 L181 208 L155 93 L151 93 L131 209 L92 450 L20 450 L112 0 L185 0 L246 244 L266 335 L270 335 L290 243 L343 0 L420 0 L520 450 Z " />
<glyph glyph-name="x" unicode="x" horiz-adv-x="352" d="M95 450 L19 450 L135 226 L9 0 L85 0 L172 177 L177 177 L259 0 L338 0 L219 234 L336 450 L263 450 L180 279 L176 279 L95 450 Z " />
<glyph glyph-name="y" unicode="y" horiz-adv-x="344" d="M159 -207 L213 6 L331 450 L258 450 L199 203 L174 81 L170 81 L147 200 L91 450 L17 450 L127 0 L147 0 L86 -204 L88 -207 L159 -207 Z " />
<glyph glyph-name="z" unicode="z" horiz-adv-x="309" d="M20 3 L20 0 L286 0 L286 61 L116 61 L283 448 L281 450 L27 450 L27 390 L187 390 L20 3 Z " />
<glyph glyph-name="braceleft" unicode="&#x7b;" horiz-adv-x="235" d="M191 -179 L207 -178 L206 -128 L190 -128 C135 -128 119 -114 124 -39 L137 143 C141 197 125 241 92 253 C125 265 143 300 138 367 L126 547 C120 620 137 630 190 630 L206 630 L207 681 C207 681 184 682 183 682 C116 684 59 658 65 551 L78 357 C81 310 67 279 29 279 L29 229 C68 229 81 195 78 151 L65 -39 C56 -151 119 -182 191 -179 L191 -179 Z " />
<glyph glyph-name="bar" unicode="&#x7c;" horiz-adv-x="180" d="M57 -92 L123 -92 L123 675 L57 675 L57 -92 Z " />
<glyph glyph-name="braceright" unicode="&#x7d;" horiz-adv-x="235" d="M44 680 L28 679 L29 629 L45 629 C100 629 116 615 111 540 L98 358 C94 304 110 260 143 248 C110 236 92 201 97 134 L109 -46 C115 -119 98 -129 45 -129 L29 -129 L28 -180 C28 -180 51 -181 52 -181 C119 -183 176 -157 170 -50 L157 144 C154 191 168 222 206 222 L206 272 C167 272 154 306 157 350 L170 540 C179 652 116 683 44 680 L44 680 Z " />
<glyph glyph-name="asciitilde" unicode="&#x7e;" horiz-adv-x="390" d="M261 250 C301 250 330 280 348 311 L314 345 C299 322 285 309 262 309 C214 309 189 347 131 347 C94 347 59 318 44 294 L73 256 C87 271 103 287 132 287 C175 287 211 250 261 250 L261 250 Z " />
<glyph glyph-name="uni00A0" unicode="&#xa0;" horiz-adv-x="180" d="" />
<glyph glyph-name="exclamdown" unicode="&#xa1;" horiz-adv-x="187" d="M58 -130 L127 -130 L127 115 L120 262 L66 262 L58 115 L58 -130 Z M94 460 C63 460 39 435 39 405 C39 374 63 348 94 348 C125 348 149 374 149 405 C149 435 125 460 94 460 L94 460 Z " />
<glyph glyph-name="cent" unicode="&#xa2;" horiz-adv-x="323" d="M172 -92 L223 -92 L223 -5 C246 -2 265 4 282 14 L282 72 C256 60 229 54 205 54 C142 54 102 103 102 226 C102 346 143 396 201 396 C227 396 255 392 282 375 L282 445 C264 453 244 457 223 459 L223 538 L172 538 L172 458 C79 443 30 349 30 220 C30 81 77 1 172 -6 L172 -92 Z " />
<glyph glyph-name="sterling" unicode="&#xa3;" horiz-adv-x="362" d="M163 177 C163 201 161 227 157 255 L273 255 L273 314 L149 314 C143 353 138 391 138 421 C138 487 169 526 216 526 C253 526 279 517 310 494 L310 567 C285 582 252 591 211 591 C142 591 71 540 71 420 C71 387 75 350 80 314 L37 314 L37 255 L88 255 C93 221 97 189 97 165 C97 130 89 97 76 61 L37 61 L37 0 L329 0 L329 61 L144 61 C155 98 163 139 163 177 L163 177 Z " />
<glyph glyph-name="currency" unicode="&#xa4;" horiz-adv-x="399" d="M66 481 L36 455 L96 386 C80 358 73 317 73 280 C73 242 81 202 97 173 L36 105 L64 77 L123 141 C144 122 171 111 199 111 C227 111 255 123 276 140 L335 75 L362 104 L302 172 C319 200 327 242 327 280 C327 319 320 358 304 385 L363 454 L334 483 L277 418 C255 440 228 450 200 450 C171 450 143 436 122 417 L66 481 Z M125 280 C125 345 146 395 199 395 C254 395 273 341 273 280 C273 217 254 165 199 165 C147 165 125 219 125 280 L125 280 Z " />
<glyph glyph-name="yen" unicode="&#xa5;" horiz-adv-x="424" d="M377 179 L247 179 L247 206 L265 254 L377 254 L377 308 L287 308 L395 583 L325 583 L217 274 L213 274 L102 583 L27 583 L136 308 L50 308 L50 254 L158 254 L174 213 L174 179 L50 179 L50 125 L174 125 L174 0 L247 0 L247 125 L377 125 L377 179 Z " />
<glyph glyph-name="brokenbar" unicode="&#xa6;" horiz-adv-x="178" d="M57 -92 L121 -92 L121 203 L57 203 L57 -92 Z M57 386 L121 386 L121 675 L57 675 L57 386 Z " />
<glyph glyph-name="section" unicode="&#xa7;" horiz-adv-x="371" d="M164 -107 C251 -107 339 -36 339 87 C339 159 309 218 263 277 L109 476 C134 515 179 529 213 529 C250 529 288 520 325 500 L325 568 C302 579 266 591 211 591 C118 591 33 519 33 396 C33 315 68 255 113 197 L261 7 C238 -32 197 -44 161 -44 C123 -44 83 -32 46 -16 L46 -84 C71 -94 112 -107 164 -107 L164 -107 Z M213 244 C258 184 279 138 279 83 L279 73 L161 233 C119 291 89 336 89 402 L89 407 L213 244 Z " />
<glyph glyph-name="dieresis" unicode="&#xa8;" horiz-adv-x="292" d="M75 568 C100 568 119 587 119 611 C119 636 100 655 75 655 C50 655 32 636 32 611 C32 587 50 568 75 568 L75 568 Z M214 568 C239 568 258 587 258 611 C258 636 239 655 214 655 C190 655 171 636 171 611 C171 587 190 568 214 568 L214 568 Z " />
<glyph glyph-name="copyright" unicode="&#xa9;" horiz-adv-x="516" d="M258 -8 C391 -8 479 110 479 289 C479 468 392 591 258 591 C126 591 37 468 37 289 C37 110 124 -8 258 -8 L258 -8 Z M258 20 C144 20 65 123 65 289 C65 451 143 563 258 563 C372 563 451 457 451 289 C451 124 374 20 258 20 L258 20 Z M268 109 C301 109 328 116 341 124 L341 171 C318 159 298 155 273 155 C218 155 187 196 187 291 C187 373 214 426 266 426 C291 426 314 423 341 409 L341 459 C326 466 306 473 267 473 C179 473 134 393 134 288 C134 162 185 109 268 109 L268 109 Z " />
<glyph glyph-name="ordfeminine" unicode="&#xaa;" horiz-adv-x="305" d="M204 272 L258 272 L246 341 L246 498 C246 568 210 591 160 591 C130 591 91 585 66 574 L66 522 C86 530 120 538 146 538 C177 538 193 523 193 480 L193 447 L165 447 C93 447 49 414 49 351 C49 299 73 266 120 266 C154 266 181 285 198 303 L204 272 Z M47 180 L260 180 L260 226 L47 226 L47 180 Z M137 312 C115 312 102 321 102 355 C102 392 125 405 164 405 L193 405 L193 341 C176 325 155 312 137 312 L137 312 Z " />
<glyph glyph-name="guillemotleft" unicode="&#xab;" horiz-adv-x="329" d="M106 46 L166 46 L110 226 L165 405 L105 405 L34 226 L106 46 Z M230 46 L290 46 L234 226 L289 405 L229 405 L158 226 L230 46 Z " />
<glyph glyph-name="logicalnot" unicode="&#xac;" horiz-adv-x="384" d="M270 140 L331 140 L331 324 L49 324 L49 265 L270 265 L270 140 Z " />
<glyph glyph-name="registered" unicode="&#xae;" horiz-adv-x="362" d="M181 267 C258 267 325 329 325 454 C325 579 259 643 181 643 C105 643 38 578 38 454 C38 327 105 267 181 267 L181 267 Z M181 291 C117 291 64 343 64 454 C64 565 116 618 181 618 C246 618 299 565 299 454 C299 340 246 291 181 291 L181 291 Z M127 359 L158 359 L158 429 L175 429 C180 429 186 429 191 430 L220 359 L254 359 L218 440 C234 451 244 470 244 496 C244 540 219 560 184 560 L127 560 L127 359 Z M175 532 C198 532 213 523 213 496 C213 461 194 456 173 456 L158 456 L158 532 L175 532 Z " />
<glyph glyph-name="macron" unicode="&#xaf;" horiz-adv-x="268" d="M40 566 L231 566 L231 627 L40 627 L40 566 Z " />
<glyph glyph-name="degree" unicode="&#xb0;" horiz-adv-x="295" d="M146 332 C216 332 258 390 258 463 C258 538 220 592 151 592 C81 592 37 536 37 462 C37 383 76 332 146 332 L146 332 Z M148 381 C117 381 95 403 95 461 C95 515 116 543 148 543 C180 543 200 519 200 462 C200 405 181 381 148 381 L148 381 Z " />
<glyph glyph-name="plusminus" unicode="&#xb1;" horiz-adv-x="374" d="M48 303 L161 303 L161 157 L215 157 L215 303 L328 303 L328 358 L215 358 L215 500 L161 500 L161 358 L48 358 L48 303 Z M46 38 L328 38 L328 98 L46 98 L46 38 Z " />
<glyph glyph-name="twosuperior" unicode="&#xb2;" horiz-adv-x="198" d="M121 620 C121 558 71 501 15 437 L15 400 L178 400 L178 445 L75 445 L75 447 C128 500 173 562 173 625 C173 687 137 713 92 713 C67 713 40 707 21 694 L22 650 C45 667 64 670 81 670 C103 670 121 655 121 620 L121 620 Z " />
<glyph glyph-name="threesuperior" unicode="&#xb3;" horiz-adv-x="188" d="M76 396 C127 396 169 422 169 490 C169 535 144 562 112 565 L112 567 C131 573 158 596 158 643 C158 688 130 713 86 713 C63 713 40 707 22 694 L22 651 C42 666 60 670 75 670 C95 670 108 659 108 632 C108 599 82 575 56 571 L56 542 C96 540 118 524 118 487 C118 455 103 438 78 438 C58 438 40 440 19 450 L19 406 C33 400 49 396 76 396 L76 396 Z " />
<glyph glyph-name="acute" unicode="&#xb4;" horiz-adv-x="227" d="M113 528 L194 668 L126 668 L59 528 L113 528 Z " />
<glyph glyph-name="mu" unicode="&#xb5;" horiz-adv-x="412" d="M54 -207 L122 -207 L122 24 C134 4 157 -6 176 -6 C213 -6 245 19 269 56 C277 9 303 -6 336 -6 C354 -6 374 -3 390 6 L390 54 C378 53 366 53 358 53 C341 53 335 72 335 111 L335 450 L267 450 L267 112 C242 80 210 60 185 60 C143 60 122 88 122 143 L122 450 L54 450 L54 -207 Z " />
<glyph glyph-name="paragraph" unicode="&#xb6;" horiz-adv-x="454" d="M207 -207 L274 -207 L274 521 L330 521 L330 -207 L397 -207 L397 583 L210 583 C93 583 20 505 20 375 C20 234 102 169 207 166 L207 -207 Z " />
<glyph glyph-name="periodcentered" unicode="&#xb7;" horiz-adv-x="188" d="M94 264 C120 264 141 284 141 310 C141 336 120 356 94 356 C67 356 47 336 47 310 C47 284 67 264 94 264 L94 264 Z " />
<glyph glyph-name="cedilla" unicode="&#xb8;" horiz-adv-x="228" d="M117 -214 C176 -214 204 -174 204 -130 C204 -84 176 -58 138 -48 L156 13 L110 13 L85 -62 L85 -78 C127 -79 147 -100 147 -126 C147 -145 139 -164 108 -164 C91 -164 66 -156 53 -148 L53 -200 C68 -208 96 -214 117 -214 L117 -214 Z " />
<glyph glyph-name="onesuperior" unicode="&#xb9;" horiz-adv-x="148" d="M113 400 L113 712 L79 712 L6 686 L6 645 L62 659 L62 400 L113 400 Z " />
<glyph glyph-name="ordmasculine" unicode="&#xba;" horiz-adv-x="315" d="M157 266 C233 266 269 335 269 429 C269 540 237 591 160 591 C88 591 47 520 47 426 C47 315 83 266 157 266 L157 266 Z M48 180 L270 180 L270 226 L48 226 L48 180 Z M159 312 C118 312 104 346 104 428 C104 500 117 544 158 544 C203 544 213 501 213 427 C213 355 198 312 159 312 L159 312 Z " />
<glyph glyph-name="guillemotright" unicode="&#xbb;" horiz-adv-x="331" d="M99 408 L39 408 L95 228 L40 49 L100 49 L171 228 L99 408 Z M225 408 L165 408 L221 228 L166 49 L226 49 L297 228 L225 408 Z " />
<glyph glyph-name="onequarter" unicode="&#xbc;" horiz-adv-x="457" d="M131 260 L131 572 L97 572 L24 546 L24 505 L80 519 L80 260 L131 260 Z M351 0 L401 0 L401 76 L430 76 L430 116 L401 116 L401 312 L350 312 L254 116 L254 76 L351 76 L351 0 Z M295 116 L349 233 L351 233 L351 116 L295 116 Z M121 0 L367 556 L367 561 L327 561 L80 5 L80 0 L121 0 Z " />
<glyph glyph-name="onehalf" unicode="&#xbd;" horiz-adv-x="467" d="M131 260 L131 572 L97 572 L24 546 L24 505 L80 519 L80 260 L131 260 Z M379 220 C379 158 329 101 273 37 L273 0 L436 0 L436 45 L333 45 L333 47 C386 100 431 162 431 225 C431 287 395 313 350 313 C325 313 298 307 279 294 L280 250 C303 267 322 270 339 270 C361 270 379 255 379 220 L379 220 Z M119 0 L365 556 L365 561 L325 561 L78 5 L78 0 L119 0 Z " />
<glyph glyph-name="threequarters" unicode="&#xbe;" horiz-adv-x="462" d="M93 258 C144 258 186 284 186 352 C186 397 161 424 129 427 L129 429 C148 435 175 458 175 505 C175 550 147 575 103 575 C80 575 57 569 39 556 L39 513 C59 528 77 532 92 532 C112 532 125 521 125 494 C125 461 99 437 73 433 L73 404 C113 402 135 386 135 349 C135 317 120 300 95 300 C75 300 57 302 36 312 L36 268 C50 262 66 258 93 258 L93 258 Z M356 0 L406 0 L406 76 L435 76 L435 116 L406 116 L406 312 L355 312 L259 116 L259 76 L356 76 L356 0 Z M300 116 L354 233 L356 233 L356 116 L300 116 Z M133 0 L379 556 L379 561 L339 561 L92 5 L92 0 L133 0 Z " />
<glyph glyph-name="questiondown" unicode="&#xbf;" horiz-adv-x="281" d="M192 268 L134 268 L134 186 C97 164 25 107 25 4 C25 -94 75 -138 153 -138 C183 -138 222 -130 252 -114 L252 -51 C223 -65 189 -76 162 -76 C121 -76 96 -53 96 9 C96 102 163 143 192 160 L192 268 Z M163 460 C132 460 108 435 108 405 C108 374 132 348 163 348 C194 348 218 374 218 405 C218 435 194 460 163 460 L163 460 Z " />
<glyph glyph-name="Agrave" unicode="&#xc0;" horiz-adv-x="394" d="M9 0 L79 0 L122 176 L263 176 L298 0 L374 0 L238 583 L167 583 L9 0 Z M160 332 L198 488 L202 488 L232 331 L250 239 L137 239 L160 332 Z M230 630 L168 739 L97 739 L172 630 L230 630 Z " />
<glyph glyph-name="Aacute" unicode="&#xc1;" horiz-adv-x="394" d="M9 0 L79 0 L122 176 L263 176 L298 0 L374 0 L238 583 L167 583 L9 0 Z M160 332 L198 488 L202 488 L232 331 L250 239 L137 239 L160 332 Z M226 630 L301 739 L230 739 L168 630 L226 630 Z " />
<glyph glyph-name="Acircumflex" unicode="&#xc2;" horiz-adv-x="394" d="M9 0 L79 0 L122 176 L263 176 L298 0 L374 0 L238 583 L167 583 L9 0 Z M160 332 L198 488 L202 488 L232 331 L250 239 L137 239 L160 332 Z M178 744 L95 626 L156 626 L203 697 L206 697 L252 626 L311 626 L235 744 L178 744 Z " />
<glyph glyph-name="Atilde" unicode="&#xc3;" horiz-adv-x="394" d="M9 0 L79 0 L122 176 L263 176 L298 0 L374 0 L238 583 L167 583 L9 0 Z M160 332 L198 488 L202 488 L232 331 L250 239 L137 239 L160 332 Z M294 723 C288 706 269 691 248 691 C221 691 199 724 163 724 C128 724 103 700 90 676 L112 636 C125 657 140 668 159 668 C188 668 213 635 248 635 C281 635 306 658 316 683 L294 723 Z " />
<glyph glyph-name="Adieresis" unicode="&#xc4;" horiz-adv-x="394" d="M9 0 L79 0 L122 176 L263 176 L298 0 L374 0 L238 583 L167 583 L9 0 Z M160 332 L198 488 L202 488 L232 331 L250 239 L137 239 L160 332 Z M270 632 C294 632 313 650 313 674 C313 699 294 718 270 718 C245 718 227 699 227 674 C227 650 245 632 270 632 L270 632 Z M130 632 C155 632 174 650 174 674 C174 699 155 718 130 718 C106 718 88 699 88 674 C88 650 106 632 130 632 L130 632 Z " />
<glyph glyph-name="Aring" unicode="&#xc5;" horiz-adv-x="394" d="M9 0 L79 0 L122 176 L263 176 L298 0 L374 0 L238 583 L167 583 L9 0 Z M203 769 C165 769 129 744 129 691 C129 638 161 612 203 612 C245 612 277 639 277 691 C277 744 244 769 203 769 L203 769 Z M160 332 L198 488 L202 488 L232 331 L250 239 L137 239 L160 332 Z M203 729 C225 729 234 716 234 691 C234 667 225 652 203 652 C182 652 173 666 173 691 C173 713 182 729 203 729 L203 729 Z " />
<glyph glyph-name="AE" unicode="&#xc6;" horiz-adv-x="552" d="M255 0 L522 0 L522 63 L329 63 L329 270 L487 270 L487 331 L329 331 L329 520 L518 520 L518 583 L220 583 L4 0 L74 0 L135 176 L255 176 L255 0 Z M251 510 L255 510 L255 239 L157 239 L251 510 Z " />
<glyph glyph-name="Ccedilla" unicode="&#xc7;" horiz-adv-x="395" d="M222 -214 C281 -214 309 -174 309 -130 C309 -84 281 -58 243 -48 L255 -7 C302 -5 341 7 362 19 L362 85 C328 65 296 58 257 58 C162 58 113 132 113 296 C113 440 160 526 249 526 C289 526 322 520 362 497 L362 568 C338 579 308 591 246 591 C101 591 36 454 36 286 C36 113 91 12 209 -4 L190 -62 L190 -78 C232 -79 252 -100 252 -126 C252 -145 244 -164 213 -164 C196 -164 171 -156 158 -148 L158 -200 C173 -208 201 -214 222 -214 L222 -214 Z " />
<glyph glyph-name="Egrave" unicode="&#xc8;" horiz-adv-x="355" d="M59 0 L326 0 L326 63 L132 63 L132 270 L290 270 L290 331 L132 331 L132 520 L321 520 L321 583 L59 583 L59 0 Z M246 630 L184 739 L113 739 L188 630 L246 630 Z " />
<glyph glyph-name="Eacute" unicode="&#xc9;" horiz-adv-x="355" d="M59 0 L326 0 L326 63 L132 63 L132 270 L290 270 L290 331 L132 331 L132 520 L321 520 L321 583 L59 583 L59 0 Z M201 630 L276 739 L205 739 L143 630 L201 630 Z " />
<glyph glyph-name="Ecircumflex" unicode="&#xca;" horiz-adv-x="355" d="M59 0 L326 0 L326 63 L132 63 L132 270 L290 270 L290 331 L132 331 L132 520 L321 520 L321 583 L59 583 L59 0 Z M172 743 L89 625 L150 625 L197 696 L200 696 L246 625 L305 625 L229 743 L172 743 Z " />
<glyph glyph-name="Edieresis" unicode="&#xcb;" horiz-adv-x="355" d="M59 0 L326 0 L326 63 L132 63 L132 270 L290 270 L290 331 L132 331 L132 520 L321 520 L321 583 L59 583 L59 0 Z M262 633 C286 633 305 651 305 675 C305 700 286 719 262 719 C237 719 219 700 219 675 C219 651 237 633 262 633 L262 633 Z M122 633 C147 633 166 651 166 675 C166 700 147 719 122 719 C98 719 80 700 80 675 C80 651 98 633 122 633 L122 633 Z " />
<glyph glyph-name="Igrave" unicode="&#xcc;" horiz-adv-x="191" d="M128 630 L66 739 L-5 739 L70 630 L128 630 Z M59 0 L132 0 L132 583 L59 583 L59 0 Z " />
<glyph glyph-name="Iacute" unicode="&#xcd;" horiz-adv-x="191" d="M59 0 L132 0 L132 583 L59 583 L59 0 Z M120 630 L195 739 L124 739 L62 630 L120 630 Z " />
<glyph glyph-name="Icircumflex" unicode="&#xce;" horiz-adv-x="191" d="M59 0 L132 0 L132 583 L59 583 L59 0 Z M68 743 L-15 625 L46 625 L93 696 L96 696 L142 625 L201 625 L125 743 L68 743 Z " />
<glyph glyph-name="Idieresis" unicode="&#xcf;" horiz-adv-x="191" d="M59 0 L132 0 L132 583 L59 583 L59 0 Z M23 633 C48 633 67 651 67 675 C67 700 48 719 23 719 C-1 719 -19 700 -19 675 C-19 651 -1 633 23 633 L23 633 Z M163 633 C187 633 206 651 206 675 C206 700 187 719 163 719 C138 719 120 700 120 675 C120 651 138 633 163 633 L163 633 Z " />
<glyph glyph-name="Eth" unicode="&#xd0;" horiz-adv-x="468" d="M18 271 L62 271 L62 0 L200 0 C339 0 433 102 433 303 C433 518 327 583 197 583 L62 583 L62 331 L18 331 L18 271 Z M237 271 L237 331 L135 331 L135 520 L188 520 C291 520 357 475 357 295 C357 134 297 63 197 63 L135 63 L135 271 L237 271 Z " />
<glyph glyph-name="Ntilde" unicode="&#xd1;" horiz-adv-x="477" d="M336 723 C330 706 311 691 290 691 C263 691 241 724 205 724 C170 724 145 700 132 676 L154 636 C167 657 182 668 201 668 C230 668 255 635 290 635 C323 635 348 658 358 683 L336 723 Z M59 0 L131 0 L129 420 L131 420 L352 0 L418 0 L418 583 L347 583 L349 170 L347 170 L125 583 L59 583 L59 0 Z " />
<glyph glyph-name="Ograve" unicode="&#xd2;" horiz-adv-x="470" d="M265 630 L203 739 L132 739 L207 630 L265 630 Z M230 -7 C372 -7 434 117 434 309 C434 465 379 591 242 591 C101 591 35 459 35 280 C35 105 97 -7 230 -7 L230 -7 Z M234 57 C150 57 112 141 112 292 C112 453 154 527 238 527 C318 527 358 450 358 298 C358 145 323 57 234 57 L234 57 Z " />
<glyph glyph-name="Oacute" unicode="&#xd3;" horiz-adv-x="470" d="M250 630 L325 739 L254 739 L192 630 L250 630 Z M230 -7 C372 -7 434 117 434 309 C434 465 379 591 242 591 C101 591 35 459 35 280 C35 105 97 -7 230 -7 L230 -7 Z M234 57 C150 57 112 141 112 292 C112 453 154 527 238 527 C318 527 358 450 358 298 C358 145 323 57 234 57 L234 57 Z " />
<glyph glyph-name="Ocircumflex" unicode="&#xd4;" horiz-adv-x="470" d="M230 -7 C372 -7 434 117 434 309 C434 465 379 591 242 591 C101 591 35 459 35 280 C35 105 97 -7 230 -7 L230 -7 Z M234 57 C150 57 112 141 112 292 C112 453 154 527 238 527 C318 527 358 450 358 298 C358 145 323 57 234 57 L234 57 Z M212 744 L129 626 L190 626 L237 697 L240 697 L286 626 L345 626 L269 744 L212 744 Z " />
<glyph glyph-name="Otilde" unicode="&#xd5;" horiz-adv-x="470" d="M326 722 C320 705 301 690 280 690 C253 690 231 723 195 723 C160 723 135 699 122 675 L144 635 C157 656 172 667 191 667 C220 667 245 634 280 634 C313 634 338 657 348 682 L326 722 Z M230 -7 C372 -7 434 117 434 309 C434 465 379 591 242 591 C101 591 35 459 35 280 C35 105 97 -7 230 -7 L230 -7 Z M234 57 C150 57 112 141 112 292 C112 453 154 527 238 527 C318 527 358 450 358 298 C358 145 323 57 234 57 L234 57 Z " />
<glyph glyph-name="Odieresis" unicode="&#xd6;" horiz-adv-x="470" d="M165 632 C190 632 209 650 209 674 C209 699 190 718 165 718 C141 718 123 699 123 674 C123 650 141 632 165 632 L165 632 Z M305 632 C329 632 348 650 348 674 C348 699 329 718 305 718 C280 718 262 699 262 674 C262 650 280 632 305 632 L305 632 Z M230 -7 C372 -7 434 117 434 309 C434 465 379 591 242 591 C101 591 35 459 35 280 C35 105 97 -7 230 -7 L230 -7 Z M234 57 C150 57 112 141 112 292 C112 453 154 527 238 527 C318 527 358 450 358 298 C358 145 323 57 234 57 L234 57 Z " />
<glyph glyph-name="multiply" unicode="&#xd7;" horiz-adv-x="370" d="M80 119 L185 254 L290 119 L332 149 L217 296 L332 443 L291 476 L184 338 L78 476 L38 443 L152 296 L38 149 L80 119 Z " />
<glyph glyph-name="Oslash" unicode="&#xd8;" horiz-adv-x="471" d="M231 -7 C373 -7 435 117 435 309 C435 383 422 450 395 500 L451 591 L393 591 L363 543 C334 573 294 591 243 591 C102 591 36 459 36 280 C36 200 49 133 76 84 L19 -7 L78 -7 L108 40 C138 9 179 -7 231 -7 L231 -7 Z M235 57 C197 57 169 74 149 106 L346 423 C355 389 359 347 359 298 C359 145 324 57 235 57 L235 57 Z M113 292 C113 453 155 527 239 527 C275 527 303 511 323 479 L126 164 C117 199 113 241 113 292 L113 292 Z " />
<glyph glyph-name="Ugrave" unicode="&#xd9;" horiz-adv-x="460" d="M264 630 L202 739 L131 739 L206 630 L264 630 Z M232 -7 C320 -7 405 47 405 222 L405 583 L333 583 L333 218 C333 102 301 59 237 59 C173 59 128 89 128 206 L128 583 L55 583 L55 199 C55 36 141 -7 232 -7 L232 -7 Z " />
<glyph glyph-name="Uacute" unicode="&#xda;" horiz-adv-x="460" d="M252 630 L327 739 L256 739 L194 630 L252 630 Z M232 -7 C320 -7 405 47 405 222 L405 583 L333 583 L333 218 C333 102 301 59 237 59 C173 59 128 89 128 206 L128 583 L55 583 L55 199 C55 36 141 -7 232 -7 L232 -7 Z " />
<glyph glyph-name="Ucircumflex" unicode="&#xdb;" horiz-adv-x="460" d="M232 -7 C320 -7 405 47 405 222 L405 583 L333 583 L333 218 C333 102 301 59 237 59 C173 59 128 89 128 206 L128 583 L55 583 L55 199 C55 36 141 -7 232 -7 L232 -7 Z M210 743 L127 625 L188 625 L235 696 L238 696 L284 625 L343 625 L267 743 L210 743 Z " />
<glyph glyph-name="Udieresis" unicode="&#xdc;" horiz-adv-x="460" d="M165 632 C190 632 209 650 209 674 C209 699 190 718 165 718 C141 718 123 699 123 674 C123 650 141 632 165 632 L165 632 Z M305 632 C329 632 348 650 348 674 C348 699 329 718 305 718 C280 718 262 699 262 674 C262 650 280 632 305 632 L305 632 Z M232 -7 C320 -7 405 47 405 222 L405 583 L333 583 L333 218 C333 102 301 59 237 59 C173 59 128 89 128 206 L128 583 L55 583 L55 199 C55 36 141 -7 232 -7 L232 -7 Z " />
<glyph glyph-name="Yacute" unicode="&#xdd;" horiz-adv-x="387" d="M379 583 L308 583 L237 387 L199 284 L196 284 L157 387 L84 583 L9 583 L156 218 L156 0 L230 0 L230 214 L379 583 Z M219 630 L294 739 L223 739 L161 630 L219 630 Z " />
<glyph glyph-name="Thorn" unicode="&#xde;" horiz-adv-x="377" d="M59 0 L132 0 L132 113 L172 113 C300 113 351 198 351 302 C351 426 298 485 198 485 L132 485 L132 583 L59 583 L59 0 Z M179 422 C244 422 276 385 276 301 C276 195 228 177 167 176 L132 176 L132 422 L179 422 Z " />
<glyph glyph-name="germandbls" unicode="&#xdf;" horiz-adv-x="396" d="M200 661 C120 661 51 612 51 493 L51 0 L119 0 L119 488 C119 573 151 597 193 597 C238 597 261 569 261 518 C261 452 173 410 173 327 C173 263 205 230 241 210 C280 188 314 171 314 124 C314 80 285 56 248 56 C223 56 201 59 165 73 L165 7 C194 -4 215 -7 242 -7 C313 -7 376 35 376 126 C376 191 343 227 304 248 C261 273 237 287 237 334 C237 402 332 434 332 529 C332 613 281 661 200 661 L200 661 Z " />
<glyph glyph-name="agrave" unicode="&#xe0;" horiz-adv-x="350" d="M245 0 L314 0 L298 94 L298 339 C298 430 246 460 178 460 C134 460 80 450 49 436 L49 373 C78 385 127 396 162 396 C201 396 230 382 230 323 L230 252 L187 252 C90 252 26 212 26 116 C26 42 62 -6 129 -6 C175 -6 213 19 237 46 L245 0 Z M143 55 C111 55 95 75 95 124 C95 185 127 199 181 199 L230 199 L230 99 C202 71 173 55 143 55 L143 55 Z M215 527 L149 667 L80 667 L161 527 L215 527 Z " />
<glyph glyph-name="aacute" unicode="&#xe1;" horiz-adv-x="350" d="M245 0 L314 0 L298 94 L298 339 C298 430 246 460 178 460 C134 460 80 450 49 436 L49 373 C78 385 127 396 162 396 C201 396 230 382 230 323 L230 252 L187 252 C90 252 26 212 26 116 C26 42 62 -6 129 -6 C175 -6 213 19 237 46 L245 0 Z M143 55 C111 55 95 75 95 124 C95 185 127 199 181 199 L230 199 L230 99 C202 71 173 55 143 55 L143 55 Z M195 528 L276 668 L208 668 L141 528 L195 528 Z " />
<glyph glyph-name="acircumflex" unicode="&#xe2;" horiz-adv-x="350" d="M245 0 L314 0 L298 94 L298 339 C298 430 246 460 178 460 C134 460 80 450 49 436 L49 373 C78 385 127 396 162 396 C201 396 230 382 230 323 L230 252 L187 252 C90 252 26 212 26 116 C26 42 62 -6 129 -6 C175 -6 213 19 237 46 L245 0 Z M143 55 C111 55 95 75 95 124 C95 185 127 199 181 199 L230 199 L230 99 C202 71 173 55 143 55 L143 55 Z M151 668 L71 528 L133 528 L175 618 L179 618 L220 528 L280 528 L208 668 L151 668 Z " />
<glyph glyph-name="atilde" unicode="&#xe3;" horiz-adv-x="350" d="M245 0 L314 0 L298 94 L298 339 C298 430 246 460 178 460 C134 460 80 450 49 436 L49 373 C78 385 127 396 162 396 C201 396 230 382 230 323 L230 252 L187 252 C90 252 26 212 26 116 C26 42 62 -6 129 -6 C175 -6 213 19 237 46 L245 0 Z M143 55 C111 55 95 75 95 124 C95 185 127 199 181 199 L230 199 L230 99 C202 71 173 55 143 55 L143 55 Z M265 639 C259 621 240 607 219 607 C192 607 170 640 134 640 C99 640 76 617 61 594 L83 556 C96 577 111 588 130 588 C159 588 184 555 219 555 C252 555 277 578 287 603 L265 639 Z " />
<glyph glyph-name="adieresis" unicode="&#xe4;" horiz-adv-x="350" d="M245 0 L314 0 L298 94 L298 339 C298 430 246 460 178 460 C134 460 80 450 49 436 L49 373 C78 385 127 396 162 396 C201 396 230 382 230 323 L230 252 L187 252 C90 252 26 212 26 116 C26 42 62 -6 129 -6 C175 -6 213 19 237 46 L245 0 Z M143 55 C111 55 95 75 95 124 C95 185 127 199 181 199 L230 199 L230 99 C202 71 173 55 143 55 L143 55 Z M98 568 C123 568 142 587 142 611 C142 636 123 655 98 655 C73 655 55 636 55 611 C55 587 73 568 98 568 L98 568 Z M237 568 C262 568 281 587 281 611 C281 636 262 655 237 655 C213 655 194 636 194 611 C194 587 213 568 237 568 L237 568 Z " />
<glyph glyph-name="aring" unicode="&#xe5;" horiz-adv-x="350" d="M245 0 L314 0 L298 94 L298 339 C298 430 246 460 178 460 C134 460 80 450 49 436 L49 373 C78 385 127 396 162 396 C201 396 230 382 230 323 L230 252 L187 252 C90 252 26 212 26 116 C26 42 62 -6 129 -6 C175 -6 213 19 237 46 L245 0 Z M173 676 C135 676 100 650 100 598 C100 545 131 518 173 518 C215 518 248 547 248 598 C248 651 214 676 173 676 L173 676 Z M143 55 C111 55 95 75 95 124 C95 185 127 199 181 199 L230 199 L230 99 C202 71 173 55 143 55 L143 55 Z M173 636 C195 636 205 622 205 598 C205 573 195 557 173 557 C152 557 142 574 142 598 C142 619 152 636 173 636 L173 636 Z " />
<glyph glyph-name="ae" unicode="&#xe6;" horiz-adv-x="561" d="M397 -7 C453 -7 490 2 522 21 L522 78 C486 62 446 54 410 54 C340 54 302 96 297 202 L527 202 L527 247 C527 373 488 460 385 460 C341 460 307 441 281 408 C262 446 225 460 179 460 C139 460 85 451 49 436 L49 373 C78 385 127 396 162 396 C201 396 230 382 230 323 L230 255 L187 255 C88 255 26 212 26 116 C26 45 62 -6 129 -6 C189 -6 234 33 260 66 C288 16 334 -7 397 -7 L397 -7 Z M382 397 C437 397 455 335 456 256 L297 256 C302 359 334 397 382 397 L382 397 Z M144 55 C112 55 95 76 95 124 C95 186 127 202 181 202 L230 202 C231 168 235 139 242 113 C215 81 177 55 144 55 L144 55 Z " />
<glyph glyph-name="ccedilla" unicode="&#xe7;" horiz-adv-x="316" d="M178 -214 C237 -214 265 -174 265 -130 C265 -84 237 -58 199 -48 L211 -6 C240 -4 263 2 284 14 L284 72 C258 60 231 54 207 54 C144 54 104 103 104 226 C104 346 145 396 203 396 C229 396 257 392 284 375 L284 445 C259 457 229 460 199 460 C90 460 32 361 32 220 C32 86 76 7 165 -5 L146 -62 L146 -78 C188 -79 208 -100 208 -126 C208 -145 200 -164 169 -164 C152 -164 127 -156 114 -148 L114 -200 C129 -208 157 -214 178 -214 L178 -214 Z " />
<glyph glyph-name="egrave" unicode="&#xe8;" horiz-adv-x="365" d="M203 -7 C259 -7 297 3 327 21 L327 78 C291 62 251 54 214 54 C144 54 106 96 102 205 L331 205 L331 246 C331 376 292 460 190 460 C84 460 32 363 32 217 C32 62 92 -7 203 -7 L203 -7 Z M186 397 C241 397 259 335 260 259 L103 259 C108 360 140 397 186 397 L186 397 Z M234 528 L168 668 L99 668 L180 528 L234 528 Z " />
<glyph glyph-name="eacute" unicode="&#xe9;" horiz-adv-x="365" d="M203 -7 C259 -7 297 3 327 21 L327 78 C291 62 251 54 214 54 C144 54 106 96 102 205 L331 205 L331 246 C331 376 292 460 190 460 C84 460 32 363 32 217 C32 62 92 -7 203 -7 L203 -7 Z M186 397 C241 397 259 335 260 259 L103 259 C108 360 140 397 186 397 L186 397 Z M205 528 L286 668 L218 668 L151 528 L205 528 Z " />
<glyph glyph-name="ecircumflex" unicode="&#xea;" horiz-adv-x="365" d="M203 -7 C259 -7 297 3 327 21 L327 78 C291 62 251 54 214 54 C144 54 106 96 102 205 L331 205 L331 246 C331 376 292 460 190 460 C84 460 32 363 32 217 C32 62 92 -7 203 -7 L203 -7 Z M186 397 C241 397 259 335 260 259 L103 259 C108 360 140 397 186 397 L186 397 Z M168 668 L88 528 L150 528 L192 618 L196 618 L237 528 L297 528 L225 668 L168 668 Z " />
<glyph glyph-name="edieresis" unicode="&#xeb;" horiz-adv-x="365" d="M203 -7 C259 -7 297 3 327 21 L327 78 C291 62 251 54 214 54 C144 54 106 96 102 205 L331 205 L331 246 C331 376 292 460 190 460 C84 460 32 363 32 217 C32 62 92 -7 203 -7 L203 -7 Z M186 397 C241 397 259 335 260 259 L103 259 C108 360 140 397 186 397 L186 397 Z M120 568 C145 568 164 587 164 611 C164 636 145 655 120 655 C95 655 77 636 77 611 C77 587 95 568 120 568 L120 568 Z M259 568 C284 568 303 587 303 611 C303 636 284 655 259 655 C235 655 216 636 216 611 C216 587 235 568 259 568 L259 568 Z " />
<glyph glyph-name="igrave" unicode="&#xec;" horiz-adv-x="188" d="M17 389 L69 389 L69 0 L137 0 L137 450 L17 450 L17 389 Z M130 528 L64 668 L-5 668 L76 528 L130 528 Z " />
<glyph glyph-name="iacute" unicode="&#xed;" horiz-adv-x="188" d="M17 389 L69 389 L69 0 L137 0 L137 450 L17 450 L17 389 Z M124 528 L205 668 L137 668 L70 528 L124 528 Z " />
<glyph glyph-name="icircumflex" unicode="&#xee;" horiz-adv-x="188" d="M17 389 L69 389 L69 0 L137 0 L137 450 L17 450 L17 389 Z M72 668 L-8 528 L54 528 L96 618 L100 618 L141 528 L201 528 L129 668 L72 668 Z " />
<glyph glyph-name="idieresis" unicode="&#xef;" horiz-adv-x="188" d="M17 389 L69 389 L69 0 L137 0 L137 450 L17 450 L17 389 Z M30 568 C55 568 74 587 74 611 C74 636 55 655 30 655 C5 655 -13 636 -13 611 C-13 587 5 568 30 568 L30 568 Z M169 568 C194 568 213 587 213 611 C213 636 194 655 169 655 C145 655 126 636 126 611 C126 587 145 568 169 568 L169 568 Z " />
<glyph glyph-name="eth" unicode="&#xf0;" horiz-adv-x="378" d="M149 515 L197 557 C221 528 236 496 250 446 C233 457 211 461 184 461 C102 461 31 373 31 222 C31 62 88 -8 184 -8 C286 -8 339 100 339 233 C339 371 324 499 241 596 L291 640 L259 673 L209 629 C191 644 172 659 150 673 L111 632 C132 616 150 603 165 590 L118 549 L149 515 Z M268 225 C268 125 250 54 186 54 C123 54 102 107 102 226 C102 326 123 400 187 400 C215 400 235 397 261 382 C265 342 268 273 268 225 L268 225 Z " />
<glyph glyph-name="ntilde" unicode="&#xf1;" horiz-adv-x="394" d="M53 0 L121 0 L121 345 C149 371 184 396 217 396 C267 396 277 366 277 298 L277 0 L345 0 L345 319 C345 423 309 459 242 459 C190 459 144 430 114 400 L106 450 L38 450 L53 345 L53 0 Z M290 639 C284 621 265 607 244 607 C217 607 195 640 159 640 C124 640 101 617 86 594 L108 556 C121 577 136 588 155 588 C184 588 209 555 244 555 C277 555 302 578 312 603 L290 639 Z " />
<glyph glyph-name="ograve" unicode="&#xf2;" horiz-adv-x="371" d="M184 -7 C285 -7 339 101 339 228 C339 388 297 460 188 460 C91 460 32 353 32 223 C32 60 84 -7 184 -7 L184 -7 Z M187 55 C120 55 102 108 102 226 C102 330 120 397 186 397 C260 397 269 332 269 225 C269 121 253 55 187 55 L187 55 Z M218 528 L152 668 L83 668 L164 528 L218 528 Z " />
<glyph glyph-name="oacute" unicode="&#xf3;" horiz-adv-x="371" d="M208 528 L289 668 L221 668 L154 528 L208 528 Z M184 -7 C285 -7 339 101 339 228 C339 388 297 460 188 460 C91 460 32 353 32 223 C32 60 84 -7 184 -7 L184 -7 Z M187 55 C120 55 102 108 102 226 C102 330 120 397 186 397 C260 397 269 332 269 225 C269 121 253 55 187 55 L187 55 Z " />
<glyph glyph-name="ocircumflex" unicode="&#xf4;" horiz-adv-x="371" d="M164 663 L84 523 L146 523 L188 613 L192 613 L233 523 L293 523 L221 663 L164 663 Z M184 -7 C285 -7 339 101 339 228 C339 388 297 460 188 460 C91 460 32 353 32 223 C32 60 84 -7 184 -7 L184 -7 Z M187 55 C120 55 102 108 102 226 C102 330 120 397 186 397 C260 397 269 332 269 225 C269 121 253 55 187 55 L187 55 Z " />
<glyph glyph-name="otilde" unicode="&#xf5;" horiz-adv-x="371" d="M184 -7 C285 -7 339 101 339 228 C339 388 297 460 188 460 C91 460 32 353 32 223 C32 60 84 -7 184 -7 L184 -7 Z M187 55 C120 55 102 108 102 226 C102 330 120 397 186 397 C260 397 269 332 269 225 C269 121 253 55 187 55 L187 55 Z M277 639 C271 621 252 607 231 607 C204 607 182 640 146 640 C111 640 88 617 73 594 L95 556 C108 577 123 588 142 588 C171 588 196 555 231 555 C264 555 289 578 299 603 L277 639 Z " />
<glyph glyph-name="odieresis" unicode="&#xf6;" horiz-adv-x="371" d="M120 568 C145 568 164 587 164 611 C164 636 145 655 120 655 C95 655 77 636 77 611 C77 587 95 568 120 568 L120 568 Z M259 568 C284 568 303 587 303 611 C303 636 284 655 259 655 C235 655 216 636 216 611 C216 587 235 568 259 568 L259 568 Z M184 -7 C285 -7 339 101 339 228 C339 388 297 460 188 460 C91 460 32 353 32 223 C32 60 84 -7 184 -7 L184 -7 Z M187 55 C120 55 102 108 102 226 C102 330 120 397 186 397 C260 397 269 332 269 225 C269 121 253 55 187 55 L187 55 Z " />
<glyph glyph-name="divide" unicode="&#xf7;" horiz-adv-x="375" d="M43 267 L332 267 L332 325 L43 325 L43 267 Z M187 390 C213 390 234 410 234 436 C234 462 213 482 187 482 C160 482 140 462 140 436 C140 410 160 390 187 390 L187 390 Z M187 110 C213 110 234 130 234 156 C234 182 213 202 187 202 C160 202 140 182 140 156 C140 130 160 110 187 110 L187 110 Z " />
<glyph glyph-name="oslash" unicode="&#xf8;" horiz-adv-x="373" d="M185 -7 C286 -7 340 101 340 228 C340 299 331 353 312 391 L356 461 L306 461 L285 428 C262 449 230 460 189 460 C92 460 33 353 33 223 C33 153 42 100 61 63 L18 -7 L67 -7 L88 27 C112 4 144 -7 185 -7 L185 -7 Z M188 55 C158 55 138 65 125 87 L265 314 C269 289 270 259 270 225 C270 121 254 55 188 55 L188 55 Z M103 226 C103 330 121 397 187 397 C216 397 236 386 248 367 L108 139 C104 163 103 192 103 226 L103 226 Z " />
<glyph glyph-name="ugrave" unicode="&#xf9;" horiz-adv-x="390" d="M337 450 L269 450 L269 106 C242 80 211 55 178 55 C128 55 118 85 118 153 L118 450 L49 450 L49 132 C49 28 86 -9 153 -9 C203 -9 246 20 276 51 L284 0 L352 0 L337 106 L337 450 Z M239 528 L173 668 L104 668 L185 528 L239 528 Z " />
<glyph glyph-name="uacute" unicode="&#xfa;" horiz-adv-x="390" d="M337 450 L269 450 L269 106 C242 80 211 55 178 55 C128 55 118 85 118 153 L118 450 L49 450 L49 132 C49 28 86 -9 153 -9 C203 -9 246 20 276 51 L284 0 L352 0 L337 106 L337 450 Z M209 528 L290 668 L222 668 L155 528 L209 528 Z " />
<glyph glyph-name="ucircumflex" unicode="&#xfb;" horiz-adv-x="390" d="M337 450 L269 450 L269 106 C242 80 211 55 178 55 C128 55 118 85 118 153 L118 450 L49 450 L49 132 C49 28 86 -9 153 -9 C203 -9 246 20 276 51 L284 0 L352 0 L337 106 L337 450 Z M174 668 L94 528 L156 528 L198 618 L202 618 L243 528 L303 528 L231 668 L174 668 Z " />
<glyph glyph-name="udieresis" unicode="&#xfc;" horiz-adv-x="390" d="M337 450 L269 450 L269 106 C242 80 211 55 178 55 C128 55 118 85 118 153 L118 450 L49 450 L49 132 C49 28 86 -9 153 -9 C203 -9 246 20 276 51 L284 0 L352 0 L337 106 L337 450 Z M120 568 C145 568 164 587 164 611 C164 636 145 655 120 655 C95 655 77 636 77 611 C77 587 95 568 120 568 L120 568 Z M259 568 C284 568 303 587 303 611 C303 636 284 655 259 655 C235 655 216 636 216 611 C216 587 235 568 259 568 L259 568 Z " />
<glyph glyph-name="yacute" unicode="&#xfd;" horiz-adv-x="344" d="M159 -207 L213 6 L331 450 L258 450 L199 203 L174 81 L170 81 L147 200 L91 450 L17 450 L127 0 L147 0 L86 -204 L88 -207 L159 -207 Z M197 528 L278 668 L210 668 L143 528 L197 528 Z " />
<glyph glyph-name="thorn" unicode="&#xfe;" horiz-adv-x="378" d="M51 -207 L119 -207 L119 0 C136 -4 156 -7 178 -7 C273 -7 345 56 345 244 C345 396 302 460 218 460 C181 460 147 443 119 418 L119 653 L51 653 L51 -207 Z M198 397 C252 397 274 358 274 235 C274 116 253 54 180 54 C162 54 138 56 119 61 L119 361 C142 382 169 397 198 397 L198 397 Z " />
<glyph glyph-name="ydieresis" unicode="&#xff;" horiz-adv-x="344" d="M159 -207 L213 6 L331 450 L258 450 L199 203 L174 81 L170 81 L147 200 L91 450 L17 450 L127 0 L147 0 L86 -204 L88 -207 L159 -207 Z M106 569 C131 569 150 588 150 612 C150 637 131 656 106 656 C81 656 63 637 63 612 C63 588 81 569 106 569 L106 569 Z M245 569 C270 569 289 588 289 612 C289 637 270 656 245 656 C221 656 202 637 202 612 C202 588 221 569 245 569 L245 569 Z " />
<glyph glyph-name="Amacron" unicode="&#x100;" horiz-adv-x="394" d="M9 0 L79 0 L122 176 L263 176 L298 0 L374 0 L238 583 L167 583 L9 0 Z M160 332 L198 488 L202 488 L232 331 L250 239 L137 239 L160 332 Z M110 650 L300 650 L300 709 L110 709 L110 650 Z " />
<glyph glyph-name="amacron" unicode="&#x101;" horiz-adv-x="350" d="M245 0 L314 0 L298 94 L298 339 C298 430 246 460 178 460 C134 460 80 450 49 436 L49 373 C78 385 127 396 162 396 C201 396 230 382 230 323 L230 252 L187 252 C90 252 26 212 26 116 C26 42 62 -6 129 -6 C175 -6 213 19 237 46 L245 0 Z M143 55 C111 55 95 75 95 124 C95 185 127 199 181 199 L230 199 L230 99 C202 71 173 55 143 55 L143 55 Z M77 566 L268 566 L268 627 L77 627 L77 566 Z " />
<glyph glyph-name="Abreve" unicode="&#x102;" horiz-adv-x="394" d="M9 0 L79 0 L122 176 L263 176 L298 0 L374 0 L238 583 L167 583 L9 0 Z M160 332 L198 488 L202 488 L232 331 L250 239 L137 239 L160 332 Z M205 682 C177 682 158 700 149 733 L104 716 C113 662 147 635 204 635 C261 635 302 662 308 720 L265 734 C258 700 240 682 205 682 L205 682 Z " />
<glyph glyph-name="abreve" unicode="&#x103;" horiz-adv-x="350" d="M245 0 L314 0 L298 94 L298 339 C298 430 246 460 178 460 C134 460 80 450 49 436 L49 373 C78 385 127 396 162 396 C201 396 230 382 230 323 L230 252 L187 252 C90 252 26 212 26 116 C26 42 62 -6 129 -6 C175 -6 213 19 237 46 L245 0 Z M143 55 C111 55 95 75 95 124 C95 185 127 199 181 199 L230 199 L230 99 C202 71 173 55 143 55 L143 55 Z M169 583 C136 583 122 606 113 640 L68 623 C77 569 111 534 168 534 C225 534 264 569 272 627 L229 641 C222 607 208 583 169 583 L169 583 Z " />
<glyph glyph-name="Aogonek" unicode="&#x104;" horiz-adv-x="394" d="M367 -198 L367 -148 C353 -154 335 -158 320 -158 C297 -158 280 -145 280 -116 C280 -78 298 -39 341 0 L374 0 L238 583 L167 583 L9 0 L79 0 L122 176 L263 176 L296 7 C255 -25 219 -71 219 -126 C219 -183 253 -212 303 -212 C325 -212 350 -207 367 -198 L367 -198 Z M160 332 L198 488 L202 488 L232 331 L250 239 L137 239 L160 332 Z " />
<glyph glyph-name="aogonek" unicode="&#x105;" horiz-adv-x="350" d="M311 -198 L311 -148 C297 -154 279 -158 264 -158 C241 -158 224 -145 224 -116 C224 -78 242 -39 285 0 L314 0 L298 94 L298 339 C298 430 246 460 178 460 C134 460 80 450 49 436 L49 373 C78 385 127 396 162 396 C201 396 230 382 230 323 L230 252 L187 252 C90 252 26 212 26 116 C26 42 62 -6 129 -6 C175 -6 213 19 237 46 L243 9 C200 -23 163 -70 163 -126 C163 -183 197 -212 247 -212 C269 -212 294 -207 311 -198 L311 -198 Z M143 55 C111 55 95 75 95 124 C95 185 127 199 181 199 L230 199 L230 99 C202 71 173 55 143 55 L143 55 Z " />
<glyph glyph-name="Cacute" unicode="&#x106;" horiz-adv-x="394" d="M244 -7 C296 -7 339 6 361 19 L361 85 C327 65 295 58 256 58 C161 58 112 132 112 296 C112 440 159 526 248 526 C288 526 321 520 361 497 L361 568 C337 579 307 591 245 591 C100 591 35 454 35 286 C35 97 101 -7 244 -7 L244 -7 Z M254 630 L329 739 L258 739 L196 630 L254 630 Z " />
<glyph glyph-name="cacute" unicode="&#x107;" horiz-adv-x="316" d="M204 528 L285 668 L217 668 L150 528 L204 528 Z M190 -7 C229 -7 259 -1 284 14 L284 72 C258 60 231 54 207 54 C144 54 104 103 104 226 C104 346 145 396 203 396 C229 396 257 392 284 375 L284 445 C259 457 229 460 199 460 C90 460 32 361 32 220 C32 74 84 -7 190 -7 L190 -7 Z " />
<glyph glyph-name="Ccircumflex" unicode="&#x108;" horiz-adv-x="394" d="M244 -7 C296 -7 339 6 361 19 L361 85 C327 65 295 58 256 58 C161 58 112 132 112 296 C112 440 159 526 248 526 C288 526 321 520 361 497 L361 568 C337 579 307 591 245 591 C100 591 35 454 35 286 C35 97 101 -7 244 -7 L244 -7 Z M213 743 L130 625 L191 625 L238 696 L241 696 L287 625 L346 625 L270 743 L213 743 Z " />
<glyph glyph-name="ccircumflex" unicode="&#x109;" horiz-adv-x="316" d="M164 668 L84 528 L146 528 L188 618 L192 618 L233 528 L293 528 L221 668 L164 668 Z M190 -7 C229 -7 259 -1 284 14 L284 72 C258 60 231 54 207 54 C144 54 104 103 104 226 C104 346 145 396 203 396 C229 396 257 392 284 375 L284 445 C259 457 229 460 199 460 C90 460 32 361 32 220 C32 74 84 -7 190 -7 L190 -7 Z " />
<glyph glyph-name="Cdotaccent" unicode="&#x10a;" horiz-adv-x="394" d="M236 638 C261 638 281 656 281 681 C281 706 261 725 236 725 C211 725 193 706 193 681 C193 656 211 638 236 638 L236 638 Z M244 -7 C296 -7 339 6 361 19 L361 85 C327 65 295 58 256 58 C161 58 112 132 112 296 C112 440 159 526 248 526 C288 526 321 520 361 497 L361 568 C337 579 307 591 245 591 C100 591 35 454 35 286 C35 97 101 -7 244 -7 L244 -7 Z " />
<glyph glyph-name="cdotaccent" unicode="&#x10b;" horiz-adv-x="316" d="M190 -7 C229 -7 259 -1 284 14 L284 72 C258 60 231 54 207 54 C144 54 104 103 104 226 C104 346 145 396 203 396 C229 396 257 392 284 375 L284 445 C259 457 229 460 199 460 C90 460 32 361 32 220 C32 74 84 -7 190 -7 L190 -7 Z M189 567 C215 567 236 587 236 613 C236 639 215 659 189 659 C162 659 142 639 142 613 C142 587 162 567 189 567 L189 567 Z " />
<glyph glyph-name="Ccaron" unicode="&#x10c;" horiz-adv-x="394" d="M244 -7 C296 -7 339 6 361 19 L361 85 C327 65 295 58 256 58 C161 58 112 132 112 296 C112 440 159 526 248 526 C288 526 321 520 361 497 L361 568 C337 579 307 591 245 591 C100 591 35 454 35 286 C35 97 101 -7 244 -7 L244 -7 Z M266 622 L349 739 L288 739 L241 668 L238 668 L192 739 L133 739 L209 622 L266 622 Z " />
<glyph glyph-name="ccaron" unicode="&#x10d;" horiz-adv-x="316" d="M210 529 L289 668 L227 668 L185 581 L182 581 L140 668 L81 668 L153 529 L210 529 Z M190 -7 C229 -7 259 -1 284 14 L284 72 C258 60 231 54 207 54 C144 54 104 103 104 226 C104 346 145 396 203 396 C229 396 257 392 284 375 L284 445 C259 457 229 460 199 460 C90 460 32 361 32 220 C32 74 84 -7 190 -7 L190 -7 Z " />
<glyph glyph-name="Dcaron" unicode="&#x10e;" horiz-adv-x="465" d="M59 0 L197 0 C336 0 430 102 430 303 C430 518 324 583 194 583 L59 583 L59 0 Z M185 520 C288 520 354 475 354 295 C354 134 294 63 194 63 L132 63 L132 520 L185 520 Z M230 620 L313 737 L252 737 L205 666 L202 666 L156 737 L97 737 L173 620 L230 620 Z " />
<glyph glyph-name="dcaron" unicode="&#x10f;" horiz-adv-x="389" d="M275 0 L344 0 L329 97 L329 653 L261 653 L261 454 C244 457 218 460 198 460 C102 460 32 375 32 208 C32 57 91 -6 163 -6 C207 -6 242 16 267 48 L275 0 Z M178 60 C127 60 104 111 104 218 C104 346 138 399 200 399 C219 399 243 396 261 389 L261 101 C230 73 206 60 178 60 L178 60 Z M358 487 L405 487 L436 653 L373 653 L358 487 Z " />
<glyph glyph-name="Dcroat" unicode="&#x110;" horiz-adv-x="468" d="M18 271 L62 271 L62 0 L200 0 C339 0 433 102 433 303 C433 518 327 583 197 583 L62 583 L62 331 L18 331 L18 271 Z M237 271 L237 331 L135 331 L135 520 L188 520 C291 520 357 475 357 295 C357 134 297 63 197 63 L135 63 L135 271 L237 271 Z " />
<glyph glyph-name="dcroat" unicode="&#x111;" horiz-adv-x="382" d="M143 539 L261 539 L261 454 C244 457 218 460 198 460 C102 460 32 375 32 208 C32 57 91 -6 163 -6 C207 -6 242 16 267 48 L275 0 L344 0 L329 97 L329 539 L376 539 L376 596 L329 596 L329 653 L261 653 L261 596 L143 596 L143 539 Z M178 60 C127 60 104 111 104 218 C104 346 138 399 200 399 C219 399 243 396 261 389 L261 101 C230 73 206 60 178 60 L178 60 Z " />
<glyph glyph-name="Emacron" unicode="&#x112;" horiz-adv-x="355" d="M59 0 L326 0 L326 63 L132 63 L132 270 L290 270 L290 331 L132 331 L132 520 L321 520 L321 583 L59 583 L59 0 Z M101 651 L291 651 L291 710 L101 710 L101 651 Z " />
<glyph glyph-name="emacron" unicode="&#x113;" horiz-adv-x="365" d="M203 -7 C259 -7 297 3 327 21 L327 78 C291 62 251 54 214 54 C144 54 106 96 102 205 L331 205 L331 246 C331 376 292 460 190 460 C84 460 32 363 32 217 C32 62 92 -7 203 -7 L203 -7 Z M186 397 C241 397 259 335 260 259 L103 259 C108 360 140 397 186 397 L186 397 Z M97 566 L288 566 L288 627 L97 627 L97 566 Z " />
<glyph glyph-name="Ebreve" unicode="&#x114;" horiz-adv-x="355" d="M59 0 L326 0 L326 63 L132 63 L132 270 L290 270 L290 331 L132 331 L132 520 L321 520 L321 583 L59 583 L59 0 Z M198 682 C170 682 151 700 142 733 L97 716 C106 662 140 635 197 635 C254 635 295 662 301 720 L258 734 C251 700 233 682 198 682 L198 682 Z " />
<glyph glyph-name="ebreve" unicode="&#x115;" horiz-adv-x="365" d="M203 -7 C259 -7 297 3 327 21 L327 78 C291 62 251 54 214 54 C144 54 106 96 102 205 L331 205 L331 246 C331 376 292 460 190 460 C84 460 32 363 32 217 C32 62 92 -7 203 -7 L203 -7 Z M186 397 C241 397 259 335 260 259 L103 259 C108 360 140 397 186 397 L186 397 Z M186 583 C153 583 139 606 130 640 L85 623 C94 569 128 534 185 534 C242 534 281 569 289 627 L246 641 C239 607 225 583 186 583 L186 583 Z " />
<glyph glyph-name="Edotaccent" unicode="&#x116;" horiz-adv-x="355" d="M59 0 L326 0 L326 63 L132 63 L132 270 L290 270 L290 331 L132 331 L132 520 L321 520 L321 583 L59 583 L59 0 Z M202 637 C227 637 247 655 247 680 C247 705 227 724 202 724 C177 724 159 705 159 680 C159 655 177 637 202 637 L202 637 Z " />
<glyph glyph-name="edotaccent" unicode="&#x117;" horiz-adv-x="365" d="M203 -7 C259 -7 297 3 327 21 L327 78 C291 62 251 54 214 54 C144 54 106 96 102 205 L331 205 L331 246 C331 376 292 460 190 460 C84 460 32 363 32 217 C32 62 92 -7 203 -7 L203 -7 Z M186 397 C241 397 259 335 260 259 L103 259 C108 360 140 397 186 397 L186 397 Z M185 567 C211 567 232 587 232 613 C232 639 211 659 185 659 C158 659 138 639 138 613 C138 587 158 567 185 567 L185 567 Z " />
<glyph glyph-name="Eogonek" unicode="&#x118;" horiz-adv-x="355" d="M59 0 L254 0 C217 -32 186 -75 186 -126 C186 -183 220 -212 270 -212 C292 -212 317 -207 334 -198 L334 -148 C320 -154 302 -158 287 -158 C264 -158 247 -145 247 -116 C247 -78 265 -39 308 0 L326 0 L326 63 L132 63 L132 270 L290 270 L290 331 L132 331 L132 520 L321 520 L321 583 L59 583 L59 0 Z " />
<glyph glyph-name="eogonek" unicode="&#x119;" horiz-adv-x="365" d="M203 -7 L217 -7 C183 -38 157 -79 157 -126 C157 -183 191 -212 241 -212 C263 -212 288 -207 305 -198 L305 -148 C291 -154 273 -158 258 -158 C235 -158 218 -145 218 -116 C218 -77 236 -38 281 1 C299 6 313 13 327 21 L327 78 C291 62 251 54 214 54 C144 54 106 96 102 205 L331 205 L331 246 C331 376 292 460 190 460 C84 460 32 363 32 217 C32 62 92 -7 203 -7 L203 -7 Z M186 397 C241 397 259 335 260 259 L103 259 C108 360 140 397 186 397 L186 397 Z " />
<glyph glyph-name="Ecaron" unicode="&#x11a;" horiz-adv-x="355" d="M59 0 L326 0 L326 63 L132 63 L132 270 L290 270 L290 331 L132 331 L132 520 L321 520 L321 583 L59 583 L59 0 Z M220 622 L303 739 L242 739 L195 668 L192 668 L146 739 L87 739 L163 622 L220 622 Z " />
<glyph glyph-name="ecaron" unicode="&#x11b;" horiz-adv-x="365" d="M203 -7 C259 -7 297 3 327 21 L327 78 C291 62 251 54 214 54 C144 54 106 96 102 205 L331 205 L331 246 C331 376 292 460 190 460 C84 460 32 363 32 217 C32 62 92 -7 203 -7 L203 -7 Z M186 397 C241 397 259 335 260 259 L103 259 C108 360 140 397 186 397 L186 397 Z M212 529 L291 668 L229 668 L187 581 L184 581 L142 668 L83 668 L155 529 L212 529 Z " />
<glyph glyph-name="Gcircumflex" unicode="&#x11c;" horiz-adv-x="442" d="M249 -7 C304 -7 350 7 397 32 L397 298 L325 298 L325 68 C303 62 282 58 257 58 C169 58 111 120 111 296 C111 449 176 525 264 525 C307 525 353 517 394 494 L395 566 C367 576 329 591 265 591 C117 591 35 455 35 286 C35 98 100 -7 249 -7 L249 -7 Z M234 744 L151 626 L212 626 L259 697 L262 697 L308 626 L367 626 L291 744 L234 744 Z " />
<glyph glyph-name="gcircumflex" unicode="&#x11d;" horiz-adv-x="358" d="M172 171 C248 171 304 242 304 314 C304 347 298 375 286 398 L351 398 L351 451 L250 439 C229 453 203 460 172 460 C89 460 37 389 37 310 C37 242 65 200 111 181 L48 104 L48 56 L96 49 C54 20 15 -21 15 -82 C15 -164 70 -214 165 -214 C271 -214 343 -135 343 -37 C343 36 305 82 214 95 L115 110 L162 171 L172 171 Z M188 35 C255 24 277 0 277 -48 C277 -110 233 -156 172 -156 C112 -156 82 -127 82 -71 C82 -29 110 9 150 41 L188 35 Z M172 225 C128 225 105 258 105 315 C105 375 124 405 169 405 C213 405 235 373 235 314 C235 258 212 225 172 225 L172 225 Z M149 668 L69 528 L131 528 L173 618 L177 618 L218 528 L278 528 L206 668 L149 668 Z " />
<glyph glyph-name="Gbreve" unicode="&#x11e;" horiz-adv-x="442" d="M249 -7 C304 -7 350 7 397 32 L397 298 L325 298 L325 68 C303 62 282 58 257 58 C169 58 111 120 111 296 C111 449 176 525 264 525 C307 525 353 517 394 494 L395 566 C367 576 329 591 265 591 C117 591 35 455 35 286 C35 98 100 -7 249 -7 L249 -7 Z M258 681 C230 681 211 699 202 732 L157 715 C166 661 200 634 257 634 C314 634 355 661 361 719 L318 733 C311 699 293 681 258 681 L258 681 Z " />
<glyph glyph-name="gbreve" unicode="&#x11f;" horiz-adv-x="358" d="M172 171 C248 171 304 242 304 314 C304 347 298 375 286 398 L351 398 L351 451 L250 439 C229 453 203 460 172 460 C89 460 37 389 37 310 C37 242 65 200 111 181 L48 104 L48 56 L96 49 C54 20 15 -21 15 -82 C15 -164 70 -214 165 -214 C271 -214 343 -135 343 -37 C343 36 305 82 214 95 L115 110 L162 171 L172 171 Z M188 35 C255 24 277 0 277 -48 C277 -110 233 -156 172 -156 C112 -156 82 -127 82 -71 C82 -29 110 9 150 41 L188 35 Z M172 225 C128 225 105 258 105 315 C105 375 124 405 169 405 C213 405 235 373 235 314 C235 258 212 225 172 225 L172 225 Z M172 583 C139 583 125 606 116 640 L71 623 C80 569 114 534 171 534 C228 534 267 569 275 627 L232 641 C225 607 211 583 172 583 L172 583 Z " />
<glyph glyph-name="Gdotaccent" unicode="&#x120;" horiz-adv-x="442" d="M249 -7 C304 -7 350 7 397 32 L397 298 L325 298 L325 68 C303 62 282 58 257 58 C169 58 111 120 111 296 C111 449 176 525 264 525 C307 525 353 517 394 494 L395 566 C367 576 329 591 265 591 C117 591 35 455 35 286 C35 98 100 -7 249 -7 L249 -7 Z M255 638 C280 638 300 656 300 681 C300 706 280 725 255 725 C230 725 212 706 212 681 C212 656 230 638 255 638 L255 638 Z " />
<glyph glyph-name="gdotaccent" unicode="&#x121;" horiz-adv-x="358" d="M172 171 C248 171 304 242 304 314 C304 347 298 375 286 398 L351 398 L351 451 L250 439 C229 453 203 460 172 460 C89 460 37 389 37 310 C37 242 65 200 111 181 L48 104 L48 56 L96 49 C54 20 15 -21 15 -82 C15 -164 70 -214 165 -214 C271 -214 343 -135 343 -37 C343 36 305 82 214 95 L115 110 L162 171 L172 171 Z M188 35 C255 24 277 0 277 -48 C277 -110 233 -156 172 -156 C112 -156 82 -127 82 -71 C82 -29 110 9 150 41 L188 35 Z M172 225 C128 225 105 258 105 315 C105 375 124 405 169 405 C213 405 235 373 235 314 C235 258 212 225 172 225 L172 225 Z M172 567 C198 567 219 587 219 613 C219 639 198 659 172 659 C145 659 125 639 125 613 C125 587 145 567 172 567 L172 567 Z " />
<glyph glyph-name="Gcommaaccent" unicode="&#x122;" horiz-adv-x="442" d="M249 -7 C304 -7 350 7 397 32 L397 298 L325 298 L325 68 C303 62 282 58 257 58 C169 58 111 120 111 296 C111 449 176 525 264 525 C307 525 353 517 394 494 L395 566 C367 576 329 591 265 591 C117 591 35 455 35 286 C35 98 100 -7 249 -7 L249 -7 Z M209 -229 L258 -229 L289 -62 L229 -62 L209 -229 Z " />
<glyph glyph-name="gcommaaccent" unicode="&#x123;" horiz-adv-x="358" d="M172 171 C248 171 304 242 304 314 C304 347 298 375 286 398 L351 398 L351 451 L250 439 C229 453 203 460 172 460 C89 460 37 389 37 310 C37 242 65 200 111 181 L48 104 L48 56 L96 49 C54 20 15 -21 15 -82 C15 -164 70 -214 165 -214 C271 -214 343 -135 343 -37 C343 36 305 82 214 95 L115 110 L162 171 L172 171 Z M188 35 C255 24 277 0 277 -48 C277 -110 233 -156 172 -156 C112 -156 82 -127 82 -71 C82 -29 110 9 150 41 L188 35 Z M172 225 C128 225 105 258 105 315 C105 375 124 405 169 405 C213 405 235 373 235 314 C235 258 212 225 172 225 L172 225 Z M217 683 L168 683 L137 513 L197 513 L217 683 Z " />
<glyph glyph-name="Hcircumflex" unicode="&#x124;" horiz-adv-x="487" d="M355 0 L428 0 L428 583 L355 583 L355 330 L132 330 L132 583 L59 583 L59 0 L132 0 L132 267 L355 267 L355 0 Z M215 743 L132 625 L193 625 L240 696 L243 696 L289 625 L348 625 L272 743 L215 743 Z " />
<glyph glyph-name="hcircumflex" unicode="&#x125;" horiz-adv-x="393" d="M275 0 L344 0 L344 319 C344 423 307 459 240 459 C193 459 149 434 119 406 L119 653 L51 653 L51 0 L119 0 L119 344 C147 371 182 396 215 396 C265 396 275 366 275 298 L275 0 Z M61 791 L-22 673 L39 673 L86 744 L89 744 L135 673 L194 673 L118 791 L61 791 Z " />
<glyph glyph-name="Hbar" unicode="&#x126;" horiz-adv-x="491" d="M21 449 L61 449 L61 0 L134 0 L134 267 L357 267 L357 0 L430 0 L430 449 L470 449 L470 505 L430 505 L430 583 L357 583 L357 505 L134 505 L134 583 L61 583 L61 505 L21 505 L21 449 Z M134 449 L357 449 L357 330 L134 330 L134 449 Z " />
<glyph glyph-name="hbar" unicode="&#x127;" horiz-adv-x="393" d="M-11 538 L51 538 L51 0 L119 0 L119 344 C147 371 182 396 215 396 C265 396 275 366 275 298 L275 0 L344 0 L344 319 C344 423 307 459 240 459 C193 459 149 434 119 406 L119 538 L218 538 L218 594 L119 594 L119 653 L51 653 L51 594 L-11 594 L-11 538 Z " />
<glyph glyph-name="Itilde" unicode="&#x128;" horiz-adv-x="191" d="M59 0 L132 0 L132 583 L59 583 L59 0 Z M187 723 C181 706 162 691 141 691 C114 691 92 724 56 724 C21 724 -4 700 -17 676 L5 636 C18 657 33 668 52 668 C81 668 106 635 141 635 C174 635 199 658 209 683 L187 723 Z " />
<glyph glyph-name="itilde" unicode="&#x129;" horiz-adv-x="188" d="M17 389 L69 389 L69 0 L137 0 L137 450 L17 450 L17 389 Z M191 639 C185 621 166 607 145 607 C118 607 96 640 60 640 C25 640 2 617 -13 594 L9 556 C22 577 37 588 56 588 C85 588 110 555 145 555 C178 555 203 578 213 603 L191 639 Z " />
<glyph glyph-name="Imacron" unicode="&#x12a;" horiz-adv-x="191" d="M59 0 L132 0 L132 583 L59 583 L59 0 Z M0 651 L190 651 L190 710 L0 710 L0 651 Z " />
<glyph glyph-name="imacron" unicode="&#x12b;" horiz-adv-x="188" d="M17 389 L69 389 L69 0 L137 0 L137 450 L17 450 L17 389 Z M5 566 L196 566 L196 627 L5 627 L5 566 Z " />
<glyph glyph-name="Ibreve" unicode="&#x12c;" horiz-adv-x="191" d="M59 0 L132 0 L132 583 L59 583 L59 0 Z M94 682 C66 682 47 700 38 733 L-7 716 C2 662 36 635 93 635 C150 635 191 662 197 720 L154 734 C147 700 129 682 94 682 L94 682 Z " />
<glyph glyph-name="ibreve" unicode="&#x12d;" horiz-adv-x="188" d="M17 389 L69 389 L69 0 L137 0 L137 450 L17 450 L17 389 Z M99 583 C66 583 52 606 43 640 L-2 623 C7 569 41 534 98 534 C155 534 194 569 202 627 L159 641 C152 607 138 583 99 583 L99 583 Z " />
<glyph glyph-name="Iogonek" unicode="&#x12e;" horiz-adv-x="191" d="M136 -198 L136 -148 C122 -154 104 -158 89 -158 C66 -158 49 -145 49 -116 C49 -78 67 -39 110 0 L132 0 L132 583 L59 583 L59 2 C20 -30 -12 -74 -12 -126 C-12 -183 22 -212 72 -212 C94 -212 119 -207 136 -198 L136 -198 Z " />
<glyph glyph-name="iogonek" unicode="&#x12f;" horiz-adv-x="188" d="M17 389 L69 389 L69 5 C28 -27 -6 -72 -6 -126 C-6 -183 28 -212 78 -212 C100 -212 125 -207 142 -198 L142 -148 C128 -154 110 -158 95 -158 C72 -158 55 -145 55 -116 C55 -78 73 -39 116 0 L137 0 L137 450 L17 450 L17 389 Z M106 567 C132 567 153 587 153 613 C153 639 132 659 106 659 C79 659 59 639 59 613 C59 587 79 567 106 567 L106 567 Z " />
<glyph glyph-name="Idotaccent" unicode="&#x130;" horiz-adv-x="191" d="M94 638 C119 638 139 656 139 681 C139 706 119 725 94 725 C69 725 51 706 51 681 C51 656 69 638 94 638 L94 638 Z M59 0 L132 0 L132 583 L59 583 L59 0 Z " />
<glyph glyph-name="dotlessi" unicode="&#x131;" horiz-adv-x="188" d="M17 389 L69 389 L69 0 L137 0 L137 450 L17 450 L17 389 Z " />
<glyph glyph-name="IJ" unicode="&#x132;" horiz-adv-x="396" d="M59 0 L132 0 L132 583 L59 583 L59 0 Z M243 -86 C303 3 340 89 340 179 L340 583 L266 583 L266 178 C266 91 225 18 182 -56 L243 -86 Z " />
<glyph glyph-name="ij" unicode="&#x133;" horiz-adv-x="377" d="M205 389 L257 389 L257 18 C257 -64 229 -136 205 -189 L258 -214 C300 -155 326 -61 326 27 L326 450 L205 450 L205 389 Z M17 389 L69 389 L69 0 L137 0 L137 450 L17 450 L17 389 Z M293 567 C319 567 340 587 340 613 C340 639 319 659 293 659 C267 659 247 639 247 613 C247 587 267 567 293 567 L293 567 Z M59 613 C59 587 79 567 105 567 C131 567 152 587 152 613 C152 639 131 659 105 659 C79 659 59 639 59 613 L59 613 Z " />
<glyph glyph-name="Jcircumflex" unicode="&#x134;" horiz-adv-x="205" d="M52 -86 C112 3 149 89 149 179 L149 583 L75 583 L75 178 C75 91 34 18 -9 -56 L52 -86 Z M88 743 L5 625 L66 625 L113 696 L116 696 L162 625 L221 625 L145 743 L88 743 Z " />
<glyph glyph-name="jcircumflex" unicode="&#x135;" horiz-adv-x="189" d="M17 389 L69 389 L69 18 C69 -64 41 -136 17 -189 L70 -214 C112 -155 138 -61 138 27 L138 450 L17 450 L17 389 Z M68 668 L-12 528 L50 528 L92 618 L96 618 L137 528 L197 528 L125 668 L68 668 Z " />
<glyph glyph-name="Kcommaaccent" unicode="&#x136;" horiz-adv-x="395" d="M153 -229 L202 -229 L233 -62 L173 -62 L153 -229 Z M299 0 L382 0 L214 309 L387 583 L308 583 L145 309 L145 293 L299 0 Z M59 0 L132 0 L132 583 L59 583 L59 0 Z " />
<glyph glyph-name="kcommaaccent" unicode="&#x137;" horiz-adv-x="346" d="M129 -229 L178 -229 L209 -62 L149 -62 L129 -229 Z M251 0 L330 0 L205 252 L335 450 L258 450 L138 256 L138 240 L251 0 Z M51 0 L119 0 L119 653 L51 653 L51 0 Z " />
<glyph glyph-name="Lacute" unicode="&#x139;" horiz-adv-x="328" d="M59 0 L316 0 L316 63 L132 63 L132 583 L59 583 L59 0 Z M125 630 L200 739 L129 739 L67 630 L125 630 Z " />
<glyph glyph-name="lacute" unicode="&#x13a;" horiz-adv-x="178" d="M117 680 L192 789 L121 789 L59 680 L117 680 Z M55 0 L123 0 L123 653 L55 653 L55 0 Z " />
<glyph glyph-name="Lcommaaccent" unicode="&#x13b;" horiz-adv-x="328" d="M59 0 L316 0 L316 63 L132 63 L132 583 L59 583 L59 0 Z M150 -229 L199 -229 L230 -62 L170 -62 L150 -229 Z " />
<glyph glyph-name="lcommaaccent" unicode="&#x13c;" horiz-adv-x="178" d="M36 -229 L85 -229 L116 -62 L56 -62 L36 -229 Z M55 0 L123 0 L123 653 L55 653 L55 0 Z " />
<glyph glyph-name="Lcaron" unicode="&#x13d;" horiz-adv-x="328" d="M59 0 L316 0 L316 63 L132 63 L132 583 L59 583 L59 0 Z M204 465 L251 465 L282 631 L219 631 L204 465 Z " />
<glyph glyph-name="lcaron" unicode="&#x13e;" horiz-adv-x="184" d="M156 487 L203 487 L234 653 L171 653 L156 487 Z M55 0 L123 0 L123 653 L55 653 L55 0 Z " />
<glyph glyph-name="Ldot" unicode="&#x13f;" horiz-adv-x="348" d="M59 0 L316 0 L316 63 L132 63 L132 583 L59 583 L59 0 Z M273 277 C299 277 320 297 320 323 C320 349 299 369 273 369 C246 369 226 349 226 323 C226 297 246 277 273 277 L273 277 Z " />
<glyph glyph-name="ldot" unicode="&#x140;" horiz-adv-x="238" d="M208 271 C233 271 253 289 253 314 C253 339 233 358 208 358 C183 358 165 339 165 314 C165 289 183 271 208 271 L208 271 Z M55 0 L123 0 L123 653 L55 653 L55 0 Z " />
<glyph glyph-name="Lslash" unicode="&#x141;" horiz-adv-x="335" d="M17 202 L66 232 L66 0 L323 0 L323 63 L139 63 L139 278 L239 341 L239 407 L139 342 L139 583 L66 583 L66 295 L17 264 L17 202 Z " />
<glyph glyph-name="lslash" unicode="&#x142;" horiz-adv-x="201" d="M10 247 L66 287 L66 0 L134 0 L134 335 L194 378 L194 443 L134 399 L134 653 L66 653 L66 350 L10 309 L10 247 Z " />
<glyph glyph-name="Nacute" unicode="&#x143;" horiz-adv-x="477" d="M256 630 L331 739 L260 739 L198 630 L256 630 Z M59 0 L131 0 L129 420 L131 420 L352 0 L418 0 L418 583 L347 583 L349 170 L347 170 L125 583 L59 583 L59 0 Z " />
<glyph glyph-name="nacute" unicode="&#x144;" horiz-adv-x="394" d="M53 0 L121 0 L121 345 C149 371 184 396 217 396 C267 396 277 366 277 298 L277 0 L345 0 L345 319 C345 423 309 459 242 459 C190 459 144 430 114 400 L106 450 L38 450 L53 345 L53 0 Z M219 528 L300 668 L232 668 L165 528 L219 528 Z " />
<glyph glyph-name="Ncommaaccent" unicode="&#x145;" horiz-adv-x="477" d="M197 -229 L246 -229 L277 -62 L217 -62 L197 -229 Z M59 0 L131 0 L129 420 L131 420 L352 0 L418 0 L418 583 L347 583 L349 170 L347 170 L125 583 L59 583 L59 0 Z " />
<glyph glyph-name="ncommaaccent" unicode="&#x146;" horiz-adv-x="394" d="M53 0 L121 0 L121 345 C149 371 184 396 217 396 C267 396 277 366 277 298 L277 0 L345 0 L345 319 C345 423 309 459 242 459 C190 459 144 430 114 400 L106 450 L38 450 L53 345 L53 0 Z M149 -229 L198 -229 L229 -62 L169 -62 L149 -229 Z " />
<glyph glyph-name="Ncaron" unicode="&#x147;" horiz-adv-x="477" d="M265 622 L348 739 L287 739 L240 668 L237 668 L191 739 L132 739 L208 622 L265 622 Z M59 0 L131 0 L129 420 L131 420 L352 0 L418 0 L418 583 L347 583 L349 170 L347 170 L125 583 L59 583 L59 0 Z " />
<glyph glyph-name="ncaron" unicode="&#x148;" horiz-adv-x="394" d="M53 0 L121 0 L121 345 C149 371 184 396 217 396 C267 396 277 366 277 298 L277 0 L345 0 L345 319 C345 423 309 459 242 459 C190 459 144 430 114 400 L106 450 L38 450 L53 345 L53 0 Z M226 529 L305 668 L243 668 L201 581 L198 581 L156 668 L97 668 L169 529 L226 529 Z " />
<glyph glyph-name="napostrophe" unicode="&#x149;" horiz-adv-x="394" d="M53 0 L121 0 L121 345 C149 371 184 396 217 396 C267 396 277 366 277 298 L277 0 L345 0 L345 319 C345 423 309 459 242 459 C190 459 144 430 114 400 L106 450 L38 450 L53 345 L53 0 Z M49 507 C106 555 134 615 134 669 C134 697 113 719 88 719 C64 719 45 700 45 675 C62 663 68 646 68 625 C68 589 45 555 23 528 L49 507 Z " />
<glyph glyph-name="Eng" unicode="&#x14a;" horiz-adv-x="477" d="M59 0 L131 0 L129 420 L131 420 L347 9 L347 6 C347 -57 334 -114 287 -190 L342 -215 C403 -127 418 -70 418 -3 L418 583 L347 583 L349 170 L347 170 L125 583 L59 583 L59 0 Z " />
<glyph glyph-name="eng" unicode="&#x14b;" horiz-adv-x="394" d="M345 319 C345 423 309 459 242 459 C190 459 144 430 114 400 L106 450 L38 450 L53 345 L53 0 L121 0 L121 344 C149 370 184 396 217 396 C267 396 277 366 277 298 L277 9 C277 -71 249 -140 225 -194 L277 -214 C319 -157 345 -72 345 16 L345 319 Z " />
<glyph glyph-name="Omacron" unicode="&#x14c;" horiz-adv-x="470" d="M139 651 L329 651 L329 710 L139 710 L139 651 Z M230 -7 C372 -7 434 117 434 309 C434 465 379 591 242 591 C101 591 35 459 35 280 C35 105 97 -7 230 -7 L230 -7 Z M234 57 C150 57 112 141 112 292 C112 453 154 527 238 527 C318 527 358 450 358 298 C358 145 323 57 234 57 L234 57 Z " />
<glyph glyph-name="omacron" unicode="&#x14d;" horiz-adv-x="371" d="M91 566 L282 566 L282 627 L91 627 L91 566 Z M184 -7 C285 -7 339 101 339 228 C339 388 297 460 188 460 C91 460 32 353 32 223 C32 60 84 -7 184 -7 L184 -7 Z M187 55 C120 55 102 108 102 226 C102 330 120 397 186 397 C260 397 269 332 269 225 C269 121 253 55 187 55 L187 55 Z " />
<glyph glyph-name="Obreve" unicode="&#x14e;" horiz-adv-x="470" d="M235 681 C207 681 188 699 179 732 L134 715 C143 661 177 634 234 634 C291 634 332 661 338 719 L295 733 C288 699 270 681 235 681 L235 681 Z M230 -7 C372 -7 434 117 434 309 C434 465 379 591 242 591 C101 591 35 459 35 280 C35 105 97 -7 230 -7 L230 -7 Z M234 57 C150 57 112 141 112 292 C112 453 154 527 238 527 C318 527 358 450 358 298 C358 145 323 57 234 57 L234 57 Z " />
<glyph glyph-name="obreve" unicode="&#x14f;" horiz-adv-x="371" d="M184 -7 C285 -7 339 101 339 228 C339 388 297 460 188 460 C91 460 32 353 32 223 C32 60 84 -7 184 -7 L184 -7 Z M187 55 C120 55 102 108 102 226 C102 330 120 397 186 397 C260 397 269 332 269 225 C269 121 253 55 187 55 L187 55 Z M185 583 C152 583 138 606 129 640 L84 623 C93 569 127 534 184 534 C241 534 280 569 288 627 L245 641 C238 607 224 583 185 583 L185 583 Z " />
<glyph glyph-name="Ohungarumlaut" unicode="&#x150;" horiz-adv-x="470" d="M230 -7 C372 -7 434 117 434 309 C434 465 379 591 242 591 C101 591 35 459 35 280 C35 105 97 -7 230 -7 L230 -7 Z M234 57 C150 57 112 141 112 292 C112 453 154 527 238 527 C318 527 358 450 358 298 C358 145 323 57 234 57 L234 57 Z M207 630 L275 739 L204 739 L149 630 L207 630 Z M313 630 L400 739 L329 739 L254 630 L313 630 Z " />
<glyph glyph-name="ohungarumlaut" unicode="&#x151;" horiz-adv-x="371" d="M144 528 L224 668 L157 668 L91 528 L144 528 Z M267 528 L352 668 L285 668 L213 528 L267 528 Z M184 -7 C285 -7 339 101 339 228 C339 388 297 460 188 460 C91 460 32 353 32 223 C32 60 84 -7 184 -7 L184 -7 Z M187 55 C120 55 102 108 102 226 C102 330 120 397 186 397 C260 397 269 332 269 225 C269 121 253 55 187 55 L187 55 Z " />
<glyph glyph-name="OE" unicode="&#x152;" horiz-adv-x="621" d="M319 0 L591 0 L591 63 L393 63 L393 270 L556 270 L556 331 L393 331 L393 520 L587 520 L587 583 L319 583 L319 568 C297 584 272 591 240 591 C111 591 36 467 36 280 C36 104 99 -7 224 -7 C260 -7 293 6 319 29 L319 0 Z M233 57 C152 57 113 145 113 292 C113 450 157 527 239 527 C271 527 298 516 319 491 L319 102 C298 71 269 57 233 57 L233 57 Z " />
<glyph glyph-name="oe" unicode="&#x153;" horiz-adv-x="602" d="M184 -7 C235 -7 274 21 300 65 C329 16 376 -7 440 -7 C496 -7 534 3 564 21 L564 78 C528 62 488 54 451 54 C381 54 343 96 339 205 L568 205 L568 246 C568 376 529 460 427 460 C374 460 335 436 309 395 C285 439 246 460 188 460 C91 460 32 353 32 223 C32 60 84 -7 184 -7 L184 -7 Z M187 55 C120 55 102 108 102 226 C102 330 120 397 186 397 C259 397 269 333 269 228 L269 209 C267 114 249 55 187 55 L187 55 Z M423 397 C478 397 496 335 497 259 L340 259 C345 360 377 397 423 397 L423 397 Z " />
<glyph glyph-name="Racute" unicode="&#x154;" horiz-adv-x="398" d="M59 0 L132 0 L132 221 L173 221 C184 221 195 221 206 223 L300 0 L384 0 L272 246 C322 276 351 331 351 405 C351 529 296 583 199 583 L59 583 L59 0 Z M179 520 C244 520 276 489 276 403 C276 297 229 283 167 283 L132 283 L132 520 L179 520 Z M196 630 L271 739 L200 739 L138 630 L196 630 Z " />
<glyph glyph-name="racute" unicode="&#x155;" horiz-adv-x="257" d="M53 0 L121 0 L121 326 C143 354 175 388 219 388 C227 388 236 388 245 385 L245 454 C235 457 226 458 216 458 C177 458 141 424 116 392 L107 450 L38 450 L53 345 L53 0 Z M166 528 L247 668 L179 668 L112 528 L166 528 Z " />
<glyph glyph-name="Rcommaaccent" unicode="&#x156;" horiz-adv-x="398" d="M59 0 L132 0 L132 221 L173 221 C184 221 195 221 206 223 L300 0 L384 0 L272 246 C322 276 351 331 351 405 C351 529 296 583 199 583 L59 583 L59 0 Z M179 520 C244 520 276 489 276 403 C276 297 229 283 167 283 L132 283 L132 520 L179 520 Z M159 -229 L208 -229 L239 -62 L179 -62 L159 -229 Z " />
<glyph glyph-name="rcommaaccent" unicode="&#x157;" horiz-adv-x="257" d="M53 0 L121 0 L121 326 C143 354 175 388 219 388 C227 388 236 388 245 385 L245 454 C235 457 226 458 216 458 C177 458 141 424 116 392 L107 450 L38 450 L53 345 L53 0 Z M36 -229 L85 -229 L116 -62 L56 -62 L36 -229 Z " />
<glyph glyph-name="Rcaron" unicode="&#x158;" horiz-adv-x="398" d="M59 0 L132 0 L132 221 L173 221 C184 221 195 221 206 223 L300 0 L384 0 L272 246 C322 276 351 331 351 405 C351 529 296 583 199 583 L59 583 L59 0 Z M179 520 C244 520 276 489 276 403 C276 297 229 283 167 283 L132 283 L132 520 L179 520 Z M211 622 L294 739 L233 739 L186 668 L183 668 L137 739 L78 739 L154 622 L211 622 Z " />
<glyph glyph-name="rcaron" unicode="&#x159;" horiz-adv-x="257" d="M53 0 L121 0 L121 326 C143 354 175 388 219 388 C227 388 236 388 245 385 L245 454 C235 457 226 458 216 458 C177 458 141 424 116 392 L107 450 L38 450 L53 345 L53 0 Z M170 529 L249 668 L187 668 L145 581 L142 581 L100 668 L41 668 L113 529 L170 529 Z " />
<glyph glyph-name="Sacute" unicode="&#x15a;" horiz-adv-x="341" d="M38 16 C77 1 114 -7 154 -7 C243 -7 311 49 311 160 C311 268 246 302 184 334 C133 361 105 386 105 443 C105 489 137 525 185 525 C224 525 262 513 293 493 L293 568 C265 582 228 591 182 591 C92 591 34 519 34 433 C34 346 85 304 140 277 C197 249 240 224 240 155 C240 91 206 61 155 61 C113 61 71 72 38 90 L38 16 Z M191 630 L266 739 L195 739 L133 630 L191 630 Z " />
<glyph glyph-name="sacute" unicode="&#x15b;" horiz-adv-x="310" d="M170 528 L251 668 L183 668 L116 528 L170 528 Z M140 -7 C214 -7 282 32 282 131 C282 215 225 241 170 261 C126 277 97 292 97 334 C97 374 126 398 167 398 C200 398 227 393 269 374 L269 440 C242 454 201 460 169 460 C92 460 32 412 32 329 C32 253 86 223 137 205 C183 189 219 172 219 128 C219 75 187 56 147 56 C112 56 78 63 35 81 L35 14 C65 1 100 -7 140 -7 L140 -7 Z " />
<glyph glyph-name="Scircumflex" unicode="&#x15c;" horiz-adv-x="341" d="M38 16 C77 1 114 -7 154 -7 C243 -7 311 49 311 160 C311 268 246 302 184 334 C133 361 105 386 105 443 C105 489 137 525 185 525 C224 525 262 513 293 493 L293 568 C265 582 228 591 182 591 C92 591 34 519 34 433 C34 346 85 304 140 277 C197 249 240 224 240 155 C240 91 206 61 155 61 C113 61 71 72 38 90 L38 16 Z M148 743 L65 625 L126 625 L173 696 L176 696 L222 625 L281 625 L205 743 L148 743 Z " />
<glyph glyph-name="scircumflex" unicode="&#x15d;" horiz-adv-x="310" d="M135 668 L55 528 L117 528 L159 618 L163 618 L204 528 L264 528 L192 668 L135 668 Z M140 -7 C214 -7 282 32 282 131 C282 215 225 241 170 261 C126 277 97 292 97 334 C97 374 126 398 167 398 C200 398 227 393 269 374 L269 440 C242 454 201 460 169 460 C92 460 32 412 32 329 C32 253 86 223 137 205 C183 189 219 172 219 128 C219 75 187 56 147 56 C112 56 78 63 35 81 L35 14 C65 1 100 -7 140 -7 L140 -7 Z " />
<glyph glyph-name="Scedilla" unicode="&#x15e;" horiz-adv-x="341" d="M149 -213 C208 -213 236 -173 236 -129 C236 -83 208 -57 170 -47 L182 -5 C257 6 311 61 311 160 C311 268 246 302 184 334 C133 361 105 386 105 443 C105 489 137 525 185 525 C224 525 262 513 293 493 L293 568 C265 582 228 591 182 591 C92 591 34 519 34 433 C34 346 85 304 140 277 C197 249 240 224 240 155 C240 91 206 61 155 61 C113 61 71 72 38 90 L38 16 C71 3 102 -4 135 -6 L117 -61 L117 -77 C159 -78 179 -99 179 -125 C179 -144 171 -163 140 -163 C123 -163 98 -155 85 -147 L85 -199 C100 -207 128 -213 149 -213 L149 -213 Z " />
<glyph glyph-name="scedilla" unicode="&#x15f;" horiz-adv-x="311" d="M135 -213 C194 -213 222 -173 222 -129 C222 -83 194 -57 156 -47 L168 -5 C230 4 282 45 282 131 C282 215 225 241 170 261 C126 277 97 292 97 334 C97 374 126 398 167 398 C200 398 227 393 269 374 L269 440 C242 454 201 460 169 460 C92 460 32 412 32 329 C32 253 86 223 137 205 C183 189 219 172 219 128 C219 75 187 56 147 56 C112 56 78 63 35 81 L35 14 C60 3 89 -4 121 -6 L103 -61 L103 -77 C145 -78 165 -99 165 -125 C165 -144 157 -163 126 -163 C109 -163 84 -155 71 -147 L71 -199 C86 -207 114 -213 135 -213 L135 -213 Z " />
<glyph glyph-name="Scaron" unicode="&#x160;" horiz-adv-x="341" d="M38 16 C77 1 114 -7 154 -7 C243 -7 311 49 311 160 C311 268 246 302 184 334 C133 361 105 386 105 443 C105 489 137 525 185 525 C224 525 262 513 293 493 L293 568 C265 582 228 591 182 591 C92 591 34 519 34 433 C34 346 85 304 140 277 C197 249 240 224 240 155 C240 91 206 61 155 61 C113 61 71 72 38 90 L38 16 Z M204 622 L287 739 L226 739 L179 668 L176 668 L130 739 L71 739 L147 622 L204 622 Z " />
<glyph glyph-name="scaron" unicode="&#x161;" horiz-adv-x="310" d="M188 529 L267 668 L205 668 L163 581 L160 581 L118 668 L59 668 L131 529 L188 529 Z M140 -7 C214 -7 282 32 282 131 C282 215 225 241 170 261 C126 277 97 292 97 334 C97 374 126 398 167 398 C200 398 227 393 269 374 L269 440 C242 454 201 460 169 460 C92 460 32 412 32 329 C32 253 86 223 137 205 C183 189 219 172 219 128 C219 75 187 56 147 56 C112 56 78 63 35 81 L35 14 C65 1 100 -7 140 -7 L140 -7 Z " />
<glyph glyph-name="Tcommaaccent" unicode="&#x162;" horiz-adv-x="384" d="M12 520 L155 520 L155 0 L229 0 L229 520 L372 520 L372 583 L12 583 L12 520 Z M142 -229 L191 -229 L222 -62 L162 -62 L142 -229 Z " />
<glyph glyph-name="tcommaaccent" unicode="&#x163;" horiz-adv-x="266" d="M18 389 L73 389 L73 107 C73 24 118 -7 174 -7 C204 -7 233 -3 253 9 L253 65 C236 59 216 54 197 54 C162 54 142 72 141 121 L141 389 L247 389 L247 450 L141 450 L141 570 L73 570 L73 450 L18 450 L18 389 Z M110 -229 L159 -229 L190 -62 L130 -62 L110 -229 Z " />
<glyph glyph-name="Tcaron" unicode="&#x164;" horiz-adv-x="384" d="M12 520 L155 520 L155 0 L229 0 L229 520 L372 520 L372 583 L12 583 L12 520 Z M215 622 L298 739 L237 739 L190 668 L187 668 L141 739 L82 739 L158 622 L215 622 Z " />
<glyph glyph-name="tcaron" unicode="&#x165;" horiz-adv-x="266" d="M18 389 L73 389 L73 107 C73 24 118 -7 174 -7 C204 -7 233 -3 253 9 L253 65 C236 59 216 54 197 54 C162 54 142 72 141 121 L141 389 L247 389 L247 450 L141 450 L141 570 L73 570 L73 450 L18 450 L18 389 Z M185 526 L232 526 L263 692 L200 692 L185 526 Z " />
<glyph glyph-name="Tbar" unicode="&#x166;" horiz-adv-x="384" d="M12 520 L155 520 L155 318 L69 318 L69 260 L155 260 L155 0 L229 0 L229 260 L316 260 L316 318 L229 318 L229 520 L372 520 L372 583 L12 583 L12 520 Z " />
<glyph glyph-name="tbar" unicode="&#x167;" horiz-adv-x="267" d="M74 570 L74 450 L19 450 L19 389 L74 389 L74 288 L31 288 L31 236 L74 236 L74 107 C74 24 119 -7 175 -7 C205 -7 234 -3 254 9 L254 65 C237 59 217 54 198 54 C163 54 143 72 142 121 L142 236 L227 236 L227 288 L142 288 L142 389 L248 389 L248 450 L142 450 L142 570 L74 570 Z " />
<glyph glyph-name="Utilde" unicode="&#x168;" horiz-adv-x="460" d="M323 723 C317 706 298 691 277 691 C250 691 228 724 192 724 C157 724 132 700 119 676 L141 636 C154 657 169 668 188 668 C217 668 242 635 277 635 C310 635 335 658 345 683 L323 723 Z M232 -7 C320 -7 405 47 405 222 L405 583 L333 583 L333 218 C333 102 301 59 237 59 C173 59 128 89 128 206 L128 583 L55 583 L55 199 C55 36 141 -7 232 -7 L232 -7 Z " />
<glyph glyph-name="utilde" unicode="&#x169;" horiz-adv-x="390" d="M337 450 L269 450 L269 106 C242 80 211 55 178 55 C128 55 118 85 118 153 L118 450 L49 450 L49 132 C49 28 86 -9 153 -9 C203 -9 246 20 276 51 L284 0 L352 0 L337 106 L337 450 Z M289 639 C283 621 264 607 243 607 C216 607 194 640 158 640 C123 640 100 617 85 594 L107 556 C120 577 135 588 154 588 C183 588 208 555 243 555 C276 555 301 578 311 603 L289 639 Z " />
<glyph glyph-name="Umacron" unicode="&#x16a;" horiz-adv-x="460" d="M139 651 L329 651 L329 710 L139 710 L139 651 Z M232 -7 C320 -7 405 47 405 222 L405 583 L333 583 L333 218 C333 102 301 59 237 59 C173 59 128 89 128 206 L128 583 L55 583 L55 199 C55 36 141 -7 232 -7 L232 -7 Z " />
<glyph glyph-name="umacron" unicode="&#x16b;" horiz-adv-x="390" d="M337 450 L269 450 L269 106 C242 80 211 55 178 55 C128 55 118 85 118 153 L118 450 L49 450 L49 132 C49 28 86 -9 153 -9 C203 -9 246 20 276 51 L284 0 L352 0 L337 106 L337 450 Z M98 566 L289 566 L289 627 L98 627 L98 566 Z " />
<glyph glyph-name="Ubreve" unicode="&#x16c;" horiz-adv-x="460" d="M230 682 C202 682 183 700 174 733 L129 716 C138 662 172 635 229 635 C286 635 327 662 333 720 L290 734 C283 700 265 682 230 682 L230 682 Z M232 -7 C320 -7 405 47 405 222 L405 583 L333 583 L333 218 C333 102 301 59 237 59 C173 59 128 89 128 206 L128 583 L55 583 L55 199 C55 36 141 -7 232 -7 L232 -7 Z " />
<glyph glyph-name="ubreve" unicode="&#x16d;" horiz-adv-x="390" d="M337 450 L269 450 L269 106 C242 80 211 55 178 55 C128 55 118 85 118 153 L118 450 L49 450 L49 132 C49 28 86 -9 153 -9 C203 -9 246 20 276 51 L284 0 L352 0 L337 106 L337 450 Z M195 583 C162 583 148 606 139 640 L94 623 C103 569 137 534 194 534 C251 534 290 569 298 627 L255 641 C248 607 234 583 195 583 L195 583 Z " />
<glyph glyph-name="Uring" unicode="&#x16e;" horiz-adv-x="460" d="M232 -7 C320 -7 405 47 405 222 L405 583 L333 583 L333 218 C333 102 301 59 237 59 C173 59 128 89 128 206 L128 583 L55 583 L55 199 C55 36 141 -7 232 -7 L232 -7 Z M232 777 C194 777 158 752 158 699 C158 646 190 620 232 620 C274 620 306 647 306 699 C306 752 273 777 232 777 L232 777 Z M232 737 C254 737 263 724 263 699 C263 675 254 660 232 660 C211 660 202 674 202 699 C202 721 211 737 232 737 L232 737 Z " />
<glyph glyph-name="uring" unicode="&#x16f;" horiz-adv-x="390" d="M337 450 L269 450 L269 106 C242 80 211 55 178 55 C128 55 118 85 118 153 L118 450 L49 450 L49 132 C49 28 86 -9 153 -9 C203 -9 246 20 276 51 L284 0 L352 0 L337 106 L337 450 Z M196 676 C158 676 123 650 123 598 C123 545 154 518 196 518 C238 518 271 547 271 598 C271 651 237 676 196 676 L196 676 Z M196 636 C218 636 228 622 228 598 C228 573 218 557 196 557 C175 557 165 574 165 598 C165 619 175 636 196 636 L196 636 Z " />
<glyph glyph-name="Uhungarumlaut" unicode="&#x170;" horiz-adv-x="460" d="M232 -7 C320 -7 405 47 405 222 L405 583 L333 583 L333 218 C333 102 301 59 237 59 C173 59 128 89 128 206 L128 583 L55 583 L55 199 C55 36 141 -7 232 -7 L232 -7 Z M200 630 L268 739 L197 739 L142 630 L200 630 Z M306 630 L393 739 L322 739 L247 630 L306 630 Z " />
<glyph glyph-name="uhungarumlaut" unicode="&#x171;" horiz-adv-x="390" d="M337 450 L269 450 L269 106 C242 80 211 55 178 55 C128 55 118 85 118 153 L118 450 L49 450 L49 132 C49 28 86 -9 153 -9 C203 -9 246 20 276 51 L284 0 L352 0 L337 106 L337 450 Z M275 528 L360 668 L293 668 L221 528 L275 528 Z M152 528 L232 668 L165 668 L99 528 L152 528 Z " />
<glyph glyph-name="Uogonek" unicode="&#x172;" horiz-adv-x="460" d="M310 -198 L310 -148 C296 -154 278 -158 263 -158 C240 -158 223 -145 223 -116 C223 -78 241 -39 284 0 C351 19 405 82 405 222 L405 583 L333 583 L333 218 C333 102 301 59 237 59 C173 59 128 89 128 206 L128 583 L55 583 L55 199 C55 41 135 -4 222 -7 C188 -38 162 -79 162 -126 C162 -183 196 -212 246 -212 C268 -212 293 -207 310 -198 L310 -198 Z " />
<glyph glyph-name="uogonek" unicode="&#x173;" horiz-adv-x="390" d="M337 450 L269 450 L269 106 C242 80 211 55 178 55 C128 55 118 85 118 153 L118 450 L49 450 L49 132 C49 28 86 -9 153 -9 C203 -9 246 20 276 51 L283 4 C243 -28 210 -73 210 -126 C210 -183 244 -212 294 -212 C316 -212 341 -207 358 -198 L358 -148 C344 -154 326 -158 311 -158 C288 -158 271 -145 271 -116 C271 -78 289 -39 332 0 L352 0 L337 106 L337 450 Z " />
<glyph glyph-name="Wcircumflex" unicode="&#x174;" horiz-adv-x="641" d="M630 583 L557 583 L489 265 L458 116 L454 116 L426 267 L365 583 L284 583 L215 265 L184 110 L180 110 L154 265 L100 583 L23 583 L139 0 L217 0 L289 328 L319 466 L324 466 L350 328 L413 0 L490 0 L630 583 Z M293 744 L210 626 L271 626 L318 697 L321 697 L367 626 L426 626 L350 744 L293 744 Z " />
<glyph glyph-name="wcircumflex" unicode="&#x175;" horiz-adv-x="536" d="M247 668 L167 528 L229 528 L271 618 L275 618 L316 528 L376 528 L304 668 L247 668 Z M520 450 L452 450 L407 215 L383 93 L379 93 L354 213 L307 450 L240 450 L181 208 L155 93 L151 93 L131 209 L92 450 L20 450 L112 0 L185 0 L246 244 L266 335 L270 335 L290 243 L343 0 L420 0 L520 450 Z " />
<glyph glyph-name="Ycircumflex" unicode="&#x176;" horiz-adv-x="387" d="M379 583 L308 583 L237 387 L199 284 L196 284 L157 387 L84 583 L9 583 L156 218 L156 0 L230 0 L230 214 L379 583 Z M167 743 L84 625 L145 625 L192 696 L195 696 L241 625 L300 625 L224 743 L167 743 Z " />
<glyph glyph-name="ycircumflex" unicode="&#x177;" horiz-adv-x="344" d="M159 -207 L213 6 L331 450 L258 450 L199 203 L174 81 L170 81 L147 200 L91 450 L17 450 L127 0 L147 0 L86 -204 L88 -207 L159 -207 Z M153 668 L73 528 L135 528 L177 618 L181 618 L222 528 L282 528 L210 668 L153 668 Z " />
<glyph glyph-name="Ydieresis" unicode="&#x178;" horiz-adv-x="387" d="M379 583 L308 583 L237 387 L199 284 L196 284 L157 387 L84 583 L9 583 L156 218 L156 0 L230 0 L230 214 L379 583 Z M267 633 C291 633 310 651 310 675 C310 700 291 719 267 719 C242 719 224 700 224 675 C224 651 242 633 267 633 L267 633 Z M127 633 C152 633 171 651 171 675 C171 700 152 719 127 719 C103 719 85 700 85 675 C85 651 103 633 127 633 L127 633 Z " />
<glyph glyph-name="Zacute" unicode="&#x179;" horiz-adv-x="356" d="M328 0 L328 63 L112 63 L338 580 L337 583 L29 583 L29 520 L236 520 L16 3 L18 0 L328 0 Z M204 630 L279 739 L208 739 L146 630 L204 630 Z " />
<glyph glyph-name="zacute" unicode="&#x17a;" horiz-adv-x="309" d="M20 3 L20 0 L286 0 L286 61 L116 61 L283 448 L281 450 L27 450 L27 390 L187 390 L20 3 Z M177 528 L258 668 L190 668 L123 528 L177 528 Z " />
<glyph glyph-name="Zdotaccent" unicode="&#x17b;" horiz-adv-x="356" d="M328 0 L328 63 L112 63 L338 580 L337 583 L29 583 L29 520 L236 520 L16 3 L18 0 L328 0 Z M189 637 C214 637 234 655 234 680 C234 705 214 724 189 724 C164 724 146 705 146 680 C146 655 164 637 189 637 L189 637 Z " />
<glyph glyph-name="zdotaccent" unicode="&#x17c;" horiz-adv-x="309" d="M20 3 L20 0 L286 0 L286 61 L116 61 L283 448 L281 450 L27 450 L27 390 L187 390 L20 3 Z M158 567 C184 567 205 587 205 613 C205 639 184 659 158 659 C131 659 111 639 111 613 C111 587 131 567 158 567 L158 567 Z " />
<glyph glyph-name="Zcaron" unicode="&#x17d;" horiz-adv-x="356" d="M328 0 L328 63 L112 63 L338 580 L337 583 L29 583 L29 520 L236 520 L16 3 L18 0 L328 0 Z M207 622 L290 739 L229 739 L182 668 L179 668 L133 739 L74 739 L150 622 L207 622 Z " />
<glyph glyph-name="zcaron" unicode="&#x17e;" horiz-adv-x="309" d="M20 3 L20 0 L286 0 L286 61 L116 61 L283 448 L281 450 L27 450 L27 390 L187 390 L20 3 Z M184 529 L263 668 L201 668 L159 581 L156 581 L114 668 L55 668 L127 529 L184 529 Z " />
<glyph glyph-name="uni018F" unicode="&#x18f;" horiz-adv-x="457" d="M59 561 L59 493 C102 515 150 527 198 527 C283 527 342 480 344 327 L35 327 C32 311 29 290 29 270 C29 110 97 -7 220 -7 C363 -7 421 140 421 306 C421 515 335 591 204 591 C161 591 107 580 59 561 L59 561 Z M222 57 C151 57 107 126 105 267 L344 267 C339 125 303 57 222 57 L222 57 Z " />
<glyph glyph-name="florin" unicode="&#x192;" horiz-adv-x="352" d="M133 27 C126 -49 107 -76 68 -76 C52 -76 40 -75 25 -71 L19 -135 C31 -138 46 -140 63 -140 C141 -140 191 -84 200 24 L210 258 L299 258 L299 317 L213 317 L218 422 C221 504 244 526 282 526 C298 526 311 525 327 521 L331 586 C319 589 305 591 287 591 C208 591 156 539 151 431 L146 317 L73 317 L73 258 L143 258 L133 27 Z " />
<glyph glyph-name="uni01C4" unicode="&#x1c4;" horiz-adv-x="821" d="M59 0 L197 0 C336 0 430 102 430 303 C430 518 324 583 194 583 L59 583 L59 0 Z M185 520 C288 520 354 475 354 295 C354 134 294 63 194 63 L132 63 L132 520 L185 520 Z M793 0 L793 63 L577 63 L803 580 L802 583 L494 583 L494 520 L701 520 L481 3 L483 0 L793 0 Z M672 622 L755 739 L694 739 L647 668 L644 668 L598 739 L539 739 L615 622 L672 622 Z " />
<glyph glyph-name="uni01C5" unicode="&#x1c5;" horiz-adv-x="774" d="M59 0 L197 0 C336 0 430 102 430 303 C430 518 324 583 194 583 L59 583 L59 0 Z M185 520 C288 520 354 475 354 295 C354 134 294 63 194 63 L132 63 L132 520 L185 520 Z M485 3 L485 0 L751 0 L751 61 L581 61 L748 448 L746 450 L492 450 L492 390 L652 390 L485 3 Z M649 529 L728 668 L666 668 L624 581 L621 581 L579 668 L520 668 L592 529 L649 529 Z " />
<glyph glyph-name="uni01C6" unicode="&#x1c6;" horiz-adv-x="691" d="M275 0 L344 0 L329 97 L329 653 L261 653 L261 454 C244 457 218 460 198 460 C102 460 32 375 32 208 C32 57 91 -6 163 -6 C207 -6 242 16 267 48 L275 0 Z M402 3 L402 0 L668 0 L668 61 L498 61 L665 448 L663 450 L409 450 L409 390 L569 390 L402 3 Z M178 60 C127 60 104 111 104 218 C104 346 138 399 200 399 C219 399 243 396 261 389 L261 101 C230 73 206 60 178 60 L178 60 Z M566 529 L645 668 L583 668 L541 581 L538 581 L496 668 L437 668 L509 529 L566 529 Z " />
<glyph glyph-name="uni01C7" unicode="&#x1c7;" horiz-adv-x="533" d="M59 0 L316 0 L316 63 L132 63 L132 583 L59 583 L59 0 Z M380 -86 C440 3 477 89 477 179 L477 583 L403 583 L403 178 C403 91 362 18 319 -56 L380 -86 Z " />
<glyph glyph-name="uni01C8" unicode="&#x1c8;" horiz-adv-x="517" d="M59 0 L316 0 L316 63 L132 63 L132 583 L59 583 L59 0 Z M345 389 L397 389 L397 18 C397 -64 369 -136 345 -189 L398 -214 C440 -155 466 -61 466 27 L466 450 L345 450 L345 389 Z M433 567 C459 567 480 587 480 613 C480 639 459 659 433 659 C407 659 387 639 387 613 C387 587 407 567 433 567 L433 567 Z " />
<glyph glyph-name="uni01C9" unicode="&#x1c9;" horiz-adv-x="367" d="M195 389 L247 389 L247 18 C247 -64 219 -136 195 -189 L248 -214 C290 -155 316 -61 316 27 L316 450 L195 450 L195 389 Z M55 0 L123 0 L123 653 L55 653 L55 0 Z M283 567 C309 567 330 587 330 613 C330 639 309 659 283 659 C257 659 237 639 237 613 C237 587 257 567 283 567 L283 567 Z " />
<glyph glyph-name="uni01CA" unicode="&#x1ca;" horiz-adv-x="682" d="M59 0 L131 0 L129 420 L131 420 L352 0 L418 0 L418 583 L347 583 L349 170 L347 170 L125 583 L59 583 L59 0 Z M529 -86 C589 3 626 89 626 179 L626 583 L552 583 L552 178 C552 91 511 18 468 -56 L529 -86 Z " />
<glyph glyph-name="uni01CB" unicode="&#x1cb;" horiz-adv-x="666" d="M59 0 L131 0 L129 420 L131 420 L352 0 L418 0 L418 583 L347 583 L349 170 L347 170 L125 583 L59 583 L59 0 Z M494 389 L546 389 L546 18 C546 -64 518 -136 494 -189 L547 -214 C589 -155 615 -61 615 27 L615 450 L494 450 L494 389 Z M582 567 C608 567 629 587 629 613 C629 639 608 659 582 659 C556 659 536 639 536 613 C536 587 556 567 582 567 L582 567 Z " />
<glyph glyph-name="uni01CC" unicode="&#x1cc;" horiz-adv-x="583" d="M53 0 L121 0 L121 345 C149 371 184 396 217 396 C267 396 277 366 277 298 L277 0 L345 0 L345 319 C345 423 309 459 242 459 C190 459 144 430 114 400 L106 450 L38 450 L53 345 L53 0 Z M411 389 L463 389 L463 18 C463 -64 435 -136 411 -189 L464 -214 C506 -155 532 -61 532 27 L532 450 L411 450 L411 389 Z M499 567 C525 567 546 587 546 613 C546 639 525 659 499 659 C473 659 453 639 453 613 C453 587 473 567 499 567 L499 567 Z " />
<glyph glyph-name="uni01D3" unicode="&#x1d3;" horiz-adv-x="460" d="M256 623 L339 740 L278 740 L231 669 L228 669 L182 740 L123 740 L199 623 L256 623 Z M232 -7 C320 -7 405 47 405 222 L405 583 L333 583 L333 218 C333 102 301 59 237 59 C173 59 128 89 128 206 L128 583 L55 583 L55 199 C55 36 141 -7 232 -7 L232 -7 Z " />
<glyph glyph-name="uni01D4" unicode="&#x1d4;" horiz-adv-x="390" d="M337 450 L269 450 L269 106 C242 80 211 55 178 55 C128 55 118 85 118 153 L118 450 L49 450 L49 132 C49 28 86 -9 153 -9 C203 -9 246 20 276 51 L284 0 L352 0 L337 106 L337 450 Z M222 529 L301 668 L239 668 L197 581 L194 581 L152 668 L93 668 L165 529 L222 529 Z " />
<glyph glyph-name="uni01E2" unicode="&#x1e2;" horiz-adv-x="552" d="M255 0 L522 0 L522 63 L329 63 L329 270 L487 270 L487 331 L329 331 L329 520 L518 520 L518 583 L220 583 L4 0 L74 0 L135 176 L255 176 L255 0 Z M251 510 L255 510 L255 239 L157 239 L251 510 Z M293 650 L483 650 L483 709 L293 709 L293 650 Z " />
<glyph glyph-name="uni01E3" unicode="&#x1e3;" horiz-adv-x="561" d="M397 -7 C453 -7 490 2 522 21 L522 78 C486 62 446 54 410 54 C340 54 302 96 297 202 L527 202 L527 247 C527 373 488 460 385 460 C341 460 307 441 281 408 C262 446 225 460 179 460 C139 460 85 451 49 436 L49 373 C78 385 127 396 162 396 C201 396 230 382 230 323 L230 255 L187 255 C88 255 26 212 26 116 C26 45 62 -6 129 -6 C189 -6 234 33 260 66 C288 16 334 -7 397 -7 L397 -7 Z M382 397 C437 397 455 335 456 256 L297 256 C302 359 334 397 382 397 L382 397 Z M144 55 C112 55 95 76 95 124 C95 186 127 202 181 202 L230 202 C231 168 235 139 242 113 C215 81 177 55 144 55 L144 55 Z M187 566 L378 566 L378 627 L187 627 L187 566 Z " />
<glyph glyph-name="uni01F1" unicode="&#x1f1;" horiz-adv-x="810" d="M59 0 L197 0 C336 0 430 102 430 303 C430 518 324 583 194 583 L59 583 L59 0 Z M185 520 C288 520 354 475 354 295 C354 134 294 63 194 63 L132 63 L132 520 L185 520 Z M782 0 L782 63 L566 63 L792 580 L791 583 L483 583 L483 520 L690 520 L470 3 L472 0 L782 0 Z " />
<glyph glyph-name="uni01F2" unicode="&#x1f2;" horiz-adv-x="774" d="M59 0 L197 0 C336 0 430 102 430 303 C430 518 324 583 194 583 L59 583 L59 0 Z M185 520 C288 520 354 475 354 295 C354 134 294 63 194 63 L132 63 L132 520 L185 520 Z M485 3 L485 0 L751 0 L751 61 L581 61 L748 448 L746 450 L492 450 L492 390 L652 390 L485 3 Z " />
<glyph glyph-name="uni01F3" unicode="&#x1f3;" horiz-adv-x="691" d="M275 0 L344 0 L329 97 L329 653 L261 653 L261 454 C244 457 218 460 198 460 C102 460 32 375 32 208 C32 57 91 -6 163 -6 C207 -6 242 16 267 48 L275 0 Z M402 3 L402 0 L668 0 L668 61 L498 61 L665 448 L663 450 L409 450 L409 390 L569 390 L402 3 Z M178 60 C127 60 104 111 104 218 C104 346 138 399 200 399 C219 399 243 396 261 389 L261 101 C230 73 206 60 178 60 L178 60 Z " />
<glyph glyph-name="AEacute" unicode="&#x1fc;" horiz-adv-x="552" d="M255 0 L522 0 L522 63 L329 63 L329 270 L487 270 L487 331 L329 331 L329 520 L518 520 L518 583 L220 583 L4 0 L74 0 L135 176 L255 176 L255 0 Z M251 510 L255 510 L255 239 L157 239 L251 510 Z M396 631 L471 740 L400 740 L338 631 L396 631 Z " />
<glyph glyph-name="aeacute" unicode="&#x1fd;" horiz-adv-x="561" d="M397 -7 C453 -7 490 2 522 21 L522 78 C486 62 446 54 410 54 C340 54 302 96 297 202 L527 202 L527 247 C527 373 488 460 385 460 C341 460 307 441 281 408 C262 446 225 460 179 460 C139 460 85 451 49 436 L49 373 C78 385 127 396 162 396 C201 396 230 382 230 323 L230 255 L187 255 C88 255 26 212 26 116 C26 45 62 -6 129 -6 C189 -6 234 33 260 66 C288 16 334 -7 397 -7 L397 -7 Z M382 397 C437 397 455 335 456 256 L297 256 C302 359 334 397 382 397 L382 397 Z M144 55 C112 55 95 76 95 124 C95 186 127 202 181 202 L230 202 C231 168 235 139 242 113 C215 81 177 55 144 55 L144 55 Z M307 528 L388 668 L320 668 L253 528 L307 528 Z " />
<glyph glyph-name="Oslashacute" unicode="&#x1fe;" horiz-adv-x="471" d="M231 -7 C373 -7 435 117 435 309 C435 383 422 450 395 500 L451 591 L393 591 L363 543 C334 573 294 591 243 591 C102 591 36 459 36 280 C36 200 49 133 76 84 L19 -7 L78 -7 L108 40 C138 9 179 -7 231 -7 L231 -7 Z M235 57 C197 57 169 74 149 106 L346 423 C355 389 359 347 359 298 C359 145 324 57 235 57 L235 57 Z M113 292 C113 453 155 527 239 527 C275 527 303 511 323 479 L126 164 C117 199 113 241 113 292 L113 292 Z M251 630 L326 739 L255 739 L193 630 L251 630 Z " />
<glyph glyph-name="oslashacute" unicode="&#x1ff;" horiz-adv-x="373" d="M185 -7 C286 -7 340 101 340 228 C340 299 331 353 312 391 L356 461 L306 461 L285 428 C262 449 230 460 189 460 C92 460 33 353 33 223 C33 153 42 100 61 63 L18 -7 L67 -7 L88 27 C112 4 144 -7 185 -7 L185 -7 Z M188 55 C158 55 138 65 125 87 L265 314 C269 289 270 259 270 225 C270 121 254 55 188 55 L188 55 Z M103 226 C103 330 121 397 187 397 C216 397 236 386 248 367 L108 139 C104 163 103 192 103 226 L103 226 Z M213 528 L294 668 L226 668 L159 528 L213 528 Z " />
<glyph glyph-name="Scommaaccent" unicode="&#x218;" horiz-adv-x="341" d="M124 -229 L173 -229 L204 -62 L144 -62 L124 -229 Z M38 16 C77 1 114 -7 154 -7 C243 -7 311 49 311 160 C311 268 246 302 184 334 C133 361 105 386 105 443 C105 489 137 525 185 525 C224 525 262 513 293 493 L293 568 C265 582 228 591 182 591 C92 591 34 519 34 433 C34 346 85 304 140 277 C197 249 240 224 240 155 C240 91 206 61 155 61 C113 61 71 72 38 90 L38 16 Z " />
<glyph glyph-name="scommaaccent" unicode="&#x219;" horiz-adv-x="310" d="M107 -229 L156 -229 L187 -62 L127 -62 L107 -229 Z M140 -7 C214 -7 282 32 282 131 C282 215 225 241 170 261 C126 277 97 292 97 334 C97 374 126 398 167 398 C200 398 227 393 269 374 L269 440 C242 454 201 460 169 460 C92 460 32 412 32 329 C32 253 86 223 137 205 C183 189 219 172 219 128 C219 75 187 56 147 56 C112 56 78 63 35 81 L35 14 C65 1 100 -7 140 -7 L140 -7 Z " />
<glyph glyph-name="uni021A" unicode="&#x21a;" horiz-adv-x="384" d="M12 520 L155 520 L155 0 L229 0 L229 520 L372 520 L372 583 L12 583 L12 520 Z M142 -229 L191 -229 L222 -62 L162 -62 L142 -229 Z " />
<glyph glyph-name="uni021B" unicode="&#x21b;" horiz-adv-x="266" d="M18 389 L73 389 L73 107 C73 24 118 -7 174 -7 C204 -7 233 -3 253 9 L253 65 C236 59 216 54 197 54 C162 54 142 72 141 121 L141 389 L247 389 L247 450 L141 450 L141 570 L73 570 L73 450 L18 450 L18 389 Z M110 -229 L159 -229 L190 -62 L130 -62 L110 -229 Z " />
<glyph glyph-name="uni0232" unicode="&#x232;" horiz-adv-x="387" d="M379 583 L308 583 L237 387 L199 284 L196 284 L157 387 L84 583 L9 583 L156 218 L156 0 L230 0 L230 214 L379 583 Z M103 650 L293 650 L293 709 L103 709 L103 650 Z " />
<glyph glyph-name="uni0233" unicode="&#x233;" horiz-adv-x="344" d="M159 -207 L213 6 L331 450 L258 450 L199 203 L174 81 L170 81 L147 200 L91 450 L17 450 L127 0 L147 0 L86 -204 L88 -207 L159 -207 Z M84 566 L275 566 L275 627 L84 627 L84 566 Z " />
<glyph glyph-name="uni0237" unicode="&#x237;" horiz-adv-x="189" d="M17 389 L69 389 L69 18 C69 -64 41 -136 17 -189 L70 -214 C112 -155 138 -61 138 27 L138 450 L17 450 L17 389 Z " />
<glyph glyph-name="uni0259" unicode="&#x259;" horiz-adv-x="365" d="M162 459 C106 459 68 449 38 431 L38 374 C74 390 114 398 151 398 C221 398 258 356 262 247 L34 247 L34 206 C34 76 73 -8 175 -8 C281 -8 333 89 333 235 C333 390 273 459 162 459 L162 459 Z M179 55 C123 55 106 117 105 193 L262 193 C256 92 225 55 179 55 L179 55 Z " />
<glyph glyph-name="circumflex" unicode="&#x2c6;" horiz-adv-x="290" d="M123 668 L43 528 L105 528 L147 618 L151 618 L192 528 L252 528 L180 668 L123 668 Z " />
<glyph glyph-name="caron" unicode="&#x2c7;" horiz-adv-x="340" d="M198 529 L277 668 L215 668 L173 581 L170 581 L128 668 L69 668 L141 529 L198 529 Z " />
<glyph glyph-name="breve" unicode="&#x2d8;" horiz-adv-x="259" d="M130 583 C97 583 83 606 74 640 L29 623 C38 569 72 534 129 534 C186 534 225 569 233 627 L190 641 C183 607 169 583 130 583 L130 583 Z " />
<glyph glyph-name="dotaccent" unicode="&#x2d9;" horiz-adv-x="226" d="M116 567 C142 567 163 587 163 613 C163 639 142 659 116 659 C89 659 69 639 69 613 C69 587 89 567 116 567 L116 567 Z " />
<glyph glyph-name="ring" unicode="&#x2da;" horiz-adv-x="238" d="M119 676 C81 676 46 650 46 598 C46 545 77 518 119 518 C161 518 194 547 194 598 C194 651 160 676 119 676 L119 676 Z M119 636 C141 636 151 622 151 598 C151 573 141 557 119 557 C98 557 88 574 88 598 C88 619 98 636 119 636 L119 636 Z " />
<glyph glyph-name="ogonek" unicode="&#x2db;" horiz-adv-x="248" d="M210 -198 L210 -148 C196 -154 178 -158 163 -158 C140 -158 123 -145 123 -116 C123 -77 142 -37 189 4 L171 29 C118 -3 62 -58 62 -126 C62 -183 96 -212 146 -212 C168 -212 193 -207 210 -198 L210 -198 Z " />
<glyph glyph-name="tilde" unicode="&#x2dc;" horiz-adv-x="308" d="M245 639 C239 621 220 607 199 607 C172 607 150 640 114 640 C79 640 56 617 41 594 L63 556 C76 577 91 588 110 588 C139 588 164 555 199 555 C232 555 257 578 267 603 L245 639 Z " />
<glyph glyph-name="hungarumlaut" unicode="&#x2dd;" horiz-adv-x="349" d="M96 528 L176 668 L109 668 L43 528 L96 528 Z M219 528 L304 668 L237 668 L165 528 L219 528 Z " />
<glyph glyph-name="dotbelowcmb" unicode="&#x323;" d="M-155 -184 C-130 -184 -110 -165 -110 -141 C-110 -116 -130 -97 -155 -97 C-180 -97 -198 -116 -198 -141 C-198 -165 -180 -184 -155 -184 L-155 -184 Z " />
<glyph glyph-name="uni0394" unicode="&#x394;" horiz-adv-x="412" d="M390 0 L390 56 L250 583 L175 583 L21 55 L22 0 L390 0 Z M205 479 L210 479 L310 64 L94 64 L205 479 Z " />
<glyph glyph-name="Sigma" unicode="&#x3a3;" horiz-adv-x="366" d="M34 0 L332 0 L332 67 L112 67 L209 291 L115 519 L323 519 L323 583 L36 583 L36 525 L135 288 L34 58 L34 0 Z " />
<glyph glyph-name="pi" unicode="&#x3c0;" horiz-adv-x="421" d="M329 388 L379 388 L379 450 L27 450 L27 388 L76 388 L76 0 L141 0 L141 388 L264 388 L264 64 C264 17 284 -7 332 -7 C354 -7 372 -4 388 6 L388 54 C375 52 363 52 355 52 C337 52 329 66 329 106 L329 388 Z " />
<glyph glyph-name="uni1E46" unicode="&#x1e46;" horiz-adv-x="477" d="M231 -184 C256 -184 276 -165 276 -141 C276 -116 256 -97 231 -97 C206 -97 188 -116 188 -141 C188 -165 206 -184 231 -184 L231 -184 Z M59 0 L131 0 L129 420 L131 420 L352 0 L418 0 L418 583 L347 583 L349 170 L347 170 L125 583 L59 583 L59 0 Z " />
<glyph glyph-name="uni1E47" unicode="&#x1e47;" horiz-adv-x="394" d="M53 0 L121 0 L121 345 C149 371 184 396 217 396 C267 396 277 366 277 298 L277 0 L345 0 L345 319 C345 423 309 459 242 459 C190 459 144 430 114 400 L106 450 L38 450 L53 345 L53 0 Z M194 -184 C219 -184 239 -165 239 -141 C239 -116 219 -97 194 -97 C169 -97 151 -116 151 -141 C151 -165 169 -184 194 -184 L194 -184 Z " />
<glyph glyph-name="uni1E62" unicode="&#x1e62;" horiz-adv-x="341" d="M153 -184 C178 -184 198 -165 198 -141 C198 -116 178 -97 153 -97 C128 -97 110 -116 110 -141 C110 -165 128 -184 153 -184 L153 -184 Z M38 16 C77 1 114 -7 154 -7 C243 -7 311 49 311 160 C311 268 246 302 184 334 C133 361 105 386 105 443 C105 489 137 525 185 525 C224 525 262 513 293 493 L293 568 C265 582 228 591 182 591 C92 591 34 519 34 433 C34 346 85 304 140 277 C197 249 240 224 240 155 C240 91 206 61 155 61 C113 61 71 72 38 90 L38 16 Z " />
<glyph glyph-name="uni1E63" unicode="&#x1e63;" horiz-adv-x="310" d="M146 -184 C171 -184 191 -165 191 -141 C191 -116 171 -97 146 -97 C121 -97 103 -116 103 -141 C103 -165 121 -184 146 -184 L146 -184 Z M140 -7 C214 -7 282 32 282 131 C282 215 225 241 170 261 C126 277 97 292 97 334 C97 374 126 398 167 398 C200 398 227 393 269 374 L269 440 C242 454 201 460 169 460 C92 460 32 412 32 329 C32 253 86 223 137 205 C183 189 219 172 219 128 C219 75 187 56 147 56 C112 56 78 63 35 81 L35 14 C65 1 100 -7 140 -7 L140 -7 Z " />
<glyph glyph-name="Wgrave" unicode="&#x1e80;" horiz-adv-x="641" d="M362 630 L300 739 L229 739 L304 630 L362 630 Z M630 583 L557 583 L489 265 L458 116 L454 116 L426 267 L365 583 L284 583 L215 265 L184 110 L180 110 L154 265 L100 583 L23 583 L139 0 L217 0 L289 328 L319 466 L324 466 L350 328 L413 0 L490 0 L630 583 Z " />
<glyph glyph-name="wgrave" unicode="&#x1e81;" horiz-adv-x="536" d="M520 450 L452 450 L407 215 L383 93 L379 93 L354 213 L307 450 L240 450 L181 208 L155 93 L151 93 L131 209 L92 450 L20 450 L112 0 L185 0 L246 244 L266 335 L270 335 L290 243 L343 0 L420 0 L520 450 Z M299 528 L233 668 L164 668 L245 528 L299 528 Z " />
<glyph glyph-name="Wacute" unicode="&#x1e82;" horiz-adv-x="641" d="M345 626 L420 735 L349 735 L287 626 L345 626 Z M630 583 L557 583 L489 265 L458 116 L454 116 L426 267 L365 583 L284 583 L215 265 L184 110 L180 110 L154 265 L100 583 L23 583 L139 0 L217 0 L289 328 L319 466 L324 466 L350 328 L413 0 L490 0 L630 583 Z " />
<glyph glyph-name="wacute" unicode="&#x1e83;" horiz-adv-x="536" d="M300 528 L381 668 L313 668 L246 528 L300 528 Z M520 450 L452 450 L407 215 L383 93 L379 93 L354 213 L307 450 L240 450 L181 208 L155 93 L151 93 L131 209 L92 450 L20 450 L112 0 L185 0 L246 244 L266 335 L270 335 L290 243 L343 0 L420 0 L520 450 Z " />
<glyph glyph-name="Wdieresis" unicode="&#x1e84;" horiz-adv-x="641" d="M250 633 C275 633 294 651 294 675 C294 700 275 719 250 719 C226 719 208 700 208 675 C208 651 226 633 250 633 L250 633 Z M390 633 C414 633 433 651 433 675 C433 700 414 719 390 719 C365 719 347 700 347 675 C347 651 365 633 390 633 L390 633 Z M630 583 L557 583 L489 265 L458 116 L454 116 L426 267 L365 583 L284 583 L215 265 L184 110 L180 110 L154 265 L100 583 L23 583 L139 0 L217 0 L289 328 L319 466 L324 466 L350 328 L413 0 L490 0 L630 583 Z " />
<glyph glyph-name="wdieresis" unicode="&#x1e85;" horiz-adv-x="536" d="M201 568 C226 568 245 587 245 611 C245 636 226 655 201 655 C176 655 158 636 158 611 C158 587 176 568 201 568 L201 568 Z M340 568 C365 568 384 587 384 611 C384 636 365 655 340 655 C316 655 297 636 297 611 C297 587 316 568 340 568 L340 568 Z M520 450 L452 450 L407 215 L383 93 L379 93 L354 213 L307 450 L240 450 L181 208 L155 93 L151 93 L131 209 L92 450 L20 450 L112 0 L185 0 L246 244 L266 335 L270 335 L290 243 L343 0 L420 0 L520 450 Z " />
<glyph glyph-name="uni1EBC" unicode="&#x1ebc;" horiz-adv-x="355" d="M59 0 L326 0 L326 63 L132 63 L132 270 L290 270 L290 331 L132 331 L132 520 L321 520 L321 583 L59 583 L59 0 Z M284 723 C278 706 259 691 238 691 C211 691 189 724 153 724 C118 724 93 700 80 676 L102 636 C115 657 130 668 149 668 C178 668 203 635 238 635 C271 635 296 658 306 683 L284 723 Z " />
<glyph glyph-name="uni1EBD" unicode="&#x1ebd;" horiz-adv-x="365" d="M203 -7 C259 -7 297 3 327 21 L327 78 C291 62 251 54 214 54 C144 54 106 96 102 205 L331 205 L331 246 C331 376 292 460 190 460 C84 460 32 363 32 217 C32 62 92 -7 203 -7 L203 -7 Z M186 397 C241 397 259 335 260 259 L103 259 C108 360 140 397 186 397 L186 397 Z M283 639 C277 621 258 607 237 607 C210 607 188 640 152 640 C117 640 94 617 79 594 L101 556 C114 577 129 588 148 588 C177 588 202 555 237 555 C270 555 295 578 305 603 L283 639 Z " />
<glyph glyph-name="Ygrave" unicode="&#x1ef2;" horiz-adv-x="387" d="M379 583 L308 583 L237 387 L199 284 L196 284 L157 387 L84 583 L9 583 L156 218 L156 0 L230 0 L230 214 L379 583 Z M238 630 L176 739 L105 739 L180 630 L238 630 Z " />
<glyph glyph-name="ygrave" unicode="&#x1ef3;" horiz-adv-x="344" d="M159 -207 L213 6 L331 450 L258 450 L199 203 L174 81 L170 81 L147 200 L91 450 L17 450 L127 0 L147 0 L86 -204 L88 -207 L159 -207 Z M217 519 L151 659 L82 659 L163 519 L217 519 Z " />
<glyph glyph-name="uni2004" unicode="&#x2004;" horiz-adv-x="333" d="" />
<glyph glyph-name="uni2007" unicode="&#x2007;" horiz-adv-x="400" d="" />
<glyph glyph-name="uni2009" unicode="&#x2009;" horiz-adv-x="160" d="" />
<glyph glyph-name="uni200A" unicode="&#x200a;" horiz-adv-x="80" d="" />
<glyph glyph-name="uni200B" unicode="&#x200b;" d="" />
<glyph glyph-name="uni2012" unicode="&#x2012;" horiz-adv-x="378" d="M388 231 L388 298 L-10 298 L-10 231 L388 231 Z " />
<glyph glyph-name="endash" unicode="&#x2013;" horiz-adv-x="345" d="M49 219 L296 219 L296 275 L49 275 L49 219 Z " />
<glyph glyph-name="emdash" unicode="&#x2014;" horiz-adv-x="651" d="M49 219 L602 219 L602 275 L49 275 L49 219 Z " />
<glyph glyph-name="quoteleft" unicode="&#x2018;" horiz-adv-x="177" d="M135 674 C72 621 41 553 41 494 C41 462 64 438 91 438 C118 438 139 460 139 487 C120 500 114 519 114 542 C114 582 139 620 164 650 L135 674 Z " />
<glyph glyph-name="quoteright" unicode="&#x2019;" horiz-adv-x="183" d="M65 444 C128 497 159 565 159 624 C159 656 136 680 109 680 C82 680 61 658 61 631 C80 618 86 599 86 576 C86 536 61 498 36 468 L65 444 Z " />
<glyph glyph-name="quotesinglbase" unicode="&#x201a;" horiz-adv-x="184" d="M46 -138 C109 -84 140 -16 140 43 C140 75 116 100 89 100 C62 100 41 78 41 50 C60 37 66 18 66 -5 C66 -45 41 -83 16 -114 L46 -138 Z " />
<glyph glyph-name="quotedblleft" unicode="&#x201c;" horiz-adv-x="305" d="M135 674 C72 621 41 553 41 494 C41 462 64 438 91 438 C118 438 139 460 139 487 C120 500 114 519 114 542 C114 582 139 620 164 650 L135 674 Z M263 674 C200 621 169 553 169 494 C169 462 192 438 219 438 C246 438 267 460 267 487 C248 500 242 519 242 542 C242 582 267 620 292 650 L263 674 Z " />
<glyph glyph-name="quotedblright" unicode="&#x201d;" horiz-adv-x="314" d="M62 435 C125 488 156 556 156 615 C156 647 133 671 106 671 C79 671 58 649 58 622 C77 609 83 590 83 567 C83 527 58 489 33 459 L62 435 Z M193 435 C256 488 287 556 287 615 C287 647 264 671 237 671 C210 671 189 649 189 622 C208 609 214 590 214 567 C214 527 189 489 164 459 L193 435 Z " />
<glyph glyph-name="quotedblbase" unicode="&#x201e;" horiz-adv-x="315" d="M46 -138 C109 -84 140 -16 140 43 C140 75 116 100 89 100 C62 100 41 78 41 50 C60 37 66 18 66 -5 C66 -45 41 -83 16 -114 L46 -138 Z M177 -138 C240 -84 271 -16 271 43 C271 75 247 100 220 100 C193 100 172 78 172 50 C191 37 197 18 197 -5 C197 -45 172 -83 147 -114 L177 -138 Z " />
<glyph glyph-name="dagger" unicode="&#x2020;" horiz-adv-x="349" d="M22 397 L147 397 L147 0 L202 0 L202 397 L327 397 L327 450 L202 450 L202 653 L147 653 L147 450 L22 450 L22 397 Z " />
<glyph glyph-name="daggerdbl" unicode="&#x2021;" horiz-adv-x="379" d="M37 397 L162 397 L162 243 L37 243 L37 190 L162 190 L162 0 L217 0 L217 190 L342 190 L342 243 L217 243 L217 397 L342 397 L342 450 L217 450 L217 653 L162 653 L162 450 L37 450 L37 397 Z " />
<glyph glyph-name="bullet" unicode="&#x2022;" horiz-adv-x="372" d="M186 165 C260 165 317 222 317 297 C317 370 260 427 186 427 C112 427 55 370 55 297 C55 222 112 165 186 165 L186 165 Z " />
<glyph glyph-name="ellipsis" unicode="&#x2026;" horiz-adv-x="542" d="M97 -8 C128 -8 152 17 152 47 C152 78 128 104 97 104 C66 104 42 78 42 47 C42 17 66 -8 97 -8 L97 -8 Z M272 -8 C303 -8 327 17 327 47 C327 78 303 104 272 104 C241 104 217 78 217 47 C217 17 241 -8 272 -8 L272 -8 Z M445 -8 C476 -8 500 17 500 47 C500 78 476 104 445 104 C414 104 390 78 390 47 C390 17 414 -8 445 -8 L445 -8 Z " />
<glyph glyph-name="perthousand" unicode="&#x2030;" horiz-adv-x="729" d="M125 286 C184 286 222 342 222 437 C222 541 183 591 125 591 C65 591 27 531 27 435 C27 335 65 286 125 286 L125 286 Z M270 368 L320 368 L417 568 L417 583 L357 583 L270 368 Z M127 331 C94 331 79 368 79 436 C79 511 92 545 123 545 C155 545 169 513 169 434 C169 365 156 331 127 331 L127 331 Z M396 -8 C456 -8 494 50 494 144 C494 248 455 298 396 298 C337 298 299 238 299 142 C299 43 337 -8 396 -8 L396 -8 Z M398 38 C366 38 351 75 351 143 C351 213 363 252 394 252 C427 252 441 221 441 141 C441 72 428 38 398 38 L398 38 Z M263 228 L213 228 L115 15 L115 0 L175 0 L263 228 Z M606 -8 C666 -8 704 50 704 144 C704 248 665 298 606 298 C547 298 509 238 509 142 C509 43 547 -8 606 -8 L606 -8 Z M608 38 C576 38 561 75 561 143 C561 213 573 252 604 252 C637 252 651 221 651 141 C651 72 638 38 608 38 L608 38 Z " />
<glyph glyph-name="guilsinglleft" unicode="&#x2039;" horiz-adv-x="205" d="M106 46 L166 46 L110 226 L165 405 L105 405 L34 226 L106 46 Z " />
<glyph glyph-name="guilsinglright" unicode="&#x203a;" horiz-adv-x="205" d="M99 408 L39 408 L95 228 L40 49 L100 49 L171 228 L99 408 Z " />
<glyph glyph-name="uni203D" unicode="&#x203d;" horiz-adv-x="285" d="M83 318 L97 190 L143 193 L142 268 C180 289 258 347 258 450 C258 547 207 591 130 591 C99 591 58 581 31 567 L31 511 C60 525 96 535 124 535 C169 535 194 505 194 448 C194 387 168 347 141 321 L132 457 L73 454 L83 318 Z M118 -7 C149 -7 173 18 173 48 C173 79 149 105 118 105 C87 105 63 79 63 48 C63 18 87 -7 118 -7 L118 -7 Z " />
<glyph glyph-name="fraction" unicode="&#x2044;" horiz-adv-x="93" d="M-58 0 L188 556 L188 561 L148 561 L-99 5 L-99 0 L-58 0 Z " />
<glyph glyph-name="zerosuperior" unicode="&#x2070;" horiz-adv-x="229" d="M112 396 C175 396 208 449 208 557 C208 645 185 713 116 713 C54 713 21 655 21 548 C21 448 48 396 112 396 L112 396 Z M115 437 C80 437 73 472 73 550 C73 625 79 671 113 671 C148 671 156 626 156 555 C156 479 150 437 115 437 L115 437 Z " />
<glyph glyph-name="i.superior" unicode="&#x2071;" horiz-adv-x="136" d="M16 659 L48 659 L48 400 L101 400 L101 708 L16 708 L16 659 Z M37 821 C37 800 53 784 74 784 C95 784 112 800 112 821 C112 842 95 858 74 858 C53 858 37 842 37 821 L37 821 Z " />
<glyph glyph-name="foursuperior" unicode="&#x2074;" horiz-adv-x="200" d="M106 400 L156 400 L156 476 L185 476 L185 516 L156 516 L156 712 L105 712 L9 516 L9 476 L106 476 L106 400 Z M50 516 L104 633 L106 633 L106 516 L50 516 Z " />
<glyph glyph-name="fivesuperior" unicode="&#x2075;" horiz-adv-x="186" d="M78 396 C121 396 167 426 167 496 C167 565 132 588 77 588 L70 588 L74 666 L161 666 L161 708 L37 708 L27 545 C38 547 47 548 56 548 C98 548 118 538 118 493 C118 456 100 438 75 438 C56 438 38 442 19 451 L19 407 C34 401 52 396 78 396 L78 396 Z " />
<glyph glyph-name="sixsuperior" unicode="&#x2076;" horiz-adv-x="211" d="M105 396 C164 396 194 443 194 504 C194 567 166 595 121 595 C99 595 83 589 71 581 C76 643 94 671 131 671 C144 671 157 670 177 659 L177 704 C160 710 144 713 129 713 C58 713 20 640 20 532 C20 448 45 396 105 396 L105 396 Z M109 556 C135 556 144 537 144 500 C144 457 134 437 107 437 C78 437 69 471 69 532 L69 545 C79 551 91 556 109 556 L109 556 Z " />
<glyph glyph-name="sevensuperior" unicode="&#x2077;" horiz-adv-x="170" d="M69 400 L166 682 L166 708 L12 708 L12 666 L115 666 L22 403 L23 400 L69 400 Z " />
<glyph glyph-name="eightsuperior" unicode="&#x2078;" horiz-adv-x="212" d="M191 484 C191 524 170 544 146 558 C169 576 187 601 187 636 C187 684 155 713 105 713 C56 713 27 675 27 629 C27 593 42 572 62 557 C39 541 19 511 19 479 C19 427 49 396 102 396 C155 396 191 434 191 484 L191 484 Z M66 484 C66 511 74 528 86 542 C115 526 143 513 143 481 C143 442 125 435 105 435 C83 435 66 448 66 484 L66 484 Z M139 630 C139 608 131 589 117 573 C93 586 72 600 72 632 C72 662 84 672 104 672 C131 672 139 656 139 630 L139 630 Z " />
<glyph glyph-name="ninesuperior" unicode="&#x2079;" horiz-adv-x="210" d="M33 405 C50 398 66 396 81 396 C152 396 190 467 190 577 C190 656 166 713 105 713 C46 713 17 667 17 605 C17 543 44 514 89 514 C111 514 126 520 139 528 C133 467 115 438 79 438 C66 438 53 439 33 450 L33 405 Z M101 553 C75 553 65 571 65 609 C65 655 77 673 103 673 C132 673 141 638 141 577 L141 564 C131 558 118 553 101 553 L101 553 Z " />
<glyph glyph-name="plussuperior" unicode="&#x207a;" horiz-adv-x="244" d="M15 530 L99 530 L99 439 L145 439 L145 530 L229 530 L229 578 L145 578 L145 669 L99 669 L99 578 L15 578 L15 530 Z " />
<glyph glyph-name="minussuperior" unicode="&#x207b;" horiz-adv-x="268" d="M29 533 L239 533 L239 580 L29 580 L29 533 Z " />
<glyph glyph-name="equalsuperior" unicode="&#x207c;" horiz-adv-x="258" d="M29 467 L229 467 L229 517 L29 517 L29 467 Z M29 599 L229 599 L229 648 L29 648 L29 599 Z " />
<glyph glyph-name="parenleftsuperior" unicode="&#x207d;" horiz-adv-x="146" d="M150 306 C131 330 65 431 65 580 C65 726 129 819 148 842 L99 842 C80 821 14 731 14 579 C14 429 66 346 98 306 L150 306 Z " />
<glyph glyph-name="parenrightsuperior" unicode="&#x207e;" horiz-adv-x="146" d="M49 306 C79 344 132 425 132 575 C132 728 68 819 48 842 L-3 842 C16 819 81 722 81 574 C81 427 16 330 -3 306 L49 306 Z " />
<glyph glyph-name="n.superior" unicode="&#x207f;" horiz-adv-x="273" d="M37 400 L90 400 L90 632 C109 649 132 663 149 663 C181 663 187 642 187 589 L187 400 L240 400 L240 603 C240 681 219 714 172 714 C136 714 106 695 85 675 L81 708 L27 708 L37 636 L37 400 Z " />
<glyph glyph-name="zeroinferior" unicode="&#x2080;" horiz-adv-x="229" d="M112 -4 C175 -4 208 49 208 157 C208 245 185 313 116 313 C54 313 21 255 21 148 C21 48 48 -4 112 -4 L112 -4 Z M115 37 C80 37 73 72 73 150 C73 225 79 271 113 271 C148 271 156 226 156 155 C156 79 150 37 115 37 L115 37 Z " />
<glyph glyph-name="oneinferior" unicode="&#x2081;" horiz-adv-x="149" d="M114 0 L114 312 L80 312 L7 286 L7 245 L63 259 L63 0 L114 0 Z " />
<glyph glyph-name="twoinferior" unicode="&#x2082;" horiz-adv-x="198" d="M122 220 C122 158 72 101 16 37 L16 0 L179 0 L179 45 L76 45 L76 47 C129 100 174 162 174 225 C174 287 138 313 93 313 C68 313 41 307 22 294 L23 250 C46 267 65 270 82 270 C104 270 122 255 122 220 L122 220 Z " />
<glyph glyph-name="threeinferior" unicode="&#x2083;" horiz-adv-x="187" d="M75 -4 C126 -4 168 22 168 90 C168 135 143 162 111 165 L111 167 C130 173 157 196 157 243 C157 288 129 313 85 313 C62 313 39 307 21 294 L21 251 C41 266 59 270 74 270 C94 270 107 259 107 232 C107 199 81 175 55 171 L55 142 C95 140 117 124 117 87 C117 55 102 38 77 38 C57 38 39 40 18 50 L18 6 C32 0 48 -4 75 -4 L75 -4 Z " />
<glyph glyph-name="fourinferior" unicode="&#x2084;" horiz-adv-x="200" d="M106 0 L156 0 L156 76 L185 76 L185 116 L156 116 L156 312 L105 312 L9 116 L9 76 L106 76 L106 0 Z M50 116 L104 233 L106 233 L106 116 L50 116 Z " />
<glyph glyph-name="fiveinferior" unicode="&#x2085;" horiz-adv-x="186" d="M78 -4 C121 -4 167 26 167 96 C167 165 132 188 77 188 L70 188 L74 266 L161 266 L161 308 L37 308 L27 145 C38 147 47 148 56 148 C98 148 118 138 118 93 C118 56 100 38 75 38 C56 38 38 42 19 51 L19 7 C34 1 52 -4 78 -4 L78 -4 Z " />
<glyph glyph-name="sixinferior" unicode="&#x2086;" horiz-adv-x="211" d="M105 -4 C164 -4 194 43 194 104 C194 167 166 195 121 195 C99 195 83 189 71 181 C76 243 94 271 131 271 C144 271 157 270 177 259 L177 304 C160 310 144 313 129 313 C58 313 20 240 20 132 C20 48 45 -4 105 -4 L105 -4 Z M109 156 C135 156 144 137 144 100 C144 57 134 37 107 37 C78 37 69 71 69 132 L69 145 C79 151 91 156 109 156 L109 156 Z " />
<glyph glyph-name="seveninferior" unicode="&#x2087;" horiz-adv-x="169" d="M68 0 L165 282 L165 308 L11 308 L11 266 L114 266 L21 3 L22 0 L68 0 Z " />
<glyph glyph-name="eightinferior" unicode="&#x2088;" horiz-adv-x="212" d="M191 84 C191 124 170 144 146 158 C169 176 187 201 187 236 C187 284 155 313 105 313 C56 313 27 275 27 229 C27 193 42 172 62 157 C40 141 19 112 19 79 C19 27 49 -4 102 -4 C155 -4 191 34 191 84 L191 84 Z M66 84 C66 111 74 128 86 142 C115 126 143 113 143 81 C143 42 125 35 105 35 C83 35 66 48 66 84 L66 84 Z M139 230 C139 208 131 189 117 173 C93 186 72 200 72 232 C72 262 84 272 104 272 C131 272 139 256 139 230 L139 230 Z " />
<glyph glyph-name="nineinferior" unicode="&#x2089;" horiz-adv-x="210" d="M33 5 C50 -2 66 -4 81 -4 C152 -4 190 67 190 177 C190 256 166 313 105 313 C46 313 17 267 17 205 C17 143 44 114 89 114 C111 114 126 120 139 128 C133 67 115 38 79 38 C66 38 53 39 33 50 L33 5 Z M101 153 C75 153 65 171 65 209 C65 255 77 273 103 273 C132 273 141 238 141 177 L141 164 C131 158 118 153 101 153 L101 153 Z " />
<glyph glyph-name="plus.inferior" unicode="&#x208a;" horiz-adv-x="244" d="M15 130 L99 130 L99 39 L145 39 L145 130 L229 130 L229 178 L145 178 L145 269 L99 269 L99 178 L15 178 L15 130 Z " />
<glyph glyph-name="minus.inferior" unicode="&#x208b;" horiz-adv-x="268" d="M29 133 L239 133 L239 180 L29 180 L29 133 Z " />
<glyph glyph-name="equal.inferior" unicode="&#x208c;" horiz-adv-x="258" d="M29 67 L229 67 L229 117 L29 117 L29 67 Z M29 199 L229 199 L229 248 L29 248 L29 199 Z " />
<glyph glyph-name="parenleft.inferior" unicode="&#x208d;" horiz-adv-x="146" d="M150 -94 C131 -70 65 31 65 180 C65 326 129 419 148 442 L99 442 C80 421 14 331 14 179 C14 29 66 -54 98 -94 L150 -94 Z " />
<glyph glyph-name="parenright.inferior" unicode="&#x208e;" horiz-adv-x="146" d="M49 -94 C79 -56 132 25 132 175 C132 328 68 419 48 442 L-3 442 C16 419 81 322 81 174 C81 27 16 -70 -3 -94 L49 -94 Z " />
<glyph glyph-name="a.inferior" unicode="&#x2090;" horiz-adv-x="242" d="M163 0 L216 0 L207 67 L207 221 C207 291 171 314 122 314 C93 314 56 309 30 297 L30 247 C49 255 84 263 108 263 C135 263 154 250 154 208 L154 172 L128 172 C57 172 17 141 17 79 C17 28 41 -5 85 -5 C119 -5 144 13 158 32 L163 0 Z M98 41 C78 41 70 55 70 84 C70 118 86 130 122 130 L154 130 L154 73 C137 56 116 41 98 41 L98 41 Z " />
<glyph glyph-name="e.inferior" unicode="&#x2091;" horiz-adv-x="249" d="M223 14 L223 61 C197 49 170 44 145 44 C101 44 77 68 74 139 L228 139 L228 166 C228 256 199 314 128 314 C60 314 20 249 20 149 C20 43 60 -5 136 -5 C173 -5 201 1 223 14 L223 14 Z M126 266 C159 266 171 229 172 180 L75 180 C79 244 100 266 126 266 L126 266 Z " />
<glyph glyph-name="o.inferior" unicode="&#x2092;" horiz-adv-x="258" d="M128 -5 C198 -5 238 62 238 155 C238 268 203 314 131 314 C64 314 20 245 20 152 C20 38 61 -5 128 -5 L128 -5 Z M131 43 C86 43 75 80 75 154 C75 221 85 265 130 265 C178 265 184 221 184 154 C184 86 174 43 131 43 L131 43 Z " />
<glyph glyph-name="x.inferior" unicode="&#x2093;" horiz-adv-x="245" d="M71 308 L12 308 L89 154 L5 0 L64 0 L121 121 L122 121 L175 0 L236 0 L158 160 L235 308 L179 308 L127 192 L126 192 L71 308 Z " />
<glyph glyph-name="h.inferior" unicode="&#x2095;" horiz-adv-x="270" d="M184 0 L237 0 L237 203 C237 281 215 314 167 314 C137 314 108 299 88 281 L88 475 L35 475 L35 0 L88 0 L88 232 C106 249 130 263 147 263 C178 263 184 242 184 189 L184 0 Z " />
<glyph glyph-name="k.inferior" unicode="&#x2096;" horiz-adv-x="243" d="M172 0 L233 0 L153 173 L236 308 L176 308 L100 176 L100 163 L172 0 Z M35 0 L88 0 L88 475 L35 475 L35 0 Z " />
<glyph glyph-name="l.inferior" unicode="&#x2097;" horiz-adv-x="131" d="M39 0 L92 0 L92 475 L39 475 L39 0 Z " />
<glyph glyph-name="m.inferior" unicode="&#x2098;" horiz-adv-x="410" d="M324 0 L377 0 L377 204 C377 282 355 314 307 314 C274 314 244 295 223 273 C212 301 192 314 164 314 C133 314 106 297 85 277 L81 308 L27 308 L37 236 L37 0 L90 0 L90 233 C107 249 126 263 142 263 C175 263 182 244 182 189 L182 0 L234 0 L234 203 C234 214 233 224 232 233 C249 249 268 263 285 263 C317 263 324 244 324 189 L324 0 Z " />
<glyph glyph-name="n.inferior" unicode="&#x2099;" horiz-adv-x="273" d="M37 0 L90 0 L90 232 C109 249 132 263 149 263 C181 263 187 242 187 189 L187 0 L240 0 L240 203 C240 281 219 314 172 314 C136 314 106 295 85 275 L81 308 L27 308 L37 236 L37 0 Z " />
<glyph glyph-name="p.inferior" unicode="&#x209a;" horiz-adv-x="263" d="M37 -142 L90 -142 L90 -1 C101 -3 115 -5 129 -5 C196 -5 243 50 243 168 C243 258 214 314 159 314 C129 314 105 301 84 282 L81 308 L27 308 L37 236 L37 -142 Z M90 241 C106 255 123 264 140 264 C176 264 188 232 188 160 C188 90 178 43 129 43 C118 43 102 45 90 48 L90 241 Z " />
<glyph glyph-name="s.inferior" unicode="&#x209b;" horiz-adv-x="213" d="M98 -5 C150 -5 194 22 194 90 C194 153 152 169 115 181 C89 189 70 197 70 227 C70 253 89 265 113 265 C137 265 154 262 185 247 L185 299 C166 310 137 314 115 314 C65 314 20 281 20 222 C20 166 57 150 91 137 C121 127 145 117 145 88 C145 56 127 43 102 43 C77 43 55 49 23 62 L23 10 C44 1 67 -5 98 -5 L98 -5 Z " />
<glyph glyph-name="t.inferior" unicode="&#x209c;" horiz-adv-x="192" d="M12 259 L47 259 L47 87 C47 18 80 -5 120 -5 C141 -5 161 -2 175 6 L175 52 C164 48 149 44 137 44 C114 44 100 58 100 100 L100 259 L168 259 L168 308 L100 308 L100 389 L47 389 L47 308 L12 308 L12 259 Z " />
<glyph glyph-name="colonsign" unicode="&#x20a1;" horiz-adv-x="439" d="M171 -88 L218 -88 L239 -9 C291 -9 337 5 357 20 L357 84 C324 64 293 57 257 57 L422 671 L375 671 L349 575 C338 579 325 583 309 586 L332 671 L285 671 L263 591 L246 591 C100 591 31 458 31 286 C31 169 57 81 113 33 L81 -88 L128 -88 L153 7 C166 2 179 -1 193 -4 L171 -88 Z M108 296 C108 445 159 524 246 526 L138 126 C118 165 108 221 108 296 L108 296 Z M173 82 L292 523 C306 521 319 518 332 512 L211 63 C197 67 184 73 173 82 L173 82 Z " />
<glyph glyph-name="cruzeiro" unicode="&#x20a2;" horiz-adv-x="427" d="M255 -7 C308 -7 356 6 377 20 L377 84 C343 64 305 58 267 58 L262 58 L262 212 C286 246 316 279 356 279 C365 279 374 277 383 274 L383 341 C372 345 363 346 352 346 C316 346 282 312 258 278 L250 338 L187 338 L200 236 L200 71 C141 99 111 171 111 296 C111 443 162 528 258 528 C298 528 338 521 377 498 L377 567 C354 578 320 591 258 591 C107 591 38 458 38 286 C38 107 106 -7 255 -7 L255 -7 Z " />
<glyph glyph-name="franc" unicode="&#x20a3;" horiz-adv-x="497" d="M60 0 L132 0 L132 273 L272 273 L278 230 L278 0 L347 0 L347 205 C371 239 402 271 443 271 C452 271 461 269 470 266 L470 338 C459 342 450 343 439 343 C403 343 368 305 343 271 L334 335 L132 335 L132 520 L346 520 L346 583 L60 583 L60 0 Z " />
<glyph glyph-name="lira" unicode="&#x20a4;" horiz-adv-x="364" d="M278 361 L145 361 C143 383 141 403 141 421 C141 487 172 526 219 526 C256 526 282 517 313 494 L313 567 C288 582 255 591 214 591 C145 591 74 540 74 420 C74 401 75 381 77 361 L42 361 L42 302 L84 302 L94 236 L42 236 L42 177 L100 177 L100 165 C100 130 92 97 79 61 L40 61 L40 0 L332 0 L332 61 L147 61 C158 98 166 139 166 177 L278 177 L278 236 L162 236 C160 257 156 280 153 302 L278 302 L278 361 Z " />
<glyph glyph-name="mill" unicode="&#x20a5;" horiz-adv-x="578" d="M469 0 L537 0 L537 319 C537 423 501 459 434 459 C412 459 392 453 373 445 L405 574 L348 574 L309 415 C293 446 264 459 225 459 C178 459 139 434 110 406 L103 450 L35 450 L50 345 L50 0 L118 0 L118 353 C143 377 171 396 199 396 C249 396 259 369 259 298 L259 208 L179 -120 L236 -120 L265 0 L327 0 L327 254 L357 377 C374 389 392 396 409 396 C459 396 469 369 469 298 L469 0 Z " />
<glyph glyph-name="naira" unicode="&#x20a6;" horiz-adv-x="524" d="M81 0 L153 0 L152 223 L257 223 L374 0 L440 0 L440 223 L491 223 L491 277 L440 277 L440 313 L491 313 L491 366 L440 366 L440 583 L369 583 L370 366 L263 366 L147 583 L81 583 L81 366 L35 366 L35 313 L81 313 L81 277 L35 277 L35 223 L81 223 L81 0 Z M292 313 L370 313 L370 277 L311 277 L292 313 Z M151 313 L209 313 L228 277 L151 277 L151 313 Z M153 420 L181 366 L151 366 L151 420 L153 420 Z M371 170 L369 170 L340 223 L371 223 L371 170 Z " />
<glyph glyph-name="pesetas" unicode="&#x20a7;" horiz-adv-x="914" d="M60 0 L133 0 L133 211 L177 211 C302 211 355 290 355 401 C355 531 299 583 203 583 L60 583 L60 0 Z M374 389 L429 389 L429 107 C429 24 474 -7 530 -7 C560 -7 589 -3 609 9 L609 65 C592 59 572 54 553 54 C518 54 498 72 497 121 L497 389 L603 389 L603 450 L497 450 L497 570 L429 570 L429 450 L374 450 L374 389 Z M737 -7 C811 -7 879 32 879 131 C879 215 822 241 767 261 C723 277 694 292 694 334 C694 374 723 398 764 398 C797 398 824 393 866 374 L866 440 C839 454 798 460 766 460 C689 460 629 412 629 329 C629 253 683 223 734 205 C780 189 816 172 816 128 C816 75 784 56 744 56 C709 56 675 63 632 81 L632 14 C662 1 697 -7 737 -7 L737 -7 Z M183 520 C248 520 281 483 281 399 C281 293 233 274 171 272 L133 272 L133 520 L183 520 Z " />
<glyph glyph-name="rupee" unicode="&#x20a8;" horiz-adv-x="647" d="M463 51 C410 51 356 79 308 179 C304 186 285 220 272 245 C323 275 352 331 352 405 C352 529 297 583 200 583 L60 583 L60 0 L133 0 L133 221 L174 221 C186 221 198 221 209 223 C225 193 251 149 253 143 C303 38 355 -6 461 -6 C539 -6 614 30 614 132 C614 216 557 238 502 261 C460 279 429 297 429 335 C429 374 455 400 496 400 C529 400 557 394 599 375 L599 439 C570 455 528 461 496 461 C419 461 364 410 364 330 C364 254 418 229 469 208 C514 190 551 169 551 129 C551 72 513 51 463 51 L463 51 Z M180 520 C245 520 277 489 277 403 C277 297 230 283 168 283 L133 283 L133 520 L180 520 Z " />
<glyph glyph-name="won" unicode="&#x20a9;" horiz-adv-x="691" d="M651 583 L578 583 L535 383 L424 383 L386 583 L305 583 L261 383 L155 383 L121 583 L44 583 L84 383 L37 383 L37 328 L95 328 L107 266 L37 266 L37 211 L118 211 L160 0 L238 0 L284 211 L393 211 L434 0 L511 0 L561 211 L653 211 L653 266 L574 266 L589 328 L653 328 L653 383 L603 383 L651 583 Z M435 328 L523 328 L510 266 L447 266 L447 267 L435 328 Z M310 328 L371 328 L383 266 L296 266 L310 328 Z M164 328 L249 328 L236 266 L175 266 L164 328 Z M201 110 L184 211 L225 211 L205 110 L201 110 Z M475 116 L457 211 L499 211 L479 116 L475 116 Z M340 466 L345 466 L360 383 L322 383 L340 466 Z " />
<glyph glyph-name="sheqel" unicode="&#x20aa;" horiz-adv-x="531" d="M60 0 L118 0 L118 508 L209 508 C281 508 294 470 294 391 L294 247 L351 247 L351 384 C351 529 328 583 186 583 L60 583 L60 0 Z M180 0 L292 0 C454 0 474 63 474 226 L474 583 L417 583 L417 220 C417 114 398 76 311 76 L239 76 L239 337 L180 337 L180 0 Z " />
<glyph glyph-name="dong" unicode="&#x20ab;" horiz-adv-x="392" d="M152 555 L256 555 L256 488 C237 493 211 496 191 496 C106 496 36 439 36 287 C36 152 97 107 158 107 C198 107 234 126 261 157 L267 114 L330 114 L318 201 L318 555 L355 555 L355 609 L318 609 L318 684 L256 684 L256 609 L152 609 L152 555 Z M174 165 C126 165 101 200 101 297 C101 413 138 441 195 441 C216 441 237 436 256 429 L256 206 C226 180 204 165 174 165 L174 165 Z M43 0 L341 0 L341 60 L43 60 L43 0 Z " />
<glyph glyph-name="Euro" unicode="&#x20ac;" horiz-adv-x="413" d="M32 324 L77 324 C76 311 76 298 76 285 C76 272 76 260 77 249 L32 249 L32 194 L81 194 C99 61 158 -7 265 -7 C311 -7 352 2 375 16 L375 82 C341 62 314 59 280 59 C217 59 176 102 160 194 L303 194 L303 249 L154 249 C153 263 153 279 153 295 C153 305 153 314 154 324 L303 324 L303 379 L159 379 C175 475 219 526 275 526 C306 526 333 523 371 504 L371 573 C347 584 323 590 274 590 C172 590 104 511 83 379 L32 379 L32 324 Z " />
<glyph glyph-name="uni20AD" unicode="&#x20ad;" horiz-adv-x="430" d="M71 0 L144 0 L144 277 L165 277 L311 0 L394 0 L243 277 L380 277 L380 335 L242 335 L399 583 L320 583 L172 335 L144 335 L144 583 L71 583 L71 335 L34 335 L34 277 L71 277 L71 0 Z " />
<glyph glyph-name="uni20AE" unicode="&#x20ae;" horiz-adv-x="408" d="M25 520 L168 520 L168 327 L88 283 L88 222 L168 266 L168 202 L88 158 L88 97 L168 141 L168 0 L242 0 L242 182 L327 229 L327 289 L242 242 L242 307 L327 354 L327 414 L242 367 L242 520 L385 520 L385 583 L25 583 L25 520 Z " />
<glyph glyph-name="uni20B1" unicode="&#x20b1;" horiz-adv-x="455" d="M79 0 L152 0 L152 211 L196 211 C288 211 341 254 363 322 L424 322 L424 371 L372 371 C373 380 374 391 374 401 C374 410 373 418 373 427 L424 427 L424 476 L366 476 C347 551 297 583 222 583 L79 583 L79 476 L37 476 L37 427 L79 427 L79 371 L37 371 L37 322 L79 322 L79 0 Z M300 399 C300 389 299 379 298 371 L152 371 L152 427 L298 427 C299 418 300 409 300 399 L300 399 Z M190 272 L152 272 L152 322 L286 322 C268 282 232 273 190 272 L190 272 Z M202 520 C242 520 269 506 285 476 L152 476 L152 520 L202 520 Z " />
<glyph glyph-name="uni20B4" unicode="&#x20b4;" horiz-adv-x="407" d="M371 380 L328 380 C337 399 343 421 343 447 C343 533 289 591 199 591 C151 591 112 582 83 568 L83 495 C115 515 154 525 193 525 C241 525 272 493 272 447 C272 420 266 398 254 380 L34 380 L34 323 L185 323 C161 310 137 295 117 275 L34 275 L34 218 L80 218 C72 198 68 175 68 147 C68 36 131 -7 220 -7 C260 -7 299 1 338 17 L338 91 C305 73 262 61 221 61 C170 61 136 87 136 151 C136 178 141 199 152 218 L371 218 L371 275 L212 275 L227 284 C246 295 266 307 284 323 L371 323 L371 380 Z " />
<glyph glyph-name="uni20B9" unicode="&#x20b9;" horiz-adv-x="382" d="M352 422 L295 422 C291 467 274 499 249 520 L336 520 L352 583 L44 583 L44 520 L120 520 C180 518 213 486 220 422 L44 422 L44 361 L220 361 C211 288 168 266 99 266 L43 266 L43 203 L118 203 C126 203 134 203 142 204 L240 0 L324 0 L208 224 C256 250 287 299 295 361 L336 361 L352 422 Z " />
<glyph glyph-name="uni2113" unicode="&#x2113;" horiz-adv-x="299" d="M14 188 L39 149 C47 154 59 163 73 175 L73 146 C73 37 98 -7 161 -7 C204 -7 230 3 261 23 L243 69 C222 55 202 47 181 47 C148 47 137 75 137 163 L137 230 L168 258 C245 341 283 403 283 478 C283 569 240 591 185 591 C110 591 73 517 73 408 L73 239 C48 216 24 195 14 188 L14 188 Z M137 425 C137 502 153 538 182 538 C212 538 223 513 223 471 C223 421 195 359 137 298 L137 425 Z " />
<glyph glyph-name="uni2116" unicode="&#x2116;" horiz-adv-x="717" d="M477 171 L674 171 L674 222 L477 222 L477 171 Z M574 266 C642 266 678 334 678 427 C678 545 644 585 577 585 C514 585 472 529 472 423 C472 310 509 266 574 266 L574 266 Z M576 314 C532 314 525 354 525 425 C525 489 531 536 575 536 C623 536 626 489 626 424 C626 360 619 314 576 314 L576 314 Z M60 0 L132 0 L130 420 L132 420 L353 0 L419 0 L419 583 L348 583 L350 170 L348 170 L126 583 L60 583 L60 0 Z " />
<glyph glyph-name="uni2117" unicode="&#x2117;" horiz-adv-x="516" d="M258 -7 C391 -7 479 110 479 289 C479 468 392 591 258 591 C126 591 37 468 37 289 C37 110 124 -7 258 -7 L258 -7 Z M258 21 C144 21 65 123 65 289 C65 451 143 563 258 563 C372 563 451 457 451 289 C451 124 374 21 258 21 L258 21 Z M180 97 L229 97 L229 223 L257 223 C339 223 377 273 377 349 C377 429 338 466 275 466 L180 466 L180 97 Z M260 421 C303 420 326 399 326 348 C326 283 294 269 253 269 L229 269 L229 421 L260 421 Z " />
<glyph glyph-name="servicemark" unicode="&#x2120;" horiz-adv-x="500" d="M202 298 L244 298 L258 496 L260 496 L303 298 L349 298 L394 495 L396 495 L410 298 L455 298 L433 583 L377 583 L330 380 L328 380 L283 583 L225 583 L202 298 Z M49 306 C69 297 87 293 108 293 C152 293 183 316 183 376 C183 428 146 446 119 464 C98 476 90 489 90 510 C90 536 104 548 124 548 C142 548 159 544 175 534 L175 577 C161 584 144 588 121 588 C80 588 48 559 48 507 C48 464 77 442 101 427 C125 412 142 400 142 372 C142 342 130 333 107 333 C85 333 64 340 49 349 L49 306 Z " />
<glyph glyph-name="trademark" unicode="&#x2122;" horiz-adv-x="530" d="M233 298 L275 298 L289 496 L291 496 L334 298 L380 298 L425 495 L427 495 L441 298 L485 298 L464 583 L407 583 L361 380 L358 380 L314 583 L255 583 L233 298 Z M49 544 L113 544 L113 298 L157 298 L157 544 L221 544 L221 583 L49 583 L49 544 Z " />
<glyph glyph-name="Omega" unicode="&#x2126;" horiz-adv-x="509" d="M252 591 C109 591 43 449 43 307 C43 194 87 109 138 66 L138 64 L43 64 L43 0 L211 0 L211 60 C155 116 120 189 120 300 C120 447 171 527 253 527 C335 527 389 447 389 300 C389 189 354 117 298 60 L298 0 L466 0 L466 64 L371 64 L371 66 C424 114 466 203 466 316 C466 459 396 591 252 591 L252 591 Z " />
<glyph glyph-name="estimated" unicode="&#x212e;" horiz-adv-x="428" d="M223 -8 C287 -8 344 17 382 88 L355 112 C322 55 282 33 226 33 C158 33 119 96 119 181 L119 214 L393 214 L393 267 C393 382 329 465 223 465 C106 465 36 357 36 217 C36 67 114 -8 223 -8 L223 -8 Z M119 252 L119 270 C119 367 156 431 223 431 C287 431 310 357 310 285 L310 252 L119 252 Z " />
<glyph glyph-name="onethird" unicode="&#x2153;" horiz-adv-x="459" d="M131 262 L131 574 L97 574 L24 548 L24 507 L80 521 L80 262 L131 262 Z M336 -4 C387 -4 429 22 429 90 C429 135 404 162 372 165 L372 167 C391 173 418 196 418 243 C418 288 390 313 346 313 C323 313 300 307 282 294 L282 251 C302 266 320 270 335 270 C355 270 368 259 368 232 C368 199 342 175 316 171 L316 142 C356 140 378 124 378 87 C378 55 363 38 338 38 C318 38 300 40 279 50 L279 6 C293 0 309 -4 336 -4 L336 -4 Z M125 0 L371 556 L371 561 L331 561 L84 5 L84 0 L125 0 Z " />
<glyph glyph-name="twothirds" unicode="&#x2154;" horiz-adv-x="469" d="M139 485 C139 423 89 366 33 302 L33 265 L196 265 L196 310 L93 310 L93 312 C146 365 191 427 191 490 C191 552 155 578 110 578 C85 578 58 572 39 559 L40 515 C63 532 82 535 99 535 C121 535 139 520 139 485 L139 485 Z M346 -4 C397 -4 439 22 439 90 C439 135 414 162 382 165 L382 167 C401 173 428 196 428 243 C428 288 400 313 356 313 C333 313 310 307 292 294 L292 251 C312 266 330 270 345 270 C365 270 378 259 378 232 C378 199 352 175 326 171 L326 142 C366 140 388 124 388 87 C388 55 373 38 348 38 C328 38 310 40 289 50 L289 6 C303 0 319 -4 346 -4 L346 -4 Z M142 0 L388 556 L388 561 L348 561 L101 5 L101 0 L142 0 Z " />
<glyph glyph-name="uni215B" unicode="&#x215b;" horiz-adv-x="476" d="M445 84 C445 124 424 144 400 158 C423 176 441 201 441 236 C441 284 409 313 359 313 C310 313 281 275 281 229 C281 193 296 172 316 157 C293 141 273 111 273 79 C273 27 303 -4 356 -4 C409 -4 445 34 445 84 L445 84 Z M119 0 L365 556 L365 561 L325 561 L78 5 L78 0 L119 0 Z M131 260 L131 572 L97 572 L24 546 L24 505 L80 519 L80 260 L131 260 Z M320 84 C320 111 328 128 340 142 C369 126 397 113 397 81 C397 42 379 35 359 35 C337 35 320 48 320 84 L320 84 Z M393 230 C393 208 385 189 371 173 C347 186 326 200 326 232 C326 262 338 272 358 272 C385 272 393 256 393 230 L393 230 Z " />
<glyph glyph-name="arrowleft" unicode="&#x2190;" horiz-adv-x="540" d="M255 91 L146 231 L540 231 L540 298 L147 298 L255 439 L171 439 L38 264 L172 91 L255 91 Z " />
<glyph glyph-name="arrowup" unicode="&#x2191;" horiz-adv-x="448" d="M398 432 L225 566 L50 433 L50 349 L191 457 L191 64 L258 64 L258 458 L398 349 L398 432 Z " />
<glyph glyph-name="arrowright" unicode="&#x2192;" horiz-adv-x="538" d="M368 91 L502 264 L369 439 L285 439 L393 298 L0 298 L0 231 L394 231 L285 91 L368 91 Z " />
<glyph glyph-name="arrowdown" unicode="&#x2193;" horiz-adv-x="448" d="M50 197 L225 64 L398 198 L398 281 L258 172 L258 566 L191 566 L191 173 L50 281 L50 197 Z " />
<glyph glyph-name="uni2196" unicode="&#x2196;" horiz-adv-x="448" d="M264 521 L47 493 L18 275 L77 216 L100 392 L378 114 L426 162 L147 440 L323 462 L264 521 Z " />
<glyph glyph-name="uni2197" unicode="&#x2197;" horiz-adv-x="448" d="M426 275 L397 493 L180 521 L121 462 L297 440 L18 162 L66 114 L344 392 L367 216 L426 275 Z " />
<glyph glyph-name="uni2198" unicode="&#x2198;" horiz-adv-x="448" d="M184 109 L402 138 L430 355 L371 414 L349 238 L71 517 L23 469 L301 191 L125 168 L184 109 Z " />
<glyph glyph-name="uni2199" unicode="&#x2199;" horiz-adv-x="448" d="M23 355 L51 138 L269 109 L328 168 L152 191 L430 469 L382 517 L104 238 L82 414 L23 355 Z " />
<glyph glyph-name="partialdiff" unicode="&#x2202;" horiz-adv-x="373" d="M181 461 C99 461 28 373 28 222 C28 62 85 -8 181 -8 C283 -8 336 100 336 233 C336 411 311 573 147 673 L108 632 C192 571 221 539 247 446 C230 457 208 461 181 461 L181 461 Z M265 225 C265 125 247 54 183 54 C120 54 99 107 99 226 C99 326 120 400 184 400 C212 400 232 397 258 382 C262 342 265 273 265 225 L265 225 Z " />
<glyph glyph-name="Delta" unicode="&#x2206;" horiz-adv-x="412" d="M390 0 L390 56 L250 583 L175 583 L21 55 L22 0 L390 0 Z M205 479 L210 479 L310 64 L94 64 L205 479 Z " />
<glyph glyph-name="product" unicode="&#x220f;" horiz-adv-x="516" d="M157 -207 L157 519 L357 519 L357 -207 L429 -207 L429 519 L496 519 L496 583 L21 583 L21 519 L85 519 L85 -207 L157 -207 Z " />
<glyph glyph-name="summation" unicode="&#x2211;" horiz-adv-x="361" d="M29 -207 L335 -207 L335 -141 L108 -141 L240 216 L115 519 L319 519 L319 583 L31 583 L31 525 L161 213 L29 -149 L29 -207 Z " />
<glyph glyph-name="minus" unicode="&#x2212;" horiz-adv-x="384" d="M49 266 L335 266 L335 326 L49 326 L49 266 Z " />
<glyph glyph-name="radical" unicode="&#x221a;" horiz-adv-x="399" d="M135 0 L207 0 L389 653 L315 653 L178 104 L173 104 L95 450 L20 450 L135 0 Z " />
<glyph glyph-name="infinity" unicode="&#x221e;" horiz-adv-x="626" d="M161 506 C84 506 39 404 39 294 C39 176 80 82 161 82 C230 82 279 159 314 243 C348 162 397 82 465 82 C546 82 587 182 587 294 C587 403 542 506 465 506 C398 506 349 430 314 347 C279 429 231 506 161 506 L161 506 Z M164 139 C122 139 96 197 96 294 C96 389 122 449 164 449 C212 449 256 358 285 295 C257 231 215 139 164 139 L164 139 Z M463 139 C412 139 371 232 342 295 C371 357 412 449 463 449 C505 449 531 389 531 294 C531 197 505 139 463 139 L463 139 Z " />
<glyph glyph-name="integral" unicode="&#x222b;" horiz-adv-x="311" d="M124 -30 C124 -115 106 -152 65 -152 C46 -152 34 -150 15 -146 L15 -207 C28 -211 47 -213 65 -213 C145 -213 188 -156 188 -43 L188 473 C188 561 205 598 247 598 C265 598 277 596 296 592 L296 655 C283 658 270 661 251 661 C172 661 124 604 124 491 L124 -30 Z " />
<glyph glyph-name="approxequal" unicode="&#x2248;" horiz-adv-x="402" d="M266 333 C306 333 335 363 353 394 L319 428 C304 405 290 392 267 392 C219 392 194 430 136 430 C99 430 64 401 49 377 L78 339 C92 354 108 370 137 370 C180 370 216 333 266 333 L266 333 Z M267 163 C307 163 336 193 354 224 L320 258 C305 235 291 222 268 222 C220 222 195 260 137 260 C100 260 65 231 50 207 L79 169 C93 184 109 200 138 200 C181 200 217 163 267 163 L267 163 Z " />
<glyph glyph-name="notequal" unicode="&#x2260;" horiz-adv-x="369" d="M46 356 L190 356 L139 237 L46 237 L46 178 L114 178 L47 22 L99 22 L166 178 L326 178 L326 237 L191 237 L243 356 L326 356 L326 415 L268 415 L333 565 L280 565 L216 415 L46 415 L46 356 Z " />
<glyph glyph-name="lessequal" unicode="&#x2264;" horiz-adv-x="379" d="M42 30 L338 30 L338 91 L42 91 L42 30 Z M326 126 L326 196 L123 331 L123 335 L326 469 L326 538 L43 351 L43 312 L326 126 Z " />
<glyph glyph-name="greaterequal" unicode="&#x2265;" horiz-adv-x="380" d="M338 91 L41 91 L41 30 L338 30 L338 91 Z M337 312 L337 351 L54 538 L54 466 L256 335 L256 331 L54 196 L54 126 L337 312 Z " />
<glyph glyph-name="uni2460" unicode="&#x2460;" horiz-adv-x="691" d="M345 0 C506 0 637 130 637 291 C637 452 506 583 345 583 C184 583 54 452 54 291 C54 130 184 0 345 0 L345 0 Z M345 36 C206 36 94 152 94 291 C94 430 206 547 345 547 C484 547 597 430 597 291 C597 152 484 36 345 36 L345 36 Z M373 138 L373 449 L341 449 L245 420 L245 380 L316 391 L316 138 L373 138 Z " />
<glyph glyph-name="uni2461" unicode="&#x2461;" horiz-adv-x="691" d="M345 0 C506 0 637 130 637 291 C637 452 506 583 345 583 C184 583 54 452 54 291 C54 130 184 0 345 0 L345 0 Z M345 36 C206 36 94 152 94 291 C94 430 206 547 345 547 C484 547 597 430 597 291 C597 152 484 36 345 36 L345 36 Z M234 138 L455 138 L455 183 L313 183 L314 184 C392 246 444 303 444 362 C444 423 394 449 338 449 C305 449 267 440 244 421 L244 374 C277 402 306 405 332 405 C359 405 386 391 386 359 C386 300 314 240 234 172 L234 138 Z " />
<glyph glyph-name="uni2462" unicode="&#x2462;" horiz-adv-x="691" d="M345 0 C506 0 637 130 637 291 C637 452 506 583 345 583 C184 583 54 452 54 291 C54 130 184 0 345 0 L345 0 Z M345 36 C206 36 94 152 94 291 C94 430 206 547 345 547 C484 547 597 430 597 291 C597 152 484 36 345 36 L345 36 Z M330 134 C397 134 454 163 454 230 C454 272 421 298 384 302 L384 304 C400 309 439 332 439 378 C439 422 399 449 343 449 C314 449 282 440 258 420 L258 373 C286 399 315 405 337 405 C362 405 383 393 383 368 C383 337 343 312 307 309 L307 274 C365 272 398 258 398 222 C398 194 373 176 345 176 C315 176 286 179 255 195 L255 148 C271 140 290 134 330 134 L330 134 Z " />
<glyph glyph-name="uni2463" unicode="&#x2463;" horiz-adv-x="691" d="M345 0 C506 0 637 130 637 291 C637 452 506 583 345 583 C184 583 54 452 54 291 C54 130 184 0 345 0 L345 0 Z M345 36 C206 36 94 152 94 291 C94 430 206 547 345 547 C484 547 597 430 597 291 C597 152 484 36 345 36 L345 36 Z M336 138 L393 138 L393 218 L436 218 L436 259 L393 259 L393 449 L340 449 L202 260 L202 218 L336 218 L336 138 Z M256 259 L336 368 L336 259 L256 259 Z " />
<glyph glyph-name="uni2464" unicode="&#x2464;" horiz-adv-x="691" d="M345 0 C506 0 637 130 637 291 C637 452 506 583 345 583 C184 583 54 452 54 291 C54 130 184 0 345 0 L345 0 Z M345 36 C206 36 94 152 94 291 C94 430 206 547 345 547 C484 547 597 430 597 291 C597 152 484 36 345 36 L345 36 Z M327 134 C379 134 445 165 445 235 C445 300 399 331 318 331 L310 331 L317 402 L436 402 L436 444 L273 444 L259 287 C273 289 286 290 297 290 C363 290 390 270 390 231 C390 199 364 176 331 176 C304 176 276 182 247 196 L247 148 C265 141 291 134 327 134 L327 134 Z " />
<glyph glyph-name="uni2465" unicode="&#x2465;" horiz-adv-x="691" d="M345 0 C506 0 637 130 637 291 C637 452 506 583 345 583 C184 583 54 452 54 291 C54 130 184 0 345 0 L345 0 Z M345 36 C206 36 94 152 94 291 C94 430 206 547 345 547 C484 547 597 430 597 291 C597 152 484 36 345 36 L345 36 Z M362 405 C380 405 397 404 425 390 L425 438 C403 445 382 449 362 449 C270 449 218 366 218 268 C218 192 252 134 330 134 C405 134 447 188 447 246 C447 311 401 337 348 337 C315 337 295 328 280 319 C288 376 311 405 362 405 L362 405 Z M334 295 C373 295 388 273 388 238 C388 201 371 176 334 176 C290 176 277 211 277 268 L277 280 C291 288 309 295 334 295 L334 295 Z " />
<glyph glyph-name="uni2466" unicode="&#x2466;" horiz-adv-x="691" d="M345 0 C506 0 637 130 637 291 C637 452 506 583 345 583 C184 583 54 452 54 291 C54 130 184 0 345 0 L345 0 Z M345 36 C206 36 94 152 94 291 C94 430 206 547 345 547 C484 547 597 430 597 291 C597 152 484 36 345 36 L345 36 Z M313 138 L449 414 L449 444 L244 444 L244 402 L391 402 L259 140 L260 138 L313 138 Z " />
<glyph glyph-name="uni2467" unicode="&#x2467;" horiz-adv-x="691" d="M345 0 C506 0 637 130 637 291 C637 452 506 583 345 583 C184 583 54 452 54 291 C54 130 184 0 345 0 L345 0 Z M345 36 C206 36 94 152 94 291 C94 430 206 547 345 547 C484 547 597 430 597 291 C597 152 484 36 345 36 L345 36 Z M452 222 C452 258 429 278 401 293 C426 311 445 340 445 373 C445 423 399 449 339 449 C281 449 239 410 239 366 C239 334 255 313 277 298 C247 279 227 247 227 218 C227 167 264 134 335 134 C398 134 452 172 452 222 L452 222 Z M390 365 C390 347 382 326 364 309 C327 323 292 337 292 369 C292 396 310 405 337 405 C376 405 390 387 390 365 L390 365 Z M281 222 C281 247 288 262 305 281 C348 260 395 248 395 217 C395 185 368 176 341 176 C311 176 281 188 281 222 L281 222 Z " />
<glyph glyph-name="uni2468" unicode="&#x2468;" horiz-adv-x="691" d="M345 0 C506 0 637 130 637 291 C637 452 506 583 345 583 C184 583 54 452 54 291 C54 130 184 0 345 0 L345 0 Z M345 36 C206 36 94 152 94 291 C94 430 206 547 345 547 C484 547 597 430 597 291 C597 152 484 36 345 36 L345 36 Z M314 177 C295 177 278 178 249 193 L249 145 C272 137 293 134 313 134 C406 134 457 213 457 315 C457 391 423 449 345 449 C270 449 229 395 229 336 C229 272 274 245 327 245 C358 245 379 253 395 262 C387 206 362 177 314 177 L314 177 Z M341 287 C302 287 286 307 286 345 C286 388 305 407 341 407 C385 407 399 372 399 315 L399 301 C385 293 366 287 341 287 L341 287 Z " />
<glyph glyph-name="uni2469" unicode="&#x2469;" horiz-adv-x="691" d="M345 0 C506 0 637 130 637 291 C637 452 506 583 345 583 C184 583 54 452 54 291 C54 130 184 0 345 0 L345 0 Z M345 36 C206 36 94 152 94 291 C94 430 206 547 345 547 C484 547 597 430 597 291 C597 152 484 36 345 36 L345 36 Z M274 138 L274 449 L242 449 L146 420 L146 380 L217 391 L217 138 L274 138 Z M430 134 C509 134 550 194 550 294 C550 372 524 449 435 449 C355 449 317 383 317 285 C317 195 348 134 430 134 L430 134 Z M433 176 C382 176 375 233 375 287 C375 336 378 405 429 405 C483 405 490 335 490 291 C490 237 488 176 433 176 L433 176 Z " />
<glyph glyph-name="uni24CA" unicode="&#x24ca;" horiz-adv-x="516" d="M258 -8 C391 -8 479 110 479 289 C479 468 392 591 258 591 C126 591 37 468 37 289 C37 110 124 -8 258 -8 L258 -8 Z M262 100 C320 100 372 144 372 254 L372 441 L323 441 L323 258 C323 182 301 149 261 149 C221 149 198 175 198 251 L198 441 L150 441 L150 242 C150 137 201 100 262 100 L262 100 Z M258 20 C144 20 65 123 65 289 C65 451 143 563 258 563 C372 563 451 457 451 289 C451 124 374 20 258 20 L258 20 Z " />
<glyph glyph-name="uni25B2" unicode="&#x25b2;" horiz-adv-x="590" d="M563 21 L295 449 L27 21 L563 21 Z " />
<glyph glyph-name="uni25B6" unicode="&#x25b6;" horiz-adv-x="538" d="M84 -33 L512 235 L84 503 L84 -33 Z " />
<glyph glyph-name="uni25B8" unicode="&#x25b8;" horiz-adv-x="378" d="M352 218 L85 486 L85 -50 L352 218 Z " />
<glyph glyph-name="uni25BA" unicode="&#x25ba;" horiz-adv-x="838" d="M806 218 L84 486 L84 -50 L806 218 Z " />
<glyph glyph-name="uni25BC" unicode="&#x25bc;" horiz-adv-x="610" d="M37 448 L305 20 L573 448 L37 448 Z " />
<glyph glyph-name="uni25C0" unicode="&#x25c0;" horiz-adv-x="538" d="M454 -33 L454 503 L26 235 L454 -33 Z " />
<glyph glyph-name="uni25C2" unicode="&#x25c2;" horiz-adv-x="379" d="M294 -50 L294 486 L27 219 L294 -50 Z " />
<glyph glyph-name="uni25C4" unicode="&#x25c4;" horiz-adv-x="838" d="M754 -50 L754 486 L32 218 L754 -50 Z " />
<glyph glyph-name="lozenge" unicode="&#x25ca;" horiz-adv-x="364" d="M152 0 L213 0 L344 286 L213 583 L153 583 L19 286 L152 0 Z M183 69 L88 288 L181 512 L277 285 L183 69 Z " />
<glyph glyph-name="uni2610" unicode="&#x2610;" horiz-adv-x="753" d="M85 0 L668 0 L668 583 L85 583 L85 0 Z M137 52 L137 531 L616 531 L616 52 L137 52 Z " />
<glyph glyph-name="uni2611" unicode="&#x2611;" horiz-adv-x="753" d="M85 0 L668 0 L668 583 L85 583 L85 0 Z M137 52 L137 531 L616 531 L616 52 L137 52 Z M252 78 L273 78 C402 214 509 372 589 490 L581 499 C550 496 508 475 495 456 C440 373 334 213 283 154 C255 207 248 280 247 318 L225 325 C211 321 186 296 176 283 C172 258 213 108 252 78 L252 78 Z " />
<glyph glyph-name="uni261A" unicode="&#x261a;" horiz-adv-x="973" d="M44 453 C27 391 81 386 81 386 L287 400 L342 365 C342 365 266 272 262 246 C262 246 278 200 315 186 C315 186 325 129 367 126 C367 126 376 88 422 74 L498 101 C498 101 574 88 718 140 L907 126 L907 365 L730 401 C730 401 680 443 617 459 L315 509 L44 453 Z " />
<glyph glyph-name="uni261B" unicode="&#x261b;" horiz-adv-x="973" d="M658 509 L356 459 C293 443 243 401 243 401 L66 365 L66 126 L255 140 C399 88 475 101 475 101 L551 74 C597 88 606 126 606 126 C648 129 658 186 658 186 C695 200 711 246 711 246 C707 272 631 365 631 365 L686 400 L892 386 C892 386 946 391 929 453 L658 509 Z " />
<glyph glyph-name="uni261C" unicode="&#x261c;" horiz-adv-x="973" d="M44 453 C27 391 81 386 81 386 L287 400 L342 365 C342 365 266 272 262 246 C262 246 278 200 315 186 C315 186 325 129 367 126 C367 126 376 88 422 74 L498 101 C498 101 574 88 718 140 L907 126 L907 365 L730 401 C730 401 680 443 617 459 L315 509 L44 453 Z M668 186 C596 157 493 154 493 154 L424 127 C400 129 396 157 396 157 L447 196 L511 215 L492 255 L428 231 L374 184 C360 186 356 208 356 208 L423 269 L473 291 L456 326 L404 300 L339 232 C328 231 317 249 317 249 L370 318 L422 369 L311 426 L125 418 C125 418 105 428 115 442 L314 467 L597 414 C642 398 690 360 690 360 L852 326 L852 178 L668 186 Z " />
<glyph glyph-name="uni261D" unicode="&#x261d;" horiz-adv-x="510" d="M45 473 L95 171 C111 108 153 58 153 58 L189 -119 L428 -119 L414 70 C466 214 453 290 453 290 L480 366 C466 412 428 421 428 421 C425 463 368 473 368 473 C354 510 308 526 308 526 C282 522 189 446 189 446 L154 501 L168 707 C168 707 163 761 101 744 L45 473 Z M376 -64 L228 -64 L194 98 C194 98 156 146 140 191 L87 474 L112 673 C126 683 136 663 136 663 L128 477 L185 366 L236 418 L305 471 C305 471 323 460 322 449 L254 384 L228 332 L263 315 L285 365 L346 432 C346 432 368 428 370 414 L323 360 L299 296 L339 277 L358 341 L397 392 C397 392 425 388 427 364 L400 295 C400 295 397 192 368 120 L376 -64 Z " />
<glyph glyph-name="uni261E" unicode="&#x261e;" horiz-adv-x="973" d="M658 509 L356 459 C293 443 243 401 243 401 L66 365 L66 126 L255 140 C399 88 475 101 475 101 L551 74 C597 88 606 126 606 126 C648 129 658 186 658 186 C695 200 711 246 711 246 C707 272 631 365 631 365 L686 400 L892 386 C892 386 946 391 929 453 L658 509 Z M121 178 L121 326 L283 360 C283 360 331 398 376 414 L659 467 L858 442 C868 428 848 418 848 418 L662 426 L551 369 L603 318 L656 249 C656 249 645 231 634 232 L569 300 L517 326 L500 291 L550 269 L617 208 C617 208 613 186 599 184 L545 231 L481 255 L462 215 L526 196 L577 157 C577 157 573 129 549 127 L480 154 C480 154 377 157 305 186 L121 178 Z " />
<glyph glyph-name="uni261F" unicode="&#x261f;" horiz-adv-x="509" d="M465 169 L415 471 C399 534 357 584 357 584 L321 761 L82 761 L96 572 C44 428 57 352 57 352 L30 276 C44 230 82 221 82 221 C85 179 142 169 142 169 C156 132 202 116 202 116 C228 120 321 196 321 196 L356 141 L342 -65 C342 -65 347 -119 409 -102 L465 169 Z M134 706 L282 706 L316 544 C316 544 354 496 370 451 L423 168 L398 -31 C384 -41 374 -21 374 -21 L382 165 L325 276 L274 224 L205 171 C205 171 187 182 188 193 L256 258 L282 310 L247 327 L225 277 L164 210 C164 210 142 214 140 228 L187 282 L211 346 L171 365 L152 301 L113 250 C113 250 85 254 83 278 L110 347 C110 347 113 450 142 522 L134 706 Z " />
<glyph glyph-name="uni267E" unicode="&#x267e;" horiz-adv-x="516" d="M258 -8 C391 -8 479 110 479 289 C479 468 392 591 258 591 C126 591 37 468 37 289 C37 110 124 -8 258 -8 L258 -8 Z M258 20 C144 20 65 123 65 289 C65 451 143 563 258 563 C372 563 451 457 451 289 C451 124 374 20 258 20 L258 20 Z M188 405 C149 405 126 347 126 290 C126 234 145 176 188 176 C218 176 242 215 259 256 C277 213 299 176 331 176 C374 176 393 235 393 290 C393 346 372 405 331 405 C301 405 277 366 259 326 C241 368 220 405 188 405 L188 405 Z M189 220 C169 220 161 252 161 290 C161 329 169 361 189 361 C210 361 229 327 244 291 C229 255 209 220 189 220 L189 220 Z M330 220 C310 220 290 255 275 291 C290 327 309 361 330 361 C349 361 358 329 358 290 C358 252 350 220 330 220 L330 220 Z " />
<glyph glyph-name="uni2713" unicode="&#x2713;" horiz-adv-x="489" d="M119 78 L140 78 C269 214 376 372 456 490 L448 499 C417 496 375 475 362 456 C307 373 201 213 150 154 C122 207 115 280 114 318 L92 325 C78 321 53 296 43 283 C39 258 80 108 119 78 L119 78 Z " />
<glyph glyph-name="uni2776" unicode="&#x2776;" horiz-adv-x="691" d="M345 0 C506 0 637 130 637 291 C637 452 506 583 345 583 C184 583 54 452 54 291 C54 130 184 0 345 0 L345 0 Z M316 138 L316 391 L245 380 L245 420 L341 449 L373 449 L373 138 L316 138 Z " />
<glyph glyph-name="uni2777" unicode="&#x2777;" horiz-adv-x="691" d="M345 0 C506 0 637 130 637 291 C637 452 506 583 345 583 C184 583 54 452 54 291 C54 130 184 0 345 0 L345 0 Z M234 172 C314 240 386 300 386 359 C386 391 359 405 332 405 C306 405 277 402 244 374 L244 421 C267 440 305 449 338 449 C394 449 444 423 444 362 C444 304 392 246 315 185 C315 184 314 184 313 183 L455 183 L455 138 L234 138 L234 172 Z " />
<glyph glyph-name="uni2778" unicode="&#x2778;" horiz-adv-x="691" d="M345 0 C506 0 637 130 637 291 C637 452 506 583 345 583 C184 583 54 452 54 291 C54 130 184 0 345 0 L345 0 Z M330 134 C290 134 271 140 255 148 L255 195 C286 179 315 176 345 176 C373 176 398 194 398 222 C398 258 365 272 307 274 L307 309 C343 312 383 337 383 368 C383 393 362 405 337 405 C315 405 286 399 258 373 L258 420 C282 440 314 449 343 449 C399 449 439 422 439 378 C439 332 400 309 384 304 L384 302 C421 298 454 272 454 230 C454 163 397 134 330 134 L330 134 Z " />
<glyph glyph-name="uni2779" unicode="&#x2779;" horiz-adv-x="691" d="M345 0 C506 0 637 130 637 291 C637 452 506 583 345 583 C184 583 54 452 54 291 C54 130 184 0 345 0 L345 0 Z M336 218 L202 218 L202 260 L340 449 L393 449 L393 259 L436 259 L436 218 L393 218 L393 138 L336 138 L336 218 Z M336 259 L336 368 L256 259 L336 259 Z " />
<glyph glyph-name="uni277A" unicode="&#x277a;" horiz-adv-x="691" d="M345 0 C506 0 637 130 637 291 C637 452 506 583 345 583 C184 583 54 452 54 291 C54 130 184 0 345 0 L345 0 Z M327 134 C291 134 265 141 247 148 L247 196 C276 182 304 176 331 176 C364 176 390 199 390 231 C390 270 363 290 297 290 C286 290 273 289 259 287 L273 444 L436 444 L436 402 L317 402 L310 331 L318 331 C399 331 445 300 445 235 C445 165 379 134 327 134 L327 134 Z " />
<glyph glyph-name="uni277B" unicode="&#x277b;" horiz-adv-x="691" d="M345 0 C506 0 637 130 637 291 C637 452 506 583 345 583 C184 583 54 452 54 291 C54 130 184 0 345 0 L345 0 Z M362 405 C311 405 288 376 280 319 C295 328 315 337 348 337 C401 337 447 311 447 246 C447 188 405 134 330 134 C252 134 218 192 218 268 C218 366 270 449 362 449 C382 449 403 445 425 438 L425 390 C397 404 380 405 362 405 L362 405 Z M334 295 C309 295 291 288 277 280 L277 268 C277 211 290 176 334 176 C371 176 388 201 388 238 C388 273 373 295 334 295 L334 295 Z " />
<glyph glyph-name="uni277C" unicode="&#x277c;" horiz-adv-x="691" d="M345 0 C506 0 637 130 637 291 C637 452 506 583 345 583 C184 583 54 452 54 291 C54 130 184 0 345 0 L345 0 Z M260 138 L259 140 L391 402 L244 402 L244 444 L449 444 L449 414 L313 138 L260 138 Z " />
<glyph glyph-name="uni277D" unicode="&#x277d;" horiz-adv-x="691" d="M345 0 C506 0 637 130 637 291 C637 452 506 583 345 583 C184 583 54 452 54 291 C54 130 184 0 345 0 L345 0 Z M452 222 C452 172 398 134 335 134 C264 134 227 167 227 218 C227 247 247 279 277 298 C255 313 239 334 239 366 C239 410 281 449 339 449 C399 449 445 423 445 373 C445 340 426 311 401 293 C429 278 452 258 452 222 L452 222 Z M390 365 C390 387 376 405 337 405 C310 405 292 396 292 369 C292 337 327 323 364 309 C382 326 390 347 390 365 L390 365 Z M281 222 C281 188 311 176 341 176 C368 176 395 185 395 217 C395 248 348 260 305 281 C288 262 281 247 281 222 L281 222 Z " />
<glyph glyph-name="uni277E" unicode="&#x277e;" horiz-adv-x="691" d="M345 0 C506 0 637 130 637 291 C637 452 506 583 345 583 C184 583 54 452 54 291 C54 130 184 0 345 0 L345 0 Z M314 177 C362 177 387 206 395 262 C379 253 358 245 327 245 C274 245 229 272 229 336 C229 395 270 449 345 449 C423 449 457 391 457 315 C457 213 406 134 313 134 C293 134 272 137 249 145 L249 193 C278 178 295 177 314 177 L314 177 Z M341 287 C366 287 385 293 399 301 L399 315 C399 372 385 407 341 407 C305 407 286 388 286 345 C286 307 302 287 341 287 L341 287 Z " />
<glyph glyph-name="uni277F" unicode="&#x277f;" horiz-adv-x="691" d="M345 0 C506 0 637 130 637 291 C637 452 506 583 345 583 C184 583 54 452 54 291 C54 130 184 0 345 0 L345 0 Z M217 138 L217 391 L146 380 L146 420 L242 449 L274 449 L274 138 L217 138 Z M430 134 C348 134 317 195 317 285 C317 383 355 449 435 449 C524 449 550 372 550 294 C550 194 509 134 430 134 L430 134 Z M433 176 C488 176 490 237 490 291 C490 335 483 405 429 405 C378 405 375 336 375 287 C375 233 382 176 433 176 L433 176 Z " />
<glyph glyph-name="uni2780" unicode="&#x2780;" horiz-adv-x="691" d="M345 0 C506 0 637 130 637 291 C637 452 506 583 345 583 C184 583 54 452 54 291 C54 130 184 0 345 0 L345 0 Z M345 36 C206 36 94 152 94 291 C94 430 206 547 345 547 C484 547 597 430 597 291 C597 152 484 36 345 36 L345 36 Z M381 138 L381 449 L349 449 L253 420 L253 380 L324 391 L324 138 L381 138 Z " />
<glyph glyph-name="uni2781" unicode="&#x2781;" horiz-adv-x="691" d="M345 0 C506 0 637 130 637 291 C637 452 506 583 345 583 C184 583 54 452 54 291 C54 130 184 0 345 0 L345 0 Z M345 36 C206 36 94 152 94 291 C94 430 206 547 345 547 C484 547 597 430 597 291 C597 152 484 36 345 36 L345 36 Z M234 138 L455 138 L455 183 L313 183 C314 184 315 184 315 185 C392 246 444 304 444 362 C444 423 394 449 338 449 C305 449 267 440 244 421 L244 374 C277 402 306 405 332 405 C359 405 386 391 386 359 C386 300 314 240 234 172 L234 138 Z " />
<glyph glyph-name="uni2782" unicode="&#x2782;" horiz-adv-x="691" d="M345 0 C506 0 637 130 637 291 C637 452 506 583 345 583 C184 583 54 452 54 291 C54 130 184 0 345 0 L345 0 Z M345 36 C206 36 94 152 94 291 C94 430 206 547 345 547 C484 547 597 430 597 291 C597 152 484 36 345 36 L345 36 Z M330 134 C397 134 454 163 454 230 C454 272 421 298 384 302 L384 304 C400 309 439 332 439 378 C439 422 399 449 343 449 C314 449 282 440 258 420 L258 373 C286 399 315 405 337 405 C362 405 383 393 383 368 C383 337 343 312 307 309 L307 274 C365 272 398 258 398 222 C398 194 373 176 345 176 C315 176 286 179 255 195 L255 148 C271 140 290 134 330 134 L330 134 Z " />
<glyph glyph-name="uni2783" unicode="&#x2783;" horiz-adv-x="691" d="M345 0 C506 0 637 130 637 291 C637 452 506 583 345 583 C184 583 54 452 54 291 C54 130 184 0 345 0 L345 0 Z M345 36 C206 36 94 152 94 291 C94 430 206 547 345 547 C484 547 597 430 597 291 C597 152 484 36 345 36 L345 36 Z M336 138 L393 138 L393 218 L436 218 L436 259 L393 259 L393 449 L340 449 L202 260 L202 218 L336 218 L336 138 Z M256 259 L336 368 L336 259 L256 259 Z " />
<glyph glyph-name="uni2784" unicode="&#x2784;" horiz-adv-x="691" d="M345 0 C506 0 637 130 637 291 C637 452 506 583 345 583 C184 583 54 452 54 291 C54 130 184 0 345 0 L345 0 Z M345 36 C206 36 94 152 94 291 C94 430 206 547 345 547 C484 547 597 430 597 291 C597 152 484 36 345 36 L345 36 Z M327 134 C379 134 445 165 445 235 C445 300 399 331 318 331 L310 331 L317 402 L436 402 L436 444 L273 444 L259 287 C273 289 286 290 297 290 C363 290 390 270 390 231 C390 199 364 176 331 176 C304 176 276 182 247 196 L247 148 C265 141 291 134 327 134 L327 134 Z " />
<glyph glyph-name="uni2785" unicode="&#x2785;" horiz-adv-x="691" d="M345 0 C506 0 637 130 637 291 C637 452 506 583 345 583 C184 583 54 452 54 291 C54 130 184 0 345 0 L345 0 Z M345 36 C206 36 94 152 94 291 C94 430 206 547 345 547 C484 547 597 430 597 291 C597 152 484 36 345 36 L345 36 Z M362 405 C380 405 397 404 425 390 L425 438 C403 445 382 449 362 449 C270 449 218 366 218 268 C218 192 252 134 330 134 C405 134 447 188 447 246 C447 311 401 337 348 337 C315 337 295 328 280 319 C288 376 311 405 362 405 L362 405 Z M334 295 C373 295 388 273 388 238 C388 201 371 176 334 176 C290 176 277 211 277 268 L277 280 C291 288 309 295 334 295 L334 295 Z " />
<glyph glyph-name="uni2786" unicode="&#x2786;" horiz-adv-x="691" d="M345 0 C506 0 637 130 637 291 C637 452 506 583 345 583 C184 583 54 452 54 291 C54 130 184 0 345 0 L345 0 Z M345 36 C206 36 94 152 94 291 C94 430 206 547 345 547 C484 547 597 430 597 291 C597 152 484 36 345 36 L345 36 Z M313 138 L449 414 L449 444 L244 444 L244 402 L391 402 L259 140 L260 138 L313 138 Z " />
<glyph glyph-name="uni2787" unicode="&#x2787;" horiz-adv-x="691" d="M345 0 C506 0 637 130 637 291 C637 452 506 583 345 583 C184 583 54 452 54 291 C54 130 184 0 345 0 L345 0 Z M345 36 C206 36 94 152 94 291 C94 430 206 547 345 547 C484 547 597 430 597 291 C597 152 484 36 345 36 L345 36 Z M452 222 C452 258 429 278 401 293 C426 311 445 340 445 373 C445 423 399 449 339 449 C281 449 239 410 239 366 C239 334 255 313 277 298 C247 279 227 247 227 218 C227 167 264 134 335 134 C398 134 452 172 452 222 L452 222 Z M390 365 C390 347 382 326 364 309 C327 323 292 337 292 369 C292 396 310 405 337 405 C376 405 390 387 390 365 L390 365 Z M281 222 C281 247 288 262 305 281 C348 260 395 248 395 217 C395 185 368 176 341 176 C311 176 281 188 281 222 L281 222 Z " />
<glyph glyph-name="uni2788" unicode="&#x2788;" horiz-adv-x="691" d="M345 0 C506 0 637 130 637 291 C637 452 506 583 345 583 C184 583 54 452 54 291 C54 130 184 0 345 0 L345 0 Z M345 36 C206 36 94 152 94 291 C94 430 206 547 345 547 C484 547 597 430 597 291 C597 152 484 36 345 36 L345 36 Z M314 177 C295 177 278 178 249 193 L249 145 C272 137 293 134 313 134 C406 134 457 213 457 315 C457 391 423 449 345 449 C270 449 229 395 229 336 C229 272 274 245 327 245 C358 245 379 253 395 262 C387 206 362 177 314 177 L314 177 Z M341 287 C302 287 286 307 286 345 C286 388 305 407 341 407 C385 407 399 372 399 315 L399 301 C385 293 366 287 341 287 L341 287 Z " />
<glyph glyph-name="uni278A" unicode="&#x278a;" horiz-adv-x="691" d="M345 0 C506 0 637 130 637 291 C637 452 506 583 345 583 C184 583 54 452 54 291 C54 130 184 0 345 0 L345 0 Z M311 138 L311 391 L240 380 L240 420 L336 449 L368 449 L368 138 L311 138 Z " />
<glyph glyph-name="uni278B" unicode="&#x278b;" horiz-adv-x="691" d="M345 0 C506 0 637 130 637 291 C637 452 506 583 345 583 C184 583 54 452 54 291 C54 130 184 0 345 0 L345 0 Z M234 172 C314 240 386 300 386 359 C386 391 359 405 332 405 C306 405 277 402 244 374 L244 421 C267 440 305 449 338 449 C394 449 444 423 444 362 C444 304 393 248 318 187 L313 183 L455 183 L455 138 L234 138 L234 172 Z " />
<glyph glyph-name="uni278C" unicode="&#x278c;" horiz-adv-x="691" d="M345 0 C506 0 637 130 637 291 C637 452 506 583 345 583 C184 583 54 452 54 291 C54 130 184 0 345 0 L345 0 Z M330 134 C290 134 271 140 255 148 L255 195 C286 179 315 176 345 176 C373 176 398 194 398 222 C398 258 365 272 307 274 L307 309 C343 312 383 337 383 368 C383 393 362 405 337 405 C315 405 286 399 258 373 L258 420 C282 440 314 449 343 449 C399 449 439 422 439 378 C439 332 400 309 384 304 L384 302 C421 298 454 272 454 230 C454 163 397 134 330 134 L330 134 Z " />
<glyph glyph-name="uni278D" unicode="&#x278d;" horiz-adv-x="691" d="M345 0 C506 0 637 130 637 291 C637 452 506 583 345 583 C184 583 54 452 54 291 C54 130 184 0 345 0 L345 0 Z M336 218 L202 218 L202 260 L340 449 L393 449 L393 259 L436 259 L436 218 L393 218 L393 138 L336 138 L336 218 Z M336 259 L336 368 L256 259 L336 259 Z " />
<glyph glyph-name="uni278E" unicode="&#x278e;" horiz-adv-x="691" d="M345 0 C506 0 637 130 637 291 C637 452 506 583 345 583 C184 583 54 452 54 291 C54 130 184 0 345 0 L345 0 Z M327 134 C291 134 265 141 247 148 L247 196 C276 182 304 176 331 176 C364 176 390 199 390 231 C390 270 363 290 297 290 C286 290 273 289 259 287 L273 444 L436 444 L436 402 L317 402 L310 331 L318 331 C399 331 445 300 445 235 C445 165 379 134 327 134 L327 134 Z " />
<glyph glyph-name="uni278F" unicode="&#x278f;" horiz-adv-x="691" d="M345 0 C506 0 637 130 637 291 C637 452 506 583 345 583 C184 583 54 452 54 291 C54 130 184 0 345 0 L345 0 Z M362 405 C311 405 288 376 280 319 C295 328 315 337 348 337 C401 337 447 311 447 246 C447 188 405 134 330 134 C252 134 218 192 218 268 C218 366 270 449 362 449 C382 449 403 445 425 438 L425 390 C397 404 380 405 362 405 L362 405 Z M334 295 C309 295 291 288 277 280 L277 268 C277 211 290 176 334 176 C371 176 388 201 388 238 C388 273 373 295 334 295 L334 295 Z " />
<glyph glyph-name="uni2790" unicode="&#x2790;" horiz-adv-x="691" d="M345 0 C506 0 637 130 637 291 C637 452 506 583 345 583 C184 583 54 452 54 291 C54 130 184 0 345 0 L345 0 Z M260 138 L259 140 L391 402 L244 402 L244 444 L449 444 L449 414 L313 138 L260 138 Z " />
<glyph glyph-name="uni2791" unicode="&#x2791;" horiz-adv-x="691" d="M345 0 C506 0 637 130 637 291 C637 452 506 583 345 583 C184 583 54 452 54 291 C54 130 184 0 345 0 L345 0 Z M452 222 C452 172 398 134 335 134 C264 134 227 167 227 218 C227 247 247 279 277 298 C255 313 239 334 239 366 C239 410 281 449 339 449 C399 449 445 423 445 373 C445 340 426 311 401 293 C429 278 452 258 452 222 L452 222 Z M390 365 C390 387 376 405 337 405 C310 405 292 396 292 369 C292 337 327 323 364 309 C382 326 390 347 390 365 L390 365 Z M281 222 C281 188 311 176 341 176 C368 176 395 185 395 217 C395 248 348 260 305 281 C288 262 281 247 281 222 L281 222 Z " />
<glyph glyph-name="uni2792" unicode="&#x2792;" horiz-adv-x="691" d="M345 0 C506 0 637 130 637 291 C637 452 506 583 345 583 C184 583 54 452 54 291 C54 130 184 0 345 0 L345 0 Z M314 177 C362 177 387 206 395 262 C379 253 358 245 327 245 C274 245 229 272 229 336 C229 395 270 449 345 449 C423 449 457 391 457 315 C457 213 406 134 313 134 C293 134 272 137 249 145 L249 193 C278 178 295 177 314 177 L314 177 Z M341 287 C366 287 385 293 399 301 L399 315 C399 372 385 407 341 407 C305 407 286 388 286 345 C286 307 302 287 341 287 L341 287 Z " />
<glyph glyph-name="uni301A" unicode="&#x301a;" horiz-adv-x="306" d="M56 -181 L276 -181 L276 -127 L221 -127 L221 624 L276 624 L276 679 L56 679 L56 -181 Z M118 624 L159 624 L159 -127 L118 -127 L118 624 Z " />
<glyph glyph-name="uni301B" unicode="&#x301b;" horiz-adv-x="306" d="M250 679 L30 679 L30 624 L85 624 L85 -127 L30 -127 L30 -181 L250 -181 L250 679 Z M188 624 L188 -127 L147 -127 L147 624 L188 624 Z " />
<glyph glyph-name="apple" unicode="&#xf8ff;" horiz-adv-x="1241" d="M390 318 L401 318 L401 328 L411 328 L411 338 L421 338 L421 347 L431 347 L431 388 L420 388 L420 348 L401 348 L401 388 L390 388 L390 347 L400 347 L400 329 L390 329 L390 318 Z M350 338 L371 338 L371 348 L351 348 L351 377 L371 377 L371 388 L351 388 L351 398 L340 398 L340 388 L330 388 L330 377 L340 377 L340 347 L350 347 L350 338 Z M590 338 L611 338 L611 348 L591 348 L591 377 L611 377 L611 388 L591 388 L591 398 L580 398 L580 388 L570 388 L570 377 L580 377 L580 347 L590 347 L590 338 Z M700 338 L731 338 L731 348 L701 348 L701 357 L731 357 L731 378 L721 378 L721 388 L700 388 L700 378 L690 378 L690 347 L700 347 L700 338 Z M880 338 L911 338 L911 348 L881 348 L881 357 L911 357 L911 378 L901 378 L901 388 L880 388 L880 378 L870 378 L870 347 L880 347 L880 338 Z M110 347 L121 347 L121 357 L131 357 L131 368 L121 368 L121 378 L110 378 L110 368 L100 368 L100 357 L110 357 L110 347 Z M180 347 L191 347 L191 357 L201 357 L201 368 L191 368 L191 378 L180 378 L180 368 L170 368 L170 357 L180 357 L180 347 Z M270 347 L281 347 L281 357 L291 357 L291 368 L281 368 L281 378 L270 378 L270 368 L260 368 L260 357 L270 357 L270 347 Z M520 338 L541 338 L541 347 L551 347 L551 378 L541 378 L541 388 L520 388 L520 378 L510 378 L510 347 L520 347 L520 338 Z M630 338 L641 338 L641 377 L660 377 L660 338 L671 338 L671 378 L661 378 L661 388 L641 388 L641 408 L630 408 L630 338 Z M960 347 L971 347 L971 357 L981 357 L981 368 L971 368 L971 378 L960 378 L960 368 L950 368 L950 357 L960 357 L960 347 Z M1050 347 L1061 347 L1061 357 L1071 357 L1071 368 L1061 368 L1061 378 L1050 378 L1050 368 L1040 368 L1040 357 L1050 357 L1050 347 Z M1120 347 L1131 347 L1131 357 L1141 357 L1141 368 L1131 368 L1131 378 L1120 378 L1120 368 L1110 368 L1110 357 L1120 357 L1120 347 Z M450 318 L461 318 L461 338 L481 338 L481 347 L491 347 L491 378 L481 378 L481 388 L450 388 L450 318 Z M780 318 L791 318 L791 388 L760 388 L760 378 L750 378 L750 347 L760 347 L760 338 L780 338 L780 318 Z M820 338 L851 338 L851 388 L840 388 L840 348 L821 348 L821 388 L810 388 L810 347 L820 347 L820 338 Z M240 328 L251 328 L251 338 L261 338 L261 348 L250 348 L250 338 L240 338 L240 328 Z M250 377 L261 377 L261 388 L251 388 L251 398 L240 398 L240 387 L250 387 L250 377 Z M300 328 L311 328 L311 338 L301 338 L301 348 L290 348 L290 338 L300 338 L300 328 Z M290 377 L301 377 L301 387 L311 387 L311 398 L300 398 L300 388 L290 388 L290 377 Z M930 328 L941 328 L941 338 L951 338 L951 348 L940 348 L940 338 L930 338 L930 328 Z M940 377 L951 377 L951 388 L941 388 L941 398 L930 398 L930 387 L940 387 L940 377 Z M990 328 L1001 328 L1001 338 L991 338 L991 348 L980 348 L980 338 L990 338 L990 328 Z M980 377 L991 377 L991 387 L1001 387 L1001 398 L990 398 L990 388 L980 388 L980 377 Z M160 338 L171 338 L171 348 L160 348 L160 338 Z M160 377 L171 377 L171 388 L160 388 L160 377 Z M200 338 L211 338 L211 348 L200 348 L200 338 Z M200 377 L211 377 L211 388 L200 388 L200 377 Z M461 348 L461 377 L480 377 L480 348 L461 348 Z M521 348 L521 377 L540 377 L540 348 L521 348 Z M701 368 L701 377 L720 377 L720 368 L701 368 Z M761 348 L761 377 L780 377 L780 348 L761 348 Z M881 368 L881 377 L900 377 L900 368 L881 368 Z M1030 338 L1041 338 L1041 348 L1030 348 L1030 338 Z M1030 377 L1041 377 L1041 388 L1030 388 L1030 377 Z M1070 338 L1081 338 L1081 348 L1070 348 L1070 338 Z M1070 377 L1081 377 L1081 388 L1070 388 L1070 377 Z " />
<glyph glyph-name="f_f" unicode="&#xfb00;" horiz-adv-x="435" d="M137 390 L278 390 L278 0 L347 0 L347 390 L418 390 L418 450 L347 450 L347 500 C347 572 364 597 405 597 C423 597 436 595 452 591 L452 655 C439 659 424 661 407 661 C334 661 278 620 278 505 L278 450 L137 450 L137 500 C137 572 154 597 195 597 C213 597 226 595 242 591 L242 655 C229 659 214 661 197 661 C124 661 68 620 68 505 L68 450 L18 450 L18 390 L68 390 L68 0 L137 0 L137 390 Z " />
<glyph glyph-name="fi" unicode="&#xfb01;" horiz-adv-x="398" d="M18 389 L68 389 L68 0 L137 0 L137 389 L280 389 L280 0 L348 0 L348 450 L137 450 L137 500 C137 573 156 599 201 599 C219 599 233 598 252 593 L252 656 C238 659 221 661 202 661 C123 661 68 612 68 509 L68 450 L18 450 L18 389 Z " />
<glyph glyph-name="fl" unicode="&#xfb02;" horiz-adv-x="407" d="M18 390 L68 390 L68 0 L137 0 L137 390 L208 390 L208 450 L137 450 L137 500 C137 572 154 597 195 597 C213 597 226 595 242 591 L242 655 C229 659 214 661 197 661 C124 661 68 620 68 505 L68 450 L18 450 L18 390 Z M284 0 L352 0 L352 653 L284 653 L284 0 Z " />
<glyph glyph-name="f_f_i" unicode="&#xfb03;" horiz-adv-x="608" d="M137 389 L279 389 L279 0 L347 0 L347 389 L490 389 L490 0 L558 0 L558 450 L347 450 L347 500 C347 573 366 599 411 599 C430 599 443 598 462 593 L462 656 C448 659 432 661 413 661 C333 661 279 612 279 509 L279 450 L137 450 L137 500 C137 572 154 597 195 597 C213 597 226 595 242 591 L242 655 C229 659 214 661 197 661 C124 661 68 620 68 505 L68 450 L18 450 L18 389 L68 389 L68 0 L137 0 L137 389 Z " />
<glyph glyph-name="f_f_l" unicode="&#xfb04;" horiz-adv-x="614" d="M279 0 L347 0 L347 390 L419 390 L419 450 L347 450 L347 500 C347 572 365 597 406 597 C423 597 436 595 453 591 L453 655 C440 659 425 661 407 661 C335 661 279 620 279 505 L279 450 L137 450 L137 500 C137 572 154 597 195 597 C213 597 226 595 242 591 L242 655 C229 659 214 661 197 661 C124 661 68 620 68 505 L68 450 L18 450 L18 390 L68 390 L68 0 L137 0 L137 390 L279 390 L279 0 Z M491 0 L559 0 L559 653 L491 653 L491 0 Z " />
</font>
</defs>
</svg>
