<svg xmlns="http://www.w3.org/2000/svg">
<defs>
<font id="Greta Sans Std Thin Ita">
<font-face  font-family="Greta Sans Std" units-per-em="1000" ascent="710" descent="-290" font-style="italic" font-weight="200" font-stretch="normal" slope="-9" cap-height="583" x-height="452" underline-position="-75" underline-thickness="50" />

<glyph glyph-name="NULL" d="" />
<glyph glyph-name="CR" unicode="&#xd;" horiz-adv-x="250" d="" />
<glyph glyph-name="space" unicode="&#x20;" horiz-adv-x="220" d="" />
<glyph glyph-name="exclam" unicode="&#x21;" horiz-adv-x="204" d="M104 347 L84 217 L106 217 L131 348 L172 583 L146 583 L104 347 Z M42 -6 L68 -8 L94 116 L64 117 L42 -6 Z " />
<glyph glyph-name="quotedbl" unicode="&#x22;" horiz-adv-x="333" d="M108 446 L133 446 L171 646 L143 646 L108 446 Z M266 446 L291 446 L329 646 L301 646 L266 446 Z " />
<glyph glyph-name="numbersign" unicode="&#x23;" horiz-adv-x="605" d="M112 399 L241 399 L165 202 L37 202 L33 180 L156 180 L87 0 L110 0 L179 180 L341 180 L272 0 L295 0 L364 180 L505 180 L509 202 L373 202 L449 399 L584 399 L587 421 L457 421 L520 583 L497 583 L434 421 L272 421 L335 583 L312 583 L249 421 L115 421 L112 399 Z M264 399 L426 399 L350 202 L188 202 L264 399 Z " />
<glyph glyph-name="dollar" unicode="&#x24;" horiz-adv-x="433" d="M16 16 C66 -1 103 -8 153 -8 L166 -8 L153 -82 L177 -82 L190 -6 C280 3 366 50 366 157 C366 222 306 264 245 301 L290 559 C331 557 372 547 411 529 L415 557 C382 571 341 581 294 583 L306 650 L282 650 L270 582 C178 579 86 534 86 432 C86 367 149 327 213 288 L217 285 L170 17 L159 17 C110 17 61 26 21 45 L16 16 Z M115 437 C115 506 174 555 266 558 L223 314 C167 350 115 385 115 437 L115 437 Z M339 153 C339 71 274 28 195 19 L240 271 C293 238 339 203 339 153 L339 153 Z " />
<glyph glyph-name="percent" unicode="&#x25;" horiz-adv-x="705" d="M173 288 C254 288 327 353 327 474 C327 547 286 592 226 592 C145 592 71 523 71 405 C71 333 113 288 173 288 L173 288 Z M178 309 C121 309 95 351 95 409 C95 506 153 570 223 570 C276 570 304 533 304 471 C304 382 256 309 178 309 L178 309 Z M428 369 L574 574 L575 583 L551 583 L405 369 L428 369 Z M310 218 L161 9 L159 0 L184 0 L333 218 L310 218 Z M492 -8 C572 -8 647 57 647 178 C647 251 605 296 545 296 C466 296 389 227 389 110 C389 37 432 -8 492 -8 L492 -8 Z M497 13 C439 13 414 56 414 114 C414 208 471 275 541 275 C595 275 622 235 622 174 C622 84 574 13 497 13 L497 13 Z " />
<glyph glyph-name="ampersand" unicode="&#x26;" horiz-adv-x="662" d="M638 332 L640 354 L632 356 C571 333 489 321 413 321 C379 321 347 322 318 328 C370 348 434 393 434 462 C434 523 395 592 293 592 C184 592 114 515 114 432 C114 389 134 345 178 312 C102 284 41 233 41 139 C41 57 109 -8 217 -8 C359 -8 476 119 506 300 C554 306 601 316 638 332 L638 332 Z M296 311 C332 302 380 296 430 296 C446 296 463 296 479 297 C457 158 355 17 222 17 C123 17 70 77 70 148 C70 227 130 280 204 304 L204 321 C160 354 142 396 142 434 C142 516 209 567 293 567 C373 567 406 505 406 457 C406 395 351 354 292 329 L296 311 Z " />
<glyph glyph-name="quotesingle" unicode="&#x27;" horiz-adv-x="175" d="M108 446 L133 446 L171 646 L143 646 L108 446 Z " />
<glyph glyph-name="parenleft" unicode="&#x28;" horiz-adv-x="232" d="M127 -151 C114 -126 66 -27 66 119 C66 395 214 599 269 649 L238 649 C193 606 42 400 42 117 C42 -28 88 -126 100 -151 L127 -151 Z " />
<glyph glyph-name="parenright" unicode="&#x29;" horiz-adv-x="234" d="M103 649 C116 624 163 516 163 369 C163 93 16 -101 -38 -151 L-8 -151 C38 -107 188 89 188 372 C188 516 142 624 130 649 L103 649 Z " />
<glyph glyph-name="asterisk" unicode="&#x2a;" horiz-adv-x="377" d="M112 543 L214 481 L90 420 L98 399 L215 466 L191 343 L213 343 L233 466 L326 399 L341 420 L237 482 L363 543 L355 563 L238 497 L264 625 L241 625 L221 497 L127 563 L112 543 Z " />
<glyph glyph-name="plus" unicode="&#x2b;" horiz-adv-x="518" d="M57 284 L250 284 L215 87 L239 87 L274 284 L470 284 L475 307 L278 307 L313 505 L289 505 L254 307 L61 307 L57 284 Z " />
<glyph glyph-name="comma" unicode="&#x2c;" horiz-adv-x="191" d="M-28 -152 C45 -98 80 -40 84 21 C85 47 79 74 65 97 L39 91 C52 68 58 50 57 26 C54 -40 16 -90 -45 -139 L-28 -152 Z " />
<glyph glyph-name="&amp;#x2d;" unicode="&#x2d;" horiz-adv-x="368" d="M64 231 L294 231 L299 256 L69 256 L64 231 Z " />
<glyph glyph-name="&amp;#xad;" unicode="&#xad;" horiz-adv-x="368" d="M64 231 L294 231 L299 256 L69 256 L64 231 Z " />
<glyph glyph-name="period" unicode="&#x2e;" horiz-adv-x="174" d="M26 -6 L53 -8 L78 116 L49 117 L26 -6 Z " />
<glyph glyph-name="slash" unicode="&#x2f;" horiz-adv-x="337" d="M-11 -91 L16 -91 L365 673 L338 673 L-11 -91 Z " />
<glyph glyph-name="zero" unicode="0" horiz-adv-x="488" d="M438 396 C438 495 415 592 296 592 C121 592 63 369 63 196 C63 81 103 -8 203 -8 C392 -8 438 246 438 396 L438 396 Z M206 16 C123 16 89 93 89 203 C89 415 166 568 291 568 C373 568 411 518 411 393 C411 222 360 16 206 16 L206 16 Z " />
<glyph glyph-name="one" unicode="1" horiz-adv-x="286" d="M152 0 L254 583 L236 583 L83 530 L79 506 L223 555 L126 0 L152 0 Z " />
<glyph glyph-name="two" unicode="2" horiz-adv-x="427" d="M346 25 L65 25 C209 136 384 367 384 484 C384 537 325 592 248 592 C191 592 143 576 94 539 L93 513 C148 554 190 567 243 567 C310 567 345 525 362 489 C356 370 189 147 32 22 L27 0 L341 0 L346 25 Z " />
<glyph glyph-name="three" unicode="3" horiz-adv-x="441" d="M27 17 C52 5 85 -8 153 -8 C272 -8 375 69 375 158 C375 217 270 285 212 306 L212 310 C286 333 399 439 399 483 C399 554 333 592 259 592 C201 592 148 573 104 546 L106 524 C152 550 203 567 249 567 C317 567 359 545 379 481 C351 429 261 338 172 315 L168 298 C254 273 338 202 352 159 C345 65 232 16 156 16 C116 16 80 21 32 44 L27 17 Z " />
<glyph glyph-name="four" unicode="4" horiz-adv-x="476" d="M383 583 L350 583 L28 213 L26 188 L287 188 L254 0 L280 0 L313 188 L426 188 L428 211 L317 211 L383 583 Z M55 211 L348 550 L350 550 L291 211 L55 211 Z " />
<glyph glyph-name="five" unicode="5" horiz-adv-x="422" d="M22 16 C51 5 98 -8 152 -8 C286 -8 351 111 351 203 C351 273 304 331 245 350 C202 350 142 332 107 314 L175 557 L404 557 L409 583 L156 583 L78 291 L92 287 C137 309 184 322 236 329 C281 309 324 266 324 200 C324 94 249 16 156 16 C107 16 66 25 27 42 L22 16 Z " />
<glyph glyph-name="six" unicode="6" horiz-adv-x="447" d="M418 577 C387 587 358 592 325 592 C177 592 55 374 55 196 C55 70 120 -8 188 -8 C271 -8 385 89 385 203 C385 274 361 326 302 355 C243 355 151 317 88 274 C103 361 144 449 190 497 C229 541 270 568 317 568 C352 568 373 567 411 553 L418 577 Z M294 332 C339 300 358 265 358 202 C358 97 263 22 193 12 C138 23 81 81 81 200 C81 216 82 233 84 250 C145 293 250 332 294 332 L294 332 Z " />
<glyph glyph-name="seven" unicode="7" horiz-adv-x="380" d="M88 557 L374 557 L63 7 L67 0 L89 0 L405 567 L396 583 L92 583 L88 557 Z " />
<glyph glyph-name="eight" unicode="8" horiz-adv-x="460" d="M427 472 C427 526 369 592 278 592 C192 592 101 517 101 455 C101 421 158 363 219 304 C117 264 32 185 32 120 C32 74 90 -8 184 -8 C308 -8 387 61 387 144 C387 176 324 239 260 302 C344 346 427 432 427 472 L427 472 Z M364 135 C347 77 309 16 189 16 C112 16 67 79 52 127 C74 192 141 250 232 292 C297 229 362 168 364 135 L364 135 Z M123 460 C130 492 183 568 272 568 C349 568 393 520 401 470 C387 426 327 364 245 317 C185 376 127 432 123 460 L123 460 Z " />
<glyph glyph-name="nine" unicode="9" horiz-adv-x="447" d="M41 7 C72 -3 101 -8 134 -8 C282 -8 404 210 404 388 C404 514 339 592 271 592 C188 592 74 495 74 381 C74 310 98 258 157 229 C216 229 307 266 371 310 C355 222 315 135 269 87 C230 43 189 16 142 16 C107 16 86 17 48 31 L41 7 Z M165 252 C120 284 101 319 101 382 C101 487 196 562 266 572 C321 561 378 503 378 384 C378 367 377 351 375 334 C314 290 208 252 165 252 L165 252 Z " />
<glyph glyph-name="colon" unicode="&#x3a;" horiz-adv-x="175" d="M27 -6 L54 -8 L79 116 L50 117 L27 -6 Z M86 335 L113 333 L138 457 L109 458 L86 335 Z " />
<glyph glyph-name="semicolon" unicode="&#x3b;" horiz-adv-x="212" d="M-23 -152 C50 -98 85 -40 89 21 C90 47 84 74 70 97 L44 91 C57 68 63 50 62 26 C59 -40 21 -90 -40 -139 L-23 -152 Z M113 335 L140 333 L165 457 L136 458 L113 335 Z " />
<glyph glyph-name="less" unicode="&#x3c;" horiz-adv-x="474" d="M377 84 L382 110 L73 295 L447 479 L453 507 L48 308 L44 284 L377 84 Z " />
<glyph glyph-name="equal" unicode="&#x3d;" horiz-adv-x="527" d="M64 194 L440 194 L445 217 L68 217 L64 194 Z M95 375 L472 375 L477 399 L100 399 L95 375 Z " />
<glyph glyph-name="greater" unicode="&#x3e;" horiz-adv-x="474" d="M439 283 L443 306 L109 507 L104 481 L415 295 L39 111 L34 84 L439 283 Z " />
<glyph glyph-name="question" unicode="&#x3f;" horiz-adv-x="318" d="M311 461 C311 499 227 578 106 594 L100 571 C174 560 269 512 291 459 C260 407 144 324 113 277 C108 269 106 261 106 254 C109 228 113 208 120 179 L141 183 L128 267 L220 352 C270 400 311 438 311 461 L311 461 Z M77 -6 L104 -8 L129 116 L100 117 L77 -6 Z " />
<glyph glyph-name="at" unicode="&#x40;" horiz-adv-x="852" d="M523 -8 C693 32 812 153 812 321 C812 502 688 642 488 642 C230 642 47 443 47 189 C47 -50 158 -197 396 -197 C510 -197 642 -156 712 -104 L713 -76 C652 -122 533 -173 401 -173 C196 -173 74 -58 74 191 C74 411 223 618 485 618 C680 618 787 482 787 318 C787 155 669 49 533 17 L501 26 L577 459 L552 459 L547 429 C507 447 460 458 430 458 C396 458 373 440 351 418 C289 364 246 234 246 99 C246 58 250 22 258 -6 L311 -6 L499 166 L471 5 L523 -8 Z M280 21 C275 50 271 71 271 103 C271 232 313 385 402 434 C408 435 414 435 422 435 C455 434 502 422 542 405 L505 198 L307 20 L280 21 Z " />
<glyph glyph-name="A" unicode="A" horiz-adv-x="499" d="M-19 0 L10 0 L124 209 L363 209 L392 0 L421 0 L337 583 L305 583 L-19 0 Z M314 554 L316 554 L360 232 L137 232 L314 554 Z " />
<glyph glyph-name="B" unicode="B" horiz-adv-x="492" d="M45 0 L179 0 C335 0 427 66 427 184 C427 262 364 297 302 305 L302 307 C363 318 435 371 435 461 C435 541 375 583 255 583 L147 583 L45 0 Z M230 290 C331 290 399 256 399 180 C399 46 270 25 176 25 L77 25 L124 290 L230 290 Z M246 558 C311 558 405 550 405 456 C405 391 351 315 235 315 L128 315 L170 558 L246 558 Z " />
<glyph glyph-name="C" unicode="C" horiz-adv-x="510" d="M276 -8 C339 -8 393 9 424 24 L428 51 C375 27 335 17 282 17 C149 17 87 87 87 221 C87 434 214 567 385 567 C422 567 462 563 507 540 L513 567 C484 580 441 592 390 592 C163 592 56 401 56 218 C56 89 119 -8 276 -8 L276 -8 Z " />
<glyph glyph-name="D" unicode="D" horiz-adv-x="590" d="M45 0 L154 0 C365 0 545 111 545 350 C545 510 417 583 249 583 L147 583 L45 0 Z M239 558 C393 558 514 502 514 345 C514 132 358 25 162 25 L77 25 L170 558 L239 558 Z " />
<glyph glyph-name="E" unicode="E" horiz-adv-x="472" d="M45 0 L382 0 L386 25 L77 25 L123 287 L380 287 L384 312 L128 312 L170 558 L474 558 L478 583 L147 583 L45 0 Z " />
<glyph glyph-name="F" unicode="F" horiz-adv-x="441" d="M45 0 L73 0 L119 267 L370 267 L375 292 L124 292 L170 558 L468 558 L472 583 L147 583 L45 0 Z " />
<glyph glyph-name="G" unicode="G" horiz-adv-x="555" d="M274 -8 C343 -8 397 8 447 29 L493 294 L465 294 L421 44 C382 29 342 17 280 17 C156 17 87 79 87 219 C87 440 216 566 385 567 C443 568 487 557 533 535 L538 562 C500 580 456 592 389 592 C162 592 56 399 56 216 C56 88 118 -8 274 -8 L274 -8 Z " />
<glyph glyph-name="H" unicode="H" horiz-adv-x="609" d="M447 0 L475 0 L578 583 L550 583 L502 314 L128 314 L175 583 L147 583 L45 0 L73 0 L123 289 L498 289 L447 0 Z " />
<glyph glyph-name="I" unicode="I" horiz-adv-x="207" d="M45 0 L73 0 L175 583 L147 583 L45 0 Z " />
<glyph glyph-name="J" unicode="J" horiz-adv-x="220" d="M-56 -81 C43 6 107 89 123 179 L194 583 L166 583 L96 181 C78 83 1 5 -76 -65 L-56 -81 Z " />
<glyph glyph-name="K" unicode="K" horiz-adv-x="480" d="M375 0 L409 0 L192 303 L519 583 L482 583 L166 311 L164 297 L375 0 Z M45 0 L73 0 L175 583 L147 583 L45 0 Z " />
<glyph glyph-name="L" unicode="L" horiz-adv-x="419" d="M45 0 L368 0 L372 25 L77 25 L175 583 L147 583 L45 0 Z " />
<glyph glyph-name="M" unicode="M" horiz-adv-x="726" d="M16 0 L45 0 L195 543 L199 543 L298 0 L328 0 L627 541 L631 541 L590 0 L621 0 L662 583 L622 583 L322 40 L318 40 L220 583 L179 583 L16 0 Z " />
<glyph glyph-name="N" unicode="N" horiz-adv-x="603" d="M45 0 L73 0 L169 543 L170 543 L437 0 L469 0 L571 583 L543 583 L448 42 L446 42 L179 583 L147 583 L45 0 Z " />
<glyph glyph-name="O" unicode="O" horiz-adv-x="619" d="M258 -8 C469 -8 574 186 574 366 C574 484 518 592 377 592 C162 592 58 407 58 220 C58 100 115 -8 258 -8 L258 -8 Z M262 17 C151 17 87 92 87 221 C87 406 189 567 372 567 C476 567 545 499 545 367 C545 187 446 17 262 17 L262 17 Z " />
<glyph glyph-name="P" unicode="P" horiz-adv-x="485" d="M45 0 L73 0 L111 220 L196 220 C370 220 469 293 469 433 C469 526 398 583 297 583 L147 583 L45 0 Z M283 558 C397 558 440 502 440 426 C440 271 299 245 195 245 L116 245 L170 558 L283 558 Z " />
<glyph glyph-name="Q" unicode="Q" horiz-adv-x="619" d="M258 -8 C292 -8 323 -3 351 6 L499 -108 L533 -108 L535 -96 L376 15 C508 72 574 223 574 366 C574 484 518 592 377 592 C162 592 58 407 58 220 C58 100 115 -8 258 -8 L258 -8 Z M262 17 C151 17 87 92 87 221 C87 406 189 567 372 567 C476 567 545 499 545 367 C545 187 446 17 262 17 L262 17 Z " />
<glyph glyph-name="R" unicode="R" horiz-adv-x="511" d="M45 0 L73 0 L116 246 L202 246 C231 246 258 248 283 251 L408 0 L441 0 L311 257 C415 280 473 340 473 443 C473 534 405 583 299 583 L147 583 L45 0 Z M285 558 C392 558 444 519 444 438 C444 287 305 270 202 270 L120 270 L170 558 L285 558 Z " />
<glyph glyph-name="S" unicode="S" horiz-adv-x="442" d="M14 19 C66 0 104 -8 156 -8 C266 -8 377 41 377 170 C377 243 308 277 240 311 C175 344 117 375 117 436 C117 513 183 567 286 567 C333 567 376 556 420 538 L426 564 C389 580 341 592 288 592 C188 592 88 542 88 429 C88 360 153 323 219 291 C286 258 349 228 349 163 C349 64 261 17 165 17 C115 17 66 26 22 46 L14 19 Z " />
<glyph glyph-name="T" unicode="T" horiz-adv-x="489" d="M63 558 L283 558 L186 0 L214 0 L311 558 L533 558 L537 583 L67 583 L63 558 Z " />
<glyph glyph-name="U" unicode="U" horiz-adv-x="588" d="M252 -8 C367 -8 472 65 503 238 L564 583 L536 583 L475 234 C449 92 363 17 256 17 C160 17 100 60 100 163 C100 181 101 200 105 221 L169 583 L141 583 L77 216 C73 195 71 176 71 158 C71 36 157 -8 252 -8 L252 -8 Z " />
<glyph glyph-name="V" unicode="V" horiz-adv-x="518" d="M550 583 L518 583 L214 37 L211 37 L118 583 L86 583 L190 0 L221 0 L550 583 Z " />
<glyph glyph-name="W" unicode="W" horiz-adv-x="834" d="M862 583 L831 583 L555 33 L552 33 L488 583 L454 583 L180 33 L178 33 L125 583 L93 583 L155 0 L193 0 L460 538 L463 538 L528 0 L566 0 L862 583 Z " />
<glyph glyph-name="X" unicode="X" horiz-adv-x="486" d="M95 583 L235 298 L-26 0 L11 0 L247 274 L381 0 L415 0 L267 297 L517 583 L482 583 L255 321 L127 583 L95 583 Z " />
<glyph glyph-name="Y" unicode="Y" horiz-adv-x="483" d="M519 583 L487 583 L241 250 L238 250 L105 583 L74 583 L220 222 L181 0 L209 0 L248 220 L519 583 Z " />
<glyph glyph-name="Z" unicode="Z" horiz-adv-x="454" d="M366 0 L370 25 L29 25 L484 580 L483 583 L102 583 L98 558 L433 558 L-19 3 L-18 0 L366 0 Z " />
<glyph glyph-name="bracketleft" unicode="&#x5b;" horiz-adv-x="261" d="M5 -181 L145 -181 L149 -158 L34 -158 L178 655 L292 655 L296 679 L156 679 L5 -181 Z " />
<glyph glyph-name="backslash" unicode="&#x5c;" horiz-adv-x="570" d="M137 673 L110 673 L445 -91 L472 -91 L137 673 Z " />
<glyph glyph-name="bracketright" unicode="&#x5d;" horiz-adv-x="262" d="M254 679 L114 679 L111 655 L225 655 L81 -158 L-33 -158 L-37 -181 L103 -181 L254 679 Z " />
<glyph glyph-name="asciicircum" unicode="&#x5e;" horiz-adv-x="439" d="M60 241 L89 241 L299 558 L391 241 L417 241 L317 583 L287 583 L60 241 Z " />
<glyph glyph-name="underscore" unicode="&#x5f;" horiz-adv-x="633" d="M49 -112 L455 -112 L460 -88 L53 -88 L49 -112 Z " />
<glyph glyph-name="grave" unicode="&#x60;" horiz-adv-x="249" d="M275 529 L152 684 L124 684 L250 529 L275 529 Z " />
<glyph glyph-name="a" unicode="a" horiz-adv-x="411" d="M292 0 L373 458 L347 458 L341 423 C291 446 243 458 218 458 C190 458 175 449 157 431 C85 371 39 214 39 93 C39 59 43 26 48 0 L88 0 L299 184 L267 0 L292 0 Z M71 27 C68 44 66 70 66 99 C66 216 114 381 190 434 C195 435 202 435 208 435 C246 433 290 419 336 397 L304 216 L85 26 L71 27 Z " />
<glyph glyph-name="b" unicode="b" horiz-adv-x="416" d="M30 14 C72 -1 108 -8 157 -8 C279 -8 363 131 363 273 C363 366 340 458 265 458 C219 458 163 412 116 360 L168 653 L142 653 L30 14 Z M254 434 L278 434 C322 403 335 351 335 274 C335 114 241 16 166 16 C114 16 81 23 58 31 L110 326 C154 379 220 431 254 434 L254 434 Z " />
<glyph glyph-name="c" unicode="c" horiz-adv-x="365" d="M284 122 C236 76 167 34 120 18 L86 24 C74 56 67 95 67 139 C66 253 112 387 187 432 C195 434 203 434 212 434 C254 434 304 423 338 407 L349 432 C320 445 262 458 219 458 C194 458 175 449 156 432 C73 377 43 232 40 139 C40 89 48 40 65 -1 L115 -8 C198 21 260 72 297 105 L284 122 Z " />
<glyph glyph-name="d" unicode="d" horiz-adv-x="411" d="M292 0 L408 653 L381 653 L341 423 C291 446 243 458 218 458 C190 458 175 449 157 431 C85 371 39 214 39 93 C39 59 43 26 48 0 L88 0 L299 184 L267 0 L292 0 Z M71 27 C68 44 66 70 66 99 C66 216 114 381 190 434 C196 435 204 435 210 434 C248 432 291 419 336 397 L304 216 L85 26 L71 27 Z " />
<glyph glyph-name="e" unicode="e" horiz-adv-x="372" d="M304 105 L292 122 C234 74 159 32 108 18 L87 24 C74 57 67 100 67 161 C67 169 67 178 68 186 C159 225 283 292 337 337 L337 424 C297 448 258 458 225 458 C190 458 171 446 156 431 C72 368 42 252 42 148 C42 89 50 40 67 -1 L105 -8 C201 27 267 72 304 105 L304 105 Z M189 434 C197 435 207 436 215 436 C252 436 288 424 312 409 L312 346 C261 305 139 238 70 209 C82 314 132 403 189 434 L189 434 Z " />
<glyph glyph-name="f" unicode="f" horiz-adv-x="277" d="M52 428 L144 428 L63 -34 C48 -119 13 -171 -10 -190 C-49 -194 -86 -183 -113 -171 L-121 -194 C-93 -206 -63 -212 -30 -212 C31 -212 77 -104 89 -36 L170 428 L291 428 L295 450 L174 450 L181 491 C196 572 216 606 248 634 C262 638 275 639 287 639 C310 639 335 634 361 624 L368 646 C352 654 323 661 298 661 C273 661 257 659 242 651 C204 631 172 581 156 494 L148 450 L55 450 L52 428 Z " />
<glyph glyph-name="g" unicode="g" horiz-adv-x="412" d="M105 -213 C139 -213 180 -206 202 -192 C254 -155 282 -65 295 11 L374 458 L348 458 L341 422 C292 446 244 458 218 458 C190 458 175 449 157 431 C85 371 39 214 39 93 C39 59 43 26 48 0 L88 0 L299 184 L277 56 C253 -80 228 -143 193 -174 C161 -185 134 -188 109 -188 C72 -188 43 -179 10 -164 L2 -190 C37 -206 78 -213 105 -213 L105 -213 Z M71 27 C68 44 66 70 66 99 C66 216 114 381 190 434 C198 435 207 434 216 433 C252 429 294 418 337 397 L305 216 L85 26 L71 27 Z " />
<glyph glyph-name="h" unicode="h" horiz-adv-x="441" d="M54 0 L107 302 C190 373 267 430 320 433 L345 426 C350 414 355 398 355 368 C355 340 351 301 341 244 L300 0 L325 0 L369 246 C378 300 384 343 384 375 C384 434 366 458 328 458 C263 458 188 400 113 333 L169 653 L143 653 L29 0 L54 0 Z " />
<glyph glyph-name="i" unicode="i" horiz-adv-x="173" d="M54 0 L133 450 L107 450 L29 0 L54 0 Z M151 560 L171 657 L144 658 L127 564 L151 560 Z " />
<glyph glyph-name="j" unicode="j" horiz-adv-x="173" d="M27 -11 C18 -63 -18 -124 -71 -186 L-55 -197 C10 -128 43 -66 54 -4 L134 450 L108 450 L27 -11 Z M151 560 L171 657 L144 658 L127 564 L151 560 Z " />
<glyph glyph-name="k" unicode="k" horiz-adv-x="389" d="M54 0 L106 298 C163 353 238 414 293 436 L337 427 C335 355 298 277 212 204 L209 189 L282 0 L310 0 L233 194 C309 263 354 321 362 413 C363 423 363 435 363 446 L292 458 C250 442 172 389 112 329 L169 653 L143 653 L29 0 L54 0 Z " />
<glyph glyph-name="l" unicode="l" horiz-adv-x="187" d="M62 0 L177 653 L151 653 L36 0 L62 0 Z " />
<glyph glyph-name="m" unicode="m" horiz-adv-x="660" d="M519 0 L544 0 L588 246 C597 298 602 340 602 372 C602 431 585 458 547 458 C488 458 431 408 360 342 C361 353 361 363 361 372 C361 431 344 458 307 458 C247 458 185 403 112 334 L133 450 L107 450 L29 0 L54 0 L107 303 C186 377 253 430 300 433 L324 426 C329 414 334 397 334 366 C334 339 330 300 321 244 L279 0 L304 0 L348 246 L358 313 C435 385 494 430 540 433 L564 426 C569 414 574 397 574 365 C574 338 571 299 561 244 L519 0 Z " />
<glyph glyph-name="n" unicode="n" horiz-adv-x="440" d="M54 0 L107 303 C189 374 266 430 320 433 L344 426 C349 414 354 397 354 365 C354 338 351 299 341 244 L299 0 L324 0 L368 246 C378 301 383 343 383 375 C383 434 366 458 328 458 C262 458 188 400 112 333 L133 450 L107 450 L29 0 L54 0 Z " />
<glyph glyph-name="o" unicode="o" horiz-adv-x="412" d="M172 15 C149 16 127 19 107 31 C76 69 68 111 68 172 C68 294 136 417 219 436 C249 433 271 429 288 420 C315 397 335 349 334 287 C334 171 271 47 172 15 L172 15 Z M150 -8 C209 -8 263 33 301 88 C339 144 362 216 362 277 C362 413 306 458 245 458 C184 458 133 421 97 365 C62 310 41 236 41 162 C41 48 84 -8 150 -8 L150 -8 Z " />
<glyph glyph-name="p" unicode="p" horiz-adv-x="447" d="M48 -207 L85 6 C117 -4 147 -8 187 -8 C310 -8 394 130 394 273 C394 366 370 458 299 458 C269 458 211 429 152 395 L162 450 L136 450 L123 377 C84 352 47 327 22 307 L28 285 C48 303 82 327 119 350 L22 -207 L48 -207 Z M285 434 L309 434 C349 410 367 351 367 274 C367 119 276 16 198 16 C148 16 116 22 89 31 L148 369 C202 402 258 430 285 434 L285 434 Z " />
<glyph glyph-name="q" unicode="q" horiz-adv-x="410" d="M256 -207 L372 458 L346 458 L340 423 C291 446 243 458 218 458 C190 458 175 449 157 431 C85 371 39 214 39 93 C39 59 43 26 48 0 L88 0 L298 183 L230 -207 L256 -207 Z M71 27 C68 44 66 70 66 99 C66 216 114 381 190 434 C196 435 204 435 210 434 C248 431 290 419 335 398 L303 215 L85 26 L71 27 Z " />
<glyph glyph-name="r" unicode="r" horiz-adv-x="296" d="M54 0 L104 287 C159 357 221 416 256 435 L297 405 L313 425 C299 442 279 458 260 458 C232 458 169 397 111 324 L133 450 L107 450 L29 0 L54 0 Z " />
<glyph glyph-name="s" unicode="s" horiz-adv-x="334" d="M308 439 C273 455 234 458 215 458 C123 458 65 406 65 343 C65 287 106 252 160 214 C196 189 239 153 241 100 C241 82 234 65 229 55 C211 30 160 16 116 16 C87 16 48 21 11 40 L4 16 C40 -3 80 -8 115 -8 C153 -8 208 5 236 33 C256 52 266 81 266 112 C266 160 221 206 171 240 C121 274 91 307 91 348 C91 366 96 382 107 400 C129 420 169 434 214 434 C249 434 273 428 301 414 L308 439 Z " />
<glyph glyph-name="t" unicode="t" horiz-adv-x="302" d="M52 428 L121 428 L47 5 L94 -8 C163 14 241 74 267 103 L257 119 C223 86 162 44 104 20 L77 30 L146 428 L294 428 L297 450 L150 450 L171 567 L146 567 L125 450 L56 450 L52 428 Z " />
<glyph glyph-name="u" unicode="u" horiz-adv-x="438" d="M373 450 L320 147 C238 76 160 20 107 17 L84 22 C80 34 75 49 75 79 C75 106 79 145 89 206 L131 450 L105 450 L61 200 C52 146 46 104 46 72 C46 16 62 -8 99 -8 C165 -8 242 51 314 116 L294 0 L320 0 L398 450 L373 450 Z " />
<glyph glyph-name="v" unicode="v" horiz-adv-x="387" d="M362 450 L158 34 L155 34 C119 142 95 260 95 367 C95 394 97 422 101 450 L73 450 C70 424 69 397 69 370 C69 244 101 112 140 0 L166 0 L390 450 L362 450 Z " />
<glyph glyph-name="w" unicode="w" horiz-adv-x="639" d="M614 450 L410 34 L407 34 C372 142 347 260 347 367 C347 394 349 422 353 450 L325 450 C322 424 321 397 321 370 L321 359 L158 34 L155 34 C119 142 95 260 95 367 C95 394 97 422 101 450 L73 450 C70 424 69 397 69 370 C69 244 101 112 140 0 L166 0 L323 313 C330 205 359 95 392 0 L419 0 L642 450 L614 450 Z " />
<glyph glyph-name="x" unicode="x" horiz-adv-x="374" d="M356 450 L186 246 L100 450 L72 450 L168 224 L-23 0 L8 0 L177 203 L261 0 L289 0 L194 224 L387 450 L356 450 Z " />
<glyph glyph-name="y" unicode="y" horiz-adv-x="389" d="M76 -207 L191 50 L392 450 L363 450 L159 34 L155 34 C120 142 95 260 95 367 C95 394 97 422 101 450 L73 450 C70 424 69 397 69 370 C69 244 101 112 140 0 L143 0 L46 -202 L51 -207 L76 -207 Z " />
<glyph glyph-name="z" unicode="z" horiz-adv-x="347" d="M61 426 L303 426 L-2 16 L-1 0 L273 0 L276 24 L32 24 L337 432 L337 450 L64 450 L61 426 Z " />
<glyph glyph-name="braceleft" unicode="&#x7b;" horiz-adv-x="302" d="M167 -179 L186 -178 L189 -156 L167 -156 C104 -156 51 -144 51 -84 C51 -72 54 -58 58 -42 L108 142 C112 157 114 172 114 185 C114 220 100 245 74 253 C113 266 144 299 148 368 L164 550 C176 642 223 660 311 660 L333 660 L338 681 C338 681 310 682 309 682 C226 684 153 657 140 552 L123 358 C119 309 92 264 42 264 L38 242 C76 242 91 217 91 185 C91 174 89 161 86 149 L35 -40 C30 -58 28 -73 28 -87 C28 -159 90 -180 167 -179 L167 -179 Z " />
<glyph glyph-name="bar" unicode="&#x7c;" horiz-adv-x="192" d="M22 -92 L47 -92 L183 675 L158 675 L22 -92 Z " />
<glyph glyph-name="braceright" unicode="&#x7d;" horiz-adv-x="303" d="M133 679 L114 678 L111 656 L133 656 C196 656 249 644 249 584 C249 572 246 558 242 542 L192 358 C188 343 186 328 186 315 C186 280 200 255 226 247 C187 234 156 201 152 132 L136 -50 C124 -142 77 -160 -11 -160 L-33 -160 L-38 -181 C-38 -181 -10 -182 -9 -182 C74 -184 147 -157 160 -52 L177 142 C181 191 208 236 258 236 L262 258 C224 258 209 283 209 315 C209 326 211 339 214 351 L265 540 C270 558 272 573 272 587 C272 659 210 680 133 679 L133 679 Z " />
<glyph glyph-name="asciitilde" unicode="&#x7e;" horiz-adv-x="501" d="M348 276 C380 276 417 297 444 326 L433 342 C411 321 386 301 356 301 C286 301 258 345 190 345 C147 345 103 319 78 298 L87 280 C105 294 139 320 186 320 C247 320 283 276 348 276 L348 276 Z " />
<glyph glyph-name="uni00A0" unicode="&#xa0;" horiz-adv-x="250" d="" />
<glyph glyph-name="exclamdown" unicode="&#xa1;" horiz-adv-x="189" d="M82 105 L102 235 L80 235 L55 104 L14 -131 L40 -131 L82 105 Z M144 458 L118 460 L92 336 L122 335 L144 458 Z " />
<glyph glyph-name="cent" unicode="&#xa2;" horiz-adv-x="382" d="M292 122 C261 92 221 64 184 43 L186 56 L249 412 L248 412 L252 432 C285 428 320 419 346 407 L357 432 C334 442 293 452 256 456 L270 535 L247 535 L233 458 L227 458 C202 458 183 449 164 432 C81 377 51 232 48 139 C48 89 56 40 73 -1 L123 -8 L153 4 L139 -75 L163 -75 L179 16 C234 44 277 80 305 105 L292 122 Z M162 56 L157 30 C147 25 137 21 128 18 L94 24 C82 56 75 95 75 139 C74 253 120 387 195 432 C203 434 211 434 220 434 L229 434 L162 56 Z " />
<glyph glyph-name="sterling" unicode="&#xa3;" horiz-adv-x="507" d="M149 162 C152 181 154 202 154 224 C154 241 153 259 152 276 L380 276 L384 299 L150 299 C149 327 147 354 148 376 C150 490 222 559 331 559 C391 559 432 548 472 522 L477 552 C443 572 399 585 336 585 C236 585 125 532 121 371 C120 362 120 352 120 342 C120 328 120 313 121 299 L65 299 L60 276 L122 276 C123 246 125 217 124 197 C123 137 100 83 51 25 L15 25 L11 0 L410 0 L414 25 L81 25 C117 69 141 113 149 162 L149 162 Z " />
<glyph glyph-name="currency" unicode="&#xa4;" horiz-adv-x="512" d="M109 462 L92 447 L151 376 C113 341 88 296 88 238 C88 205 98 173 115 152 L28 77 L41 62 L127 136 C152 112 192 98 233 98 C274 98 312 114 346 138 L405 66 L420 81 L362 153 C401 188 427 236 427 297 C427 326 419 354 404 375 L484 445 L473 460 L392 391 C367 418 325 434 282 434 C239 434 201 417 167 391 L109 462 Z M278 410 C355 410 402 358 402 292 C402 207 329 122 237 122 C164 122 112 169 112 241 C112 333 197 410 278 410 L278 410 Z " />
<glyph glyph-name="yen" unicode="&#xa5;" horiz-adv-x="547" d="M462 172 L272 172 L277 200 L328 273 L479 273 L484 296 L345 296 L545 576 L515 576 L271 229 L269 229 L136 576 L105 576 L213 296 L77 296 L73 273 L222 273 L249 203 L244 172 L55 172 L51 149 L240 149 L214 0 L242 0 L268 149 L457 149 L462 172 Z " />
<glyph glyph-name="brokenbar" unicode="&#xa6;" horiz-adv-x="197" d="M23 -92 L50 -92 L102 199 L75 199 L23 -92 Z M108 390 L135 390 L186 675 L159 675 L108 390 Z " />
<glyph glyph-name="section" unicode="&#xa7;" horiz-adv-x="485" d="M160 -98 C282 -98 398 -14 398 123 C398 183 370 246 249 374 C227 398 176 451 143 483 C186 538 259 569 323 569 C373 569 434 558 474 537 L479 563 C450 575 404 592 327 592 C203 592 80 507 80 370 C80 312 109 245 220 124 C243 100 298 41 335 5 C293 -47 224 -76 163 -76 C113 -76 52 -65 12 -43 L7 -69 C36 -81 82 -98 160 -98 L160 -98 Z M240 139 C129 259 105 324 105 376 C105 409 114 438 128 463 C161 432 208 385 228 362 C348 236 374 167 374 117 C374 82 364 52 349 26 C314 61 263 113 240 139 L240 139 Z " />
<glyph glyph-name="dieresis" unicode="&#xa8;" horiz-adv-x="299" d="M135 577 L159 572 L178 658 L151 659 L135 577 Z M297 577 L321 572 L340 658 L313 659 L297 577 Z " />
<glyph glyph-name="copyright" unicode="&#xa9;" horiz-adv-x="727" d="M370 -14 C537 -14 673 122 673 289 C673 456 537 592 370 592 C203 592 67 456 67 289 C67 122 203 -14 370 -14 L370 -14 Z M370 3 C220 3 85 130 85 289 C85 451 220 575 370 575 C520 575 655 452 655 289 C655 130 520 3 370 3 L370 3 Z M376 109 C414 109 446 118 464 128 L464 152 C433 137 410 132 377 132 C288 132 239 175 239 289 C239 391 290 449 377 449 C403 449 429 446 464 430 L464 456 C445 464 417 473 379 473 C262 473 213 390 213 288 C213 171 261 109 376 109 L376 109 Z " />
<glyph glyph-name="ordfeminine" unicode="&#xaa;" horiz-adv-x="402" d="M323 381 L383 703 L362 703 L357 679 C321 696 285 703 266 703 C246 703 232 697 219 685 C165 643 130 532 130 447 C130 423 133 400 138 381 L169 381 L326 510 L302 381 L323 381 Z M156 402 C154 414 153 431 153 452 C153 535 188 648 245 685 C277 686 314 677 354 659 L331 537 L167 401 L156 402 Z M85 320 L344 320 L349 342 L89 342 L85 320 Z " />
<glyph glyph-name="guillemotleft" unicode="&#xab;" horiz-adv-x="390" d="M115 46 L140 46 L77 226 L203 405 L178 405 L47 226 L115 46 Z M269 46 L294 46 L231 226 L357 405 L332 405 L201 226 L269 46 Z " />
<glyph glyph-name="logicalnot" unicode="&#xac;" horiz-adv-x="518" d="M390 100 L416 100 L454 314 L91 314 L87 291 L424 291 L390 100 Z " />
<glyph glyph-name="registered" unicode="&#xae;" horiz-adv-x="493" d="M280 268 C386 268 467 348 467 454 C467 560 386 641 280 641 C174 641 93 560 93 454 C93 348 174 268 280 268 L280 268 Z M279 282 C188 282 107 350 107 454 C107 558 189 627 280 627 C371 627 452 558 452 453 C452 347 370 282 279 282 L279 282 Z M216 356 L232 356 L232 439 L263 439 C273 439 282 439 290 441 L346 356 L364 356 L305 444 C334 453 349 473 349 502 C349 545 320 562 277 562 L216 562 L216 356 Z M272 548 C315 548 333 532 333 502 C333 460 296 453 261 453 L232 453 L232 548 L272 548 Z " />
<glyph glyph-name="macron" unicode="&#xaf;" horiz-adv-x="333" d="M145 583 L357 583 L361 608 L149 608 L145 583 Z " />
<glyph glyph-name="degree" unicode="&#xb0;" horiz-adv-x="351" d="M197 365 C278 365 333 420 333 494 C333 546 293 592 230 592 C148 592 96 538 96 463 C96 411 132 365 197 365 L197 365 Z M201 383 C151 383 118 417 118 466 C118 532 163 572 225 572 C275 572 309 539 309 492 C309 427 266 383 201 383 L201 383 Z " />
<glyph glyph-name="plusminus" unicode="&#xb1;" horiz-adv-x="544" d="M94 318 L274 318 L243 144 L266 144 L297 318 L479 318 L483 341 L301 341 L333 522 L310 522 L278 341 L98 341 L94 318 Z M45 53 L432 53 L437 77 L50 77 L45 53 Z " />
<glyph glyph-name="twosuperior" unicode="&#xb2;" horiz-adv-x="223" d="M235 400 L238 418 L81 418 C163 481 255 586 255 652 C255 682 221 712 178 712 C148 712 120 704 91 683 L90 664 C122 684 145 694 175 694 C213 694 227 672 236 654 C232 588 147 486 58 416 L55 400 L235 400 Z " />
<glyph glyph-name="threesuperior" unicode="&#xb3;" horiz-adv-x="235" d="M54 410 C68 403 87 396 125 396 C193 396 251 437 251 486 C251 520 191 552 159 563 L159 566 C200 578 263 627 263 651 C263 691 226 712 184 712 C151 712 121 702 97 687 L97 669 C124 684 152 694 178 694 C217 694 235 685 246 649 C230 621 178 583 134 572 L133 557 C179 542 225 511 232 487 C228 434 170 414 127 414 C104 414 85 416 57 430 L54 410 Z " />
<glyph glyph-name="acute" unicode="&#xb4;" horiz-adv-x="249" d="M178 529 L304 684 L277 684 L153 529 L178 529 Z " />
<glyph glyph-name="mu" unicode="&#xb5;" horiz-adv-x="501" d="M0 -207 L25 -207 L67 33 C74 4 90 -7 117 -7 C181 -3 253 52 324 116 C324 114 318 80 318 78 C316 66 315 55 315 46 C315 11 329 -7 365 -7 C379 -7 400 -3 423 7 L422 25 C400 17 383 16 373 16 C350 16 341 26 341 51 C341 61 342 73 345 87 L408 450 L383 450 L329 147 C247 76 170 20 117 17 L94 22 C89 34 84 49 84 80 C84 107 88 146 98 206 L140 450 L115 450 L0 -207 Z " />
<glyph glyph-name="paragraph" unicode="&#xb6;" horiz-adv-x="534" d="M206 -207 L232 -207 L367 558 L475 558 L340 -207 L367 -207 L506 583 L349 583 C180 583 52 489 52 335 C52 223 145 171 272 168 L206 -207 Z " />
<glyph glyph-name="periodcentered" unicode="&#xb7;" horiz-adv-x="171" d="M75 276 L99 271 L118 358 L91 359 L75 276 Z " />
<glyph glyph-name="cedilla" unicode="&#xb8;" horiz-adv-x="264" d="M77 -214 C156 -214 192 -170 192 -120 C192 -80 149 -55 111 -47 L141 7 L119 7 L86 -54 L85 -64 C140 -71 168 -94 168 -123 C168 -172 122 -192 79 -192 C57 -192 22 -182 8 -171 L4 -195 C19 -205 53 -214 77 -214 L77 -214 Z " />
<glyph glyph-name="onesuperior" unicode="&#xb9;" horiz-adv-x="148" d="M125 400 L180 712 L166 712 L80 682 L77 663 L157 691 L105 400 L125 400 Z " />
<glyph glyph-name="ordmasculine" unicode="&#xba;" horiz-adv-x="411" d="M86 320 L352 320 L356 342 L90 342 L86 320 Z M230 392 C213 393 198 394 183 403 C160 430 154 460 154 503 C154 589 203 674 264 688 C286 685 301 684 313 677 C333 662 348 628 348 584 C348 502 303 415 230 392 L230 392 Z M213 376 C259 376 298 405 326 444 C355 483 371 533 371 576 C371 673 329 703 284 703 C238 703 199 678 173 638 C147 599 132 547 132 495 C132 415 165 376 213 376 L213 376 Z " />
<glyph glyph-name="guillemotright" unicode="&#xbb;" horiz-adv-x="391" d="M110 408 L85 408 L148 228 L22 49 L47 49 L178 228 L110 408 Z M265 408 L240 408 L303 228 L177 49 L202 49 L333 228 L265 408 Z " />
<glyph glyph-name="onequarter" unicode="&#xbc;" horiz-adv-x="584" d="M132 267 L187 579 L173 579 L87 549 L84 530 L164 558 L112 267 L132 267 Z M518 101 L520 118 L462 118 L496 312 L472 312 L294 119 L292 101 L439 101 L421 0 L441 0 L459 101 L518 101 Z M314 118 L472 289 L442 118 L314 118 Z M72 0 L519 573 L519 576 L497 576 L51 3 L51 0 L72 0 Z " />
<glyph glyph-name="onehalf" unicode="&#xbd;" horiz-adv-x="585" d="M134 267 L189 579 L175 579 L89 549 L86 530 L166 558 L114 267 L134 267 Z M502 0 L505 18 L348 18 C430 81 522 186 522 252 C522 282 488 312 445 312 C415 312 387 304 358 283 L357 264 C389 284 412 294 442 294 C480 294 494 272 503 254 C499 188 414 86 325 16 L322 0 L502 0 Z M61 0 L508 573 L508 576 L486 576 L40 3 L40 0 L61 0 Z " />
<glyph glyph-name="threequarters" unicode="&#xbe;" horiz-adv-x="607" d="M61 276 C75 269 94 262 132 262 C200 262 258 303 258 352 C258 386 198 418 166 429 L166 432 C207 444 270 493 270 517 C270 557 233 578 191 578 C158 578 128 568 104 553 L104 535 C131 550 159 560 185 560 C224 560 242 551 253 515 C237 487 185 449 141 438 L140 423 C186 408 232 377 239 353 C235 300 177 280 134 280 C111 280 92 282 64 296 L61 276 Z M540 101 L542 118 L484 118 L518 312 L494 312 L316 119 L314 101 L461 101 L443 0 L463 0 L481 101 L540 101 Z M336 118 L494 289 L464 118 L336 118 Z M105 0 L552 573 L552 576 L530 576 L84 3 L84 0 L105 0 Z " />
<glyph glyph-name="questiondown" unicode="&#xbf;" horiz-adv-x="321" d="M-1 -10 C-1 -48 83 -127 204 -143 L210 -120 C136 -109 41 -61 19 -8 C50 44 166 127 197 174 C202 182 204 190 204 197 C201 223 197 243 190 272 L169 268 L182 184 L90 99 C40 51 -1 13 -1 -10 L-1 -10 Z M233 457 L206 459 L181 335 L210 334 L233 457 Z " />
<glyph glyph-name="Agrave" unicode="&#xc0;" horiz-adv-x="499" d="M-19 0 L10 0 L124 209 L363 209 L392 0 L421 0 L337 583 L305 583 L-19 0 Z M314 554 L316 554 L360 232 L137 232 L314 554 Z M346 632 L287 736 L259 736 L320 632 L346 632 Z " />
<glyph glyph-name="Aacute" unicode="&#xc1;" horiz-adv-x="499" d="M-19 0 L10 0 L124 209 L363 209 L392 0 L421 0 L337 583 L305 583 L-19 0 Z M314 554 L316 554 L360 232 L137 232 L314 554 Z M324 632 L421 736 L391 736 L297 632 L324 632 Z " />
<glyph glyph-name="Acircumflex" unicode="&#xc2;" horiz-adv-x="499" d="M-19 0 L10 0 L124 209 L363 209 L392 0 L421 0 L337 583 L305 583 L-19 0 Z M314 554 L316 554 L360 232 L137 232 L314 554 Z M335 737 L215 627 L243 627 L339 716 L342 716 L405 627 L432 627 L355 737 L335 737 Z " />
<glyph glyph-name="Atilde" unicode="&#xc3;" horiz-adv-x="499" d="M-19 0 L10 0 L124 209 L363 209 L392 0 L421 0 L337 583 L305 583 L-19 0 Z M314 554 L316 554 L360 232 L137 232 L314 554 Z M452 707 C432 683 411 671 391 671 C353 671 321 707 278 707 C254 707 231 697 203 673 L214 658 C239 678 253 685 278 685 C316 685 346 649 387 649 C413 649 439 663 465 694 L452 707 Z " />
<glyph glyph-name="Adieresis" unicode="&#xc4;" horiz-adv-x="499" d="M-19 0 L10 0 L124 209 L363 209 L392 0 L421 0 L337 583 L305 583 L-19 0 Z M314 554 L316 554 L360 232 L137 232 L314 554 Z M233 640 L257 635 L275 721 L249 722 L233 640 Z M396 640 L420 635 L437 721 L411 722 L396 640 Z " />
<glyph glyph-name="Aring" unicode="&#xc5;" horiz-adv-x="499" d="M-19 0 L10 0 L124 209 L363 209 L392 0 L421 0 L337 583 L305 583 L-19 0 Z M314 554 L316 554 L360 232 L137 232 L314 554 Z M351 770 C305 770 256 740 256 681 C256 641 287 613 327 613 C375 613 423 641 423 702 C423 743 390 770 351 770 L351 770 Z M348 752 C380 752 403 732 403 698 C403 658 374 631 330 631 C294 631 276 653 276 683 C276 731 314 752 348 752 L348 752 Z " />
<glyph glyph-name="AE" unicode="&#xc6;" horiz-adv-x="739" d="M311 0 L648 0 L652 25 L343 25 L389 287 L646 287 L651 312 L394 312 L436 558 L740 558 L744 583 L399 583 L-30 0 L0 0 L149 203 L346 203 L311 0 Z M404 551 L407 551 L351 228 L167 228 L404 551 Z " />
<glyph glyph-name="Ccedilla" unicode="&#xc7;" horiz-adv-x="511" d="M237 -214 C316 -214 352 -170 352 -120 C352 -80 309 -55 271 -47 L293 -7 C349 -5 396 10 425 24 L429 51 C376 27 336 17 283 17 C150 17 88 87 88 221 C88 434 215 567 386 567 C423 567 463 563 508 540 L514 567 C485 580 442 592 391 592 C164 592 57 401 57 218 C57 90 118 -5 271 -8 L246 -54 L245 -64 C300 -71 328 -94 328 -123 C328 -172 282 -192 239 -192 C217 -192 182 -182 168 -171 L164 -195 C179 -205 213 -214 237 -214 L237 -214 Z " />
<glyph glyph-name="Egrave" unicode="&#xc8;" horiz-adv-x="472" d="M45 0 L382 0 L386 25 L77 25 L123 287 L380 287 L384 312 L128 312 L170 558 L474 558 L478 583 L147 583 L45 0 Z M356 632 L297 736 L269 736 L330 632 L356 632 Z " />
<glyph glyph-name="Eacute" unicode="&#xc9;" horiz-adv-x="472" d="M45 0 L382 0 L386 25 L77 25 L123 287 L380 287 L384 312 L128 312 L170 558 L474 558 L478 583 L147 583 L45 0 Z M295 632 L392 736 L362 736 L268 632 L295 632 Z " />
<glyph glyph-name="Ecircumflex" unicode="&#xca;" horiz-adv-x="472" d="M45 0 L382 0 L386 25 L77 25 L123 287 L380 287 L384 312 L128 312 L170 558 L474 558 L478 583 L147 583 L45 0 Z M336 736 L216 626 L244 626 L340 715 L343 715 L406 626 L433 626 L356 736 L336 736 Z " />
<glyph glyph-name="Edieresis" unicode="&#xcb;" horiz-adv-x="472" d="M45 0 L382 0 L386 25 L77 25 L123 287 L380 287 L384 312 L128 312 L170 558 L474 558 L478 583 L147 583 L45 0 Z M224 641 L248 636 L266 722 L240 723 L224 641 Z M387 641 L411 636 L428 722 L402 723 L387 641 Z " />
<glyph glyph-name="Igrave" unicode="&#xcc;" horiz-adv-x="207" d="M186 632 L127 736 L99 736 L160 632 L186 632 Z M45 0 L73 0 L175 583 L147 583 L45 0 Z " />
<glyph glyph-name="Iacute" unicode="&#xcd;" horiz-adv-x="207" d="M45 0 L73 0 L175 583 L147 583 L45 0 Z M177 632 L274 736 L244 736 L150 632 L177 632 Z " />
<glyph glyph-name="Icircumflex" unicode="&#xce;" horiz-adv-x="207" d="M45 0 L73 0 L175 583 L147 583 L45 0 Z M179 736 L59 626 L87 626 L183 715 L186 715 L249 626 L276 626 L199 736 L179 736 Z " />
<glyph glyph-name="Idieresis" unicode="&#xcf;" horiz-adv-x="207" d="M45 0 L73 0 L175 583 L147 583 L45 0 Z M77 641 L101 636 L119 722 L93 723 L77 641 Z M240 641 L264 636 L281 722 L255 723 L240 641 Z " />
<glyph glyph-name="Eth" unicode="&#xd0;" horiz-adv-x="591" d="M44 287 L96 287 L46 0 L155 0 C366 0 546 111 546 350 C546 510 418 583 250 583 L148 583 L100 311 L48 311 L44 287 Z M296 287 L300 311 L128 311 L171 558 L240 558 C394 558 515 502 515 345 C515 132 359 25 163 25 L78 25 L124 287 L296 287 Z " />
<glyph glyph-name="Ntilde" unicode="&#xd1;" horiz-adv-x="603" d="M494 707 C474 683 453 671 433 671 C395 671 363 707 320 707 C296 707 273 697 245 673 L256 658 C281 678 295 685 320 685 C358 685 388 649 429 649 C455 649 481 663 507 694 L494 707 Z M45 0 L73 0 L169 543 L170 543 L437 0 L469 0 L571 583 L543 583 L448 42 L446 42 L179 583 L147 583 L45 0 Z " />
<glyph glyph-name="Ograve" unicode="&#xd2;" horiz-adv-x="619" d="M378 632 L319 736 L291 736 L352 632 L378 632 Z M258 -8 C469 -8 574 186 574 366 C574 484 518 592 377 592 C162 592 58 407 58 220 C58 100 115 -8 258 -8 L258 -8 Z M262 17 C151 17 87 92 87 221 C87 406 189 567 372 567 C476 567 545 499 545 367 C545 187 446 17 262 17 L262 17 Z " />
<glyph glyph-name="Oacute" unicode="&#xd3;" horiz-adv-x="619" d="M371 632 L468 736 L438 736 L344 632 L371 632 Z M258 -8 C469 -8 574 186 574 366 C574 484 518 592 377 592 C162 592 58 407 58 220 C58 100 115 -8 258 -8 L258 -8 Z M262 17 C151 17 87 92 87 221 C87 406 189 567 372 567 C476 567 545 499 545 367 C545 187 446 17 262 17 L262 17 Z " />
<glyph glyph-name="Ocircumflex" unicode="&#xd4;" horiz-adv-x="619" d="M258 -8 C469 -8 574 186 574 366 C574 484 518 592 377 592 C162 592 58 407 58 220 C58 100 115 -8 258 -8 L258 -8 Z M262 17 C151 17 87 92 87 221 C87 406 189 567 372 567 C476 567 545 499 545 367 C545 187 446 17 262 17 L262 17 Z M395 737 L275 627 L303 627 L399 716 L402 716 L465 627 L492 627 L415 737 L395 737 Z " />
<glyph glyph-name="Otilde" unicode="&#xd5;" horiz-adv-x="619" d="M500 706 C480 682 459 670 439 670 C401 670 369 706 326 706 C302 706 279 696 251 672 L262 657 C287 677 301 684 326 684 C364 684 394 648 435 648 C461 648 487 662 513 693 L500 706 Z M258 -8 C469 -8 574 186 574 366 C574 484 518 592 377 592 C162 592 58 407 58 220 C58 100 115 -8 258 -8 L258 -8 Z M262 17 C151 17 87 92 87 221 C87 406 189 567 372 567 C476 567 545 499 545 367 C545 187 446 17 262 17 L262 17 Z " />
<glyph glyph-name="Odieresis" unicode="&#xd6;" horiz-adv-x="619" d="M275 640 L299 635 L317 721 L291 722 L275 640 Z M438 640 L462 635 L479 721 L453 722 L438 640 Z M258 -8 C469 -8 574 186 574 366 C574 484 518 592 377 592 C162 592 58 407 58 220 C58 100 115 -8 258 -8 L258 -8 Z M262 17 C151 17 87 92 87 221 C87 406 189 567 372 567 C476 567 545 499 545 367 C545 187 446 17 262 17 L262 17 Z " />
<glyph glyph-name="multiply" unicode="&#xd7;" horiz-adv-x="462" d="M54 123 L235 278 L360 124 L380 141 L254 295 L435 450 L421 467 L240 312 L114 468 L95 451 L221 295 L40 140 L54 123 Z " />
<glyph glyph-name="Oslash" unicode="&#xd8;" horiz-adv-x="619" d="M258 -8 C469 -8 574 186 574 366 C574 422 561 477 532 518 L598 592 L569 592 L518 535 C487 570 440 592 377 592 C162 592 58 407 58 220 C58 162 71 107 100 66 L35 -8 L63 -8 L114 49 C146 14 193 -8 258 -8 L258 -8 Z M87 221 C87 406 189 567 372 567 C425 567 469 549 499 514 L120 88 C98 121 87 166 87 221 L87 221 Z M262 17 C206 17 163 35 133 70 L512 496 C533 464 545 421 545 367 C545 187 446 17 262 17 L262 17 Z " />
<glyph glyph-name="Ugrave" unicode="&#xd9;" horiz-adv-x="588" d="M383 632 L324 736 L296 736 L357 632 L383 632 Z M252 -8 C367 -8 472 65 503 238 L564 583 L536 583 L475 234 C449 92 363 17 256 17 C160 17 100 60 100 163 C100 181 101 200 105 221 L169 583 L141 583 L77 216 C73 195 71 176 71 158 C71 36 157 -8 252 -8 L252 -8 Z " />
<glyph glyph-name="Uacute" unicode="&#xda;" horiz-adv-x="588" d="M353 632 L450 736 L420 736 L326 632 L353 632 Z M252 -8 C367 -8 472 65 503 238 L564 583 L536 583 L475 234 C449 92 363 17 256 17 C160 17 100 60 100 163 C100 181 101 200 105 221 L169 583 L141 583 L77 216 C73 195 71 176 71 158 C71 36 157 -8 252 -8 L252 -8 Z " />
<glyph glyph-name="Ucircumflex" unicode="&#xdb;" horiz-adv-x="588" d="M252 -8 C367 -8 472 65 503 238 L564 583 L536 583 L475 234 C449 92 363 17 256 17 C160 17 100 60 100 163 C100 181 101 200 105 221 L169 583 L141 583 L77 216 C73 195 71 176 71 158 C71 36 157 -8 252 -8 L252 -8 Z M371 736 L251 626 L279 626 L375 715 L378 715 L441 626 L468 626 L391 736 L371 736 Z " />
<glyph glyph-name="Udieresis" unicode="&#xdc;" horiz-adv-x="588" d="M262 640 L286 635 L304 721 L278 722 L262 640 Z M425 640 L449 635 L466 721 L440 722 L425 640 Z M252 -8 C367 -8 472 65 503 238 L564 583 L536 583 L475 234 C449 92 363 17 256 17 C160 17 100 60 100 163 C100 181 101 200 105 221 L169 583 L141 583 L77 216 C73 195 71 176 71 158 C71 36 157 -8 252 -8 L252 -8 Z " />
<glyph glyph-name="Yacute" unicode="&#xdd;" horiz-adv-x="483" d="M519 583 L487 583 L241 250 L238 250 L105 583 L74 583 L220 222 L181 0 L209 0 L248 220 L519 583 Z M293 632 L390 736 L360 736 L266 632 L293 632 Z " />
<glyph glyph-name="Thorn" unicode="&#xde;" horiz-adv-x="489" d="M45 0 L73 0 L92 112 L182 112 C356 112 455 185 455 325 C455 418 384 475 283 475 L156 475 L175 583 L147 583 L45 0 Z M268 450 C383 450 425 394 425 318 C425 163 284 137 181 137 L97 137 L151 450 L268 450 Z " />
<glyph glyph-name="germandbls" unicode="&#xdf;" horiz-adv-x="522" d="M52 428 L145 428 L63 -34 C55 -81 39 -120 22 -147 C11 -167 0 -180 -10 -188 C-49 -191 -85 -181 -112 -169 L-121 -194 C-93 -206 -63 -212 -30 -212 C31 -212 77 -100 89 -36 L181 488 C195 569 240 604 272 632 C288 636 302 637 316 637 C385 637 462 616 462 534 C462 444 266 438 266 330 C266 275 304 252 358 214 C394 189 437 154 439 101 C439 83 432 66 427 55 C409 30 358 16 314 16 C285 16 246 21 209 40 L203 16 C239 -3 278 -8 313 -8 C352 -8 406 5 434 33 C454 52 464 81 464 112 C464 160 419 206 369 240 C320 273 292 296 292 334 C292 430 488 433 488 539 C488 624 410 660 327 660 C297 660 276 656 257 644 C223 623 172 575 157 491 L149 450 L55 450 L52 428 Z " />
<glyph glyph-name="agrave" unicode="&#xe0;" horiz-adv-x="411" d="M292 0 L373 458 L347 458 L341 423 C291 446 243 458 218 458 C190 458 175 449 157 431 C85 371 39 214 39 93 C39 59 43 26 48 0 L88 0 L299 184 L267 0 L292 0 Z M71 27 C68 44 66 70 66 99 C66 216 114 381 190 434 C195 435 202 435 208 435 C246 433 290 419 336 397 L304 216 L85 26 L71 27 Z M289 528 L166 683 L138 683 L264 528 L289 528 Z " />
<glyph glyph-name="aacute" unicode="&#xe1;" horiz-adv-x="411" d="M292 0 L373 458 L347 458 L341 423 C291 446 243 458 218 458 C190 458 175 449 157 431 C85 371 39 214 39 93 C39 59 43 26 48 0 L88 0 L299 184 L267 0 L292 0 Z M71 27 C68 44 66 70 66 99 C66 216 114 381 190 434 C195 435 202 435 208 435 C246 433 290 419 336 397 L304 216 L85 26 L71 27 Z M259 529 L385 684 L358 684 L234 529 L259 529 Z " />
<glyph glyph-name="acircumflex" unicode="&#xe2;" horiz-adv-x="411" d="M292 0 L373 458 L347 458 L341 423 C291 446 243 458 218 458 C190 458 175 449 157 431 C85 371 39 214 39 93 C39 59 43 26 48 0 L88 0 L299 184 L267 0 L292 0 Z M71 27 C68 44 66 70 66 99 C66 216 114 381 190 434 C195 435 202 435 208 435 C246 433 290 419 336 397 L304 216 L85 26 L71 27 Z M280 676 L145 529 L174 529 L284 652 L286 652 L351 529 L378 529 L300 676 L280 676 Z " />
<glyph glyph-name="atilde" unicode="&#xe3;" horiz-adv-x="411" d="M292 0 L373 458 L347 458 L341 423 C291 446 243 458 218 458 C190 458 175 449 157 431 C85 371 39 214 39 93 C39 59 43 26 48 0 L88 0 L299 184 L267 0 L292 0 Z M71 27 C68 44 66 70 66 99 C66 216 114 381 190 434 C195 435 202 435 208 435 C246 433 290 419 336 397 L304 216 L85 26 L71 27 Z M393 613 C372 591 358 583 337 583 C300 583 283 611 240 611 C217 611 194 600 166 577 L177 562 C202 582 218 589 240 589 C278 589 293 560 334 560 C361 560 378 571 405 600 L393 613 Z " />
<glyph glyph-name="adieresis" unicode="&#xe4;" horiz-adv-x="411" d="M292 0 L373 458 L347 458 L341 423 C291 446 243 458 218 458 C190 458 175 449 157 431 C85 371 39 214 39 93 C39 59 43 26 48 0 L88 0 L299 184 L267 0 L292 0 Z M71 27 C68 44 66 70 66 99 C66 216 114 381 190 434 C195 435 202 435 208 435 C246 433 290 419 336 397 L304 216 L85 26 L71 27 Z M172 577 L196 572 L215 658 L188 659 L172 577 Z M334 577 L358 572 L377 658 L350 659 L334 577 Z " />
<glyph glyph-name="aring" unicode="&#xe5;" horiz-adv-x="411" d="M292 0 L373 458 L347 458 L341 423 C291 446 243 458 218 458 C190 458 175 449 157 431 C85 371 39 214 39 93 C39 59 43 26 48 0 L88 0 L299 184 L267 0 L292 0 Z M71 27 C68 44 66 70 66 99 C66 216 114 381 190 434 C195 435 202 435 208 435 C246 433 290 419 336 397 L304 216 L85 26 L71 27 Z M296 681 C249 681 201 652 201 592 C201 552 232 524 272 524 C319 524 367 552 367 613 C367 655 335 681 296 681 L296 681 Z M293 663 C325 663 347 643 347 610 C347 569 318 542 275 542 C239 542 221 565 221 594 C221 642 258 663 293 663 L293 663 Z " />
<glyph glyph-name="ae" unicode="&#xe6;" horiz-adv-x="629" d="M561 105 L549 122 C491 74 416 32 365 18 L344 24 C332 57 325 98 325 158 L325 186 C416 225 540 292 594 337 L594 424 C552 448 514 457 485 457 C467 457 453 454 444 449 C420 437 401 423 385 406 C333 432 253 458 218 458 C190 458 175 449 157 431 C85 371 39 214 39 93 C39 59 43 26 48 0 L88 0 L299 170 L299 148 C299 89 307 40 324 -1 L363 -8 C459 27 524 72 561 105 L561 105 Z M71 27 C68 44 66 70 66 99 C66 216 114 381 190 434 C202 435 214 434 227 433 C274 426 325 407 368 387 C358 374 350 360 342 346 C320 303 307 250 301 198 L85 26 L71 27 Z M446 434 C454 435 462 436 470 436 C509 436 544 425 569 409 L569 346 C519 305 397 239 328 210 C340 314 390 403 446 434 L446 434 Z " />
<glyph glyph-name="ccedilla" unicode="&#xe7;" horiz-adv-x="365" d="M75 -213 C154 -213 190 -169 190 -119 C190 -79 147 -54 109 -46 L134 0 C207 29 263 74 297 105 L284 122 C236 76 167 34 120 18 L86 24 C74 56 67 95 67 139 C66 253 112 387 187 432 C195 434 203 434 212 434 C254 434 304 423 338 407 L349 432 C320 445 262 458 219 458 C194 458 175 449 156 432 C73 377 43 232 40 139 C40 89 48 40 65 -1 L109 -7 L84 -53 L83 -63 C138 -70 166 -93 166 -122 C166 -171 120 -191 77 -191 C55 -191 20 -181 6 -170 L2 -194 C17 -204 51 -213 75 -213 L75 -213 Z " />
<glyph glyph-name="egrave" unicode="&#xe8;" horiz-adv-x="372" d="M304 105 L292 122 C234 74 159 32 108 18 L87 24 C74 57 67 100 67 161 C67 169 67 178 68 186 C159 225 283 292 337 337 L337 424 C297 448 258 458 225 458 C190 458 171 446 156 431 C72 368 42 252 42 148 C42 89 50 40 67 -1 L105 -8 C201 27 267 72 304 105 L304 105 Z M189 434 C197 435 207 436 215 436 C252 436 288 424 312 409 L312 346 C261 305 139 238 70 209 C82 314 132 403 189 434 L189 434 Z M284 529 L161 684 L133 684 L259 529 L284 529 Z " />
<glyph glyph-name="eacute" unicode="&#xe9;" horiz-adv-x="372" d="M304 105 L292 122 C234 74 159 32 108 18 L87 24 C74 57 67 100 67 161 C67 169 67 178 68 186 C159 225 283 292 337 337 L337 424 C297 448 258 458 225 458 C190 458 171 446 156 431 C72 368 42 252 42 148 C42 89 50 40 67 -1 L105 -8 C201 27 267 72 304 105 L304 105 Z M189 434 C197 435 207 436 215 436 C252 436 288 424 312 409 L312 346 C261 305 139 238 70 209 C82 314 132 403 189 434 L189 434 Z M246 529 L372 684 L345 684 L221 529 L246 529 Z " />
<glyph glyph-name="ecircumflex" unicode="&#xea;" horiz-adv-x="372" d="M304 105 L292 122 C234 74 159 32 108 18 L87 24 C74 57 67 100 67 161 C67 169 67 178 68 186 C159 225 283 292 337 337 L337 424 C297 448 258 458 225 458 C190 458 171 446 156 431 C72 368 42 252 42 148 C42 89 50 40 67 -1 L105 -8 C201 27 267 72 304 105 L304 105 Z M189 434 C197 435 207 436 215 436 C252 436 288 424 312 409 L312 346 C261 305 139 238 70 209 C82 314 132 403 189 434 L189 434 Z M271 676 L136 529 L165 529 L275 652 L277 652 L342 529 L369 529 L291 676 L271 676 Z " />
<glyph glyph-name="edieresis" unicode="&#xeb;" horiz-adv-x="372" d="M304 105 L292 122 C234 74 159 32 108 18 L87 24 C74 57 67 100 67 161 C67 169 67 178 68 186 C159 225 283 292 337 337 L337 424 C297 448 258 458 225 458 C190 458 171 446 156 431 C72 368 42 252 42 148 C42 89 50 40 67 -1 L105 -8 C201 27 267 72 304 105 L304 105 Z M189 434 C197 435 207 436 215 436 C252 436 288 424 312 409 L312 346 C261 305 139 238 70 209 C82 314 132 403 189 434 L189 434 Z M318 575 L342 570 L361 656 L334 657 L318 575 Z M156 575 L180 570 L199 656 L172 657 L156 575 Z " />
<glyph glyph-name="igrave" unicode="&#xec;" horiz-adv-x="173" d="M54 0 L133 450 L107 450 L29 0 L54 0 Z M138 529 L15 684 L-13 684 L113 529 L138 529 Z " />
<glyph glyph-name="iacute" unicode="&#xed;" horiz-adv-x="173" d="M148 529 L274 684 L247 684 L123 529 L148 529 Z M54 0 L133 450 L107 450 L29 0 L54 0 Z " />
<glyph glyph-name="icircumflex" unicode="&#xee;" horiz-adv-x="173" d="M153 676 L18 529 L47 529 L157 652 L159 652 L224 529 L251 529 L173 676 L153 676 Z M54 0 L133 450 L107 450 L29 0 L54 0 Z " />
<glyph glyph-name="idieresis" unicode="&#xef;" horiz-adv-x="173" d="M44 577 L68 572 L87 658 L60 659 L44 577 Z M206 577 L230 572 L249 658 L222 659 L206 577 Z M54 0 L133 450 L107 450 L29 0 L54 0 Z " />
<glyph glyph-name="eth" unicode="&#xf0;" horiz-adv-x="412" d="M181 520 L256 577 C300 531 323 482 331 424 C305 446 275 458 245 458 C180 458 125 415 89 352 C58 299 41 231 41 162 C41 48 84 -8 150 -8 C211 -8 265 27 303 92 C340 157 362 241 362 359 C362 439 350 517 277 593 L354 651 L342 669 L262 609 C240 629 212 650 180 670 L166 648 C195 629 220 611 240 592 L167 537 L181 520 Z M335 345 C335 158 268 49 176 15 C153 16 127 19 107 31 C76 69 68 111 68 172 C68 294 136 417 219 436 C221 436 252 435 254 435 C267 434 312 412 334 393 C335 378 335 362 335 345 L335 345 Z " />
<glyph glyph-name="ntilde" unicode="&#xf1;" horiz-adv-x="440" d="M54 0 L107 303 C189 374 266 430 320 433 L344 426 C349 414 354 397 354 365 C354 338 351 299 341 244 L299 0 L324 0 L368 246 C378 301 383 343 383 375 C383 434 366 458 328 458 C262 458 188 400 112 333 L133 450 L107 450 L29 0 L54 0 Z M381 613 C360 591 346 583 325 583 C288 583 271 611 228 611 C205 611 182 600 154 577 L165 562 C190 582 206 589 228 589 C266 589 281 560 322 560 C349 560 366 571 393 600 L381 613 Z " />
<glyph glyph-name="ograve" unicode="&#xf2;" horiz-adv-x="412" d="M172 15 C149 16 127 19 107 31 C76 69 68 111 68 172 C68 294 136 417 219 436 C249 433 271 429 288 420 C315 397 335 349 334 287 C334 171 271 47 172 15 L172 15 Z M150 -8 C209 -8 263 33 301 88 C339 144 362 216 362 277 C362 413 306 458 245 458 C184 458 133 421 97 365 C62 310 41 236 41 162 C41 48 84 -8 150 -8 L150 -8 Z M260 529 L137 684 L109 684 L235 529 L260 529 Z " />
<glyph glyph-name="oacute" unicode="&#xf3;" horiz-adv-x="412" d="M240 529 L366 684 L339 684 L215 529 L240 529 Z M172 15 C149 16 127 19 107 31 C76 69 68 111 68 172 C68 294 136 417 219 436 C249 433 271 429 288 420 C315 397 335 349 334 287 C334 171 271 47 172 15 L172 15 Z M150 -8 C209 -8 263 33 301 88 C339 144 362 216 362 277 C362 413 306 458 245 458 C184 458 133 421 97 365 C62 310 41 236 41 162 C41 48 84 -8 150 -8 L150 -8 Z " />
<glyph glyph-name="ocircumflex" unicode="&#xf4;" horiz-adv-x="412" d="M271 671 L136 524 L165 524 L275 647 L277 647 L342 524 L369 524 L291 671 L271 671 Z M172 15 C149 16 127 19 107 31 C76 69 68 111 68 172 C68 294 136 417 219 436 C249 433 271 429 288 420 C315 397 335 349 334 287 C334 171 271 47 172 15 L172 15 Z M150 -8 C209 -8 263 33 301 88 C339 144 362 216 362 277 C362 413 306 458 245 458 C184 458 133 421 97 365 C62 310 41 236 41 162 C41 48 84 -8 150 -8 L150 -8 Z " />
<glyph glyph-name="otilde" unicode="&#xf5;" horiz-adv-x="412" d="M172 15 C149 16 127 19 107 31 C76 69 68 111 68 172 C68 294 136 417 219 436 C249 433 271 429 288 420 C315 397 335 349 334 287 C334 171 271 47 172 15 L172 15 Z M150 -8 C209 -8 263 33 301 88 C339 144 362 216 362 277 C362 413 306 458 245 458 C184 458 133 421 97 365 C62 310 41 236 41 162 C41 48 84 -8 150 -8 L150 -8 Z M372 613 C351 591 337 583 316 583 C279 583 262 611 219 611 C196 611 173 600 145 577 L156 562 C181 582 197 589 219 589 C257 589 272 560 313 560 C340 560 357 571 384 600 L372 613 Z " />
<glyph glyph-name="odieresis" unicode="&#xf6;" horiz-adv-x="412" d="M151 577 L175 572 L194 658 L167 659 L151 577 Z M313 577 L337 572 L356 658 L329 659 L313 577 Z M172 15 C149 16 127 19 107 31 C76 69 68 111 68 172 C68 294 136 417 219 436 C249 433 271 429 288 420 C315 397 335 349 334 287 C334 171 271 47 172 15 L172 15 Z M150 -8 C209 -8 263 33 301 88 C339 144 362 216 362 277 C362 413 306 458 245 458 C184 458 133 421 97 365 C62 310 41 236 41 162 C41 48 84 -8 150 -8 L150 -8 Z " />
<glyph glyph-name="divide" unicode="&#xf7;" horiz-adv-x="533" d="M77 283 L463 283 L468 306 L81 306 L77 283 Z M277 419 L301 414 L320 501 L293 502 L277 419 Z M220 94 L244 89 L263 176 L236 177 L220 94 Z " />
<glyph glyph-name="oslash" unicode="&#xf8;" horiz-adv-x="413" d="M150 -8 C209 -8 263 33 301 88 C339 144 362 216 362 277 C362 326 354 363 342 390 L397 459 L372 459 L332 409 C310 444 278 458 245 458 C184 458 133 421 97 365 C62 310 41 236 41 162 C41 121 46 88 56 62 L1 -8 L25 -8 L65 43 C84 9 113 -8 150 -8 L150 -8 Z M172 15 C149 16 127 19 107 31 C97 42 90 54 84 67 L322 365 C330 343 334 317 334 287 C334 171 271 47 172 15 L172 15 Z M68 172 C68 294 136 417 219 436 C249 433 271 429 288 420 C298 411 306 400 313 385 L77 88 C70 112 68 139 68 172 L68 172 Z " />
<glyph glyph-name="ugrave" unicode="&#xf9;" horiz-adv-x="438" d="M373 450 L320 147 C238 76 160 20 107 17 L84 22 C80 34 75 49 75 79 C75 106 79 145 89 206 L131 450 L105 450 L61 200 C52 146 46 104 46 72 C46 16 62 -8 99 -8 C165 -8 242 51 314 116 L294 0 L320 0 L398 450 L373 450 Z M286 529 L163 684 L135 684 L261 529 L286 529 Z " />
<glyph glyph-name="uacute" unicode="&#xfa;" horiz-adv-x="438" d="M373 450 L320 147 C238 76 160 20 107 17 L84 22 C80 34 75 49 75 79 C75 106 79 145 89 206 L131 450 L105 450 L61 200 C52 146 46 104 46 72 C46 16 62 -8 99 -8 C165 -8 242 51 314 116 L294 0 L320 0 L398 450 L373 450 Z M247 529 L373 684 L346 684 L222 529 L247 529 Z " />
<glyph glyph-name="ucircumflex" unicode="&#xfb;" horiz-adv-x="438" d="M373 450 L320 147 C238 76 160 20 107 17 L84 22 C80 34 75 49 75 79 C75 106 79 145 89 206 L131 450 L105 450 L61 200 C52 146 46 104 46 72 C46 16 62 -8 99 -8 C165 -8 242 51 314 116 L294 0 L320 0 L398 450 L373 450 Z M279 676 L144 529 L173 529 L283 652 L285 652 L350 529 L377 529 L299 676 L279 676 Z " />
<glyph glyph-name="udieresis" unicode="&#xfc;" horiz-adv-x="438" d="M373 450 L320 147 C238 76 160 20 107 17 L84 22 C80 34 75 49 75 79 C75 106 79 145 89 206 L131 450 L105 450 L61 200 C52 146 46 104 46 72 C46 16 62 -8 99 -8 C165 -8 242 51 314 116 L294 0 L320 0 L398 450 L373 450 Z M338 577 L362 572 L381 658 L354 659 L338 577 Z M176 577 L200 572 L219 658 L192 659 L176 577 Z " />
<glyph glyph-name="yacute" unicode="&#xfd;" horiz-adv-x="389" d="M76 -207 L191 50 L392 450 L363 450 L159 34 L155 34 C120 142 95 260 95 367 C95 394 97 422 101 450 L73 450 C70 424 69 397 69 370 C69 244 101 112 140 0 L143 0 L46 -202 L51 -207 L76 -207 Z M222 529 L348 684 L321 684 L197 529 L222 529 Z " />
<glyph glyph-name="thorn" unicode="&#xfe;" horiz-adv-x="418" d="M18 -207 L55 6 C87 -4 118 -8 157 -8 C281 -8 365 130 365 273 C365 366 341 458 269 458 C240 458 182 430 124 396 L169 653 L143 653 L-7 -207 L18 -207 Z M256 434 L280 434 C320 410 338 351 338 274 C338 119 247 16 169 16 C119 16 86 22 60 31 L119 369 C174 402 229 430 256 434 L256 434 Z " />
<glyph glyph-name="ydieresis" unicode="&#xff;" horiz-adv-x="389" d="M151 578 L175 573 L194 659 L167 660 L151 578 Z M313 578 L337 573 L356 659 L329 660 L313 578 Z M76 -207 L191 50 L392 450 L363 450 L159 34 L155 34 C120 142 95 260 95 367 C95 394 97 422 101 450 L73 450 C70 424 69 397 69 370 C69 244 101 112 140 0 L143 0 L46 -202 L51 -207 L76 -207 Z " />
<glyph glyph-name="Amacron" unicode="&#x100;" horiz-adv-x="499" d="M-19 0 L10 0 L124 209 L363 209 L392 0 L421 0 L337 583 L305 583 L-19 0 Z M314 554 L316 554 L360 232 L137 232 L314 554 Z M221 670 L433 670 L438 695 L226 695 L221 670 Z " />
<glyph glyph-name="amacron" unicode="&#x101;" horiz-adv-x="411" d="M292 0 L373 458 L347 458 L341 423 C291 446 243 458 218 458 C190 458 175 449 157 431 C85 371 39 214 39 93 C39 59 43 26 48 0 L88 0 L299 184 L267 0 L292 0 Z M71 27 C68 44 66 70 66 99 C66 216 114 381 190 434 C195 435 202 435 208 435 C246 433 290 419 336 397 L304 216 L85 26 L71 27 Z M174 583 L386 583 L390 608 L178 608 L174 583 Z " />
<glyph glyph-name="Abreve" unicode="&#x102;" horiz-adv-x="499" d="M-19 0 L10 0 L124 209 L363 209 L392 0 L421 0 L337 583 L305 583 L-19 0 Z M314 554 L316 554 L360 232 L137 232 L314 554 Z M331 659 C283 659 261 685 260 721 L237 717 C239 663 279 637 327 637 C382 637 427 661 447 718 L427 722 C414 686 383 659 331 659 L331 659 Z " />
<glyph glyph-name="abreve" unicode="&#x103;" horiz-adv-x="411" d="M292 0 L373 458 L347 458 L341 423 C291 446 243 458 218 458 C190 458 175 449 157 431 C85 371 39 214 39 93 C39 59 43 26 48 0 L88 0 L299 184 L267 0 L292 0 Z M71 27 C68 44 66 70 66 99 C66 216 114 381 190 434 C195 435 202 435 208 435 C246 433 290 419 336 397 L304 216 L85 26 L71 27 Z M273 554 C215 554 205 599 204 634 L182 630 C183 576 207 534 269 534 C331 534 371 574 392 631 L371 635 C357 599 332 554 273 554 L273 554 Z " />
<glyph glyph-name="Aogonek" unicode="&#x104;" horiz-adv-x="499" d="M418 -190 L421 -168 C396 -180 369 -186 346 -186 C315 -186 285 -174 285 -132 C285 -77 350 -27 406 0 L421 0 L337 583 L305 583 L-19 0 L10 0 L124 209 L363 209 L390 10 C330 -16 260 -73 260 -138 C260 -187 295 -209 343 -209 C364 -209 394 -202 418 -190 L418 -190 Z M314 554 L316 554 L360 232 L137 232 L314 554 Z " />
<glyph glyph-name="aogonek" unicode="&#x105;" horiz-adv-x="411" d="M291 -190 L294 -168 C269 -180 242 -186 219 -186 C188 -186 158 -174 158 -132 C158 -77 223 -27 279 0 L292 0 L373 458 L347 458 L341 423 C291 446 243 458 218 458 C190 458 175 449 157 431 C85 371 39 214 39 93 C39 59 43 26 48 0 L88 0 L299 184 L269 13 C208 -12 133 -71 133 -138 C133 -187 168 -209 216 -209 C237 -209 267 -202 291 -190 L291 -190 Z M71 27 C68 44 66 70 66 99 C66 216 114 381 190 434 C195 435 202 435 208 435 C246 433 290 419 336 397 L305 216 L85 26 L71 27 Z " />
<glyph glyph-name="Cacute" unicode="&#x106;" horiz-adv-x="510" d="M276 -8 C339 -8 393 9 424 24 L428 51 C375 27 335 17 282 17 C149 17 87 87 87 221 C87 434 214 567 385 567 C422 567 462 563 507 540 L513 567 C484 580 441 592 390 592 C163 592 56 401 56 218 C56 89 119 -8 276 -8 L276 -8 Z M358 632 L455 736 L425 736 L331 632 L358 632 Z " />
<glyph glyph-name="cacute" unicode="&#x107;" horiz-adv-x="365" d="M239 529 L365 684 L338 684 L214 529 L239 529 Z M284 122 C236 76 167 34 120 18 L86 24 C74 56 67 95 67 139 C66 253 112 387 187 432 C195 434 203 434 212 434 C254 434 304 423 338 407 L349 432 C320 445 262 458 219 458 C194 458 175 449 156 432 C73 377 43 232 40 139 C40 89 48 40 65 -1 L115 -8 C198 21 260 72 297 105 L284 122 Z " />
<glyph glyph-name="Ccircumflex" unicode="&#x108;" horiz-adv-x="510" d="M276 -8 C339 -8 393 9 424 24 L428 51 C375 27 335 17 282 17 C149 17 87 87 87 221 C87 434 214 567 385 567 C422 567 462 563 507 540 L513 567 C484 580 441 592 390 592 C163 592 56 401 56 218 C56 89 119 -8 276 -8 L276 -8 Z M396 736 L276 626 L304 626 L400 715 L403 715 L466 626 L493 626 L416 736 L396 736 Z " />
<glyph glyph-name="ccircumflex" unicode="&#x109;" horiz-adv-x="365" d="M261 676 L126 529 L155 529 L265 652 L267 652 L332 529 L359 529 L281 676 L261 676 Z M284 122 C236 76 167 34 120 18 L86 24 C74 56 67 95 67 139 C66 253 112 387 187 432 C195 434 203 434 212 434 C254 434 304 423 338 407 L349 432 C320 445 262 458 219 458 C194 458 175 449 156 432 C73 377 43 232 40 139 C40 89 48 40 65 -1 L115 -8 C198 21 260 72 297 105 L284 122 Z " />
<glyph glyph-name="Cdotaccent" unicode="&#x10a;" horiz-adv-x="510" d="M364 640 L388 636 L406 721 L380 722 L364 640 Z M276 -8 C339 -8 393 9 424 24 L428 51 C375 27 335 17 282 17 C149 17 87 87 87 221 C87 434 214 567 385 567 C422 567 462 563 507 540 L513 567 C484 580 441 592 390 592 C163 592 56 401 56 218 C56 89 119 -8 276 -8 L276 -8 Z " />
<glyph glyph-name="cdotaccent" unicode="&#x10b;" horiz-adv-x="365" d="M284 122 C236 76 167 34 120 18 L86 24 C74 56 67 95 67 139 C66 253 112 387 187 432 C195 434 203 434 212 434 C254 434 304 423 338 407 L349 432 C320 445 262 458 219 458 C194 458 175 449 156 432 C73 377 43 232 40 139 C40 89 48 40 65 -1 L115 -8 C198 21 260 72 297 105 L284 122 Z M232 579 L256 574 L275 661 L248 662 L232 579 Z " />
<glyph glyph-name="Ccaron" unicode="&#x10c;" horiz-adv-x="510" d="M276 -8 C339 -8 393 9 424 24 L428 51 C375 27 335 17 282 17 C149 17 87 87 87 221 C87 434 214 567 385 567 C422 567 462 563 507 540 L513 567 C484 580 441 592 390 592 C163 592 56 401 56 218 C56 89 119 -8 276 -8 L276 -8 Z M395 626 L514 736 L486 736 L390 646 L388 646 L323 736 L296 736 L374 626 L395 626 Z " />
<glyph glyph-name="ccaron" unicode="&#x10d;" horiz-adv-x="365" d="M257 529 L389 676 L361 676 L251 550 L249 550 L183 676 L156 676 L236 529 L257 529 Z M284 122 C236 76 167 34 120 18 L86 24 C74 56 67 95 67 139 C66 253 112 387 187 432 C195 434 203 434 212 434 C254 434 304 423 338 407 L349 432 C320 445 262 458 219 458 C194 458 175 449 156 432 C73 377 43 232 40 139 C40 89 48 40 65 -1 L115 -8 C198 21 260 72 297 105 L284 122 Z " />
<glyph glyph-name="Dcaron" unicode="&#x10e;" horiz-adv-x="590" d="M45 0 L154 0 C365 0 545 111 545 350 C545 510 417 583 249 583 L147 583 L45 0 Z M239 558 C393 558 514 502 514 345 C514 132 358 25 162 25 L77 25 L170 558 L239 558 Z M302 624 L421 734 L393 734 L297 644 L295 644 L230 734 L203 734 L281 624 L302 624 Z " />
<glyph glyph-name="dcaron" unicode="&#x10f;" horiz-adv-x="413" d="M292 0 L408 653 L381 653 L341 423 C291 446 243 458 218 458 C190 458 175 449 157 431 C85 371 39 214 39 93 C39 59 43 26 48 0 L88 0 L299 184 L267 0 L292 0 Z M71 27 C68 44 66 70 66 99 C66 216 114 381 190 434 C196 435 204 435 210 434 C248 432 291 419 336 397 L304 216 L85 26 L71 27 Z M431 486 L453 486 L509 660 L483 660 L431 486 Z " />
<glyph glyph-name="Dcroat" unicode="&#x110;" horiz-adv-x="591" d="M43 287 L96 287 L46 0 L155 0 C366 0 546 111 546 350 C546 510 418 583 250 583 L148 583 L100 311 L47 311 L43 287 Z M295 287 L300 311 L128 311 L171 558 L240 558 C394 558 515 502 515 345 C515 132 359 25 163 25 L78 25 L124 287 L295 287 Z " />
<glyph glyph-name="dcroat" unicode="&#x111;" horiz-adv-x="411" d="M216 553 L363 553 L341 423 C291 446 243 458 218 458 C190 458 175 449 157 431 C85 371 39 214 39 93 C39 59 43 26 48 0 L88 0 L299 184 L267 0 L292 0 L390 553 L456 553 L460 576 L394 576 L408 653 L381 653 L367 576 L220 576 L216 553 Z M71 27 C68 44 66 70 66 99 C66 216 114 381 190 434 C196 435 204 435 210 434 C248 432 291 419 336 397 L304 216 L85 26 L71 27 Z " />
<glyph glyph-name="Emacron" unicode="&#x112;" horiz-adv-x="472" d="M45 0 L382 0 L386 25 L77 25 L123 287 L380 287 L384 312 L128 312 L170 558 L474 558 L478 583 L147 583 L45 0 Z M226 671 L438 671 L443 696 L231 696 L226 671 Z " />
<glyph glyph-name="emacron" unicode="&#x113;" horiz-adv-x="372" d="M304 105 L292 122 C234 74 159 32 108 18 L87 24 C74 57 67 100 67 161 C67 169 67 178 68 186 C159 225 283 292 337 337 L337 424 C297 448 258 458 225 458 C190 458 171 446 156 431 C72 368 42 252 42 148 C42 89 50 40 67 -1 L105 -8 C201 27 267 72 304 105 L304 105 Z M189 434 C197 435 207 436 215 436 C252 436 288 424 312 409 L312 346 C261 305 139 238 70 209 C82 314 132 403 189 434 L189 434 Z M130 583 L342 583 L346 608 L134 608 L130 583 Z " />
<glyph glyph-name="Ebreve" unicode="&#x114;" horiz-adv-x="472" d="M45 0 L382 0 L386 25 L77 25 L123 287 L380 287 L384 312 L128 312 L170 558 L474 558 L478 583 L147 583 L45 0 Z M328 659 C280 659 258 685 257 721 L234 717 C236 663 276 637 324 637 C379 637 424 661 444 718 L424 722 C411 686 380 659 328 659 L328 659 Z " />
<glyph glyph-name="ebreve" unicode="&#x115;" horiz-adv-x="372" d="M304 105 L292 122 C234 74 159 32 108 18 L87 24 C74 57 67 100 67 161 C67 169 67 178 68 186 C159 225 283 292 337 337 L337 424 C297 448 258 458 225 458 C190 458 171 446 156 431 C72 368 42 252 42 148 C42 89 50 40 67 -1 L105 -8 C201 27 267 72 304 105 L304 105 Z M189 434 C197 435 207 436 215 436 C252 436 288 424 312 409 L312 346 C261 305 139 238 70 209 C82 314 132 403 189 434 L189 434 Z M242 554 C184 554 174 599 173 634 L151 630 C152 576 176 534 238 534 C300 534 340 574 361 631 L340 635 C326 599 301 554 242 554 L242 554 Z " />
<glyph glyph-name="Edotaccent" unicode="&#x116;" horiz-adv-x="472" d="M45 0 L382 0 L386 25 L77 25 L123 287 L380 287 L384 312 L128 312 L170 558 L474 558 L478 583 L147 583 L45 0 Z M305 639 L329 635 L347 720 L321 721 L305 639 Z " />
<glyph glyph-name="edotaccent" unicode="&#x117;" horiz-adv-x="372" d="M304 105 L292 122 C234 74 159 32 108 18 L87 24 C74 57 67 100 67 161 C67 169 67 178 68 186 C159 225 283 292 337 337 L337 424 C297 448 258 458 225 458 C190 458 171 446 156 431 C72 368 42 252 42 148 C42 89 50 40 67 -1 L105 -8 C201 27 267 72 304 105 L304 105 Z M189 434 C197 435 207 436 215 436 C252 436 288 424 312 409 L312 346 C261 305 139 238 70 209 C82 314 132 403 189 434 L189 434 Z M225 579 L249 574 L268 661 L241 662 L225 579 Z " />
<glyph glyph-name="Eogonek" unicode="&#x118;" horiz-adv-x="472" d="M45 0 L328 0 C274 -30 219 -81 219 -138 C219 -187 254 -209 302 -209 C323 -209 353 -202 377 -190 L380 -168 C355 -180 328 -186 305 -186 C274 -186 244 -174 244 -132 C244 -77 309 -27 365 0 L382 0 L386 25 L77 25 L123 287 L380 287 L384 312 L128 312 L170 558 L474 558 L478 583 L147 583 L45 0 Z " />
<glyph glyph-name="eogonek" unicode="&#x119;" horiz-adv-x="373" d="M304 105 L292 122 C234 74 159 32 108 18 L87 24 C74 57 67 100 67 161 C67 169 67 178 68 186 C159 225 283 292 337 337 L337 424 C297 448 258 458 225 458 C190 458 171 446 156 431 C72 368 42 252 42 148 C42 89 50 40 67 -1 L99 -7 C62 -38 34 -77 34 -120 C34 -169 68 -192 116 -192 C137 -192 165 -185 189 -173 L192 -151 C167 -163 142 -169 119 -169 C88 -169 59 -156 59 -114 C59 -68 102 -22 152 11 C223 42 273 77 304 105 L304 105 Z M189 434 C197 435 207 436 215 436 C252 436 288 424 312 409 L312 346 C261 305 139 238 70 209 C82 314 132 403 189 434 L189 434 Z " />
<glyph glyph-name="Ecaron" unicode="&#x11a;" horiz-adv-x="472" d="M45 0 L382 0 L386 25 L77 25 L123 287 L380 287 L384 312 L128 312 L170 558 L474 558 L478 583 L147 583 L45 0 Z M332 626 L451 736 L423 736 L327 646 L325 646 L260 736 L233 736 L311 626 L332 626 Z " />
<glyph glyph-name="ecaron" unicode="&#x11b;" horiz-adv-x="372" d="M304 105 L292 122 C234 74 159 32 108 18 L87 24 C74 57 67 100 67 161 C67 169 67 178 68 186 C159 225 283 292 337 337 L337 424 C297 448 258 458 225 458 C190 458 171 446 156 431 C72 368 42 252 42 148 C42 89 50 40 67 -1 L105 -8 C201 27 267 72 304 105 L304 105 Z M189 434 C197 435 207 436 215 436 C252 436 288 424 312 409 L312 346 C261 305 139 238 70 209 C82 314 132 403 189 434 L189 434 Z M249 529 L381 676 L353 676 L243 550 L241 550 L175 676 L148 676 L228 529 L249 529 Z " />
<glyph glyph-name="Gcircumflex" unicode="&#x11c;" horiz-adv-x="555" d="M274 -8 C343 -8 397 8 447 29 L493 294 L465 294 L421 44 C382 29 342 17 280 17 C156 17 87 79 87 219 C87 440 216 566 385 567 C443 568 487 557 533 535 L538 562 C500 580 456 592 389 592 C162 592 56 399 56 216 C56 88 118 -8 274 -8 L274 -8 Z M387 736 L267 626 L295 626 L391 715 L394 715 L457 626 L484 626 L407 736 L387 736 Z " />
<glyph glyph-name="gcircumflex" unicode="&#x11d;" horiz-adv-x="412" d="M105 -213 C139 -213 180 -206 202 -192 C254 -155 282 -65 295 11 L374 458 L348 458 L341 422 C292 446 244 458 218 458 C190 458 175 449 157 431 C85 371 39 214 39 93 C39 59 43 26 48 0 L88 0 L299 184 L277 56 C253 -80 228 -143 193 -174 C161 -185 134 -188 109 -188 C72 -188 43 -179 10 -164 L2 -190 C37 -206 78 -213 105 -213 L105 -213 Z M71 27 C68 44 66 70 66 99 C66 216 114 381 190 434 C198 435 207 434 216 433 C252 429 294 418 337 397 L305 216 L85 26 L71 27 Z M285 676 L150 529 L179 529 L289 652 L291 652 L356 529 L383 529 L305 676 L285 676 Z " />
<glyph glyph-name="Gbreve" unicode="&#x11e;" horiz-adv-x="555" d="M274 -8 C343 -8 397 8 447 29 L493 294 L465 294 L421 44 C382 29 342 17 280 17 C156 17 87 79 87 219 C87 440 216 566 385 567 C443 568 487 557 533 535 L538 562 C500 580 456 592 389 592 C162 592 56 399 56 216 C56 88 118 -8 274 -8 L274 -8 Z M392 658 C344 658 322 684 321 720 L298 716 C300 662 340 636 388 636 C443 636 488 660 508 717 L488 721 C475 685 444 658 392 658 L392 658 Z " />
<glyph glyph-name="gbreve" unicode="&#x11f;" horiz-adv-x="412" d="M105 -213 C139 -213 180 -206 202 -192 C254 -155 282 -65 295 11 L374 458 L348 458 L341 422 C292 446 244 458 218 458 C190 458 175 449 157 431 C85 371 39 214 39 93 C39 59 43 26 48 0 L88 0 L299 184 L277 56 C253 -80 228 -143 193 -174 C161 -185 134 -188 109 -188 C72 -188 43 -179 10 -164 L2 -190 C37 -206 78 -213 105 -213 L105 -213 Z M71 27 C68 44 66 70 66 99 C66 216 114 381 190 434 C198 435 207 434 216 433 C252 429 294 418 337 397 L305 216 L85 26 L71 27 Z M256 554 C198 554 188 599 187 634 L165 630 C166 576 190 534 252 534 C314 534 354 574 375 631 L354 635 C340 599 315 554 256 554 L256 554 Z " />
<glyph glyph-name="Gdotaccent" unicode="&#x120;" horiz-adv-x="555" d="M274 -8 C343 -8 397 8 447 29 L493 294 L465 294 L421 44 C382 29 342 17 280 17 C156 17 87 79 87 219 C87 440 216 566 385 567 C443 568 487 557 533 535 L538 562 C500 580 456 592 389 592 C162 592 56 399 56 216 C56 88 118 -8 274 -8 L274 -8 Z M366 640 L390 636 L408 721 L382 722 L366 640 Z " />
<glyph glyph-name="gdotaccent" unicode="&#x121;" horiz-adv-x="412" d="M105 -213 C139 -213 180 -206 202 -192 C254 -155 282 -65 295 11 L374 458 L348 458 L341 422 C292 446 244 458 218 458 C190 458 175 449 157 431 C85 371 39 214 39 93 C39 59 43 26 48 0 L88 0 L299 184 L277 56 C253 -80 228 -143 193 -174 C161 -185 134 -188 109 -188 C72 -188 43 -179 10 -164 L2 -190 C37 -206 78 -213 105 -213 L105 -213 Z M71 27 C68 44 66 70 66 99 C66 216 114 381 190 434 C198 435 207 434 216 433 C252 429 294 418 337 397 L305 216 L85 26 L71 27 Z M265 579 L289 574 L308 661 L281 662 L265 579 Z " />
<glyph glyph-name="Gcommaaccent" unicode="&#x122;" horiz-adv-x="555" d="M274 -8 C343 -8 397 8 447 29 L493 294 L465 294 L421 44 C382 29 342 17 280 17 C156 17 87 79 87 219 C87 440 216 566 385 567 C443 568 487 557 533 535 L538 562 C500 580 456 592 389 592 C162 592 56 399 56 216 C56 88 118 -8 274 -8 L274 -8 Z M221 -200 L242 -200 L292 -62 L266 -62 L221 -200 Z " />
<glyph glyph-name="gcommaaccent" unicode="&#x123;" horiz-adv-x="412" d="M105 -213 C139 -213 180 -206 202 -192 C254 -155 282 -65 295 11 L374 458 L348 458 L341 422 C292 446 244 458 218 458 C190 458 175 449 157 431 C85 371 39 214 39 93 C39 59 43 26 48 0 L88 0 L299 184 L277 56 C253 -80 228 -143 193 -174 C161 -185 134 -188 109 -188 C72 -188 43 -179 10 -164 L2 -190 C37 -206 78 -213 105 -213 L105 -213 Z M71 27 C68 44 66 70 66 99 C66 216 114 381 190 434 C198 435 207 434 216 433 C252 429 294 418 337 397 L305 216 L85 26 L71 27 Z M327 689 L306 689 L256 549 L282 549 L327 689 Z " />
<glyph glyph-name="Hcircumflex" unicode="&#x124;" horiz-adv-x="609" d="M447 0 L475 0 L578 583 L550 583 L502 314 L128 314 L175 583 L147 583 L45 0 L73 0 L123 289 L498 289 L447 0 Z M375 736 L255 626 L283 626 L379 715 L382 715 L445 626 L472 626 L395 736 L375 736 Z " />
<glyph glyph-name="hcircumflex" unicode="&#x125;" horiz-adv-x="441" d="M54 0 L107 302 C190 373 267 430 320 433 L345 426 C350 414 355 398 355 368 C355 340 351 301 341 244 L300 0 L325 0 L369 246 C378 300 384 343 384 375 C384 434 366 458 328 458 C263 458 188 400 113 333 L169 653 L143 653 L29 0 L54 0 Z M176 789 L56 679 L84 679 L180 768 L183 768 L246 679 L273 679 L196 789 L176 789 Z " />
<glyph glyph-name="Hbar" unicode="&#x126;" horiz-adv-x="610" d="M79 466 L127 466 L46 0 L74 0 L124 289 L499 289 L448 0 L476 0 L558 466 L611 466 L615 489 L562 489 L579 583 L551 583 L534 489 L159 489 L176 583 L148 583 L131 489 L84 489 L79 466 Z M155 466 L530 466 L503 314 L129 314 L155 466 Z " />
<glyph glyph-name="hbar" unicode="&#x127;" horiz-adv-x="441" d="M62 538 L123 538 L29 0 L54 0 L107 302 C190 373 267 430 320 433 L345 426 C350 414 355 398 355 368 C355 340 351 301 341 244 L300 0 L325 0 L369 246 C378 300 384 343 384 375 C384 434 366 458 328 458 C263 458 188 400 113 333 L148 538 L327 538 L330 560 L152 560 L169 653 L143 653 L127 560 L66 560 L62 538 Z " />
<glyph glyph-name="Itilde" unicode="&#x128;" horiz-adv-x="207" d="M45 0 L73 0 L175 583 L147 583 L45 0 Z M293 707 C273 683 252 671 232 671 C194 671 162 707 119 707 C95 707 72 697 44 673 L55 658 C80 678 94 685 119 685 C157 685 187 649 228 649 C254 649 280 663 306 694 L293 707 Z " />
<glyph glyph-name="itilde" unicode="&#x129;" horiz-adv-x="173" d="M54 0 L133 450 L107 450 L29 0 L54 0 Z M246 613 C225 591 211 583 190 583 C153 583 136 611 93 611 C70 611 47 600 19 577 L30 562 C55 582 71 589 93 589 C131 589 146 560 187 560 C214 560 231 571 258 600 L246 613 Z " />
<glyph glyph-name="Imacron" unicode="&#x12a;" horiz-adv-x="207" d="M45 0 L73 0 L175 583 L147 583 L45 0 Z M66 671 L278 671 L283 696 L71 696 L66 671 Z " />
<glyph glyph-name="imacron" unicode="&#x12b;" horiz-adv-x="173" d="M54 0 L133 450 L107 450 L29 0 L54 0 Z M38 583 L250 583 L254 608 L42 608 L38 583 Z " />
<glyph glyph-name="Ibreve" unicode="&#x12c;" horiz-adv-x="207" d="M45 0 L73 0 L175 583 L147 583 L45 0 Z M173 659 C125 659 103 685 102 721 L79 717 C81 663 121 637 169 637 C224 637 269 661 289 718 L269 722 C256 686 225 659 173 659 L173 659 Z " />
<glyph glyph-name="ibreve" unicode="&#x12d;" horiz-adv-x="173" d="M54 0 L133 450 L107 450 L29 0 L54 0 Z M138 554 C80 554 70 599 69 634 L47 630 C48 576 72 534 134 534 C196 534 236 574 257 631 L236 635 C222 599 197 554 138 554 L138 554 Z " />
<glyph glyph-name="Iogonek" unicode="&#x12e;" horiz-adv-x="206" d="M74 -190 L77 -168 C52 -180 25 -186 2 -186 C-29 -186 -59 -174 -59 -132 C-59 -77 6 -27 62 0 L73 0 L175 583 L147 583 L47 11 C-13 -16 -84 -73 -84 -138 C-84 -187 -49 -209 -1 -209 C20 -209 50 -202 74 -190 L74 -190 Z " />
<glyph glyph-name="iogonek" unicode="&#x12f;" horiz-adv-x="174" d="M54 0 L54 3 C55 3 56 3 57 4 L55 6 L133 450 L107 450 L30 10 C-29 -17 -98 -74 -98 -138 C-98 -187 -63 -209 -15 -209 C6 -209 36 -202 60 -190 L63 -168 C38 -180 11 -186 -12 -186 C-43 -186 -73 -174 -73 -132 C-73 -77 -8 -27 48 0 L54 0 Z M126 579 L150 574 L169 661 L142 662 L126 579 Z " />
<glyph glyph-name="Idotaccent" unicode="&#x130;" horiz-adv-x="207" d="M153 640 L177 636 L195 721 L169 722 L153 640 Z M45 0 L73 0 L175 583 L147 583 L45 0 Z " />
<glyph glyph-name="dotlessi" unicode="&#x131;" horiz-adv-x="173" d="M54 0 L133 450 L107 450 L29 0 L54 0 Z " />
<glyph glyph-name="IJ" unicode="&#x132;" horiz-adv-x="427" d="M45 0 L73 0 L175 583 L147 583 L45 0 Z M150 -81 C249 6 313 89 329 179 L400 583 L372 583 L302 181 C284 83 207 5 130 -65 L150 -81 Z " />
<glyph glyph-name="ij" unicode="&#x133;" horiz-adv-x="346" d="M54 0 L133 450 L107 450 L29 0 L54 0 Z M151 560 L171 657 L144 658 L127 564 L151 560 Z M199 -11 C190 -63 154 -124 101 -186 L117 -197 C182 -128 215 -66 226 -4 L306 450 L280 450 L199 -11 Z M323 560 L343 657 L316 658 L299 564 L323 560 Z " />
<glyph glyph-name="Jcircumflex" unicode="&#x134;" horiz-adv-x="220" d="M-56 -81 C43 6 107 89 123 179 L194 583 L166 583 L96 181 C78 83 1 5 -76 -65 L-56 -81 Z M195 736 L75 626 L103 626 L199 715 L202 715 L265 626 L292 626 L215 736 L195 736 Z " />
<glyph glyph-name="jcircumflex" unicode="&#x135;" horiz-adv-x="173" d="M152 676 L17 529 L46 529 L156 652 L158 652 L223 529 L250 529 L172 676 L152 676 Z M28 -11 C19 -63 -17 -124 -71 -186 L-55 -197 C10 -128 43 -66 54 -4 L133 450 L107 450 L28 -11 Z " />
<glyph glyph-name="Kcommaaccent" unicode="&#x136;" horiz-adv-x="480" d="M140 -200 L161 -200 L211 -62 L185 -62 L140 -200 Z M375 0 L409 0 L192 303 L519 583 L482 583 L166 311 L164 297 L375 0 Z M45 0 L73 0 L175 583 L147 583 L45 0 Z " />
<glyph glyph-name="kcommaaccent" unicode="&#x137;" horiz-adv-x="389" d="M54 0 L106 298 C163 353 238 414 293 436 L337 427 C335 355 298 277 212 204 L209 189 L282 0 L310 0 L233 194 C309 263 354 321 362 413 C363 423 363 435 363 446 L292 458 C250 442 172 389 112 329 L169 653 L143 653 L29 0 L54 0 Z M91 -200 L112 -200 L162 -62 L136 -62 L91 -200 Z " />
<glyph glyph-name="Lacute" unicode="&#x139;" horiz-adv-x="419" d="M45 0 L368 0 L372 25 L77 25 L175 583 L147 583 L45 0 Z M185 632 L282 736 L252 736 L158 632 L185 632 Z " />
<glyph glyph-name="lacute" unicode="&#x13a;" horiz-adv-x="187" d="M172 686 L269 790 L239 790 L145 686 L172 686 Z M62 0 L177 653 L151 653 L36 0 L62 0 Z " />
<glyph glyph-name="Lcommaaccent" unicode="&#x13b;" horiz-adv-x="419" d="M45 0 L368 0 L372 25 L77 25 L175 583 L147 583 L45 0 Z M154 -200 L175 -200 L225 -62 L199 -62 L154 -200 Z " />
<glyph glyph-name="lcommaaccent" unicode="&#x13c;" horiz-adv-x="187" d="M-15 -200 L6 -200 L56 -62 L30 -62 L-15 -200 Z M62 0 L177 653 L151 653 L36 0 L62 0 Z " />
<glyph glyph-name="Lcaron" unicode="&#x13d;" horiz-adv-x="419" d="M45 0 L368 0 L372 25 L77 25 L175 583 L147 583 L45 0 Z M267 470 L289 470 L345 644 L319 644 L267 470 Z " />
<glyph glyph-name="lcaron" unicode="&#x13e;" horiz-adv-x="189" d="M201 480 L223 480 L279 654 L253 654 L201 480 Z M62 0 L177 653 L151 653 L36 0 L62 0 Z " />
<glyph glyph-name="Ldot" unicode="&#x13f;" horiz-adv-x="432" d="M45 0 L368 0 L372 25 L77 25 L175 583 L147 583 L45 0 Z M300 290 L324 285 L343 372 L316 373 L300 290 Z " />
<glyph glyph-name="ldot" unicode="&#x140;" horiz-adv-x="208" d="M186 278 L210 274 L228 359 L202 360 L186 278 Z M62 0 L177 653 L151 653 L36 0 L62 0 Z " />
<glyph glyph-name="Lslash" unicode="&#x141;" horiz-adv-x="422" d="M15 210 L93 251 L49 0 L372 0 L376 25 L81 25 L123 267 L276 347 L281 373 L128 292 L179 583 L151 583 L97 276 L20 235 L15 210 Z " />
<glyph glyph-name="lslash" unicode="&#x142;" horiz-adv-x="233" d="M19 266 L99 309 L45 0 L71 0 L128 324 L231 379 L235 405 L132 350 L186 653 L160 653 L104 334 L23 291 L19 266 Z " />
<glyph glyph-name="Nacute" unicode="&#x143;" horiz-adv-x="603" d="M356 632 L453 736 L423 736 L329 632 L356 632 Z M45 0 L73 0 L169 543 L170 543 L437 0 L469 0 L571 583 L543 583 L448 42 L446 42 L179 583 L147 583 L45 0 Z " />
<glyph glyph-name="nacute" unicode="&#x144;" horiz-adv-x="440" d="M54 0 L107 303 C189 374 266 430 320 433 L344 426 C349 414 354 397 354 365 C354 338 351 299 341 244 L299 0 L324 0 L368 246 C378 301 383 343 383 375 C383 434 366 458 328 458 C262 458 188 400 112 333 L133 450 L107 450 L29 0 L54 0 Z M250 529 L376 684 L349 684 L225 529 L250 529 Z " />
<glyph glyph-name="Ncommaaccent" unicode="&#x145;" horiz-adv-x="603" d="M208 -200 L229 -200 L279 -62 L253 -62 L208 -200 Z M45 0 L73 0 L169 543 L170 543 L437 0 L469 0 L571 583 L543 583 L448 42 L446 42 L179 583 L147 583 L45 0 Z " />
<glyph glyph-name="ncommaaccent" unicode="&#x146;" horiz-adv-x="440" d="M54 0 L107 303 C189 374 266 430 320 433 L344 426 C349 414 354 397 354 365 C354 338 351 299 341 244 L299 0 L324 0 L368 246 C378 301 383 343 383 375 C383 434 366 458 328 458 C262 458 188 400 112 333 L133 450 L107 450 L29 0 L54 0 Z M119 -200 L140 -200 L190 -62 L164 -62 L119 -200 Z " />
<glyph glyph-name="Ncaron" unicode="&#x147;" horiz-adv-x="603" d="M368 626 L487 736 L459 736 L363 646 L361 646 L296 736 L269 736 L347 626 L368 626 Z M45 0 L73 0 L169 543 L170 543 L437 0 L469 0 L571 583 L543 583 L448 42 L446 42 L179 583 L147 583 L45 0 Z " />
<glyph glyph-name="ncaron" unicode="&#x148;" horiz-adv-x="440" d="M54 0 L107 303 C189 374 266 430 320 433 L344 426 C349 414 354 397 354 365 C354 338 351 299 341 244 L299 0 L324 0 L368 246 C378 301 383 343 383 375 C383 434 366 458 328 458 C262 458 188 400 112 333 L133 450 L107 450 L29 0 L54 0 Z M281 529 L413 676 L385 676 L275 550 L273 550 L207 676 L180 676 L260 529 L281 529 Z " />
<glyph glyph-name="napostrophe" unicode="&#x149;" horiz-adv-x="440" d="M54 0 L107 303 C189 374 266 430 320 433 L344 426 C349 414 354 397 354 365 C354 338 351 299 341 244 L299 0 L324 0 L368 246 C378 301 383 343 383 375 C383 434 366 458 328 458 C262 458 188 400 112 333 L133 450 L107 450 L29 0 L54 0 Z M74 515 C134 558 162 606 165 655 C166 676 161 698 150 717 L129 712 C139 693 144 679 143 659 C141 606 110 565 60 525 L74 515 Z " />
<glyph glyph-name="Eng" unicode="&#x14a;" horiz-adv-x="603" d="M45 0 L73 0 L169 543 L170 543 L433 2 L440 2 L439 -6 C426 -78 402 -121 324 -194 L342 -210 C440 -123 456 -74 469 0 L571 583 L543 583 L447 39 L446 39 L179 583 L147 583 L45 0 Z " />
<glyph glyph-name="eng" unicode="&#x14b;" horiz-adv-x="440" d="M54 0 L107 303 C189 374 266 430 320 433 L344 426 C349 414 354 397 354 365 C354 338 351 299 341 244 L297 -11 C288 -63 252 -124 198 -186 L215 -197 C279 -128 312 -67 323 -5 L368 246 C378 301 383 343 383 375 C383 434 366 458 328 458 C262 458 188 400 112 333 L133 450 L107 450 L29 0 L54 0 Z " />
<glyph glyph-name="Omacron" unicode="&#x14c;" horiz-adv-x="619" d="M284 671 L496 671 L501 696 L289 696 L284 671 Z M258 -8 C469 -8 574 186 574 366 C574 484 518 592 377 592 C162 592 58 407 58 220 C58 100 115 -8 258 -8 L258 -8 Z M262 17 C151 17 87 92 87 221 C87 406 189 567 372 567 C476 567 545 499 545 367 C545 187 446 17 262 17 L262 17 Z " />
<glyph glyph-name="omacron" unicode="&#x14d;" horiz-adv-x="412" d="M153 583 L365 583 L369 608 L157 608 L153 583 Z M172 15 C149 16 127 19 107 31 C76 69 68 111 68 172 C68 294 136 417 219 436 C249 433 271 429 288 420 C315 397 335 349 334 287 C334 171 271 47 172 15 L172 15 Z M150 -8 C209 -8 263 33 301 88 C339 144 362 216 362 277 C362 413 306 458 245 458 C184 458 133 421 97 365 C62 310 41 236 41 162 C41 48 84 -8 150 -8 L150 -8 Z " />
<glyph glyph-name="Obreve" unicode="&#x14e;" horiz-adv-x="619" d="M378 658 C330 658 308 684 307 720 L284 716 C286 662 326 636 374 636 C429 636 474 660 494 717 L474 721 C461 685 430 658 378 658 L378 658 Z M258 -8 C469 -8 574 186 574 366 C574 484 518 592 377 592 C162 592 58 407 58 220 C58 100 115 -8 258 -8 L258 -8 Z M262 17 C151 17 87 92 87 221 C87 406 189 567 372 567 C476 567 545 499 545 367 C545 187 446 17 262 17 L262 17 Z " />
<glyph glyph-name="obreve" unicode="&#x14f;" horiz-adv-x="412" d="M172 15 C149 16 127 19 107 31 C76 69 68 111 68 172 C68 294 136 417 219 436 C249 433 271 429 288 420 C315 397 335 349 334 287 C334 171 271 47 172 15 L172 15 Z M150 -8 C209 -8 263 33 301 88 C339 144 362 216 362 277 C362 413 306 458 245 458 C184 458 133 421 97 365 C62 310 41 236 41 162 C41 48 84 -8 150 -8 L150 -8 Z M253 554 C195 554 185 599 184 634 L162 630 C163 576 187 534 249 534 C311 534 351 574 372 631 L351 635 C337 599 312 554 253 554 L253 554 Z " />
<glyph glyph-name="Ohungarumlaut" unicode="&#x150;" horiz-adv-x="619" d="M258 -8 C469 -8 574 186 574 366 C574 484 518 592 377 592 C162 592 58 407 58 220 C58 100 115 -8 258 -8 L258 -8 Z M262 17 C151 17 87 92 87 221 C87 406 189 567 372 567 C476 567 545 499 545 367 C545 187 446 17 262 17 L262 17 Z M307 632 L399 736 L371 736 L282 632 L307 632 Z M415 632 L512 736 L484 736 L390 632 L415 632 Z " />
<glyph glyph-name="ohungarumlaut" unicode="&#x151;" horiz-adv-x="412" d="M168 529 L294 684 L267 684 L143 529 L168 529 Z M327 529 L453 684 L425 684 L302 529 L327 529 Z M172 15 C149 16 127 19 107 31 C76 69 68 111 68 172 C68 294 136 417 219 436 C249 433 271 429 288 420 C315 397 335 349 334 287 C334 171 271 47 172 15 L172 15 Z M150 -8 C209 -8 263 33 301 88 C339 144 362 216 362 277 C362 413 306 458 245 458 C184 458 133 421 97 365 C62 310 41 236 41 162 C41 48 84 -8 150 -8 L150 -8 Z " />
<glyph glyph-name="OE" unicode="&#x152;" horiz-adv-x="843" d="M416 0 L753 0 L757 25 L447 25 L493 287 L750 287 L755 312 L498 312 L540 558 L845 558 L849 583 L518 583 L512 548 C480 575 433 592 374 592 C176 592 57 420 57 222 C57 103 116 -8 258 -8 C325 -8 380 12 424 47 L416 0 Z M262 17 C150 17 87 94 87 223 C87 397 185 567 372 567 C429 567 475 549 506 514 L430 80 C384 38 326 17 262 17 L262 17 Z " />
<glyph glyph-name="oe" unicode="&#x153;" horiz-adv-x="656" d="M150 -8 C209 -8 263 33 301 88 C310 101 318 116 326 131 C327 79 335 36 351 -1 L389 -8 C485 27 551 72 588 105 L576 122 C518 74 443 32 392 18 L371 24 C358 57 351 100 351 161 C351 169 351 178 352 186 C443 225 567 292 621 337 L621 424 C581 448 542 458 509 458 C474 458 455 446 440 431 C404 404 377 366 359 325 C347 424 298 458 245 458 C184 458 133 421 97 365 C62 310 41 236 41 162 C41 48 84 -8 150 -8 L150 -8 Z M172 15 C149 16 127 19 107 31 C76 69 68 111 68 172 C68 294 136 417 219 436 C249 433 271 429 288 420 C315 397 335 349 334 287 C334 171 271 47 172 15 L172 15 Z M473 434 C481 435 491 436 499 436 C536 436 572 424 596 409 L596 346 C545 305 423 238 354 210 C357 223 359 237 360 250 C379 337 424 407 473 434 L473 434 Z " />
<glyph glyph-name="Racute" unicode="&#x154;" horiz-adv-x="511" d="M45 0 L73 0 L116 246 L202 246 C231 246 258 248 283 251 L408 0 L441 0 L311 257 C415 280 473 340 473 443 C473 534 405 583 299 583 L147 583 L45 0 Z M285 558 C392 558 444 519 444 438 C444 287 305 270 202 270 L120 270 L170 558 L285 558 Z M277 632 L374 736 L344 736 L250 632 L277 632 Z " />
<glyph glyph-name="racute" unicode="&#x155;" horiz-adv-x="296" d="M54 0 L104 287 C159 357 221 416 256 435 L297 405 L313 425 C299 442 279 458 260 458 C232 458 169 397 111 324 L133 450 L107 450 L29 0 L54 0 Z M218 529 L344 684 L317 684 L193 529 L218 529 Z " />
<glyph glyph-name="Rcommaaccent" unicode="&#x156;" horiz-adv-x="511" d="M45 0 L73 0 L116 246 L202 246 C231 246 258 248 283 251 L408 0 L441 0 L311 257 C415 280 473 340 473 443 C473 534 405 583 299 583 L147 583 L45 0 Z M285 558 C392 558 444 519 444 438 C444 287 305 270 202 270 L120 270 L170 558 L285 558 Z M153 -200 L174 -200 L224 -62 L198 -62 L153 -200 Z " />
<glyph glyph-name="rcommaaccent" unicode="&#x157;" horiz-adv-x="296" d="M54 0 L104 287 C159 357 221 416 256 435 L297 405 L313 425 C299 442 279 458 260 458 C232 458 169 397 111 324 L133 450 L107 450 L29 0 L54 0 Z M-22 -200 L-1 -200 L49 -62 L23 -62 L-22 -200 Z " />
<glyph glyph-name="Rcaron" unicode="&#x158;" horiz-adv-x="511" d="M45 0 L73 0 L116 246 L202 246 C231 246 258 248 283 251 L408 0 L441 0 L311 257 C415 280 473 340 473 443 C473 534 405 583 299 583 L147 583 L45 0 Z M285 558 C392 558 444 519 444 438 C444 287 305 270 202 270 L120 270 L170 558 L285 558 Z M307 626 L426 736 L398 736 L302 646 L300 646 L235 736 L208 736 L286 626 L307 626 Z " />
<glyph glyph-name="rcaron" unicode="&#x159;" horiz-adv-x="296" d="M54 0 L104 287 C159 357 221 416 256 435 L297 405 L313 425 C299 442 279 458 260 458 C232 458 169 397 111 324 L133 450 L107 450 L29 0 L54 0 Z M227 529 L359 676 L331 676 L221 550 L219 550 L153 676 L126 676 L206 529 L227 529 Z " />
<glyph glyph-name="Sacute" unicode="&#x15a;" horiz-adv-x="442" d="M14 19 C66 0 104 -8 156 -8 C266 -8 377 41 377 170 C377 243 308 277 240 311 C175 344 117 375 117 436 C117 513 183 567 286 567 C333 567 376 556 420 538 L426 564 C389 580 341 592 288 592 C188 592 88 542 88 429 C88 360 153 323 219 291 C286 258 349 228 349 163 C349 64 261 17 165 17 C115 17 66 26 22 46 L14 19 Z M282 632 L379 736 L349 736 L255 632 L282 632 Z " />
<glyph glyph-name="sacute" unicode="&#x15b;" horiz-adv-x="334" d="M207 529 L333 684 L306 684 L182 529 L207 529 Z M308 439 C273 455 234 458 215 458 C123 458 65 406 65 343 C65 287 106 252 160 214 C196 189 239 153 241 100 C241 82 234 65 229 55 C211 30 160 16 116 16 C87 16 48 21 11 40 L4 16 C40 -3 80 -8 115 -8 C153 -8 208 5 236 33 C256 52 266 81 266 112 C266 160 221 206 171 240 C121 274 91 307 91 348 C91 366 96 382 107 400 C129 420 169 434 214 434 C249 434 273 428 301 414 L308 439 Z " />
<glyph glyph-name="Scircumflex" unicode="&#x15c;" horiz-adv-x="442" d="M14 19 C66 0 104 -8 156 -8 C266 -8 377 41 377 170 C377 243 308 277 240 311 C175 344 117 375 117 436 C117 513 183 567 286 567 C333 567 376 556 420 538 L426 564 C389 580 341 592 288 592 C188 592 88 542 88 429 C88 360 153 323 219 291 C286 258 349 228 349 163 C349 64 261 17 165 17 C115 17 66 26 22 46 L14 19 Z M299 736 L179 626 L207 626 L303 715 L306 715 L369 626 L396 626 L319 736 L299 736 Z " />
<glyph glyph-name="scircumflex" unicode="&#x15d;" horiz-adv-x="334" d="M240 676 L105 529 L134 529 L244 652 L246 652 L311 529 L338 529 L260 676 L240 676 Z M308 439 C273 455 234 458 215 458 C123 458 65 406 65 343 C65 287 106 252 160 214 C196 189 239 153 241 100 C241 82 234 65 229 55 C211 30 160 16 116 16 C87 16 48 21 11 40 L4 16 C40 -3 80 -8 115 -8 C153 -8 208 5 236 33 C256 52 266 81 266 112 C266 160 221 206 171 240 C121 274 91 307 91 348 C91 366 96 382 107 400 C129 420 169 434 214 434 C249 434 273 428 301 414 L308 439 Z " />
<glyph glyph-name="Scedilla" unicode="&#x15e;" horiz-adv-x="443" d="M132 -213 C211 -213 247 -169 247 -119 C247 -79 204 -54 166 -46 L188 -6 C286 2 377 53 377 170 C377 243 308 277 240 311 C175 344 117 375 117 436 C117 513 183 567 286 567 C333 567 376 556 420 538 L426 564 C389 580 341 592 288 592 C188 592 88 542 88 429 C88 360 153 323 219 291 C286 258 349 228 349 163 C349 64 261 17 165 17 C115 17 66 26 22 46 L14 19 C66 0 104 -8 156 -8 L165 -8 L141 -53 L140 -63 C195 -70 223 -93 223 -122 C223 -171 177 -191 134 -191 C112 -191 77 -181 63 -170 L59 -194 C74 -204 108 -213 132 -213 L132 -213 Z " />
<glyph glyph-name="scedilla" unicode="&#x15f;" horiz-adv-x="335" d="M86 -213 C165 -213 201 -169 201 -119 C201 -79 158 -54 120 -46 L142 -6 C176 -1 214 11 236 33 C256 52 266 81 266 112 C266 160 221 206 171 240 C121 274 91 307 91 348 C91 366 96 382 107 400 C129 420 169 434 214 434 C249 434 273 428 301 414 L308 439 C273 455 234 458 215 458 C123 458 65 406 65 343 C65 287 106 252 160 214 C196 189 239 153 241 100 C241 82 234 65 229 55 C211 30 160 16 116 16 C87 16 48 21 11 40 L4 16 C40 -3 80 -8 115 -8 L119 -8 L95 -53 L94 -63 C149 -70 177 -93 177 -122 C177 -171 131 -191 88 -191 C66 -191 31 -181 17 -170 L13 -194 C28 -204 62 -213 86 -213 L86 -213 Z " />
<glyph glyph-name="Scaron" unicode="&#x160;" horiz-adv-x="442" d="M14 19 C66 0 104 -8 156 -8 C266 -8 377 41 377 170 C377 243 308 277 240 311 C175 344 117 375 117 436 C117 513 183 567 286 567 C333 567 376 556 420 538 L426 564 C389 580 341 592 288 592 C188 592 88 542 88 429 C88 360 153 323 219 291 C286 258 349 228 349 163 C349 64 261 17 165 17 C115 17 66 26 22 46 L14 19 Z M299 626 L418 736 L390 736 L294 646 L292 646 L227 736 L200 736 L278 626 L299 626 Z " />
<glyph glyph-name="scaron" unicode="&#x161;" horiz-adv-x="334" d="M229 529 L361 676 L333 676 L223 550 L221 550 L155 676 L128 676 L208 529 L229 529 Z M308 439 C273 455 234 458 215 458 C123 458 65 406 65 343 C65 287 106 252 160 214 C196 189 239 153 241 100 C241 82 234 65 229 55 C211 30 160 16 116 16 C87 16 48 21 11 40 L4 16 C40 -3 80 -8 115 -8 C153 -8 208 5 236 33 C256 52 266 81 266 112 C266 160 221 206 171 240 C121 274 91 307 91 348 C91 366 96 382 107 400 C129 420 169 434 214 434 C249 434 273 428 301 414 L308 439 Z " />
<glyph glyph-name="Tcommaaccent" unicode="&#x162;" horiz-adv-x="489" d="M63 558 L283 558 L186 0 L214 0 L311 558 L533 558 L537 583 L67 583 L63 558 Z M132 -200 L153 -200 L203 -62 L177 -62 L132 -200 Z " />
<glyph glyph-name="tcommaaccent" unicode="&#x163;" horiz-adv-x="302" d="M52 428 L121 428 L47 5 L94 -8 C163 14 241 74 267 103 L257 119 C223 86 162 44 104 20 L77 30 L146 428 L294 428 L297 450 L150 450 L171 567 L146 567 L125 450 L56 450 L52 428 Z M26 -200 L47 -200 L97 -62 L71 -62 L26 -200 Z " />
<glyph glyph-name="Tcaron" unicode="&#x164;" horiz-adv-x="489" d="M63 558 L283 558 L186 0 L214 0 L311 558 L533 558 L537 583 L67 583 L63 558 Z M318 626 L437 736 L409 736 L313 646 L311 646 L246 736 L219 736 L297 626 L318 626 Z " />
<glyph glyph-name="tcaron" unicode="&#x165;" horiz-adv-x="302" d="M52 428 L121 428 L47 5 L94 -8 C163 14 241 74 267 103 L257 119 C223 86 162 44 104 20 L77 30 L146 428 L294 428 L297 450 L150 450 L171 567 L146 567 L125 450 L56 450 L52 428 Z M213 525 L235 525 L291 699 L265 699 L213 525 Z " />
<glyph glyph-name="Tbar" unicode="&#x166;" horiz-adv-x="490" d="M63 558 L283 558 L239 307 L113 307 L109 284 L235 284 L186 0 L214 0 L263 284 L409 284 L413 307 L267 307 L311 558 L533 558 L537 583 L67 583 L63 558 Z " />
<glyph glyph-name="tbar" unicode="&#x167;" horiz-adv-x="303" d="M53 428 L122 428 L97 283 L48 283 L44 262 L93 262 L48 5 L95 -8 C164 14 242 74 268 103 L258 119 C224 86 163 44 105 20 L78 30 L119 262 L232 262 L236 283 L122 283 L147 428 L295 428 L298 450 L151 450 L172 567 L147 567 L126 450 L57 450 L53 428 Z " />
<glyph glyph-name="Utilde" unicode="&#x168;" horiz-adv-x="588" d="M481 707 C461 683 440 671 420 671 C382 671 350 707 307 707 C283 707 260 697 232 673 L243 658 C268 678 282 685 307 685 C345 685 375 649 416 649 C442 649 468 663 494 694 L481 707 Z M252 -8 C367 -8 472 65 503 238 L564 583 L536 583 L475 234 C449 92 363 17 256 17 C160 17 100 60 100 163 C100 181 101 200 105 221 L169 583 L141 583 L77 216 C73 195 71 176 71 158 C71 36 157 -8 252 -8 L252 -8 Z " />
<glyph glyph-name="utilde" unicode="&#x169;" horiz-adv-x="438" d="M373 450 L320 147 C238 76 160 20 107 17 L84 22 C80 34 75 49 75 79 C75 106 79 145 89 206 L131 450 L105 450 L61 200 C52 146 46 104 46 72 C46 16 62 -8 99 -8 C165 -8 242 51 314 116 L294 0 L320 0 L398 450 L373 450 Z M376 613 C355 591 341 583 320 583 C283 583 266 611 223 611 C200 611 177 600 149 577 L160 562 C185 582 201 589 223 589 C261 589 276 560 317 560 C344 560 361 571 388 600 L376 613 Z " />
<glyph glyph-name="Umacron" unicode="&#x16a;" horiz-adv-x="588" d="M261 671 L473 671 L478 696 L266 696 L261 671 Z M252 -8 C367 -8 472 65 503 238 L564 583 L536 583 L475 234 C449 92 363 17 256 17 C160 17 100 60 100 163 C100 181 101 200 105 221 L169 583 L141 583 L77 216 C73 195 71 176 71 158 C71 36 157 -8 252 -8 L252 -8 Z " />
<glyph glyph-name="umacron" unicode="&#x16b;" horiz-adv-x="438" d="M373 450 L320 147 C238 76 160 20 107 17 L84 22 C80 34 75 49 75 79 C75 106 79 145 89 206 L131 450 L105 450 L61 200 C52 146 46 104 46 72 C46 16 62 -8 99 -8 C165 -8 242 51 314 116 L294 0 L320 0 L398 450 L373 450 Z M171 583 L383 583 L387 608 L175 608 L171 583 Z " />
<glyph glyph-name="Ubreve" unicode="&#x16c;" horiz-adv-x="588" d="M357 659 C309 659 287 685 286 721 L263 717 C265 663 305 637 353 637 C408 637 453 661 473 718 L453 722 C440 686 409 659 357 659 L357 659 Z M252 -8 C367 -8 472 65 503 238 L564 583 L536 583 L475 234 C449 92 363 17 256 17 C160 17 100 60 100 163 C100 181 101 200 105 221 L169 583 L141 583 L77 216 C73 195 71 176 71 158 C71 36 157 -8 252 -8 L252 -8 Z " />
<glyph glyph-name="ubreve" unicode="&#x16d;" horiz-adv-x="438" d="M373 450 L320 147 C238 76 160 20 107 17 L84 22 C80 34 75 49 75 79 C75 106 79 145 89 206 L131 450 L105 450 L61 200 C52 146 46 104 46 72 C46 16 62 -8 99 -8 C165 -8 242 51 314 116 L294 0 L320 0 L398 450 L373 450 Z M270 554 C212 554 202 599 201 634 L179 630 C180 576 204 534 266 534 C328 534 368 574 389 631 L368 635 C354 599 329 554 270 554 L270 554 Z " />
<glyph glyph-name="Uring" unicode="&#x16e;" horiz-adv-x="588" d="M252 -8 C367 -8 472 65 503 238 L564 583 L536 583 L475 234 C449 92 363 17 256 17 C160 17 100 60 100 163 C100 181 101 200 105 221 L169 583 L141 583 L77 216 C73 195 71 176 71 158 C71 36 157 -8 252 -8 L252 -8 Z M372 753 C404 753 427 733 427 699 C427 659 398 632 354 632 C318 632 300 654 300 684 C300 732 338 753 372 753 L372 753 Z M375 771 C329 771 280 741 280 682 C280 642 311 614 351 614 C399 614 447 642 447 703 C447 744 414 771 375 771 L375 771 Z " />
<glyph glyph-name="uring" unicode="&#x16f;" horiz-adv-x="438" d="M373 450 L320 147 C238 76 160 20 107 17 L84 22 C80 34 75 49 75 79 C75 106 79 145 89 206 L131 450 L105 450 L61 200 C52 146 46 104 46 72 C46 16 62 -8 99 -8 C165 -8 242 51 314 116 L294 0 L320 0 L398 450 L373 450 Z M287 681 C240 681 192 652 192 592 C192 552 223 524 263 524 C310 524 358 552 358 613 C358 655 326 681 287 681 L287 681 Z M284 663 C316 663 338 643 338 610 C338 569 309 542 266 542 C230 542 212 565 212 594 C212 642 249 663 284 663 L284 663 Z " />
<glyph glyph-name="Uhungarumlaut" unicode="&#x170;" horiz-adv-x="588" d="M252 -8 C367 -8 472 65 503 238 L564 583 L536 583 L475 234 C449 92 363 17 256 17 C160 17 100 60 100 163 C100 181 101 200 105 221 L169 583 L141 583 L77 216 C73 195 71 176 71 158 C71 36 157 -8 252 -8 L252 -8 Z M300 632 L392 736 L364 736 L275 632 L300 632 Z M408 632 L505 736 L477 736 L383 632 L408 632 Z " />
<glyph glyph-name="uhungarumlaut" unicode="&#x171;" horiz-adv-x="438" d="M373 450 L320 147 C238 76 160 20 107 17 L84 22 C80 34 75 49 75 79 C75 106 79 145 89 206 L131 450 L105 450 L61 200 C52 146 46 104 46 72 C46 16 62 -8 99 -8 C165 -8 242 51 314 116 L294 0 L320 0 L398 450 L373 450 Z M333 529 L459 684 L431 684 L308 529 L333 529 Z M174 529 L300 684 L273 684 L149 529 L174 529 Z " />
<glyph glyph-name="Uogonek" unicode="&#x172;" horiz-adv-x="589" d="M252 -8 L259 -8 C210 -38 164 -86 164 -138 C164 -187 199 -209 247 -209 C268 -209 298 -202 322 -190 L325 -168 C300 -180 273 -186 250 -186 C219 -186 189 -174 189 -132 C189 -78 250 -30 305 -2 C398 17 477 92 503 238 L564 583 L536 583 L475 234 C449 92 363 17 256 17 C160 17 100 60 100 163 C100 181 101 200 105 221 L169 583 L141 583 L77 216 C73 195 71 176 71 158 C71 36 157 -8 252 -8 L252 -8 Z " />
<glyph glyph-name="uogonek" unicode="&#x173;" horiz-adv-x="438" d="M373 450 L320 147 C238 76 160 20 107 17 L84 22 C80 34 75 49 75 79 C75 106 79 145 89 206 L131 450 L105 450 L61 200 C52 146 46 104 46 72 C46 16 62 -8 99 -8 C165 -8 242 51 314 116 L296 12 C235 -13 162 -72 162 -138 C162 -187 197 -209 245 -209 C266 -209 296 -202 320 -190 L323 -168 C298 -180 271 -186 248 -186 C217 -186 187 -174 187 -132 C187 -77 252 -27 308 0 L320 0 L398 450 L373 450 Z " />
<glyph glyph-name="Wcircumflex" unicode="&#x174;" horiz-adv-x="834" d="M862 583 L831 583 L555 33 L552 33 L488 583 L454 583 L180 33 L178 33 L125 583 L93 583 L155 0 L193 0 L460 538 L463 538 L528 0 L566 0 L862 583 Z M488 736 L368 626 L396 626 L492 715 L495 715 L558 626 L585 626 L508 736 L488 736 Z " />
<glyph glyph-name="wcircumflex" unicode="&#x175;" horiz-adv-x="639" d="M614 450 L410 34 L407 34 C372 142 347 260 347 367 C347 394 349 422 353 450 L325 450 C322 424 321 397 321 370 L321 359 L158 34 L155 34 C119 142 95 260 95 367 C95 394 97 422 101 450 L73 450 C70 424 69 397 69 370 C69 244 101 112 140 0 L166 0 L323 313 C330 205 359 95 392 0 L419 0 L642 450 L614 450 Z M368 676 L233 529 L262 529 L372 652 L374 652 L439 529 L466 529 L388 676 L368 676 Z " />
<glyph glyph-name="Ycircumflex" unicode="&#x176;" horiz-adv-x="483" d="M519 583 L487 583 L241 250 L238 250 L105 583 L74 583 L220 222 L181 0 L209 0 L248 220 L519 583 Z M310 736 L190 626 L218 626 L314 715 L317 715 L380 626 L407 626 L330 736 L310 736 Z " />
<glyph glyph-name="ycircumflex" unicode="&#x177;" horiz-adv-x="389" d="M259 676 L124 529 L153 529 L263 652 L265 652 L330 529 L357 529 L279 676 L259 676 Z M76 -207 L191 50 L392 450 L363 450 L159 34 L155 34 C120 142 95 260 95 367 C95 394 97 422 101 450 L73 450 C70 424 69 397 69 370 C69 244 101 112 140 0 L143 0 L46 -202 L51 -207 L76 -207 Z " />
<glyph glyph-name="Ydieresis" unicode="&#x178;" horiz-adv-x="483" d="M519 583 L487 583 L241 250 L238 250 L105 583 L74 583 L220 222 L181 0 L209 0 L248 220 L519 583 Z M208 641 L232 636 L250 722 L224 723 L208 641 Z M371 641 L395 636 L412 722 L386 723 L371 641 Z " />
<glyph glyph-name="Zacute" unicode="&#x179;" horiz-adv-x="454" d="M366 0 L370 25 L29 25 L484 580 L483 583 L102 583 L98 558 L433 558 L-19 3 L-18 0 L366 0 Z M269 632 L366 736 L336 736 L242 632 L269 632 Z " />
<glyph glyph-name="zacute" unicode="&#x17a;" horiz-adv-x="347" d="M197 529 L323 684 L296 684 L172 529 L197 529 Z M61 426 L303 426 L-2 16 L-1 0 L273 0 L276 24 L32 24 L337 432 L337 450 L64 450 L61 426 Z " />
<glyph glyph-name="Zdotaccent" unicode="&#x17b;" horiz-adv-x="454" d="M366 0 L370 25 L29 25 L484 580 L483 583 L102 583 L98 558 L433 558 L-19 3 L-18 0 L366 0 Z M279 639 L303 635 L321 720 L295 721 L279 639 Z " />
<glyph glyph-name="zdotaccent" unicode="&#x17c;" horiz-adv-x="347" d="M61 426 L303 426 L-2 16 L-1 0 L273 0 L276 24 L32 24 L337 432 L337 450 L64 450 L61 426 Z M203 579 L227 574 L246 661 L219 662 L203 579 Z " />
<glyph glyph-name="Zcaron" unicode="&#x17d;" horiz-adv-x="454" d="M366 0 L370 25 L29 25 L484 580 L483 583 L102 583 L98 558 L433 558 L-19 3 L-18 0 L366 0 Z M306 626 L425 736 L397 736 L301 646 L299 646 L234 736 L207 736 L285 626 L306 626 Z " />
<glyph glyph-name="zcaron" unicode="&#x17e;" horiz-adv-x="347" d="M222 529 L354 676 L326 676 L216 550 L214 550 L148 676 L121 676 L201 529 L222 529 Z M61 426 L303 426 L-2 16 L-1 0 L273 0 L276 24 L32 24 L337 432 L337 450 L64 450 L61 426 Z " />
<glyph glyph-name="uni018F" unicode="&#x18f;" horiz-adv-x="590" d="M141 563 L136 535 C202 556 262 566 320 566 C436 566 519 516 519 382 C519 361 517 339 513 313 L60 313 C48 280 43 237 43 200 C43 82 99 -8 236 -8 C447 -8 548 209 548 383 C548 523 465 592 326 592 C270 592 206 584 141 563 L141 563 Z M242 18 C127 18 72 83 72 202 C72 228 75 256 81 288 L508 288 C474 110 362 18 242 18 L242 18 Z " />
<glyph glyph-name="florin" unicode="&#x192;" horiz-adv-x="386" d="M151 32 C139 -64 103 -113 32 -113 C16 -113 1 -111 -17 -107 L-24 -133 C-7 -137 9 -139 26 -139 C117 -139 165 -73 178 31 L207 292 L341 292 L343 315 L210 315 L222 422 C232 517 268 566 339 566 C356 566 371 564 389 560 L395 586 C378 590 362 592 345 592 C254 592 206 526 195 422 L183 315 L70 315 L69 292 L180 292 L151 32 Z " />
<glyph glyph-name="uni01C4" unicode="&#x1c4;" horiz-adv-x="1044" d="M45 0 L154 0 C365 0 545 111 545 350 C545 510 417 583 249 583 L147 583 L45 0 Z M239 558 C393 558 514 502 514 345 C514 132 358 25 162 25 L77 25 L170 558 L239 558 Z M955 0 L959 25 L618 25 L1073 580 L1072 583 L691 583 L687 558 L1022 558 L570 3 L571 0 L955 0 Z M896 626 L1015 736 L987 736 L891 646 L889 646 L824 736 L797 736 L875 626 L896 626 Z " />
<glyph glyph-name="uni01C5" unicode="&#x1c5;" horiz-adv-x="937" d="M45 0 L154 0 C365 0 545 111 545 350 C545 510 417 583 249 583 L147 583 L45 0 Z M239 558 C393 558 514 502 514 345 C514 132 358 25 162 25 L77 25 L170 558 L239 558 Z M650 426 L892 426 L587 16 L588 0 L862 0 L865 24 L621 24 L926 432 L926 450 L653 450 L650 426 Z M811 529 L943 676 L915 676 L805 550 L803 550 L737 676 L710 676 L790 529 L811 529 Z " />
<glyph glyph-name="uni01C6" unicode="&#x1c6;" horiz-adv-x="758" d="M292 0 L408 653 L381 653 L341 423 C291 446 243 458 218 458 C190 458 175 449 157 431 C85 371 39 214 39 93 C39 59 43 26 48 0 L88 0 L299 184 L267 0 L292 0 Z M71 27 C68 44 66 70 66 99 C66 216 114 381 190 434 C196 435 204 435 210 434 C248 432 291 419 336 397 L304 216 L85 26 L71 27 Z M471 426 L713 426 L408 16 L409 0 L683 0 L686 24 L442 24 L747 432 L747 450 L474 450 L471 426 Z M632 529 L764 676 L736 676 L626 550 L624 550 L558 676 L531 676 L611 529 L632 529 Z " />
<glyph glyph-name="uni01C7" unicode="&#x1c7;" horiz-adv-x="639" d="M45 0 L368 0 L372 25 L77 25 L175 583 L147 583 L45 0 Z M362 -81 C461 6 525 89 541 179 L612 583 L584 583 L514 181 C496 83 419 5 342 -65 L362 -81 Z " />
<glyph glyph-name="uni01C8" unicode="&#x1c8;" horiz-adv-x="592" d="M45 0 L368 0 L372 25 L77 25 L175 583 L147 583 L45 0 Z M445 -11 C436 -63 400 -124 347 -186 L363 -197 C428 -128 461 -66 472 -4 L552 450 L526 450 L445 -11 Z M569 560 L589 657 L562 658 L545 564 L569 560 Z " />
<glyph glyph-name="uni01C9" unicode="&#x1c9;" horiz-adv-x="360" d="M214 -11 C205 -63 169 -124 116 -186 L132 -197 C197 -128 230 -66 241 -4 L321 450 L295 450 L214 -11 Z M338 560 L358 657 L331 658 L314 564 L338 560 Z M62 0 L177 653 L151 653 L36 0 L62 0 Z " />
<glyph glyph-name="uni01CA" unicode="&#x1ca;" horiz-adv-x="823" d="M546 -81 C645 6 709 89 725 179 L796 583 L768 583 L698 181 C680 83 603 5 526 -65 L546 -81 Z M45 0 L73 0 L169 543 L170 543 L437 0 L469 0 L571 583 L543 583 L448 42 L446 42 L179 583 L147 583 L45 0 Z " />
<glyph glyph-name="uni01CB" unicode="&#x1cb;" horiz-adv-x="776" d="M629 -11 C620 -63 584 -124 531 -186 L547 -197 C612 -128 645 -66 656 -4 L736 450 L710 450 L629 -11 Z M753 560 L773 657 L746 658 L729 564 L753 560 Z M45 0 L73 0 L169 543 L170 543 L437 0 L469 0 L571 583 L543 583 L448 42 L446 42 L179 583 L147 583 L45 0 Z " />
<glyph glyph-name="uni01CC" unicode="&#x1cc;" horiz-adv-x="613" d="M54 0 L107 303 C189 374 266 430 320 433 L344 426 C349 414 354 397 354 365 C354 338 351 299 341 244 L299 0 L324 0 L368 246 C378 301 383 343 383 375 C383 434 366 458 328 458 C262 458 188 400 112 333 L133 450 L107 450 L29 0 L54 0 Z M467 -11 C458 -63 422 -124 369 -186 L385 -197 C450 -128 483 -66 494 -4 L574 450 L548 450 L467 -11 Z M591 560 L611 657 L584 658 L567 564 L591 560 Z " />
<glyph glyph-name="uni01D3" unicode="&#x1d3;" horiz-adv-x="588" d="M362 622 L481 732 L453 732 L357 642 L355 642 L290 732 L263 732 L341 622 L362 622 Z M252 -8 C367 -8 472 65 503 238 L564 583 L536 583 L475 234 C449 92 363 17 256 17 C160 17 100 60 100 163 C100 181 101 200 105 221 L169 583 L141 583 L77 216 C73 195 71 176 71 158 C71 36 157 -8 252 -8 L252 -8 Z " />
<glyph glyph-name="uni01D4" unicode="&#x1d4;" horiz-adv-x="438" d="M373 450 L320 147 C238 76 160 20 107 17 L84 22 C80 34 75 49 75 79 C75 106 79 145 89 206 L131 450 L105 450 L61 200 C52 146 46 104 46 72 C46 16 62 -8 99 -8 C165 -8 242 51 314 116 L294 0 L320 0 L398 450 L373 450 Z M269 529 L401 676 L373 676 L263 550 L261 550 L195 676 L168 676 L248 529 L269 529 Z " />
<glyph glyph-name="uni01E2" unicode="&#x1e2;" horiz-adv-x="739" d="M311 0 L648 0 L652 25 L343 25 L389 287 L646 287 L651 312 L394 312 L436 558 L740 558 L744 583 L399 583 L-30 0 L0 0 L149 203 L346 203 L311 0 Z M404 551 L407 551 L351 228 L167 228 L404 551 Z M494 670 L706 670 L711 695 L499 695 L494 670 Z " />
<glyph glyph-name="uni01E3" unicode="&#x1e3;" horiz-adv-x="629" d="M561 105 L549 122 C491 74 416 32 365 18 L344 24 C332 57 325 98 325 158 L325 186 C416 225 540 292 594 337 L594 424 C552 448 514 457 485 457 C467 457 453 454 444 449 C420 437 401 423 385 406 C333 432 253 458 218 458 C190 458 175 449 157 431 C85 371 39 214 39 93 C39 59 43 26 48 0 L88 0 L299 170 L299 148 C299 89 307 40 324 -1 L363 -8 C459 27 524 72 561 105 L561 105 Z M71 27 C68 44 66 70 66 99 C66 216 114 381 190 434 C202 435 214 434 227 433 C274 426 325 407 368 387 C358 374 350 360 342 346 C320 303 307 250 301 198 L85 26 L71 27 Z M446 434 C454 435 462 436 470 436 C509 436 544 425 569 409 L569 346 C519 305 397 239 328 210 C340 314 390 403 446 434 L446 434 Z M285 583 L497 583 L501 608 L289 608 L285 583 Z " />
<glyph glyph-name="uni01F1" unicode="&#x1f1;" horiz-adv-x="1028" d="M45 0 L154 0 C365 0 545 111 545 350 C545 510 417 583 249 583 L147 583 L45 0 Z M239 558 C393 558 514 502 514 345 C514 132 358 25 162 25 L77 25 L170 558 L239 558 Z M940 0 L944 25 L603 25 L1058 580 L1057 583 L676 583 L672 558 L1007 558 L555 3 L556 0 L940 0 Z " />
<glyph glyph-name="uni01F2" unicode="&#x1f2;" horiz-adv-x="937" d="M45 0 L154 0 C365 0 545 111 545 350 C545 510 417 583 249 583 L147 583 L45 0 Z M239 558 C393 558 514 502 514 345 C514 132 358 25 162 25 L77 25 L170 558 L239 558 Z M650 426 L892 426 L587 16 L588 0 L862 0 L865 24 L621 24 L926 432 L926 450 L653 450 L650 426 Z " />
<glyph glyph-name="uni01F3" unicode="&#x1f3;" horiz-adv-x="758" d="M292 0 L408 653 L381 653 L341 423 C291 446 243 458 218 458 C190 458 175 449 157 431 C85 371 39 214 39 93 C39 59 43 26 48 0 L88 0 L299 184 L267 0 L292 0 Z M71 27 C68 44 66 70 66 99 C66 216 114 381 190 434 C196 435 204 435 210 434 C248 432 291 419 336 397 L304 216 L85 26 L71 27 Z M471 426 L713 426 L408 16 L409 0 L683 0 L686 24 L442 24 L747 432 L747 450 L474 450 L471 426 Z " />
<glyph glyph-name="AEacute" unicode="&#x1fc;" horiz-adv-x="739" d="M311 0 L648 0 L652 25 L343 25 L389 287 L646 287 L651 312 L394 312 L436 558 L740 558 L744 583 L399 583 L-30 0 L0 0 L149 203 L346 203 L311 0 Z M404 551 L407 551 L351 228 L167 228 L404 551 Z M560 633 L657 737 L627 737 L533 633 L560 633 Z " />
<glyph glyph-name="aeacute" unicode="&#x1fd;" horiz-adv-x="629" d="M561 105 L549 122 C491 74 416 32 365 18 L344 24 C332 57 325 98 325 158 L325 186 C416 225 540 292 594 337 L594 424 C552 448 514 457 485 457 C467 457 453 454 444 449 C420 437 401 423 385 406 C333 432 253 458 218 458 C190 458 175 449 157 431 C85 371 39 214 39 93 C39 59 43 26 48 0 L88 0 L299 170 L299 148 C299 89 307 40 324 -1 L363 -8 C459 27 524 72 561 105 L561 105 Z M71 27 C68 44 66 70 66 99 C66 216 114 381 190 434 C202 435 214 434 227 433 C274 426 325 407 368 387 C358 374 350 360 342 346 C320 303 307 250 301 198 L85 26 L71 27 Z M446 434 C454 435 462 436 470 436 C509 436 544 425 569 409 L569 346 C519 305 397 239 328 210 C340 314 390 403 446 434 L446 434 Z M383 529 L509 684 L482 684 L358 529 L383 529 Z " />
<glyph glyph-name="Oslashacute" unicode="&#x1fe;" horiz-adv-x="619" d="M258 -8 C469 -8 574 186 574 366 C574 422 561 477 532 518 L598 592 L569 592 L518 535 C487 570 440 592 377 592 C162 592 58 407 58 220 C58 162 71 107 100 66 L35 -8 L63 -8 L114 49 C146 14 193 -8 258 -8 L258 -8 Z M87 221 C87 406 189 567 372 567 C425 567 469 549 499 514 L120 88 C98 121 87 166 87 221 L87 221 Z M262 17 C206 17 163 35 133 70 L512 496 C533 464 545 421 545 367 C545 187 446 17 262 17 L262 17 Z M347 632 L444 736 L414 736 L320 632 L347 632 Z " />
<glyph glyph-name="oslashacute" unicode="&#x1ff;" horiz-adv-x="413" d="M150 -8 C209 -8 263 33 301 88 C339 144 362 216 362 277 C362 326 354 363 342 390 L397 459 L372 459 L332 409 C310 444 278 458 245 458 C184 458 133 421 97 365 C62 310 41 236 41 162 C41 121 46 88 56 62 L1 -8 L25 -8 L65 43 C84 9 113 -8 150 -8 L150 -8 Z M172 15 C149 16 127 19 107 31 C97 42 90 54 84 67 L322 365 C330 343 334 317 334 287 C334 171 271 47 172 15 L172 15 Z M68 172 C68 294 136 417 219 436 C249 433 271 429 288 420 C298 411 306 400 313 385 L77 88 C70 112 68 139 68 172 L68 172 Z M240 529 L366 684 L339 684 L215 529 L240 529 Z " />
<glyph glyph-name="Scommaaccent" unicode="&#x218;" horiz-adv-x="442" d="M114 -200 L135 -200 L185 -62 L159 -62 L114 -200 Z M14 19 C66 0 104 -8 156 -8 C266 -8 377 41 377 170 C377 243 308 277 240 311 C175 344 117 375 117 436 C117 513 183 567 286 567 C333 567 376 556 420 538 L426 564 C389 580 341 592 288 592 C188 592 88 542 88 429 C88 360 153 323 219 291 C286 258 349 228 349 163 C349 64 261 17 165 17 C115 17 66 26 22 46 L14 19 Z " />
<glyph glyph-name="scommaaccent" unicode="&#x219;" horiz-adv-x="334" d="M52 -200 L73 -200 L123 -62 L97 -62 L52 -200 Z M308 439 C273 455 234 458 215 458 C123 458 65 406 65 343 C65 287 106 252 160 214 C196 189 239 153 241 100 C241 82 234 65 229 55 C211 30 160 16 116 16 C87 16 48 21 11 40 L4 16 C40 -3 80 -8 115 -8 C153 -8 208 5 236 33 C256 52 266 81 266 112 C266 160 221 206 171 240 C121 274 91 307 91 348 C91 366 96 382 107 400 C129 420 169 434 214 434 C249 434 273 428 301 414 L308 439 Z " />
<glyph glyph-name="uni021A" unicode="&#x21a;" horiz-adv-x="489" d="M63 558 L283 558 L186 0 L214 0 L311 558 L533 558 L537 583 L67 583 L63 558 Z M134 -200 L155 -200 L205 -62 L179 -62 L134 -200 Z " />
<glyph glyph-name="uni021B" unicode="&#x21b;" horiz-adv-x="302" d="M52 428 L121 428 L47 5 L94 -8 C163 14 241 74 267 103 L257 119 C223 86 162 44 104 20 L77 30 L146 428 L294 428 L297 450 L150 450 L171 567 L146 567 L125 450 L56 450 L52 428 Z M26 -200 L47 -200 L97 -62 L71 -62 L26 -200 Z " />
<glyph glyph-name="uni0232" unicode="&#x232;" horiz-adv-x="483" d="M519 583 L487 583 L241 250 L238 250 L105 583 L74 583 L220 222 L181 0 L209 0 L248 220 L519 583 Z M200 670 L412 670 L417 695 L205 695 L200 670 Z " />
<glyph glyph-name="uni0233" unicode="&#x233;" horiz-adv-x="389" d="M76 -207 L191 50 L392 450 L363 450 L159 34 L155 34 C120 142 95 260 95 367 C95 394 97 422 101 450 L73 450 C70 424 69 397 69 370 C69 244 101 112 140 0 L143 0 L46 -202 L51 -207 L76 -207 Z M144 583 L356 583 L360 608 L148 608 L144 583 Z " />
<glyph glyph-name="uni0237" unicode="&#x237;" horiz-adv-x="173" d="M28 -11 C19 -63 -17 -124 -71 -186 L-55 -197 C10 -128 43 -66 54 -4 L133 450 L107 450 L28 -11 Z " />
<glyph glyph-name="uni0259" unicode="&#x259;" horiz-adv-x="372" d="M56 346 L68 329 C126 377 201 419 252 433 L273 427 C286 394 293 351 293 290 C293 281 292 273 292 265 C200 226 77 158 23 114 L23 27 C63 3 102 -7 135 -7 C170 -7 189 5 204 20 C288 83 318 199 318 303 C318 362 310 411 293 452 L255 459 C159 424 93 379 56 346 L56 346 Z M171 17 C163 16 153 15 145 15 C108 15 72 27 48 42 L48 105 C98 146 220 213 290 241 C277 136 227 47 171 17 L171 17 Z " />
<glyph glyph-name="circumflex" unicode="&#x2c6;" horiz-adv-x="337" d="M264 676 L129 529 L158 529 L268 652 L270 652 L335 529 L362 529 L284 676 L264 676 Z " />
<glyph glyph-name="caron" unicode="&#x2c7;" horiz-adv-x="402" d="M287 529 L419 676 L391 676 L281 550 L279 550 L213 676 L186 676 L266 529 L287 529 Z " />
<glyph glyph-name="breve" unicode="&#x2d8;" horiz-adv-x="292" d="M226 554 C168 554 158 599 157 634 L135 630 C136 576 160 534 222 534 C284 534 324 574 345 631 L324 635 C310 599 285 554 226 554 L226 554 Z " />
<glyph glyph-name="dotaccent" unicode="&#x2d9;" horiz-adv-x="235" d="M187 579 L211 574 L230 661 L203 662 L187 579 Z " />
<glyph glyph-name="ring" unicode="&#x2da;" horiz-adv-x="283" d="M238 663 C270 663 292 643 292 610 C292 569 263 542 220 542 C184 542 166 565 166 594 C166 642 203 663 238 663 L238 663 Z M241 681 C194 681 146 652 146 592 C146 552 177 524 217 524 C264 524 312 552 312 613 C312 655 280 681 241 681 L241 681 Z " />
<glyph glyph-name="ogonek" unicode="&#x2db;" horiz-adv-x="273" d="M179 -190 L182 -168 C157 -180 130 -186 107 -186 C76 -186 46 -174 46 -132 C46 -74 118 -22 176 4 L164 16 C102 -8 21 -69 21 -138 C21 -187 56 -209 104 -209 C125 -209 155 -202 179 -190 L179 -190 Z " />
<glyph glyph-name="tilde" unicode="&#x2dc;" horiz-adv-x="371" d="M382 613 C361 591 347 583 326 583 C289 583 272 611 229 611 C206 611 183 600 155 577 L166 562 C191 582 207 589 229 589 C267 589 282 560 323 560 C350 560 367 571 394 600 L382 613 Z " />
<glyph glyph-name="hungarumlaut" unicode="&#x2dd;" horiz-adv-x="402" d="M146 529 L272 684 L245 684 L121 529 L146 529 Z M305 529 L431 684 L403 684 L280 529 L305 529 Z " />
<glyph glyph-name="dotbelowcmb" unicode="&#x323;" horiz-adv-x="-52" d="M-312 -184 L-288 -189 L-270 -102 L-296 -101 L-312 -184 Z " />
<glyph glyph-name="uni0394" unicode="&#x394;" horiz-adv-x="495" d="M423 0 L426 23 L337 583 L306 583 L-9 22 L-12 0 L423 0 Z M314 551 L316 551 L397 25 L19 25 L314 551 Z " />
<glyph glyph-name="Sigma" unicode="&#x3a3;" horiz-adv-x="519" d="M-1 0 L424 0 L428 26 L38 26 L243 290 L134 558 L500 558 L504 583 L105 583 L102 560 L213 289 L2 20 L-1 0 Z " />
<glyph glyph-name="pi" unicode="&#x3c0;" horiz-adv-x="545" d="M430 425 L524 425 L529 450 L67 450 L62 425 L150 425 L76 0 L102 0 L176 425 L405 425 L344 75 C342 63 340 52 340 42 C340 11 354 -7 390 -7 C404 -7 426 -3 449 7 L448 25 C426 17 409 16 399 16 C376 16 367 26 367 50 C367 60 368 72 371 86 L430 425 Z " />
<glyph glyph-name="uni1E46" unicode="&#x1e46;" horiz-adv-x="603" d="M219 -184 L243 -189 L261 -102 L235 -101 L219 -184 Z M45 0 L73 0 L169 543 L170 543 L437 0 L469 0 L571 583 L543 583 L448 42 L446 42 L179 583 L147 583 L45 0 Z " />
<glyph glyph-name="uni1E47" unicode="&#x1e47;" horiz-adv-x="440" d="M54 0 L107 303 C189 374 266 430 320 433 L344 426 C349 414 354 397 354 365 C354 338 351 299 341 244 L299 0 L324 0 L368 246 C378 301 383 343 383 375 C383 434 366 458 328 458 C262 458 188 400 112 333 L133 450 L107 450 L29 0 L54 0 Z M144 -184 L168 -189 L186 -102 L160 -101 L144 -184 Z " />
<glyph glyph-name="uni1E62" unicode="&#x1e62;" horiz-adv-x="442" d="M139 -184 L163 -189 L181 -102 L155 -101 L139 -184 Z M14 19 C66 0 104 -8 156 -8 C266 -8 377 41 377 170 C377 243 308 277 240 311 C175 344 117 375 117 436 C117 513 183 567 286 567 C333 567 376 556 420 538 L426 564 C389 580 341 592 288 592 C188 592 88 542 88 429 C88 360 153 323 219 291 C286 258 349 228 349 163 C349 64 261 17 165 17 C115 17 66 26 22 46 L14 19 Z " />
<glyph glyph-name="uni1E63" unicode="&#x1e63;" horiz-adv-x="334" d="M89 -184 L113 -189 L131 -102 L105 -101 L89 -184 Z M308 439 C273 455 234 458 215 458 C123 458 65 406 65 343 C65 287 106 252 160 214 C196 189 239 153 241 100 C241 82 234 65 229 55 C211 30 160 16 116 16 C87 16 48 21 11 40 L4 16 C40 -3 80 -8 115 -8 C153 -8 208 5 236 33 C256 52 266 81 266 112 C266 160 221 206 171 240 C121 274 91 307 91 348 C91 366 96 382 107 400 C129 420 169 434 214 434 C249 434 273 428 301 414 L308 439 Z " />
<glyph glyph-name="Wgrave" unicode="&#x1e80;" horiz-adv-x="834" d="M486 632 L427 736 L399 736 L460 632 L486 632 Z M862 583 L831 583 L555 33 L552 33 L488 583 L454 583 L180 33 L178 33 L125 583 L93 583 L155 0 L193 0 L460 538 L463 538 L528 0 L566 0 L862 583 Z " />
<glyph glyph-name="wgrave" unicode="&#x1e81;" horiz-adv-x="639" d="M614 450 L410 34 L407 34 C372 142 347 260 347 367 C347 394 349 422 353 450 L325 450 C322 424 321 397 321 370 L321 359 L158 34 L155 34 C119 142 95 260 95 367 C95 394 97 422 101 450 L73 450 C70 424 69 397 69 370 C69 244 101 112 140 0 L166 0 L323 313 C330 205 359 95 392 0 L419 0 L642 450 L614 450 Z M354 529 L231 684 L203 684 L329 529 L354 529 Z " />
<glyph glyph-name="Wacute" unicode="&#x1e82;" horiz-adv-x="834" d="M495 627 L592 731 L562 731 L468 627 L495 627 Z M862 583 L831 583 L555 33 L552 33 L488 583 L454 583 L180 33 L178 33 L125 583 L93 583 L155 0 L193 0 L460 538 L463 538 L528 0 L566 0 L862 583 Z " />
<glyph glyph-name="wacute" unicode="&#x1e83;" horiz-adv-x="639" d="M614 450 L410 34 L407 34 C372 142 347 260 347 367 C347 394 349 422 353 450 L325 450 C322 424 321 397 321 370 L321 359 L158 34 L155 34 C119 142 95 260 95 367 C95 394 97 422 101 450 L73 450 C70 424 69 397 69 370 C69 244 101 112 140 0 L166 0 L323 313 C330 205 359 95 392 0 L419 0 L642 450 L614 450 Z M351 529 L477 684 L450 684 L326 529 L351 529 Z " />
<glyph glyph-name="Wdieresis" unicode="&#x1e84;" horiz-adv-x="834" d="M380 641 L404 636 L422 722 L396 723 L380 641 Z M543 641 L567 636 L584 722 L558 723 L543 641 Z M862 583 L831 583 L555 33 L552 33 L488 583 L454 583 L180 33 L178 33 L125 583 L93 583 L155 0 L193 0 L460 538 L463 538 L528 0 L566 0 L862 583 Z " />
<glyph glyph-name="wdieresis" unicode="&#x1e85;" horiz-adv-x="639" d="M614 450 L410 34 L407 34 C372 142 347 260 347 367 C347 394 349 422 353 450 L325 450 C322 424 321 397 321 370 L321 359 L158 34 L155 34 C119 142 95 260 95 367 C95 394 97 422 101 450 L73 450 C70 424 69 397 69 370 C69 244 101 112 140 0 L166 0 L323 313 C330 205 359 95 392 0 L419 0 L642 450 L614 450 Z M420 577 L444 572 L463 658 L436 659 L420 577 Z M258 577 L282 572 L301 658 L274 659 L258 577 Z " />
<glyph glyph-name="uni1EBC" unicode="&#x1ebc;" horiz-adv-x="472" d="M45 0 L382 0 L386 25 L77 25 L123 287 L380 287 L384 312 L128 312 L170 558 L474 558 L478 583 L147 583 L45 0 Z M445 707 C425 683 404 671 384 671 C346 671 314 707 271 707 C247 707 224 697 196 673 L207 658 C232 678 246 685 271 685 C309 685 339 649 380 649 C406 649 432 663 458 694 L445 707 Z " />
<glyph glyph-name="uni1EBD" unicode="&#x1ebd;" horiz-adv-x="372" d="M304 105 L292 122 C234 74 159 32 108 18 L87 24 C74 57 67 100 67 161 C67 169 67 178 68 186 C159 225 283 292 337 337 L337 424 C297 448 258 458 225 458 C190 458 171 446 156 431 C72 368 42 252 42 148 C42 89 50 40 67 -1 L105 -8 C201 27 267 72 304 105 L304 105 Z M189 434 C197 435 207 436 215 436 C252 436 288 424 312 409 L312 346 C261 305 139 238 70 209 C82 314 132 403 189 434 L189 434 Z M355 613 C334 591 320 583 299 583 C262 583 245 611 202 611 C179 611 156 600 128 577 L139 562 C164 582 180 589 202 589 C240 589 255 560 296 560 C323 560 340 571 367 600 L355 613 Z " />
<glyph glyph-name="Ygrave" unicode="&#x1ef2;" horiz-adv-x="483" d="M519 583 L487 583 L241 250 L238 250 L105 583 L74 583 L220 222 L181 0 L209 0 L248 220 L519 583 Z M330 632 L271 736 L243 736 L304 632 L330 632 Z " />
<glyph glyph-name="ygrave" unicode="&#x1ef3;" horiz-adv-x="389" d="M76 -207 L191 50 L392 450 L363 450 L159 34 L155 34 C120 142 95 260 95 367 C95 394 97 422 101 450 L73 450 C70 424 69 397 69 370 C69 244 101 112 140 0 L143 0 L46 -202 L51 -207 L76 -207 Z M273 514 L150 669 L122 669 L248 514 L273 514 Z " />
<glyph glyph-name="uni2004" unicode="&#x2004;" horiz-adv-x="333" d="" />
<glyph glyph-name="uni2007" unicode="&#x2007;" horiz-adv-x="500" d="" />
<glyph glyph-name="uni2009" unicode="&#x2009;" horiz-adv-x="160" d="" />
<glyph glyph-name="uni200A" unicode="&#x200a;" horiz-adv-x="80" d="" />
<glyph glyph-name="uni200B" unicode="&#x200b;" d="" />
<glyph glyph-name="uni2012" unicode="&#x2012;" horiz-adv-x="333" d="M343 252 L343 277 L-10 277 L-10 252 L343 252 Z " />
<glyph glyph-name="endash" unicode="&#x2013;" horiz-adv-x="458" d="M65 233 L384 233 L389 257 L69 257 L65 233 Z " />
<glyph glyph-name="emdash" unicode="&#x2014;" horiz-adv-x="856" d="M65 233 L782 233 L787 257 L69 257 L65 233 Z " />
<glyph glyph-name="quoteleft" unicode="&#x2018;" horiz-adv-x="183" d="M210 664 C145 615 113 563 109 508 C109 485 114 460 127 440 L150 445 C138 466 133 482 134 504 C136 563 171 608 225 652 L210 664 Z " />
<glyph glyph-name="quoteright" unicode="&#x2019;" horiz-adv-x="208" d="M112 454 C177 503 209 555 213 610 C213 633 208 658 195 678 L172 673 C184 652 189 636 188 614 C186 555 151 510 97 466 L112 454 Z " />
<glyph glyph-name="quotesinglbase" unicode="&#x201a;" horiz-adv-x="188" d="M-20 -128 C46 -79 77 -26 81 29 C82 53 76 77 64 98 L40 92 C52 72 57 55 57 34 C54 -26 19 -71 -36 -116 L-20 -128 Z " />
<glyph glyph-name="quotedblleft" unicode="&#x201c;" horiz-adv-x="345" d="M210 664 C145 615 113 563 109 508 C109 485 114 460 127 440 L150 445 C138 466 133 482 134 504 C136 563 171 608 225 652 L210 664 Z M372 664 C307 615 275 563 271 508 C271 485 276 460 289 440 L312 445 C300 466 295 482 296 504 C298 563 333 608 387 652 L372 664 Z " />
<glyph glyph-name="quotedblright" unicode="&#x201d;" horiz-adv-x="374" d="M110 445 C175 494 207 546 211 601 C211 624 206 649 193 669 L170 664 C182 643 187 627 186 605 C184 546 149 501 95 457 L110 445 Z M275 445 C340 494 372 546 376 601 C376 624 371 649 358 669 L335 664 C347 643 352 627 351 605 C349 546 314 501 260 457 L275 445 Z " />
<glyph glyph-name="quotedblbase" unicode="&#x201e;" horiz-adv-x="352" d="M-20 -128 C46 -79 77 -26 81 29 C82 53 76 77 64 98 L40 92 C52 72 57 55 57 34 C54 -26 19 -71 -36 -116 L-20 -128 Z M144 -128 C210 -79 241 -26 245 29 C246 53 240 77 228 98 L204 92 C216 72 221 55 221 34 C218 -26 183 -71 128 -116 L144 -128 Z " />
<glyph glyph-name="dagger" unicode="&#x2020;" horiz-adv-x="500" d="M70 423 L265 423 L191 0 L215 0 L289 423 L488 423 L492 447 L293 447 L329 653 L305 653 L269 447 L74 447 L70 423 Z " />
<glyph glyph-name="daggerdbl" unicode="&#x2021;" horiz-adv-x="541" d="M88 409 L283 409 L251 231 L57 231 L53 207 L247 207 L211 0 L236 0 L272 207 L471 207 L475 231 L276 231 L307 409 L506 409 L511 433 L311 433 L350 653 L326 653 L287 433 L93 433 L88 409 Z " />
<glyph glyph-name="bullet" unicode="&#x2022;" horiz-adv-x="405" d="M192 167 C267 167 333 221 333 305 C333 366 295 424 225 424 C148 424 85 367 85 283 C85 223 125 167 192 167 L192 167 Z " />
<glyph glyph-name="ellipsis" unicode="&#x2026;" horiz-adv-x="598" d="M26 -6 L53 -8 L78 116 L49 117 L26 -6 Z M239 -6 L266 -8 L291 116 L262 117 L239 -6 Z M450 -6 L477 -8 L502 116 L473 117 L450 -6 Z " />
<glyph glyph-name="perthousand" unicode="&#x2030;" horiz-adv-x="992" d="M174 288 C254 288 328 353 328 474 C328 547 287 592 227 592 C146 592 72 523 72 405 C72 333 113 288 174 288 L174 288 Z M310 218 L162 9 L160 0 L184 0 L334 218 L310 218 Z M497 13 C439 13 415 56 415 114 C415 208 472 275 542 275 C596 275 622 235 622 174 C622 84 575 13 497 13 L497 13 Z M429 369 L575 574 L576 583 L552 583 L406 369 L429 369 Z M179 309 C121 309 96 351 96 409 C96 506 153 570 224 570 C277 570 304 533 304 471 C304 382 257 309 179 309 L179 309 Z M493 -8 C573 -8 647 57 647 178 C647 251 606 296 546 296 C466 296 390 227 390 110 C390 37 432 -8 493 -8 L493 -8 Z M781 13 C723 13 699 56 699 114 C699 208 756 275 826 275 C880 275 906 235 906 174 C906 84 859 13 781 13 L781 13 Z M777 -8 C857 -8 931 57 931 178 C931 251 890 296 830 296 C750 296 674 227 674 110 C674 37 716 -8 777 -8 L777 -8 Z " />
<glyph glyph-name="guilsinglleft" unicode="&#x2039;" horiz-adv-x="236" d="M115 46 L140 46 L77 226 L203 405 L178 405 L47 226 L115 46 Z " />
<glyph glyph-name="guilsinglright" unicode="&#x203a;" horiz-adv-x="236" d="M110 408 L85 408 L148 228 L22 49 L47 49 L178 228 L110 408 Z " />
<glyph glyph-name="uni203D" unicode="&#x203d;" horiz-adv-x="318" d="M127 302 L112 172 L134 174 L149 273 C173 295 203 327 222 347 C263 389 311 438 311 461 C311 499 227 578 106 594 L100 571 C174 560 266 512 288 459 C262 416 195 354 154 307 L172 440 L145 439 L127 302 Z M77 -6 L104 -8 L129 116 L100 117 L77 -6 Z " />
<glyph glyph-name="fraction" unicode="&#x2044;" horiz-adv-x="144" d="M-136 0 L311 573 L311 576 L289 576 L-157 3 L-157 0 L-136 0 Z " />
<glyph glyph-name="zerosuperior" unicode="&#x2070;" horiz-adv-x="270" d="M294 603 C294 659 280 712 212 712 C123 712 89 624 82 540 C81 526 80 513 80 501 C80 436 108 396 158 396 C250 396 285 486 293 568 C294 580 294 591 294 603 L294 603 Z M161 413 C121 413 101 444 101 505 C101 518 101 530 102 542 C109 627 144 694 209 694 C255 694 273 668 273 601 C273 588 272 576 271 564 C264 484 232 413 161 413 L161 413 Z " />
<glyph glyph-name="i.superior" unicode="&#x2071;" horiz-adv-x="119" d="M94 400 L151 706 L130 706 L74 400 L94 400 Z M163 781 L178 847 L156 847 L144 784 L163 781 Z " />
<glyph glyph-name="foursuperior" unicode="&#x2074;" horiz-adv-x="248" d="M280 501 L282 518 L224 518 L258 712 L234 712 L56 519 L54 501 L201 501 L183 400 L203 400 L221 501 L280 501 Z M76 518 L234 689 L204 518 L76 518 Z " />
<glyph glyph-name="fivesuperior" unicode="&#x2075;" horiz-adv-x="229" d="M59 409 C74 403 102 396 133 396 C208 396 244 453 244 508 C244 552 217 582 183 593 C159 593 127 583 107 573 L140 687 L269 687 L271 707 L126 707 L85 556 L96 553 C121 566 149 572 179 576 C202 565 222 543 222 506 C222 446 187 414 135 414 C107 414 83 418 61 428 L59 409 Z " />
<glyph glyph-name="sixsuperior" unicode="&#x2076;" horiz-adv-x="244" d="M283 704 C266 709 250 712 231 712 C145 712 75 608 75 508 C75 438 115 396 153 396 C201 396 263 447 263 511 C263 551 251 579 218 595 C184 595 135 575 99 550 C107 594 127 631 153 658 C175 681 201 693 226 693 C246 693 258 693 279 685 L283 704 Z M212 579 C237 561 243 546 243 510 C243 452 195 417 157 411 C125 417 96 444 96 510 C96 518 96 526 97 533 C131 557 187 579 212 579 L212 579 Z " />
<glyph glyph-name="sevensuperior" unicode="&#x2077;" horiz-adv-x="190" d="M78 688 L235 688 L74 404 L76 400 L92 400 L259 698 L252 707 L80 707 L78 688 Z " />
<glyph glyph-name="eightsuperior" unicode="&#x2078;" horiz-adv-x="254" d="M287 645 C287 676 254 712 203 712 C152 712 104 670 104 635 C104 616 134 589 166 561 C109 539 64 504 64 467 C64 442 93 396 151 396 C221 396 265 432 265 480 C265 498 230 530 194 561 C240 582 287 623 287 645 L287 645 Z M247 475 C242 447 221 413 153 413 C112 413 90 442 81 468 C93 505 125 532 175 553 C210 523 246 493 247 475 L247 475 Z M121 638 C126 656 151 695 201 695 C243 695 262 671 267 644 C259 620 229 591 184 569 C153 597 123 623 121 638 L121 638 Z " />
<glyph glyph-name="ninesuperior" unicode="&#x2079;" horiz-adv-x="244" d="M66 403 C83 398 99 395 118 395 C204 395 274 499 274 599 C274 669 234 711 196 711 C148 711 86 660 86 596 C86 556 98 528 131 512 C164 512 213 532 249 556 C241 512 221 475 196 449 C174 426 148 414 123 414 C103 414 91 414 70 422 L66 403 Z M137 528 C112 546 106 561 106 597 C106 655 154 690 192 696 C224 690 253 663 253 597 C253 589 253 581 252 573 C217 549 161 528 137 528 L137 528 Z " />
<glyph glyph-name="plussuperior" unicode="&#x207a;" horiz-adv-x="322" d="M68 542 L200 542 L177 409 L196 409 L219 542 L354 542 L357 561 L223 561 L246 693 L227 693 L204 561 L72 561 L68 542 Z " />
<glyph glyph-name="minussuperior" unicode="&#x207b;" horiz-adv-x="365" d="M90 542 L376 542 L379 561 L93 561 L90 542 Z " />
<glyph glyph-name="equalsuperior" unicode="&#x207c;" horiz-adv-x="341" d="M80 480 L341 480 L344 499 L83 499 L80 480 Z M102 605 L363 605 L366 624 L105 624 L102 605 Z " />
<glyph glyph-name="parenleftsuperior" unicode="&#x207d;" horiz-adv-x="136" d="M142 305 C130 326 94 403 94 504 C94 699 208 816 235 837 L211 837 C186 819 73 706 73 498 C73 395 107 327 121 305 L142 305 Z " />
<glyph glyph-name="parenrightsuperior" unicode="&#x207e;" horiz-adv-x="135" d="M105 837 C118 816 153 751 153 650 C153 455 38 325 13 305 L36 305 C60 323 175 448 175 654 C175 759 140 814 126 837 L105 837 Z " />
<glyph glyph-name="n.superior" unicode="&#x207f;" horiz-adv-x="308" d="M94 400 L131 604 C190 653 245 690 284 692 L301 687 C304 680 307 670 307 653 C307 635 304 608 297 566 L267 400 L288 400 L319 567 C326 604 330 633 330 655 C330 695 317 711 289 711 C243 711 189 673 135 627 L150 706 L130 706 L73 400 L94 400 Z " />
<glyph glyph-name="zeroinferior" unicode="&#x2080;" horiz-adv-x="270" d="M224 203 C224 259 210 312 142 312 C53 312 19 224 12 140 C11 126 10 113 10 101 C10 36 38 -4 88 -4 C180 -4 215 86 223 168 C224 180 224 191 224 203 L224 203 Z M91 13 C51 13 31 44 31 105 C31 118 31 130 32 142 C39 227 74 294 139 294 C185 294 203 268 203 201 C203 188 202 176 201 164 C194 84 162 13 91 13 L91 13 Z " />
<glyph glyph-name="oneinferior" unicode="&#x2081;" horiz-adv-x="148" d="M54 0 L109 312 L95 312 L9 282 L6 263 L86 291 L34 0 L54 0 Z " />
<glyph glyph-name="twoinferior" unicode="&#x2082;" horiz-adv-x="222" d="M165 0 L168 18 L11 18 C93 81 185 186 185 252 C185 282 151 312 108 312 C78 312 50 304 21 283 L20 264 C52 284 75 294 105 294 C143 294 157 272 166 254 C162 188 77 86 -12 16 L-15 0 L165 0 Z " />
<glyph glyph-name="threeinferior" unicode="&#x2083;" horiz-adv-x="235" d="M-17 10 C-3 3 16 -4 54 -4 C122 -4 180 37 180 86 C180 120 120 152 88 163 L88 166 C129 178 192 227 192 251 C192 291 155 312 113 312 C80 312 50 302 26 287 L26 269 C53 284 81 294 107 294 C146 294 164 285 175 249 C159 221 107 183 63 172 L62 157 C108 142 154 111 161 87 C157 34 99 14 56 14 C33 14 14 16 -14 30 L-17 10 Z " />
<glyph glyph-name="fourinferior" unicode="&#x2084;" horiz-adv-x="248" d="M209 101 L211 118 L153 118 L187 312 L163 312 L-15 119 L-17 101 L130 101 L112 0 L132 0 L150 101 L209 101 Z M5 118 L163 289 L133 118 L5 118 Z " />
<glyph glyph-name="fiveinferior" unicode="&#x2085;" horiz-adv-x="228" d="M-11 9 C4 3 32 -4 63 -4 C138 -4 174 53 174 108 C174 152 147 182 113 193 C89 193 57 183 37 173 L70 287 L199 287 L201 307 L56 307 L15 156 L26 153 C51 166 79 172 109 176 C132 165 152 143 152 106 C152 46 117 14 65 14 C37 14 13 18 -9 28 L-11 9 Z " />
<glyph glyph-name="sixinferior" unicode="&#x2086;" horiz-adv-x="244" d="M213 304 C196 309 180 312 161 312 C75 312 5 208 5 108 C5 38 45 -4 83 -4 C131 -4 193 47 193 111 C193 151 181 179 148 195 C114 195 65 175 29 150 C37 194 57 231 83 258 C105 281 131 293 156 293 C176 293 188 293 209 285 L213 304 Z M142 179 C167 161 173 146 173 110 C173 52 125 17 87 11 C55 17 26 44 26 110 C26 118 26 126 27 133 C61 157 117 179 142 179 L142 179 Z " />
<glyph glyph-name="seveninferior" unicode="&#x2087;" horiz-adv-x="190" d="M8 288 L165 288 L4 4 L6 0 L22 0 L189 298 L182 307 L10 307 L8 288 Z " />
<glyph glyph-name="eightinferior" unicode="&#x2088;" horiz-adv-x="255" d="M217 245 C217 276 184 312 133 312 C82 312 34 270 34 235 C34 216 64 189 96 161 C39 139 -6 104 -6 67 C-6 42 23 -4 81 -4 C151 -4 195 32 195 80 C195 98 160 130 124 161 C170 182 217 223 217 245 L217 245 Z M177 75 C172 47 151 13 83 13 C42 13 20 42 11 68 C23 105 55 132 105 153 C140 123 176 93 177 75 L177 75 Z M51 238 C56 256 81 295 131 295 C173 295 192 271 197 244 C189 220 159 191 114 169 C83 197 53 223 51 238 L51 238 Z " />
<glyph glyph-name="nineinferior" unicode="&#x2089;" horiz-adv-x="244" d="M-5 3 C12 -2 28 -5 47 -5 C133 -5 203 99 203 199 C203 269 163 311 125 311 C77 311 15 260 15 196 C15 156 27 128 60 112 C93 112 142 132 178 156 C170 112 150 75 125 49 C103 26 77 14 52 14 C32 14 20 14 -1 22 L-5 3 Z M66 128 C41 146 35 161 35 197 C35 255 83 290 121 296 C153 290 182 263 182 197 C182 189 182 181 181 173 C146 149 90 128 66 128 L66 128 Z " />
<glyph glyph-name="plus.inferior" unicode="&#x208a;" horiz-adv-x="322" d="M-2 142 L130 142 L107 9 L126 9 L149 142 L284 142 L287 161 L153 161 L176 293 L157 293 L134 161 L2 161 L-2 142 Z " />
<glyph glyph-name="minus.inferior" unicode="&#x208b;" horiz-adv-x="367" d="M21 142 L307 142 L310 161 L24 161 L21 142 Z " />
<glyph glyph-name="equal.inferior" unicode="&#x208c;" horiz-adv-x="342" d="M10 80 L271 80 L274 99 L13 99 L10 80 Z M32 205 L293 205 L296 224 L35 224 L32 205 Z " />
<glyph glyph-name="parenleft.inferior" unicode="&#x208d;" horiz-adv-x="137" d="M72 -95 C60 -74 24 3 24 104 C24 299 138 416 165 437 L141 437 C116 419 3 306 3 98 C3 -5 37 -73 51 -95 L72 -95 Z " />
<glyph glyph-name="parenright.inferior" unicode="&#x208e;" horiz-adv-x="135" d="M35 437 C48 416 83 351 83 250 C83 55 -32 -75 -57 -95 L-34 -95 C-10 -77 105 48 105 254 C105 359 70 414 56 437 L35 437 Z " />
<glyph glyph-name="a.inferior" unicode="&#x2090;" horiz-adv-x="291" d="M194 0 L253 311 L232 311 L227 287 C192 303 158 311 140 311 C119 311 106 305 93 293 C42 252 8 146 8 63 C8 40 11 18 15 0 L46 0 L197 125 L174 0 L194 0 Z M33 21 C31 32 30 48 30 68 C30 148 64 257 119 293 C149 294 185 285 224 268 L202 150 L43 20 L33 21 Z " />
<glyph glyph-name="e.inferior" unicode="&#x2091;" horiz-adv-x="258" d="M200 72 L192 85 C150 52 96 24 59 14 L44 17 C35 40 30 71 30 112 L30 124 C96 150 186 197 226 228 L226 288 C197 304 167 311 143 311 C123 311 110 308 101 302 C72 283 54 262 40 235 C19 197 10 145 10 101 C10 61 15 27 28 -1 L57 -5 C126 18 173 49 200 72 L200 72 Z M117 292 C151 297 184 288 206 275 L206 235 C169 207 81 161 32 142 C41 213 76 272 117 292 L117 292 Z " />
<glyph glyph-name="o.inferior" unicode="&#x2092;" horiz-adv-x="280" d="M101 11 C85 12 72 13 57 21 C35 47 29 76 29 118 C29 201 75 282 135 295 C157 293 170 292 182 285 C201 270 216 237 216 195 C216 116 172 33 101 11 L101 11 Z M86 -5 C130 -5 167 23 195 60 C222 98 238 147 238 188 C238 281 198 311 154 311 C110 311 73 286 47 248 C22 210 7 160 7 110 C7 32 39 -5 86 -5 L86 -5 Z " />
<glyph glyph-name="x.inferior" unicode="&#x2093;" horiz-adv-x="258" d="M234 306 L112 168 L52 306 L30 306 L99 152 L-35 0 L-11 0 L107 136 L168 0 L190 0 L120 151 L259 306 L234 306 Z " />
<glyph glyph-name="h.inferior" unicode="&#x2095;" horiz-adv-x="310" d="M24 0 L62 204 C120 253 176 290 214 292 L232 287 C235 280 238 270 238 253 C238 235 235 208 228 166 L198 0 L218 0 L249 167 C256 204 260 233 260 255 C260 295 247 311 220 311 C173 311 120 273 66 227 L113 478 L91 478 L3 0 L24 0 Z " />
<glyph glyph-name="k.inferior" unicode="&#x2096;" horiz-adv-x="274" d="M23 0 L61 202 C102 239 158 281 197 295 L225 289 C223 240 196 188 134 138 L131 129 L184 0 L207 0 L152 132 C207 180 240 220 244 285 C245 291 245 297 245 303 L194 311 C164 300 108 264 65 224 L113 478 L91 478 L3 0 L23 0 Z " />
<glyph glyph-name="l.inferior" unicode="&#x2097;" horiz-adv-x="127" d="M27 0 L117 478 L95 478 L7 0 L27 0 Z " />
<glyph glyph-name="m.inferior" unicode="&#x2098;" horiz-adv-x="469" d="M357 0 L377 0 L409 167 C415 201 418 229 418 250 C418 292 406 311 378 311 C335 311 295 278 244 232 C248 286 236 311 205 311 C161 311 117 275 65 228 L80 306 L60 306 L3 0 L24 0 L61 204 C118 254 164 290 199 292 L216 287 C220 279 223 269 223 249 C223 231 220 205 213 166 L183 0 L203 0 L235 167 C238 183 241 197 242 211 C297 259 339 290 372 292 L389 287 C393 279 396 269 396 250 C396 232 393 206 386 166 L357 0 Z " />
<glyph glyph-name="n.inferior" unicode="&#x2099;" horiz-adv-x="310" d="M24 0 L61 204 C120 253 175 290 214 292 L231 287 C234 280 237 270 237 253 C237 235 234 208 227 166 L197 0 L218 0 L249 167 C256 204 260 233 260 255 C260 295 247 311 219 311 C173 311 119 273 65 227 L80 306 L60 306 L3 0 L24 0 Z " />
<glyph glyph-name="p.inferior" unicode="&#x209a;" horiz-adv-x="315" d="M22 -141 L49 4 C72 -2 94 -5 122 -5 C211 -5 271 88 271 186 C271 249 253 311 202 311 C181 311 140 292 98 269 L105 306 L84 306 L74 255 C47 239 21 221 4 208 L8 191 C22 202 45 218 70 234 L1 -141 L22 -141 Z M193 293 L208 293 C236 277 249 239 249 187 C249 80 185 12 130 12 C94 12 71 17 52 23 L94 248 C134 270 173 290 193 293 L193 293 Z " />
<glyph glyph-name="s.inferior" unicode="&#x209b;" horiz-adv-x="226" d="M200 298 C175 310 148 311 133 311 C67 311 25 276 25 233 C25 195 55 169 94 144 C120 127 149 104 150 67 C150 56 145 44 141 38 C129 21 94 13 62 13 C41 13 13 16 -13 29 L-18 11 C8 -2 37 -5 61 -5 C89 -5 128 4 149 22 C163 36 170 55 170 76 C170 109 138 139 102 163 C66 186 46 209 46 237 C46 249 51 259 58 272 C74 285 101 294 133 293 C158 293 175 288 195 279 L200 298 Z " />
<glyph glyph-name="t.inferior" unicode="&#x209c;" horiz-adv-x="223" d="M21 290 L69 290 L16 3 L51 -5 C100 10 157 51 175 70 L168 83 C144 61 100 33 58 17 L40 22 L89 290 L194 290 L197 306 L92 306 L107 386 L87 386 L72 306 L24 306 L21 290 Z " />
<glyph glyph-name="colonsign" unicode="&#x20a1;" horiz-adv-x="602" d="M173 -92 L198 -92 L250 -4 C265 -6 282 -8 300 -8 C377 -8 447 12 478 28 L483 55 C429 28 368 18 306 18 C291 18 278 18 264 20 L642 657 L617 657 L556 555 C540 562 519 571 488 577 L536 657 L511 657 L465 581 C446 583 424 585 398 585 C195 585 58 425 58 233 C58 154 86 83 144 39 L66 -92 L91 -92 L162 27 C181 15 203 6 227 0 L173 -92 Z M87 236 C87 443 238 560 392 560 C411 560 431 559 451 556 L159 64 C114 101 87 158 87 236 L87 236 Z M176 52 L474 552 C497 548 520 541 542 531 L242 25 C218 30 196 40 176 52 L176 52 Z " />
<glyph glyph-name="cruzeiro" unicode="&#x20a2;" horiz-adv-x="587" d="M517 307 C503 323 484 340 464 340 C436 340 373 278 315 204 L338 332 L312 332 L258 22 C155 40 90 114 90 236 C90 451 240 560 395 560 C448 560 508 552 560 524 L564 553 C536 565 490 585 401 585 C189 585 61 426 61 237 C61 100 146 -8 303 -8 C380 -8 445 12 476 28 L481 55 C428 28 370 18 309 18 C300 18 291 18 283 19 L309 168 C363 238 425 296 460 315 L501 284 L517 307 Z " />
<glyph glyph-name="franc" unicode="&#x20a3;" horiz-adv-x="625" d="M44 0 L73 0 L123 285 L382 285 L332 0 L357 0 L383 146 C438 216 501 274 536 294 L577 263 L592 285 C578 302 559 318 540 318 C512 318 448 257 390 183 L413 310 L128 310 L170 552 L471 552 L475 578 L146 578 L44 0 Z " />
<glyph glyph-name="lira" unicode="&#x20a4;" horiz-adv-x="512" d="M337 585 C237 585 126 532 122 371 C121 362 121 351 121 341 L78 341 L73 318 L121 318 C122 281 125 242 125 213 L55 213 L51 190 L125 190 C122 133 99 81 52 25 L21 25 L17 0 L416 0 L419 25 L82 25 C118 69 142 113 150 162 C151 171 153 180 153 190 L370 190 L375 213 L154 213 C155 247 152 284 150 318 L393 318 L397 341 L149 341 C148 353 148 365 149 376 C151 490 223 559 332 559 C392 559 434 548 473 522 L478 552 C444 572 400 585 337 585 L337 585 Z " />
<glyph glyph-name="mill" unicode="&#x20a5;" horiz-adv-x="646" d="M299 0 L327 157 L440 388 C477 415 508 431 535 433 L559 426 C564 414 569 397 569 365 C569 338 566 299 556 244 L514 0 L539 0 L583 246 C592 298 597 340 597 372 C597 431 580 458 542 458 C515 458 488 447 461 430 L532 574 L506 574 L421 400 C400 383 378 364 355 342 C356 353 356 363 356 372 C356 431 339 458 302 458 C242 458 180 403 107 334 L128 450 L102 450 L24 0 L49 0 L102 303 C181 377 248 430 295 433 L319 426 C324 414 329 397 329 366 C329 339 325 300 316 244 L300 155 L166 -120 L191 -120 L287 75 L274 0 L299 0 Z M343 246 L353 313 C368 328 384 341 398 353 L342 239 L343 246 Z " />
<glyph glyph-name="naira" unicode="&#x20a6;" horiz-adv-x="662" d="M76 0 L104 0 L146 233 L348 233 L462 0 L495 0 L536 233 L606 233 L610 257 L541 257 L557 350 L627 350 L631 374 L562 374 L598 576 L571 576 L534 374 L311 374 L212 576 L179 576 L143 374 L73 374 L68 350 L138 350 L122 257 L52 257 L48 233 L117 233 L76 0 Z M322 350 L530 350 L513 257 L368 257 L322 350 Z M167 350 L292 350 L337 257 L150 257 L167 350 Z M473 42 L379 233 L508 233 L474 42 L473 42 Z M201 536 L202 536 L280 374 L172 374 L201 536 Z " />
<glyph glyph-name="pesetas" unicode="&#x20a7;" horiz-adv-x="1039" d="M45 0 L73 0 L111 220 L196 220 C370 220 469 293 469 433 C469 526 398 583 297 583 L147 583 L45 0 Z M283 558 C397 558 440 502 440 426 C440 271 299 245 195 245 L116 245 L170 558 L283 558 Z M498 428 L567 428 L493 5 L540 -8 C609 14 687 74 713 103 L703 119 C669 86 608 44 550 20 L523 30 L592 428 L740 428 L743 450 L596 450 L617 567 L592 567 L571 450 L502 450 L498 428 Z M1000 439 C965 455 926 458 907 458 C815 458 757 406 757 343 C757 287 798 252 852 214 C888 189 931 153 933 100 C933 82 926 65 921 55 C903 30 852 16 808 16 C779 16 740 21 703 40 L696 16 C732 -3 772 -8 807 -8 C845 -8 900 5 928 33 C948 52 958 81 958 112 C958 160 913 206 863 240 C813 274 783 307 783 348 C783 366 788 382 799 400 C821 420 861 434 906 434 C941 434 965 428 993 414 L1000 439 Z " />
<glyph glyph-name="rupee" unicode="&#x20a8;" horiz-adv-x="754" d="M43 0 L71 0 L115 246 L202 246 C232 246 259 248 284 252 L355 94 C382 35 428 -8 527 -8 C566 -8 616 5 644 33 C664 52 673 81 673 112 C673 160 629 206 579 240 C530 274 499 307 499 348 C499 366 504 382 514 400 C537 420 577 434 622 434 C657 434 680 428 709 414 L716 439 C681 455 642 458 623 458 C531 458 472 406 472 343 C472 287 514 252 568 214 C604 189 647 153 649 100 C649 83 642 66 637 55 C619 30 568 15 524 15 C480 15 422 29 385 97 L313 257 C417 281 471 342 471 439 C471 528 407 578 301 578 L148 578 L43 0 Z M284 553 C392 553 442 513 442 435 C442 288 304 271 202 271 L120 271 L171 553 L284 553 Z " />
<glyph glyph-name="won" unicode="&#x20a9;" horiz-adv-x="883" d="M878 576 L848 576 L738 358 L534 358 L509 576 L475 576 L365 358 L170 358 L149 576 L118 576 L140 358 L76 358 L72 334 L143 334 L153 232 L54 232 L50 209 L156 209 L177 0 L214 0 L319 209 L522 209 L547 0 L583 0 L690 209 L813 209 L817 232 L702 232 L754 334 L835 334 L839 358 L766 358 L878 576 Z M536 334 L726 334 L674 232 L548 232 L536 334 Z M381 334 L507 334 L519 232 L330 232 L381 334 Z M172 334 L353 334 L302 232 L182 232 L172 334 Z M571 33 L550 209 L663 209 L574 33 L571 33 Z M480 530 L483 530 L504 358 L393 358 L480 530 Z M201 33 L184 209 L291 209 L203 33 L201 33 Z " />
<glyph glyph-name="sheqel" unicode="&#x20aa;" horiz-adv-x="706" d="M45 0 L69 0 L165 547 L327 547 C426 547 461 523 461 438 C461 401 454 352 443 288 L439 267 L463 267 L467 293 C479 359 487 411 487 452 C487 542 448 576 323 576 L146 576 L45 0 Z M222 0 L348 0 C576 0 606 160 626 276 L679 576 L655 576 L602 273 C575 116 527 29 358 29 L251 29 L309 357 L285 357 L222 0 Z " />
<glyph glyph-name="dong" unicode="&#x20ab;" horiz-adv-x="479" d="M250 610 L400 610 L372 476 C323 495 277 505 252 505 C222 505 206 497 187 482 C115 432 68 300 68 199 C68 171 72 143 77 121 L120 121 L329 274 L297 121 L325 121 L429 610 L492 610 L496 634 L434 634 L451 711 L422 711 L405 634 L254 634 L250 610 Z M102 144 C99 158 97 181 97 204 C97 302 144 439 222 484 C266 485 313 474 367 453 L335 302 L116 143 L102 144 Z M11 0 L372 0 L377 26 L15 26 L11 0 Z " />
<glyph glyph-name="Euro" unicode="&#x20ac;" horiz-adv-x="639" d="M66 351 L131 351 C121 316 115 279 115 240 L47 240 L42 217 L115 217 C123 90 209 -8 361 -8 C435 -8 499 11 535 28 L539 55 C486 29 425 17 363 17 C239 17 152 88 144 217 L446 217 L451 240 L144 240 C144 281 150 318 160 351 L470 351 L474 374 L168 374 C217 497 331 559 449 559 C502 559 562 551 614 523 L618 553 C590 565 544 584 455 584 C296 584 185 499 139 374 L70 374 L66 351 Z " />
<glyph glyph-name="uni20AD" unicode="&#x20ad;" horiz-adv-x="531" d="M392 0 L429 0 L216 286 L451 286 L455 310 L220 310 L539 576 L504 576 L188 310 L147 310 L194 576 L166 576 L119 310 L56 310 L51 286 L114 286 L64 0 L92 0 L142 286 L183 286 L392 0 Z " />
<glyph glyph-name="uni20AE" unicode="&#x20ae;" horiz-adv-x="545" d="M88 550 L306 550 L269 333 L124 277 L120 253 L265 309 L248 213 L103 157 L99 133 L244 189 L211 0 L239 0 L274 200 L411 254 L416 279 L278 225 L295 321 L432 374 L437 399 L300 345 L335 550 L554 550 L559 576 L93 576 L88 550 Z " />
<glyph glyph-name="uni20B1" unicode="&#x20b1;" horiz-adv-x="610" d="M88 446 L155 446 L138 346 L72 346 L67 324 L134 324 L77 0 L105 0 L142 212 L226 212 C351 212 435 253 474 324 L568 324 L572 346 L484 346 C493 370 498 397 498 427 C498 433 497 440 497 446 L589 446 L593 469 L493 469 C475 537 413 576 327 576 L178 576 L159 469 L93 469 L88 446 Z M468 422 C468 392 462 367 453 346 L165 346 L183 446 L466 446 C467 438 468 430 468 422 L468 422 Z M226 238 L146 238 L161 324 L442 324 C397 253 301 238 226 238 L226 238 Z M311 550 C394 550 443 521 461 469 L187 469 L201 550 L311 550 Z " />
<glyph glyph-name="uni20B4" unicode="&#x20b4;" horiz-adv-x="534" d="M501 376 L435 376 C457 399 471 429 471 469 C471 543 404 592 318 592 C265 592 208 580 165 564 L171 539 C221 558 266 567 313 567 C397 567 442 517 442 466 C442 426 425 398 398 376 L77 376 L73 352 L361 352 C329 335 291 322 253 308 C214 294 175 279 143 259 L56 259 L52 235 L111 235 C82 208 64 173 64 124 C64 40 146 -8 236 -8 C288 -8 331 2 389 20 L384 45 C333 25 284 17 234 17 C156 17 92 61 92 127 C92 177 116 210 152 235 L476 235 L480 259 L194 259 C214 268 235 276 257 284 C310 304 366 323 407 352 L496 352 L501 376 Z " />
<glyph glyph-name="uni20B9" unicode="&#x20b9;" horiz-adv-x="534" d="M418 0 L288 253 C378 273 434 322 447 402 L505 402 L514 426 L449 426 C450 431 450 436 450 441 C450 499 422 538 374 559 L531 559 L541 583 L128 583 L124 559 L262 559 C370 559 421 517 421 436 C421 432 420 429 420 426 L102 426 L98 402 L418 402 C398 282 273 266 179 266 L74 266 L70 242 L179 242 C208 242 235 244 260 248 L385 0 L418 0 Z " />
<glyph glyph-name="uni2113" unicode="&#x2113;" horiz-adv-x="357" d="M149 -8 C193 -8 218 7 256 42 L245 59 C221 36 197 15 157 15 C126 15 107 37 107 84 C107 106 110 134 115 167 L126 229 L194 276 C319 365 367 417 367 494 C367 553 331 589 280 589 C191 589 148 511 132 419 L99 234 L15 183 L22 166 L95 210 C95 210 77 102 77 79 C77 22 107 -8 149 -8 L149 -8 Z M131 254 L161 423 C179 525 220 566 276 566 C321 566 340 530 340 491 C340 414 281 364 186 294 L131 254 Z " />
<glyph glyph-name="uni2116" unicode="&#x2116;" horiz-adv-x="906" d="M565 198 L837 198 L842 221 L570 221 L565 198 Z M712 267 C812 267 876 358 876 465 C876 539 839 584 772 584 C676 584 605 496 605 390 C605 313 650 267 712 267 L712 267 Z M716 288 C664 288 629 324 629 390 C629 493 693 563 766 563 C827 563 852 522 852 465 C852 362 795 288 716 288 L716 288 Z M45 0 L73 0 L169 543 L170 543 L436 0 L469 0 L571 583 L543 583 L448 42 L446 42 L179 583 L147 583 L45 0 Z " />
<glyph glyph-name="uni2117" unicode="&#x2117;" horiz-adv-x="727" d="M370 -14 C537 -14 673 122 673 289 C673 456 537 592 370 592 C203 592 67 456 67 289 C67 122 203 -14 370 -14 L370 -14 Z M370 3 C220 3 85 130 85 289 C85 451 220 575 370 575 C520 575 655 452 655 289 C655 130 520 3 370 3 L370 3 Z M277 86 L302 86 L302 229 L359 229 C469 229 523 282 523 354 C523 436 467 473 386 473 L277 473 L277 86 Z M376 452 C457 451 498 418 498 354 C498 271 423 251 356 251 L302 251 L302 452 L376 452 Z " />
<glyph glyph-name="servicemark" unicode="&#x2120;" horiz-adv-x="639" d="M276 301 L296 301 L366 557 L368 557 L413 301 L438 301 L575 556 L577 556 L558 301 L579 301 L599 583 L569 583 L432 329 L430 329 L385 583 L354 583 L276 301 Z M86 313 C111 304 129 300 154 300 C214 300 260 328 260 388 C260 456 140 458 140 512 C140 550 167 572 213 572 C236 572 259 567 279 557 L283 577 C266 586 243 591 217 591 C166 591 120 564 120 513 C120 439 240 444 240 386 C240 339 203 319 158 319 C133 319 109 325 90 334 L86 313 Z " />
<glyph glyph-name="trademark" unicode="&#x2122;" horiz-adv-x="664" d="M300 301 L320 301 L391 557 L393 557 L437 301 L462 301 L599 556 L601 556 L582 301 L603 301 L623 583 L593 583 L457 329 L454 329 L409 583 L379 583 L300 301 Z M113 563 L213 563 L168 301 L189 301 L234 563 L338 563 L341 583 L116 583 L113 563 Z " />
<glyph glyph-name="Omega" unicode="&#x2126;" horiz-adv-x="649" d="M378 592 C162 592 65 391 65 249 C65 154 109 67 164 27 L163 25 L29 25 L25 0 L202 0 L205 21 C142 71 94 154 94 251 C94 418 206 567 373 567 C490 567 569 485 569 350 C569 184 474 90 362 21 L359 0 L535 0 L539 25 L405 25 L405 27 C503 85 599 195 599 351 C599 467 535 592 378 592 L378 592 Z " />
<glyph glyph-name="estimated" unicode="&#x212e;" horiz-adv-x="541" d="M272 -8 C356 -8 416 21 468 90 L451 102 C407 41 347 13 273 13 C153 13 91 87 88 198 L88 218 L465 218 L465 274 C465 369 404 465 276 465 C133 465 55 357 55 217 C55 74 132 -8 272 -8 L272 -8 Z M88 238 L88 253 C92 371 168 446 276 446 C387 446 432 356 432 285 L432 238 L88 238 Z " />
<glyph glyph-name="onethird" unicode="&#x2153;" horiz-adv-x="592" d="M133 267 L188 579 L174 579 L88 549 L85 530 L165 558 L113 267 L133 267 Z M320 10 C334 3 353 -4 391 -4 C459 -4 517 37 517 86 C517 120 457 152 425 163 L425 166 C466 178 529 227 529 251 C529 291 492 312 450 312 C417 312 387 302 363 287 L363 269 C390 284 418 294 444 294 C483 294 501 285 512 249 C496 221 444 183 400 172 L399 157 C445 142 491 111 498 87 C494 34 436 14 393 14 C370 14 351 16 323 30 L320 10 Z M62 0 L509 573 L509 576 L487 576 L41 3 L41 0 L62 0 Z " />
<glyph glyph-name="twothirds" unicode="&#x2154;" horiz-adv-x="619" d="M242 267 L245 285 L88 285 C170 348 262 453 262 519 C262 549 228 579 185 579 C155 579 127 571 98 550 L97 531 C129 551 152 561 182 561 C220 561 234 539 243 521 C239 455 154 353 65 283 L62 267 L242 267 Z M345 10 C359 3 378 -4 416 -4 C484 -4 542 37 542 86 C542 120 482 152 450 163 L450 166 C491 178 554 227 554 251 C554 291 517 312 475 312 C442 312 412 302 388 287 L388 269 C415 284 443 294 469 294 C508 294 526 285 537 249 C521 221 469 183 425 172 L424 157 C470 142 516 111 523 87 C519 34 461 14 418 14 C395 14 376 16 348 30 L345 10 Z M113 0 L560 573 L560 576 L538 576 L92 3 L92 0 L113 0 Z " />
<glyph glyph-name="uni215B" unicode="&#x215b;" horiz-adv-x="585" d="M528 245 C528 276 495 312 444 312 C393 312 345 270 345 235 C345 216 375 189 407 161 C350 139 305 104 305 67 C305 42 334 -4 392 -4 C462 -4 506 32 506 80 C506 98 471 130 435 161 C481 182 528 223 528 245 L528 245 Z M488 75 C483 47 462 13 394 13 C353 13 331 42 322 68 C334 105 366 132 416 153 C451 123 487 93 488 75 L488 75 Z M64 0 L511 573 L511 576 L489 576 L43 3 L43 0 L64 0 Z M362 238 C367 256 392 295 442 295 C484 295 503 271 508 244 C500 220 470 191 425 169 C394 197 364 223 362 238 L362 238 Z M134 267 L189 579 L175 579 L89 549 L86 530 L166 558 L114 267 L134 267 Z " />
<glyph glyph-name="arrowleft" unicode="&#x2190;" horiz-adv-x="529" d="M184 95 L69 252 L529 252 L529 277 L70 277 L184 433 L154 433 L30 264 L154 95 L184 95 Z " />
<glyph glyph-name="arrowup" unicode="&#x2191;" horiz-adv-x="419" d="M388 467 L219 590 L49 467 L49 437 L205 551 L205 92 L231 92 L231 551 L388 437 L388 467 Z " />
<glyph glyph-name="arrowright" unicode="&#x2192;" horiz-adv-x="529" d="M375 95 L499 264 L375 433 L345 433 L459 277 L0 277 L0 252 L460 252 L345 95 L375 95 Z " />
<glyph glyph-name="arrowdown" unicode="&#x2193;" horiz-adv-x="419" d="M49 215 L219 92 L388 215 L388 245 L232 131 L232 590 L206 590 L206 131 L49 245 L49 215 Z " />
<glyph glyph-name="uni2196" unicode="&#x2196;" horiz-adv-x="431" d="M249 549 L42 517 L10 311 L31 289 L61 480 L385 155 L404 174 L79 498 L271 528 L249 549 Z " />
<glyph glyph-name="uni2197" unicode="&#x2197;" horiz-adv-x="454" d="M426 311 L394 517 L187 549 L165 528 L357 499 L31 175 L50 156 L375 480 L405 289 L426 311 Z " />
<glyph glyph-name="uni2198" unicode="&#x2198;" horiz-adv-x="431" d="M162 144 L369 176 L401 382 L380 404 L351 213 L26 538 L7 520 L333 195 L140 164 L162 144 Z " />
<glyph glyph-name="uni2199" unicode="&#x2199;" horiz-adv-x="431" d="M27 387 L60 180 L266 148 L288 170 L96 199 L421 524 L403 541 L79 217 L48 409 L27 387 Z " />
<glyph glyph-name="partialdiff" unicode="&#x2202;" horiz-adv-x="410" d="M147 -8 C209 -8 262 27 300 92 C337 157 360 251 360 370 C360 476 339 588 176 675 L161 653 C264 597 319 522 331 422 C305 445 273 458 243 458 C205 458 171 444 143 421 C78 367 39 264 39 162 C39 48 82 -8 147 -8 L147 -8 Z M334 378 C334 240 303 59 174 15 C151 16 125 19 104 31 C74 69 66 111 66 172 C66 294 134 417 216 436 L250 435 C264 434 313 411 334 391 L334 378 Z " />
<glyph glyph-name="Delta" unicode="&#x2206;" horiz-adv-x="513" d="M433 0 L436 23 L347 583 L316 583 L1 22 L-2 0 L433 0 Z M324 551 L326 551 L407 25 L29 25 L324 551 Z " />
<glyph glyph-name="product" unicode="&#x220f;" horiz-adv-x="712" d="M97 -207 L232 558 L575 558 L440 -207 L468 -207 L603 558 L731 558 L735 583 L87 583 L83 558 L204 558 L69 -208 L97 -207 Z " />
<glyph glyph-name="summation" unicode="&#x2211;" horiz-adv-x="504" d="M-45 -207 L383 -207 L387 -181 L-5 -181 L291 220 L128 558 L493 558 L497 583 L98 583 L95 560 L258 219 L-41 -187 L-45 -207 Z " />
<glyph glyph-name="minus" unicode="&#x2212;" horiz-adv-x="564" d="M79 283 L492 283 L497 307 L84 307 L79 283 Z " />
<glyph glyph-name="radical" unicode="&#x221a;" horiz-adv-x="540" d="M66 450 L166 0 L196 0 L590 659 L563 659 L191 34 L187 34 L95 450 L66 450 Z " />
<glyph glyph-name="infinity" unicode="&#x221e;" horiz-adv-x="861" d="M262 506 C141 506 63 369 63 246 C63 154 110 82 201 82 C293 82 382 198 438 276 C474 202 519 82 616 82 C742 82 810 218 810 339 C810 425 768 506 682 506 C586 506 510 396 446 317 C409 390 359 506 262 506 L262 506 Z M205 107 C153 107 87 145 87 248 C87 385 173 481 257 481 C345 481 396 363 428 296 C373 225 287 107 205 107 L205 107 Z M620 107 C537 107 487 227 455 296 C510 363 596 481 677 481 C729 481 785 439 785 340 C785 184 693 107 620 107 L620 107 Z " />
<glyph glyph-name="integral" unicode="&#x222b;" horiz-adv-x="422" d="M133 -44 C115 -145 85 -188 9 -188 C-18 -188 -27 -187 -51 -182 L-55 -207 C-41 -210 -19 -213 2 -213 C98 -213 140 -156 160 -43 L254 490 C272 592 324 636 401 636 C428 636 437 634 462 630 L467 655 C451 658 430 661 409 661 C313 661 247 604 227 491 L133 -44 Z " />
<glyph glyph-name="approxequal" unicode="&#x2248;" horiz-adv-x="511" d="M368 369 C400 369 437 390 464 419 L453 435 C431 414 406 394 376 394 C306 394 278 438 210 438 C167 438 123 412 98 391 L107 373 C125 387 159 413 206 413 C267 413 303 369 368 369 L368 369 Z M338 183 C370 183 407 204 434 233 L423 249 C401 228 376 208 346 208 C276 208 248 252 180 252 C137 252 93 226 68 205 L77 187 C95 201 129 227 176 227 C237 227 273 183 338 183 L338 183 Z " />
<glyph glyph-name="notequal" unicode="&#x2260;" horiz-adv-x="517" d="M92 375 L324 375 L195 217 L65 217 L61 194 L176 194 L34 20 L59 20 L201 194 L437 194 L441 217 L220 217 L350 375 L469 375 L474 399 L369 399 L505 564 L479 564 L344 399 L97 399 L92 375 Z " />
<glyph glyph-name="lessequal" unicode="&#x2264;" horiz-adv-x="553" d="M43 52 L444 52 L449 77 L47 77 L43 52 Z M442 149 L451 174 L125 338 L509 502 L508 527 L95 349 L92 327 L442 149 Z " />
<glyph glyph-name="greaterequal" unicode="&#x2265;" horiz-adv-x="550" d="M444 77 L43 77 L38 52 L439 52 L444 77 Z M489 327 L492 349 L142 527 L133 502 L459 338 L74 174 L75 149 L489 327 Z " />
<glyph glyph-name="uni2460" unicode="&#x2460;" horiz-adv-x="713" d="M356 -12 C523 -12 660 124 660 291 C660 458 523 595 356 595 C189 595 53 458 53 291 C53 124 189 -12 356 -12 L356 -12 Z M356 8 C200 8 73 135 73 291 C73 447 200 575 356 575 C512 575 640 447 640 291 C640 135 512 8 356 8 L356 8 Z M369 140 L369 451 L352 451 L271 422 L271 403 L346 427 L346 140 L369 140 Z " />
<glyph glyph-name="uni2461" unicode="&#x2461;" horiz-adv-x="713" d="M356 -12 C523 -12 660 124 660 291 C660 458 523 595 356 595 C189 595 53 458 53 291 C53 124 189 -12 356 -12 L356 -12 Z M356 8 C200 8 73 135 73 291 C73 447 200 575 356 575 C512 575 640 447 640 291 C640 135 512 8 356 8 L356 8 Z M243 140 L450 140 L450 160 L274 160 L277 162 C348 214 438 292 438 364 C438 425 398 451 342 451 C314 451 280 442 253 423 L253 402 C290 426 314 431 341 431 C391 431 415 406 415 362 C415 294 324 219 243 158 L243 140 Z " />
<glyph glyph-name="uni2462" unicode="&#x2462;" horiz-adv-x="713" d="M356 -12 C523 -12 660 124 660 291 C660 458 523 595 356 595 C189 595 53 458 53 291 C53 124 189 -12 356 -12 L356 -12 Z M356 8 C200 8 73 135 73 291 C73 447 200 575 356 575 C512 575 640 447 640 291 C640 135 512 8 356 8 L356 8 Z M337 136 C391 136 446 159 446 225 C446 274 400 300 359 301 L359 302 C379 307 430 331 430 382 C430 425 399 451 348 451 C319 451 291 442 267 424 L267 402 C296 423 317 431 346 431 C387 431 407 410 407 379 C407 341 364 310 323 307 L323 289 C384 287 422 268 422 224 C422 185 397 155 341 155 C316 155 288 159 264 171 L264 150 C280 142 305 136 337 136 L337 136 Z " />
<glyph glyph-name="uni2463" unicode="&#x2463;" horiz-adv-x="713" d="M356 -12 C523 -12 660 124 660 291 C660 458 523 595 356 595 C189 595 53 458 53 291 C53 124 189 -12 356 -12 L356 -12 Z M356 8 C200 8 73 135 73 291 C73 447 200 575 356 575 C512 575 640 447 640 291 C640 135 512 8 356 8 L356 8 Z M360 140 L384 140 L384 227 L430 227 L430 246 L384 246 L384 451 L362 451 L215 247 L215 227 L360 227 L360 140 Z M237 246 L360 417 L360 246 L237 246 Z " />
<glyph glyph-name="uni2464" unicode="&#x2464;" horiz-adv-x="713" d="M356 -12 C523 -12 660 124 660 291 C660 458 523 595 356 595 C189 595 53 458 53 291 C53 124 189 -12 356 -12 L356 -12 Z M356 8 C200 8 73 135 73 291 C73 447 200 575 356 575 C512 575 640 447 640 291 C640 135 512 8 356 8 L356 8 Z M331 136 C384 136 436 165 436 231 C436 302 386 320 320 320 C309 320 297 318 289 318 L297 426 L432 426 L432 446 L279 446 L268 296 C282 299 299 300 314 300 C374 300 413 286 413 229 C413 182 378 155 333 155 C305 155 279 160 253 171 L253 150 C271 143 296 136 331 136 L331 136 Z " />
<glyph glyph-name="uni2465" unicode="&#x2465;" horiz-adv-x="713" d="M356 -12 C523 -12 660 124 660 291 C660 458 523 595 356 595 C189 595 53 458 53 291 C53 124 189 -12 356 -12 L356 -12 Z M356 8 C200 8 73 135 73 291 C73 447 200 575 356 575 C512 575 640 447 640 291 C640 135 512 8 356 8 L356 8 Z M368 431 C382 431 400 429 421 421 L421 442 C405 447 384 451 368 451 C290 451 238 383 238 270 C238 194 271 136 336 136 C398 136 438 177 438 238 C438 303 401 327 348 327 C318 327 282 309 263 295 C268 386 305 431 368 431 L368 431 Z M344 308 C391 308 413 289 413 236 C413 184 387 155 336 155 C285 155 262 202 262 270 L262 275 C280 289 311 308 344 308 L344 308 Z " />
<glyph glyph-name="uni2466" unicode="&#x2466;" horiz-adv-x="713" d="M356 -12 C523 -12 660 124 660 291 C660 458 523 595 356 595 C189 595 53 458 53 291 C53 124 189 -12 356 -12 L356 -12 Z M356 8 C200 8 73 135 73 291 C73 447 200 575 356 575 C512 575 640 447 640 291 C640 135 512 8 356 8 L356 8 Z M304 140 L440 430 L440 446 L260 446 L260 426 L416 426 L281 142 L283 140 L304 140 Z " />
<glyph glyph-name="uni2467" unicode="&#x2467;" horiz-adv-x="713" d="M356 -12 C523 -12 660 124 660 291 C660 458 523 595 356 595 C189 595 53 458 53 291 C53 124 189 -12 356 -12 L356 -12 Z M356 8 C200 8 73 135 73 291 C73 447 200 575 356 575 C512 575 640 447 640 291 C640 135 512 8 356 8 L356 8 Z M450 221 C450 264 419 282 384 295 C416 311 443 338 443 375 C443 420 408 451 350 451 C299 451 262 416 262 370 C262 332 285 313 313 300 C283 286 255 256 255 219 C255 169 289 136 348 136 C408 136 450 171 450 221 L450 221 Z M420 373 C420 343 399 320 366 302 C325 315 284 328 284 371 C284 409 312 431 350 431 C398 431 420 405 420 373 L420 373 Z M278 220 C278 256 302 280 329 294 C374 277 427 268 427 220 C427 169 385 155 349 155 C307 155 278 177 278 220 L278 220 Z " />
<glyph glyph-name="uni2468" unicode="&#x2468;" horiz-adv-x="713" d="M356 -12 C523 -12 660 124 660 291 C660 458 523 595 356 595 C189 595 53 458 53 291 C53 124 189 -12 356 -12 L356 -12 Z M356 8 C200 8 73 135 73 291 C73 447 200 575 356 575 C512 575 640 447 640 291 C640 135 512 8 356 8 L356 8 Z M323 155 C309 155 291 157 270 165 L270 144 C286 139 307 136 323 136 C401 136 453 203 453 317 C453 393 420 451 355 451 C293 451 253 409 253 348 C253 283 290 259 343 259 C372 259 408 276 427 291 C423 200 385 155 323 155 L323 155 Z M347 278 C300 278 277 297 277 350 C277 404 304 431 354 431 C406 431 429 384 429 317 L429 310 C410 297 379 278 347 278 L347 278 Z " />
<glyph glyph-name="uni2469" unicode="&#x2469;" horiz-adv-x="713" d="M356 -12 C523 -12 660 124 660 291 C660 458 523 595 356 595 C189 595 53 458 53 291 C53 124 189 -12 356 -12 L356 -12 Z M356 8 C200 8 73 135 73 291 C73 447 200 575 356 575 C512 575 640 447 640 291 C640 135 512 8 356 8 L356 8 Z M258 140 L258 451 L241 451 L159 422 L159 403 L235 427 L235 140 L258 140 Z M419 136 C498 136 539 200 539 296 C539 374 513 451 424 451 C344 451 306 380 306 287 C306 197 337 136 419 136 L419 136 Z M420 155 C368 155 329 187 329 287 C329 384 368 431 422 431 C476 431 515 390 515 295 C515 198 475 155 420 155 L420 155 Z " />
<glyph glyph-name="uni24CA" unicode="&#x24ca;" horiz-adv-x="727" d="M370 -14 C537 -14 673 122 673 289 C673 456 537 592 370 592 C203 592 67 456 67 289 C67 122 203 -14 370 -14 L370 -14 Z M370 3 C220 3 85 130 85 289 C85 451 220 575 370 575 C520 575 655 452 655 289 C655 130 520 3 370 3 L370 3 Z M372 94 C445 94 517 144 517 259 L517 454 L492 454 L492 258 C492 166 444 118 372 118 C297 118 248 155 248 250 L248 454 L223 454 L223 246 C223 134 293 94 372 94 L372 94 Z " />
<glyph glyph-name="uni25B2" unicode="&#x25b2;" horiz-adv-x="594" d="M526 21 L258 449 L-10 21 L526 21 Z " />
<glyph glyph-name="uni25B6" unicode="&#x25b6;" horiz-adv-x="551" d="M94 -33 L522 235 L94 503 L94 -33 Z " />
<glyph glyph-name="uni25B8" unicode="&#x25b8;" horiz-adv-x="392" d="M360 218 L93 486 L93 -50 L360 218 Z " />
<glyph glyph-name="uni25BA" unicode="&#x25ba;" horiz-adv-x="848" d="M812 218 L90 486 L90 -50 L812 218 Z " />
<glyph glyph-name="uni25BC" unicode="&#x25bc;" horiz-adv-x="608" d="M67 448 L335 20 L603 448 L67 448 Z " />
<glyph glyph-name="uni25C0" unicode="&#x25c0;" horiz-adv-x="551" d="M450 -33 L450 503 L22 235 L450 -33 Z " />
<glyph glyph-name="uni25C2" unicode="&#x25c2;" horiz-adv-x="392" d="M287 -50 L287 486 L20 219 L287 -50 Z " />
<glyph glyph-name="uni25C4" unicode="&#x25c4;" horiz-adv-x="847" d="M744 -50 L744 486 L22 218 L744 -50 Z " />
<glyph glyph-name="lozenge" unicode="&#x25ca;" horiz-adv-x="485" d="M188 0 L209 0 L461 286 L309 583 L288 583 L35 286 L188 0 Z M202 25 L63 285 L295 557 L435 287 L202 25 Z " />
<glyph glyph-name="uni2610" unicode="&#x2610;" horiz-adv-x="780" d="M105 0 L688 0 L688 583 L105 583 L105 0 Z M127 23 L127 560 L665 560 L665 23 L127 23 Z " />
<glyph glyph-name="uni2611" unicode="&#x2611;" horiz-adv-x="781" d="M105 -4 L688 -4 L688 579 L105 579 L105 -4 Z M127 19 L127 556 L665 556 L665 19 L127 19 Z M271 78 L288 78 C381 166 523 366 601 490 L593 499 C576 490 558 474 546 454 C491 367 353 162 284 102 C256 155 227 252 225 301 L213 305 C210 304 197 292 195 289 C191 264 232 132 271 78 L271 78 Z " />
<glyph glyph-name="uni261A" unicode="&#x261a;" horiz-adv-x="1007" d="M73 453 C56 391 110 386 110 386 L316 400 L371 365 C371 365 295 272 291 246 C291 246 307 200 344 186 C344 186 354 129 396 126 C396 126 405 88 451 74 L527 101 C527 101 603 88 747 140 L936 126 L936 365 L759 401 C759 401 709 443 646 459 L344 509 L73 453 Z " />
<glyph glyph-name="uni261B" unicode="&#x261b;" horiz-adv-x="942" d="M659 509 L357 459 C294 443 244 401 244 401 L67 365 L67 126 L256 140 C400 88 476 101 476 101 L552 74 C598 88 607 126 607 126 C649 129 659 186 659 186 C696 200 712 246 712 246 C708 272 632 365 632 365 L687 400 L893 386 C893 386 947 391 930 453 L659 509 Z " />
<glyph glyph-name="uni261C" unicode="&#x261c;" horiz-adv-x="1007" d="M73 453 C56 391 110 386 110 386 L316 400 L403 357 C403 357 297 274 289 248 C289 248 298 205 340 190 C340 190 350 135 396 126 C396 126 405 88 451 74 L527 101 C527 101 603 88 747 140 L936 126 L936 365 L759 401 C759 401 709 443 646 459 L344 509 L73 453 Z M730 160 C667 128 524 122 524 122 L451 99 C427 101 412 140 412 140 L476 196 L538 216 L530 235 L470 214 L398 149 C372 155 357 196 357 196 L449 271 L511 290 L502 307 L439 288 L348 211 C321 220 310 250 310 250 L417 342 L429 365 L323 418 L117 404 C117 404 87 421 99 442 L344 488 L643 438 C688 422 744 382 744 382 L913 348 L913 151 L730 160 Z " />
<glyph glyph-name="uni261D" unicode="&#x261d;" horiz-adv-x="554" d="M78 472 L128 170 C144 107 186 57 186 57 L222 -120 L461 -120 L447 69 C499 213 486 289 486 289 L513 365 C499 411 461 420 461 420 C453 466 397 476 397 476 C382 519 339 527 339 527 C314 520 230 406 230 406 L187 500 L201 706 C201 706 196 760 134 743 L78 472 Z M436 -96 L239 -96 L205 72 C205 72 165 129 149 174 L99 472 L145 717 C166 730 183 699 183 699 L169 494 L222 379 L246 391 L337 507 C337 507 367 495 377 468 L299 378 L280 315 L297 306 L316 367 L391 460 C391 460 432 444 438 418 L373 347 L352 286 L371 278 L391 340 L448 405 C448 405 486 390 488 366 L466 293 C466 293 459 149 427 86 L436 -96 Z " />
<glyph glyph-name="uni261E" unicode="&#x261e;" horiz-adv-x="943" d="M659 509 L357 459 C294 443 244 401 244 401 L67 365 L67 126 L256 140 C400 88 476 101 476 101 L552 74 C598 88 607 126 607 126 C653 135 663 190 663 190 C705 205 714 248 714 248 C706 274 593 357 593 357 L687 400 L893 386 C893 386 947 391 930 453 L659 509 Z M90 151 L90 348 L259 382 C259 382 315 422 360 438 L659 488 L904 442 C916 421 886 404 886 404 L680 418 L566 365 L578 342 L693 250 C693 250 682 220 655 211 L564 288 L501 307 L492 290 L554 271 L646 196 C646 196 631 155 605 149 L533 214 L473 235 L465 216 L527 196 L591 140 C591 140 576 101 552 99 L479 122 C479 122 336 128 273 160 L90 151 Z " />
<glyph glyph-name="uni261F" unicode="&#x261f;" horiz-adv-x="555" d="M499 168 L449 470 C433 533 391 583 391 583 L355 760 L116 760 L130 571 C78 427 91 351 91 351 L64 275 C78 229 116 220 116 220 C125 174 180 164 180 164 C195 122 238 114 238 114 C264 121 347 235 347 235 L390 140 L376 -66 C376 -66 381 -120 443 -103 L499 168 Z M141 737 L338 737 L372 568 C372 568 412 512 428 467 L478 168 L432 -77 C411 -89 394 -59 394 -59 L408 147 L355 261 L332 249 L240 134 C240 134 210 146 201 172 L278 263 L297 326 L280 335 L261 273 L186 181 C186 181 145 197 139 222 L204 294 L225 355 L206 363 L186 300 L130 236 C130 236 91 251 89 275 L112 348 C112 348 118 491 150 554 L141 737 Z " />
<glyph glyph-name="uni267E" unicode="&#x267e;" horiz-adv-x="727" d="M370 -14 C537 -14 673 122 673 289 C673 456 537 592 370 592 C203 592 67 456 67 289 C67 122 203 -14 370 -14 L370 -14 Z M370 4 C213 4 85 132 85 289 C85 446 213 574 370 574 C527 574 655 446 655 289 C655 132 527 4 370 4 L370 4 Z M271 403 C216 403 183 344 183 291 C183 238 212 179 271 179 C317 179 346 228 371 275 C396 227 423 179 471 179 C530 179 559 238 559 291 C559 344 526 403 471 403 C426 403 396 355 371 309 C346 356 317 403 271 403 L271 403 Z M271 201 C227 201 205 248 205 291 C205 334 230 381 271 381 C312 381 338 336 361 292 C337 247 309 201 271 201 L271 201 Z M471 201 C432 201 406 247 381 293 C405 337 431 381 471 381 C512 381 537 334 537 291 C537 248 514 201 471 201 L471 201 Z " />
<glyph glyph-name="uni2713" unicode="&#x2713;" horiz-adv-x="442" d="M120 78 L137 78 C230 166 372 366 450 490 L442 499 C425 490 407 474 395 454 C340 367 202 162 133 102 C105 155 76 252 74 301 L62 305 C59 304 46 292 44 289 C40 264 81 132 120 78 L120 78 Z " />
<glyph glyph-name="uni2776" unicode="&#x2776;" horiz-adv-x="713" d="M356 -12 C523 -12 660 124 660 291 C660 458 523 595 356 595 C189 595 53 458 53 291 C53 124 189 -12 356 -12 L356 -12 Z M346 140 L346 427 L271 403 L271 422 L352 451 L369 451 L369 140 L346 140 Z " />
<glyph glyph-name="uni2777" unicode="&#x2777;" horiz-adv-x="713" d="M356 -12 C523 -12 660 124 660 291 C660 458 523 595 356 595 C189 595 53 458 53 291 C53 124 189 -12 356 -12 L356 -12 Z M243 158 C324 219 415 294 415 362 C415 406 391 431 341 431 C314 431 290 426 253 402 L253 423 C280 442 314 451 342 451 C398 451 438 425 438 364 C438 292 347 214 276 162 C276 161 275 161 274 160 L450 160 L450 140 L243 140 L243 158 Z " />
<glyph glyph-name="uni2778" unicode="&#x2778;" horiz-adv-x="713" d="M356 -12 C523 -12 660 124 660 291 C660 458 523 595 356 595 C189 595 53 458 53 291 C53 124 189 -12 356 -12 L356 -12 Z M337 136 C305 136 280 142 264 150 L264 171 C288 159 316 155 341 155 C397 155 422 185 422 224 C422 268 384 287 323 289 L323 307 C364 310 407 341 407 379 C407 410 387 431 346 431 C317 431 296 423 267 402 L267 424 C291 442 319 451 348 451 C399 451 430 425 430 382 C430 331 379 307 359 302 L359 301 C400 300 446 274 446 225 C446 159 391 136 337 136 L337 136 Z " />
<glyph glyph-name="uni2779" unicode="&#x2779;" horiz-adv-x="713" d="M356 -12 C523 -12 660 124 660 291 C660 458 523 595 356 595 C189 595 53 458 53 291 C53 124 189 -12 356 -12 L356 -12 Z M360 227 L215 227 L215 247 L362 451 L384 451 L384 246 L430 246 L430 227 L384 227 L384 140 L360 140 L360 227 Z M360 246 L360 417 L237 246 L360 246 Z " />
<glyph glyph-name="uni277A" unicode="&#x277a;" horiz-adv-x="713" d="M356 -12 C523 -12 660 124 660 291 C660 458 523 595 356 595 C189 595 53 458 53 291 C53 124 189 -12 356 -12 L356 -12 Z M331 136 C296 136 271 143 253 150 L253 171 C279 160 305 155 333 155 C378 155 413 182 413 229 C413 286 374 300 314 300 C299 300 282 299 268 296 L279 446 L432 446 L432 426 L297 426 L289 318 C297 318 309 320 320 320 C386 320 436 302 436 231 C436 165 384 136 331 136 L331 136 Z " />
<glyph glyph-name="uni277B" unicode="&#x277b;" horiz-adv-x="713" d="M356 -12 C523 -12 660 124 660 291 C660 458 523 595 356 595 C189 595 53 458 53 291 C53 124 189 -12 356 -12 L356 -12 Z M368 431 C305 431 268 386 263 295 C282 309 318 327 348 327 C401 327 438 303 438 238 C438 177 398 136 336 136 C271 136 238 194 238 270 C238 383 290 451 368 451 C384 451 405 447 421 442 L421 421 C400 429 382 431 368 431 L368 431 Z M344 308 C311 308 280 289 262 275 L262 270 C262 202 285 155 336 155 C387 155 413 184 413 236 C413 289 391 308 344 308 L344 308 Z " />
<glyph glyph-name="uni277C" unicode="&#x277c;" horiz-adv-x="713" d="M356 -12 C523 -12 660 124 660 291 C660 458 523 595 356 595 C189 595 53 458 53 291 C53 124 189 -12 356 -12 L356 -12 Z M283 140 L281 142 L416 426 L260 426 L260 446 L440 446 L440 430 L304 140 L283 140 Z " />
<glyph glyph-name="uni277D" unicode="&#x277d;" horiz-adv-x="713" d="M356 -12 C523 -12 660 124 660 291 C660 458 523 595 356 595 C189 595 53 458 53 291 C53 124 189 -12 356 -12 L356 -12 Z M450 221 C450 171 408 136 348 136 C289 136 255 169 255 219 C255 256 283 286 313 300 C285 313 262 332 262 370 C262 416 299 451 350 451 C408 451 443 420 443 375 C443 338 416 311 384 295 C419 282 450 264 450 221 L450 221 Z M420 373 C420 405 398 431 350 431 C312 431 284 409 284 371 C284 328 325 315 366 302 C399 320 420 343 420 373 L420 373 Z M278 220 C278 177 307 155 349 155 C385 155 427 169 427 220 C427 268 374 277 329 294 C302 280 278 256 278 220 L278 220 Z " />
<glyph glyph-name="uni277E" unicode="&#x277e;" horiz-adv-x="713" d="M356 -12 C523 -12 660 124 660 291 C660 458 523 595 356 595 C189 595 53 458 53 291 C53 124 189 -12 356 -12 L356 -12 Z M323 155 C385 155 423 200 427 291 C408 276 372 259 343 259 C290 259 253 283 253 348 C253 409 293 451 355 451 C420 451 453 393 453 317 C453 203 401 136 323 136 C307 136 286 139 270 144 L270 165 C291 157 309 155 323 155 L323 155 Z M347 278 C379 278 410 297 429 310 L429 317 C429 384 406 431 354 431 C304 431 277 404 277 350 C277 297 300 278 347 278 L347 278 Z " />
<glyph glyph-name="uni277F" unicode="&#x277f;" horiz-adv-x="713" d="M356 -12 C523 -12 660 124 660 291 C660 458 523 595 356 595 C189 595 53 458 53 291 C53 124 189 -12 356 -12 L356 -12 Z M235 140 L235 427 L159 403 L159 422 L241 451 L258 451 L258 140 L235 140 Z M419 136 C337 136 306 197 306 287 C306 380 344 451 424 451 C513 451 539 374 539 296 C539 200 498 136 419 136 L419 136 Z M420 155 C475 155 515 198 515 295 C515 390 476 431 422 431 C368 431 329 384 329 287 C329 187 368 155 420 155 L420 155 Z " />
<glyph glyph-name="uni2780" unicode="&#x2780;" horiz-adv-x="713" d="M356 -12 C523 -12 660 124 660 291 C660 458 523 595 356 595 C189 595 53 458 53 291 C53 124 189 -12 356 -12 L356 -12 Z M356 8 C200 8 73 135 73 291 C73 447 200 575 356 575 C512 575 640 447 640 291 C640 135 512 8 356 8 L356 8 Z M370 140 L370 451 L353 451 L271 422 L271 403 L347 427 L347 140 L370 140 Z " />
<glyph glyph-name="uni2781" unicode="&#x2781;" horiz-adv-x="713" d="M356 -12 C523 -12 660 124 660 291 C660 458 523 595 356 595 C189 595 53 458 53 291 C53 124 189 -12 356 -12 L356 -12 Z M356 8 C200 8 73 135 73 291 C73 447 200 575 356 575 C512 575 640 447 640 291 C640 135 512 8 356 8 L356 8 Z M243 140 L450 140 L450 160 L274 160 C275 161 276 161 276 162 C347 214 438 292 438 364 C438 425 398 451 342 451 C314 451 280 442 253 423 L253 402 C290 426 314 431 341 431 C391 431 415 406 415 362 C415 294 324 219 243 158 L243 140 Z " />
<glyph glyph-name="uni2782" unicode="&#x2782;" horiz-adv-x="713" d="M356 -12 C523 -12 660 124 660 291 C660 458 523 595 356 595 C189 595 53 458 53 291 C53 124 189 -12 356 -12 L356 -12 Z M356 8 C200 8 73 135 73 291 C73 447 200 575 356 575 C512 575 640 447 640 291 C640 135 512 8 356 8 L356 8 Z M337 136 C391 136 446 159 446 225 C446 274 400 300 359 301 L359 302 C379 307 430 331 430 382 C430 425 399 451 348 451 C319 451 291 442 267 424 L267 402 C296 423 317 431 346 431 C387 431 407 410 407 379 C407 341 364 310 323 307 L323 289 C384 287 422 268 422 224 C422 185 397 155 341 155 C316 155 288 159 264 171 L264 150 C280 142 305 136 337 136 L337 136 Z " />
<glyph glyph-name="uni2783" unicode="&#x2783;" horiz-adv-x="713" d="M356 -12 C523 -12 660 124 660 291 C660 458 523 595 356 595 C189 595 53 458 53 291 C53 124 189 -12 356 -12 L356 -12 Z M356 8 C200 8 73 135 73 291 C73 447 200 575 356 575 C512 575 640 447 640 291 C640 135 512 8 356 8 L356 8 Z M360 140 L384 140 L384 227 L430 227 L430 246 L384 246 L384 451 L362 451 L215 247 L215 227 L360 227 L360 140 Z M237 246 L360 417 L360 246 L237 246 Z " />
<glyph glyph-name="uni2784" unicode="&#x2784;" horiz-adv-x="713" d="M356 -12 C523 -12 660 124 660 291 C660 458 523 595 356 595 C189 595 53 458 53 291 C53 124 189 -12 356 -12 L356 -12 Z M356 8 C200 8 73 135 73 291 C73 447 200 575 356 575 C512 575 640 447 640 291 C640 135 512 8 356 8 L356 8 Z M331 136 C384 136 436 165 436 231 C436 302 386 320 320 320 C309 320 297 318 289 318 L297 426 L432 426 L432 446 L279 446 L268 296 C282 299 299 300 314 300 C374 300 413 286 413 229 C413 182 378 155 333 155 C305 155 279 160 253 171 L253 150 C271 143 296 136 331 136 L331 136 Z " />
<glyph glyph-name="uni2785" unicode="&#x2785;" horiz-adv-x="713" d="M356 -12 C523 -12 660 124 660 291 C660 458 523 595 356 595 C189 595 53 458 53 291 C53 124 189 -12 356 -12 L356 -12 Z M356 8 C200 8 73 135 73 291 C73 447 200 575 356 575 C512 575 640 447 640 291 C640 135 512 8 356 8 L356 8 Z M368 431 C382 431 400 429 421 421 L421 442 C405 447 384 451 368 451 C290 451 238 383 238 270 C238 194 271 136 336 136 C398 136 438 177 438 238 C438 303 401 327 348 327 C318 327 282 309 263 295 C268 386 305 431 368 431 L368 431 Z M344 308 C391 308 413 289 413 236 C413 184 387 155 336 155 C285 155 262 202 262 270 L262 275 C280 289 311 308 344 308 L344 308 Z " />
<glyph glyph-name="uni2786" unicode="&#x2786;" horiz-adv-x="713" d="M356 -12 C523 -12 660 124 660 291 C660 458 523 595 356 595 C189 595 53 458 53 291 C53 124 189 -12 356 -12 L356 -12 Z M356 8 C200 8 73 135 73 291 C73 447 200 575 356 575 C512 575 640 447 640 291 C640 135 512 8 356 8 L356 8 Z M304 140 L440 430 L440 446 L260 446 L260 426 L416 426 L281 142 L283 140 L304 140 Z " />
<glyph glyph-name="uni2787" unicode="&#x2787;" horiz-adv-x="713" d="M356 -12 C523 -12 660 124 660 291 C660 458 523 595 356 595 C189 595 53 458 53 291 C53 124 189 -12 356 -12 L356 -12 Z M356 8 C200 8 73 135 73 291 C73 447 200 575 356 575 C512 575 640 447 640 291 C640 135 512 8 356 8 L356 8 Z M450 221 C450 264 419 282 384 295 C416 311 443 338 443 375 C443 420 408 451 350 451 C299 451 262 416 262 370 C262 332 285 313 313 300 C283 286 255 256 255 219 C255 169 289 136 348 136 C408 136 450 171 450 221 L450 221 Z M420 373 C420 343 399 320 366 302 C325 315 284 328 284 371 C284 409 312 431 350 431 C398 431 420 405 420 373 L420 373 Z M278 220 C278 256 302 280 329 294 C374 277 427 268 427 220 C427 169 385 155 349 155 C307 155 278 177 278 220 L278 220 Z " />
<glyph glyph-name="uni2788" unicode="&#x2788;" horiz-adv-x="713" d="M356 -12 C523 -12 660 124 660 291 C660 458 523 595 356 595 C189 595 53 458 53 291 C53 124 189 -12 356 -12 L356 -12 Z M356 8 C200 8 73 135 73 291 C73 447 200 575 356 575 C512 575 640 447 640 291 C640 135 512 8 356 8 L356 8 Z M323 155 C309 155 291 157 270 165 L270 144 C286 139 307 136 323 136 C401 136 453 203 453 317 C453 393 420 451 355 451 C293 451 253 409 253 348 C253 283 290 259 343 259 C372 259 408 276 427 291 C423 200 385 155 323 155 L323 155 Z M347 278 C300 278 277 297 277 350 C277 404 304 431 354 431 C406 431 429 384 429 317 L429 310 C410 297 379 278 347 278 L347 278 Z " />
<glyph glyph-name="uni278A" unicode="&#x278a;" horiz-adv-x="713" d="M356 -12 C523 -12 660 124 660 291 C660 458 523 595 356 595 C189 595 53 458 53 291 C53 124 189 -12 356 -12 L356 -12 Z M344 140 L344 427 L268 403 L268 422 L350 451 L367 451 L367 140 L344 140 Z " />
<glyph glyph-name="uni278B" unicode="&#x278b;" horiz-adv-x="713" d="M356 -12 C523 -12 660 124 660 291 C660 458 523 595 356 595 C189 595 53 458 53 291 C53 124 189 -12 356 -12 L356 -12 Z M243 158 C324 219 415 294 415 362 C415 406 391 431 341 431 C314 431 290 426 253 402 L253 423 C280 442 314 451 342 451 C398 451 438 425 438 364 C438 292 349 216 279 163 L274 160 L450 160 L450 140 L243 140 L243 158 Z " />
<glyph glyph-name="uni278C" unicode="&#x278c;" horiz-adv-x="713" d="M356 -12 C523 -12 660 124 660 291 C660 458 523 595 356 595 C189 595 53 458 53 291 C53 124 189 -12 356 -12 L356 -12 Z M337 136 C305 136 280 142 264 150 L264 171 C288 159 316 155 341 155 C397 155 422 185 422 224 C422 268 384 287 323 289 L323 307 C364 310 407 341 407 379 C407 410 387 431 346 431 C317 431 296 423 267 402 L267 424 C291 442 319 451 348 451 C399 451 430 425 430 382 C430 331 379 307 359 302 L359 301 C400 300 446 274 446 225 C446 159 391 136 337 136 L337 136 Z " />
<glyph glyph-name="uni278D" unicode="&#x278d;" horiz-adv-x="713" d="M356 -12 C523 -12 660 124 660 291 C660 458 523 595 356 595 C189 595 53 458 53 291 C53 124 189 -12 356 -12 L356 -12 Z M360 227 L215 227 L215 247 L362 451 L384 451 L384 246 L430 246 L430 227 L384 227 L384 140 L360 140 L360 227 Z M360 246 L360 417 L237 246 L360 246 Z " />
<glyph glyph-name="uni278E" unicode="&#x278e;" horiz-adv-x="713" d="M356 -12 C523 -12 660 124 660 291 C660 458 523 595 356 595 C189 595 53 458 53 291 C53 124 189 -12 356 -12 L356 -12 Z M331 136 C296 136 271 143 253 150 L253 171 C279 160 305 155 333 155 C378 155 413 182 413 229 C413 286 374 300 314 300 C299 300 282 299 268 296 L279 446 L432 446 L432 426 L297 426 L289 318 C297 318 309 320 320 320 C386 320 436 302 436 231 C436 165 384 136 331 136 L331 136 Z " />
<glyph glyph-name="uni278F" unicode="&#x278f;" horiz-adv-x="713" d="M356 -12 C523 -12 660 124 660 291 C660 458 523 595 356 595 C189 595 53 458 53 291 C53 124 189 -12 356 -12 L356 -12 Z M368 431 C305 431 268 386 263 295 C282 309 318 327 348 327 C401 327 438 303 438 238 C438 177 398 136 336 136 C271 136 238 194 238 270 C238 383 290 451 368 451 C384 451 405 447 421 442 L421 421 C400 429 382 431 368 431 L368 431 Z M344 308 C311 308 280 289 262 275 L262 270 C262 202 285 155 336 155 C387 155 413 184 413 236 C413 289 391 308 344 308 L344 308 Z " />
<glyph glyph-name="uni2790" unicode="&#x2790;" horiz-adv-x="713" d="M356 -12 C523 -12 660 124 660 291 C660 458 523 595 356 595 C189 595 53 458 53 291 C53 124 189 -12 356 -12 L356 -12 Z M283 140 L281 142 L416 426 L260 426 L260 446 L440 446 L440 430 L304 140 L283 140 Z " />
<glyph glyph-name="uni2791" unicode="&#x2791;" horiz-adv-x="713" d="M356 -12 C523 -12 660 124 660 291 C660 458 523 595 356 595 C189 595 53 458 53 291 C53 124 189 -12 356 -12 L356 -12 Z M450 221 C450 171 408 136 348 136 C289 136 255 169 255 219 C255 256 283 286 313 300 C285 313 262 332 262 370 C262 416 299 451 350 451 C408 451 443 420 443 375 C443 338 416 311 384 295 C419 282 450 264 450 221 L450 221 Z M420 373 C420 405 398 431 350 431 C312 431 284 409 284 371 C284 328 325 315 366 302 C399 320 420 343 420 373 L420 373 Z M278 220 C278 177 307 155 349 155 C385 155 427 169 427 220 C427 268 374 277 329 294 C302 280 278 256 278 220 L278 220 Z " />
<glyph glyph-name="uni2792" unicode="&#x2792;" horiz-adv-x="713" d="M356 -12 C523 -12 660 124 660 291 C660 458 523 595 356 595 C189 595 53 458 53 291 C53 124 189 -12 356 -12 L356 -12 Z M323 155 C385 155 423 200 427 291 C408 276 372 259 343 259 C290 259 253 283 253 348 C253 409 293 451 355 451 C420 451 453 393 453 317 C453 203 401 136 323 136 C307 136 286 139 270 144 L270 165 C291 157 309 155 323 155 L323 155 Z M347 278 C379 278 410 297 429 310 L429 317 C429 384 406 431 354 431 C304 431 277 404 277 350 C277 297 300 278 347 278 L347 278 Z " />
<glyph glyph-name="uni301A" unicode="&#x301a;" horiz-adv-x="380" d="M5 -181 L264 -181 L267 -158 L153 -158 L297 655 L411 655 L415 679 L156 679 L5 -181 Z M178 655 L271 655 L128 -158 L34 -158 L178 655 Z " />
<glyph glyph-name="uni301B" unicode="&#x301b;" horiz-adv-x="380" d="M373 679 L114 679 L111 655 L225 655 L81 -158 L-33 -158 L-37 -181 L222 -181 L373 679 Z M344 655 L200 -158 L107 -158 L250 655 L344 655 Z " />
<glyph glyph-name="apple" unicode="&#xf8ff;" horiz-adv-x="1241" d="M390 318 L401 318 L401 328 L411 328 L411 338 L421 338 L421 347 L431 347 L431 388 L420 388 L420 348 L401 348 L401 388 L390 388 L390 347 L400 347 L400 329 L390 329 L390 318 Z M350 338 L371 338 L371 348 L351 348 L351 377 L371 377 L371 388 L351 388 L351 398 L340 398 L340 388 L330 388 L330 377 L340 377 L340 347 L350 347 L350 338 Z M590 338 L611 338 L611 348 L591 348 L591 377 L611 377 L611 388 L591 388 L591 398 L580 398 L580 388 L570 388 L570 377 L580 377 L580 347 L590 347 L590 338 Z M700 338 L731 338 L731 348 L701 348 L701 357 L731 357 L731 378 L721 378 L721 388 L700 388 L700 378 L690 378 L690 347 L700 347 L700 338 Z M880 338 L911 338 L911 348 L881 348 L881 357 L911 357 L911 378 L901 378 L901 388 L880 388 L880 378 L870 378 L870 347 L880 347 L880 338 Z M110 347 L121 347 L121 357 L131 357 L131 368 L121 368 L121 378 L110 378 L110 368 L100 368 L100 357 L110 357 L110 347 Z M180 347 L191 347 L191 357 L201 357 L201 368 L191 368 L191 378 L180 378 L180 368 L170 368 L170 357 L180 357 L180 347 Z M270 347 L281 347 L281 357 L291 357 L291 368 L281 368 L281 378 L270 378 L270 368 L260 368 L260 357 L270 357 L270 347 Z M520 338 L541 338 L541 347 L551 347 L551 378 L541 378 L541 388 L520 388 L520 378 L510 378 L510 347 L520 347 L520 338 Z M630 338 L641 338 L641 377 L660 377 L660 338 L671 338 L671 378 L661 378 L661 388 L641 388 L641 408 L630 408 L630 338 Z M960 347 L971 347 L971 357 L981 357 L981 368 L971 368 L971 378 L960 378 L960 368 L950 368 L950 357 L960 357 L960 347 Z M1050 347 L1061 347 L1061 357 L1071 357 L1071 368 L1061 368 L1061 378 L1050 378 L1050 368 L1040 368 L1040 357 L1050 357 L1050 347 Z M1120 347 L1131 347 L1131 357 L1141 357 L1141 368 L1131 368 L1131 378 L1120 378 L1120 368 L1110 368 L1110 357 L1120 357 L1120 347 Z M450 318 L461 318 L461 338 L481 338 L481 347 L491 347 L491 378 L481 378 L481 388 L450 388 L450 318 Z M780 318 L791 318 L791 388 L760 388 L760 378 L750 378 L750 347 L760 347 L760 338 L780 338 L780 318 Z M820 338 L851 338 L851 388 L840 388 L840 348 L821 348 L821 388 L810 388 L810 347 L820 347 L820 338 Z M240 328 L251 328 L251 338 L261 338 L261 348 L250 348 L250 338 L240 338 L240 328 Z M250 377 L261 377 L261 388 L251 388 L251 398 L240 398 L240 387 L250 387 L250 377 Z M300 328 L311 328 L311 338 L301 338 L301 348 L290 348 L290 338 L300 338 L300 328 Z M290 377 L301 377 L301 387 L311 387 L311 398 L300 398 L300 388 L290 388 L290 377 Z M930 328 L941 328 L941 338 L951 338 L951 348 L940 348 L940 338 L930 338 L930 328 Z M940 377 L951 377 L951 388 L941 388 L941 398 L930 398 L930 387 L940 387 L940 377 Z M990 328 L1001 328 L1001 338 L991 338 L991 348 L980 348 L980 338 L990 338 L990 328 Z M980 377 L991 377 L991 387 L1001 387 L1001 398 L990 398 L990 388 L980 388 L980 377 Z M160 338 L171 338 L171 348 L160 348 L160 338 Z M160 377 L171 377 L171 388 L160 388 L160 377 Z M200 338 L211 338 L211 348 L200 348 L200 338 Z M200 377 L211 377 L211 388 L200 388 L200 377 Z M461 348 L461 377 L480 377 L480 348 L461 348 Z M521 348 L521 377 L540 377 L540 348 L521 348 Z M701 368 L701 377 L720 377 L720 368 L701 368 Z M761 348 L761 377 L780 377 L780 348 L761 348 Z M881 368 L881 377 L900 377 L900 368 L881 368 Z M1030 338 L1041 338 L1041 348 L1030 348 L1030 338 Z M1030 377 L1041 377 L1041 388 L1030 388 L1030 377 Z M1070 338 L1081 338 L1081 348 L1070 348 L1070 338 Z M1070 377 L1081 377 L1081 388 L1070 388 L1070 377 Z " />
<glyph glyph-name="f_f" unicode="&#xfb00;" horiz-adv-x="488" d="M52 428 L146 428 L63 -34 C49 -117 13 -169 -10 -188 C-49 -191 -85 -181 -112 -169 L-121 -194 C-93 -206 -63 -212 -30 -212 C-10 -212 9 -199 25 -181 C58 -193 135 -212 182 -212 C243 -212 289 -100 300 -36 L382 428 L503 428 L506 450 L386 450 L393 488 C407 569 428 603 460 631 C475 634 489 635 503 635 C525 635 548 631 573 621 L580 645 C565 652 539 659 516 659 C486 659 464 655 446 643 C440 639 434 635 429 630 C404 639 336 652 302 652 C273 652 251 648 232 636 C198 615 171 567 156 484 L150 450 L55 450 L52 428 Z M170 428 L357 428 L275 -34 C260 -117 224 -170 201 -189 C153 -191 75 -173 40 -160 C64 -122 82 -72 89 -36 L170 428 Z M369 491 L361 450 L174 450 L180 481 C194 561 216 597 248 625 C266 629 281 629 296 628 C330 627 385 619 412 610 C393 584 378 545 369 491 L369 491 Z " />
<glyph glyph-name="fi" unicode="&#xfb01;" horiz-adv-x="426" d="M52 428 L144 428 L63 -34 C49 -117 13 -169 -10 -188 C-49 -191 -85 -181 -112 -169 L-121 -194 C-93 -206 -63 -212 -30 -212 C31 -212 77 -100 89 -36 L170 428 L357 428 L283 0 L308 0 L387 450 L174 450 L181 490 C196 571 216 605 248 633 C262 636 275 637 287 637 C310 637 335 633 361 623 L368 647 C353 654 327 661 304 661 C274 661 253 657 234 645 C200 624 171 576 156 493 L148 450 L55 450 L52 428 Z " />
<glyph glyph-name="fl" unicode="&#xfb02;" horiz-adv-x="433" d="M307 0 L422 653 L399 653 C379 657 352 659 327 659 C291 659 255 653 234 639 C200 619 171 570 156 487 L149 450 L55 450 L52 428 L145 428 L63 -34 C49 -117 13 -169 -10 -188 C-49 -191 -85 -181 -112 -169 L-121 -194 C-93 -206 -63 -212 -30 -212 C31 -212 77 -100 89 -36 L171 428 L289 428 L293 450 L175 450 L181 484 C195 565 216 599 248 627 C275 634 302 636 329 635 C350 635 372 632 391 628 L281 0 L307 0 Z " />
<glyph glyph-name="f_f_i" unicode="&#xfb03;" horiz-adv-x="639" d="M521 0 L600 450 L388 450 L395 488 C409 569 430 604 462 632 C476 635 490 636 505 636 C526 635 550 631 574 622 L582 646 C567 653 540 659 517 659 C490 659 471 657 453 647 C445 642 437 637 430 630 C406 638 337 652 302 652 C273 652 251 648 232 636 C198 616 171 568 156 484 L150 450 L55 450 L52 428 L146 428 L63 -34 C49 -117 13 -169 -10 -188 C-49 -191 -85 -181 -112 -169 L-121 -194 C-93 -206 -63 -212 -30 -212 C-9 -212 8 -199 25 -180 C58 -193 136 -212 183 -212 C244 -212 291 -100 302 -36 L384 428 L570 428 L496 0 L521 0 Z M170 428 L359 428 L277 -34 C262 -117 225 -170 203 -189 C154 -191 75 -172 40 -160 C65 -122 82 -71 89 -36 L170 428 Z M180 481 C194 562 216 597 248 625 C262 629 274 630 287 630 C325 630 384 620 414 611 C395 584 380 545 371 491 L363 450 L174 450 L180 481 Z " />
<glyph glyph-name="f_f_l" unicode="&#xfb04;" horiz-adv-x="646" d="M519 0 L634 652 L613 652 C592 657 564 659 537 659 C501 658 466 653 445 639 C439 635 433 631 428 626 C403 635 335 648 301 648 C272 648 250 644 231 632 C197 612 170 563 155 480 L149 450 L55 450 L52 428 L145 428 L63 -34 C49 -117 13 -169 -10 -188 C-49 -191 -85 -181 -112 -169 L-121 -194 C-93 -206 -63 -212 -30 -212 C-10 -212 9 -199 25 -181 C58 -193 135 -212 182 -212 C243 -212 289 -100 300 -36 L382 428 L503 428 L506 450 L386 450 L392 484 C406 565 427 599 459 627 C483 633 507 636 530 636 C555 635 580 633 604 629 L494 0 L519 0 Z M275 -34 C260 -117 224 -170 201 -189 C153 -191 75 -173 40 -160 C64 -122 82 -72 89 -36 L170 428 L357 428 L275 -34 Z M179 477 C193 558 215 593 247 621 C263 625 278 626 292 625 C327 624 382 615 411 606 C392 580 377 541 368 487 L361 450 L174 450 L179 477 Z " />
</font>
</defs>
</svg>
